%TF.GenerationSoftware,KiCad,Pcbnew,(6.0.0)*%
%TF.CreationDate,2022-01-20T22:55:17+08:00*%
%TF.ProjectId,NodeMcu,4e6f6465-4d63-4752-9e6b-696361645f70,rev?*%
%TF.SameCoordinates,Original*%
%TF.FileFunction,Legend,Top*%
%TF.FilePolarity,Positive*%
%FSLAX46Y46*%
G04 Gerber Fmt 4.6, Leading zero omitted, Abs format (unit mm)*
G04 Created by KiCad (PCBNEW (6.0.0)) date 2022-01-20 22:55:17*
%MOMM*%
%LPD*%
G01*
G04 APERTURE LIST*
%ADD10C,0.050000*%
%ADD11C,0.100000*%
%ADD12C,0.120000*%
%ADD13C,0.254000*%
%ADD14C,0.300000*%
%ADD15C,0.400000*%
G04 APERTURE END LIST*
D10*
X116819047Y-74850000D02*
X116771428Y-74826190D01*
X116700000Y-74826190D01*
X116628571Y-74850000D01*
X116580952Y-74897619D01*
X116557142Y-74945238D01*
X116533333Y-75040476D01*
X116533333Y-75111904D01*
X116557142Y-75207142D01*
X116580952Y-75254761D01*
X116628571Y-75302380D01*
X116700000Y-75326190D01*
X116747619Y-75326190D01*
X116819047Y-75302380D01*
X116842857Y-75278571D01*
X116842857Y-75111904D01*
X116747619Y-75111904D01*
X117057142Y-75326190D02*
X117057142Y-74826190D01*
X117342857Y-75326190D01*
X117342857Y-74826190D01*
X117580952Y-75326190D02*
X117580952Y-74826190D01*
X117700000Y-74826190D01*
X117771428Y-74850000D01*
X117819047Y-74897619D01*
X117842857Y-74945238D01*
X117866666Y-75040476D01*
X117866666Y-75111904D01*
X117842857Y-75207142D01*
X117819047Y-75254761D01*
X117771428Y-75302380D01*
X117700000Y-75326190D01*
X117580952Y-75326190D01*
X129628571Y-74826190D02*
X129390476Y-74826190D01*
X129366666Y-75064285D01*
X129390476Y-75040476D01*
X129438095Y-75016666D01*
X129557142Y-75016666D01*
X129604761Y-75040476D01*
X129628571Y-75064285D01*
X129652380Y-75111904D01*
X129652380Y-75230952D01*
X129628571Y-75278571D01*
X129604761Y-75302380D01*
X129557142Y-75326190D01*
X129438095Y-75326190D01*
X129390476Y-75302380D01*
X129366666Y-75278571D01*
X129819047Y-74992857D02*
X129938095Y-75326190D01*
X130057142Y-74992857D01*
X106476190Y-53226190D02*
X106785714Y-53226190D01*
X106619047Y-53416666D01*
X106690476Y-53416666D01*
X106738095Y-53440476D01*
X106761904Y-53464285D01*
X106785714Y-53511904D01*
X106785714Y-53630952D01*
X106761904Y-53678571D01*
X106738095Y-53702380D01*
X106690476Y-53726190D01*
X106547619Y-53726190D01*
X106500000Y-53702380D01*
X106476190Y-53678571D01*
X107000000Y-53678571D02*
X107023809Y-53702380D01*
X107000000Y-53726190D01*
X106976190Y-53702380D01*
X107000000Y-53678571D01*
X107000000Y-53726190D01*
X107190476Y-53226190D02*
X107500000Y-53226190D01*
X107333333Y-53416666D01*
X107404761Y-53416666D01*
X107452380Y-53440476D01*
X107476190Y-53464285D01*
X107500000Y-53511904D01*
X107500000Y-53630952D01*
X107476190Y-53678571D01*
X107452380Y-53702380D01*
X107404761Y-53726190D01*
X107261904Y-53726190D01*
X107214285Y-53702380D01*
X107190476Y-53678571D01*
X93730952Y-53726190D02*
X93730952Y-53226190D01*
X93850000Y-53226190D01*
X93921428Y-53250000D01*
X93969047Y-53297619D01*
X93992857Y-53345238D01*
X94016666Y-53440476D01*
X94016666Y-53511904D01*
X93992857Y-53607142D01*
X93969047Y-53654761D01*
X93921428Y-53702380D01*
X93850000Y-53726190D01*
X93730952Y-53726190D01*
X94326190Y-53226190D02*
X94373809Y-53226190D01*
X94421428Y-53250000D01*
X94445238Y-53273809D01*
X94469047Y-53321428D01*
X94492857Y-53416666D01*
X94492857Y-53535714D01*
X94469047Y-53630952D01*
X94445238Y-53678571D01*
X94421428Y-53702380D01*
X94373809Y-53726190D01*
X94326190Y-53726190D01*
X94278571Y-53702380D01*
X94254761Y-53678571D01*
X94230952Y-53630952D01*
X94207142Y-53535714D01*
X94207142Y-53416666D01*
X94230952Y-53321428D01*
X94254761Y-53273809D01*
X94278571Y-53250000D01*
X94326190Y-53226190D01*
X98730952Y-53726190D02*
X98730952Y-53226190D01*
X98850000Y-53226190D01*
X98921428Y-53250000D01*
X98969047Y-53297619D01*
X98992857Y-53345238D01*
X99016666Y-53440476D01*
X99016666Y-53511904D01*
X98992857Y-53607142D01*
X98969047Y-53654761D01*
X98921428Y-53702380D01*
X98850000Y-53726190D01*
X98730952Y-53726190D01*
X99207142Y-53273809D02*
X99230952Y-53250000D01*
X99278571Y-53226190D01*
X99397619Y-53226190D01*
X99445238Y-53250000D01*
X99469047Y-53273809D01*
X99492857Y-53321428D01*
X99492857Y-53369047D01*
X99469047Y-53440476D01*
X99183333Y-53726190D01*
X99492857Y-53726190D01*
X124092857Y-53726190D02*
X124092857Y-53226190D01*
X124211904Y-53226190D01*
X124283333Y-53250000D01*
X124330952Y-53297619D01*
X124354761Y-53345238D01*
X124378571Y-53440476D01*
X124378571Y-53511904D01*
X124354761Y-53607142D01*
X124330952Y-53654761D01*
X124283333Y-53702380D01*
X124211904Y-53726190D01*
X124092857Y-53726190D01*
X124854761Y-53726190D02*
X124569047Y-53726190D01*
X124711904Y-53726190D02*
X124711904Y-53226190D01*
X124664285Y-53297619D01*
X124616666Y-53345238D01*
X124569047Y-53369047D01*
X125164285Y-53226190D02*
X125211904Y-53226190D01*
X125259523Y-53250000D01*
X125283333Y-53273809D01*
X125307142Y-53321428D01*
X125330952Y-53416666D01*
X125330952Y-53535714D01*
X125307142Y-53630952D01*
X125283333Y-53678571D01*
X125259523Y-53702380D01*
X125211904Y-53726190D01*
X125164285Y-53726190D01*
X125116666Y-53702380D01*
X125092857Y-53678571D01*
X125069047Y-53630952D01*
X125045238Y-53535714D01*
X125045238Y-53416666D01*
X125069047Y-53321428D01*
X125092857Y-53273809D01*
X125116666Y-53250000D01*
X125164285Y-53226190D01*
X101530952Y-53726190D02*
X101530952Y-53226190D01*
X101650000Y-53226190D01*
X101721428Y-53250000D01*
X101769047Y-53297619D01*
X101792857Y-53345238D01*
X101816666Y-53440476D01*
X101816666Y-53511904D01*
X101792857Y-53607142D01*
X101769047Y-53654761D01*
X101721428Y-53702380D01*
X101650000Y-53726190D01*
X101530952Y-53726190D01*
X101983333Y-53226190D02*
X102292857Y-53226190D01*
X102126190Y-53416666D01*
X102197619Y-53416666D01*
X102245238Y-53440476D01*
X102269047Y-53464285D01*
X102292857Y-53511904D01*
X102292857Y-53630952D01*
X102269047Y-53678571D01*
X102245238Y-53702380D01*
X102197619Y-53726190D01*
X102054761Y-53726190D01*
X102007142Y-53702380D01*
X101983333Y-53678571D01*
X111430952Y-53726190D02*
X111430952Y-53226190D01*
X111550000Y-53226190D01*
X111621428Y-53250000D01*
X111669047Y-53297619D01*
X111692857Y-53345238D01*
X111716666Y-53440476D01*
X111716666Y-53511904D01*
X111692857Y-53607142D01*
X111669047Y-53654761D01*
X111621428Y-53702380D01*
X111550000Y-53726190D01*
X111430952Y-53726190D01*
X112169047Y-53226190D02*
X111930952Y-53226190D01*
X111907142Y-53464285D01*
X111930952Y-53440476D01*
X111978571Y-53416666D01*
X112097619Y-53416666D01*
X112145238Y-53440476D01*
X112169047Y-53464285D01*
X112192857Y-53511904D01*
X112192857Y-53630952D01*
X112169047Y-53678571D01*
X112145238Y-53702380D01*
X112097619Y-53726190D01*
X111978571Y-53726190D01*
X111930952Y-53702380D01*
X111907142Y-53678571D01*
X124014285Y-74992857D02*
X124014285Y-75326190D01*
X124014285Y-75040476D02*
X124038095Y-75016666D01*
X124085714Y-74992857D01*
X124157142Y-74992857D01*
X124204761Y-75016666D01*
X124228571Y-75064285D01*
X124228571Y-75326190D01*
X124752380Y-75326190D02*
X124585714Y-75088095D01*
X124466666Y-75326190D02*
X124466666Y-74826190D01*
X124657142Y-74826190D01*
X124704761Y-74850000D01*
X124728571Y-74873809D01*
X124752380Y-74921428D01*
X124752380Y-74992857D01*
X124728571Y-75040476D01*
X124704761Y-75064285D01*
X124657142Y-75088095D01*
X124466666Y-75088095D01*
X124942857Y-75302380D02*
X125014285Y-75326190D01*
X125133333Y-75326190D01*
X125180952Y-75302380D01*
X125204761Y-75278571D01*
X125228571Y-75230952D01*
X125228571Y-75183333D01*
X125204761Y-75135714D01*
X125180952Y-75111904D01*
X125133333Y-75088095D01*
X125038095Y-75064285D01*
X124990476Y-75040476D01*
X124966666Y-75016666D01*
X124942857Y-74969047D01*
X124942857Y-74921428D01*
X124966666Y-74873809D01*
X124990476Y-74850000D01*
X125038095Y-74826190D01*
X125157142Y-74826190D01*
X125228571Y-74850000D01*
X125371428Y-74826190D02*
X125657142Y-74826190D01*
X125514285Y-75326190D02*
X125514285Y-74826190D01*
X109019047Y-53250000D02*
X108971428Y-53226190D01*
X108900000Y-53226190D01*
X108828571Y-53250000D01*
X108780952Y-53297619D01*
X108757142Y-53345238D01*
X108733333Y-53440476D01*
X108733333Y-53511904D01*
X108757142Y-53607142D01*
X108780952Y-53654761D01*
X108828571Y-53702380D01*
X108900000Y-53726190D01*
X108947619Y-53726190D01*
X109019047Y-53702380D01*
X109042857Y-53678571D01*
X109042857Y-53511904D01*
X108947619Y-53511904D01*
X109257142Y-53726190D02*
X109257142Y-53226190D01*
X109542857Y-53726190D01*
X109542857Y-53226190D01*
X109780952Y-53726190D02*
X109780952Y-53226190D01*
X109900000Y-53226190D01*
X109971428Y-53250000D01*
X110019047Y-53297619D01*
X110042857Y-53345238D01*
X110066666Y-53440476D01*
X110066666Y-53511904D01*
X110042857Y-53607142D01*
X110019047Y-53654761D01*
X109971428Y-53702380D01*
X109900000Y-53726190D01*
X109780952Y-53726190D01*
X113930952Y-53726190D02*
X113930952Y-53226190D01*
X114050000Y-53226190D01*
X114121428Y-53250000D01*
X114169047Y-53297619D01*
X114192857Y-53345238D01*
X114216666Y-53440476D01*
X114216666Y-53511904D01*
X114192857Y-53607142D01*
X114169047Y-53654761D01*
X114121428Y-53702380D01*
X114050000Y-53726190D01*
X113930952Y-53726190D01*
X114645238Y-53226190D02*
X114550000Y-53226190D01*
X114502380Y-53250000D01*
X114478571Y-53273809D01*
X114430952Y-53345238D01*
X114407142Y-53440476D01*
X114407142Y-53630952D01*
X114430952Y-53678571D01*
X114454761Y-53702380D01*
X114502380Y-53726190D01*
X114597619Y-53726190D01*
X114645238Y-53702380D01*
X114669047Y-53678571D01*
X114692857Y-53630952D01*
X114692857Y-53511904D01*
X114669047Y-53464285D01*
X114645238Y-53440476D01*
X114597619Y-53416666D01*
X114502380Y-53416666D01*
X114454761Y-53440476D01*
X114430952Y-53464285D01*
X114407142Y-53511904D01*
D11*
X137561386Y-51334633D02*
X137679237Y-51452484D01*
X137544550Y-51688186D02*
X137376191Y-51519828D01*
X137729744Y-51166274D01*
X137898103Y-51334633D01*
X137696073Y-51806037D02*
X137729744Y-51873381D01*
X137813924Y-51957560D01*
X137864431Y-51974396D01*
X137898103Y-51974396D01*
X137948611Y-51957560D01*
X137982282Y-51923889D01*
X137999118Y-51873381D01*
X137999118Y-51839709D01*
X137982282Y-51789202D01*
X137931775Y-51705022D01*
X137914939Y-51654515D01*
X137914939Y-51620843D01*
X137931775Y-51570335D01*
X137965447Y-51536663D01*
X138015954Y-51519828D01*
X138049626Y-51519828D01*
X138100134Y-51536663D01*
X138184313Y-51620843D01*
X138217985Y-51688186D01*
X138032790Y-52176427D02*
X138386343Y-51822873D01*
X138521030Y-51957560D01*
X138537866Y-52008068D01*
X138537866Y-52041740D01*
X138521030Y-52092247D01*
X138470523Y-52142755D01*
X138420015Y-52159591D01*
X138386343Y-52159591D01*
X138335836Y-52142755D01*
X138201149Y-52008068D01*
X138521030Y-52395293D02*
X138790404Y-52664667D01*
X139009271Y-53152907D02*
X138807240Y-52950877D01*
X138908256Y-53051892D02*
X139261809Y-52698339D01*
X139177630Y-52715175D01*
X139110286Y-52715175D01*
X139059778Y-52698339D01*
X139463839Y-52967713D02*
X139497511Y-52967713D01*
X139548019Y-52984549D01*
X139632198Y-53068728D01*
X139649034Y-53119236D01*
X139649034Y-53152907D01*
X139632198Y-53203415D01*
X139598526Y-53237087D01*
X139531183Y-53270759D01*
X139127122Y-53270759D01*
X139345988Y-53489625D01*
X136697537Y-51979615D02*
X137051090Y-51626062D01*
X136899567Y-52181646D01*
X137253121Y-51828092D01*
X137118434Y-52400512D02*
X137101598Y-52350005D01*
X137101598Y-52316333D01*
X137118434Y-52265825D01*
X137219449Y-52164810D01*
X137269956Y-52147974D01*
X137303628Y-52147974D01*
X137354136Y-52164810D01*
X137404643Y-52215318D01*
X137421479Y-52265825D01*
X137421479Y-52299497D01*
X137404643Y-52350005D01*
X137303628Y-52451020D01*
X137253121Y-52467856D01*
X137219449Y-52467856D01*
X137168941Y-52451020D01*
X137118434Y-52400512D01*
X137539330Y-52821409D02*
X137892884Y-52467856D01*
X137556166Y-52804573D02*
X137505659Y-52787737D01*
X137438315Y-52720394D01*
X137421479Y-52669886D01*
X137421479Y-52636214D01*
X137438315Y-52585707D01*
X137539330Y-52484692D01*
X137589838Y-52467856D01*
X137623510Y-52467856D01*
X137674017Y-52484692D01*
X137741361Y-52552035D01*
X137758197Y-52602543D01*
X137859212Y-53107619D02*
X137808704Y-53090783D01*
X137741361Y-53023440D01*
X137724525Y-52972932D01*
X137741361Y-52922424D01*
X137876048Y-52787737D01*
X137926556Y-52770901D01*
X137977063Y-52787737D01*
X138044407Y-52855081D01*
X138061243Y-52905588D01*
X138044407Y-52956096D01*
X138010735Y-52989768D01*
X137808704Y-52855081D01*
X138010735Y-53292814D02*
X138364288Y-52939260D01*
X138229601Y-53309650D01*
X138599991Y-53174963D01*
X138246437Y-53528516D01*
X138583155Y-53831562D02*
X138532647Y-53814726D01*
X138465304Y-53747382D01*
X138448468Y-53696875D01*
X138448468Y-53663203D01*
X138465304Y-53612695D01*
X138566319Y-53511680D01*
X138616827Y-53494844D01*
X138650498Y-53494844D01*
X138701006Y-53511680D01*
X138768349Y-53579024D01*
X138785185Y-53629531D01*
X139105067Y-53915741D02*
X138869365Y-54151443D01*
X138953544Y-53764218D02*
X138768349Y-53949413D01*
X138751514Y-53999920D01*
X138768349Y-54050428D01*
X138818857Y-54100936D01*
X138869365Y-54117772D01*
X138903036Y-54117772D01*
X135143417Y-51563938D02*
X135496970Y-51210384D01*
X135581150Y-51294564D01*
X135614821Y-51361907D01*
X135614821Y-51429251D01*
X135597986Y-51479758D01*
X135547478Y-51563938D01*
X135496970Y-51614445D01*
X135412791Y-51664953D01*
X135362283Y-51681789D01*
X135294940Y-51681789D01*
X135227596Y-51648117D01*
X135143417Y-51563938D01*
X135648493Y-52035342D02*
X135597986Y-52018506D01*
X135530642Y-51951163D01*
X135513806Y-51900655D01*
X135530642Y-51850147D01*
X135665329Y-51715460D01*
X135715837Y-51698625D01*
X135766344Y-51715460D01*
X135833688Y-51782804D01*
X135850524Y-51833312D01*
X135833688Y-51883819D01*
X135800016Y-51917491D01*
X135597986Y-51782804D01*
X135800016Y-52186865D02*
X135816852Y-52237373D01*
X135884195Y-52304716D01*
X135934703Y-52321552D01*
X135985211Y-52304716D01*
X136002047Y-52287880D01*
X136018883Y-52237373D01*
X136002047Y-52186865D01*
X135951539Y-52136357D01*
X135934703Y-52085850D01*
X135951539Y-52035342D01*
X135968375Y-52018506D01*
X136018883Y-52001670D01*
X136069390Y-52018506D01*
X136119898Y-52069014D01*
X136136734Y-52119522D01*
X136086226Y-52506747D02*
X136321928Y-52271044D01*
X136439779Y-52153193D02*
X136406108Y-52153193D01*
X136406108Y-52186865D01*
X136439779Y-52186865D01*
X136439779Y-52153193D01*
X136406108Y-52186865D01*
X136641810Y-52590926D02*
X136355600Y-52877136D01*
X136305092Y-52893972D01*
X136271421Y-52893972D01*
X136220913Y-52877136D01*
X136170405Y-52826628D01*
X136153570Y-52776121D01*
X136422944Y-52809792D02*
X136372436Y-52792957D01*
X136305092Y-52725613D01*
X136288257Y-52675105D01*
X136288257Y-52641434D01*
X136305092Y-52590926D01*
X136406108Y-52489911D01*
X136456615Y-52473075D01*
X136490287Y-52473075D01*
X136540795Y-52489911D01*
X136608138Y-52557254D01*
X136624974Y-52607762D01*
X136810169Y-52759285D02*
X136574466Y-52994987D01*
X136776497Y-52792957D02*
X136810169Y-52792957D01*
X136860676Y-52809792D01*
X136911184Y-52860300D01*
X136928020Y-52910808D01*
X136911184Y-52961315D01*
X136725989Y-53146510D01*
X137163722Y-53584243D02*
X137517275Y-53230689D01*
X137382588Y-53365376D02*
X137433096Y-53382212D01*
X137500440Y-53449556D01*
X137517275Y-53500063D01*
X137517275Y-53533735D01*
X137500440Y-53584243D01*
X137399424Y-53685258D01*
X137348917Y-53702094D01*
X137315245Y-53702094D01*
X137264737Y-53685258D01*
X137197394Y-53617914D01*
X137180558Y-53567407D01*
X137685634Y-53634750D02*
X137534111Y-53954632D01*
X137853993Y-53803109D02*
X137534111Y-53954632D01*
X137416260Y-54005140D01*
X137382588Y-54005140D01*
X137332081Y-53988304D01*
X138022352Y-54409201D02*
X138039188Y-54459708D01*
X138106531Y-54527052D01*
X138157039Y-54543888D01*
X138207546Y-54527052D01*
X138224382Y-54510216D01*
X138241218Y-54459708D01*
X138224382Y-54409201D01*
X138173875Y-54358693D01*
X138157039Y-54308185D01*
X138173875Y-54257678D01*
X138190710Y-54240842D01*
X138241218Y-54224006D01*
X138291726Y-54240842D01*
X138342233Y-54291349D01*
X138359069Y-54341857D01*
X138493756Y-54442872D02*
X138628443Y-54577559D01*
X138662115Y-54375529D02*
X138359069Y-54678575D01*
X138342233Y-54729082D01*
X138359069Y-54779590D01*
X138392741Y-54813262D01*
X138561100Y-54981620D02*
X138544264Y-54931113D01*
X138544264Y-54897441D01*
X138561100Y-54846933D01*
X138662115Y-54745918D01*
X138712623Y-54729082D01*
X138746294Y-54729082D01*
X138796802Y-54745918D01*
X138847310Y-54796426D01*
X138864146Y-54846933D01*
X138864146Y-54880605D01*
X138847310Y-54931113D01*
X138746294Y-55032128D01*
X138695787Y-55048964D01*
X138662115Y-55048964D01*
X138611607Y-55032128D01*
X138561100Y-54981620D01*
X139066176Y-55015292D02*
X138830474Y-55250994D01*
X139032504Y-55048964D02*
X139066176Y-55048964D01*
X139116684Y-55065800D01*
X139167191Y-55116307D01*
X139184027Y-55166815D01*
X139167191Y-55217323D01*
X138981997Y-55402517D01*
X139301878Y-55688727D02*
X139251371Y-55671891D01*
X139184027Y-55604548D01*
X139167191Y-55554040D01*
X139184027Y-55503533D01*
X139318714Y-55368846D01*
X139369222Y-55352010D01*
X139419729Y-55368846D01*
X139487073Y-55436189D01*
X139503909Y-55486697D01*
X139487073Y-55537204D01*
X139453401Y-55570876D01*
X139251371Y-55436189D01*
D10*
X121830952Y-53726190D02*
X121830952Y-53226190D01*
X121950000Y-53226190D01*
X122021428Y-53250000D01*
X122069047Y-53297619D01*
X122092857Y-53345238D01*
X122116666Y-53440476D01*
X122116666Y-53511904D01*
X122092857Y-53607142D01*
X122069047Y-53654761D01*
X122021428Y-53702380D01*
X121950000Y-53726190D01*
X121830952Y-53726190D01*
X122354761Y-53726190D02*
X122450000Y-53726190D01*
X122497619Y-53702380D01*
X122521428Y-53678571D01*
X122569047Y-53607142D01*
X122592857Y-53511904D01*
X122592857Y-53321428D01*
X122569047Y-53273809D01*
X122545238Y-53250000D01*
X122497619Y-53226190D01*
X122402380Y-53226190D01*
X122354761Y-53250000D01*
X122330952Y-53273809D01*
X122307142Y-53321428D01*
X122307142Y-53440476D01*
X122330952Y-53488095D01*
X122354761Y-53511904D01*
X122402380Y-53535714D01*
X122497619Y-53535714D01*
X122545238Y-53511904D01*
X122569047Y-53488095D01*
X122592857Y-53440476D01*
X96430952Y-53726190D02*
X96430952Y-53226190D01*
X96550000Y-53226190D01*
X96621428Y-53250000D01*
X96669047Y-53297619D01*
X96692857Y-53345238D01*
X96716666Y-53440476D01*
X96716666Y-53511904D01*
X96692857Y-53607142D01*
X96669047Y-53654761D01*
X96621428Y-53702380D01*
X96550000Y-53726190D01*
X96430952Y-53726190D01*
X97192857Y-53726190D02*
X96907142Y-53726190D01*
X97050000Y-53726190D02*
X97050000Y-53226190D01*
X97002380Y-53297619D01*
X96954761Y-53345238D01*
X96907142Y-53369047D01*
X121930952Y-75064285D02*
X122097619Y-75064285D01*
X122169047Y-75326190D02*
X121930952Y-75326190D01*
X121930952Y-74826190D01*
X122169047Y-74826190D01*
X122383333Y-75326190D02*
X122383333Y-74826190D01*
X122669047Y-75326190D01*
X122669047Y-74826190D01*
X129076190Y-53226190D02*
X129385714Y-53226190D01*
X129219047Y-53416666D01*
X129290476Y-53416666D01*
X129338095Y-53440476D01*
X129361904Y-53464285D01*
X129385714Y-53511904D01*
X129385714Y-53630952D01*
X129361904Y-53678571D01*
X129338095Y-53702380D01*
X129290476Y-53726190D01*
X129147619Y-53726190D01*
X129100000Y-53702380D01*
X129076190Y-53678571D01*
X129600000Y-53678571D02*
X129623809Y-53702380D01*
X129600000Y-53726190D01*
X129576190Y-53702380D01*
X129600000Y-53678571D01*
X129600000Y-53726190D01*
X129790476Y-53226190D02*
X130100000Y-53226190D01*
X129933333Y-53416666D01*
X130004761Y-53416666D01*
X130052380Y-53440476D01*
X130076190Y-53464285D01*
X130100000Y-53511904D01*
X130100000Y-53630952D01*
X130076190Y-53678571D01*
X130052380Y-53702380D01*
X130004761Y-53726190D01*
X129861904Y-53726190D01*
X129814285Y-53702380D01*
X129790476Y-53678571D01*
X116730952Y-53726190D02*
X116730952Y-53226190D01*
X116850000Y-53226190D01*
X116921428Y-53250000D01*
X116969047Y-53297619D01*
X116992857Y-53345238D01*
X117016666Y-53440476D01*
X117016666Y-53511904D01*
X116992857Y-53607142D01*
X116969047Y-53654761D01*
X116921428Y-53702380D01*
X116850000Y-53726190D01*
X116730952Y-53726190D01*
X117183333Y-53226190D02*
X117516666Y-53226190D01*
X117302380Y-53726190D01*
X111519047Y-74850000D02*
X111471428Y-74826190D01*
X111400000Y-74826190D01*
X111328571Y-74850000D01*
X111280952Y-74897619D01*
X111257142Y-74945238D01*
X111233333Y-75040476D01*
X111233333Y-75111904D01*
X111257142Y-75207142D01*
X111280952Y-75254761D01*
X111328571Y-75302380D01*
X111400000Y-75326190D01*
X111447619Y-75326190D01*
X111519047Y-75302380D01*
X111542857Y-75278571D01*
X111542857Y-75111904D01*
X111447619Y-75111904D01*
X111757142Y-75326190D02*
X111757142Y-74826190D01*
X112042857Y-75326190D01*
X112042857Y-74826190D01*
X112280952Y-75326190D02*
X112280952Y-74826190D01*
X112400000Y-74826190D01*
X112471428Y-74850000D01*
X112519047Y-74897619D01*
X112542857Y-74945238D01*
X112566666Y-75040476D01*
X112566666Y-75111904D01*
X112542857Y-75207142D01*
X112519047Y-75254761D01*
X112471428Y-75302380D01*
X112400000Y-75326190D01*
X112280952Y-75326190D01*
X119230952Y-53726190D02*
X119230952Y-53226190D01*
X119350000Y-53226190D01*
X119421428Y-53250000D01*
X119469047Y-53297619D01*
X119492857Y-53345238D01*
X119516666Y-53440476D01*
X119516666Y-53511904D01*
X119492857Y-53607142D01*
X119469047Y-53654761D01*
X119421428Y-53702380D01*
X119350000Y-53726190D01*
X119230952Y-53726190D01*
X119802380Y-53440476D02*
X119754761Y-53416666D01*
X119730952Y-53392857D01*
X119707142Y-53345238D01*
X119707142Y-53321428D01*
X119730952Y-53273809D01*
X119754761Y-53250000D01*
X119802380Y-53226190D01*
X119897619Y-53226190D01*
X119945238Y-53250000D01*
X119969047Y-53273809D01*
X119992857Y-53321428D01*
X119992857Y-53345238D01*
X119969047Y-53392857D01*
X119945238Y-53416666D01*
X119897619Y-53440476D01*
X119802380Y-53440476D01*
X119754761Y-53464285D01*
X119730952Y-53488095D01*
X119707142Y-53535714D01*
X119707142Y-53630952D01*
X119730952Y-53678571D01*
X119754761Y-53702380D01*
X119802380Y-53726190D01*
X119897619Y-53726190D01*
X119945238Y-53702380D01*
X119969047Y-53678571D01*
X119992857Y-53630952D01*
X119992857Y-53535714D01*
X119969047Y-53488095D01*
X119945238Y-53464285D01*
X119897619Y-53440476D01*
X126819047Y-74850000D02*
X126771428Y-74826190D01*
X126700000Y-74826190D01*
X126628571Y-74850000D01*
X126580952Y-74897619D01*
X126557142Y-74945238D01*
X126533333Y-75040476D01*
X126533333Y-75111904D01*
X126557142Y-75207142D01*
X126580952Y-75254761D01*
X126628571Y-75302380D01*
X126700000Y-75326190D01*
X126747619Y-75326190D01*
X126819047Y-75302380D01*
X126842857Y-75278571D01*
X126842857Y-75111904D01*
X126747619Y-75111904D01*
X127057142Y-75326190D02*
X127057142Y-74826190D01*
X127342857Y-75326190D01*
X127342857Y-74826190D01*
X127580952Y-75326190D02*
X127580952Y-74826190D01*
X127700000Y-74826190D01*
X127771428Y-74850000D01*
X127819047Y-74897619D01*
X127842857Y-74945238D01*
X127866666Y-75040476D01*
X127866666Y-75111904D01*
X127842857Y-75207142D01*
X127819047Y-75254761D01*
X127771428Y-75302380D01*
X127700000Y-75326190D01*
X127580952Y-75326190D01*
X113876190Y-74826190D02*
X114185714Y-74826190D01*
X114019047Y-75016666D01*
X114090476Y-75016666D01*
X114138095Y-75040476D01*
X114161904Y-75064285D01*
X114185714Y-75111904D01*
X114185714Y-75230952D01*
X114161904Y-75278571D01*
X114138095Y-75302380D01*
X114090476Y-75326190D01*
X113947619Y-75326190D01*
X113900000Y-75302380D01*
X113876190Y-75278571D01*
X114400000Y-75278571D02*
X114423809Y-75302380D01*
X114400000Y-75326190D01*
X114376190Y-75302380D01*
X114400000Y-75278571D01*
X114400000Y-75326190D01*
X114590476Y-74826190D02*
X114900000Y-74826190D01*
X114733333Y-75016666D01*
X114804761Y-75016666D01*
X114852380Y-75040476D01*
X114876190Y-75064285D01*
X114900000Y-75111904D01*
X114900000Y-75230952D01*
X114876190Y-75278571D01*
X114852380Y-75302380D01*
X114804761Y-75326190D01*
X114661904Y-75326190D01*
X114614285Y-75302380D01*
X114590476Y-75278571D01*
X92526190Y-75183333D02*
X92764285Y-75183333D01*
X92478571Y-75326190D02*
X92645238Y-74826190D01*
X92811904Y-75326190D01*
X92978571Y-75326190D02*
X92978571Y-74826190D01*
X93097619Y-74826190D01*
X93169047Y-74850000D01*
X93216666Y-74897619D01*
X93240476Y-74945238D01*
X93264285Y-75040476D01*
X93264285Y-75111904D01*
X93240476Y-75207142D01*
X93216666Y-75254761D01*
X93169047Y-75302380D01*
X93097619Y-75326190D01*
X92978571Y-75326190D01*
X93764285Y-75278571D02*
X93740476Y-75302380D01*
X93669047Y-75326190D01*
X93621428Y-75326190D01*
X93550000Y-75302380D01*
X93502380Y-75254761D01*
X93478571Y-75207142D01*
X93454761Y-75111904D01*
X93454761Y-75040476D01*
X93478571Y-74945238D01*
X93502380Y-74897619D01*
X93550000Y-74850000D01*
X93621428Y-74826190D01*
X93669047Y-74826190D01*
X93740476Y-74850000D01*
X93764285Y-74873809D01*
X94359523Y-75064285D02*
X94526190Y-75064285D01*
X94597619Y-75326190D02*
X94359523Y-75326190D01*
X94359523Y-74826190D01*
X94597619Y-74826190D01*
X94764285Y-74826190D02*
X95097619Y-75326190D01*
X95097619Y-74826190D02*
X94764285Y-75326190D01*
X119176190Y-74826190D02*
X119485714Y-74826190D01*
X119319047Y-75016666D01*
X119390476Y-75016666D01*
X119438095Y-75040476D01*
X119461904Y-75064285D01*
X119485714Y-75111904D01*
X119485714Y-75230952D01*
X119461904Y-75278571D01*
X119438095Y-75302380D01*
X119390476Y-75326190D01*
X119247619Y-75326190D01*
X119200000Y-75302380D01*
X119176190Y-75278571D01*
X119700000Y-75278571D02*
X119723809Y-75302380D01*
X119700000Y-75326190D01*
X119676190Y-75302380D01*
X119700000Y-75278571D01*
X119700000Y-75326190D01*
X119890476Y-74826190D02*
X120200000Y-74826190D01*
X120033333Y-75016666D01*
X120104761Y-75016666D01*
X120152380Y-75040476D01*
X120176190Y-75064285D01*
X120200000Y-75111904D01*
X120200000Y-75230952D01*
X120176190Y-75278571D01*
X120152380Y-75302380D01*
X120104761Y-75326190D01*
X119961904Y-75326190D01*
X119914285Y-75302380D01*
X119890476Y-75278571D01*
X96280952Y-75183333D02*
X96519047Y-75183333D01*
X96233333Y-75326190D02*
X96400000Y-74826190D01*
X96566666Y-75326190D01*
X96733333Y-75326190D02*
X96733333Y-74826190D01*
X96852380Y-74826190D01*
X96923809Y-74850000D01*
X96971428Y-74897619D01*
X96995238Y-74945238D01*
X97019047Y-75040476D01*
X97019047Y-75111904D01*
X96995238Y-75207142D01*
X96971428Y-75254761D01*
X96923809Y-75302380D01*
X96852380Y-75326190D01*
X96733333Y-75326190D01*
X97519047Y-75278571D02*
X97495238Y-75302380D01*
X97423809Y-75326190D01*
X97376190Y-75326190D01*
X97304761Y-75302380D01*
X97257142Y-75254761D01*
X97233333Y-75207142D01*
X97209523Y-75111904D01*
X97209523Y-75040476D01*
X97233333Y-74945238D01*
X97257142Y-74897619D01*
X97304761Y-74850000D01*
X97376190Y-74826190D01*
X97423809Y-74826190D01*
X97495238Y-74850000D01*
X97519047Y-74873809D01*
X126719047Y-53250000D02*
X126671428Y-53226190D01*
X126600000Y-53226190D01*
X126528571Y-53250000D01*
X126480952Y-53297619D01*
X126457142Y-53345238D01*
X126433333Y-53440476D01*
X126433333Y-53511904D01*
X126457142Y-53607142D01*
X126480952Y-53654761D01*
X126528571Y-53702380D01*
X126600000Y-53726190D01*
X126647619Y-53726190D01*
X126719047Y-53702380D01*
X126742857Y-53678571D01*
X126742857Y-53511904D01*
X126647619Y-53511904D01*
X126957142Y-53726190D02*
X126957142Y-53226190D01*
X127242857Y-53726190D01*
X127242857Y-53226190D01*
X127480952Y-53726190D02*
X127480952Y-53226190D01*
X127600000Y-53226190D01*
X127671428Y-53250000D01*
X127719047Y-53297619D01*
X127742857Y-53345238D01*
X127766666Y-53440476D01*
X127766666Y-53511904D01*
X127742857Y-53607142D01*
X127719047Y-53654761D01*
X127671428Y-53702380D01*
X127600000Y-53726190D01*
X127480952Y-53726190D01*
X104030952Y-53726190D02*
X104030952Y-53226190D01*
X104150000Y-53226190D01*
X104221428Y-53250000D01*
X104269047Y-53297619D01*
X104292857Y-53345238D01*
X104316666Y-53440476D01*
X104316666Y-53511904D01*
X104292857Y-53607142D01*
X104269047Y-53654761D01*
X104221428Y-53702380D01*
X104150000Y-53726190D01*
X104030952Y-53726190D01*
X104745238Y-53392857D02*
X104745238Y-53726190D01*
X104626190Y-53202380D02*
X104507142Y-53559523D01*
X104816666Y-53559523D01*
D11*
%TO.C,R5*%
X132940476Y-53826190D02*
X132654761Y-53826190D01*
X132797619Y-53826190D02*
X132797619Y-53326190D01*
X132750000Y-53397619D01*
X132702380Y-53445238D01*
X132654761Y-53469047D01*
X133154761Y-53826190D02*
X133154761Y-53326190D01*
X133202380Y-53635714D02*
X133345238Y-53826190D01*
X133345238Y-53492857D02*
X133154761Y-53683333D01*
%TO.C,R10*%
X118654761Y-74026190D02*
X118369047Y-74026190D01*
X118511904Y-74026190D02*
X118511904Y-73526190D01*
X118464285Y-73597619D01*
X118416666Y-73645238D01*
X118369047Y-73669047D01*
X118845238Y-73573809D02*
X118869047Y-73550000D01*
X118916666Y-73526190D01*
X119035714Y-73526190D01*
X119083333Y-73550000D01*
X119107142Y-73573809D01*
X119130952Y-73621428D01*
X119130952Y-73669047D01*
X119107142Y-73740476D01*
X118821428Y-74026190D01*
X119130952Y-74026190D01*
X119345238Y-74026190D02*
X119345238Y-73526190D01*
X119630952Y-74026190D02*
X119416666Y-73740476D01*
X119630952Y-73526190D02*
X119345238Y-73811904D01*
%TO.C,R17*%
X102526190Y-74483333D02*
X102526190Y-74769047D01*
X102526190Y-74626190D02*
X102026190Y-74626190D01*
X102097619Y-74673809D01*
X102145238Y-74721428D01*
X102169047Y-74769047D01*
X102026190Y-74173809D02*
X102026190Y-74126190D01*
X102050000Y-74078571D01*
X102073809Y-74054761D01*
X102121428Y-74030952D01*
X102216666Y-74007142D01*
X102335714Y-74007142D01*
X102430952Y-74030952D01*
X102478571Y-74054761D01*
X102502380Y-74078571D01*
X102526190Y-74126190D01*
X102526190Y-74173809D01*
X102502380Y-74221428D01*
X102478571Y-74245238D01*
X102430952Y-74269047D01*
X102335714Y-74292857D01*
X102216666Y-74292857D01*
X102121428Y-74269047D01*
X102073809Y-74245238D01*
X102050000Y-74221428D01*
X102026190Y-74173809D01*
X102026190Y-73697619D02*
X102026190Y-73650000D01*
X102050000Y-73602380D01*
X102073809Y-73578571D01*
X102121428Y-73554761D01*
X102216666Y-73530952D01*
X102335714Y-73530952D01*
X102430952Y-73554761D01*
X102478571Y-73578571D01*
X102502380Y-73602380D01*
X102526190Y-73650000D01*
X102526190Y-73697619D01*
X102502380Y-73745238D01*
X102478571Y-73769047D01*
X102430952Y-73792857D01*
X102335714Y-73816666D01*
X102216666Y-73816666D01*
X102121428Y-73792857D01*
X102073809Y-73769047D01*
X102050000Y-73745238D01*
X102026190Y-73697619D01*
X102526190Y-73316666D02*
X102026190Y-73316666D01*
X102526190Y-73030952D02*
X102240476Y-73245238D01*
X102026190Y-73030952D02*
X102311904Y-73316666D01*
%TO.C,Q2*%
X129892857Y-59705952D02*
X130392857Y-59705952D01*
X130202380Y-59705952D02*
X130226190Y-59753571D01*
X130226190Y-59848809D01*
X130202380Y-59896428D01*
X130178571Y-59920238D01*
X130130952Y-59944047D01*
X129988095Y-59944047D01*
X129940476Y-59920238D01*
X129916666Y-59896428D01*
X129892857Y-59848809D01*
X129892857Y-59753571D01*
X129916666Y-59705952D01*
X129773809Y-59491666D02*
X129750000Y-59467857D01*
X129726190Y-59420238D01*
X129726190Y-59301190D01*
X129750000Y-59253571D01*
X129773809Y-59229761D01*
X129821428Y-59205952D01*
X129869047Y-59205952D01*
X129940476Y-59229761D01*
X130226190Y-59515476D01*
X130226190Y-59205952D01*
%TO.C,R14*%
X132201190Y-63160238D02*
X132201190Y-63445952D01*
X132201190Y-63303095D02*
X131701190Y-63303095D01*
X131772619Y-63350714D01*
X131820238Y-63398333D01*
X131844047Y-63445952D01*
X131748809Y-62969761D02*
X131725000Y-62945952D01*
X131701190Y-62898333D01*
X131701190Y-62779285D01*
X131725000Y-62731666D01*
X131748809Y-62707857D01*
X131796428Y-62684047D01*
X131844047Y-62684047D01*
X131915476Y-62707857D01*
X132201190Y-62993571D01*
X132201190Y-62684047D01*
X132201190Y-62469761D02*
X131701190Y-62469761D01*
X132201190Y-62184047D02*
X131915476Y-62398333D01*
X131701190Y-62184047D02*
X131986904Y-62469761D01*
%TO.C,R2*%
X104054761Y-54526190D02*
X103769047Y-54526190D01*
X103911904Y-54526190D02*
X103911904Y-54026190D01*
X103864285Y-54097619D01*
X103816666Y-54145238D01*
X103769047Y-54169047D01*
X104245238Y-54073809D02*
X104269047Y-54050000D01*
X104316666Y-54026190D01*
X104435714Y-54026190D01*
X104483333Y-54050000D01*
X104507142Y-54073809D01*
X104530952Y-54121428D01*
X104530952Y-54169047D01*
X104507142Y-54240476D01*
X104221428Y-54526190D01*
X104530952Y-54526190D01*
X104745238Y-54526190D02*
X104745238Y-54026190D01*
X105030952Y-54526190D02*
X104816666Y-54240476D01*
X105030952Y-54026190D02*
X104745238Y-54311904D01*
%TO.C,R11*%
X114554761Y-54526190D02*
X114269047Y-54526190D01*
X114411904Y-54526190D02*
X114411904Y-54026190D01*
X114364285Y-54097619D01*
X114316666Y-54145238D01*
X114269047Y-54169047D01*
X114745238Y-54073809D02*
X114769047Y-54050000D01*
X114816666Y-54026190D01*
X114935714Y-54026190D01*
X114983333Y-54050000D01*
X115007142Y-54073809D01*
X115030952Y-54121428D01*
X115030952Y-54169047D01*
X115007142Y-54240476D01*
X114721428Y-54526190D01*
X115030952Y-54526190D01*
X115245238Y-54526190D02*
X115245238Y-54026190D01*
X115530952Y-54526190D02*
X115316666Y-54240476D01*
X115530952Y-54026190D02*
X115245238Y-54311904D01*
%TO.C,SW2*%
X136102380Y-60366666D02*
X136126190Y-60295238D01*
X136126190Y-60176190D01*
X136102380Y-60128571D01*
X136078571Y-60104761D01*
X136030952Y-60080952D01*
X135983333Y-60080952D01*
X135935714Y-60104761D01*
X135911904Y-60128571D01*
X135888095Y-60176190D01*
X135864285Y-60271428D01*
X135840476Y-60319047D01*
X135816666Y-60342857D01*
X135769047Y-60366666D01*
X135721428Y-60366666D01*
X135673809Y-60342857D01*
X135650000Y-60319047D01*
X135626190Y-60271428D01*
X135626190Y-60152380D01*
X135650000Y-60080952D01*
X135626190Y-59914285D02*
X136126190Y-59795238D01*
X135769047Y-59700000D01*
X136126190Y-59604761D01*
X135626190Y-59485714D01*
X135673809Y-59319047D02*
X135650000Y-59295238D01*
X135626190Y-59247619D01*
X135626190Y-59128571D01*
X135650000Y-59080952D01*
X135673809Y-59057142D01*
X135721428Y-59033333D01*
X135769047Y-59033333D01*
X135840476Y-59057142D01*
X136126190Y-59342857D01*
X136126190Y-59033333D01*
%TO.C,R12*%
X118519047Y-56092857D02*
X118519047Y-56426190D01*
X118400000Y-55902380D02*
X118280952Y-56259523D01*
X118590476Y-56259523D01*
X118733333Y-55926190D02*
X119066666Y-55926190D01*
X118852380Y-56426190D01*
X119352380Y-55926190D02*
X119400000Y-55926190D01*
X119447619Y-55950000D01*
X119471428Y-55973809D01*
X119495238Y-56021428D01*
X119519047Y-56116666D01*
X119519047Y-56235714D01*
X119495238Y-56330952D01*
X119471428Y-56378571D01*
X119447619Y-56402380D01*
X119400000Y-56426190D01*
X119352380Y-56426190D01*
X119304761Y-56402380D01*
X119280952Y-56378571D01*
X119257142Y-56330952D01*
X119233333Y-56235714D01*
X119233333Y-56116666D01*
X119257142Y-56021428D01*
X119280952Y-55973809D01*
X119304761Y-55950000D01*
X119352380Y-55926190D01*
%TO.C,C2*%
X126935714Y-54626190D02*
X126650000Y-54626190D01*
X126792857Y-54626190D02*
X126792857Y-54126190D01*
X126745238Y-54197619D01*
X126697619Y-54245238D01*
X126650000Y-54269047D01*
X127245238Y-54126190D02*
X127292857Y-54126190D01*
X127340476Y-54150000D01*
X127364285Y-54173809D01*
X127388095Y-54221428D01*
X127411904Y-54316666D01*
X127411904Y-54435714D01*
X127388095Y-54530952D01*
X127364285Y-54578571D01*
X127340476Y-54602380D01*
X127292857Y-54626190D01*
X127245238Y-54626190D01*
X127197619Y-54602380D01*
X127173809Y-54578571D01*
X127150000Y-54530952D01*
X127126190Y-54435714D01*
X127126190Y-54316666D01*
X127150000Y-54221428D01*
X127173809Y-54173809D01*
X127197619Y-54150000D01*
X127245238Y-54126190D01*
X127840476Y-54292857D02*
X127840476Y-54626190D01*
X127626190Y-54292857D02*
X127626190Y-54554761D01*
X127650000Y-54602380D01*
X127697619Y-54626190D01*
X127769047Y-54626190D01*
X127816666Y-54602380D01*
X127840476Y-54578571D01*
X128007142Y-54292857D02*
X128197619Y-54292857D01*
X128078571Y-54626190D02*
X128078571Y-54197619D01*
X128102380Y-54150000D01*
X128150000Y-54126190D01*
X128197619Y-54126190D01*
%TO.C,R6*%
X107557930Y-74065382D02*
X107272216Y-74065382D01*
X107415073Y-74065382D02*
X107415073Y-73565382D01*
X107367454Y-73636811D01*
X107319835Y-73684430D01*
X107272216Y-73708239D01*
X107748407Y-73613001D02*
X107772216Y-73589192D01*
X107819835Y-73565382D01*
X107938883Y-73565382D01*
X107986502Y-73589192D01*
X108010311Y-73613001D01*
X108034121Y-73660620D01*
X108034121Y-73708239D01*
X108010311Y-73779668D01*
X107724597Y-74065382D01*
X108034121Y-74065382D01*
X108248407Y-74065382D02*
X108248407Y-73565382D01*
X108296026Y-73874906D02*
X108438883Y-74065382D01*
X108438883Y-73732049D02*
X108248407Y-73922525D01*
%TO.C,SW1*%
X135902380Y-75466666D02*
X135926190Y-75395238D01*
X135926190Y-75276190D01*
X135902380Y-75228571D01*
X135878571Y-75204761D01*
X135830952Y-75180952D01*
X135783333Y-75180952D01*
X135735714Y-75204761D01*
X135711904Y-75228571D01*
X135688095Y-75276190D01*
X135664285Y-75371428D01*
X135640476Y-75419047D01*
X135616666Y-75442857D01*
X135569047Y-75466666D01*
X135521428Y-75466666D01*
X135473809Y-75442857D01*
X135450000Y-75419047D01*
X135426190Y-75371428D01*
X135426190Y-75252380D01*
X135450000Y-75180952D01*
X135426190Y-75014285D02*
X135926190Y-74895238D01*
X135569047Y-74800000D01*
X135926190Y-74704761D01*
X135426190Y-74585714D01*
X135926190Y-74133333D02*
X135926190Y-74419047D01*
X135926190Y-74276190D02*
X135426190Y-74276190D01*
X135497619Y-74323809D01*
X135545238Y-74371428D01*
X135569047Y-74419047D01*
%TO.C,C8*%
X97750000Y-73692857D02*
X97750000Y-74026190D01*
X97630952Y-73502380D02*
X97511904Y-73859523D01*
X97821428Y-73859523D01*
X97964285Y-73526190D02*
X98297619Y-73526190D01*
X98083333Y-74026190D01*
X98583333Y-73526190D02*
X98630952Y-73526190D01*
X98678571Y-73550000D01*
X98702380Y-73573809D01*
X98726190Y-73621428D01*
X98750000Y-73716666D01*
X98750000Y-73835714D01*
X98726190Y-73930952D01*
X98702380Y-73978571D01*
X98678571Y-74002380D01*
X98630952Y-74026190D01*
X98583333Y-74026190D01*
X98535714Y-74002380D01*
X98511904Y-73978571D01*
X98488095Y-73930952D01*
X98464285Y-73835714D01*
X98464285Y-73716666D01*
X98488095Y-73621428D01*
X98511904Y-73573809D01*
X98535714Y-73550000D01*
X98583333Y-73526190D01*
X98964285Y-73692857D02*
X98964285Y-74192857D01*
X98964285Y-73716666D02*
X99011904Y-73692857D01*
X99107142Y-73692857D01*
X99154761Y-73716666D01*
X99178571Y-73740476D01*
X99202380Y-73788095D01*
X99202380Y-73930952D01*
X99178571Y-73978571D01*
X99154761Y-74002380D01*
X99107142Y-74026190D01*
X99011904Y-74026190D01*
X98964285Y-74002380D01*
X99345238Y-73692857D02*
X99535714Y-73692857D01*
X99416666Y-74026190D02*
X99416666Y-73597619D01*
X99440476Y-73550000D01*
X99488095Y-73526190D01*
X99535714Y-73526190D01*
%TO.C,R9*%
X127892857Y-58380952D02*
X128226190Y-58380952D01*
X127702380Y-58500000D02*
X128059523Y-58619047D01*
X128059523Y-58309523D01*
X127726190Y-58166666D02*
X127726190Y-57833333D01*
X128226190Y-58047619D01*
X127726190Y-57547619D02*
X127726190Y-57500000D01*
X127750000Y-57452380D01*
X127773809Y-57428571D01*
X127821428Y-57404761D01*
X127916666Y-57380952D01*
X128035714Y-57380952D01*
X128130952Y-57404761D01*
X128178571Y-57428571D01*
X128202380Y-57452380D01*
X128226190Y-57500000D01*
X128226190Y-57547619D01*
X128202380Y-57595238D01*
X128178571Y-57619047D01*
X128130952Y-57642857D01*
X128035714Y-57666666D01*
X127916666Y-57666666D01*
X127821428Y-57642857D01*
X127773809Y-57619047D01*
X127750000Y-57595238D01*
X127726190Y-57547619D01*
%TO.C,U3*%
X123878571Y-61171428D02*
X123902380Y-61195238D01*
X123926190Y-61266666D01*
X123926190Y-61314285D01*
X123902380Y-61385714D01*
X123854761Y-61433333D01*
X123807142Y-61457142D01*
X123711904Y-61480952D01*
X123640476Y-61480952D01*
X123545238Y-61457142D01*
X123497619Y-61433333D01*
X123450000Y-61385714D01*
X123426190Y-61314285D01*
X123426190Y-61266666D01*
X123450000Y-61195238D01*
X123473809Y-61171428D01*
X123926190Y-60957142D02*
X123426190Y-60957142D01*
X123664285Y-60957142D02*
X123664285Y-60671428D01*
X123926190Y-60671428D02*
X123426190Y-60671428D01*
X123426190Y-60480952D02*
X123426190Y-60171428D01*
X123616666Y-60338095D01*
X123616666Y-60266666D01*
X123640476Y-60219047D01*
X123664285Y-60195238D01*
X123711904Y-60171428D01*
X123830952Y-60171428D01*
X123878571Y-60195238D01*
X123902380Y-60219047D01*
X123926190Y-60266666D01*
X123926190Y-60409523D01*
X123902380Y-60457142D01*
X123878571Y-60480952D01*
X123592857Y-59742857D02*
X123926190Y-59742857D01*
X123402380Y-59861904D02*
X123759523Y-59980952D01*
X123759523Y-59671428D01*
X123426190Y-59385714D02*
X123426190Y-59338095D01*
X123450000Y-59290476D01*
X123473809Y-59266666D01*
X123521428Y-59242857D01*
X123616666Y-59219047D01*
X123735714Y-59219047D01*
X123830952Y-59242857D01*
X123878571Y-59266666D01*
X123902380Y-59290476D01*
X123926190Y-59338095D01*
X123926190Y-59385714D01*
X123902380Y-59433333D01*
X123878571Y-59457142D01*
X123830952Y-59480952D01*
X123735714Y-59504761D01*
X123616666Y-59504761D01*
X123521428Y-59480952D01*
X123473809Y-59457142D01*
X123450000Y-59433333D01*
X123426190Y-59385714D01*
X123878571Y-58719047D02*
X123902380Y-58742857D01*
X123926190Y-58814285D01*
X123926190Y-58861904D01*
X123902380Y-58933333D01*
X123854761Y-58980952D01*
X123807142Y-59004761D01*
X123711904Y-59028571D01*
X123640476Y-59028571D01*
X123545238Y-59004761D01*
X123497619Y-58980952D01*
X123450000Y-58933333D01*
X123426190Y-58861904D01*
X123426190Y-58814285D01*
X123450000Y-58742857D01*
X123473809Y-58719047D01*
%TO.C,C3*%
X128126190Y-56702380D02*
X128126190Y-56988095D01*
X128126190Y-56845238D02*
X127626190Y-56845238D01*
X127697619Y-56892857D01*
X127745238Y-56940476D01*
X127769047Y-56988095D01*
X127626190Y-56392857D02*
X127626190Y-56345238D01*
X127650000Y-56297619D01*
X127673809Y-56273809D01*
X127721428Y-56250000D01*
X127816666Y-56226190D01*
X127935714Y-56226190D01*
X128030952Y-56250000D01*
X128078571Y-56273809D01*
X128102380Y-56297619D01*
X128126190Y-56345238D01*
X128126190Y-56392857D01*
X128102380Y-56440476D01*
X128078571Y-56464285D01*
X128030952Y-56488095D01*
X127935714Y-56511904D01*
X127816666Y-56511904D01*
X127721428Y-56488095D01*
X127673809Y-56464285D01*
X127650000Y-56440476D01*
X127626190Y-56392857D01*
X127626190Y-55916666D02*
X127626190Y-55869047D01*
X127650000Y-55821428D01*
X127673809Y-55797619D01*
X127721428Y-55773809D01*
X127816666Y-55750000D01*
X127935714Y-55750000D01*
X128030952Y-55773809D01*
X128078571Y-55797619D01*
X128102380Y-55821428D01*
X128126190Y-55869047D01*
X128126190Y-55916666D01*
X128102380Y-55964285D01*
X128078571Y-55988095D01*
X128030952Y-56011904D01*
X127935714Y-56035714D01*
X127816666Y-56035714D01*
X127721428Y-56011904D01*
X127673809Y-55988095D01*
X127650000Y-55964285D01*
X127626190Y-55916666D01*
X127792857Y-55535714D02*
X128126190Y-55535714D01*
X127840476Y-55535714D02*
X127816666Y-55511904D01*
X127792857Y-55464285D01*
X127792857Y-55392857D01*
X127816666Y-55345238D01*
X127864285Y-55321428D01*
X128126190Y-55321428D01*
X127792857Y-55154761D02*
X127792857Y-54964285D01*
X128126190Y-55083333D02*
X127697619Y-55083333D01*
X127650000Y-55059523D01*
X127626190Y-55011904D01*
X127626190Y-54964285D01*
%TO.C,R13*%
X117623387Y-58280952D02*
X117956720Y-58280952D01*
X117432910Y-58400000D02*
X117790053Y-58519047D01*
X117790053Y-58209523D01*
X117456720Y-58066666D02*
X117456720Y-57733333D01*
X117956720Y-57947619D01*
X117456720Y-57447619D02*
X117456720Y-57400000D01*
X117480530Y-57352380D01*
X117504339Y-57328571D01*
X117551958Y-57304761D01*
X117647196Y-57280952D01*
X117766244Y-57280952D01*
X117861482Y-57304761D01*
X117909101Y-57328571D01*
X117932910Y-57352380D01*
X117956720Y-57400000D01*
X117956720Y-57447619D01*
X117932910Y-57495238D01*
X117909101Y-57519047D01*
X117861482Y-57542857D01*
X117766244Y-57566666D01*
X117647196Y-57566666D01*
X117551958Y-57542857D01*
X117504339Y-57519047D01*
X117480530Y-57495238D01*
X117456720Y-57447619D01*
%TO.C,C4*%
X117826190Y-60702380D02*
X117826190Y-60988095D01*
X117826190Y-60845238D02*
X117326190Y-60845238D01*
X117397619Y-60892857D01*
X117445238Y-60940476D01*
X117469047Y-60988095D01*
X117326190Y-60392857D02*
X117326190Y-60345238D01*
X117350000Y-60297619D01*
X117373809Y-60273809D01*
X117421428Y-60250000D01*
X117516666Y-60226190D01*
X117635714Y-60226190D01*
X117730952Y-60250000D01*
X117778571Y-60273809D01*
X117802380Y-60297619D01*
X117826190Y-60345238D01*
X117826190Y-60392857D01*
X117802380Y-60440476D01*
X117778571Y-60464285D01*
X117730952Y-60488095D01*
X117635714Y-60511904D01*
X117516666Y-60511904D01*
X117421428Y-60488095D01*
X117373809Y-60464285D01*
X117350000Y-60440476D01*
X117326190Y-60392857D01*
X117326190Y-59916666D02*
X117326190Y-59869047D01*
X117350000Y-59821428D01*
X117373809Y-59797619D01*
X117421428Y-59773809D01*
X117516666Y-59750000D01*
X117635714Y-59750000D01*
X117730952Y-59773809D01*
X117778571Y-59797619D01*
X117802380Y-59821428D01*
X117826190Y-59869047D01*
X117826190Y-59916666D01*
X117802380Y-59964285D01*
X117778571Y-59988095D01*
X117730952Y-60011904D01*
X117635714Y-60035714D01*
X117516666Y-60035714D01*
X117421428Y-60011904D01*
X117373809Y-59988095D01*
X117350000Y-59964285D01*
X117326190Y-59916666D01*
X117492857Y-59535714D02*
X117826190Y-59535714D01*
X117540476Y-59535714D02*
X117516666Y-59511904D01*
X117492857Y-59464285D01*
X117492857Y-59392857D01*
X117516666Y-59345238D01*
X117564285Y-59321428D01*
X117826190Y-59321428D01*
X117492857Y-59154761D02*
X117492857Y-58964285D01*
X117826190Y-59083333D02*
X117397619Y-59083333D01*
X117350000Y-59059523D01*
X117326190Y-59011904D01*
X117326190Y-58964285D01*
%TO.C,R7*%
X127019047Y-73692857D02*
X127019047Y-74026190D01*
X126900000Y-73502380D02*
X126780952Y-73859523D01*
X127090476Y-73859523D01*
X127233333Y-73526190D02*
X127566666Y-73526190D01*
X127352380Y-74026190D01*
X127852380Y-73526190D02*
X127900000Y-73526190D01*
X127947619Y-73550000D01*
X127971428Y-73573809D01*
X127995238Y-73621428D01*
X128019047Y-73716666D01*
X128019047Y-73835714D01*
X127995238Y-73930952D01*
X127971428Y-73978571D01*
X127947619Y-74002380D01*
X127900000Y-74026190D01*
X127852380Y-74026190D01*
X127804761Y-74002380D01*
X127780952Y-73978571D01*
X127757142Y-73930952D01*
X127733333Y-73835714D01*
X127733333Y-73716666D01*
X127757142Y-73621428D01*
X127780952Y-73573809D01*
X127804761Y-73550000D01*
X127852380Y-73526190D01*
%TO.C,R3*%
X110354761Y-54526190D02*
X110069047Y-54526190D01*
X110211904Y-54526190D02*
X110211904Y-54026190D01*
X110164285Y-54097619D01*
X110116666Y-54145238D01*
X110069047Y-54169047D01*
X110545238Y-54073809D02*
X110569047Y-54050000D01*
X110616666Y-54026190D01*
X110735714Y-54026190D01*
X110783333Y-54050000D01*
X110807142Y-54073809D01*
X110830952Y-54121428D01*
X110830952Y-54169047D01*
X110807142Y-54240476D01*
X110521428Y-54526190D01*
X110830952Y-54526190D01*
X111045238Y-54526190D02*
X111045238Y-54026190D01*
X111330952Y-54526190D02*
X111116666Y-54240476D01*
X111330952Y-54026190D02*
X111045238Y-54311904D01*
%TO.C,R1*%
X131792857Y-55180952D02*
X132126190Y-55180952D01*
X131602380Y-55300000D02*
X131959523Y-55419047D01*
X131959523Y-55109523D01*
X131626190Y-54966666D02*
X131626190Y-54633333D01*
X132126190Y-54847619D01*
X131626190Y-54347619D02*
X131626190Y-54300000D01*
X131650000Y-54252380D01*
X131673809Y-54228571D01*
X131721428Y-54204761D01*
X131816666Y-54180952D01*
X131935714Y-54180952D01*
X132030952Y-54204761D01*
X132078571Y-54228571D01*
X132102380Y-54252380D01*
X132126190Y-54300000D01*
X132126190Y-54347619D01*
X132102380Y-54395238D01*
X132078571Y-54419047D01*
X132030952Y-54442857D01*
X131935714Y-54466666D01*
X131816666Y-54466666D01*
X131721428Y-54442857D01*
X131673809Y-54419047D01*
X131650000Y-54395238D01*
X131626190Y-54347619D01*
%TO.C,Q1*%
X129892857Y-66030952D02*
X130392857Y-66030952D01*
X130202380Y-66030952D02*
X130226190Y-66078571D01*
X130226190Y-66173809D01*
X130202380Y-66221428D01*
X130178571Y-66245238D01*
X130130952Y-66269047D01*
X129988095Y-66269047D01*
X129940476Y-66245238D01*
X129916666Y-66221428D01*
X129892857Y-66173809D01*
X129892857Y-66078571D01*
X129916666Y-66030952D01*
X130226190Y-65530952D02*
X130226190Y-65816666D01*
X130226190Y-65673809D02*
X129726190Y-65673809D01*
X129797619Y-65721428D01*
X129845238Y-65769047D01*
X129869047Y-65816666D01*
%TO.C,D2*%
X134726190Y-57230952D02*
X134726190Y-56945238D01*
X135226190Y-57088095D02*
X134726190Y-57088095D01*
X134726190Y-56826190D02*
X135226190Y-56492857D01*
X134726190Y-56492857D02*
X135226190Y-56826190D01*
X135226190Y-56302380D02*
X134726190Y-56302380D01*
X134726190Y-56183333D01*
X134750000Y-56111904D01*
X134797619Y-56064285D01*
X134845238Y-56040476D01*
X134940476Y-56016666D01*
X135011904Y-56016666D01*
X135107142Y-56040476D01*
X135154761Y-56064285D01*
X135202380Y-56111904D01*
X135226190Y-56183333D01*
X135226190Y-56302380D01*
%TO.C,C7*%
X118435714Y-67426190D02*
X118150000Y-67426190D01*
X118292857Y-67426190D02*
X118292857Y-66926190D01*
X118245238Y-66997619D01*
X118197619Y-67045238D01*
X118150000Y-67069047D01*
X118745238Y-66926190D02*
X118792857Y-66926190D01*
X118840476Y-66950000D01*
X118864285Y-66973809D01*
X118888095Y-67021428D01*
X118911904Y-67116666D01*
X118911904Y-67235714D01*
X118888095Y-67330952D01*
X118864285Y-67378571D01*
X118840476Y-67402380D01*
X118792857Y-67426190D01*
X118745238Y-67426190D01*
X118697619Y-67402380D01*
X118673809Y-67378571D01*
X118650000Y-67330952D01*
X118626190Y-67235714D01*
X118626190Y-67116666D01*
X118650000Y-67021428D01*
X118673809Y-66973809D01*
X118697619Y-66950000D01*
X118745238Y-66926190D01*
X119340476Y-67092857D02*
X119340476Y-67426190D01*
X119126190Y-67092857D02*
X119126190Y-67354761D01*
X119150000Y-67402380D01*
X119197619Y-67426190D01*
X119269047Y-67426190D01*
X119316666Y-67402380D01*
X119340476Y-67378571D01*
X119507142Y-67092857D02*
X119697619Y-67092857D01*
X119578571Y-67426190D02*
X119578571Y-66997619D01*
X119602380Y-66950000D01*
X119650000Y-66926190D01*
X119697619Y-66926190D01*
%TO.C,D3*%
X133926190Y-56933333D02*
X133688095Y-57100000D01*
X133926190Y-57219047D02*
X133426190Y-57219047D01*
X133426190Y-57028571D01*
X133450000Y-56980952D01*
X133473809Y-56957142D01*
X133521428Y-56933333D01*
X133592857Y-56933333D01*
X133640476Y-56957142D01*
X133664285Y-56980952D01*
X133688095Y-57028571D01*
X133688095Y-57219047D01*
X133426190Y-56766666D02*
X133926190Y-56433333D01*
X133426190Y-56433333D02*
X133926190Y-56766666D01*
X133926190Y-56242857D02*
X133426190Y-56242857D01*
X133426190Y-56123809D01*
X133450000Y-56052380D01*
X133497619Y-56004761D01*
X133545238Y-55980952D01*
X133640476Y-55957142D01*
X133711904Y-55957142D01*
X133807142Y-55980952D01*
X133854761Y-56004761D01*
X133902380Y-56052380D01*
X133926190Y-56123809D01*
X133926190Y-56242857D01*
%TO.C,D1*%
X131457359Y-57173095D02*
X131457359Y-56863571D01*
X131647835Y-57030238D01*
X131647835Y-56958809D01*
X131671645Y-56911190D01*
X131695454Y-56887381D01*
X131743073Y-56863571D01*
X131862121Y-56863571D01*
X131909740Y-56887381D01*
X131933549Y-56911190D01*
X131957359Y-56958809D01*
X131957359Y-57101666D01*
X131933549Y-57149286D01*
X131909740Y-57173095D01*
X131909740Y-56649286D02*
X131933549Y-56625476D01*
X131957359Y-56649286D01*
X131933549Y-56673095D01*
X131909740Y-56649286D01*
X131957359Y-56649286D01*
X131457359Y-56458809D02*
X131457359Y-56149286D01*
X131647835Y-56315952D01*
X131647835Y-56244524D01*
X131671645Y-56196905D01*
X131695454Y-56173095D01*
X131743073Y-56149286D01*
X131862121Y-56149286D01*
X131909740Y-56173095D01*
X131933549Y-56196905D01*
X131957359Y-56244524D01*
X131957359Y-56387381D01*
X131933549Y-56435000D01*
X131909740Y-56458809D01*
%TO.C,C6*%
X118250000Y-64992857D02*
X118250000Y-65326190D01*
X118130952Y-64802380D02*
X118011904Y-65159523D01*
X118321428Y-65159523D01*
X118464285Y-64826190D02*
X118797619Y-64826190D01*
X118583333Y-65326190D01*
X119083333Y-64826190D02*
X119130952Y-64826190D01*
X119178571Y-64850000D01*
X119202380Y-64873809D01*
X119226190Y-64921428D01*
X119250000Y-65016666D01*
X119250000Y-65135714D01*
X119226190Y-65230952D01*
X119202380Y-65278571D01*
X119178571Y-65302380D01*
X119130952Y-65326190D01*
X119083333Y-65326190D01*
X119035714Y-65302380D01*
X119011904Y-65278571D01*
X118988095Y-65230952D01*
X118964285Y-65135714D01*
X118964285Y-65016666D01*
X118988095Y-64921428D01*
X119011904Y-64873809D01*
X119035714Y-64850000D01*
X119083333Y-64826190D01*
X119464285Y-64992857D02*
X119464285Y-65492857D01*
X119464285Y-65016666D02*
X119511904Y-64992857D01*
X119607142Y-64992857D01*
X119654761Y-65016666D01*
X119678571Y-65040476D01*
X119702380Y-65088095D01*
X119702380Y-65230952D01*
X119678571Y-65278571D01*
X119654761Y-65302380D01*
X119607142Y-65326190D01*
X119511904Y-65326190D01*
X119464285Y-65302380D01*
X119845238Y-64992857D02*
X120035714Y-64992857D01*
X119916666Y-65326190D02*
X119916666Y-64897619D01*
X119940476Y-64850000D01*
X119988095Y-64826190D01*
X120035714Y-64826190D01*
%TO.C,C1*%
X126426190Y-71602380D02*
X126426190Y-71888095D01*
X126426190Y-71745238D02*
X125926190Y-71745238D01*
X125997619Y-71792857D01*
X126045238Y-71840476D01*
X126069047Y-71888095D01*
X125926190Y-71292857D02*
X125926190Y-71245238D01*
X125950000Y-71197619D01*
X125973809Y-71173809D01*
X126021428Y-71150000D01*
X126116666Y-71126190D01*
X126235714Y-71126190D01*
X126330952Y-71150000D01*
X126378571Y-71173809D01*
X126402380Y-71197619D01*
X126426190Y-71245238D01*
X126426190Y-71292857D01*
X126402380Y-71340476D01*
X126378571Y-71364285D01*
X126330952Y-71388095D01*
X126235714Y-71411904D01*
X126116666Y-71411904D01*
X126021428Y-71388095D01*
X125973809Y-71364285D01*
X125950000Y-71340476D01*
X125926190Y-71292857D01*
X125926190Y-70816666D02*
X125926190Y-70769047D01*
X125950000Y-70721428D01*
X125973809Y-70697619D01*
X126021428Y-70673809D01*
X126116666Y-70650000D01*
X126235714Y-70650000D01*
X126330952Y-70673809D01*
X126378571Y-70697619D01*
X126402380Y-70721428D01*
X126426190Y-70769047D01*
X126426190Y-70816666D01*
X126402380Y-70864285D01*
X126378571Y-70888095D01*
X126330952Y-70911904D01*
X126235714Y-70935714D01*
X126116666Y-70935714D01*
X126021428Y-70911904D01*
X125973809Y-70888095D01*
X125950000Y-70864285D01*
X125926190Y-70816666D01*
X126092857Y-70221428D02*
X126426190Y-70221428D01*
X126092857Y-70435714D02*
X126354761Y-70435714D01*
X126402380Y-70411904D01*
X126426190Y-70364285D01*
X126426190Y-70292857D01*
X126402380Y-70245238D01*
X126378571Y-70221428D01*
X126092857Y-70054761D02*
X126092857Y-69864285D01*
X126426190Y-69983333D02*
X125997619Y-69983333D01*
X125950000Y-69959523D01*
X125926190Y-69911904D01*
X125926190Y-69864285D01*
%TO.C,C5*%
X126626190Y-66906190D02*
X126626190Y-67191904D01*
X126626190Y-67049047D02*
X126126190Y-67049047D01*
X126197619Y-67096666D01*
X126245238Y-67144285D01*
X126269047Y-67191904D01*
X126292857Y-66477619D02*
X126626190Y-66477619D01*
X126292857Y-66691904D02*
X126554761Y-66691904D01*
X126602380Y-66668095D01*
X126626190Y-66620476D01*
X126626190Y-66549047D01*
X126602380Y-66501428D01*
X126578571Y-66477619D01*
X126292857Y-66310952D02*
X126292857Y-66120476D01*
X126626190Y-66239523D02*
X126197619Y-66239523D01*
X126150000Y-66215714D01*
X126126190Y-66168095D01*
X126126190Y-66120476D01*
%TO.C,R16*%
X95330952Y-72773809D02*
X95354761Y-72750000D01*
X95402380Y-72726190D01*
X95521428Y-72726190D01*
X95569047Y-72750000D01*
X95592857Y-72773809D01*
X95616666Y-72821428D01*
X95616666Y-72869047D01*
X95592857Y-72940476D01*
X95307142Y-73226190D01*
X95616666Y-73226190D01*
X95807142Y-72773809D02*
X95830952Y-72750000D01*
X95878571Y-72726190D01*
X95997619Y-72726190D01*
X96045238Y-72750000D01*
X96069047Y-72773809D01*
X96092857Y-72821428D01*
X96092857Y-72869047D01*
X96069047Y-72940476D01*
X95783333Y-73226190D01*
X96092857Y-73226190D01*
X96402380Y-72726190D02*
X96450000Y-72726190D01*
X96497619Y-72750000D01*
X96521428Y-72773809D01*
X96545238Y-72821428D01*
X96569047Y-72916666D01*
X96569047Y-73035714D01*
X96545238Y-73130952D01*
X96521428Y-73178571D01*
X96497619Y-73202380D01*
X96450000Y-73226190D01*
X96402380Y-73226190D01*
X96354761Y-73202380D01*
X96330952Y-73178571D01*
X96307142Y-73130952D01*
X96283333Y-73035714D01*
X96283333Y-72916666D01*
X96307142Y-72821428D01*
X96330952Y-72773809D01*
X96354761Y-72750000D01*
X96402380Y-72726190D01*
X96783333Y-73226190D02*
X96783333Y-72726190D01*
X97069047Y-73226190D02*
X96854761Y-72940476D01*
X97069047Y-72726190D02*
X96783333Y-73011904D01*
%TO.C,R15*%
X128251190Y-63145238D02*
X128251190Y-63430952D01*
X128251190Y-63288095D02*
X127751190Y-63288095D01*
X127822619Y-63335714D01*
X127870238Y-63383333D01*
X127894047Y-63430952D01*
X127798809Y-62954761D02*
X127775000Y-62930952D01*
X127751190Y-62883333D01*
X127751190Y-62764285D01*
X127775000Y-62716666D01*
X127798809Y-62692857D01*
X127846428Y-62669047D01*
X127894047Y-62669047D01*
X127965476Y-62692857D01*
X128251190Y-62978571D01*
X128251190Y-62669047D01*
X128251190Y-62454761D02*
X127751190Y-62454761D01*
X128251190Y-62169047D02*
X127965476Y-62383333D01*
X127751190Y-62169047D02*
X128036904Y-62454761D01*
%TO.C,R4*%
X134140476Y-53826190D02*
X133854761Y-53826190D01*
X133997619Y-53826190D02*
X133997619Y-53326190D01*
X133950000Y-53397619D01*
X133902380Y-53445238D01*
X133854761Y-53469047D01*
X134354761Y-53826190D02*
X134354761Y-53326190D01*
X134402380Y-53635714D02*
X134545238Y-53826190D01*
X134545238Y-53492857D02*
X134354761Y-53683333D01*
%TO.C,C9*%
X118342857Y-62071428D02*
X118000000Y-62071428D01*
X118171428Y-62071428D02*
X118171428Y-61471428D01*
X118114285Y-61557142D01*
X118057142Y-61614285D01*
X118000000Y-61642857D01*
X118714285Y-61471428D02*
X118771428Y-61471428D01*
X118828571Y-61500000D01*
X118857142Y-61528571D01*
X118885714Y-61585714D01*
X118914285Y-61700000D01*
X118914285Y-61842857D01*
X118885714Y-61957142D01*
X118857142Y-62014285D01*
X118828571Y-62042857D01*
X118771428Y-62071428D01*
X118714285Y-62071428D01*
X118657142Y-62042857D01*
X118628571Y-62014285D01*
X118600000Y-61957142D01*
X118571428Y-61842857D01*
X118571428Y-61700000D01*
X118600000Y-61585714D01*
X118628571Y-61528571D01*
X118657142Y-61500000D01*
X118714285Y-61471428D01*
X119428571Y-61671428D02*
X119428571Y-62071428D01*
X119171428Y-61671428D02*
X119171428Y-61985714D01*
X119200000Y-62042857D01*
X119257142Y-62071428D01*
X119342857Y-62071428D01*
X119400000Y-62042857D01*
X119428571Y-62014285D01*
X119628571Y-61671428D02*
X119857142Y-61671428D01*
X119714285Y-62071428D02*
X119714285Y-61557142D01*
X119742857Y-61500000D01*
X119800000Y-61471428D01*
X119857142Y-61471428D01*
D12*
%TO.C,Q2*%
X128500000Y-58650000D02*
X129500000Y-58650000D01*
X130500000Y-58650000D02*
X131550000Y-58650000D01*
X128490000Y-58670000D02*
X128490000Y-61100000D01*
X131550000Y-58650000D02*
X131550000Y-60500000D01*
%TO.C,D4*%
X130700000Y-69275000D02*
X130700000Y-73175000D01*
X128700000Y-69275000D02*
X128700000Y-73175000D01*
X130700000Y-69275000D02*
X128700000Y-69275000D01*
%TO.C,SW2*%
X134500000Y-61750000D02*
X138500000Y-61750000D01*
X134500000Y-57750000D02*
X138500000Y-57750000D01*
X138500000Y-61750000D02*
X138500000Y-60750000D01*
X138500000Y-57750000D02*
X138500000Y-58750000D01*
X134500000Y-60750000D02*
X134500000Y-61750000D01*
X134500000Y-58750000D02*
X134500000Y-57750000D01*
%TO.C,SW1*%
X138500000Y-76950000D02*
X138500000Y-75950000D01*
X134500000Y-75950000D02*
X134500000Y-76950000D01*
X134500000Y-76950000D02*
X138500000Y-76950000D01*
X134500000Y-73950000D02*
X134500000Y-72950000D01*
X134500000Y-72950000D02*
X138500000Y-72950000D01*
X138500000Y-72950000D02*
X138500000Y-73950000D01*
D13*
%TO.C,U3*%
X122175000Y-65035000D02*
X124975000Y-65035000D01*
X124975000Y-55235000D02*
X124975000Y-65035000D01*
X122175000Y-55235000D02*
X122175000Y-65035000D01*
X122175000Y-55235000D02*
X124975000Y-55235000D01*
D14*
X120775000Y-54885000D02*
G75*
G03*
X120775000Y-54885000I-150000J0D01*
G01*
D15*
X123075000Y-55935000D02*
G75*
G03*
X123075000Y-55935000I-200000J0D01*
G01*
D12*
%TO.C,C4*%
X119107836Y-59860000D02*
X118892164Y-59860000D01*
X119107836Y-59140000D02*
X118892164Y-59140000D01*
%TO.C,Q1*%
X131500000Y-67100000D02*
X130500000Y-67100000D01*
X129500000Y-67100000D02*
X128450000Y-67100000D01*
X131510000Y-67080000D02*
X131510000Y-64650000D01*
X128450000Y-67100000D02*
X128450000Y-65250000D01*
D13*
%TO.C,C1*%
X119337000Y-69700000D02*
X119337000Y-72100000D01*
X121700000Y-69250000D02*
X119773000Y-69250000D01*
X119773000Y-69250000D02*
X119773000Y-72550000D01*
X125227000Y-72550000D02*
X123300000Y-72550000D01*
X125227000Y-69250000D02*
X123300000Y-69250000D01*
X119773000Y-72550000D02*
X119337000Y-72100000D01*
X125227000Y-69250000D02*
X125227000Y-72550000D01*
X119773000Y-69250000D02*
X119337000Y-69700000D01*
X121700000Y-72550000D02*
X119773000Y-72550000D01*
D12*
%TO.C,C9*%
X119107836Y-60340000D02*
X118892164Y-60340000D01*
X119107836Y-61060000D02*
X118892164Y-61060000D01*
%TD*%
M02*
