M48
; DRILL file {KiCad (6.0.0)} date Wed Jan 19 01:42:12 2022
; FORMAT={-:-/ absolute / inch / decimal}
; #@! TF.CreationDate,2022-01-19T01:42:12+08:00
; #@! TF.GenerationSoftware,Kicad,Pcbnew,(6.0.0)
; #@! TF.FileFunction,Plated,1,2,PTH
FMAT,2
INCH
; #@! TA.AperFunction,Plated,PTH,ViaDrill
T1C0.0157
; #@! TA.AperFunction,Plated,PTH,ComponentDrill
T2C0.0236
; #@! TA.AperFunction,Plated,PTH,ComponentDrill
T3C0.0394
%
G90
G05
T1
X3.8789Y-2.8967
X4.1969Y-2.7205
X4.2362Y-2.1378
X4.2775Y-2.7209
X4.313Y-2.3661
X4.3146Y-2.247
X4.356Y-2.7218
X4.4346Y-2.7214
X4.5728Y-2.1516
X4.6004Y-2.2116
X4.6201Y-2.1516
X4.6565Y-2.4537
X4.7008Y-2.6457
X4.7018Y-2.4734
X4.7028Y-2.5276
X4.7913Y-2.1358
X4.8189Y-2.7766
X4.8189Y-2.8287
X4.8445Y-2.3921
X4.8445Y-2.4421
X4.8465Y-2.1417
X4.8533Y-2.3179
X4.9429Y-2.688
X4.9543Y-2.9497
X4.9852Y-2.6634
X5.0118Y-2.8346
X5.0295Y-2.3642
X5.0472Y-2.2913
X5.0709Y-2.6378
X5.1102Y-2.1063
X5.123Y-2.3632
X5.1919Y-2.2776
X5.2008Y-2.2392
X5.2077Y-2.4488
X5.2411Y-2.8553
X5.2746Y-2.8179
X5.2933Y-2.5108
X5.3012Y-2.8602
X5.3108Y-2.6909
X5.3114Y-2.6319
X5.3219Y-2.2421
X5.3917Y-2.2431
X5.4596Y-2.2441
X5.5295Y-2.2451
X5.5531Y-2.5827
X5.5541Y-2.7106
X5.5965Y-2.2461
T3
X3.7053Y-2.0453
X3.7053Y-3.0167
X3.8053Y-2.0453
X3.8053Y-3.0167
X3.9053Y-2.0453
X3.9053Y-3.0167
X4.0053Y-2.0453
X4.0053Y-3.0167
X4.1053Y-2.0453
X4.1053Y-3.0167
X4.2053Y-2.0453
X4.2053Y-3.0167
X4.3053Y-2.0453
X4.3053Y-3.0167
X4.4053Y-2.0453
X4.4053Y-3.0167
X4.5053Y-2.0453
X4.5053Y-3.0167
X4.6053Y-2.0453
X4.6053Y-3.0167
X4.7053Y-2.0453
X4.7053Y-3.0167
X4.8053Y-2.0453
X4.8053Y-3.0167
X4.9053Y-2.0453
X4.9053Y-3.0167
X5.0053Y-2.0453
X5.0053Y-3.0167
X5.1053Y-2.0453
X5.1053Y-3.0167
T2
G00X5.3945Y-2.4913
M15
G01X5.4378Y-2.4913
M16
G05
G00X5.3945Y-2.8315
M15
G01X5.4378Y-2.8315
M16
G05
G00X5.5689Y-2.4913
M15
G01X5.5925Y-2.4913
M16
G05
G00X5.5689Y-2.8315
M15
G01X5.5925Y-2.8315
M16
G05
T0
M30
