%TF.GenerationSoftware,KiCad,Pcbnew,(6.0.0)*%
%TF.CreationDate,2022-01-19T01:41:59+08:00*%
%TF.ProjectId,NodeMcu,4e6f6465-4d63-4752-9e6b-696361645f70,rev?*%
%TF.SameCoordinates,Original*%
%TF.FileFunction,Legend,Top*%
%TF.FilePolarity,Positive*%
%FSLAX46Y46*%
G04 Gerber Fmt 4.6, Leading zero omitted, Abs format (unit mm)*
G04 Created by KiCad (PCBNEW (6.0.0)) date 2022-01-19 01:41:59*
%MOMM*%
%LPD*%
G01*
G04 APERTURE LIST*
%ADD10C,0.200000*%
%ADD11C,0.050000*%
%ADD12C,0.100000*%
%ADD13C,0.120000*%
G04 APERTURE END LIST*
D10*
X132300000Y-50900000D02*
X143900000Y-50900000D01*
X143900000Y-50900000D02*
X143900000Y-53300000D01*
X143900000Y-53300000D02*
X132300000Y-53300000D01*
X132300000Y-53300000D02*
X132300000Y-50900000D01*
D11*
X116819047Y-74850000D02*
X116771428Y-74826190D01*
X116700000Y-74826190D01*
X116628571Y-74850000D01*
X116580952Y-74897619D01*
X116557142Y-74945238D01*
X116533333Y-75040476D01*
X116533333Y-75111904D01*
X116557142Y-75207142D01*
X116580952Y-75254761D01*
X116628571Y-75302380D01*
X116700000Y-75326190D01*
X116747619Y-75326190D01*
X116819047Y-75302380D01*
X116842857Y-75278571D01*
X116842857Y-75111904D01*
X116747619Y-75111904D01*
X117057142Y-75326190D02*
X117057142Y-74826190D01*
X117342857Y-75326190D01*
X117342857Y-74826190D01*
X117580952Y-75326190D02*
X117580952Y-74826190D01*
X117700000Y-74826190D01*
X117771428Y-74850000D01*
X117819047Y-74897619D01*
X117842857Y-74945238D01*
X117866666Y-75040476D01*
X117866666Y-75111904D01*
X117842857Y-75207142D01*
X117819047Y-75254761D01*
X117771428Y-75302380D01*
X117700000Y-75326190D01*
X117580952Y-75326190D01*
X129628571Y-74826190D02*
X129390476Y-74826190D01*
X129366666Y-75064285D01*
X129390476Y-75040476D01*
X129438095Y-75016666D01*
X129557142Y-75016666D01*
X129604761Y-75040476D01*
X129628571Y-75064285D01*
X129652380Y-75111904D01*
X129652380Y-75230952D01*
X129628571Y-75278571D01*
X129604761Y-75302380D01*
X129557142Y-75326190D01*
X129438095Y-75326190D01*
X129390476Y-75302380D01*
X129366666Y-75278571D01*
X129819047Y-74992857D02*
X129938095Y-75326190D01*
X130057142Y-74992857D01*
X106476190Y-53226190D02*
X106785714Y-53226190D01*
X106619047Y-53416666D01*
X106690476Y-53416666D01*
X106738095Y-53440476D01*
X106761904Y-53464285D01*
X106785714Y-53511904D01*
X106785714Y-53630952D01*
X106761904Y-53678571D01*
X106738095Y-53702380D01*
X106690476Y-53726190D01*
X106547619Y-53726190D01*
X106500000Y-53702380D01*
X106476190Y-53678571D01*
X107000000Y-53678571D02*
X107023809Y-53702380D01*
X107000000Y-53726190D01*
X106976190Y-53702380D01*
X107000000Y-53678571D01*
X107000000Y-53726190D01*
X107190476Y-53226190D02*
X107500000Y-53226190D01*
X107333333Y-53416666D01*
X107404761Y-53416666D01*
X107452380Y-53440476D01*
X107476190Y-53464285D01*
X107500000Y-53511904D01*
X107500000Y-53630952D01*
X107476190Y-53678571D01*
X107452380Y-53702380D01*
X107404761Y-53726190D01*
X107261904Y-53726190D01*
X107214285Y-53702380D01*
X107190476Y-53678571D01*
X93730952Y-53726190D02*
X93730952Y-53226190D01*
X93850000Y-53226190D01*
X93921428Y-53250000D01*
X93969047Y-53297619D01*
X93992857Y-53345238D01*
X94016666Y-53440476D01*
X94016666Y-53511904D01*
X93992857Y-53607142D01*
X93969047Y-53654761D01*
X93921428Y-53702380D01*
X93850000Y-53726190D01*
X93730952Y-53726190D01*
X94326190Y-53226190D02*
X94373809Y-53226190D01*
X94421428Y-53250000D01*
X94445238Y-53273809D01*
X94469047Y-53321428D01*
X94492857Y-53416666D01*
X94492857Y-53535714D01*
X94469047Y-53630952D01*
X94445238Y-53678571D01*
X94421428Y-53702380D01*
X94373809Y-53726190D01*
X94326190Y-53726190D01*
X94278571Y-53702380D01*
X94254761Y-53678571D01*
X94230952Y-53630952D01*
X94207142Y-53535714D01*
X94207142Y-53416666D01*
X94230952Y-53321428D01*
X94254761Y-53273809D01*
X94278571Y-53250000D01*
X94326190Y-53226190D01*
X98730952Y-53726190D02*
X98730952Y-53226190D01*
X98850000Y-53226190D01*
X98921428Y-53250000D01*
X98969047Y-53297619D01*
X98992857Y-53345238D01*
X99016666Y-53440476D01*
X99016666Y-53511904D01*
X98992857Y-53607142D01*
X98969047Y-53654761D01*
X98921428Y-53702380D01*
X98850000Y-53726190D01*
X98730952Y-53726190D01*
X99207142Y-53273809D02*
X99230952Y-53250000D01*
X99278571Y-53226190D01*
X99397619Y-53226190D01*
X99445238Y-53250000D01*
X99469047Y-53273809D01*
X99492857Y-53321428D01*
X99492857Y-53369047D01*
X99469047Y-53440476D01*
X99183333Y-53726190D01*
X99492857Y-53726190D01*
X124092857Y-53726190D02*
X124092857Y-53226190D01*
X124211904Y-53226190D01*
X124283333Y-53250000D01*
X124330952Y-53297619D01*
X124354761Y-53345238D01*
X124378571Y-53440476D01*
X124378571Y-53511904D01*
X124354761Y-53607142D01*
X124330952Y-53654761D01*
X124283333Y-53702380D01*
X124211904Y-53726190D01*
X124092857Y-53726190D01*
X124854761Y-53726190D02*
X124569047Y-53726190D01*
X124711904Y-53726190D02*
X124711904Y-53226190D01*
X124664285Y-53297619D01*
X124616666Y-53345238D01*
X124569047Y-53369047D01*
X125164285Y-53226190D02*
X125211904Y-53226190D01*
X125259523Y-53250000D01*
X125283333Y-53273809D01*
X125307142Y-53321428D01*
X125330952Y-53416666D01*
X125330952Y-53535714D01*
X125307142Y-53630952D01*
X125283333Y-53678571D01*
X125259523Y-53702380D01*
X125211904Y-53726190D01*
X125164285Y-53726190D01*
X125116666Y-53702380D01*
X125092857Y-53678571D01*
X125069047Y-53630952D01*
X125045238Y-53535714D01*
X125045238Y-53416666D01*
X125069047Y-53321428D01*
X125092857Y-53273809D01*
X125116666Y-53250000D01*
X125164285Y-53226190D01*
X101530952Y-53726190D02*
X101530952Y-53226190D01*
X101650000Y-53226190D01*
X101721428Y-53250000D01*
X101769047Y-53297619D01*
X101792857Y-53345238D01*
X101816666Y-53440476D01*
X101816666Y-53511904D01*
X101792857Y-53607142D01*
X101769047Y-53654761D01*
X101721428Y-53702380D01*
X101650000Y-53726190D01*
X101530952Y-53726190D01*
X101983333Y-53226190D02*
X102292857Y-53226190D01*
X102126190Y-53416666D01*
X102197619Y-53416666D01*
X102245238Y-53440476D01*
X102269047Y-53464285D01*
X102292857Y-53511904D01*
X102292857Y-53630952D01*
X102269047Y-53678571D01*
X102245238Y-53702380D01*
X102197619Y-53726190D01*
X102054761Y-53726190D01*
X102007142Y-53702380D01*
X101983333Y-53678571D01*
X111430952Y-53726190D02*
X111430952Y-53226190D01*
X111550000Y-53226190D01*
X111621428Y-53250000D01*
X111669047Y-53297619D01*
X111692857Y-53345238D01*
X111716666Y-53440476D01*
X111716666Y-53511904D01*
X111692857Y-53607142D01*
X111669047Y-53654761D01*
X111621428Y-53702380D01*
X111550000Y-53726190D01*
X111430952Y-53726190D01*
X112169047Y-53226190D02*
X111930952Y-53226190D01*
X111907142Y-53464285D01*
X111930952Y-53440476D01*
X111978571Y-53416666D01*
X112097619Y-53416666D01*
X112145238Y-53440476D01*
X112169047Y-53464285D01*
X112192857Y-53511904D01*
X112192857Y-53630952D01*
X112169047Y-53678571D01*
X112145238Y-53702380D01*
X112097619Y-53726190D01*
X111978571Y-53726190D01*
X111930952Y-53702380D01*
X111907142Y-53678571D01*
X132927738Y-51536952D02*
X132927738Y-51136952D01*
X133156309Y-51536952D02*
X132984880Y-51308380D01*
X133156309Y-51136952D02*
X132927738Y-51365523D01*
X133480119Y-51517904D02*
X133442023Y-51536952D01*
X133365833Y-51536952D01*
X133327738Y-51517904D01*
X133308690Y-51479809D01*
X133308690Y-51327428D01*
X133327738Y-51289333D01*
X133365833Y-51270285D01*
X133442023Y-51270285D01*
X133480119Y-51289333D01*
X133499166Y-51327428D01*
X133499166Y-51365523D01*
X133308690Y-51403619D01*
X133822976Y-51517904D02*
X133784880Y-51536952D01*
X133708690Y-51536952D01*
X133670595Y-51517904D01*
X133651547Y-51479809D01*
X133651547Y-51327428D01*
X133670595Y-51289333D01*
X133708690Y-51270285D01*
X133784880Y-51270285D01*
X133822976Y-51289333D01*
X133842023Y-51327428D01*
X133842023Y-51365523D01*
X133651547Y-51403619D01*
X134013452Y-51270285D02*
X134013452Y-51670285D01*
X134013452Y-51289333D02*
X134051547Y-51270285D01*
X134127738Y-51270285D01*
X134165833Y-51289333D01*
X134184880Y-51308380D01*
X134203928Y-51346476D01*
X134203928Y-51460761D01*
X134184880Y-51498857D01*
X134165833Y-51517904D01*
X134127738Y-51536952D01*
X134051547Y-51536952D01*
X134013452Y-51517904D01*
X134737261Y-51536952D02*
X134699166Y-51517904D01*
X134680119Y-51498857D01*
X134661071Y-51460761D01*
X134661071Y-51346476D01*
X134680119Y-51308380D01*
X134699166Y-51289333D01*
X134737261Y-51270285D01*
X134794404Y-51270285D01*
X134832500Y-51289333D01*
X134851547Y-51308380D01*
X134870595Y-51346476D01*
X134870595Y-51460761D01*
X134851547Y-51498857D01*
X134832500Y-51517904D01*
X134794404Y-51536952D01*
X134737261Y-51536952D01*
X135042023Y-51270285D02*
X135042023Y-51536952D01*
X135042023Y-51308380D02*
X135061071Y-51289333D01*
X135099166Y-51270285D01*
X135156309Y-51270285D01*
X135194404Y-51289333D01*
X135213452Y-51327428D01*
X135213452Y-51536952D01*
X135880119Y-51270285D02*
X135880119Y-51594095D01*
X135861071Y-51632190D01*
X135842023Y-51651238D01*
X135803928Y-51670285D01*
X135746785Y-51670285D01*
X135708690Y-51651238D01*
X135880119Y-51517904D02*
X135842023Y-51536952D01*
X135765833Y-51536952D01*
X135727738Y-51517904D01*
X135708690Y-51498857D01*
X135689642Y-51460761D01*
X135689642Y-51346476D01*
X135708690Y-51308380D01*
X135727738Y-51289333D01*
X135765833Y-51270285D01*
X135842023Y-51270285D01*
X135880119Y-51289333D01*
X136127738Y-51536952D02*
X136089642Y-51517904D01*
X136070595Y-51498857D01*
X136051547Y-51460761D01*
X136051547Y-51346476D01*
X136070595Y-51308380D01*
X136089642Y-51289333D01*
X136127738Y-51270285D01*
X136184880Y-51270285D01*
X136222976Y-51289333D01*
X136242023Y-51308380D01*
X136261071Y-51346476D01*
X136261071Y-51460761D01*
X136242023Y-51498857D01*
X136222976Y-51517904D01*
X136184880Y-51536952D01*
X136127738Y-51536952D01*
X136432500Y-51536952D02*
X136432500Y-51270285D01*
X136432500Y-51136952D02*
X136413452Y-51156000D01*
X136432500Y-51175047D01*
X136451547Y-51156000D01*
X136432500Y-51136952D01*
X136432500Y-51175047D01*
X136622976Y-51270285D02*
X136622976Y-51536952D01*
X136622976Y-51308380D02*
X136642023Y-51289333D01*
X136680119Y-51270285D01*
X136737261Y-51270285D01*
X136775357Y-51289333D01*
X136794404Y-51327428D01*
X136794404Y-51536952D01*
X137156309Y-51270285D02*
X137156309Y-51594095D01*
X137137261Y-51632190D01*
X137118214Y-51651238D01*
X137080119Y-51670285D01*
X137022976Y-51670285D01*
X136984880Y-51651238D01*
X137156309Y-51517904D02*
X137118214Y-51536952D01*
X137042023Y-51536952D01*
X137003928Y-51517904D01*
X136984880Y-51498857D01*
X136965833Y-51460761D01*
X136965833Y-51346476D01*
X136984880Y-51308380D01*
X137003928Y-51289333D01*
X137042023Y-51270285D01*
X137118214Y-51270285D01*
X137156309Y-51289333D01*
X137651547Y-51270285D02*
X137651547Y-51536952D01*
X137651547Y-51308380D02*
X137670595Y-51289333D01*
X137708690Y-51270285D01*
X137765833Y-51270285D01*
X137803928Y-51289333D01*
X137822976Y-51327428D01*
X137822976Y-51536952D01*
X138165833Y-51517904D02*
X138127738Y-51536952D01*
X138051547Y-51536952D01*
X138013452Y-51517904D01*
X137994404Y-51479809D01*
X137994404Y-51327428D01*
X138013452Y-51289333D01*
X138051547Y-51270285D01*
X138127738Y-51270285D01*
X138165833Y-51289333D01*
X138184880Y-51327428D01*
X138184880Y-51365523D01*
X137994404Y-51403619D01*
X138318214Y-51270285D02*
X138413452Y-51536952D01*
X138508690Y-51270285D01*
X138813452Y-51517904D02*
X138775357Y-51536952D01*
X138699166Y-51536952D01*
X138661071Y-51517904D01*
X138642023Y-51479809D01*
X138642023Y-51327428D01*
X138661071Y-51289333D01*
X138699166Y-51270285D01*
X138775357Y-51270285D01*
X138813452Y-51289333D01*
X138832500Y-51327428D01*
X138832500Y-51365523D01*
X138642023Y-51403619D01*
X139003928Y-51536952D02*
X139003928Y-51270285D01*
X139003928Y-51346476D02*
X139022976Y-51308380D01*
X139042023Y-51289333D01*
X139080119Y-51270285D01*
X139118214Y-51270285D01*
X139727738Y-51270285D02*
X139727738Y-51594095D01*
X139708690Y-51632190D01*
X139689642Y-51651238D01*
X139651547Y-51670285D01*
X139594404Y-51670285D01*
X139556309Y-51651238D01*
X139727738Y-51517904D02*
X139689642Y-51536952D01*
X139613452Y-51536952D01*
X139575357Y-51517904D01*
X139556309Y-51498857D01*
X139537261Y-51460761D01*
X139537261Y-51346476D01*
X139556309Y-51308380D01*
X139575357Y-51289333D01*
X139613452Y-51270285D01*
X139689642Y-51270285D01*
X139727738Y-51289333D01*
X139918214Y-51536952D02*
X139918214Y-51270285D01*
X139918214Y-51136952D02*
X139899166Y-51156000D01*
X139918214Y-51175047D01*
X139937261Y-51156000D01*
X139918214Y-51136952D01*
X139918214Y-51175047D01*
X140070595Y-51270285D02*
X140165833Y-51536952D01*
X140261071Y-51270285D01*
X140565833Y-51517904D02*
X140527738Y-51536952D01*
X140451547Y-51536952D01*
X140413452Y-51517904D01*
X140394404Y-51479809D01*
X140394404Y-51327428D01*
X140413452Y-51289333D01*
X140451547Y-51270285D01*
X140527738Y-51270285D01*
X140565833Y-51289333D01*
X140584880Y-51327428D01*
X140584880Y-51365523D01*
X140394404Y-51403619D01*
X141232500Y-51270285D02*
X141232500Y-51536952D01*
X141061071Y-51270285D02*
X141061071Y-51479809D01*
X141080119Y-51517904D01*
X141118214Y-51536952D01*
X141175357Y-51536952D01*
X141213452Y-51517904D01*
X141232500Y-51498857D01*
X141422976Y-51270285D02*
X141422976Y-51670285D01*
X141422976Y-51289333D02*
X141461071Y-51270285D01*
X141537261Y-51270285D01*
X141575357Y-51289333D01*
X141594404Y-51308380D01*
X141613452Y-51346476D01*
X141613452Y-51460761D01*
X141594404Y-51498857D01*
X141575357Y-51517904D01*
X141537261Y-51536952D01*
X141461071Y-51536952D01*
X141422976Y-51517904D01*
X141784880Y-51498857D02*
X141803928Y-51517904D01*
X141784880Y-51536952D01*
X141765833Y-51517904D01*
X141784880Y-51498857D01*
X141784880Y-51536952D01*
X132927738Y-52180952D02*
X132927738Y-51780952D01*
X133061071Y-51914285D02*
X133213452Y-51914285D01*
X133118214Y-51780952D02*
X133118214Y-52123809D01*
X133137261Y-52161904D01*
X133175357Y-52180952D01*
X133213452Y-52180952D01*
X133651547Y-52180952D02*
X133651547Y-51914285D01*
X133651547Y-51780952D02*
X133632500Y-51800000D01*
X133651547Y-51819047D01*
X133670595Y-51800000D01*
X133651547Y-51780952D01*
X133651547Y-51819047D01*
X133822976Y-52161904D02*
X133861071Y-52180952D01*
X133937261Y-52180952D01*
X133975357Y-52161904D01*
X133994404Y-52123809D01*
X133994404Y-52104761D01*
X133975357Y-52066666D01*
X133937261Y-52047619D01*
X133880119Y-52047619D01*
X133842023Y-52028571D01*
X133822976Y-51990476D01*
X133822976Y-51971428D01*
X133842023Y-51933333D01*
X133880119Y-51914285D01*
X133937261Y-51914285D01*
X133975357Y-51933333D01*
X134470595Y-51914285D02*
X134470595Y-52180952D01*
X134470595Y-51952380D02*
X134489642Y-51933333D01*
X134527738Y-51914285D01*
X134584880Y-51914285D01*
X134622976Y-51933333D01*
X134642023Y-51971428D01*
X134642023Y-52180952D01*
X134984880Y-52161904D02*
X134946785Y-52180952D01*
X134870595Y-52180952D01*
X134832500Y-52161904D01*
X134813452Y-52123809D01*
X134813452Y-51971428D01*
X134832500Y-51933333D01*
X134870595Y-51914285D01*
X134946785Y-51914285D01*
X134984880Y-51933333D01*
X135003928Y-51971428D01*
X135003928Y-52009523D01*
X134813452Y-52047619D01*
X135137261Y-51914285D02*
X135232500Y-52180952D01*
X135327738Y-51914285D01*
X135632500Y-52161904D02*
X135594404Y-52180952D01*
X135518214Y-52180952D01*
X135480119Y-52161904D01*
X135461071Y-52123809D01*
X135461071Y-51971428D01*
X135480119Y-51933333D01*
X135518214Y-51914285D01*
X135594404Y-51914285D01*
X135632500Y-51933333D01*
X135651547Y-51971428D01*
X135651547Y-52009523D01*
X135461071Y-52047619D01*
X135822976Y-52180952D02*
X135822976Y-51914285D01*
X135822976Y-51990476D02*
X135842023Y-51952380D01*
X135861071Y-51933333D01*
X135899166Y-51914285D01*
X135937261Y-51914285D01*
X136318214Y-51914285D02*
X136470595Y-51914285D01*
X136375357Y-51780952D02*
X136375357Y-52123809D01*
X136394404Y-52161904D01*
X136432500Y-52180952D01*
X136470595Y-52180952D01*
X136661071Y-52180952D02*
X136622976Y-52161904D01*
X136603928Y-52142857D01*
X136584880Y-52104761D01*
X136584880Y-51990476D01*
X136603928Y-51952380D01*
X136622976Y-51933333D01*
X136661071Y-51914285D01*
X136718214Y-51914285D01*
X136756309Y-51933333D01*
X136775357Y-51952380D01*
X136794404Y-51990476D01*
X136794404Y-52104761D01*
X136775357Y-52142857D01*
X136756309Y-52161904D01*
X136718214Y-52180952D01*
X136661071Y-52180952D01*
X137022976Y-52180952D02*
X136984880Y-52161904D01*
X136965833Y-52142857D01*
X136946785Y-52104761D01*
X136946785Y-51990476D01*
X136965833Y-51952380D01*
X136984880Y-51933333D01*
X137022976Y-51914285D01*
X137080119Y-51914285D01*
X137118214Y-51933333D01*
X137137261Y-51952380D01*
X137156309Y-51990476D01*
X137156309Y-52104761D01*
X137137261Y-52142857D01*
X137118214Y-52161904D01*
X137080119Y-52180952D01*
X137022976Y-52180952D01*
X137689642Y-52180952D02*
X137651547Y-52161904D01*
X137632500Y-52123809D01*
X137632500Y-51780952D01*
X138013452Y-52180952D02*
X138013452Y-51971428D01*
X137994404Y-51933333D01*
X137956309Y-51914285D01*
X137880119Y-51914285D01*
X137842023Y-51933333D01*
X138013452Y-52161904D02*
X137975357Y-52180952D01*
X137880119Y-52180952D01*
X137842023Y-52161904D01*
X137822976Y-52123809D01*
X137822976Y-52085714D01*
X137842023Y-52047619D01*
X137880119Y-52028571D01*
X137975357Y-52028571D01*
X138013452Y-52009523D01*
X138146785Y-51914285D02*
X138299166Y-51914285D01*
X138203928Y-51780952D02*
X138203928Y-52123809D01*
X138222976Y-52161904D01*
X138261071Y-52180952D01*
X138299166Y-52180952D01*
X138584880Y-52161904D02*
X138546785Y-52180952D01*
X138470595Y-52180952D01*
X138432500Y-52161904D01*
X138413452Y-52123809D01*
X138413452Y-51971428D01*
X138432500Y-51933333D01*
X138470595Y-51914285D01*
X138546785Y-51914285D01*
X138584880Y-51933333D01*
X138603928Y-51971428D01*
X138603928Y-52009523D01*
X138413452Y-52047619D01*
X139022976Y-51914285D02*
X139175357Y-51914285D01*
X139080119Y-51780952D02*
X139080119Y-52123809D01*
X139099166Y-52161904D01*
X139137261Y-52180952D01*
X139175357Y-52180952D01*
X139365833Y-52180952D02*
X139327738Y-52161904D01*
X139308690Y-52142857D01*
X139289642Y-52104761D01*
X139289642Y-51990476D01*
X139308690Y-51952380D01*
X139327738Y-51933333D01*
X139365833Y-51914285D01*
X139422976Y-51914285D01*
X139461071Y-51933333D01*
X139480119Y-51952380D01*
X139499166Y-51990476D01*
X139499166Y-52104761D01*
X139480119Y-52142857D01*
X139461071Y-52161904D01*
X139422976Y-52180952D01*
X139365833Y-52180952D01*
X140032500Y-52180952D02*
X139994404Y-52161904D01*
X139975357Y-52123809D01*
X139975357Y-51780952D01*
X140337261Y-52161904D02*
X140299166Y-52180952D01*
X140222976Y-52180952D01*
X140184880Y-52161904D01*
X140165833Y-52123809D01*
X140165833Y-51971428D01*
X140184880Y-51933333D01*
X140222976Y-51914285D01*
X140299166Y-51914285D01*
X140337261Y-51933333D01*
X140356309Y-51971428D01*
X140356309Y-52009523D01*
X140165833Y-52047619D01*
X140699166Y-52180952D02*
X140699166Y-51971428D01*
X140680119Y-51933333D01*
X140642023Y-51914285D01*
X140565833Y-51914285D01*
X140527738Y-51933333D01*
X140699166Y-52161904D02*
X140661071Y-52180952D01*
X140565833Y-52180952D01*
X140527738Y-52161904D01*
X140508690Y-52123809D01*
X140508690Y-52085714D01*
X140527738Y-52047619D01*
X140565833Y-52028571D01*
X140661071Y-52028571D01*
X140699166Y-52009523D01*
X140889642Y-52180952D02*
X140889642Y-51914285D01*
X140889642Y-51990476D02*
X140908690Y-51952380D01*
X140927738Y-51933333D01*
X140965833Y-51914285D01*
X141003928Y-51914285D01*
X141137261Y-51914285D02*
X141137261Y-52180952D01*
X141137261Y-51952380D02*
X141156309Y-51933333D01*
X141194404Y-51914285D01*
X141251547Y-51914285D01*
X141289642Y-51933333D01*
X141308690Y-51971428D01*
X141308690Y-52180952D01*
X132927738Y-52615428D02*
X133061071Y-52615428D01*
X133118214Y-52824952D02*
X132927738Y-52824952D01*
X132927738Y-52424952D01*
X133118214Y-52424952D01*
X133251547Y-52558285D02*
X133346785Y-52824952D01*
X133442023Y-52558285D01*
X133746785Y-52805904D02*
X133708690Y-52824952D01*
X133632500Y-52824952D01*
X133594404Y-52805904D01*
X133575357Y-52767809D01*
X133575357Y-52615428D01*
X133594404Y-52577333D01*
X133632500Y-52558285D01*
X133708690Y-52558285D01*
X133746785Y-52577333D01*
X133765833Y-52615428D01*
X133765833Y-52653523D01*
X133575357Y-52691619D01*
X133937261Y-52824952D02*
X133937261Y-52558285D01*
X133937261Y-52634476D02*
X133956309Y-52596380D01*
X133975357Y-52577333D01*
X134013452Y-52558285D01*
X134051547Y-52558285D01*
X134146785Y-52558285D02*
X134242023Y-52824952D01*
X134337261Y-52558285D02*
X134242023Y-52824952D01*
X134203928Y-52920190D01*
X134184880Y-52939238D01*
X134146785Y-52958285D01*
X134794404Y-52824952D02*
X134794404Y-52558285D01*
X134794404Y-52596380D02*
X134813452Y-52577333D01*
X134851547Y-52558285D01*
X134908690Y-52558285D01*
X134946785Y-52577333D01*
X134965833Y-52615428D01*
X134965833Y-52824952D01*
X134965833Y-52615428D02*
X134984880Y-52577333D01*
X135022976Y-52558285D01*
X135080119Y-52558285D01*
X135118214Y-52577333D01*
X135137261Y-52615428D01*
X135137261Y-52824952D01*
X135499166Y-52824952D02*
X135499166Y-52615428D01*
X135480119Y-52577333D01*
X135442023Y-52558285D01*
X135365833Y-52558285D01*
X135327738Y-52577333D01*
X135499166Y-52805904D02*
X135461071Y-52824952D01*
X135365833Y-52824952D01*
X135327738Y-52805904D01*
X135308690Y-52767809D01*
X135308690Y-52729714D01*
X135327738Y-52691619D01*
X135365833Y-52672571D01*
X135461071Y-52672571D01*
X135499166Y-52653523D01*
X135689642Y-52558285D02*
X135689642Y-52824952D01*
X135689642Y-52596380D02*
X135708690Y-52577333D01*
X135746785Y-52558285D01*
X135803928Y-52558285D01*
X135842023Y-52577333D01*
X135861071Y-52615428D01*
X135861071Y-52824952D01*
X136356309Y-52824952D02*
X136356309Y-52558285D01*
X136356309Y-52424952D02*
X136337261Y-52444000D01*
X136356309Y-52463047D01*
X136375357Y-52444000D01*
X136356309Y-52424952D01*
X136356309Y-52463047D01*
X136527738Y-52805904D02*
X136565833Y-52824952D01*
X136642023Y-52824952D01*
X136680119Y-52805904D01*
X136699166Y-52767809D01*
X136699166Y-52748761D01*
X136680119Y-52710666D01*
X136642023Y-52691619D01*
X136584880Y-52691619D01*
X136546785Y-52672571D01*
X136527738Y-52634476D01*
X136527738Y-52615428D01*
X136546785Y-52577333D01*
X136584880Y-52558285D01*
X136642023Y-52558285D01*
X136680119Y-52577333D01*
X137175357Y-52824952D02*
X137175357Y-52424952D01*
X137346785Y-52824952D02*
X137346785Y-52615428D01*
X137327738Y-52577333D01*
X137289642Y-52558285D01*
X137232500Y-52558285D01*
X137194404Y-52577333D01*
X137175357Y-52596380D01*
X137537261Y-52824952D02*
X137537261Y-52558285D01*
X137537261Y-52424952D02*
X137518214Y-52444000D01*
X137537261Y-52463047D01*
X137556309Y-52444000D01*
X137537261Y-52424952D01*
X137537261Y-52463047D01*
X137708690Y-52805904D02*
X137746785Y-52824952D01*
X137822976Y-52824952D01*
X137861071Y-52805904D01*
X137880119Y-52767809D01*
X137880119Y-52748761D01*
X137861071Y-52710666D01*
X137822976Y-52691619D01*
X137765833Y-52691619D01*
X137727738Y-52672571D01*
X137708690Y-52634476D01*
X137708690Y-52615428D01*
X137727738Y-52577333D01*
X137765833Y-52558285D01*
X137822976Y-52558285D01*
X137861071Y-52577333D01*
X138413452Y-52824952D02*
X138375357Y-52805904D01*
X138356309Y-52786857D01*
X138337261Y-52748761D01*
X138337261Y-52634476D01*
X138356309Y-52596380D01*
X138375357Y-52577333D01*
X138413452Y-52558285D01*
X138470595Y-52558285D01*
X138508690Y-52577333D01*
X138527738Y-52596380D01*
X138546785Y-52634476D01*
X138546785Y-52748761D01*
X138527738Y-52786857D01*
X138508690Y-52805904D01*
X138470595Y-52824952D01*
X138413452Y-52824952D01*
X138680119Y-52558285D02*
X138756309Y-52824952D01*
X138832500Y-52634476D01*
X138908690Y-52824952D01*
X138984880Y-52558285D01*
X139137261Y-52558285D02*
X139137261Y-52824952D01*
X139137261Y-52596380D02*
X139156309Y-52577333D01*
X139194404Y-52558285D01*
X139251547Y-52558285D01*
X139289642Y-52577333D01*
X139308690Y-52615428D01*
X139308690Y-52824952D01*
X139765833Y-52558285D02*
X139842023Y-52824952D01*
X139918214Y-52634476D01*
X139994404Y-52824952D01*
X140070595Y-52558285D01*
X140280119Y-52824952D02*
X140242023Y-52805904D01*
X140222976Y-52786857D01*
X140203928Y-52748761D01*
X140203928Y-52634476D01*
X140222976Y-52596380D01*
X140242023Y-52577333D01*
X140280119Y-52558285D01*
X140337261Y-52558285D01*
X140375357Y-52577333D01*
X140394404Y-52596380D01*
X140413452Y-52634476D01*
X140413452Y-52748761D01*
X140394404Y-52786857D01*
X140375357Y-52805904D01*
X140337261Y-52824952D01*
X140280119Y-52824952D01*
X140584880Y-52824952D02*
X140584880Y-52558285D01*
X140584880Y-52634476D02*
X140603928Y-52596380D01*
X140622976Y-52577333D01*
X140661071Y-52558285D01*
X140699166Y-52558285D01*
X140813452Y-52805904D02*
X140851547Y-52824952D01*
X140927738Y-52824952D01*
X140965833Y-52805904D01*
X140984880Y-52767809D01*
X140984880Y-52748761D01*
X140965833Y-52710666D01*
X140927738Y-52691619D01*
X140870595Y-52691619D01*
X140832500Y-52672571D01*
X140813452Y-52634476D01*
X140813452Y-52615428D01*
X140832500Y-52577333D01*
X140870595Y-52558285D01*
X140927738Y-52558285D01*
X140965833Y-52577333D01*
X141099166Y-52558285D02*
X141251547Y-52558285D01*
X141156309Y-52424952D02*
X141156309Y-52767809D01*
X141175357Y-52805904D01*
X141213452Y-52824952D01*
X141251547Y-52824952D01*
X141842023Y-52805904D02*
X141803928Y-52824952D01*
X141727738Y-52824952D01*
X141689642Y-52805904D01*
X141670595Y-52767809D01*
X141670595Y-52615428D01*
X141689642Y-52577333D01*
X141727738Y-52558285D01*
X141803928Y-52558285D01*
X141842023Y-52577333D01*
X141861071Y-52615428D01*
X141861071Y-52653523D01*
X141670595Y-52691619D01*
X142032500Y-52558285D02*
X142032500Y-52824952D01*
X142032500Y-52596380D02*
X142051547Y-52577333D01*
X142089642Y-52558285D01*
X142146785Y-52558285D01*
X142184880Y-52577333D01*
X142203928Y-52615428D01*
X142203928Y-52824952D01*
X142546785Y-52805904D02*
X142508690Y-52824952D01*
X142432500Y-52824952D01*
X142394404Y-52805904D01*
X142375357Y-52767809D01*
X142375357Y-52615428D01*
X142394404Y-52577333D01*
X142432500Y-52558285D01*
X142508690Y-52558285D01*
X142546785Y-52577333D01*
X142565833Y-52615428D01*
X142565833Y-52653523D01*
X142375357Y-52691619D01*
X142737261Y-52824952D02*
X142737261Y-52558285D01*
X142737261Y-52596380D02*
X142756309Y-52577333D01*
X142794404Y-52558285D01*
X142851547Y-52558285D01*
X142889642Y-52577333D01*
X142908690Y-52615428D01*
X142908690Y-52824952D01*
X142908690Y-52615428D02*
X142927738Y-52577333D01*
X142965833Y-52558285D01*
X143022976Y-52558285D01*
X143061071Y-52577333D01*
X143080119Y-52615428D01*
X143080119Y-52824952D01*
X143232500Y-52558285D02*
X143327738Y-52824952D01*
X143422976Y-52558285D02*
X143327738Y-52824952D01*
X143289642Y-52920190D01*
X143270595Y-52939238D01*
X143232500Y-52958285D01*
X124014285Y-74992857D02*
X124014285Y-75326190D01*
X124014285Y-75040476D02*
X124038095Y-75016666D01*
X124085714Y-74992857D01*
X124157142Y-74992857D01*
X124204761Y-75016666D01*
X124228571Y-75064285D01*
X124228571Y-75326190D01*
X124752380Y-75326190D02*
X124585714Y-75088095D01*
X124466666Y-75326190D02*
X124466666Y-74826190D01*
X124657142Y-74826190D01*
X124704761Y-74850000D01*
X124728571Y-74873809D01*
X124752380Y-74921428D01*
X124752380Y-74992857D01*
X124728571Y-75040476D01*
X124704761Y-75064285D01*
X124657142Y-75088095D01*
X124466666Y-75088095D01*
X124942857Y-75302380D02*
X125014285Y-75326190D01*
X125133333Y-75326190D01*
X125180952Y-75302380D01*
X125204761Y-75278571D01*
X125228571Y-75230952D01*
X125228571Y-75183333D01*
X125204761Y-75135714D01*
X125180952Y-75111904D01*
X125133333Y-75088095D01*
X125038095Y-75064285D01*
X124990476Y-75040476D01*
X124966666Y-75016666D01*
X124942857Y-74969047D01*
X124942857Y-74921428D01*
X124966666Y-74873809D01*
X124990476Y-74850000D01*
X125038095Y-74826190D01*
X125157142Y-74826190D01*
X125228571Y-74850000D01*
X125371428Y-74826190D02*
X125657142Y-74826190D01*
X125514285Y-75326190D02*
X125514285Y-74826190D01*
X109019047Y-53250000D02*
X108971428Y-53226190D01*
X108900000Y-53226190D01*
X108828571Y-53250000D01*
X108780952Y-53297619D01*
X108757142Y-53345238D01*
X108733333Y-53440476D01*
X108733333Y-53511904D01*
X108757142Y-53607142D01*
X108780952Y-53654761D01*
X108828571Y-53702380D01*
X108900000Y-53726190D01*
X108947619Y-53726190D01*
X109019047Y-53702380D01*
X109042857Y-53678571D01*
X109042857Y-53511904D01*
X108947619Y-53511904D01*
X109257142Y-53726190D02*
X109257142Y-53226190D01*
X109542857Y-53726190D01*
X109542857Y-53226190D01*
X109780952Y-53726190D02*
X109780952Y-53226190D01*
X109900000Y-53226190D01*
X109971428Y-53250000D01*
X110019047Y-53297619D01*
X110042857Y-53345238D01*
X110066666Y-53440476D01*
X110066666Y-53511904D01*
X110042857Y-53607142D01*
X110019047Y-53654761D01*
X109971428Y-53702380D01*
X109900000Y-53726190D01*
X109780952Y-53726190D01*
X113930952Y-53726190D02*
X113930952Y-53226190D01*
X114050000Y-53226190D01*
X114121428Y-53250000D01*
X114169047Y-53297619D01*
X114192857Y-53345238D01*
X114216666Y-53440476D01*
X114216666Y-53511904D01*
X114192857Y-53607142D01*
X114169047Y-53654761D01*
X114121428Y-53702380D01*
X114050000Y-53726190D01*
X113930952Y-53726190D01*
X114645238Y-53226190D02*
X114550000Y-53226190D01*
X114502380Y-53250000D01*
X114478571Y-53273809D01*
X114430952Y-53345238D01*
X114407142Y-53440476D01*
X114407142Y-53630952D01*
X114430952Y-53678571D01*
X114454761Y-53702380D01*
X114502380Y-53726190D01*
X114597619Y-53726190D01*
X114645238Y-53702380D01*
X114669047Y-53678571D01*
X114692857Y-53630952D01*
X114692857Y-53511904D01*
X114669047Y-53464285D01*
X114645238Y-53440476D01*
X114597619Y-53416666D01*
X114502380Y-53416666D01*
X114454761Y-53440476D01*
X114430952Y-53464285D01*
X114407142Y-53511904D01*
D12*
X137519047Y-54159285D02*
X137685714Y-54159285D01*
X137757142Y-54421190D02*
X137519047Y-54421190D01*
X137519047Y-53921190D01*
X137757142Y-53921190D01*
X137947619Y-54397380D02*
X138019047Y-54421190D01*
X138138095Y-54421190D01*
X138185714Y-54397380D01*
X138209523Y-54373571D01*
X138233333Y-54325952D01*
X138233333Y-54278333D01*
X138209523Y-54230714D01*
X138185714Y-54206904D01*
X138138095Y-54183095D01*
X138042857Y-54159285D01*
X137995238Y-54135476D01*
X137971428Y-54111666D01*
X137947619Y-54064047D01*
X137947619Y-54016428D01*
X137971428Y-53968809D01*
X137995238Y-53945000D01*
X138042857Y-53921190D01*
X138161904Y-53921190D01*
X138233333Y-53945000D01*
X138447619Y-54421190D02*
X138447619Y-53921190D01*
X138638095Y-53921190D01*
X138685714Y-53945000D01*
X138709523Y-53968809D01*
X138733333Y-54016428D01*
X138733333Y-54087857D01*
X138709523Y-54135476D01*
X138685714Y-54159285D01*
X138638095Y-54183095D01*
X138447619Y-54183095D01*
X138947619Y-54230714D02*
X139328571Y-54230714D01*
X139828571Y-54421190D02*
X139542857Y-54421190D01*
X139685714Y-54421190D02*
X139685714Y-53921190D01*
X139638095Y-53992619D01*
X139590476Y-54040238D01*
X139542857Y-54064047D01*
X140019047Y-53968809D02*
X140042857Y-53945000D01*
X140090476Y-53921190D01*
X140209523Y-53921190D01*
X140257142Y-53945000D01*
X140280952Y-53968809D01*
X140304761Y-54016428D01*
X140304761Y-54064047D01*
X140280952Y-54135476D01*
X139995238Y-54421190D01*
X140304761Y-54421190D01*
X137364285Y-55226190D02*
X137364285Y-54726190D01*
X137650000Y-55226190D01*
X137650000Y-54726190D01*
X137959523Y-55226190D02*
X137911904Y-55202380D01*
X137888095Y-55178571D01*
X137864285Y-55130952D01*
X137864285Y-54988095D01*
X137888095Y-54940476D01*
X137911904Y-54916666D01*
X137959523Y-54892857D01*
X138030952Y-54892857D01*
X138078571Y-54916666D01*
X138102380Y-54940476D01*
X138126190Y-54988095D01*
X138126190Y-55130952D01*
X138102380Y-55178571D01*
X138078571Y-55202380D01*
X138030952Y-55226190D01*
X137959523Y-55226190D01*
X138554761Y-55226190D02*
X138554761Y-54726190D01*
X138554761Y-55202380D02*
X138507142Y-55226190D01*
X138411904Y-55226190D01*
X138364285Y-55202380D01*
X138340476Y-55178571D01*
X138316666Y-55130952D01*
X138316666Y-54988095D01*
X138340476Y-54940476D01*
X138364285Y-54916666D01*
X138411904Y-54892857D01*
X138507142Y-54892857D01*
X138554761Y-54916666D01*
X138983333Y-55202380D02*
X138935714Y-55226190D01*
X138840476Y-55226190D01*
X138792857Y-55202380D01*
X138769047Y-55154761D01*
X138769047Y-54964285D01*
X138792857Y-54916666D01*
X138840476Y-54892857D01*
X138935714Y-54892857D01*
X138983333Y-54916666D01*
X139007142Y-54964285D01*
X139007142Y-55011904D01*
X138769047Y-55059523D01*
X139221428Y-55226190D02*
X139221428Y-54726190D01*
X139388095Y-55083333D01*
X139554761Y-54726190D01*
X139554761Y-55226190D01*
X140007142Y-55202380D02*
X139959523Y-55226190D01*
X139864285Y-55226190D01*
X139816666Y-55202380D01*
X139792857Y-55178571D01*
X139769047Y-55130952D01*
X139769047Y-54988095D01*
X139792857Y-54940476D01*
X139816666Y-54916666D01*
X139864285Y-54892857D01*
X139959523Y-54892857D01*
X140007142Y-54916666D01*
X140435714Y-54892857D02*
X140435714Y-55226190D01*
X140221428Y-54892857D02*
X140221428Y-55154761D01*
X140245238Y-55202380D01*
X140292857Y-55226190D01*
X140364285Y-55226190D01*
X140411904Y-55202380D01*
X140435714Y-55178571D01*
X135971428Y-56031190D02*
X135971428Y-55531190D01*
X136090476Y-55531190D01*
X136161904Y-55555000D01*
X136209523Y-55602619D01*
X136233333Y-55650238D01*
X136257142Y-55745476D01*
X136257142Y-55816904D01*
X136233333Y-55912142D01*
X136209523Y-55959761D01*
X136161904Y-56007380D01*
X136090476Y-56031190D01*
X135971428Y-56031190D01*
X136661904Y-56007380D02*
X136614285Y-56031190D01*
X136519047Y-56031190D01*
X136471428Y-56007380D01*
X136447619Y-55959761D01*
X136447619Y-55769285D01*
X136471428Y-55721666D01*
X136519047Y-55697857D01*
X136614285Y-55697857D01*
X136661904Y-55721666D01*
X136685714Y-55769285D01*
X136685714Y-55816904D01*
X136447619Y-55864523D01*
X136876190Y-56007380D02*
X136923809Y-56031190D01*
X137019047Y-56031190D01*
X137066666Y-56007380D01*
X137090476Y-55959761D01*
X137090476Y-55935952D01*
X137066666Y-55888333D01*
X137019047Y-55864523D01*
X136947619Y-55864523D01*
X136900000Y-55840714D01*
X136876190Y-55793095D01*
X136876190Y-55769285D01*
X136900000Y-55721666D01*
X136947619Y-55697857D01*
X137019047Y-55697857D01*
X137066666Y-55721666D01*
X137304761Y-56031190D02*
X137304761Y-55697857D01*
X137304761Y-55531190D02*
X137280952Y-55555000D01*
X137304761Y-55578809D01*
X137328571Y-55555000D01*
X137304761Y-55531190D01*
X137304761Y-55578809D01*
X137757142Y-55697857D02*
X137757142Y-56102619D01*
X137733333Y-56150238D01*
X137709523Y-56174047D01*
X137661904Y-56197857D01*
X137590476Y-56197857D01*
X137542857Y-56174047D01*
X137757142Y-56007380D02*
X137709523Y-56031190D01*
X137614285Y-56031190D01*
X137566666Y-56007380D01*
X137542857Y-55983571D01*
X137519047Y-55935952D01*
X137519047Y-55793095D01*
X137542857Y-55745476D01*
X137566666Y-55721666D01*
X137614285Y-55697857D01*
X137709523Y-55697857D01*
X137757142Y-55721666D01*
X137995238Y-55697857D02*
X137995238Y-56031190D01*
X137995238Y-55745476D02*
X138019047Y-55721666D01*
X138066666Y-55697857D01*
X138138095Y-55697857D01*
X138185714Y-55721666D01*
X138209523Y-55769285D01*
X138209523Y-56031190D01*
X138828571Y-56031190D02*
X138828571Y-55531190D01*
X138828571Y-55721666D02*
X138876190Y-55697857D01*
X138971428Y-55697857D01*
X139019047Y-55721666D01*
X139042857Y-55745476D01*
X139066666Y-55793095D01*
X139066666Y-55935952D01*
X139042857Y-55983571D01*
X139019047Y-56007380D01*
X138971428Y-56031190D01*
X138876190Y-56031190D01*
X138828571Y-56007380D01*
X139233333Y-55697857D02*
X139352380Y-56031190D01*
X139471428Y-55697857D02*
X139352380Y-56031190D01*
X139304761Y-56150238D01*
X139280952Y-56174047D01*
X139233333Y-56197857D01*
X140019047Y-56007380D02*
X140066666Y-56031190D01*
X140161904Y-56031190D01*
X140209523Y-56007380D01*
X140233333Y-55959761D01*
X140233333Y-55935952D01*
X140209523Y-55888333D01*
X140161904Y-55864523D01*
X140090476Y-55864523D01*
X140042857Y-55840714D01*
X140019047Y-55793095D01*
X140019047Y-55769285D01*
X140042857Y-55721666D01*
X140090476Y-55697857D01*
X140161904Y-55697857D01*
X140209523Y-55721666D01*
X140376190Y-55697857D02*
X140566666Y-55697857D01*
X140447619Y-55531190D02*
X140447619Y-55959761D01*
X140471428Y-56007380D01*
X140519047Y-56031190D01*
X140566666Y-56031190D01*
X140804761Y-56031190D02*
X140757142Y-56007380D01*
X140733333Y-55983571D01*
X140709523Y-55935952D01*
X140709523Y-55793095D01*
X140733333Y-55745476D01*
X140757142Y-55721666D01*
X140804761Y-55697857D01*
X140876190Y-55697857D01*
X140923809Y-55721666D01*
X140947619Y-55745476D01*
X140971428Y-55793095D01*
X140971428Y-55935952D01*
X140947619Y-55983571D01*
X140923809Y-56007380D01*
X140876190Y-56031190D01*
X140804761Y-56031190D01*
X141185714Y-55697857D02*
X141185714Y-56031190D01*
X141185714Y-55745476D02*
X141209523Y-55721666D01*
X141257142Y-55697857D01*
X141328571Y-55697857D01*
X141376190Y-55721666D01*
X141400000Y-55769285D01*
X141400000Y-56031190D01*
X141828571Y-56007380D02*
X141780952Y-56031190D01*
X141685714Y-56031190D01*
X141638095Y-56007380D01*
X141614285Y-55959761D01*
X141614285Y-55769285D01*
X141638095Y-55721666D01*
X141685714Y-55697857D01*
X141780952Y-55697857D01*
X141828571Y-55721666D01*
X141852380Y-55769285D01*
X141852380Y-55816904D01*
X141614285Y-55864523D01*
D11*
X121830952Y-53726190D02*
X121830952Y-53226190D01*
X121950000Y-53226190D01*
X122021428Y-53250000D01*
X122069047Y-53297619D01*
X122092857Y-53345238D01*
X122116666Y-53440476D01*
X122116666Y-53511904D01*
X122092857Y-53607142D01*
X122069047Y-53654761D01*
X122021428Y-53702380D01*
X121950000Y-53726190D01*
X121830952Y-53726190D01*
X122354761Y-53726190D02*
X122450000Y-53726190D01*
X122497619Y-53702380D01*
X122521428Y-53678571D01*
X122569047Y-53607142D01*
X122592857Y-53511904D01*
X122592857Y-53321428D01*
X122569047Y-53273809D01*
X122545238Y-53250000D01*
X122497619Y-53226190D01*
X122402380Y-53226190D01*
X122354761Y-53250000D01*
X122330952Y-53273809D01*
X122307142Y-53321428D01*
X122307142Y-53440476D01*
X122330952Y-53488095D01*
X122354761Y-53511904D01*
X122402380Y-53535714D01*
X122497619Y-53535714D01*
X122545238Y-53511904D01*
X122569047Y-53488095D01*
X122592857Y-53440476D01*
X96430952Y-53726190D02*
X96430952Y-53226190D01*
X96550000Y-53226190D01*
X96621428Y-53250000D01*
X96669047Y-53297619D01*
X96692857Y-53345238D01*
X96716666Y-53440476D01*
X96716666Y-53511904D01*
X96692857Y-53607142D01*
X96669047Y-53654761D01*
X96621428Y-53702380D01*
X96550000Y-53726190D01*
X96430952Y-53726190D01*
X97192857Y-53726190D02*
X96907142Y-53726190D01*
X97050000Y-53726190D02*
X97050000Y-53226190D01*
X97002380Y-53297619D01*
X96954761Y-53345238D01*
X96907142Y-53369047D01*
X121930952Y-75064285D02*
X122097619Y-75064285D01*
X122169047Y-75326190D02*
X121930952Y-75326190D01*
X121930952Y-74826190D01*
X122169047Y-74826190D01*
X122383333Y-75326190D02*
X122383333Y-74826190D01*
X122669047Y-75326190D01*
X122669047Y-74826190D01*
X129076190Y-53226190D02*
X129385714Y-53226190D01*
X129219047Y-53416666D01*
X129290476Y-53416666D01*
X129338095Y-53440476D01*
X129361904Y-53464285D01*
X129385714Y-53511904D01*
X129385714Y-53630952D01*
X129361904Y-53678571D01*
X129338095Y-53702380D01*
X129290476Y-53726190D01*
X129147619Y-53726190D01*
X129100000Y-53702380D01*
X129076190Y-53678571D01*
X129600000Y-53678571D02*
X129623809Y-53702380D01*
X129600000Y-53726190D01*
X129576190Y-53702380D01*
X129600000Y-53678571D01*
X129600000Y-53726190D01*
X129790476Y-53226190D02*
X130100000Y-53226190D01*
X129933333Y-53416666D01*
X130004761Y-53416666D01*
X130052380Y-53440476D01*
X130076190Y-53464285D01*
X130100000Y-53511904D01*
X130100000Y-53630952D01*
X130076190Y-53678571D01*
X130052380Y-53702380D01*
X130004761Y-53726190D01*
X129861904Y-53726190D01*
X129814285Y-53702380D01*
X129790476Y-53678571D01*
X116730952Y-53726190D02*
X116730952Y-53226190D01*
X116850000Y-53226190D01*
X116921428Y-53250000D01*
X116969047Y-53297619D01*
X116992857Y-53345238D01*
X117016666Y-53440476D01*
X117016666Y-53511904D01*
X116992857Y-53607142D01*
X116969047Y-53654761D01*
X116921428Y-53702380D01*
X116850000Y-53726190D01*
X116730952Y-53726190D01*
X117183333Y-53226190D02*
X117516666Y-53226190D01*
X117302380Y-53726190D01*
X111519047Y-74850000D02*
X111471428Y-74826190D01*
X111400000Y-74826190D01*
X111328571Y-74850000D01*
X111280952Y-74897619D01*
X111257142Y-74945238D01*
X111233333Y-75040476D01*
X111233333Y-75111904D01*
X111257142Y-75207142D01*
X111280952Y-75254761D01*
X111328571Y-75302380D01*
X111400000Y-75326190D01*
X111447619Y-75326190D01*
X111519047Y-75302380D01*
X111542857Y-75278571D01*
X111542857Y-75111904D01*
X111447619Y-75111904D01*
X111757142Y-75326190D02*
X111757142Y-74826190D01*
X112042857Y-75326190D01*
X112042857Y-74826190D01*
X112280952Y-75326190D02*
X112280952Y-74826190D01*
X112400000Y-74826190D01*
X112471428Y-74850000D01*
X112519047Y-74897619D01*
X112542857Y-74945238D01*
X112566666Y-75040476D01*
X112566666Y-75111904D01*
X112542857Y-75207142D01*
X112519047Y-75254761D01*
X112471428Y-75302380D01*
X112400000Y-75326190D01*
X112280952Y-75326190D01*
X119230952Y-53726190D02*
X119230952Y-53226190D01*
X119350000Y-53226190D01*
X119421428Y-53250000D01*
X119469047Y-53297619D01*
X119492857Y-53345238D01*
X119516666Y-53440476D01*
X119516666Y-53511904D01*
X119492857Y-53607142D01*
X119469047Y-53654761D01*
X119421428Y-53702380D01*
X119350000Y-53726190D01*
X119230952Y-53726190D01*
X119802380Y-53440476D02*
X119754761Y-53416666D01*
X119730952Y-53392857D01*
X119707142Y-53345238D01*
X119707142Y-53321428D01*
X119730952Y-53273809D01*
X119754761Y-53250000D01*
X119802380Y-53226190D01*
X119897619Y-53226190D01*
X119945238Y-53250000D01*
X119969047Y-53273809D01*
X119992857Y-53321428D01*
X119992857Y-53345238D01*
X119969047Y-53392857D01*
X119945238Y-53416666D01*
X119897619Y-53440476D01*
X119802380Y-53440476D01*
X119754761Y-53464285D01*
X119730952Y-53488095D01*
X119707142Y-53535714D01*
X119707142Y-53630952D01*
X119730952Y-53678571D01*
X119754761Y-53702380D01*
X119802380Y-53726190D01*
X119897619Y-53726190D01*
X119945238Y-53702380D01*
X119969047Y-53678571D01*
X119992857Y-53630952D01*
X119992857Y-53535714D01*
X119969047Y-53488095D01*
X119945238Y-53464285D01*
X119897619Y-53440476D01*
X126819047Y-74850000D02*
X126771428Y-74826190D01*
X126700000Y-74826190D01*
X126628571Y-74850000D01*
X126580952Y-74897619D01*
X126557142Y-74945238D01*
X126533333Y-75040476D01*
X126533333Y-75111904D01*
X126557142Y-75207142D01*
X126580952Y-75254761D01*
X126628571Y-75302380D01*
X126700000Y-75326190D01*
X126747619Y-75326190D01*
X126819047Y-75302380D01*
X126842857Y-75278571D01*
X126842857Y-75111904D01*
X126747619Y-75111904D01*
X127057142Y-75326190D02*
X127057142Y-74826190D01*
X127342857Y-75326190D01*
X127342857Y-74826190D01*
X127580952Y-75326190D02*
X127580952Y-74826190D01*
X127700000Y-74826190D01*
X127771428Y-74850000D01*
X127819047Y-74897619D01*
X127842857Y-74945238D01*
X127866666Y-75040476D01*
X127866666Y-75111904D01*
X127842857Y-75207142D01*
X127819047Y-75254761D01*
X127771428Y-75302380D01*
X127700000Y-75326190D01*
X127580952Y-75326190D01*
X113876190Y-74826190D02*
X114185714Y-74826190D01*
X114019047Y-75016666D01*
X114090476Y-75016666D01*
X114138095Y-75040476D01*
X114161904Y-75064285D01*
X114185714Y-75111904D01*
X114185714Y-75230952D01*
X114161904Y-75278571D01*
X114138095Y-75302380D01*
X114090476Y-75326190D01*
X113947619Y-75326190D01*
X113900000Y-75302380D01*
X113876190Y-75278571D01*
X114400000Y-75278571D02*
X114423809Y-75302380D01*
X114400000Y-75326190D01*
X114376190Y-75302380D01*
X114400000Y-75278571D01*
X114400000Y-75326190D01*
X114590476Y-74826190D02*
X114900000Y-74826190D01*
X114733333Y-75016666D01*
X114804761Y-75016666D01*
X114852380Y-75040476D01*
X114876190Y-75064285D01*
X114900000Y-75111904D01*
X114900000Y-75230952D01*
X114876190Y-75278571D01*
X114852380Y-75302380D01*
X114804761Y-75326190D01*
X114661904Y-75326190D01*
X114614285Y-75302380D01*
X114590476Y-75278571D01*
X92526190Y-75183333D02*
X92764285Y-75183333D01*
X92478571Y-75326190D02*
X92645238Y-74826190D01*
X92811904Y-75326190D01*
X92978571Y-75326190D02*
X92978571Y-74826190D01*
X93097619Y-74826190D01*
X93169047Y-74850000D01*
X93216666Y-74897619D01*
X93240476Y-74945238D01*
X93264285Y-75040476D01*
X93264285Y-75111904D01*
X93240476Y-75207142D01*
X93216666Y-75254761D01*
X93169047Y-75302380D01*
X93097619Y-75326190D01*
X92978571Y-75326190D01*
X93764285Y-75278571D02*
X93740476Y-75302380D01*
X93669047Y-75326190D01*
X93621428Y-75326190D01*
X93550000Y-75302380D01*
X93502380Y-75254761D01*
X93478571Y-75207142D01*
X93454761Y-75111904D01*
X93454761Y-75040476D01*
X93478571Y-74945238D01*
X93502380Y-74897619D01*
X93550000Y-74850000D01*
X93621428Y-74826190D01*
X93669047Y-74826190D01*
X93740476Y-74850000D01*
X93764285Y-74873809D01*
X94359523Y-75064285D02*
X94526190Y-75064285D01*
X94597619Y-75326190D02*
X94359523Y-75326190D01*
X94359523Y-74826190D01*
X94597619Y-74826190D01*
X94764285Y-74826190D02*
X95097619Y-75326190D01*
X95097619Y-74826190D02*
X94764285Y-75326190D01*
X119176190Y-74826190D02*
X119485714Y-74826190D01*
X119319047Y-75016666D01*
X119390476Y-75016666D01*
X119438095Y-75040476D01*
X119461904Y-75064285D01*
X119485714Y-75111904D01*
X119485714Y-75230952D01*
X119461904Y-75278571D01*
X119438095Y-75302380D01*
X119390476Y-75326190D01*
X119247619Y-75326190D01*
X119200000Y-75302380D01*
X119176190Y-75278571D01*
X119700000Y-75278571D02*
X119723809Y-75302380D01*
X119700000Y-75326190D01*
X119676190Y-75302380D01*
X119700000Y-75278571D01*
X119700000Y-75326190D01*
X119890476Y-74826190D02*
X120200000Y-74826190D01*
X120033333Y-75016666D01*
X120104761Y-75016666D01*
X120152380Y-75040476D01*
X120176190Y-75064285D01*
X120200000Y-75111904D01*
X120200000Y-75230952D01*
X120176190Y-75278571D01*
X120152380Y-75302380D01*
X120104761Y-75326190D01*
X119961904Y-75326190D01*
X119914285Y-75302380D01*
X119890476Y-75278571D01*
X96280952Y-75183333D02*
X96519047Y-75183333D01*
X96233333Y-75326190D02*
X96400000Y-74826190D01*
X96566666Y-75326190D01*
X96733333Y-75326190D02*
X96733333Y-74826190D01*
X96852380Y-74826190D01*
X96923809Y-74850000D01*
X96971428Y-74897619D01*
X96995238Y-74945238D01*
X97019047Y-75040476D01*
X97019047Y-75111904D01*
X96995238Y-75207142D01*
X96971428Y-75254761D01*
X96923809Y-75302380D01*
X96852380Y-75326190D01*
X96733333Y-75326190D01*
X97519047Y-75278571D02*
X97495238Y-75302380D01*
X97423809Y-75326190D01*
X97376190Y-75326190D01*
X97304761Y-75302380D01*
X97257142Y-75254761D01*
X97233333Y-75207142D01*
X97209523Y-75111904D01*
X97209523Y-75040476D01*
X97233333Y-74945238D01*
X97257142Y-74897619D01*
X97304761Y-74850000D01*
X97376190Y-74826190D01*
X97423809Y-74826190D01*
X97495238Y-74850000D01*
X97519047Y-74873809D01*
X126719047Y-53250000D02*
X126671428Y-53226190D01*
X126600000Y-53226190D01*
X126528571Y-53250000D01*
X126480952Y-53297619D01*
X126457142Y-53345238D01*
X126433333Y-53440476D01*
X126433333Y-53511904D01*
X126457142Y-53607142D01*
X126480952Y-53654761D01*
X126528571Y-53702380D01*
X126600000Y-53726190D01*
X126647619Y-53726190D01*
X126719047Y-53702380D01*
X126742857Y-53678571D01*
X126742857Y-53511904D01*
X126647619Y-53511904D01*
X126957142Y-53726190D02*
X126957142Y-53226190D01*
X127242857Y-53726190D01*
X127242857Y-53226190D01*
X127480952Y-53726190D02*
X127480952Y-53226190D01*
X127600000Y-53226190D01*
X127671428Y-53250000D01*
X127719047Y-53297619D01*
X127742857Y-53345238D01*
X127766666Y-53440476D01*
X127766666Y-53511904D01*
X127742857Y-53607142D01*
X127719047Y-53654761D01*
X127671428Y-53702380D01*
X127600000Y-53726190D01*
X127480952Y-53726190D01*
X104030952Y-53726190D02*
X104030952Y-53226190D01*
X104150000Y-53226190D01*
X104221428Y-53250000D01*
X104269047Y-53297619D01*
X104292857Y-53345238D01*
X104316666Y-53440476D01*
X104316666Y-53511904D01*
X104292857Y-53607142D01*
X104269047Y-53654761D01*
X104221428Y-53702380D01*
X104150000Y-53726190D01*
X104030952Y-53726190D01*
X104745238Y-53392857D02*
X104745238Y-53726190D01*
X104626190Y-53202380D02*
X104507142Y-53559523D01*
X104816666Y-53559523D01*
D12*
%TO.C,R5*%
X132940476Y-53826190D02*
X132654761Y-53826190D01*
X132797619Y-53826190D02*
X132797619Y-53326190D01*
X132750000Y-53397619D01*
X132702380Y-53445238D01*
X132654761Y-53469047D01*
X133154761Y-53826190D02*
X133154761Y-53326190D01*
X133202380Y-53635714D02*
X133345238Y-53826190D01*
X133345238Y-53492857D02*
X133154761Y-53683333D01*
%TO.C,R10*%
X118654761Y-74026190D02*
X118369047Y-74026190D01*
X118511904Y-74026190D02*
X118511904Y-73526190D01*
X118464285Y-73597619D01*
X118416666Y-73645238D01*
X118369047Y-73669047D01*
X118845238Y-73573809D02*
X118869047Y-73550000D01*
X118916666Y-73526190D01*
X119035714Y-73526190D01*
X119083333Y-73550000D01*
X119107142Y-73573809D01*
X119130952Y-73621428D01*
X119130952Y-73669047D01*
X119107142Y-73740476D01*
X118821428Y-74026190D01*
X119130952Y-74026190D01*
X119345238Y-74026190D02*
X119345238Y-73526190D01*
X119630952Y-74026190D02*
X119416666Y-73740476D01*
X119630952Y-73526190D02*
X119345238Y-73811904D01*
%TO.C,R17*%
X102459523Y-73326190D02*
X102173809Y-73326190D01*
X102316666Y-73326190D02*
X102316666Y-72826190D01*
X102269047Y-72897619D01*
X102221428Y-72945238D01*
X102173809Y-72969047D01*
X102769047Y-72826190D02*
X102816666Y-72826190D01*
X102864285Y-72850000D01*
X102888095Y-72873809D01*
X102911904Y-72921428D01*
X102935714Y-73016666D01*
X102935714Y-73135714D01*
X102911904Y-73230952D01*
X102888095Y-73278571D01*
X102864285Y-73302380D01*
X102816666Y-73326190D01*
X102769047Y-73326190D01*
X102721428Y-73302380D01*
X102697619Y-73278571D01*
X102673809Y-73230952D01*
X102650000Y-73135714D01*
X102650000Y-73016666D01*
X102673809Y-72921428D01*
X102697619Y-72873809D01*
X102721428Y-72850000D01*
X102769047Y-72826190D01*
X103245238Y-72826190D02*
X103292857Y-72826190D01*
X103340476Y-72850000D01*
X103364285Y-72873809D01*
X103388095Y-72921428D01*
X103411904Y-73016666D01*
X103411904Y-73135714D01*
X103388095Y-73230952D01*
X103364285Y-73278571D01*
X103340476Y-73302380D01*
X103292857Y-73326190D01*
X103245238Y-73326190D01*
X103197619Y-73302380D01*
X103173809Y-73278571D01*
X103150000Y-73230952D01*
X103126190Y-73135714D01*
X103126190Y-73016666D01*
X103150000Y-72921428D01*
X103173809Y-72873809D01*
X103197619Y-72850000D01*
X103245238Y-72826190D01*
X103626190Y-73326190D02*
X103626190Y-72826190D01*
X103911904Y-73326190D02*
X103697619Y-73040476D01*
X103911904Y-72826190D02*
X103626190Y-73111904D01*
X104269047Y-73516666D02*
X104245238Y-73492857D01*
X104197619Y-73421428D01*
X104173809Y-73373809D01*
X104150000Y-73302380D01*
X104126190Y-73183333D01*
X104126190Y-73088095D01*
X104150000Y-72969047D01*
X104173809Y-72897619D01*
X104197619Y-72850000D01*
X104245238Y-72778571D01*
X104269047Y-72754761D01*
X104721428Y-73326190D02*
X104435714Y-73326190D01*
X104578571Y-73326190D02*
X104578571Y-72826190D01*
X104530952Y-72897619D01*
X104483333Y-72945238D01*
X104435714Y-72969047D01*
X104911904Y-73326190D02*
X105292857Y-72826190D01*
X104983333Y-72826190D02*
X105030952Y-72850000D01*
X105054761Y-72897619D01*
X105030952Y-72945238D01*
X104983333Y-72969047D01*
X104935714Y-72945238D01*
X104911904Y-72897619D01*
X104935714Y-72850000D01*
X104983333Y-72826190D01*
X105269047Y-73302380D02*
X105292857Y-73254761D01*
X105269047Y-73207142D01*
X105221428Y-73183333D01*
X105173809Y-73207142D01*
X105150000Y-73254761D01*
X105173809Y-73302380D01*
X105221428Y-73326190D01*
X105269047Y-73302380D01*
X105459523Y-73516666D02*
X105483333Y-73492857D01*
X105530952Y-73421428D01*
X105554761Y-73373809D01*
X105578571Y-73302380D01*
X105602380Y-73183333D01*
X105602380Y-73088095D01*
X105578571Y-72969047D01*
X105554761Y-72897619D01*
X105530952Y-72850000D01*
X105483333Y-72778571D01*
X105459523Y-72754761D01*
%TO.C,R14*%
X132226190Y-62845238D02*
X132226190Y-63130952D01*
X132226190Y-62988095D02*
X131726190Y-62988095D01*
X131797619Y-63035714D01*
X131845238Y-63083333D01*
X131869047Y-63130952D01*
X131773809Y-62654761D02*
X131750000Y-62630952D01*
X131726190Y-62583333D01*
X131726190Y-62464285D01*
X131750000Y-62416666D01*
X131773809Y-62392857D01*
X131821428Y-62369047D01*
X131869047Y-62369047D01*
X131940476Y-62392857D01*
X132226190Y-62678571D01*
X132226190Y-62369047D01*
X132226190Y-62154761D02*
X131726190Y-62154761D01*
X132226190Y-61869047D02*
X131940476Y-62083333D01*
X131726190Y-61869047D02*
X132011904Y-62154761D01*
%TO.C,R2*%
X104054761Y-54526190D02*
X103769047Y-54526190D01*
X103911904Y-54526190D02*
X103911904Y-54026190D01*
X103864285Y-54097619D01*
X103816666Y-54145238D01*
X103769047Y-54169047D01*
X104245238Y-54073809D02*
X104269047Y-54050000D01*
X104316666Y-54026190D01*
X104435714Y-54026190D01*
X104483333Y-54050000D01*
X104507142Y-54073809D01*
X104530952Y-54121428D01*
X104530952Y-54169047D01*
X104507142Y-54240476D01*
X104221428Y-54526190D01*
X104530952Y-54526190D01*
X104745238Y-54526190D02*
X104745238Y-54026190D01*
X105030952Y-54526190D02*
X104816666Y-54240476D01*
X105030952Y-54026190D02*
X104745238Y-54311904D01*
%TO.C,R11*%
X114554761Y-54526190D02*
X114269047Y-54526190D01*
X114411904Y-54526190D02*
X114411904Y-54026190D01*
X114364285Y-54097619D01*
X114316666Y-54145238D01*
X114269047Y-54169047D01*
X114745238Y-54073809D02*
X114769047Y-54050000D01*
X114816666Y-54026190D01*
X114935714Y-54026190D01*
X114983333Y-54050000D01*
X115007142Y-54073809D01*
X115030952Y-54121428D01*
X115030952Y-54169047D01*
X115007142Y-54240476D01*
X114721428Y-54526190D01*
X115030952Y-54526190D01*
X115245238Y-54526190D02*
X115245238Y-54026190D01*
X115530952Y-54526190D02*
X115316666Y-54240476D01*
X115530952Y-54026190D02*
X115245238Y-54311904D01*
%TO.C,R12*%
X118519047Y-56092857D02*
X118519047Y-56426190D01*
X118400000Y-55902380D02*
X118280952Y-56259523D01*
X118590476Y-56259523D01*
X118733333Y-55926190D02*
X119066666Y-55926190D01*
X118852380Y-56426190D01*
X119352380Y-55926190D02*
X119400000Y-55926190D01*
X119447619Y-55950000D01*
X119471428Y-55973809D01*
X119495238Y-56021428D01*
X119519047Y-56116666D01*
X119519047Y-56235714D01*
X119495238Y-56330952D01*
X119471428Y-56378571D01*
X119447619Y-56402380D01*
X119400000Y-56426190D01*
X119352380Y-56426190D01*
X119304761Y-56402380D01*
X119280952Y-56378571D01*
X119257142Y-56330952D01*
X119233333Y-56235714D01*
X119233333Y-56116666D01*
X119257142Y-56021428D01*
X119280952Y-55973809D01*
X119304761Y-55950000D01*
X119352380Y-55926190D01*
%TO.C,C2*%
X126935714Y-54626190D02*
X126650000Y-54626190D01*
X126792857Y-54626190D02*
X126792857Y-54126190D01*
X126745238Y-54197619D01*
X126697619Y-54245238D01*
X126650000Y-54269047D01*
X127245238Y-54126190D02*
X127292857Y-54126190D01*
X127340476Y-54150000D01*
X127364285Y-54173809D01*
X127388095Y-54221428D01*
X127411904Y-54316666D01*
X127411904Y-54435714D01*
X127388095Y-54530952D01*
X127364285Y-54578571D01*
X127340476Y-54602380D01*
X127292857Y-54626190D01*
X127245238Y-54626190D01*
X127197619Y-54602380D01*
X127173809Y-54578571D01*
X127150000Y-54530952D01*
X127126190Y-54435714D01*
X127126190Y-54316666D01*
X127150000Y-54221428D01*
X127173809Y-54173809D01*
X127197619Y-54150000D01*
X127245238Y-54126190D01*
X127840476Y-54292857D02*
X127840476Y-54626190D01*
X127626190Y-54292857D02*
X127626190Y-54554761D01*
X127650000Y-54602380D01*
X127697619Y-54626190D01*
X127769047Y-54626190D01*
X127816666Y-54602380D01*
X127840476Y-54578571D01*
X128007142Y-54292857D02*
X128197619Y-54292857D01*
X128078571Y-54626190D02*
X128078571Y-54197619D01*
X128102380Y-54150000D01*
X128150000Y-54126190D01*
X128197619Y-54126190D01*
%TO.C,R6*%
X107557930Y-74065382D02*
X107272216Y-74065382D01*
X107415073Y-74065382D02*
X107415073Y-73565382D01*
X107367454Y-73636811D01*
X107319835Y-73684430D01*
X107272216Y-73708239D01*
X107748407Y-73613001D02*
X107772216Y-73589192D01*
X107819835Y-73565382D01*
X107938883Y-73565382D01*
X107986502Y-73589192D01*
X108010311Y-73613001D01*
X108034121Y-73660620D01*
X108034121Y-73708239D01*
X108010311Y-73779668D01*
X107724597Y-74065382D01*
X108034121Y-74065382D01*
X108248407Y-74065382D02*
X108248407Y-73565382D01*
X108296026Y-73874906D02*
X108438883Y-74065382D01*
X108438883Y-73732049D02*
X108248407Y-73922525D01*
%TO.C,C8*%
X99950000Y-73006988D02*
X99950000Y-73340321D01*
X99830952Y-72816511D02*
X99711904Y-73173654D01*
X100021428Y-73173654D01*
X100164285Y-72840321D02*
X100497619Y-72840321D01*
X100283333Y-73340321D01*
X100783333Y-72840321D02*
X100830952Y-72840321D01*
X100878571Y-72864131D01*
X100902380Y-72887940D01*
X100926190Y-72935559D01*
X100950000Y-73030797D01*
X100950000Y-73149845D01*
X100926190Y-73245083D01*
X100902380Y-73292702D01*
X100878571Y-73316511D01*
X100830952Y-73340321D01*
X100783333Y-73340321D01*
X100735714Y-73316511D01*
X100711904Y-73292702D01*
X100688095Y-73245083D01*
X100664285Y-73149845D01*
X100664285Y-73030797D01*
X100688095Y-72935559D01*
X100711904Y-72887940D01*
X100735714Y-72864131D01*
X100783333Y-72840321D01*
X101164285Y-73006988D02*
X101164285Y-73506988D01*
X101164285Y-73030797D02*
X101211904Y-73006988D01*
X101307142Y-73006988D01*
X101354761Y-73030797D01*
X101378571Y-73054607D01*
X101402380Y-73102226D01*
X101402380Y-73245083D01*
X101378571Y-73292702D01*
X101354761Y-73316511D01*
X101307142Y-73340321D01*
X101211904Y-73340321D01*
X101164285Y-73316511D01*
X101545238Y-73006988D02*
X101735714Y-73006988D01*
X101616666Y-73340321D02*
X101616666Y-72911750D01*
X101640476Y-72864131D01*
X101688095Y-72840321D01*
X101735714Y-72840321D01*
%TO.C,R9*%
X127892857Y-58380952D02*
X128226190Y-58380952D01*
X127702380Y-58500000D02*
X128059523Y-58619047D01*
X128059523Y-58309523D01*
X127726190Y-58166666D02*
X127726190Y-57833333D01*
X128226190Y-58047619D01*
X127726190Y-57547619D02*
X127726190Y-57500000D01*
X127750000Y-57452380D01*
X127773809Y-57428571D01*
X127821428Y-57404761D01*
X127916666Y-57380952D01*
X128035714Y-57380952D01*
X128130952Y-57404761D01*
X128178571Y-57428571D01*
X128202380Y-57452380D01*
X128226190Y-57500000D01*
X128226190Y-57547619D01*
X128202380Y-57595238D01*
X128178571Y-57619047D01*
X128130952Y-57642857D01*
X128035714Y-57666666D01*
X127916666Y-57666666D01*
X127821428Y-57642857D01*
X127773809Y-57619047D01*
X127750000Y-57595238D01*
X127726190Y-57547619D01*
%TO.C,C3*%
X128126190Y-56702380D02*
X128126190Y-56988095D01*
X128126190Y-56845238D02*
X127626190Y-56845238D01*
X127697619Y-56892857D01*
X127745238Y-56940476D01*
X127769047Y-56988095D01*
X127626190Y-56392857D02*
X127626190Y-56345238D01*
X127650000Y-56297619D01*
X127673809Y-56273809D01*
X127721428Y-56250000D01*
X127816666Y-56226190D01*
X127935714Y-56226190D01*
X128030952Y-56250000D01*
X128078571Y-56273809D01*
X128102380Y-56297619D01*
X128126190Y-56345238D01*
X128126190Y-56392857D01*
X128102380Y-56440476D01*
X128078571Y-56464285D01*
X128030952Y-56488095D01*
X127935714Y-56511904D01*
X127816666Y-56511904D01*
X127721428Y-56488095D01*
X127673809Y-56464285D01*
X127650000Y-56440476D01*
X127626190Y-56392857D01*
X127626190Y-55916666D02*
X127626190Y-55869047D01*
X127650000Y-55821428D01*
X127673809Y-55797619D01*
X127721428Y-55773809D01*
X127816666Y-55750000D01*
X127935714Y-55750000D01*
X128030952Y-55773809D01*
X128078571Y-55797619D01*
X128102380Y-55821428D01*
X128126190Y-55869047D01*
X128126190Y-55916666D01*
X128102380Y-55964285D01*
X128078571Y-55988095D01*
X128030952Y-56011904D01*
X127935714Y-56035714D01*
X127816666Y-56035714D01*
X127721428Y-56011904D01*
X127673809Y-55988095D01*
X127650000Y-55964285D01*
X127626190Y-55916666D01*
X127792857Y-55535714D02*
X128126190Y-55535714D01*
X127840476Y-55535714D02*
X127816666Y-55511904D01*
X127792857Y-55464285D01*
X127792857Y-55392857D01*
X127816666Y-55345238D01*
X127864285Y-55321428D01*
X128126190Y-55321428D01*
X127792857Y-55154761D02*
X127792857Y-54964285D01*
X128126190Y-55083333D02*
X127697619Y-55083333D01*
X127650000Y-55059523D01*
X127626190Y-55011904D01*
X127626190Y-54964285D01*
%TO.C,R13*%
X117623387Y-58280952D02*
X117956720Y-58280952D01*
X117432910Y-58400000D02*
X117790053Y-58519047D01*
X117790053Y-58209523D01*
X117456720Y-58066666D02*
X117456720Y-57733333D01*
X117956720Y-57947619D01*
X117456720Y-57447619D02*
X117456720Y-57400000D01*
X117480530Y-57352380D01*
X117504339Y-57328571D01*
X117551958Y-57304761D01*
X117647196Y-57280952D01*
X117766244Y-57280952D01*
X117861482Y-57304761D01*
X117909101Y-57328571D01*
X117932910Y-57352380D01*
X117956720Y-57400000D01*
X117956720Y-57447619D01*
X117932910Y-57495238D01*
X117909101Y-57519047D01*
X117861482Y-57542857D01*
X117766244Y-57566666D01*
X117647196Y-57566666D01*
X117551958Y-57542857D01*
X117504339Y-57519047D01*
X117480530Y-57495238D01*
X117456720Y-57447619D01*
%TO.C,C4*%
X118916666Y-59678571D02*
X118892857Y-59702380D01*
X118821428Y-59726190D01*
X118773809Y-59726190D01*
X118702380Y-59702380D01*
X118654761Y-59654761D01*
X118630952Y-59607142D01*
X118607142Y-59511904D01*
X118607142Y-59440476D01*
X118630952Y-59345238D01*
X118654761Y-59297619D01*
X118702380Y-59250000D01*
X118773809Y-59226190D01*
X118821428Y-59226190D01*
X118892857Y-59250000D01*
X118916666Y-59273809D01*
X119345238Y-59392857D02*
X119345238Y-59726190D01*
X119226190Y-59202380D02*
X119107142Y-59559523D01*
X119416666Y-59559523D01*
X117826190Y-60702380D02*
X117826190Y-60988095D01*
X117826190Y-60845238D02*
X117326190Y-60845238D01*
X117397619Y-60892857D01*
X117445238Y-60940476D01*
X117469047Y-60988095D01*
X117326190Y-60392857D02*
X117326190Y-60345238D01*
X117350000Y-60297619D01*
X117373809Y-60273809D01*
X117421428Y-60250000D01*
X117516666Y-60226190D01*
X117635714Y-60226190D01*
X117730952Y-60250000D01*
X117778571Y-60273809D01*
X117802380Y-60297619D01*
X117826190Y-60345238D01*
X117826190Y-60392857D01*
X117802380Y-60440476D01*
X117778571Y-60464285D01*
X117730952Y-60488095D01*
X117635714Y-60511904D01*
X117516666Y-60511904D01*
X117421428Y-60488095D01*
X117373809Y-60464285D01*
X117350000Y-60440476D01*
X117326190Y-60392857D01*
X117326190Y-59916666D02*
X117326190Y-59869047D01*
X117350000Y-59821428D01*
X117373809Y-59797619D01*
X117421428Y-59773809D01*
X117516666Y-59750000D01*
X117635714Y-59750000D01*
X117730952Y-59773809D01*
X117778571Y-59797619D01*
X117802380Y-59821428D01*
X117826190Y-59869047D01*
X117826190Y-59916666D01*
X117802380Y-59964285D01*
X117778571Y-59988095D01*
X117730952Y-60011904D01*
X117635714Y-60035714D01*
X117516666Y-60035714D01*
X117421428Y-60011904D01*
X117373809Y-59988095D01*
X117350000Y-59964285D01*
X117326190Y-59916666D01*
X117492857Y-59535714D02*
X117826190Y-59535714D01*
X117540476Y-59535714D02*
X117516666Y-59511904D01*
X117492857Y-59464285D01*
X117492857Y-59392857D01*
X117516666Y-59345238D01*
X117564285Y-59321428D01*
X117826190Y-59321428D01*
X117492857Y-59154761D02*
X117492857Y-58964285D01*
X117826190Y-59083333D02*
X117397619Y-59083333D01*
X117350000Y-59059523D01*
X117326190Y-59011904D01*
X117326190Y-58964285D01*
%TO.C,R7*%
X127019047Y-73692857D02*
X127019047Y-74026190D01*
X126900000Y-73502380D02*
X126780952Y-73859523D01*
X127090476Y-73859523D01*
X127233333Y-73526190D02*
X127566666Y-73526190D01*
X127352380Y-74026190D01*
X127852380Y-73526190D02*
X127900000Y-73526190D01*
X127947619Y-73550000D01*
X127971428Y-73573809D01*
X127995238Y-73621428D01*
X128019047Y-73716666D01*
X128019047Y-73835714D01*
X127995238Y-73930952D01*
X127971428Y-73978571D01*
X127947619Y-74002380D01*
X127900000Y-74026190D01*
X127852380Y-74026190D01*
X127804761Y-74002380D01*
X127780952Y-73978571D01*
X127757142Y-73930952D01*
X127733333Y-73835714D01*
X127733333Y-73716666D01*
X127757142Y-73621428D01*
X127780952Y-73573809D01*
X127804761Y-73550000D01*
X127852380Y-73526190D01*
%TO.C,R3*%
X110354761Y-54526190D02*
X110069047Y-54526190D01*
X110211904Y-54526190D02*
X110211904Y-54026190D01*
X110164285Y-54097619D01*
X110116666Y-54145238D01*
X110069047Y-54169047D01*
X110545238Y-54073809D02*
X110569047Y-54050000D01*
X110616666Y-54026190D01*
X110735714Y-54026190D01*
X110783333Y-54050000D01*
X110807142Y-54073809D01*
X110830952Y-54121428D01*
X110830952Y-54169047D01*
X110807142Y-54240476D01*
X110521428Y-54526190D01*
X110830952Y-54526190D01*
X111045238Y-54526190D02*
X111045238Y-54026190D01*
X111330952Y-54526190D02*
X111116666Y-54240476D01*
X111330952Y-54026190D02*
X111045238Y-54311904D01*
%TO.C,R1*%
X131792857Y-55180952D02*
X132126190Y-55180952D01*
X131602380Y-55300000D02*
X131959523Y-55419047D01*
X131959523Y-55109523D01*
X131626190Y-54966666D02*
X131626190Y-54633333D01*
X132126190Y-54847619D01*
X131626190Y-54347619D02*
X131626190Y-54300000D01*
X131650000Y-54252380D01*
X131673809Y-54228571D01*
X131721428Y-54204761D01*
X131816666Y-54180952D01*
X131935714Y-54180952D01*
X132030952Y-54204761D01*
X132078571Y-54228571D01*
X132102380Y-54252380D01*
X132126190Y-54300000D01*
X132126190Y-54347619D01*
X132102380Y-54395238D01*
X132078571Y-54419047D01*
X132030952Y-54442857D01*
X131935714Y-54466666D01*
X131816666Y-54466666D01*
X131721428Y-54442857D01*
X131673809Y-54419047D01*
X131650000Y-54395238D01*
X131626190Y-54347619D01*
%TO.C,D2*%
X134726190Y-57230952D02*
X134726190Y-56945238D01*
X135226190Y-57088095D02*
X134726190Y-57088095D01*
X134726190Y-56826190D02*
X135226190Y-56492857D01*
X134726190Y-56492857D02*
X135226190Y-56826190D01*
X135226190Y-56302380D02*
X134726190Y-56302380D01*
X134726190Y-56183333D01*
X134750000Y-56111904D01*
X134797619Y-56064285D01*
X134845238Y-56040476D01*
X134940476Y-56016666D01*
X135011904Y-56016666D01*
X135107142Y-56040476D01*
X135154761Y-56064285D01*
X135202380Y-56111904D01*
X135226190Y-56183333D01*
X135226190Y-56302380D01*
%TO.C,C7*%
X118435714Y-67426190D02*
X118150000Y-67426190D01*
X118292857Y-67426190D02*
X118292857Y-66926190D01*
X118245238Y-66997619D01*
X118197619Y-67045238D01*
X118150000Y-67069047D01*
X118745238Y-66926190D02*
X118792857Y-66926190D01*
X118840476Y-66950000D01*
X118864285Y-66973809D01*
X118888095Y-67021428D01*
X118911904Y-67116666D01*
X118911904Y-67235714D01*
X118888095Y-67330952D01*
X118864285Y-67378571D01*
X118840476Y-67402380D01*
X118792857Y-67426190D01*
X118745238Y-67426190D01*
X118697619Y-67402380D01*
X118673809Y-67378571D01*
X118650000Y-67330952D01*
X118626190Y-67235714D01*
X118626190Y-67116666D01*
X118650000Y-67021428D01*
X118673809Y-66973809D01*
X118697619Y-66950000D01*
X118745238Y-66926190D01*
X119340476Y-67092857D02*
X119340476Y-67426190D01*
X119126190Y-67092857D02*
X119126190Y-67354761D01*
X119150000Y-67402380D01*
X119197619Y-67426190D01*
X119269047Y-67426190D01*
X119316666Y-67402380D01*
X119340476Y-67378571D01*
X119507142Y-67092857D02*
X119697619Y-67092857D01*
X119578571Y-67426190D02*
X119578571Y-66997619D01*
X119602380Y-66950000D01*
X119650000Y-66926190D01*
X119697619Y-66926190D01*
%TO.C,D3*%
X133926190Y-56933333D02*
X133688095Y-57100000D01*
X133926190Y-57219047D02*
X133426190Y-57219047D01*
X133426190Y-57028571D01*
X133450000Y-56980952D01*
X133473809Y-56957142D01*
X133521428Y-56933333D01*
X133592857Y-56933333D01*
X133640476Y-56957142D01*
X133664285Y-56980952D01*
X133688095Y-57028571D01*
X133688095Y-57219047D01*
X133426190Y-56766666D02*
X133926190Y-56433333D01*
X133426190Y-56433333D02*
X133926190Y-56766666D01*
X133926190Y-56242857D02*
X133426190Y-56242857D01*
X133426190Y-56123809D01*
X133450000Y-56052380D01*
X133497619Y-56004761D01*
X133545238Y-55980952D01*
X133640476Y-55957142D01*
X133711904Y-55957142D01*
X133807142Y-55980952D01*
X133854761Y-56004761D01*
X133902380Y-56052380D01*
X133926190Y-56123809D01*
X133926190Y-56242857D01*
%TO.C,D1*%
X131457359Y-57173095D02*
X131457359Y-56863571D01*
X131647835Y-57030238D01*
X131647835Y-56958809D01*
X131671645Y-56911190D01*
X131695454Y-56887381D01*
X131743073Y-56863571D01*
X131862121Y-56863571D01*
X131909740Y-56887381D01*
X131933549Y-56911190D01*
X131957359Y-56958809D01*
X131957359Y-57101666D01*
X131933549Y-57149286D01*
X131909740Y-57173095D01*
X131909740Y-56649286D02*
X131933549Y-56625476D01*
X131957359Y-56649286D01*
X131933549Y-56673095D01*
X131909740Y-56649286D01*
X131957359Y-56649286D01*
X131457359Y-56458809D02*
X131457359Y-56149286D01*
X131647835Y-56315952D01*
X131647835Y-56244524D01*
X131671645Y-56196905D01*
X131695454Y-56173095D01*
X131743073Y-56149286D01*
X131862121Y-56149286D01*
X131909740Y-56173095D01*
X131933549Y-56196905D01*
X131957359Y-56244524D01*
X131957359Y-56387381D01*
X131933549Y-56435000D01*
X131909740Y-56458809D01*
%TO.C,C6*%
X118250000Y-64992857D02*
X118250000Y-65326190D01*
X118130952Y-64802380D02*
X118011904Y-65159523D01*
X118321428Y-65159523D01*
X118464285Y-64826190D02*
X118797619Y-64826190D01*
X118583333Y-65326190D01*
X119083333Y-64826190D02*
X119130952Y-64826190D01*
X119178571Y-64850000D01*
X119202380Y-64873809D01*
X119226190Y-64921428D01*
X119250000Y-65016666D01*
X119250000Y-65135714D01*
X119226190Y-65230952D01*
X119202380Y-65278571D01*
X119178571Y-65302380D01*
X119130952Y-65326190D01*
X119083333Y-65326190D01*
X119035714Y-65302380D01*
X119011904Y-65278571D01*
X118988095Y-65230952D01*
X118964285Y-65135714D01*
X118964285Y-65016666D01*
X118988095Y-64921428D01*
X119011904Y-64873809D01*
X119035714Y-64850000D01*
X119083333Y-64826190D01*
X119464285Y-64992857D02*
X119464285Y-65492857D01*
X119464285Y-65016666D02*
X119511904Y-64992857D01*
X119607142Y-64992857D01*
X119654761Y-65016666D01*
X119678571Y-65040476D01*
X119702380Y-65088095D01*
X119702380Y-65230952D01*
X119678571Y-65278571D01*
X119654761Y-65302380D01*
X119607142Y-65326190D01*
X119511904Y-65326190D01*
X119464285Y-65302380D01*
X119845238Y-64992857D02*
X120035714Y-64992857D01*
X119916666Y-65326190D02*
X119916666Y-64897619D01*
X119940476Y-64850000D01*
X119988095Y-64826190D01*
X120035714Y-64826190D01*
%TO.C,C5*%
X126626190Y-66906190D02*
X126626190Y-67191904D01*
X126626190Y-67049047D02*
X126126190Y-67049047D01*
X126197619Y-67096666D01*
X126245238Y-67144285D01*
X126269047Y-67191904D01*
X126292857Y-66477619D02*
X126626190Y-66477619D01*
X126292857Y-66691904D02*
X126554761Y-66691904D01*
X126602380Y-66668095D01*
X126626190Y-66620476D01*
X126626190Y-66549047D01*
X126602380Y-66501428D01*
X126578571Y-66477619D01*
X126292857Y-66310952D02*
X126292857Y-66120476D01*
X126626190Y-66239523D02*
X126197619Y-66239523D01*
X126150000Y-66215714D01*
X126126190Y-66168095D01*
X126126190Y-66120476D01*
%TO.C,R16*%
X94473809Y-72673809D02*
X94497619Y-72650000D01*
X94545238Y-72626190D01*
X94664285Y-72626190D01*
X94711904Y-72650000D01*
X94735714Y-72673809D01*
X94759523Y-72721428D01*
X94759523Y-72769047D01*
X94735714Y-72840476D01*
X94450000Y-73126190D01*
X94759523Y-73126190D01*
X94950000Y-72673809D02*
X94973809Y-72650000D01*
X95021428Y-72626190D01*
X95140476Y-72626190D01*
X95188095Y-72650000D01*
X95211904Y-72673809D01*
X95235714Y-72721428D01*
X95235714Y-72769047D01*
X95211904Y-72840476D01*
X94926190Y-73126190D01*
X95235714Y-73126190D01*
X95545238Y-72626190D02*
X95592857Y-72626190D01*
X95640476Y-72650000D01*
X95664285Y-72673809D01*
X95688095Y-72721428D01*
X95711904Y-72816666D01*
X95711904Y-72935714D01*
X95688095Y-73030952D01*
X95664285Y-73078571D01*
X95640476Y-73102380D01*
X95592857Y-73126190D01*
X95545238Y-73126190D01*
X95497619Y-73102380D01*
X95473809Y-73078571D01*
X95450000Y-73030952D01*
X95426190Y-72935714D01*
X95426190Y-72816666D01*
X95450000Y-72721428D01*
X95473809Y-72673809D01*
X95497619Y-72650000D01*
X95545238Y-72626190D01*
X95926190Y-73126190D02*
X95926190Y-72626190D01*
X96211904Y-73126190D02*
X95997619Y-72840476D01*
X96211904Y-72626190D02*
X95926190Y-72911904D01*
X96569047Y-73316666D02*
X96545238Y-73292857D01*
X96497619Y-73221428D01*
X96473809Y-73173809D01*
X96450000Y-73102380D01*
X96426190Y-72983333D01*
X96426190Y-72888095D01*
X96450000Y-72769047D01*
X96473809Y-72697619D01*
X96497619Y-72650000D01*
X96545238Y-72578571D01*
X96569047Y-72554761D01*
X97021428Y-73126190D02*
X96735714Y-73126190D01*
X96878571Y-73126190D02*
X96878571Y-72626190D01*
X96830952Y-72697619D01*
X96783333Y-72745238D01*
X96735714Y-72769047D01*
X97211904Y-73126190D02*
X97592857Y-72626190D01*
X97283333Y-72626190D02*
X97330952Y-72650000D01*
X97354761Y-72697619D01*
X97330952Y-72745238D01*
X97283333Y-72769047D01*
X97235714Y-72745238D01*
X97211904Y-72697619D01*
X97235714Y-72650000D01*
X97283333Y-72626190D01*
X97569047Y-73102380D02*
X97592857Y-73054761D01*
X97569047Y-73007142D01*
X97521428Y-72983333D01*
X97473809Y-73007142D01*
X97450000Y-73054761D01*
X97473809Y-73102380D01*
X97521428Y-73126190D01*
X97569047Y-73102380D01*
X97759523Y-73316666D02*
X97783333Y-73292857D01*
X97830952Y-73221428D01*
X97854761Y-73173809D01*
X97878571Y-73102380D01*
X97902380Y-72983333D01*
X97902380Y-72888095D01*
X97878571Y-72769047D01*
X97854761Y-72697619D01*
X97830952Y-72650000D01*
X97783333Y-72578571D01*
X97759523Y-72554761D01*
%TO.C,R15*%
X128326190Y-62830238D02*
X128326190Y-63115952D01*
X128326190Y-62973095D02*
X127826190Y-62973095D01*
X127897619Y-63020714D01*
X127945238Y-63068333D01*
X127969047Y-63115952D01*
X127873809Y-62639761D02*
X127850000Y-62615952D01*
X127826190Y-62568333D01*
X127826190Y-62449285D01*
X127850000Y-62401666D01*
X127873809Y-62377857D01*
X127921428Y-62354047D01*
X127969047Y-62354047D01*
X128040476Y-62377857D01*
X128326190Y-62663571D01*
X128326190Y-62354047D01*
X128326190Y-62139761D02*
X127826190Y-62139761D01*
X128326190Y-61854047D02*
X128040476Y-62068333D01*
X127826190Y-61854047D02*
X128111904Y-62139761D01*
%TO.C,R4*%
X134140476Y-53826190D02*
X133854761Y-53826190D01*
X133997619Y-53826190D02*
X133997619Y-53326190D01*
X133950000Y-53397619D01*
X133902380Y-53445238D01*
X133854761Y-53469047D01*
X134354761Y-53826190D02*
X134354761Y-53326190D01*
X134402380Y-53635714D02*
X134545238Y-53826190D01*
X134545238Y-53492857D02*
X134354761Y-53683333D01*
%TO.C,C9*%
X118916666Y-60878571D02*
X118892857Y-60902380D01*
X118821428Y-60926190D01*
X118773809Y-60926190D01*
X118702380Y-60902380D01*
X118654761Y-60854761D01*
X118630952Y-60807142D01*
X118607142Y-60711904D01*
X118607142Y-60640476D01*
X118630952Y-60545238D01*
X118654761Y-60497619D01*
X118702380Y-60450000D01*
X118773809Y-60426190D01*
X118821428Y-60426190D01*
X118892857Y-60450000D01*
X118916666Y-60473809D01*
X119154761Y-60926190D02*
X119250000Y-60926190D01*
X119297619Y-60902380D01*
X119321428Y-60878571D01*
X119369047Y-60807142D01*
X119392857Y-60711904D01*
X119392857Y-60521428D01*
X119369047Y-60473809D01*
X119345238Y-60450000D01*
X119297619Y-60426190D01*
X119202380Y-60426190D01*
X119154761Y-60450000D01*
X119130952Y-60473809D01*
X119107142Y-60521428D01*
X119107142Y-60640476D01*
X119130952Y-60688095D01*
X119154761Y-60711904D01*
X119202380Y-60735714D01*
X119297619Y-60735714D01*
X119345238Y-60711904D01*
X119369047Y-60688095D01*
X119392857Y-60640476D01*
X118342857Y-62071428D02*
X118000000Y-62071428D01*
X118171428Y-62071428D02*
X118171428Y-61471428D01*
X118114285Y-61557142D01*
X118057142Y-61614285D01*
X118000000Y-61642857D01*
X118714285Y-61471428D02*
X118771428Y-61471428D01*
X118828571Y-61500000D01*
X118857142Y-61528571D01*
X118885714Y-61585714D01*
X118914285Y-61700000D01*
X118914285Y-61842857D01*
X118885714Y-61957142D01*
X118857142Y-62014285D01*
X118828571Y-62042857D01*
X118771428Y-62071428D01*
X118714285Y-62071428D01*
X118657142Y-62042857D01*
X118628571Y-62014285D01*
X118600000Y-61957142D01*
X118571428Y-61842857D01*
X118571428Y-61700000D01*
X118600000Y-61585714D01*
X118628571Y-61528571D01*
X118657142Y-61500000D01*
X118714285Y-61471428D01*
X119428571Y-61671428D02*
X119428571Y-62071428D01*
X119171428Y-61671428D02*
X119171428Y-61985714D01*
X119200000Y-62042857D01*
X119257142Y-62071428D01*
X119342857Y-62071428D01*
X119400000Y-62042857D01*
X119428571Y-62014285D01*
X119628571Y-61671428D02*
X119857142Y-61671428D01*
X119714285Y-62071428D02*
X119714285Y-61557142D01*
X119742857Y-61500000D01*
X119800000Y-61471428D01*
X119857142Y-61471428D01*
D13*
%TO.C,D4*%
X130710000Y-68920000D02*
X128690000Y-68920000D01*
X128690000Y-68920000D02*
X128690000Y-72600000D01*
X130710000Y-68920000D02*
X130710000Y-72600000D01*
%TO.C,C4*%
X119107836Y-59860000D02*
X118892164Y-59860000D01*
X119107836Y-59140000D02*
X118892164Y-59140000D01*
%TO.C,C9*%
X119107836Y-60340000D02*
X118892164Y-60340000D01*
X119107836Y-61060000D02*
X118892164Y-61060000D01*
%TD*%
M02*
