M48
; DRILL file {KiCad (6.0.0)} date Thu Jan 20 22:55:23 2022
; FORMAT={-:-/ absolute / metric / decimal}
; #@! TF.CreationDate,2022-01-20T22:55:23+08:00
; #@! TF.GenerationSoftware,Kicad,Pcbnew,(6.0.0)
; #@! TF.FileFunction,Plated,1,2,PTH
FMAT,2
METRIC
; #@! TA.AperFunction,Plated,PTH,ViaDrill
T1C0.400
; #@! TA.AperFunction,Plated,PTH,ComponentDrill
T2C0.600
; #@! TA.AperFunction,Plated,PTH,ComponentDrill
T3C1.000
%
G90
G05
T1
X98.525Y-73.575
X106.6Y-69.1
X107.6Y-54.3
X108.648Y-69.11
X109.55Y-60.1
X109.59Y-57.075
X110.642Y-69.133
X112.64Y-69.124
X116.15Y-54.65
X116.85Y-56.175
X117.35Y-54.65
X118.275Y-62.325
X119.4Y-67.2
X119.425Y-62.825
X119.45Y-64.2
X121.7Y-54.25
X123.05Y-60.76
X123.05Y-62.03
X123.1Y-54.4
X123.275Y-58.875
X125.55Y-68.275
X125.84Y-74.924
X126.526Y-67.504
X127.3Y-72.0
X127.699Y-66.492
X127.75Y-60.05
X128.2Y-58.2
X129.8Y-53.5
X130.125Y-60.025
X131.875Y-57.85
X131.95Y-62.4
X132.1Y-56.875
X134.97Y-67.03
X135.0Y-68.0
X135.175Y-56.95
X136.1Y-54.0
X137.1Y-55.5
X137.225Y-69.175
X137.25Y-65.425
T3
X94.115Y-51.95
X94.115Y-76.625
X96.655Y-51.95
X96.655Y-76.625
X99.195Y-51.95
X99.195Y-76.625
X101.735Y-51.95
X101.735Y-76.625
X104.275Y-51.95
X104.275Y-76.625
X106.815Y-51.95
X106.815Y-76.625
X109.355Y-51.95
X109.355Y-76.625
X111.895Y-51.95
X111.895Y-76.625
X114.435Y-51.95
X114.435Y-76.625
X116.975Y-51.95
X116.975Y-76.625
X119.515Y-51.95
X119.515Y-76.625
X122.055Y-51.95
X122.055Y-76.625
X124.595Y-51.95
X124.595Y-76.625
X127.135Y-51.95
X127.135Y-76.625
X129.675Y-51.95
X129.675Y-76.625
T2
G00X133.83Y-63.055
M15
G01X134.93Y-63.055
M16
G05
G00X133.83Y-71.695
M15
G01X134.93Y-71.695
M16
G05
G00X138.26Y-63.055
M15
G01X138.86Y-63.055
M16
G05
G00X138.26Y-71.695
M15
G01X138.86Y-71.695
M16
G05
T0
M30
