%TF.GenerationSoftware,KiCad,Pcbnew,(6.0.0)*%
%TF.CreationDate,2022-01-20T02:14:20+08:00*%
%TF.ProjectId,NodeMcu,4e6f6465-4d63-4752-9e6b-696361645f70,rev?*%
%TF.SameCoordinates,Original*%
%TF.FileFunction,Legend,Bot*%
%TF.FilePolarity,Positive*%
%FSLAX46Y46*%
G04 Gerber Fmt 4.6, Leading zero omitted, Abs format (unit mm)*
G04 Created by KiCad (PCBNEW (6.0.0)) date 2022-01-20 02:14:20*
%MOMM*%
%LPD*%
G01*
G04 APERTURE LIST*
%ADD10C,0.200000*%
%ADD11C,0.050000*%
G04 APERTURE END LIST*
D10*
X129200000Y-71400000D02*
X126800000Y-71400000D01*
X126800000Y-71400000D02*
X126800000Y-59800000D01*
X126800000Y-59800000D02*
X129200000Y-59800000D01*
X129200000Y-59800000D02*
X129200000Y-71400000D01*
D11*
X127436952Y-60427738D02*
X127036952Y-60427738D01*
X127436952Y-60656309D02*
X127208380Y-60484880D01*
X127036952Y-60656309D02*
X127265523Y-60427738D01*
X127417904Y-60980119D02*
X127436952Y-60942023D01*
X127436952Y-60865833D01*
X127417904Y-60827738D01*
X127379809Y-60808690D01*
X127227428Y-60808690D01*
X127189333Y-60827738D01*
X127170285Y-60865833D01*
X127170285Y-60942023D01*
X127189333Y-60980119D01*
X127227428Y-60999166D01*
X127265523Y-60999166D01*
X127303619Y-60808690D01*
X127417904Y-61322976D02*
X127436952Y-61284880D01*
X127436952Y-61208690D01*
X127417904Y-61170595D01*
X127379809Y-61151547D01*
X127227428Y-61151547D01*
X127189333Y-61170595D01*
X127170285Y-61208690D01*
X127170285Y-61284880D01*
X127189333Y-61322976D01*
X127227428Y-61342023D01*
X127265523Y-61342023D01*
X127303619Y-61151547D01*
X127170285Y-61513452D02*
X127570285Y-61513452D01*
X127189333Y-61513452D02*
X127170285Y-61551547D01*
X127170285Y-61627738D01*
X127189333Y-61665833D01*
X127208380Y-61684880D01*
X127246476Y-61703928D01*
X127360761Y-61703928D01*
X127398857Y-61684880D01*
X127417904Y-61665833D01*
X127436952Y-61627738D01*
X127436952Y-61551547D01*
X127417904Y-61513452D01*
X127436952Y-62237261D02*
X127417904Y-62199166D01*
X127398857Y-62180119D01*
X127360761Y-62161071D01*
X127246476Y-62161071D01*
X127208380Y-62180119D01*
X127189333Y-62199166D01*
X127170285Y-62237261D01*
X127170285Y-62294404D01*
X127189333Y-62332500D01*
X127208380Y-62351547D01*
X127246476Y-62370595D01*
X127360761Y-62370595D01*
X127398857Y-62351547D01*
X127417904Y-62332500D01*
X127436952Y-62294404D01*
X127436952Y-62237261D01*
X127170285Y-62542023D02*
X127436952Y-62542023D01*
X127208380Y-62542023D02*
X127189333Y-62561071D01*
X127170285Y-62599166D01*
X127170285Y-62656309D01*
X127189333Y-62694404D01*
X127227428Y-62713452D01*
X127436952Y-62713452D01*
X127170285Y-63380119D02*
X127494095Y-63380119D01*
X127532190Y-63361071D01*
X127551238Y-63342023D01*
X127570285Y-63303928D01*
X127570285Y-63246785D01*
X127551238Y-63208690D01*
X127417904Y-63380119D02*
X127436952Y-63342023D01*
X127436952Y-63265833D01*
X127417904Y-63227738D01*
X127398857Y-63208690D01*
X127360761Y-63189642D01*
X127246476Y-63189642D01*
X127208380Y-63208690D01*
X127189333Y-63227738D01*
X127170285Y-63265833D01*
X127170285Y-63342023D01*
X127189333Y-63380119D01*
X127436952Y-63627738D02*
X127417904Y-63589642D01*
X127398857Y-63570595D01*
X127360761Y-63551547D01*
X127246476Y-63551547D01*
X127208380Y-63570595D01*
X127189333Y-63589642D01*
X127170285Y-63627738D01*
X127170285Y-63684880D01*
X127189333Y-63722976D01*
X127208380Y-63742023D01*
X127246476Y-63761071D01*
X127360761Y-63761071D01*
X127398857Y-63742023D01*
X127417904Y-63722976D01*
X127436952Y-63684880D01*
X127436952Y-63627738D01*
X127436952Y-63932500D02*
X127170285Y-63932500D01*
X127036952Y-63932500D02*
X127056000Y-63913452D01*
X127075047Y-63932500D01*
X127056000Y-63951547D01*
X127036952Y-63932500D01*
X127075047Y-63932500D01*
X127170285Y-64122976D02*
X127436952Y-64122976D01*
X127208380Y-64122976D02*
X127189333Y-64142023D01*
X127170285Y-64180119D01*
X127170285Y-64237261D01*
X127189333Y-64275357D01*
X127227428Y-64294404D01*
X127436952Y-64294404D01*
X127170285Y-64656309D02*
X127494095Y-64656309D01*
X127532190Y-64637261D01*
X127551238Y-64618214D01*
X127570285Y-64580119D01*
X127570285Y-64522976D01*
X127551238Y-64484880D01*
X127417904Y-64656309D02*
X127436952Y-64618214D01*
X127436952Y-64542023D01*
X127417904Y-64503928D01*
X127398857Y-64484880D01*
X127360761Y-64465833D01*
X127246476Y-64465833D01*
X127208380Y-64484880D01*
X127189333Y-64503928D01*
X127170285Y-64542023D01*
X127170285Y-64618214D01*
X127189333Y-64656309D01*
X127170285Y-65151547D02*
X127436952Y-65151547D01*
X127208380Y-65151547D02*
X127189333Y-65170595D01*
X127170285Y-65208690D01*
X127170285Y-65265833D01*
X127189333Y-65303928D01*
X127227428Y-65322976D01*
X127436952Y-65322976D01*
X127417904Y-65665833D02*
X127436952Y-65627738D01*
X127436952Y-65551547D01*
X127417904Y-65513452D01*
X127379809Y-65494404D01*
X127227428Y-65494404D01*
X127189333Y-65513452D01*
X127170285Y-65551547D01*
X127170285Y-65627738D01*
X127189333Y-65665833D01*
X127227428Y-65684880D01*
X127265523Y-65684880D01*
X127303619Y-65494404D01*
X127170285Y-65818214D02*
X127436952Y-65913452D01*
X127170285Y-66008690D01*
X127417904Y-66313452D02*
X127436952Y-66275357D01*
X127436952Y-66199166D01*
X127417904Y-66161071D01*
X127379809Y-66142023D01*
X127227428Y-66142023D01*
X127189333Y-66161071D01*
X127170285Y-66199166D01*
X127170285Y-66275357D01*
X127189333Y-66313452D01*
X127227428Y-66332500D01*
X127265523Y-66332500D01*
X127303619Y-66142023D01*
X127436952Y-66503928D02*
X127170285Y-66503928D01*
X127246476Y-66503928D02*
X127208380Y-66522976D01*
X127189333Y-66542023D01*
X127170285Y-66580119D01*
X127170285Y-66618214D01*
X127170285Y-67227738D02*
X127494095Y-67227738D01*
X127532190Y-67208690D01*
X127551238Y-67189642D01*
X127570285Y-67151547D01*
X127570285Y-67094404D01*
X127551238Y-67056309D01*
X127417904Y-67227738D02*
X127436952Y-67189642D01*
X127436952Y-67113452D01*
X127417904Y-67075357D01*
X127398857Y-67056309D01*
X127360761Y-67037261D01*
X127246476Y-67037261D01*
X127208380Y-67056309D01*
X127189333Y-67075357D01*
X127170285Y-67113452D01*
X127170285Y-67189642D01*
X127189333Y-67227738D01*
X127436952Y-67418214D02*
X127170285Y-67418214D01*
X127036952Y-67418214D02*
X127056000Y-67399166D01*
X127075047Y-67418214D01*
X127056000Y-67437261D01*
X127036952Y-67418214D01*
X127075047Y-67418214D01*
X127170285Y-67570595D02*
X127436952Y-67665833D01*
X127170285Y-67761071D01*
X127417904Y-68065833D02*
X127436952Y-68027738D01*
X127436952Y-67951547D01*
X127417904Y-67913452D01*
X127379809Y-67894404D01*
X127227428Y-67894404D01*
X127189333Y-67913452D01*
X127170285Y-67951547D01*
X127170285Y-68027738D01*
X127189333Y-68065833D01*
X127227428Y-68084880D01*
X127265523Y-68084880D01*
X127303619Y-67894404D01*
X127170285Y-68732500D02*
X127436952Y-68732500D01*
X127170285Y-68561071D02*
X127379809Y-68561071D01*
X127417904Y-68580119D01*
X127436952Y-68618214D01*
X127436952Y-68675357D01*
X127417904Y-68713452D01*
X127398857Y-68732500D01*
X127170285Y-68922976D02*
X127570285Y-68922976D01*
X127189333Y-68922976D02*
X127170285Y-68961071D01*
X127170285Y-69037261D01*
X127189333Y-69075357D01*
X127208380Y-69094404D01*
X127246476Y-69113452D01*
X127360761Y-69113452D01*
X127398857Y-69094404D01*
X127417904Y-69075357D01*
X127436952Y-69037261D01*
X127436952Y-68961071D01*
X127417904Y-68922976D01*
X127398857Y-69284880D02*
X127417904Y-69303928D01*
X127436952Y-69284880D01*
X127417904Y-69265833D01*
X127398857Y-69284880D01*
X127436952Y-69284880D01*
X128080952Y-60427738D02*
X127680952Y-60427738D01*
X127814285Y-60561071D02*
X127814285Y-60713452D01*
X127680952Y-60618214D02*
X128023809Y-60618214D01*
X128061904Y-60637261D01*
X128080952Y-60675357D01*
X128080952Y-60713452D01*
X128080952Y-61151547D02*
X127814285Y-61151547D01*
X127680952Y-61151547D02*
X127700000Y-61132500D01*
X127719047Y-61151547D01*
X127700000Y-61170595D01*
X127680952Y-61151547D01*
X127719047Y-61151547D01*
X128061904Y-61322976D02*
X128080952Y-61361071D01*
X128080952Y-61437261D01*
X128061904Y-61475357D01*
X128023809Y-61494404D01*
X128004761Y-61494404D01*
X127966666Y-61475357D01*
X127947619Y-61437261D01*
X127947619Y-61380119D01*
X127928571Y-61342023D01*
X127890476Y-61322976D01*
X127871428Y-61322976D01*
X127833333Y-61342023D01*
X127814285Y-61380119D01*
X127814285Y-61437261D01*
X127833333Y-61475357D01*
X127814285Y-61970595D02*
X128080952Y-61970595D01*
X127852380Y-61970595D02*
X127833333Y-61989642D01*
X127814285Y-62027738D01*
X127814285Y-62084880D01*
X127833333Y-62122976D01*
X127871428Y-62142023D01*
X128080952Y-62142023D01*
X128061904Y-62484880D02*
X128080952Y-62446785D01*
X128080952Y-62370595D01*
X128061904Y-62332500D01*
X128023809Y-62313452D01*
X127871428Y-62313452D01*
X127833333Y-62332500D01*
X127814285Y-62370595D01*
X127814285Y-62446785D01*
X127833333Y-62484880D01*
X127871428Y-62503928D01*
X127909523Y-62503928D01*
X127947619Y-62313452D01*
X127814285Y-62637261D02*
X128080952Y-62732500D01*
X127814285Y-62827738D01*
X128061904Y-63132500D02*
X128080952Y-63094404D01*
X128080952Y-63018214D01*
X128061904Y-62980119D01*
X128023809Y-62961071D01*
X127871428Y-62961071D01*
X127833333Y-62980119D01*
X127814285Y-63018214D01*
X127814285Y-63094404D01*
X127833333Y-63132500D01*
X127871428Y-63151547D01*
X127909523Y-63151547D01*
X127947619Y-62961071D01*
X128080952Y-63322976D02*
X127814285Y-63322976D01*
X127890476Y-63322976D02*
X127852380Y-63342023D01*
X127833333Y-63361071D01*
X127814285Y-63399166D01*
X127814285Y-63437261D01*
X127814285Y-63818214D02*
X127814285Y-63970595D01*
X127680952Y-63875357D02*
X128023809Y-63875357D01*
X128061904Y-63894404D01*
X128080952Y-63932500D01*
X128080952Y-63970595D01*
X128080952Y-64161071D02*
X128061904Y-64122976D01*
X128042857Y-64103928D01*
X128004761Y-64084880D01*
X127890476Y-64084880D01*
X127852380Y-64103928D01*
X127833333Y-64122976D01*
X127814285Y-64161071D01*
X127814285Y-64218214D01*
X127833333Y-64256309D01*
X127852380Y-64275357D01*
X127890476Y-64294404D01*
X128004761Y-64294404D01*
X128042857Y-64275357D01*
X128061904Y-64256309D01*
X128080952Y-64218214D01*
X128080952Y-64161071D01*
X128080952Y-64522976D02*
X128061904Y-64484880D01*
X128042857Y-64465833D01*
X128004761Y-64446785D01*
X127890476Y-64446785D01*
X127852380Y-64465833D01*
X127833333Y-64484880D01*
X127814285Y-64522976D01*
X127814285Y-64580119D01*
X127833333Y-64618214D01*
X127852380Y-64637261D01*
X127890476Y-64656309D01*
X128004761Y-64656309D01*
X128042857Y-64637261D01*
X128061904Y-64618214D01*
X128080952Y-64580119D01*
X128080952Y-64522976D01*
X128080952Y-65189642D02*
X128061904Y-65151547D01*
X128023809Y-65132500D01*
X127680952Y-65132500D01*
X128080952Y-65513452D02*
X127871428Y-65513452D01*
X127833333Y-65494404D01*
X127814285Y-65456309D01*
X127814285Y-65380119D01*
X127833333Y-65342023D01*
X128061904Y-65513452D02*
X128080952Y-65475357D01*
X128080952Y-65380119D01*
X128061904Y-65342023D01*
X128023809Y-65322976D01*
X127985714Y-65322976D01*
X127947619Y-65342023D01*
X127928571Y-65380119D01*
X127928571Y-65475357D01*
X127909523Y-65513452D01*
X127814285Y-65646785D02*
X127814285Y-65799166D01*
X127680952Y-65703928D02*
X128023809Y-65703928D01*
X128061904Y-65722976D01*
X128080952Y-65761071D01*
X128080952Y-65799166D01*
X128061904Y-66084880D02*
X128080952Y-66046785D01*
X128080952Y-65970595D01*
X128061904Y-65932500D01*
X128023809Y-65913452D01*
X127871428Y-65913452D01*
X127833333Y-65932500D01*
X127814285Y-65970595D01*
X127814285Y-66046785D01*
X127833333Y-66084880D01*
X127871428Y-66103928D01*
X127909523Y-66103928D01*
X127947619Y-65913452D01*
X127814285Y-66522976D02*
X127814285Y-66675357D01*
X127680952Y-66580119D02*
X128023809Y-66580119D01*
X128061904Y-66599166D01*
X128080952Y-66637261D01*
X128080952Y-66675357D01*
X128080952Y-66865833D02*
X128061904Y-66827738D01*
X128042857Y-66808690D01*
X128004761Y-66789642D01*
X127890476Y-66789642D01*
X127852380Y-66808690D01*
X127833333Y-66827738D01*
X127814285Y-66865833D01*
X127814285Y-66922976D01*
X127833333Y-66961071D01*
X127852380Y-66980119D01*
X127890476Y-66999166D01*
X128004761Y-66999166D01*
X128042857Y-66980119D01*
X128061904Y-66961071D01*
X128080952Y-66922976D01*
X128080952Y-66865833D01*
X128080952Y-67532500D02*
X128061904Y-67494404D01*
X128023809Y-67475357D01*
X127680952Y-67475357D01*
X128061904Y-67837261D02*
X128080952Y-67799166D01*
X128080952Y-67722976D01*
X128061904Y-67684880D01*
X128023809Y-67665833D01*
X127871428Y-67665833D01*
X127833333Y-67684880D01*
X127814285Y-67722976D01*
X127814285Y-67799166D01*
X127833333Y-67837261D01*
X127871428Y-67856309D01*
X127909523Y-67856309D01*
X127947619Y-67665833D01*
X128080952Y-68199166D02*
X127871428Y-68199166D01*
X127833333Y-68180119D01*
X127814285Y-68142023D01*
X127814285Y-68065833D01*
X127833333Y-68027738D01*
X128061904Y-68199166D02*
X128080952Y-68161071D01*
X128080952Y-68065833D01*
X128061904Y-68027738D01*
X128023809Y-68008690D01*
X127985714Y-68008690D01*
X127947619Y-68027738D01*
X127928571Y-68065833D01*
X127928571Y-68161071D01*
X127909523Y-68199166D01*
X128080952Y-68389642D02*
X127814285Y-68389642D01*
X127890476Y-68389642D02*
X127852380Y-68408690D01*
X127833333Y-68427738D01*
X127814285Y-68465833D01*
X127814285Y-68503928D01*
X127814285Y-68637261D02*
X128080952Y-68637261D01*
X127852380Y-68637261D02*
X127833333Y-68656309D01*
X127814285Y-68694404D01*
X127814285Y-68751547D01*
X127833333Y-68789642D01*
X127871428Y-68808690D01*
X128080952Y-68808690D01*
X128515428Y-60427738D02*
X128515428Y-60561071D01*
X128724952Y-60618214D02*
X128724952Y-60427738D01*
X128324952Y-60427738D01*
X128324952Y-60618214D01*
X128458285Y-60751547D02*
X128724952Y-60846785D01*
X128458285Y-60942023D01*
X128705904Y-61246785D02*
X128724952Y-61208690D01*
X128724952Y-61132500D01*
X128705904Y-61094404D01*
X128667809Y-61075357D01*
X128515428Y-61075357D01*
X128477333Y-61094404D01*
X128458285Y-61132500D01*
X128458285Y-61208690D01*
X128477333Y-61246785D01*
X128515428Y-61265833D01*
X128553523Y-61265833D01*
X128591619Y-61075357D01*
X128724952Y-61437261D02*
X128458285Y-61437261D01*
X128534476Y-61437261D02*
X128496380Y-61456309D01*
X128477333Y-61475357D01*
X128458285Y-61513452D01*
X128458285Y-61551547D01*
X128458285Y-61646785D02*
X128724952Y-61742023D01*
X128458285Y-61837261D02*
X128724952Y-61742023D01*
X128820190Y-61703928D01*
X128839238Y-61684880D01*
X128858285Y-61646785D01*
X128724952Y-62294404D02*
X128458285Y-62294404D01*
X128496380Y-62294404D02*
X128477333Y-62313452D01*
X128458285Y-62351547D01*
X128458285Y-62408690D01*
X128477333Y-62446785D01*
X128515428Y-62465833D01*
X128724952Y-62465833D01*
X128515428Y-62465833D02*
X128477333Y-62484880D01*
X128458285Y-62522976D01*
X128458285Y-62580119D01*
X128477333Y-62618214D01*
X128515428Y-62637261D01*
X128724952Y-62637261D01*
X128724952Y-62999166D02*
X128515428Y-62999166D01*
X128477333Y-62980119D01*
X128458285Y-62942023D01*
X128458285Y-62865833D01*
X128477333Y-62827738D01*
X128705904Y-62999166D02*
X128724952Y-62961071D01*
X128724952Y-62865833D01*
X128705904Y-62827738D01*
X128667809Y-62808690D01*
X128629714Y-62808690D01*
X128591619Y-62827738D01*
X128572571Y-62865833D01*
X128572571Y-62961071D01*
X128553523Y-62999166D01*
X128458285Y-63189642D02*
X128724952Y-63189642D01*
X128496380Y-63189642D02*
X128477333Y-63208690D01*
X128458285Y-63246785D01*
X128458285Y-63303928D01*
X128477333Y-63342023D01*
X128515428Y-63361071D01*
X128724952Y-63361071D01*
X128724952Y-63856309D02*
X128458285Y-63856309D01*
X128324952Y-63856309D02*
X128344000Y-63837261D01*
X128363047Y-63856309D01*
X128344000Y-63875357D01*
X128324952Y-63856309D01*
X128363047Y-63856309D01*
X128705904Y-64027738D02*
X128724952Y-64065833D01*
X128724952Y-64142023D01*
X128705904Y-64180119D01*
X128667809Y-64199166D01*
X128648761Y-64199166D01*
X128610666Y-64180119D01*
X128591619Y-64142023D01*
X128591619Y-64084880D01*
X128572571Y-64046785D01*
X128534476Y-64027738D01*
X128515428Y-64027738D01*
X128477333Y-64046785D01*
X128458285Y-64084880D01*
X128458285Y-64142023D01*
X128477333Y-64180119D01*
X128724952Y-64675357D02*
X128324952Y-64675357D01*
X128724952Y-64846785D02*
X128515428Y-64846785D01*
X128477333Y-64827738D01*
X128458285Y-64789642D01*
X128458285Y-64732500D01*
X128477333Y-64694404D01*
X128496380Y-64675357D01*
X128724952Y-65037261D02*
X128458285Y-65037261D01*
X128324952Y-65037261D02*
X128344000Y-65018214D01*
X128363047Y-65037261D01*
X128344000Y-65056309D01*
X128324952Y-65037261D01*
X128363047Y-65037261D01*
X128705904Y-65208690D02*
X128724952Y-65246785D01*
X128724952Y-65322976D01*
X128705904Y-65361071D01*
X128667809Y-65380119D01*
X128648761Y-65380119D01*
X128610666Y-65361071D01*
X128591619Y-65322976D01*
X128591619Y-65265833D01*
X128572571Y-65227738D01*
X128534476Y-65208690D01*
X128515428Y-65208690D01*
X128477333Y-65227738D01*
X128458285Y-65265833D01*
X128458285Y-65322976D01*
X128477333Y-65361071D01*
X128724952Y-65913452D02*
X128705904Y-65875357D01*
X128686857Y-65856309D01*
X128648761Y-65837261D01*
X128534476Y-65837261D01*
X128496380Y-65856309D01*
X128477333Y-65875357D01*
X128458285Y-65913452D01*
X128458285Y-65970595D01*
X128477333Y-66008690D01*
X128496380Y-66027738D01*
X128534476Y-66046785D01*
X128648761Y-66046785D01*
X128686857Y-66027738D01*
X128705904Y-66008690D01*
X128724952Y-65970595D01*
X128724952Y-65913452D01*
X128458285Y-66180119D02*
X128724952Y-66256309D01*
X128534476Y-66332500D01*
X128724952Y-66408690D01*
X128458285Y-66484880D01*
X128458285Y-66637261D02*
X128724952Y-66637261D01*
X128496380Y-66637261D02*
X128477333Y-66656309D01*
X128458285Y-66694404D01*
X128458285Y-66751547D01*
X128477333Y-66789642D01*
X128515428Y-66808690D01*
X128724952Y-66808690D01*
X128458285Y-67265833D02*
X128724952Y-67342023D01*
X128534476Y-67418214D01*
X128724952Y-67494404D01*
X128458285Y-67570595D01*
X128724952Y-67780119D02*
X128705904Y-67742023D01*
X128686857Y-67722976D01*
X128648761Y-67703928D01*
X128534476Y-67703928D01*
X128496380Y-67722976D01*
X128477333Y-67742023D01*
X128458285Y-67780119D01*
X128458285Y-67837261D01*
X128477333Y-67875357D01*
X128496380Y-67894404D01*
X128534476Y-67913452D01*
X128648761Y-67913452D01*
X128686857Y-67894404D01*
X128705904Y-67875357D01*
X128724952Y-67837261D01*
X128724952Y-67780119D01*
X128724952Y-68084880D02*
X128458285Y-68084880D01*
X128534476Y-68084880D02*
X128496380Y-68103928D01*
X128477333Y-68122976D01*
X128458285Y-68161071D01*
X128458285Y-68199166D01*
X128705904Y-68313452D02*
X128724952Y-68351547D01*
X128724952Y-68427738D01*
X128705904Y-68465833D01*
X128667809Y-68484880D01*
X128648761Y-68484880D01*
X128610666Y-68465833D01*
X128591619Y-68427738D01*
X128591619Y-68370595D01*
X128572571Y-68332500D01*
X128534476Y-68313452D01*
X128515428Y-68313452D01*
X128477333Y-68332500D01*
X128458285Y-68370595D01*
X128458285Y-68427738D01*
X128477333Y-68465833D01*
X128458285Y-68599166D02*
X128458285Y-68751547D01*
X128324952Y-68656309D02*
X128667809Y-68656309D01*
X128705904Y-68675357D01*
X128724952Y-68713452D01*
X128724952Y-68751547D01*
X128705904Y-69342023D02*
X128724952Y-69303928D01*
X128724952Y-69227738D01*
X128705904Y-69189642D01*
X128667809Y-69170595D01*
X128515428Y-69170595D01*
X128477333Y-69189642D01*
X128458285Y-69227738D01*
X128458285Y-69303928D01*
X128477333Y-69342023D01*
X128515428Y-69361071D01*
X128553523Y-69361071D01*
X128591619Y-69170595D01*
X128458285Y-69532500D02*
X128724952Y-69532500D01*
X128496380Y-69532500D02*
X128477333Y-69551547D01*
X128458285Y-69589642D01*
X128458285Y-69646785D01*
X128477333Y-69684880D01*
X128515428Y-69703928D01*
X128724952Y-69703928D01*
X128705904Y-70046785D02*
X128724952Y-70008690D01*
X128724952Y-69932500D01*
X128705904Y-69894404D01*
X128667809Y-69875357D01*
X128515428Y-69875357D01*
X128477333Y-69894404D01*
X128458285Y-69932500D01*
X128458285Y-70008690D01*
X128477333Y-70046785D01*
X128515428Y-70065833D01*
X128553523Y-70065833D01*
X128591619Y-69875357D01*
X128724952Y-70237261D02*
X128458285Y-70237261D01*
X128496380Y-70237261D02*
X128477333Y-70256309D01*
X128458285Y-70294404D01*
X128458285Y-70351547D01*
X128477333Y-70389642D01*
X128515428Y-70408690D01*
X128724952Y-70408690D01*
X128515428Y-70408690D02*
X128477333Y-70427738D01*
X128458285Y-70465833D01*
X128458285Y-70522976D01*
X128477333Y-70561071D01*
X128515428Y-70580119D01*
X128724952Y-70580119D01*
X128458285Y-70732500D02*
X128724952Y-70827738D01*
X128458285Y-70922976D02*
X128724952Y-70827738D01*
X128820190Y-70789642D01*
X128839238Y-70770595D01*
X128858285Y-70732500D01*
M02*
