%TF.GenerationSoftware,KiCad,Pcbnew,(6.0.2)*%
%TF.CreationDate,2022-04-10T14:27:56+08:00*%
%TF.ProjectId,PlantCare,506c616e-7443-4617-9265-2e6b69636164,rev?*%
%TF.SameCoordinates,Original*%
%TF.FileFunction,Copper,L1,Top*%
%TF.FilePolarity,Positive*%
%FSLAX46Y46*%
G04 Gerber Fmt 4.6, Leading zero omitted, Abs format (unit mm)*
G04 Created by KiCad (PCBNEW (6.0.2)) date 2022-04-10 14:27:56*
%MOMM*%
%LPD*%
G01*
G04 APERTURE LIST*
G04 Aperture macros list*
%AMRoundRect*
0 Rectangle with rounded corners*
0 $1 Rounding radius*
0 $2 $3 $4 $5 $6 $7 $8 $9 X,Y pos of 4 corners*
0 Add a 4 corners polygon primitive as box body*
4,1,4,$2,$3,$4,$5,$6,$7,$8,$9,$2,$3,0*
0 Add four circle primitives for the rounded corners*
1,1,$1+$1,$2,$3*
1,1,$1+$1,$4,$5*
1,1,$1+$1,$6,$7*
1,1,$1+$1,$8,$9*
0 Add four rect primitives between the rounded corners*
20,1,$1+$1,$2,$3,$4,$5,0*
20,1,$1+$1,$4,$5,$6,$7,0*
20,1,$1+$1,$6,$7,$8,$9,0*
20,1,$1+$1,$8,$9,$2,$3,0*%
G04 Aperture macros list end*
%TA.AperFunction,SMDPad,CuDef*%
%ADD10R,2.000000X0.200000*%
%TD*%
%TA.AperFunction,SMDPad,CuDef*%
%ADD11RoundRect,0.135000X0.135000X0.185000X-0.135000X0.185000X-0.135000X-0.185000X0.135000X-0.185000X0*%
%TD*%
%TA.AperFunction,SMDPad,CuDef*%
%ADD12RoundRect,0.135000X-0.135000X-0.185000X0.135000X-0.185000X0.135000X0.185000X-0.135000X0.185000X0*%
%TD*%
%TA.AperFunction,ComponentPad*%
%ADD13C,0.800000*%
%TD*%
%TA.AperFunction,ComponentPad*%
%ADD14C,5.000000*%
%TD*%
%TA.AperFunction,SMDPad,CuDef*%
%ADD15RoundRect,0.135000X0.185000X-0.135000X0.185000X0.135000X-0.185000X0.135000X-0.185000X-0.135000X0*%
%TD*%
%TA.AperFunction,ComponentPad*%
%ADD16C,2.000000*%
%TD*%
%TA.AperFunction,SMDPad,CuDef*%
%ADD17R,1.500000X2.000000*%
%TD*%
%TA.AperFunction,SMDPad,CuDef*%
%ADD18R,3.800000X2.000000*%
%TD*%
%TA.AperFunction,SMDPad,CuDef*%
%ADD19R,1.220000X0.650000*%
%TD*%
%TA.AperFunction,SMDPad,CuDef*%
%ADD20R,1.000000X2.500000*%
%TD*%
%TA.AperFunction,SMDPad,CuDef*%
%ADD21R,1.800000X1.000000*%
%TD*%
%TA.AperFunction,SMDPad,CuDef*%
%ADD22RoundRect,0.147500X-0.147500X-0.172500X0.147500X-0.172500X0.147500X0.172500X-0.147500X0.172500X0*%
%TD*%
%TA.AperFunction,SMDPad,CuDef*%
%ADD23RoundRect,0.140000X-0.140000X-0.170000X0.140000X-0.170000X0.140000X0.170000X-0.140000X0.170000X0*%
%TD*%
%TA.AperFunction,SMDPad,CuDef*%
%ADD24R,2.600000X1.800000*%
%TD*%
%TA.AperFunction,ComponentPad*%
%ADD25R,1.350000X1.350000*%
%TD*%
%TA.AperFunction,ComponentPad*%
%ADD26O,1.350000X1.350000*%
%TD*%
%TA.AperFunction,SMDPad,CuDef*%
%ADD27RoundRect,0.140000X0.140000X0.170000X-0.140000X0.170000X-0.140000X-0.170000X0.140000X-0.170000X0*%
%TD*%
%TA.AperFunction,SMDPad,CuDef*%
%ADD28RoundRect,0.140000X-0.170000X0.140000X-0.170000X-0.140000X0.170000X-0.140000X0.170000X0.140000X0*%
%TD*%
%TA.AperFunction,SMDPad,CuDef*%
%ADD29RoundRect,0.150000X-0.587500X-0.150000X0.587500X-0.150000X0.587500X0.150000X-0.587500X0.150000X0*%
%TD*%
%TA.AperFunction,SMDPad,CuDef*%
%ADD30R,1.000000X0.800000*%
%TD*%
%TA.AperFunction,SMDPad,CuDef*%
%ADD31R,0.700000X1.500000*%
%TD*%
%TA.AperFunction,ViaPad*%
%ADD32C,0.450000*%
%TD*%
%TA.AperFunction,Conductor*%
%ADD33C,0.700000*%
%TD*%
%TA.AperFunction,Conductor*%
%ADD34C,0.400000*%
%TD*%
%TA.AperFunction,Conductor*%
%ADD35C,0.200000*%
%TD*%
G04 APERTURE END LIST*
D10*
%TO.P,J1,13,GND*%
%TO.N,GND*%
X101542500Y-85162500D03*
%TO.P,J1,12,LEDA*%
%TO.N,+3V3*%
X101542500Y-85862500D03*
%TO.P,J1,11,LEDK*%
%TO.N,Net-(J1-Pad11)*%
X101542500Y-86562500D03*
%TO.P,J1,10,VCC*%
%TO.N,+3V3*%
X101542500Y-87262500D03*
%TO.P,J1,9,NC*%
%TO.N,unconnected-(J1-Pad9)*%
X101542500Y-87962500D03*
%TO.P,J1,8,GND*%
%TO.N,GND*%
X101542500Y-88662500D03*
%TO.P,J1,7,CS*%
X101542500Y-89362500D03*
%TO.P,J1,6,RES*%
%TO.N,/GPIO2*%
X101542500Y-90062500D03*
%TO.P,J1,5,RS*%
%TO.N,/GPIO0*%
X101542500Y-90762500D03*
%TO.P,J1,4,SCL*%
%TO.N,/GPIO14*%
X101542500Y-91462500D03*
%TO.P,J1,3,SDA*%
%TO.N,/GPIO13*%
X101542500Y-92162500D03*
%TO.P,J1,2,TP1*%
%TO.N,unconnected-(J1-Pad2)*%
X101542500Y-92862500D03*
%TO.P,J1,1,TP0*%
%TO.N,unconnected-(J1-Pad1)*%
X101542500Y-93562500D03*
%TD*%
D11*
%TO.P,R15,1*%
%TO.N,/POWER/ADC*%
X107910000Y-108400000D03*
%TO.P,R15,2*%
%TO.N,Net-(C11-Pad1)*%
X106890000Y-108400000D03*
%TD*%
D12*
%TO.P,R14,1*%
%TO.N,GND*%
X106890000Y-110000000D03*
%TO.P,R14,2*%
%TO.N,/POWER/ADC*%
X107910000Y-110000000D03*
%TD*%
D13*
%TO.P,H2,1*%
%TO.N,N/C*%
X138674175Y-126325825D03*
X141875000Y-125000000D03*
X138125000Y-125000000D03*
X140000000Y-123125000D03*
X140000000Y-126875000D03*
D14*
X140000000Y-125000000D03*
D13*
X141325825Y-123674175D03*
X138674175Y-123674175D03*
X141325825Y-126325825D03*
%TD*%
D15*
%TO.P,R4,1*%
%TO.N,/EN*%
X122800000Y-97210000D03*
%TO.P,R4,2*%
%TO.N,+3V3*%
X122800000Y-96190000D03*
%TD*%
D16*
%TO.P,J3,1,Pin_1*%
%TO.N,/control1*%
X73100000Y-85900000D03*
X78100000Y-85900000D03*
%TO.P,J3,2,Pin_2*%
%TO.N,+BATT*%
X73100000Y-90900000D03*
X78100000Y-90900000D03*
%TD*%
D12*
%TO.P,R11,1*%
%TO.N,+BATT*%
X82240000Y-108250000D03*
%TO.P,R11,2*%
%TO.N,Net-(D2-Pad2)*%
X83260000Y-108250000D03*
%TD*%
D17*
%TO.P,U1,1,GND*%
%TO.N,GND*%
X99000000Y-105865000D03*
D18*
%TO.P,U1,2,VO*%
%TO.N,+3V3*%
X101300000Y-99565000D03*
D17*
X101300000Y-105865000D03*
%TO.P,U1,3,VI*%
%TO.N,Net-(C11-Pad1)*%
X103600000Y-105865000D03*
%TD*%
D19*
%TO.P,Q4,1,G*%
%TO.N,/GPIO4*%
X84910000Y-112950000D03*
%TO.P,Q4,2,S*%
%TO.N,GND*%
X84910000Y-111050000D03*
%TO.P,Q4,3,D*%
%TO.N,/control*%
X82290000Y-112000000D03*
%TD*%
D20*
%TO.P,U2,1,~{RST}*%
%TO.N,/nRST*%
X126400000Y-99400000D03*
%TO.P,U2,2,ADC*%
%TO.N,/ADC*%
X124400000Y-99400000D03*
%TO.P,U2,3,EN*%
%TO.N,/EN*%
X122400000Y-99400000D03*
%TO.P,U2,4,GPIO16*%
%TO.N,/GPIO16*%
X120400000Y-99400000D03*
%TO.P,U2,5,GPIO14*%
%TO.N,/GPIO14*%
X118400000Y-99400000D03*
%TO.P,U2,6,GPIO12*%
%TO.N,/GPIO12*%
X116400000Y-99400000D03*
%TO.P,U2,7,GPIO13*%
%TO.N,/GPIO13*%
X114400000Y-99400000D03*
%TO.P,U2,8,VCC*%
%TO.N,+3V3*%
X112400000Y-99400000D03*
D21*
%TO.P,U2,9,CS0*%
%TO.N,unconnected-(U2-Pad9)*%
X110900000Y-102000000D03*
%TO.P,U2,10,MISO*%
%TO.N,unconnected-(U2-Pad10)*%
X110900000Y-104000000D03*
%TO.P,U2,11,GPIO9*%
%TO.N,unconnected-(U2-Pad11)*%
X110900000Y-106000000D03*
%TO.P,U2,12,GPIO10*%
%TO.N,unconnected-(U2-Pad12)*%
X110900000Y-108000000D03*
%TO.P,U2,13,MOSI*%
%TO.N,unconnected-(U2-Pad13)*%
X110900000Y-110000000D03*
%TO.P,U2,14,SCLK*%
%TO.N,unconnected-(U2-Pad14)*%
X110900000Y-112000000D03*
D20*
%TO.P,U2,15,GND*%
%TO.N,GND*%
X112400000Y-114600000D03*
%TO.P,U2,16,GPIO15*%
%TO.N,/GPIO15*%
X114400000Y-114600000D03*
%TO.P,U2,17,GPIO2*%
%TO.N,/GPIO2*%
X116400000Y-114600000D03*
%TO.P,U2,18,GPIO0*%
%TO.N,/GPIO0*%
X118400000Y-114600000D03*
%TO.P,U2,19,GPIO4*%
%TO.N,/GPIO4*%
X120400000Y-114600000D03*
%TO.P,U2,20,GPIO5*%
%TO.N,/GPIO5*%
X122400000Y-114600000D03*
%TO.P,U2,21,GPIO3/RXD*%
%TO.N,/RXD*%
X124400000Y-114600000D03*
%TO.P,U2,22,GPIO1/TXD*%
%TO.N,/TXD*%
X126400000Y-114600000D03*
%TD*%
D22*
%TO.P,D3,1,K*%
%TO.N,/control1*%
X82315000Y-90800000D03*
%TO.P,D3,2,A*%
%TO.N,Net-(D3-Pad2)*%
X83285000Y-90800000D03*
%TD*%
%TO.P,D2,1,K*%
%TO.N,/control*%
X82290000Y-109575000D03*
%TO.P,D2,2,A*%
%TO.N,Net-(D2-Pad2)*%
X83260000Y-109575000D03*
%TD*%
D16*
%TO.P,J5,1,Pin_1*%
%TO.N,/control*%
X78100000Y-109300000D03*
X73100000Y-109300000D03*
%TO.P,J5,2,Pin_2*%
%TO.N,+BATT*%
X78100000Y-114300000D03*
X73100000Y-114300000D03*
%TD*%
%TO.P,J4,1,Pin_1*%
%TO.N,+BATT*%
X78100000Y-102600000D03*
X73100000Y-102600000D03*
%TO.P,J4,2,Pin_2*%
%TO.N,GND*%
X78100000Y-97600000D03*
X73100000Y-97600000D03*
%TD*%
D11*
%TO.P,R1,1*%
%TO.N,/GPIO0*%
X107910000Y-111600000D03*
%TO.P,R1,2*%
%TO.N,+3V3*%
X106890000Y-111600000D03*
%TD*%
D23*
%TO.P,C10,1*%
%TO.N,+3V3*%
X93320000Y-108000000D03*
%TO.P,C10,2*%
%TO.N,GND*%
X94280000Y-108000000D03*
%TD*%
%TO.P,C8,1*%
%TO.N,+3V3*%
X86020000Y-108000000D03*
%TO.P,C8,2*%
%TO.N,GND*%
X86980000Y-108000000D03*
%TD*%
D11*
%TO.P,R3,1*%
%TO.N,/GPIO2*%
X107910000Y-113200000D03*
%TO.P,R3,2*%
%TO.N,+3V3*%
X106890000Y-113200000D03*
%TD*%
D24*
%TO.P,C1,1*%
%TO.N,+3V3*%
X107400000Y-100900000D03*
%TO.P,C1,2*%
%TO.N,GND*%
X107400000Y-103900000D03*
%TD*%
D19*
%TO.P,Q2,1,G*%
%TO.N,/GPIO12*%
X84910000Y-89350000D03*
%TO.P,Q2,2,S*%
%TO.N,GND*%
X84910000Y-87450000D03*
%TO.P,Q2,3,D*%
%TO.N,/control1*%
X82290000Y-88400000D03*
%TD*%
D25*
%TO.P,J2,1,GND*%
%TO.N,GND*%
X116600000Y-118200000D03*
D26*
%TO.P,J2,2,GPIO0*%
%TO.N,/GPIO0*%
X118600000Y-118200000D03*
%TO.P,J2,3,RXD*%
%TO.N,/RXD*%
X120600000Y-118200000D03*
%TO.P,J2,4,TXD*%
%TO.N,/TXD*%
X122600000Y-118200000D03*
%TO.P,J2,5,RST*%
%TO.N,/EN*%
X124600000Y-118200000D03*
%TD*%
D23*
%TO.P,C2,1*%
%TO.N,+3V3*%
X101120000Y-108000000D03*
%TO.P,C2,2*%
%TO.N,GND*%
X102080000Y-108000000D03*
%TD*%
D27*
%TO.P,C9,1*%
%TO.N,Net-(C11-Pad1)*%
X88980000Y-108000000D03*
%TO.P,C9,2*%
%TO.N,GND*%
X88020000Y-108000000D03*
%TD*%
D13*
%TO.P,H4,1*%
%TO.N,N/C*%
X141875000Y-75000000D03*
X138674175Y-73674175D03*
X141325825Y-76325825D03*
X138125000Y-75000000D03*
X140000000Y-76875000D03*
X140000000Y-73125000D03*
D14*
X140000000Y-75000000D03*
D13*
X138674175Y-76325825D03*
X141325825Y-73674175D03*
%TD*%
D12*
%TO.P,R12,1*%
%TO.N,+BATT*%
X82290000Y-92000000D03*
%TO.P,R12,2*%
%TO.N,Net-(D3-Pad2)*%
X83310000Y-92000000D03*
%TD*%
D11*
%TO.P,R9,1*%
%TO.N,/GPIO15*%
X107910000Y-114800000D03*
%TO.P,R9,2*%
%TO.N,GND*%
X106890000Y-114800000D03*
%TD*%
D28*
%TO.P,C4,1*%
%TO.N,GND*%
X124300000Y-96220000D03*
%TO.P,C4,2*%
%TO.N,/nRST*%
X124300000Y-97180000D03*
%TD*%
D11*
%TO.P,R10,2*%
%TO.N,Net-(Q1-Pad1)*%
X122690000Y-90800000D03*
%TO.P,R10,1*%
%TO.N,/GPIO5*%
X123710000Y-90800000D03*
%TD*%
D29*
%TO.P,Q1,3,C*%
%TO.N,Net-(J1-Pad11)*%
X123137500Y-88400000D03*
%TO.P,Q1,2,E*%
%TO.N,GND*%
X121262500Y-89350000D03*
%TO.P,Q1,1,B*%
%TO.N,Net-(Q1-Pad1)*%
X121262500Y-87450000D03*
%TD*%
D27*
%TO.P,C11,1*%
%TO.N,Net-(C11-Pad1)*%
X96280000Y-108000000D03*
%TO.P,C11,2*%
%TO.N,GND*%
X95320000Y-108000000D03*
%TD*%
D12*
%TO.P,R13,2*%
%TO.N,Net-(Q1-Pad1)*%
X121710000Y-90800000D03*
%TO.P,R13,1*%
%TO.N,+3V3*%
X120690000Y-90800000D03*
%TD*%
D17*
%TO.P,U4,1,GND*%
%TO.N,GND*%
X84000000Y-105865000D03*
D18*
%TO.P,U4,2,VO*%
%TO.N,+3V3*%
X86300000Y-99565000D03*
D17*
X86300000Y-105865000D03*
%TO.P,U4,3,VI*%
%TO.N,Net-(C11-Pad1)*%
X88600000Y-105865000D03*
%TD*%
D15*
%TO.P,R8,1*%
%TO.N,/nRST*%
X125800000Y-97210000D03*
%TO.P,R8,2*%
%TO.N,+3V3*%
X125800000Y-96190000D03*
%TD*%
D30*
%TO.P,SW1,*%
%TO.N,*%
X99650000Y-116745000D03*
X92350000Y-118955000D03*
X99650000Y-118955000D03*
X92350000Y-116745000D03*
D31*
%TO.P,SW1,1,A*%
%TO.N,+BATT*%
X93750000Y-116095000D03*
%TO.P,SW1,2,B*%
%TO.N,Net-(C11-Pad1)*%
X96750000Y-116095000D03*
%TO.P,SW1,3,C*%
%TO.N,unconnected-(SW1-Pad3)*%
X98250000Y-116095000D03*
%TD*%
D27*
%TO.P,C3,1*%
%TO.N,Net-(C11-Pad1)*%
X104080000Y-108000000D03*
%TO.P,C3,2*%
%TO.N,GND*%
X103120000Y-108000000D03*
%TD*%
D13*
%TO.P,H1,1*%
%TO.N,N/C*%
X66325825Y-76325825D03*
X63674175Y-73674175D03*
X63674175Y-76325825D03*
X66325825Y-73674175D03*
X66875000Y-75000000D03*
X65000000Y-76875000D03*
D14*
X65000000Y-75000000D03*
D13*
X65000000Y-73125000D03*
X63125000Y-75000000D03*
%TD*%
D17*
%TO.P,U5,3,VI*%
%TO.N,Net-(C11-Pad1)*%
X96100000Y-105865000D03*
%TO.P,U5,2,VO*%
%TO.N,+3V3*%
X93800000Y-105865000D03*
D18*
X93800000Y-99565000D03*
D17*
%TO.P,U5,1,GND*%
%TO.N,GND*%
X91500000Y-105865000D03*
%TD*%
D13*
%TO.P,H3,1*%
%TO.N,N/C*%
X63674175Y-123674175D03*
D14*
X65000000Y-125000000D03*
D13*
X66325825Y-126325825D03*
X65000000Y-123125000D03*
X63674175Y-126325825D03*
X63125000Y-125000000D03*
X66875000Y-125000000D03*
X65000000Y-126875000D03*
X66325825Y-123674175D03*
%TD*%
D32*
%TO.N,Net-(C11-Pad1)*%
X96100000Y-105200000D03*
X88600000Y-105200000D03*
X103600000Y-105200000D03*
%TO.N,+BATT*%
X93800000Y-116700000D03*
X93800000Y-115500000D03*
%TO.N,+3V3*%
X101300000Y-105100000D03*
X93800000Y-105100000D03*
X93800000Y-105865000D03*
%TO.N,Net-(C11-Pad1)*%
X96750000Y-116095000D03*
X96750000Y-115200000D03*
X96750000Y-114350000D03*
X96750000Y-113490149D03*
%TO.N,GND*%
X133100000Y-91400000D03*
X133100000Y-86000000D03*
X121300000Y-89300000D03*
%TO.N,+3V3*%
X120690742Y-90817346D03*
X112400000Y-99400000D03*
X106599008Y-100892949D03*
X108100000Y-100900000D03*
X107400000Y-100900000D03*
%TO.N,+BATT*%
X82225000Y-108250000D03*
%TO.N,/GPIO2*%
X103425000Y-90075000D03*
X107910000Y-113200000D03*
%TO.N,+3V3*%
X104175000Y-85875000D03*
%TO.N,Net-(R5-Pad2)*%
X121350000Y-94825000D03*
X124450000Y-91700000D03*
X120000000Y-96190000D03*
X128925000Y-91400000D03*
%TO.N,/GPIO0*%
X106925000Y-90750000D03*
%TO.N,GND*%
X91575000Y-105100000D03*
X91600000Y-106600000D03*
X99075000Y-106475000D03*
X99075000Y-105225000D03*
X108250000Y-103900000D03*
X106675000Y-103900000D03*
X107425000Y-103900000D03*
X99075000Y-105850000D03*
X91600000Y-105800000D03*
X99200000Y-86100000D03*
X99200000Y-87500000D03*
%TO.N,/GPIO12*%
X116400000Y-99400000D03*
X110700000Y-96600000D03*
%TO.N,+3V3*%
X117700000Y-96200000D03*
%TO.N,/GPIO16*%
X120400000Y-99400000D03*
%TO.N,GND*%
X124300000Y-96200000D03*
%TO.N,+3V3*%
X125800000Y-96200000D03*
X122800000Y-96200000D03*
%TO.N,GND*%
X109500000Y-114600000D03*
X110300000Y-114600000D03*
X111200000Y-114600000D03*
X112400000Y-114600000D03*
%TO.N,/nRST*%
X126400000Y-99400000D03*
%TO.N,/EN*%
X122400000Y-99400000D03*
%TO.N,/GPIO0*%
X118400000Y-114700000D03*
%TO.N,GND*%
X106800000Y-110000000D03*
%TO.N,+BATT*%
X82300000Y-92100000D03*
%TO.N,GND*%
X102700000Y-108000000D03*
%TO.N,+3V3*%
X101300000Y-99565000D03*
X101300000Y-105865000D03*
X93800000Y-99565000D03*
%TO.N,Net-(C11-Pad1)*%
X104080000Y-108000000D03*
X96300000Y-108000000D03*
X88980000Y-108000000D03*
X88600000Y-105865000D03*
X103600000Y-105900000D03*
X96100000Y-105900000D03*
%TO.N,+BATT*%
X93800000Y-116100000D03*
%TD*%
D33*
%TO.N,+3V3*%
X93320000Y-106345000D02*
X93800000Y-105865000D01*
X93320000Y-108000000D02*
X93320000Y-106345000D01*
D34*
X93320000Y-106280000D02*
X93800000Y-105800000D01*
D35*
%TO.N,/GPIO4*%
X99600000Y-112200000D02*
X91800000Y-112200000D01*
X119200978Y-116549022D02*
X103949022Y-116549022D01*
X120400000Y-115350000D02*
X119200978Y-116549022D01*
X103949022Y-116549022D02*
X99600000Y-112200000D01*
X91800000Y-112200000D02*
X91050000Y-112950000D01*
X120400000Y-114600000D02*
X120400000Y-115350000D01*
X91050000Y-112950000D02*
X84910000Y-112950000D01*
D33*
%TO.N,Net-(C11-Pad1)*%
X96750000Y-113490149D02*
X96750000Y-116095000D01*
%TO.N,GND*%
X121262500Y-89337500D02*
X121300000Y-89300000D01*
X121262500Y-89350000D02*
X121262500Y-89337500D01*
D35*
%TO.N,Net-(Q1-Pad1)*%
X123560717Y-87450000D02*
X121262500Y-87450000D01*
X124200000Y-88089283D02*
X123560717Y-87450000D01*
X124200000Y-89290000D02*
X124200000Y-88089283D01*
X122690000Y-90800000D02*
X124200000Y-89290000D01*
D33*
%TO.N,+3V3*%
X120690000Y-90816604D02*
X120690742Y-90817346D01*
X120690000Y-90800000D02*
X120690000Y-90816604D01*
X106606059Y-100900000D02*
X106599008Y-100892949D01*
X107400000Y-100900000D02*
X106606059Y-100900000D01*
X108100000Y-100900000D02*
X110900000Y-100900000D01*
X107400000Y-100900000D02*
X108100000Y-100900000D01*
%TO.N,/control*%
X82290000Y-112000000D02*
X82290000Y-109575000D01*
D35*
%TO.N,Net-(D2-Pad2)*%
X83260000Y-108250000D02*
X83260000Y-109575000D01*
%TO.N,/GPIO0*%
X106912500Y-90762500D02*
X106925000Y-90750000D01*
X101542500Y-90762500D02*
X106912500Y-90762500D01*
%TO.N,/GPIO2*%
X103425000Y-90075000D02*
X101555000Y-90075000D01*
X101555000Y-90075000D02*
X101542500Y-90062500D01*
%TO.N,+3V3*%
X101542500Y-85862500D02*
X104162500Y-85862500D01*
X104162500Y-85862500D02*
X104175000Y-85875000D01*
X100543478Y-87262500D02*
X101542500Y-87262500D01*
X100642500Y-85862500D02*
X100100000Y-86405000D01*
X100100000Y-86405000D02*
X100100000Y-86819022D01*
X101542500Y-85862500D02*
X100642500Y-85862500D01*
X100100000Y-86819022D02*
X100543478Y-87262500D01*
%TO.N,Net-(R5-Pad2)*%
X128925000Y-91400000D02*
X124750000Y-91400000D01*
X124750000Y-91400000D02*
X124450000Y-91700000D01*
X121350000Y-94840000D02*
X121350000Y-94825000D01*
X120000000Y-96190000D02*
X121350000Y-94840000D01*
%TO.N,GND*%
X107400000Y-103900000D02*
X107425000Y-103900000D01*
X99060000Y-105865000D02*
X99075000Y-105850000D01*
X99000000Y-105865000D02*
X99060000Y-105865000D01*
X91535000Y-105865000D02*
X91600000Y-105800000D01*
X91500000Y-105865000D02*
X91535000Y-105865000D01*
X100137500Y-85162500D02*
X99200000Y-86100000D01*
X101542500Y-85162500D02*
X100137500Y-85162500D01*
X99200000Y-87500000D02*
X99200000Y-86100000D01*
X101542500Y-88662500D02*
X100362500Y-88662500D01*
X100362500Y-88662500D02*
X99200000Y-87500000D01*
%TO.N,Net-(J1-Pad11)*%
X104280000Y-88400000D02*
X123137500Y-88400000D01*
X102442500Y-86562500D02*
X104280000Y-88400000D01*
X101542500Y-86562500D02*
X102442500Y-86562500D01*
%TO.N,GND*%
X101542500Y-89362500D02*
X101542500Y-88662500D01*
%TO.N,/GPIO12*%
X84910000Y-89350000D02*
X92160000Y-96600000D01*
X92160000Y-96600000D02*
X110700000Y-96600000D01*
%TO.N,/GPIO14*%
X111212500Y-91462500D02*
X101542500Y-91462500D01*
X118400000Y-98650000D02*
X111212500Y-91462500D01*
X118400000Y-99400000D02*
X118400000Y-98650000D01*
%TO.N,/GPIO13*%
X107912500Y-92162500D02*
X101542500Y-92162500D01*
X114400000Y-98650000D02*
X107912500Y-92162500D01*
X114400000Y-99400000D02*
X114400000Y-98650000D01*
%TO.N,GND*%
X124300000Y-96220000D02*
X124300000Y-96200000D01*
%TO.N,+3V3*%
X125800000Y-96190000D02*
X125800000Y-96200000D01*
X122800000Y-96190000D02*
X122800000Y-96200000D01*
%TO.N,/EN*%
X122400000Y-97610000D02*
X122800000Y-97210000D01*
X122400000Y-99400000D02*
X122400000Y-97610000D01*
%TO.N,/nRST*%
X125770000Y-97180000D02*
X125800000Y-97210000D01*
X124300000Y-97180000D02*
X125770000Y-97180000D01*
X126400000Y-97810000D02*
X125800000Y-97210000D01*
X126400000Y-99400000D02*
X126400000Y-97810000D01*
%TO.N,/GPIO5*%
X122400000Y-110400000D02*
X122400000Y-114600000D01*
X123710000Y-90800000D02*
X123600489Y-90909511D01*
X123600489Y-90909511D02*
X123600489Y-109199511D01*
X123600489Y-109199511D02*
X122400000Y-110400000D01*
%TO.N,Net-(Q1-Pad1)*%
X121710000Y-90800000D02*
X122690000Y-90800000D01*
%TO.N,/TXD*%
X126400000Y-114949022D02*
X126400000Y-114600000D01*
X122600000Y-118200000D02*
X123149022Y-118200000D01*
X123149022Y-118200000D02*
X126400000Y-114949022D01*
%TO.N,/RXD*%
X124400000Y-114899511D02*
X124400000Y-114600000D01*
X121099511Y-118200000D02*
X124400000Y-114899511D01*
X120600000Y-118200000D02*
X121099511Y-118200000D01*
%TO.N,/GPIO0*%
X118400000Y-114600000D02*
X118400000Y-114700000D01*
%TO.N,/GPIO15*%
X114400000Y-115350000D02*
X114400000Y-114600000D01*
X113600489Y-116149511D02*
X114400000Y-115350000D01*
X107910000Y-114800000D02*
X109259511Y-116149511D01*
X109259511Y-116149511D02*
X113600489Y-116149511D01*
%TO.N,/GPIO0*%
X118400000Y-113850000D02*
X118400000Y-114600000D01*
X115750489Y-111200489D02*
X118400000Y-113850000D01*
X108309511Y-111200489D02*
X115750489Y-111200489D01*
X107910000Y-111600000D02*
X108309511Y-111200489D01*
%TO.N,/GPIO2*%
X116400000Y-113850000D02*
X116400000Y-114600000D01*
X115600489Y-113050489D02*
X116400000Y-113850000D01*
X108059511Y-113050489D02*
X115600489Y-113050489D01*
X107910000Y-113200000D02*
X108059511Y-113050489D01*
D33*
%TO.N,GND*%
X106890000Y-110000000D02*
X106800000Y-110000000D01*
%TO.N,/control1*%
X82315000Y-88425000D02*
X82290000Y-88400000D01*
X82315000Y-90800000D02*
X82315000Y-88425000D01*
D35*
%TO.N,Net-(D3-Pad2)*%
X83310000Y-90825000D02*
X83285000Y-90800000D01*
X83310000Y-92000000D02*
X83310000Y-90825000D01*
D33*
%TO.N,+BATT*%
X82290000Y-92000000D02*
X82290000Y-92090000D01*
X82290000Y-92090000D02*
X82300000Y-92100000D01*
%TO.N,GND*%
X102080000Y-108000000D02*
X102700000Y-108000000D01*
X103120000Y-108000000D02*
X102700000Y-108000000D01*
%TO.N,+3V3*%
X110900000Y-100900000D02*
X112400000Y-99400000D01*
X106065000Y-99565000D02*
X107400000Y-100900000D01*
X101300000Y-99565000D02*
X106065000Y-99565000D01*
X93800000Y-99565000D02*
X101300000Y-99565000D01*
X86300000Y-99565000D02*
X93800000Y-99565000D01*
X86300000Y-105865000D02*
X86300000Y-99565000D01*
%TO.N,Net-(C11-Pad1)*%
X96280000Y-108000000D02*
X96300000Y-108000000D01*
D34*
%TO.N,+3V3*%
X101120000Y-108112996D02*
X104607004Y-111600000D01*
X101120000Y-108000000D02*
X101120000Y-108112996D01*
X104607004Y-111600000D02*
X106890000Y-111600000D01*
X106890000Y-113200000D02*
X106890000Y-111600000D01*
D35*
%TO.N,/POWER/ADC*%
X107910000Y-110000000D02*
X107910000Y-108400000D01*
D33*
%TO.N,Net-(C11-Pad1)*%
X104480000Y-108400000D02*
X104080000Y-108000000D01*
X106890000Y-108400000D02*
X104480000Y-108400000D01*
D34*
%TO.N,+3V3*%
X101120000Y-106045000D02*
X101300000Y-105865000D01*
X101120000Y-108000000D02*
X101120000Y-106045000D01*
X86020000Y-108000000D02*
X86020000Y-106145000D01*
D33*
%TO.N,Net-(C11-Pad1)*%
X88980000Y-106245000D02*
X88600000Y-105865000D01*
X88980000Y-108000000D02*
X88980000Y-106245000D01*
X104080000Y-106345000D02*
X103600000Y-105865000D01*
X104080000Y-108000000D02*
X104080000Y-106345000D01*
X96280000Y-106045000D02*
X96100000Y-105865000D01*
X96280000Y-108000000D02*
X96280000Y-106045000D01*
X98165000Y-103800000D02*
X96100000Y-105865000D01*
X101785000Y-103800000D02*
X98165000Y-103800000D01*
X103600000Y-105615000D02*
X101785000Y-103800000D01*
X103600000Y-105865000D02*
X103600000Y-105615000D01*
X94784022Y-104000000D02*
X90465000Y-104000000D01*
X96100000Y-105315978D02*
X94784022Y-104000000D01*
X96100000Y-105865000D02*
X96100000Y-105315978D01*
X90465000Y-104000000D02*
X88600000Y-105865000D01*
X103600000Y-105865000D02*
X103600000Y-105900000D01*
X96100000Y-105865000D02*
X96100000Y-105900000D01*
%TO.N,+BATT*%
X93750000Y-116095000D02*
X93795000Y-116095000D01*
X93795000Y-116095000D02*
X93800000Y-116100000D01*
%TO.N,/control1*%
X80600000Y-88400000D02*
X78100000Y-85900000D01*
X82290000Y-88400000D02*
X80600000Y-88400000D01*
X73100000Y-85900000D02*
X78100000Y-85900000D01*
%TO.N,/control*%
X80800000Y-112000000D02*
X78100000Y-109300000D01*
X82290000Y-112000000D02*
X80800000Y-112000000D01*
X73100000Y-109300000D02*
X78100000Y-109300000D01*
%TD*%
%TA.AperFunction,Conductor*%
%TO.N,GND*%
G36*
X134542121Y-80820002D02*
G01*
X134588614Y-80873658D01*
X134600000Y-80926000D01*
X134600000Y-94442360D01*
X134596743Y-94470824D01*
X134510750Y-94841649D01*
X134504651Y-94867948D01*
X134502805Y-94874708D01*
X134501497Y-94877961D01*
X134500397Y-94882705D01*
X134499762Y-94885440D01*
X134499761Y-94885447D01*
X134498664Y-94890177D01*
X134498308Y-94895023D01*
X134498307Y-94895027D01*
X134495213Y-94937104D01*
X134494053Y-94947237D01*
X134492000Y-94960423D01*
X134492000Y-94976156D01*
X134491661Y-94985398D01*
X134487991Y-95035300D01*
X134489871Y-95044076D01*
X134490489Y-95053030D01*
X134490482Y-95053030D01*
X134492000Y-95067355D01*
X134492000Y-97474000D01*
X134471998Y-97542121D01*
X134418342Y-97588614D01*
X134366000Y-97600000D01*
X127600000Y-97600000D01*
X127600000Y-97873477D01*
X127579998Y-97941598D01*
X127526342Y-97988091D01*
X127456068Y-97998195D01*
X127391488Y-97968701D01*
X127356018Y-97917708D01*
X127353766Y-97911701D01*
X127350615Y-97903295D01*
X127263261Y-97786739D01*
X127146705Y-97699385D01*
X127138296Y-97696233D01*
X127138295Y-97696232D01*
X127039445Y-97659175D01*
X126982680Y-97616534D01*
X126967265Y-97589411D01*
X126959275Y-97570121D01*
X126931524Y-97503124D01*
X126858477Y-97407928D01*
X126858474Y-97407925D01*
X126833987Y-97376013D01*
X126823937Y-97368301D01*
X126808621Y-97356548D01*
X126796230Y-97345681D01*
X126665404Y-97214855D01*
X126631378Y-97152543D01*
X126628499Y-97125760D01*
X126628499Y-97010012D01*
X126625629Y-96973534D01*
X126580269Y-96817404D01*
X126576233Y-96810579D01*
X126576231Y-96810575D01*
X126548769Y-96764139D01*
X126531309Y-96695323D01*
X126548769Y-96635861D01*
X126576231Y-96589425D01*
X126576233Y-96589421D01*
X126580269Y-96582596D01*
X126625629Y-96426466D01*
X126626135Y-96420047D01*
X126628307Y-96392444D01*
X126628307Y-96392438D01*
X126628500Y-96389989D01*
X126628499Y-95990012D01*
X126625629Y-95953534D01*
X126580269Y-95797404D01*
X126542461Y-95733473D01*
X126501540Y-95664280D01*
X126497506Y-95657459D01*
X126382541Y-95542494D01*
X126354315Y-95525801D01*
X126249419Y-95463766D01*
X126249418Y-95463766D01*
X126242596Y-95459731D01*
X126234985Y-95457520D01*
X126234983Y-95457519D01*
X126092644Y-95416166D01*
X126092645Y-95416166D01*
X126086466Y-95414371D01*
X126080059Y-95413867D01*
X126080055Y-95413866D01*
X126052444Y-95411693D01*
X126052438Y-95411693D01*
X126049989Y-95411500D01*
X125800152Y-95411500D01*
X125550012Y-95411501D01*
X125513534Y-95414371D01*
X125432024Y-95438052D01*
X125365017Y-95457519D01*
X125365015Y-95457520D01*
X125357404Y-95459731D01*
X125350582Y-95463766D01*
X125350581Y-95463766D01*
X125245685Y-95525801D01*
X125217459Y-95542494D01*
X125122274Y-95637679D01*
X125059966Y-95671702D01*
X124989150Y-95666638D01*
X124944087Y-95637677D01*
X124875926Y-95569516D01*
X124863499Y-95559876D01*
X124736220Y-95484604D01*
X124721784Y-95478357D01*
X124578359Y-95436688D01*
X124570391Y-95435232D01*
X124556969Y-95438052D01*
X124554000Y-95449513D01*
X124554000Y-96265500D01*
X124533998Y-96333621D01*
X124480342Y-96380114D01*
X124428000Y-96391500D01*
X124334989Y-96391500D01*
X124266868Y-96371498D01*
X124220375Y-96317842D01*
X124208989Y-96265500D01*
X124208989Y-92551812D01*
X124228991Y-92483691D01*
X124282647Y-92437198D01*
X124351653Y-92426919D01*
X124393664Y-92432525D01*
X124427562Y-92437048D01*
X124427565Y-92437048D01*
X124434542Y-92437979D01*
X124441553Y-92437341D01*
X124441557Y-92437341D01*
X124591403Y-92423704D01*
X124591404Y-92423704D01*
X124598424Y-92423065D01*
X124630087Y-92412777D01*
X124748230Y-92374390D01*
X124748233Y-92374389D01*
X124754929Y-92372213D01*
X124896279Y-92287951D01*
X125015449Y-92174468D01*
X125088331Y-92064772D01*
X125142687Y-92019102D01*
X125193278Y-92008500D01*
X128477678Y-92008500D01*
X128546671Y-92029068D01*
X128592189Y-92058854D01*
X128746428Y-92116215D01*
X128753409Y-92117146D01*
X128753411Y-92117147D01*
X128902561Y-92137048D01*
X128902565Y-92137048D01*
X128909542Y-92137979D01*
X128916553Y-92137341D01*
X128916557Y-92137341D01*
X129066403Y-92123704D01*
X129066404Y-92123704D01*
X129073424Y-92123065D01*
X129156315Y-92096132D01*
X129223230Y-92074390D01*
X129223233Y-92074389D01*
X129229929Y-92072213D01*
X129371279Y-91987951D01*
X129490449Y-91874468D01*
X129513962Y-91839078D01*
X129577614Y-91743275D01*
X129577615Y-91743273D01*
X129581515Y-91737403D01*
X129639951Y-91583568D01*
X129653387Y-91487965D01*
X129662302Y-91424534D01*
X129662303Y-91424527D01*
X129662853Y-91420610D01*
X129663141Y-91400000D01*
X129644798Y-91236466D01*
X129628390Y-91189347D01*
X129602776Y-91115795D01*
X129590680Y-91081060D01*
X129583474Y-91069527D01*
X129507209Y-90947479D01*
X129503476Y-90941505D01*
X129431062Y-90868584D01*
X129392486Y-90829737D01*
X129392482Y-90829734D01*
X129387522Y-90824739D01*
X129248580Y-90736563D01*
X129177465Y-90711240D01*
X129100189Y-90683723D01*
X129100187Y-90683722D01*
X129093555Y-90681361D01*
X129086569Y-90680528D01*
X129086565Y-90680527D01*
X128966475Y-90666208D01*
X128930153Y-90661877D01*
X128923150Y-90662613D01*
X128923149Y-90662613D01*
X128888946Y-90666208D01*
X128766495Y-90679078D01*
X128759827Y-90681348D01*
X128617382Y-90729840D01*
X128617379Y-90729841D01*
X128610715Y-90732110D01*
X128555248Y-90766234D01*
X128544545Y-90772818D01*
X128478523Y-90791500D01*
X124798136Y-90791500D01*
X124781693Y-90790422D01*
X124750000Y-90786250D01*
X124741811Y-90787328D01*
X124710126Y-90791499D01*
X124710117Y-90791500D01*
X124710115Y-90791500D01*
X124630945Y-90801923D01*
X124560797Y-90790984D01*
X124507698Y-90743856D01*
X124488499Y-90677001D01*
X124488499Y-90550012D01*
X124485629Y-90513534D01*
X124440269Y-90357404D01*
X124394622Y-90280218D01*
X124361540Y-90224280D01*
X124357506Y-90217459D01*
X124334393Y-90194346D01*
X124300367Y-90132034D01*
X124305432Y-90061219D01*
X124334393Y-90016156D01*
X124596234Y-89754315D01*
X124608625Y-89743448D01*
X124627437Y-89729013D01*
X124633987Y-89723987D01*
X124658474Y-89692075D01*
X124658477Y-89692072D01*
X124731523Y-89596876D01*
X124731524Y-89596875D01*
X124744789Y-89564852D01*
X124789678Y-89456479D01*
X124792838Y-89448850D01*
X124808500Y-89329885D01*
X124808500Y-89329878D01*
X124813750Y-89290000D01*
X124809578Y-89258307D01*
X124808500Y-89241864D01*
X124808500Y-88137427D01*
X124809578Y-88120981D01*
X124812673Y-88097471D01*
X124813751Y-88089283D01*
X124792838Y-87930432D01*
X124731524Y-87782407D01*
X124658478Y-87687212D01*
X124658474Y-87687208D01*
X124641817Y-87665500D01*
X124639016Y-87661849D01*
X124639013Y-87661846D01*
X124633987Y-87655296D01*
X124627432Y-87650266D01*
X124608621Y-87635831D01*
X124596230Y-87624964D01*
X124025032Y-87053766D01*
X124014165Y-87041375D01*
X123999730Y-87022563D01*
X123994704Y-87016013D01*
X123962792Y-86991526D01*
X123962789Y-86991523D01*
X123938880Y-86973177D01*
X123874146Y-86923504D01*
X123874144Y-86923503D01*
X123867593Y-86918476D01*
X123719568Y-86857162D01*
X123711381Y-86856084D01*
X123711380Y-86856084D01*
X123700175Y-86854609D01*
X123668979Y-86850502D01*
X123600602Y-86841500D01*
X123600599Y-86841500D01*
X123600591Y-86841499D01*
X123568906Y-86837328D01*
X123560717Y-86836250D01*
X123529024Y-86840422D01*
X123512581Y-86841500D01*
X122374950Y-86841500D01*
X122306829Y-86821498D01*
X122285855Y-86804595D01*
X122256807Y-86775547D01*
X122249983Y-86771511D01*
X122249980Y-86771509D01*
X122120427Y-86694892D01*
X122120428Y-86694892D01*
X122113601Y-86690855D01*
X122105990Y-86688644D01*
X122105988Y-86688643D01*
X122047586Y-86671676D01*
X121953831Y-86644438D01*
X121947426Y-86643934D01*
X121947421Y-86643933D01*
X121918958Y-86641693D01*
X121918950Y-86641693D01*
X121916502Y-86641500D01*
X120608498Y-86641500D01*
X120606050Y-86641693D01*
X120606042Y-86641693D01*
X120577579Y-86643933D01*
X120577574Y-86643934D01*
X120571169Y-86644438D01*
X120477414Y-86671676D01*
X120419012Y-86688643D01*
X120419010Y-86688644D01*
X120411399Y-86690855D01*
X120404572Y-86694892D01*
X120404573Y-86694892D01*
X120275020Y-86771509D01*
X120275017Y-86771511D01*
X120268193Y-86775547D01*
X120150547Y-86893193D01*
X120146511Y-86900017D01*
X120146509Y-86900020D01*
X120105142Y-86969969D01*
X120065855Y-87036399D01*
X120019438Y-87196169D01*
X120016500Y-87233498D01*
X120016500Y-87665500D01*
X119996498Y-87733621D01*
X119942842Y-87780114D01*
X119890500Y-87791500D01*
X104584239Y-87791500D01*
X104516118Y-87771498D01*
X104495144Y-87754595D01*
X103426644Y-86686095D01*
X103392618Y-86623783D01*
X103397683Y-86552968D01*
X103440230Y-86496132D01*
X103506750Y-86471321D01*
X103515739Y-86471000D01*
X103708576Y-86471000D01*
X103777569Y-86491568D01*
X103842189Y-86533854D01*
X103996428Y-86591215D01*
X104003409Y-86592146D01*
X104003411Y-86592147D01*
X104152561Y-86612048D01*
X104152565Y-86612048D01*
X104159542Y-86612979D01*
X104166553Y-86612341D01*
X104166557Y-86612341D01*
X104316403Y-86598704D01*
X104316404Y-86598704D01*
X104323424Y-86598065D01*
X104357592Y-86586963D01*
X104473230Y-86549390D01*
X104473233Y-86549389D01*
X104479929Y-86547213D01*
X104621279Y-86462951D01*
X104740449Y-86349468D01*
X104744350Y-86343597D01*
X104827614Y-86218275D01*
X104827615Y-86218273D01*
X104831515Y-86212403D01*
X104889951Y-86058568D01*
X104904991Y-85951552D01*
X104912302Y-85899534D01*
X104912303Y-85899527D01*
X104912853Y-85895610D01*
X104913141Y-85875000D01*
X104894798Y-85711466D01*
X104840680Y-85556060D01*
X104753476Y-85416505D01*
X104695499Y-85358122D01*
X104642486Y-85304737D01*
X104642482Y-85304734D01*
X104637522Y-85299739D01*
X104498580Y-85211563D01*
X104449447Y-85194068D01*
X104350189Y-85158723D01*
X104350187Y-85158722D01*
X104343555Y-85156361D01*
X104336569Y-85155528D01*
X104336565Y-85155527D01*
X104222071Y-85141875D01*
X104180153Y-85136877D01*
X104173150Y-85137613D01*
X104173149Y-85137613D01*
X104129935Y-85142155D01*
X104016495Y-85154078D01*
X104007380Y-85157181D01*
X103867382Y-85204840D01*
X103867379Y-85204841D01*
X103860715Y-85207110D01*
X103843646Y-85217611D01*
X103814863Y-85235318D01*
X103748841Y-85254000D01*
X103176499Y-85254000D01*
X103108378Y-85233998D01*
X103061885Y-85180342D01*
X103050499Y-85128000D01*
X103050499Y-85017831D01*
X103050129Y-85011010D01*
X103044605Y-84960148D01*
X103040979Y-84944896D01*
X102995824Y-84824446D01*
X102987286Y-84808851D01*
X102910785Y-84706776D01*
X102898224Y-84694215D01*
X102796149Y-84617714D01*
X102780554Y-84609176D01*
X102660106Y-84564022D01*
X102644851Y-84560395D01*
X102593986Y-84554869D01*
X102587172Y-84554500D01*
X100497831Y-84554501D01*
X100491010Y-84554871D01*
X100440148Y-84560395D01*
X100424896Y-84564021D01*
X100304446Y-84609176D01*
X100288851Y-84617714D01*
X100186776Y-84694215D01*
X100174215Y-84706776D01*
X100097714Y-84808851D01*
X100089176Y-84824446D01*
X100044022Y-84944894D01*
X100040395Y-84960149D01*
X100034869Y-85011014D01*
X100034500Y-85017827D01*
X100034501Y-85307168D01*
X100034871Y-85313990D01*
X100040395Y-85364852D01*
X100044021Y-85380103D01*
X100075620Y-85464393D01*
X100080803Y-85535200D01*
X100046733Y-85597718D01*
X99703766Y-85940685D01*
X99691375Y-85951552D01*
X99666013Y-85971013D01*
X99641526Y-86002925D01*
X99641523Y-86002928D01*
X99641517Y-86002936D01*
X99598829Y-86058568D01*
X99568476Y-86098124D01*
X99565316Y-86105754D01*
X99524094Y-86205272D01*
X99518691Y-86218317D01*
X99507162Y-86246150D01*
X99491500Y-86365115D01*
X99491500Y-86365120D01*
X99486250Y-86405000D01*
X99487328Y-86413188D01*
X99490422Y-86436690D01*
X99491500Y-86453136D01*
X99491500Y-86770886D01*
X99490422Y-86787329D01*
X99486250Y-86819022D01*
X99491500Y-86858902D01*
X99491500Y-86858907D01*
X99504067Y-86954364D01*
X99507162Y-86977873D01*
X99568476Y-87125898D01*
X99573503Y-87132449D01*
X99573504Y-87132451D01*
X99641520Y-87221091D01*
X99641526Y-87221097D01*
X99666013Y-87253009D01*
X99672568Y-87258039D01*
X99691379Y-87272474D01*
X99703770Y-87283341D01*
X100019345Y-87598916D01*
X100053371Y-87661228D01*
X100048231Y-87732242D01*
X100040755Y-87752184D01*
X100039902Y-87760032D01*
X100039902Y-87760034D01*
X100037721Y-87780114D01*
X100034000Y-87814366D01*
X100034000Y-88110634D01*
X100040755Y-88172816D01*
X100043527Y-88180212D01*
X100043529Y-88180218D01*
X100076806Y-88268983D01*
X100081989Y-88339790D01*
X100076806Y-88357441D01*
X100044022Y-88444891D01*
X100040395Y-88460149D01*
X100034869Y-88511014D01*
X100034500Y-88517827D01*
X100034501Y-88807168D01*
X100034871Y-88813990D01*
X100040395Y-88864852D01*
X100044021Y-88880104D01*
X100077073Y-88968270D01*
X100082256Y-89039078D01*
X100077073Y-89056730D01*
X100044022Y-89144894D01*
X100040395Y-89160149D01*
X100034869Y-89211014D01*
X100034500Y-89217827D01*
X100034501Y-89507168D01*
X100034871Y-89513990D01*
X100040395Y-89564852D01*
X100044022Y-89580106D01*
X100076806Y-89667559D01*
X100081989Y-89738366D01*
X100076806Y-89756017D01*
X100043529Y-89844782D01*
X100043527Y-89844788D01*
X100040755Y-89852184D01*
X100034000Y-89914366D01*
X100034000Y-90210634D01*
X100040755Y-90272816D01*
X100043527Y-90280212D01*
X100043529Y-90280218D01*
X100076539Y-90368271D01*
X100081722Y-90439078D01*
X100076539Y-90456729D01*
X100043529Y-90544782D01*
X100043527Y-90544788D01*
X100040755Y-90552184D01*
X100034000Y-90614366D01*
X100034000Y-90910634D01*
X100040755Y-90972816D01*
X100043527Y-90980212D01*
X100043529Y-90980218D01*
X100076539Y-91068271D01*
X100081722Y-91139078D01*
X100076539Y-91156729D01*
X100043529Y-91244782D01*
X100043527Y-91244788D01*
X100040755Y-91252184D01*
X100034000Y-91314366D01*
X100034000Y-91610634D01*
X100040755Y-91672816D01*
X100043527Y-91680212D01*
X100043529Y-91680218D01*
X100076539Y-91768271D01*
X100081722Y-91839078D01*
X100076539Y-91856729D01*
X100043529Y-91944782D01*
X100043527Y-91944788D01*
X100040755Y-91952184D01*
X100034000Y-92014366D01*
X100034000Y-92310634D01*
X100040755Y-92372816D01*
X100043527Y-92380212D01*
X100043529Y-92380218D01*
X100076539Y-92468271D01*
X100081722Y-92539078D01*
X100076539Y-92556729D01*
X100043529Y-92644782D01*
X100043527Y-92644788D01*
X100040755Y-92652184D01*
X100034000Y-92714366D01*
X100034000Y-93010634D01*
X100040755Y-93072816D01*
X100043527Y-93080212D01*
X100043529Y-93080218D01*
X100076539Y-93168271D01*
X100081722Y-93239078D01*
X100076539Y-93256729D01*
X100043529Y-93344782D01*
X100043527Y-93344788D01*
X100040755Y-93352184D01*
X100034000Y-93414366D01*
X100034000Y-93710634D01*
X100040755Y-93772816D01*
X100091885Y-93909205D01*
X100179239Y-94025761D01*
X100295795Y-94113115D01*
X100432184Y-94164245D01*
X100494366Y-94171000D01*
X102590634Y-94171000D01*
X102652816Y-94164245D01*
X102789205Y-94113115D01*
X102905761Y-94025761D01*
X102993115Y-93909205D01*
X103044245Y-93772816D01*
X103051000Y-93710634D01*
X103051000Y-93414366D01*
X103044245Y-93352184D01*
X103041473Y-93344788D01*
X103041471Y-93344782D01*
X103008461Y-93256729D01*
X103003278Y-93185922D01*
X103008461Y-93168271D01*
X103041471Y-93080218D01*
X103041473Y-93080212D01*
X103044245Y-93072816D01*
X103051000Y-93010634D01*
X103051000Y-92897000D01*
X103071002Y-92828879D01*
X103124658Y-92782386D01*
X103177000Y-92771000D01*
X107608261Y-92771000D01*
X107676382Y-92791002D01*
X107697356Y-92807905D01*
X110567731Y-95678280D01*
X110601757Y-95740592D01*
X110596692Y-95811407D01*
X110554145Y-95868243D01*
X110519242Y-95886653D01*
X110392382Y-95929840D01*
X110392379Y-95929841D01*
X110385715Y-95932110D01*
X110360943Y-95947350D01*
X110319545Y-95972818D01*
X110253523Y-95991500D01*
X92464239Y-95991500D01*
X92396118Y-95971498D01*
X92375144Y-95954595D01*
X90975974Y-94555425D01*
X97529145Y-94555425D01*
X97547070Y-94752388D01*
X97548808Y-94758294D01*
X97548809Y-94758298D01*
X97574506Y-94845610D01*
X97602910Y-94942119D01*
X97605763Y-94947577D01*
X97605765Y-94947581D01*
X97620704Y-94976156D01*
X97694540Y-95117390D01*
X97818468Y-95271525D01*
X97823192Y-95275489D01*
X97830433Y-95281565D01*
X97969974Y-95398654D01*
X97975372Y-95401621D01*
X97975377Y-95401625D01*
X98114927Y-95478342D01*
X98143287Y-95493933D01*
X98149154Y-95495794D01*
X98149156Y-95495795D01*
X98314042Y-95548100D01*
X98331806Y-95553735D01*
X98485727Y-95571000D01*
X98592269Y-95571000D01*
X98595325Y-95570700D01*
X98595332Y-95570700D01*
X98653840Y-95564963D01*
X98739333Y-95556580D01*
X98745234Y-95554798D01*
X98745236Y-95554798D01*
X98853503Y-95522110D01*
X98928669Y-95499416D01*
X99103296Y-95406566D01*
X99189562Y-95336209D01*
X99251787Y-95285460D01*
X99251790Y-95285457D01*
X99256562Y-95281565D01*
X99350284Y-95168275D01*
X99378701Y-95133925D01*
X99378703Y-95133921D01*
X99382630Y-95129175D01*
X99476698Y-94955201D01*
X99535182Y-94766268D01*
X99539441Y-94725746D01*
X99555211Y-94575704D01*
X99555211Y-94575702D01*
X99555855Y-94569575D01*
X99537930Y-94372612D01*
X99482090Y-94182881D01*
X99472794Y-94165098D01*
X99399949Y-94025761D01*
X99390460Y-94007610D01*
X99266532Y-93853475D01*
X99260227Y-93848184D01*
X99179224Y-93780215D01*
X99115026Y-93726346D01*
X99109628Y-93723379D01*
X99109623Y-93723375D01*
X98947108Y-93634033D01*
X98947109Y-93634033D01*
X98941713Y-93631067D01*
X98935846Y-93629206D01*
X98935844Y-93629205D01*
X98759064Y-93573127D01*
X98759063Y-93573127D01*
X98753194Y-93571265D01*
X98599273Y-93554000D01*
X98492731Y-93554000D01*
X98489675Y-93554300D01*
X98489668Y-93554300D01*
X98431160Y-93560037D01*
X98345667Y-93568420D01*
X98339766Y-93570202D01*
X98339764Y-93570202D01*
X98266447Y-93592338D01*
X98156331Y-93625584D01*
X97981704Y-93718434D01*
X97924658Y-93764960D01*
X97833213Y-93839540D01*
X97833210Y-93839543D01*
X97828438Y-93843435D01*
X97824511Y-93848182D01*
X97824509Y-93848184D01*
X97706299Y-93991075D01*
X97706297Y-93991079D01*
X97702370Y-93995825D01*
X97608302Y-94169799D01*
X97549818Y-94358732D01*
X97549174Y-94364857D01*
X97549174Y-94364858D01*
X97534611Y-94503423D01*
X97529145Y-94555425D01*
X90975974Y-94555425D01*
X86065405Y-89644856D01*
X86031379Y-89582544D01*
X86028500Y-89555761D01*
X86028500Y-88976866D01*
X86021745Y-88914684D01*
X85970615Y-88778295D01*
X85883261Y-88661739D01*
X85766705Y-88574385D01*
X85630316Y-88523255D01*
X85622467Y-88522402D01*
X85622129Y-88522322D01*
X85560483Y-88487104D01*
X85527664Y-88424148D01*
X85534091Y-88353443D01*
X85577724Y-88297437D01*
X85622134Y-88277157D01*
X85637602Y-88273480D01*
X85758054Y-88228324D01*
X85773649Y-88219786D01*
X85875724Y-88143285D01*
X85888285Y-88130724D01*
X85964786Y-88028649D01*
X85973324Y-88013054D01*
X86018478Y-87892606D01*
X86022105Y-87877351D01*
X86027631Y-87826486D01*
X86028000Y-87819672D01*
X86028000Y-87722115D01*
X86023525Y-87706876D01*
X86022135Y-87705671D01*
X86014452Y-87704000D01*
X83810116Y-87704000D01*
X83794877Y-87708475D01*
X83793672Y-87709865D01*
X83792001Y-87717548D01*
X83792001Y-87819669D01*
X83792371Y-87826490D01*
X83797895Y-87877352D01*
X83801521Y-87892604D01*
X83846676Y-88013054D01*
X83855214Y-88028649D01*
X83931715Y-88130724D01*
X83944276Y-88143285D01*
X84046351Y-88219786D01*
X84061946Y-88228324D01*
X84182398Y-88273480D01*
X84197871Y-88277159D01*
X84259516Y-88312378D01*
X84292335Y-88375333D01*
X84285908Y-88446038D01*
X84242275Y-88502044D01*
X84197866Y-88522324D01*
X84197539Y-88522402D01*
X84189684Y-88523255D01*
X84053295Y-88574385D01*
X83936739Y-88661739D01*
X83849385Y-88778295D01*
X83798255Y-88914684D01*
X83791500Y-88976866D01*
X83791500Y-89723134D01*
X83798255Y-89785316D01*
X83801027Y-89792712D01*
X83801029Y-89792718D01*
X83821648Y-89847718D01*
X83826831Y-89918525D01*
X83792910Y-89980894D01*
X83730655Y-90015023D01*
X83668514Y-90012944D01*
X83621186Y-89999194D01*
X83542114Y-89976221D01*
X83542109Y-89976220D01*
X83535937Y-89974427D01*
X83529532Y-89973923D01*
X83529527Y-89973922D01*
X83501203Y-89971693D01*
X83501195Y-89971693D01*
X83498747Y-89971500D01*
X83492496Y-89971500D01*
X83299500Y-89971501D01*
X83231380Y-89951499D01*
X83184887Y-89897844D01*
X83173500Y-89845501D01*
X83173500Y-89218560D01*
X83193502Y-89150439D01*
X83223935Y-89117734D01*
X83256081Y-89093642D01*
X83263261Y-89088261D01*
X83350615Y-88971705D01*
X83401745Y-88835316D01*
X83408500Y-88773134D01*
X83408500Y-88026866D01*
X83401745Y-87964684D01*
X83350615Y-87828295D01*
X83263261Y-87711739D01*
X83146705Y-87624385D01*
X83010316Y-87573255D01*
X82948134Y-87566500D01*
X82511194Y-87566500D01*
X82480712Y-87562757D01*
X82413821Y-87546079D01*
X82413820Y-87546079D01*
X82407199Y-87544428D01*
X82400378Y-87544237D01*
X82397075Y-87543785D01*
X82396191Y-87543626D01*
X82391308Y-87542948D01*
X82386260Y-87541820D01*
X82380537Y-87541500D01*
X82304156Y-87541500D01*
X82300637Y-87541451D01*
X82220743Y-87539219D01*
X82214039Y-87540498D01*
X82207238Y-87541045D01*
X82207196Y-87540525D01*
X82196875Y-87541500D01*
X81007793Y-87541500D01*
X80939672Y-87521498D01*
X80918698Y-87504595D01*
X80591988Y-87177885D01*
X83792000Y-87177885D01*
X83796475Y-87193124D01*
X83797865Y-87194329D01*
X83805548Y-87196000D01*
X84637885Y-87196000D01*
X84653124Y-87191525D01*
X84654329Y-87190135D01*
X84656000Y-87182452D01*
X84656000Y-87177885D01*
X85164000Y-87177885D01*
X85168475Y-87193124D01*
X85169865Y-87194329D01*
X85177548Y-87196000D01*
X86009884Y-87196000D01*
X86025123Y-87191525D01*
X86026328Y-87190135D01*
X86027999Y-87182452D01*
X86027999Y-87080331D01*
X86027629Y-87073510D01*
X86022105Y-87022648D01*
X86018479Y-87007396D01*
X85973324Y-86886946D01*
X85964786Y-86871351D01*
X85888285Y-86769276D01*
X85875724Y-86756715D01*
X85773649Y-86680214D01*
X85758054Y-86671676D01*
X85637606Y-86626522D01*
X85622351Y-86622895D01*
X85571486Y-86617369D01*
X85564672Y-86617000D01*
X85182115Y-86617000D01*
X85166876Y-86621475D01*
X85165671Y-86622865D01*
X85164000Y-86630548D01*
X85164000Y-87177885D01*
X84656000Y-87177885D01*
X84656000Y-86635116D01*
X84651525Y-86619877D01*
X84650135Y-86618672D01*
X84642452Y-86617001D01*
X84255331Y-86617001D01*
X84248510Y-86617371D01*
X84197648Y-86622895D01*
X84182396Y-86626521D01*
X84061946Y-86671676D01*
X84046351Y-86680214D01*
X83944276Y-86756715D01*
X83931715Y-86769276D01*
X83855214Y-86871351D01*
X83846676Y-86886946D01*
X83801522Y-87007394D01*
X83797895Y-87022649D01*
X83792369Y-87073514D01*
X83792000Y-87080328D01*
X83792000Y-87177885D01*
X80591988Y-87177885D01*
X79632420Y-86218317D01*
X79598394Y-86156005D01*
X79595903Y-86119336D01*
X79612777Y-85904930D01*
X79613165Y-85900000D01*
X79594535Y-85663289D01*
X79587416Y-85633634D01*
X79540260Y-85437218D01*
X79539105Y-85432406D01*
X79532519Y-85416505D01*
X79450135Y-85217611D01*
X79450133Y-85217607D01*
X79448240Y-85213037D01*
X79412110Y-85154078D01*
X79326759Y-85014798D01*
X79326755Y-85014792D01*
X79324176Y-85010584D01*
X79169969Y-84830031D01*
X78989416Y-84675824D01*
X78985208Y-84673245D01*
X78985202Y-84673241D01*
X78791183Y-84554346D01*
X78786963Y-84551760D01*
X78782393Y-84549867D01*
X78782389Y-84549865D01*
X78572167Y-84462789D01*
X78572165Y-84462788D01*
X78567594Y-84460895D01*
X78487391Y-84441640D01*
X78341524Y-84406620D01*
X78341518Y-84406619D01*
X78336711Y-84405465D01*
X78100000Y-84386835D01*
X77863289Y-84405465D01*
X77858482Y-84406619D01*
X77858476Y-84406620D01*
X77712609Y-84441640D01*
X77632406Y-84460895D01*
X77627835Y-84462788D01*
X77627833Y-84462789D01*
X77417611Y-84549865D01*
X77417607Y-84549867D01*
X77413037Y-84551760D01*
X77408817Y-84554346D01*
X77214798Y-84673241D01*
X77214792Y-84673245D01*
X77210584Y-84675824D01*
X77030031Y-84830031D01*
X77026823Y-84833787D01*
X76887143Y-84997331D01*
X76827692Y-85036140D01*
X76791332Y-85041500D01*
X74408668Y-85041500D01*
X74340547Y-85021498D01*
X74312857Y-84997331D01*
X74173177Y-84833787D01*
X74169969Y-84830031D01*
X73989416Y-84675824D01*
X73985208Y-84673245D01*
X73985202Y-84673241D01*
X73791183Y-84554346D01*
X73786963Y-84551760D01*
X73782393Y-84549867D01*
X73782389Y-84549865D01*
X73572167Y-84462789D01*
X73572165Y-84462788D01*
X73567594Y-84460895D01*
X73487391Y-84441640D01*
X73341524Y-84406620D01*
X73341518Y-84406619D01*
X73336711Y-84405465D01*
X73100000Y-84386835D01*
X72863289Y-84405465D01*
X72858482Y-84406619D01*
X72858476Y-84406620D01*
X72712609Y-84441640D01*
X72632406Y-84460895D01*
X72627835Y-84462788D01*
X72627833Y-84462789D01*
X72417611Y-84549865D01*
X72417607Y-84549867D01*
X72413037Y-84551760D01*
X72408817Y-84554346D01*
X72214798Y-84673241D01*
X72214792Y-84673245D01*
X72210584Y-84675824D01*
X72030031Y-84830031D01*
X71875824Y-85010584D01*
X71873245Y-85014792D01*
X71873241Y-85014798D01*
X71787890Y-85154078D01*
X71751760Y-85213037D01*
X71749867Y-85217607D01*
X71749865Y-85217611D01*
X71667481Y-85416505D01*
X71660895Y-85432406D01*
X71659740Y-85437218D01*
X71612585Y-85633634D01*
X71605465Y-85663289D01*
X71586835Y-85900000D01*
X71605465Y-86136711D01*
X71660895Y-86367594D01*
X71662788Y-86372165D01*
X71662789Y-86372167D01*
X71736197Y-86549390D01*
X71751760Y-86586963D01*
X71754346Y-86591183D01*
X71873241Y-86785202D01*
X71873245Y-86785208D01*
X71875824Y-86789416D01*
X72030031Y-86969969D01*
X72210584Y-87124176D01*
X72214792Y-87126755D01*
X72214798Y-87126759D01*
X72388980Y-87233498D01*
X72413037Y-87248240D01*
X72417607Y-87250133D01*
X72417611Y-87250135D01*
X72627833Y-87337211D01*
X72632406Y-87339105D01*
X72712609Y-87358360D01*
X72858476Y-87393380D01*
X72858482Y-87393381D01*
X72863289Y-87394535D01*
X73100000Y-87413165D01*
X73336711Y-87394535D01*
X73341518Y-87393381D01*
X73341524Y-87393380D01*
X73487391Y-87358360D01*
X73567594Y-87339105D01*
X73572167Y-87337211D01*
X73782389Y-87250135D01*
X73782393Y-87250133D01*
X73786963Y-87248240D01*
X73811020Y-87233498D01*
X73985202Y-87126759D01*
X73985208Y-87126755D01*
X73989416Y-87124176D01*
X74169969Y-86969969D01*
X74240333Y-86887584D01*
X74312857Y-86802669D01*
X74372308Y-86763860D01*
X74408668Y-86758500D01*
X76791332Y-86758500D01*
X76859453Y-86778502D01*
X76887143Y-86802669D01*
X76959667Y-86887584D01*
X77030031Y-86969969D01*
X77210584Y-87124176D01*
X77214792Y-87126755D01*
X77214798Y-87126759D01*
X77388980Y-87233498D01*
X77413037Y-87248240D01*
X77417607Y-87250133D01*
X77417611Y-87250135D01*
X77627833Y-87337211D01*
X77632406Y-87339105D01*
X77712609Y-87358360D01*
X77858476Y-87393380D01*
X77858482Y-87393381D01*
X77863289Y-87394535D01*
X78100000Y-87413165D01*
X78104930Y-87412777D01*
X78319336Y-87395903D01*
X78388816Y-87410499D01*
X78418317Y-87432420D01*
X79963680Y-88977783D01*
X79970822Y-88985549D01*
X80004471Y-89025367D01*
X80009895Y-89029514D01*
X80009896Y-89029515D01*
X80068962Y-89074674D01*
X80071379Y-89076568D01*
X80134738Y-89127510D01*
X80140857Y-89130547D01*
X80143652Y-89132335D01*
X80144013Y-89132588D01*
X80144380Y-89132790D01*
X80147238Y-89134521D01*
X80152652Y-89138660D01*
X80196582Y-89159145D01*
X80226262Y-89172985D01*
X80229033Y-89174319D01*
X80301814Y-89210447D01*
X80308435Y-89212098D01*
X80311563Y-89213249D01*
X80311956Y-89213413D01*
X80312361Y-89213532D01*
X80315525Y-89214609D01*
X80321704Y-89217490D01*
X80395498Y-89233985D01*
X80401002Y-89235215D01*
X80403998Y-89235924D01*
X80466927Y-89251614D01*
X80482801Y-89255572D01*
X80489622Y-89255763D01*
X80492925Y-89256215D01*
X80493809Y-89256374D01*
X80498692Y-89257052D01*
X80503740Y-89258180D01*
X80509463Y-89258500D01*
X80585844Y-89258500D01*
X80589363Y-89258549D01*
X80669257Y-89260781D01*
X80675961Y-89259502D01*
X80682762Y-89258955D01*
X80682804Y-89259475D01*
X80693125Y-89258500D01*
X81330500Y-89258500D01*
X81398621Y-89278502D01*
X81445114Y-89332158D01*
X81456500Y-89384500D01*
X81456500Y-90846596D01*
X81471583Y-90985437D01*
X81531078Y-91162223D01*
X81538949Y-91175324D01*
X81551940Y-91205059D01*
X81560668Y-91235100D01*
X81564704Y-91241924D01*
X81564705Y-91241927D01*
X81617572Y-91331321D01*
X81635032Y-91400137D01*
X81617573Y-91459597D01*
X81604600Y-91481534D01*
X81596258Y-91493902D01*
X81551340Y-91552652D01*
X81472510Y-91721704D01*
X81431820Y-91903740D01*
X81431500Y-91909463D01*
X81431500Y-92048610D01*
X81431058Y-92059152D01*
X81426696Y-92111099D01*
X81427598Y-92117859D01*
X81427598Y-92117861D01*
X81437437Y-92191602D01*
X81437807Y-92194657D01*
X81446583Y-92275437D01*
X81448758Y-92281901D01*
X81449478Y-92285176D01*
X81449548Y-92285572D01*
X81449671Y-92285996D01*
X81450462Y-92289216D01*
X81451366Y-92295989D01*
X81479139Y-92372294D01*
X81480156Y-92375198D01*
X81486145Y-92392994D01*
X81506078Y-92452223D01*
X81509596Y-92458077D01*
X81510985Y-92461084D01*
X81511152Y-92461489D01*
X81511357Y-92461865D01*
X81512827Y-92464852D01*
X81515162Y-92471268D01*
X81558730Y-92539920D01*
X81560255Y-92542389D01*
X81602147Y-92612109D01*
X81606834Y-92617066D01*
X81608851Y-92619723D01*
X81609369Y-92620469D01*
X81612344Y-92624402D01*
X81615109Y-92628759D01*
X81618930Y-92633032D01*
X81672908Y-92687010D01*
X81675362Y-92689532D01*
X81702078Y-92717783D01*
X81730308Y-92747636D01*
X81759014Y-92767145D01*
X81767112Y-92773138D01*
X81834738Y-92827510D01*
X81840852Y-92830545D01*
X81883341Y-92851637D01*
X81883235Y-92851850D01*
X81883926Y-92852034D01*
X81884582Y-92852480D01*
X81886939Y-92853423D01*
X81891091Y-92855484D01*
X81891092Y-92855485D01*
X81995703Y-92907414D01*
X81995707Y-92907415D01*
X82001814Y-92910447D01*
X82182801Y-92955572D01*
X82189619Y-92955762D01*
X82189623Y-92955763D01*
X82270575Y-92958024D01*
X82369257Y-92960781D01*
X82460869Y-92943305D01*
X82545778Y-92927107D01*
X82545781Y-92927106D01*
X82552481Y-92925828D01*
X82723926Y-92852347D01*
X82802545Y-92796061D01*
X82869576Y-92772671D01*
X82917110Y-92781281D01*
X82917404Y-92780269D01*
X83073534Y-92825629D01*
X83079941Y-92826133D01*
X83079945Y-92826134D01*
X83107556Y-92828307D01*
X83107562Y-92828307D01*
X83110011Y-92828500D01*
X83309878Y-92828500D01*
X83509988Y-92828499D01*
X83546466Y-92825629D01*
X83665653Y-92791002D01*
X83694983Y-92782481D01*
X83694985Y-92782480D01*
X83702596Y-92780269D01*
X83753417Y-92750214D01*
X83835720Y-92701540D01*
X83842541Y-92697506D01*
X83957506Y-92582541D01*
X84019904Y-92477031D01*
X84036234Y-92449419D01*
X84036234Y-92449418D01*
X84040269Y-92442596D01*
X84047934Y-92416215D01*
X84077621Y-92314031D01*
X84085629Y-92286466D01*
X84088500Y-92249989D01*
X84088499Y-91750012D01*
X84085629Y-91713534D01*
X84045844Y-91576593D01*
X84042481Y-91565017D01*
X84042480Y-91565015D01*
X84040269Y-91557404D01*
X84036233Y-91550579D01*
X84036231Y-91550575D01*
X83982428Y-91459599D01*
X83964968Y-91390783D01*
X83982428Y-91331321D01*
X84035294Y-91241929D01*
X84035296Y-91241925D01*
X84039332Y-91235100D01*
X84041543Y-91227489D01*
X84041544Y-91227487D01*
X84067229Y-91139078D01*
X84085573Y-91075937D01*
X84086077Y-91069532D01*
X84086078Y-91069527D01*
X84088307Y-91041203D01*
X84088307Y-91041195D01*
X84088500Y-91038747D01*
X84088499Y-90561254D01*
X84085573Y-90524063D01*
X84039332Y-90364900D01*
X84035297Y-90358078D01*
X84032148Y-90350800D01*
X84033381Y-90350266D01*
X84017952Y-90289454D01*
X84040468Y-90222123D01*
X84095813Y-90177654D01*
X84166413Y-90170165D01*
X84174537Y-90172408D01*
X84174600Y-90172144D01*
X84182284Y-90173971D01*
X84189684Y-90176745D01*
X84251866Y-90183500D01*
X84830761Y-90183500D01*
X84898882Y-90203502D01*
X84919856Y-90220405D01*
X91695685Y-96996234D01*
X91706552Y-97008625D01*
X91726013Y-97033987D01*
X91732563Y-97039013D01*
X91757925Y-97058474D01*
X91757928Y-97058477D01*
X91827318Y-97111722D01*
X91846570Y-97126495D01*
X91846574Y-97126497D01*
X91853125Y-97131524D01*
X92001150Y-97192838D01*
X92120115Y-97208500D01*
X92120120Y-97208500D01*
X92120129Y-97208501D01*
X92151812Y-97212672D01*
X92160000Y-97213750D01*
X92191693Y-97209578D01*
X92208136Y-97208500D01*
X110252678Y-97208500D01*
X110321671Y-97229068D01*
X110330736Y-97235000D01*
X110367189Y-97258854D01*
X110521428Y-97316215D01*
X110528409Y-97317146D01*
X110528411Y-97317147D01*
X110677561Y-97337048D01*
X110677565Y-97337048D01*
X110684542Y-97337979D01*
X110691553Y-97337341D01*
X110691557Y-97337341D01*
X110841403Y-97323704D01*
X110841404Y-97323704D01*
X110848424Y-97323065D01*
X110909796Y-97303124D01*
X110998230Y-97274390D01*
X110998233Y-97274389D01*
X111004929Y-97272213D01*
X111146279Y-97187951D01*
X111265449Y-97074468D01*
X111269350Y-97068597D01*
X111352614Y-96943275D01*
X111352615Y-96943273D01*
X111356515Y-96937403D01*
X111414951Y-96783568D01*
X111416491Y-96784153D01*
X111448408Y-96730533D01*
X111511941Y-96698844D01*
X111582520Y-96706534D01*
X111623230Y-96733779D01*
X112315856Y-97426405D01*
X112349882Y-97488717D01*
X112344817Y-97559532D01*
X112302270Y-97616368D01*
X112235750Y-97641179D01*
X112226761Y-97641500D01*
X111851866Y-97641500D01*
X111789684Y-97648255D01*
X111653295Y-97699385D01*
X111536739Y-97786739D01*
X111449385Y-97903295D01*
X111398255Y-98039684D01*
X111391500Y-98101866D01*
X111391500Y-99142207D01*
X111371498Y-99210328D01*
X111354595Y-99231303D01*
X110581301Y-100004596D01*
X110518989Y-100038621D01*
X110492206Y-100041500D01*
X109331291Y-100041500D01*
X109263170Y-100021498D01*
X109216677Y-99967842D01*
X109206028Y-99929108D01*
X109202598Y-99897540D01*
X109201745Y-99889684D01*
X109150615Y-99753295D01*
X109063261Y-99636739D01*
X108946705Y-99549385D01*
X108810316Y-99498255D01*
X108748134Y-99491500D01*
X107257793Y-99491500D01*
X107189672Y-99471498D01*
X107168698Y-99454595D01*
X106701320Y-98987217D01*
X106694177Y-98979450D01*
X106664935Y-98944847D01*
X106660529Y-98939633D01*
X106596031Y-98890321D01*
X106593615Y-98888427D01*
X106535583Y-98841768D01*
X106535582Y-98841767D01*
X106530262Y-98837490D01*
X106524143Y-98834453D01*
X106521348Y-98832665D01*
X106520987Y-98832412D01*
X106520620Y-98832210D01*
X106517762Y-98830479D01*
X106512348Y-98826340D01*
X106438736Y-98792014D01*
X106435964Y-98790680D01*
X106369296Y-98757586D01*
X106363186Y-98754553D01*
X106356565Y-98752902D01*
X106353437Y-98751751D01*
X106353044Y-98751587D01*
X106352639Y-98751468D01*
X106349475Y-98750391D01*
X106343296Y-98747510D01*
X106264000Y-98729785D01*
X106261002Y-98729076D01*
X106188821Y-98711079D01*
X106188820Y-98711079D01*
X106182199Y-98709428D01*
X106175378Y-98709237D01*
X106172075Y-98708785D01*
X106171191Y-98708626D01*
X106166308Y-98707948D01*
X106161260Y-98706820D01*
X106155537Y-98706500D01*
X106079156Y-98706500D01*
X106075637Y-98706451D01*
X105995743Y-98704219D01*
X105989039Y-98705498D01*
X105982238Y-98706045D01*
X105982196Y-98705525D01*
X105971875Y-98706500D01*
X103834500Y-98706500D01*
X103766379Y-98686498D01*
X103719886Y-98632842D01*
X103708500Y-98580500D01*
X103708500Y-98516866D01*
X103701745Y-98454684D01*
X103650615Y-98318295D01*
X103563261Y-98201739D01*
X103446705Y-98114385D01*
X103310316Y-98063255D01*
X103248134Y-98056500D01*
X99351866Y-98056500D01*
X99289684Y-98063255D01*
X99153295Y-98114385D01*
X99036739Y-98201739D01*
X98949385Y-98318295D01*
X98898255Y-98454684D01*
X98891500Y-98516866D01*
X98891500Y-98580500D01*
X98871498Y-98648621D01*
X98817842Y-98695114D01*
X98765500Y-98706500D01*
X96334500Y-98706500D01*
X96266379Y-98686498D01*
X96219886Y-98632842D01*
X96208500Y-98580500D01*
X96208500Y-98516866D01*
X96201745Y-98454684D01*
X96150615Y-98318295D01*
X96063261Y-98201739D01*
X95946705Y-98114385D01*
X95810316Y-98063255D01*
X95748134Y-98056500D01*
X91851866Y-98056500D01*
X91789684Y-98063255D01*
X91653295Y-98114385D01*
X91536739Y-98201739D01*
X91449385Y-98318295D01*
X91398255Y-98454684D01*
X91391500Y-98516866D01*
X91391500Y-98580500D01*
X91371498Y-98648621D01*
X91317842Y-98695114D01*
X91265500Y-98706500D01*
X88834500Y-98706500D01*
X88766379Y-98686498D01*
X88719886Y-98632842D01*
X88708500Y-98580500D01*
X88708500Y-98516866D01*
X88701745Y-98454684D01*
X88650615Y-98318295D01*
X88563261Y-98201739D01*
X88446705Y-98114385D01*
X88310316Y-98063255D01*
X88248134Y-98056500D01*
X84351866Y-98056500D01*
X84289684Y-98063255D01*
X84153295Y-98114385D01*
X84036739Y-98201739D01*
X83949385Y-98318295D01*
X83898255Y-98454684D01*
X83891500Y-98516866D01*
X83891500Y-100613134D01*
X83898255Y-100675316D01*
X83949385Y-100811705D01*
X84036739Y-100928261D01*
X84153295Y-101015615D01*
X84289684Y-101066745D01*
X84351866Y-101073500D01*
X85315500Y-101073500D01*
X85383621Y-101093502D01*
X85430114Y-101147158D01*
X85441500Y-101199500D01*
X85441500Y-104275246D01*
X85421498Y-104343367D01*
X85367842Y-104389860D01*
X85359730Y-104393228D01*
X85313908Y-104410406D01*
X85303295Y-104414385D01*
X85227045Y-104471531D01*
X85225148Y-104472953D01*
X85158642Y-104497801D01*
X85089259Y-104482748D01*
X85074018Y-104472953D01*
X85003648Y-104420214D01*
X84988054Y-104411676D01*
X84867606Y-104366522D01*
X84852351Y-104362895D01*
X84801486Y-104357369D01*
X84794672Y-104357000D01*
X84272115Y-104357000D01*
X84256876Y-104361475D01*
X84255671Y-104362865D01*
X84254000Y-104370548D01*
X84254000Y-107354884D01*
X84258475Y-107370123D01*
X84259865Y-107371328D01*
X84267548Y-107372999D01*
X84794669Y-107372999D01*
X84801490Y-107372629D01*
X84852352Y-107367105D01*
X84867604Y-107363479D01*
X84988054Y-107318324D01*
X85003648Y-107309786D01*
X85074018Y-107257047D01*
X85140524Y-107232199D01*
X85209907Y-107247252D01*
X85225139Y-107257040D01*
X85261067Y-107283967D01*
X85303580Y-107340824D01*
X85311500Y-107384791D01*
X85311500Y-107482849D01*
X85293953Y-107546988D01*
X85293083Y-107548460D01*
X85280106Y-107570403D01*
X85277895Y-107578014D01*
X85277894Y-107578016D01*
X85275750Y-107585397D01*
X85234394Y-107727746D01*
X85231500Y-107764516D01*
X85231500Y-108235484D01*
X85231693Y-108237932D01*
X85231693Y-108237940D01*
X85233419Y-108259865D01*
X85234394Y-108272254D01*
X85237946Y-108284480D01*
X85275807Y-108414798D01*
X85280106Y-108429597D01*
X85284141Y-108436419D01*
X85284141Y-108436420D01*
X85359478Y-108563808D01*
X85363512Y-108570629D01*
X85479371Y-108686488D01*
X85486192Y-108690522D01*
X85612796Y-108765395D01*
X85620403Y-108769894D01*
X85628014Y-108772105D01*
X85628016Y-108772106D01*
X85668688Y-108783922D01*
X85777746Y-108815606D01*
X85784151Y-108816110D01*
X85784156Y-108816111D01*
X85812060Y-108818307D01*
X85812068Y-108818307D01*
X85814516Y-108818500D01*
X86225484Y-108818500D01*
X86227932Y-108818307D01*
X86227940Y-108818307D01*
X86255844Y-108816111D01*
X86255849Y-108816110D01*
X86262254Y-108815606D01*
X86371312Y-108783922D01*
X86411984Y-108772106D01*
X86411986Y-108772105D01*
X86419597Y-108769894D01*
X86428469Y-108764647D01*
X86436353Y-108759985D01*
X86505170Y-108742526D01*
X86564628Y-108759984D01*
X86573778Y-108765395D01*
X86588216Y-108771643D01*
X86708605Y-108806619D01*
X86722705Y-108806579D01*
X86726000Y-108799309D01*
X86726000Y-108793558D01*
X87234000Y-108793558D01*
X87237973Y-108807089D01*
X87245871Y-108808224D01*
X87371784Y-108771643D01*
X87386222Y-108765395D01*
X87435860Y-108736039D01*
X87504677Y-108718579D01*
X87564140Y-108736039D01*
X87613778Y-108765395D01*
X87628216Y-108771643D01*
X87748605Y-108806619D01*
X87762705Y-108806579D01*
X87766000Y-108799309D01*
X87766000Y-108272115D01*
X87761525Y-108256876D01*
X87760135Y-108255671D01*
X87752452Y-108254000D01*
X87252115Y-108254000D01*
X87236876Y-108258475D01*
X87235671Y-108259865D01*
X87234000Y-108267548D01*
X87234000Y-108793558D01*
X86726000Y-108793558D01*
X86726000Y-108521379D01*
X86743546Y-108457240D01*
X86755859Y-108436420D01*
X86755859Y-108436419D01*
X86759894Y-108429597D01*
X86764194Y-108414798D01*
X86802054Y-108284480D01*
X86805606Y-108272254D01*
X86806582Y-108259865D01*
X86808307Y-108237940D01*
X86808307Y-108237932D01*
X86808500Y-108235484D01*
X86808500Y-107872000D01*
X86828502Y-107803879D01*
X86882158Y-107757386D01*
X86934500Y-107746000D01*
X87995500Y-107746000D01*
X88063621Y-107766002D01*
X88110114Y-107819658D01*
X88121500Y-107872000D01*
X88121500Y-108046596D01*
X88136583Y-108185437D01*
X88196078Y-108362223D01*
X88250485Y-108452771D01*
X88256003Y-108461955D01*
X88274000Y-108526850D01*
X88274000Y-108793558D01*
X88277973Y-108807089D01*
X88285871Y-108808224D01*
X88411784Y-108771643D01*
X88426222Y-108765395D01*
X88435372Y-108759984D01*
X88504188Y-108742526D01*
X88563647Y-108759985D01*
X88571531Y-108764647D01*
X88580403Y-108769894D01*
X88588017Y-108772106D01*
X88620957Y-108781676D01*
X88632595Y-108785684D01*
X88741434Y-108829217D01*
X88741439Y-108829218D01*
X88747771Y-108831751D01*
X88754498Y-108832865D01*
X88754503Y-108832866D01*
X88925058Y-108861101D01*
X88925061Y-108861101D01*
X88931795Y-108862216D01*
X88938611Y-108861859D01*
X88938615Y-108861859D01*
X89087521Y-108854054D01*
X89118067Y-108852453D01*
X89239606Y-108818976D01*
X89291324Y-108804731D01*
X89291326Y-108804730D01*
X89297898Y-108802920D01*
X89325824Y-108788196D01*
X89349434Y-108778657D01*
X89379597Y-108769894D01*
X89520629Y-108686488D01*
X89636488Y-108570629D01*
X89640524Y-108563805D01*
X89640526Y-108563802D01*
X89673946Y-108507291D01*
X89682303Y-108494901D01*
X89714516Y-108452769D01*
X89714519Y-108452765D01*
X89718660Y-108447348D01*
X89797490Y-108278296D01*
X89838180Y-108096260D01*
X89838500Y-108090537D01*
X89838500Y-107033488D01*
X89846518Y-106989259D01*
X89848973Y-106982711D01*
X89848973Y-106982709D01*
X89851745Y-106975316D01*
X89852599Y-106967460D01*
X89858131Y-106916531D01*
X89858500Y-106913134D01*
X89858500Y-106909669D01*
X90242001Y-106909669D01*
X90242371Y-106916490D01*
X90247895Y-106967352D01*
X90251521Y-106982604D01*
X90296676Y-107103054D01*
X90305214Y-107118649D01*
X90381715Y-107220724D01*
X90394276Y-107233285D01*
X90496351Y-107309786D01*
X90511946Y-107318324D01*
X90632394Y-107363478D01*
X90647649Y-107367105D01*
X90698514Y-107372631D01*
X90705328Y-107373000D01*
X91227885Y-107373000D01*
X91243124Y-107368525D01*
X91244329Y-107367135D01*
X91246000Y-107359452D01*
X91246000Y-106137115D01*
X91241525Y-106121876D01*
X91240135Y-106120671D01*
X91232452Y-106119000D01*
X90260116Y-106119000D01*
X90244877Y-106123475D01*
X90243672Y-106124865D01*
X90242001Y-106132548D01*
X90242001Y-106909669D01*
X89858500Y-106909669D01*
X89858500Y-105872792D01*
X89878502Y-105804671D01*
X89895405Y-105783697D01*
X90069500Y-105609602D01*
X90131812Y-105575576D01*
X90202627Y-105580641D01*
X90241109Y-105603474D01*
X90247866Y-105609329D01*
X90255548Y-105611000D01*
X91628000Y-105611000D01*
X91696121Y-105631002D01*
X91742614Y-105684658D01*
X91754000Y-105737000D01*
X91754000Y-107354884D01*
X91758475Y-107370123D01*
X91759865Y-107371328D01*
X91767548Y-107372999D01*
X92294669Y-107372999D01*
X92301486Y-107372630D01*
X92321893Y-107370413D01*
X92391776Y-107382942D01*
X92443791Y-107431263D01*
X92461500Y-107495676D01*
X92461500Y-108046596D01*
X92476583Y-108185437D01*
X92536078Y-108362223D01*
X92562032Y-108405418D01*
X92620335Y-108502450D01*
X92632147Y-108522109D01*
X92636737Y-108526963D01*
X92644668Y-108538767D01*
X92663512Y-108570629D01*
X92779371Y-108686488D01*
X92786192Y-108690522D01*
X92912796Y-108765395D01*
X92920403Y-108769894D01*
X92928017Y-108772106D01*
X92960957Y-108781676D01*
X92972595Y-108785684D01*
X93081434Y-108829217D01*
X93081439Y-108829218D01*
X93087771Y-108831751D01*
X93094498Y-108832865D01*
X93094503Y-108832866D01*
X93265058Y-108861101D01*
X93265061Y-108861101D01*
X93271795Y-108862216D01*
X93278611Y-108861859D01*
X93278615Y-108861859D01*
X93427521Y-108854054D01*
X93458067Y-108852453D01*
X93579606Y-108818976D01*
X93631324Y-108804731D01*
X93631326Y-108804730D01*
X93637898Y-108802920D01*
X93665824Y-108788196D01*
X93689434Y-108778657D01*
X93719597Y-108769894D01*
X93730359Y-108763529D01*
X93736353Y-108759985D01*
X93805170Y-108742526D01*
X93864628Y-108759984D01*
X93873778Y-108765395D01*
X93888216Y-108771643D01*
X94008605Y-108806619D01*
X94022705Y-108806579D01*
X94026000Y-108799309D01*
X94026000Y-108793558D01*
X94534000Y-108793558D01*
X94537973Y-108807089D01*
X94545871Y-108808224D01*
X94671784Y-108771643D01*
X94686222Y-108765395D01*
X94735860Y-108736039D01*
X94804677Y-108718579D01*
X94864140Y-108736039D01*
X94913778Y-108765395D01*
X94928216Y-108771643D01*
X95048605Y-108806619D01*
X95062705Y-108806579D01*
X95066000Y-108799309D01*
X95066000Y-108272115D01*
X95061525Y-108256876D01*
X95060135Y-108255671D01*
X95052452Y-108254000D01*
X94552115Y-108254000D01*
X94536876Y-108258475D01*
X94535671Y-108259865D01*
X94534000Y-108267548D01*
X94534000Y-108793558D01*
X94026000Y-108793558D01*
X94026000Y-108532715D01*
X94046002Y-108464594D01*
X94051903Y-108456187D01*
X94054515Y-108452771D01*
X94054520Y-108452764D01*
X94058660Y-108447348D01*
X94137490Y-108278296D01*
X94178180Y-108096260D01*
X94178500Y-108090537D01*
X94178500Y-107872000D01*
X94198502Y-107803879D01*
X94252158Y-107757386D01*
X94304500Y-107746000D01*
X95295500Y-107746000D01*
X95363621Y-107766002D01*
X95410114Y-107819658D01*
X95421500Y-107872000D01*
X95421500Y-107918990D01*
X95419808Y-107939569D01*
X95417784Y-107951795D01*
X95418141Y-107958610D01*
X95418141Y-107958615D01*
X95421327Y-108019393D01*
X95421500Y-108025988D01*
X95421500Y-108046596D01*
X95422407Y-108054942D01*
X95423542Y-108065387D01*
X95424105Y-108072396D01*
X95427547Y-108138067D01*
X95429359Y-108144644D01*
X95429359Y-108144647D01*
X95431278Y-108151614D01*
X95435065Y-108171466D01*
X95435846Y-108178652D01*
X95436583Y-108185437D01*
X95457560Y-108247768D01*
X95459617Y-108254496D01*
X95477080Y-108317898D01*
X95480263Y-108323935D01*
X95483634Y-108330328D01*
X95491595Y-108348903D01*
X95496078Y-108362223D01*
X95529951Y-108418598D01*
X95533394Y-108424709D01*
X95559456Y-108474138D01*
X95574000Y-108532905D01*
X95574000Y-108793558D01*
X95577973Y-108807089D01*
X95585871Y-108808224D01*
X95711784Y-108771643D01*
X95726222Y-108765395D01*
X95735372Y-108759984D01*
X95804188Y-108742526D01*
X95863647Y-108759985D01*
X95871531Y-108764647D01*
X95880403Y-108769894D01*
X95888017Y-108772106D01*
X95920957Y-108781676D01*
X95932578Y-108785677D01*
X95935643Y-108786903D01*
X95942093Y-108789693D01*
X96001704Y-108817490D01*
X96015418Y-108820556D01*
X96034713Y-108826528D01*
X96047771Y-108831751D01*
X96054507Y-108832866D01*
X96054510Y-108832867D01*
X96086406Y-108838147D01*
X96112679Y-108842496D01*
X96119560Y-108843834D01*
X96165282Y-108854054D01*
X96178693Y-108857052D01*
X96178695Y-108857052D01*
X96183740Y-108858180D01*
X96189463Y-108858500D01*
X96198990Y-108858500D01*
X96219569Y-108860192D01*
X96225058Y-108861101D01*
X96225061Y-108861101D01*
X96231795Y-108862216D01*
X96238611Y-108861859D01*
X96238615Y-108861859D01*
X96299393Y-108858673D01*
X96305988Y-108858500D01*
X96346596Y-108858500D01*
X96349988Y-108858132D01*
X96349998Y-108858131D01*
X96384031Y-108854434D01*
X96391040Y-108853870D01*
X96400122Y-108853394D01*
X96418067Y-108852453D01*
X96424651Y-108850639D01*
X96431383Y-108849549D01*
X96431433Y-108849859D01*
X96438442Y-108848522D01*
X96478653Y-108844154D01*
X96478654Y-108844154D01*
X96485437Y-108843417D01*
X96662223Y-108783922D01*
X96822109Y-108687853D01*
X96957636Y-108559692D01*
X96975840Y-108532905D01*
X97058646Y-108411060D01*
X97058647Y-108411058D01*
X97062480Y-108405418D01*
X97072140Y-108381268D01*
X97129215Y-108238570D01*
X97129216Y-108238568D01*
X97131751Y-108232229D01*
X97152425Y-108107350D01*
X97161101Y-108054942D01*
X97161101Y-108054939D01*
X97162216Y-108048205D01*
X97160796Y-108021099D01*
X97153118Y-107874622D01*
X97152453Y-107861933D01*
X97143024Y-107827699D01*
X97138500Y-107794242D01*
X97138500Y-107347318D01*
X97158502Y-107279197D01*
X97188934Y-107246493D01*
X97213261Y-107228261D01*
X97300615Y-107111705D01*
X97351745Y-106975316D01*
X97358500Y-106913134D01*
X97358500Y-106909669D01*
X97742001Y-106909669D01*
X97742371Y-106916490D01*
X97747895Y-106967352D01*
X97751521Y-106982604D01*
X97796676Y-107103054D01*
X97805214Y-107118649D01*
X97881715Y-107220724D01*
X97894276Y-107233285D01*
X97996351Y-107309786D01*
X98011946Y-107318324D01*
X98132394Y-107363478D01*
X98147649Y-107367105D01*
X98198514Y-107372631D01*
X98205328Y-107373000D01*
X98727885Y-107373000D01*
X98743124Y-107368525D01*
X98744329Y-107367135D01*
X98746000Y-107359452D01*
X98746000Y-106137115D01*
X98741525Y-106121876D01*
X98740135Y-106120671D01*
X98732452Y-106119000D01*
X97760116Y-106119000D01*
X97744877Y-106123475D01*
X97743672Y-106124865D01*
X97742001Y-106132548D01*
X97742001Y-106909669D01*
X97358500Y-106909669D01*
X97358500Y-105872792D01*
X97378502Y-105804671D01*
X97395405Y-105783697D01*
X97569500Y-105609602D01*
X97631812Y-105575576D01*
X97702627Y-105580641D01*
X97741109Y-105603474D01*
X97747866Y-105609329D01*
X97755548Y-105611000D01*
X99128000Y-105611000D01*
X99196121Y-105631002D01*
X99242614Y-105684658D01*
X99254000Y-105737000D01*
X99254000Y-107354884D01*
X99258475Y-107370123D01*
X99259865Y-107371328D01*
X99267548Y-107372999D01*
X99794669Y-107372999D01*
X99801490Y-107372629D01*
X99852352Y-107367105D01*
X99867604Y-107363479D01*
X99988054Y-107318324D01*
X100003648Y-107309786D01*
X100074018Y-107257047D01*
X100140524Y-107232199D01*
X100209907Y-107247252D01*
X100225148Y-107257047D01*
X100296113Y-107310233D01*
X100296116Y-107310235D01*
X100303295Y-107315615D01*
X100329732Y-107325526D01*
X100386495Y-107368168D01*
X100411194Y-107434729D01*
X100411500Y-107443507D01*
X100411500Y-107482849D01*
X100393953Y-107546988D01*
X100393083Y-107548460D01*
X100380106Y-107570403D01*
X100377895Y-107578014D01*
X100377894Y-107578016D01*
X100375750Y-107585397D01*
X100334394Y-107727746D01*
X100331500Y-107764516D01*
X100331500Y-108235484D01*
X100331693Y-108237932D01*
X100331693Y-108237940D01*
X100333419Y-108259865D01*
X100334394Y-108272254D01*
X100337946Y-108284480D01*
X100375807Y-108414798D01*
X100380106Y-108429597D01*
X100384141Y-108436419D01*
X100384141Y-108436420D01*
X100459478Y-108563808D01*
X100463512Y-108570629D01*
X100579371Y-108686488D01*
X100720403Y-108769894D01*
X100728013Y-108772105D01*
X100766191Y-108783197D01*
X100820132Y-108815099D01*
X104085561Y-112080528D01*
X104091415Y-112086793D01*
X104129443Y-112130385D01*
X104181733Y-112167136D01*
X104186975Y-112171028D01*
X104237286Y-112210476D01*
X104244205Y-112213600D01*
X104246497Y-112214988D01*
X104261169Y-112223357D01*
X104263529Y-112224622D01*
X104269743Y-112228990D01*
X104276822Y-112231750D01*
X104276824Y-112231751D01*
X104329279Y-112252202D01*
X104335348Y-112254753D01*
X104393577Y-112281045D01*
X104401050Y-112282430D01*
X104403616Y-112283234D01*
X104419839Y-112287855D01*
X104422431Y-112288520D01*
X104429513Y-112291282D01*
X104437048Y-112292274D01*
X104492865Y-112299622D01*
X104499381Y-112300654D01*
X104520645Y-112304595D01*
X104562190Y-112312295D01*
X104569770Y-112311858D01*
X104569771Y-112311858D01*
X104624384Y-112308709D01*
X104631637Y-112308500D01*
X106055500Y-112308500D01*
X106123621Y-112328502D01*
X106170114Y-112382158D01*
X106181500Y-112434500D01*
X106181500Y-112686125D01*
X106165969Y-112742896D01*
X106166915Y-112743305D01*
X106164038Y-112749953D01*
X106163953Y-112750264D01*
X106163769Y-112750576D01*
X106159731Y-112757404D01*
X106157520Y-112765015D01*
X106157519Y-112765017D01*
X106139338Y-112827598D01*
X106114371Y-112913534D01*
X106113867Y-112919941D01*
X106113866Y-112919945D01*
X106112992Y-112931051D01*
X106111500Y-112950011D01*
X106111501Y-113449988D01*
X106114371Y-113486466D01*
X106116168Y-113492650D01*
X106156386Y-113631081D01*
X106159731Y-113642596D01*
X106242494Y-113782541D01*
X106357459Y-113897506D01*
X106363510Y-113901084D01*
X106404842Y-113958320D01*
X106408691Y-114029212D01*
X106373601Y-114090931D01*
X106363276Y-114099877D01*
X106352161Y-114108499D01*
X106248501Y-114212159D01*
X106238854Y-114224595D01*
X106164230Y-114350778D01*
X106157981Y-114365217D01*
X106116662Y-114507436D01*
X106114363Y-114520023D01*
X106113740Y-114527943D01*
X106116910Y-114543030D01*
X106128374Y-114546000D01*
X107005500Y-114546000D01*
X107073621Y-114566002D01*
X107120114Y-114619658D01*
X107131500Y-114672000D01*
X107131501Y-114859865D01*
X107131501Y-115049988D01*
X107134371Y-115086466D01*
X107136167Y-115092648D01*
X107136168Y-115092653D01*
X107138997Y-115102390D01*
X107144000Y-115137542D01*
X107144000Y-115601900D01*
X107147973Y-115615431D01*
X107155871Y-115616566D01*
X107274783Y-115582019D01*
X107289220Y-115575771D01*
X107335370Y-115548478D01*
X107404187Y-115531018D01*
X107463646Y-115548477D01*
X107517404Y-115580269D01*
X107525015Y-115582480D01*
X107525017Y-115582481D01*
X107591858Y-115601900D01*
X107673534Y-115625629D01*
X107679941Y-115626133D01*
X107679945Y-115626134D01*
X107707556Y-115628307D01*
X107707562Y-115628307D01*
X107710011Y-115628500D01*
X107825761Y-115628500D01*
X107893882Y-115648502D01*
X107914856Y-115665405D01*
X107974878Y-115725427D01*
X108008904Y-115787739D01*
X108003839Y-115858554D01*
X107961292Y-115915390D01*
X107894772Y-115940201D01*
X107885783Y-115940522D01*
X104253261Y-115940522D01*
X104185140Y-115920520D01*
X104164166Y-115903617D01*
X103330552Y-115070003D01*
X106113579Y-115070003D01*
X106114363Y-115079977D01*
X106116662Y-115092564D01*
X106157981Y-115234783D01*
X106164230Y-115249222D01*
X106238854Y-115375405D01*
X106248501Y-115387841D01*
X106352159Y-115491499D01*
X106364595Y-115501146D01*
X106490778Y-115575770D01*
X106505217Y-115582019D01*
X106618605Y-115614961D01*
X106632705Y-115614921D01*
X106636000Y-115607651D01*
X106636000Y-115072115D01*
X106631525Y-115056876D01*
X106630135Y-115055671D01*
X106622452Y-115054000D01*
X106130434Y-115054000D01*
X106115639Y-115058344D01*
X106113579Y-115070003D01*
X103330552Y-115070003D01*
X100064315Y-111803766D01*
X100053448Y-111791375D01*
X100039013Y-111772563D01*
X100033987Y-111766013D01*
X100002075Y-111741526D01*
X100002072Y-111741523D01*
X99906876Y-111668476D01*
X99758851Y-111607162D01*
X99750664Y-111606084D01*
X99750663Y-111606084D01*
X99739458Y-111604609D01*
X99708262Y-111600502D01*
X99639885Y-111591500D01*
X99639882Y-111591500D01*
X99639874Y-111591499D01*
X99608189Y-111587328D01*
X99600000Y-111586250D01*
X99568307Y-111590422D01*
X99551864Y-111591500D01*
X91848136Y-111591500D01*
X91831690Y-111590422D01*
X91808188Y-111587328D01*
X91800000Y-111586250D01*
X91791812Y-111587328D01*
X91760129Y-111591499D01*
X91760120Y-111591500D01*
X91760115Y-111591500D01*
X91641150Y-111607162D01*
X91633523Y-111610321D01*
X91633520Y-111610322D01*
X91554438Y-111643079D01*
X91493124Y-111668476D01*
X91397928Y-111741523D01*
X91397925Y-111741526D01*
X91366013Y-111766013D01*
X91360983Y-111772568D01*
X91346548Y-111791379D01*
X91335681Y-111803770D01*
X90834856Y-112304595D01*
X90772544Y-112338621D01*
X90745761Y-112341500D01*
X86006066Y-112341500D01*
X85937945Y-112321498D01*
X85905242Y-112291068D01*
X85883261Y-112261739D01*
X85766705Y-112174385D01*
X85630316Y-112123255D01*
X85622467Y-112122402D01*
X85622129Y-112122322D01*
X85560483Y-112087104D01*
X85527664Y-112024148D01*
X85534091Y-111953443D01*
X85577724Y-111897437D01*
X85622134Y-111877157D01*
X85637602Y-111873480D01*
X85758054Y-111828324D01*
X85773649Y-111819786D01*
X85875724Y-111743285D01*
X85888285Y-111730724D01*
X85964786Y-111628649D01*
X85973324Y-111613054D01*
X86018478Y-111492606D01*
X86022105Y-111477351D01*
X86027631Y-111426486D01*
X86028000Y-111419672D01*
X86028000Y-111322115D01*
X86023525Y-111306876D01*
X86022135Y-111305671D01*
X86014452Y-111304000D01*
X83810116Y-111304000D01*
X83794877Y-111308475D01*
X83793672Y-111309865D01*
X83792001Y-111317548D01*
X83792001Y-111419669D01*
X83792371Y-111426490D01*
X83797895Y-111477352D01*
X83801521Y-111492604D01*
X83846676Y-111613054D01*
X83855214Y-111628649D01*
X83931715Y-111730724D01*
X83944276Y-111743285D01*
X84046351Y-111819786D01*
X84061946Y-111828324D01*
X84182398Y-111873480D01*
X84197871Y-111877159D01*
X84259516Y-111912378D01*
X84292335Y-111975333D01*
X84285908Y-112046038D01*
X84242275Y-112102044D01*
X84197866Y-112122324D01*
X84197539Y-112122402D01*
X84189684Y-112123255D01*
X84053295Y-112174385D01*
X83936739Y-112261739D01*
X83849385Y-112378295D01*
X83798255Y-112514684D01*
X83791500Y-112576866D01*
X83791500Y-113323134D01*
X83798255Y-113385316D01*
X83849385Y-113521705D01*
X83936739Y-113638261D01*
X84053295Y-113725615D01*
X84189684Y-113776745D01*
X84251866Y-113783500D01*
X85568134Y-113783500D01*
X85630316Y-113776745D01*
X85766705Y-113725615D01*
X85883261Y-113638261D01*
X85905241Y-113608933D01*
X85962100Y-113566420D01*
X86006066Y-113558500D01*
X91001864Y-113558500D01*
X91018307Y-113559578D01*
X91050000Y-113563750D01*
X91058189Y-113562672D01*
X91089874Y-113558501D01*
X91089884Y-113558500D01*
X91089885Y-113558500D01*
X91189457Y-113545391D01*
X91200664Y-113543916D01*
X91200666Y-113543915D01*
X91208851Y-113542838D01*
X91356876Y-113481524D01*
X91401908Y-113446970D01*
X91452072Y-113408477D01*
X91452075Y-113408474D01*
X91477434Y-113389015D01*
X91483987Y-113383987D01*
X91489017Y-113377432D01*
X91503452Y-113358621D01*
X91514319Y-113346230D01*
X92015144Y-112845405D01*
X92077456Y-112811379D01*
X92104239Y-112808500D01*
X95935536Y-112808500D01*
X96003657Y-112828502D01*
X96050150Y-112882158D01*
X96060254Y-112952432D01*
X96035633Y-113011026D01*
X96011340Y-113042801D01*
X95932510Y-113211853D01*
X95891820Y-113393889D01*
X95891500Y-113399612D01*
X95891500Y-116893134D01*
X95898255Y-116955316D01*
X95949385Y-117091705D01*
X96036739Y-117208261D01*
X96153295Y-117295615D01*
X96289684Y-117346745D01*
X96351866Y-117353500D01*
X96477992Y-117353500D01*
X96546113Y-117373502D01*
X96592606Y-117427158D01*
X96602710Y-117497432D01*
X96597378Y-117518366D01*
X96596982Y-117519171D01*
X96595375Y-117525341D01*
X96595373Y-117525346D01*
X96549508Y-117701425D01*
X96547898Y-117707607D01*
X96537707Y-117902064D01*
X96566825Y-118094599D01*
X96569028Y-118100585D01*
X96569029Y-118100591D01*
X96631860Y-118271360D01*
X96631862Y-118271365D01*
X96634063Y-118277346D01*
X96736674Y-118442840D01*
X96741055Y-118447473D01*
X96741056Y-118447474D01*
X96769418Y-118477466D01*
X96870466Y-118584322D01*
X97029975Y-118696011D01*
X97035838Y-118698548D01*
X97202825Y-118770810D01*
X97202829Y-118770811D01*
X97208684Y-118773345D01*
X97214931Y-118774650D01*
X97214934Y-118774651D01*
X97394557Y-118812176D01*
X97394562Y-118812177D01*
X97399293Y-118813165D01*
X97405685Y-118813500D01*
X97548663Y-118813500D01*
X97617951Y-118806462D01*
X97687378Y-118799410D01*
X97687379Y-118799410D01*
X97693727Y-118798765D01*
X97774843Y-118773345D01*
X97873451Y-118742444D01*
X97873456Y-118742442D01*
X97879541Y-118740535D01*
X97982551Y-118683435D01*
X98044271Y-118649223D01*
X98044274Y-118649221D01*
X98049850Y-118646130D01*
X98054691Y-118641981D01*
X98054695Y-118641978D01*
X98192855Y-118523560D01*
X98197698Y-118519409D01*
X98206325Y-118508288D01*
X98313131Y-118370594D01*
X98317046Y-118365547D01*
X98335522Y-118328000D01*
X98400200Y-118196556D01*
X98403018Y-118190829D01*
X98404628Y-118184649D01*
X98450492Y-118008575D01*
X98450492Y-118008572D01*
X98452102Y-118002393D01*
X98462293Y-117807936D01*
X98433175Y-117615401D01*
X98430972Y-117609415D01*
X98430971Y-117609409D01*
X98399181Y-117523008D01*
X98394431Y-117452170D01*
X98428732Y-117390010D01*
X98491195Y-117356262D01*
X98517431Y-117353500D01*
X98607725Y-117353500D01*
X98675846Y-117373502D01*
X98708551Y-117403935D01*
X98786739Y-117508261D01*
X98903295Y-117595615D01*
X99039684Y-117646745D01*
X99101866Y-117653500D01*
X100198134Y-117653500D01*
X100260316Y-117646745D01*
X100396705Y-117595615D01*
X100513261Y-117508261D01*
X100600615Y-117391705D01*
X100651745Y-117255316D01*
X100658500Y-117193134D01*
X100658500Y-116296866D01*
X100651745Y-116234684D01*
X100600615Y-116098295D01*
X100513261Y-115981739D01*
X100396705Y-115894385D01*
X100260316Y-115843255D01*
X100198134Y-115836500D01*
X99234500Y-115836500D01*
X99166379Y-115816498D01*
X99119886Y-115762842D01*
X99108500Y-115710500D01*
X99108500Y-115296866D01*
X99101745Y-115234684D01*
X99050615Y-115098295D01*
X98963261Y-114981739D01*
X98846705Y-114894385D01*
X98710316Y-114843255D01*
X98648134Y-114836500D01*
X97851866Y-114836500D01*
X97789684Y-114843255D01*
X97782285Y-114846029D01*
X97782284Y-114846029D01*
X97778725Y-114847363D01*
X97775762Y-114847580D01*
X97774600Y-114847856D01*
X97774555Y-114847668D01*
X97707918Y-114852543D01*
X97645550Y-114818620D01*
X97611423Y-114756363D01*
X97608500Y-114729379D01*
X97608500Y-113443553D01*
X97593417Y-113304712D01*
X97533922Y-113127926D01*
X97456693Y-112999395D01*
X97438753Y-112930702D01*
X97460800Y-112863215D01*
X97515832Y-112818361D01*
X97564696Y-112808500D01*
X99295761Y-112808500D01*
X99363882Y-112828502D01*
X99384856Y-112845405D01*
X103484707Y-116945256D01*
X103495574Y-116957647D01*
X103515035Y-116983009D01*
X103521585Y-116988035D01*
X103546943Y-117007493D01*
X103546959Y-117007507D01*
X103596327Y-117045388D01*
X103642146Y-117080546D01*
X103790171Y-117141860D01*
X103798358Y-117142938D01*
X103798359Y-117142938D01*
X103809564Y-117144413D01*
X103840760Y-117148520D01*
X103909137Y-117157522D01*
X103909140Y-117157522D01*
X103909148Y-117157523D01*
X103940833Y-117161694D01*
X103949022Y-117162772D01*
X103980715Y-117158600D01*
X103997158Y-117157522D01*
X115338396Y-117157522D01*
X115406517Y-117177524D01*
X115453010Y-117231180D01*
X115463114Y-117301454D01*
X115456378Y-117327751D01*
X115426522Y-117407391D01*
X115422895Y-117422649D01*
X115417369Y-117473514D01*
X115417000Y-117480328D01*
X115417000Y-117927885D01*
X115421475Y-117943124D01*
X115422865Y-117944329D01*
X115430548Y-117946000D01*
X116728000Y-117946000D01*
X116796121Y-117966002D01*
X116842614Y-118019658D01*
X116854000Y-118072000D01*
X116854000Y-118328000D01*
X116833998Y-118396121D01*
X116780342Y-118442614D01*
X116728000Y-118454000D01*
X115435116Y-118454000D01*
X115419877Y-118458475D01*
X115418672Y-118459865D01*
X115417001Y-118467548D01*
X115417001Y-118919669D01*
X115417371Y-118926490D01*
X115422895Y-118977352D01*
X115426521Y-118992604D01*
X115471676Y-119113054D01*
X115480214Y-119128649D01*
X115556715Y-119230724D01*
X115569277Y-119243286D01*
X115598482Y-119265174D01*
X115640997Y-119322034D01*
X115646022Y-119392852D01*
X115611963Y-119455145D01*
X115549631Y-119489135D01*
X115522917Y-119492000D01*
X100784500Y-119492000D01*
X100716379Y-119471998D01*
X100669886Y-119418342D01*
X100658500Y-119366000D01*
X100658500Y-118506866D01*
X100651745Y-118444684D01*
X100600615Y-118308295D01*
X100513261Y-118191739D01*
X100396705Y-118104385D01*
X100260316Y-118053255D01*
X100198134Y-118046500D01*
X99101866Y-118046500D01*
X99039684Y-118053255D01*
X98903295Y-118104385D01*
X98786739Y-118191739D01*
X98699385Y-118308295D01*
X98648255Y-118444684D01*
X98641500Y-118506866D01*
X98641500Y-119366000D01*
X98621498Y-119434121D01*
X98567842Y-119480614D01*
X98515500Y-119492000D01*
X93484500Y-119492000D01*
X93416379Y-119471998D01*
X93369886Y-119418342D01*
X93358500Y-119366000D01*
X93358500Y-118506866D01*
X93351745Y-118444684D01*
X93300615Y-118308295D01*
X93213261Y-118191739D01*
X93096705Y-118104385D01*
X92960316Y-118053255D01*
X92898134Y-118046500D01*
X91801866Y-118046500D01*
X91739684Y-118053255D01*
X91603295Y-118104385D01*
X91486739Y-118191739D01*
X91399385Y-118308295D01*
X91348255Y-118444684D01*
X91341500Y-118506866D01*
X91341500Y-119366000D01*
X91321498Y-119434121D01*
X91267842Y-119480614D01*
X91215500Y-119492000D01*
X85071610Y-119492000D01*
X85059442Y-119491411D01*
X85058284Y-119491299D01*
X85049567Y-119489175D01*
X85040606Y-119489583D01*
X85040604Y-119489583D01*
X84990398Y-119491870D01*
X84984665Y-119492000D01*
X84963523Y-119492000D01*
X84958348Y-119492741D01*
X84946253Y-119493880D01*
X84904203Y-119495796D01*
X84898037Y-119497046D01*
X84896687Y-119497319D01*
X84896682Y-119497320D01*
X84891913Y-119498287D01*
X84887535Y-119499907D01*
X84881691Y-119501405D01*
X83958096Y-119712463D01*
X83588886Y-119796834D01*
X83560817Y-119800000D01*
X70726000Y-119800000D01*
X70657879Y-119779998D01*
X70611386Y-119726342D01*
X70600000Y-119674000D01*
X70600000Y-117193134D01*
X91341500Y-117193134D01*
X91348255Y-117255316D01*
X91399385Y-117391705D01*
X91486739Y-117508261D01*
X91603295Y-117595615D01*
X91739684Y-117646745D01*
X91801866Y-117653500D01*
X92898134Y-117653500D01*
X92960316Y-117646745D01*
X93096705Y-117595615D01*
X93213261Y-117508261D01*
X93291449Y-117403935D01*
X93348308Y-117361420D01*
X93392275Y-117353500D01*
X93430120Y-117353500D01*
X93474039Y-117361402D01*
X93516880Y-117377334D01*
X93573757Y-117419826D01*
X93598631Y-117486323D01*
X93594892Y-117527193D01*
X93571916Y-117615401D01*
X93547898Y-117707607D01*
X93537707Y-117902064D01*
X93566825Y-118094599D01*
X93569028Y-118100585D01*
X93569029Y-118100591D01*
X93631860Y-118271360D01*
X93631862Y-118271365D01*
X93634063Y-118277346D01*
X93736674Y-118442840D01*
X93741055Y-118447473D01*
X93741056Y-118447474D01*
X93769418Y-118477466D01*
X93870466Y-118584322D01*
X94029975Y-118696011D01*
X94035838Y-118698548D01*
X94202825Y-118770810D01*
X94202829Y-118770811D01*
X94208684Y-118773345D01*
X94214931Y-118774650D01*
X94214934Y-118774651D01*
X94394557Y-118812176D01*
X94394562Y-118812177D01*
X94399293Y-118813165D01*
X94405685Y-118813500D01*
X94548663Y-118813500D01*
X94617951Y-118806462D01*
X94687378Y-118799410D01*
X94687379Y-118799410D01*
X94693727Y-118798765D01*
X94774843Y-118773345D01*
X94873451Y-118742444D01*
X94873456Y-118742442D01*
X94879541Y-118740535D01*
X94982551Y-118683435D01*
X95044271Y-118649223D01*
X95044274Y-118649221D01*
X95049850Y-118646130D01*
X95054691Y-118641981D01*
X95054695Y-118641978D01*
X95192855Y-118523560D01*
X95197698Y-118519409D01*
X95206325Y-118508288D01*
X95313131Y-118370594D01*
X95317046Y-118365547D01*
X95335522Y-118328000D01*
X95400200Y-118196556D01*
X95403018Y-118190829D01*
X95404628Y-118184649D01*
X95450492Y-118008575D01*
X95450492Y-118008572D01*
X95452102Y-118002393D01*
X95462293Y-117807936D01*
X95433175Y-117615401D01*
X95430972Y-117609415D01*
X95430971Y-117609409D01*
X95368140Y-117438640D01*
X95368138Y-117438635D01*
X95365937Y-117432654D01*
X95280969Y-117295615D01*
X95266688Y-117272582D01*
X95266687Y-117272581D01*
X95263326Y-117267160D01*
X95160391Y-117158308D01*
X95133919Y-117130315D01*
X95129534Y-117125678D01*
X95122464Y-117120727D01*
X95022814Y-117050952D01*
X94970025Y-117013989D01*
X94883298Y-116976459D01*
X94797175Y-116939190D01*
X94797171Y-116939189D01*
X94791316Y-116936655D01*
X94785069Y-116935350D01*
X94785066Y-116935349D01*
X94708734Y-116919403D01*
X94646143Y-116885894D01*
X94611605Y-116823865D01*
X94608500Y-116796066D01*
X94608500Y-116410452D01*
X94614135Y-116373193D01*
X94645678Y-116271295D01*
X94645678Y-116271293D01*
X94647696Y-116264775D01*
X94663304Y-116078901D01*
X94648396Y-115967169D01*
X94648380Y-115966996D01*
X94648305Y-115966490D01*
X94648236Y-115965970D01*
X94648236Y-115965969D01*
X94647727Y-115962157D01*
X94647453Y-115956933D01*
X94647051Y-115955472D01*
X94647252Y-115953869D01*
X94646632Y-115953952D01*
X94639536Y-115900772D01*
X94638634Y-115894011D01*
X94620161Y-115843255D01*
X94616099Y-115832096D01*
X94608500Y-115789002D01*
X94608500Y-115296866D01*
X94601745Y-115234684D01*
X94550615Y-115098295D01*
X94463261Y-114981739D01*
X94346705Y-114894385D01*
X94210316Y-114843255D01*
X94148134Y-114836500D01*
X94144718Y-114836500D01*
X94141320Y-114836316D01*
X94141346Y-114835840D01*
X94102899Y-114829199D01*
X93975189Y-114783723D01*
X93975187Y-114783722D01*
X93968555Y-114781361D01*
X93961569Y-114780528D01*
X93961565Y-114780527D01*
X93847071Y-114766875D01*
X93805153Y-114761877D01*
X93798150Y-114762613D01*
X93798149Y-114762613D01*
X93754935Y-114767155D01*
X93641495Y-114779078D01*
X93634827Y-114781348D01*
X93492565Y-114829778D01*
X93451959Y-114836500D01*
X93351866Y-114836500D01*
X93289684Y-114843255D01*
X93153295Y-114894385D01*
X93036739Y-114981739D01*
X92949385Y-115098295D01*
X92898255Y-115234684D01*
X92891500Y-115296866D01*
X92891500Y-115710500D01*
X92871498Y-115778621D01*
X92817842Y-115825114D01*
X92765500Y-115836500D01*
X91801866Y-115836500D01*
X91739684Y-115843255D01*
X91603295Y-115894385D01*
X91486739Y-115981739D01*
X91399385Y-116098295D01*
X91348255Y-116234684D01*
X91341500Y-116296866D01*
X91341500Y-117193134D01*
X70600000Y-117193134D01*
X70600000Y-114300000D01*
X71586835Y-114300000D01*
X71605465Y-114536711D01*
X71606619Y-114541518D01*
X71606620Y-114541524D01*
X71625379Y-114619658D01*
X71660895Y-114767594D01*
X71662788Y-114772165D01*
X71662789Y-114772167D01*
X71712108Y-114891233D01*
X71751760Y-114986963D01*
X71754346Y-114991183D01*
X71873241Y-115185202D01*
X71873245Y-115185208D01*
X71875824Y-115189416D01*
X72030031Y-115369969D01*
X72210584Y-115524176D01*
X72214792Y-115526755D01*
X72214798Y-115526759D01*
X72358731Y-115614961D01*
X72413037Y-115648240D01*
X72417607Y-115650133D01*
X72417611Y-115650135D01*
X72599384Y-115725427D01*
X72632406Y-115739105D01*
X72712609Y-115758360D01*
X72858476Y-115793380D01*
X72858482Y-115793381D01*
X72863289Y-115794535D01*
X73100000Y-115813165D01*
X73336711Y-115794535D01*
X73341518Y-115793381D01*
X73341524Y-115793380D01*
X73487391Y-115758360D01*
X73567594Y-115739105D01*
X73600616Y-115725427D01*
X73782389Y-115650135D01*
X73782393Y-115650133D01*
X73786963Y-115648240D01*
X73841269Y-115614961D01*
X73985202Y-115526759D01*
X73985208Y-115526755D01*
X73989416Y-115524176D01*
X74169969Y-115369969D01*
X74324176Y-115189416D01*
X74326755Y-115185208D01*
X74326759Y-115185202D01*
X74445654Y-114991183D01*
X74448240Y-114986963D01*
X74487893Y-114891233D01*
X74537211Y-114772167D01*
X74537212Y-114772165D01*
X74539105Y-114767594D01*
X74574621Y-114619658D01*
X74593380Y-114541524D01*
X74593381Y-114541518D01*
X74594535Y-114536711D01*
X74613165Y-114300000D01*
X76586835Y-114300000D01*
X76605465Y-114536711D01*
X76606619Y-114541518D01*
X76606620Y-114541524D01*
X76625379Y-114619658D01*
X76660895Y-114767594D01*
X76662788Y-114772165D01*
X76662789Y-114772167D01*
X76712108Y-114891233D01*
X76751760Y-114986963D01*
X76754346Y-114991183D01*
X76873241Y-115185202D01*
X76873245Y-115185208D01*
X76875824Y-115189416D01*
X77030031Y-115369969D01*
X77210584Y-115524176D01*
X77214792Y-115526755D01*
X77214798Y-115526759D01*
X77358731Y-115614961D01*
X77413037Y-115648240D01*
X77417607Y-115650133D01*
X77417611Y-115650135D01*
X77599384Y-115725427D01*
X77632406Y-115739105D01*
X77712609Y-115758360D01*
X77858476Y-115793380D01*
X77858482Y-115793381D01*
X77863289Y-115794535D01*
X78100000Y-115813165D01*
X78336711Y-115794535D01*
X78341518Y-115793381D01*
X78341524Y-115793380D01*
X78487391Y-115758360D01*
X78567594Y-115739105D01*
X78600616Y-115725427D01*
X78782389Y-115650135D01*
X78782393Y-115650133D01*
X78786963Y-115648240D01*
X78841269Y-115614961D01*
X78985202Y-115526759D01*
X78985208Y-115526755D01*
X78989416Y-115524176D01*
X79169969Y-115369969D01*
X79324176Y-115189416D01*
X79326755Y-115185208D01*
X79326759Y-115185202D01*
X79445654Y-114991183D01*
X79448240Y-114986963D01*
X79487893Y-114891233D01*
X79537211Y-114772167D01*
X79537212Y-114772165D01*
X79539105Y-114767594D01*
X79574621Y-114619658D01*
X79593380Y-114541524D01*
X79593381Y-114541518D01*
X79594535Y-114536711D01*
X79613165Y-114300000D01*
X79594535Y-114063289D01*
X79572405Y-113971108D01*
X79540260Y-113837218D01*
X79539105Y-113832406D01*
X79537211Y-113827833D01*
X79450135Y-113617611D01*
X79450133Y-113617607D01*
X79448240Y-113613037D01*
X79406786Y-113545391D01*
X79326759Y-113414798D01*
X79326755Y-113414792D01*
X79324176Y-113410584D01*
X79169969Y-113230031D01*
X78989416Y-113075824D01*
X78985208Y-113073245D01*
X78985202Y-113073241D01*
X78791183Y-112954346D01*
X78786963Y-112951760D01*
X78782393Y-112949867D01*
X78782389Y-112949865D01*
X78572167Y-112862789D01*
X78572165Y-112862788D01*
X78567594Y-112860895D01*
X78480897Y-112840081D01*
X78341524Y-112806620D01*
X78341518Y-112806619D01*
X78336711Y-112805465D01*
X78100000Y-112786835D01*
X77863289Y-112805465D01*
X77858482Y-112806619D01*
X77858476Y-112806620D01*
X77719103Y-112840081D01*
X77632406Y-112860895D01*
X77627835Y-112862788D01*
X77627833Y-112862789D01*
X77417611Y-112949865D01*
X77417607Y-112949867D01*
X77413037Y-112951760D01*
X77408817Y-112954346D01*
X77214798Y-113073241D01*
X77214792Y-113073245D01*
X77210584Y-113075824D01*
X77030031Y-113230031D01*
X76875824Y-113410584D01*
X76873245Y-113414792D01*
X76873241Y-113414798D01*
X76793214Y-113545391D01*
X76751760Y-113613037D01*
X76749867Y-113617607D01*
X76749865Y-113617611D01*
X76662789Y-113827833D01*
X76660895Y-113832406D01*
X76659740Y-113837218D01*
X76627596Y-113971108D01*
X76605465Y-114063289D01*
X76586835Y-114300000D01*
X74613165Y-114300000D01*
X74594535Y-114063289D01*
X74572405Y-113971108D01*
X74540260Y-113837218D01*
X74539105Y-113832406D01*
X74537211Y-113827833D01*
X74450135Y-113617611D01*
X74450133Y-113617607D01*
X74448240Y-113613037D01*
X74406786Y-113545391D01*
X74326759Y-113414798D01*
X74326755Y-113414792D01*
X74324176Y-113410584D01*
X74169969Y-113230031D01*
X73989416Y-113075824D01*
X73985208Y-113073245D01*
X73985202Y-113073241D01*
X73791183Y-112954346D01*
X73786963Y-112951760D01*
X73782393Y-112949867D01*
X73782389Y-112949865D01*
X73572167Y-112862789D01*
X73572165Y-112862788D01*
X73567594Y-112860895D01*
X73480897Y-112840081D01*
X73341524Y-112806620D01*
X73341518Y-112806619D01*
X73336711Y-112805465D01*
X73100000Y-112786835D01*
X72863289Y-112805465D01*
X72858482Y-112806619D01*
X72858476Y-112806620D01*
X72719103Y-112840081D01*
X72632406Y-112860895D01*
X72627835Y-112862788D01*
X72627833Y-112862789D01*
X72417611Y-112949865D01*
X72417607Y-112949867D01*
X72413037Y-112951760D01*
X72408817Y-112954346D01*
X72214798Y-113073241D01*
X72214792Y-113073245D01*
X72210584Y-113075824D01*
X72030031Y-113230031D01*
X71875824Y-113410584D01*
X71873245Y-113414792D01*
X71873241Y-113414798D01*
X71793214Y-113545391D01*
X71751760Y-113613037D01*
X71749867Y-113617607D01*
X71749865Y-113617611D01*
X71662789Y-113827833D01*
X71660895Y-113832406D01*
X71659740Y-113837218D01*
X71627596Y-113971108D01*
X71605465Y-114063289D01*
X71586835Y-114300000D01*
X70600000Y-114300000D01*
X70600000Y-109300000D01*
X71586835Y-109300000D01*
X71605465Y-109536711D01*
X71606619Y-109541518D01*
X71606620Y-109541524D01*
X71641640Y-109687391D01*
X71660895Y-109767594D01*
X71662788Y-109772165D01*
X71662789Y-109772167D01*
X71745795Y-109972561D01*
X71751760Y-109986963D01*
X71754346Y-109991183D01*
X71873241Y-110185202D01*
X71873245Y-110185208D01*
X71875824Y-110189416D01*
X72030031Y-110369969D01*
X72210584Y-110524176D01*
X72214792Y-110526755D01*
X72214798Y-110526759D01*
X72371275Y-110622648D01*
X72413037Y-110648240D01*
X72417607Y-110650133D01*
X72417611Y-110650135D01*
X72531976Y-110697506D01*
X72632406Y-110739105D01*
X72712609Y-110758360D01*
X72858476Y-110793380D01*
X72858482Y-110793381D01*
X72863289Y-110794535D01*
X73100000Y-110813165D01*
X73336711Y-110794535D01*
X73341518Y-110793381D01*
X73341524Y-110793380D01*
X73487391Y-110758360D01*
X73567594Y-110739105D01*
X73668024Y-110697506D01*
X73782389Y-110650135D01*
X73782393Y-110650133D01*
X73786963Y-110648240D01*
X73828725Y-110622648D01*
X73985202Y-110526759D01*
X73985208Y-110526755D01*
X73989416Y-110524176D01*
X74169969Y-110369969D01*
X74273386Y-110248883D01*
X74312857Y-110202669D01*
X74372308Y-110163860D01*
X74408668Y-110158500D01*
X76791332Y-110158500D01*
X76859453Y-110178502D01*
X76887143Y-110202669D01*
X76926614Y-110248883D01*
X77030031Y-110369969D01*
X77210584Y-110524176D01*
X77214792Y-110526755D01*
X77214798Y-110526759D01*
X77371275Y-110622648D01*
X77413037Y-110648240D01*
X77417607Y-110650133D01*
X77417611Y-110650135D01*
X77531976Y-110697506D01*
X77632406Y-110739105D01*
X77712609Y-110758360D01*
X77858476Y-110793380D01*
X77858482Y-110793381D01*
X77863289Y-110794535D01*
X78100000Y-110813165D01*
X78104930Y-110812777D01*
X78319336Y-110795903D01*
X78388816Y-110810499D01*
X78418317Y-110832420D01*
X80163680Y-112577783D01*
X80170822Y-112585549D01*
X80204471Y-112625367D01*
X80209895Y-112629514D01*
X80209896Y-112629515D01*
X80268962Y-112674674D01*
X80271379Y-112676568D01*
X80334738Y-112727510D01*
X80340857Y-112730547D01*
X80343652Y-112732335D01*
X80344013Y-112732588D01*
X80344380Y-112732790D01*
X80347238Y-112734521D01*
X80352652Y-112738660D01*
X80398943Y-112760246D01*
X80426262Y-112772985D01*
X80429033Y-112774319D01*
X80501814Y-112810447D01*
X80508435Y-112812098D01*
X80511563Y-112813249D01*
X80511957Y-112813413D01*
X80512361Y-112813532D01*
X80515524Y-112814609D01*
X80521704Y-112817490D01*
X80600955Y-112835205D01*
X80603914Y-112835904D01*
X80682802Y-112855573D01*
X80689623Y-112855763D01*
X80692926Y-112856216D01*
X80693808Y-112856375D01*
X80698701Y-112857054D01*
X80703740Y-112858180D01*
X80709463Y-112858500D01*
X80785829Y-112858500D01*
X80789347Y-112858549D01*
X80862437Y-112860591D01*
X80862442Y-112860591D01*
X80869257Y-112860781D01*
X80875958Y-112859503D01*
X80882762Y-112858955D01*
X80882804Y-112859475D01*
X80893125Y-112858500D01*
X82208990Y-112858500D01*
X82229569Y-112860192D01*
X82235058Y-112861101D01*
X82235061Y-112861101D01*
X82241795Y-112862216D01*
X82248611Y-112861859D01*
X82248615Y-112861859D01*
X82309393Y-112858673D01*
X82315988Y-112858500D01*
X82336596Y-112858500D01*
X82355398Y-112856457D01*
X82362396Y-112855895D01*
X82428067Y-112852453D01*
X82434644Y-112850641D01*
X82434647Y-112850641D01*
X82441614Y-112848722D01*
X82461466Y-112844935D01*
X82468658Y-112844154D01*
X82468662Y-112844153D01*
X82475437Y-112843417D01*
X82481896Y-112841243D01*
X82481902Y-112841242D01*
X82485351Y-112840081D01*
X82525539Y-112833500D01*
X82948134Y-112833500D01*
X83010316Y-112826745D01*
X83146705Y-112775615D01*
X83263261Y-112688261D01*
X83350615Y-112571705D01*
X83401745Y-112435316D01*
X83408500Y-112373134D01*
X83408500Y-111626866D01*
X83401745Y-111564684D01*
X83350615Y-111428295D01*
X83263261Y-111311739D01*
X83198935Y-111263529D01*
X83156420Y-111206669D01*
X83148500Y-111162703D01*
X83148500Y-110529500D01*
X83168502Y-110461379D01*
X83222158Y-110414886D01*
X83274499Y-110403500D01*
X83467485Y-110403499D01*
X83473746Y-110403499D01*
X83510937Y-110400573D01*
X83618662Y-110369276D01*
X83662487Y-110356544D01*
X83662489Y-110356543D01*
X83670100Y-110354332D01*
X83671420Y-110353551D01*
X83739057Y-110345201D01*
X83803036Y-110375978D01*
X83840220Y-110436459D01*
X83836621Y-110513765D01*
X83801522Y-110607391D01*
X83797895Y-110622649D01*
X83792369Y-110673514D01*
X83792000Y-110680328D01*
X83792000Y-110777885D01*
X83796475Y-110793124D01*
X83797865Y-110794329D01*
X83805548Y-110796000D01*
X84637885Y-110796000D01*
X84653124Y-110791525D01*
X84654329Y-110790135D01*
X84656000Y-110782452D01*
X84656000Y-110777885D01*
X85164000Y-110777885D01*
X85168475Y-110793124D01*
X85169865Y-110794329D01*
X85177548Y-110796000D01*
X86009884Y-110796000D01*
X86025123Y-110791525D01*
X86026328Y-110790135D01*
X86027999Y-110782452D01*
X86027999Y-110680331D01*
X86027629Y-110673510D01*
X86022105Y-110622648D01*
X86018479Y-110607396D01*
X85973324Y-110486946D01*
X85964786Y-110471351D01*
X85888285Y-110369276D01*
X85875724Y-110356715D01*
X85773649Y-110280214D01*
X85758054Y-110271676D01*
X85637606Y-110226522D01*
X85622351Y-110222895D01*
X85571486Y-110217369D01*
X85564672Y-110217000D01*
X85182115Y-110217000D01*
X85166876Y-110221475D01*
X85165671Y-110222865D01*
X85164000Y-110230548D01*
X85164000Y-110777885D01*
X84656000Y-110777885D01*
X84656000Y-110235116D01*
X84651525Y-110219877D01*
X84650135Y-110218672D01*
X84642452Y-110217001D01*
X84255331Y-110217001D01*
X84248510Y-110217371D01*
X84197648Y-110222895D01*
X84182397Y-110226521D01*
X84136572Y-110243700D01*
X84065765Y-110248883D01*
X84003396Y-110214963D01*
X83969267Y-110152707D01*
X83974213Y-110081883D01*
X83983888Y-110061580D01*
X84010295Y-110016927D01*
X84010296Y-110016924D01*
X84014332Y-110010100D01*
X84017871Y-109997921D01*
X84032794Y-109946552D01*
X84060573Y-109850937D01*
X84061077Y-109844532D01*
X84061078Y-109844527D01*
X84063307Y-109816203D01*
X84063307Y-109816195D01*
X84063500Y-109813747D01*
X84063499Y-109336254D01*
X84060573Y-109299063D01*
X84022444Y-109167821D01*
X84016544Y-109147513D01*
X84016543Y-109147511D01*
X84014332Y-109139900D01*
X84004475Y-109123232D01*
X83933996Y-109004058D01*
X83933996Y-109004057D01*
X83929962Y-108997237D01*
X83923211Y-108990486D01*
X83922600Y-108989368D01*
X83919500Y-108985371D01*
X83920145Y-108984871D01*
X83889185Y-108928174D01*
X83894250Y-108857359D01*
X83907937Y-108832796D01*
X83907506Y-108832541D01*
X83986234Y-108699419D01*
X83986234Y-108699418D01*
X83990269Y-108692596D01*
X84002648Y-108649989D01*
X84033834Y-108542644D01*
X84035629Y-108536466D01*
X84036135Y-108530047D01*
X84038307Y-108502444D01*
X84038307Y-108502438D01*
X84038500Y-108499989D01*
X84038499Y-108000012D01*
X84035629Y-107963534D01*
X84004200Y-107855356D01*
X83992481Y-107815017D01*
X83992480Y-107815015D01*
X83990269Y-107807404D01*
X83939507Y-107721569D01*
X83911540Y-107674280D01*
X83907506Y-107667459D01*
X83792541Y-107552494D01*
X83784428Y-107547696D01*
X83783621Y-107546832D01*
X83779451Y-107543597D01*
X83779973Y-107542924D01*
X83735976Y-107495802D01*
X83723272Y-107425951D01*
X83739820Y-107387861D01*
X83746000Y-107359452D01*
X83746000Y-106137115D01*
X83741525Y-106121876D01*
X83740135Y-106120671D01*
X83732452Y-106119000D01*
X82760116Y-106119000D01*
X82744877Y-106123475D01*
X82743672Y-106124865D01*
X82742001Y-106132548D01*
X82742001Y-106909669D01*
X82742371Y-106916490D01*
X82747895Y-106967352D01*
X82751521Y-106982604D01*
X82796676Y-107103054D01*
X82805214Y-107118649D01*
X82881715Y-107220724D01*
X82894274Y-107233283D01*
X82912120Y-107246658D01*
X82954634Y-107303518D01*
X82959659Y-107374337D01*
X82925599Y-107436630D01*
X82881550Y-107462662D01*
X82882290Y-107464372D01*
X82875018Y-107467519D01*
X82867404Y-107469731D01*
X82860579Y-107473767D01*
X82860575Y-107473769D01*
X82814139Y-107501231D01*
X82745323Y-107518691D01*
X82685861Y-107501231D01*
X82639425Y-107473769D01*
X82639421Y-107473767D01*
X82632596Y-107469731D01*
X82624985Y-107467520D01*
X82624983Y-107467519D01*
X82482644Y-107426166D01*
X82482645Y-107426166D01*
X82476466Y-107424371D01*
X82470059Y-107423867D01*
X82470055Y-107423866D01*
X82442444Y-107421693D01*
X82442438Y-107421693D01*
X82439989Y-107421500D01*
X82240122Y-107421500D01*
X82040012Y-107421501D01*
X82003534Y-107424371D01*
X81937668Y-107443507D01*
X81855017Y-107467519D01*
X81855015Y-107467520D01*
X81847404Y-107469731D01*
X81840582Y-107473766D01*
X81840581Y-107473766D01*
X81726049Y-107541500D01*
X81707459Y-107552494D01*
X81592494Y-107667459D01*
X81588460Y-107674280D01*
X81560494Y-107721569D01*
X81509731Y-107807404D01*
X81507520Y-107815015D01*
X81507519Y-107815017D01*
X81495800Y-107855356D01*
X81464371Y-107963534D01*
X81463867Y-107969941D01*
X81463866Y-107969945D01*
X81461693Y-107997556D01*
X81461500Y-108000011D01*
X81461501Y-108499988D01*
X81464371Y-108536466D01*
X81486617Y-108613037D01*
X81497353Y-108649989D01*
X81509731Y-108692596D01*
X81513766Y-108699418D01*
X81513766Y-108699419D01*
X81572841Y-108799309D01*
X81592494Y-108832541D01*
X81602111Y-108842158D01*
X81636137Y-108904470D01*
X81631072Y-108975285D01*
X81619134Y-108996702D01*
X81620038Y-108997237D01*
X81558776Y-109100827D01*
X81535668Y-109139900D01*
X81533457Y-109147511D01*
X81533456Y-109147513D01*
X81521910Y-109187255D01*
X81515108Y-109205352D01*
X81472510Y-109296704D01*
X81431820Y-109478740D01*
X81431500Y-109484463D01*
X81431500Y-111015500D01*
X81411498Y-111083621D01*
X81357842Y-111130114D01*
X81305500Y-111141500D01*
X81207793Y-111141500D01*
X81139672Y-111121498D01*
X81118698Y-111104595D01*
X79632420Y-109618317D01*
X79598394Y-109556005D01*
X79595903Y-109519336D01*
X79612777Y-109304930D01*
X79613165Y-109300000D01*
X79594535Y-109063289D01*
X79589897Y-109043967D01*
X79548502Y-108871547D01*
X79539105Y-108832406D01*
X79535112Y-108822766D01*
X79450135Y-108617611D01*
X79450133Y-108617607D01*
X79448240Y-108613037D01*
X79425691Y-108576240D01*
X79326759Y-108414798D01*
X79326755Y-108414792D01*
X79324176Y-108410584D01*
X79169969Y-108230031D01*
X78989416Y-108075824D01*
X78985208Y-108073245D01*
X78985202Y-108073241D01*
X78791183Y-107954346D01*
X78786963Y-107951760D01*
X78782393Y-107949867D01*
X78782389Y-107949865D01*
X78572167Y-107862789D01*
X78572165Y-107862788D01*
X78567594Y-107860895D01*
X78487391Y-107841640D01*
X78341524Y-107806620D01*
X78341518Y-107806619D01*
X78336711Y-107805465D01*
X78100000Y-107786835D01*
X77863289Y-107805465D01*
X77858482Y-107806619D01*
X77858476Y-107806620D01*
X77712609Y-107841640D01*
X77632406Y-107860895D01*
X77627835Y-107862788D01*
X77627833Y-107862789D01*
X77417611Y-107949865D01*
X77417607Y-107949867D01*
X77413037Y-107951760D01*
X77408817Y-107954346D01*
X77214798Y-108073241D01*
X77214792Y-108073245D01*
X77210584Y-108075824D01*
X77030031Y-108230031D01*
X77026823Y-108233787D01*
X76887143Y-108397331D01*
X76827692Y-108436140D01*
X76791332Y-108441500D01*
X74408668Y-108441500D01*
X74340547Y-108421498D01*
X74312857Y-108397331D01*
X74173177Y-108233787D01*
X74169969Y-108230031D01*
X73989416Y-108075824D01*
X73985208Y-108073245D01*
X73985202Y-108073241D01*
X73791183Y-107954346D01*
X73786963Y-107951760D01*
X73782393Y-107949867D01*
X73782389Y-107949865D01*
X73572167Y-107862789D01*
X73572165Y-107862788D01*
X73567594Y-107860895D01*
X73487391Y-107841640D01*
X73341524Y-107806620D01*
X73341518Y-107806619D01*
X73336711Y-107805465D01*
X73100000Y-107786835D01*
X72863289Y-107805465D01*
X72858482Y-107806619D01*
X72858476Y-107806620D01*
X72712609Y-107841640D01*
X72632406Y-107860895D01*
X72627835Y-107862788D01*
X72627833Y-107862789D01*
X72417611Y-107949865D01*
X72417607Y-107949867D01*
X72413037Y-107951760D01*
X72408817Y-107954346D01*
X72214798Y-108073241D01*
X72214792Y-108073245D01*
X72210584Y-108075824D01*
X72030031Y-108230031D01*
X71875824Y-108410584D01*
X71873245Y-108414792D01*
X71873241Y-108414798D01*
X71774309Y-108576240D01*
X71751760Y-108613037D01*
X71749867Y-108617607D01*
X71749865Y-108617611D01*
X71664888Y-108822766D01*
X71660895Y-108832406D01*
X71651498Y-108871547D01*
X71610104Y-109043967D01*
X71605465Y-109063289D01*
X71586835Y-109300000D01*
X70600000Y-109300000D01*
X70600000Y-105592885D01*
X82742000Y-105592885D01*
X82746475Y-105608124D01*
X82747865Y-105609329D01*
X82755548Y-105611000D01*
X83727885Y-105611000D01*
X83743124Y-105606525D01*
X83744329Y-105605135D01*
X83746000Y-105597452D01*
X83746000Y-104375116D01*
X83741525Y-104359877D01*
X83740135Y-104358672D01*
X83732452Y-104357001D01*
X83205331Y-104357001D01*
X83198510Y-104357371D01*
X83147648Y-104362895D01*
X83132396Y-104366521D01*
X83011946Y-104411676D01*
X82996351Y-104420214D01*
X82894276Y-104496715D01*
X82881715Y-104509276D01*
X82805214Y-104611351D01*
X82796676Y-104626946D01*
X82751522Y-104747394D01*
X82747895Y-104762649D01*
X82742369Y-104813514D01*
X82742000Y-104820328D01*
X82742000Y-105592885D01*
X70600000Y-105592885D01*
X70600000Y-102600000D01*
X71586835Y-102600000D01*
X71605465Y-102836711D01*
X71606619Y-102841518D01*
X71606620Y-102841524D01*
X71636134Y-102964456D01*
X71660895Y-103067594D01*
X71662788Y-103072165D01*
X71662789Y-103072167D01*
X71744862Y-103270309D01*
X71751760Y-103286963D01*
X71754346Y-103291183D01*
X71873241Y-103485202D01*
X71873245Y-103485208D01*
X71875824Y-103489416D01*
X72030031Y-103669969D01*
X72210584Y-103824176D01*
X72214792Y-103826755D01*
X72214798Y-103826759D01*
X72408817Y-103945654D01*
X72413037Y-103948240D01*
X72417607Y-103950133D01*
X72417611Y-103950135D01*
X72627833Y-104037211D01*
X72632406Y-104039105D01*
X72712609Y-104058360D01*
X72858476Y-104093380D01*
X72858482Y-104093381D01*
X72863289Y-104094535D01*
X73100000Y-104113165D01*
X73336711Y-104094535D01*
X73341518Y-104093381D01*
X73341524Y-104093380D01*
X73487391Y-104058360D01*
X73567594Y-104039105D01*
X73572167Y-104037211D01*
X73782389Y-103950135D01*
X73782393Y-103950133D01*
X73786963Y-103948240D01*
X73791183Y-103945654D01*
X73985202Y-103826759D01*
X73985208Y-103826755D01*
X73989416Y-103824176D01*
X74169969Y-103669969D01*
X74324176Y-103489416D01*
X74326755Y-103485208D01*
X74326759Y-103485202D01*
X74445654Y-103291183D01*
X74448240Y-103286963D01*
X74455139Y-103270309D01*
X74537211Y-103072167D01*
X74537212Y-103072165D01*
X74539105Y-103067594D01*
X74563866Y-102964456D01*
X74593380Y-102841524D01*
X74593381Y-102841518D01*
X74594535Y-102836711D01*
X74613165Y-102600000D01*
X76586835Y-102600000D01*
X76605465Y-102836711D01*
X76606619Y-102841518D01*
X76606620Y-102841524D01*
X76636134Y-102964456D01*
X76660895Y-103067594D01*
X76662788Y-103072165D01*
X76662789Y-103072167D01*
X76744862Y-103270309D01*
X76751760Y-103286963D01*
X76754346Y-103291183D01*
X76873241Y-103485202D01*
X76873245Y-103485208D01*
X76875824Y-103489416D01*
X77030031Y-103669969D01*
X77210584Y-103824176D01*
X77214792Y-103826755D01*
X77214798Y-103826759D01*
X77408817Y-103945654D01*
X77413037Y-103948240D01*
X77417607Y-103950133D01*
X77417611Y-103950135D01*
X77627833Y-104037211D01*
X77632406Y-104039105D01*
X77712609Y-104058360D01*
X77858476Y-104093380D01*
X77858482Y-104093381D01*
X77863289Y-104094535D01*
X78100000Y-104113165D01*
X78336711Y-104094535D01*
X78341518Y-104093381D01*
X78341524Y-104093380D01*
X78487391Y-104058360D01*
X78567594Y-104039105D01*
X78572167Y-104037211D01*
X78782389Y-103950135D01*
X78782393Y-103950133D01*
X78786963Y-103948240D01*
X78791183Y-103945654D01*
X78985202Y-103826759D01*
X78985208Y-103826755D01*
X78989416Y-103824176D01*
X79169969Y-103669969D01*
X79324176Y-103489416D01*
X79326755Y-103485208D01*
X79326759Y-103485202D01*
X79445654Y-103291183D01*
X79448240Y-103286963D01*
X79455139Y-103270309D01*
X79537211Y-103072167D01*
X79537212Y-103072165D01*
X79539105Y-103067594D01*
X79563866Y-102964456D01*
X79593380Y-102841524D01*
X79593381Y-102841518D01*
X79594535Y-102836711D01*
X79613165Y-102600000D01*
X79594535Y-102363289D01*
X79588872Y-102339697D01*
X79547804Y-102168642D01*
X79539105Y-102132406D01*
X79537211Y-102127833D01*
X79450135Y-101917611D01*
X79450133Y-101917607D01*
X79448240Y-101913037D01*
X79441758Y-101902460D01*
X79326759Y-101714798D01*
X79326755Y-101714792D01*
X79324176Y-101710584D01*
X79169969Y-101530031D01*
X78989416Y-101375824D01*
X78985208Y-101373245D01*
X78985202Y-101373241D01*
X78791183Y-101254346D01*
X78786963Y-101251760D01*
X78782393Y-101249867D01*
X78782389Y-101249865D01*
X78572167Y-101162789D01*
X78572165Y-101162788D01*
X78567594Y-101160895D01*
X78444651Y-101131379D01*
X78341524Y-101106620D01*
X78341518Y-101106619D01*
X78336711Y-101105465D01*
X78100000Y-101086835D01*
X77863289Y-101105465D01*
X77858482Y-101106619D01*
X77858476Y-101106620D01*
X77755349Y-101131379D01*
X77632406Y-101160895D01*
X77627835Y-101162788D01*
X77627833Y-101162789D01*
X77417611Y-101249865D01*
X77417607Y-101249867D01*
X77413037Y-101251760D01*
X77408817Y-101254346D01*
X77214798Y-101373241D01*
X77214792Y-101373245D01*
X77210584Y-101375824D01*
X77030031Y-101530031D01*
X76875824Y-101710584D01*
X76873245Y-101714792D01*
X76873241Y-101714798D01*
X76758242Y-101902460D01*
X76751760Y-101913037D01*
X76749867Y-101917607D01*
X76749865Y-101917611D01*
X76662789Y-102127833D01*
X76660895Y-102132406D01*
X76652196Y-102168642D01*
X76611129Y-102339697D01*
X76605465Y-102363289D01*
X76586835Y-102600000D01*
X74613165Y-102600000D01*
X74594535Y-102363289D01*
X74588872Y-102339697D01*
X74547804Y-102168642D01*
X74539105Y-102132406D01*
X74537211Y-102127833D01*
X74450135Y-101917611D01*
X74450133Y-101917607D01*
X74448240Y-101913037D01*
X74441758Y-101902460D01*
X74326759Y-101714798D01*
X74326755Y-101714792D01*
X74324176Y-101710584D01*
X74169969Y-101530031D01*
X73989416Y-101375824D01*
X73985208Y-101373245D01*
X73985202Y-101373241D01*
X73791183Y-101254346D01*
X73786963Y-101251760D01*
X73782393Y-101249867D01*
X73782389Y-101249865D01*
X73572167Y-101162789D01*
X73572165Y-101162788D01*
X73567594Y-101160895D01*
X73444651Y-101131379D01*
X73341524Y-101106620D01*
X73341518Y-101106619D01*
X73336711Y-101105465D01*
X73100000Y-101086835D01*
X72863289Y-101105465D01*
X72858482Y-101106619D01*
X72858476Y-101106620D01*
X72755349Y-101131379D01*
X72632406Y-101160895D01*
X72627835Y-101162788D01*
X72627833Y-101162789D01*
X72417611Y-101249865D01*
X72417607Y-101249867D01*
X72413037Y-101251760D01*
X72408817Y-101254346D01*
X72214798Y-101373241D01*
X72214792Y-101373245D01*
X72210584Y-101375824D01*
X72030031Y-101530031D01*
X71875824Y-101710584D01*
X71873245Y-101714792D01*
X71873241Y-101714798D01*
X71758242Y-101902460D01*
X71751760Y-101913037D01*
X71749867Y-101917607D01*
X71749865Y-101917611D01*
X71662789Y-102127833D01*
X71660895Y-102132406D01*
X71652196Y-102168642D01*
X71611129Y-102339697D01*
X71605465Y-102363289D01*
X71586835Y-102600000D01*
X70600000Y-102600000D01*
X70600000Y-98832670D01*
X72232160Y-98832670D01*
X72237887Y-98840320D01*
X72409042Y-98945205D01*
X72417837Y-98949687D01*
X72627988Y-99036734D01*
X72637373Y-99039783D01*
X72858554Y-99092885D01*
X72868301Y-99094428D01*
X73095070Y-99112275D01*
X73104930Y-99112275D01*
X73331699Y-99094428D01*
X73341446Y-99092885D01*
X73562627Y-99039783D01*
X73572012Y-99036734D01*
X73782163Y-98949687D01*
X73790958Y-98945205D01*
X73958445Y-98842568D01*
X73967400Y-98832670D01*
X77232160Y-98832670D01*
X77237887Y-98840320D01*
X77409042Y-98945205D01*
X77417837Y-98949687D01*
X77627988Y-99036734D01*
X77637373Y-99039783D01*
X77858554Y-99092885D01*
X77868301Y-99094428D01*
X78095070Y-99112275D01*
X78104930Y-99112275D01*
X78331699Y-99094428D01*
X78341446Y-99092885D01*
X78562627Y-99039783D01*
X78572012Y-99036734D01*
X78782163Y-98949687D01*
X78790958Y-98945205D01*
X78958445Y-98842568D01*
X78967907Y-98832110D01*
X78964124Y-98823334D01*
X78112812Y-97972022D01*
X78098868Y-97964408D01*
X78097035Y-97964539D01*
X78090420Y-97968790D01*
X77238920Y-98820290D01*
X77232160Y-98832670D01*
X73967400Y-98832670D01*
X73967907Y-98832110D01*
X73964124Y-98823334D01*
X73112812Y-97972022D01*
X73098868Y-97964408D01*
X73097035Y-97964539D01*
X73090420Y-97968790D01*
X72238920Y-98820290D01*
X72232160Y-98832670D01*
X70600000Y-98832670D01*
X70600000Y-97604930D01*
X71587725Y-97604930D01*
X71605572Y-97831699D01*
X71607115Y-97841446D01*
X71660217Y-98062627D01*
X71663266Y-98072012D01*
X71750313Y-98282163D01*
X71754795Y-98290958D01*
X71857432Y-98458445D01*
X71867890Y-98467907D01*
X71876666Y-98464124D01*
X72727978Y-97612812D01*
X72734356Y-97601132D01*
X73464408Y-97601132D01*
X73464539Y-97602965D01*
X73468790Y-97609580D01*
X74320290Y-98461080D01*
X74332670Y-98467840D01*
X74340320Y-98462113D01*
X74445205Y-98290958D01*
X74449687Y-98282163D01*
X74536734Y-98072012D01*
X74539783Y-98062627D01*
X74592885Y-97841446D01*
X74594428Y-97831699D01*
X74612275Y-97604930D01*
X76587725Y-97604930D01*
X76605572Y-97831699D01*
X76607115Y-97841446D01*
X76660217Y-98062627D01*
X76663266Y-98072012D01*
X76750313Y-98282163D01*
X76754795Y-98290958D01*
X76857432Y-98458445D01*
X76867890Y-98467907D01*
X76876666Y-98464124D01*
X77727978Y-97612812D01*
X77734356Y-97601132D01*
X78464408Y-97601132D01*
X78464539Y-97602965D01*
X78468790Y-97609580D01*
X79320290Y-98461080D01*
X79332670Y-98467840D01*
X79340320Y-98462113D01*
X79445205Y-98290958D01*
X79449687Y-98282163D01*
X79536734Y-98072012D01*
X79539783Y-98062627D01*
X79592885Y-97841446D01*
X79594428Y-97831699D01*
X79612275Y-97604930D01*
X79612275Y-97595070D01*
X79594428Y-97368301D01*
X79592885Y-97358554D01*
X79539783Y-97137373D01*
X79536734Y-97127988D01*
X79449687Y-96917837D01*
X79445205Y-96909042D01*
X79342568Y-96741555D01*
X79332110Y-96732093D01*
X79323334Y-96735876D01*
X78472022Y-97587188D01*
X78464408Y-97601132D01*
X77734356Y-97601132D01*
X77735592Y-97598868D01*
X77735461Y-97597035D01*
X77731210Y-97590420D01*
X76879710Y-96738920D01*
X76867330Y-96732160D01*
X76859680Y-96737887D01*
X76754795Y-96909042D01*
X76750313Y-96917837D01*
X76663266Y-97127988D01*
X76660217Y-97137373D01*
X76607115Y-97358554D01*
X76605572Y-97368301D01*
X76587725Y-97595070D01*
X76587725Y-97604930D01*
X74612275Y-97604930D01*
X74612275Y-97595070D01*
X74594428Y-97368301D01*
X74592885Y-97358554D01*
X74539783Y-97137373D01*
X74536734Y-97127988D01*
X74449687Y-96917837D01*
X74445205Y-96909042D01*
X74342568Y-96741555D01*
X74332110Y-96732093D01*
X74323334Y-96735876D01*
X73472022Y-97587188D01*
X73464408Y-97601132D01*
X72734356Y-97601132D01*
X72735592Y-97598868D01*
X72735461Y-97597035D01*
X72731210Y-97590420D01*
X71879710Y-96738920D01*
X71867330Y-96732160D01*
X71859680Y-96737887D01*
X71754795Y-96909042D01*
X71750313Y-96917837D01*
X71663266Y-97127988D01*
X71660217Y-97137373D01*
X71607115Y-97358554D01*
X71605572Y-97368301D01*
X71587725Y-97595070D01*
X71587725Y-97604930D01*
X70600000Y-97604930D01*
X70600000Y-96367890D01*
X72232093Y-96367890D01*
X72235876Y-96376666D01*
X73087188Y-97227978D01*
X73101132Y-97235592D01*
X73102965Y-97235461D01*
X73109580Y-97231210D01*
X73961080Y-96379710D01*
X73967534Y-96367890D01*
X77232093Y-96367890D01*
X77235876Y-96376666D01*
X78087188Y-97227978D01*
X78101132Y-97235592D01*
X78102965Y-97235461D01*
X78109580Y-97231210D01*
X78961080Y-96379710D01*
X78967840Y-96367330D01*
X78962113Y-96359680D01*
X78790958Y-96254795D01*
X78782163Y-96250313D01*
X78572012Y-96163266D01*
X78562627Y-96160217D01*
X78341446Y-96107115D01*
X78331699Y-96105572D01*
X78104930Y-96087725D01*
X78095070Y-96087725D01*
X77868301Y-96105572D01*
X77858554Y-96107115D01*
X77637373Y-96160217D01*
X77627988Y-96163266D01*
X77417837Y-96250313D01*
X77409042Y-96254795D01*
X77241555Y-96357432D01*
X77232093Y-96367890D01*
X73967534Y-96367890D01*
X73967840Y-96367330D01*
X73962113Y-96359680D01*
X73790958Y-96254795D01*
X73782163Y-96250313D01*
X73572012Y-96163266D01*
X73562627Y-96160217D01*
X73341446Y-96107115D01*
X73331699Y-96105572D01*
X73104930Y-96087725D01*
X73095070Y-96087725D01*
X72868301Y-96105572D01*
X72858554Y-96107115D01*
X72637373Y-96160217D01*
X72627988Y-96163266D01*
X72417837Y-96250313D01*
X72409042Y-96254795D01*
X72241555Y-96357432D01*
X72232093Y-96367890D01*
X70600000Y-96367890D01*
X70600000Y-90900000D01*
X71586835Y-90900000D01*
X71605465Y-91136711D01*
X71606619Y-91141518D01*
X71606620Y-91141524D01*
X71635074Y-91260040D01*
X71660895Y-91367594D01*
X71662788Y-91372165D01*
X71662789Y-91372167D01*
X71749545Y-91581615D01*
X71751760Y-91586963D01*
X71754346Y-91591183D01*
X71873241Y-91785202D01*
X71873245Y-91785208D01*
X71875824Y-91789416D01*
X72030031Y-91969969D01*
X72210584Y-92124176D01*
X72214792Y-92126755D01*
X72214798Y-92126759D01*
X72373127Y-92223783D01*
X72413037Y-92248240D01*
X72417607Y-92250133D01*
X72417611Y-92250135D01*
X72627833Y-92337211D01*
X72632406Y-92339105D01*
X72686826Y-92352170D01*
X72858476Y-92393380D01*
X72858482Y-92393381D01*
X72863289Y-92394535D01*
X73100000Y-92413165D01*
X73336711Y-92394535D01*
X73341518Y-92393381D01*
X73341524Y-92393380D01*
X73513174Y-92352170D01*
X73567594Y-92339105D01*
X73572167Y-92337211D01*
X73782389Y-92250135D01*
X73782393Y-92250133D01*
X73786963Y-92248240D01*
X73826873Y-92223783D01*
X73985202Y-92126759D01*
X73985208Y-92126755D01*
X73989416Y-92124176D01*
X74169969Y-91969969D01*
X74324176Y-91789416D01*
X74326755Y-91785208D01*
X74326759Y-91785202D01*
X74445654Y-91591183D01*
X74448240Y-91586963D01*
X74450456Y-91581615D01*
X74537211Y-91372167D01*
X74537212Y-91372165D01*
X74539105Y-91367594D01*
X74564926Y-91260040D01*
X74593380Y-91141524D01*
X74593381Y-91141518D01*
X74594535Y-91136711D01*
X74613165Y-90900000D01*
X76586835Y-90900000D01*
X76605465Y-91136711D01*
X76606619Y-91141518D01*
X76606620Y-91141524D01*
X76635074Y-91260040D01*
X76660895Y-91367594D01*
X76662788Y-91372165D01*
X76662789Y-91372167D01*
X76749545Y-91581615D01*
X76751760Y-91586963D01*
X76754346Y-91591183D01*
X76873241Y-91785202D01*
X76873245Y-91785208D01*
X76875824Y-91789416D01*
X77030031Y-91969969D01*
X77210584Y-92124176D01*
X77214792Y-92126755D01*
X77214798Y-92126759D01*
X77373127Y-92223783D01*
X77413037Y-92248240D01*
X77417607Y-92250133D01*
X77417611Y-92250135D01*
X77627833Y-92337211D01*
X77632406Y-92339105D01*
X77686826Y-92352170D01*
X77858476Y-92393380D01*
X77858482Y-92393381D01*
X77863289Y-92394535D01*
X78100000Y-92413165D01*
X78336711Y-92394535D01*
X78341518Y-92393381D01*
X78341524Y-92393380D01*
X78513174Y-92352170D01*
X78567594Y-92339105D01*
X78572167Y-92337211D01*
X78782389Y-92250135D01*
X78782393Y-92250133D01*
X78786963Y-92248240D01*
X78826873Y-92223783D01*
X78985202Y-92126759D01*
X78985208Y-92126755D01*
X78989416Y-92124176D01*
X79169969Y-91969969D01*
X79324176Y-91789416D01*
X79326755Y-91785208D01*
X79326759Y-91785202D01*
X79445654Y-91591183D01*
X79448240Y-91586963D01*
X79450456Y-91581615D01*
X79537211Y-91372167D01*
X79537212Y-91372165D01*
X79539105Y-91367594D01*
X79564926Y-91260040D01*
X79593380Y-91141524D01*
X79593381Y-91141518D01*
X79594535Y-91136711D01*
X79613165Y-90900000D01*
X79594535Y-90663289D01*
X79590220Y-90645312D01*
X79540260Y-90437218D01*
X79539105Y-90432406D01*
X79511192Y-90365017D01*
X79450135Y-90217611D01*
X79450133Y-90217607D01*
X79448240Y-90213037D01*
X79445654Y-90208817D01*
X79326759Y-90014798D01*
X79326755Y-90014792D01*
X79324176Y-90010584D01*
X79169969Y-89830031D01*
X78989416Y-89675824D01*
X78985208Y-89673245D01*
X78985202Y-89673241D01*
X78791183Y-89554346D01*
X78786963Y-89551760D01*
X78782393Y-89549867D01*
X78782389Y-89549865D01*
X78572167Y-89462789D01*
X78572165Y-89462788D01*
X78567594Y-89460895D01*
X78483317Y-89440662D01*
X78341524Y-89406620D01*
X78341518Y-89406619D01*
X78336711Y-89405465D01*
X78100000Y-89386835D01*
X77863289Y-89405465D01*
X77858482Y-89406619D01*
X77858476Y-89406620D01*
X77716683Y-89440662D01*
X77632406Y-89460895D01*
X77627835Y-89462788D01*
X77627833Y-89462789D01*
X77417611Y-89549865D01*
X77417607Y-89549867D01*
X77413037Y-89551760D01*
X77408817Y-89554346D01*
X77214798Y-89673241D01*
X77214792Y-89673245D01*
X77210584Y-89675824D01*
X77030031Y-89830031D01*
X76875824Y-90010584D01*
X76873245Y-90014792D01*
X76873241Y-90014798D01*
X76754346Y-90208817D01*
X76751760Y-90213037D01*
X76749867Y-90217607D01*
X76749865Y-90217611D01*
X76688808Y-90365017D01*
X76660895Y-90432406D01*
X76659740Y-90437218D01*
X76609781Y-90645312D01*
X76605465Y-90663289D01*
X76586835Y-90900000D01*
X74613165Y-90900000D01*
X74594535Y-90663289D01*
X74590220Y-90645312D01*
X74540260Y-90437218D01*
X74539105Y-90432406D01*
X74511192Y-90365017D01*
X74450135Y-90217611D01*
X74450133Y-90217607D01*
X74448240Y-90213037D01*
X74445654Y-90208817D01*
X74326759Y-90014798D01*
X74326755Y-90014792D01*
X74324176Y-90010584D01*
X74169969Y-89830031D01*
X73989416Y-89675824D01*
X73985208Y-89673245D01*
X73985202Y-89673241D01*
X73791183Y-89554346D01*
X73786963Y-89551760D01*
X73782393Y-89549867D01*
X73782389Y-89549865D01*
X73572167Y-89462789D01*
X73572165Y-89462788D01*
X73567594Y-89460895D01*
X73483317Y-89440662D01*
X73341524Y-89406620D01*
X73341518Y-89406619D01*
X73336711Y-89405465D01*
X73100000Y-89386835D01*
X72863289Y-89405465D01*
X72858482Y-89406619D01*
X72858476Y-89406620D01*
X72716683Y-89440662D01*
X72632406Y-89460895D01*
X72627835Y-89462788D01*
X72627833Y-89462789D01*
X72417611Y-89549865D01*
X72417607Y-89549867D01*
X72413037Y-89551760D01*
X72408817Y-89554346D01*
X72214798Y-89673241D01*
X72214792Y-89673245D01*
X72210584Y-89675824D01*
X72030031Y-89830031D01*
X71875824Y-90010584D01*
X71873245Y-90014792D01*
X71873241Y-90014798D01*
X71754346Y-90208817D01*
X71751760Y-90213037D01*
X71749867Y-90217607D01*
X71749865Y-90217611D01*
X71688808Y-90365017D01*
X71660895Y-90432406D01*
X71659740Y-90437218D01*
X71609781Y-90645312D01*
X71605465Y-90663289D01*
X71586835Y-90900000D01*
X70600000Y-90900000D01*
X70600000Y-84155425D01*
X97529145Y-84155425D01*
X97547070Y-84352388D01*
X97602910Y-84542119D01*
X97605763Y-84547577D01*
X97605765Y-84547581D01*
X97637967Y-84609176D01*
X97694540Y-84717390D01*
X97818468Y-84871525D01*
X97823192Y-84875489D01*
X97830433Y-84881565D01*
X97969974Y-84998654D01*
X97975372Y-85001621D01*
X97975377Y-85001625D01*
X98118680Y-85080405D01*
X98143287Y-85093933D01*
X98149154Y-85095794D01*
X98149156Y-85095795D01*
X98250679Y-85128000D01*
X98331806Y-85153735D01*
X98485727Y-85171000D01*
X98592269Y-85171000D01*
X98595325Y-85170700D01*
X98595332Y-85170700D01*
X98653840Y-85164963D01*
X98739333Y-85156580D01*
X98745234Y-85154798D01*
X98745236Y-85154798D01*
X98833994Y-85128000D01*
X98928669Y-85099416D01*
X99103296Y-85006566D01*
X99189562Y-84936209D01*
X99251787Y-84885460D01*
X99251790Y-84885457D01*
X99256562Y-84881565D01*
X99268844Y-84866719D01*
X99378701Y-84733925D01*
X99378703Y-84733921D01*
X99382630Y-84729175D01*
X99476698Y-84555201D01*
X99535182Y-84366268D01*
X99555855Y-84169575D01*
X99537930Y-83972612D01*
X99482090Y-83782881D01*
X99472419Y-83764381D01*
X99393313Y-83613068D01*
X99390460Y-83607610D01*
X99266532Y-83453475D01*
X99260227Y-83448184D01*
X99243834Y-83434429D01*
X99115026Y-83326346D01*
X99109628Y-83323379D01*
X99109623Y-83323375D01*
X98947108Y-83234033D01*
X98947109Y-83234033D01*
X98941713Y-83231067D01*
X98935846Y-83229206D01*
X98935844Y-83229205D01*
X98759064Y-83173127D01*
X98759063Y-83173127D01*
X98753194Y-83171265D01*
X98599273Y-83154000D01*
X98492731Y-83154000D01*
X98489675Y-83154300D01*
X98489668Y-83154300D01*
X98431160Y-83160037D01*
X98345667Y-83168420D01*
X98339766Y-83170202D01*
X98339764Y-83170202D01*
X98266447Y-83192338D01*
X98156331Y-83225584D01*
X97981704Y-83318434D01*
X97895438Y-83388791D01*
X97833213Y-83439540D01*
X97833210Y-83439543D01*
X97828438Y-83443435D01*
X97824511Y-83448182D01*
X97824509Y-83448184D01*
X97706299Y-83591075D01*
X97706297Y-83591079D01*
X97702370Y-83595825D01*
X97608302Y-83769799D01*
X97549818Y-83958732D01*
X97529145Y-84155425D01*
X70600000Y-84155425D01*
X70600000Y-80926000D01*
X70620002Y-80857879D01*
X70673658Y-80811386D01*
X70726000Y-80800000D01*
X134474000Y-80800000D01*
X134542121Y-80820002D01*
G37*
%TD.AperFunction*%
%TA.AperFunction,Conductor*%
G36*
X111334121Y-113678991D02*
G01*
X111380614Y-113732647D01*
X111392000Y-113784989D01*
X111392000Y-114327885D01*
X111396475Y-114343124D01*
X111397865Y-114344329D01*
X111405548Y-114346000D01*
X112528000Y-114346000D01*
X112596121Y-114366002D01*
X112642614Y-114419658D01*
X112654000Y-114472000D01*
X112654000Y-114728000D01*
X112633998Y-114796121D01*
X112580342Y-114842614D01*
X112528000Y-114854000D01*
X111410116Y-114854000D01*
X111394877Y-114858475D01*
X111393672Y-114859865D01*
X111392001Y-114867548D01*
X111392001Y-115415011D01*
X111371999Y-115483132D01*
X111318343Y-115529625D01*
X111266001Y-115541011D01*
X109563750Y-115541011D01*
X109495629Y-115521009D01*
X109474655Y-115504106D01*
X108725404Y-114754855D01*
X108691378Y-114692543D01*
X108688499Y-114665760D01*
X108688499Y-114550012D01*
X108685629Y-114513534D01*
X108640269Y-114357404D01*
X108632537Y-114344329D01*
X108561540Y-114224280D01*
X108557506Y-114217459D01*
X108442541Y-114102494D01*
X108436804Y-114099101D01*
X108395569Y-114042000D01*
X108391720Y-113971108D01*
X108426810Y-113909389D01*
X108436183Y-113901266D01*
X108442541Y-113897506D01*
X108557506Y-113782541D01*
X108561540Y-113775720D01*
X108561544Y-113775715D01*
X108593991Y-113720850D01*
X108645883Y-113672397D01*
X108702444Y-113658989D01*
X111266000Y-113658989D01*
X111334121Y-113678991D01*
G37*
%TD.AperFunction*%
%TA.AperFunction,Conductor*%
G36*
X103163621Y-107766002D02*
G01*
X103210114Y-107819658D01*
X103221500Y-107872000D01*
X103221500Y-107958610D01*
X103221058Y-107969152D01*
X103216696Y-108021099D01*
X103217598Y-108027859D01*
X103217598Y-108027861D01*
X103227437Y-108101602D01*
X103227807Y-108104657D01*
X103229469Y-108119953D01*
X103236583Y-108185437D01*
X103238757Y-108191898D01*
X103239478Y-108195176D01*
X103239548Y-108195572D01*
X103239671Y-108195996D01*
X103240462Y-108199216D01*
X103241366Y-108205989D01*
X103267733Y-108278431D01*
X103269139Y-108282294D01*
X103270156Y-108285198D01*
X103296078Y-108362223D01*
X103299595Y-108368076D01*
X103300985Y-108371084D01*
X103301152Y-108371489D01*
X103301357Y-108371865D01*
X103302827Y-108374852D01*
X103305162Y-108381268D01*
X103308822Y-108387035D01*
X103348678Y-108449838D01*
X103350296Y-108452457D01*
X103356003Y-108461955D01*
X103374000Y-108526850D01*
X103374000Y-108793558D01*
X103377973Y-108807089D01*
X103385871Y-108808224D01*
X103511787Y-108771642D01*
X103520970Y-108767668D01*
X103591432Y-108758970D01*
X103660107Y-108794209D01*
X103843674Y-108977776D01*
X103850816Y-108985542D01*
X103884471Y-109025367D01*
X103889890Y-109029510D01*
X103889892Y-109029512D01*
X103949008Y-109074710D01*
X103951429Y-109076609D01*
X104009418Y-109123232D01*
X104014738Y-109127509D01*
X104020850Y-109130543D01*
X104023644Y-109132330D01*
X104024004Y-109132582D01*
X104024373Y-109132785D01*
X104027234Y-109134517D01*
X104032652Y-109138660D01*
X104038835Y-109141543D01*
X104038838Y-109141545D01*
X104106268Y-109172989D01*
X104109041Y-109174323D01*
X104175700Y-109207413D01*
X104175704Y-109207415D01*
X104181813Y-109210447D01*
X104188432Y-109212097D01*
X104191568Y-109213251D01*
X104191957Y-109213413D01*
X104192379Y-109213537D01*
X104195519Y-109214606D01*
X104201704Y-109217490D01*
X104277081Y-109234338D01*
X104280998Y-109235214D01*
X104283994Y-109235923D01*
X104353669Y-109253295D01*
X104362801Y-109255572D01*
X104369622Y-109255763D01*
X104372925Y-109256215D01*
X104373809Y-109256374D01*
X104378692Y-109257052D01*
X104383740Y-109258180D01*
X104389463Y-109258500D01*
X104465844Y-109258500D01*
X104469363Y-109258549D01*
X104549257Y-109260781D01*
X104555961Y-109259502D01*
X104562762Y-109258955D01*
X104562804Y-109259475D01*
X104573125Y-109258500D01*
X106116182Y-109258500D01*
X106184303Y-109278502D01*
X106230796Y-109332158D01*
X106240900Y-109402432D01*
X106224635Y-109448639D01*
X106164230Y-109550778D01*
X106157981Y-109565217D01*
X106116662Y-109707436D01*
X106114363Y-109720023D01*
X106113740Y-109727943D01*
X106116910Y-109743030D01*
X106128374Y-109746000D01*
X107005500Y-109746000D01*
X107073621Y-109766002D01*
X107120114Y-109819658D01*
X107131500Y-109872000D01*
X107131501Y-110128000D01*
X107111499Y-110196120D01*
X107057844Y-110242613D01*
X107005501Y-110254000D01*
X106130434Y-110254000D01*
X106115639Y-110258344D01*
X106113579Y-110270003D01*
X106114363Y-110279977D01*
X106116662Y-110292564D01*
X106157981Y-110434783D01*
X106164230Y-110449222D01*
X106238854Y-110575405D01*
X106248501Y-110587841D01*
X106337065Y-110676405D01*
X106371091Y-110738717D01*
X106366026Y-110809532D01*
X106323479Y-110866368D01*
X106256959Y-110891179D01*
X106247970Y-110891500D01*
X104952664Y-110891500D01*
X104884543Y-110871498D01*
X104863569Y-110854595D01*
X102902905Y-108893931D01*
X102868879Y-108831619D01*
X102866000Y-108804836D01*
X102866000Y-108272115D01*
X102861525Y-108256876D01*
X102860135Y-108255671D01*
X102852452Y-108254000D01*
X102315164Y-108254000D01*
X102247043Y-108233998D01*
X102226069Y-108217095D01*
X101970069Y-107961095D01*
X101936043Y-107898783D01*
X101941108Y-107827968D01*
X101983655Y-107771132D01*
X102050175Y-107746321D01*
X102059164Y-107746000D01*
X103095500Y-107746000D01*
X103163621Y-107766002D01*
G37*
%TD.AperFunction*%
%TA.AperFunction,Conductor*%
G36*
X91333621Y-100443502D02*
G01*
X91380114Y-100497158D01*
X91391500Y-100549500D01*
X91391500Y-100613134D01*
X91398255Y-100675316D01*
X91449385Y-100811705D01*
X91536739Y-100928261D01*
X91653295Y-101015615D01*
X91789684Y-101066745D01*
X91851866Y-101073500D01*
X95748134Y-101073500D01*
X95810316Y-101066745D01*
X95946705Y-101015615D01*
X96063261Y-100928261D01*
X96150615Y-100811705D01*
X96201745Y-100675316D01*
X96208500Y-100613134D01*
X96208500Y-100549500D01*
X96228502Y-100481379D01*
X96282158Y-100434886D01*
X96334500Y-100423500D01*
X98765500Y-100423500D01*
X98833621Y-100443502D01*
X98880114Y-100497158D01*
X98891500Y-100549500D01*
X98891500Y-100613134D01*
X98898255Y-100675316D01*
X98949385Y-100811705D01*
X99036739Y-100928261D01*
X99153295Y-101015615D01*
X99289684Y-101066745D01*
X99351866Y-101073500D01*
X103248134Y-101073500D01*
X103310316Y-101066745D01*
X103446705Y-101015615D01*
X103563261Y-100928261D01*
X103650615Y-100811705D01*
X103701745Y-100675316D01*
X103708500Y-100613134D01*
X103708500Y-100549500D01*
X103728502Y-100481379D01*
X103782158Y-100434886D01*
X103834500Y-100423500D01*
X105465500Y-100423500D01*
X105533621Y-100443502D01*
X105580114Y-100497158D01*
X105591500Y-100549500D01*
X105591500Y-101848134D01*
X105598255Y-101910316D01*
X105649385Y-102046705D01*
X105736739Y-102163261D01*
X105853295Y-102250615D01*
X105861703Y-102253767D01*
X105937774Y-102282285D01*
X105994538Y-102324927D01*
X106019238Y-102391488D01*
X106004030Y-102460837D01*
X105953744Y-102510955D01*
X105937774Y-102518249D01*
X105861946Y-102546676D01*
X105846351Y-102555214D01*
X105744276Y-102631715D01*
X105731715Y-102644276D01*
X105655214Y-102746351D01*
X105646676Y-102761946D01*
X105601522Y-102882394D01*
X105597895Y-102897649D01*
X105592369Y-102948514D01*
X105592000Y-102955328D01*
X105592000Y-103627885D01*
X105596475Y-103643124D01*
X105597865Y-103644329D01*
X105605548Y-103646000D01*
X109189884Y-103646000D01*
X109205123Y-103641525D01*
X109206328Y-103640135D01*
X109207999Y-103632452D01*
X109207999Y-102955331D01*
X109207629Y-102948510D01*
X109202105Y-102897648D01*
X109198479Y-102882396D01*
X109153324Y-102761946D01*
X109144786Y-102746351D01*
X109068285Y-102644276D01*
X109055724Y-102631715D01*
X108953649Y-102555214D01*
X108938054Y-102546676D01*
X108862226Y-102518249D01*
X108805462Y-102475607D01*
X108780762Y-102409046D01*
X108795970Y-102339697D01*
X108846256Y-102289579D01*
X108862226Y-102282285D01*
X108938297Y-102253767D01*
X108946705Y-102250615D01*
X109063261Y-102163261D01*
X109150615Y-102046705D01*
X109201745Y-101910316D01*
X109206028Y-101870892D01*
X109233270Y-101805330D01*
X109291634Y-101764904D01*
X109331291Y-101758500D01*
X109365500Y-101758500D01*
X109433621Y-101778502D01*
X109480114Y-101832158D01*
X109491500Y-101884500D01*
X109491500Y-102548134D01*
X109498255Y-102610316D01*
X109549385Y-102746705D01*
X109636739Y-102863261D01*
X109684660Y-102899176D01*
X109727173Y-102956033D01*
X109732199Y-103026851D01*
X109698139Y-103089145D01*
X109684670Y-103100817D01*
X109636739Y-103136739D01*
X109549385Y-103253295D01*
X109498255Y-103389684D01*
X109491500Y-103451866D01*
X109491500Y-104548134D01*
X109498255Y-104610316D01*
X109549385Y-104746705D01*
X109636739Y-104863261D01*
X109684660Y-104899176D01*
X109727173Y-104956033D01*
X109732199Y-105026851D01*
X109698139Y-105089145D01*
X109684670Y-105100817D01*
X109636739Y-105136739D01*
X109549385Y-105253295D01*
X109498255Y-105389684D01*
X109491500Y-105451866D01*
X109491500Y-106548134D01*
X109498255Y-106610316D01*
X109549385Y-106746705D01*
X109636739Y-106863261D01*
X109684660Y-106899176D01*
X109727173Y-106956033D01*
X109732199Y-107026851D01*
X109698139Y-107089145D01*
X109684670Y-107100817D01*
X109636739Y-107136739D01*
X109549385Y-107253295D01*
X109498255Y-107389684D01*
X109491500Y-107451866D01*
X109491500Y-108548134D01*
X109498255Y-108610316D01*
X109549385Y-108746705D01*
X109636739Y-108863261D01*
X109684660Y-108899176D01*
X109727173Y-108956033D01*
X109732199Y-109026851D01*
X109698139Y-109089145D01*
X109684670Y-109100817D01*
X109636739Y-109136739D01*
X109549385Y-109253295D01*
X109498255Y-109389684D01*
X109491500Y-109451866D01*
X109491500Y-110465989D01*
X109471498Y-110534110D01*
X109417842Y-110580603D01*
X109365500Y-110591989D01*
X108764683Y-110591989D01*
X108696562Y-110571987D01*
X108650069Y-110518331D01*
X108639965Y-110448057D01*
X108643686Y-110430836D01*
X108683834Y-110292644D01*
X108685629Y-110286466D01*
X108687843Y-110258344D01*
X108688307Y-110252444D01*
X108688307Y-110252438D01*
X108688500Y-110249989D01*
X108688499Y-109750012D01*
X108685629Y-109713534D01*
X108640269Y-109557404D01*
X108557506Y-109417459D01*
X108551900Y-109411853D01*
X108547044Y-109405593D01*
X108549172Y-109403943D01*
X108521379Y-109353046D01*
X108518500Y-109326263D01*
X108518500Y-109073737D01*
X108538502Y-109005616D01*
X108547346Y-108994642D01*
X108547044Y-108994407D01*
X108551900Y-108988147D01*
X108557506Y-108982541D01*
X108585163Y-108935775D01*
X108636234Y-108849419D01*
X108636234Y-108849418D01*
X108640269Y-108842596D01*
X108643230Y-108832406D01*
X108683834Y-108692644D01*
X108685629Y-108686466D01*
X108688500Y-108649989D01*
X108688499Y-108150012D01*
X108685629Y-108113534D01*
X108652648Y-108000012D01*
X108642481Y-107965017D01*
X108642480Y-107965015D01*
X108640269Y-107957404D01*
X108635811Y-107949865D01*
X108561540Y-107824280D01*
X108557506Y-107817459D01*
X108442541Y-107702494D01*
X108435720Y-107698460D01*
X108309419Y-107623766D01*
X108309418Y-107623766D01*
X108302596Y-107619731D01*
X108294985Y-107617520D01*
X108294983Y-107617519D01*
X108184418Y-107585397D01*
X108146466Y-107574371D01*
X108140059Y-107573867D01*
X108140055Y-107573866D01*
X108112444Y-107571693D01*
X108112438Y-107571693D01*
X108109989Y-107571500D01*
X107910122Y-107571500D01*
X107710012Y-107571501D01*
X107673534Y-107574371D01*
X107622971Y-107589061D01*
X107525017Y-107617519D01*
X107525015Y-107617520D01*
X107517404Y-107619731D01*
X107510579Y-107623767D01*
X107510575Y-107623769D01*
X107464139Y-107651231D01*
X107395323Y-107668691D01*
X107335861Y-107651231D01*
X107289423Y-107623767D01*
X107289414Y-107623763D01*
X107282596Y-107619731D01*
X107274983Y-107617519D01*
X107200441Y-107595863D01*
X107182346Y-107589061D01*
X107174488Y-107585397D01*
X107174484Y-107585396D01*
X107168296Y-107582510D01*
X107161636Y-107581021D01*
X107161632Y-107581020D01*
X107044359Y-107554807D01*
X106986260Y-107541820D01*
X106980537Y-107541500D01*
X105064500Y-107541500D01*
X104996379Y-107521498D01*
X104949886Y-107467842D01*
X104938500Y-107415500D01*
X104938500Y-106386391D01*
X104938942Y-106375848D01*
X104942733Y-106330700D01*
X104943304Y-106323902D01*
X104934262Y-106256126D01*
X104932563Y-106243395D01*
X104932193Y-106240341D01*
X104924154Y-106166349D01*
X104923417Y-106159563D01*
X104921239Y-106153092D01*
X104920527Y-106149852D01*
X104920450Y-106149417D01*
X104920334Y-106149017D01*
X104919537Y-106145774D01*
X104918635Y-106139012D01*
X104890839Y-106062644D01*
X104889841Y-106059794D01*
X104888935Y-106057100D01*
X104865081Y-105986221D01*
X104858500Y-105946032D01*
X104858500Y-104844669D01*
X105592001Y-104844669D01*
X105592371Y-104851490D01*
X105597895Y-104902352D01*
X105601521Y-104917604D01*
X105646676Y-105038054D01*
X105655214Y-105053649D01*
X105731715Y-105155724D01*
X105744276Y-105168285D01*
X105846351Y-105244786D01*
X105861946Y-105253324D01*
X105982394Y-105298478D01*
X105997649Y-105302105D01*
X106048514Y-105307631D01*
X106055328Y-105308000D01*
X107127885Y-105308000D01*
X107143124Y-105303525D01*
X107144329Y-105302135D01*
X107146000Y-105294452D01*
X107146000Y-105289884D01*
X107654000Y-105289884D01*
X107658475Y-105305123D01*
X107659865Y-105306328D01*
X107667548Y-105307999D01*
X108744669Y-105307999D01*
X108751490Y-105307629D01*
X108802352Y-105302105D01*
X108817604Y-105298479D01*
X108938054Y-105253324D01*
X108953649Y-105244786D01*
X109055724Y-105168285D01*
X109068285Y-105155724D01*
X109144786Y-105053649D01*
X109153324Y-105038054D01*
X109198478Y-104917606D01*
X109202105Y-104902351D01*
X109207631Y-104851486D01*
X109208000Y-104844672D01*
X109208000Y-104172115D01*
X109203525Y-104156876D01*
X109202135Y-104155671D01*
X109194452Y-104154000D01*
X107672115Y-104154000D01*
X107656876Y-104158475D01*
X107655671Y-104159865D01*
X107654000Y-104167548D01*
X107654000Y-105289884D01*
X107146000Y-105289884D01*
X107146000Y-104172115D01*
X107141525Y-104156876D01*
X107140135Y-104155671D01*
X107132452Y-104154000D01*
X105610116Y-104154000D01*
X105594877Y-104158475D01*
X105593672Y-104159865D01*
X105592001Y-104167548D01*
X105592001Y-104844669D01*
X104858500Y-104844669D01*
X104858500Y-104816866D01*
X104851745Y-104754684D01*
X104800615Y-104618295D01*
X104713261Y-104501739D01*
X104596705Y-104414385D01*
X104460316Y-104363255D01*
X104398134Y-104356500D01*
X103607793Y-104356500D01*
X103539672Y-104336498D01*
X103518698Y-104319595D01*
X102421320Y-103222217D01*
X102414177Y-103214450D01*
X102413714Y-103213902D01*
X102380529Y-103174633D01*
X102367649Y-103164785D01*
X102316038Y-103125326D01*
X102313615Y-103123427D01*
X102255583Y-103076768D01*
X102255582Y-103076767D01*
X102250262Y-103072490D01*
X102244143Y-103069453D01*
X102241348Y-103067665D01*
X102240987Y-103067412D01*
X102240620Y-103067210D01*
X102237762Y-103065479D01*
X102232348Y-103061340D01*
X102158736Y-103027014D01*
X102155964Y-103025680D01*
X102154921Y-103025162D01*
X102083186Y-102989553D01*
X102076565Y-102987902D01*
X102073437Y-102986751D01*
X102073044Y-102986587D01*
X102072639Y-102986468D01*
X102069475Y-102985391D01*
X102063296Y-102982510D01*
X101984000Y-102964785D01*
X101981002Y-102964076D01*
X101908821Y-102946079D01*
X101908820Y-102946079D01*
X101902199Y-102944428D01*
X101895378Y-102944237D01*
X101892075Y-102943785D01*
X101891191Y-102943626D01*
X101886308Y-102942948D01*
X101881260Y-102941820D01*
X101875537Y-102941500D01*
X101799156Y-102941500D01*
X101795637Y-102941451D01*
X101715743Y-102939219D01*
X101709039Y-102940498D01*
X101702238Y-102941045D01*
X101702196Y-102940525D01*
X101691875Y-102941500D01*
X98206390Y-102941500D01*
X98195847Y-102941058D01*
X98195692Y-102941045D01*
X98143901Y-102936696D01*
X98137141Y-102937598D01*
X98137139Y-102937598D01*
X98063398Y-102947437D01*
X98060343Y-102947807D01*
X98028111Y-102951309D01*
X97979563Y-102956583D01*
X97973099Y-102958758D01*
X97969824Y-102959478D01*
X97969428Y-102959548D01*
X97969004Y-102959671D01*
X97965784Y-102960462D01*
X97959011Y-102961366D01*
X97882677Y-102989149D01*
X97879802Y-102990156D01*
X97872582Y-102992586D01*
X97802777Y-103016078D01*
X97796923Y-103019596D01*
X97793916Y-103020985D01*
X97793511Y-103021152D01*
X97793135Y-103021357D01*
X97790148Y-103022827D01*
X97783732Y-103025162D01*
X97715080Y-103068730D01*
X97712611Y-103070255D01*
X97642891Y-103112147D01*
X97637934Y-103116834D01*
X97635277Y-103118851D01*
X97634531Y-103119369D01*
X97630598Y-103122344D01*
X97626241Y-103125109D01*
X97621968Y-103128930D01*
X97567990Y-103182908D01*
X97565468Y-103185362D01*
X97507364Y-103240308D01*
X97503526Y-103245956D01*
X97499107Y-103251148D01*
X97498707Y-103250808D01*
X97492098Y-103258800D01*
X96463606Y-104287291D01*
X96401294Y-104321317D01*
X96330478Y-104316252D01*
X96285416Y-104287291D01*
X95420342Y-103422217D01*
X95413199Y-103414450D01*
X95383957Y-103379847D01*
X95379551Y-103374633D01*
X95315053Y-103325321D01*
X95312637Y-103323427D01*
X95254605Y-103276768D01*
X95254604Y-103276767D01*
X95249284Y-103272490D01*
X95243165Y-103269453D01*
X95240370Y-103267665D01*
X95240009Y-103267412D01*
X95239642Y-103267210D01*
X95236784Y-103265479D01*
X95231370Y-103261340D01*
X95157758Y-103227014D01*
X95154986Y-103225680D01*
X95153943Y-103225162D01*
X95082208Y-103189553D01*
X95075587Y-103187902D01*
X95072459Y-103186751D01*
X95072066Y-103186587D01*
X95071661Y-103186468D01*
X95068497Y-103185391D01*
X95062318Y-103182510D01*
X94983022Y-103164785D01*
X94980024Y-103164076D01*
X94907843Y-103146079D01*
X94907842Y-103146079D01*
X94901221Y-103144428D01*
X94894400Y-103144237D01*
X94891097Y-103143785D01*
X94890213Y-103143626D01*
X94885330Y-103142948D01*
X94880282Y-103141820D01*
X94874559Y-103141500D01*
X94798178Y-103141500D01*
X94794659Y-103141451D01*
X94714765Y-103139219D01*
X94708061Y-103140498D01*
X94701260Y-103141045D01*
X94701218Y-103140525D01*
X94690897Y-103141500D01*
X90506390Y-103141500D01*
X90495847Y-103141058D01*
X90495692Y-103141045D01*
X90443901Y-103136696D01*
X90437141Y-103137598D01*
X90437139Y-103137598D01*
X90363398Y-103147437D01*
X90360343Y-103147807D01*
X90328111Y-103151309D01*
X90279563Y-103156583D01*
X90273099Y-103158758D01*
X90269824Y-103159478D01*
X90269428Y-103159548D01*
X90269004Y-103159671D01*
X90265784Y-103160462D01*
X90259011Y-103161366D01*
X90182677Y-103189149D01*
X90179802Y-103190156D01*
X90172582Y-103192586D01*
X90102777Y-103216078D01*
X90096923Y-103219596D01*
X90093916Y-103220985D01*
X90093511Y-103221152D01*
X90093135Y-103221357D01*
X90090148Y-103222827D01*
X90083732Y-103225162D01*
X90015080Y-103268730D01*
X90012611Y-103270255D01*
X89942891Y-103312147D01*
X89937934Y-103316834D01*
X89935277Y-103318851D01*
X89934531Y-103319369D01*
X89930598Y-103322344D01*
X89926241Y-103325109D01*
X89921968Y-103328930D01*
X89867990Y-103382908D01*
X89865468Y-103385362D01*
X89807364Y-103440308D01*
X89803526Y-103445956D01*
X89799107Y-103451148D01*
X89798708Y-103450808D01*
X89792100Y-103458798D01*
X88931301Y-104319596D01*
X88868989Y-104353621D01*
X88842206Y-104356500D01*
X87801866Y-104356500D01*
X87739684Y-104363255D01*
X87603295Y-104414385D01*
X87596110Y-104419770D01*
X87596108Y-104419771D01*
X87525565Y-104472640D01*
X87459058Y-104497488D01*
X87389676Y-104482435D01*
X87374435Y-104472640D01*
X87303892Y-104419771D01*
X87303890Y-104419770D01*
X87296705Y-104414385D01*
X87286092Y-104410406D01*
X87240270Y-104393228D01*
X87183505Y-104350586D01*
X87158806Y-104284024D01*
X87158500Y-104275246D01*
X87158500Y-101199500D01*
X87178502Y-101131379D01*
X87232158Y-101084886D01*
X87284500Y-101073500D01*
X88248134Y-101073500D01*
X88310316Y-101066745D01*
X88446705Y-101015615D01*
X88563261Y-100928261D01*
X88650615Y-100811705D01*
X88701745Y-100675316D01*
X88708500Y-100613134D01*
X88708500Y-100549500D01*
X88728502Y-100481379D01*
X88782158Y-100434886D01*
X88834500Y-100423500D01*
X91265500Y-100423500D01*
X91333621Y-100443502D01*
G37*
%TD.AperFunction*%
%TA.AperFunction,Conductor*%
G36*
X103194464Y-88182146D02*
G01*
X103222987Y-88203536D01*
X103815685Y-88796234D01*
X103826552Y-88808625D01*
X103846013Y-88833987D01*
X103852563Y-88839013D01*
X103877921Y-88858471D01*
X103877928Y-88858477D01*
X103920995Y-88891523D01*
X103973125Y-88931524D01*
X104121150Y-88992838D01*
X104240115Y-89008500D01*
X104240120Y-89008500D01*
X104240129Y-89008501D01*
X104271812Y-89012672D01*
X104280000Y-89013750D01*
X104311693Y-89009578D01*
X104328136Y-89008500D01*
X119900931Y-89008500D01*
X119969052Y-89028502D01*
X120006734Y-89066078D01*
X120023478Y-89091970D01*
X120032370Y-89096000D01*
X122145158Y-89096000D01*
X122209297Y-89113547D01*
X122232907Y-89127510D01*
X122286399Y-89159145D01*
X122294010Y-89161356D01*
X122294012Y-89161357D01*
X122334037Y-89172985D01*
X122446169Y-89205562D01*
X122452574Y-89206066D01*
X122452579Y-89206067D01*
X122481042Y-89208307D01*
X122481050Y-89208307D01*
X122483498Y-89208500D01*
X123116761Y-89208500D01*
X123184882Y-89228502D01*
X123231375Y-89282158D01*
X123241479Y-89352432D01*
X123211985Y-89417012D01*
X123205856Y-89423595D01*
X122694855Y-89934596D01*
X122632543Y-89968622D01*
X122605760Y-89971501D01*
X122556513Y-89971501D01*
X122488392Y-89951499D01*
X122441899Y-89897843D01*
X122431795Y-89827569D01*
X122448060Y-89781360D01*
X122454649Y-89770219D01*
X122460893Y-89755790D01*
X122499939Y-89621395D01*
X122499899Y-89607294D01*
X122492630Y-89604000D01*
X120038122Y-89604000D01*
X120024591Y-89607973D01*
X120023456Y-89615871D01*
X120064107Y-89755790D01*
X120070352Y-89770221D01*
X120146911Y-89899678D01*
X120156551Y-89912104D01*
X120163818Y-89919371D01*
X120197844Y-89981683D01*
X120192779Y-90052498D01*
X120156629Y-90101664D01*
X120157459Y-90102494D01*
X120042494Y-90217459D01*
X120038460Y-90224280D01*
X120038458Y-90224283D01*
X120004605Y-90281526D01*
X119996258Y-90293902D01*
X119951340Y-90352652D01*
X119911674Y-90437717D01*
X119876320Y-90513534D01*
X119872510Y-90521704D01*
X119871024Y-90528352D01*
X119871023Y-90528355D01*
X119847436Y-90633879D01*
X119844835Y-90643653D01*
X119844321Y-90645312D01*
X119844320Y-90645317D01*
X119842304Y-90651829D01*
X119841733Y-90658626D01*
X119840928Y-90662767D01*
X119840209Y-90666208D01*
X119833479Y-90696320D01*
X119831820Y-90703740D01*
X119831500Y-90709463D01*
X119831500Y-90775214D01*
X119831058Y-90785756D01*
X119826696Y-90837703D01*
X119827598Y-90844463D01*
X119827598Y-90844465D01*
X119837437Y-90918206D01*
X119837807Y-90921261D01*
X119840656Y-90947479D01*
X119846583Y-91002041D01*
X119848758Y-91008505D01*
X119849478Y-91011780D01*
X119849548Y-91012176D01*
X119849671Y-91012600D01*
X119850462Y-91015820D01*
X119851366Y-91022593D01*
X119879139Y-91098898D01*
X119880156Y-91101802D01*
X119884865Y-91115795D01*
X119906078Y-91178827D01*
X119909596Y-91184681D01*
X119910985Y-91187688D01*
X119911152Y-91188093D01*
X119911357Y-91188469D01*
X119912827Y-91191456D01*
X119915162Y-91197872D01*
X119958730Y-91266524D01*
X119960255Y-91268993D01*
X120002147Y-91338713D01*
X120006834Y-91343670D01*
X120008851Y-91346327D01*
X120009369Y-91347073D01*
X120012344Y-91351006D01*
X120015109Y-91355363D01*
X120018930Y-91359636D01*
X120072908Y-91413614D01*
X120075362Y-91416136D01*
X120116463Y-91459599D01*
X120130308Y-91474240D01*
X120135949Y-91478073D01*
X120141149Y-91482499D01*
X120140962Y-91482718D01*
X120150859Y-91490906D01*
X120157459Y-91497506D01*
X120164284Y-91501542D01*
X120164286Y-91501544D01*
X120184209Y-91513326D01*
X120199020Y-91523582D01*
X120220157Y-91540577D01*
X120220167Y-91540584D01*
X120225480Y-91544855D01*
X120231596Y-91547891D01*
X120250194Y-91557124D01*
X120264990Y-91565770D01*
X120278940Y-91575250D01*
X120284582Y-91579084D01*
X120312259Y-91590154D01*
X120330592Y-91597487D01*
X120339821Y-91601616D01*
X120386436Y-91624756D01*
X120386444Y-91624759D01*
X120392556Y-91627793D01*
X120399185Y-91629446D01*
X120399188Y-91629447D01*
X120420879Y-91634856D01*
X120437182Y-91640121D01*
X120451434Y-91645821D01*
X120451438Y-91645822D01*
X120457771Y-91648355D01*
X120498335Y-91655070D01*
X120504132Y-91656030D01*
X120514035Y-91658081D01*
X120566919Y-91671267D01*
X120566924Y-91671268D01*
X120573543Y-91672918D01*
X120580360Y-91673109D01*
X120580364Y-91673109D01*
X120596049Y-91673547D01*
X120604184Y-91673774D01*
X120621233Y-91675416D01*
X120641795Y-91678820D01*
X120686463Y-91676479D01*
X120696568Y-91676355D01*
X120759999Y-91678127D01*
X120791342Y-91672148D01*
X120808349Y-91670090D01*
X120828067Y-91669057D01*
X120834641Y-91667246D01*
X120834643Y-91667246D01*
X120869424Y-91657666D01*
X120879269Y-91655375D01*
X120910225Y-91649469D01*
X120943223Y-91643174D01*
X120973438Y-91630224D01*
X120989599Y-91624565D01*
X121007898Y-91619524D01*
X121044679Y-91600132D01*
X121053801Y-91595781D01*
X121114668Y-91569693D01*
X121131505Y-91557639D01*
X121198538Y-91534249D01*
X121268990Y-91551638D01*
X121310575Y-91576231D01*
X121310579Y-91576233D01*
X121317404Y-91580269D01*
X121325015Y-91582480D01*
X121325017Y-91582481D01*
X121415750Y-91608841D01*
X121473534Y-91625629D01*
X121479941Y-91626133D01*
X121479945Y-91626134D01*
X121507556Y-91628307D01*
X121507562Y-91628307D01*
X121510011Y-91628500D01*
X121709878Y-91628500D01*
X121909988Y-91628499D01*
X121946466Y-91625629D01*
X122068572Y-91590154D01*
X122094983Y-91582481D01*
X122094985Y-91582480D01*
X122102596Y-91580269D01*
X122120480Y-91569693D01*
X122135860Y-91560597D01*
X122204677Y-91543137D01*
X122264140Y-91560597D01*
X122279521Y-91569693D01*
X122297404Y-91580269D01*
X122305015Y-91582480D01*
X122305017Y-91582481D01*
X122395750Y-91608841D01*
X122453534Y-91625629D01*
X122459941Y-91626133D01*
X122459945Y-91626134D01*
X122487556Y-91628307D01*
X122487562Y-91628307D01*
X122490011Y-91628500D01*
X122527322Y-91628500D01*
X122865989Y-91628499D01*
X122934109Y-91648501D01*
X122980602Y-91702156D01*
X122991989Y-91754499D01*
X122991989Y-95285500D01*
X122971987Y-95353621D01*
X122918331Y-95400114D01*
X122865989Y-95411500D01*
X122558516Y-95411501D01*
X122550012Y-95411501D01*
X122513534Y-95414371D01*
X122432024Y-95438052D01*
X122365017Y-95457519D01*
X122365015Y-95457520D01*
X122357404Y-95459731D01*
X122350582Y-95463766D01*
X122350581Y-95463766D01*
X122245685Y-95525801D01*
X122217459Y-95542494D01*
X122102494Y-95657459D01*
X122098460Y-95664280D01*
X122057540Y-95733473D01*
X122019731Y-95797404D01*
X121974371Y-95953534D01*
X121973867Y-95959941D01*
X121973866Y-95959945D01*
X121971693Y-95987556D01*
X121971500Y-95990011D01*
X121971501Y-96389988D01*
X121974371Y-96426466D01*
X122019731Y-96582596D01*
X122023767Y-96589421D01*
X122023769Y-96589425D01*
X122051231Y-96635861D01*
X122068691Y-96704677D01*
X122051231Y-96764139D01*
X122023769Y-96810575D01*
X122023767Y-96810579D01*
X122019731Y-96817404D01*
X121974371Y-96973534D01*
X121973867Y-96979941D01*
X121973866Y-96979945D01*
X121971693Y-97007556D01*
X121971500Y-97010011D01*
X121971500Y-97126092D01*
X121951498Y-97194213D01*
X121945480Y-97202772D01*
X121941526Y-97207925D01*
X121941523Y-97207928D01*
X121941518Y-97207935D01*
X121941514Y-97207939D01*
X121873504Y-97296571D01*
X121868476Y-97303124D01*
X121824211Y-97409989D01*
X121807162Y-97451150D01*
X121792893Y-97559532D01*
X121791500Y-97570115D01*
X121791500Y-97570121D01*
X121790646Y-97576608D01*
X121761924Y-97641535D01*
X121709954Y-97678144D01*
X121663800Y-97695447D01*
X121653295Y-97699385D01*
X121536739Y-97786739D01*
X121500824Y-97834660D01*
X121443967Y-97877173D01*
X121373149Y-97882199D01*
X121310855Y-97848139D01*
X121299183Y-97834670D01*
X121263261Y-97786739D01*
X121146705Y-97699385D01*
X121010316Y-97648255D01*
X120948134Y-97641500D01*
X119851866Y-97641500D01*
X119789684Y-97648255D01*
X119653295Y-97699385D01*
X119536739Y-97786739D01*
X119500824Y-97834660D01*
X119443967Y-97877173D01*
X119373149Y-97882199D01*
X119310855Y-97848139D01*
X119299183Y-97834670D01*
X119263261Y-97786739D01*
X119146705Y-97699385D01*
X119010316Y-97648255D01*
X118948134Y-97641500D01*
X118304239Y-97641500D01*
X118236118Y-97621498D01*
X118215144Y-97604595D01*
X117750072Y-97139523D01*
X117716046Y-97077211D01*
X117721111Y-97006396D01*
X117763658Y-96949560D01*
X117827745Y-96924947D01*
X117841404Y-96923704D01*
X117841405Y-96923704D01*
X117848424Y-96923065D01*
X117907838Y-96903760D01*
X117998230Y-96874390D01*
X117998233Y-96874389D01*
X118004929Y-96872213D01*
X118146279Y-96787951D01*
X118265449Y-96674468D01*
X118288102Y-96640373D01*
X118352614Y-96543275D01*
X118352615Y-96543273D01*
X118356515Y-96537403D01*
X118414951Y-96383568D01*
X118437853Y-96220610D01*
X118438141Y-96200000D01*
X118435863Y-96179694D01*
X119261931Y-96179694D01*
X119277989Y-96343468D01*
X119329932Y-96499615D01*
X119333581Y-96505640D01*
X119380188Y-96582596D01*
X119415179Y-96640373D01*
X119529491Y-96758747D01*
X119667189Y-96848854D01*
X119821428Y-96906215D01*
X119828409Y-96907146D01*
X119828411Y-96907147D01*
X119977561Y-96927048D01*
X119977565Y-96927048D01*
X119984542Y-96927979D01*
X119991553Y-96927341D01*
X119991557Y-96927341D01*
X120141403Y-96913704D01*
X120141404Y-96913704D01*
X120148424Y-96913065D01*
X120177062Y-96903760D01*
X120298230Y-96864390D01*
X120298233Y-96864389D01*
X120304929Y-96862213D01*
X120446279Y-96777951D01*
X120565449Y-96664468D01*
X120581458Y-96640373D01*
X120652614Y-96533275D01*
X120652615Y-96533273D01*
X120656515Y-96527403D01*
X120714951Y-96373568D01*
X120715931Y-96366592D01*
X120717684Y-96359767D01*
X120720153Y-96360401D01*
X120744588Y-96306454D01*
X120750972Y-96299577D01*
X121483047Y-95567502D01*
X121533205Y-95536764D01*
X121648233Y-95499389D01*
X121648235Y-95499388D01*
X121654929Y-95497213D01*
X121796279Y-95412951D01*
X121915449Y-95299468D01*
X121919350Y-95293597D01*
X122002614Y-95168275D01*
X122002615Y-95168273D01*
X122006515Y-95162403D01*
X122064951Y-95008568D01*
X122074290Y-94942119D01*
X122087302Y-94849534D01*
X122087303Y-94849527D01*
X122087853Y-94845610D01*
X122088141Y-94825000D01*
X122069798Y-94661466D01*
X122063998Y-94644809D01*
X122017998Y-94512717D01*
X122015680Y-94506060D01*
X121928476Y-94366505D01*
X121870499Y-94308122D01*
X121817486Y-94254737D01*
X121817482Y-94254734D01*
X121812522Y-94249739D01*
X121673580Y-94161563D01*
X121624447Y-94144068D01*
X121525189Y-94108723D01*
X121525187Y-94108722D01*
X121518555Y-94106361D01*
X121511569Y-94105528D01*
X121511565Y-94105527D01*
X121397071Y-94091875D01*
X121355153Y-94086877D01*
X121348150Y-94087613D01*
X121348149Y-94087613D01*
X121304935Y-94092155D01*
X121191495Y-94104078D01*
X121184827Y-94106348D01*
X121042382Y-94154840D01*
X121042379Y-94154841D01*
X121035715Y-94157110D01*
X120895555Y-94243337D01*
X120777982Y-94358473D01*
X120688838Y-94496797D01*
X120686427Y-94503420D01*
X120686426Y-94503423D01*
X120634966Y-94644809D01*
X120634965Y-94644814D01*
X120632556Y-94651432D01*
X120631388Y-94660673D01*
X120630805Y-94662012D01*
X120630017Y-94665268D01*
X120629445Y-94665130D01*
X120603008Y-94725746D01*
X120595478Y-94733973D01*
X119890717Y-95438734D01*
X119840519Y-95466210D01*
X119841495Y-95469078D01*
X119692382Y-95519840D01*
X119692379Y-95519841D01*
X119685715Y-95522110D01*
X119545555Y-95608337D01*
X119427982Y-95723473D01*
X119338838Y-95861797D01*
X119336427Y-95868420D01*
X119336426Y-95868423D01*
X119284966Y-96009809D01*
X119284965Y-96009814D01*
X119282556Y-96016432D01*
X119261931Y-96179694D01*
X118435863Y-96179694D01*
X118419798Y-96036466D01*
X118413998Y-96019809D01*
X118367998Y-95887717D01*
X118365680Y-95881060D01*
X118357784Y-95868423D01*
X118282209Y-95747479D01*
X118278476Y-95741505D01*
X118215691Y-95678280D01*
X118167486Y-95629737D01*
X118167482Y-95629734D01*
X118162522Y-95624739D01*
X118023580Y-95536563D01*
X117924261Y-95501197D01*
X117875189Y-95483723D01*
X117875187Y-95483722D01*
X117868555Y-95481361D01*
X117861569Y-95480528D01*
X117861565Y-95480527D01*
X117746951Y-95466861D01*
X117705153Y-95461877D01*
X117698150Y-95462613D01*
X117698149Y-95462613D01*
X117663927Y-95466210D01*
X117541495Y-95479078D01*
X117534827Y-95481348D01*
X117392382Y-95529840D01*
X117392379Y-95529841D01*
X117385715Y-95532110D01*
X117245555Y-95618337D01*
X117184343Y-95678280D01*
X117138194Y-95723473D01*
X117127982Y-95733473D01*
X117038838Y-95871797D01*
X117036427Y-95878420D01*
X117036426Y-95878423D01*
X116984966Y-96019809D01*
X116984965Y-96019814D01*
X116982556Y-96026432D01*
X116980404Y-96043465D01*
X116976031Y-96078079D01*
X116947648Y-96143156D01*
X116888588Y-96182557D01*
X116817602Y-96183772D01*
X116761930Y-96151381D01*
X111676815Y-91066266D01*
X111665948Y-91053875D01*
X111651513Y-91035063D01*
X111646487Y-91028513D01*
X111614575Y-91004026D01*
X111614572Y-91004023D01*
X111592506Y-90987091D01*
X111525929Y-90936004D01*
X111525927Y-90936003D01*
X111519376Y-90930976D01*
X111371351Y-90869662D01*
X111363164Y-90868584D01*
X111363163Y-90868584D01*
X111351958Y-90867109D01*
X111320762Y-90863002D01*
X111252385Y-90854000D01*
X111252382Y-90854000D01*
X111252374Y-90853999D01*
X111220689Y-90849828D01*
X111212500Y-90848750D01*
X111180807Y-90852922D01*
X111164364Y-90854000D01*
X107787464Y-90854000D01*
X107719343Y-90833998D01*
X107672850Y-90780342D01*
X107662249Y-90742045D01*
X107645583Y-90593465D01*
X107644798Y-90586466D01*
X107590680Y-90431060D01*
X107581142Y-90415795D01*
X107507209Y-90297479D01*
X107503476Y-90291505D01*
X107445499Y-90233122D01*
X107392486Y-90179737D01*
X107392482Y-90179734D01*
X107387522Y-90174739D01*
X107248580Y-90086563D01*
X107152915Y-90052498D01*
X107100189Y-90033723D01*
X107100187Y-90033722D01*
X107093555Y-90031361D01*
X107086569Y-90030528D01*
X107086565Y-90030527D01*
X106972071Y-90016875D01*
X106930153Y-90011877D01*
X106923150Y-90012613D01*
X106923149Y-90012613D01*
X106879935Y-90017155D01*
X106766495Y-90029078D01*
X106759827Y-90031348D01*
X106617382Y-90079840D01*
X106617379Y-90079841D01*
X106610715Y-90082110D01*
X106548251Y-90120538D01*
X106524226Y-90135318D01*
X106458204Y-90154000D01*
X104284660Y-90154000D01*
X104216539Y-90133998D01*
X104170046Y-90080342D01*
X104159445Y-90042045D01*
X104145583Y-89918465D01*
X104144798Y-89911466D01*
X104090680Y-89756060D01*
X104070639Y-89723987D01*
X104007209Y-89622479D01*
X104003476Y-89616505D01*
X103939181Y-89551760D01*
X103892486Y-89504737D01*
X103892482Y-89504734D01*
X103887522Y-89499739D01*
X103748580Y-89411563D01*
X103699447Y-89394068D01*
X103600189Y-89358723D01*
X103600187Y-89358722D01*
X103593555Y-89356361D01*
X103586569Y-89355528D01*
X103586565Y-89355527D01*
X103472071Y-89341875D01*
X103430153Y-89336877D01*
X103423150Y-89337613D01*
X103423149Y-89337613D01*
X103379935Y-89342155D01*
X103266495Y-89354078D01*
X103217104Y-89370892D01*
X103146173Y-89373910D01*
X103084869Y-89338100D01*
X103052657Y-89274832D01*
X103050499Y-89251614D01*
X103050499Y-89217831D01*
X103050129Y-89211010D01*
X103044605Y-89160148D01*
X103040979Y-89144896D01*
X103007927Y-89056730D01*
X103002744Y-88985922D01*
X103007927Y-88968270D01*
X103040978Y-88880106D01*
X103044605Y-88864851D01*
X103050131Y-88813986D01*
X103050500Y-88807173D01*
X103050499Y-88517832D01*
X103050129Y-88511010D01*
X103044605Y-88460148D01*
X103040978Y-88444894D01*
X103008194Y-88357441D01*
X103003011Y-88286634D01*
X103008195Y-88268980D01*
X103015911Y-88248399D01*
X103058554Y-88191635D01*
X103125116Y-88166937D01*
X103194464Y-88182146D01*
G37*
%TD.AperFunction*%
%TD*%
M02*
