%TF.GenerationSoftware,KiCad,Pcbnew,(6.0.2)*%
%TF.CreationDate,2022-02-27T22:40:51+08:00*%
%TF.ProjectId,PlantCare,506c616e-7443-4617-9265-2e6b69636164,rev?*%
%TF.SameCoordinates,Original*%
%TF.FileFunction,Legend,Bot*%
%TF.FilePolarity,Positive*%
%FSLAX46Y46*%
G04 Gerber Fmt 4.6, Leading zero omitted, Abs format (unit mm)*
G04 Created by KiCad (PCBNEW (6.0.2)) date 2022-02-27 22:40:51*
%MOMM*%
%LPD*%
G01*
G04 APERTURE LIST*
%ADD10C,0.150000*%
%ADD11C,0.120000*%
%ADD12C,0.050000*%
G04 APERTURE END LIST*
D10*
X126438095Y-107800000D02*
X127238095Y-107800000D01*
X127238095Y-107266666D02*
X127238095Y-107114285D01*
X127200000Y-107038095D01*
X127123809Y-106961904D01*
X126971428Y-106923809D01*
X126704761Y-106923809D01*
X126552380Y-106961904D01*
X126476190Y-107038095D01*
X126438095Y-107114285D01*
X126438095Y-107266666D01*
X126476190Y-107342857D01*
X126552380Y-107419047D01*
X126704761Y-107457142D01*
X126971428Y-107457142D01*
X127123809Y-107419047D01*
X127200000Y-107342857D01*
X127238095Y-107266666D01*
X127238095Y-106428571D02*
X127238095Y-106352380D01*
X127200000Y-106276190D01*
X127161904Y-106238095D01*
X127085714Y-106200000D01*
X126933333Y-106161904D01*
X126742857Y-106161904D01*
X126590476Y-106200000D01*
X126514285Y-106238095D01*
X126476190Y-106276190D01*
X126438095Y-106352380D01*
X126438095Y-106428571D01*
X126476190Y-106504761D01*
X126514285Y-106542857D01*
X126590476Y-106580952D01*
X126742857Y-106619047D01*
X126933333Y-106619047D01*
X127085714Y-106580952D01*
X127161904Y-106542857D01*
X127200000Y-106504761D01*
X127238095Y-106428571D01*
X125038095Y-107333333D02*
X125419047Y-107600000D01*
X125038095Y-107790476D02*
X125838095Y-107790476D01*
X125838095Y-107485714D01*
X125800000Y-107409523D01*
X125761904Y-107371428D01*
X125685714Y-107333333D01*
X125571428Y-107333333D01*
X125495238Y-107371428D01*
X125457142Y-107409523D01*
X125419047Y-107485714D01*
X125419047Y-107790476D01*
X125838095Y-107066666D02*
X125038095Y-106533333D01*
X125838095Y-106533333D02*
X125038095Y-107066666D01*
X124438095Y-107809523D02*
X124438095Y-107352380D01*
X123638095Y-107580952D02*
X124438095Y-107580952D01*
X124438095Y-107161904D02*
X123638095Y-106628571D01*
X124438095Y-106628571D02*
X123638095Y-107161904D01*
X143288095Y-99011904D02*
X143554761Y-98630952D01*
X143745238Y-99011904D02*
X143745238Y-98211904D01*
X143440476Y-98211904D01*
X143364285Y-98250000D01*
X143326190Y-98288095D01*
X143288095Y-98364285D01*
X143288095Y-98478571D01*
X143326190Y-98554761D01*
X143364285Y-98592857D01*
X143440476Y-98630952D01*
X143745238Y-98630952D01*
X142983333Y-98973809D02*
X142869047Y-99011904D01*
X142678571Y-99011904D01*
X142602380Y-98973809D01*
X142564285Y-98935714D01*
X142526190Y-98859523D01*
X142526190Y-98783333D01*
X142564285Y-98707142D01*
X142602380Y-98669047D01*
X142678571Y-98630952D01*
X142830952Y-98592857D01*
X142907142Y-98554761D01*
X142945238Y-98516666D01*
X142983333Y-98440476D01*
X142983333Y-98364285D01*
X142945238Y-98288095D01*
X142907142Y-98250000D01*
X142830952Y-98211904D01*
X142640476Y-98211904D01*
X142526190Y-98250000D01*
X142297619Y-98211904D02*
X141840476Y-98211904D01*
X142069047Y-99011904D02*
X142069047Y-98211904D01*
X128400000Y-107290476D02*
X128438095Y-107366666D01*
X128438095Y-107480952D01*
X128400000Y-107595238D01*
X128323809Y-107671428D01*
X128247619Y-107709523D01*
X128095238Y-107747619D01*
X127980952Y-107747619D01*
X127828571Y-107709523D01*
X127752380Y-107671428D01*
X127676190Y-107595238D01*
X127638095Y-107480952D01*
X127638095Y-107404761D01*
X127676190Y-107290476D01*
X127714285Y-107252380D01*
X127980952Y-107252380D01*
X127980952Y-107404761D01*
X144102380Y-104192857D02*
X144369047Y-104192857D01*
X144369047Y-104611904D02*
X144369047Y-103811904D01*
X143988095Y-103811904D01*
X143302380Y-104611904D02*
X143683333Y-104611904D01*
X143683333Y-103811904D01*
X143073809Y-104383333D02*
X142692857Y-104383333D01*
X143150000Y-104611904D02*
X142883333Y-103811904D01*
X142616666Y-104611904D01*
X142388095Y-104573809D02*
X142273809Y-104611904D01*
X142083333Y-104611904D01*
X142007142Y-104573809D01*
X141969047Y-104535714D01*
X141930952Y-104459523D01*
X141930952Y-104383333D01*
X141969047Y-104307142D01*
X142007142Y-104269047D01*
X142083333Y-104230952D01*
X142235714Y-104192857D01*
X142311904Y-104154761D01*
X142350000Y-104116666D01*
X142388095Y-104040476D01*
X142388095Y-103964285D01*
X142350000Y-103888095D01*
X142311904Y-103850000D01*
X142235714Y-103811904D01*
X142045238Y-103811904D01*
X141930952Y-103850000D01*
X141588095Y-104611904D02*
X141588095Y-103811904D01*
X141588095Y-104192857D02*
X141130952Y-104192857D01*
X141130952Y-104611904D02*
X141130952Y-103811904D01*
D11*
%TO.C,SW3*%
X140740000Y-103530000D02*
X144740000Y-103530000D01*
X140740000Y-103080000D02*
X140740000Y-103530000D01*
X144740000Y-103530000D02*
X144740000Y-103080000D01*
X144740000Y-101080000D02*
X144740000Y-100630000D01*
X140740000Y-100630000D02*
X140740000Y-101080000D01*
X144740000Y-100630000D02*
X140740000Y-100630000D01*
%TO.C,SW2*%
X144740000Y-95010000D02*
X140740000Y-95010000D01*
X144740000Y-97910000D02*
X144740000Y-97460000D01*
X140740000Y-95010000D02*
X140740000Y-95460000D01*
X140740000Y-97910000D02*
X144740000Y-97910000D01*
X140740000Y-97460000D02*
X140740000Y-97910000D01*
X144740000Y-95460000D02*
X144740000Y-95010000D01*
D12*
%TO.C,J1*%
X124480000Y-92840000D02*
X124480000Y-94290000D01*
X136860000Y-94840000D02*
X136860000Y-103240000D01*
X138360000Y-94840000D02*
X130460000Y-94840000D01*
X124480000Y-105240000D02*
X124480000Y-103490000D01*
X138360000Y-103240000D02*
X130460000Y-103240000D01*
X130460000Y-92840000D02*
X130460000Y-105240000D01*
X136860000Y-94840000D02*
X138360000Y-94840000D01*
X136860000Y-103240000D02*
X138360000Y-103240000D01*
X130460000Y-105240000D02*
X124480000Y-105240000D01*
X124480000Y-92840000D02*
X130460000Y-92840000D01*
X135235000Y-93640000D02*
X113535000Y-93640000D01*
X113535000Y-93640000D02*
X113535000Y-104440000D01*
X113535000Y-104440000D02*
X135235000Y-104440000D01*
X135235000Y-104440000D02*
X135235000Y-93640000D01*
X138360000Y-105790000D02*
X110410000Y-105790000D01*
X110410000Y-105790000D02*
X110410000Y-92290000D01*
X110410000Y-92290000D02*
X138360000Y-92290000D01*
X138360000Y-92290000D02*
X138360000Y-105790000D01*
%TD*%
M02*
