M48
; DRILL file {KiCad (6.0.2)} date Sun Apr 10 14:27:58 2022
; FORMAT={-:-/ absolute / metric / decimal}
; #@! TF.CreationDate,2022-04-10T14:27:58+08:00
; #@! TF.GenerationSoftware,Kicad,Pcbnew,(6.0.2)
; #@! TF.FileFunction,Plated,1,4,PTH
FMAT,2
METRIC
; #@! TA.AperFunction,Plated,PTH,ViaDrill
T1C0.200
; #@! TA.AperFunction,Plated,PTH,ComponentDrill
T2C0.500
; #@! TA.AperFunction,Plated,PTH,ComponentDrill
T3C0.800
; #@! TA.AperFunction,Plated,PTH,ComponentDrill
T4C1.200
; #@! TA.AperFunction,Plated,PTH,ComponentDrill
T5C2.500
%
G90
G05
T1
X82.225Y-108.25
X82.3Y-92.1
X88.6Y-105.2
X88.6Y-105.865
X88.98Y-108.0
X91.575Y-105.1
X91.6Y-105.8
X91.6Y-106.6
X93.8Y-99.565
X93.8Y-105.1
X93.8Y-105.865
X93.8Y-115.5
X93.8Y-116.1
X93.8Y-116.7
X96.1Y-105.2
X96.1Y-105.9
X96.3Y-108.0
X96.75Y-113.49
X96.75Y-114.35
X96.75Y-115.2
X96.75Y-116.095
X99.075Y-105.225
X99.075Y-105.85
X99.075Y-106.475
X99.2Y-86.1
X99.2Y-87.5
X101.3Y-99.565
X101.3Y-105.1
X101.3Y-105.865
X102.7Y-108.0
X103.425Y-90.075
X103.6Y-105.2
X103.6Y-105.9
X104.08Y-108.0
X104.175Y-85.875
X106.599Y-100.893
X106.675Y-103.9
X106.8Y-110.0
X106.925Y-90.75
X107.4Y-100.9
X107.425Y-103.9
X107.91Y-113.2
X108.1Y-100.9
X108.25Y-103.9
X109.5Y-114.6
X110.3Y-114.6
X110.7Y-96.6
X111.2Y-114.6
X112.4Y-99.4
X112.4Y-114.6
X116.4Y-99.4
X117.7Y-96.2
X118.4Y-114.7
X120.0Y-96.19
X120.4Y-99.4
X120.691Y-90.817
X121.3Y-89.3
X121.35Y-94.825
X122.4Y-99.4
X122.8Y-96.2
X124.3Y-96.2
X124.45Y-91.7
X125.8Y-96.2
X126.4Y-99.4
X128.925Y-91.4
X133.1Y-86.0
X133.1Y-91.4
T2
X63.125Y-75.0
X63.125Y-125.0
X63.674Y-73.674
X63.674Y-76.326
X63.674Y-123.674
X63.674Y-126.326
X65.0Y-73.125
X65.0Y-76.875
X65.0Y-123.125
X65.0Y-126.875
X66.326Y-73.674
X66.326Y-76.326
X66.326Y-123.674
X66.326Y-126.326
X66.875Y-75.0
X66.875Y-125.0
X138.125Y-75.0
X138.125Y-125.0
X138.674Y-73.674
X138.674Y-76.326
X138.674Y-123.674
X138.674Y-126.326
X140.0Y-73.125
X140.0Y-76.875
X140.0Y-123.125
X140.0Y-126.875
X141.326Y-73.674
X141.326Y-76.326
X141.326Y-123.674
X141.326Y-126.326
X141.875Y-75.0
X141.875Y-125.0
T3
X116.6Y-118.2
X118.6Y-118.2
X120.6Y-118.2
X122.6Y-118.2
X124.6Y-118.2
T4
X73.1Y-85.9
X73.1Y-90.9
X73.1Y-97.6
X73.1Y-102.6
X73.1Y-109.3
X73.1Y-114.3
X78.1Y-85.9
X78.1Y-90.9
X78.1Y-97.6
X78.1Y-102.6
X78.1Y-109.3
X78.1Y-114.3
T5
X65.0Y-75.0
X65.0Y-125.0
X140.0Y-75.0
X140.0Y-125.0
T0
M30
