%TF.GenerationSoftware,KiCad,Pcbnew,(6.0.2)*%
%TF.CreationDate,2022-04-10T14:27:56+08:00*%
%TF.ProjectId,PlantCare,506c616e-7443-4617-9265-2e6b69636164,rev?*%
%TF.SameCoordinates,Original*%
%TF.FileFunction,Paste,Top*%
%TF.FilePolarity,Positive*%
%FSLAX46Y46*%
G04 Gerber Fmt 4.6, Leading zero omitted, Abs format (unit mm)*
G04 Created by KiCad (PCBNEW (6.0.2)) date 2022-04-10 14:27:56*
%MOMM*%
%LPD*%
G01*
G04 APERTURE LIST*
G04 Aperture macros list*
%AMRoundRect*
0 Rectangle with rounded corners*
0 $1 Rounding radius*
0 $2 $3 $4 $5 $6 $7 $8 $9 X,Y pos of 4 corners*
0 Add a 4 corners polygon primitive as box body*
4,1,4,$2,$3,$4,$5,$6,$7,$8,$9,$2,$3,0*
0 Add four circle primitives for the rounded corners*
1,1,$1+$1,$2,$3*
1,1,$1+$1,$4,$5*
1,1,$1+$1,$6,$7*
1,1,$1+$1,$8,$9*
0 Add four rect primitives between the rounded corners*
20,1,$1+$1,$2,$3,$4,$5,0*
20,1,$1+$1,$4,$5,$6,$7,0*
20,1,$1+$1,$6,$7,$8,$9,0*
20,1,$1+$1,$8,$9,$2,$3,0*%
G04 Aperture macros list end*
%ADD10R,2.000000X0.200000*%
%ADD11RoundRect,0.135000X0.135000X0.185000X-0.135000X0.185000X-0.135000X-0.185000X0.135000X-0.185000X0*%
%ADD12RoundRect,0.135000X-0.135000X-0.185000X0.135000X-0.185000X0.135000X0.185000X-0.135000X0.185000X0*%
%ADD13RoundRect,0.135000X0.185000X-0.135000X0.185000X0.135000X-0.185000X0.135000X-0.185000X-0.135000X0*%
%ADD14R,1.500000X2.000000*%
%ADD15R,3.800000X2.000000*%
%ADD16R,1.220000X0.650000*%
%ADD17R,1.000000X2.500000*%
%ADD18R,1.800000X1.000000*%
%ADD19RoundRect,0.147500X-0.147500X-0.172500X0.147500X-0.172500X0.147500X0.172500X-0.147500X0.172500X0*%
%ADD20RoundRect,0.140000X-0.140000X-0.170000X0.140000X-0.170000X0.140000X0.170000X-0.140000X0.170000X0*%
%ADD21R,2.600000X1.800000*%
%ADD22RoundRect,0.140000X0.140000X0.170000X-0.140000X0.170000X-0.140000X-0.170000X0.140000X-0.170000X0*%
%ADD23RoundRect,0.140000X-0.170000X0.140000X-0.170000X-0.140000X0.170000X-0.140000X0.170000X0.140000X0*%
%ADD24RoundRect,0.150000X-0.587500X-0.150000X0.587500X-0.150000X0.587500X0.150000X-0.587500X0.150000X0*%
%ADD25R,1.000000X0.800000*%
%ADD26R,0.700000X1.500000*%
G04 APERTURE END LIST*
D10*
%TO.C,J1*%
X101542500Y-85162500D03*
X101542500Y-85862500D03*
X101542500Y-86562500D03*
X101542500Y-87262500D03*
X101542500Y-87962500D03*
X101542500Y-88662500D03*
X101542500Y-89362500D03*
X101542500Y-90062500D03*
X101542500Y-90762500D03*
X101542500Y-91462500D03*
X101542500Y-92162500D03*
X101542500Y-92862500D03*
X101542500Y-93562500D03*
%TD*%
D11*
%TO.C,R15*%
X107910000Y-108400000D03*
X106890000Y-108400000D03*
%TD*%
D12*
%TO.C,R14*%
X106890000Y-110000000D03*
X107910000Y-110000000D03*
%TD*%
D13*
%TO.C,R4*%
X122800000Y-97210000D03*
X122800000Y-96190000D03*
%TD*%
D12*
%TO.C,R11*%
X82240000Y-108250000D03*
X83260000Y-108250000D03*
%TD*%
D14*
%TO.C,U1*%
X99000000Y-105865000D03*
D15*
X101300000Y-99565000D03*
D14*
X101300000Y-105865000D03*
X103600000Y-105865000D03*
%TD*%
D16*
%TO.C,Q4*%
X84910000Y-112950000D03*
X84910000Y-111050000D03*
X82290000Y-112000000D03*
%TD*%
D17*
%TO.C,U2*%
X126400000Y-99400000D03*
X124400000Y-99400000D03*
X122400000Y-99400000D03*
X120400000Y-99400000D03*
X118400000Y-99400000D03*
X116400000Y-99400000D03*
X114400000Y-99400000D03*
X112400000Y-99400000D03*
D18*
X110900000Y-102000000D03*
X110900000Y-104000000D03*
X110900000Y-106000000D03*
X110900000Y-108000000D03*
X110900000Y-110000000D03*
X110900000Y-112000000D03*
D17*
X112400000Y-114600000D03*
X114400000Y-114600000D03*
X116400000Y-114600000D03*
X118400000Y-114600000D03*
X120400000Y-114600000D03*
X122400000Y-114600000D03*
X124400000Y-114600000D03*
X126400000Y-114600000D03*
%TD*%
D19*
%TO.C,D3*%
X82315000Y-90800000D03*
X83285000Y-90800000D03*
%TD*%
%TO.C,D2*%
X82290000Y-109575000D03*
X83260000Y-109575000D03*
%TD*%
D11*
%TO.C,R1*%
X107910000Y-111600000D03*
X106890000Y-111600000D03*
%TD*%
D20*
%TO.C,C10*%
X93320000Y-108000000D03*
X94280000Y-108000000D03*
%TD*%
%TO.C,C8*%
X86020000Y-108000000D03*
X86980000Y-108000000D03*
%TD*%
D11*
%TO.C,R3*%
X107910000Y-113200000D03*
X106890000Y-113200000D03*
%TD*%
D21*
%TO.C,C1*%
X107400000Y-100900000D03*
X107400000Y-103900000D03*
%TD*%
D16*
%TO.C,Q2*%
X84910000Y-89350000D03*
X84910000Y-87450000D03*
X82290000Y-88400000D03*
%TD*%
D20*
%TO.C,C2*%
X101120000Y-108000000D03*
X102080000Y-108000000D03*
%TD*%
D22*
%TO.C,C9*%
X88980000Y-108000000D03*
X88020000Y-108000000D03*
%TD*%
D12*
%TO.C,R12*%
X82290000Y-92000000D03*
X83310000Y-92000000D03*
%TD*%
D11*
%TO.C,R9*%
X107910000Y-114800000D03*
X106890000Y-114800000D03*
%TD*%
D23*
%TO.C,C4*%
X124300000Y-96220000D03*
X124300000Y-97180000D03*
%TD*%
D11*
%TO.C,R10*%
X122690000Y-90800000D03*
X123710000Y-90800000D03*
%TD*%
D24*
%TO.C,Q1*%
X123137500Y-88400000D03*
X121262500Y-89350000D03*
X121262500Y-87450000D03*
%TD*%
D22*
%TO.C,C11*%
X96280000Y-108000000D03*
X95320000Y-108000000D03*
%TD*%
D12*
%TO.C,R13*%
X121710000Y-90800000D03*
X120690000Y-90800000D03*
%TD*%
D14*
%TO.C,U4*%
X84000000Y-105865000D03*
D15*
X86300000Y-99565000D03*
D14*
X86300000Y-105865000D03*
X88600000Y-105865000D03*
%TD*%
D13*
%TO.C,R8*%
X125800000Y-97210000D03*
X125800000Y-96190000D03*
%TD*%
D25*
%TO.C,SW1*%
X99650000Y-116745000D03*
X92350000Y-118955000D03*
X99650000Y-118955000D03*
X92350000Y-116745000D03*
D26*
X93750000Y-116095000D03*
X96750000Y-116095000D03*
X98250000Y-116095000D03*
%TD*%
D22*
%TO.C,C3*%
X104080000Y-108000000D03*
X103120000Y-108000000D03*
%TD*%
D14*
%TO.C,U5*%
X96100000Y-105865000D03*
X93800000Y-105865000D03*
D15*
X93800000Y-99565000D03*
D14*
X91500000Y-105865000D03*
%TD*%
M02*
