M48
; DRILL file {KiCad (6.0.2)} date Sun Feb 27 22:40:55 2022
; FORMAT={-:-/ absolute / metric / decimal}
; #@! TF.CreationDate,2022-02-27T22:40:55+08:00
; #@! TF.GenerationSoftware,Kicad,Pcbnew,(6.0.2)
; #@! TF.FileFunction,Plated,1,4,PTH
FMAT,2
METRIC
; #@! TA.AperFunction,Plated,PTH,ViaDrill
T1C0.200
; #@! TA.AperFunction,Plated,PTH,ComponentDrill
T2C0.600
; #@! TA.AperFunction,Plated,PTH,ComponentDrill
T3C0.650
; #@! TA.AperFunction,Plated,PTH,ComponentDrill
T4C1.000
%
G90
G05
T1
X113.85Y-109.675
X114.85Y-109.675
X116.899Y-109.67
X117.95Y-109.675
X118.86Y-106.68
X118.95Y-109.675
X119.92Y-89.44
X120.8Y-91.494
X121.0Y-89.5
X121.5Y-102.0
X122.025Y-108.65
X122.86Y-91.48
X122.86Y-106.68
X124.1Y-89.376
X124.9Y-91.55
X125.25Y-93.85
X125.48Y-95.54
X126.2Y-89.425
X126.45Y-94.3
X126.86Y-106.68
X127.195Y-98.34
X127.7Y-95.25
X127.9Y-98.65
X127.971Y-99.871
X127.971Y-99.871
X127.971Y-99.871
X128.3Y-89.45
X128.5Y-97.1
X128.875Y-91.5
X128.95Y-95.7
X129.1Y-100.9
X131.1Y-106.1
X132.242Y-94.66
X133.15Y-104.575
X133.175Y-101.575
X133.192Y-98.59
X134.142Y-93.724
X135.1Y-100.55
X135.702Y-103.846
X135.772Y-93.66
X135.772Y-94.93
X135.772Y-96.2
X135.78Y-89.85
X136.6Y-99.8
X137.5Y-102.05
X137.6Y-103.8
X138.663Y-99.378
X139.2Y-97.9
X139.2Y-100.8
X139.59Y-106.98
X140.75Y-108.78
X140.992Y-89.86
X141.0Y-92.4
X141.0Y-93.7
X141.89Y-100.68
X141.89Y-106.98
X142.372Y-89.29
X142.382Y-90.46
X142.4Y-91.7
X142.835Y-108.79
X143.082Y-95.44
X143.375Y-93.767
X143.4Y-93.0
X144.825Y-102.075
X144.987Y-97.39
X145.99Y-93.41
X146.15Y-94.45
T3
X124.19Y-109.1
X125.46Y-109.1
X126.73Y-109.1
X128.0Y-109.1
T4
X131.23Y-108.69
X134.315Y-108.66
X136.855Y-108.66
T2
G00X145.352Y-89.82
M15
G01X146.452Y-89.82
M16
G05
G00X145.352Y-98.46
M15
G01X146.452Y-98.46
M16
G05
G00X149.782Y-89.82
M15
G01X150.382Y-89.82
M16
G05
G00X149.782Y-98.46
M15
G01X150.382Y-98.46
M16
G05
T0
M30
