%TF.GenerationSoftware,KiCad,Pcbnew,(6.0.2)*%
%TF.CreationDate,2022-02-27T22:40:51+08:00*%
%TF.ProjectId,PlantCare,506c616e-7443-4617-9265-2e6b69636164,rev?*%
%TF.SameCoordinates,Original*%
%TF.FileFunction,Copper,L2,Inr*%
%TF.FilePolarity,Positive*%
%FSLAX46Y46*%
G04 Gerber Fmt 4.6, Leading zero omitted, Abs format (unit mm)*
G04 Created by KiCad (PCBNEW (6.0.2)) date 2022-02-27 22:40:51*
%MOMM*%
%LPD*%
G01*
G04 APERTURE LIST*
%TA.AperFunction,ComponentPad*%
%ADD10R,1.000000X1.000000*%
%TD*%
%TA.AperFunction,ComponentPad*%
%ADD11O,1.000000X1.000000*%
%TD*%
%TA.AperFunction,ComponentPad*%
%ADD12R,1.700000X1.700000*%
%TD*%
%TA.AperFunction,ComponentPad*%
%ADD13O,1.600000X1.000000*%
%TD*%
%TA.AperFunction,ComponentPad*%
%ADD14O,2.100000X1.000000*%
%TD*%
%TA.AperFunction,ComponentPad*%
%ADD15O,1.700000X1.700000*%
%TD*%
%TA.AperFunction,ViaPad*%
%ADD16C,0.450000*%
%TD*%
G04 APERTURE END LIST*
D10*
%TO.N,GND*%
%TO.C,J2*%
X128000000Y-109100000D03*
D11*
%TO.N,/GPIO0*%
X126730000Y-109100000D03*
%TO.N,/RXD*%
X125460000Y-109100000D03*
%TO.N,/TXD*%
X124190000Y-109100000D03*
%TD*%
D12*
%TO.N,/control*%
%TO.C,J5*%
X131230000Y-108690000D03*
%TD*%
D13*
%TO.N,GND*%
%TO.C,J3*%
X150081507Y-98460000D03*
X150081507Y-89820000D03*
D14*
X145901507Y-89820000D03*
X145901507Y-98460000D03*
%TD*%
D12*
%TO.N,+BATT*%
%TO.C,J4*%
X136855000Y-108660000D03*
D15*
%TO.N,GND*%
X134315000Y-108660000D03*
%TD*%
D16*
%TO.N,+3V3*%
X140750000Y-108780000D03*
X125480000Y-95540000D03*
X133150000Y-104575000D03*
X124100000Y-89375500D03*
X127700000Y-95250000D03*
X122025000Y-108650000D03*
X141890000Y-106980000D03*
X118950000Y-109675000D03*
X141890000Y-100680000D03*
X126200000Y-89425000D03*
X114850000Y-109675000D03*
%TO.N,GND*%
X117950000Y-109675000D03*
X144986507Y-97390000D03*
X127195126Y-98339989D03*
X128875000Y-91500000D03*
X113850000Y-109675000D03*
X135702000Y-103846000D03*
X139590000Y-106980000D03*
X142835000Y-108790000D03*
X135780000Y-89850000D03*
X144825000Y-102075000D03*
X133175000Y-101575000D03*
X128300000Y-89450000D03*
X137500000Y-102050000D03*
%TO.N,Net-(C5-Pad1)*%
X142381507Y-90460000D03*
X142371507Y-89290000D03*
X143081507Y-95440000D03*
X140991507Y-89860000D03*
%TO.N,Net-(C7-Pad1)*%
X142400000Y-91700000D03*
X135771507Y-93660000D03*
%TO.N,/GPIO13*%
X126860000Y-106680000D03*
%TO.N,/GPIO14*%
X122860000Y-106680000D03*
%TO.N,/GPIO0*%
X122860000Y-91480000D03*
%TO.N,/GPIO2*%
X127900000Y-98650000D03*
X126450000Y-94300000D03*
X124900000Y-91550000D03*
%TO.N,Net-(J1-Pad11)*%
X136600000Y-99800000D03*
%TO.N,/RXD*%
X138663366Y-99378391D03*
X143400000Y-93000000D03*
%TO.N,/TXD*%
X143374750Y-93767006D03*
X139200000Y-97900000D03*
%TO.N,Net-(J3-PadA6)*%
X135771507Y-94930000D03*
X145990000Y-93410000D03*
%TO.N,Net-(J3-PadA7)*%
X146150000Y-94450000D03*
X135771507Y-96200000D03*
%TO.N,+BATT*%
X116898750Y-109670000D03*
%TO.N,Net-(Q1-Pad1)*%
X135100000Y-100550000D03*
X125250000Y-93850000D03*
X128500000Y-97100000D03*
X119920000Y-89440000D03*
%TO.N,Net-(Q2-Pad2)*%
X141000000Y-92400000D03*
X132241507Y-94660000D03*
%TO.N,/EN*%
X121500000Y-102000000D03*
X133191507Y-98590000D03*
X118860000Y-106680000D03*
%TO.N,Net-(Q3-Pad2)*%
X141000000Y-93700000D03*
X134141507Y-93724500D03*
%TO.N,/GPIO4*%
X127970880Y-99870880D03*
X129100000Y-100900000D03*
X120800000Y-91493648D03*
X127970879Y-99870879D03*
X137600000Y-103800000D03*
X127970878Y-99870878D03*
%TO.N,Net-(R5-Pad2)*%
X131100000Y-106100000D03*
%TO.N,Net-(R7-Pad2)*%
X139200000Y-100800000D03*
X128950000Y-95700000D03*
X121000000Y-89500000D03*
%TD*%
%TA.AperFunction,Conductor*%
%TO.N,GND*%
G36*
X119177513Y-89048002D02*
G01*
X119224006Y-89101658D01*
X119234110Y-89171932D01*
X119227794Y-89197089D01*
X119202556Y-89266432D01*
X119181931Y-89429694D01*
X119197989Y-89593468D01*
X119249932Y-89749615D01*
X119253581Y-89755640D01*
X119329163Y-89880439D01*
X119335179Y-89890373D01*
X119449491Y-90008747D01*
X119587189Y-90098854D01*
X119741428Y-90156215D01*
X119748409Y-90157146D01*
X119748411Y-90157147D01*
X119897561Y-90177048D01*
X119897565Y-90177048D01*
X119904542Y-90177979D01*
X119911553Y-90177341D01*
X119911557Y-90177341D01*
X120061403Y-90163704D01*
X120061404Y-90163704D01*
X120068424Y-90163065D01*
X120121292Y-90145887D01*
X120218230Y-90114390D01*
X120218233Y-90114389D01*
X120224929Y-90112213D01*
X120359078Y-90032244D01*
X120427832Y-90014544D01*
X120495242Y-90036826D01*
X120514231Y-90052946D01*
X120524592Y-90063675D01*
X120524597Y-90063679D01*
X120529491Y-90068747D01*
X120667189Y-90158854D01*
X120821428Y-90216215D01*
X120828409Y-90217146D01*
X120828411Y-90217147D01*
X120977561Y-90237048D01*
X120977565Y-90237048D01*
X120984542Y-90237979D01*
X120991553Y-90237341D01*
X120991557Y-90237341D01*
X121141403Y-90223704D01*
X121141404Y-90223704D01*
X121148424Y-90223065D01*
X121199039Y-90206619D01*
X121298230Y-90174390D01*
X121298233Y-90174389D01*
X121304929Y-90172213D01*
X121446279Y-90087951D01*
X121565449Y-89974468D01*
X121569350Y-89968597D01*
X121652614Y-89843275D01*
X121652615Y-89843273D01*
X121656515Y-89837403D01*
X121714951Y-89683568D01*
X121724566Y-89615154D01*
X121737302Y-89524534D01*
X121737303Y-89524527D01*
X121737853Y-89520610D01*
X121738141Y-89500000D01*
X121719798Y-89336466D01*
X121670686Y-89195435D01*
X121667173Y-89124527D01*
X121702555Y-89062975D01*
X121765597Y-89030323D01*
X121789678Y-89028000D01*
X123265916Y-89028000D01*
X123334037Y-89048002D01*
X123380530Y-89101658D01*
X123390634Y-89171932D01*
X123386491Y-89188434D01*
X123386622Y-89188466D01*
X123384967Y-89195309D01*
X123382556Y-89201932D01*
X123361931Y-89365194D01*
X123377989Y-89528968D01*
X123429932Y-89685115D01*
X123442770Y-89706313D01*
X123487200Y-89779674D01*
X123515179Y-89825873D01*
X123520070Y-89830938D01*
X123520071Y-89830939D01*
X123538447Y-89849968D01*
X123629491Y-89944247D01*
X123767189Y-90034354D01*
X123921428Y-90091715D01*
X123928409Y-90092646D01*
X123928411Y-90092647D01*
X124077561Y-90112548D01*
X124077565Y-90112548D01*
X124084542Y-90113479D01*
X124091553Y-90112841D01*
X124091557Y-90112841D01*
X124241403Y-90099204D01*
X124241404Y-90099204D01*
X124248424Y-90098565D01*
X124287809Y-90085768D01*
X124398230Y-90049890D01*
X124398233Y-90049889D01*
X124404929Y-90047713D01*
X124546279Y-89963451D01*
X124665449Y-89849968D01*
X124681458Y-89825873D01*
X124752614Y-89718775D01*
X124752615Y-89718773D01*
X124756515Y-89712903D01*
X124814951Y-89559068D01*
X124826967Y-89473568D01*
X124837302Y-89400034D01*
X124837303Y-89400027D01*
X124837853Y-89396110D01*
X124838141Y-89375500D01*
X124819798Y-89211966D01*
X124814042Y-89195437D01*
X124810528Y-89124528D01*
X124845910Y-89062975D01*
X124908952Y-89030323D01*
X124933033Y-89028000D01*
X125383932Y-89028000D01*
X125452053Y-89048002D01*
X125498546Y-89101658D01*
X125508650Y-89171932D01*
X125502336Y-89197087D01*
X125482556Y-89251432D01*
X125461931Y-89414694D01*
X125477989Y-89578468D01*
X125529932Y-89734615D01*
X125533581Y-89740640D01*
X125605869Y-89860000D01*
X125615179Y-89875373D01*
X125620070Y-89880438D01*
X125620071Y-89880439D01*
X125638447Y-89899468D01*
X125729491Y-89993747D01*
X125867189Y-90083854D01*
X126021428Y-90141215D01*
X126028409Y-90142146D01*
X126028411Y-90142147D01*
X126177561Y-90162048D01*
X126177565Y-90162048D01*
X126184542Y-90162979D01*
X126191553Y-90162341D01*
X126191557Y-90162341D01*
X126341403Y-90148704D01*
X126341404Y-90148704D01*
X126348424Y-90148065D01*
X126388375Y-90135084D01*
X126498230Y-90099390D01*
X126498233Y-90099389D01*
X126504929Y-90097213D01*
X126646279Y-90012951D01*
X126765449Y-89899468D01*
X126775235Y-89884739D01*
X126852614Y-89768275D01*
X126852615Y-89768273D01*
X126856515Y-89762403D01*
X126914951Y-89608568D01*
X126930763Y-89496062D01*
X126937302Y-89449534D01*
X126937303Y-89449527D01*
X126937853Y-89445610D01*
X126938024Y-89433381D01*
X126938086Y-89428962D01*
X126938086Y-89428956D01*
X126938141Y-89425000D01*
X126919798Y-89261466D01*
X126896804Y-89195436D01*
X126893290Y-89124528D01*
X126928671Y-89062976D01*
X126991713Y-89030323D01*
X127015795Y-89028000D01*
X140498704Y-89028000D01*
X140566825Y-89048002D01*
X140613318Y-89101658D01*
X140623422Y-89171932D01*
X140593928Y-89236512D01*
X140564726Y-89261318D01*
X140537062Y-89278337D01*
X140517727Y-89297271D01*
X140433797Y-89379462D01*
X140419489Y-89393473D01*
X140330345Y-89531797D01*
X140327934Y-89538420D01*
X140327933Y-89538423D01*
X140276473Y-89679809D01*
X140276472Y-89679814D01*
X140274063Y-89686432D01*
X140253438Y-89849694D01*
X140269496Y-90013468D01*
X140321439Y-90169615D01*
X140335917Y-90193521D01*
X140398264Y-90296466D01*
X140406686Y-90310373D01*
X140520998Y-90428747D01*
X140658696Y-90518854D01*
X140812935Y-90576215D01*
X140819916Y-90577146D01*
X140819918Y-90577147D01*
X140969068Y-90597048D01*
X140969072Y-90597048D01*
X140976049Y-90597979D01*
X140983060Y-90597341D01*
X140983064Y-90597341D01*
X141132910Y-90583704D01*
X141132911Y-90583704D01*
X141139931Y-90583065D01*
X141168569Y-90573760D01*
X141289737Y-90534390D01*
X141289740Y-90534389D01*
X141296436Y-90532213D01*
X141437786Y-90447951D01*
X141442884Y-90443096D01*
X141448498Y-90438835D01*
X141450258Y-90441154D01*
X141501789Y-90414643D01*
X141572459Y-90421451D01*
X141628229Y-90465386D01*
X141650929Y-90526090D01*
X141659496Y-90613468D01*
X141711439Y-90769615D01*
X141715088Y-90775640D01*
X141789397Y-90898337D01*
X141796686Y-90910373D01*
X141801577Y-90915438D01*
X141801578Y-90915439D01*
X141804425Y-90918387D01*
X141884003Y-91000792D01*
X141885342Y-91002179D01*
X141918274Y-91065076D01*
X141911974Y-91135792D01*
X141882862Y-91179730D01*
X141833139Y-91228423D01*
X141827982Y-91233473D01*
X141738838Y-91371797D01*
X141736427Y-91378420D01*
X141736426Y-91378423D01*
X141684966Y-91519809D01*
X141684965Y-91519814D01*
X141682556Y-91526432D01*
X141661931Y-91689694D01*
X141662942Y-91700000D01*
X141664229Y-91713128D01*
X141650970Y-91782875D01*
X141602108Y-91834382D01*
X141533155Y-91851296D01*
X141466005Y-91828246D01*
X141462522Y-91824739D01*
X141323580Y-91736563D01*
X141230639Y-91703468D01*
X141175189Y-91683723D01*
X141175187Y-91683722D01*
X141168555Y-91681361D01*
X141161569Y-91680528D01*
X141161565Y-91680527D01*
X141047071Y-91666875D01*
X141005153Y-91661877D01*
X140998150Y-91662613D01*
X140998149Y-91662613D01*
X140954935Y-91667155D01*
X140841495Y-91679078D01*
X140827850Y-91683723D01*
X140692382Y-91729840D01*
X140692379Y-91729841D01*
X140685715Y-91732110D01*
X140545555Y-91818337D01*
X140505913Y-91857157D01*
X140448753Y-91913133D01*
X140427982Y-91933473D01*
X140338838Y-92071797D01*
X140336427Y-92078420D01*
X140336426Y-92078423D01*
X140284966Y-92219809D01*
X140284965Y-92219814D01*
X140282556Y-92226432D01*
X140261931Y-92389694D01*
X140277989Y-92553468D01*
X140329932Y-92709615D01*
X140333581Y-92715640D01*
X140408738Y-92839737D01*
X140415179Y-92850373D01*
X140420070Y-92855438D01*
X140420071Y-92855439D01*
X140524626Y-92963709D01*
X140557558Y-93026606D01*
X140551258Y-93097322D01*
X140522146Y-93141260D01*
X140454526Y-93207479D01*
X140427982Y-93233473D01*
X140338838Y-93371797D01*
X140336427Y-93378420D01*
X140336426Y-93378423D01*
X140284966Y-93519809D01*
X140284965Y-93519814D01*
X140282556Y-93526432D01*
X140261931Y-93689694D01*
X140277989Y-93853468D01*
X140329932Y-94009615D01*
X140333581Y-94015640D01*
X140406757Y-94136466D01*
X140415179Y-94150373D01*
X140529491Y-94268747D01*
X140667189Y-94358854D01*
X140821428Y-94416215D01*
X140828409Y-94417146D01*
X140828411Y-94417147D01*
X140977561Y-94437048D01*
X140977565Y-94437048D01*
X140984542Y-94437979D01*
X140991553Y-94437341D01*
X140991557Y-94437341D01*
X141141403Y-94423704D01*
X141141404Y-94423704D01*
X141148424Y-94423065D01*
X141215551Y-94401254D01*
X141298230Y-94374390D01*
X141298233Y-94374389D01*
X141304929Y-94372213D01*
X141446279Y-94287951D01*
X141565449Y-94174468D01*
X141569350Y-94168597D01*
X141652614Y-94043275D01*
X141652615Y-94043273D01*
X141656515Y-94037403D01*
X141714951Y-93883568D01*
X141731333Y-93767006D01*
X141737302Y-93724534D01*
X141737303Y-93724527D01*
X141737853Y-93720610D01*
X141737995Y-93710430D01*
X141738086Y-93703962D01*
X141738086Y-93703956D01*
X141738141Y-93700000D01*
X141719798Y-93536466D01*
X141715835Y-93525084D01*
X141690797Y-93453186D01*
X141665680Y-93381060D01*
X141639033Y-93338415D01*
X141582209Y-93247479D01*
X141578476Y-93241505D01*
X141475476Y-93137783D01*
X141441669Y-93075354D01*
X141446981Y-93004556D01*
X141477990Y-92957754D01*
X141560346Y-92879327D01*
X141565449Y-92874468D01*
X141582982Y-92848079D01*
X141652614Y-92743275D01*
X141652615Y-92743273D01*
X141656515Y-92737403D01*
X141714951Y-92583568D01*
X141735543Y-92437048D01*
X141737302Y-92424534D01*
X141737303Y-92424527D01*
X141737853Y-92420610D01*
X141738141Y-92400000D01*
X141736942Y-92389309D01*
X141749227Y-92319383D01*
X141797366Y-92267200D01*
X141866076Y-92249326D01*
X141931150Y-92269833D01*
X141990215Y-92308484D01*
X142067189Y-92358854D01*
X142221428Y-92416215D01*
X142228409Y-92417146D01*
X142228411Y-92417147D01*
X142377561Y-92437048D01*
X142377565Y-92437048D01*
X142384542Y-92437979D01*
X142391553Y-92437341D01*
X142391557Y-92437341D01*
X142541403Y-92423704D01*
X142541404Y-92423704D01*
X142548424Y-92423065D01*
X142577062Y-92413760D01*
X142655494Y-92388276D01*
X142726462Y-92386249D01*
X142787259Y-92422911D01*
X142818585Y-92486623D01*
X142810492Y-92557157D01*
X142800346Y-92576356D01*
X142738838Y-92671797D01*
X142736427Y-92678420D01*
X142736426Y-92678423D01*
X142684966Y-92819809D01*
X142684965Y-92819814D01*
X142682556Y-92826432D01*
X142661931Y-92989694D01*
X142677989Y-93153468D01*
X142688745Y-93185801D01*
X142727708Y-93302931D01*
X142727710Y-93302935D01*
X142729684Y-93308868D01*
X142729932Y-93309615D01*
X142729801Y-93309659D01*
X142739740Y-93376646D01*
X142720855Y-93427527D01*
X142713588Y-93438803D01*
X142711177Y-93445426D01*
X142711176Y-93445429D01*
X142659716Y-93586815D01*
X142659715Y-93586820D01*
X142657306Y-93593438D01*
X142636681Y-93756700D01*
X142652739Y-93920474D01*
X142704682Y-94076621D01*
X142712625Y-94089737D01*
X142781722Y-94203827D01*
X142789929Y-94217379D01*
X142794820Y-94222444D01*
X142794821Y-94222445D01*
X142861311Y-94291297D01*
X142904241Y-94335753D01*
X143041939Y-94425860D01*
X143048543Y-94428316D01*
X143048551Y-94428320D01*
X143129855Y-94458557D01*
X143186732Y-94501049D01*
X143211605Y-94567546D01*
X143196580Y-94636934D01*
X143146425Y-94687184D01*
X143087655Y-94701996D01*
X143086660Y-94701877D01*
X143079657Y-94702613D01*
X143079655Y-94702613D01*
X143033512Y-94707463D01*
X142923002Y-94719078D01*
X142916334Y-94721348D01*
X142773889Y-94769840D01*
X142773886Y-94769841D01*
X142767222Y-94772110D01*
X142627062Y-94858337D01*
X142608450Y-94876563D01*
X142528716Y-94954645D01*
X142509489Y-94973473D01*
X142420345Y-95111797D01*
X142417934Y-95118420D01*
X142417933Y-95118423D01*
X142366473Y-95259809D01*
X142366472Y-95259814D01*
X142364063Y-95266432D01*
X142343438Y-95429694D01*
X142359496Y-95593468D01*
X142411439Y-95749615D01*
X142415088Y-95755640D01*
X142492565Y-95883568D01*
X142496686Y-95890373D01*
X142501577Y-95895438D01*
X142501578Y-95895439D01*
X142519954Y-95914468D01*
X142610998Y-96008747D01*
X142748696Y-96098854D01*
X142902935Y-96156215D01*
X142909916Y-96157146D01*
X142909918Y-96157147D01*
X143059068Y-96177048D01*
X143059072Y-96177048D01*
X143066049Y-96177979D01*
X143073060Y-96177341D01*
X143073064Y-96177341D01*
X143222910Y-96163704D01*
X143222911Y-96163704D01*
X143229931Y-96163065D01*
X143268993Y-96150373D01*
X143379737Y-96114390D01*
X143379740Y-96114389D01*
X143386436Y-96112213D01*
X143527786Y-96027951D01*
X143646956Y-95914468D01*
X143662965Y-95890373D01*
X143734121Y-95783275D01*
X143734122Y-95783273D01*
X143738022Y-95777403D01*
X143796458Y-95623568D01*
X143808203Y-95540000D01*
X143818809Y-95464534D01*
X143818810Y-95464527D01*
X143819360Y-95460610D01*
X143819648Y-95440000D01*
X143801305Y-95276466D01*
X143795505Y-95259809D01*
X143768418Y-95182027D01*
X143747187Y-95121060D01*
X143742506Y-95113568D01*
X143663716Y-94987479D01*
X143659983Y-94981505D01*
X143598602Y-94919694D01*
X143548993Y-94869737D01*
X143548989Y-94869734D01*
X143544029Y-94864739D01*
X143405087Y-94776563D01*
X143374412Y-94765640D01*
X143328126Y-94749158D01*
X143270662Y-94707463D01*
X143244862Y-94641321D01*
X143258917Y-94571729D01*
X143308366Y-94520784D01*
X143359558Y-94507912D01*
X143359292Y-94504985D01*
X143516153Y-94490710D01*
X143516154Y-94490710D01*
X143523174Y-94490071D01*
X143561928Y-94477479D01*
X143672980Y-94441396D01*
X143672983Y-94441395D01*
X143679679Y-94439219D01*
X143821029Y-94354957D01*
X143940199Y-94241474D01*
X143952842Y-94222445D01*
X144027364Y-94110281D01*
X144027365Y-94110279D01*
X144031265Y-94104409D01*
X144089701Y-93950574D01*
X144098257Y-93889695D01*
X144112052Y-93791540D01*
X144112053Y-93791533D01*
X144112603Y-93787616D01*
X144112891Y-93767006D01*
X144094548Y-93603472D01*
X144041246Y-93450409D01*
X144038733Y-93399694D01*
X145251931Y-93399694D01*
X145267989Y-93563468D01*
X145319932Y-93719615D01*
X145336761Y-93747403D01*
X145388556Y-93832925D01*
X145405179Y-93860373D01*
X145483376Y-93941348D01*
X145487025Y-93945127D01*
X145519957Y-94008024D01*
X145513657Y-94078740D01*
X145502300Y-94100908D01*
X145488838Y-94121797D01*
X145486427Y-94128420D01*
X145486426Y-94128423D01*
X145434966Y-94269809D01*
X145434965Y-94269814D01*
X145432556Y-94276432D01*
X145411931Y-94439694D01*
X145427989Y-94603468D01*
X145479932Y-94759615D01*
X145483581Y-94765640D01*
X145550298Y-94875801D01*
X145565179Y-94900373D01*
X145679491Y-95018747D01*
X145817189Y-95108854D01*
X145971428Y-95166215D01*
X145978409Y-95167146D01*
X145978411Y-95167147D01*
X146127561Y-95187048D01*
X146127565Y-95187048D01*
X146134542Y-95187979D01*
X146141553Y-95187341D01*
X146141557Y-95187341D01*
X146291403Y-95173704D01*
X146291404Y-95173704D01*
X146298424Y-95173065D01*
X146327062Y-95163760D01*
X146448230Y-95124390D01*
X146448233Y-95124389D01*
X146454929Y-95122213D01*
X146596279Y-95037951D01*
X146715449Y-94924468D01*
X146731458Y-94900373D01*
X146802614Y-94793275D01*
X146802615Y-94793273D01*
X146806515Y-94787403D01*
X146864951Y-94633568D01*
X146881665Y-94514640D01*
X146887302Y-94474534D01*
X146887303Y-94474527D01*
X146887853Y-94470610D01*
X146887995Y-94460430D01*
X146888086Y-94453962D01*
X146888086Y-94453956D01*
X146888141Y-94450000D01*
X146869798Y-94286466D01*
X146863998Y-94269809D01*
X146840792Y-94203172D01*
X146815680Y-94131060D01*
X146806190Y-94115872D01*
X146732209Y-93997479D01*
X146728476Y-93991505D01*
X146715807Y-93978747D01*
X146654611Y-93917122D01*
X146620804Y-93854691D01*
X146626116Y-93783893D01*
X146639069Y-93758610D01*
X146642620Y-93753265D01*
X146646515Y-93747403D01*
X146650122Y-93737909D01*
X146685927Y-93643650D01*
X146704951Y-93593568D01*
X146723669Y-93460381D01*
X146727302Y-93434534D01*
X146727303Y-93434527D01*
X146727853Y-93430610D01*
X146728141Y-93410000D01*
X146709798Y-93246466D01*
X146705274Y-93233473D01*
X146679741Y-93160153D01*
X146655680Y-93091060D01*
X146603918Y-93008223D01*
X146572209Y-92957479D01*
X146568476Y-92951505D01*
X146486145Y-92868597D01*
X146457486Y-92839737D01*
X146457482Y-92839734D01*
X146452522Y-92834739D01*
X146313580Y-92746563D01*
X146264447Y-92729068D01*
X146165189Y-92693723D01*
X146165187Y-92693722D01*
X146158555Y-92691361D01*
X146151569Y-92690528D01*
X146151565Y-92690527D01*
X146022048Y-92675084D01*
X145995153Y-92671877D01*
X145988150Y-92672613D01*
X145988149Y-92672613D01*
X145964640Y-92675084D01*
X145831495Y-92689078D01*
X145824827Y-92691348D01*
X145682382Y-92739840D01*
X145682379Y-92739841D01*
X145675715Y-92742110D01*
X145535555Y-92828337D01*
X145494443Y-92868597D01*
X145423222Y-92938342D01*
X145417982Y-92943473D01*
X145328838Y-93081797D01*
X145326427Y-93088420D01*
X145326426Y-93088423D01*
X145274966Y-93229809D01*
X145274965Y-93229814D01*
X145272556Y-93236432D01*
X145251931Y-93399694D01*
X144038733Y-93399694D01*
X144037733Y-93379501D01*
X144050544Y-93350126D01*
X144049396Y-93349536D01*
X144052613Y-93343275D01*
X144056515Y-93337403D01*
X144114951Y-93183568D01*
X144125026Y-93111877D01*
X144137302Y-93024534D01*
X144137303Y-93024527D01*
X144137853Y-93020610D01*
X144138059Y-93005861D01*
X144138086Y-93003962D01*
X144138086Y-93003956D01*
X144138141Y-93000000D01*
X144119798Y-92836466D01*
X144115682Y-92824645D01*
X144089806Y-92750340D01*
X144065680Y-92681060D01*
X144056192Y-92665875D01*
X143982209Y-92547479D01*
X143978476Y-92541505D01*
X143920499Y-92483122D01*
X143867486Y-92429737D01*
X143867482Y-92429734D01*
X143862522Y-92424739D01*
X143723580Y-92336563D01*
X143654088Y-92311818D01*
X143575189Y-92283723D01*
X143575187Y-92283722D01*
X143568555Y-92281361D01*
X143561569Y-92280528D01*
X143561565Y-92280527D01*
X143447071Y-92266875D01*
X143405153Y-92261877D01*
X143398150Y-92262613D01*
X143398149Y-92262613D01*
X143363879Y-92266215D01*
X143241495Y-92279078D01*
X143145322Y-92311818D01*
X143074390Y-92314836D01*
X143013087Y-92279026D01*
X142980875Y-92215758D01*
X142987982Y-92145118D01*
X142999769Y-92122813D01*
X143052614Y-92043275D01*
X143052615Y-92043273D01*
X143056515Y-92037403D01*
X143114951Y-91883568D01*
X143129095Y-91782929D01*
X143137302Y-91724534D01*
X143137303Y-91724527D01*
X143137853Y-91720610D01*
X143138141Y-91700000D01*
X143119798Y-91536466D01*
X143113998Y-91519809D01*
X143067998Y-91387717D01*
X143065680Y-91381060D01*
X143031945Y-91327072D01*
X142982209Y-91247479D01*
X142978476Y-91241505D01*
X142940436Y-91203198D01*
X142897111Y-91159570D01*
X142863304Y-91097139D01*
X142868616Y-91026342D01*
X142899626Y-90979540D01*
X142941850Y-90939332D01*
X142941857Y-90939324D01*
X142946956Y-90934468D01*
X142954320Y-90923385D01*
X143034121Y-90803275D01*
X143034122Y-90803273D01*
X143038022Y-90797403D01*
X143096458Y-90643568D01*
X143111802Y-90534390D01*
X143118809Y-90484534D01*
X143118810Y-90484527D01*
X143119360Y-90480610D01*
X143119648Y-90460000D01*
X143101305Y-90296466D01*
X143080614Y-90237048D01*
X143065456Y-90193521D01*
X143047187Y-90141060D01*
X143029953Y-90113479D01*
X143012637Y-90085768D01*
X144378932Y-90085768D01*
X144410645Y-90193521D01*
X144415238Y-90204889D01*
X144501114Y-90369154D01*
X144507828Y-90379415D01*
X144623975Y-90523873D01*
X144632553Y-90532632D01*
X144774546Y-90651778D01*
X144784666Y-90658708D01*
X144947092Y-90748002D01*
X144958365Y-90752834D01*
X145135045Y-90808880D01*
X145147039Y-90811430D01*
X145291268Y-90827607D01*
X145298292Y-90828000D01*
X145516484Y-90828000D01*
X145584605Y-90848002D01*
X145631098Y-90901658D01*
X145641202Y-90971932D01*
X145633473Y-91000792D01*
X145623977Y-91024534D01*
X145622863Y-91031262D01*
X145622862Y-91031266D01*
X145598284Y-91179730D01*
X145594399Y-91203198D01*
X145594756Y-91210015D01*
X145594756Y-91210019D01*
X145600702Y-91323460D01*
X145603877Y-91384047D01*
X145605688Y-91390620D01*
X145605688Y-91390623D01*
X145638652Y-91510297D01*
X145651968Y-91558641D01*
X145736429Y-91718836D01*
X145740834Y-91724049D01*
X145740837Y-91724053D01*
X145848913Y-91851943D01*
X145848917Y-91851947D01*
X145853320Y-91857157D01*
X145858744Y-91861304D01*
X145858745Y-91861305D01*
X145991764Y-91963006D01*
X145991768Y-91963009D01*
X145997185Y-91967150D01*
X146079296Y-92005439D01*
X146155138Y-92040805D01*
X146155141Y-92040806D01*
X146161315Y-92043685D01*
X146167963Y-92045171D01*
X146167966Y-92045172D01*
X146273928Y-92068857D01*
X146338050Y-92083190D01*
X146343595Y-92083500D01*
X146476751Y-92083500D01*
X146611544Y-92068857D01*
X146743442Y-92024468D01*
X146776711Y-92013272D01*
X146776713Y-92013271D01*
X146783182Y-92011094D01*
X146938412Y-91917823D01*
X146943369Y-91913135D01*
X146943372Y-91913133D01*
X147065034Y-91798082D01*
X147065036Y-91798080D01*
X147069992Y-91793393D01*
X147073824Y-91787755D01*
X147073827Y-91787751D01*
X147167949Y-91649255D01*
X147171784Y-91643612D01*
X147239037Y-91475466D01*
X147240151Y-91468738D01*
X147240152Y-91468734D01*
X147267500Y-91303539D01*
X147267500Y-91303536D01*
X147268615Y-91296802D01*
X147265607Y-91239396D01*
X147259494Y-91122766D01*
X147259137Y-91115953D01*
X147254049Y-91097479D01*
X147212859Y-90947941D01*
X147211046Y-90941359D01*
X147126585Y-90781164D01*
X147122180Y-90775951D01*
X147122177Y-90775947D01*
X147103813Y-90754217D01*
X147075121Y-90689276D01*
X147086094Y-90619132D01*
X147120415Y-90575246D01*
X147160440Y-90542603D01*
X147169144Y-90533959D01*
X147287291Y-90391144D01*
X147294151Y-90380973D01*
X147382311Y-90217924D01*
X147387063Y-90206619D01*
X147422757Y-90091308D01*
X147422838Y-90085768D01*
X148808932Y-90085768D01*
X148840645Y-90193521D01*
X148845238Y-90204889D01*
X148931114Y-90369154D01*
X148937828Y-90379415D01*
X149053975Y-90523873D01*
X149062553Y-90532632D01*
X149204546Y-90651778D01*
X149214666Y-90658708D01*
X149377092Y-90748002D01*
X149388365Y-90752834D01*
X149565045Y-90808880D01*
X149577039Y-90811430D01*
X149721268Y-90827607D01*
X149728292Y-90828000D01*
X149809392Y-90828000D01*
X149824631Y-90823525D01*
X149825836Y-90822135D01*
X149827507Y-90814452D01*
X149827507Y-90092115D01*
X149823032Y-90076876D01*
X149821642Y-90075671D01*
X149813959Y-90074000D01*
X148823583Y-90074000D01*
X148810052Y-90077973D01*
X148808932Y-90085768D01*
X147422838Y-90085768D01*
X147422963Y-90077205D01*
X147416208Y-90074000D01*
X144393583Y-90074000D01*
X144380052Y-90077973D01*
X144378932Y-90085768D01*
X143012637Y-90085768D01*
X142963716Y-90007479D01*
X142959983Y-90001505D01*
X142925773Y-89967055D01*
X142918473Y-89959704D01*
X142884666Y-89897273D01*
X142889978Y-89826475D01*
X142920986Y-89779676D01*
X142936956Y-89764468D01*
X142961233Y-89727929D01*
X143024121Y-89633275D01*
X143024122Y-89633273D01*
X143028022Y-89627403D01*
X143086458Y-89473568D01*
X143097344Y-89396110D01*
X143108809Y-89314534D01*
X143108810Y-89314527D01*
X143109360Y-89310610D01*
X143109502Y-89300430D01*
X143109593Y-89293962D01*
X143109593Y-89293956D01*
X143109648Y-89290000D01*
X143095969Y-89168045D01*
X143108253Y-89098119D01*
X143156392Y-89045935D01*
X143221184Y-89028000D01*
X144430668Y-89028000D01*
X144498789Y-89048002D01*
X144545282Y-89101658D01*
X144555386Y-89171932D01*
X144527752Y-89234316D01*
X144515724Y-89248855D01*
X144508863Y-89259027D01*
X144420703Y-89422076D01*
X144415951Y-89433381D01*
X144380257Y-89548692D01*
X144380051Y-89562795D01*
X144386806Y-89566000D01*
X147409431Y-89566000D01*
X147422962Y-89562027D01*
X147424082Y-89554232D01*
X147392369Y-89446479D01*
X147387776Y-89435111D01*
X147301900Y-89270846D01*
X147295182Y-89260579D01*
X147272969Y-89232951D01*
X147245873Y-89167328D01*
X147258557Y-89097474D01*
X147306994Y-89045566D01*
X147371166Y-89028000D01*
X148860668Y-89028000D01*
X148928789Y-89048002D01*
X148975282Y-89101658D01*
X148985386Y-89171932D01*
X148957752Y-89234316D01*
X148945724Y-89248855D01*
X148938863Y-89259027D01*
X148850703Y-89422076D01*
X148845951Y-89433381D01*
X148810257Y-89548692D01*
X148810051Y-89562795D01*
X148816806Y-89566000D01*
X150209507Y-89566000D01*
X150277628Y-89586002D01*
X150324121Y-89639658D01*
X150335507Y-89692000D01*
X150335507Y-90809885D01*
X150339982Y-90825124D01*
X150341372Y-90826329D01*
X150349055Y-90828000D01*
X150428164Y-90828000D01*
X150434312Y-90827699D01*
X150572110Y-90814188D01*
X150584145Y-90811805D01*
X150761583Y-90758233D01*
X150772923Y-90753559D01*
X150936586Y-90666539D01*
X150946271Y-90660104D01*
X151014079Y-90639066D01*
X151082497Y-90658027D01*
X151129802Y-90710968D01*
X151142000Y-90765051D01*
X151142000Y-97514909D01*
X151121998Y-97583030D01*
X151068342Y-97629523D01*
X150998068Y-97639627D01*
X150954611Y-97622695D01*
X150953749Y-97624262D01*
X150785922Y-97531998D01*
X150774649Y-97527166D01*
X150597969Y-97471120D01*
X150585975Y-97468570D01*
X150441746Y-97452393D01*
X150434722Y-97452000D01*
X150353622Y-97452000D01*
X150338383Y-97456475D01*
X150337178Y-97457865D01*
X150335507Y-97465548D01*
X150335507Y-99449885D01*
X150339982Y-99465124D01*
X150341372Y-99466329D01*
X150349055Y-99468000D01*
X150428164Y-99468000D01*
X150434312Y-99467699D01*
X150572110Y-99454188D01*
X150584145Y-99451805D01*
X150761583Y-99398233D01*
X150772923Y-99393559D01*
X150936586Y-99306539D01*
X150946271Y-99300104D01*
X151014079Y-99279066D01*
X151082497Y-99298027D01*
X151129802Y-99350968D01*
X151142000Y-99405051D01*
X151142000Y-110346000D01*
X151121998Y-110414121D01*
X151068342Y-110460614D01*
X151016000Y-110472000D01*
X119935830Y-110472000D01*
X119491869Y-110471882D01*
X119423754Y-110451862D01*
X119377275Y-110398194D01*
X119367190Y-110327917D01*
X119396700Y-110263344D01*
X119405011Y-110254636D01*
X119510346Y-110154327D01*
X119515449Y-110149468D01*
X119534780Y-110120373D01*
X119602614Y-110018275D01*
X119602615Y-110018273D01*
X119606515Y-110012403D01*
X119664951Y-109858568D01*
X119676232Y-109778297D01*
X119687302Y-109699534D01*
X119687303Y-109699527D01*
X119687853Y-109695610D01*
X119688141Y-109675000D01*
X119669798Y-109511466D01*
X119666998Y-109503424D01*
X119619821Y-109367951D01*
X119615680Y-109356060D01*
X119611111Y-109348747D01*
X119532209Y-109222479D01*
X119528476Y-109216505D01*
X119523511Y-109211505D01*
X119417486Y-109104737D01*
X119417482Y-109104734D01*
X119412522Y-109099739D01*
X119273580Y-109011563D01*
X119187224Y-108980813D01*
X119125189Y-108958723D01*
X119125187Y-108958722D01*
X119118555Y-108956361D01*
X119111569Y-108955528D01*
X119111565Y-108955527D01*
X118982627Y-108940153D01*
X118955153Y-108936877D01*
X118948150Y-108937613D01*
X118948149Y-108937613D01*
X118904935Y-108942155D01*
X118791495Y-108954078D01*
X118784827Y-108956348D01*
X118642382Y-109004840D01*
X118642379Y-109004841D01*
X118635715Y-109007110D01*
X118545768Y-109062446D01*
X118509684Y-109084645D01*
X118495555Y-109093337D01*
X118377982Y-109208473D01*
X118288838Y-109346797D01*
X118286427Y-109353420D01*
X118286426Y-109353423D01*
X118234966Y-109494809D01*
X118234965Y-109494814D01*
X118232556Y-109501432D01*
X118211931Y-109664694D01*
X118227989Y-109828468D01*
X118279932Y-109984615D01*
X118283581Y-109990640D01*
X118357340Y-110112429D01*
X118365179Y-110125373D01*
X118479491Y-110243747D01*
X118485388Y-110247606D01*
X118486476Y-110248506D01*
X118526215Y-110307339D01*
X118527838Y-110378317D01*
X118490830Y-110438905D01*
X118426940Y-110469867D01*
X118406128Y-110471592D01*
X117694683Y-110471403D01*
X117435944Y-110471334D01*
X117367829Y-110451314D01*
X117321350Y-110397646D01*
X117311265Y-110327369D01*
X117340775Y-110262796D01*
X117349086Y-110254088D01*
X117398833Y-110206715D01*
X117464199Y-110144468D01*
X117480208Y-110120373D01*
X117551364Y-110013275D01*
X117551365Y-110013273D01*
X117555265Y-110007403D01*
X117613701Y-109853568D01*
X117623098Y-109786705D01*
X117636052Y-109694534D01*
X117636053Y-109694527D01*
X117636603Y-109690610D01*
X117636891Y-109670000D01*
X117618548Y-109506466D01*
X117612748Y-109489809D01*
X117593659Y-109434994D01*
X117564430Y-109351060D01*
X117546405Y-109322213D01*
X117480959Y-109217479D01*
X117477226Y-109211505D01*
X117419249Y-109153122D01*
X117366236Y-109099737D01*
X117366232Y-109099734D01*
X117361272Y-109094739D01*
X117222330Y-109006563D01*
X117120082Y-108970154D01*
X117073939Y-108953723D01*
X117073937Y-108953722D01*
X117067305Y-108951361D01*
X117060319Y-108950528D01*
X117060315Y-108950527D01*
X116945821Y-108936875D01*
X116903903Y-108931877D01*
X116896900Y-108932613D01*
X116896899Y-108932613D01*
X116856331Y-108936877D01*
X116740245Y-108949078D01*
X116733577Y-108951348D01*
X116591132Y-108999840D01*
X116591129Y-108999841D01*
X116584465Y-109002110D01*
X116562960Y-109015340D01*
X116453096Y-109082929D01*
X116444305Y-109088337D01*
X116326732Y-109203473D01*
X116237588Y-109341797D01*
X116235177Y-109348420D01*
X116235176Y-109348423D01*
X116183716Y-109489809D01*
X116183715Y-109489814D01*
X116181306Y-109496432D01*
X116160681Y-109659694D01*
X116176739Y-109823468D01*
X116228682Y-109979615D01*
X116236400Y-109992359D01*
X116309274Y-110112686D01*
X116313929Y-110120373D01*
X116318820Y-110125438D01*
X116318821Y-110125439D01*
X116331528Y-110138597D01*
X116428241Y-110238747D01*
X116434138Y-110242606D01*
X116439562Y-110247093D01*
X116437776Y-110249252D01*
X116475607Y-110293630D01*
X116485144Y-110363983D01*
X116455131Y-110428324D01*
X116395098Y-110466225D01*
X116360542Y-110471047D01*
X115906233Y-110470926D01*
X115393016Y-110470790D01*
X115324901Y-110450770D01*
X115278422Y-110397102D01*
X115268337Y-110326825D01*
X115297847Y-110262252D01*
X115306158Y-110253544D01*
X115410346Y-110154327D01*
X115415449Y-110149468D01*
X115434780Y-110120373D01*
X115502614Y-110018275D01*
X115502615Y-110018273D01*
X115506515Y-110012403D01*
X115564951Y-109858568D01*
X115576232Y-109778297D01*
X115587302Y-109699534D01*
X115587303Y-109699527D01*
X115587853Y-109695610D01*
X115588141Y-109675000D01*
X115569798Y-109511466D01*
X115566998Y-109503424D01*
X115519821Y-109367951D01*
X115515680Y-109356060D01*
X115511111Y-109348747D01*
X115432209Y-109222479D01*
X115428476Y-109216505D01*
X115423511Y-109211505D01*
X115317486Y-109104737D01*
X115317482Y-109104734D01*
X115312522Y-109099739D01*
X115173580Y-109011563D01*
X115087224Y-108980813D01*
X115025189Y-108958723D01*
X115025187Y-108958722D01*
X115018555Y-108956361D01*
X115011569Y-108955528D01*
X115011565Y-108955527D01*
X114882627Y-108940153D01*
X114855153Y-108936877D01*
X114848150Y-108937613D01*
X114848149Y-108937613D01*
X114804935Y-108942155D01*
X114691495Y-108954078D01*
X114684827Y-108956348D01*
X114542382Y-109004840D01*
X114542379Y-109004841D01*
X114535715Y-109007110D01*
X114445768Y-109062446D01*
X114409684Y-109084645D01*
X114395555Y-109093337D01*
X114277982Y-109208473D01*
X114188838Y-109346797D01*
X114186427Y-109353420D01*
X114186426Y-109353423D01*
X114134966Y-109494809D01*
X114134965Y-109494814D01*
X114132556Y-109501432D01*
X114111931Y-109664694D01*
X114127989Y-109828468D01*
X114179932Y-109984615D01*
X114183581Y-109990640D01*
X114257340Y-110112429D01*
X114265179Y-110125373D01*
X114379491Y-110243747D01*
X114385205Y-110247486D01*
X114424895Y-110306247D01*
X114426518Y-110377225D01*
X114389510Y-110437813D01*
X114325620Y-110468775D01*
X114304812Y-110470500D01*
X113366097Y-110470250D01*
X113297983Y-110450230D01*
X113251504Y-110396562D01*
X113240132Y-110344192D01*
X113240914Y-108639694D01*
X121286931Y-108639694D01*
X121302989Y-108803468D01*
X121354932Y-108959615D01*
X121358581Y-108965640D01*
X121433664Y-109089615D01*
X121440179Y-109100373D01*
X121445070Y-109105438D01*
X121445071Y-109105439D01*
X121457778Y-109118597D01*
X121554491Y-109218747D01*
X121692189Y-109308854D01*
X121846428Y-109366215D01*
X121853409Y-109367146D01*
X121853411Y-109367147D01*
X122002561Y-109387048D01*
X122002565Y-109387048D01*
X122009542Y-109387979D01*
X122016553Y-109387341D01*
X122016557Y-109387341D01*
X122166403Y-109373704D01*
X122166404Y-109373704D01*
X122173424Y-109373065D01*
X122232100Y-109354000D01*
X122323230Y-109324390D01*
X122323233Y-109324389D01*
X122329929Y-109322213D01*
X122471279Y-109237951D01*
X122590449Y-109124468D01*
X122595143Y-109117403D01*
X122616106Y-109085851D01*
X123176719Y-109085851D01*
X123177885Y-109099737D01*
X123192149Y-109269603D01*
X123193268Y-109282934D01*
X123212047Y-109348423D01*
X123238682Y-109441310D01*
X123247783Y-109473050D01*
X123263209Y-109503065D01*
X123327271Y-109627715D01*
X123338187Y-109648956D01*
X123461035Y-109803953D01*
X123465728Y-109807947D01*
X123465729Y-109807948D01*
X123596051Y-109918860D01*
X123611650Y-109932136D01*
X123784294Y-110028624D01*
X123972392Y-110089740D01*
X124168777Y-110113158D01*
X124174912Y-110112686D01*
X124174914Y-110112686D01*
X124359830Y-110098457D01*
X124359834Y-110098456D01*
X124365972Y-110097984D01*
X124556463Y-110044798D01*
X124561967Y-110042018D01*
X124561969Y-110042017D01*
X124727493Y-109958405D01*
X124727495Y-109958404D01*
X124732996Y-109955625D01*
X124737850Y-109951833D01*
X124737859Y-109951827D01*
X124746548Y-109945038D01*
X124812542Y-109918860D01*
X124885592Y-109934339D01*
X125054294Y-110028624D01*
X125242392Y-110089740D01*
X125438777Y-110113158D01*
X125444912Y-110112686D01*
X125444914Y-110112686D01*
X125629830Y-110098457D01*
X125629834Y-110098456D01*
X125635972Y-110097984D01*
X125826463Y-110044798D01*
X125831967Y-110042018D01*
X125831969Y-110042017D01*
X125997493Y-109958405D01*
X125997495Y-109958404D01*
X126002996Y-109955625D01*
X126007850Y-109951833D01*
X126007859Y-109951827D01*
X126016548Y-109945038D01*
X126082542Y-109918860D01*
X126155592Y-109934339D01*
X126324294Y-110028624D01*
X126512392Y-110089740D01*
X126708777Y-110113158D01*
X126714912Y-110112686D01*
X126714914Y-110112686D01*
X126899830Y-110098457D01*
X126899834Y-110098456D01*
X126905972Y-110097984D01*
X127096463Y-110044798D01*
X127116212Y-110034822D01*
X127186034Y-110021962D01*
X127237569Y-110042148D01*
X127238483Y-110040479D01*
X127261942Y-110053323D01*
X127382394Y-110098478D01*
X127397649Y-110102105D01*
X127448514Y-110107631D01*
X127455328Y-110108000D01*
X127727885Y-110108000D01*
X127743124Y-110103525D01*
X127744329Y-110102135D01*
X127746000Y-110094452D01*
X127746000Y-110089884D01*
X128254000Y-110089884D01*
X128258475Y-110105123D01*
X128259865Y-110106328D01*
X128267548Y-110107999D01*
X128544669Y-110107999D01*
X128551490Y-110107629D01*
X128602352Y-110102105D01*
X128617604Y-110098479D01*
X128738054Y-110053324D01*
X128753649Y-110044786D01*
X128855724Y-109968285D01*
X128868285Y-109955724D01*
X128944786Y-109853649D01*
X128953324Y-109838054D01*
X128998478Y-109717606D01*
X129002105Y-109702351D01*
X129007631Y-109651486D01*
X129008000Y-109644672D01*
X129008000Y-109588134D01*
X129871500Y-109588134D01*
X129878255Y-109650316D01*
X129929385Y-109786705D01*
X130016739Y-109903261D01*
X130133295Y-109990615D01*
X130269684Y-110041745D01*
X130331866Y-110048500D01*
X132128134Y-110048500D01*
X132190316Y-110041745D01*
X132326705Y-109990615D01*
X132443261Y-109903261D01*
X132530615Y-109786705D01*
X132581745Y-109650316D01*
X132588500Y-109588134D01*
X132588500Y-108927966D01*
X132983257Y-108927966D01*
X133013565Y-109062446D01*
X133016645Y-109072275D01*
X133096770Y-109269603D01*
X133101413Y-109278794D01*
X133212694Y-109460388D01*
X133218777Y-109468699D01*
X133358213Y-109629667D01*
X133365580Y-109636883D01*
X133529434Y-109772916D01*
X133537881Y-109778831D01*
X133721756Y-109886279D01*
X133731042Y-109890729D01*
X133930001Y-109966703D01*
X133939899Y-109969579D01*
X134043250Y-109990606D01*
X134057299Y-109989410D01*
X134061000Y-109979065D01*
X134061000Y-109978517D01*
X134569000Y-109978517D01*
X134573064Y-109992359D01*
X134586478Y-109994393D01*
X134593184Y-109993534D01*
X134603262Y-109991392D01*
X134807255Y-109930191D01*
X134816842Y-109926433D01*
X135008095Y-109832739D01*
X135016945Y-109827464D01*
X135190328Y-109703792D01*
X135198193Y-109697145D01*
X135302897Y-109592805D01*
X135365268Y-109558889D01*
X135436075Y-109564077D01*
X135492837Y-109606723D01*
X135509819Y-109637826D01*
X135534009Y-109702351D01*
X135554385Y-109756705D01*
X135641739Y-109873261D01*
X135758295Y-109960615D01*
X135894684Y-110011745D01*
X135956866Y-110018500D01*
X137753134Y-110018500D01*
X137815316Y-110011745D01*
X137951705Y-109960615D01*
X138068261Y-109873261D01*
X138155615Y-109756705D01*
X138206745Y-109620316D01*
X138213500Y-109558134D01*
X138213500Y-108769694D01*
X140011931Y-108769694D01*
X140027989Y-108933468D01*
X140079932Y-109089615D01*
X140092770Y-109110813D01*
X140155069Y-109213679D01*
X140165179Y-109230373D01*
X140279491Y-109348747D01*
X140417189Y-109438854D01*
X140571428Y-109496215D01*
X140578409Y-109497146D01*
X140578411Y-109497147D01*
X140727561Y-109517048D01*
X140727565Y-109517048D01*
X140734542Y-109517979D01*
X140741553Y-109517341D01*
X140741557Y-109517341D01*
X140891403Y-109503704D01*
X140891404Y-109503704D01*
X140898424Y-109503065D01*
X140927062Y-109493760D01*
X141048230Y-109454390D01*
X141048233Y-109454389D01*
X141054929Y-109452213D01*
X141196279Y-109367951D01*
X141315449Y-109254468D01*
X141319350Y-109248597D01*
X141402614Y-109123275D01*
X141402615Y-109123273D01*
X141406515Y-109117403D01*
X141464951Y-108963568D01*
X141484020Y-108827885D01*
X141487302Y-108804534D01*
X141487303Y-108804527D01*
X141487853Y-108800610D01*
X141488141Y-108780000D01*
X141469798Y-108616466D01*
X141463998Y-108599809D01*
X141428421Y-108497648D01*
X141415680Y-108461060D01*
X141379155Y-108402607D01*
X141332209Y-108327479D01*
X141328476Y-108321505D01*
X141266596Y-108259192D01*
X141217486Y-108209737D01*
X141217482Y-108209734D01*
X141212522Y-108204739D01*
X141073580Y-108116563D01*
X141005641Y-108092371D01*
X140925189Y-108063723D01*
X140925187Y-108063722D01*
X140918555Y-108061361D01*
X140911569Y-108060528D01*
X140911565Y-108060527D01*
X140797071Y-108046875D01*
X140755153Y-108041877D01*
X140748150Y-108042613D01*
X140748149Y-108042613D01*
X140704935Y-108047155D01*
X140591495Y-108059078D01*
X140584827Y-108061348D01*
X140442382Y-108109840D01*
X140442379Y-108109841D01*
X140435715Y-108112110D01*
X140352564Y-108163265D01*
X140301841Y-108194470D01*
X140295555Y-108198337D01*
X140177982Y-108313473D01*
X140088838Y-108451797D01*
X140086427Y-108458420D01*
X140086426Y-108458423D01*
X140034966Y-108599809D01*
X140034965Y-108599814D01*
X140032556Y-108606432D01*
X140011931Y-108769694D01*
X138213500Y-108769694D01*
X138213500Y-107761866D01*
X138206745Y-107699684D01*
X138155615Y-107563295D01*
X138068261Y-107446739D01*
X137951705Y-107359385D01*
X137815316Y-107308255D01*
X137753134Y-107301500D01*
X135956866Y-107301500D01*
X135894684Y-107308255D01*
X135758295Y-107359385D01*
X135641739Y-107446739D01*
X135554385Y-107563295D01*
X135551233Y-107571703D01*
X135551232Y-107571705D01*
X135509722Y-107682433D01*
X135467081Y-107739198D01*
X135400519Y-107763898D01*
X135331170Y-107748691D01*
X135298546Y-107723004D01*
X135247799Y-107667234D01*
X135240273Y-107660215D01*
X135073139Y-107528222D01*
X135064552Y-107522517D01*
X134878117Y-107419599D01*
X134868705Y-107415369D01*
X134667959Y-107344280D01*
X134657988Y-107341646D01*
X134586837Y-107328972D01*
X134573540Y-107330432D01*
X134569000Y-107344989D01*
X134569000Y-109978517D01*
X134061000Y-109978517D01*
X134061000Y-108932115D01*
X134056525Y-108916876D01*
X134055135Y-108915671D01*
X134047452Y-108914000D01*
X132998225Y-108914000D01*
X132984694Y-108917973D01*
X132983257Y-108927966D01*
X132588500Y-108927966D01*
X132588500Y-108394183D01*
X132979389Y-108394183D01*
X132980912Y-108402607D01*
X132993292Y-108406000D01*
X134042885Y-108406000D01*
X134058124Y-108401525D01*
X134059329Y-108400135D01*
X134061000Y-108392452D01*
X134061000Y-107343102D01*
X134057082Y-107329758D01*
X134042806Y-107327771D01*
X134004324Y-107333660D01*
X133994288Y-107336051D01*
X133791868Y-107402212D01*
X133782359Y-107406209D01*
X133593463Y-107504542D01*
X133584738Y-107510036D01*
X133414433Y-107637905D01*
X133406726Y-107644748D01*
X133259590Y-107798717D01*
X133253104Y-107806727D01*
X133133098Y-107982649D01*
X133128000Y-107991623D01*
X133038338Y-108184783D01*
X133034775Y-108194470D01*
X132979389Y-108394183D01*
X132588500Y-108394183D01*
X132588500Y-107791866D01*
X132581745Y-107729684D01*
X132530615Y-107593295D01*
X132443261Y-107476739D01*
X132326705Y-107389385D01*
X132190316Y-107338255D01*
X132128134Y-107331500D01*
X130331866Y-107331500D01*
X130269684Y-107338255D01*
X130133295Y-107389385D01*
X130016739Y-107476739D01*
X129929385Y-107593295D01*
X129878255Y-107729684D01*
X129871500Y-107791866D01*
X129871500Y-109588134D01*
X129008000Y-109588134D01*
X129008000Y-109372115D01*
X129003525Y-109356876D01*
X129002135Y-109355671D01*
X128994452Y-109354000D01*
X128272115Y-109354000D01*
X128256876Y-109358475D01*
X128255671Y-109359865D01*
X128254000Y-109367548D01*
X128254000Y-110089884D01*
X127746000Y-110089884D01*
X127746000Y-108827885D01*
X128254000Y-108827885D01*
X128258475Y-108843124D01*
X128259865Y-108844329D01*
X128267548Y-108846000D01*
X128989884Y-108846000D01*
X129005123Y-108841525D01*
X129006328Y-108840135D01*
X129007999Y-108832452D01*
X129007999Y-108555331D01*
X129007629Y-108548510D01*
X129002105Y-108497648D01*
X128998479Y-108482396D01*
X128953324Y-108361946D01*
X128944786Y-108346351D01*
X128868285Y-108244276D01*
X128855724Y-108231715D01*
X128753649Y-108155214D01*
X128738054Y-108146676D01*
X128617606Y-108101522D01*
X128602351Y-108097895D01*
X128551486Y-108092369D01*
X128544672Y-108092000D01*
X128272115Y-108092000D01*
X128256876Y-108096475D01*
X128255671Y-108097865D01*
X128254000Y-108105548D01*
X128254000Y-108827885D01*
X127746000Y-108827885D01*
X127746000Y-108110116D01*
X127741525Y-108094877D01*
X127740135Y-108093672D01*
X127732452Y-108092001D01*
X127455331Y-108092001D01*
X127448510Y-108092371D01*
X127397648Y-108097895D01*
X127382396Y-108101521D01*
X127261946Y-108146676D01*
X127238483Y-108159522D01*
X127237219Y-108157213D01*
X127183609Y-108177243D01*
X127126488Y-108167850D01*
X127122701Y-108165802D01*
X127116821Y-108163982D01*
X127116819Y-108163981D01*
X127039979Y-108140196D01*
X126933768Y-108107318D01*
X126927643Y-108106674D01*
X126927642Y-108106674D01*
X126743204Y-108087289D01*
X126743202Y-108087289D01*
X126737075Y-108086645D01*
X126674179Y-108092369D01*
X126546251Y-108104011D01*
X126546248Y-108104012D01*
X126540112Y-108104570D01*
X126534206Y-108106308D01*
X126534202Y-108106309D01*
X126486529Y-108120340D01*
X126350381Y-108160410D01*
X126344923Y-108163263D01*
X126344919Y-108163265D01*
X126265588Y-108204739D01*
X126175110Y-108252040D01*
X126170310Y-108255900D01*
X126165153Y-108259274D01*
X126163769Y-108257158D01*
X126108365Y-108280027D01*
X126038512Y-108267334D01*
X126028898Y-108261709D01*
X126026675Y-108259870D01*
X125852701Y-108165802D01*
X125663768Y-108107318D01*
X125657643Y-108106674D01*
X125657642Y-108106674D01*
X125473204Y-108087289D01*
X125473202Y-108087289D01*
X125467075Y-108086645D01*
X125404179Y-108092369D01*
X125276251Y-108104011D01*
X125276248Y-108104012D01*
X125270112Y-108104570D01*
X125264206Y-108106308D01*
X125264202Y-108106309D01*
X125216529Y-108120340D01*
X125080381Y-108160410D01*
X125074923Y-108163263D01*
X125074919Y-108163265D01*
X124995588Y-108204739D01*
X124905110Y-108252040D01*
X124900310Y-108255900D01*
X124895153Y-108259274D01*
X124893769Y-108257158D01*
X124838365Y-108280027D01*
X124768512Y-108267334D01*
X124758898Y-108261709D01*
X124756675Y-108259870D01*
X124582701Y-108165802D01*
X124393768Y-108107318D01*
X124387643Y-108106674D01*
X124387642Y-108106674D01*
X124203204Y-108087289D01*
X124203202Y-108087289D01*
X124197075Y-108086645D01*
X124134179Y-108092369D01*
X124006251Y-108104011D01*
X124006248Y-108104012D01*
X124000112Y-108104570D01*
X123994206Y-108106308D01*
X123994202Y-108106309D01*
X123946529Y-108120340D01*
X123810381Y-108160410D01*
X123804923Y-108163263D01*
X123804919Y-108163265D01*
X123725588Y-108204739D01*
X123635110Y-108252040D01*
X123480975Y-108375968D01*
X123353846Y-108527474D01*
X123350879Y-108532872D01*
X123350875Y-108532877D01*
X123286487Y-108650000D01*
X123258567Y-108700787D01*
X123256706Y-108706654D01*
X123256705Y-108706656D01*
X123200627Y-108883436D01*
X123198765Y-108889306D01*
X123176719Y-109085851D01*
X122616106Y-109085851D01*
X122677614Y-108993275D01*
X122677615Y-108993273D01*
X122681515Y-108987403D01*
X122739951Y-108833568D01*
X122758612Y-108700787D01*
X122762302Y-108674534D01*
X122762303Y-108674527D01*
X122762853Y-108670610D01*
X122763141Y-108650000D01*
X122744798Y-108486466D01*
X122738998Y-108469809D01*
X122712059Y-108392452D01*
X122690680Y-108331060D01*
X122684710Y-108321505D01*
X122607209Y-108197479D01*
X122603476Y-108191505D01*
X122529055Y-108116563D01*
X122492486Y-108079737D01*
X122492482Y-108079734D01*
X122487522Y-108074739D01*
X122348580Y-107986563D01*
X122299447Y-107969068D01*
X122200189Y-107933723D01*
X122200187Y-107933722D01*
X122193555Y-107931361D01*
X122186569Y-107930528D01*
X122186565Y-107930527D01*
X122072071Y-107916875D01*
X122030153Y-107911877D01*
X122023150Y-107912613D01*
X122023149Y-107912613D01*
X121979935Y-107917155D01*
X121866495Y-107929078D01*
X121859827Y-107931348D01*
X121717382Y-107979840D01*
X121717379Y-107979841D01*
X121710715Y-107982110D01*
X121695252Y-107991623D01*
X121586802Y-108058342D01*
X121570555Y-108068337D01*
X121523723Y-108114198D01*
X121472887Y-108163981D01*
X121452982Y-108183473D01*
X121363838Y-108321797D01*
X121361427Y-108328420D01*
X121361426Y-108328423D01*
X121309966Y-108469809D01*
X121309965Y-108469814D01*
X121307556Y-108476432D01*
X121286931Y-108639694D01*
X113240914Y-108639694D01*
X113241817Y-106669694D01*
X118121931Y-106669694D01*
X118137989Y-106833468D01*
X118189932Y-106989615D01*
X118275179Y-107130373D01*
X118389491Y-107248747D01*
X118527189Y-107338854D01*
X118681428Y-107396215D01*
X118688409Y-107397146D01*
X118688411Y-107397147D01*
X118837561Y-107417048D01*
X118837565Y-107417048D01*
X118844542Y-107417979D01*
X118851553Y-107417341D01*
X118851557Y-107417341D01*
X119001403Y-107403704D01*
X119001404Y-107403704D01*
X119008424Y-107403065D01*
X119037062Y-107393760D01*
X119158230Y-107354390D01*
X119158233Y-107354389D01*
X119164929Y-107352213D01*
X119306279Y-107267951D01*
X119425449Y-107154468D01*
X119438092Y-107135439D01*
X119512614Y-107023275D01*
X119512615Y-107023273D01*
X119516515Y-107017403D01*
X119574951Y-106863568D01*
X119589322Y-106761310D01*
X119597302Y-106704534D01*
X119597303Y-106704527D01*
X119597853Y-106700610D01*
X119598141Y-106680000D01*
X119596985Y-106669694D01*
X122121931Y-106669694D01*
X122137989Y-106833468D01*
X122189932Y-106989615D01*
X122275179Y-107130373D01*
X122389491Y-107248747D01*
X122527189Y-107338854D01*
X122681428Y-107396215D01*
X122688409Y-107397146D01*
X122688411Y-107397147D01*
X122837561Y-107417048D01*
X122837565Y-107417048D01*
X122844542Y-107417979D01*
X122851553Y-107417341D01*
X122851557Y-107417341D01*
X123001403Y-107403704D01*
X123001404Y-107403704D01*
X123008424Y-107403065D01*
X123037062Y-107393760D01*
X123158230Y-107354390D01*
X123158233Y-107354389D01*
X123164929Y-107352213D01*
X123306279Y-107267951D01*
X123425449Y-107154468D01*
X123438092Y-107135439D01*
X123512614Y-107023275D01*
X123512615Y-107023273D01*
X123516515Y-107017403D01*
X123574951Y-106863568D01*
X123589322Y-106761310D01*
X123597302Y-106704534D01*
X123597303Y-106704527D01*
X123597853Y-106700610D01*
X123598141Y-106680000D01*
X123596985Y-106669694D01*
X126121931Y-106669694D01*
X126137989Y-106833468D01*
X126189932Y-106989615D01*
X126275179Y-107130373D01*
X126389491Y-107248747D01*
X126527189Y-107338854D01*
X126681428Y-107396215D01*
X126688409Y-107397146D01*
X126688411Y-107397147D01*
X126837561Y-107417048D01*
X126837565Y-107417048D01*
X126844542Y-107417979D01*
X126851553Y-107417341D01*
X126851557Y-107417341D01*
X127001403Y-107403704D01*
X127001404Y-107403704D01*
X127008424Y-107403065D01*
X127037062Y-107393760D01*
X127158230Y-107354390D01*
X127158233Y-107354389D01*
X127164929Y-107352213D01*
X127306279Y-107267951D01*
X127425449Y-107154468D01*
X127438092Y-107135439D01*
X127512614Y-107023275D01*
X127512615Y-107023273D01*
X127516515Y-107017403D01*
X127534638Y-106969694D01*
X141151931Y-106969694D01*
X141167989Y-107133468D01*
X141219932Y-107289615D01*
X141223581Y-107295640D01*
X141290545Y-107406209D01*
X141305179Y-107430373D01*
X141419491Y-107548747D01*
X141557189Y-107638854D01*
X141711428Y-107696215D01*
X141718409Y-107697146D01*
X141718411Y-107697147D01*
X141867561Y-107717048D01*
X141867565Y-107717048D01*
X141874542Y-107717979D01*
X141881553Y-107717341D01*
X141881557Y-107717341D01*
X142031403Y-107703704D01*
X142031404Y-107703704D01*
X142038424Y-107703065D01*
X142071601Y-107692285D01*
X142188230Y-107654390D01*
X142188233Y-107654389D01*
X142194929Y-107652213D01*
X142336279Y-107567951D01*
X142455449Y-107454468D01*
X142460584Y-107446739D01*
X142542614Y-107323275D01*
X142542615Y-107323273D01*
X142546515Y-107317403D01*
X142604951Y-107163568D01*
X142625493Y-107017403D01*
X142627302Y-107004534D01*
X142627303Y-107004527D01*
X142627853Y-107000610D01*
X142628141Y-106980000D01*
X142609798Y-106816466D01*
X142603998Y-106799809D01*
X142563354Y-106683096D01*
X142555680Y-106661060D01*
X142497903Y-106568597D01*
X142472209Y-106527479D01*
X142468476Y-106521505D01*
X142378415Y-106430813D01*
X142357486Y-106409737D01*
X142357482Y-106409734D01*
X142352522Y-106404739D01*
X142213580Y-106316563D01*
X142134770Y-106288500D01*
X142065189Y-106263723D01*
X142065187Y-106263722D01*
X142058555Y-106261361D01*
X142051569Y-106260528D01*
X142051565Y-106260527D01*
X141928137Y-106245810D01*
X141895153Y-106241877D01*
X141888150Y-106242613D01*
X141888149Y-106242613D01*
X141851558Y-106246459D01*
X141731495Y-106259078D01*
X141724827Y-106261348D01*
X141582382Y-106309840D01*
X141582379Y-106309841D01*
X141575715Y-106312110D01*
X141435555Y-106398337D01*
X141317982Y-106513473D01*
X141228838Y-106651797D01*
X141226427Y-106658420D01*
X141226426Y-106658423D01*
X141174966Y-106799809D01*
X141174965Y-106799814D01*
X141172556Y-106806432D01*
X141151931Y-106969694D01*
X127534638Y-106969694D01*
X127574951Y-106863568D01*
X127589322Y-106761310D01*
X127597302Y-106704534D01*
X127597303Y-106704527D01*
X127597853Y-106700610D01*
X127598141Y-106680000D01*
X127579798Y-106516466D01*
X127573998Y-106499809D01*
X127552265Y-106437403D01*
X127525680Y-106361060D01*
X127480138Y-106288177D01*
X127442209Y-106227479D01*
X127438476Y-106221505D01*
X127380499Y-106163122D01*
X127327486Y-106109737D01*
X127327482Y-106109734D01*
X127322522Y-106104739D01*
X127298815Y-106089694D01*
X130361931Y-106089694D01*
X130377989Y-106253468D01*
X130429932Y-106409615D01*
X130433581Y-106415640D01*
X130501314Y-106527479D01*
X130515179Y-106550373D01*
X130629491Y-106668747D01*
X130767189Y-106758854D01*
X130921428Y-106816215D01*
X130928409Y-106817146D01*
X130928411Y-106817147D01*
X131077561Y-106837048D01*
X131077565Y-106837048D01*
X131084542Y-106837979D01*
X131091553Y-106837341D01*
X131091557Y-106837341D01*
X131241403Y-106823704D01*
X131241404Y-106823704D01*
X131248424Y-106823065D01*
X131319998Y-106799809D01*
X131398230Y-106774390D01*
X131398233Y-106774389D01*
X131404929Y-106772213D01*
X131546279Y-106687951D01*
X131665449Y-106574468D01*
X131681458Y-106550373D01*
X131752614Y-106443275D01*
X131752615Y-106443273D01*
X131756515Y-106437403D01*
X131814951Y-106283568D01*
X131837853Y-106120610D01*
X131838141Y-106100000D01*
X131819798Y-105936466D01*
X131814926Y-105922474D01*
X131788153Y-105845594D01*
X131765680Y-105781060D01*
X131751126Y-105757768D01*
X131682209Y-105647479D01*
X131678476Y-105641505D01*
X131600800Y-105563285D01*
X131567486Y-105529737D01*
X131567482Y-105529734D01*
X131562522Y-105524739D01*
X131423580Y-105436563D01*
X131374447Y-105419068D01*
X131275189Y-105383723D01*
X131275187Y-105383722D01*
X131268555Y-105381361D01*
X131261569Y-105380528D01*
X131261565Y-105380527D01*
X131232522Y-105377064D01*
X147317707Y-105377064D01*
X147346825Y-105569599D01*
X147349028Y-105575585D01*
X147349029Y-105575591D01*
X147411860Y-105746360D01*
X147411862Y-105746365D01*
X147414063Y-105752346D01*
X147516674Y-105917840D01*
X147521055Y-105922473D01*
X147521056Y-105922474D01*
X147610031Y-106016563D01*
X147650466Y-106059322D01*
X147655696Y-106062984D01*
X147655697Y-106062985D01*
X147713225Y-106103266D01*
X147809975Y-106171011D01*
X147815838Y-106173548D01*
X147982825Y-106245810D01*
X147982829Y-106245811D01*
X147988684Y-106248345D01*
X147994931Y-106249650D01*
X147994934Y-106249651D01*
X148174557Y-106287176D01*
X148174562Y-106287177D01*
X148179293Y-106288165D01*
X148185685Y-106288500D01*
X148328663Y-106288500D01*
X148445886Y-106276593D01*
X148467378Y-106274410D01*
X148467379Y-106274410D01*
X148473727Y-106273765D01*
X148530061Y-106256111D01*
X148653451Y-106217444D01*
X148653456Y-106217442D01*
X148659541Y-106215535D01*
X148746475Y-106167346D01*
X148824271Y-106124223D01*
X148824274Y-106124221D01*
X148829850Y-106121130D01*
X148834691Y-106116981D01*
X148834695Y-106116978D01*
X148972855Y-105998560D01*
X148977698Y-105994409D01*
X149097046Y-105840547D01*
X149126318Y-105781060D01*
X149180200Y-105671556D01*
X149183018Y-105665829D01*
X149189354Y-105641505D01*
X149230492Y-105483575D01*
X149230492Y-105483572D01*
X149232102Y-105477393D01*
X149237135Y-105381361D01*
X149241959Y-105289317D01*
X149241959Y-105289313D01*
X149242293Y-105282936D01*
X149213175Y-105090401D01*
X149210972Y-105084415D01*
X149210971Y-105084409D01*
X149148140Y-104913640D01*
X149148138Y-104913635D01*
X149145937Y-104907654D01*
X149057583Y-104765154D01*
X149046688Y-104747582D01*
X149046687Y-104747581D01*
X149043326Y-104742160D01*
X148939817Y-104632701D01*
X148913919Y-104605315D01*
X148909534Y-104600678D01*
X148896640Y-104591649D01*
X148755259Y-104492654D01*
X148750025Y-104488989D01*
X148659125Y-104449653D01*
X148577175Y-104414190D01*
X148577171Y-104414189D01*
X148571316Y-104411655D01*
X148565069Y-104410350D01*
X148565066Y-104410349D01*
X148385443Y-104372824D01*
X148385438Y-104372823D01*
X148380707Y-104371835D01*
X148374315Y-104371500D01*
X148231337Y-104371500D01*
X148162049Y-104378538D01*
X148092622Y-104385590D01*
X148092621Y-104385590D01*
X148086273Y-104386235D01*
X148069297Y-104391555D01*
X147906549Y-104442556D01*
X147906544Y-104442558D01*
X147900459Y-104444465D01*
X147850401Y-104472213D01*
X147735729Y-104535777D01*
X147735726Y-104535779D01*
X147730150Y-104538870D01*
X147725309Y-104543019D01*
X147725305Y-104543022D01*
X147663950Y-104595610D01*
X147582302Y-104665591D01*
X147462954Y-104819453D01*
X147460138Y-104825176D01*
X147460136Y-104825179D01*
X147397246Y-104952989D01*
X147376982Y-104994171D01*
X147375373Y-105000349D01*
X147375372Y-105000351D01*
X147330134Y-105174024D01*
X147327898Y-105182607D01*
X147324445Y-105248500D01*
X147321066Y-105312979D01*
X147317707Y-105377064D01*
X131232522Y-105377064D01*
X131147071Y-105366875D01*
X131105153Y-105361877D01*
X131098150Y-105362613D01*
X131098149Y-105362613D01*
X131054935Y-105367155D01*
X130941495Y-105379078D01*
X130934827Y-105381348D01*
X130792382Y-105429840D01*
X130792379Y-105429841D01*
X130785715Y-105432110D01*
X130645555Y-105518337D01*
X130527982Y-105633473D01*
X130438838Y-105771797D01*
X130436427Y-105778420D01*
X130436426Y-105778423D01*
X130384966Y-105919809D01*
X130384965Y-105919814D01*
X130382556Y-105926432D01*
X130361931Y-106089694D01*
X127298815Y-106089694D01*
X127183580Y-106016563D01*
X127133022Y-105998560D01*
X127035189Y-105963723D01*
X127035187Y-105963722D01*
X127028555Y-105961361D01*
X127021569Y-105960528D01*
X127021565Y-105960527D01*
X126907071Y-105946875D01*
X126865153Y-105941877D01*
X126858150Y-105942613D01*
X126858149Y-105942613D01*
X126814935Y-105947155D01*
X126701495Y-105959078D01*
X126694827Y-105961348D01*
X126552382Y-106009840D01*
X126552379Y-106009841D01*
X126545715Y-106012110D01*
X126468973Y-106059322D01*
X126430973Y-106082700D01*
X126405555Y-106098337D01*
X126287982Y-106213473D01*
X126198838Y-106351797D01*
X126196427Y-106358420D01*
X126196426Y-106358423D01*
X126144966Y-106499809D01*
X126144965Y-106499814D01*
X126142556Y-106506432D01*
X126121931Y-106669694D01*
X123596985Y-106669694D01*
X123579798Y-106516466D01*
X123573998Y-106499809D01*
X123552265Y-106437403D01*
X123525680Y-106361060D01*
X123480138Y-106288177D01*
X123442209Y-106227479D01*
X123438476Y-106221505D01*
X123380499Y-106163122D01*
X123327486Y-106109737D01*
X123327482Y-106109734D01*
X123322522Y-106104739D01*
X123183580Y-106016563D01*
X123133022Y-105998560D01*
X123035189Y-105963723D01*
X123035187Y-105963722D01*
X123028555Y-105961361D01*
X123021569Y-105960528D01*
X123021565Y-105960527D01*
X122907071Y-105946875D01*
X122865153Y-105941877D01*
X122858150Y-105942613D01*
X122858149Y-105942613D01*
X122814935Y-105947155D01*
X122701495Y-105959078D01*
X122694827Y-105961348D01*
X122552382Y-106009840D01*
X122552379Y-106009841D01*
X122545715Y-106012110D01*
X122468973Y-106059322D01*
X122430973Y-106082700D01*
X122405555Y-106098337D01*
X122287982Y-106213473D01*
X122198838Y-106351797D01*
X122196427Y-106358420D01*
X122196426Y-106358423D01*
X122144966Y-106499809D01*
X122144965Y-106499814D01*
X122142556Y-106506432D01*
X122121931Y-106669694D01*
X119596985Y-106669694D01*
X119579798Y-106516466D01*
X119573998Y-106499809D01*
X119552265Y-106437403D01*
X119525680Y-106361060D01*
X119480138Y-106288177D01*
X119442209Y-106227479D01*
X119438476Y-106221505D01*
X119380499Y-106163122D01*
X119327486Y-106109737D01*
X119327482Y-106109734D01*
X119322522Y-106104739D01*
X119183580Y-106016563D01*
X119133022Y-105998560D01*
X119035189Y-105963723D01*
X119035187Y-105963722D01*
X119028555Y-105961361D01*
X119021569Y-105960528D01*
X119021565Y-105960527D01*
X118907071Y-105946875D01*
X118865153Y-105941877D01*
X118858150Y-105942613D01*
X118858149Y-105942613D01*
X118814935Y-105947155D01*
X118701495Y-105959078D01*
X118694827Y-105961348D01*
X118552382Y-106009840D01*
X118552379Y-106009841D01*
X118545715Y-106012110D01*
X118468973Y-106059322D01*
X118430973Y-106082700D01*
X118405555Y-106098337D01*
X118287982Y-106213473D01*
X118198838Y-106351797D01*
X118196427Y-106358420D01*
X118196426Y-106358423D01*
X118144966Y-106499809D01*
X118144965Y-106499814D01*
X118142556Y-106506432D01*
X118121931Y-106669694D01*
X113241817Y-106669694D01*
X113242795Y-104535777D01*
X113242934Y-104232925D01*
X127466645Y-104232925D01*
X127470426Y-104274468D01*
X127482911Y-104411655D01*
X127484570Y-104429888D01*
X127486308Y-104435794D01*
X127486309Y-104435798D01*
X127497667Y-104474390D01*
X127540410Y-104619619D01*
X127543263Y-104625077D01*
X127543265Y-104625081D01*
X127567080Y-104670634D01*
X127632040Y-104794890D01*
X127755968Y-104949025D01*
X127760692Y-104952989D01*
X127767933Y-104959065D01*
X127907474Y-105076154D01*
X127912872Y-105079121D01*
X127912877Y-105079125D01*
X128021207Y-105138679D01*
X128080787Y-105171433D01*
X128086654Y-105173294D01*
X128086656Y-105173295D01*
X128263436Y-105229373D01*
X128269306Y-105231235D01*
X128423227Y-105248500D01*
X128529769Y-105248500D01*
X128532825Y-105248200D01*
X128532832Y-105248200D01*
X128591340Y-105242463D01*
X128676833Y-105234080D01*
X128682734Y-105232298D01*
X128682736Y-105232298D01*
X128826191Y-105188986D01*
X128866169Y-105176916D01*
X129040796Y-105084066D01*
X129127062Y-105013709D01*
X129189287Y-104962960D01*
X129189290Y-104962957D01*
X129194062Y-104959065D01*
X129206344Y-104944219D01*
X129316201Y-104811425D01*
X129316203Y-104811421D01*
X129320130Y-104806675D01*
X129414198Y-104632701D01*
X129435249Y-104564694D01*
X132411931Y-104564694D01*
X132427989Y-104728468D01*
X132479932Y-104884615D01*
X132483581Y-104890640D01*
X132518941Y-104949025D01*
X132565179Y-105025373D01*
X132570070Y-105030438D01*
X132570071Y-105030439D01*
X132618096Y-105080170D01*
X132679491Y-105143747D01*
X132817189Y-105233854D01*
X132971428Y-105291215D01*
X132978409Y-105292146D01*
X132978411Y-105292147D01*
X133127561Y-105312048D01*
X133127565Y-105312048D01*
X133134542Y-105312979D01*
X133141553Y-105312341D01*
X133141557Y-105312341D01*
X133291403Y-105298704D01*
X133291404Y-105298704D01*
X133298424Y-105298065D01*
X133364431Y-105276618D01*
X133448230Y-105249390D01*
X133448233Y-105249389D01*
X133454929Y-105247213D01*
X133596279Y-105162951D01*
X133715449Y-105049468D01*
X133731458Y-105025373D01*
X133802614Y-104918275D01*
X133802615Y-104918273D01*
X133806515Y-104912403D01*
X133864951Y-104758568D01*
X133881879Y-104638119D01*
X133887302Y-104599534D01*
X133887303Y-104599527D01*
X133887853Y-104595610D01*
X133888141Y-104575000D01*
X133869798Y-104411466D01*
X133863998Y-104394809D01*
X133817998Y-104262717D01*
X133815680Y-104256060D01*
X133805061Y-104239065D01*
X133732209Y-104122479D01*
X133728476Y-104116505D01*
X133654845Y-104042358D01*
X133617486Y-104004737D01*
X133617482Y-104004734D01*
X133612522Y-103999739D01*
X133473580Y-103911563D01*
X133424447Y-103894068D01*
X133325189Y-103858723D01*
X133325187Y-103858722D01*
X133318555Y-103856361D01*
X133311569Y-103855528D01*
X133311565Y-103855527D01*
X133197071Y-103841875D01*
X133155153Y-103836877D01*
X133148150Y-103837613D01*
X133148149Y-103837613D01*
X133107543Y-103841881D01*
X132991495Y-103854078D01*
X132984827Y-103856348D01*
X132842382Y-103904840D01*
X132842379Y-103904841D01*
X132835715Y-103907110D01*
X132695555Y-103993337D01*
X132577982Y-104108473D01*
X132488838Y-104246797D01*
X132486427Y-104253420D01*
X132486426Y-104253423D01*
X132434966Y-104394809D01*
X132434965Y-104394814D01*
X132432556Y-104401432D01*
X132411931Y-104564694D01*
X129435249Y-104564694D01*
X129472682Y-104443768D01*
X129474786Y-104423749D01*
X129492711Y-104253204D01*
X129492711Y-104253202D01*
X129493355Y-104247075D01*
X129485847Y-104164576D01*
X129475989Y-104056251D01*
X129475988Y-104056248D01*
X129475430Y-104050112D01*
X129458721Y-103993337D01*
X129421330Y-103866294D01*
X129419590Y-103860381D01*
X129415911Y-103853342D01*
X129382636Y-103789694D01*
X136861931Y-103789694D01*
X136877989Y-103953468D01*
X136929932Y-104109615D01*
X136933581Y-104115640D01*
X137009424Y-104240870D01*
X137015179Y-104250373D01*
X137129491Y-104368747D01*
X137267189Y-104458854D01*
X137421428Y-104516215D01*
X137428409Y-104517146D01*
X137428411Y-104517147D01*
X137577561Y-104537048D01*
X137577565Y-104537048D01*
X137584542Y-104537979D01*
X137591553Y-104537341D01*
X137591557Y-104537341D01*
X137741403Y-104523704D01*
X137741404Y-104523704D01*
X137748424Y-104523065D01*
X137842019Y-104492654D01*
X137898230Y-104474390D01*
X137898233Y-104474389D01*
X137904929Y-104472213D01*
X138046279Y-104387951D01*
X138165449Y-104274468D01*
X138169350Y-104268597D01*
X138252614Y-104143275D01*
X138252615Y-104143273D01*
X138256515Y-104137403D01*
X138314951Y-103983568D01*
X138332829Y-103856361D01*
X138337302Y-103824534D01*
X138337303Y-103824527D01*
X138337853Y-103820610D01*
X138338141Y-103800000D01*
X138319798Y-103636466D01*
X138313998Y-103619809D01*
X138279566Y-103520935D01*
X138265680Y-103481060D01*
X138178476Y-103341505D01*
X138111207Y-103273765D01*
X138067486Y-103229737D01*
X138067482Y-103229734D01*
X138062522Y-103224739D01*
X137923580Y-103136563D01*
X137868579Y-103116978D01*
X137775189Y-103083723D01*
X137775187Y-103083722D01*
X137768555Y-103081361D01*
X137761569Y-103080528D01*
X137761565Y-103080527D01*
X137647071Y-103066875D01*
X137605153Y-103061877D01*
X137598150Y-103062613D01*
X137598149Y-103062613D01*
X137554935Y-103067155D01*
X137441495Y-103079078D01*
X137434827Y-103081348D01*
X137292382Y-103129840D01*
X137292379Y-103129841D01*
X137285715Y-103132110D01*
X137145555Y-103218337D01*
X137114912Y-103248345D01*
X137055317Y-103306705D01*
X137027982Y-103333473D01*
X136938838Y-103471797D01*
X136936427Y-103478420D01*
X136936426Y-103478423D01*
X136884966Y-103619809D01*
X136884965Y-103619814D01*
X136882556Y-103626432D01*
X136861931Y-103789694D01*
X129382636Y-103789694D01*
X129330813Y-103690568D01*
X129327960Y-103685110D01*
X129204032Y-103530975D01*
X129197727Y-103525684D01*
X129137424Y-103475084D01*
X129052526Y-103403846D01*
X129047128Y-103400879D01*
X129047123Y-103400875D01*
X128884608Y-103311533D01*
X128884609Y-103311533D01*
X128879213Y-103308567D01*
X128873346Y-103306706D01*
X128873344Y-103306705D01*
X128696564Y-103250627D01*
X128696563Y-103250627D01*
X128690694Y-103248765D01*
X128536773Y-103231500D01*
X128430231Y-103231500D01*
X128427175Y-103231800D01*
X128427168Y-103231800D01*
X128368660Y-103237537D01*
X128283167Y-103245920D01*
X128277266Y-103247702D01*
X128277264Y-103247702D01*
X128203947Y-103269838D01*
X128093831Y-103303084D01*
X127919204Y-103395934D01*
X127833454Y-103465870D01*
X127770713Y-103517040D01*
X127770710Y-103517043D01*
X127765938Y-103520935D01*
X127762011Y-103525682D01*
X127762009Y-103525684D01*
X127643799Y-103668575D01*
X127643797Y-103668579D01*
X127639870Y-103673325D01*
X127545802Y-103847299D01*
X127487318Y-104036232D01*
X127486674Y-104042357D01*
X127486674Y-104042358D01*
X127476685Y-104137403D01*
X127466645Y-104232925D01*
X113242934Y-104232925D01*
X113243962Y-101989694D01*
X120761931Y-101989694D01*
X120777989Y-102153468D01*
X120829932Y-102309615D01*
X120915179Y-102450373D01*
X121029491Y-102568747D01*
X121167189Y-102658854D01*
X121321428Y-102716215D01*
X121328409Y-102717146D01*
X121328411Y-102717147D01*
X121477561Y-102737048D01*
X121477565Y-102737048D01*
X121484542Y-102737979D01*
X121491553Y-102737341D01*
X121491557Y-102737341D01*
X121641403Y-102723704D01*
X121641404Y-102723704D01*
X121648424Y-102723065D01*
X121677062Y-102713760D01*
X121798230Y-102674390D01*
X121798233Y-102674389D01*
X121804929Y-102672213D01*
X121946279Y-102587951D01*
X122065449Y-102474468D01*
X122081458Y-102450373D01*
X122130165Y-102377064D01*
X147317707Y-102377064D01*
X147346825Y-102569599D01*
X147349028Y-102575585D01*
X147349029Y-102575591D01*
X147411860Y-102746360D01*
X147411862Y-102746365D01*
X147414063Y-102752346D01*
X147516674Y-102917840D01*
X147650466Y-103059322D01*
X147655696Y-103062984D01*
X147655697Y-103062985D01*
X147681941Y-103081361D01*
X147809975Y-103171011D01*
X147815838Y-103173548D01*
X147982825Y-103245810D01*
X147982829Y-103245811D01*
X147988684Y-103248345D01*
X147994931Y-103249650D01*
X147994934Y-103249651D01*
X148174557Y-103287176D01*
X148174562Y-103287177D01*
X148179293Y-103288165D01*
X148185685Y-103288500D01*
X148328663Y-103288500D01*
X148397951Y-103281462D01*
X148467378Y-103274410D01*
X148467379Y-103274410D01*
X148473727Y-103273765D01*
X148556895Y-103247702D01*
X148653451Y-103217444D01*
X148653456Y-103217442D01*
X148659541Y-103215535D01*
X148795195Y-103140340D01*
X148824271Y-103124223D01*
X148824274Y-103124221D01*
X148829850Y-103121130D01*
X148834691Y-103116981D01*
X148834695Y-103116978D01*
X148972855Y-102998560D01*
X148977698Y-102994409D01*
X149097046Y-102840547D01*
X149137779Y-102757768D01*
X149180200Y-102671556D01*
X149183018Y-102665829D01*
X149184835Y-102658854D01*
X149230492Y-102483575D01*
X149230492Y-102483572D01*
X149232102Y-102477393D01*
X149240895Y-102309615D01*
X149241959Y-102289317D01*
X149241959Y-102289313D01*
X149242293Y-102282936D01*
X149213175Y-102090401D01*
X149210972Y-102084415D01*
X149210971Y-102084409D01*
X149148140Y-101913640D01*
X149148138Y-101913635D01*
X149145937Y-101907654D01*
X149043326Y-101742160D01*
X148976788Y-101671797D01*
X148913919Y-101605315D01*
X148909534Y-101600678D01*
X148853311Y-101561310D01*
X148755259Y-101492654D01*
X148750025Y-101488989D01*
X148671467Y-101454994D01*
X148577175Y-101414190D01*
X148577171Y-101414189D01*
X148571316Y-101411655D01*
X148565069Y-101410350D01*
X148565066Y-101410349D01*
X148385443Y-101372824D01*
X148385438Y-101372823D01*
X148380707Y-101371835D01*
X148374315Y-101371500D01*
X148231337Y-101371500D01*
X148162049Y-101378538D01*
X148092622Y-101385590D01*
X148092621Y-101385590D01*
X148086273Y-101386235D01*
X148039518Y-101400887D01*
X147906549Y-101442556D01*
X147906544Y-101442558D01*
X147900459Y-101444465D01*
X147856654Y-101468747D01*
X147735729Y-101535777D01*
X147735726Y-101535779D01*
X147730150Y-101538870D01*
X147725309Y-101543019D01*
X147725305Y-101543022D01*
X147634459Y-101620887D01*
X147582302Y-101665591D01*
X147462954Y-101819453D01*
X147460138Y-101825176D01*
X147460136Y-101825179D01*
X147416608Y-101913640D01*
X147376982Y-101994171D01*
X147375373Y-102000349D01*
X147375372Y-102000351D01*
X147353477Y-102084409D01*
X147327898Y-102182607D01*
X147323496Y-102266597D01*
X147319478Y-102343275D01*
X147317707Y-102377064D01*
X122130165Y-102377064D01*
X122152614Y-102343275D01*
X122152615Y-102343273D01*
X122156515Y-102337403D01*
X122214951Y-102183568D01*
X122237853Y-102020610D01*
X122238141Y-102000000D01*
X122219798Y-101836466D01*
X122215868Y-101825179D01*
X122186957Y-101742160D01*
X122165680Y-101681060D01*
X122078476Y-101541505D01*
X121992567Y-101454994D01*
X121967486Y-101429737D01*
X121967482Y-101429734D01*
X121962522Y-101424739D01*
X121823580Y-101336563D01*
X121774447Y-101319068D01*
X121675189Y-101283723D01*
X121675187Y-101283722D01*
X121668555Y-101281361D01*
X121661569Y-101280528D01*
X121661565Y-101280527D01*
X121547071Y-101266875D01*
X121505153Y-101261877D01*
X121498150Y-101262613D01*
X121498149Y-101262613D01*
X121463879Y-101266215D01*
X121341495Y-101279078D01*
X121334827Y-101281348D01*
X121192382Y-101329840D01*
X121192379Y-101329841D01*
X121185715Y-101332110D01*
X121097736Y-101386235D01*
X121069341Y-101403704D01*
X121045555Y-101418337D01*
X120999253Y-101463679D01*
X120944654Y-101517147D01*
X120927982Y-101533473D01*
X120838838Y-101671797D01*
X120836427Y-101678420D01*
X120836426Y-101678423D01*
X120784966Y-101819809D01*
X120784965Y-101819814D01*
X120782556Y-101826432D01*
X120761931Y-101989694D01*
X113243962Y-101989694D01*
X113247699Y-93839694D01*
X124511931Y-93839694D01*
X124527989Y-94003468D01*
X124579932Y-94159615D01*
X124583581Y-94165640D01*
X124659839Y-94291555D01*
X124665179Y-94300373D01*
X124670070Y-94305438D01*
X124670071Y-94305439D01*
X124715382Y-94352360D01*
X124779491Y-94418747D01*
X124917189Y-94508854D01*
X125071428Y-94566215D01*
X125078409Y-94567146D01*
X125078411Y-94567147D01*
X125122766Y-94573065D01*
X125234542Y-94587979D01*
X125241561Y-94587340D01*
X125243699Y-94587385D01*
X125311387Y-94608807D01*
X125356747Y-94663423D01*
X125365379Y-94733893D01*
X125334542Y-94797843D01*
X125281670Y-94832635D01*
X125172382Y-94869840D01*
X125172379Y-94869841D01*
X125165715Y-94872110D01*
X125088368Y-94919694D01*
X125031737Y-94954534D01*
X125025555Y-94958337D01*
X125002044Y-94981361D01*
X124940576Y-95041555D01*
X124907982Y-95073473D01*
X124818838Y-95211797D01*
X124816427Y-95218420D01*
X124816426Y-95218423D01*
X124764966Y-95359809D01*
X124764965Y-95359814D01*
X124762556Y-95366432D01*
X124741931Y-95529694D01*
X124757989Y-95693468D01*
X124809932Y-95849615D01*
X124822770Y-95870813D01*
X124883378Y-95970887D01*
X124895179Y-95990373D01*
X124900070Y-95995438D01*
X124900071Y-95995439D01*
X124933265Y-96029812D01*
X125009491Y-96108747D01*
X125147189Y-96198854D01*
X125301428Y-96256215D01*
X125308409Y-96257146D01*
X125308411Y-96257147D01*
X125457561Y-96277048D01*
X125457565Y-96277048D01*
X125464542Y-96277979D01*
X125471553Y-96277341D01*
X125471557Y-96277341D01*
X125621403Y-96263704D01*
X125621404Y-96263704D01*
X125628424Y-96263065D01*
X125710179Y-96236501D01*
X125778230Y-96214390D01*
X125778233Y-96214389D01*
X125784929Y-96212213D01*
X125926279Y-96127951D01*
X126045449Y-96014468D01*
X126049350Y-96008597D01*
X126132614Y-95883275D01*
X126132615Y-95883273D01*
X126136515Y-95877403D01*
X126194951Y-95723568D01*
X126208079Y-95630154D01*
X126217302Y-95564534D01*
X126217303Y-95564527D01*
X126217853Y-95560610D01*
X126218141Y-95540000D01*
X126199798Y-95376466D01*
X126193998Y-95359809D01*
X126154611Y-95246707D01*
X126145680Y-95221060D01*
X126135511Y-95204787D01*
X126116375Y-95136420D01*
X126137239Y-95068559D01*
X126191479Y-95022749D01*
X126261876Y-95013537D01*
X126267041Y-95014583D01*
X126271428Y-95016215D01*
X126327556Y-95023704D01*
X126427561Y-95037048D01*
X126427565Y-95037048D01*
X126434542Y-95037979D01*
X126441553Y-95037341D01*
X126441557Y-95037341D01*
X126591403Y-95023704D01*
X126591404Y-95023704D01*
X126598424Y-95023065D01*
X126627748Y-95013537D01*
X126748230Y-94974390D01*
X126748233Y-94974389D01*
X126754929Y-94972213D01*
X126760980Y-94968606D01*
X126760984Y-94968604D01*
X126793855Y-94949009D01*
X126862609Y-94931308D01*
X126930019Y-94953589D01*
X126974682Y-95008778D01*
X126982091Y-95076373D01*
X126982556Y-95076432D01*
X126961931Y-95239694D01*
X126977989Y-95403468D01*
X127029932Y-95559615D01*
X127048801Y-95590771D01*
X127088209Y-95655840D01*
X127115179Y-95700373D01*
X127120070Y-95705438D01*
X127120071Y-95705439D01*
X127180592Y-95768110D01*
X127229491Y-95818747D01*
X127367189Y-95908854D01*
X127521428Y-95966215D01*
X127528409Y-95967146D01*
X127528411Y-95967147D01*
X127677561Y-95987048D01*
X127677565Y-95987048D01*
X127684542Y-95987979D01*
X127691553Y-95987341D01*
X127691557Y-95987341D01*
X127841403Y-95973704D01*
X127841404Y-95973704D01*
X127848424Y-95973065D01*
X127950544Y-95939884D01*
X127998230Y-95924390D01*
X127998233Y-95924389D01*
X128004929Y-95922213D01*
X128075551Y-95880114D01*
X128144305Y-95862414D01*
X128211715Y-95884696D01*
X128256377Y-95939884D01*
X128259616Y-95948542D01*
X128279932Y-96009615D01*
X128294351Y-96033424D01*
X128351600Y-96127951D01*
X128365179Y-96150373D01*
X128370070Y-96155438D01*
X128370071Y-96155439D01*
X128387614Y-96173605D01*
X128420546Y-96236501D01*
X128414246Y-96307218D01*
X128370714Y-96363302D01*
X128337582Y-96380410D01*
X128192384Y-96429839D01*
X128192379Y-96429841D01*
X128185715Y-96432110D01*
X128045555Y-96518337D01*
X127927982Y-96633473D01*
X127838838Y-96771797D01*
X127836427Y-96778420D01*
X127836426Y-96778423D01*
X127784966Y-96919809D01*
X127784965Y-96919814D01*
X127782556Y-96926432D01*
X127761931Y-97089694D01*
X127777989Y-97253468D01*
X127829932Y-97409615D01*
X127838409Y-97423612D01*
X127904051Y-97531998D01*
X127915179Y-97550373D01*
X127920070Y-97555438D01*
X127920071Y-97555439D01*
X127976101Y-97613460D01*
X128029491Y-97668747D01*
X128062015Y-97690030D01*
X128108062Y-97744065D01*
X128117586Y-97814420D01*
X128087562Y-97878755D01*
X128027522Y-97916646D01*
X127978103Y-97920575D01*
X127912147Y-97912711D01*
X127905153Y-97911877D01*
X127898150Y-97912613D01*
X127898149Y-97912613D01*
X127859750Y-97916649D01*
X127741495Y-97929078D01*
X127734827Y-97931348D01*
X127592382Y-97979840D01*
X127592379Y-97979841D01*
X127585715Y-97982110D01*
X127445555Y-98068337D01*
X127433914Y-98079737D01*
X127374950Y-98137479D01*
X127327982Y-98183473D01*
X127238838Y-98321797D01*
X127236427Y-98328420D01*
X127236426Y-98328423D01*
X127184966Y-98469809D01*
X127184965Y-98469814D01*
X127182556Y-98476432D01*
X127161931Y-98639694D01*
X127177989Y-98803468D01*
X127229932Y-98959615D01*
X127233581Y-98965640D01*
X127303160Y-99080527D01*
X127315179Y-99100373D01*
X127320070Y-99105438D01*
X127320071Y-99105439D01*
X127419805Y-99208717D01*
X127452737Y-99271614D01*
X127446437Y-99342330D01*
X127417325Y-99386268D01*
X127409880Y-99393559D01*
X127398860Y-99404351D01*
X127309716Y-99542675D01*
X127307305Y-99549298D01*
X127307304Y-99549301D01*
X127255844Y-99690687D01*
X127255843Y-99690692D01*
X127253434Y-99697310D01*
X127232809Y-99860572D01*
X127248867Y-100024346D01*
X127300810Y-100180493D01*
X127304459Y-100186518D01*
X127380491Y-100312060D01*
X127386057Y-100321251D01*
X127390948Y-100326316D01*
X127390949Y-100326317D01*
X127431923Y-100368747D01*
X127442903Y-100380117D01*
X127500371Y-100439627D01*
X127638069Y-100529734D01*
X127792308Y-100587095D01*
X127799289Y-100588026D01*
X127799291Y-100588027D01*
X127948441Y-100607928D01*
X127948445Y-100607928D01*
X127955422Y-100608859D01*
X127962433Y-100608221D01*
X127962437Y-100608221D01*
X128112283Y-100594584D01*
X128112284Y-100594584D01*
X128119304Y-100593945D01*
X128226859Y-100558998D01*
X128297826Y-100556970D01*
X128358624Y-100593633D01*
X128389950Y-100657345D01*
X128385031Y-100712581D01*
X128386622Y-100712966D01*
X128384967Y-100719809D01*
X128382556Y-100726432D01*
X128361931Y-100889694D01*
X128377989Y-101053468D01*
X128429932Y-101209615D01*
X128433581Y-101215640D01*
X128509103Y-101340340D01*
X128515179Y-101350373D01*
X128520070Y-101355438D01*
X128520071Y-101355439D01*
X128579566Y-101417048D01*
X128629491Y-101468747D01*
X128767189Y-101558854D01*
X128921428Y-101616215D01*
X128928409Y-101617146D01*
X128928411Y-101617147D01*
X129077561Y-101637048D01*
X129077565Y-101637048D01*
X129084542Y-101637979D01*
X129091553Y-101637341D01*
X129091557Y-101637341D01*
X129241403Y-101623704D01*
X129241404Y-101623704D01*
X129248424Y-101623065D01*
X129277062Y-101613760D01*
X129398230Y-101574390D01*
X129398233Y-101574389D01*
X129404929Y-101572213D01*
X129546279Y-101487951D01*
X129665449Y-101374468D01*
X129669350Y-101368597D01*
X129752614Y-101243275D01*
X129752615Y-101243273D01*
X129756515Y-101237403D01*
X129814951Y-101083568D01*
X129833235Y-100953468D01*
X129837302Y-100924534D01*
X129837303Y-100924527D01*
X129837853Y-100920610D01*
X129838141Y-100900000D01*
X129819798Y-100736466D01*
X129811615Y-100712966D01*
X129779174Y-100619809D01*
X129765680Y-100581060D01*
X129746272Y-100550000D01*
X129739832Y-100539694D01*
X134361931Y-100539694D01*
X134377989Y-100703468D01*
X134429932Y-100859615D01*
X134433581Y-100865640D01*
X134508664Y-100989615D01*
X134515179Y-101000373D01*
X134520070Y-101005438D01*
X134520071Y-101005439D01*
X134566452Y-101053468D01*
X134629491Y-101118747D01*
X134767189Y-101208854D01*
X134921428Y-101266215D01*
X134928409Y-101267146D01*
X134928411Y-101267147D01*
X135077561Y-101287048D01*
X135077565Y-101287048D01*
X135084542Y-101287979D01*
X135091553Y-101287341D01*
X135091557Y-101287341D01*
X135241403Y-101273704D01*
X135241404Y-101273704D01*
X135248424Y-101273065D01*
X135311393Y-101252605D01*
X135398230Y-101224390D01*
X135398233Y-101224389D01*
X135404929Y-101222213D01*
X135546279Y-101137951D01*
X135665449Y-101024468D01*
X135670143Y-101017403D01*
X135752614Y-100893275D01*
X135752615Y-100893273D01*
X135756515Y-100887403D01*
X135814951Y-100733568D01*
X135832567Y-100608221D01*
X135837302Y-100574534D01*
X135837303Y-100574527D01*
X135837853Y-100570610D01*
X135838141Y-100550000D01*
X135819798Y-100386466D01*
X135818243Y-100382001D01*
X135822596Y-100312060D01*
X135864615Y-100254833D01*
X135930903Y-100229409D01*
X136000414Y-100243858D01*
X136031691Y-100267472D01*
X136080811Y-100318337D01*
X136129491Y-100368747D01*
X136267189Y-100458854D01*
X136421428Y-100516215D01*
X136428409Y-100517146D01*
X136428411Y-100517147D01*
X136577561Y-100537048D01*
X136577565Y-100537048D01*
X136584542Y-100537979D01*
X136591553Y-100537341D01*
X136591557Y-100537341D01*
X136741403Y-100523704D01*
X136741404Y-100523704D01*
X136748424Y-100523065D01*
X136819998Y-100499809D01*
X136898230Y-100474390D01*
X136898233Y-100474389D01*
X136904929Y-100472213D01*
X137046279Y-100387951D01*
X137165449Y-100274468D01*
X137170097Y-100267472D01*
X137252614Y-100143275D01*
X137252615Y-100143273D01*
X137256515Y-100137403D01*
X137314951Y-99983568D01*
X137328691Y-99885801D01*
X137337302Y-99824534D01*
X137337303Y-99824527D01*
X137337853Y-99820610D01*
X137338141Y-99800000D01*
X137319798Y-99636466D01*
X137313998Y-99619809D01*
X137285698Y-99538544D01*
X137265680Y-99481060D01*
X137253855Y-99462135D01*
X137195085Y-99368085D01*
X137925297Y-99368085D01*
X137941355Y-99531859D01*
X137993298Y-99688006D01*
X137996947Y-99694031D01*
X138073607Y-99820610D01*
X138078545Y-99828764D01*
X138083436Y-99833829D01*
X138083437Y-99833830D01*
X138111717Y-99863115D01*
X138192857Y-99947138D01*
X138330555Y-100037245D01*
X138484794Y-100094606D01*
X138564220Y-100105204D01*
X138569416Y-100105897D01*
X138634292Y-100134733D01*
X138673280Y-100194066D01*
X138674001Y-100265059D01*
X138640908Y-100320814D01*
X138635289Y-100326317D01*
X138627982Y-100333473D01*
X138538838Y-100471797D01*
X138536427Y-100478420D01*
X138536426Y-100478423D01*
X138484966Y-100619809D01*
X138484965Y-100619814D01*
X138482556Y-100626432D01*
X138461931Y-100789694D01*
X138477989Y-100953468D01*
X138529932Y-101109615D01*
X138533581Y-101115640D01*
X138598125Y-101222213D01*
X138615179Y-101250373D01*
X138620070Y-101255438D01*
X138620071Y-101255439D01*
X138686561Y-101324291D01*
X138729491Y-101368747D01*
X138867189Y-101458854D01*
X139021428Y-101516215D01*
X139028409Y-101517146D01*
X139028411Y-101517147D01*
X139177561Y-101537048D01*
X139177565Y-101537048D01*
X139184542Y-101537979D01*
X139191553Y-101537341D01*
X139191557Y-101537341D01*
X139341403Y-101523704D01*
X139341404Y-101523704D01*
X139348424Y-101523065D01*
X139442019Y-101492654D01*
X139498230Y-101474390D01*
X139498233Y-101474389D01*
X139504929Y-101472213D01*
X139646279Y-101387951D01*
X139765449Y-101274468D01*
X139770313Y-101267147D01*
X139852614Y-101143275D01*
X139852615Y-101143273D01*
X139856515Y-101137403D01*
X139914951Y-100983568D01*
X139926696Y-100900000D01*
X139937302Y-100824534D01*
X139937303Y-100824527D01*
X139937853Y-100820610D01*
X139938141Y-100800000D01*
X139923525Y-100669694D01*
X141151931Y-100669694D01*
X141167989Y-100833468D01*
X141219932Y-100989615D01*
X141232770Y-101010813D01*
X141295069Y-101113679D01*
X141305179Y-101130373D01*
X141419491Y-101248747D01*
X141557189Y-101338854D01*
X141711428Y-101396215D01*
X141718409Y-101397146D01*
X141718411Y-101397147D01*
X141867561Y-101417048D01*
X141867565Y-101417048D01*
X141874542Y-101417979D01*
X141881553Y-101417341D01*
X141881557Y-101417341D01*
X142031403Y-101403704D01*
X142031404Y-101403704D01*
X142038424Y-101403065D01*
X142099882Y-101383096D01*
X142188230Y-101354390D01*
X142188233Y-101354389D01*
X142194929Y-101352213D01*
X142336279Y-101267951D01*
X142455449Y-101154468D01*
X142462886Y-101143275D01*
X142542614Y-101023275D01*
X142542615Y-101023273D01*
X142546515Y-101017403D01*
X142604951Y-100863568D01*
X142623221Y-100733568D01*
X142627302Y-100704534D01*
X142627303Y-100704527D01*
X142627853Y-100700610D01*
X142628141Y-100680000D01*
X142609798Y-100516466D01*
X142603998Y-100499809D01*
X142557998Y-100367717D01*
X142555680Y-100361060D01*
X142535361Y-100328542D01*
X142472209Y-100227479D01*
X142468476Y-100221505D01*
X142390790Y-100143275D01*
X142357486Y-100109737D01*
X142357482Y-100109734D01*
X142352522Y-100104739D01*
X142213580Y-100016563D01*
X142139415Y-99990154D01*
X142065189Y-99963723D01*
X142065187Y-99963722D01*
X142058555Y-99961361D01*
X142051569Y-99960528D01*
X142051565Y-99960527D01*
X141933605Y-99946462D01*
X141895153Y-99941877D01*
X141888150Y-99942613D01*
X141888149Y-99942613D01*
X141851529Y-99946462D01*
X141731495Y-99959078D01*
X141724827Y-99961348D01*
X141582382Y-100009840D01*
X141582379Y-100009841D01*
X141575715Y-100012110D01*
X141513144Y-100050604D01*
X141441620Y-100094606D01*
X141435555Y-100098337D01*
X141402392Y-100130813D01*
X141345508Y-100186518D01*
X141317982Y-100213473D01*
X141228838Y-100351797D01*
X141226427Y-100358420D01*
X141226426Y-100358423D01*
X141174966Y-100499809D01*
X141174965Y-100499814D01*
X141172556Y-100506432D01*
X141151931Y-100669694D01*
X139923525Y-100669694D01*
X139919798Y-100636466D01*
X139913998Y-100619809D01*
X139867998Y-100487717D01*
X139865680Y-100481060D01*
X139857899Y-100468607D01*
X139782209Y-100347479D01*
X139778476Y-100341505D01*
X139687978Y-100250373D01*
X139667486Y-100229737D01*
X139667482Y-100229734D01*
X139662522Y-100224739D01*
X139523580Y-100136563D01*
X139448244Y-100109737D01*
X139375189Y-100083723D01*
X139375187Y-100083722D01*
X139368555Y-100081361D01*
X139361567Y-100080528D01*
X139361564Y-100080527D01*
X139325552Y-100076233D01*
X139296998Y-100072829D01*
X139231726Y-100044902D01*
X139191912Y-99986119D01*
X139190200Y-99915144D01*
X139220447Y-99864175D01*
X139219184Y-99863115D01*
X139223713Y-99857718D01*
X139228815Y-99852859D01*
X139241529Y-99833723D01*
X139315980Y-99721666D01*
X139315981Y-99721664D01*
X139319881Y-99715794D01*
X139378317Y-99561959D01*
X139388751Y-99487717D01*
X139400668Y-99402925D01*
X139400669Y-99402918D01*
X139401219Y-99399001D01*
X139401507Y-99378391D01*
X139383164Y-99214857D01*
X139377364Y-99198200D01*
X139345061Y-99105439D01*
X139329046Y-99059451D01*
X139320291Y-99045439D01*
X139245575Y-98925870D01*
X139241842Y-98919896D01*
X139169016Y-98846560D01*
X139135209Y-98784129D01*
X139139588Y-98725768D01*
X144378932Y-98725768D01*
X144410645Y-98833521D01*
X144415238Y-98844889D01*
X144501114Y-99009154D01*
X144507828Y-99019415D01*
X144623975Y-99163873D01*
X144632553Y-99172632D01*
X144774546Y-99291778D01*
X144784666Y-99298708D01*
X144947092Y-99388002D01*
X144958365Y-99392834D01*
X145135045Y-99448880D01*
X145147039Y-99451430D01*
X145291268Y-99467607D01*
X145298292Y-99468000D01*
X145629392Y-99468000D01*
X145644631Y-99463525D01*
X145645836Y-99462135D01*
X145647507Y-99454452D01*
X145647507Y-99449885D01*
X146155507Y-99449885D01*
X146159982Y-99465124D01*
X146161372Y-99466329D01*
X146169055Y-99468000D01*
X146498164Y-99468000D01*
X146504312Y-99467699D01*
X146642110Y-99454188D01*
X146654145Y-99451805D01*
X146831583Y-99398233D01*
X146842923Y-99393559D01*
X147006584Y-99306540D01*
X147016801Y-99299751D01*
X147160440Y-99182603D01*
X147169144Y-99173959D01*
X147287291Y-99031144D01*
X147294151Y-99020973D01*
X147382311Y-98857924D01*
X147387063Y-98846619D01*
X147422757Y-98731308D01*
X147422838Y-98725768D01*
X148808932Y-98725768D01*
X148840645Y-98833521D01*
X148845238Y-98844889D01*
X148931114Y-99009154D01*
X148937828Y-99019415D01*
X149053975Y-99163873D01*
X149062553Y-99172632D01*
X149204546Y-99291778D01*
X149214666Y-99298708D01*
X149377092Y-99388002D01*
X149388365Y-99392834D01*
X149565045Y-99448880D01*
X149577039Y-99451430D01*
X149721268Y-99467607D01*
X149728292Y-99468000D01*
X149809392Y-99468000D01*
X149824631Y-99463525D01*
X149825836Y-99462135D01*
X149827507Y-99454452D01*
X149827507Y-98732115D01*
X149823032Y-98716876D01*
X149821642Y-98715671D01*
X149813959Y-98714000D01*
X148823583Y-98714000D01*
X148810052Y-98717973D01*
X148808932Y-98725768D01*
X147422838Y-98725768D01*
X147422963Y-98717205D01*
X147416208Y-98714000D01*
X146173622Y-98714000D01*
X146158383Y-98718475D01*
X146157178Y-98719865D01*
X146155507Y-98727548D01*
X146155507Y-99449885D01*
X145647507Y-99449885D01*
X145647507Y-98732115D01*
X145643032Y-98716876D01*
X145641642Y-98715671D01*
X145633959Y-98714000D01*
X144393583Y-98714000D01*
X144380052Y-98717973D01*
X144378932Y-98725768D01*
X139139588Y-98725768D01*
X139140521Y-98713332D01*
X139183265Y-98656645D01*
X139247002Y-98632295D01*
X139341404Y-98623704D01*
X139341405Y-98623704D01*
X139348424Y-98623065D01*
X139371455Y-98615582D01*
X139498230Y-98574390D01*
X139498233Y-98574389D01*
X139504929Y-98572213D01*
X139646279Y-98487951D01*
X139765449Y-98374468D01*
X139781458Y-98350373D01*
X139852614Y-98243275D01*
X139852615Y-98243273D01*
X139856515Y-98237403D01*
X139869661Y-98202795D01*
X144380051Y-98202795D01*
X144386806Y-98206000D01*
X147409431Y-98206000D01*
X147420346Y-98202795D01*
X148810051Y-98202795D01*
X148816806Y-98206000D01*
X149809392Y-98206000D01*
X149824631Y-98201525D01*
X149825836Y-98200135D01*
X149827507Y-98192452D01*
X149827507Y-97470115D01*
X149823032Y-97454876D01*
X149821642Y-97453671D01*
X149813959Y-97452000D01*
X149734850Y-97452000D01*
X149728702Y-97452301D01*
X149590904Y-97465812D01*
X149578869Y-97468195D01*
X149401431Y-97521767D01*
X149390091Y-97526441D01*
X149226430Y-97613460D01*
X149216213Y-97620249D01*
X149072574Y-97737397D01*
X149063870Y-97746041D01*
X148945723Y-97888856D01*
X148938863Y-97899027D01*
X148850703Y-98062076D01*
X148845951Y-98073381D01*
X148810257Y-98188692D01*
X148810051Y-98202795D01*
X147420346Y-98202795D01*
X147422962Y-98202027D01*
X147424082Y-98194232D01*
X147392369Y-98086479D01*
X147387776Y-98075111D01*
X147301900Y-97910846D01*
X147295186Y-97900585D01*
X147179039Y-97756127D01*
X147170462Y-97747368D01*
X147118397Y-97703681D01*
X147079071Y-97644572D01*
X147077944Y-97573584D01*
X147095176Y-97536336D01*
X147167949Y-97429255D01*
X147171784Y-97423612D01*
X147239037Y-97255466D01*
X147240151Y-97248738D01*
X147240152Y-97248734D01*
X147267500Y-97083539D01*
X147267500Y-97083536D01*
X147268615Y-97076802D01*
X147263710Y-96983198D01*
X147259494Y-96902766D01*
X147259137Y-96895953D01*
X147248919Y-96858854D01*
X147212859Y-96727941D01*
X147211046Y-96721359D01*
X147126585Y-96561164D01*
X147122180Y-96555951D01*
X147122177Y-96555947D01*
X147014101Y-96428057D01*
X147014097Y-96428053D01*
X147009694Y-96422843D01*
X147004269Y-96418695D01*
X146871250Y-96316994D01*
X146871246Y-96316991D01*
X146865829Y-96312850D01*
X146754394Y-96260887D01*
X146707876Y-96239195D01*
X146707873Y-96239194D01*
X146701699Y-96236315D01*
X146695051Y-96234829D01*
X146695048Y-96234828D01*
X146530001Y-96197936D01*
X146530002Y-96197936D01*
X146524964Y-96196810D01*
X146519419Y-96196500D01*
X146386263Y-96196500D01*
X146251470Y-96211143D01*
X146176121Y-96236501D01*
X146086303Y-96266728D01*
X146086301Y-96266729D01*
X146079832Y-96268906D01*
X145924602Y-96362177D01*
X145919645Y-96366865D01*
X145919642Y-96366867D01*
X145844444Y-96437979D01*
X145793022Y-96486607D01*
X145789190Y-96492245D01*
X145789187Y-96492249D01*
X145740324Y-96564149D01*
X145691230Y-96636388D01*
X145623977Y-96804534D01*
X145622863Y-96811262D01*
X145622862Y-96811266D01*
X145595514Y-96976461D01*
X145594399Y-96983198D01*
X145594756Y-96990015D01*
X145594756Y-96990019D01*
X145601806Y-97124534D01*
X145603877Y-97164047D01*
X145605688Y-97170620D01*
X145605688Y-97170623D01*
X145621999Y-97229840D01*
X145636799Y-97283568D01*
X145639270Y-97292540D01*
X145638076Y-97363526D01*
X145598693Y-97422599D01*
X145533626Y-97451001D01*
X145517794Y-97452000D01*
X145304850Y-97452000D01*
X145298702Y-97452301D01*
X145160904Y-97465812D01*
X145148869Y-97468195D01*
X144971431Y-97521767D01*
X144960091Y-97526441D01*
X144796430Y-97613460D01*
X144786213Y-97620249D01*
X144642574Y-97737397D01*
X144633870Y-97746041D01*
X144515723Y-97888856D01*
X144508863Y-97899027D01*
X144420703Y-98062076D01*
X144415951Y-98073381D01*
X144380257Y-98188692D01*
X144380051Y-98202795D01*
X139869661Y-98202795D01*
X139914951Y-98083568D01*
X139929529Y-97979840D01*
X139937302Y-97924534D01*
X139937303Y-97924527D01*
X139937853Y-97920610D01*
X139938141Y-97900000D01*
X139919798Y-97736466D01*
X139913998Y-97719809D01*
X139885215Y-97637157D01*
X139865680Y-97581060D01*
X139861009Y-97573584D01*
X139782209Y-97447479D01*
X139778476Y-97441505D01*
X139720499Y-97383122D01*
X139667486Y-97329737D01*
X139667482Y-97329734D01*
X139662522Y-97324739D01*
X139523580Y-97236563D01*
X139474447Y-97219068D01*
X139375189Y-97183723D01*
X139375187Y-97183722D01*
X139368555Y-97181361D01*
X139361569Y-97180528D01*
X139361565Y-97180527D01*
X139247071Y-97166875D01*
X139205153Y-97161877D01*
X139198150Y-97162613D01*
X139198149Y-97162613D01*
X139154935Y-97167155D01*
X139041495Y-97179078D01*
X139034827Y-97181348D01*
X138892382Y-97229840D01*
X138892379Y-97229841D01*
X138885715Y-97232110D01*
X138745555Y-97318337D01*
X138733914Y-97329737D01*
X138638052Y-97423612D01*
X138627982Y-97433473D01*
X138538838Y-97571797D01*
X138536427Y-97578420D01*
X138536426Y-97578423D01*
X138484966Y-97719809D01*
X138484965Y-97719814D01*
X138482556Y-97726432D01*
X138461931Y-97889694D01*
X138477989Y-98053468D01*
X138529932Y-98209615D01*
X138533581Y-98215640D01*
X138603483Y-98331060D01*
X138615179Y-98350373D01*
X138620070Y-98355438D01*
X138620071Y-98355439D01*
X138694789Y-98432812D01*
X138727721Y-98495709D01*
X138721421Y-98566425D01*
X138677889Y-98622510D01*
X138617322Y-98645649D01*
X138504861Y-98657469D01*
X138498193Y-98659739D01*
X138355748Y-98708231D01*
X138355745Y-98708232D01*
X138349081Y-98710501D01*
X138208921Y-98796728D01*
X138195212Y-98810153D01*
X138097704Y-98905640D01*
X138091348Y-98911864D01*
X138002204Y-99050188D01*
X137999793Y-99056811D01*
X137999792Y-99056814D01*
X137948332Y-99198200D01*
X137948331Y-99198205D01*
X137945922Y-99204823D01*
X137925297Y-99368085D01*
X137195085Y-99368085D01*
X137182209Y-99347479D01*
X137178476Y-99341505D01*
X137109071Y-99271614D01*
X137067486Y-99229737D01*
X137067482Y-99229734D01*
X137062522Y-99224739D01*
X136923580Y-99136563D01*
X136821947Y-99100373D01*
X136775189Y-99083723D01*
X136775187Y-99083722D01*
X136768555Y-99081361D01*
X136761569Y-99080528D01*
X136761565Y-99080527D01*
X136626882Y-99064468D01*
X136605153Y-99061877D01*
X136598150Y-99062613D01*
X136598149Y-99062613D01*
X136564897Y-99066108D01*
X136441495Y-99079078D01*
X136434827Y-99081348D01*
X136292382Y-99129840D01*
X136292379Y-99129841D01*
X136285715Y-99132110D01*
X136211202Y-99177951D01*
X136162028Y-99208203D01*
X136145555Y-99218337D01*
X136118334Y-99244994D01*
X136047217Y-99314637D01*
X136027982Y-99333473D01*
X135938838Y-99471797D01*
X135936427Y-99478420D01*
X135936426Y-99478423D01*
X135884966Y-99619809D01*
X135884965Y-99619814D01*
X135882556Y-99626432D01*
X135861931Y-99789694D01*
X135868195Y-99853578D01*
X135876853Y-99941877D01*
X135877989Y-99953468D01*
X135880212Y-99960149D01*
X135881667Y-99966996D01*
X135876266Y-100037786D01*
X135833450Y-100094420D01*
X135766813Y-100118914D01*
X135697511Y-100103494D01*
X135669015Y-100081978D01*
X135668403Y-100081361D01*
X135625131Y-100037786D01*
X135567486Y-99979737D01*
X135567482Y-99979734D01*
X135562522Y-99974739D01*
X135423580Y-99886563D01*
X135360707Y-99864175D01*
X135275189Y-99833723D01*
X135275187Y-99833722D01*
X135268555Y-99831361D01*
X135261569Y-99830528D01*
X135261565Y-99830527D01*
X135145173Y-99816649D01*
X135105153Y-99811877D01*
X135098150Y-99812613D01*
X135098149Y-99812613D01*
X135059750Y-99816649D01*
X134941495Y-99829078D01*
X134934827Y-99831348D01*
X134792382Y-99879840D01*
X134792379Y-99879841D01*
X134785715Y-99882110D01*
X134764090Y-99895414D01*
X134661802Y-99958342D01*
X134645555Y-99968337D01*
X134527982Y-100083473D01*
X134438838Y-100221797D01*
X134436427Y-100228420D01*
X134436426Y-100228423D01*
X134384966Y-100369809D01*
X134384965Y-100369814D01*
X134382556Y-100376432D01*
X134361931Y-100539694D01*
X129739832Y-100539694D01*
X129682209Y-100447479D01*
X129678476Y-100441505D01*
X129601191Y-100363679D01*
X129567486Y-100329737D01*
X129567482Y-100329734D01*
X129562522Y-100324739D01*
X129423580Y-100236563D01*
X129283038Y-100186518D01*
X129275189Y-100183723D01*
X129275187Y-100183722D01*
X129268555Y-100181361D01*
X129261569Y-100180528D01*
X129261565Y-100180527D01*
X129147071Y-100166875D01*
X129105153Y-100161877D01*
X129098150Y-100162613D01*
X129098149Y-100162613D01*
X129054935Y-100167155D01*
X128941495Y-100179078D01*
X128934824Y-100181349D01*
X128845990Y-100211590D01*
X128775058Y-100214608D01*
X128713754Y-100178798D01*
X128681542Y-100115529D01*
X128683343Y-100060997D01*
X128685831Y-100054448D01*
X128691155Y-100016563D01*
X128708182Y-99895414D01*
X128708183Y-99895407D01*
X128708733Y-99891490D01*
X128709021Y-99870880D01*
X128690678Y-99707346D01*
X128636560Y-99551940D01*
X128575643Y-99454452D01*
X128553089Y-99418359D01*
X128549356Y-99412385D01*
X128536065Y-99399001D01*
X128452288Y-99314637D01*
X128418481Y-99252206D01*
X128423793Y-99181409D01*
X128454802Y-99134607D01*
X128457424Y-99132110D01*
X128465449Y-99124468D01*
X128481458Y-99100373D01*
X128552614Y-98993275D01*
X128552615Y-98993273D01*
X128556515Y-98987403D01*
X128614951Y-98833568D01*
X128637853Y-98670610D01*
X128638141Y-98650000D01*
X128630255Y-98579694D01*
X132453438Y-98579694D01*
X132469496Y-98743468D01*
X132521439Y-98899615D01*
X132533722Y-98919896D01*
X132601097Y-99031144D01*
X132606686Y-99040373D01*
X132720998Y-99158747D01*
X132858696Y-99248854D01*
X133012935Y-99306215D01*
X133019916Y-99307146D01*
X133019918Y-99307147D01*
X133169068Y-99327048D01*
X133169072Y-99327048D01*
X133176049Y-99327979D01*
X133183060Y-99327341D01*
X133183064Y-99327341D01*
X133332910Y-99313704D01*
X133332911Y-99313704D01*
X133339931Y-99313065D01*
X133405445Y-99291778D01*
X133489737Y-99264390D01*
X133489740Y-99264389D01*
X133496436Y-99262213D01*
X133637786Y-99177951D01*
X133756956Y-99064468D01*
X133760857Y-99058597D01*
X133844121Y-98933275D01*
X133844122Y-98933273D01*
X133848022Y-98927403D01*
X133906458Y-98773568D01*
X133920928Y-98670610D01*
X133928809Y-98614534D01*
X133928810Y-98614527D01*
X133929360Y-98610610D01*
X133929648Y-98590000D01*
X133911305Y-98426466D01*
X133905505Y-98409809D01*
X133859505Y-98277717D01*
X133857187Y-98271060D01*
X133806158Y-98189396D01*
X133773716Y-98137479D01*
X133769983Y-98131505D01*
X133701037Y-98062076D01*
X133658993Y-98019737D01*
X133658989Y-98019734D01*
X133654029Y-98014739D01*
X133515087Y-97926563D01*
X133451616Y-97903962D01*
X133366696Y-97873723D01*
X133366694Y-97873722D01*
X133360062Y-97871361D01*
X133353076Y-97870528D01*
X133353072Y-97870527D01*
X133238578Y-97856875D01*
X133196660Y-97851877D01*
X133189657Y-97852613D01*
X133189656Y-97852613D01*
X133146442Y-97857155D01*
X133033002Y-97869078D01*
X133026334Y-97871348D01*
X132883889Y-97919840D01*
X132883886Y-97919841D01*
X132877222Y-97922110D01*
X132737062Y-98008337D01*
X132725421Y-98019737D01*
X132669255Y-98074739D01*
X132619489Y-98123473D01*
X132530345Y-98261797D01*
X132527934Y-98268420D01*
X132527933Y-98268423D01*
X132476473Y-98409809D01*
X132476472Y-98409814D01*
X132474063Y-98416432D01*
X132453438Y-98579694D01*
X128630255Y-98579694D01*
X128619798Y-98486466D01*
X128613998Y-98469809D01*
X128578752Y-98368597D01*
X128565680Y-98331060D01*
X128532348Y-98277717D01*
X128482209Y-98197479D01*
X128478476Y-98191505D01*
X128410917Y-98123473D01*
X128367486Y-98079737D01*
X128367482Y-98079734D01*
X128362522Y-98074739D01*
X128346617Y-98064645D01*
X128341509Y-98061403D01*
X128294712Y-98008014D01*
X128284207Y-97937798D01*
X128313332Y-97873051D01*
X128372838Y-97834327D01*
X128425688Y-97830126D01*
X128456647Y-97834257D01*
X128477562Y-97837048D01*
X128477565Y-97837048D01*
X128484542Y-97837979D01*
X128491553Y-97837341D01*
X128491557Y-97837341D01*
X128641403Y-97823704D01*
X128641404Y-97823704D01*
X128648424Y-97823065D01*
X128746820Y-97791094D01*
X128798230Y-97774390D01*
X128798233Y-97774389D01*
X128804929Y-97772213D01*
X128946279Y-97687951D01*
X129065449Y-97574468D01*
X129081458Y-97550373D01*
X129152614Y-97443275D01*
X129152615Y-97443273D01*
X129156515Y-97437403D01*
X129214951Y-97283568D01*
X129229317Y-97181348D01*
X129237302Y-97124534D01*
X129237303Y-97124527D01*
X129237853Y-97120610D01*
X129238141Y-97100000D01*
X129219798Y-96936466D01*
X129213998Y-96919809D01*
X129169335Y-96791555D01*
X129165680Y-96781060D01*
X129132488Y-96727941D01*
X129082209Y-96647479D01*
X129078476Y-96641505D01*
X129073513Y-96636507D01*
X129073508Y-96636501D01*
X129063655Y-96626579D01*
X129029848Y-96564149D01*
X129035160Y-96493351D01*
X129077905Y-96436664D01*
X129114123Y-96417964D01*
X129199713Y-96390154D01*
X129248230Y-96374390D01*
X129248233Y-96374389D01*
X129254929Y-96372213D01*
X129396279Y-96287951D01*
X129515449Y-96174468D01*
X129523025Y-96163065D01*
X129602614Y-96043275D01*
X129602615Y-96043273D01*
X129606515Y-96037403D01*
X129664951Y-95883568D01*
X129679046Y-95783275D01*
X129687302Y-95724534D01*
X129687303Y-95724527D01*
X129687853Y-95720610D01*
X129688141Y-95700000D01*
X129669798Y-95536466D01*
X129663351Y-95517951D01*
X129632616Y-95429694D01*
X129615680Y-95381060D01*
X129611119Y-95373760D01*
X129532209Y-95247479D01*
X129528476Y-95241505D01*
X129469412Y-95182027D01*
X129417486Y-95129737D01*
X129417482Y-95129734D01*
X129412522Y-95124739D01*
X129273580Y-95036563D01*
X129180097Y-95003275D01*
X129125189Y-94983723D01*
X129125187Y-94983722D01*
X129118555Y-94981361D01*
X129111567Y-94980528D01*
X129111564Y-94980527D01*
X129011082Y-94968546D01*
X128997571Y-94966935D01*
X128932297Y-94939008D01*
X128892484Y-94880225D01*
X128890772Y-94809249D01*
X128927704Y-94748614D01*
X128953336Y-94730569D01*
X129035355Y-94686959D01*
X129040796Y-94684066D01*
X129082940Y-94649694D01*
X131503438Y-94649694D01*
X131519496Y-94813468D01*
X131571439Y-94969615D01*
X131575088Y-94975640D01*
X131640392Y-95083468D01*
X131656686Y-95110373D01*
X131661577Y-95115438D01*
X131661578Y-95115439D01*
X131679954Y-95134468D01*
X131770998Y-95228747D01*
X131908696Y-95318854D01*
X132062935Y-95376215D01*
X132069916Y-95377146D01*
X132069918Y-95377147D01*
X132219068Y-95397048D01*
X132219072Y-95397048D01*
X132226049Y-95397979D01*
X132233060Y-95397341D01*
X132233064Y-95397341D01*
X132382910Y-95383704D01*
X132382911Y-95383704D01*
X132389931Y-95383065D01*
X132461505Y-95359809D01*
X132539737Y-95334390D01*
X132539740Y-95334389D01*
X132546436Y-95332213D01*
X132687786Y-95247951D01*
X132806956Y-95134468D01*
X132810857Y-95128597D01*
X132894121Y-95003275D01*
X132894122Y-95003273D01*
X132898022Y-94997403D01*
X132956458Y-94843568D01*
X132966310Y-94773465D01*
X132978809Y-94684534D01*
X132978810Y-94684527D01*
X132979360Y-94680610D01*
X132979648Y-94660000D01*
X132961305Y-94496466D01*
X132956814Y-94483568D01*
X132931691Y-94411425D01*
X132907187Y-94341060D01*
X132894409Y-94320610D01*
X132823716Y-94207479D01*
X132819983Y-94201505D01*
X132747409Y-94128423D01*
X132708993Y-94089737D01*
X132708989Y-94089734D01*
X132704029Y-94084739D01*
X132565087Y-93996563D01*
X132515054Y-93978747D01*
X132416696Y-93943723D01*
X132416694Y-93943722D01*
X132410062Y-93941361D01*
X132403076Y-93940528D01*
X132403072Y-93940527D01*
X132288578Y-93926875D01*
X132246660Y-93921877D01*
X132239657Y-93922613D01*
X132239656Y-93922613D01*
X132196442Y-93927155D01*
X132083002Y-93939078D01*
X132076334Y-93941348D01*
X131933889Y-93989840D01*
X131933886Y-93989841D01*
X131927222Y-93992110D01*
X131787062Y-94078337D01*
X131733223Y-94131060D01*
X131688483Y-94174873D01*
X131669489Y-94193473D01*
X131580345Y-94331797D01*
X131577934Y-94338420D01*
X131577933Y-94338423D01*
X131526473Y-94479809D01*
X131526472Y-94479814D01*
X131524063Y-94486432D01*
X131503438Y-94649694D01*
X129082940Y-94649694D01*
X129139619Y-94603468D01*
X129189287Y-94562960D01*
X129189290Y-94562957D01*
X129194062Y-94559065D01*
X129197991Y-94554316D01*
X129316201Y-94411425D01*
X129316203Y-94411421D01*
X129320130Y-94406675D01*
X129414198Y-94232701D01*
X129472682Y-94043768D01*
X129476974Y-94002929D01*
X129492711Y-93853204D01*
X129492711Y-93853202D01*
X129493355Y-93847075D01*
X129484284Y-93747403D01*
X129481262Y-93714194D01*
X133403438Y-93714194D01*
X133419496Y-93877968D01*
X133471439Y-94034115D01*
X133475088Y-94040140D01*
X133533426Y-94136466D01*
X133556686Y-94174873D01*
X133561577Y-94179938D01*
X133561578Y-94179939D01*
X133602626Y-94222445D01*
X133670998Y-94293247D01*
X133808696Y-94383354D01*
X133962935Y-94440715D01*
X133969916Y-94441646D01*
X133969918Y-94441647D01*
X134119068Y-94461548D01*
X134119072Y-94461548D01*
X134126049Y-94462479D01*
X134133060Y-94461841D01*
X134133064Y-94461841D01*
X134282910Y-94448204D01*
X134282911Y-94448204D01*
X134289931Y-94447565D01*
X134326715Y-94435613D01*
X134439737Y-94398890D01*
X134439740Y-94398889D01*
X134446436Y-94396713D01*
X134587786Y-94312451D01*
X134706956Y-94198968D01*
X134710857Y-94193097D01*
X134794121Y-94067775D01*
X134794122Y-94067773D01*
X134798022Y-94061903D01*
X134844128Y-93940527D01*
X134850495Y-93923766D01*
X134893383Y-93867188D01*
X134960052Y-93842778D01*
X135029334Y-93858287D01*
X135079233Y-93908791D01*
X135087838Y-93928729D01*
X135101439Y-93969615D01*
X135117759Y-93996563D01*
X135180954Y-94100908D01*
X135186686Y-94110373D01*
X135191577Y-94115438D01*
X135191578Y-94115439D01*
X135281243Y-94208290D01*
X135314175Y-94271187D01*
X135307875Y-94341903D01*
X135278764Y-94385840D01*
X135204524Y-94458541D01*
X135204518Y-94458548D01*
X135199489Y-94463473D01*
X135110345Y-94601797D01*
X135107934Y-94608420D01*
X135107933Y-94608423D01*
X135056473Y-94749809D01*
X135056472Y-94749814D01*
X135054063Y-94756432D01*
X135033438Y-94919694D01*
X135049496Y-95083468D01*
X135101439Y-95239615D01*
X135186686Y-95380373D01*
X135191577Y-95385438D01*
X135191578Y-95385439D01*
X135281243Y-95478290D01*
X135314175Y-95541187D01*
X135307875Y-95611903D01*
X135278764Y-95655840D01*
X135204524Y-95728541D01*
X135204518Y-95728548D01*
X135199489Y-95733473D01*
X135110345Y-95871797D01*
X135107934Y-95878420D01*
X135107933Y-95878423D01*
X135056473Y-96019809D01*
X135056472Y-96019814D01*
X135054063Y-96026432D01*
X135033438Y-96189694D01*
X135049496Y-96353468D01*
X135101439Y-96509615D01*
X135105088Y-96515640D01*
X135178285Y-96636501D01*
X135186686Y-96650373D01*
X135300998Y-96768747D01*
X135438696Y-96858854D01*
X135592935Y-96916215D01*
X135599916Y-96917146D01*
X135599918Y-96917147D01*
X135749068Y-96937048D01*
X135749072Y-96937048D01*
X135756049Y-96937979D01*
X135763060Y-96937341D01*
X135763064Y-96937341D01*
X135912910Y-96923704D01*
X135912911Y-96923704D01*
X135919931Y-96923065D01*
X135948569Y-96913760D01*
X136069737Y-96874390D01*
X136069740Y-96874389D01*
X136076436Y-96872213D01*
X136217786Y-96787951D01*
X136336956Y-96674468D01*
X136352965Y-96650373D01*
X136424121Y-96543275D01*
X136424122Y-96543273D01*
X136428022Y-96537403D01*
X136486458Y-96383568D01*
X136497188Y-96307218D01*
X136508809Y-96224534D01*
X136508810Y-96224527D01*
X136509360Y-96220610D01*
X136509648Y-96200000D01*
X136491305Y-96036466D01*
X136485505Y-96019809D01*
X136439505Y-95887717D01*
X136437187Y-95881060D01*
X136410250Y-95837951D01*
X136353716Y-95747479D01*
X136349983Y-95741505D01*
X136332171Y-95723568D01*
X136262295Y-95653202D01*
X136228488Y-95590771D01*
X136233800Y-95519973D01*
X136264809Y-95473172D01*
X136273880Y-95464534D01*
X136336956Y-95404468D01*
X136340857Y-95398597D01*
X136424121Y-95273275D01*
X136424122Y-95273273D01*
X136428022Y-95267403D01*
X136486458Y-95113568D01*
X136497613Y-95034198D01*
X136508809Y-94954534D01*
X136508810Y-94954527D01*
X136509360Y-94950610D01*
X136509648Y-94930000D01*
X136491305Y-94766466D01*
X136485505Y-94749809D01*
X136447725Y-94641321D01*
X136437187Y-94611060D01*
X136432110Y-94602934D01*
X136353716Y-94477479D01*
X136349983Y-94471505D01*
X136340386Y-94461841D01*
X136262295Y-94383202D01*
X136228488Y-94320771D01*
X136233800Y-94249973D01*
X136264809Y-94203172D01*
X136300851Y-94168850D01*
X136336956Y-94134468D01*
X136340857Y-94128597D01*
X136424121Y-94003275D01*
X136424122Y-94003273D01*
X136428022Y-93997403D01*
X136486458Y-93843568D01*
X136497681Y-93763713D01*
X136508809Y-93684534D01*
X136508810Y-93684527D01*
X136509360Y-93680610D01*
X136509648Y-93660000D01*
X136491305Y-93496466D01*
X136485287Y-93479183D01*
X136456834Y-93397479D01*
X136437187Y-93341060D01*
X136417566Y-93309659D01*
X136353716Y-93207479D01*
X136349983Y-93201505D01*
X136280314Y-93131348D01*
X136238993Y-93089737D01*
X136238989Y-93089734D01*
X136234029Y-93084739D01*
X136095087Y-92996563D01*
X136016971Y-92968747D01*
X135946696Y-92943723D01*
X135946694Y-92943722D01*
X135940062Y-92941361D01*
X135933076Y-92940528D01*
X135933072Y-92940527D01*
X135818578Y-92926875D01*
X135776660Y-92921877D01*
X135769657Y-92922613D01*
X135769656Y-92922613D01*
X135726442Y-92927155D01*
X135613002Y-92939078D01*
X135606334Y-92941348D01*
X135463889Y-92989840D01*
X135463886Y-92989841D01*
X135457222Y-92992110D01*
X135317062Y-93078337D01*
X135277540Y-93117040D01*
X135209604Y-93183568D01*
X135199489Y-93193473D01*
X135110345Y-93331797D01*
X135063312Y-93461020D01*
X135021220Y-93518188D01*
X134954899Y-93543526D01*
X134885408Y-93528985D01*
X134834808Y-93479183D01*
X134825922Y-93459360D01*
X134807187Y-93405560D01*
X134802138Y-93397479D01*
X134723716Y-93271979D01*
X134719983Y-93266005D01*
X134650968Y-93196507D01*
X134608993Y-93154237D01*
X134608989Y-93154234D01*
X134604029Y-93149239D01*
X134465087Y-93061063D01*
X134351482Y-93020610D01*
X134316696Y-93008223D01*
X134316694Y-93008222D01*
X134310062Y-93005861D01*
X134303076Y-93005028D01*
X134303072Y-93005027D01*
X134175702Y-92989840D01*
X134146660Y-92986377D01*
X134139657Y-92987113D01*
X134139656Y-92987113D01*
X134113711Y-92989840D01*
X133983002Y-93003578D01*
X133976334Y-93005848D01*
X133833889Y-93054340D01*
X133833886Y-93054341D01*
X133827222Y-93056610D01*
X133761046Y-93097322D01*
X133695276Y-93137784D01*
X133687062Y-93142837D01*
X133638554Y-93190340D01*
X133581240Y-93246466D01*
X133569489Y-93257973D01*
X133480345Y-93396297D01*
X133477934Y-93402920D01*
X133477933Y-93402923D01*
X133426473Y-93544309D01*
X133426472Y-93544314D01*
X133424063Y-93550932D01*
X133403438Y-93714194D01*
X129481262Y-93714194D01*
X129475989Y-93656251D01*
X129475988Y-93656248D01*
X129475430Y-93650112D01*
X129473529Y-93643650D01*
X129439781Y-93528985D01*
X129419590Y-93460381D01*
X129411774Y-93445429D01*
X129354086Y-93335084D01*
X129327960Y-93285110D01*
X129204032Y-93130975D01*
X129197727Y-93125684D01*
X129156463Y-93091060D01*
X129052526Y-93003846D01*
X129047128Y-93000879D01*
X129047123Y-93000875D01*
X128884608Y-92911533D01*
X128884609Y-92911533D01*
X128879213Y-92908567D01*
X128873346Y-92906706D01*
X128873344Y-92906705D01*
X128696564Y-92850627D01*
X128696563Y-92850627D01*
X128690694Y-92848765D01*
X128536773Y-92831500D01*
X128430231Y-92831500D01*
X128427175Y-92831800D01*
X128427168Y-92831800D01*
X128368660Y-92837537D01*
X128283167Y-92845920D01*
X128277266Y-92847702D01*
X128277264Y-92847702D01*
X128208057Y-92868597D01*
X128093831Y-92903084D01*
X127919204Y-92995934D01*
X127839348Y-93061063D01*
X127770713Y-93117040D01*
X127770710Y-93117043D01*
X127765938Y-93120935D01*
X127762011Y-93125682D01*
X127762009Y-93125684D01*
X127643799Y-93268575D01*
X127643797Y-93268579D01*
X127639870Y-93273325D01*
X127545802Y-93447299D01*
X127487318Y-93636232D01*
X127486674Y-93642357D01*
X127486674Y-93642358D01*
X127475392Y-93749706D01*
X127466645Y-93832925D01*
X127468491Y-93853204D01*
X127482166Y-94003468D01*
X127484570Y-94029888D01*
X127486308Y-94035794D01*
X127486309Y-94035798D01*
X127508258Y-94110373D01*
X127540410Y-94219619D01*
X127543265Y-94225080D01*
X127543267Y-94225085D01*
X127609805Y-94352360D01*
X127623639Y-94421995D01*
X127597629Y-94488056D01*
X127538748Y-94530013D01*
X127392384Y-94579839D01*
X127392379Y-94579841D01*
X127385715Y-94582110D01*
X127379714Y-94585802D01*
X127356960Y-94599800D01*
X127288459Y-94618459D01*
X127220745Y-94597121D01*
X127175316Y-94542561D01*
X127166163Y-94474948D01*
X127183026Y-94354957D01*
X127187853Y-94320610D01*
X127188141Y-94300000D01*
X127169798Y-94136466D01*
X127165835Y-94125084D01*
X127137517Y-94043768D01*
X127115680Y-93981060D01*
X127108529Y-93969615D01*
X127032209Y-93847479D01*
X127028476Y-93841505D01*
X126951225Y-93763713D01*
X126917486Y-93729737D01*
X126917482Y-93729734D01*
X126912522Y-93724739D01*
X126773580Y-93636563D01*
X126661986Y-93596826D01*
X126625189Y-93583723D01*
X126625187Y-93583722D01*
X126618555Y-93581361D01*
X126611569Y-93580528D01*
X126611565Y-93580527D01*
X126497071Y-93566875D01*
X126455153Y-93561877D01*
X126448150Y-93562613D01*
X126448149Y-93562613D01*
X126404935Y-93567155D01*
X126291495Y-93579078D01*
X126284827Y-93581348D01*
X126142382Y-93629840D01*
X126142379Y-93629841D01*
X126135715Y-93632110D01*
X126121318Y-93640967D01*
X126116957Y-93643650D01*
X126048455Y-93662307D01*
X125980742Y-93640967D01*
X125935314Y-93586407D01*
X125931954Y-93577793D01*
X125915680Y-93531060D01*
X125871912Y-93461016D01*
X125832209Y-93397479D01*
X125828476Y-93391505D01*
X125768206Y-93330813D01*
X125717486Y-93279737D01*
X125717482Y-93279734D01*
X125712522Y-93274739D01*
X125573580Y-93186563D01*
X125480639Y-93153468D01*
X125425189Y-93133723D01*
X125425187Y-93133722D01*
X125418555Y-93131361D01*
X125411569Y-93130528D01*
X125411565Y-93130527D01*
X125297071Y-93116875D01*
X125255153Y-93111877D01*
X125248150Y-93112613D01*
X125248149Y-93112613D01*
X125206030Y-93117040D01*
X125091495Y-93129078D01*
X125084827Y-93131348D01*
X124942382Y-93179840D01*
X124942379Y-93179841D01*
X124935715Y-93182110D01*
X124852226Y-93233473D01*
X124802774Y-93263896D01*
X124795555Y-93268337D01*
X124760229Y-93302931D01*
X124684954Y-93376646D01*
X124677982Y-93383473D01*
X124588838Y-93521797D01*
X124586427Y-93528420D01*
X124586426Y-93528423D01*
X124534966Y-93669809D01*
X124534965Y-93669814D01*
X124532556Y-93676432D01*
X124511931Y-93839694D01*
X113247699Y-93839694D01*
X113248780Y-91483342D01*
X120061931Y-91483342D01*
X120077989Y-91647116D01*
X120129932Y-91803263D01*
X120145062Y-91828246D01*
X120203266Y-91924350D01*
X120215179Y-91944021D01*
X120220070Y-91949086D01*
X120220071Y-91949087D01*
X120237514Y-91967150D01*
X120329491Y-92062395D01*
X120467189Y-92152502D01*
X120621428Y-92209863D01*
X120628409Y-92210794D01*
X120628411Y-92210795D01*
X120777561Y-92230696D01*
X120777565Y-92230696D01*
X120784542Y-92231627D01*
X120791553Y-92230989D01*
X120791557Y-92230989D01*
X120941403Y-92217352D01*
X120941404Y-92217352D01*
X120948424Y-92216713D01*
X120997131Y-92200887D01*
X121098230Y-92168038D01*
X121098233Y-92168037D01*
X121104929Y-92165861D01*
X121246279Y-92081599D01*
X121365449Y-91968116D01*
X121369350Y-91962245D01*
X121452614Y-91836923D01*
X121452615Y-91836921D01*
X121456515Y-91831051D01*
X121514951Y-91677216D01*
X121529382Y-91574534D01*
X121537302Y-91518182D01*
X121537303Y-91518175D01*
X121537853Y-91514258D01*
X121538141Y-91493648D01*
X121535454Y-91469694D01*
X122121931Y-91469694D01*
X122137989Y-91633468D01*
X122189932Y-91789615D01*
X122193581Y-91795640D01*
X122269708Y-91921339D01*
X122275179Y-91930373D01*
X122389491Y-92048747D01*
X122527189Y-92138854D01*
X122681428Y-92196215D01*
X122688409Y-92197146D01*
X122688411Y-92197147D01*
X122837561Y-92217048D01*
X122837565Y-92217048D01*
X122844542Y-92217979D01*
X122851553Y-92217341D01*
X122851557Y-92217341D01*
X123001403Y-92203704D01*
X123001404Y-92203704D01*
X123008424Y-92203065D01*
X123096436Y-92174468D01*
X123158230Y-92154390D01*
X123158233Y-92154389D01*
X123164929Y-92152213D01*
X123306279Y-92067951D01*
X123425449Y-91954468D01*
X123442672Y-91928546D01*
X123512614Y-91823275D01*
X123512615Y-91823273D01*
X123516515Y-91817403D01*
X123574951Y-91663568D01*
X123588849Y-91564680D01*
X123592361Y-91539694D01*
X124161931Y-91539694D01*
X124177989Y-91703468D01*
X124229932Y-91859615D01*
X124233581Y-91865640D01*
X124296804Y-91970032D01*
X124315179Y-92000373D01*
X124320070Y-92005438D01*
X124320071Y-92005439D01*
X124356609Y-92043275D01*
X124429491Y-92118747D01*
X124567189Y-92208854D01*
X124721428Y-92266215D01*
X124728409Y-92267146D01*
X124728411Y-92267147D01*
X124877561Y-92287048D01*
X124877565Y-92287048D01*
X124884542Y-92287979D01*
X124891553Y-92287341D01*
X124891557Y-92287341D01*
X125041403Y-92273704D01*
X125041404Y-92273704D01*
X125048424Y-92273065D01*
X125082857Y-92261877D01*
X125198230Y-92224390D01*
X125198233Y-92224389D01*
X125204929Y-92222213D01*
X125346279Y-92137951D01*
X125465449Y-92024468D01*
X125474335Y-92011094D01*
X125552614Y-91893275D01*
X125552615Y-91893273D01*
X125556515Y-91887403D01*
X125614951Y-91733568D01*
X125627593Y-91643612D01*
X125637302Y-91574534D01*
X125637303Y-91574527D01*
X125637853Y-91570610D01*
X125638141Y-91550000D01*
X125619798Y-91386466D01*
X125615835Y-91375084D01*
X125567998Y-91237717D01*
X125565680Y-91231060D01*
X125528820Y-91172071D01*
X125482209Y-91097479D01*
X125478476Y-91091505D01*
X125408963Y-91021505D01*
X125367486Y-90979737D01*
X125367482Y-90979734D01*
X125362522Y-90974739D01*
X125223580Y-90886563D01*
X125138839Y-90856388D01*
X125075189Y-90833723D01*
X125075187Y-90833722D01*
X125068555Y-90831361D01*
X125061569Y-90830528D01*
X125061565Y-90830527D01*
X124944452Y-90816563D01*
X124905153Y-90811877D01*
X124898150Y-90812613D01*
X124898149Y-90812613D01*
X124867818Y-90815801D01*
X124741495Y-90829078D01*
X124734827Y-90831348D01*
X124592382Y-90879840D01*
X124592379Y-90879841D01*
X124585715Y-90882110D01*
X124445555Y-90968337D01*
X124434115Y-90979540D01*
X124337179Y-91074467D01*
X124327982Y-91083473D01*
X124238838Y-91221797D01*
X124236427Y-91228420D01*
X124236426Y-91228423D01*
X124184966Y-91369809D01*
X124184965Y-91369814D01*
X124182556Y-91376432D01*
X124161931Y-91539694D01*
X123592361Y-91539694D01*
X123597302Y-91504534D01*
X123597303Y-91504527D01*
X123597853Y-91500610D01*
X123598141Y-91480000D01*
X123579798Y-91316466D01*
X123573998Y-91299809D01*
X123550897Y-91233473D01*
X123525680Y-91161060D01*
X123471571Y-91074467D01*
X123442209Y-91027479D01*
X123438476Y-91021505D01*
X123365424Y-90947941D01*
X123327486Y-90909737D01*
X123327482Y-90909734D01*
X123322522Y-90904739D01*
X123183580Y-90816563D01*
X123111266Y-90790813D01*
X123035189Y-90763723D01*
X123035187Y-90763722D01*
X123028555Y-90761361D01*
X123021569Y-90760528D01*
X123021565Y-90760527D01*
X122907071Y-90746875D01*
X122865153Y-90741877D01*
X122858150Y-90742613D01*
X122858149Y-90742613D01*
X122814935Y-90747155D01*
X122701495Y-90759078D01*
X122694827Y-90761348D01*
X122552382Y-90809840D01*
X122552379Y-90809841D01*
X122545715Y-90812110D01*
X122473742Y-90856388D01*
X122428538Y-90884198D01*
X122405555Y-90898337D01*
X122388091Y-90915439D01*
X122337844Y-90964645D01*
X122287982Y-91013473D01*
X122198838Y-91151797D01*
X122196427Y-91158420D01*
X122196426Y-91158423D01*
X122144966Y-91299809D01*
X122144965Y-91299814D01*
X122142556Y-91306432D01*
X122121931Y-91469694D01*
X121535454Y-91469694D01*
X121519798Y-91330114D01*
X121513998Y-91313457D01*
X121484427Y-91228542D01*
X121465680Y-91174708D01*
X121441363Y-91135792D01*
X121382209Y-91041127D01*
X121378476Y-91035153D01*
X121308458Y-90964645D01*
X121267486Y-90923385D01*
X121267482Y-90923382D01*
X121262522Y-90918387D01*
X121123580Y-90830211D01*
X121012938Y-90790813D01*
X120975189Y-90777371D01*
X120975187Y-90777370D01*
X120968555Y-90775009D01*
X120961569Y-90774176D01*
X120961565Y-90774175D01*
X120834950Y-90759078D01*
X120805153Y-90755525D01*
X120798150Y-90756261D01*
X120798149Y-90756261D01*
X120771348Y-90759078D01*
X120641495Y-90772726D01*
X120634827Y-90774996D01*
X120492382Y-90823488D01*
X120492379Y-90823489D01*
X120485715Y-90825758D01*
X120449558Y-90848002D01*
X120357966Y-90904350D01*
X120345555Y-90911985D01*
X120322596Y-90934468D01*
X120235871Y-91019396D01*
X120227982Y-91027121D01*
X120138838Y-91165445D01*
X120136427Y-91172068D01*
X120136426Y-91172071D01*
X120084966Y-91313457D01*
X120084965Y-91313462D01*
X120082556Y-91320080D01*
X120061931Y-91483342D01*
X113248780Y-91483342D01*
X113249848Y-89153940D01*
X113269880Y-89085831D01*
X113323557Y-89039362D01*
X113375847Y-89028000D01*
X119109392Y-89028000D01*
X119177513Y-89048002D01*
G37*
%TD.AperFunction*%
%TD*%
M02*
