%TF.GenerationSoftware,KiCad,Pcbnew,(6.0.2)*%
%TF.CreationDate,2022-02-27T22:40:51+08:00*%
%TF.ProjectId,PlantCare,506c616e-7443-4617-9265-2e6b69636164,rev?*%
%TF.SameCoordinates,Original*%
%TF.FileFunction,Legend,Top*%
%TF.FilePolarity,Positive*%
%FSLAX46Y46*%
G04 Gerber Fmt 4.6, Leading zero omitted, Abs format (unit mm)*
G04 Created by KiCad (PCBNEW (6.0.2)) date 2022-02-27 22:40:51*
%MOMM*%
%LPD*%
G01*
G04 APERTURE LIST*
%ADD10C,0.150000*%
%ADD11C,0.120000*%
%ADD12C,0.100000*%
%ADD13C,0.254000*%
%ADD14C,0.400000*%
%ADD15C,0.300000*%
G04 APERTURE END LIST*
D10*
X136495238Y-110457142D02*
X137104761Y-110457142D01*
X136800000Y-110761904D02*
X136800000Y-110152380D01*
X150111904Y-103311904D02*
X150111904Y-103159523D01*
X150150000Y-103083333D01*
X150226190Y-103007142D01*
X150378571Y-102969047D01*
X150645238Y-102969047D01*
X150797619Y-103007142D01*
X150873809Y-103083333D01*
X150911904Y-103159523D01*
X150911904Y-103311904D01*
X150873809Y-103388095D01*
X150797619Y-103464285D01*
X150645238Y-103502380D01*
X150378571Y-103502380D01*
X150226190Y-103464285D01*
X150150000Y-103388095D01*
X150111904Y-103311904D01*
X150492857Y-102359523D02*
X150492857Y-102626190D01*
X150911904Y-102626190D02*
X150111904Y-102626190D01*
X150111904Y-102245238D01*
X150492857Y-101673809D02*
X150492857Y-101940476D01*
X150911904Y-101940476D02*
X150111904Y-101940476D01*
X150111904Y-101559523D01*
X130588095Y-110811904D02*
X130588095Y-110011904D01*
X130854761Y-110583333D01*
X131121428Y-110011904D01*
X131121428Y-110811904D01*
X131502380Y-110507142D02*
X132111904Y-110507142D01*
X133945238Y-110457142D02*
X134554761Y-110457142D01*
D11*
%TO.C,SW1*%
X146830000Y-102430000D02*
X146830000Y-102230000D01*
X147880000Y-107280000D02*
X148670000Y-107280000D01*
X148670000Y-100380000D02*
X147880000Y-100380000D01*
X149680000Y-105230000D02*
X150970000Y-105230000D01*
X151180000Y-105030000D02*
X151180000Y-104130000D01*
X149680000Y-106680000D02*
X149680000Y-100980000D01*
X150970000Y-103930000D02*
X149680000Y-103930000D01*
X150970000Y-105230000D02*
X151180000Y-105030000D01*
X146830000Y-105430000D02*
X146830000Y-103730000D01*
X150970000Y-103930000D02*
X151180000Y-104130000D01*
%TO.C,R6*%
X115492500Y-109006359D02*
X115492500Y-109313641D01*
X116252500Y-109006359D02*
X116252500Y-109313641D01*
%TO.C,R16*%
X118305000Y-109313641D02*
X118305000Y-109006359D01*
X117545000Y-109313641D02*
X117545000Y-109006359D01*
%TO.C,R9*%
X127616359Y-89820000D02*
X127923641Y-89820000D01*
X127616359Y-89060000D02*
X127923641Y-89060000D01*
%TO.C,R8*%
X114466250Y-109006359D02*
X114466250Y-109313641D01*
X115226250Y-109006359D02*
X115226250Y-109313641D01*
%TO.C,R4*%
X118571250Y-109006359D02*
X118571250Y-109313641D01*
X119331250Y-109006359D02*
X119331250Y-109313641D01*
D12*
%TO.C,D1*%
X121053750Y-108070000D02*
G75*
G03*
X121053750Y-108070000I-50000J0D01*
G01*
D11*
%TO.C,R10*%
X119256359Y-89060000D02*
X119563641Y-89060000D01*
X119256359Y-89820000D02*
X119563641Y-89820000D01*
%TO.C,U1*%
X138480000Y-107930000D02*
X138480000Y-101920000D01*
X145300000Y-101920000D02*
X144040000Y-101920000D01*
X145300000Y-105680000D02*
X145300000Y-101920000D01*
X138480000Y-101920000D02*
X139740000Y-101920000D01*
%TO.C,C5*%
X142743671Y-89650000D02*
X142959343Y-89650000D01*
X142743671Y-88930000D02*
X142959343Y-88930000D01*
%TO.C,U2*%
X106240000Y-90960000D02*
X113860000Y-90960000D01*
X129860000Y-90960000D02*
X130480000Y-90960000D01*
X130480000Y-90960000D02*
X130480000Y-93080000D01*
X130480000Y-107200000D02*
X129860000Y-107200000D01*
X130480000Y-105080000D02*
X130480000Y-107200000D01*
X106240000Y-107200000D02*
X106240000Y-90960000D01*
X113860000Y-107200000D02*
X106240000Y-107200000D01*
X113860000Y-107200000D02*
X113860000Y-107810000D01*
%TO.C,Q2*%
X134701507Y-98210000D02*
X134701507Y-95780000D01*
X134691507Y-98230000D02*
X133691507Y-98230000D01*
X131641507Y-98230000D02*
X131641507Y-96380000D01*
X132691507Y-98230000D02*
X131641507Y-98230000D01*
%TO.C,J2*%
X128760000Y-107990000D02*
X128760000Y-109100000D01*
X123495000Y-109407530D02*
X123495000Y-110210000D01*
X123495000Y-107990000D02*
X123495000Y-108792470D01*
X127240000Y-107990000D02*
X123495000Y-107990000D01*
X127240000Y-107990000D02*
X127240000Y-108536529D01*
X127240000Y-110210000D02*
X123495000Y-110210000D01*
X127240000Y-109663471D02*
X127240000Y-110210000D01*
X128000000Y-107990000D02*
X128760000Y-107990000D01*
%TO.C,R3*%
X125526359Y-89820000D02*
X125833641Y-89820000D01*
X125526359Y-89060000D02*
X125833641Y-89060000D01*
%TO.C,C7*%
X142773671Y-91365000D02*
X142989343Y-91365000D01*
X142773671Y-92085000D02*
X142989343Y-92085000D01*
%TO.C,R14*%
X133761507Y-94303641D02*
X133761507Y-93996359D01*
X134521507Y-94303641D02*
X134521507Y-93996359D01*
%TO.C,R12*%
X142703901Y-93813884D02*
X143011183Y-93813884D01*
X142703901Y-94573884D02*
X143011183Y-94573884D01*
%TO.C,R13*%
X139893641Y-108400000D02*
X139586359Y-108400000D01*
X139893641Y-109160000D02*
X139586359Y-109160000D01*
%TO.C,R5*%
X119597500Y-109006359D02*
X119597500Y-109313641D01*
X120357500Y-109006359D02*
X120357500Y-109313641D01*
%TO.C,R1*%
X123436359Y-89060000D02*
X123743641Y-89060000D01*
X123436359Y-89820000D02*
X123743641Y-89820000D01*
%TO.C,C6*%
X142763671Y-90867500D02*
X142979343Y-90867500D01*
X142763671Y-90147500D02*
X142979343Y-90147500D01*
%TO.C,C2*%
X143917836Y-108430000D02*
X143702164Y-108430000D01*
X143917836Y-109150000D02*
X143702164Y-109150000D01*
%TO.C,C3*%
X141677164Y-108430000D02*
X141892836Y-108430000D01*
X141677164Y-109150000D02*
X141892836Y-109150000D01*
%TO.C,R2*%
X122410000Y-109006359D02*
X122410000Y-109313641D01*
X121650000Y-109006359D02*
X121650000Y-109313641D01*
%TO.C,Q4*%
X136152000Y-106106000D02*
X135102000Y-106106000D01*
X135102000Y-106106000D02*
X135102000Y-104256000D01*
X138152000Y-106106000D02*
X137152000Y-106106000D01*
X138162000Y-106086000D02*
X138162000Y-103656000D01*
%TO.C,Q1*%
X134990000Y-101092000D02*
X134990000Y-100442000D01*
X138110000Y-101092000D02*
X138110000Y-100442000D01*
X138110000Y-101092000D02*
X138110000Y-101742000D01*
X134990000Y-101092000D02*
X134990000Y-102767000D01*
D13*
%TO.C,C1*%
X131520000Y-105787000D02*
X131970000Y-106223000D01*
X131520000Y-100333000D02*
X131520000Y-102260000D01*
X134820000Y-105787000D02*
X134370000Y-106223000D01*
X131970000Y-106223000D02*
X134370000Y-106223000D01*
X131520000Y-105787000D02*
X134820000Y-105787000D01*
X134820000Y-103860000D02*
X134820000Y-105787000D01*
X131520000Y-100333000D02*
X134820000Y-100333000D01*
X134820000Y-100333000D02*
X134820000Y-102260000D01*
X131520000Y-103860000D02*
X131520000Y-105787000D01*
D11*
%TO.C,J5*%
X129960000Y-110020000D02*
X129900000Y-110020000D01*
X131230000Y-107360000D02*
X132560000Y-107360000D01*
X129900000Y-107360000D02*
X129900000Y-110020000D01*
X129960000Y-107360000D02*
X129960000Y-110020000D01*
X129960000Y-107360000D02*
X129900000Y-107360000D01*
X132560000Y-107360000D02*
X132560000Y-108690000D01*
%TO.C,C4*%
X113470000Y-109287836D02*
X113470000Y-109072164D01*
X114190000Y-109287836D02*
X114190000Y-109072164D01*
%TO.C,Q3*%
X131691507Y-90070000D02*
X132691507Y-90070000D01*
X134741507Y-90070000D02*
X134741507Y-91920000D01*
X131681507Y-90090000D02*
X131681507Y-92520000D01*
X133691507Y-90070000D02*
X134741507Y-90070000D01*
%TO.C,R11*%
X142995749Y-93377757D02*
X142688467Y-93377757D01*
X142995749Y-92617757D02*
X142688467Y-92617757D01*
%TO.C,J3*%
X151031507Y-89440000D02*
X152931507Y-89440000D01*
X147131507Y-98840000D02*
X149131507Y-98840000D01*
X152931507Y-98840000D02*
X152931507Y-89440000D01*
X147131507Y-89440000D02*
X149131507Y-89440000D01*
X151031507Y-98840000D02*
X152931507Y-98840000D01*
%TO.C,R17*%
X116518750Y-109006359D02*
X116518750Y-109313641D01*
X117278750Y-109006359D02*
X117278750Y-109313641D01*
%TO.C,J4*%
X132985000Y-107330000D02*
X132985000Y-109990000D01*
X135585000Y-107330000D02*
X135585000Y-109990000D01*
X138185000Y-107330000D02*
X138185000Y-108660000D01*
X135585000Y-109990000D02*
X132985000Y-109990000D01*
X136855000Y-107330000D02*
X138185000Y-107330000D01*
X135585000Y-107330000D02*
X132985000Y-107330000D01*
%TO.C,D2*%
X144041507Y-94850000D02*
X144041507Y-98750000D01*
X142041507Y-94850000D02*
X142041507Y-98750000D01*
X144041507Y-94850000D02*
X142041507Y-94850000D01*
%TO.C,R15*%
X131861507Y-93996359D02*
X131861507Y-94303641D01*
X132621507Y-93996359D02*
X132621507Y-94303641D01*
D13*
%TO.C,U3*%
X139771507Y-89395000D02*
X139771507Y-99195000D01*
X136971507Y-89395000D02*
X136971507Y-99195000D01*
X136971507Y-89395000D02*
X139771507Y-89395000D01*
X136971507Y-99195000D02*
X139771507Y-99195000D01*
D14*
X137871507Y-90095000D02*
G75*
G03*
X137871507Y-90095000I-200000J0D01*
G01*
D15*
X135571507Y-89045000D02*
G75*
G03*
X135571507Y-89045000I-150000J0D01*
G01*
D11*
%TO.C,R7*%
X121653641Y-89820000D02*
X121346359Y-89820000D01*
X121653641Y-89060000D02*
X121346359Y-89060000D01*
%TD*%
M02*
