%TF.GenerationSoftware,KiCad,Pcbnew,(6.0.2)*%
%TF.CreationDate,2022-02-27T22:40:51+08:00*%
%TF.ProjectId,PlantCare,506c616e-7443-4617-9265-2e6b69636164,rev?*%
%TF.SameCoordinates,Original*%
%TF.FileFunction,Copper,L3,Inr*%
%TF.FilePolarity,Positive*%
%FSLAX46Y46*%
G04 Gerber Fmt 4.6, Leading zero omitted, Abs format (unit mm)*
G04 Created by KiCad (PCBNEW (6.0.2)) date 2022-02-27 22:40:51*
%MOMM*%
%LPD*%
G01*
G04 APERTURE LIST*
%TA.AperFunction,ComponentPad*%
%ADD10R,1.000000X1.000000*%
%TD*%
%TA.AperFunction,ComponentPad*%
%ADD11O,1.000000X1.000000*%
%TD*%
%TA.AperFunction,ComponentPad*%
%ADD12R,1.700000X1.700000*%
%TD*%
%TA.AperFunction,ComponentPad*%
%ADD13O,1.600000X1.000000*%
%TD*%
%TA.AperFunction,ComponentPad*%
%ADD14O,2.100000X1.000000*%
%TD*%
%TA.AperFunction,ComponentPad*%
%ADD15O,1.700000X1.700000*%
%TD*%
%TA.AperFunction,ViaPad*%
%ADD16C,0.450000*%
%TD*%
%TA.AperFunction,Conductor*%
%ADD17C,0.600000*%
%TD*%
%TA.AperFunction,Conductor*%
%ADD18C,0.200000*%
%TD*%
G04 APERTURE END LIST*
D10*
%TO.N,GND*%
%TO.C,J2*%
X128000000Y-109100000D03*
D11*
%TO.N,/GPIO0*%
X126730000Y-109100000D03*
%TO.N,/RXD*%
X125460000Y-109100000D03*
%TO.N,/TXD*%
X124190000Y-109100000D03*
%TD*%
D12*
%TO.N,/control*%
%TO.C,J5*%
X131230000Y-108690000D03*
%TD*%
D13*
%TO.N,GND*%
%TO.C,J3*%
X150081507Y-98460000D03*
X150081507Y-89820000D03*
D14*
X145901507Y-89820000D03*
X145901507Y-98460000D03*
%TD*%
D12*
%TO.N,+BATT*%
%TO.C,J4*%
X136855000Y-108660000D03*
D15*
%TO.N,GND*%
X134315000Y-108660000D03*
%TD*%
D16*
%TO.N,+3V3*%
X140750000Y-108780000D03*
X125480000Y-95540000D03*
X133150000Y-104575000D03*
X124100000Y-89375500D03*
X127700000Y-95250000D03*
X122025000Y-108650000D03*
X141890000Y-106980000D03*
X118950000Y-109675000D03*
X141890000Y-100680000D03*
X126200000Y-89425000D03*
X114850000Y-109675000D03*
%TO.N,GND*%
X117950000Y-109675000D03*
X144986507Y-97390000D03*
X127195126Y-98339989D03*
X128875000Y-91500000D03*
X113850000Y-109675000D03*
X135702000Y-103846000D03*
X139590000Y-106980000D03*
X142835000Y-108790000D03*
X135780000Y-89850000D03*
X144825000Y-102075000D03*
X133175000Y-101575000D03*
X128300000Y-89450000D03*
X137500000Y-102050000D03*
%TO.N,Net-(C5-Pad1)*%
X142381507Y-90460000D03*
X142371507Y-89290000D03*
X143081507Y-95440000D03*
X140991507Y-89860000D03*
%TO.N,Net-(C7-Pad1)*%
X142400000Y-91700000D03*
X135771507Y-93660000D03*
%TO.N,/GPIO13*%
X126860000Y-106680000D03*
%TO.N,/GPIO14*%
X122860000Y-106680000D03*
%TO.N,/GPIO0*%
X122860000Y-91480000D03*
%TO.N,/GPIO2*%
X127900000Y-98650000D03*
X126450000Y-94300000D03*
X124900000Y-91550000D03*
%TO.N,Net-(J1-Pad11)*%
X136600000Y-99800000D03*
%TO.N,/RXD*%
X138663366Y-99378391D03*
X143400000Y-93000000D03*
%TO.N,/TXD*%
X143374750Y-93767006D03*
X139200000Y-97900000D03*
%TO.N,Net-(J3-PadA6)*%
X135771507Y-94930000D03*
X145990000Y-93410000D03*
%TO.N,Net-(J3-PadA7)*%
X146150000Y-94450000D03*
X135771507Y-96200000D03*
%TO.N,+BATT*%
X116898750Y-109670000D03*
%TO.N,Net-(Q1-Pad1)*%
X135100000Y-100550000D03*
X125250000Y-93850000D03*
X128500000Y-97100000D03*
X119920000Y-89440000D03*
%TO.N,Net-(Q2-Pad2)*%
X141000000Y-92400000D03*
X132241507Y-94660000D03*
%TO.N,/EN*%
X121500000Y-102000000D03*
X133191507Y-98590000D03*
X118860000Y-106680000D03*
%TO.N,Net-(Q3-Pad2)*%
X141000000Y-93700000D03*
X134141507Y-93724500D03*
%TO.N,/GPIO4*%
X127970880Y-99870880D03*
X129100000Y-100900000D03*
X120800000Y-91493648D03*
X127970879Y-99870879D03*
X137600000Y-103800000D03*
X127970878Y-99870878D03*
%TO.N,Net-(R5-Pad2)*%
X131100000Y-106100000D03*
%TO.N,Net-(R7-Pad2)*%
X139200000Y-100800000D03*
X128950000Y-95700000D03*
X121000000Y-89500000D03*
%TD*%
D17*
%TO.N,Net-(C5-Pad1)*%
X142381507Y-89300000D02*
X142371507Y-89290000D01*
X142371507Y-89290000D02*
X142351507Y-89290000D01*
X143600000Y-95440000D02*
X144780000Y-94260000D01*
X141781507Y-89860000D02*
X142381507Y-90460000D01*
X144780000Y-92858493D02*
X142381507Y-90460000D01*
X144780000Y-94260000D02*
X144780000Y-92858493D01*
X142351507Y-89290000D02*
X141781507Y-89860000D01*
X143081507Y-95440000D02*
X143600000Y-95440000D01*
X142381507Y-90460000D02*
X142381507Y-89300000D01*
X141750000Y-89290000D02*
X141180000Y-89860000D01*
X142371507Y-89290000D02*
X141750000Y-89290000D01*
X141180000Y-89860000D02*
X140991507Y-89860000D01*
X140991507Y-89860000D02*
X141781507Y-89860000D01*
D18*
%TO.N,/RXD*%
X143358242Y-93000000D02*
X138663366Y-97694876D01*
X143400000Y-93000000D02*
X143358242Y-93000000D01*
X138663366Y-97694876D02*
X138663366Y-99378391D01*
%TO.N,/TXD*%
X143332994Y-93767006D02*
X139200000Y-97900000D01*
X143374750Y-93767006D02*
X143332994Y-93767006D01*
%TO.N,Net-(Q1-Pad1)*%
X128500000Y-97100000D02*
X128458242Y-97100000D01*
X119940000Y-89440000D02*
X119920000Y-89440000D01*
X128458242Y-97100000D02*
X125250000Y-93891758D01*
X125250000Y-93891758D02*
X125250000Y-93850000D01*
%TO.N,Net-(Q2-Pad2)*%
X134501507Y-92400000D02*
X141000000Y-92400000D01*
X132241507Y-94660000D02*
X134501507Y-92400000D01*
%TO.N,/EN*%
X126700000Y-102000000D02*
X130110000Y-98590000D01*
X121500000Y-102000000D02*
X126700000Y-102000000D01*
X130110000Y-98590000D02*
X133191507Y-98590000D01*
%TO.N,Net-(Q3-Pad2)*%
X140515499Y-94184501D02*
X134601508Y-94184501D01*
X141000000Y-93700000D02*
X140515499Y-94184501D01*
X134601508Y-94184501D02*
X134141507Y-93724500D01*
%TO.N,/GPIO4*%
X137600000Y-103800000D02*
X134700000Y-100900000D01*
X120800000Y-92700000D02*
X127970878Y-99870878D01*
X120800000Y-91493648D02*
X120800000Y-92700000D01*
X120800000Y-92700000D02*
X127970880Y-99870880D01*
X134700000Y-100900000D02*
X129100000Y-100900000D01*
%TO.N,Net-(R7-Pad2)*%
X135900000Y-97500000D02*
X130700000Y-97500000D01*
X128950000Y-95750000D02*
X128950000Y-95700000D01*
X130700000Y-97500000D02*
X128950000Y-95750000D01*
X139200000Y-100800000D02*
X135900000Y-97500000D01*
%TD*%
%TA.AperFunction,Conductor*%
%TO.N,+3V3*%
G36*
X119177513Y-89048002D02*
G01*
X119224006Y-89101658D01*
X119234110Y-89171932D01*
X119227794Y-89197089D01*
X119202556Y-89266432D01*
X119181931Y-89429694D01*
X119197989Y-89593468D01*
X119249932Y-89749615D01*
X119335179Y-89890373D01*
X119449491Y-90008747D01*
X119587189Y-90098854D01*
X119741428Y-90156215D01*
X119748409Y-90157146D01*
X119748411Y-90157147D01*
X119897561Y-90177048D01*
X119897565Y-90177048D01*
X119904542Y-90177979D01*
X119911553Y-90177341D01*
X119911557Y-90177341D01*
X120061403Y-90163704D01*
X120061404Y-90163704D01*
X120068424Y-90163065D01*
X120185243Y-90125108D01*
X120218230Y-90114390D01*
X120218233Y-90114389D01*
X120224929Y-90112213D01*
X120359078Y-90032244D01*
X120427832Y-90014544D01*
X120495242Y-90036826D01*
X120514231Y-90052946D01*
X120524592Y-90063675D01*
X120524597Y-90063679D01*
X120529491Y-90068747D01*
X120667189Y-90158854D01*
X120821428Y-90216215D01*
X120828409Y-90217146D01*
X120828411Y-90217147D01*
X120977561Y-90237048D01*
X120977565Y-90237048D01*
X120984542Y-90237979D01*
X120991553Y-90237341D01*
X120991557Y-90237341D01*
X121141403Y-90223704D01*
X121141404Y-90223704D01*
X121148424Y-90223065D01*
X121256407Y-90187979D01*
X121298230Y-90174390D01*
X121298233Y-90174389D01*
X121304929Y-90172213D01*
X121446279Y-90087951D01*
X121565449Y-89974468D01*
X121569350Y-89968597D01*
X121652614Y-89843275D01*
X121652615Y-89843273D01*
X121656515Y-89837403D01*
X121714951Y-89683568D01*
X121728599Y-89586459D01*
X121737302Y-89524534D01*
X121737303Y-89524527D01*
X121737853Y-89520610D01*
X121738141Y-89500000D01*
X121719798Y-89336466D01*
X121670686Y-89195435D01*
X121667173Y-89124527D01*
X121702555Y-89062975D01*
X121765597Y-89030323D01*
X121789678Y-89028000D01*
X127493031Y-89028000D01*
X127561152Y-89048002D01*
X127607645Y-89101658D01*
X127617749Y-89171932D01*
X127611434Y-89197089D01*
X127582556Y-89276432D01*
X127561931Y-89439694D01*
X127577989Y-89603468D01*
X127629932Y-89759615D01*
X127633581Y-89765640D01*
X127709123Y-89890373D01*
X127715179Y-89900373D01*
X127829491Y-90018747D01*
X127967189Y-90108854D01*
X128121428Y-90166215D01*
X128128409Y-90167146D01*
X128128411Y-90167147D01*
X128277561Y-90187048D01*
X128277565Y-90187048D01*
X128284542Y-90187979D01*
X128291553Y-90187341D01*
X128291557Y-90187341D01*
X128441403Y-90173704D01*
X128441404Y-90173704D01*
X128448424Y-90173065D01*
X128485904Y-90160887D01*
X128598230Y-90124390D01*
X128598233Y-90124389D01*
X128604929Y-90122213D01*
X128746279Y-90037951D01*
X128865449Y-89924468D01*
X128884736Y-89895439D01*
X128952614Y-89793275D01*
X128952615Y-89793273D01*
X128956515Y-89787403D01*
X129014951Y-89633568D01*
X129023507Y-89572689D01*
X129037302Y-89474534D01*
X129037303Y-89474527D01*
X129037853Y-89470610D01*
X129038141Y-89450000D01*
X129019798Y-89286466D01*
X128988098Y-89195435D01*
X128984584Y-89124528D01*
X129019965Y-89062976D01*
X129083007Y-89030323D01*
X129107089Y-89028000D01*
X131152177Y-89028000D01*
X131220298Y-89048002D01*
X131266791Y-89101658D01*
X131278168Y-89152560D01*
X131365058Y-96764062D01*
X131345835Y-96832406D01*
X131292713Y-96879509D01*
X131239066Y-96891500D01*
X131004239Y-96891500D01*
X130936118Y-96871498D01*
X130915144Y-96854595D01*
X129710195Y-95649646D01*
X129676169Y-95587334D01*
X129674075Y-95574596D01*
X129670583Y-95543465D01*
X129669798Y-95536466D01*
X129663998Y-95519809D01*
X129645709Y-95467292D01*
X129615680Y-95381060D01*
X129528476Y-95241505D01*
X129453710Y-95166215D01*
X129417486Y-95129737D01*
X129417482Y-95129734D01*
X129412522Y-95124739D01*
X129273580Y-95036563D01*
X129223547Y-95018747D01*
X129125189Y-94983723D01*
X129125187Y-94983722D01*
X129118555Y-94981361D01*
X129111567Y-94980528D01*
X129111564Y-94980527D01*
X129019050Y-94969496D01*
X128997571Y-94966935D01*
X128932297Y-94939008D01*
X128892484Y-94880225D01*
X128890772Y-94809249D01*
X128927704Y-94748614D01*
X128953336Y-94730569D01*
X129035355Y-94686959D01*
X129040796Y-94684066D01*
X129127062Y-94613709D01*
X129189287Y-94562960D01*
X129189290Y-94562957D01*
X129194062Y-94559065D01*
X129206344Y-94544219D01*
X129316201Y-94411425D01*
X129316203Y-94411421D01*
X129320130Y-94406675D01*
X129414198Y-94232701D01*
X129472682Y-94043768D01*
X129477654Y-93996459D01*
X129492711Y-93853204D01*
X129492711Y-93853202D01*
X129493355Y-93847075D01*
X129483420Y-93737909D01*
X129475989Y-93656251D01*
X129475988Y-93656248D01*
X129475430Y-93650112D01*
X129473529Y-93643650D01*
X129440392Y-93531060D01*
X129419590Y-93460381D01*
X129409919Y-93441881D01*
X129357210Y-93341060D01*
X129327960Y-93285110D01*
X129204032Y-93130975D01*
X129197727Y-93125684D01*
X129148930Y-93084739D01*
X129052526Y-93003846D01*
X129047128Y-93000879D01*
X129047123Y-93000875D01*
X128884608Y-92911533D01*
X128884609Y-92911533D01*
X128879213Y-92908567D01*
X128873346Y-92906706D01*
X128873344Y-92906705D01*
X128696564Y-92850627D01*
X128696563Y-92850627D01*
X128690694Y-92848765D01*
X128536773Y-92831500D01*
X128430231Y-92831500D01*
X128427175Y-92831800D01*
X128427168Y-92831800D01*
X128368660Y-92837537D01*
X128283167Y-92845920D01*
X128277266Y-92847702D01*
X128277264Y-92847702D01*
X128215072Y-92866479D01*
X128093831Y-92903084D01*
X127919204Y-92995934D01*
X127853878Y-93049213D01*
X127770713Y-93117040D01*
X127770710Y-93117043D01*
X127765938Y-93120935D01*
X127762011Y-93125682D01*
X127762009Y-93125684D01*
X127643799Y-93268575D01*
X127643797Y-93268579D01*
X127639870Y-93273325D01*
X127545802Y-93447299D01*
X127487318Y-93636232D01*
X127486674Y-93642357D01*
X127486674Y-93642358D01*
X127475634Y-93747403D01*
X127466645Y-93832925D01*
X127468491Y-93853204D01*
X127482166Y-94003468D01*
X127484570Y-94029888D01*
X127540410Y-94219619D01*
X127543263Y-94225077D01*
X127543265Y-94225081D01*
X127575357Y-94286466D01*
X127632040Y-94394890D01*
X127755968Y-94549025D01*
X127760692Y-94552989D01*
X127767933Y-94559065D01*
X127907474Y-94676154D01*
X127912872Y-94679121D01*
X127912877Y-94679125D01*
X128032358Y-94744809D01*
X128080787Y-94771433D01*
X128086654Y-94773294D01*
X128086656Y-94773295D01*
X128263436Y-94829373D01*
X128269306Y-94831235D01*
X128423227Y-94848500D01*
X128488894Y-94848500D01*
X128557015Y-94868502D01*
X128603508Y-94922158D01*
X128613612Y-94992432D01*
X128584118Y-95057012D01*
X128554917Y-95081818D01*
X128495555Y-95118337D01*
X128377982Y-95233473D01*
X128288838Y-95371797D01*
X128286427Y-95378420D01*
X128286426Y-95378423D01*
X128234966Y-95519809D01*
X128234965Y-95519814D01*
X128232556Y-95526432D01*
X128211931Y-95689694D01*
X128212248Y-95692922D01*
X128191740Y-95759318D01*
X128137440Y-95805057D01*
X128067032Y-95814178D01*
X128002870Y-95783786D01*
X127997609Y-95778818D01*
X127079515Y-94860724D01*
X127045489Y-94798412D01*
X127050554Y-94727597D01*
X127063662Y-94701902D01*
X127102614Y-94643275D01*
X127102615Y-94643273D01*
X127106515Y-94637403D01*
X127164951Y-94483568D01*
X127175090Y-94411425D01*
X127187302Y-94324534D01*
X127187303Y-94324527D01*
X127187853Y-94320610D01*
X127188141Y-94300000D01*
X127169798Y-94136466D01*
X127115680Y-93981060D01*
X127028476Y-93841505D01*
X126970499Y-93783122D01*
X126917486Y-93729737D01*
X126917482Y-93729734D01*
X126912522Y-93724739D01*
X126773580Y-93636563D01*
X126724447Y-93619068D01*
X126625189Y-93583723D01*
X126625187Y-93583722D01*
X126618555Y-93581361D01*
X126611569Y-93580528D01*
X126611565Y-93580527D01*
X126497071Y-93566875D01*
X126455153Y-93561877D01*
X126448150Y-93562613D01*
X126448149Y-93562613D01*
X126404935Y-93567155D01*
X126291495Y-93579078D01*
X126284827Y-93581348D01*
X126142382Y-93629840D01*
X126142379Y-93629841D01*
X126135715Y-93632110D01*
X126121318Y-93640967D01*
X126116957Y-93643650D01*
X126048455Y-93662307D01*
X125980742Y-93640967D01*
X125935314Y-93586407D01*
X125931954Y-93577793D01*
X125915680Y-93531060D01*
X125828476Y-93391505D01*
X125769183Y-93331797D01*
X125717486Y-93279737D01*
X125717482Y-93279734D01*
X125712522Y-93274739D01*
X125573580Y-93186563D01*
X125425930Y-93133987D01*
X125425189Y-93133723D01*
X125425187Y-93133722D01*
X125418555Y-93131361D01*
X125411569Y-93130528D01*
X125411565Y-93130527D01*
X125297071Y-93116875D01*
X125255153Y-93111877D01*
X125248150Y-93112613D01*
X125248149Y-93112613D01*
X125206030Y-93117040D01*
X125091495Y-93129078D01*
X125084827Y-93131348D01*
X124942382Y-93179840D01*
X124942379Y-93179841D01*
X124935715Y-93182110D01*
X124795555Y-93268337D01*
X124677982Y-93383473D01*
X124588838Y-93521797D01*
X124586427Y-93528420D01*
X124586426Y-93528423D01*
X124534966Y-93669809D01*
X124534965Y-93669814D01*
X124532556Y-93676432D01*
X124511931Y-93839694D01*
X124527989Y-94003468D01*
X124579932Y-94159615D01*
X124583581Y-94165640D01*
X124656757Y-94286466D01*
X124665179Y-94300373D01*
X124670070Y-94305438D01*
X124670071Y-94305439D01*
X124688511Y-94324534D01*
X124779491Y-94418747D01*
X124917189Y-94508854D01*
X124923793Y-94511310D01*
X125033708Y-94552187D01*
X125078883Y-94581190D01*
X127770300Y-97272607D01*
X127800763Y-97321930D01*
X127829932Y-97409615D01*
X127833581Y-97415640D01*
X127901973Y-97528567D01*
X127915179Y-97550373D01*
X128029491Y-97668747D01*
X128062015Y-97690030D01*
X128108062Y-97744065D01*
X128117586Y-97814420D01*
X128087562Y-97878755D01*
X128027522Y-97916646D01*
X127978103Y-97920575D01*
X127912147Y-97912711D01*
X127905153Y-97911877D01*
X127898150Y-97912613D01*
X127898149Y-97912613D01*
X127873394Y-97915215D01*
X127803555Y-97902443D01*
X127770817Y-97878689D01*
X127662612Y-97769726D01*
X127662608Y-97769723D01*
X127657648Y-97764728D01*
X127518706Y-97676552D01*
X127370691Y-97623846D01*
X127370315Y-97623712D01*
X127370313Y-97623711D01*
X127363681Y-97621350D01*
X127356695Y-97620517D01*
X127356691Y-97620516D01*
X127242197Y-97606864D01*
X127200279Y-97601866D01*
X127193276Y-97602602D01*
X127193275Y-97602602D01*
X127150061Y-97607144D01*
X127036621Y-97619067D01*
X127029953Y-97621337D01*
X126887508Y-97669829D01*
X126887505Y-97669830D01*
X126880841Y-97672099D01*
X126874846Y-97675787D01*
X126874842Y-97675789D01*
X126811934Y-97714491D01*
X126743433Y-97733149D01*
X126675719Y-97711810D01*
X126656817Y-97696268D01*
X121445405Y-92484856D01*
X121411379Y-92422544D01*
X121408500Y-92395761D01*
X121408500Y-91941361D01*
X121429552Y-91871633D01*
X121448393Y-91843275D01*
X121456515Y-91831051D01*
X121467198Y-91802929D01*
X121494099Y-91732110D01*
X121514951Y-91677216D01*
X121529382Y-91574534D01*
X121537302Y-91518182D01*
X121537303Y-91518175D01*
X121537853Y-91514258D01*
X121538141Y-91493648D01*
X121535454Y-91469694D01*
X122121931Y-91469694D01*
X122137989Y-91633468D01*
X122189932Y-91789615D01*
X122275179Y-91930373D01*
X122389491Y-92048747D01*
X122527189Y-92138854D01*
X122681428Y-92196215D01*
X122688409Y-92197146D01*
X122688411Y-92197147D01*
X122837561Y-92217048D01*
X122837565Y-92217048D01*
X122844542Y-92217979D01*
X122851553Y-92217341D01*
X122851557Y-92217341D01*
X123001403Y-92203704D01*
X123001404Y-92203704D01*
X123008424Y-92203065D01*
X123037062Y-92193760D01*
X123158230Y-92154390D01*
X123158233Y-92154389D01*
X123164929Y-92152213D01*
X123306279Y-92067951D01*
X123425449Y-91954468D01*
X123429350Y-91948597D01*
X123512614Y-91823275D01*
X123512615Y-91823273D01*
X123516515Y-91817403D01*
X123574951Y-91663568D01*
X123588572Y-91566649D01*
X123592360Y-91539694D01*
X124161931Y-91539694D01*
X124177989Y-91703468D01*
X124229932Y-91859615D01*
X124239148Y-91874832D01*
X124295935Y-91968597D01*
X124315179Y-92000373D01*
X124429491Y-92118747D01*
X124567189Y-92208854D01*
X124721428Y-92266215D01*
X124728409Y-92267146D01*
X124728411Y-92267147D01*
X124877561Y-92287048D01*
X124877565Y-92287048D01*
X124884542Y-92287979D01*
X124891553Y-92287341D01*
X124891557Y-92287341D01*
X125041403Y-92273704D01*
X125041404Y-92273704D01*
X125048424Y-92273065D01*
X125156407Y-92237979D01*
X125198230Y-92224390D01*
X125198233Y-92224389D01*
X125204929Y-92222213D01*
X125346279Y-92137951D01*
X125465449Y-92024468D01*
X125474335Y-92011094D01*
X125552614Y-91893275D01*
X125552615Y-91893273D01*
X125556515Y-91887403D01*
X125614951Y-91733568D01*
X125627593Y-91643612D01*
X125637302Y-91574534D01*
X125637303Y-91574527D01*
X125637853Y-91570610D01*
X125638141Y-91550000D01*
X125631377Y-91489694D01*
X128136931Y-91489694D01*
X128152989Y-91653468D01*
X128204932Y-91809615D01*
X128208581Y-91815640D01*
X128284819Y-91941522D01*
X128290179Y-91950373D01*
X128404491Y-92068747D01*
X128542189Y-92158854D01*
X128696428Y-92216215D01*
X128703409Y-92217146D01*
X128703411Y-92217147D01*
X128852561Y-92237048D01*
X128852565Y-92237048D01*
X128859542Y-92237979D01*
X128866553Y-92237341D01*
X128866557Y-92237341D01*
X129016403Y-92223704D01*
X129016404Y-92223704D01*
X129023424Y-92223065D01*
X129067161Y-92208854D01*
X129173230Y-92174390D01*
X129173233Y-92174389D01*
X129179929Y-92172213D01*
X129321279Y-92087951D01*
X129440449Y-91974468D01*
X129457638Y-91948597D01*
X129527614Y-91843275D01*
X129527615Y-91843273D01*
X129531515Y-91837403D01*
X129589951Y-91683568D01*
X129608723Y-91550000D01*
X129612302Y-91524534D01*
X129612303Y-91524527D01*
X129612853Y-91520610D01*
X129613141Y-91500000D01*
X129594798Y-91336466D01*
X129588998Y-91319809D01*
X129558092Y-91231060D01*
X129540680Y-91181060D01*
X129532343Y-91167717D01*
X129457209Y-91047479D01*
X129453476Y-91041505D01*
X129380817Y-90968337D01*
X129342486Y-90929737D01*
X129342482Y-90929734D01*
X129337522Y-90924739D01*
X129198580Y-90836563D01*
X129135772Y-90814198D01*
X129050189Y-90783723D01*
X129050187Y-90783722D01*
X129043555Y-90781361D01*
X129036569Y-90780528D01*
X129036565Y-90780527D01*
X128922071Y-90766875D01*
X128880153Y-90761877D01*
X128873150Y-90762613D01*
X128873149Y-90762613D01*
X128829935Y-90767155D01*
X128716495Y-90779078D01*
X128709827Y-90781348D01*
X128567382Y-90829840D01*
X128567379Y-90829841D01*
X128560715Y-90832110D01*
X128521252Y-90856388D01*
X128445053Y-90903266D01*
X128420555Y-90918337D01*
X128408914Y-90929737D01*
X128314500Y-91022194D01*
X128302982Y-91033473D01*
X128213838Y-91171797D01*
X128211427Y-91178420D01*
X128211426Y-91178423D01*
X128159966Y-91319809D01*
X128159965Y-91319814D01*
X128157556Y-91326432D01*
X128136931Y-91489694D01*
X125631377Y-91489694D01*
X125619798Y-91386466D01*
X125613998Y-91369809D01*
X125567998Y-91237717D01*
X125565680Y-91231060D01*
X125534437Y-91181060D01*
X125482209Y-91097479D01*
X125478476Y-91091505D01*
X125408918Y-91021460D01*
X125367486Y-90979737D01*
X125367482Y-90979734D01*
X125362522Y-90974739D01*
X125223580Y-90886563D01*
X125138839Y-90856388D01*
X125075189Y-90833723D01*
X125075187Y-90833722D01*
X125068555Y-90831361D01*
X125061569Y-90830528D01*
X125061565Y-90830527D01*
X124944452Y-90816563D01*
X124905153Y-90811877D01*
X124898150Y-90812613D01*
X124898149Y-90812613D01*
X124867818Y-90815801D01*
X124741495Y-90829078D01*
X124734827Y-90831348D01*
X124592382Y-90879840D01*
X124592379Y-90879841D01*
X124585715Y-90882110D01*
X124445555Y-90968337D01*
X124327982Y-91083473D01*
X124238838Y-91221797D01*
X124236427Y-91228420D01*
X124236426Y-91228423D01*
X124184966Y-91369809D01*
X124184965Y-91369814D01*
X124182556Y-91376432D01*
X124161931Y-91539694D01*
X123592360Y-91539694D01*
X123597302Y-91504534D01*
X123597303Y-91504527D01*
X123597853Y-91500610D01*
X123598141Y-91480000D01*
X123579798Y-91316466D01*
X123573998Y-91299809D01*
X123550897Y-91233473D01*
X123525680Y-91161060D01*
X123438476Y-91021505D01*
X123380499Y-90963122D01*
X123327486Y-90909737D01*
X123327482Y-90909734D01*
X123322522Y-90904739D01*
X123183580Y-90816563D01*
X123091355Y-90783723D01*
X123035189Y-90763723D01*
X123035187Y-90763722D01*
X123028555Y-90761361D01*
X123021569Y-90760528D01*
X123021565Y-90760527D01*
X122907071Y-90746875D01*
X122865153Y-90741877D01*
X122858150Y-90742613D01*
X122858149Y-90742613D01*
X122814935Y-90747155D01*
X122701495Y-90759078D01*
X122694827Y-90761348D01*
X122552382Y-90809840D01*
X122552379Y-90809841D01*
X122545715Y-90812110D01*
X122499828Y-90840340D01*
X122428538Y-90884198D01*
X122405555Y-90898337D01*
X122361622Y-90941359D01*
X122337844Y-90964645D01*
X122287982Y-91013473D01*
X122198838Y-91151797D01*
X122196427Y-91158420D01*
X122196426Y-91158423D01*
X122144966Y-91299809D01*
X122144965Y-91299814D01*
X122142556Y-91306432D01*
X122121931Y-91469694D01*
X121535454Y-91469694D01*
X121519798Y-91330114D01*
X121516210Y-91319809D01*
X121485304Y-91231060D01*
X121465680Y-91174708D01*
X121378476Y-91035153D01*
X121308458Y-90964645D01*
X121267486Y-90923385D01*
X121267482Y-90923382D01*
X121262522Y-90918387D01*
X121123580Y-90830211D01*
X120993027Y-90783723D01*
X120975189Y-90777371D01*
X120975187Y-90777370D01*
X120968555Y-90775009D01*
X120961569Y-90774176D01*
X120961565Y-90774175D01*
X120834950Y-90759078D01*
X120805153Y-90755525D01*
X120798150Y-90756261D01*
X120798149Y-90756261D01*
X120771348Y-90759078D01*
X120641495Y-90772726D01*
X120634827Y-90774996D01*
X120492382Y-90823488D01*
X120492379Y-90823489D01*
X120485715Y-90825758D01*
X120435927Y-90856388D01*
X120359728Y-90903266D01*
X120345555Y-90911985D01*
X120315559Y-90941359D01*
X120235871Y-91019396D01*
X120227982Y-91027121D01*
X120138838Y-91165445D01*
X120136427Y-91172068D01*
X120136426Y-91172071D01*
X120084966Y-91313457D01*
X120084965Y-91313462D01*
X120082556Y-91320080D01*
X120061931Y-91483342D01*
X120077989Y-91647116D01*
X120129932Y-91803263D01*
X120137428Y-91815640D01*
X120173276Y-91874832D01*
X120191500Y-91940104D01*
X120191500Y-92651864D01*
X120190422Y-92668307D01*
X120186250Y-92700000D01*
X120191500Y-92739880D01*
X120191500Y-92739885D01*
X120200557Y-92808673D01*
X120201217Y-92813689D01*
X120201217Y-92813691D01*
X120205381Y-92845319D01*
X120207162Y-92858851D01*
X120268476Y-93006876D01*
X120273503Y-93013427D01*
X120273504Y-93013429D01*
X120341520Y-93102069D01*
X120341526Y-93102075D01*
X120366013Y-93133987D01*
X120372568Y-93139017D01*
X120391379Y-93153452D01*
X120403770Y-93164319D01*
X127220363Y-99980912D01*
X127250826Y-100030235D01*
X127300810Y-100180493D01*
X127304458Y-100186517D01*
X127304462Y-100186525D01*
X127384720Y-100319044D01*
X127402900Y-100387673D01*
X127381090Y-100455237D01*
X127366040Y-100473411D01*
X126484856Y-101354595D01*
X126422544Y-101388621D01*
X126395761Y-101391500D01*
X121946753Y-101391500D01*
X121879238Y-101371885D01*
X121874293Y-101368747D01*
X121823580Y-101336563D01*
X121686155Y-101287628D01*
X121675189Y-101283723D01*
X121675187Y-101283722D01*
X121668555Y-101281361D01*
X121661569Y-101280528D01*
X121661565Y-101280527D01*
X121547071Y-101266875D01*
X121505153Y-101261877D01*
X121498150Y-101262613D01*
X121498149Y-101262613D01*
X121454935Y-101267155D01*
X121341495Y-101279078D01*
X121334827Y-101281348D01*
X121192382Y-101329840D01*
X121192379Y-101329841D01*
X121185715Y-101332110D01*
X121098442Y-101385801D01*
X121057805Y-101410801D01*
X121045555Y-101418337D01*
X120999253Y-101463679D01*
X120944654Y-101517147D01*
X120927982Y-101533473D01*
X120838838Y-101671797D01*
X120836427Y-101678420D01*
X120836426Y-101678423D01*
X120784966Y-101819809D01*
X120784965Y-101819814D01*
X120782556Y-101826432D01*
X120761931Y-101989694D01*
X120777989Y-102153468D01*
X120829932Y-102309615D01*
X120833581Y-102315640D01*
X120895740Y-102418275D01*
X120915179Y-102450373D01*
X121029491Y-102568747D01*
X121167189Y-102658854D01*
X121321428Y-102716215D01*
X121328409Y-102717146D01*
X121328411Y-102717147D01*
X121477561Y-102737048D01*
X121477565Y-102737048D01*
X121484542Y-102737979D01*
X121491553Y-102737341D01*
X121491557Y-102737341D01*
X121641403Y-102723704D01*
X121641404Y-102723704D01*
X121648424Y-102723065D01*
X121677062Y-102713760D01*
X121798230Y-102674390D01*
X121798233Y-102674389D01*
X121804929Y-102672213D01*
X121881997Y-102626271D01*
X121946515Y-102608500D01*
X126651864Y-102608500D01*
X126668307Y-102609578D01*
X126700000Y-102613750D01*
X126708189Y-102612672D01*
X126739874Y-102608501D01*
X126739884Y-102608500D01*
X126739885Y-102608500D01*
X126839457Y-102595391D01*
X126850664Y-102593916D01*
X126850666Y-102593915D01*
X126858851Y-102592838D01*
X127006876Y-102531524D01*
X127014893Y-102525373D01*
X127102072Y-102458477D01*
X127102075Y-102458474D01*
X127112632Y-102450373D01*
X127133987Y-102433987D01*
X127139017Y-102427432D01*
X127153452Y-102408621D01*
X127164319Y-102396230D01*
X128286507Y-101274042D01*
X128348819Y-101240016D01*
X128419634Y-101245081D01*
X128476470Y-101287628D01*
X128483377Y-101297864D01*
X128511529Y-101344347D01*
X128515179Y-101350373D01*
X128520070Y-101355438D01*
X128520071Y-101355439D01*
X128577917Y-101415340D01*
X128629491Y-101468747D01*
X128767189Y-101558854D01*
X128921428Y-101616215D01*
X128928409Y-101617146D01*
X128928411Y-101617147D01*
X129077561Y-101637048D01*
X129077565Y-101637048D01*
X129084542Y-101637979D01*
X129091553Y-101637341D01*
X129091557Y-101637341D01*
X129241403Y-101623704D01*
X129241404Y-101623704D01*
X129248424Y-101623065D01*
X129293333Y-101608473D01*
X129398230Y-101574390D01*
X129398233Y-101574389D01*
X129404929Y-101572213D01*
X129481997Y-101526271D01*
X129546515Y-101508500D01*
X132317171Y-101508500D01*
X132385292Y-101528502D01*
X132431785Y-101582158D01*
X132442570Y-101622205D01*
X132452989Y-101728468D01*
X132504932Y-101884615D01*
X132590179Y-102025373D01*
X132595070Y-102030438D01*
X132595071Y-102030439D01*
X132607778Y-102043597D01*
X132704491Y-102143747D01*
X132842189Y-102233854D01*
X132996428Y-102291215D01*
X133003409Y-102292146D01*
X133003411Y-102292147D01*
X133152561Y-102312048D01*
X133152565Y-102312048D01*
X133159542Y-102312979D01*
X133166553Y-102312341D01*
X133166557Y-102312341D01*
X133316403Y-102298704D01*
X133316404Y-102298704D01*
X133323424Y-102298065D01*
X133424713Y-102265154D01*
X133473230Y-102249390D01*
X133473233Y-102249389D01*
X133479929Y-102247213D01*
X133621279Y-102162951D01*
X133740449Y-102049468D01*
X133756458Y-102025373D01*
X133827614Y-101918275D01*
X133827615Y-101918273D01*
X133831515Y-101912403D01*
X133889951Y-101758568D01*
X133905600Y-101647216D01*
X133909852Y-101616964D01*
X133939140Y-101552290D01*
X133998744Y-101513717D01*
X134034626Y-101508500D01*
X134395761Y-101508500D01*
X134463882Y-101528502D01*
X134484856Y-101545405D01*
X135836091Y-102896640D01*
X135870117Y-102958952D01*
X135865052Y-103029767D01*
X135822505Y-103086603D01*
X135755985Y-103111414D01*
X135732078Y-103110849D01*
X135707153Y-103107877D01*
X135700150Y-103108613D01*
X135700149Y-103108613D01*
X135673500Y-103111414D01*
X135543495Y-103125078D01*
X135536827Y-103127348D01*
X135394382Y-103175840D01*
X135394379Y-103175841D01*
X135387715Y-103178110D01*
X135247555Y-103264337D01*
X135129982Y-103379473D01*
X135040838Y-103517797D01*
X135038427Y-103524420D01*
X135038426Y-103524423D01*
X134986966Y-103665809D01*
X134986965Y-103665814D01*
X134984556Y-103672432D01*
X134963931Y-103835694D01*
X134979989Y-103999468D01*
X135031932Y-104155615D01*
X135035581Y-104161640D01*
X135103913Y-104274468D01*
X135117179Y-104296373D01*
X135231491Y-104414747D01*
X135369189Y-104504854D01*
X135523428Y-104562215D01*
X135530409Y-104563146D01*
X135530411Y-104563147D01*
X135679561Y-104583048D01*
X135679565Y-104583048D01*
X135686542Y-104583979D01*
X135693553Y-104583341D01*
X135693557Y-104583341D01*
X135843403Y-104569704D01*
X135843404Y-104569704D01*
X135850424Y-104569065D01*
X135879062Y-104559760D01*
X136000230Y-104520390D01*
X136000233Y-104520389D01*
X136006929Y-104518213D01*
X136148279Y-104433951D01*
X136267449Y-104320468D01*
X136283458Y-104296373D01*
X136354614Y-104189275D01*
X136354615Y-104189273D01*
X136358515Y-104183403D01*
X136416951Y-104029568D01*
X136427646Y-103953468D01*
X136439302Y-103870534D01*
X136439303Y-103870527D01*
X136439853Y-103866610D01*
X136440141Y-103846000D01*
X136436621Y-103814620D01*
X136448905Y-103744695D01*
X136497043Y-103692511D01*
X136565753Y-103674636D01*
X136633219Y-103696746D01*
X136650931Y-103711480D01*
X136849485Y-103910034D01*
X136879948Y-103959357D01*
X136929932Y-104109615D01*
X136933581Y-104115640D01*
X137008331Y-104239065D01*
X137015179Y-104250373D01*
X137020070Y-104255438D01*
X137020071Y-104255439D01*
X137064493Y-104301439D01*
X137129491Y-104368747D01*
X137267189Y-104458854D01*
X137421428Y-104516215D01*
X137428409Y-104517146D01*
X137428411Y-104517147D01*
X137577561Y-104537048D01*
X137577565Y-104537048D01*
X137584542Y-104537979D01*
X137591553Y-104537341D01*
X137591557Y-104537341D01*
X137741403Y-104523704D01*
X137741404Y-104523704D01*
X137748424Y-104523065D01*
X137777062Y-104513760D01*
X137898230Y-104474390D01*
X137898233Y-104474389D01*
X137904929Y-104472213D01*
X138046279Y-104387951D01*
X138165449Y-104274468D01*
X138183649Y-104247075D01*
X138252614Y-104143275D01*
X138252615Y-104143273D01*
X138256515Y-104137403D01*
X138314951Y-103983568D01*
X138332264Y-103860381D01*
X138337302Y-103824534D01*
X138337303Y-103824527D01*
X138337853Y-103820610D01*
X138338141Y-103800000D01*
X138319798Y-103636466D01*
X138265680Y-103481060D01*
X138178476Y-103341505D01*
X138111207Y-103273765D01*
X138067486Y-103229737D01*
X138067482Y-103229734D01*
X138062522Y-103224739D01*
X137923580Y-103136563D01*
X137768555Y-103081361D01*
X137767582Y-103081245D01*
X137709419Y-103048870D01*
X137631684Y-102971135D01*
X137597658Y-102908823D01*
X137602723Y-102838008D01*
X137645270Y-102781172D01*
X137681842Y-102762207D01*
X137798232Y-102724389D01*
X137804929Y-102722213D01*
X137946279Y-102637951D01*
X138065449Y-102524468D01*
X138069350Y-102518597D01*
X138152614Y-102393275D01*
X138152615Y-102393273D01*
X138156515Y-102387403D01*
X138214951Y-102233568D01*
X138224369Y-102166555D01*
X138237302Y-102074534D01*
X138237303Y-102074527D01*
X138237853Y-102070610D01*
X138237936Y-102064694D01*
X144086931Y-102064694D01*
X144102989Y-102228468D01*
X144154932Y-102384615D01*
X144240179Y-102525373D01*
X144245070Y-102530438D01*
X144245071Y-102530439D01*
X144282065Y-102568747D01*
X144354491Y-102643747D01*
X144492189Y-102733854D01*
X144646428Y-102791215D01*
X144653409Y-102792146D01*
X144653411Y-102792147D01*
X144802561Y-102812048D01*
X144802565Y-102812048D01*
X144809542Y-102812979D01*
X144816553Y-102812341D01*
X144816557Y-102812341D01*
X144966403Y-102798704D01*
X144966404Y-102798704D01*
X144973424Y-102798065D01*
X145025415Y-102781172D01*
X145123230Y-102749390D01*
X145123233Y-102749389D01*
X145129929Y-102747213D01*
X145271279Y-102662951D01*
X145390449Y-102549468D01*
X145394350Y-102543597D01*
X145477614Y-102418275D01*
X145477615Y-102418273D01*
X145481515Y-102412403D01*
X145494939Y-102377064D01*
X147317707Y-102377064D01*
X147346825Y-102569599D01*
X147349028Y-102575585D01*
X147349029Y-102575591D01*
X147411860Y-102746360D01*
X147411862Y-102746365D01*
X147414063Y-102752346D01*
X147516674Y-102917840D01*
X147650466Y-103059322D01*
X147655696Y-103062984D01*
X147655697Y-103062985D01*
X147744376Y-103125078D01*
X147809975Y-103171011D01*
X147815838Y-103173548D01*
X147982825Y-103245810D01*
X147982829Y-103245811D01*
X147988684Y-103248345D01*
X147994931Y-103249650D01*
X147994934Y-103249651D01*
X148174557Y-103287176D01*
X148174562Y-103287177D01*
X148179293Y-103288165D01*
X148185685Y-103288500D01*
X148328663Y-103288500D01*
X148397951Y-103281462D01*
X148467378Y-103274410D01*
X148467379Y-103274410D01*
X148473727Y-103273765D01*
X148556895Y-103247702D01*
X148653451Y-103217444D01*
X148653456Y-103217442D01*
X148659541Y-103215535D01*
X148795195Y-103140340D01*
X148824271Y-103124223D01*
X148824274Y-103124221D01*
X148829850Y-103121130D01*
X148834691Y-103116981D01*
X148834695Y-103116978D01*
X148972855Y-102998560D01*
X148977698Y-102994409D01*
X149005202Y-102958952D01*
X149093131Y-102845594D01*
X149097046Y-102840547D01*
X149110612Y-102812979D01*
X149180200Y-102671556D01*
X149183018Y-102665829D01*
X149184835Y-102658854D01*
X149230492Y-102483575D01*
X149230492Y-102483572D01*
X149232102Y-102477393D01*
X149240752Y-102312341D01*
X149241959Y-102289317D01*
X149241959Y-102289313D01*
X149242293Y-102282936D01*
X149213175Y-102090401D01*
X149210972Y-102084415D01*
X149210971Y-102084409D01*
X149148140Y-101913640D01*
X149148138Y-101913635D01*
X149145937Y-101907654D01*
X149056072Y-101762717D01*
X149046688Y-101747582D01*
X149046687Y-101747581D01*
X149043326Y-101742160D01*
X148976788Y-101671797D01*
X148913919Y-101605315D01*
X148909534Y-101600678D01*
X148858144Y-101564694D01*
X148777890Y-101508500D01*
X148750025Y-101488989D01*
X148671467Y-101454994D01*
X148577175Y-101414190D01*
X148577171Y-101414189D01*
X148571316Y-101411655D01*
X148565069Y-101410350D01*
X148565066Y-101410349D01*
X148385443Y-101372824D01*
X148385438Y-101372823D01*
X148380707Y-101371835D01*
X148374315Y-101371500D01*
X148231337Y-101371500D01*
X148162049Y-101378538D01*
X148092622Y-101385590D01*
X148092621Y-101385590D01*
X148086273Y-101386235D01*
X148069297Y-101391555D01*
X147906549Y-101442556D01*
X147906544Y-101442558D01*
X147900459Y-101444465D01*
X147824713Y-101486452D01*
X147735729Y-101535777D01*
X147735726Y-101535779D01*
X147730150Y-101538870D01*
X147725309Y-101543019D01*
X147725305Y-101543022D01*
X147631918Y-101623065D01*
X147582302Y-101665591D01*
X147462954Y-101819453D01*
X147460138Y-101825176D01*
X147460136Y-101825179D01*
X147404330Y-101938593D01*
X147376982Y-101994171D01*
X147375373Y-102000349D01*
X147375372Y-102000351D01*
X147334283Y-102158096D01*
X147327898Y-102182607D01*
X147327564Y-102188986D01*
X147321066Y-102312979D01*
X147317707Y-102377064D01*
X145494939Y-102377064D01*
X145539951Y-102258568D01*
X145551495Y-102176425D01*
X145562302Y-102099534D01*
X145562303Y-102099527D01*
X145562853Y-102095610D01*
X145563141Y-102075000D01*
X145544798Y-101911466D01*
X145541583Y-101902232D01*
X145492998Y-101762717D01*
X145490680Y-101756060D01*
X145485383Y-101747582D01*
X145407209Y-101622479D01*
X145403476Y-101616505D01*
X145339708Y-101552290D01*
X145292486Y-101504737D01*
X145292482Y-101504734D01*
X145287522Y-101499739D01*
X145148580Y-101411563D01*
X145088979Y-101390340D01*
X145000189Y-101358723D01*
X145000187Y-101358722D01*
X144993555Y-101356361D01*
X144986569Y-101355528D01*
X144986565Y-101355527D01*
X144859195Y-101340340D01*
X144830153Y-101336877D01*
X144823150Y-101337613D01*
X144823149Y-101337613D01*
X144797204Y-101340340D01*
X144666495Y-101354078D01*
X144659827Y-101356348D01*
X144517382Y-101404840D01*
X144517379Y-101404841D01*
X144510715Y-101407110D01*
X144444968Y-101447558D01*
X144377623Y-101488989D01*
X144370555Y-101493337D01*
X144327217Y-101535777D01*
X144264209Y-101597479D01*
X144252982Y-101608473D01*
X144163838Y-101746797D01*
X144161427Y-101753420D01*
X144161426Y-101753423D01*
X144109966Y-101894809D01*
X144109965Y-101894814D01*
X144107556Y-101901432D01*
X144086931Y-102064694D01*
X138237936Y-102064694D01*
X138237995Y-102060430D01*
X138238086Y-102053962D01*
X138238086Y-102053956D01*
X138238141Y-102050000D01*
X138219798Y-101886466D01*
X138165680Y-101731060D01*
X138127922Y-101670634D01*
X138082209Y-101597479D01*
X138078476Y-101591505D01*
X138013696Y-101526271D01*
X137967486Y-101479737D01*
X137967482Y-101479734D01*
X137962522Y-101474739D01*
X137823580Y-101386563D01*
X137759314Y-101363679D01*
X137675189Y-101333723D01*
X137675187Y-101333722D01*
X137668555Y-101331361D01*
X137661569Y-101330528D01*
X137661565Y-101330527D01*
X137547071Y-101316875D01*
X137505153Y-101311877D01*
X137498150Y-101312613D01*
X137498149Y-101312613D01*
X137454935Y-101317155D01*
X137341495Y-101329078D01*
X137334827Y-101331348D01*
X137192382Y-101379840D01*
X137192379Y-101379841D01*
X137185715Y-101382110D01*
X137045555Y-101468337D01*
X136999171Y-101513760D01*
X136943163Y-101568607D01*
X136927982Y-101583473D01*
X136838838Y-101721797D01*
X136836427Y-101728420D01*
X136836426Y-101728423D01*
X136784670Y-101870624D01*
X136742576Y-101927796D01*
X136676255Y-101953134D01*
X136606763Y-101938593D01*
X136577174Y-101916625D01*
X135746184Y-101085635D01*
X135712158Y-101023323D01*
X135717223Y-100952508D01*
X135730332Y-100926811D01*
X135752619Y-100893267D01*
X135756515Y-100887403D01*
X135814951Y-100733568D01*
X135837853Y-100570610D01*
X135838141Y-100550000D01*
X135819798Y-100386466D01*
X135818243Y-100382001D01*
X135822596Y-100312060D01*
X135864615Y-100254833D01*
X135930903Y-100229409D01*
X136000414Y-100243858D01*
X136031691Y-100267472D01*
X136083625Y-100321251D01*
X136129491Y-100368747D01*
X136267189Y-100458854D01*
X136421428Y-100516215D01*
X136428409Y-100517146D01*
X136428411Y-100517147D01*
X136577561Y-100537048D01*
X136577565Y-100537048D01*
X136584542Y-100537979D01*
X136591553Y-100537341D01*
X136591557Y-100537341D01*
X136741403Y-100523704D01*
X136741404Y-100523704D01*
X136748424Y-100523065D01*
X136777062Y-100513760D01*
X136898230Y-100474390D01*
X136898233Y-100474389D01*
X136904929Y-100472213D01*
X137046279Y-100387951D01*
X137165449Y-100274468D01*
X137170097Y-100267472D01*
X137252614Y-100143275D01*
X137252615Y-100143273D01*
X137256515Y-100137403D01*
X137297330Y-100029956D01*
X137303068Y-100014851D01*
X137345957Y-99958273D01*
X137412625Y-99933864D01*
X137481907Y-99949374D01*
X137509951Y-99970500D01*
X138449485Y-100910034D01*
X138479948Y-100959357D01*
X138529932Y-101109615D01*
X138533581Y-101115640D01*
X138608907Y-101240016D01*
X138615179Y-101250373D01*
X138620070Y-101255438D01*
X138620071Y-101255439D01*
X138632778Y-101268597D01*
X138729491Y-101368747D01*
X138867189Y-101458854D01*
X139021428Y-101516215D01*
X139028409Y-101517146D01*
X139028411Y-101517147D01*
X139177561Y-101537048D01*
X139177565Y-101537048D01*
X139184542Y-101537979D01*
X139191553Y-101537341D01*
X139191557Y-101537341D01*
X139341403Y-101523704D01*
X139341404Y-101523704D01*
X139348424Y-101523065D01*
X139393250Y-101508500D01*
X139498230Y-101474390D01*
X139498233Y-101474389D01*
X139504929Y-101472213D01*
X139646279Y-101387951D01*
X139765449Y-101274468D01*
X139769350Y-101268597D01*
X139852614Y-101143275D01*
X139852615Y-101143273D01*
X139856515Y-101137403D01*
X139914951Y-100983568D01*
X139937853Y-100820610D01*
X139938141Y-100800000D01*
X139919798Y-100636466D01*
X139865680Y-100481060D01*
X139860901Y-100473411D01*
X139782209Y-100347479D01*
X139778476Y-100341505D01*
X139687978Y-100250373D01*
X139667486Y-100229737D01*
X139667482Y-100229734D01*
X139662522Y-100224739D01*
X139523580Y-100136563D01*
X139368555Y-100081361D01*
X139367582Y-100081245D01*
X139309419Y-100048870D01*
X139290505Y-100029956D01*
X139256479Y-99967644D01*
X139261544Y-99896829D01*
X139304091Y-99839993D01*
X139370611Y-99815182D01*
X139379440Y-99814861D01*
X141274081Y-99812454D01*
X150948841Y-99800160D01*
X151016986Y-99820076D01*
X151063547Y-99873672D01*
X151075000Y-99926160D01*
X151075000Y-110199166D01*
X151054998Y-110267287D01*
X151001342Y-110313780D01*
X150949167Y-110325166D01*
X128608355Y-110354717D01*
X128540208Y-110334805D01*
X128493644Y-110281211D01*
X128483447Y-110210950D01*
X128512854Y-110146331D01*
X128572530Y-110107868D01*
X128594584Y-110103454D01*
X128602459Y-110102599D01*
X128602463Y-110102598D01*
X128610316Y-110101745D01*
X128746705Y-110050615D01*
X128863261Y-109963261D01*
X128950615Y-109846705D01*
X129001745Y-109710316D01*
X129008500Y-109648134D01*
X129008500Y-109588134D01*
X129871500Y-109588134D01*
X129878255Y-109650316D01*
X129929385Y-109786705D01*
X130016739Y-109903261D01*
X130133295Y-109990615D01*
X130269684Y-110041745D01*
X130331866Y-110048500D01*
X132128134Y-110048500D01*
X132190316Y-110041745D01*
X132326705Y-109990615D01*
X132443261Y-109903261D01*
X132530615Y-109786705D01*
X132581745Y-109650316D01*
X132588500Y-109588134D01*
X132588500Y-108626695D01*
X132952251Y-108626695D01*
X132952548Y-108631848D01*
X132952548Y-108631851D01*
X132964812Y-108844547D01*
X132965110Y-108849715D01*
X132966247Y-108854761D01*
X132966248Y-108854767D01*
X132972709Y-108883436D01*
X133014222Y-109067639D01*
X133040874Y-109133275D01*
X133086419Y-109245439D01*
X133098266Y-109274616D01*
X133214987Y-109465088D01*
X133361250Y-109633938D01*
X133533126Y-109776632D01*
X133726000Y-109889338D01*
X133730825Y-109891180D01*
X133730826Y-109891181D01*
X133776552Y-109908642D01*
X133934692Y-109969030D01*
X133939760Y-109970061D01*
X133939763Y-109970062D01*
X134011294Y-109984615D01*
X134153597Y-110013567D01*
X134158772Y-110013757D01*
X134158774Y-110013757D01*
X134371673Y-110021564D01*
X134371677Y-110021564D01*
X134376837Y-110021753D01*
X134381957Y-110021097D01*
X134381959Y-110021097D01*
X134593288Y-109994025D01*
X134593289Y-109994025D01*
X134598416Y-109993368D01*
X134624175Y-109985640D01*
X134807429Y-109930661D01*
X134807434Y-109930659D01*
X134812384Y-109929174D01*
X135012994Y-109830896D01*
X135194860Y-109701173D01*
X135303091Y-109593319D01*
X135365462Y-109559404D01*
X135436268Y-109564592D01*
X135493030Y-109607238D01*
X135510012Y-109638341D01*
X135539768Y-109717715D01*
X135554385Y-109756705D01*
X135641739Y-109873261D01*
X135758295Y-109960615D01*
X135894684Y-110011745D01*
X135956866Y-110018500D01*
X137753134Y-110018500D01*
X137815316Y-110011745D01*
X137951705Y-109960615D01*
X138068261Y-109873261D01*
X138155615Y-109756705D01*
X138206745Y-109620316D01*
X138213500Y-109558134D01*
X138213500Y-108779694D01*
X142096931Y-108779694D01*
X142112989Y-108943468D01*
X142164932Y-109099615D01*
X142250179Y-109240373D01*
X142255070Y-109245438D01*
X142255071Y-109245439D01*
X142297000Y-109288858D01*
X142364491Y-109358747D01*
X142502189Y-109448854D01*
X142656428Y-109506215D01*
X142663409Y-109507146D01*
X142663411Y-109507147D01*
X142812561Y-109527048D01*
X142812565Y-109527048D01*
X142819542Y-109527979D01*
X142826553Y-109527341D01*
X142826557Y-109527341D01*
X142976403Y-109513704D01*
X142976404Y-109513704D01*
X142983424Y-109513065D01*
X143054998Y-109489809D01*
X143133230Y-109464390D01*
X143133233Y-109464389D01*
X143139929Y-109462213D01*
X143281279Y-109377951D01*
X143400449Y-109264468D01*
X143416458Y-109240373D01*
X143487614Y-109133275D01*
X143487615Y-109133273D01*
X143491515Y-109127403D01*
X143549951Y-108973568D01*
X143566647Y-108854767D01*
X143572302Y-108814534D01*
X143572303Y-108814527D01*
X143572853Y-108810610D01*
X143573141Y-108790000D01*
X143554798Y-108626466D01*
X143548998Y-108609809D01*
X143530709Y-108557292D01*
X143500680Y-108471060D01*
X143413476Y-108331505D01*
X143334564Y-108252040D01*
X143302486Y-108219737D01*
X143302482Y-108219734D01*
X143297522Y-108214739D01*
X143158580Y-108126563D01*
X143048286Y-108087289D01*
X143010189Y-108073723D01*
X143010187Y-108073722D01*
X143003555Y-108071361D01*
X142996569Y-108070528D01*
X142996565Y-108070527D01*
X142882071Y-108056875D01*
X142840153Y-108051877D01*
X142833150Y-108052613D01*
X142833149Y-108052613D01*
X142789935Y-108057155D01*
X142676495Y-108069078D01*
X142669827Y-108071348D01*
X142527382Y-108119840D01*
X142527379Y-108119841D01*
X142520715Y-108122110D01*
X142452658Y-108163979D01*
X142394203Y-108199941D01*
X142380555Y-108208337D01*
X142262982Y-108323473D01*
X142173838Y-108461797D01*
X142171427Y-108468420D01*
X142171426Y-108468423D01*
X142119966Y-108609809D01*
X142119965Y-108609814D01*
X142117556Y-108616432D01*
X142096931Y-108779694D01*
X138213500Y-108779694D01*
X138213500Y-107761866D01*
X138206745Y-107699684D01*
X138155615Y-107563295D01*
X138068261Y-107446739D01*
X137951705Y-107359385D01*
X137815316Y-107308255D01*
X137753134Y-107301500D01*
X135956866Y-107301500D01*
X135894684Y-107308255D01*
X135758295Y-107359385D01*
X135641739Y-107446739D01*
X135554385Y-107563295D01*
X135551233Y-107571703D01*
X135509919Y-107681907D01*
X135467277Y-107738671D01*
X135400716Y-107763371D01*
X135331367Y-107748163D01*
X135298743Y-107722476D01*
X135248151Y-107666875D01*
X135248142Y-107666866D01*
X135244670Y-107663051D01*
X135240619Y-107659852D01*
X135240615Y-107659848D01*
X135073414Y-107527800D01*
X135073410Y-107527798D01*
X135069359Y-107524598D01*
X134873789Y-107416638D01*
X134868920Y-107414914D01*
X134868916Y-107414912D01*
X134668087Y-107343795D01*
X134668083Y-107343794D01*
X134663212Y-107342069D01*
X134658119Y-107341162D01*
X134658116Y-107341161D01*
X134448373Y-107303800D01*
X134448367Y-107303799D01*
X134443284Y-107302894D01*
X134369452Y-107301992D01*
X134225081Y-107300228D01*
X134225079Y-107300228D01*
X134219911Y-107300165D01*
X133999091Y-107333955D01*
X133786756Y-107403357D01*
X133588607Y-107506507D01*
X133584474Y-107509610D01*
X133584471Y-107509612D01*
X133417478Y-107634994D01*
X133409965Y-107640635D01*
X133370525Y-107681907D01*
X133316280Y-107738671D01*
X133255629Y-107802138D01*
X133129743Y-107986680D01*
X133127564Y-107991375D01*
X133045238Y-108168732D01*
X133035688Y-108189305D01*
X132975989Y-108404570D01*
X132952251Y-108626695D01*
X132588500Y-108626695D01*
X132588500Y-107791866D01*
X132581745Y-107729684D01*
X132530615Y-107593295D01*
X132443261Y-107476739D01*
X132326705Y-107389385D01*
X132190316Y-107338255D01*
X132128134Y-107331500D01*
X130331866Y-107331500D01*
X130269684Y-107338255D01*
X130133295Y-107389385D01*
X130016739Y-107476739D01*
X129929385Y-107593295D01*
X129878255Y-107729684D01*
X129871500Y-107791866D01*
X129871500Y-109588134D01*
X129008500Y-109588134D01*
X129008500Y-108551866D01*
X129001745Y-108489684D01*
X128950615Y-108353295D01*
X128863261Y-108236739D01*
X128746705Y-108149385D01*
X128610316Y-108098255D01*
X128548134Y-108091500D01*
X127451866Y-108091500D01*
X127389684Y-108098255D01*
X127253295Y-108149385D01*
X127246116Y-108154766D01*
X127238237Y-108159079D01*
X127237023Y-108156861D01*
X127183072Y-108177018D01*
X127126127Y-108167654D01*
X127122701Y-108165802D01*
X126933768Y-108107318D01*
X126927643Y-108106674D01*
X126927642Y-108106674D01*
X126743204Y-108087289D01*
X126743202Y-108087289D01*
X126737075Y-108086645D01*
X126654576Y-108094153D01*
X126546251Y-108104011D01*
X126546248Y-108104012D01*
X126540112Y-108104570D01*
X126534206Y-108106308D01*
X126534202Y-108106309D01*
X126429076Y-108137249D01*
X126350381Y-108160410D01*
X126344923Y-108163263D01*
X126344919Y-108163265D01*
X126265768Y-108204645D01*
X126175110Y-108252040D01*
X126170310Y-108255900D01*
X126165153Y-108259274D01*
X126163769Y-108257158D01*
X126108365Y-108280027D01*
X126038512Y-108267334D01*
X126028898Y-108261709D01*
X126026675Y-108259870D01*
X125852701Y-108165802D01*
X125663768Y-108107318D01*
X125657643Y-108106674D01*
X125657642Y-108106674D01*
X125473204Y-108087289D01*
X125473202Y-108087289D01*
X125467075Y-108086645D01*
X125384576Y-108094153D01*
X125276251Y-108104011D01*
X125276248Y-108104012D01*
X125270112Y-108104570D01*
X125264206Y-108106308D01*
X125264202Y-108106309D01*
X125159076Y-108137249D01*
X125080381Y-108160410D01*
X125074923Y-108163263D01*
X125074919Y-108163265D01*
X124995768Y-108204645D01*
X124905110Y-108252040D01*
X124900310Y-108255900D01*
X124895153Y-108259274D01*
X124893769Y-108257158D01*
X124838365Y-108280027D01*
X124768512Y-108267334D01*
X124758898Y-108261709D01*
X124756675Y-108259870D01*
X124582701Y-108165802D01*
X124393768Y-108107318D01*
X124387643Y-108106674D01*
X124387642Y-108106674D01*
X124203204Y-108087289D01*
X124203202Y-108087289D01*
X124197075Y-108086645D01*
X124114576Y-108094153D01*
X124006251Y-108104011D01*
X124006248Y-108104012D01*
X124000112Y-108104570D01*
X123994206Y-108106308D01*
X123994202Y-108106309D01*
X123889076Y-108137249D01*
X123810381Y-108160410D01*
X123804923Y-108163263D01*
X123804919Y-108163265D01*
X123725768Y-108204645D01*
X123635110Y-108252040D01*
X123480975Y-108375968D01*
X123353846Y-108527474D01*
X123350879Y-108532872D01*
X123350875Y-108532877D01*
X123295577Y-108633465D01*
X123258567Y-108700787D01*
X123198765Y-108889306D01*
X123176719Y-109085851D01*
X123179655Y-109120813D01*
X123192570Y-109274616D01*
X123193268Y-109282934D01*
X123212047Y-109348423D01*
X123245500Y-109465088D01*
X123247783Y-109473050D01*
X123263393Y-109503424D01*
X123332732Y-109638341D01*
X123338187Y-109648956D01*
X123461035Y-109803953D01*
X123465728Y-109807947D01*
X123465729Y-109807948D01*
X123596051Y-109918860D01*
X123611650Y-109932136D01*
X123784294Y-110028624D01*
X123972392Y-110089740D01*
X124006155Y-110093766D01*
X124138400Y-110109536D01*
X124178335Y-110126623D01*
X124198456Y-110113654D01*
X124224445Y-110108874D01*
X124276669Y-110104856D01*
X124359830Y-110098457D01*
X124359834Y-110098456D01*
X124365972Y-110097984D01*
X124556463Y-110044798D01*
X124561967Y-110042018D01*
X124561969Y-110042017D01*
X124727493Y-109958405D01*
X124727495Y-109958404D01*
X124732996Y-109955625D01*
X124737850Y-109951833D01*
X124737859Y-109951827D01*
X124746548Y-109945038D01*
X124812542Y-109918860D01*
X124885592Y-109934339D01*
X125054294Y-110028624D01*
X125242392Y-110089740D01*
X125394466Y-110107874D01*
X125456082Y-110134237D01*
X125490669Y-110111945D01*
X125516660Y-110107165D01*
X125629830Y-110098457D01*
X125629834Y-110098456D01*
X125635972Y-110097984D01*
X125826463Y-110044798D01*
X125831967Y-110042018D01*
X125831969Y-110042017D01*
X125997493Y-109958405D01*
X125997495Y-109958404D01*
X126002996Y-109955625D01*
X126007850Y-109951833D01*
X126007859Y-109951827D01*
X126016548Y-109945038D01*
X126082542Y-109918860D01*
X126155592Y-109934339D01*
X126324294Y-110028624D01*
X126512392Y-110089740D01*
X126550415Y-110094274D01*
X126650534Y-110106213D01*
X126715807Y-110134141D01*
X126724919Y-110147595D01*
X126782882Y-110110236D01*
X126808873Y-110105456D01*
X126899829Y-110098457D01*
X126899832Y-110098456D01*
X126905972Y-110097984D01*
X127096463Y-110044798D01*
X127101959Y-110042022D01*
X127101961Y-110042021D01*
X127115716Y-110035073D01*
X127185538Y-110022214D01*
X127237368Y-110042514D01*
X127238240Y-110040921D01*
X127246109Y-110045229D01*
X127253295Y-110050615D01*
X127389684Y-110101745D01*
X127397536Y-110102598D01*
X127397540Y-110102599D01*
X127420052Y-110105044D01*
X127485615Y-110132286D01*
X127526041Y-110190649D01*
X127528497Y-110261603D01*
X127492202Y-110322621D01*
X127428679Y-110354330D01*
X127406612Y-110356307D01*
X126818707Y-110357085D01*
X126750560Y-110337173D01*
X126728303Y-110311556D01*
X126720398Y-110324534D01*
X126656547Y-110355576D01*
X126635781Y-110357327D01*
X125526494Y-110358794D01*
X125458346Y-110338882D01*
X125452374Y-110332008D01*
X125400481Y-110357237D01*
X125379714Y-110358988D01*
X124234281Y-110360503D01*
X124176088Y-110343500D01*
X124144413Y-110358899D01*
X124123648Y-110360650D01*
X123702975Y-110361206D01*
X118601206Y-110367954D01*
X118533059Y-110348042D01*
X118486495Y-110294448D01*
X118476298Y-110224187D01*
X118505706Y-110159568D01*
X118507743Y-110157430D01*
X118510347Y-110154326D01*
X118515449Y-110149468D01*
X118519350Y-110143597D01*
X118602614Y-110018275D01*
X118602615Y-110018273D01*
X118606515Y-110012403D01*
X118664951Y-109858568D01*
X118675051Y-109786705D01*
X118687302Y-109699534D01*
X118687303Y-109699527D01*
X118687853Y-109695610D01*
X118688141Y-109675000D01*
X118669798Y-109511466D01*
X118667115Y-109503760D01*
X118623303Y-109377951D01*
X118615680Y-109356060D01*
X118606768Y-109341797D01*
X118532209Y-109222479D01*
X118528476Y-109216505D01*
X118439994Y-109127403D01*
X118417486Y-109104737D01*
X118417482Y-109104734D01*
X118412522Y-109099739D01*
X118273580Y-109011563D01*
X118224447Y-108994068D01*
X118125189Y-108958723D01*
X118125187Y-108958722D01*
X118118555Y-108956361D01*
X118111569Y-108955528D01*
X118111565Y-108955527D01*
X117997071Y-108941875D01*
X117955153Y-108936877D01*
X117948150Y-108937613D01*
X117948149Y-108937613D01*
X117904935Y-108942155D01*
X117791495Y-108954078D01*
X117784827Y-108956348D01*
X117642382Y-109004840D01*
X117642379Y-109004841D01*
X117635715Y-109007110D01*
X117495555Y-109093337D01*
X117494225Y-109091175D01*
X117439157Y-109113033D01*
X117369483Y-109099391D01*
X117360035Y-109093954D01*
X117347267Y-109085851D01*
X117222330Y-109006563D01*
X117148165Y-108980154D01*
X117073939Y-108953723D01*
X117073937Y-108953722D01*
X117067305Y-108951361D01*
X117060319Y-108950528D01*
X117060315Y-108950527D01*
X116942330Y-108936459D01*
X116903903Y-108931877D01*
X116896900Y-108932613D01*
X116896899Y-108932613D01*
X116860308Y-108936459D01*
X116740245Y-108949078D01*
X116733577Y-108951348D01*
X116591132Y-108999840D01*
X116591129Y-108999841D01*
X116584465Y-109002110D01*
X116487608Y-109061697D01*
X116470170Y-109072425D01*
X116444305Y-109088337D01*
X116326732Y-109203473D01*
X116237588Y-109341797D01*
X116235177Y-109348420D01*
X116235176Y-109348423D01*
X116183716Y-109489809D01*
X116183715Y-109489814D01*
X116181306Y-109496432D01*
X116160681Y-109659694D01*
X116176739Y-109823468D01*
X116228682Y-109979615D01*
X116232331Y-109985640D01*
X116309860Y-110113654D01*
X116313929Y-110120373D01*
X116318820Y-110125438D01*
X116318821Y-110125439D01*
X116349807Y-110157526D01*
X116382739Y-110220423D01*
X116376439Y-110291140D01*
X116332907Y-110347224D01*
X116259339Y-110371052D01*
X114495501Y-110373386D01*
X114427355Y-110353474D01*
X114380791Y-110299880D01*
X114370594Y-110229619D01*
X114400001Y-110165000D01*
X114408441Y-110156142D01*
X114410345Y-110154329D01*
X114410347Y-110154326D01*
X114415449Y-110149468D01*
X114419350Y-110143597D01*
X114502614Y-110018275D01*
X114502615Y-110018273D01*
X114506515Y-110012403D01*
X114564951Y-109858568D01*
X114575051Y-109786705D01*
X114587302Y-109699534D01*
X114587303Y-109699527D01*
X114587853Y-109695610D01*
X114588141Y-109675000D01*
X114569798Y-109511466D01*
X114567115Y-109503760D01*
X114523303Y-109377951D01*
X114515680Y-109356060D01*
X114506768Y-109341797D01*
X114432209Y-109222479D01*
X114428476Y-109216505D01*
X114339994Y-109127403D01*
X114317486Y-109104737D01*
X114317482Y-109104734D01*
X114312522Y-109099739D01*
X114173580Y-109011563D01*
X114124447Y-108994068D01*
X114025189Y-108958723D01*
X114025187Y-108958722D01*
X114018555Y-108956361D01*
X114011569Y-108955528D01*
X114011565Y-108955527D01*
X113897071Y-108941875D01*
X113855153Y-108936877D01*
X113848150Y-108937613D01*
X113848149Y-108937613D01*
X113804935Y-108942155D01*
X113691495Y-108954078D01*
X113684827Y-108956348D01*
X113542382Y-109004840D01*
X113542379Y-109004841D01*
X113535715Y-109007110D01*
X113529720Y-109010798D01*
X113529716Y-109010800D01*
X113473700Y-109045262D01*
X113405199Y-109063920D01*
X113337485Y-109042581D01*
X113292057Y-108988021D01*
X113281679Y-108937359D01*
X113292214Y-106669694D01*
X118121931Y-106669694D01*
X118137989Y-106833468D01*
X118189932Y-106989615D01*
X118275179Y-107130373D01*
X118389491Y-107248747D01*
X118527189Y-107338854D01*
X118681428Y-107396215D01*
X118688409Y-107397146D01*
X118688411Y-107397147D01*
X118837561Y-107417048D01*
X118837565Y-107417048D01*
X118844542Y-107417979D01*
X118851553Y-107417341D01*
X118851557Y-107417341D01*
X119001403Y-107403704D01*
X119001404Y-107403704D01*
X119008424Y-107403065D01*
X119037062Y-107393760D01*
X119158230Y-107354390D01*
X119158233Y-107354389D01*
X119164929Y-107352213D01*
X119306279Y-107267951D01*
X119425449Y-107154468D01*
X119438092Y-107135439D01*
X119512614Y-107023275D01*
X119512615Y-107023273D01*
X119516515Y-107017403D01*
X119574951Y-106863568D01*
X119589322Y-106761310D01*
X119597302Y-106704534D01*
X119597303Y-106704527D01*
X119597853Y-106700610D01*
X119598141Y-106680000D01*
X119596985Y-106669694D01*
X122121931Y-106669694D01*
X122137989Y-106833468D01*
X122189932Y-106989615D01*
X122275179Y-107130373D01*
X122389491Y-107248747D01*
X122527189Y-107338854D01*
X122681428Y-107396215D01*
X122688409Y-107397146D01*
X122688411Y-107397147D01*
X122837561Y-107417048D01*
X122837565Y-107417048D01*
X122844542Y-107417979D01*
X122851553Y-107417341D01*
X122851557Y-107417341D01*
X123001403Y-107403704D01*
X123001404Y-107403704D01*
X123008424Y-107403065D01*
X123037062Y-107393760D01*
X123158230Y-107354390D01*
X123158233Y-107354389D01*
X123164929Y-107352213D01*
X123306279Y-107267951D01*
X123425449Y-107154468D01*
X123438092Y-107135439D01*
X123512614Y-107023275D01*
X123512615Y-107023273D01*
X123516515Y-107017403D01*
X123574951Y-106863568D01*
X123589322Y-106761310D01*
X123597302Y-106704534D01*
X123597303Y-106704527D01*
X123597853Y-106700610D01*
X123598141Y-106680000D01*
X123596985Y-106669694D01*
X126121931Y-106669694D01*
X126137989Y-106833468D01*
X126189932Y-106989615D01*
X126275179Y-107130373D01*
X126389491Y-107248747D01*
X126527189Y-107338854D01*
X126681428Y-107396215D01*
X126688409Y-107397146D01*
X126688411Y-107397147D01*
X126837561Y-107417048D01*
X126837565Y-107417048D01*
X126844542Y-107417979D01*
X126851553Y-107417341D01*
X126851557Y-107417341D01*
X127001403Y-107403704D01*
X127001404Y-107403704D01*
X127008424Y-107403065D01*
X127037062Y-107393760D01*
X127158230Y-107354390D01*
X127158233Y-107354389D01*
X127164929Y-107352213D01*
X127306279Y-107267951D01*
X127425449Y-107154468D01*
X127438092Y-107135439D01*
X127512614Y-107023275D01*
X127512615Y-107023273D01*
X127516515Y-107017403D01*
X127534638Y-106969694D01*
X138851931Y-106969694D01*
X138867989Y-107133468D01*
X138919932Y-107289615D01*
X138923581Y-107295640D01*
X138996861Y-107416638D01*
X139005179Y-107430373D01*
X139119491Y-107548747D01*
X139257189Y-107638854D01*
X139411428Y-107696215D01*
X139418409Y-107697146D01*
X139418411Y-107697147D01*
X139567561Y-107717048D01*
X139567565Y-107717048D01*
X139574542Y-107717979D01*
X139581553Y-107717341D01*
X139581557Y-107717341D01*
X139731403Y-107703704D01*
X139731404Y-107703704D01*
X139738424Y-107703065D01*
X139803541Y-107681907D01*
X139888230Y-107654390D01*
X139888233Y-107654389D01*
X139894929Y-107652213D01*
X140036279Y-107567951D01*
X140155449Y-107454468D01*
X140160584Y-107446739D01*
X140242614Y-107323275D01*
X140242615Y-107323273D01*
X140246515Y-107317403D01*
X140304951Y-107163568D01*
X140325493Y-107017403D01*
X140327302Y-107004534D01*
X140327303Y-107004527D01*
X140327853Y-107000610D01*
X140328141Y-106980000D01*
X140309798Y-106816466D01*
X140303998Y-106799809D01*
X140263354Y-106683096D01*
X140255680Y-106661060D01*
X140197903Y-106568597D01*
X140172209Y-106527479D01*
X140168476Y-106521505D01*
X140078415Y-106430813D01*
X140057486Y-106409737D01*
X140057482Y-106409734D01*
X140052522Y-106404739D01*
X139913580Y-106316563D01*
X139834770Y-106288500D01*
X139765189Y-106263723D01*
X139765187Y-106263722D01*
X139758555Y-106261361D01*
X139751569Y-106260528D01*
X139751565Y-106260527D01*
X139628137Y-106245810D01*
X139595153Y-106241877D01*
X139588150Y-106242613D01*
X139588149Y-106242613D01*
X139551558Y-106246459D01*
X139431495Y-106259078D01*
X139424827Y-106261348D01*
X139282382Y-106309840D01*
X139282379Y-106309841D01*
X139275715Y-106312110D01*
X139135555Y-106398337D01*
X139017982Y-106513473D01*
X138928838Y-106651797D01*
X138926427Y-106658420D01*
X138926426Y-106658423D01*
X138874966Y-106799809D01*
X138874965Y-106799814D01*
X138872556Y-106806432D01*
X138851931Y-106969694D01*
X127534638Y-106969694D01*
X127574951Y-106863568D01*
X127589322Y-106761310D01*
X127597302Y-106704534D01*
X127597303Y-106704527D01*
X127597853Y-106700610D01*
X127598141Y-106680000D01*
X127579798Y-106516466D01*
X127573998Y-106499809D01*
X127552265Y-106437403D01*
X127525680Y-106361060D01*
X127480138Y-106288177D01*
X127442209Y-106227479D01*
X127438476Y-106221505D01*
X127380499Y-106163122D01*
X127327486Y-106109737D01*
X127327482Y-106109734D01*
X127322522Y-106104739D01*
X127298815Y-106089694D01*
X130361931Y-106089694D01*
X130377989Y-106253468D01*
X130429932Y-106409615D01*
X130433581Y-106415640D01*
X130501314Y-106527479D01*
X130515179Y-106550373D01*
X130629491Y-106668747D01*
X130767189Y-106758854D01*
X130921428Y-106816215D01*
X130928409Y-106817146D01*
X130928411Y-106817147D01*
X131077561Y-106837048D01*
X131077565Y-106837048D01*
X131084542Y-106837979D01*
X131091553Y-106837341D01*
X131091557Y-106837341D01*
X131241403Y-106823704D01*
X131241404Y-106823704D01*
X131248424Y-106823065D01*
X131319998Y-106799809D01*
X131398230Y-106774390D01*
X131398233Y-106774389D01*
X131404929Y-106772213D01*
X131546279Y-106687951D01*
X131665449Y-106574468D01*
X131681458Y-106550373D01*
X131752614Y-106443275D01*
X131752615Y-106443273D01*
X131756515Y-106437403D01*
X131814951Y-106283568D01*
X131837853Y-106120610D01*
X131838141Y-106100000D01*
X131819798Y-105936466D01*
X131814926Y-105922474D01*
X131788153Y-105845594D01*
X131765680Y-105781060D01*
X131751126Y-105757768D01*
X131682209Y-105647479D01*
X131678476Y-105641505D01*
X131600800Y-105563285D01*
X131567486Y-105529737D01*
X131567482Y-105529734D01*
X131562522Y-105524739D01*
X131423580Y-105436563D01*
X131374447Y-105419068D01*
X131275189Y-105383723D01*
X131275187Y-105383722D01*
X131268555Y-105381361D01*
X131261569Y-105380528D01*
X131261565Y-105380527D01*
X131232522Y-105377064D01*
X147317707Y-105377064D01*
X147346825Y-105569599D01*
X147349028Y-105575585D01*
X147349029Y-105575591D01*
X147411860Y-105746360D01*
X147411862Y-105746365D01*
X147414063Y-105752346D01*
X147516674Y-105917840D01*
X147521055Y-105922473D01*
X147521056Y-105922474D01*
X147610031Y-106016563D01*
X147650466Y-106059322D01*
X147655696Y-106062984D01*
X147655697Y-106062985D01*
X147713225Y-106103266D01*
X147809975Y-106171011D01*
X147815838Y-106173548D01*
X147982825Y-106245810D01*
X147982829Y-106245811D01*
X147988684Y-106248345D01*
X147994931Y-106249650D01*
X147994934Y-106249651D01*
X148174557Y-106287176D01*
X148174562Y-106287177D01*
X148179293Y-106288165D01*
X148185685Y-106288500D01*
X148328663Y-106288500D01*
X148445886Y-106276593D01*
X148467378Y-106274410D01*
X148467379Y-106274410D01*
X148473727Y-106273765D01*
X148530061Y-106256111D01*
X148653451Y-106217444D01*
X148653456Y-106217442D01*
X148659541Y-106215535D01*
X148746475Y-106167346D01*
X148824271Y-106124223D01*
X148824274Y-106124221D01*
X148829850Y-106121130D01*
X148834691Y-106116981D01*
X148834695Y-106116978D01*
X148972855Y-105998560D01*
X148977698Y-105994409D01*
X149097046Y-105840547D01*
X149126318Y-105781060D01*
X149180200Y-105671556D01*
X149183018Y-105665829D01*
X149189354Y-105641505D01*
X149230492Y-105483575D01*
X149230492Y-105483572D01*
X149232102Y-105477393D01*
X149237135Y-105381361D01*
X149241959Y-105289317D01*
X149241959Y-105289313D01*
X149242293Y-105282936D01*
X149213175Y-105090401D01*
X149210972Y-105084415D01*
X149210971Y-105084409D01*
X149148140Y-104913640D01*
X149148138Y-104913635D01*
X149145937Y-104907654D01*
X149043326Y-104742160D01*
X148939817Y-104632701D01*
X148913919Y-104605315D01*
X148909534Y-104600678D01*
X148885686Y-104583979D01*
X148755259Y-104492654D01*
X148750025Y-104488989D01*
X148659125Y-104449653D01*
X148577175Y-104414190D01*
X148577171Y-104414189D01*
X148571316Y-104411655D01*
X148565069Y-104410350D01*
X148565066Y-104410349D01*
X148385443Y-104372824D01*
X148385438Y-104372823D01*
X148380707Y-104371835D01*
X148374315Y-104371500D01*
X148231337Y-104371500D01*
X148162049Y-104378538D01*
X148092622Y-104385590D01*
X148092621Y-104385590D01*
X148086273Y-104386235D01*
X148069297Y-104391555D01*
X147906549Y-104442556D01*
X147906544Y-104442558D01*
X147900459Y-104444465D01*
X147850401Y-104472213D01*
X147735729Y-104535777D01*
X147735726Y-104535779D01*
X147730150Y-104538870D01*
X147725309Y-104543019D01*
X147725305Y-104543022D01*
X147677520Y-104583979D01*
X147582302Y-104665591D01*
X147462954Y-104819453D01*
X147460138Y-104825176D01*
X147460136Y-104825179D01*
X147397246Y-104952989D01*
X147376982Y-104994171D01*
X147375373Y-105000349D01*
X147375372Y-105000351D01*
X147330134Y-105174024D01*
X147327898Y-105182607D01*
X147317707Y-105377064D01*
X131232522Y-105377064D01*
X131147071Y-105366875D01*
X131105153Y-105361877D01*
X131098150Y-105362613D01*
X131098149Y-105362613D01*
X131054935Y-105367155D01*
X130941495Y-105379078D01*
X130934827Y-105381348D01*
X130792382Y-105429840D01*
X130792379Y-105429841D01*
X130785715Y-105432110D01*
X130645555Y-105518337D01*
X130527982Y-105633473D01*
X130438838Y-105771797D01*
X130436427Y-105778420D01*
X130436426Y-105778423D01*
X130384966Y-105919809D01*
X130384965Y-105919814D01*
X130382556Y-105926432D01*
X130361931Y-106089694D01*
X127298815Y-106089694D01*
X127183580Y-106016563D01*
X127133022Y-105998560D01*
X127035189Y-105963723D01*
X127035187Y-105963722D01*
X127028555Y-105961361D01*
X127021569Y-105960528D01*
X127021565Y-105960527D01*
X126907071Y-105946875D01*
X126865153Y-105941877D01*
X126858150Y-105942613D01*
X126858149Y-105942613D01*
X126814935Y-105947155D01*
X126701495Y-105959078D01*
X126694827Y-105961348D01*
X126552382Y-106009840D01*
X126552379Y-106009841D01*
X126545715Y-106012110D01*
X126468973Y-106059322D01*
X126430973Y-106082700D01*
X126405555Y-106098337D01*
X126287982Y-106213473D01*
X126198838Y-106351797D01*
X126196427Y-106358420D01*
X126196426Y-106358423D01*
X126144966Y-106499809D01*
X126144965Y-106499814D01*
X126142556Y-106506432D01*
X126121931Y-106669694D01*
X123596985Y-106669694D01*
X123579798Y-106516466D01*
X123573998Y-106499809D01*
X123552265Y-106437403D01*
X123525680Y-106361060D01*
X123480138Y-106288177D01*
X123442209Y-106227479D01*
X123438476Y-106221505D01*
X123380499Y-106163122D01*
X123327486Y-106109737D01*
X123327482Y-106109734D01*
X123322522Y-106104739D01*
X123183580Y-106016563D01*
X123133022Y-105998560D01*
X123035189Y-105963723D01*
X123035187Y-105963722D01*
X123028555Y-105961361D01*
X123021569Y-105960528D01*
X123021565Y-105960527D01*
X122907071Y-105946875D01*
X122865153Y-105941877D01*
X122858150Y-105942613D01*
X122858149Y-105942613D01*
X122814935Y-105947155D01*
X122701495Y-105959078D01*
X122694827Y-105961348D01*
X122552382Y-106009840D01*
X122552379Y-106009841D01*
X122545715Y-106012110D01*
X122468973Y-106059322D01*
X122430973Y-106082700D01*
X122405555Y-106098337D01*
X122287982Y-106213473D01*
X122198838Y-106351797D01*
X122196427Y-106358420D01*
X122196426Y-106358423D01*
X122144966Y-106499809D01*
X122144965Y-106499814D01*
X122142556Y-106506432D01*
X122121931Y-106669694D01*
X119596985Y-106669694D01*
X119579798Y-106516466D01*
X119573998Y-106499809D01*
X119552265Y-106437403D01*
X119525680Y-106361060D01*
X119480138Y-106288177D01*
X119442209Y-106227479D01*
X119438476Y-106221505D01*
X119380499Y-106163122D01*
X119327486Y-106109737D01*
X119327482Y-106109734D01*
X119322522Y-106104739D01*
X119183580Y-106016563D01*
X119133022Y-105998560D01*
X119035189Y-105963723D01*
X119035187Y-105963722D01*
X119028555Y-105961361D01*
X119021569Y-105960528D01*
X119021565Y-105960527D01*
X118907071Y-105946875D01*
X118865153Y-105941877D01*
X118858150Y-105942613D01*
X118858149Y-105942613D01*
X118814935Y-105947155D01*
X118701495Y-105959078D01*
X118694827Y-105961348D01*
X118552382Y-106009840D01*
X118552379Y-106009841D01*
X118545715Y-106012110D01*
X118468973Y-106059322D01*
X118430973Y-106082700D01*
X118405555Y-106098337D01*
X118287982Y-106213473D01*
X118198838Y-106351797D01*
X118196427Y-106358420D01*
X118196426Y-106358423D01*
X118144966Y-106499809D01*
X118144965Y-106499814D01*
X118142556Y-106506432D01*
X118121931Y-106669694D01*
X113292214Y-106669694D01*
X113298892Y-105232298D01*
X113303535Y-104232925D01*
X127466645Y-104232925D01*
X127470426Y-104274468D01*
X127482911Y-104411655D01*
X127484570Y-104429888D01*
X127486308Y-104435794D01*
X127486309Y-104435798D01*
X127497667Y-104474390D01*
X127540410Y-104619619D01*
X127543263Y-104625077D01*
X127543265Y-104625081D01*
X127567080Y-104670634D01*
X127632040Y-104794890D01*
X127755968Y-104949025D01*
X127760692Y-104952989D01*
X127767933Y-104959065D01*
X127907474Y-105076154D01*
X127912872Y-105079121D01*
X127912877Y-105079125D01*
X128056180Y-105157905D01*
X128080787Y-105171433D01*
X128086654Y-105173294D01*
X128086656Y-105173295D01*
X128263436Y-105229373D01*
X128269306Y-105231235D01*
X128423227Y-105248500D01*
X128529769Y-105248500D01*
X128532825Y-105248200D01*
X128532832Y-105248200D01*
X128591340Y-105242463D01*
X128676833Y-105234080D01*
X128682734Y-105232298D01*
X128682736Y-105232298D01*
X128826191Y-105188986D01*
X128866169Y-105176916D01*
X129040796Y-105084066D01*
X129127062Y-105013709D01*
X129189287Y-104962960D01*
X129189290Y-104962957D01*
X129194062Y-104959065D01*
X129236593Y-104907654D01*
X129316201Y-104811425D01*
X129316203Y-104811421D01*
X129320130Y-104806675D01*
X129414198Y-104632701D01*
X129472682Y-104443768D01*
X129476057Y-104411655D01*
X129492711Y-104253204D01*
X129492711Y-104253202D01*
X129493355Y-104247075D01*
X129484423Y-104148929D01*
X129475989Y-104056251D01*
X129475988Y-104056248D01*
X129475430Y-104050112D01*
X129462493Y-104006153D01*
X129421330Y-103866294D01*
X129419590Y-103860381D01*
X129414144Y-103849962D01*
X129330813Y-103690568D01*
X129327960Y-103685110D01*
X129204032Y-103530975D01*
X129197727Y-103525684D01*
X129137424Y-103475084D01*
X129052526Y-103403846D01*
X129047128Y-103400879D01*
X129047123Y-103400875D01*
X128884608Y-103311533D01*
X128884609Y-103311533D01*
X128879213Y-103308567D01*
X128873346Y-103306706D01*
X128873344Y-103306705D01*
X128696564Y-103250627D01*
X128696563Y-103250627D01*
X128690694Y-103248765D01*
X128536773Y-103231500D01*
X128430231Y-103231500D01*
X128427175Y-103231800D01*
X128427168Y-103231800D01*
X128368660Y-103237537D01*
X128283167Y-103245920D01*
X128277266Y-103247702D01*
X128277264Y-103247702D01*
X128222167Y-103264337D01*
X128093831Y-103303084D01*
X127919204Y-103395934D01*
X127832938Y-103466291D01*
X127770713Y-103517040D01*
X127770710Y-103517043D01*
X127765938Y-103520935D01*
X127762011Y-103525682D01*
X127762009Y-103525684D01*
X127643799Y-103668575D01*
X127643797Y-103668579D01*
X127639870Y-103673325D01*
X127545802Y-103847299D01*
X127487318Y-104036232D01*
X127486674Y-104042357D01*
X127486674Y-104042358D01*
X127472543Y-104176813D01*
X127466645Y-104232925D01*
X113303535Y-104232925D01*
X113373590Y-89153414D01*
X113393909Y-89085388D01*
X113447780Y-89039144D01*
X113499589Y-89028000D01*
X119109392Y-89028000D01*
X119177513Y-89048002D01*
G37*
%TD.AperFunction*%
%TD*%
M02*
