%TF.GenerationSoftware,KiCad,Pcbnew,(6.0.2)*%
%TF.CreationDate,2022-04-10T14:27:56+08:00*%
%TF.ProjectId,PlantCare,506c616e-7443-4617-9265-2e6b69636164,rev?*%
%TF.SameCoordinates,Original*%
%TF.FileFunction,Copper,L4,Bot*%
%TF.FilePolarity,Positive*%
%FSLAX46Y46*%
G04 Gerber Fmt 4.6, Leading zero omitted, Abs format (unit mm)*
G04 Created by KiCad (PCBNEW (6.0.2)) date 2022-04-10 14:27:56*
%MOMM*%
%LPD*%
G01*
G04 APERTURE LIST*
G04 Aperture macros list*
%AMRoundRect*
0 Rectangle with rounded corners*
0 $1 Rounding radius*
0 $2 $3 $4 $5 $6 $7 $8 $9 X,Y pos of 4 corners*
0 Add a 4 corners polygon primitive as box body*
4,1,4,$2,$3,$4,$5,$6,$7,$8,$9,$2,$3,0*
0 Add four circle primitives for the rounded corners*
1,1,$1+$1,$2,$3*
1,1,$1+$1,$4,$5*
1,1,$1+$1,$6,$7*
1,1,$1+$1,$8,$9*
0 Add four rect primitives between the rounded corners*
20,1,$1+$1,$2,$3,$4,$5,0*
20,1,$1+$1,$4,$5,$6,$7,0*
20,1,$1+$1,$6,$7,$8,$9,0*
20,1,$1+$1,$8,$9,$2,$3,0*%
G04 Aperture macros list end*
%TA.AperFunction,ComponentPad*%
%ADD10C,0.800000*%
%TD*%
%TA.AperFunction,ComponentPad*%
%ADD11C,5.000000*%
%TD*%
%TA.AperFunction,ComponentPad*%
%ADD12C,2.000000*%
%TD*%
%TA.AperFunction,ComponentPad*%
%ADD13R,1.350000X1.350000*%
%TD*%
%TA.AperFunction,ComponentPad*%
%ADD14O,1.350000X1.350000*%
%TD*%
%TA.AperFunction,SMDPad,CuDef*%
%ADD15RoundRect,0.135000X0.185000X-0.135000X0.185000X0.135000X-0.185000X0.135000X-0.185000X-0.135000X0*%
%TD*%
%TA.AperFunction,BGAPad,CuDef*%
%ADD16R,1.350000X1.800000*%
%TD*%
%TA.AperFunction,SMDPad,CuDef*%
%ADD17RoundRect,0.135000X-0.185000X0.135000X-0.185000X-0.135000X0.185000X-0.135000X0.185000X0.135000X0*%
%TD*%
%TA.AperFunction,SMDPad,CuDef*%
%ADD18RoundRect,0.147500X0.172500X-0.147500X0.172500X0.147500X-0.172500X0.147500X-0.172500X-0.147500X0*%
%TD*%
%TA.AperFunction,ViaPad*%
%ADD19C,0.450000*%
%TD*%
%TA.AperFunction,Conductor*%
%ADD20C,0.700000*%
%TD*%
%TA.AperFunction,Conductor*%
%ADD21C,0.200000*%
%TD*%
G04 APERTURE END LIST*
D10*
%TO.P,H2,1*%
%TO.N,N/C*%
X138674175Y-126325825D03*
X141875000Y-125000000D03*
X138125000Y-125000000D03*
X140000000Y-123125000D03*
X140000000Y-126875000D03*
D11*
X140000000Y-125000000D03*
D10*
X141325825Y-123674175D03*
X138674175Y-123674175D03*
X141325825Y-126325825D03*
%TD*%
D12*
%TO.P,J3,1,Pin_1*%
%TO.N,/control1*%
X73100000Y-85900000D03*
X78100000Y-85900000D03*
%TO.P,J3,2,Pin_2*%
%TO.N,+BATT*%
X73100000Y-90900000D03*
X78100000Y-90900000D03*
%TD*%
%TO.P,J5,1,Pin_1*%
%TO.N,/control*%
X78100000Y-109300000D03*
X73100000Y-109300000D03*
%TO.P,J5,2,Pin_2*%
%TO.N,+BATT*%
X78100000Y-114300000D03*
X73100000Y-114300000D03*
%TD*%
%TO.P,J4,1,Pin_1*%
%TO.N,+BATT*%
X78100000Y-102600000D03*
X73100000Y-102600000D03*
%TO.P,J4,2,Pin_2*%
%TO.N,GND*%
X78100000Y-97600000D03*
X73100000Y-97600000D03*
%TD*%
D13*
%TO.P,J2,1,GND*%
%TO.N,GND*%
X116600000Y-118200000D03*
D14*
%TO.P,J2,2,GPIO0*%
%TO.N,/GPIO0*%
X118600000Y-118200000D03*
%TO.P,J2,3,RXD*%
%TO.N,/RXD*%
X120600000Y-118200000D03*
%TO.P,J2,4,TXD*%
%TO.N,/TXD*%
X122600000Y-118200000D03*
%TO.P,J2,5,RST*%
%TO.N,/EN*%
X124600000Y-118200000D03*
%TD*%
D10*
%TO.P,H4,1*%
%TO.N,N/C*%
X141875000Y-75000000D03*
X138674175Y-73674175D03*
X141325825Y-76325825D03*
X138125000Y-75000000D03*
X140000000Y-76875000D03*
X140000000Y-73125000D03*
D11*
X140000000Y-75000000D03*
D10*
X138674175Y-76325825D03*
X141325825Y-73674175D03*
%TD*%
%TO.P,H1,1*%
%TO.N,N/C*%
X66325825Y-76325825D03*
X63674175Y-73674175D03*
X63674175Y-76325825D03*
X66325825Y-73674175D03*
X66875000Y-75000000D03*
X65000000Y-76875000D03*
D11*
X65000000Y-75000000D03*
D10*
X65000000Y-73125000D03*
X63125000Y-75000000D03*
%TD*%
%TO.P,H3,1*%
%TO.N,N/C*%
X63674175Y-123674175D03*
D11*
X65000000Y-125000000D03*
D10*
X66325825Y-126325825D03*
X65000000Y-123125000D03*
X63674175Y-126325825D03*
X63125000Y-125000000D03*
X66875000Y-125000000D03*
X65000000Y-126875000D03*
X66325825Y-123674175D03*
%TD*%
D15*
%TO.P,R6,1*%
%TO.N,/nRST*%
X128300000Y-97110000D03*
%TO.P,R6,2*%
%TO.N,Net-(R5-Pad2)*%
X128300000Y-96090000D03*
%TD*%
D16*
%TO.P,SW2,1,1*%
%TO.N,Net-(R5-Pad2)*%
X128925000Y-91400000D03*
%TO.P,SW2,2,2*%
%TO.N,GND*%
X133075000Y-91400000D03*
%TD*%
D17*
%TO.P,R2,1*%
%TO.N,+3V3*%
X117700000Y-96190000D03*
%TO.P,R2,2*%
%TO.N,Net-(D1-Pad2)*%
X117700000Y-97210000D03*
%TD*%
D15*
%TO.P,R5,1*%
%TO.N,/GPIO16*%
X120000000Y-97210000D03*
%TO.P,R5,2*%
%TO.N,Net-(R5-Pad2)*%
X120000000Y-96190000D03*
%TD*%
%TO.P,R7,2*%
%TO.N,Net-(R7-Pad2)*%
X121400000Y-96200000D03*
%TO.P,R7,1*%
%TO.N,/GPIO0*%
X121400000Y-97220000D03*
%TD*%
D18*
%TO.P,D1,2,A*%
%TO.N,Net-(D1-Pad2)*%
X118900000Y-96215000D03*
%TO.P,D1,1,K*%
%TO.N,/GPIO16*%
X118900000Y-97185000D03*
%TD*%
D16*
%TO.P,SW3,1,1*%
%TO.N,Net-(R7-Pad2)*%
X128925000Y-86000000D03*
%TO.P,SW3,2,2*%
%TO.N,GND*%
X133075000Y-86000000D03*
%TD*%
D19*
%TO.N,Net-(C11-Pad1)*%
X96100000Y-105200000D03*
X88600000Y-105200000D03*
X103600000Y-105200000D03*
%TO.N,+BATT*%
X93800000Y-116700000D03*
X93800000Y-115500000D03*
%TO.N,+3V3*%
X101300000Y-105100000D03*
X93800000Y-105100000D03*
X93800000Y-105865000D03*
%TO.N,Net-(C11-Pad1)*%
X96750000Y-116095000D03*
X96750000Y-115200000D03*
X96750000Y-114350000D03*
X96750000Y-113490149D03*
%TO.N,GND*%
X133100000Y-91400000D03*
X133100000Y-86000000D03*
X121300000Y-89300000D03*
%TO.N,+3V3*%
X120690742Y-90817346D03*
X112400000Y-99400000D03*
X106599008Y-100892949D03*
X108100000Y-100900000D03*
X107400000Y-100900000D03*
%TO.N,+BATT*%
X82225000Y-108250000D03*
%TO.N,/GPIO2*%
X103425000Y-90075000D03*
X107910000Y-113200000D03*
%TO.N,+3V3*%
X104175000Y-85875000D03*
%TO.N,Net-(R5-Pad2)*%
X121350000Y-94825000D03*
X124450000Y-91700000D03*
X120000000Y-96190000D03*
X128925000Y-91400000D03*
%TO.N,/GPIO0*%
X106925000Y-90750000D03*
%TO.N,GND*%
X91575000Y-105100000D03*
X91600000Y-106600000D03*
X99075000Y-106475000D03*
X99075000Y-105225000D03*
X108250000Y-103900000D03*
X106675000Y-103900000D03*
X107425000Y-103900000D03*
X99075000Y-105850000D03*
X91600000Y-105800000D03*
X99200000Y-86100000D03*
X99200000Y-87500000D03*
%TO.N,/GPIO12*%
X116400000Y-99400000D03*
X110700000Y-96600000D03*
%TO.N,+3V3*%
X117700000Y-96200000D03*
%TO.N,/GPIO16*%
X120400000Y-99400000D03*
%TO.N,GND*%
X124300000Y-96200000D03*
%TO.N,+3V3*%
X125800000Y-96200000D03*
X122800000Y-96200000D03*
%TO.N,GND*%
X109500000Y-114600000D03*
X110300000Y-114600000D03*
X111200000Y-114600000D03*
X112400000Y-114600000D03*
%TO.N,/nRST*%
X126400000Y-99400000D03*
%TO.N,/EN*%
X122400000Y-99400000D03*
%TO.N,/GPIO0*%
X118400000Y-114700000D03*
%TO.N,GND*%
X106800000Y-110000000D03*
%TO.N,+BATT*%
X82300000Y-92100000D03*
%TO.N,GND*%
X102700000Y-108000000D03*
%TO.N,+3V3*%
X101300000Y-99565000D03*
X101300000Y-105865000D03*
X93800000Y-99565000D03*
%TO.N,Net-(C11-Pad1)*%
X104080000Y-108000000D03*
X96300000Y-108000000D03*
X88980000Y-108000000D03*
X88600000Y-105865000D03*
X103600000Y-105900000D03*
X96100000Y-105900000D03*
%TO.N,+BATT*%
X93800000Y-116100000D03*
%TD*%
D20*
%TO.N,+3V3*%
X93800000Y-105865000D02*
X93800000Y-99565000D01*
%TO.N,GND*%
X133075000Y-91400000D02*
X133100000Y-91400000D01*
X133075000Y-86000000D02*
X133100000Y-86000000D01*
D21*
%TO.N,/GPIO0*%
X121400000Y-111700000D02*
X118400000Y-114700000D01*
X121400000Y-97220000D02*
X121400000Y-111700000D01*
X120619520Y-96439520D02*
X120619520Y-95875016D01*
X115494504Y-90750000D02*
X106925000Y-90750000D01*
X120619520Y-95875016D02*
X115494504Y-90750000D01*
X121400000Y-97220000D02*
X120619520Y-96439520D01*
%TO.N,/GPIO2*%
X104125000Y-90775000D02*
X103425000Y-90075000D01*
X104125000Y-96200000D02*
X104125000Y-90775000D01*
X104125000Y-104200000D02*
X104125000Y-96200000D01*
X105375000Y-105450000D02*
X104125000Y-104200000D01*
X107910000Y-107985000D02*
X105375000Y-105450000D01*
X107910000Y-113200000D02*
X107910000Y-107985000D01*
%TO.N,Net-(R5-Pad2)*%
X121362635Y-94825000D02*
X124450000Y-91737635D01*
X124450000Y-91737635D02*
X124450000Y-91700000D01*
X121350000Y-94825000D02*
X121362635Y-94825000D01*
%TO.N,Net-(R7-Pad2)*%
X128000000Y-89600000D02*
X128000000Y-86925000D01*
X128000000Y-86925000D02*
X128925000Y-86000000D01*
X121400000Y-96200000D02*
X128000000Y-89600000D01*
%TO.N,/GPIO12*%
X113600000Y-96600000D02*
X110700000Y-96600000D01*
X116400000Y-99400000D02*
X113600000Y-96600000D01*
%TO.N,+3V3*%
X117700000Y-96190000D02*
X117700000Y-96200000D01*
%TO.N,Net-(D1-Pad2)*%
X117905000Y-97210000D02*
X118900000Y-96215000D01*
%TO.N,/GPIO16*%
X118925000Y-97210000D02*
X118900000Y-97185000D01*
X120000000Y-97210000D02*
X118925000Y-97210000D01*
X120400000Y-97610000D02*
X120000000Y-97210000D01*
X120400000Y-99400000D02*
X120400000Y-97610000D01*
%TO.N,Net-(R5-Pad2)*%
X128925000Y-95465000D02*
X128925000Y-91400000D01*
X128300000Y-96090000D02*
X128925000Y-95465000D01*
%TO.N,/nRST*%
X126400000Y-99010000D02*
X126400000Y-99400000D01*
X128300000Y-97110000D02*
X126400000Y-99010000D01*
%TO.N,/EN*%
X122400000Y-100800000D02*
X122400000Y-99400000D01*
X124600000Y-103000000D02*
X122400000Y-100800000D01*
X124600000Y-118200000D02*
X124600000Y-103000000D01*
%TO.N,/GPIO0*%
X118600000Y-114900000D02*
X118600000Y-118200000D01*
X118400000Y-114700000D02*
X118600000Y-114900000D01*
D20*
%TO.N,+3V3*%
X101300000Y-105865000D02*
X101300000Y-99565000D01*
%TD*%
%TA.AperFunction,Conductor*%
%TO.N,GND*%
G36*
X127659532Y-90905183D02*
G01*
X127716368Y-90947730D01*
X127741179Y-91014250D01*
X127741500Y-91023239D01*
X127741500Y-92348134D01*
X127748255Y-92410316D01*
X127799385Y-92546705D01*
X127886739Y-92663261D01*
X128003295Y-92750615D01*
X128139684Y-92801745D01*
X128201866Y-92808500D01*
X128201742Y-92809639D01*
X128264234Y-92831711D01*
X128307768Y-92887794D01*
X128316500Y-92933884D01*
X128316500Y-95160761D01*
X128296498Y-95228882D01*
X128279595Y-95249856D01*
X128254855Y-95274596D01*
X128192543Y-95308622D01*
X128165760Y-95311501D01*
X128050012Y-95311501D01*
X128013534Y-95314371D01*
X127961350Y-95329532D01*
X127865017Y-95357519D01*
X127865015Y-95357520D01*
X127857404Y-95359731D01*
X127850582Y-95363766D01*
X127850581Y-95363766D01*
X127764918Y-95414427D01*
X127717459Y-95442494D01*
X127602494Y-95557459D01*
X127598460Y-95564280D01*
X127563231Y-95623850D01*
X127519731Y-95697404D01*
X127517520Y-95705015D01*
X127517519Y-95705017D01*
X127507531Y-95739396D01*
X127474371Y-95853534D01*
X127473867Y-95859941D01*
X127473866Y-95859945D01*
X127472182Y-95881348D01*
X127471500Y-95890011D01*
X127471501Y-96289988D01*
X127474371Y-96326466D01*
X127519731Y-96482596D01*
X127523767Y-96489421D01*
X127523769Y-96489425D01*
X127551231Y-96535861D01*
X127568691Y-96604677D01*
X127551231Y-96664139D01*
X127523769Y-96710575D01*
X127523767Y-96710579D01*
X127519731Y-96717404D01*
X127474371Y-96873534D01*
X127473867Y-96879941D01*
X127473866Y-96879945D01*
X127471693Y-96907556D01*
X127471500Y-96910011D01*
X127471500Y-97025761D01*
X127451498Y-97093882D01*
X127434595Y-97114856D01*
X126003766Y-98545685D01*
X125991375Y-98556552D01*
X125966013Y-98576013D01*
X125941526Y-98607925D01*
X125941523Y-98607928D01*
X125941517Y-98607936D01*
X125883361Y-98683726D01*
X125868476Y-98703124D01*
X125808021Y-98849075D01*
X125807162Y-98851150D01*
X125793754Y-98952999D01*
X125791888Y-98967170D01*
X125772878Y-99018978D01*
X125738838Y-99071797D01*
X125735467Y-99081060D01*
X125684966Y-99219809D01*
X125684965Y-99219814D01*
X125682556Y-99226432D01*
X125661931Y-99389694D01*
X125677989Y-99553468D01*
X125729932Y-99709615D01*
X125815179Y-99850373D01*
X125929491Y-99968747D01*
X126067189Y-100058854D01*
X126221428Y-100116215D01*
X126228409Y-100117146D01*
X126228411Y-100117147D01*
X126377561Y-100137048D01*
X126377565Y-100137048D01*
X126384542Y-100137979D01*
X126391553Y-100137341D01*
X126391557Y-100137341D01*
X126541403Y-100123704D01*
X126541404Y-100123704D01*
X126548424Y-100123065D01*
X126626563Y-100097676D01*
X126698230Y-100074390D01*
X126698233Y-100074389D01*
X126704929Y-100072213D01*
X126846279Y-99987951D01*
X126965449Y-99874468D01*
X126983225Y-99847713D01*
X127052614Y-99743275D01*
X127052615Y-99743273D01*
X127056515Y-99737403D01*
X127114951Y-99583568D01*
X127137853Y-99420610D01*
X127138141Y-99400000D01*
X127119798Y-99236466D01*
X127118780Y-99233543D01*
X127123096Y-99164242D01*
X127152457Y-99118092D01*
X127384905Y-98885644D01*
X127447217Y-98851618D01*
X127518032Y-98856683D01*
X127574868Y-98899230D01*
X127599679Y-98965750D01*
X127600000Y-98974739D01*
X127600000Y-119674000D01*
X127579998Y-119742121D01*
X127526342Y-119788614D01*
X127474000Y-119800000D01*
X121432791Y-119800000D01*
X121404596Y-119796805D01*
X120679862Y-119630415D01*
X120617945Y-119595677D01*
X120584637Y-119532978D01*
X120590514Y-119462225D01*
X120633711Y-119405882D01*
X120689976Y-119382914D01*
X120877466Y-119355730D01*
X120882930Y-119353875D01*
X120882935Y-119353874D01*
X121077963Y-119287671D01*
X121077968Y-119287669D01*
X121083435Y-119285813D01*
X121273213Y-119179532D01*
X121440446Y-119040446D01*
X121500252Y-118968537D01*
X121559189Y-118928953D01*
X121630171Y-118927517D01*
X121692913Y-118967258D01*
X121696204Y-118971914D01*
X121700347Y-118975950D01*
X121700348Y-118975951D01*
X121766554Y-119040446D01*
X121852009Y-119123692D01*
X122032863Y-119244536D01*
X122038171Y-119246817D01*
X122038172Y-119246817D01*
X122227409Y-119328119D01*
X122227412Y-119328120D01*
X122232712Y-119330397D01*
X122238342Y-119331671D01*
X122367324Y-119360857D01*
X122444860Y-119378402D01*
X122450631Y-119378629D01*
X122450633Y-119378629D01*
X122523620Y-119381496D01*
X122662205Y-119386941D01*
X122877466Y-119355730D01*
X122882930Y-119353875D01*
X122882935Y-119353874D01*
X123077963Y-119287671D01*
X123077968Y-119287669D01*
X123083435Y-119285813D01*
X123273213Y-119179532D01*
X123440446Y-119040446D01*
X123500252Y-118968537D01*
X123559189Y-118928953D01*
X123630171Y-118927517D01*
X123692913Y-118967258D01*
X123696204Y-118971914D01*
X123700347Y-118975950D01*
X123700348Y-118975951D01*
X123766554Y-119040446D01*
X123852009Y-119123692D01*
X124032863Y-119244536D01*
X124038171Y-119246817D01*
X124038172Y-119246817D01*
X124227409Y-119328119D01*
X124227412Y-119328120D01*
X124232712Y-119330397D01*
X124238342Y-119331671D01*
X124367324Y-119360857D01*
X124444860Y-119378402D01*
X124450631Y-119378629D01*
X124450633Y-119378629D01*
X124523620Y-119381496D01*
X124662205Y-119386941D01*
X124877466Y-119355730D01*
X124882930Y-119353875D01*
X124882935Y-119353874D01*
X125077963Y-119287671D01*
X125077968Y-119287669D01*
X125083435Y-119285813D01*
X125273213Y-119179532D01*
X125440446Y-119040446D01*
X125579532Y-118873213D01*
X125685813Y-118683435D01*
X125687669Y-118677968D01*
X125687671Y-118677963D01*
X125753874Y-118482935D01*
X125753875Y-118482930D01*
X125755730Y-118477466D01*
X125786941Y-118262205D01*
X125788570Y-118200000D01*
X125768667Y-117983400D01*
X125709626Y-117774055D01*
X125613423Y-117578974D01*
X125574757Y-117527193D01*
X125486733Y-117409315D01*
X125486732Y-117409314D01*
X125483280Y-117404691D01*
X125454446Y-117378037D01*
X125327796Y-117260963D01*
X125327793Y-117260961D01*
X125323556Y-117257044D01*
X125267265Y-117221527D01*
X125220326Y-117168260D01*
X125208500Y-117114965D01*
X125208500Y-103048136D01*
X125209578Y-103031690D01*
X125212672Y-103008188D01*
X125213750Y-103000000D01*
X125208500Y-102960120D01*
X125208500Y-102960115D01*
X125192838Y-102841150D01*
X125192838Y-102841149D01*
X125131524Y-102693124D01*
X125058478Y-102597929D01*
X125058474Y-102597925D01*
X125056283Y-102595070D01*
X125039016Y-102572566D01*
X125039013Y-102572563D01*
X125033987Y-102566013D01*
X125027432Y-102560983D01*
X125008621Y-102546548D01*
X124996230Y-102535681D01*
X123045405Y-100584856D01*
X123011379Y-100522544D01*
X123008500Y-100495761D01*
X123008500Y-99847713D01*
X123029552Y-99777985D01*
X123056515Y-99737403D01*
X123114951Y-99583568D01*
X123137853Y-99420610D01*
X123138141Y-99400000D01*
X123119798Y-99236466D01*
X123113998Y-99219809D01*
X123067998Y-99087717D01*
X123065680Y-99081060D01*
X123056192Y-99065875D01*
X122982209Y-98947479D01*
X122978476Y-98941505D01*
X122920499Y-98883122D01*
X122867486Y-98829737D01*
X122867482Y-98829734D01*
X122862522Y-98824739D01*
X122723580Y-98736563D01*
X122631849Y-98703899D01*
X122575189Y-98683723D01*
X122575187Y-98683722D01*
X122568555Y-98681361D01*
X122561569Y-98680528D01*
X122561565Y-98680527D01*
X122447071Y-98666875D01*
X122405153Y-98661877D01*
X122398150Y-98662613D01*
X122398149Y-98662613D01*
X122354935Y-98667155D01*
X122241495Y-98679078D01*
X122175105Y-98701679D01*
X122104174Y-98704697D01*
X122042870Y-98668887D01*
X122010658Y-98605619D01*
X122008500Y-98582401D01*
X122008500Y-97893737D01*
X122028502Y-97825616D01*
X122045405Y-97804642D01*
X122097506Y-97752541D01*
X122180269Y-97612596D01*
X122183929Y-97600000D01*
X122223834Y-97462644D01*
X122225629Y-97456466D01*
X122226922Y-97440047D01*
X122228307Y-97422444D01*
X122228307Y-97422438D01*
X122228500Y-97419989D01*
X122228499Y-97020012D01*
X122225629Y-96983534D01*
X122222724Y-96973534D01*
X122219229Y-96961502D01*
X122219432Y-96890506D01*
X122257987Y-96830890D01*
X122322652Y-96801583D01*
X122392897Y-96811888D01*
X122409208Y-96820913D01*
X122467189Y-96858854D01*
X122621428Y-96916215D01*
X122628409Y-96917146D01*
X122628411Y-96917147D01*
X122777561Y-96937048D01*
X122777565Y-96937048D01*
X122784542Y-96937979D01*
X122791553Y-96937341D01*
X122791557Y-96937341D01*
X122941403Y-96923704D01*
X122941404Y-96923704D01*
X122948424Y-96923065D01*
X122988600Y-96910011D01*
X123098230Y-96874390D01*
X123098233Y-96874389D01*
X123104929Y-96872213D01*
X123246279Y-96787951D01*
X123365449Y-96674468D01*
X123381458Y-96650373D01*
X123452614Y-96543275D01*
X123452615Y-96543273D01*
X123456515Y-96537403D01*
X123514951Y-96383568D01*
X123537853Y-96220610D01*
X123538141Y-96200000D01*
X123536985Y-96189694D01*
X125061931Y-96189694D01*
X125077989Y-96353468D01*
X125129932Y-96509615D01*
X125215179Y-96650373D01*
X125220070Y-96655438D01*
X125220071Y-96655439D01*
X125232778Y-96668597D01*
X125329491Y-96768747D01*
X125467189Y-96858854D01*
X125621428Y-96916215D01*
X125628409Y-96917146D01*
X125628411Y-96917147D01*
X125777561Y-96937048D01*
X125777565Y-96937048D01*
X125784542Y-96937979D01*
X125791553Y-96937341D01*
X125791557Y-96937341D01*
X125941403Y-96923704D01*
X125941404Y-96923704D01*
X125948424Y-96923065D01*
X125988600Y-96910011D01*
X126098230Y-96874390D01*
X126098233Y-96874389D01*
X126104929Y-96872213D01*
X126246279Y-96787951D01*
X126365449Y-96674468D01*
X126381458Y-96650373D01*
X126452614Y-96543275D01*
X126452615Y-96543273D01*
X126456515Y-96537403D01*
X126514951Y-96383568D01*
X126537853Y-96220610D01*
X126538141Y-96200000D01*
X126519798Y-96036466D01*
X126513998Y-96019809D01*
X126484743Y-95935801D01*
X126465680Y-95881060D01*
X126456940Y-95867072D01*
X126382209Y-95747479D01*
X126378476Y-95741505D01*
X126301788Y-95664280D01*
X126267486Y-95629737D01*
X126267482Y-95629734D01*
X126262522Y-95624739D01*
X126123580Y-95536563D01*
X126034618Y-95504885D01*
X125975189Y-95483723D01*
X125975187Y-95483722D01*
X125968555Y-95481361D01*
X125961569Y-95480528D01*
X125961565Y-95480527D01*
X125847071Y-95466875D01*
X125805153Y-95461877D01*
X125798150Y-95462613D01*
X125798149Y-95462613D01*
X125775439Y-95465000D01*
X125641495Y-95479078D01*
X125634827Y-95481348D01*
X125492382Y-95529840D01*
X125492379Y-95529841D01*
X125485715Y-95532110D01*
X125345555Y-95618337D01*
X125227982Y-95733473D01*
X125138838Y-95871797D01*
X125136427Y-95878420D01*
X125136426Y-95878423D01*
X125084966Y-96019809D01*
X125084965Y-96019814D01*
X125082556Y-96026432D01*
X125061931Y-96189694D01*
X123536985Y-96189694D01*
X123519798Y-96036466D01*
X123513998Y-96019809D01*
X123484743Y-95935801D01*
X123465680Y-95881060D01*
X123456940Y-95867072D01*
X123382209Y-95747479D01*
X123378476Y-95741505D01*
X123301788Y-95664280D01*
X123267486Y-95629737D01*
X123267482Y-95629734D01*
X123262522Y-95624739D01*
X123134265Y-95543344D01*
X123087467Y-95489955D01*
X123076962Y-95419740D01*
X123106086Y-95354991D01*
X123112685Y-95347864D01*
X127526405Y-90934144D01*
X127588717Y-90900118D01*
X127659532Y-90905183D01*
G37*
%TD.AperFunction*%
%TA.AperFunction,Conductor*%
G36*
X134542121Y-80820002D02*
G01*
X134588614Y-80873658D01*
X134600000Y-80926000D01*
X134600000Y-94442360D01*
X134596743Y-94470824D01*
X134512095Y-94835849D01*
X134504651Y-94867948D01*
X134502805Y-94874708D01*
X134501497Y-94877961D01*
X134500397Y-94882705D01*
X134499762Y-94885440D01*
X134499761Y-94885447D01*
X134498664Y-94890177D01*
X134498308Y-94895023D01*
X134498307Y-94895027D01*
X134495213Y-94937104D01*
X134494053Y-94947237D01*
X134492000Y-94960423D01*
X134492000Y-94976156D01*
X134491661Y-94985398D01*
X134487991Y-95035300D01*
X134489871Y-95044076D01*
X134490489Y-95053030D01*
X134490482Y-95053030D01*
X134492000Y-95067355D01*
X134492000Y-97474000D01*
X134471998Y-97542121D01*
X134418342Y-97588614D01*
X134366000Y-97600000D01*
X129219787Y-97600000D01*
X129151666Y-97579998D01*
X129105173Y-97526342D01*
X129095069Y-97456068D01*
X129098790Y-97438847D01*
X129123834Y-97352644D01*
X129125629Y-97346466D01*
X129126348Y-97337341D01*
X129128307Y-97312444D01*
X129128307Y-97312438D01*
X129128500Y-97309989D01*
X129128499Y-96910012D01*
X129125629Y-96873534D01*
X129080269Y-96717404D01*
X129076233Y-96710579D01*
X129076231Y-96710575D01*
X129048769Y-96664139D01*
X129031309Y-96595323D01*
X129048769Y-96535861D01*
X129076231Y-96489425D01*
X129076233Y-96489421D01*
X129080269Y-96482596D01*
X129125629Y-96326466D01*
X129126135Y-96320047D01*
X129128307Y-96292444D01*
X129128307Y-96292438D01*
X129128500Y-96289989D01*
X129128500Y-96174239D01*
X129148502Y-96106118D01*
X129165405Y-96085144D01*
X129321234Y-95929315D01*
X129333625Y-95918448D01*
X129352437Y-95904013D01*
X129358987Y-95898987D01*
X129383474Y-95867075D01*
X129383477Y-95867072D01*
X129456523Y-95771876D01*
X129456524Y-95771875D01*
X129474472Y-95728546D01*
X129514678Y-95631479D01*
X129517838Y-95623850D01*
X129533500Y-95504885D01*
X129533500Y-95504878D01*
X129538750Y-95465000D01*
X129534578Y-95433307D01*
X129533500Y-95416864D01*
X129533500Y-92933884D01*
X129553502Y-92865763D01*
X129607158Y-92819270D01*
X129648207Y-92809174D01*
X129648134Y-92808500D01*
X129710316Y-92801745D01*
X129846705Y-92750615D01*
X129963261Y-92663261D01*
X130050615Y-92546705D01*
X130101745Y-92410316D01*
X130108500Y-92348134D01*
X130108500Y-92344669D01*
X131892001Y-92344669D01*
X131892371Y-92351490D01*
X131897895Y-92402352D01*
X131901521Y-92417604D01*
X131946676Y-92538054D01*
X131955214Y-92553649D01*
X132031715Y-92655724D01*
X132044276Y-92668285D01*
X132146351Y-92744786D01*
X132161946Y-92753324D01*
X132282394Y-92798478D01*
X132297649Y-92802105D01*
X132348514Y-92807631D01*
X132355328Y-92808000D01*
X132802885Y-92808000D01*
X132818124Y-92803525D01*
X132819329Y-92802135D01*
X132821000Y-92794452D01*
X132821000Y-92789884D01*
X133329000Y-92789884D01*
X133333475Y-92805123D01*
X133334865Y-92806328D01*
X133342548Y-92807999D01*
X133794669Y-92807999D01*
X133801490Y-92807629D01*
X133852352Y-92802105D01*
X133867604Y-92798479D01*
X133988054Y-92753324D01*
X134003649Y-92744786D01*
X134105724Y-92668285D01*
X134118285Y-92655724D01*
X134194786Y-92553649D01*
X134203324Y-92538054D01*
X134248478Y-92417606D01*
X134252105Y-92402351D01*
X134257631Y-92351486D01*
X134258000Y-92344672D01*
X134258000Y-91672115D01*
X134253525Y-91656876D01*
X134252135Y-91655671D01*
X134244452Y-91654000D01*
X133347115Y-91654000D01*
X133331876Y-91658475D01*
X133330671Y-91659865D01*
X133329000Y-91667548D01*
X133329000Y-92789884D01*
X132821000Y-92789884D01*
X132821000Y-91672115D01*
X132816525Y-91656876D01*
X132815135Y-91655671D01*
X132807452Y-91654000D01*
X131910116Y-91654000D01*
X131894877Y-91658475D01*
X131893672Y-91659865D01*
X131892001Y-91667548D01*
X131892001Y-92344669D01*
X130108500Y-92344669D01*
X130108500Y-91127885D01*
X131892000Y-91127885D01*
X131896475Y-91143124D01*
X131897865Y-91144329D01*
X131905548Y-91146000D01*
X132802885Y-91146000D01*
X132818124Y-91141525D01*
X132819329Y-91140135D01*
X132821000Y-91132452D01*
X132821000Y-91127885D01*
X133329000Y-91127885D01*
X133333475Y-91143124D01*
X133334865Y-91144329D01*
X133342548Y-91146000D01*
X134239884Y-91146000D01*
X134255123Y-91141525D01*
X134256328Y-91140135D01*
X134257999Y-91132452D01*
X134257999Y-90455331D01*
X134257629Y-90448510D01*
X134252105Y-90397648D01*
X134248479Y-90382396D01*
X134203324Y-90261946D01*
X134194786Y-90246351D01*
X134118285Y-90144276D01*
X134105724Y-90131715D01*
X134003649Y-90055214D01*
X133988054Y-90046676D01*
X133867606Y-90001522D01*
X133852351Y-89997895D01*
X133801486Y-89992369D01*
X133794672Y-89992000D01*
X133347115Y-89992000D01*
X133331876Y-89996475D01*
X133330671Y-89997865D01*
X133329000Y-90005548D01*
X133329000Y-91127885D01*
X132821000Y-91127885D01*
X132821000Y-90010116D01*
X132816525Y-89994877D01*
X132815135Y-89993672D01*
X132807452Y-89992001D01*
X132355331Y-89992001D01*
X132348510Y-89992371D01*
X132297648Y-89997895D01*
X132282396Y-90001521D01*
X132161946Y-90046676D01*
X132146351Y-90055214D01*
X132044276Y-90131715D01*
X132031715Y-90144276D01*
X131955214Y-90246351D01*
X131946676Y-90261946D01*
X131901522Y-90382394D01*
X131897895Y-90397649D01*
X131892369Y-90448514D01*
X131892000Y-90455328D01*
X131892000Y-91127885D01*
X130108500Y-91127885D01*
X130108500Y-90451866D01*
X130101745Y-90389684D01*
X130050615Y-90253295D01*
X129963261Y-90136739D01*
X129846705Y-90049385D01*
X129710316Y-89998255D01*
X129648134Y-89991500D01*
X128685044Y-89991500D01*
X128616923Y-89971498D01*
X128570430Y-89917842D01*
X128560326Y-89847568D01*
X128568635Y-89817282D01*
X128589678Y-89766480D01*
X128589679Y-89766477D01*
X128592838Y-89758850D01*
X128613751Y-89600000D01*
X128609578Y-89568301D01*
X128608500Y-89551856D01*
X128608500Y-87534500D01*
X128628502Y-87466379D01*
X128682158Y-87419886D01*
X128734500Y-87408500D01*
X129648134Y-87408500D01*
X129710316Y-87401745D01*
X129846705Y-87350615D01*
X129963261Y-87263261D01*
X130050615Y-87146705D01*
X130101745Y-87010316D01*
X130108500Y-86948134D01*
X130108500Y-86944669D01*
X131892001Y-86944669D01*
X131892371Y-86951490D01*
X131897895Y-87002352D01*
X131901521Y-87017604D01*
X131946676Y-87138054D01*
X131955214Y-87153649D01*
X132031715Y-87255724D01*
X132044276Y-87268285D01*
X132146351Y-87344786D01*
X132161946Y-87353324D01*
X132282394Y-87398478D01*
X132297649Y-87402105D01*
X132348514Y-87407631D01*
X132355328Y-87408000D01*
X132802885Y-87408000D01*
X132818124Y-87403525D01*
X132819329Y-87402135D01*
X132821000Y-87394452D01*
X132821000Y-87389884D01*
X133329000Y-87389884D01*
X133333475Y-87405123D01*
X133334865Y-87406328D01*
X133342548Y-87407999D01*
X133794669Y-87407999D01*
X133801490Y-87407629D01*
X133852352Y-87402105D01*
X133867604Y-87398479D01*
X133988054Y-87353324D01*
X134003649Y-87344786D01*
X134105724Y-87268285D01*
X134118285Y-87255724D01*
X134194786Y-87153649D01*
X134203324Y-87138054D01*
X134248478Y-87017606D01*
X134252105Y-87002351D01*
X134257631Y-86951486D01*
X134258000Y-86944672D01*
X134258000Y-86272115D01*
X134253525Y-86256876D01*
X134252135Y-86255671D01*
X134244452Y-86254000D01*
X133347115Y-86254000D01*
X133331876Y-86258475D01*
X133330671Y-86259865D01*
X133329000Y-86267548D01*
X133329000Y-87389884D01*
X132821000Y-87389884D01*
X132821000Y-86272115D01*
X132816525Y-86256876D01*
X132815135Y-86255671D01*
X132807452Y-86254000D01*
X131910116Y-86254000D01*
X131894877Y-86258475D01*
X131893672Y-86259865D01*
X131892001Y-86267548D01*
X131892001Y-86944669D01*
X130108500Y-86944669D01*
X130108500Y-85727885D01*
X131892000Y-85727885D01*
X131896475Y-85743124D01*
X131897865Y-85744329D01*
X131905548Y-85746000D01*
X132802885Y-85746000D01*
X132818124Y-85741525D01*
X132819329Y-85740135D01*
X132821000Y-85732452D01*
X132821000Y-85727885D01*
X133329000Y-85727885D01*
X133333475Y-85743124D01*
X133334865Y-85744329D01*
X133342548Y-85746000D01*
X134239884Y-85746000D01*
X134255123Y-85741525D01*
X134256328Y-85740135D01*
X134257999Y-85732452D01*
X134257999Y-85055331D01*
X134257629Y-85048510D01*
X134252105Y-84997648D01*
X134248479Y-84982396D01*
X134203324Y-84861946D01*
X134194786Y-84846351D01*
X134118285Y-84744276D01*
X134105724Y-84731715D01*
X134003649Y-84655214D01*
X133988054Y-84646676D01*
X133867606Y-84601522D01*
X133852351Y-84597895D01*
X133801486Y-84592369D01*
X133794672Y-84592000D01*
X133347115Y-84592000D01*
X133331876Y-84596475D01*
X133330671Y-84597865D01*
X133329000Y-84605548D01*
X133329000Y-85727885D01*
X132821000Y-85727885D01*
X132821000Y-84610116D01*
X132816525Y-84594877D01*
X132815135Y-84593672D01*
X132807452Y-84592001D01*
X132355331Y-84592001D01*
X132348510Y-84592371D01*
X132297648Y-84597895D01*
X132282396Y-84601521D01*
X132161946Y-84646676D01*
X132146351Y-84655214D01*
X132044276Y-84731715D01*
X132031715Y-84744276D01*
X131955214Y-84846351D01*
X131946676Y-84861946D01*
X131901522Y-84982394D01*
X131897895Y-84997649D01*
X131892369Y-85048514D01*
X131892000Y-85055328D01*
X131892000Y-85727885D01*
X130108500Y-85727885D01*
X130108500Y-85051866D01*
X130101745Y-84989684D01*
X130050615Y-84853295D01*
X129963261Y-84736739D01*
X129846705Y-84649385D01*
X129710316Y-84598255D01*
X129648134Y-84591500D01*
X128201866Y-84591500D01*
X128139684Y-84598255D01*
X128003295Y-84649385D01*
X127886739Y-84736739D01*
X127799385Y-84853295D01*
X127748255Y-84989684D01*
X127741500Y-85051866D01*
X127741500Y-86270761D01*
X127721498Y-86338882D01*
X127704595Y-86359856D01*
X127603766Y-86460685D01*
X127591375Y-86471552D01*
X127566013Y-86491013D01*
X127541526Y-86522925D01*
X127541523Y-86522928D01*
X127541517Y-86522936D01*
X127483378Y-86598704D01*
X127468476Y-86618124D01*
X127407162Y-86766149D01*
X127407162Y-86766150D01*
X127391500Y-86885115D01*
X127391500Y-86885120D01*
X127386250Y-86925000D01*
X127389296Y-86948134D01*
X127390422Y-86956690D01*
X127391500Y-86973136D01*
X127391500Y-89295761D01*
X127371498Y-89363882D01*
X127354595Y-89384856D01*
X125319544Y-91419907D01*
X125257232Y-91453933D01*
X125186417Y-91448868D01*
X125129581Y-91406321D01*
X125117576Y-91386506D01*
X125115680Y-91381060D01*
X125107266Y-91367594D01*
X125032209Y-91247479D01*
X125028476Y-91241505D01*
X124970499Y-91183122D01*
X124917486Y-91129737D01*
X124917482Y-91129734D01*
X124912522Y-91124739D01*
X124773580Y-91036563D01*
X124691962Y-91007500D01*
X124625189Y-90983723D01*
X124625187Y-90983722D01*
X124618555Y-90981361D01*
X124611569Y-90980528D01*
X124611565Y-90980527D01*
X124497071Y-90966875D01*
X124455153Y-90961877D01*
X124448150Y-90962613D01*
X124448149Y-90962613D01*
X124404935Y-90967155D01*
X124291495Y-90979078D01*
X124284827Y-90981348D01*
X124142382Y-91029840D01*
X124142379Y-91029841D01*
X124135715Y-91032110D01*
X123995555Y-91118337D01*
X123965102Y-91148159D01*
X123911783Y-91200373D01*
X123877982Y-91233473D01*
X123788838Y-91371797D01*
X123786427Y-91378420D01*
X123786426Y-91378423D01*
X123734966Y-91519809D01*
X123734965Y-91519814D01*
X123732556Y-91526432D01*
X123728906Y-91555325D01*
X123728116Y-91561578D01*
X123699734Y-91626655D01*
X123692205Y-91634881D01*
X121256913Y-94070173D01*
X121195815Y-94103624D01*
X121191495Y-94104078D01*
X121184827Y-94106348D01*
X121042382Y-94154840D01*
X121042379Y-94154841D01*
X121035715Y-94157110D01*
X120895555Y-94243337D01*
X120777982Y-94358473D01*
X120688838Y-94496797D01*
X120686427Y-94503420D01*
X120686426Y-94503423D01*
X120634966Y-94644809D01*
X120634965Y-94644814D01*
X120632556Y-94651432D01*
X120631673Y-94658424D01*
X120622611Y-94730154D01*
X120594229Y-94795231D01*
X120535170Y-94834632D01*
X120464183Y-94835849D01*
X120408510Y-94803457D01*
X116412093Y-90807040D01*
X119952673Y-90807040D01*
X119968731Y-90970814D01*
X120020674Y-91126961D01*
X120024323Y-91132986D01*
X120085181Y-91233473D01*
X120105921Y-91267719D01*
X120220233Y-91386093D01*
X120357931Y-91476200D01*
X120512170Y-91533561D01*
X120519151Y-91534492D01*
X120519153Y-91534493D01*
X120668303Y-91554394D01*
X120668307Y-91554394D01*
X120675284Y-91555325D01*
X120682295Y-91554687D01*
X120682299Y-91554687D01*
X120832145Y-91541050D01*
X120832146Y-91541050D01*
X120839166Y-91540411D01*
X120887399Y-91524739D01*
X120988972Y-91491736D01*
X120988975Y-91491735D01*
X120995671Y-91489559D01*
X121137021Y-91405297D01*
X121256191Y-91291814D01*
X121272200Y-91267719D01*
X121343356Y-91160621D01*
X121343357Y-91160619D01*
X121347257Y-91154749D01*
X121405693Y-91000914D01*
X121415077Y-90934144D01*
X121428044Y-90841880D01*
X121428045Y-90841873D01*
X121428595Y-90837956D01*
X121428883Y-90817346D01*
X121410540Y-90653812D01*
X121404740Y-90637155D01*
X121358740Y-90505063D01*
X121356422Y-90498406D01*
X121327341Y-90451866D01*
X121272951Y-90364825D01*
X121269218Y-90358851D01*
X121194364Y-90283473D01*
X121158228Y-90247083D01*
X121158224Y-90247080D01*
X121153264Y-90242085D01*
X121014322Y-90153909D01*
X120950992Y-90131358D01*
X120865931Y-90101069D01*
X120865929Y-90101068D01*
X120859297Y-90098707D01*
X120852311Y-90097874D01*
X120852307Y-90097873D01*
X120737618Y-90084198D01*
X120695895Y-90079223D01*
X120688892Y-90079959D01*
X120688891Y-90079959D01*
X120648561Y-90084198D01*
X120532237Y-90096424D01*
X120525569Y-90098694D01*
X120383124Y-90147186D01*
X120383121Y-90147187D01*
X120376457Y-90149456D01*
X120279967Y-90208817D01*
X120264267Y-90218476D01*
X120236297Y-90235683D01*
X120181447Y-90289396D01*
X120128738Y-90341013D01*
X120118724Y-90350819D01*
X120029580Y-90489143D01*
X120027169Y-90495766D01*
X120027168Y-90495769D01*
X119975708Y-90637155D01*
X119975707Y-90637160D01*
X119973298Y-90643778D01*
X119952673Y-90807040D01*
X116412093Y-90807040D01*
X115958819Y-90353766D01*
X115947952Y-90341375D01*
X115933517Y-90322563D01*
X115928491Y-90316013D01*
X115896579Y-90291526D01*
X115896576Y-90291523D01*
X115830228Y-90240612D01*
X115807933Y-90223504D01*
X115807931Y-90223503D01*
X115801380Y-90218476D01*
X115653355Y-90157162D01*
X115645168Y-90156084D01*
X115645167Y-90156084D01*
X115628645Y-90153909D01*
X115534397Y-90141501D01*
X115534395Y-90141501D01*
X115534389Y-90141500D01*
X115534387Y-90141500D01*
X115534378Y-90141499D01*
X115502693Y-90137328D01*
X115494504Y-90136250D01*
X115462811Y-90140422D01*
X115446368Y-90141500D01*
X107371753Y-90141500D01*
X107304238Y-90121885D01*
X107248580Y-90086563D01*
X107187165Y-90064694D01*
X107100189Y-90033723D01*
X107100187Y-90033722D01*
X107093555Y-90031361D01*
X107086569Y-90030528D01*
X107086565Y-90030527D01*
X106972071Y-90016875D01*
X106930153Y-90011877D01*
X106923150Y-90012613D01*
X106923149Y-90012613D01*
X106902361Y-90014798D01*
X106766495Y-90029078D01*
X106759827Y-90031348D01*
X106617382Y-90079840D01*
X106617379Y-90079841D01*
X106610715Y-90082110D01*
X106470555Y-90168337D01*
X106465522Y-90173266D01*
X106374965Y-90261946D01*
X106352982Y-90283473D01*
X106263838Y-90421797D01*
X106261427Y-90428420D01*
X106261426Y-90428423D01*
X106209966Y-90569809D01*
X106209965Y-90569814D01*
X106207556Y-90576432D01*
X106186931Y-90739694D01*
X106202989Y-90903468D01*
X106254932Y-91059615D01*
X106258581Y-91065640D01*
X106301624Y-91136711D01*
X106340179Y-91200373D01*
X106345070Y-91205438D01*
X106345071Y-91205439D01*
X106399398Y-91261696D01*
X106454491Y-91318747D01*
X106592189Y-91408854D01*
X106746428Y-91466215D01*
X106753409Y-91467146D01*
X106753411Y-91467147D01*
X106902561Y-91487048D01*
X106902565Y-91487048D01*
X106909542Y-91487979D01*
X106916553Y-91487341D01*
X106916557Y-91487341D01*
X107066403Y-91473704D01*
X107066404Y-91473704D01*
X107073424Y-91473065D01*
X107147894Y-91448868D01*
X107223230Y-91424390D01*
X107223233Y-91424389D01*
X107229929Y-91422213D01*
X107306997Y-91376271D01*
X107371515Y-91358500D01*
X115190265Y-91358500D01*
X115258386Y-91378502D01*
X115279360Y-91395405D01*
X119080360Y-95196405D01*
X119114386Y-95258717D01*
X119109321Y-95329532D01*
X119066774Y-95386368D01*
X119000254Y-95411179D01*
X118991265Y-95411500D01*
X118669125Y-95411501D01*
X118661254Y-95411501D01*
X118624063Y-95414427D01*
X118525983Y-95442922D01*
X118472513Y-95458456D01*
X118472511Y-95458457D01*
X118464900Y-95460668D01*
X118458075Y-95464704D01*
X118458071Y-95464706D01*
X118368679Y-95517572D01*
X118299863Y-95535032D01*
X118240401Y-95517572D01*
X118149425Y-95463769D01*
X118149421Y-95463767D01*
X118142596Y-95459731D01*
X118134985Y-95457520D01*
X118134983Y-95457519D01*
X117992644Y-95416166D01*
X117992645Y-95416166D01*
X117986466Y-95414371D01*
X117980059Y-95413867D01*
X117980055Y-95413866D01*
X117952444Y-95411693D01*
X117952438Y-95411693D01*
X117949989Y-95411500D01*
X117700152Y-95411500D01*
X117450012Y-95411501D01*
X117413534Y-95414371D01*
X117348346Y-95433310D01*
X117265017Y-95457519D01*
X117265015Y-95457520D01*
X117257404Y-95459731D01*
X117250582Y-95463766D01*
X117250581Y-95463766D01*
X117128776Y-95535801D01*
X117117459Y-95542494D01*
X117002494Y-95657459D01*
X116998460Y-95664280D01*
X116927451Y-95784351D01*
X116919731Y-95797404D01*
X116917520Y-95805015D01*
X116917519Y-95805017D01*
X116895427Y-95881060D01*
X116874371Y-95953534D01*
X116873867Y-95959941D01*
X116873866Y-95959945D01*
X116871796Y-95986250D01*
X116871500Y-95990011D01*
X116871501Y-96389988D01*
X116874371Y-96426466D01*
X116919731Y-96582596D01*
X116923767Y-96589421D01*
X116923769Y-96589425D01*
X116951231Y-96635861D01*
X116968691Y-96704677D01*
X116951231Y-96764139D01*
X116923769Y-96810575D01*
X116923767Y-96810579D01*
X116919731Y-96817404D01*
X116917520Y-96825015D01*
X116917519Y-96825017D01*
X116904855Y-96868607D01*
X116874371Y-96973534D01*
X116873867Y-96979941D01*
X116873866Y-96979945D01*
X116871693Y-97007556D01*
X116871500Y-97010011D01*
X116871501Y-97409988D01*
X116874371Y-97446466D01*
X116890678Y-97502596D01*
X116916194Y-97590420D01*
X116919731Y-97602596D01*
X117002494Y-97742541D01*
X117117459Y-97857506D01*
X117124280Y-97861540D01*
X117209599Y-97911997D01*
X117257404Y-97940269D01*
X117265015Y-97942480D01*
X117265017Y-97942481D01*
X117340491Y-97964408D01*
X117413534Y-97985629D01*
X117419941Y-97986133D01*
X117419945Y-97986134D01*
X117447556Y-97988307D01*
X117447562Y-97988307D01*
X117450011Y-97988500D01*
X117699848Y-97988500D01*
X117949988Y-97988499D01*
X117986466Y-97985629D01*
X118083270Y-97957505D01*
X118134983Y-97942481D01*
X118134985Y-97942480D01*
X118142596Y-97940269D01*
X118149421Y-97936233D01*
X118149425Y-97936231D01*
X118240401Y-97882428D01*
X118309217Y-97864968D01*
X118368679Y-97882428D01*
X118458071Y-97935294D01*
X118458075Y-97935296D01*
X118464900Y-97939332D01*
X118472511Y-97941543D01*
X118472513Y-97941544D01*
X118523196Y-97956268D01*
X118624063Y-97985573D01*
X118630468Y-97986077D01*
X118630473Y-97986078D01*
X118658797Y-97988307D01*
X118658805Y-97988307D01*
X118661253Y-97988500D01*
X118899855Y-97988500D01*
X119138746Y-97988499D01*
X119175937Y-97985573D01*
X119274017Y-97957078D01*
X119327487Y-97941544D01*
X119327489Y-97941543D01*
X119335100Y-97939332D01*
X119381322Y-97911997D01*
X119450137Y-97894538D01*
X119509600Y-97911998D01*
X119548997Y-97935297D01*
X119557404Y-97940269D01*
X119565015Y-97942480D01*
X119565017Y-97942481D01*
X119700653Y-97981887D01*
X119760489Y-98020100D01*
X119790166Y-98084596D01*
X119791500Y-98102884D01*
X119791500Y-98952999D01*
X119771412Y-99021253D01*
X119738838Y-99071797D01*
X119736427Y-99078420D01*
X119736426Y-99078423D01*
X119684966Y-99219809D01*
X119684965Y-99219814D01*
X119682556Y-99226432D01*
X119661931Y-99389694D01*
X119677989Y-99553468D01*
X119729932Y-99709615D01*
X119815179Y-99850373D01*
X119929491Y-99968747D01*
X120067189Y-100058854D01*
X120221428Y-100116215D01*
X120228409Y-100117146D01*
X120228411Y-100117147D01*
X120377561Y-100137048D01*
X120377565Y-100137048D01*
X120384542Y-100137979D01*
X120391553Y-100137341D01*
X120391557Y-100137341D01*
X120541403Y-100123704D01*
X120541404Y-100123704D01*
X120548424Y-100123065D01*
X120577062Y-100113760D01*
X120626564Y-100097676D01*
X120697532Y-100095649D01*
X120758330Y-100132311D01*
X120789655Y-100196024D01*
X120791500Y-100217509D01*
X120791500Y-111395761D01*
X120771498Y-111463882D01*
X120754595Y-111484856D01*
X118290717Y-113948734D01*
X118240519Y-113976210D01*
X118241495Y-113979078D01*
X118092382Y-114029840D01*
X118092379Y-114029841D01*
X118085715Y-114032110D01*
X117945555Y-114118337D01*
X117827982Y-114233473D01*
X117738838Y-114371797D01*
X117736427Y-114378420D01*
X117736426Y-114378423D01*
X117684966Y-114519809D01*
X117684965Y-114519814D01*
X117682556Y-114526432D01*
X117661931Y-114689694D01*
X117677989Y-114853468D01*
X117729932Y-115009615D01*
X117733581Y-115015640D01*
X117752864Y-115047479D01*
X117815179Y-115150373D01*
X117820070Y-115155438D01*
X117820071Y-115155439D01*
X117852882Y-115189416D01*
X117929491Y-115268747D01*
X117935388Y-115272606D01*
X117940812Y-115277093D01*
X117939828Y-115278282D01*
X117980540Y-115326054D01*
X117991500Y-115377452D01*
X117991500Y-117113157D01*
X117971498Y-117181278D01*
X117929925Y-117221441D01*
X117906342Y-117235472D01*
X117906341Y-117235473D01*
X117901376Y-117238427D01*
X117897036Y-117242233D01*
X117897032Y-117242236D01*
X117879213Y-117257863D01*
X117814809Y-117287739D01*
X117744476Y-117278052D01*
X117695310Y-117238694D01*
X117643284Y-117169275D01*
X117630724Y-117156715D01*
X117528649Y-117080214D01*
X117513054Y-117071676D01*
X117392606Y-117026522D01*
X117377351Y-117022895D01*
X117326486Y-117017369D01*
X117319672Y-117017000D01*
X116872115Y-117017000D01*
X116856876Y-117021475D01*
X116855671Y-117022865D01*
X116854000Y-117030548D01*
X116854000Y-118328000D01*
X116833998Y-118396121D01*
X116780342Y-118442614D01*
X116728000Y-118454000D01*
X115435116Y-118454000D01*
X115419877Y-118458475D01*
X115418672Y-118459865D01*
X115417001Y-118467548D01*
X115417001Y-118919669D01*
X115417371Y-118926490D01*
X115422895Y-118977352D01*
X115426521Y-118992604D01*
X115471676Y-119113054D01*
X115480214Y-119128649D01*
X115556715Y-119230724D01*
X115569277Y-119243286D01*
X115598482Y-119265174D01*
X115640997Y-119322034D01*
X115646022Y-119392852D01*
X115611963Y-119455145D01*
X115549631Y-119489135D01*
X115522917Y-119492000D01*
X85071610Y-119492000D01*
X85059442Y-119491411D01*
X85058284Y-119491299D01*
X85049567Y-119489175D01*
X85040606Y-119489583D01*
X85040604Y-119489583D01*
X84990398Y-119491870D01*
X84984665Y-119492000D01*
X84963523Y-119492000D01*
X84958348Y-119492741D01*
X84946253Y-119493880D01*
X84904203Y-119495796D01*
X84898037Y-119497046D01*
X84896687Y-119497319D01*
X84896682Y-119497320D01*
X84891913Y-119498287D01*
X84887535Y-119499907D01*
X84881691Y-119501405D01*
X83958096Y-119712463D01*
X83588886Y-119796834D01*
X83560817Y-119800000D01*
X70726000Y-119800000D01*
X70657879Y-119779998D01*
X70611386Y-119726342D01*
X70600000Y-119674000D01*
X70600000Y-116689694D01*
X93061931Y-116689694D01*
X93077989Y-116853468D01*
X93129932Y-117009615D01*
X93135417Y-117018672D01*
X93202942Y-117130167D01*
X93215179Y-117150373D01*
X93329491Y-117268747D01*
X93467189Y-117358854D01*
X93473793Y-117361310D01*
X93473795Y-117361311D01*
X93516880Y-117377334D01*
X93573757Y-117419827D01*
X93598631Y-117486323D01*
X93594892Y-117527193D01*
X93571916Y-117615401D01*
X93547898Y-117707607D01*
X93537707Y-117902064D01*
X93566825Y-118094599D01*
X93569028Y-118100585D01*
X93569029Y-118100591D01*
X93631860Y-118271360D01*
X93631862Y-118271365D01*
X93634063Y-118277346D01*
X93736674Y-118442840D01*
X93741055Y-118447473D01*
X93741056Y-118447474D01*
X93769418Y-118477466D01*
X93870466Y-118584322D01*
X94029975Y-118696011D01*
X94035838Y-118698548D01*
X94202825Y-118770810D01*
X94202829Y-118770811D01*
X94208684Y-118773345D01*
X94214931Y-118774650D01*
X94214934Y-118774651D01*
X94394557Y-118812176D01*
X94394562Y-118812177D01*
X94399293Y-118813165D01*
X94405685Y-118813500D01*
X94548663Y-118813500D01*
X94617951Y-118806462D01*
X94687378Y-118799410D01*
X94687379Y-118799410D01*
X94693727Y-118798765D01*
X94774843Y-118773345D01*
X94873451Y-118742444D01*
X94873456Y-118742442D01*
X94879541Y-118740535D01*
X94982551Y-118683435D01*
X95044271Y-118649223D01*
X95044274Y-118649221D01*
X95049850Y-118646130D01*
X95054691Y-118641981D01*
X95054695Y-118641978D01*
X95192855Y-118523560D01*
X95197698Y-118519409D01*
X95206325Y-118508288D01*
X95313131Y-118370594D01*
X95317046Y-118365547D01*
X95335522Y-118328000D01*
X95400200Y-118196556D01*
X95403018Y-118190829D01*
X95404628Y-118184649D01*
X95450492Y-118008575D01*
X95450492Y-118008572D01*
X95452102Y-118002393D01*
X95462293Y-117807936D01*
X95433175Y-117615401D01*
X95430972Y-117609415D01*
X95430971Y-117609409D01*
X95368140Y-117438640D01*
X95368138Y-117438635D01*
X95365937Y-117432654D01*
X95275594Y-117286946D01*
X95266688Y-117272582D01*
X95266687Y-117272581D01*
X95263326Y-117267160D01*
X95129534Y-117125678D01*
X95064605Y-117080214D01*
X95022814Y-117050952D01*
X94970025Y-117013989D01*
X94867136Y-116969465D01*
X94797175Y-116939190D01*
X94797171Y-116939189D01*
X94791316Y-116936655D01*
X94785069Y-116935350D01*
X94785066Y-116935349D01*
X94631003Y-116903164D01*
X94568412Y-116869655D01*
X94533874Y-116807625D01*
X94531995Y-116762291D01*
X94537302Y-116724534D01*
X94537303Y-116724527D01*
X94537853Y-116720610D01*
X94538141Y-116700000D01*
X94519798Y-116536466D01*
X94516304Y-116526432D01*
X94486615Y-116441177D01*
X94483101Y-116370267D01*
X94487818Y-116354997D01*
X94512449Y-116290154D01*
X94514951Y-116283568D01*
X94537853Y-116120610D01*
X94538141Y-116100000D01*
X94536424Y-116084694D01*
X96011931Y-116084694D01*
X96027989Y-116248468D01*
X96079932Y-116404615D01*
X96083581Y-116410640D01*
X96159785Y-116536466D01*
X96165179Y-116545373D01*
X96279491Y-116663747D01*
X96417189Y-116753854D01*
X96571428Y-116811215D01*
X96578409Y-116812146D01*
X96578411Y-116812147D01*
X96727561Y-116832048D01*
X96727565Y-116832048D01*
X96734542Y-116832979D01*
X96741553Y-116832341D01*
X96741556Y-116832341D01*
X96802207Y-116826821D01*
X96895410Y-116818339D01*
X96965062Y-116832084D01*
X97016226Y-116881305D01*
X97032657Y-116950374D01*
X97009139Y-117017362D01*
X96967917Y-117054020D01*
X96955737Y-117060772D01*
X96955730Y-117060777D01*
X96950150Y-117063870D01*
X96945309Y-117068019D01*
X96945305Y-117068022D01*
X96813168Y-117181278D01*
X96802302Y-117190591D01*
X96798391Y-117195633D01*
X96798390Y-117195634D01*
X96767488Y-117235473D01*
X96682954Y-117344453D01*
X96680138Y-117350176D01*
X96680136Y-117350179D01*
X96636608Y-117438640D01*
X96596982Y-117519171D01*
X96595373Y-117525349D01*
X96595372Y-117525351D01*
X96573477Y-117609409D01*
X96547898Y-117707607D01*
X96537707Y-117902064D01*
X96566825Y-118094599D01*
X96569028Y-118100585D01*
X96569029Y-118100591D01*
X96631860Y-118271360D01*
X96631862Y-118271365D01*
X96634063Y-118277346D01*
X96736674Y-118442840D01*
X96741055Y-118447473D01*
X96741056Y-118447474D01*
X96769418Y-118477466D01*
X96870466Y-118584322D01*
X97029975Y-118696011D01*
X97035838Y-118698548D01*
X97202825Y-118770810D01*
X97202829Y-118770811D01*
X97208684Y-118773345D01*
X97214931Y-118774650D01*
X97214934Y-118774651D01*
X97394557Y-118812176D01*
X97394562Y-118812177D01*
X97399293Y-118813165D01*
X97405685Y-118813500D01*
X97548663Y-118813500D01*
X97617951Y-118806462D01*
X97687378Y-118799410D01*
X97687379Y-118799410D01*
X97693727Y-118798765D01*
X97774843Y-118773345D01*
X97873451Y-118742444D01*
X97873456Y-118742442D01*
X97879541Y-118740535D01*
X97982551Y-118683435D01*
X98044271Y-118649223D01*
X98044274Y-118649221D01*
X98049850Y-118646130D01*
X98054691Y-118641981D01*
X98054695Y-118641978D01*
X98192855Y-118523560D01*
X98197698Y-118519409D01*
X98206325Y-118508288D01*
X98313131Y-118370594D01*
X98317046Y-118365547D01*
X98335522Y-118328000D01*
X98400200Y-118196556D01*
X98403018Y-118190829D01*
X98404628Y-118184649D01*
X98450492Y-118008575D01*
X98450492Y-118008572D01*
X98452102Y-118002393D01*
X98456007Y-117927885D01*
X115417000Y-117927885D01*
X115421475Y-117943124D01*
X115422865Y-117944329D01*
X115430548Y-117946000D01*
X116327885Y-117946000D01*
X116343124Y-117941525D01*
X116344329Y-117940135D01*
X116346000Y-117932452D01*
X116346000Y-117035116D01*
X116341525Y-117019877D01*
X116340135Y-117018672D01*
X116332452Y-117017001D01*
X115880331Y-117017001D01*
X115873510Y-117017371D01*
X115822648Y-117022895D01*
X115807396Y-117026521D01*
X115686946Y-117071676D01*
X115671351Y-117080214D01*
X115569276Y-117156715D01*
X115556715Y-117169276D01*
X115480214Y-117271351D01*
X115471676Y-117286946D01*
X115426522Y-117407394D01*
X115422895Y-117422649D01*
X115417369Y-117473514D01*
X115417000Y-117480328D01*
X115417000Y-117927885D01*
X98456007Y-117927885D01*
X98462293Y-117807936D01*
X98433175Y-117615401D01*
X98430972Y-117609415D01*
X98430971Y-117609409D01*
X98368140Y-117438640D01*
X98368138Y-117438635D01*
X98365937Y-117432654D01*
X98275594Y-117286946D01*
X98266688Y-117272582D01*
X98266687Y-117272581D01*
X98263326Y-117267160D01*
X98129534Y-117125678D01*
X98064605Y-117080214D01*
X98022814Y-117050952D01*
X97970025Y-117013989D01*
X97867136Y-116969465D01*
X97797175Y-116939190D01*
X97797171Y-116939189D01*
X97791316Y-116936655D01*
X97785069Y-116935350D01*
X97785066Y-116935349D01*
X97605443Y-116897824D01*
X97605438Y-116897823D01*
X97600707Y-116896835D01*
X97594315Y-116896500D01*
X97451337Y-116896500D01*
X97385731Y-116903164D01*
X97312622Y-116910590D01*
X97312621Y-116910590D01*
X97306273Y-116911235D01*
X97300184Y-116913143D01*
X97300185Y-116913143D01*
X97290465Y-116916189D01*
X97219480Y-116917472D01*
X97159070Y-116880174D01*
X97128415Y-116816136D01*
X97137247Y-116745691D01*
X97185049Y-116691387D01*
X97184617Y-116690818D01*
X97187427Y-116688685D01*
X97188274Y-116687723D01*
X97190232Y-116686556D01*
X97190233Y-116686555D01*
X97196279Y-116682951D01*
X97315449Y-116569468D01*
X97331458Y-116545373D01*
X97402614Y-116438275D01*
X97402615Y-116438273D01*
X97406515Y-116432403D01*
X97464951Y-116278568D01*
X97486599Y-116124534D01*
X97487302Y-116119534D01*
X97487303Y-116119527D01*
X97487853Y-116115610D01*
X97488141Y-116095000D01*
X97469798Y-115931466D01*
X97463998Y-115914809D01*
X97422249Y-115794923D01*
X97415680Y-115776060D01*
X97377417Y-115714826D01*
X97358281Y-115646458D01*
X97379322Y-115578331D01*
X97406515Y-115537403D01*
X97464951Y-115383568D01*
X97487853Y-115220610D01*
X97488141Y-115200000D01*
X97469798Y-115036466D01*
X97463998Y-115019809D01*
X97432631Y-114929737D01*
X97415680Y-114881060D01*
X97391908Y-114843016D01*
X97372772Y-114774648D01*
X97393813Y-114706521D01*
X97402615Y-114693273D01*
X97406515Y-114687403D01*
X97464951Y-114533568D01*
X97487853Y-114370610D01*
X97488141Y-114350000D01*
X97469798Y-114186466D01*
X97463998Y-114169809D01*
X97444787Y-114114645D01*
X97415680Y-114031060D01*
X97388736Y-113987941D01*
X97369600Y-113919572D01*
X97390642Y-113851444D01*
X97402618Y-113833419D01*
X97402622Y-113833412D01*
X97406515Y-113827552D01*
X97464951Y-113673717D01*
X97474072Y-113608817D01*
X97487302Y-113514683D01*
X97487303Y-113514676D01*
X97487853Y-113510759D01*
X97488141Y-113490149D01*
X97469798Y-113326615D01*
X97463998Y-113309958D01*
X97422117Y-113189694D01*
X97415680Y-113171209D01*
X97328476Y-113031654D01*
X97228573Y-112931051D01*
X97217486Y-112919886D01*
X97217482Y-112919883D01*
X97212522Y-112914888D01*
X97073580Y-112826712D01*
X97012822Y-112805077D01*
X96925189Y-112773872D01*
X96925187Y-112773871D01*
X96918555Y-112771510D01*
X96911569Y-112770677D01*
X96911565Y-112770676D01*
X96797071Y-112757024D01*
X96755153Y-112752026D01*
X96748150Y-112752762D01*
X96748149Y-112752762D01*
X96704935Y-112757304D01*
X96591495Y-112769227D01*
X96584827Y-112771497D01*
X96442382Y-112819989D01*
X96442379Y-112819990D01*
X96435715Y-112822259D01*
X96364818Y-112865875D01*
X96329315Y-112887717D01*
X96295555Y-112908486D01*
X96177982Y-113023622D01*
X96088838Y-113161946D01*
X96086427Y-113168569D01*
X96086426Y-113168572D01*
X96034966Y-113309958D01*
X96034965Y-113309963D01*
X96032556Y-113316581D01*
X96011931Y-113479843D01*
X96027989Y-113643617D01*
X96079932Y-113799764D01*
X96112785Y-113854009D01*
X96130963Y-113922637D01*
X96110919Y-113987534D01*
X96088838Y-114021797D01*
X96086427Y-114028420D01*
X96086426Y-114028423D01*
X96034966Y-114169809D01*
X96034965Y-114169814D01*
X96032556Y-114176432D01*
X96011931Y-114339694D01*
X96027989Y-114503468D01*
X96079932Y-114659615D01*
X96083582Y-114665642D01*
X96083584Y-114665646D01*
X96109707Y-114708780D01*
X96127887Y-114777409D01*
X96107843Y-114842307D01*
X96105167Y-114846459D01*
X96088838Y-114871797D01*
X96086427Y-114878420D01*
X96086426Y-114878423D01*
X96034966Y-115019809D01*
X96034965Y-115019814D01*
X96032556Y-115026432D01*
X96011931Y-115189694D01*
X96027989Y-115353468D01*
X96079932Y-115509615D01*
X96083582Y-115515642D01*
X96083583Y-115515644D01*
X96123757Y-115581980D01*
X96141936Y-115650610D01*
X96121893Y-115715506D01*
X96088838Y-115766797D01*
X96086427Y-115773422D01*
X96034966Y-115914809D01*
X96034965Y-115914814D01*
X96032556Y-115921432D01*
X96011931Y-116084694D01*
X94536424Y-116084694D01*
X94519798Y-115936466D01*
X94517481Y-115929812D01*
X94486615Y-115841177D01*
X94483101Y-115770267D01*
X94487818Y-115754997D01*
X94512449Y-115690154D01*
X94514951Y-115683568D01*
X94529741Y-115578329D01*
X94537302Y-115524534D01*
X94537303Y-115524527D01*
X94537853Y-115520610D01*
X94538141Y-115500000D01*
X94519798Y-115336466D01*
X94513998Y-115319809D01*
X94473655Y-115203962D01*
X94465680Y-115181060D01*
X94378476Y-115041505D01*
X94319771Y-114982389D01*
X94267486Y-114929737D01*
X94267482Y-114929734D01*
X94262522Y-114924739D01*
X94123580Y-114836563D01*
X94074447Y-114819068D01*
X93975189Y-114783723D01*
X93975187Y-114783722D01*
X93968555Y-114781361D01*
X93961569Y-114780528D01*
X93961565Y-114780527D01*
X93828165Y-114764621D01*
X93805153Y-114761877D01*
X93798150Y-114762613D01*
X93798149Y-114762613D01*
X93779045Y-114764621D01*
X93641495Y-114779078D01*
X93634827Y-114781348D01*
X93492382Y-114829840D01*
X93492379Y-114829841D01*
X93485715Y-114832110D01*
X93345555Y-114918337D01*
X93333914Y-114929737D01*
X93259173Y-115002929D01*
X93227982Y-115033473D01*
X93138838Y-115171797D01*
X93136427Y-115178420D01*
X93136426Y-115178423D01*
X93084966Y-115319809D01*
X93084965Y-115319814D01*
X93082556Y-115326432D01*
X93061931Y-115489694D01*
X93077989Y-115653468D01*
X93106861Y-115740260D01*
X93113762Y-115761006D01*
X93116285Y-115831958D01*
X93112605Y-115843872D01*
X93084966Y-115919809D01*
X93084965Y-115919814D01*
X93082556Y-115926432D01*
X93061931Y-116089694D01*
X93077989Y-116253468D01*
X93090193Y-116290154D01*
X93113762Y-116361006D01*
X93116285Y-116431958D01*
X93112605Y-116443872D01*
X93084966Y-116519809D01*
X93084965Y-116519814D01*
X93082556Y-116526432D01*
X93061931Y-116689694D01*
X70600000Y-116689694D01*
X70600000Y-114300000D01*
X71586835Y-114300000D01*
X71605465Y-114536711D01*
X71606619Y-114541518D01*
X71606620Y-114541524D01*
X71636419Y-114665646D01*
X71660895Y-114767594D01*
X71662788Y-114772165D01*
X71662789Y-114772167D01*
X71735681Y-114948144D01*
X71751760Y-114986963D01*
X71754346Y-114991183D01*
X71873241Y-115185202D01*
X71873245Y-115185208D01*
X71875824Y-115189416D01*
X72030031Y-115369969D01*
X72210584Y-115524176D01*
X72214792Y-115526755D01*
X72214798Y-115526759D01*
X72408817Y-115645654D01*
X72413037Y-115648240D01*
X72417607Y-115650133D01*
X72417611Y-115650135D01*
X72627833Y-115737211D01*
X72632406Y-115739105D01*
X72698601Y-115754997D01*
X72858476Y-115793380D01*
X72858482Y-115793381D01*
X72863289Y-115794535D01*
X73100000Y-115813165D01*
X73336711Y-115794535D01*
X73341518Y-115793381D01*
X73341524Y-115793380D01*
X73501399Y-115754997D01*
X73567594Y-115739105D01*
X73572167Y-115737211D01*
X73782389Y-115650135D01*
X73782393Y-115650133D01*
X73786963Y-115648240D01*
X73791183Y-115645654D01*
X73985202Y-115526759D01*
X73985208Y-115526755D01*
X73989416Y-115524176D01*
X74169969Y-115369969D01*
X74324176Y-115189416D01*
X74326755Y-115185208D01*
X74326759Y-115185202D01*
X74445654Y-114991183D01*
X74448240Y-114986963D01*
X74464320Y-114948144D01*
X74537211Y-114772167D01*
X74537212Y-114772165D01*
X74539105Y-114767594D01*
X74563581Y-114665646D01*
X74593380Y-114541524D01*
X74593381Y-114541518D01*
X74594535Y-114536711D01*
X74613165Y-114300000D01*
X76586835Y-114300000D01*
X76605465Y-114536711D01*
X76606619Y-114541518D01*
X76606620Y-114541524D01*
X76636419Y-114665646D01*
X76660895Y-114767594D01*
X76662788Y-114772165D01*
X76662789Y-114772167D01*
X76735681Y-114948144D01*
X76751760Y-114986963D01*
X76754346Y-114991183D01*
X76873241Y-115185202D01*
X76873245Y-115185208D01*
X76875824Y-115189416D01*
X77030031Y-115369969D01*
X77210584Y-115524176D01*
X77214792Y-115526755D01*
X77214798Y-115526759D01*
X77408817Y-115645654D01*
X77413037Y-115648240D01*
X77417607Y-115650133D01*
X77417611Y-115650135D01*
X77627833Y-115737211D01*
X77632406Y-115739105D01*
X77698601Y-115754997D01*
X77858476Y-115793380D01*
X77858482Y-115793381D01*
X77863289Y-115794535D01*
X78100000Y-115813165D01*
X78336711Y-115794535D01*
X78341518Y-115793381D01*
X78341524Y-115793380D01*
X78501399Y-115754997D01*
X78567594Y-115739105D01*
X78572167Y-115737211D01*
X78782389Y-115650135D01*
X78782393Y-115650133D01*
X78786963Y-115648240D01*
X78791183Y-115645654D01*
X78985202Y-115526759D01*
X78985208Y-115526755D01*
X78989416Y-115524176D01*
X79169969Y-115369969D01*
X79324176Y-115189416D01*
X79326755Y-115185208D01*
X79326759Y-115185202D01*
X79445654Y-114991183D01*
X79448240Y-114986963D01*
X79464320Y-114948144D01*
X79537211Y-114772167D01*
X79537212Y-114772165D01*
X79539105Y-114767594D01*
X79563581Y-114665646D01*
X79593380Y-114541524D01*
X79593381Y-114541518D01*
X79594535Y-114536711D01*
X79613165Y-114300000D01*
X79594535Y-114063289D01*
X79586165Y-114028423D01*
X79546044Y-113861310D01*
X79539105Y-113832406D01*
X79537211Y-113827833D01*
X79450135Y-113617611D01*
X79450133Y-113617607D01*
X79448240Y-113613037D01*
X79388555Y-113515640D01*
X79326759Y-113414798D01*
X79326755Y-113414792D01*
X79324176Y-113410584D01*
X79169969Y-113230031D01*
X78989416Y-113075824D01*
X78985208Y-113073245D01*
X78985202Y-113073241D01*
X78791183Y-112954346D01*
X78786963Y-112951760D01*
X78782393Y-112949867D01*
X78782389Y-112949865D01*
X78572167Y-112862789D01*
X78572165Y-112862788D01*
X78567594Y-112860895D01*
X78440944Y-112830489D01*
X78341524Y-112806620D01*
X78341518Y-112806619D01*
X78336711Y-112805465D01*
X78100000Y-112786835D01*
X77863289Y-112805465D01*
X77858482Y-112806619D01*
X77858476Y-112806620D01*
X77759056Y-112830489D01*
X77632406Y-112860895D01*
X77627835Y-112862788D01*
X77627833Y-112862789D01*
X77417611Y-112949865D01*
X77417607Y-112949867D01*
X77413037Y-112951760D01*
X77408817Y-112954346D01*
X77214798Y-113073241D01*
X77214792Y-113073245D01*
X77210584Y-113075824D01*
X77030031Y-113230031D01*
X76875824Y-113410584D01*
X76873245Y-113414792D01*
X76873241Y-113414798D01*
X76811445Y-113515640D01*
X76751760Y-113613037D01*
X76749867Y-113617607D01*
X76749865Y-113617611D01*
X76662789Y-113827833D01*
X76660895Y-113832406D01*
X76653956Y-113861310D01*
X76613836Y-114028423D01*
X76605465Y-114063289D01*
X76586835Y-114300000D01*
X74613165Y-114300000D01*
X74594535Y-114063289D01*
X74586165Y-114028423D01*
X74546044Y-113861310D01*
X74539105Y-113832406D01*
X74537211Y-113827833D01*
X74450135Y-113617611D01*
X74450133Y-113617607D01*
X74448240Y-113613037D01*
X74388555Y-113515640D01*
X74326759Y-113414798D01*
X74326755Y-113414792D01*
X74324176Y-113410584D01*
X74169969Y-113230031D01*
X73989416Y-113075824D01*
X73985208Y-113073245D01*
X73985202Y-113073241D01*
X73791183Y-112954346D01*
X73786963Y-112951760D01*
X73782393Y-112949867D01*
X73782389Y-112949865D01*
X73572167Y-112862789D01*
X73572165Y-112862788D01*
X73567594Y-112860895D01*
X73440944Y-112830489D01*
X73341524Y-112806620D01*
X73341518Y-112806619D01*
X73336711Y-112805465D01*
X73100000Y-112786835D01*
X72863289Y-112805465D01*
X72858482Y-112806619D01*
X72858476Y-112806620D01*
X72759056Y-112830489D01*
X72632406Y-112860895D01*
X72627835Y-112862788D01*
X72627833Y-112862789D01*
X72417611Y-112949865D01*
X72417607Y-112949867D01*
X72413037Y-112951760D01*
X72408817Y-112954346D01*
X72214798Y-113073241D01*
X72214792Y-113073245D01*
X72210584Y-113075824D01*
X72030031Y-113230031D01*
X71875824Y-113410584D01*
X71873245Y-113414792D01*
X71873241Y-113414798D01*
X71811445Y-113515640D01*
X71751760Y-113613037D01*
X71749867Y-113617607D01*
X71749865Y-113617611D01*
X71662789Y-113827833D01*
X71660895Y-113832406D01*
X71653956Y-113861310D01*
X71613836Y-114028423D01*
X71605465Y-114063289D01*
X71586835Y-114300000D01*
X70600000Y-114300000D01*
X70600000Y-109300000D01*
X71586835Y-109300000D01*
X71605465Y-109536711D01*
X71660895Y-109767594D01*
X71751760Y-109986963D01*
X71754346Y-109991183D01*
X71873241Y-110185202D01*
X71873245Y-110185208D01*
X71875824Y-110189416D01*
X72030031Y-110369969D01*
X72210584Y-110524176D01*
X72214792Y-110526755D01*
X72214798Y-110526759D01*
X72342324Y-110604907D01*
X72413037Y-110648240D01*
X72417607Y-110650133D01*
X72417611Y-110650135D01*
X72627833Y-110737211D01*
X72632406Y-110739105D01*
X72712609Y-110758360D01*
X72858476Y-110793380D01*
X72858482Y-110793381D01*
X72863289Y-110794535D01*
X73100000Y-110813165D01*
X73336711Y-110794535D01*
X73341518Y-110793381D01*
X73341524Y-110793380D01*
X73487391Y-110758360D01*
X73567594Y-110739105D01*
X73572167Y-110737211D01*
X73782389Y-110650135D01*
X73782393Y-110650133D01*
X73786963Y-110648240D01*
X73857676Y-110604907D01*
X73985202Y-110526759D01*
X73985208Y-110526755D01*
X73989416Y-110524176D01*
X74169969Y-110369969D01*
X74324176Y-110189416D01*
X74326755Y-110185208D01*
X74326759Y-110185202D01*
X74445654Y-109991183D01*
X74448240Y-109986963D01*
X74539105Y-109767594D01*
X74594535Y-109536711D01*
X74613165Y-109300000D01*
X76586835Y-109300000D01*
X76605465Y-109536711D01*
X76660895Y-109767594D01*
X76751760Y-109986963D01*
X76754346Y-109991183D01*
X76873241Y-110185202D01*
X76873245Y-110185208D01*
X76875824Y-110189416D01*
X77030031Y-110369969D01*
X77210584Y-110524176D01*
X77214792Y-110526755D01*
X77214798Y-110526759D01*
X77342324Y-110604907D01*
X77413037Y-110648240D01*
X77417607Y-110650133D01*
X77417611Y-110650135D01*
X77627833Y-110737211D01*
X77632406Y-110739105D01*
X77712609Y-110758360D01*
X77858476Y-110793380D01*
X77858482Y-110793381D01*
X77863289Y-110794535D01*
X78100000Y-110813165D01*
X78336711Y-110794535D01*
X78341518Y-110793381D01*
X78341524Y-110793380D01*
X78487391Y-110758360D01*
X78567594Y-110739105D01*
X78572167Y-110737211D01*
X78782389Y-110650135D01*
X78782393Y-110650133D01*
X78786963Y-110648240D01*
X78857676Y-110604907D01*
X78985202Y-110526759D01*
X78985208Y-110526755D01*
X78989416Y-110524176D01*
X79169969Y-110369969D01*
X79324176Y-110189416D01*
X79326755Y-110185208D01*
X79326759Y-110185202D01*
X79445654Y-109991183D01*
X79448240Y-109986963D01*
X79539105Y-109767594D01*
X79594535Y-109536711D01*
X79613165Y-109300000D01*
X79594535Y-109063289D01*
X79571454Y-108967147D01*
X79558048Y-108911310D01*
X79539105Y-108832406D01*
X79537211Y-108827833D01*
X79450135Y-108617611D01*
X79450133Y-108617607D01*
X79448240Y-108613037D01*
X79366302Y-108479327D01*
X79326759Y-108414798D01*
X79326755Y-108414792D01*
X79324176Y-108410584D01*
X79178222Y-108239694D01*
X81486931Y-108239694D01*
X81502989Y-108403468D01*
X81554932Y-108559615D01*
X81558581Y-108565640D01*
X81623125Y-108672213D01*
X81640179Y-108700373D01*
X81645070Y-108705438D01*
X81645071Y-108705439D01*
X81711561Y-108774291D01*
X81754491Y-108818747D01*
X81892189Y-108908854D01*
X82046428Y-108966215D01*
X82053409Y-108967146D01*
X82053411Y-108967147D01*
X82202561Y-108987048D01*
X82202565Y-108987048D01*
X82209542Y-108987979D01*
X82216553Y-108987341D01*
X82216557Y-108987341D01*
X82366403Y-108973704D01*
X82366404Y-108973704D01*
X82373424Y-108973065D01*
X82402062Y-108963760D01*
X82523230Y-108924390D01*
X82523233Y-108924389D01*
X82529929Y-108922213D01*
X82671279Y-108837951D01*
X82790449Y-108724468D01*
X82795313Y-108717147D01*
X82877614Y-108593275D01*
X82877615Y-108593273D01*
X82881515Y-108587403D01*
X82939951Y-108433568D01*
X82956525Y-108315640D01*
X82962302Y-108274534D01*
X82962303Y-108274527D01*
X82962853Y-108270610D01*
X82963141Y-108250000D01*
X82944798Y-108086466D01*
X82938998Y-108069809D01*
X82911099Y-107989694D01*
X88241931Y-107989694D01*
X88257989Y-108153468D01*
X88309932Y-108309615D01*
X88313581Y-108315640D01*
X88371082Y-108410584D01*
X88395179Y-108450373D01*
X88509491Y-108568747D01*
X88647189Y-108658854D01*
X88801428Y-108716215D01*
X88808409Y-108717146D01*
X88808411Y-108717147D01*
X88957561Y-108737048D01*
X88957565Y-108737048D01*
X88964542Y-108737979D01*
X88971553Y-108737341D01*
X88971557Y-108737341D01*
X89121403Y-108723704D01*
X89121404Y-108723704D01*
X89128424Y-108723065D01*
X89182671Y-108705439D01*
X89278230Y-108674390D01*
X89278233Y-108674389D01*
X89284929Y-108672213D01*
X89426279Y-108587951D01*
X89545449Y-108474468D01*
X89561458Y-108450373D01*
X89632614Y-108343275D01*
X89632615Y-108343273D01*
X89636515Y-108337403D01*
X89694951Y-108183568D01*
X89710093Y-108075824D01*
X89717302Y-108024534D01*
X89717303Y-108024527D01*
X89717853Y-108020610D01*
X89718141Y-108000000D01*
X89716985Y-107989694D01*
X95561931Y-107989694D01*
X95577989Y-108153468D01*
X95629932Y-108309615D01*
X95633581Y-108315640D01*
X95691082Y-108410584D01*
X95715179Y-108450373D01*
X95829491Y-108568747D01*
X95967189Y-108658854D01*
X96121428Y-108716215D01*
X96128409Y-108717146D01*
X96128411Y-108717147D01*
X96277561Y-108737048D01*
X96277565Y-108737048D01*
X96284542Y-108737979D01*
X96291553Y-108737341D01*
X96291557Y-108737341D01*
X96441403Y-108723704D01*
X96441404Y-108723704D01*
X96448424Y-108723065D01*
X96502671Y-108705439D01*
X96598230Y-108674390D01*
X96598233Y-108674389D01*
X96604929Y-108672213D01*
X96746279Y-108587951D01*
X96865449Y-108474468D01*
X96881458Y-108450373D01*
X96952614Y-108343275D01*
X96952615Y-108343273D01*
X96956515Y-108337403D01*
X97014951Y-108183568D01*
X97030093Y-108075824D01*
X97037302Y-108024534D01*
X97037303Y-108024527D01*
X97037853Y-108020610D01*
X97038141Y-108000000D01*
X97036985Y-107989694D01*
X103341931Y-107989694D01*
X103357989Y-108153468D01*
X103409932Y-108309615D01*
X103413581Y-108315640D01*
X103471082Y-108410584D01*
X103495179Y-108450373D01*
X103609491Y-108568747D01*
X103747189Y-108658854D01*
X103901428Y-108716215D01*
X103908409Y-108717146D01*
X103908411Y-108717147D01*
X104057561Y-108737048D01*
X104057565Y-108737048D01*
X104064542Y-108737979D01*
X104071553Y-108737341D01*
X104071557Y-108737341D01*
X104221403Y-108723704D01*
X104221404Y-108723704D01*
X104228424Y-108723065D01*
X104282671Y-108705439D01*
X104378230Y-108674390D01*
X104378233Y-108674389D01*
X104384929Y-108672213D01*
X104526279Y-108587951D01*
X104645449Y-108474468D01*
X104661458Y-108450373D01*
X104732614Y-108343275D01*
X104732615Y-108343273D01*
X104736515Y-108337403D01*
X104794951Y-108183568D01*
X104810093Y-108075824D01*
X104817302Y-108024534D01*
X104817303Y-108024527D01*
X104817853Y-108020610D01*
X104818141Y-108000000D01*
X104799798Y-107836466D01*
X104793998Y-107819809D01*
X104747998Y-107687717D01*
X104745680Y-107681060D01*
X104686632Y-107586563D01*
X104662209Y-107547479D01*
X104658476Y-107541505D01*
X104600499Y-107483122D01*
X104547486Y-107429737D01*
X104547482Y-107429734D01*
X104542522Y-107424739D01*
X104403580Y-107336563D01*
X104354447Y-107319068D01*
X104255189Y-107283723D01*
X104255187Y-107283722D01*
X104248555Y-107281361D01*
X104241569Y-107280528D01*
X104241565Y-107280527D01*
X104127071Y-107266875D01*
X104085153Y-107261877D01*
X104078150Y-107262613D01*
X104078149Y-107262613D01*
X104034935Y-107267155D01*
X103921495Y-107279078D01*
X103914827Y-107281348D01*
X103772382Y-107329840D01*
X103772379Y-107329841D01*
X103765715Y-107332110D01*
X103625555Y-107418337D01*
X103613914Y-107429737D01*
X103513222Y-107528342D01*
X103507982Y-107533473D01*
X103418838Y-107671797D01*
X103416427Y-107678420D01*
X103416426Y-107678423D01*
X103364966Y-107819809D01*
X103364965Y-107819814D01*
X103362556Y-107826432D01*
X103341931Y-107989694D01*
X97036985Y-107989694D01*
X97019798Y-107836466D01*
X97013998Y-107819809D01*
X96967998Y-107687717D01*
X96965680Y-107681060D01*
X96906632Y-107586563D01*
X96882209Y-107547479D01*
X96878476Y-107541505D01*
X96820499Y-107483122D01*
X96767486Y-107429737D01*
X96767482Y-107429734D01*
X96762522Y-107424739D01*
X96623580Y-107336563D01*
X96574447Y-107319068D01*
X96475189Y-107283723D01*
X96475187Y-107283722D01*
X96468555Y-107281361D01*
X96461569Y-107280528D01*
X96461565Y-107280527D01*
X96347071Y-107266875D01*
X96305153Y-107261877D01*
X96298150Y-107262613D01*
X96298149Y-107262613D01*
X96254935Y-107267155D01*
X96141495Y-107279078D01*
X96134827Y-107281348D01*
X95992382Y-107329840D01*
X95992379Y-107329841D01*
X95985715Y-107332110D01*
X95845555Y-107418337D01*
X95833914Y-107429737D01*
X95733222Y-107528342D01*
X95727982Y-107533473D01*
X95638838Y-107671797D01*
X95636427Y-107678420D01*
X95636426Y-107678423D01*
X95584966Y-107819809D01*
X95584965Y-107819814D01*
X95582556Y-107826432D01*
X95561931Y-107989694D01*
X89716985Y-107989694D01*
X89699798Y-107836466D01*
X89693998Y-107819809D01*
X89647998Y-107687717D01*
X89645680Y-107681060D01*
X89586632Y-107586563D01*
X89562209Y-107547479D01*
X89558476Y-107541505D01*
X89500499Y-107483122D01*
X89447486Y-107429737D01*
X89447482Y-107429734D01*
X89442522Y-107424739D01*
X89303580Y-107336563D01*
X89254447Y-107319068D01*
X89155189Y-107283723D01*
X89155187Y-107283722D01*
X89148555Y-107281361D01*
X89141569Y-107280528D01*
X89141565Y-107280527D01*
X89027071Y-107266875D01*
X88985153Y-107261877D01*
X88978150Y-107262613D01*
X88978149Y-107262613D01*
X88934935Y-107267155D01*
X88821495Y-107279078D01*
X88814827Y-107281348D01*
X88672382Y-107329840D01*
X88672379Y-107329841D01*
X88665715Y-107332110D01*
X88525555Y-107418337D01*
X88513914Y-107429737D01*
X88413222Y-107528342D01*
X88407982Y-107533473D01*
X88318838Y-107671797D01*
X88316427Y-107678420D01*
X88316426Y-107678423D01*
X88264966Y-107819809D01*
X88264965Y-107819814D01*
X88262556Y-107826432D01*
X88241931Y-107989694D01*
X82911099Y-107989694D01*
X82908663Y-107982700D01*
X82890680Y-107931060D01*
X82855414Y-107874622D01*
X82807209Y-107797479D01*
X82803476Y-107791505D01*
X82700410Y-107687717D01*
X82692486Y-107679737D01*
X82692482Y-107679734D01*
X82687522Y-107674739D01*
X82548580Y-107586563D01*
X82499447Y-107569068D01*
X82400189Y-107533723D01*
X82400187Y-107533722D01*
X82393555Y-107531361D01*
X82386569Y-107530528D01*
X82386565Y-107530527D01*
X82272071Y-107516875D01*
X82230153Y-107511877D01*
X82223150Y-107512613D01*
X82223149Y-107512613D01*
X82179935Y-107517155D01*
X82066495Y-107529078D01*
X82053585Y-107533473D01*
X81917382Y-107579840D01*
X81917379Y-107579841D01*
X81910715Y-107582110D01*
X81813858Y-107641697D01*
X81796594Y-107652318D01*
X81770555Y-107668337D01*
X81652982Y-107783473D01*
X81563838Y-107921797D01*
X81561427Y-107928420D01*
X81561426Y-107928423D01*
X81509966Y-108069809D01*
X81509965Y-108069814D01*
X81507556Y-108076432D01*
X81486931Y-108239694D01*
X79178222Y-108239694D01*
X79169969Y-108230031D01*
X78989416Y-108075824D01*
X78985208Y-108073245D01*
X78985202Y-108073241D01*
X78791183Y-107954346D01*
X78786963Y-107951760D01*
X78782393Y-107949867D01*
X78782389Y-107949865D01*
X78572167Y-107862789D01*
X78572165Y-107862788D01*
X78567594Y-107860895D01*
X78438124Y-107829812D01*
X78341524Y-107806620D01*
X78341518Y-107806619D01*
X78336711Y-107805465D01*
X78100000Y-107786835D01*
X77863289Y-107805465D01*
X77858482Y-107806619D01*
X77858476Y-107806620D01*
X77761876Y-107829812D01*
X77632406Y-107860895D01*
X77627835Y-107862788D01*
X77627833Y-107862789D01*
X77417611Y-107949865D01*
X77417607Y-107949867D01*
X77413037Y-107951760D01*
X77408817Y-107954346D01*
X77214798Y-108073241D01*
X77214792Y-108073245D01*
X77210584Y-108075824D01*
X77030031Y-108230031D01*
X76875824Y-108410584D01*
X76873245Y-108414792D01*
X76873241Y-108414798D01*
X76833698Y-108479327D01*
X76751760Y-108613037D01*
X76749867Y-108617607D01*
X76749865Y-108617611D01*
X76662789Y-108827833D01*
X76660895Y-108832406D01*
X76641952Y-108911310D01*
X76628547Y-108967147D01*
X76605465Y-109063289D01*
X76586835Y-109300000D01*
X74613165Y-109300000D01*
X74594535Y-109063289D01*
X74571454Y-108967147D01*
X74558048Y-108911310D01*
X74539105Y-108832406D01*
X74537211Y-108827833D01*
X74450135Y-108617611D01*
X74450133Y-108617607D01*
X74448240Y-108613037D01*
X74366302Y-108479327D01*
X74326759Y-108414798D01*
X74326755Y-108414792D01*
X74324176Y-108410584D01*
X74169969Y-108230031D01*
X73989416Y-108075824D01*
X73985208Y-108073245D01*
X73985202Y-108073241D01*
X73791183Y-107954346D01*
X73786963Y-107951760D01*
X73782393Y-107949867D01*
X73782389Y-107949865D01*
X73572167Y-107862789D01*
X73572165Y-107862788D01*
X73567594Y-107860895D01*
X73438124Y-107829812D01*
X73341524Y-107806620D01*
X73341518Y-107806619D01*
X73336711Y-107805465D01*
X73100000Y-107786835D01*
X72863289Y-107805465D01*
X72858482Y-107806619D01*
X72858476Y-107806620D01*
X72761876Y-107829812D01*
X72632406Y-107860895D01*
X72627835Y-107862788D01*
X72627833Y-107862789D01*
X72417611Y-107949865D01*
X72417607Y-107949867D01*
X72413037Y-107951760D01*
X72408817Y-107954346D01*
X72214798Y-108073241D01*
X72214792Y-108073245D01*
X72210584Y-108075824D01*
X72030031Y-108230031D01*
X71875824Y-108410584D01*
X71873245Y-108414792D01*
X71873241Y-108414798D01*
X71833698Y-108479327D01*
X71751760Y-108613037D01*
X71749867Y-108617607D01*
X71749865Y-108617611D01*
X71662789Y-108827833D01*
X71660895Y-108832406D01*
X71641952Y-108911310D01*
X71628547Y-108967147D01*
X71605465Y-109063289D01*
X71586835Y-109300000D01*
X70600000Y-109300000D01*
X70600000Y-105854694D01*
X87861931Y-105854694D01*
X87877989Y-106018468D01*
X87929932Y-106174615D01*
X88015179Y-106315373D01*
X88129491Y-106433747D01*
X88267189Y-106523854D01*
X88421428Y-106581215D01*
X88428409Y-106582146D01*
X88428411Y-106582147D01*
X88577561Y-106602048D01*
X88577565Y-106602048D01*
X88584542Y-106602979D01*
X88591553Y-106602341D01*
X88591557Y-106602341D01*
X88741403Y-106588704D01*
X88741404Y-106588704D01*
X88748424Y-106588065D01*
X88830767Y-106561310D01*
X88898230Y-106539390D01*
X88898233Y-106539389D01*
X88904929Y-106537213D01*
X89046279Y-106452951D01*
X89165449Y-106339468D01*
X89183468Y-106312348D01*
X89252614Y-106208275D01*
X89252615Y-106208273D01*
X89256515Y-106202403D01*
X89314951Y-106048568D01*
X89323507Y-105987689D01*
X89334201Y-105911596D01*
X92941500Y-105911596D01*
X92941869Y-105914992D01*
X92941869Y-105914993D01*
X92945678Y-105950056D01*
X92956583Y-106050437D01*
X93016078Y-106227223D01*
X93112147Y-106387109D01*
X93240308Y-106522636D01*
X93245951Y-106526471D01*
X93384881Y-106620887D01*
X93394582Y-106627480D01*
X93400911Y-106630012D01*
X93400914Y-106630013D01*
X93561430Y-106694215D01*
X93561432Y-106694216D01*
X93567771Y-106696751D01*
X93678033Y-106715005D01*
X93745058Y-106726101D01*
X93745061Y-106726101D01*
X93751795Y-106727216D01*
X93758611Y-106726859D01*
X93758615Y-106726859D01*
X93903475Y-106719266D01*
X93938067Y-106717453D01*
X94117898Y-106667920D01*
X94282898Y-106580925D01*
X94288111Y-106576520D01*
X94288115Y-106576517D01*
X94420153Y-106464936D01*
X94420157Y-106464932D01*
X94425367Y-106460529D01*
X94442894Y-106437605D01*
X94534516Y-106317769D01*
X94534519Y-106317765D01*
X94538660Y-106312348D01*
X94617490Y-106143296D01*
X94658180Y-105961260D01*
X94658500Y-105955537D01*
X94658500Y-105889694D01*
X95361931Y-105889694D01*
X95377989Y-106053468D01*
X95429932Y-106209615D01*
X95440596Y-106227223D01*
X95508575Y-106339468D01*
X95515179Y-106350373D01*
X95629491Y-106468747D01*
X95767189Y-106558854D01*
X95921428Y-106616215D01*
X95928409Y-106617146D01*
X95928411Y-106617147D01*
X96077561Y-106637048D01*
X96077565Y-106637048D01*
X96084542Y-106637979D01*
X96091553Y-106637341D01*
X96091557Y-106637341D01*
X96241403Y-106623704D01*
X96241404Y-106623704D01*
X96248424Y-106623065D01*
X96310242Y-106602979D01*
X96398230Y-106574390D01*
X96398233Y-106574389D01*
X96404929Y-106572213D01*
X96546279Y-106487951D01*
X96665449Y-106374468D01*
X96681458Y-106350373D01*
X96752614Y-106243275D01*
X96752615Y-106243273D01*
X96756515Y-106237403D01*
X96814951Y-106083568D01*
X96825085Y-106011459D01*
X96837302Y-105924534D01*
X96837303Y-105924527D01*
X96837853Y-105920610D01*
X96837979Y-105911596D01*
X100441500Y-105911596D01*
X100441869Y-105914992D01*
X100441869Y-105914993D01*
X100445678Y-105950056D01*
X100456583Y-106050437D01*
X100516078Y-106227223D01*
X100612147Y-106387109D01*
X100740308Y-106522636D01*
X100745951Y-106526471D01*
X100884881Y-106620887D01*
X100894582Y-106627480D01*
X100900911Y-106630012D01*
X100900914Y-106630013D01*
X101061430Y-106694215D01*
X101061432Y-106694216D01*
X101067771Y-106696751D01*
X101178033Y-106715005D01*
X101245058Y-106726101D01*
X101245061Y-106726101D01*
X101251795Y-106727216D01*
X101258611Y-106726859D01*
X101258615Y-106726859D01*
X101403475Y-106719266D01*
X101438067Y-106717453D01*
X101617898Y-106667920D01*
X101782898Y-106580925D01*
X101788111Y-106576520D01*
X101788115Y-106576517D01*
X101920153Y-106464936D01*
X101920157Y-106464932D01*
X101925367Y-106460529D01*
X101942894Y-106437605D01*
X102034516Y-106317769D01*
X102034519Y-106317765D01*
X102038660Y-106312348D01*
X102117490Y-106143296D01*
X102158180Y-105961260D01*
X102158500Y-105955537D01*
X102158500Y-99518404D01*
X102143417Y-99379563D01*
X102083922Y-99202777D01*
X101987853Y-99042891D01*
X101859692Y-98907364D01*
X101773922Y-98849075D01*
X101711060Y-98806354D01*
X101711058Y-98806353D01*
X101705418Y-98802520D01*
X101699089Y-98799988D01*
X101699086Y-98799987D01*
X101538570Y-98735785D01*
X101538568Y-98735784D01*
X101532229Y-98733249D01*
X101418124Y-98714359D01*
X101354942Y-98703899D01*
X101354939Y-98703899D01*
X101348205Y-98702784D01*
X101341389Y-98703141D01*
X101341385Y-98703141D01*
X101196525Y-98710734D01*
X101161933Y-98712547D01*
X100982102Y-98762080D01*
X100817102Y-98849075D01*
X100811889Y-98853480D01*
X100811885Y-98853483D01*
X100679847Y-98965064D01*
X100679843Y-98965068D01*
X100674633Y-98969471D01*
X100670486Y-98974895D01*
X100670485Y-98974896D01*
X100565484Y-99112231D01*
X100565481Y-99112235D01*
X100561340Y-99117652D01*
X100482510Y-99286704D01*
X100441820Y-99468740D01*
X100441500Y-99474463D01*
X100441500Y-105911596D01*
X96837979Y-105911596D01*
X96838141Y-105900000D01*
X96819798Y-105736466D01*
X96768446Y-105589003D01*
X96764933Y-105518095D01*
X96769650Y-105502825D01*
X96812449Y-105390154D01*
X96814951Y-105383568D01*
X96837853Y-105220610D01*
X96838141Y-105200000D01*
X96819798Y-105036466D01*
X96813998Y-105019809D01*
X96767998Y-104887717D01*
X96765680Y-104881060D01*
X96678476Y-104741505D01*
X96620499Y-104683122D01*
X96567486Y-104629737D01*
X96567482Y-104629734D01*
X96562522Y-104624739D01*
X96423580Y-104536563D01*
X96374447Y-104519068D01*
X96275189Y-104483723D01*
X96275187Y-104483722D01*
X96268555Y-104481361D01*
X96261569Y-104480528D01*
X96261565Y-104480527D01*
X96137030Y-104465678D01*
X96105153Y-104461877D01*
X96098150Y-104462613D01*
X96098149Y-104462613D01*
X96054935Y-104467155D01*
X95941495Y-104479078D01*
X95934827Y-104481348D01*
X95792382Y-104529840D01*
X95792379Y-104529841D01*
X95785715Y-104532110D01*
X95645555Y-104618337D01*
X95527982Y-104733473D01*
X95438838Y-104871797D01*
X95436427Y-104878420D01*
X95436426Y-104878423D01*
X95384966Y-105019809D01*
X95384965Y-105019814D01*
X95382556Y-105026432D01*
X95361931Y-105189694D01*
X95377989Y-105353468D01*
X95380213Y-105360153D01*
X95429932Y-105509615D01*
X95427764Y-105510336D01*
X95436588Y-105569836D01*
X95430193Y-105595550D01*
X95384966Y-105719809D01*
X95384965Y-105719814D01*
X95382556Y-105726432D01*
X95361931Y-105889694D01*
X94658500Y-105889694D01*
X94658500Y-99518404D01*
X94643417Y-99379563D01*
X94583922Y-99202777D01*
X94487853Y-99042891D01*
X94359692Y-98907364D01*
X94273922Y-98849075D01*
X94211060Y-98806354D01*
X94211058Y-98806353D01*
X94205418Y-98802520D01*
X94199089Y-98799988D01*
X94199086Y-98799987D01*
X94038570Y-98735785D01*
X94038568Y-98735784D01*
X94032229Y-98733249D01*
X93918124Y-98714359D01*
X93854942Y-98703899D01*
X93854939Y-98703899D01*
X93848205Y-98702784D01*
X93841389Y-98703141D01*
X93841385Y-98703141D01*
X93696525Y-98710734D01*
X93661933Y-98712547D01*
X93482102Y-98762080D01*
X93317102Y-98849075D01*
X93311889Y-98853480D01*
X93311885Y-98853483D01*
X93179847Y-98965064D01*
X93179843Y-98965068D01*
X93174633Y-98969471D01*
X93170486Y-98974895D01*
X93170485Y-98974896D01*
X93065484Y-99112231D01*
X93065481Y-99112235D01*
X93061340Y-99117652D01*
X92982510Y-99286704D01*
X92941820Y-99468740D01*
X92941500Y-99474463D01*
X92941500Y-105911596D01*
X89334201Y-105911596D01*
X89337302Y-105889534D01*
X89337303Y-105889527D01*
X89337853Y-105885610D01*
X89338141Y-105865000D01*
X89319798Y-105701466D01*
X89274805Y-105572263D01*
X89271293Y-105501355D01*
X89276009Y-105486085D01*
X89312449Y-105390155D01*
X89312449Y-105390154D01*
X89314951Y-105383568D01*
X89337853Y-105220610D01*
X89338141Y-105200000D01*
X89319798Y-105036466D01*
X89313998Y-105019809D01*
X89267998Y-104887717D01*
X89265680Y-104881060D01*
X89178476Y-104741505D01*
X89120499Y-104683122D01*
X89067486Y-104629737D01*
X89067482Y-104629734D01*
X89062522Y-104624739D01*
X88923580Y-104536563D01*
X88874447Y-104519068D01*
X88775189Y-104483723D01*
X88775187Y-104483722D01*
X88768555Y-104481361D01*
X88761569Y-104480528D01*
X88761565Y-104480527D01*
X88637030Y-104465678D01*
X88605153Y-104461877D01*
X88598150Y-104462613D01*
X88598149Y-104462613D01*
X88554935Y-104467155D01*
X88441495Y-104479078D01*
X88434827Y-104481348D01*
X88292382Y-104529840D01*
X88292379Y-104529841D01*
X88285715Y-104532110D01*
X88145555Y-104618337D01*
X88027982Y-104733473D01*
X87938838Y-104871797D01*
X87936427Y-104878420D01*
X87936426Y-104878423D01*
X87884966Y-105019809D01*
X87884965Y-105019814D01*
X87882556Y-105026432D01*
X87861931Y-105189694D01*
X87877989Y-105353468D01*
X87880212Y-105360149D01*
X87880213Y-105360156D01*
X87925059Y-105494968D01*
X87927582Y-105565919D01*
X87923902Y-105577833D01*
X87884966Y-105684809D01*
X87884965Y-105684814D01*
X87882556Y-105691432D01*
X87861931Y-105854694D01*
X70600000Y-105854694D01*
X70600000Y-102600000D01*
X71586835Y-102600000D01*
X71605465Y-102836711D01*
X71606619Y-102841518D01*
X71606620Y-102841524D01*
X71635092Y-102960115D01*
X71660895Y-103067594D01*
X71662788Y-103072165D01*
X71662789Y-103072167D01*
X71722012Y-103215144D01*
X71751760Y-103286963D01*
X71754346Y-103291183D01*
X71873241Y-103485202D01*
X71873245Y-103485208D01*
X71875824Y-103489416D01*
X72030031Y-103669969D01*
X72210584Y-103824176D01*
X72214792Y-103826755D01*
X72214798Y-103826759D01*
X72327399Y-103895761D01*
X72413037Y-103948240D01*
X72417607Y-103950133D01*
X72417611Y-103950135D01*
X72501436Y-103984856D01*
X72632406Y-104039105D01*
X72712609Y-104058360D01*
X72858476Y-104093380D01*
X72858482Y-104093381D01*
X72863289Y-104094535D01*
X73100000Y-104113165D01*
X73336711Y-104094535D01*
X73341518Y-104093381D01*
X73341524Y-104093380D01*
X73487391Y-104058360D01*
X73567594Y-104039105D01*
X73698564Y-103984856D01*
X73782389Y-103950135D01*
X73782393Y-103950133D01*
X73786963Y-103948240D01*
X73872601Y-103895761D01*
X73985202Y-103826759D01*
X73985208Y-103826755D01*
X73989416Y-103824176D01*
X74169969Y-103669969D01*
X74324176Y-103489416D01*
X74326755Y-103485208D01*
X74326759Y-103485202D01*
X74445654Y-103291183D01*
X74448240Y-103286963D01*
X74477989Y-103215144D01*
X74537211Y-103072167D01*
X74537212Y-103072165D01*
X74539105Y-103067594D01*
X74564908Y-102960115D01*
X74593380Y-102841524D01*
X74593381Y-102841518D01*
X74594535Y-102836711D01*
X74613165Y-102600000D01*
X76586835Y-102600000D01*
X76605465Y-102836711D01*
X76606619Y-102841518D01*
X76606620Y-102841524D01*
X76635092Y-102960115D01*
X76660895Y-103067594D01*
X76662788Y-103072165D01*
X76662789Y-103072167D01*
X76722012Y-103215144D01*
X76751760Y-103286963D01*
X76754346Y-103291183D01*
X76873241Y-103485202D01*
X76873245Y-103485208D01*
X76875824Y-103489416D01*
X77030031Y-103669969D01*
X77210584Y-103824176D01*
X77214792Y-103826755D01*
X77214798Y-103826759D01*
X77327399Y-103895761D01*
X77413037Y-103948240D01*
X77417607Y-103950133D01*
X77417611Y-103950135D01*
X77501436Y-103984856D01*
X77632406Y-104039105D01*
X77712609Y-104058360D01*
X77858476Y-104093380D01*
X77858482Y-104093381D01*
X77863289Y-104094535D01*
X78100000Y-104113165D01*
X78336711Y-104094535D01*
X78341518Y-104093381D01*
X78341524Y-104093380D01*
X78487391Y-104058360D01*
X78567594Y-104039105D01*
X78698564Y-103984856D01*
X78782389Y-103950135D01*
X78782393Y-103950133D01*
X78786963Y-103948240D01*
X78872601Y-103895761D01*
X78985202Y-103826759D01*
X78985208Y-103826755D01*
X78989416Y-103824176D01*
X79169969Y-103669969D01*
X79324176Y-103489416D01*
X79326755Y-103485208D01*
X79326759Y-103485202D01*
X79445654Y-103291183D01*
X79448240Y-103286963D01*
X79477989Y-103215144D01*
X79537211Y-103072167D01*
X79537212Y-103072165D01*
X79539105Y-103067594D01*
X79564908Y-102960115D01*
X79593380Y-102841524D01*
X79593381Y-102841518D01*
X79594535Y-102836711D01*
X79613165Y-102600000D01*
X79594535Y-102363289D01*
X79539105Y-102132406D01*
X79448240Y-101913037D01*
X79445654Y-101908817D01*
X79326759Y-101714798D01*
X79326755Y-101714792D01*
X79324176Y-101710584D01*
X79169969Y-101530031D01*
X78989416Y-101375824D01*
X78985208Y-101373245D01*
X78985202Y-101373241D01*
X78791183Y-101254346D01*
X78786963Y-101251760D01*
X78782393Y-101249867D01*
X78782389Y-101249865D01*
X78572167Y-101162789D01*
X78572165Y-101162788D01*
X78567594Y-101160895D01*
X78487391Y-101141640D01*
X78341524Y-101106620D01*
X78341518Y-101106619D01*
X78336711Y-101105465D01*
X78100000Y-101086835D01*
X77863289Y-101105465D01*
X77858482Y-101106619D01*
X77858476Y-101106620D01*
X77712609Y-101141640D01*
X77632406Y-101160895D01*
X77627835Y-101162788D01*
X77627833Y-101162789D01*
X77417611Y-101249865D01*
X77417607Y-101249867D01*
X77413037Y-101251760D01*
X77408817Y-101254346D01*
X77214798Y-101373241D01*
X77214792Y-101373245D01*
X77210584Y-101375824D01*
X77030031Y-101530031D01*
X76875824Y-101710584D01*
X76873245Y-101714792D01*
X76873241Y-101714798D01*
X76754346Y-101908817D01*
X76751760Y-101913037D01*
X76660895Y-102132406D01*
X76605465Y-102363289D01*
X76586835Y-102600000D01*
X74613165Y-102600000D01*
X74594535Y-102363289D01*
X74539105Y-102132406D01*
X74448240Y-101913037D01*
X74445654Y-101908817D01*
X74326759Y-101714798D01*
X74326755Y-101714792D01*
X74324176Y-101710584D01*
X74169969Y-101530031D01*
X73989416Y-101375824D01*
X73985208Y-101373245D01*
X73985202Y-101373241D01*
X73791183Y-101254346D01*
X73786963Y-101251760D01*
X73782393Y-101249867D01*
X73782389Y-101249865D01*
X73572167Y-101162789D01*
X73572165Y-101162788D01*
X73567594Y-101160895D01*
X73487391Y-101141640D01*
X73341524Y-101106620D01*
X73341518Y-101106619D01*
X73336711Y-101105465D01*
X73100000Y-101086835D01*
X72863289Y-101105465D01*
X72858482Y-101106619D01*
X72858476Y-101106620D01*
X72712609Y-101141640D01*
X72632406Y-101160895D01*
X72627835Y-101162788D01*
X72627833Y-101162789D01*
X72417611Y-101249865D01*
X72417607Y-101249867D01*
X72413037Y-101251760D01*
X72408817Y-101254346D01*
X72214798Y-101373241D01*
X72214792Y-101373245D01*
X72210584Y-101375824D01*
X72030031Y-101530031D01*
X71875824Y-101710584D01*
X71873245Y-101714792D01*
X71873241Y-101714798D01*
X71754346Y-101908817D01*
X71751760Y-101913037D01*
X71660895Y-102132406D01*
X71605465Y-102363289D01*
X71586835Y-102600000D01*
X70600000Y-102600000D01*
X70600000Y-98832670D01*
X72232160Y-98832670D01*
X72237887Y-98840320D01*
X72409042Y-98945205D01*
X72417837Y-98949687D01*
X72627988Y-99036734D01*
X72637373Y-99039783D01*
X72858554Y-99092885D01*
X72868301Y-99094428D01*
X73095070Y-99112275D01*
X73104930Y-99112275D01*
X73331699Y-99094428D01*
X73341446Y-99092885D01*
X73562627Y-99039783D01*
X73572012Y-99036734D01*
X73782163Y-98949687D01*
X73790958Y-98945205D01*
X73958445Y-98842568D01*
X73967400Y-98832670D01*
X77232160Y-98832670D01*
X77237887Y-98840320D01*
X77409042Y-98945205D01*
X77417837Y-98949687D01*
X77627988Y-99036734D01*
X77637373Y-99039783D01*
X77858554Y-99092885D01*
X77868301Y-99094428D01*
X78095070Y-99112275D01*
X78104930Y-99112275D01*
X78331699Y-99094428D01*
X78341446Y-99092885D01*
X78562627Y-99039783D01*
X78572012Y-99036734D01*
X78782163Y-98949687D01*
X78790958Y-98945205D01*
X78958445Y-98842568D01*
X78967907Y-98832110D01*
X78964124Y-98823334D01*
X78112812Y-97972022D01*
X78098868Y-97964408D01*
X78097035Y-97964539D01*
X78090420Y-97968790D01*
X77238920Y-98820290D01*
X77232160Y-98832670D01*
X73967400Y-98832670D01*
X73967907Y-98832110D01*
X73964124Y-98823334D01*
X73112812Y-97972022D01*
X73098868Y-97964408D01*
X73097035Y-97964539D01*
X73090420Y-97968790D01*
X72238920Y-98820290D01*
X72232160Y-98832670D01*
X70600000Y-98832670D01*
X70600000Y-97604930D01*
X71587725Y-97604930D01*
X71605572Y-97831699D01*
X71607115Y-97841446D01*
X71660217Y-98062627D01*
X71663266Y-98072012D01*
X71750313Y-98282163D01*
X71754795Y-98290958D01*
X71857432Y-98458445D01*
X71867890Y-98467907D01*
X71876666Y-98464124D01*
X72727978Y-97612812D01*
X72734356Y-97601132D01*
X73464408Y-97601132D01*
X73464539Y-97602965D01*
X73468790Y-97609580D01*
X74320290Y-98461080D01*
X74332670Y-98467840D01*
X74340320Y-98462113D01*
X74445205Y-98290958D01*
X74449687Y-98282163D01*
X74536734Y-98072012D01*
X74539783Y-98062627D01*
X74592885Y-97841446D01*
X74594428Y-97831699D01*
X74612275Y-97604930D01*
X76587725Y-97604930D01*
X76605572Y-97831699D01*
X76607115Y-97841446D01*
X76660217Y-98062627D01*
X76663266Y-98072012D01*
X76750313Y-98282163D01*
X76754795Y-98290958D01*
X76857432Y-98458445D01*
X76867890Y-98467907D01*
X76876666Y-98464124D01*
X77727978Y-97612812D01*
X77734356Y-97601132D01*
X78464408Y-97601132D01*
X78464539Y-97602965D01*
X78468790Y-97609580D01*
X79320290Y-98461080D01*
X79332670Y-98467840D01*
X79340320Y-98462113D01*
X79445205Y-98290958D01*
X79449687Y-98282163D01*
X79536734Y-98072012D01*
X79539783Y-98062627D01*
X79592885Y-97841446D01*
X79594428Y-97831699D01*
X79612275Y-97604930D01*
X79612275Y-97595070D01*
X79594428Y-97368301D01*
X79592885Y-97358554D01*
X79539783Y-97137373D01*
X79536734Y-97127988D01*
X79449687Y-96917837D01*
X79445205Y-96909042D01*
X79342568Y-96741555D01*
X79332110Y-96732093D01*
X79323334Y-96735876D01*
X78472022Y-97587188D01*
X78464408Y-97601132D01*
X77734356Y-97601132D01*
X77735592Y-97598868D01*
X77735461Y-97597035D01*
X77731210Y-97590420D01*
X76879710Y-96738920D01*
X76867330Y-96732160D01*
X76859680Y-96737887D01*
X76754795Y-96909042D01*
X76750313Y-96917837D01*
X76663266Y-97127988D01*
X76660217Y-97137373D01*
X76607115Y-97358554D01*
X76605572Y-97368301D01*
X76587725Y-97595070D01*
X76587725Y-97604930D01*
X74612275Y-97604930D01*
X74612275Y-97595070D01*
X74594428Y-97368301D01*
X74592885Y-97358554D01*
X74539783Y-97137373D01*
X74536734Y-97127988D01*
X74449687Y-96917837D01*
X74445205Y-96909042D01*
X74342568Y-96741555D01*
X74332110Y-96732093D01*
X74323334Y-96735876D01*
X73472022Y-97587188D01*
X73464408Y-97601132D01*
X72734356Y-97601132D01*
X72735592Y-97598868D01*
X72735461Y-97597035D01*
X72731210Y-97590420D01*
X71879710Y-96738920D01*
X71867330Y-96732160D01*
X71859680Y-96737887D01*
X71754795Y-96909042D01*
X71750313Y-96917837D01*
X71663266Y-97127988D01*
X71660217Y-97137373D01*
X71607115Y-97358554D01*
X71605572Y-97368301D01*
X71587725Y-97595070D01*
X71587725Y-97604930D01*
X70600000Y-97604930D01*
X70600000Y-96367890D01*
X72232093Y-96367890D01*
X72235876Y-96376666D01*
X73087188Y-97227978D01*
X73101132Y-97235592D01*
X73102965Y-97235461D01*
X73109580Y-97231210D01*
X73961080Y-96379710D01*
X73967534Y-96367890D01*
X77232093Y-96367890D01*
X77235876Y-96376666D01*
X78087188Y-97227978D01*
X78101132Y-97235592D01*
X78102965Y-97235461D01*
X78109580Y-97231210D01*
X78961080Y-96379710D01*
X78967840Y-96367330D01*
X78962113Y-96359680D01*
X78790958Y-96254795D01*
X78782163Y-96250313D01*
X78572012Y-96163266D01*
X78562627Y-96160217D01*
X78341446Y-96107115D01*
X78331699Y-96105572D01*
X78104930Y-96087725D01*
X78095070Y-96087725D01*
X77868301Y-96105572D01*
X77858554Y-96107115D01*
X77637373Y-96160217D01*
X77627988Y-96163266D01*
X77417837Y-96250313D01*
X77409042Y-96254795D01*
X77241555Y-96357432D01*
X77232093Y-96367890D01*
X73967534Y-96367890D01*
X73967840Y-96367330D01*
X73962113Y-96359680D01*
X73790958Y-96254795D01*
X73782163Y-96250313D01*
X73572012Y-96163266D01*
X73562627Y-96160217D01*
X73341446Y-96107115D01*
X73331699Y-96105572D01*
X73104930Y-96087725D01*
X73095070Y-96087725D01*
X72868301Y-96105572D01*
X72858554Y-96107115D01*
X72637373Y-96160217D01*
X72627988Y-96163266D01*
X72417837Y-96250313D01*
X72409042Y-96254795D01*
X72241555Y-96357432D01*
X72232093Y-96367890D01*
X70600000Y-96367890D01*
X70600000Y-94555425D01*
X97529145Y-94555425D01*
X97529704Y-94561565D01*
X97545047Y-94730154D01*
X97547070Y-94752388D01*
X97548808Y-94758294D01*
X97548809Y-94758298D01*
X97579749Y-94863424D01*
X97602910Y-94942119D01*
X97605763Y-94947577D01*
X97605765Y-94947581D01*
X97620704Y-94976156D01*
X97694540Y-95117390D01*
X97818468Y-95271525D01*
X97823192Y-95275489D01*
X97830433Y-95281565D01*
X97969974Y-95398654D01*
X97975372Y-95401621D01*
X97975377Y-95401625D01*
X98105552Y-95473188D01*
X98143287Y-95493933D01*
X98149154Y-95495794D01*
X98149156Y-95495795D01*
X98314042Y-95548100D01*
X98331806Y-95553735D01*
X98485727Y-95571000D01*
X98592269Y-95571000D01*
X98595325Y-95570700D01*
X98595332Y-95570700D01*
X98653840Y-95564963D01*
X98739333Y-95556580D01*
X98745234Y-95554798D01*
X98745236Y-95554798D01*
X98827900Y-95529840D01*
X98928669Y-95499416D01*
X99103296Y-95406566D01*
X99223387Y-95308622D01*
X99251787Y-95285460D01*
X99251790Y-95285457D01*
X99256562Y-95281565D01*
X99261589Y-95275489D01*
X99378701Y-95133925D01*
X99378703Y-95133921D01*
X99382630Y-95129175D01*
X99476698Y-94955201D01*
X99535182Y-94766268D01*
X99555855Y-94569575D01*
X99537930Y-94372612D01*
X99482090Y-94182881D01*
X99472419Y-94164381D01*
X99393313Y-94013068D01*
X99390460Y-94007610D01*
X99266532Y-93853475D01*
X99260227Y-93848184D01*
X99243834Y-93834429D01*
X99115026Y-93726346D01*
X99109628Y-93723379D01*
X99109623Y-93723375D01*
X98947108Y-93634033D01*
X98947109Y-93634033D01*
X98941713Y-93631067D01*
X98935846Y-93629206D01*
X98935844Y-93629205D01*
X98759064Y-93573127D01*
X98759063Y-93573127D01*
X98753194Y-93571265D01*
X98599273Y-93554000D01*
X98492731Y-93554000D01*
X98489675Y-93554300D01*
X98489668Y-93554300D01*
X98431160Y-93560037D01*
X98345667Y-93568420D01*
X98339766Y-93570202D01*
X98339764Y-93570202D01*
X98266447Y-93592338D01*
X98156331Y-93625584D01*
X97981704Y-93718434D01*
X97895438Y-93788791D01*
X97833213Y-93839540D01*
X97833210Y-93839543D01*
X97828438Y-93843435D01*
X97824511Y-93848182D01*
X97824509Y-93848184D01*
X97706299Y-93991075D01*
X97706297Y-93991079D01*
X97702370Y-93995825D01*
X97608302Y-94169799D01*
X97549818Y-94358732D01*
X97549174Y-94364857D01*
X97549174Y-94364858D01*
X97534611Y-94503423D01*
X97529145Y-94555425D01*
X70600000Y-94555425D01*
X70600000Y-90900000D01*
X71586835Y-90900000D01*
X71605465Y-91136711D01*
X71606619Y-91141518D01*
X71606620Y-91141524D01*
X71628695Y-91233473D01*
X71660895Y-91367594D01*
X71662788Y-91372165D01*
X71662789Y-91372167D01*
X71743204Y-91566306D01*
X71751760Y-91586963D01*
X71754346Y-91591183D01*
X71873241Y-91785202D01*
X71873245Y-91785208D01*
X71875824Y-91789416D01*
X72030031Y-91969969D01*
X72210584Y-92124176D01*
X72214792Y-92126755D01*
X72214798Y-92126759D01*
X72408817Y-92245654D01*
X72413037Y-92248240D01*
X72417607Y-92250133D01*
X72417611Y-92250135D01*
X72627833Y-92337211D01*
X72632406Y-92339105D01*
X72686826Y-92352170D01*
X72858476Y-92393380D01*
X72858482Y-92393381D01*
X72863289Y-92394535D01*
X73100000Y-92413165D01*
X73336711Y-92394535D01*
X73341518Y-92393381D01*
X73341524Y-92393380D01*
X73513174Y-92352170D01*
X73567594Y-92339105D01*
X73572167Y-92337211D01*
X73782389Y-92250135D01*
X73782393Y-92250133D01*
X73786963Y-92248240D01*
X73791183Y-92245654D01*
X73985202Y-92126759D01*
X73985208Y-92126755D01*
X73989416Y-92124176D01*
X74169969Y-91969969D01*
X74324176Y-91789416D01*
X74326755Y-91785208D01*
X74326759Y-91785202D01*
X74445654Y-91591183D01*
X74448240Y-91586963D01*
X74456797Y-91566306D01*
X74537211Y-91372167D01*
X74537212Y-91372165D01*
X74539105Y-91367594D01*
X74571305Y-91233473D01*
X74593380Y-91141524D01*
X74593381Y-91141518D01*
X74594535Y-91136711D01*
X74613165Y-90900000D01*
X76586835Y-90900000D01*
X76605465Y-91136711D01*
X76606619Y-91141518D01*
X76606620Y-91141524D01*
X76628695Y-91233473D01*
X76660895Y-91367594D01*
X76662788Y-91372165D01*
X76662789Y-91372167D01*
X76743204Y-91566306D01*
X76751760Y-91586963D01*
X76754346Y-91591183D01*
X76873241Y-91785202D01*
X76873245Y-91785208D01*
X76875824Y-91789416D01*
X77030031Y-91969969D01*
X77210584Y-92124176D01*
X77214792Y-92126755D01*
X77214798Y-92126759D01*
X77408817Y-92245654D01*
X77413037Y-92248240D01*
X77417607Y-92250133D01*
X77417611Y-92250135D01*
X77627833Y-92337211D01*
X77632406Y-92339105D01*
X77686826Y-92352170D01*
X77858476Y-92393380D01*
X77858482Y-92393381D01*
X77863289Y-92394535D01*
X78100000Y-92413165D01*
X78336711Y-92394535D01*
X78341518Y-92393381D01*
X78341524Y-92393380D01*
X78513174Y-92352170D01*
X78567594Y-92339105D01*
X78572167Y-92337211D01*
X78782389Y-92250135D01*
X78782393Y-92250133D01*
X78786963Y-92248240D01*
X78791183Y-92245654D01*
X78985202Y-92126759D01*
X78985208Y-92126755D01*
X78989416Y-92124176D01*
X79029789Y-92089694D01*
X81561931Y-92089694D01*
X81577989Y-92253468D01*
X81629932Y-92409615D01*
X81715179Y-92550373D01*
X81829491Y-92668747D01*
X81967189Y-92758854D01*
X82121428Y-92816215D01*
X82128409Y-92817146D01*
X82128411Y-92817147D01*
X82277561Y-92837048D01*
X82277565Y-92837048D01*
X82284542Y-92837979D01*
X82291553Y-92837341D01*
X82291557Y-92837341D01*
X82441403Y-92823704D01*
X82441404Y-92823704D01*
X82448424Y-92823065D01*
X82499935Y-92806328D01*
X82598230Y-92774390D01*
X82598233Y-92774389D01*
X82604929Y-92772213D01*
X82746279Y-92687951D01*
X82865449Y-92574468D01*
X82878092Y-92555439D01*
X82952614Y-92443275D01*
X82952615Y-92443273D01*
X82956515Y-92437403D01*
X83014951Y-92283568D01*
X83037853Y-92120610D01*
X83038141Y-92100000D01*
X83019798Y-91936466D01*
X83013998Y-91919809D01*
X82967998Y-91787717D01*
X82965680Y-91781060D01*
X82878476Y-91641505D01*
X82799105Y-91561578D01*
X82767486Y-91529737D01*
X82767482Y-91529734D01*
X82762522Y-91524739D01*
X82623580Y-91436563D01*
X82573154Y-91418607D01*
X82475189Y-91383723D01*
X82475187Y-91383722D01*
X82468555Y-91381361D01*
X82461569Y-91380528D01*
X82461565Y-91380527D01*
X82338640Y-91365870D01*
X82305153Y-91361877D01*
X82298150Y-91362613D01*
X82298149Y-91362613D01*
X82254935Y-91367155D01*
X82141495Y-91379078D01*
X82134827Y-91381348D01*
X81992382Y-91429840D01*
X81992379Y-91429841D01*
X81985715Y-91432110D01*
X81845555Y-91518337D01*
X81727982Y-91633473D01*
X81638838Y-91771797D01*
X81636427Y-91778420D01*
X81636426Y-91778423D01*
X81584966Y-91919809D01*
X81584965Y-91919814D01*
X81582556Y-91926432D01*
X81561931Y-92089694D01*
X79029789Y-92089694D01*
X79169969Y-91969969D01*
X79324176Y-91789416D01*
X79326755Y-91785208D01*
X79326759Y-91785202D01*
X79445654Y-91591183D01*
X79448240Y-91586963D01*
X79456797Y-91566306D01*
X79537211Y-91372167D01*
X79537212Y-91372165D01*
X79539105Y-91367594D01*
X79571305Y-91233473D01*
X79593380Y-91141524D01*
X79593381Y-91141518D01*
X79594535Y-91136711D01*
X79613165Y-90900000D01*
X79594535Y-90663289D01*
X79591530Y-90650770D01*
X79547680Y-90468125D01*
X79539105Y-90432406D01*
X79521409Y-90389684D01*
X79450135Y-90217611D01*
X79450133Y-90217607D01*
X79448240Y-90213037D01*
X79410557Y-90151544D01*
X79357335Y-90064694D01*
X102686931Y-90064694D01*
X102702989Y-90228468D01*
X102754932Y-90384615D01*
X102773861Y-90415870D01*
X102827879Y-90505063D01*
X102840179Y-90525373D01*
X102954491Y-90643747D01*
X103092189Y-90733854D01*
X103246428Y-90791215D01*
X103253414Y-90792147D01*
X103257055Y-90793055D01*
X103315669Y-90826218D01*
X103479595Y-90990144D01*
X103513621Y-91052456D01*
X103516500Y-91079239D01*
X103516500Y-104151864D01*
X103515422Y-104168307D01*
X103511250Y-104200000D01*
X103516500Y-104239880D01*
X103516500Y-104239885D01*
X103529609Y-104339457D01*
X103530001Y-104342432D01*
X103519063Y-104412579D01*
X103471936Y-104465678D01*
X103441207Y-104478232D01*
X103441495Y-104479078D01*
X103292382Y-104529840D01*
X103292379Y-104529841D01*
X103285715Y-104532110D01*
X103145555Y-104618337D01*
X103027982Y-104733473D01*
X102938838Y-104871797D01*
X102936427Y-104878420D01*
X102936426Y-104878423D01*
X102884966Y-105019809D01*
X102884965Y-105019814D01*
X102882556Y-105026432D01*
X102861931Y-105189694D01*
X102877989Y-105353468D01*
X102880213Y-105360153D01*
X102929932Y-105509615D01*
X102927764Y-105510336D01*
X102936588Y-105569836D01*
X102930193Y-105595550D01*
X102884966Y-105719809D01*
X102884965Y-105719814D01*
X102882556Y-105726432D01*
X102861931Y-105889694D01*
X102877989Y-106053468D01*
X102929932Y-106209615D01*
X102940596Y-106227223D01*
X103008575Y-106339468D01*
X103015179Y-106350373D01*
X103129491Y-106468747D01*
X103267189Y-106558854D01*
X103421428Y-106616215D01*
X103428409Y-106617146D01*
X103428411Y-106617147D01*
X103577561Y-106637048D01*
X103577565Y-106637048D01*
X103584542Y-106637979D01*
X103591553Y-106637341D01*
X103591557Y-106637341D01*
X103741403Y-106623704D01*
X103741404Y-106623704D01*
X103748424Y-106623065D01*
X103810242Y-106602979D01*
X103898230Y-106574390D01*
X103898233Y-106574389D01*
X103904929Y-106572213D01*
X104046279Y-106487951D01*
X104165449Y-106374468D01*
X104181458Y-106350373D01*
X104252614Y-106243275D01*
X104252615Y-106243273D01*
X104256515Y-106237403D01*
X104314951Y-106083568D01*
X104325085Y-106011459D01*
X104337302Y-105924534D01*
X104337303Y-105924527D01*
X104337853Y-105920610D01*
X104338141Y-105900000D01*
X104319798Y-105736466D01*
X104268446Y-105589003D01*
X104264933Y-105518095D01*
X104269649Y-105502826D01*
X104282422Y-105469203D01*
X104325308Y-105412626D01*
X104391977Y-105388216D01*
X104461259Y-105403725D01*
X104489304Y-105424852D01*
X104916520Y-105852068D01*
X104916523Y-105852072D01*
X107264595Y-108200144D01*
X107298621Y-108262456D01*
X107301500Y-108289239D01*
X107301500Y-112752999D01*
X107281412Y-112821253D01*
X107248838Y-112871797D01*
X107246427Y-112878420D01*
X107246426Y-112878423D01*
X107194966Y-113019809D01*
X107194965Y-113019814D01*
X107192556Y-113026432D01*
X107171931Y-113189694D01*
X107187989Y-113353468D01*
X107239932Y-113509615D01*
X107243581Y-113515640D01*
X107316843Y-113636608D01*
X107325179Y-113650373D01*
X107439491Y-113768747D01*
X107577189Y-113858854D01*
X107731428Y-113916215D01*
X107738409Y-113917146D01*
X107738411Y-113917147D01*
X107887561Y-113937048D01*
X107887565Y-113937048D01*
X107894542Y-113937979D01*
X107901553Y-113937341D01*
X107901557Y-113937341D01*
X108051403Y-113923704D01*
X108051404Y-113923704D01*
X108058424Y-113923065D01*
X108087062Y-113913760D01*
X108208230Y-113874390D01*
X108208233Y-113874389D01*
X108214929Y-113872213D01*
X108356279Y-113787951D01*
X108475449Y-113674468D01*
X108491505Y-113650302D01*
X108562614Y-113543275D01*
X108562615Y-113543273D01*
X108566515Y-113537403D01*
X108624951Y-113383568D01*
X108635296Y-113309958D01*
X108647302Y-113224534D01*
X108647303Y-113224527D01*
X108647853Y-113220610D01*
X108648141Y-113200000D01*
X108629798Y-113036466D01*
X108623998Y-113019809D01*
X108593089Y-112931051D01*
X108575680Y-112881060D01*
X108566192Y-112865875D01*
X108537646Y-112820193D01*
X108518500Y-112753423D01*
X108518500Y-108033136D01*
X108519578Y-108016690D01*
X108522672Y-107993188D01*
X108523750Y-107985000D01*
X108518500Y-107945122D01*
X108518500Y-107945115D01*
X108502838Y-107826150D01*
X108441524Y-107678125D01*
X108436497Y-107671574D01*
X108436495Y-107671570D01*
X108421722Y-107652318D01*
X108371266Y-107586563D01*
X108368477Y-107582928D01*
X108368474Y-107582925D01*
X108343987Y-107551013D01*
X108321455Y-107533723D01*
X108318621Y-107531548D01*
X108306230Y-107520681D01*
X105777072Y-104991523D01*
X105777068Y-104991520D01*
X105315388Y-104529840D01*
X104770405Y-103984856D01*
X104736379Y-103922544D01*
X104733500Y-103895761D01*
X104733500Y-100882643D01*
X105860939Y-100882643D01*
X105876997Y-101046417D01*
X105928940Y-101202564D01*
X106014187Y-101343322D01*
X106019078Y-101348387D01*
X106019079Y-101348388D01*
X106048956Y-101379327D01*
X106128499Y-101461696D01*
X106266197Y-101551803D01*
X106420436Y-101609164D01*
X106427417Y-101610095D01*
X106427419Y-101610096D01*
X106576569Y-101629997D01*
X106576573Y-101629997D01*
X106583550Y-101630928D01*
X106590561Y-101630290D01*
X106590565Y-101630290D01*
X106740411Y-101616653D01*
X106740412Y-101616653D01*
X106747432Y-101616014D01*
X106776070Y-101606709D01*
X106897238Y-101567339D01*
X106897241Y-101567338D01*
X106903937Y-101565162D01*
X106909988Y-101561555D01*
X106909992Y-101561553D01*
X106926781Y-101551545D01*
X106995536Y-101533844D01*
X107054640Y-101552551D01*
X107055009Y-101551821D01*
X107059498Y-101554089D01*
X107060290Y-101554339D01*
X107067189Y-101558854D01*
X107221428Y-101616215D01*
X107228409Y-101617146D01*
X107228411Y-101617147D01*
X107377561Y-101637048D01*
X107377565Y-101637048D01*
X107384542Y-101637979D01*
X107391553Y-101637341D01*
X107391557Y-101637341D01*
X107541403Y-101623704D01*
X107541404Y-101623704D01*
X107548424Y-101623065D01*
X107704929Y-101572213D01*
X107705060Y-101572615D01*
X107771123Y-101563290D01*
X107796792Y-101569863D01*
X107921428Y-101616215D01*
X107928409Y-101617146D01*
X107928411Y-101617147D01*
X108077561Y-101637048D01*
X108077565Y-101637048D01*
X108084542Y-101637979D01*
X108091553Y-101637341D01*
X108091557Y-101637341D01*
X108241403Y-101623704D01*
X108241404Y-101623704D01*
X108248424Y-101623065D01*
X108298762Y-101606709D01*
X108398230Y-101574390D01*
X108398233Y-101574389D01*
X108404929Y-101572213D01*
X108546279Y-101487951D01*
X108665449Y-101374468D01*
X108682777Y-101348388D01*
X108752614Y-101243275D01*
X108752615Y-101243273D01*
X108756515Y-101237403D01*
X108814951Y-101083568D01*
X108837853Y-100920610D01*
X108838141Y-100900000D01*
X108819798Y-100736466D01*
X108813849Y-100719381D01*
X108767998Y-100587717D01*
X108765680Y-100581060D01*
X108678476Y-100441505D01*
X108620499Y-100383122D01*
X108567486Y-100329737D01*
X108567482Y-100329734D01*
X108562522Y-100324739D01*
X108423580Y-100236563D01*
X108370070Y-100217509D01*
X108275189Y-100183723D01*
X108275187Y-100183722D01*
X108268555Y-100181361D01*
X108261569Y-100180528D01*
X108261565Y-100180527D01*
X108147071Y-100166875D01*
X108105153Y-100161877D01*
X108098150Y-100162613D01*
X108098149Y-100162613D01*
X108054935Y-100167155D01*
X107941495Y-100179078D01*
X107934827Y-100181348D01*
X107789093Y-100230960D01*
X107718160Y-100233978D01*
X107706220Y-100230381D01*
X107575190Y-100183723D01*
X107575185Y-100183722D01*
X107568555Y-100181361D01*
X107561569Y-100180528D01*
X107561565Y-100180527D01*
X107447071Y-100166875D01*
X107405153Y-100161877D01*
X107398150Y-100162613D01*
X107398149Y-100162613D01*
X107354935Y-100167155D01*
X107241495Y-100179078D01*
X107234827Y-100181348D01*
X107092382Y-100229840D01*
X107092379Y-100229841D01*
X107085715Y-100232110D01*
X107078477Y-100236563D01*
X107072022Y-100240534D01*
X107003521Y-100259192D01*
X106938487Y-100239602D01*
X106922588Y-100229512D01*
X106793998Y-100183723D01*
X106774197Y-100176672D01*
X106774195Y-100176671D01*
X106767563Y-100174310D01*
X106760577Y-100173477D01*
X106760573Y-100173476D01*
X106646079Y-100159824D01*
X106604161Y-100154826D01*
X106597158Y-100155562D01*
X106597157Y-100155562D01*
X106553943Y-100160104D01*
X106440503Y-100172027D01*
X106433835Y-100174297D01*
X106291390Y-100222789D01*
X106291387Y-100222790D01*
X106284723Y-100225059D01*
X106144563Y-100311286D01*
X106026990Y-100426422D01*
X105937846Y-100564746D01*
X105935435Y-100571369D01*
X105935434Y-100571372D01*
X105883974Y-100712758D01*
X105883973Y-100712763D01*
X105881564Y-100719381D01*
X105860939Y-100882643D01*
X104733500Y-100882643D01*
X104733500Y-99389694D01*
X111661931Y-99389694D01*
X111677989Y-99553468D01*
X111729932Y-99709615D01*
X111815179Y-99850373D01*
X111929491Y-99968747D01*
X112067189Y-100058854D01*
X112221428Y-100116215D01*
X112228409Y-100117146D01*
X112228411Y-100117147D01*
X112377561Y-100137048D01*
X112377565Y-100137048D01*
X112384542Y-100137979D01*
X112391553Y-100137341D01*
X112391557Y-100137341D01*
X112541403Y-100123704D01*
X112541404Y-100123704D01*
X112548424Y-100123065D01*
X112626563Y-100097676D01*
X112698230Y-100074390D01*
X112698233Y-100074389D01*
X112704929Y-100072213D01*
X112846279Y-99987951D01*
X112965449Y-99874468D01*
X112983225Y-99847713D01*
X113052614Y-99743275D01*
X113052615Y-99743273D01*
X113056515Y-99737403D01*
X113114951Y-99583568D01*
X113137853Y-99420610D01*
X113138141Y-99400000D01*
X113119798Y-99236466D01*
X113113998Y-99219809D01*
X113067998Y-99087717D01*
X113065680Y-99081060D01*
X113056192Y-99065875D01*
X112982209Y-98947479D01*
X112978476Y-98941505D01*
X112920499Y-98883122D01*
X112867486Y-98829737D01*
X112867482Y-98829734D01*
X112862522Y-98824739D01*
X112723580Y-98736563D01*
X112631849Y-98703899D01*
X112575189Y-98683723D01*
X112575187Y-98683722D01*
X112568555Y-98681361D01*
X112561569Y-98680528D01*
X112561565Y-98680527D01*
X112447071Y-98666875D01*
X112405153Y-98661877D01*
X112398150Y-98662613D01*
X112398149Y-98662613D01*
X112354935Y-98667155D01*
X112241495Y-98679078D01*
X112234827Y-98681348D01*
X112092382Y-98729840D01*
X112092379Y-98729841D01*
X112085715Y-98732110D01*
X112031824Y-98765264D01*
X111975383Y-98799987D01*
X111945555Y-98818337D01*
X111911570Y-98851618D01*
X111854644Y-98907364D01*
X111827982Y-98933473D01*
X111738838Y-99071797D01*
X111736427Y-99078420D01*
X111736426Y-99078423D01*
X111684966Y-99219809D01*
X111684965Y-99219814D01*
X111682556Y-99226432D01*
X111661931Y-99389694D01*
X104733500Y-99389694D01*
X104733500Y-96589694D01*
X109961931Y-96589694D01*
X109977989Y-96753468D01*
X110029932Y-96909615D01*
X110036759Y-96920887D01*
X110098289Y-97022484D01*
X110115179Y-97050373D01*
X110229491Y-97168747D01*
X110367189Y-97258854D01*
X110521428Y-97316215D01*
X110528409Y-97317146D01*
X110528411Y-97317147D01*
X110677561Y-97337048D01*
X110677565Y-97337048D01*
X110684542Y-97337979D01*
X110691553Y-97337341D01*
X110691557Y-97337341D01*
X110841403Y-97323704D01*
X110841404Y-97323704D01*
X110848424Y-97323065D01*
X110881112Y-97312444D01*
X110998230Y-97274390D01*
X110998233Y-97274389D01*
X111004929Y-97272213D01*
X111081997Y-97226271D01*
X111146515Y-97208500D01*
X113295761Y-97208500D01*
X113363882Y-97228502D01*
X113384856Y-97245405D01*
X115649485Y-99510034D01*
X115679948Y-99559357D01*
X115729932Y-99709615D01*
X115815179Y-99850373D01*
X115929491Y-99968747D01*
X116067189Y-100058854D01*
X116221428Y-100116215D01*
X116228409Y-100117146D01*
X116228411Y-100117147D01*
X116377561Y-100137048D01*
X116377565Y-100137048D01*
X116384542Y-100137979D01*
X116391553Y-100137341D01*
X116391557Y-100137341D01*
X116541403Y-100123704D01*
X116541404Y-100123704D01*
X116548424Y-100123065D01*
X116626563Y-100097676D01*
X116698230Y-100074390D01*
X116698233Y-100074389D01*
X116704929Y-100072213D01*
X116846279Y-99987951D01*
X116965449Y-99874468D01*
X116983225Y-99847713D01*
X117052614Y-99743275D01*
X117052615Y-99743273D01*
X117056515Y-99737403D01*
X117114951Y-99583568D01*
X117137853Y-99420610D01*
X117138141Y-99400000D01*
X117119798Y-99236466D01*
X117113998Y-99219809D01*
X117067998Y-99087717D01*
X117065680Y-99081060D01*
X117056192Y-99065875D01*
X116982209Y-98947479D01*
X116978476Y-98941505D01*
X116920499Y-98883122D01*
X116867486Y-98829737D01*
X116867482Y-98829734D01*
X116862522Y-98824739D01*
X116723580Y-98736563D01*
X116568555Y-98681361D01*
X116567582Y-98681245D01*
X116509419Y-98648870D01*
X114064315Y-96203766D01*
X114053448Y-96191375D01*
X114039013Y-96172563D01*
X114033987Y-96166013D01*
X114002075Y-96141526D01*
X114002072Y-96141523D01*
X113906876Y-96068476D01*
X113758851Y-96007162D01*
X113750664Y-96006084D01*
X113750663Y-96006084D01*
X113739458Y-96004609D01*
X113708262Y-96000502D01*
X113639885Y-95991500D01*
X113639882Y-95991500D01*
X113639874Y-95991499D01*
X113608189Y-95987328D01*
X113600000Y-95986250D01*
X113568307Y-95990422D01*
X113551864Y-95991500D01*
X111146753Y-95991500D01*
X111079238Y-95971885D01*
X111060424Y-95959945D01*
X111023580Y-95936563D01*
X110932169Y-95904013D01*
X110875189Y-95883723D01*
X110875187Y-95883722D01*
X110868555Y-95881361D01*
X110861569Y-95880528D01*
X110861565Y-95880527D01*
X110738640Y-95865870D01*
X110705153Y-95861877D01*
X110698150Y-95862613D01*
X110698149Y-95862613D01*
X110655802Y-95867064D01*
X110541495Y-95879078D01*
X110534827Y-95881348D01*
X110392382Y-95929840D01*
X110392379Y-95929841D01*
X110385715Y-95932110D01*
X110360933Y-95947356D01*
X110267870Y-96004609D01*
X110245555Y-96018337D01*
X110219895Y-96043465D01*
X110156474Y-96105572D01*
X110127982Y-96133473D01*
X110038838Y-96271797D01*
X110036427Y-96278420D01*
X110036426Y-96278423D01*
X109984966Y-96419809D01*
X109984965Y-96419814D01*
X109982556Y-96426432D01*
X109961931Y-96589694D01*
X104733500Y-96589694D01*
X104733500Y-90823136D01*
X104734578Y-90806690D01*
X104737672Y-90783188D01*
X104738750Y-90775000D01*
X104733500Y-90735122D01*
X104733500Y-90735115D01*
X104717838Y-90616150D01*
X104656524Y-90468125D01*
X104603221Y-90398659D01*
X104583477Y-90372928D01*
X104583474Y-90372925D01*
X104558987Y-90341013D01*
X104552432Y-90335983D01*
X104533621Y-90321548D01*
X104521230Y-90310681D01*
X104176170Y-89965621D01*
X104146037Y-89911035D01*
X104144798Y-89911466D01*
X104112000Y-89817282D01*
X104090680Y-89756060D01*
X104003476Y-89616505D01*
X103939181Y-89551760D01*
X103892486Y-89504737D01*
X103892482Y-89504734D01*
X103887522Y-89499739D01*
X103748580Y-89411563D01*
X103699447Y-89394068D01*
X103600189Y-89358723D01*
X103600187Y-89358722D01*
X103593555Y-89356361D01*
X103586569Y-89355528D01*
X103586565Y-89355527D01*
X103472071Y-89341875D01*
X103430153Y-89336877D01*
X103423150Y-89337613D01*
X103423149Y-89337613D01*
X103379935Y-89342155D01*
X103266495Y-89354078D01*
X103259827Y-89356348D01*
X103117382Y-89404840D01*
X103117379Y-89404841D01*
X103110715Y-89407110D01*
X102970555Y-89493337D01*
X102958914Y-89504737D01*
X102869996Y-89591812D01*
X102852982Y-89608473D01*
X102763838Y-89746797D01*
X102761427Y-89753420D01*
X102761426Y-89753423D01*
X102709966Y-89894809D01*
X102709965Y-89894814D01*
X102707556Y-89901432D01*
X102686931Y-90064694D01*
X79357335Y-90064694D01*
X79326759Y-90014798D01*
X79326755Y-90014792D01*
X79324176Y-90010584D01*
X79169969Y-89830031D01*
X78989416Y-89675824D01*
X78985208Y-89673245D01*
X78985202Y-89673241D01*
X78791183Y-89554346D01*
X78786963Y-89551760D01*
X78782393Y-89549867D01*
X78782389Y-89549865D01*
X78572167Y-89462789D01*
X78572165Y-89462788D01*
X78567594Y-89460895D01*
X78487391Y-89441640D01*
X78341524Y-89406620D01*
X78341518Y-89406619D01*
X78336711Y-89405465D01*
X78100000Y-89386835D01*
X77863289Y-89405465D01*
X77858482Y-89406619D01*
X77858476Y-89406620D01*
X77712609Y-89441640D01*
X77632406Y-89460895D01*
X77627835Y-89462788D01*
X77627833Y-89462789D01*
X77417611Y-89549865D01*
X77417607Y-89549867D01*
X77413037Y-89551760D01*
X77408817Y-89554346D01*
X77214798Y-89673241D01*
X77214792Y-89673245D01*
X77210584Y-89675824D01*
X77030031Y-89830031D01*
X76875824Y-90010584D01*
X76873245Y-90014792D01*
X76873241Y-90014798D01*
X76789443Y-90151544D01*
X76751760Y-90213037D01*
X76749867Y-90217607D01*
X76749865Y-90217611D01*
X76678591Y-90389684D01*
X76660895Y-90432406D01*
X76652320Y-90468125D01*
X76608471Y-90650770D01*
X76605465Y-90663289D01*
X76586835Y-90900000D01*
X74613165Y-90900000D01*
X74594535Y-90663289D01*
X74591530Y-90650770D01*
X74547680Y-90468125D01*
X74539105Y-90432406D01*
X74521409Y-90389684D01*
X74450135Y-90217611D01*
X74450133Y-90217607D01*
X74448240Y-90213037D01*
X74410557Y-90151544D01*
X74326759Y-90014798D01*
X74326755Y-90014792D01*
X74324176Y-90010584D01*
X74169969Y-89830031D01*
X73989416Y-89675824D01*
X73985208Y-89673245D01*
X73985202Y-89673241D01*
X73791183Y-89554346D01*
X73786963Y-89551760D01*
X73782393Y-89549867D01*
X73782389Y-89549865D01*
X73572167Y-89462789D01*
X73572165Y-89462788D01*
X73567594Y-89460895D01*
X73487391Y-89441640D01*
X73341524Y-89406620D01*
X73341518Y-89406619D01*
X73336711Y-89405465D01*
X73100000Y-89386835D01*
X72863289Y-89405465D01*
X72858482Y-89406619D01*
X72858476Y-89406620D01*
X72712609Y-89441640D01*
X72632406Y-89460895D01*
X72627835Y-89462788D01*
X72627833Y-89462789D01*
X72417611Y-89549865D01*
X72417607Y-89549867D01*
X72413037Y-89551760D01*
X72408817Y-89554346D01*
X72214798Y-89673241D01*
X72214792Y-89673245D01*
X72210584Y-89675824D01*
X72030031Y-89830031D01*
X71875824Y-90010584D01*
X71873245Y-90014792D01*
X71873241Y-90014798D01*
X71789443Y-90151544D01*
X71751760Y-90213037D01*
X71749867Y-90217607D01*
X71749865Y-90217611D01*
X71678591Y-90389684D01*
X71660895Y-90432406D01*
X71652320Y-90468125D01*
X71608471Y-90650770D01*
X71605465Y-90663289D01*
X71586835Y-90900000D01*
X70600000Y-90900000D01*
X70600000Y-85900000D01*
X71586835Y-85900000D01*
X71605465Y-86136711D01*
X71606619Y-86141518D01*
X71606620Y-86141524D01*
X71634025Y-86255671D01*
X71660895Y-86367594D01*
X71662788Y-86372165D01*
X71662789Y-86372167D01*
X71736197Y-86549390D01*
X71751760Y-86586963D01*
X71754346Y-86591183D01*
X71873241Y-86785202D01*
X71873245Y-86785208D01*
X71875824Y-86789416D01*
X72030031Y-86969969D01*
X72210584Y-87124176D01*
X72214792Y-87126755D01*
X72214798Y-87126759D01*
X72408817Y-87245654D01*
X72413037Y-87248240D01*
X72417607Y-87250133D01*
X72417611Y-87250135D01*
X72627833Y-87337211D01*
X72632406Y-87339105D01*
X72680349Y-87350615D01*
X72858476Y-87393380D01*
X72858482Y-87393381D01*
X72863289Y-87394535D01*
X73100000Y-87413165D01*
X73336711Y-87394535D01*
X73341518Y-87393381D01*
X73341524Y-87393380D01*
X73519651Y-87350615D01*
X73567594Y-87339105D01*
X73572167Y-87337211D01*
X73782389Y-87250135D01*
X73782393Y-87250133D01*
X73786963Y-87248240D01*
X73791183Y-87245654D01*
X73985202Y-87126759D01*
X73985208Y-87126755D01*
X73989416Y-87124176D01*
X74169969Y-86969969D01*
X74324176Y-86789416D01*
X74326755Y-86785208D01*
X74326759Y-86785202D01*
X74445654Y-86591183D01*
X74448240Y-86586963D01*
X74463804Y-86549390D01*
X74537211Y-86372167D01*
X74537212Y-86372165D01*
X74539105Y-86367594D01*
X74565975Y-86255671D01*
X74593380Y-86141524D01*
X74593381Y-86141518D01*
X74594535Y-86136711D01*
X74613165Y-85900000D01*
X76586835Y-85900000D01*
X76605465Y-86136711D01*
X76606619Y-86141518D01*
X76606620Y-86141524D01*
X76634025Y-86255671D01*
X76660895Y-86367594D01*
X76662788Y-86372165D01*
X76662789Y-86372167D01*
X76736197Y-86549390D01*
X76751760Y-86586963D01*
X76754346Y-86591183D01*
X76873241Y-86785202D01*
X76873245Y-86785208D01*
X76875824Y-86789416D01*
X77030031Y-86969969D01*
X77210584Y-87124176D01*
X77214792Y-87126755D01*
X77214798Y-87126759D01*
X77408817Y-87245654D01*
X77413037Y-87248240D01*
X77417607Y-87250133D01*
X77417611Y-87250135D01*
X77627833Y-87337211D01*
X77632406Y-87339105D01*
X77680349Y-87350615D01*
X77858476Y-87393380D01*
X77858482Y-87393381D01*
X77863289Y-87394535D01*
X78100000Y-87413165D01*
X78336711Y-87394535D01*
X78341518Y-87393381D01*
X78341524Y-87393380D01*
X78519651Y-87350615D01*
X78567594Y-87339105D01*
X78572167Y-87337211D01*
X78782389Y-87250135D01*
X78782393Y-87250133D01*
X78786963Y-87248240D01*
X78791183Y-87245654D01*
X78985202Y-87126759D01*
X78985208Y-87126755D01*
X78989416Y-87124176D01*
X79169969Y-86969969D01*
X79324176Y-86789416D01*
X79326755Y-86785208D01*
X79326759Y-86785202D01*
X79445654Y-86591183D01*
X79448240Y-86586963D01*
X79463804Y-86549390D01*
X79537211Y-86372167D01*
X79537212Y-86372165D01*
X79539105Y-86367594D01*
X79565975Y-86255671D01*
X79593380Y-86141524D01*
X79593381Y-86141518D01*
X79594535Y-86136711D01*
X79613165Y-85900000D01*
X79610386Y-85864694D01*
X103436931Y-85864694D01*
X103452989Y-86028468D01*
X103504932Y-86184615D01*
X103508581Y-86190640D01*
X103555159Y-86267548D01*
X103590179Y-86325373D01*
X103704491Y-86443747D01*
X103842189Y-86533854D01*
X103996428Y-86591215D01*
X104003409Y-86592146D01*
X104003411Y-86592147D01*
X104152561Y-86612048D01*
X104152565Y-86612048D01*
X104159542Y-86612979D01*
X104166553Y-86612341D01*
X104166557Y-86612341D01*
X104316403Y-86598704D01*
X104316404Y-86598704D01*
X104323424Y-86598065D01*
X104357592Y-86586963D01*
X104473230Y-86549390D01*
X104473233Y-86549389D01*
X104479929Y-86547213D01*
X104621279Y-86462951D01*
X104740449Y-86349468D01*
X104744350Y-86343597D01*
X104827614Y-86218275D01*
X104827615Y-86218273D01*
X104831515Y-86212403D01*
X104889951Y-86058568D01*
X104898507Y-85997689D01*
X104912302Y-85899534D01*
X104912303Y-85899527D01*
X104912853Y-85895610D01*
X104913141Y-85875000D01*
X104894798Y-85711466D01*
X104888998Y-85694809D01*
X104842998Y-85562717D01*
X104840680Y-85556060D01*
X104753476Y-85416505D01*
X104695499Y-85358122D01*
X104642486Y-85304737D01*
X104642482Y-85304734D01*
X104637522Y-85299739D01*
X104498580Y-85211563D01*
X104449447Y-85194068D01*
X104350189Y-85158723D01*
X104350187Y-85158722D01*
X104343555Y-85156361D01*
X104336569Y-85155528D01*
X104336565Y-85155527D01*
X104222071Y-85141875D01*
X104180153Y-85136877D01*
X104173150Y-85137613D01*
X104173149Y-85137613D01*
X104129935Y-85142155D01*
X104016495Y-85154078D01*
X104007380Y-85157181D01*
X103867382Y-85204840D01*
X103867379Y-85204841D01*
X103860715Y-85207110D01*
X103720555Y-85293337D01*
X103602982Y-85408473D01*
X103513838Y-85546797D01*
X103511427Y-85553420D01*
X103511426Y-85553423D01*
X103459966Y-85694809D01*
X103459965Y-85694814D01*
X103457556Y-85701432D01*
X103436931Y-85864694D01*
X79610386Y-85864694D01*
X79594535Y-85663289D01*
X79587416Y-85633634D01*
X79540260Y-85437218D01*
X79539105Y-85432406D01*
X79531645Y-85414396D01*
X79450135Y-85217611D01*
X79450133Y-85217607D01*
X79448240Y-85213037D01*
X79412110Y-85154078D01*
X79326759Y-85014798D01*
X79326755Y-85014792D01*
X79324176Y-85010584D01*
X79169969Y-84830031D01*
X78989416Y-84675824D01*
X78985208Y-84673245D01*
X78985202Y-84673241D01*
X78791183Y-84554346D01*
X78786963Y-84551760D01*
X78782393Y-84549867D01*
X78782389Y-84549865D01*
X78572167Y-84462789D01*
X78572165Y-84462788D01*
X78567594Y-84460895D01*
X78487391Y-84441640D01*
X78341524Y-84406620D01*
X78341518Y-84406619D01*
X78336711Y-84405465D01*
X78100000Y-84386835D01*
X77863289Y-84405465D01*
X77858482Y-84406619D01*
X77858476Y-84406620D01*
X77712609Y-84441640D01*
X77632406Y-84460895D01*
X77627835Y-84462788D01*
X77627833Y-84462789D01*
X77417611Y-84549865D01*
X77417607Y-84549867D01*
X77413037Y-84551760D01*
X77408817Y-84554346D01*
X77214798Y-84673241D01*
X77214792Y-84673245D01*
X77210584Y-84675824D01*
X77030031Y-84830031D01*
X76875824Y-85010584D01*
X76873245Y-85014792D01*
X76873241Y-85014798D01*
X76787890Y-85154078D01*
X76751760Y-85213037D01*
X76749867Y-85217607D01*
X76749865Y-85217611D01*
X76668355Y-85414396D01*
X76660895Y-85432406D01*
X76659740Y-85437218D01*
X76612585Y-85633634D01*
X76605465Y-85663289D01*
X76586835Y-85900000D01*
X74613165Y-85900000D01*
X74594535Y-85663289D01*
X74587416Y-85633634D01*
X74540260Y-85437218D01*
X74539105Y-85432406D01*
X74531645Y-85414396D01*
X74450135Y-85217611D01*
X74450133Y-85217607D01*
X74448240Y-85213037D01*
X74412110Y-85154078D01*
X74326759Y-85014798D01*
X74326755Y-85014792D01*
X74324176Y-85010584D01*
X74169969Y-84830031D01*
X73989416Y-84675824D01*
X73985208Y-84673245D01*
X73985202Y-84673241D01*
X73791183Y-84554346D01*
X73786963Y-84551760D01*
X73782393Y-84549867D01*
X73782389Y-84549865D01*
X73572167Y-84462789D01*
X73572165Y-84462788D01*
X73567594Y-84460895D01*
X73487391Y-84441640D01*
X73341524Y-84406620D01*
X73341518Y-84406619D01*
X73336711Y-84405465D01*
X73100000Y-84386835D01*
X72863289Y-84405465D01*
X72858482Y-84406619D01*
X72858476Y-84406620D01*
X72712609Y-84441640D01*
X72632406Y-84460895D01*
X72627835Y-84462788D01*
X72627833Y-84462789D01*
X72417611Y-84549865D01*
X72417607Y-84549867D01*
X72413037Y-84551760D01*
X72408817Y-84554346D01*
X72214798Y-84673241D01*
X72214792Y-84673245D01*
X72210584Y-84675824D01*
X72030031Y-84830031D01*
X71875824Y-85010584D01*
X71873245Y-85014792D01*
X71873241Y-85014798D01*
X71787890Y-85154078D01*
X71751760Y-85213037D01*
X71749867Y-85217607D01*
X71749865Y-85217611D01*
X71668355Y-85414396D01*
X71660895Y-85432406D01*
X71659740Y-85437218D01*
X71612585Y-85633634D01*
X71605465Y-85663289D01*
X71586835Y-85900000D01*
X70600000Y-85900000D01*
X70600000Y-84155425D01*
X97529145Y-84155425D01*
X97547070Y-84352388D01*
X97602910Y-84542119D01*
X97605763Y-84547577D01*
X97605765Y-84547581D01*
X97633965Y-84601521D01*
X97694540Y-84717390D01*
X97818468Y-84871525D01*
X97823192Y-84875489D01*
X97830433Y-84881565D01*
X97969974Y-84998654D01*
X97975372Y-85001621D01*
X97975377Y-85001625D01*
X98118680Y-85080405D01*
X98143287Y-85093933D01*
X98149154Y-85095794D01*
X98149156Y-85095795D01*
X98278663Y-85136877D01*
X98331806Y-85153735D01*
X98485727Y-85171000D01*
X98592269Y-85171000D01*
X98595325Y-85170700D01*
X98595332Y-85170700D01*
X98653840Y-85164963D01*
X98739333Y-85156580D01*
X98745234Y-85154798D01*
X98745236Y-85154798D01*
X98818553Y-85132662D01*
X98928669Y-85099416D01*
X99103296Y-85006566D01*
X99189562Y-84936209D01*
X99251787Y-84885460D01*
X99251790Y-84885457D01*
X99256562Y-84881565D01*
X99268844Y-84866719D01*
X99378701Y-84733925D01*
X99378703Y-84733921D01*
X99382630Y-84729175D01*
X99476698Y-84555201D01*
X99535182Y-84366268D01*
X99555855Y-84169575D01*
X99537930Y-83972612D01*
X99482090Y-83782881D01*
X99472419Y-83764381D01*
X99393313Y-83613068D01*
X99390460Y-83607610D01*
X99266532Y-83453475D01*
X99260227Y-83448184D01*
X99243834Y-83434429D01*
X99115026Y-83326346D01*
X99109628Y-83323379D01*
X99109623Y-83323375D01*
X98947108Y-83234033D01*
X98947109Y-83234033D01*
X98941713Y-83231067D01*
X98935846Y-83229206D01*
X98935844Y-83229205D01*
X98759064Y-83173127D01*
X98759063Y-83173127D01*
X98753194Y-83171265D01*
X98599273Y-83154000D01*
X98492731Y-83154000D01*
X98489675Y-83154300D01*
X98489668Y-83154300D01*
X98431160Y-83160037D01*
X98345667Y-83168420D01*
X98339766Y-83170202D01*
X98339764Y-83170202D01*
X98266447Y-83192338D01*
X98156331Y-83225584D01*
X97981704Y-83318434D01*
X97895438Y-83388791D01*
X97833213Y-83439540D01*
X97833210Y-83439543D01*
X97828438Y-83443435D01*
X97824511Y-83448182D01*
X97824509Y-83448184D01*
X97706299Y-83591075D01*
X97706297Y-83591079D01*
X97702370Y-83595825D01*
X97608302Y-83769799D01*
X97549818Y-83958732D01*
X97529145Y-84155425D01*
X70600000Y-84155425D01*
X70600000Y-80926000D01*
X70620002Y-80857879D01*
X70673658Y-80811386D01*
X70726000Y-80800000D01*
X134474000Y-80800000D01*
X134542121Y-80820002D01*
G37*
%TD.AperFunction*%
%TD*%
M02*
