%TF.GenerationSoftware,KiCad,Pcbnew,(6.0.2)*%
%TF.CreationDate,2022-04-10T14:27:56+08:00*%
%TF.ProjectId,PlantCare,506c616e-7443-4617-9265-2e6b69636164,rev?*%
%TF.SameCoordinates,Original*%
%TF.FileFunction,Legend,Top*%
%TF.FilePolarity,Positive*%
%FSLAX46Y46*%
G04 Gerber Fmt 4.6, Leading zero omitted, Abs format (unit mm)*
G04 Created by KiCad (PCBNEW (6.0.2)) date 2022-04-10 14:27:56*
%MOMM*%
%LPD*%
G01*
G04 APERTURE LIST*
%ADD10C,0.100000*%
%ADD11C,0.050000*%
%ADD12C,0.120000*%
%ADD13C,0.254000*%
G04 APERTURE END LIST*
D10*
X89438095Y-118611904D02*
X89590476Y-118611904D01*
X89666666Y-118650000D01*
X89742857Y-118726190D01*
X89780952Y-118878571D01*
X89780952Y-119145238D01*
X89742857Y-119297619D01*
X89666666Y-119373809D01*
X89590476Y-119411904D01*
X89438095Y-119411904D01*
X89361904Y-119373809D01*
X89285714Y-119297619D01*
X89247619Y-119145238D01*
X89247619Y-118878571D01*
X89285714Y-118726190D01*
X89361904Y-118650000D01*
X89438095Y-118611904D01*
X90390476Y-118992857D02*
X90123809Y-118992857D01*
X90123809Y-119411904D02*
X90123809Y-118611904D01*
X90504761Y-118611904D01*
X91076190Y-118992857D02*
X90809523Y-118992857D01*
X90809523Y-119411904D02*
X90809523Y-118611904D01*
X91190476Y-118611904D01*
D11*
%TO.C,J1*%
X91787500Y-83962500D02*
X113487500Y-83962500D01*
X113487500Y-83962500D02*
X113487500Y-94762500D01*
X113487500Y-94762500D02*
X91787500Y-94762500D01*
X91787500Y-94762500D02*
X91787500Y-83962500D01*
X88662500Y-96112500D02*
X116612500Y-96112500D01*
X116612500Y-96112500D02*
X116612500Y-82612500D01*
X116612500Y-82612500D02*
X88662500Y-82612500D01*
X88662500Y-82612500D02*
X88662500Y-96112500D01*
X102542500Y-83162500D02*
X102542500Y-84612500D01*
X102542500Y-95562500D02*
X102542500Y-93812500D01*
X90162500Y-93562500D02*
X88662500Y-93562500D01*
X90162500Y-85162500D02*
X90162500Y-93562500D01*
X88662500Y-85162500D02*
X96562500Y-85162500D01*
X96562500Y-95562500D02*
X102542500Y-95562500D01*
X96562500Y-83162500D02*
X96562500Y-95562500D01*
X88662500Y-93562500D02*
X96562500Y-93562500D01*
X102542500Y-83162500D02*
X96562500Y-83162500D01*
X90162500Y-85162500D02*
X88662500Y-85162500D01*
D12*
%TO.C,R15*%
X107553641Y-108780000D02*
X107246359Y-108780000D01*
X107553641Y-108020000D02*
X107246359Y-108020000D01*
%TO.C,R14*%
X107246359Y-109620000D02*
X107553641Y-109620000D01*
X107246359Y-110380000D02*
X107553641Y-110380000D01*
%TO.C,R4*%
X122420000Y-96853641D02*
X122420000Y-96546359D01*
X123180000Y-96853641D02*
X123180000Y-96546359D01*
%TO.C,R11*%
X82596359Y-107870000D02*
X82903641Y-107870000D01*
X82596359Y-108630000D02*
X82903641Y-108630000D01*
%TO.C,U1*%
X97890000Y-100805000D02*
X99150000Y-100805000D01*
X104710000Y-100805000D02*
X103450000Y-100805000D01*
X104710000Y-104565000D02*
X104710000Y-100805000D01*
X97890000Y-106815000D02*
X97890000Y-100805000D01*
%TO.C,Q4*%
X82670000Y-113510000D02*
X85100000Y-113510000D01*
X82650000Y-111500000D02*
X82650000Y-110450000D01*
X82650000Y-110450000D02*
X84500000Y-110450000D01*
X82650000Y-113500000D02*
X82650000Y-112500000D01*
%TO.C,U2*%
X127400000Y-98880000D02*
X127400000Y-98270000D01*
X110780000Y-101000000D02*
X110780000Y-98880000D01*
X110780000Y-98880000D02*
X111400000Y-98880000D01*
X127400000Y-98880000D02*
X135020000Y-98880000D01*
X135020000Y-115120000D02*
X127400000Y-115120000D01*
X110780000Y-115120000D02*
X110780000Y-113000000D01*
X135020000Y-98880000D02*
X135020000Y-115120000D01*
X111400000Y-115120000D02*
X110780000Y-115120000D01*
D10*
%TO.C,D3*%
X81760000Y-90800000D02*
G75*
G03*
X81760000Y-90800000I-50000J0D01*
G01*
%TO.C,D2*%
X81735000Y-109575000D02*
G75*
G03*
X81735000Y-109575000I-50000J0D01*
G01*
D12*
%TO.C,R1*%
X107553641Y-111980000D02*
X107246359Y-111980000D01*
X107553641Y-111220000D02*
X107246359Y-111220000D01*
%TO.C,C10*%
X93692164Y-107640000D02*
X93907836Y-107640000D01*
X93692164Y-108360000D02*
X93907836Y-108360000D01*
%TO.C,C8*%
X86392164Y-107640000D02*
X86607836Y-107640000D01*
X86392164Y-108360000D02*
X86607836Y-108360000D01*
%TO.C,R3*%
X107553641Y-113580000D02*
X107246359Y-113580000D01*
X107553641Y-112820000D02*
X107246359Y-112820000D01*
D13*
%TO.C,C1*%
X108600000Y-99237000D02*
X106200000Y-99237000D01*
X105750000Y-105127000D02*
X105750000Y-103200000D01*
X105750000Y-101600000D02*
X105750000Y-99673000D01*
X109050000Y-99673000D02*
X105750000Y-99673000D01*
X105750000Y-99673000D02*
X106200000Y-99237000D01*
X109050000Y-105127000D02*
X109050000Y-103200000D01*
X109050000Y-99673000D02*
X108600000Y-99237000D01*
X109050000Y-101600000D02*
X109050000Y-99673000D01*
X109050000Y-105127000D02*
X105750000Y-105127000D01*
D12*
%TO.C,Q2*%
X82650000Y-86850000D02*
X84500000Y-86850000D01*
X82650000Y-89900000D02*
X82650000Y-88900000D01*
X82650000Y-87900000D02*
X82650000Y-86850000D01*
X82670000Y-89910000D02*
X85100000Y-89910000D01*
%TO.C,J2*%
X117600000Y-117140000D02*
X125660000Y-117140000D01*
X117600000Y-119260000D02*
X117600000Y-117140000D01*
X116600000Y-119260000D02*
X115540000Y-119260000D01*
X115540000Y-119260000D02*
X115540000Y-118200000D01*
X117600000Y-119260000D02*
X125660000Y-119260000D01*
X125660000Y-119260000D02*
X125660000Y-117140000D01*
%TO.C,C2*%
X101492164Y-108360000D02*
X101707836Y-108360000D01*
X101492164Y-107640000D02*
X101707836Y-107640000D01*
%TO.C,C9*%
X88607836Y-108360000D02*
X88392164Y-108360000D01*
X88607836Y-107640000D02*
X88392164Y-107640000D01*
%TO.C,R12*%
X82646359Y-91620000D02*
X82953641Y-91620000D01*
X82646359Y-92380000D02*
X82953641Y-92380000D01*
%TO.C,R9*%
X107553641Y-114420000D02*
X107246359Y-114420000D01*
X107553641Y-115180000D02*
X107246359Y-115180000D01*
%TO.C,C4*%
X124660000Y-96592164D02*
X124660000Y-96807836D01*
X123940000Y-96592164D02*
X123940000Y-96807836D01*
%TO.C,R10*%
X123353641Y-91180000D02*
X123046359Y-91180000D01*
X123353641Y-90420000D02*
X123046359Y-90420000D01*
%TO.C,Q1*%
X122200000Y-89960000D02*
X121550000Y-89960000D01*
X122200000Y-86840000D02*
X120525000Y-86840000D01*
X122200000Y-89960000D02*
X122850000Y-89960000D01*
X122200000Y-86840000D02*
X122850000Y-86840000D01*
%TO.C,C11*%
X95907836Y-108360000D02*
X95692164Y-108360000D01*
X95907836Y-107640000D02*
X95692164Y-107640000D01*
%TO.C,R13*%
X121046359Y-91180000D02*
X121353641Y-91180000D01*
X121046359Y-90420000D02*
X121353641Y-90420000D01*
%TO.C,U4*%
X89710000Y-100805000D02*
X88450000Y-100805000D01*
X82890000Y-106815000D02*
X82890000Y-100805000D01*
X82890000Y-100805000D02*
X84150000Y-100805000D01*
X89710000Y-104565000D02*
X89710000Y-100805000D01*
%TO.C,R8*%
X126180000Y-96853641D02*
X126180000Y-96546359D01*
X125420000Y-96853641D02*
X125420000Y-96546359D01*
%TO.C,SW1*%
X94600000Y-119255000D02*
X94600000Y-120545000D01*
X93150000Y-119255000D02*
X98850000Y-119255000D01*
X95900000Y-120545000D02*
X95700000Y-120755000D01*
X95900000Y-120545000D02*
X95900000Y-119255000D01*
X97400000Y-116405000D02*
X97600000Y-116405000D01*
X94400000Y-116405000D02*
X96100000Y-116405000D01*
X94800000Y-120755000D02*
X95700000Y-120755000D01*
X92550000Y-117455000D02*
X92550000Y-118245000D01*
X99450000Y-118245000D02*
X99450000Y-117455000D01*
X94600000Y-120545000D02*
X94800000Y-120755000D01*
%TO.C,C3*%
X103707836Y-107640000D02*
X103492164Y-107640000D01*
X103707836Y-108360000D02*
X103492164Y-108360000D01*
%TO.C,U5*%
X90390000Y-106815000D02*
X90390000Y-100805000D01*
X90390000Y-100805000D02*
X91650000Y-100805000D01*
X97210000Y-100805000D02*
X95950000Y-100805000D01*
X97210000Y-104565000D02*
X97210000Y-100805000D01*
%TD*%
M02*
