%TF.GenerationSoftware,KiCad,Pcbnew,(6.0.2)*%
%TF.CreationDate,2022-02-27T22:40:51+08:00*%
%TF.ProjectId,PlantCare,506c616e-7443-4617-9265-2e6b69636164,rev?*%
%TF.SameCoordinates,Original*%
%TF.FileFunction,Copper,L1,Top*%
%TF.FilePolarity,Positive*%
%FSLAX46Y46*%
G04 Gerber Fmt 4.6, Leading zero omitted, Abs format (unit mm)*
G04 Created by KiCad (PCBNEW (6.0.2)) date 2022-02-27 22:40:51*
%MOMM*%
%LPD*%
G01*
G04 APERTURE LIST*
G04 Aperture macros list*
%AMRoundRect*
0 Rectangle with rounded corners*
0 $1 Rounding radius*
0 $2 $3 $4 $5 $6 $7 $8 $9 X,Y pos of 4 corners*
0 Add a 4 corners polygon primitive as box body*
4,1,4,$2,$3,$4,$5,$6,$7,$8,$9,$2,$3,0*
0 Add four circle primitives for the rounded corners*
1,1,$1+$1,$2,$3*
1,1,$1+$1,$4,$5*
1,1,$1+$1,$6,$7*
1,1,$1+$1,$8,$9*
0 Add four rect primitives between the rounded corners*
20,1,$1+$1,$2,$3,$4,$5,0*
20,1,$1+$1,$4,$5,$6,$7,0*
20,1,$1+$1,$6,$7,$8,$9,0*
20,1,$1+$1,$8,$9,$2,$3,0*%
G04 Aperture macros list end*
%TA.AperFunction,SMDPad,CuDef*%
%ADD10R,0.800000X1.000000*%
%TD*%
%TA.AperFunction,SMDPad,CuDef*%
%ADD11R,1.500000X0.700000*%
%TD*%
%TA.AperFunction,SMDPad,CuDef*%
%ADD12RoundRect,0.135000X-0.185000X0.135000X-0.185000X-0.135000X0.185000X-0.135000X0.185000X0.135000X0*%
%TD*%
%TA.AperFunction,SMDPad,CuDef*%
%ADD13RoundRect,0.135000X0.185000X-0.135000X0.185000X0.135000X-0.185000X0.135000X-0.185000X-0.135000X0*%
%TD*%
%TA.AperFunction,SMDPad,CuDef*%
%ADD14RoundRect,0.135000X-0.135000X-0.185000X0.135000X-0.185000X0.135000X0.185000X-0.135000X0.185000X0*%
%TD*%
%TA.AperFunction,SMDPad,CuDef*%
%ADD15RoundRect,0.147500X-0.172500X0.147500X-0.172500X-0.147500X0.172500X-0.147500X0.172500X0.147500X0*%
%TD*%
%TA.AperFunction,SMDPad,CuDef*%
%ADD16R,1.500000X2.000000*%
%TD*%
%TA.AperFunction,SMDPad,CuDef*%
%ADD17R,3.800000X2.000000*%
%TD*%
%TA.AperFunction,SMDPad,CuDef*%
%ADD18RoundRect,0.140000X-0.140000X-0.170000X0.140000X-0.170000X0.140000X0.170000X-0.140000X0.170000X0*%
%TD*%
%TA.AperFunction,SMDPad,CuDef*%
%ADD19R,1.000000X2.500000*%
%TD*%
%TA.AperFunction,SMDPad,CuDef*%
%ADD20R,1.800000X1.000000*%
%TD*%
%TA.AperFunction,SMDPad,CuDef*%
%ADD21R,0.650000X1.220000*%
%TD*%
%TA.AperFunction,ComponentPad*%
%ADD22R,1.000000X1.000000*%
%TD*%
%TA.AperFunction,ComponentPad*%
%ADD23O,1.000000X1.000000*%
%TD*%
%TA.AperFunction,SMDPad,CuDef*%
%ADD24RoundRect,0.135000X0.135000X0.185000X-0.135000X0.185000X-0.135000X-0.185000X0.135000X-0.185000X0*%
%TD*%
%TA.AperFunction,SMDPad,CuDef*%
%ADD25RoundRect,0.140000X0.140000X0.170000X-0.140000X0.170000X-0.140000X-0.170000X0.140000X-0.170000X0*%
%TD*%
%TA.AperFunction,SMDPad,CuDef*%
%ADD26RoundRect,0.150000X0.150000X-0.587500X0.150000X0.587500X-0.150000X0.587500X-0.150000X-0.587500X0*%
%TD*%
%TA.AperFunction,SMDPad,CuDef*%
%ADD27R,2.600000X1.800000*%
%TD*%
%TA.AperFunction,ComponentPad*%
%ADD28R,1.700000X1.700000*%
%TD*%
%TA.AperFunction,SMDPad,CuDef*%
%ADD29RoundRect,0.140000X0.170000X-0.140000X0.170000X0.140000X-0.170000X0.140000X-0.170000X-0.140000X0*%
%TD*%
%TA.AperFunction,SMDPad,CuDef*%
%ADD30R,1.450000X0.600000*%
%TD*%
%TA.AperFunction,SMDPad,CuDef*%
%ADD31R,1.450000X0.300000*%
%TD*%
%TA.AperFunction,ComponentPad*%
%ADD32O,1.600000X1.000000*%
%TD*%
%TA.AperFunction,ComponentPad*%
%ADD33O,2.100000X1.000000*%
%TD*%
%TA.AperFunction,ComponentPad*%
%ADD34O,1.700000X1.700000*%
%TD*%
%TA.AperFunction,SMDPad,CuDef*%
%ADD35R,1.200000X0.900000*%
%TD*%
%TA.AperFunction,SMDPad,CuDef*%
%ADD36O,1.800000X0.600000*%
%TD*%
%TA.AperFunction,ViaPad*%
%ADD37C,0.450000*%
%TD*%
%TA.AperFunction,Conductor*%
%ADD38C,0.400000*%
%TD*%
%TA.AperFunction,Conductor*%
%ADD39C,0.600000*%
%TD*%
%TA.AperFunction,Conductor*%
%ADD40C,0.200000*%
%TD*%
G04 APERTURE END LIST*
D10*
%TO.P,SW1,*%
%TO.N,*%
X149380000Y-100180000D03*
X147170000Y-100180000D03*
X147170000Y-107480000D03*
X149380000Y-107480000D03*
D11*
%TO.P,SW1,1,A*%
%TO.N,+BATT*%
X146520000Y-106080000D03*
%TO.P,SW1,2,B*%
%TO.N,Net-(C2-Pad1)*%
X146520000Y-103080000D03*
%TO.P,SW1,3,C*%
%TO.N,unconnected-(SW1-Pad3)*%
X146520000Y-101580000D03*
%TD*%
D12*
%TO.P,R6,1*%
%TO.N,/nRST*%
X115872500Y-108650000D03*
%TO.P,R6,2*%
%TO.N,Net-(R5-Pad2)*%
X115872500Y-109670000D03*
%TD*%
D13*
%TO.P,R16,1*%
%TO.N,GND*%
X117925000Y-109670000D03*
%TO.P,R16,2*%
%TO.N,/ADC*%
X117925000Y-108650000D03*
%TD*%
D14*
%TO.P,R9,1*%
%TO.N,/GPIO15*%
X127260000Y-89440000D03*
%TO.P,R9,2*%
%TO.N,GND*%
X128280000Y-89440000D03*
%TD*%
D12*
%TO.P,R8,1*%
%TO.N,/nRST*%
X114846250Y-108650000D03*
%TO.P,R8,2*%
%TO.N,+3V3*%
X114846250Y-109670000D03*
%TD*%
%TO.P,R4,1*%
%TO.N,/EN*%
X118951250Y-108650000D03*
%TO.P,R4,2*%
%TO.N,+3V3*%
X118951250Y-109670000D03*
%TD*%
D15*
%TO.P,D1,1,K*%
%TO.N,/GPIO16*%
X121003750Y-108675000D03*
%TO.P,D1,2,A*%
%TO.N,Net-(D1-Pad2)*%
X121003750Y-109645000D03*
%TD*%
D14*
%TO.P,R10,1*%
%TO.N,/GPIO5*%
X118900000Y-89440000D03*
%TO.P,R10,2*%
%TO.N,Net-(Q1-Pad1)*%
X119920000Y-89440000D03*
%TD*%
D16*
%TO.P,U1,1,GND*%
%TO.N,GND*%
X139590000Y-106980000D03*
%TO.P,U1,2,VO*%
%TO.N,+3V3*%
X141890000Y-106980000D03*
D17*
X141890000Y-100680000D03*
D16*
%TO.P,U1,3,VI*%
%TO.N,Net-(C2-Pad1)*%
X144190000Y-106980000D03*
%TD*%
D18*
%TO.P,C5,1*%
%TO.N,Net-(C5-Pad1)*%
X142371507Y-89290000D03*
%TO.P,C5,2*%
%TO.N,GND*%
X143331507Y-89290000D03*
%TD*%
D19*
%TO.P,U2,1,~{RST}*%
%TO.N,/nRST*%
X114860000Y-106680000D03*
%TO.P,U2,2,ADC*%
%TO.N,/ADC*%
X116860000Y-106680000D03*
%TO.P,U2,3,EN*%
%TO.N,/EN*%
X118860000Y-106680000D03*
%TO.P,U2,4,GPIO16*%
%TO.N,/GPIO16*%
X120860000Y-106680000D03*
%TO.P,U2,5,GPIO14*%
%TO.N,/GPIO14*%
X122860000Y-106680000D03*
%TO.P,U2,6,GPIO12*%
%TO.N,/GPIO12*%
X124860000Y-106680000D03*
%TO.P,U2,7,GPIO13*%
%TO.N,/GPIO13*%
X126860000Y-106680000D03*
%TO.P,U2,8,VCC*%
%TO.N,+3V3*%
X128860000Y-106680000D03*
D20*
%TO.P,U2,9,CS0*%
%TO.N,unconnected-(U2-Pad9)*%
X130360000Y-104080000D03*
%TO.P,U2,10,MISO*%
%TO.N,unconnected-(U2-Pad10)*%
X130360000Y-102080000D03*
%TO.P,U2,11,GPIO9*%
%TO.N,unconnected-(U2-Pad11)*%
X130360000Y-100080000D03*
%TO.P,U2,12,GPIO10*%
%TO.N,unconnected-(U2-Pad12)*%
X130360000Y-98080000D03*
%TO.P,U2,13,MOSI*%
%TO.N,unconnected-(U2-Pad13)*%
X130360000Y-96080000D03*
%TO.P,U2,14,SCLK*%
%TO.N,unconnected-(U2-Pad14)*%
X130360000Y-94080000D03*
D19*
%TO.P,U2,15,GND*%
%TO.N,GND*%
X128860000Y-91480000D03*
%TO.P,U2,16,GPIO15*%
%TO.N,/GPIO15*%
X126860000Y-91480000D03*
%TO.P,U2,17,GPIO2*%
%TO.N,/GPIO2*%
X124860000Y-91480000D03*
%TO.P,U2,18,GPIO0*%
%TO.N,/GPIO0*%
X122860000Y-91480000D03*
%TO.P,U2,19,GPIO4*%
%TO.N,/GPIO4*%
X120860000Y-91480000D03*
%TO.P,U2,20,GPIO5*%
%TO.N,/GPIO5*%
X118860000Y-91480000D03*
%TO.P,U2,21,GPIO3/RXD*%
%TO.N,/RXD*%
X116860000Y-91480000D03*
%TO.P,U2,22,GPIO1/TXD*%
%TO.N,/TXD*%
X114860000Y-91480000D03*
%TD*%
D21*
%TO.P,Q2,1,B*%
%TO.N,Net-(Q2-Pad1)*%
X134141507Y-95970000D03*
%TO.P,Q2,2,E*%
%TO.N,Net-(Q2-Pad2)*%
X132241507Y-95970000D03*
%TO.P,Q2,3,C*%
%TO.N,/EN*%
X133191507Y-98590000D03*
%TD*%
D22*
%TO.P,J2,1,GND*%
%TO.N,GND*%
X128000000Y-109100000D03*
D23*
%TO.P,J2,2,GPIO0*%
%TO.N,/GPIO0*%
X126730000Y-109100000D03*
%TO.P,J2,3,RXD*%
%TO.N,/RXD*%
X125460000Y-109100000D03*
%TO.P,J2,4,TXD*%
%TO.N,/TXD*%
X124190000Y-109100000D03*
%TD*%
D14*
%TO.P,R3,1*%
%TO.N,/GPIO2*%
X125170000Y-89440000D03*
%TO.P,R3,2*%
%TO.N,+3V3*%
X126190000Y-89440000D03*
%TD*%
D18*
%TO.P,C7,1*%
%TO.N,Net-(C7-Pad1)*%
X142401507Y-91725000D03*
%TO.P,C7,2*%
%TO.N,GND*%
X143361507Y-91725000D03*
%TD*%
D13*
%TO.P,R14,1*%
%TO.N,Net-(Q2-Pad1)*%
X134141507Y-94660000D03*
%TO.P,R14,2*%
%TO.N,Net-(Q3-Pad2)*%
X134141507Y-93640000D03*
%TD*%
D14*
%TO.P,R12,1*%
%TO.N,Net-(R12-Pad1)*%
X142347542Y-94193884D03*
%TO.P,R12,2*%
%TO.N,/TXD*%
X143367542Y-94193884D03*
%TD*%
D24*
%TO.P,R13,1*%
%TO.N,+3V3*%
X140250000Y-108780000D03*
%TO.P,R13,2*%
%TO.N,Net-(Q1-Pad1)*%
X139230000Y-108780000D03*
%TD*%
D12*
%TO.P,R5,1*%
%TO.N,/GPIO16*%
X119977500Y-108650000D03*
%TO.P,R5,2*%
%TO.N,Net-(R5-Pad2)*%
X119977500Y-109670000D03*
%TD*%
D14*
%TO.P,R1,1*%
%TO.N,/GPIO0*%
X123080000Y-89440000D03*
%TO.P,R1,2*%
%TO.N,+3V3*%
X124100000Y-89440000D03*
%TD*%
D18*
%TO.P,C6,1*%
%TO.N,Net-(C5-Pad1)*%
X142391507Y-90507500D03*
%TO.P,C6,2*%
%TO.N,GND*%
X143351507Y-90507500D03*
%TD*%
D25*
%TO.P,C2,1*%
%TO.N,Net-(C2-Pad1)*%
X144290000Y-108790000D03*
%TO.P,C2,2*%
%TO.N,GND*%
X143330000Y-108790000D03*
%TD*%
D18*
%TO.P,C3,1*%
%TO.N,+3V3*%
X141305000Y-108790000D03*
%TO.P,C3,2*%
%TO.N,GND*%
X142265000Y-108790000D03*
%TD*%
D12*
%TO.P,R2,1*%
%TO.N,+3V3*%
X122030000Y-108650000D03*
%TO.P,R2,2*%
%TO.N,Net-(D1-Pad2)*%
X122030000Y-109670000D03*
%TD*%
D21*
%TO.P,Q4,1,G*%
%TO.N,/GPIO4*%
X137602000Y-103846000D03*
%TO.P,Q4,2,S*%
%TO.N,GND*%
X135702000Y-103846000D03*
%TO.P,Q4,3,D*%
%TO.N,/control*%
X136652000Y-106466000D03*
%TD*%
D26*
%TO.P,Q1,1,B*%
%TO.N,Net-(Q1-Pad1)*%
X135600000Y-102029500D03*
%TO.P,Q1,2,E*%
%TO.N,GND*%
X137500000Y-102029500D03*
%TO.P,Q1,3,C*%
%TO.N,Net-(J1-Pad11)*%
X136550000Y-100154500D03*
%TD*%
D27*
%TO.P,C1,1*%
%TO.N,+3V3*%
X133170000Y-104560000D03*
%TO.P,C1,2*%
%TO.N,GND*%
X133170000Y-101560000D03*
%TD*%
D28*
%TO.P,J5,1,Pin_1*%
%TO.N,/control*%
X131230000Y-108690000D03*
%TD*%
D29*
%TO.P,C4,1*%
%TO.N,GND*%
X113830000Y-109660000D03*
%TO.P,C4,2*%
%TO.N,/nRST*%
X113830000Y-108700000D03*
%TD*%
D21*
%TO.P,Q3,1,B*%
%TO.N,Net-(Q3-Pad1)*%
X132241507Y-92330000D03*
%TO.P,Q3,2,E*%
%TO.N,Net-(Q3-Pad2)*%
X134141507Y-92330000D03*
%TO.P,Q3,3,C*%
%TO.N,/GPIO0*%
X133191507Y-89710000D03*
%TD*%
D24*
%TO.P,R11,1*%
%TO.N,/RXD*%
X143352108Y-92997757D03*
%TO.P,R11,2*%
%TO.N,Net-(R11-Pad2)*%
X142332108Y-92997757D03*
%TD*%
D30*
%TO.P,J3,A1,GND*%
%TO.N,GND*%
X144986507Y-97390000D03*
%TO.P,J3,A4,VBUS*%
%TO.N,Net-(D2-Pad2)*%
X144986507Y-96590000D03*
D31*
%TO.P,J3,A5,CC1*%
%TO.N,unconnected-(J3-PadA5)*%
X144986507Y-95390000D03*
%TO.P,J3,A6,D+*%
%TO.N,Net-(J3-PadA6)*%
X144986507Y-94390000D03*
%TO.P,J3,A7,D-*%
%TO.N,Net-(J3-PadA7)*%
X144986507Y-93890000D03*
%TO.P,J3,A8,SBU1*%
%TO.N,unconnected-(J3-PadA8)*%
X144986507Y-92890000D03*
D30*
%TO.P,J3,A9,VBUS*%
%TO.N,Net-(D2-Pad2)*%
X144986507Y-91690000D03*
%TO.P,J3,A12,GND*%
%TO.N,GND*%
X144986507Y-90890000D03*
%TO.P,J3,B1,GND*%
X144986507Y-90890000D03*
%TO.P,J3,B4,VBUS*%
%TO.N,Net-(D2-Pad2)*%
X144986507Y-91690000D03*
D31*
%TO.P,J3,B5,CC2*%
%TO.N,unconnected-(J3-PadB5)*%
X144986507Y-92390000D03*
%TO.P,J3,B6,D+*%
%TO.N,Net-(J3-PadA6)*%
X144986507Y-93390000D03*
%TO.P,J3,B7,D-*%
%TO.N,Net-(J3-PadA7)*%
X144986507Y-94890000D03*
%TO.P,J3,B8,SBU2*%
%TO.N,unconnected-(J3-PadB8)*%
X144986507Y-95890000D03*
D30*
%TO.P,J3,B9,VBUS*%
%TO.N,Net-(D2-Pad2)*%
X144986507Y-96590000D03*
%TO.P,J3,B12,GND*%
%TO.N,GND*%
X144986507Y-97390000D03*
D32*
%TO.P,J3,S1,SHIELD*%
X150081507Y-98460000D03*
X150081507Y-89820000D03*
D33*
X145901507Y-89820000D03*
X145901507Y-98460000D03*
%TD*%
D12*
%TO.P,R17,1*%
%TO.N,/ADC*%
X116898750Y-108650000D03*
%TO.P,R17,2*%
%TO.N,+BATT*%
X116898750Y-109670000D03*
%TD*%
D28*
%TO.P,J4,1,Pin_1*%
%TO.N,+BATT*%
X136855000Y-108660000D03*
D34*
%TO.P,J4,2,Pin_2*%
%TO.N,GND*%
X134315000Y-108660000D03*
%TD*%
D35*
%TO.P,D2,1,K*%
%TO.N,Net-(C5-Pad1)*%
X143041507Y-95450000D03*
%TO.P,D2,2,A*%
%TO.N,Net-(D2-Pad2)*%
X143041507Y-98750000D03*
%TD*%
D12*
%TO.P,R15,1*%
%TO.N,Net-(Q3-Pad1)*%
X132241507Y-93640000D03*
%TO.P,R15,2*%
%TO.N,Net-(Q2-Pad2)*%
X132241507Y-94660000D03*
%TD*%
D36*
%TO.P,U3,1,GND*%
%TO.N,GND*%
X135771507Y-89850000D03*
%TO.P,U3,2,TXD*%
%TO.N,Net-(R11-Pad2)*%
X135771507Y-91120000D03*
%TO.P,U3,3,RXD*%
%TO.N,Net-(R12-Pad1)*%
X135771507Y-92390000D03*
%TO.P,U3,4,V3*%
%TO.N,Net-(C7-Pad1)*%
X135771507Y-93660000D03*
%TO.P,U3,5,UD+*%
%TO.N,Net-(J3-PadA6)*%
X135771507Y-94930000D03*
%TO.P,U3,6,UD-*%
%TO.N,Net-(J3-PadA7)*%
X135771507Y-96200000D03*
%TO.P,U3,7,NC*%
%TO.N,unconnected-(U3-Pad7)*%
X135771507Y-97470000D03*
%TO.P,U3,8,NC*%
%TO.N,unconnected-(U3-Pad8)*%
X135771507Y-98740000D03*
%TO.P,U3,9,~{CTS}*%
%TO.N,unconnected-(U3-Pad9)*%
X140971507Y-98740000D03*
%TO.P,U3,10,~{DSR}*%
%TO.N,unconnected-(U3-Pad10)*%
X140971507Y-97470000D03*
%TO.P,U3,11,~{RI}*%
%TO.N,unconnected-(U3-Pad11)*%
X140971507Y-96200000D03*
%TO.P,U3,12,~{DCD}*%
%TO.N,unconnected-(U3-Pad12)*%
X140971507Y-94930000D03*
%TO.P,U3,13,~{DTR}*%
%TO.N,Net-(Q3-Pad2)*%
X140971507Y-93660000D03*
%TO.P,U3,14,~{RTS}*%
%TO.N,Net-(Q2-Pad2)*%
X140971507Y-92390000D03*
%TO.P,U3,15,R232*%
%TO.N,unconnected-(U3-Pad15)*%
X140971507Y-91120000D03*
%TO.P,U3,16,VCC*%
%TO.N,Net-(C5-Pad1)*%
X140971507Y-89850000D03*
%TD*%
D24*
%TO.P,R7,1*%
%TO.N,/GPIO0*%
X122010000Y-89440000D03*
%TO.P,R7,2*%
%TO.N,Net-(R7-Pad2)*%
X120990000Y-89440000D03*
%TD*%
D37*
%TO.N,+3V3*%
X140750000Y-108780000D03*
X125480000Y-95540000D03*
X133150000Y-104575000D03*
X124100000Y-89375500D03*
X127700000Y-95250000D03*
X122025000Y-108650000D03*
X141890000Y-106980000D03*
X118950000Y-109675000D03*
X141890000Y-100680000D03*
X126200000Y-89425000D03*
X114850000Y-109675000D03*
%TO.N,GND*%
X117950000Y-109675000D03*
X144986507Y-97390000D03*
X127195126Y-98339989D03*
X128875000Y-91500000D03*
X113850000Y-109675000D03*
X135702000Y-103846000D03*
X139590000Y-106980000D03*
X142835000Y-108790000D03*
X135780000Y-89850000D03*
X144825000Y-102075000D03*
X133175000Y-101575000D03*
X128300000Y-89450000D03*
X137500000Y-102050000D03*
%TO.N,Net-(C5-Pad1)*%
X142381507Y-90460000D03*
X142371507Y-89290000D03*
X143081507Y-95440000D03*
X140991507Y-89860000D03*
%TO.N,Net-(C7-Pad1)*%
X142400000Y-91700000D03*
X135771507Y-93660000D03*
%TO.N,/GPIO13*%
X126860000Y-106680000D03*
%TO.N,/GPIO14*%
X122860000Y-106680000D03*
%TO.N,/GPIO0*%
X122860000Y-91480000D03*
%TO.N,/GPIO2*%
X127900000Y-98650000D03*
X126450000Y-94300000D03*
X124900000Y-91550000D03*
%TO.N,Net-(J1-Pad11)*%
X136600000Y-99800000D03*
%TO.N,/RXD*%
X138663366Y-99378391D03*
X143400000Y-93000000D03*
%TO.N,/TXD*%
X143374750Y-93767006D03*
X139200000Y-97900000D03*
%TO.N,Net-(J3-PadA6)*%
X135771507Y-94930000D03*
X145990000Y-93410000D03*
%TO.N,Net-(J3-PadA7)*%
X146150000Y-94450000D03*
X135771507Y-96200000D03*
%TO.N,+BATT*%
X116898750Y-109670000D03*
%TO.N,Net-(Q1-Pad1)*%
X135100000Y-100550000D03*
X125250000Y-93850000D03*
X128500000Y-97100000D03*
X119920000Y-89440000D03*
%TO.N,Net-(Q2-Pad2)*%
X141000000Y-92400000D03*
X132241507Y-94660000D03*
%TO.N,/EN*%
X121500000Y-102000000D03*
X133191507Y-98590000D03*
X118860000Y-106680000D03*
%TO.N,Net-(Q3-Pad2)*%
X141000000Y-93700000D03*
X134141507Y-93724500D03*
%TO.N,/GPIO4*%
X127970880Y-99870880D03*
X129100000Y-100900000D03*
X120800000Y-91493648D03*
X127970879Y-99870879D03*
X137600000Y-103800000D03*
X127970878Y-99870878D03*
%TO.N,Net-(R5-Pad2)*%
X131100000Y-106100000D03*
%TO.N,Net-(R7-Pad2)*%
X139200000Y-100800000D03*
X128950000Y-95700000D03*
X121000000Y-89500000D03*
%TD*%
D38*
%TO.N,+3V3*%
X128860000Y-106680000D02*
X128860000Y-106540000D01*
D39*
X141890000Y-107140000D02*
X141890000Y-106980000D01*
D38*
X128860000Y-106680000D02*
X128855000Y-106680000D01*
D39*
X141890000Y-100680000D02*
X141890000Y-106980000D01*
X132580000Y-105150000D02*
X133170000Y-104560000D01*
D38*
X133165000Y-104560000D02*
X133150000Y-104575000D01*
X122030000Y-108650000D02*
X122025000Y-108650000D01*
D39*
X140250000Y-108780000D02*
X140727500Y-108302500D01*
D38*
X114846250Y-109671250D02*
X114850000Y-109675000D01*
X126190000Y-89435000D02*
X126200000Y-89425000D01*
D39*
X128860000Y-106590000D02*
X130300000Y-105150000D01*
D38*
X124100000Y-89440000D02*
X124100000Y-89375500D01*
X118951250Y-109670000D02*
X118951250Y-109673750D01*
X133170000Y-104560000D02*
X133165000Y-104560000D01*
X126190000Y-89440000D02*
X126190000Y-89435000D01*
D39*
X140817500Y-108302500D02*
X140727500Y-108302500D01*
X141890000Y-107160000D02*
X141890000Y-106980000D01*
D38*
X114846250Y-109670000D02*
X114846250Y-109671250D01*
D39*
X141305000Y-108790000D02*
X141305000Y-107565000D01*
X141295000Y-108780000D02*
X141305000Y-108790000D01*
X140727500Y-108302500D02*
X141890000Y-107140000D01*
X140250000Y-108780000D02*
X141295000Y-108780000D01*
X128860000Y-106680000D02*
X128860000Y-106590000D01*
X130300000Y-105150000D02*
X132580000Y-105150000D01*
D38*
X128855000Y-106680000D02*
X128850000Y-106675000D01*
D39*
X141305000Y-107565000D02*
X141890000Y-106980000D01*
D38*
X118951250Y-109673750D02*
X118950000Y-109675000D01*
D39*
X141305000Y-108790000D02*
X140817500Y-108302500D01*
D38*
%TO.N,GND*%
X137500000Y-102029500D02*
X137500000Y-102050000D01*
X135771507Y-89850000D02*
X135780000Y-89850000D01*
X128860000Y-91485000D02*
X128875000Y-91500000D01*
X113835000Y-109660000D02*
X113850000Y-109675000D01*
X117925000Y-109670000D02*
X117945000Y-109670000D01*
X128290000Y-89440000D02*
X128300000Y-89450000D01*
D39*
X142265000Y-108790000D02*
X143330000Y-108790000D01*
D38*
X128280000Y-89440000D02*
X128290000Y-89440000D01*
X113830000Y-109660000D02*
X113835000Y-109660000D01*
X133170000Y-101560000D02*
X133170000Y-101570000D01*
X133170000Y-101570000D02*
X133175000Y-101575000D01*
X128860000Y-91480000D02*
X128860000Y-91485000D01*
D39*
X135702000Y-103846000D02*
X135702000Y-103827500D01*
D38*
X117945000Y-109670000D02*
X117950000Y-109675000D01*
D39*
%TO.N,Net-(C2-Pad1)*%
X146520000Y-103080000D02*
X144190000Y-105410000D01*
X144190000Y-105410000D02*
X144190000Y-106980000D01*
X144290000Y-108790000D02*
X144290000Y-107080000D01*
X144290000Y-107080000D02*
X144190000Y-106980000D01*
D40*
%TO.N,/nRST*%
X114846250Y-106693750D02*
X114860000Y-106680000D01*
X115822500Y-108700000D02*
X115872500Y-108650000D01*
X113830000Y-108700000D02*
X115822500Y-108700000D01*
X114846250Y-108650000D02*
X114846250Y-106693750D01*
%TO.N,Net-(C5-Pad1)*%
X142391507Y-90470000D02*
X142381507Y-90460000D01*
X140981507Y-89850000D02*
X140991507Y-89860000D01*
X143041507Y-95450000D02*
X143071507Y-95450000D01*
X143071507Y-95450000D02*
X143081507Y-95440000D01*
X142391507Y-90507500D02*
X142391507Y-90470000D01*
X140971507Y-89850000D02*
X140981507Y-89850000D01*
%TO.N,Net-(C7-Pad1)*%
X136371507Y-93660000D02*
X135771507Y-93660000D01*
X142401507Y-91701507D02*
X142400000Y-91700000D01*
X142401507Y-91725000D02*
X142401507Y-91701507D01*
%TO.N,/GPIO16*%
X120860000Y-108531250D02*
X120860000Y-106680000D01*
X119977500Y-108650000D02*
X120978750Y-108650000D01*
X120978750Y-108650000D02*
X121003750Y-108675000D01*
X121003750Y-108675000D02*
X120860000Y-108531250D01*
%TO.N,Net-(D1-Pad2)*%
X121003750Y-109645000D02*
X122005000Y-109645000D01*
X122005000Y-109645000D02*
X122030000Y-109670000D01*
D38*
%TO.N,Net-(D2-Pad2)*%
X145846878Y-91690000D02*
X147150000Y-92993122D01*
X147150000Y-92993122D02*
X147150000Y-95286878D01*
X144986507Y-91690000D02*
X145846878Y-91690000D01*
D39*
X143041507Y-98558493D02*
X143050000Y-98550000D01*
X143050000Y-97201507D02*
X143661507Y-96590000D01*
D40*
X143041507Y-98760000D02*
X143021507Y-98780000D01*
D39*
X143050000Y-98550000D02*
X143050000Y-97201507D01*
X143661507Y-96590000D02*
X144986507Y-96590000D01*
D40*
X143041507Y-98750000D02*
X143041507Y-98760000D01*
D38*
X147150000Y-95286878D02*
X145846878Y-96590000D01*
X145846878Y-96590000D02*
X144986507Y-96590000D01*
D39*
X143041507Y-98750000D02*
X143041507Y-98558493D01*
D40*
%TO.N,/GPIO0*%
X133191507Y-89710000D02*
X129871996Y-93029511D01*
X129871996Y-93029511D02*
X123659511Y-93029511D01*
X122860000Y-93661758D02*
X122860000Y-92230000D01*
X122860000Y-89660000D02*
X122860000Y-91480000D01*
X123080000Y-89440000D02*
X122010000Y-89440000D01*
X126059022Y-96860780D02*
X122860000Y-93661758D01*
X122860000Y-92230000D02*
X122860000Y-91480000D01*
X123659511Y-93029511D02*
X122860000Y-92230000D01*
X123080000Y-89440000D02*
X122860000Y-89660000D01*
X126730000Y-109100000D02*
X126059022Y-108429022D01*
X126059022Y-108429022D02*
X126059022Y-96860780D01*
%TO.N,/GPIO2*%
X127900000Y-97800000D02*
X126450000Y-96350000D01*
X125170000Y-89440000D02*
X124900000Y-89710000D01*
X126450000Y-96350000D02*
X126450000Y-94300000D01*
X127900000Y-98650000D02*
X127900000Y-97800000D01*
X124900000Y-89710000D02*
X124900000Y-91550000D01*
%TO.N,/RXD*%
X116860000Y-95560000D02*
X116860000Y-91480000D01*
X143397757Y-92997757D02*
X143400000Y-93000000D01*
X125659511Y-104359511D02*
X116860000Y-95560000D01*
X125659511Y-108900489D02*
X125659511Y-104359511D01*
X125460000Y-109100000D02*
X125659511Y-108900489D01*
X143352108Y-92997757D02*
X143397757Y-92997757D01*
%TO.N,/TXD*%
X114860000Y-94124994D02*
X114860000Y-91480000D01*
X143367542Y-94193884D02*
X143367542Y-93774214D01*
X123659511Y-108569511D02*
X123659511Y-102924505D01*
X123659511Y-102924505D02*
X114860000Y-94124994D01*
X143367542Y-93774214D02*
X143374750Y-93767006D01*
X124190000Y-109100000D02*
X123659511Y-108569511D01*
%TO.N,Net-(J3-PadA6)*%
X144012485Y-94390000D02*
X143961996Y-94339511D01*
X144986507Y-93390000D02*
X145970000Y-93390000D01*
X143961996Y-93579511D02*
X144151507Y-93390000D01*
X144986507Y-94390000D02*
X144012485Y-94390000D01*
X144151507Y-93390000D02*
X144986507Y-93390000D01*
X143961996Y-94339511D02*
X143961996Y-93579511D01*
X145970000Y-93390000D02*
X145990000Y-93410000D01*
%TO.N,Net-(J3-PadA7)*%
X144986507Y-94890000D02*
X145960529Y-94890000D01*
X146150000Y-94560529D02*
X146150000Y-94450000D01*
X145902743Y-93934501D02*
X145031008Y-93934501D01*
X146011018Y-94839511D02*
X146011018Y-94699511D01*
X145031008Y-93934501D02*
X144986507Y-93890000D01*
X146011018Y-94042776D02*
X145902743Y-93934501D01*
X146011018Y-94699511D02*
X146011018Y-94042776D01*
X146011018Y-94699511D02*
X146150000Y-94560529D01*
X145960529Y-94890000D02*
X146011018Y-94839511D01*
%TO.N,+BATT*%
X116898750Y-109670000D02*
X117005000Y-109670000D01*
D39*
X136855000Y-108660000D02*
X138177000Y-109982000D01*
D40*
X117005000Y-109670000D02*
X117025000Y-109650000D01*
D39*
X144668000Y-109982000D02*
X146270489Y-108379511D01*
X138177000Y-109982000D02*
X144668000Y-109982000D01*
X146270489Y-106329511D02*
X146520000Y-106080000D01*
X146270489Y-108379511D02*
X146270489Y-106329511D01*
%TO.N,/control*%
X131230000Y-108690000D02*
X133454000Y-106466000D01*
X133454000Y-106466000D02*
X136652000Y-106466000D01*
D40*
%TO.N,Net-(Q1-Pad1)*%
X135600000Y-102029500D02*
X135600000Y-101050000D01*
X139230000Y-108780000D02*
X139040978Y-108780000D01*
X136350000Y-104128022D02*
X136350000Y-102779500D01*
X138000000Y-105778022D02*
X136350000Y-104128022D01*
X136350000Y-102779500D02*
X135600000Y-102029500D01*
X138000000Y-107739022D02*
X138000000Y-105778022D01*
X139040978Y-108780000D02*
X138000000Y-107739022D01*
X135600000Y-101050000D02*
X135100000Y-100550000D01*
%TO.N,Net-(Q2-Pad1)*%
X134141507Y-94660000D02*
X134141507Y-95970000D01*
%TO.N,Net-(Q2-Pad2)*%
X140990000Y-92390000D02*
X141000000Y-92400000D01*
X132241507Y-95970000D02*
X132241507Y-94660000D01*
X140971507Y-92390000D02*
X140990000Y-92390000D01*
%TO.N,/EN*%
X133191507Y-98590000D02*
X133191507Y-98591507D01*
X118860000Y-106680000D02*
X118860000Y-104640000D01*
X118860000Y-104640000D02*
X121500000Y-102000000D01*
X133191507Y-98591507D02*
X133200000Y-98600000D01*
X118860000Y-108558750D02*
X118860000Y-106680000D01*
X118951250Y-108650000D02*
X118860000Y-108558750D01*
%TO.N,Net-(Q3-Pad1)*%
X132241507Y-93640000D02*
X132241507Y-92330000D01*
%TO.N,Net-(Q3-Pad2)*%
X134141507Y-92330000D02*
X134141507Y-93724500D01*
X141000000Y-93688493D02*
X141000000Y-93700000D01*
X140971507Y-93660000D02*
X141000000Y-93688493D01*
%TO.N,/GPIO4*%
X129000000Y-100900000D02*
X127970880Y-99870880D01*
X129100000Y-100900000D02*
X129000000Y-100900000D01*
X137602000Y-103846000D02*
X137602000Y-103802000D01*
X129000000Y-100900000D02*
X127970878Y-99870878D01*
X137602000Y-103802000D02*
X137600000Y-103800000D01*
%TO.N,Net-(R5-Pad2)*%
X129659511Y-109039511D02*
X128459502Y-110239520D01*
X116442020Y-110239520D02*
X119407980Y-110239520D01*
X129659511Y-107540489D02*
X129659511Y-109039511D01*
X120547020Y-110239520D02*
X119977500Y-109670000D01*
X128459502Y-110239520D02*
X120547020Y-110239520D01*
X115872500Y-109670000D02*
X116442020Y-110239520D01*
X119407980Y-110239520D02*
X119977500Y-109670000D01*
X131100000Y-106100000D02*
X129659511Y-107540489D01*
%TO.N,/GPIO15*%
X126860000Y-89840000D02*
X127260000Y-89440000D01*
X126860000Y-91480000D02*
X126860000Y-89840000D01*
%TO.N,/GPIO5*%
X118860000Y-89480000D02*
X118860000Y-91480000D01*
X118900000Y-89440000D02*
X118860000Y-89480000D01*
%TO.N,Net-(R11-Pad2)*%
X142332108Y-92997757D02*
X138249264Y-92997757D01*
X138249264Y-92997757D02*
X136371507Y-91120000D01*
X136371507Y-91120000D02*
X135771507Y-91120000D01*
%TO.N,Net-(R12-Pad1)*%
X142347542Y-94193884D02*
X142281906Y-94259520D01*
X142281906Y-94259520D02*
X138241027Y-94259520D01*
X138241027Y-94259520D02*
X136381507Y-92400000D01*
X136381507Y-92400000D02*
X135800000Y-92400000D01*
%TO.N,/ADC*%
X116898750Y-108650000D02*
X116898750Y-106718750D01*
X117925000Y-108650000D02*
X116898750Y-108650000D01*
X116898750Y-106718750D02*
X116860000Y-106680000D01*
%TD*%
%TA.AperFunction,Conductor*%
%TO.N,GND*%
G36*
X132895435Y-108272123D02*
G01*
X132952271Y-108314670D01*
X132973099Y-108370513D01*
X132975043Y-108370161D01*
X132976997Y-108380962D01*
X132977082Y-108381190D01*
X132977071Y-108381373D01*
X132980912Y-108402607D01*
X132993292Y-108406000D01*
X134443000Y-108406000D01*
X134511121Y-108426002D01*
X134557614Y-108479658D01*
X134569000Y-108532000D01*
X134569000Y-109978517D01*
X134573064Y-109992359D01*
X134586478Y-109994393D01*
X134593184Y-109993534D01*
X134603262Y-109991392D01*
X134807255Y-109930191D01*
X134816842Y-109926433D01*
X135008095Y-109832739D01*
X135016945Y-109827464D01*
X135190328Y-109703792D01*
X135198193Y-109697145D01*
X135302897Y-109592805D01*
X135365268Y-109558889D01*
X135436075Y-109564077D01*
X135492837Y-109606723D01*
X135509819Y-109637826D01*
X135517275Y-109657715D01*
X135554385Y-109756705D01*
X135641739Y-109873261D01*
X135758295Y-109960615D01*
X135894684Y-110011745D01*
X135956866Y-110018500D01*
X137017918Y-110018500D01*
X137086039Y-110038502D01*
X137107013Y-110055405D01*
X137308513Y-110256905D01*
X137342539Y-110319217D01*
X137337474Y-110390032D01*
X137294927Y-110446868D01*
X137228407Y-110471679D01*
X137219418Y-110472000D01*
X129391761Y-110472000D01*
X129323640Y-110451998D01*
X129277147Y-110398342D01*
X129267043Y-110328068D01*
X129296537Y-110263488D01*
X129302666Y-110256905D01*
X129759569Y-109800002D01*
X129821881Y-109765976D01*
X129892696Y-109771041D01*
X129949490Y-109813531D01*
X130016739Y-109903261D01*
X130133295Y-109990615D01*
X130269684Y-110041745D01*
X130331866Y-110048500D01*
X132128134Y-110048500D01*
X132190316Y-110041745D01*
X132326705Y-109990615D01*
X132443261Y-109903261D01*
X132530615Y-109786705D01*
X132581745Y-109650316D01*
X132588500Y-109588134D01*
X132588500Y-108927966D01*
X132983257Y-108927966D01*
X133013565Y-109062446D01*
X133016645Y-109072275D01*
X133096770Y-109269603D01*
X133101413Y-109278794D01*
X133212694Y-109460388D01*
X133218777Y-109468699D01*
X133358213Y-109629667D01*
X133365580Y-109636883D01*
X133529434Y-109772916D01*
X133537881Y-109778831D01*
X133721756Y-109886279D01*
X133731042Y-109890729D01*
X133930001Y-109966703D01*
X133939899Y-109969579D01*
X134043250Y-109990606D01*
X134057299Y-109989410D01*
X134061000Y-109979065D01*
X134061000Y-108932115D01*
X134056525Y-108916876D01*
X134055135Y-108915671D01*
X134047452Y-108914000D01*
X132998225Y-108914000D01*
X132984694Y-108917973D01*
X132983257Y-108927966D01*
X132588500Y-108927966D01*
X132588500Y-108527082D01*
X132608502Y-108458961D01*
X132625405Y-108437987D01*
X132762308Y-108301084D01*
X132824620Y-108267058D01*
X132895435Y-108272123D01*
G37*
%TD.AperFunction*%
%TA.AperFunction,Conductor*%
G36*
X144498789Y-89048002D02*
G01*
X144545282Y-89101658D01*
X144555386Y-89171932D01*
X144527752Y-89234316D01*
X144515724Y-89248855D01*
X144508863Y-89259027D01*
X144420703Y-89422076D01*
X144415951Y-89433381D01*
X144380257Y-89548692D01*
X144380051Y-89562795D01*
X144386806Y-89566000D01*
X147409431Y-89566000D01*
X147422962Y-89562027D01*
X147424082Y-89554232D01*
X147392369Y-89446479D01*
X147387776Y-89435111D01*
X147301900Y-89270846D01*
X147295182Y-89260579D01*
X147272969Y-89232951D01*
X147245873Y-89167328D01*
X147258557Y-89097474D01*
X147306994Y-89045566D01*
X147371166Y-89028000D01*
X148860668Y-89028000D01*
X148928789Y-89048002D01*
X148975282Y-89101658D01*
X148985386Y-89171932D01*
X148957752Y-89234316D01*
X148945724Y-89248855D01*
X148938863Y-89259027D01*
X148850703Y-89422076D01*
X148845951Y-89433381D01*
X148810257Y-89548692D01*
X148810051Y-89562795D01*
X148816806Y-89566000D01*
X150209507Y-89566000D01*
X150277628Y-89586002D01*
X150324121Y-89639658D01*
X150335507Y-89692000D01*
X150335507Y-90809885D01*
X150339982Y-90825124D01*
X150341372Y-90826329D01*
X150349055Y-90828000D01*
X150428164Y-90828000D01*
X150434312Y-90827699D01*
X150572110Y-90814188D01*
X150584145Y-90811805D01*
X150761583Y-90758233D01*
X150772923Y-90753559D01*
X150936586Y-90666539D01*
X150946271Y-90660104D01*
X151014079Y-90639066D01*
X151082497Y-90658027D01*
X151129802Y-90710968D01*
X151142000Y-90765051D01*
X151142000Y-97514909D01*
X151121998Y-97583030D01*
X151068342Y-97629523D01*
X150998068Y-97639627D01*
X150954611Y-97622695D01*
X150953749Y-97624262D01*
X150785922Y-97531998D01*
X150774649Y-97527166D01*
X150597969Y-97471120D01*
X150585975Y-97468570D01*
X150441746Y-97452393D01*
X150434722Y-97452000D01*
X150353622Y-97452000D01*
X150338383Y-97456475D01*
X150337178Y-97457865D01*
X150335507Y-97465548D01*
X150335507Y-98588000D01*
X150315505Y-98656121D01*
X150261849Y-98702614D01*
X150209507Y-98714000D01*
X148823583Y-98714000D01*
X148810052Y-98717973D01*
X148808932Y-98725768D01*
X148840645Y-98833521D01*
X148845238Y-98844890D01*
X148928925Y-99004969D01*
X148942759Y-99074605D01*
X148916749Y-99140665D01*
X148861492Y-99181326D01*
X148741705Y-99226232D01*
X148741704Y-99226233D01*
X148733295Y-99229385D01*
X148616739Y-99316739D01*
X148529385Y-99433295D01*
X148478255Y-99569684D01*
X148471500Y-99631866D01*
X148471500Y-100728134D01*
X148478255Y-100790316D01*
X148529385Y-100926705D01*
X148616739Y-101043261D01*
X148733295Y-101130615D01*
X148869684Y-101181745D01*
X148931866Y-101188500D01*
X149828134Y-101188500D01*
X149890316Y-101181745D01*
X150026705Y-101130615D01*
X150143261Y-101043261D01*
X150230615Y-100926705D01*
X150281745Y-100790316D01*
X150288500Y-100728134D01*
X150288500Y-99631866D01*
X150288131Y-99628467D01*
X150285865Y-99607607D01*
X150298394Y-99537724D01*
X150346715Y-99485709D01*
X150411128Y-99468000D01*
X150428164Y-99468000D01*
X150434312Y-99467699D01*
X150572110Y-99454188D01*
X150584145Y-99451805D01*
X150761583Y-99398233D01*
X150772923Y-99393559D01*
X150936586Y-99306539D01*
X150946271Y-99300104D01*
X151014079Y-99279066D01*
X151082497Y-99298027D01*
X151129802Y-99350968D01*
X151142000Y-99405051D01*
X151142000Y-110346000D01*
X151121998Y-110414121D01*
X151068342Y-110460614D01*
X151016000Y-110472000D01*
X145625582Y-110472000D01*
X145557461Y-110451998D01*
X145510968Y-110398342D01*
X145500864Y-110328068D01*
X145530358Y-110263488D01*
X145536487Y-110256905D01*
X146835552Y-108957839D01*
X146836489Y-108956910D01*
X146895964Y-108898668D01*
X146895965Y-108898667D01*
X146900996Y-108893740D01*
X146904811Y-108887821D01*
X146904817Y-108887813D01*
X146924483Y-108857297D01*
X146931916Y-108846952D01*
X146958965Y-108813068D01*
X146973562Y-108782873D01*
X146981091Y-108769456D01*
X146995437Y-108747195D01*
X146999254Y-108741273D01*
X147001662Y-108734656D01*
X147001665Y-108734651D01*
X147014081Y-108700538D01*
X147019042Y-108688795D01*
X147034842Y-108656111D01*
X147034845Y-108656102D01*
X147037910Y-108649762D01*
X147045455Y-108617083D01*
X147049819Y-108602347D01*
X147061082Y-108571404D01*
X147103175Y-108514235D01*
X147169496Y-108488896D01*
X147179482Y-108488500D01*
X147618134Y-108488500D01*
X147680316Y-108481745D01*
X147816705Y-108430615D01*
X147933261Y-108343261D01*
X148020615Y-108226705D01*
X148071745Y-108090316D01*
X148078500Y-108028134D01*
X148471500Y-108028134D01*
X148478255Y-108090316D01*
X148529385Y-108226705D01*
X148616739Y-108343261D01*
X148733295Y-108430615D01*
X148869684Y-108481745D01*
X148931866Y-108488500D01*
X149828134Y-108488500D01*
X149890316Y-108481745D01*
X150026705Y-108430615D01*
X150143261Y-108343261D01*
X150230615Y-108226705D01*
X150281745Y-108090316D01*
X150288500Y-108028134D01*
X150288500Y-106931866D01*
X150281745Y-106869684D01*
X150230615Y-106733295D01*
X150143261Y-106616739D01*
X150026705Y-106529385D01*
X149890316Y-106478255D01*
X149828134Y-106471500D01*
X148931866Y-106471500D01*
X148869684Y-106478255D01*
X148733295Y-106529385D01*
X148616739Y-106616739D01*
X148529385Y-106733295D01*
X148478255Y-106869684D01*
X148471500Y-106931866D01*
X148471500Y-108028134D01*
X148078500Y-108028134D01*
X148078500Y-106931866D01*
X148071745Y-106869684D01*
X148020615Y-106733295D01*
X147933261Y-106616739D01*
X147828935Y-106538551D01*
X147786420Y-106481692D01*
X147778500Y-106437725D01*
X147778500Y-106349207D01*
X147798502Y-106281086D01*
X147852158Y-106234593D01*
X147922432Y-106224489D01*
X147954538Y-106233569D01*
X147988684Y-106248345D01*
X147994931Y-106249650D01*
X147994934Y-106249651D01*
X148174557Y-106287176D01*
X148174562Y-106287177D01*
X148179293Y-106288165D01*
X148185685Y-106288500D01*
X148328663Y-106288500D01*
X148445886Y-106276593D01*
X148467378Y-106274410D01*
X148467379Y-106274410D01*
X148473727Y-106273765D01*
X148554843Y-106248345D01*
X148653451Y-106217444D01*
X148653456Y-106217442D01*
X148659541Y-106215535D01*
X148744696Y-106168332D01*
X148824271Y-106124223D01*
X148824274Y-106124221D01*
X148829850Y-106121130D01*
X148834691Y-106116981D01*
X148834695Y-106116978D01*
X148972855Y-105998560D01*
X148977698Y-105994409D01*
X148986875Y-105982579D01*
X149093131Y-105845594D01*
X149097046Y-105840547D01*
X149183018Y-105665829D01*
X149190398Y-105637498D01*
X149230492Y-105483575D01*
X149230492Y-105483572D01*
X149232102Y-105477393D01*
X149237419Y-105375938D01*
X149241959Y-105289317D01*
X149241959Y-105289313D01*
X149242293Y-105282936D01*
X149213175Y-105090401D01*
X149210972Y-105084415D01*
X149210971Y-105084409D01*
X149148140Y-104913640D01*
X149148138Y-104913635D01*
X149145937Y-104907654D01*
X149043326Y-104742160D01*
X148958694Y-104652663D01*
X148913919Y-104605315D01*
X148909534Y-104600678D01*
X148889282Y-104586497D01*
X148755259Y-104492654D01*
X148750025Y-104488989D01*
X148702013Y-104468212D01*
X148577175Y-104414190D01*
X148577171Y-104414189D01*
X148571316Y-104411655D01*
X148565069Y-104410350D01*
X148565066Y-104410349D01*
X148385443Y-104372824D01*
X148385438Y-104372823D01*
X148380707Y-104371835D01*
X148374315Y-104371500D01*
X148231337Y-104371500D01*
X148162049Y-104378538D01*
X148092622Y-104385590D01*
X148092621Y-104385590D01*
X148086273Y-104386235D01*
X148029939Y-104403889D01*
X147906549Y-104442556D01*
X147906544Y-104442558D01*
X147900459Y-104444465D01*
X147824713Y-104486452D01*
X147735729Y-104535777D01*
X147735726Y-104535779D01*
X147730150Y-104538870D01*
X147725309Y-104543019D01*
X147725305Y-104543022D01*
X147602606Y-104648188D01*
X147582302Y-104665591D01*
X147578391Y-104670633D01*
X147578390Y-104670634D01*
X147518703Y-104747582D01*
X147462954Y-104819453D01*
X147460138Y-104825176D01*
X147460136Y-104825179D01*
X147391828Y-104963999D01*
X147376982Y-104994171D01*
X147375373Y-105000347D01*
X147375371Y-105000353D01*
X147342315Y-105127260D01*
X147305788Y-105188140D01*
X147242146Y-105219606D01*
X147220384Y-105221500D01*
X145826082Y-105221500D01*
X145757961Y-105201498D01*
X145711468Y-105147842D01*
X145701364Y-105077568D01*
X145730858Y-105012988D01*
X145736987Y-105006405D01*
X146767986Y-103975405D01*
X146830298Y-103941380D01*
X146857081Y-103938500D01*
X147318134Y-103938500D01*
X147380316Y-103931745D01*
X147516705Y-103880615D01*
X147633261Y-103793261D01*
X147720615Y-103676705D01*
X147771745Y-103540316D01*
X147778500Y-103478134D01*
X147778500Y-103349207D01*
X147798502Y-103281086D01*
X147852158Y-103234593D01*
X147922432Y-103224489D01*
X147954538Y-103233569D01*
X147988684Y-103248345D01*
X147994931Y-103249650D01*
X147994934Y-103249651D01*
X148174557Y-103287176D01*
X148174562Y-103287177D01*
X148179293Y-103288165D01*
X148185685Y-103288500D01*
X148328663Y-103288500D01*
X148423233Y-103278894D01*
X148467378Y-103274410D01*
X148467379Y-103274410D01*
X148473727Y-103273765D01*
X148556895Y-103247702D01*
X148653451Y-103217444D01*
X148653456Y-103217442D01*
X148659541Y-103215535D01*
X148775062Y-103151500D01*
X148824271Y-103124223D01*
X148824274Y-103124221D01*
X148829850Y-103121130D01*
X148834691Y-103116981D01*
X148834695Y-103116978D01*
X148972855Y-102998560D01*
X148977698Y-102994409D01*
X148989517Y-102979173D01*
X149093131Y-102845594D01*
X149097046Y-102840547D01*
X149100322Y-102833891D01*
X149180200Y-102671556D01*
X149183018Y-102665829D01*
X149193727Y-102624717D01*
X149230492Y-102483575D01*
X149230492Y-102483572D01*
X149232102Y-102477393D01*
X149237901Y-102366739D01*
X149241959Y-102289317D01*
X149241959Y-102289313D01*
X149242293Y-102282936D01*
X149213175Y-102090401D01*
X149210972Y-102084415D01*
X149210971Y-102084409D01*
X149148140Y-101913640D01*
X149148138Y-101913635D01*
X149145937Y-101907654D01*
X149043326Y-101742160D01*
X148976788Y-101671797D01*
X148913919Y-101605315D01*
X148909534Y-101600678D01*
X148889182Y-101586427D01*
X148755259Y-101492654D01*
X148750025Y-101488989D01*
X148619891Y-101432675D01*
X148577175Y-101414190D01*
X148577171Y-101414189D01*
X148571316Y-101411655D01*
X148565069Y-101410350D01*
X148565066Y-101410349D01*
X148385443Y-101372824D01*
X148385438Y-101372823D01*
X148380707Y-101371835D01*
X148374315Y-101371500D01*
X148231337Y-101371500D01*
X148167178Y-101378017D01*
X148092622Y-101385590D01*
X148092621Y-101385590D01*
X148086273Y-101386235D01*
X147976926Y-101420502D01*
X147942179Y-101431391D01*
X147871194Y-101432675D01*
X147810783Y-101395378D01*
X147780127Y-101331341D01*
X147778500Y-101311157D01*
X147778500Y-101222275D01*
X147798502Y-101154154D01*
X147828935Y-101121449D01*
X147836686Y-101115640D01*
X147933261Y-101043261D01*
X148020615Y-100926705D01*
X148071745Y-100790316D01*
X148078500Y-100728134D01*
X148078500Y-99631866D01*
X148071745Y-99569684D01*
X148020615Y-99433295D01*
X147933261Y-99316739D01*
X147816705Y-99229385D01*
X147680316Y-99178255D01*
X147618134Y-99171500D01*
X147424129Y-99171500D01*
X147356008Y-99151498D01*
X147309515Y-99097842D01*
X147299411Y-99027568D01*
X147313293Y-98985571D01*
X147382311Y-98857924D01*
X147387063Y-98846619D01*
X147422757Y-98731308D01*
X147422963Y-98717205D01*
X147416208Y-98714000D01*
X146173622Y-98714000D01*
X146158383Y-98718475D01*
X146157178Y-98719865D01*
X146155507Y-98727548D01*
X146155507Y-99449885D01*
X146159982Y-99465124D01*
X146161372Y-99466329D01*
X146166039Y-99467344D01*
X146228351Y-99501369D01*
X146262376Y-99563681D01*
X146264519Y-99604072D01*
X146261869Y-99628467D01*
X146261500Y-99631866D01*
X146261500Y-100595500D01*
X146241498Y-100663621D01*
X146187842Y-100710114D01*
X146135500Y-100721500D01*
X145721866Y-100721500D01*
X145659684Y-100728255D01*
X145523295Y-100779385D01*
X145406739Y-100866739D01*
X145319385Y-100983295D01*
X145268255Y-101119684D01*
X145261500Y-101181866D01*
X145261500Y-101978134D01*
X145268255Y-102040316D01*
X145319385Y-102176705D01*
X145324770Y-102183890D01*
X145324771Y-102183892D01*
X145377640Y-102254435D01*
X145402488Y-102320942D01*
X145387435Y-102390324D01*
X145377640Y-102405565D01*
X145328589Y-102471014D01*
X145319385Y-102483295D01*
X145268255Y-102619684D01*
X145261500Y-102681866D01*
X145261500Y-103142918D01*
X145241498Y-103211039D01*
X145224595Y-103232013D01*
X143624842Y-104831766D01*
X143623905Y-104832694D01*
X143572458Y-104883075D01*
X143559493Y-104895771D01*
X143536002Y-104932221D01*
X143528583Y-104942546D01*
X143501524Y-104976443D01*
X143498459Y-104982784D01*
X143498458Y-104982785D01*
X143486928Y-105006637D01*
X143479399Y-105020054D01*
X143461235Y-105048238D01*
X143458827Y-105054855D01*
X143458824Y-105054860D01*
X143446408Y-105088973D01*
X143441447Y-105100716D01*
X143425646Y-105133403D01*
X143425644Y-105133408D01*
X143422579Y-105139749D01*
X143420996Y-105146607D01*
X143420995Y-105146609D01*
X143415035Y-105172426D01*
X143410668Y-105187169D01*
X143399197Y-105218685D01*
X143398314Y-105225675D01*
X143398312Y-105225683D01*
X143393762Y-105261701D01*
X143391526Y-105274253D01*
X143389522Y-105282936D01*
X143381776Y-105316485D01*
X143381751Y-105323531D01*
X143381751Y-105323534D01*
X143381634Y-105357056D01*
X143381605Y-105357938D01*
X143381500Y-105358769D01*
X143381500Y-105371502D01*
X143361498Y-105439623D01*
X143307842Y-105486116D01*
X143299730Y-105489484D01*
X143249982Y-105508134D01*
X143193295Y-105529385D01*
X143186110Y-105534770D01*
X143186108Y-105534771D01*
X143115565Y-105587640D01*
X143049058Y-105612488D01*
X142979676Y-105597435D01*
X142964435Y-105587640D01*
X142893892Y-105534771D01*
X142893890Y-105534770D01*
X142886705Y-105529385D01*
X142830018Y-105508134D01*
X142780270Y-105489484D01*
X142723506Y-105446842D01*
X142698806Y-105380281D01*
X142698500Y-105371502D01*
X142698500Y-102314500D01*
X142718502Y-102246379D01*
X142772158Y-102199886D01*
X142824500Y-102188500D01*
X143838134Y-102188500D01*
X143900316Y-102181745D01*
X144036705Y-102130615D01*
X144153261Y-102043261D01*
X144240615Y-101926705D01*
X144291745Y-101790316D01*
X144298500Y-101728134D01*
X144298500Y-99631866D01*
X144291745Y-99569684D01*
X144240615Y-99433295D01*
X144235230Y-99426110D01*
X144235229Y-99426108D01*
X144173714Y-99344029D01*
X144148866Y-99277522D01*
X144149276Y-99254861D01*
X144150007Y-99248134D01*
X144150007Y-98822330D01*
X144170009Y-98754209D01*
X144223665Y-98707716D01*
X144293939Y-98697612D01*
X144358519Y-98727106D01*
X144396881Y-98786755D01*
X144410645Y-98833521D01*
X144415238Y-98844889D01*
X144501114Y-99009154D01*
X144507828Y-99019415D01*
X144623975Y-99163873D01*
X144632553Y-99172632D01*
X144774546Y-99291778D01*
X144784666Y-99298708D01*
X144947092Y-99388002D01*
X144958365Y-99392834D01*
X145135045Y-99448880D01*
X145147039Y-99451430D01*
X145291268Y-99467607D01*
X145298292Y-99468000D01*
X145629392Y-99468000D01*
X145644631Y-99463525D01*
X145645836Y-99462135D01*
X145647507Y-99454452D01*
X145647507Y-97734126D01*
X145667509Y-97666005D01*
X145721165Y-97619512D01*
X145791439Y-97609408D01*
X145852046Y-97638824D01*
X145853320Y-97637157D01*
X145991764Y-97743006D01*
X145991768Y-97743009D01*
X145997185Y-97747150D01*
X146003365Y-97750032D01*
X146003367Y-97750033D01*
X146082757Y-97787053D01*
X146136042Y-97833970D01*
X146155507Y-97901248D01*
X146155507Y-98187885D01*
X146159982Y-98203124D01*
X146161372Y-98204329D01*
X146169055Y-98206000D01*
X147409431Y-98206000D01*
X147420346Y-98202795D01*
X148810051Y-98202795D01*
X148816806Y-98206000D01*
X149809392Y-98206000D01*
X149824631Y-98201525D01*
X149825836Y-98200135D01*
X149827507Y-98192452D01*
X149827507Y-97470115D01*
X149823032Y-97454876D01*
X149821642Y-97453671D01*
X149813959Y-97452000D01*
X149734850Y-97452000D01*
X149728702Y-97452301D01*
X149590904Y-97465812D01*
X149578869Y-97468195D01*
X149401431Y-97521767D01*
X149390091Y-97526441D01*
X149226430Y-97613460D01*
X149216213Y-97620249D01*
X149072574Y-97737397D01*
X149063870Y-97746041D01*
X148945723Y-97888856D01*
X148938863Y-97899027D01*
X148850703Y-98062076D01*
X148845951Y-98073381D01*
X148810257Y-98188692D01*
X148810051Y-98202795D01*
X147420346Y-98202795D01*
X147422962Y-98202027D01*
X147424082Y-98194232D01*
X147392369Y-98086479D01*
X147387776Y-98075111D01*
X147301900Y-97910846D01*
X147295186Y-97900585D01*
X147179039Y-97756127D01*
X147170462Y-97747368D01*
X147118397Y-97703681D01*
X147079071Y-97644572D01*
X147077944Y-97573584D01*
X147095176Y-97536336D01*
X147100523Y-97528469D01*
X147171784Y-97423612D01*
X147239037Y-97255466D01*
X147240151Y-97248738D01*
X147240152Y-97248734D01*
X147267500Y-97083539D01*
X147267500Y-97083536D01*
X147268615Y-97076802D01*
X147266545Y-97037293D01*
X147259494Y-96902766D01*
X147259137Y-96895953D01*
X147254726Y-96879937D01*
X147212859Y-96727941D01*
X147211046Y-96721359D01*
X147126585Y-96561164D01*
X147087367Y-96514756D01*
X147058677Y-96449819D01*
X147069649Y-96379675D01*
X147094512Y-96344336D01*
X147630520Y-95808328D01*
X147636785Y-95802474D01*
X147674660Y-95769433D01*
X147680385Y-95764439D01*
X147717114Y-95712178D01*
X147721046Y-95706883D01*
X147755791Y-95662572D01*
X147760477Y-95656596D01*
X147763602Y-95649674D01*
X147764964Y-95647426D01*
X147773368Y-95632693D01*
X147774622Y-95630354D01*
X147778990Y-95624139D01*
X147781749Y-95617063D01*
X147781751Y-95617059D01*
X147802200Y-95564609D01*
X147804749Y-95558544D01*
X147831045Y-95500305D01*
X147832429Y-95492840D01*
X147833226Y-95490296D01*
X147837859Y-95474030D01*
X147838521Y-95471450D01*
X147841282Y-95464369D01*
X147844515Y-95439815D01*
X147849621Y-95401025D01*
X147850653Y-95394507D01*
X147862296Y-95331691D01*
X147858709Y-95269485D01*
X147858500Y-95262231D01*
X147858500Y-93022049D01*
X147858792Y-93013480D01*
X147862210Y-92963347D01*
X147862210Y-92963343D01*
X147862726Y-92955770D01*
X147851736Y-92892803D01*
X147850775Y-92886287D01*
X147843102Y-92822880D01*
X147840419Y-92815779D01*
X147839778Y-92813170D01*
X147835309Y-92796837D01*
X147834548Y-92794317D01*
X147833243Y-92786839D01*
X147827922Y-92774717D01*
X147807559Y-92728326D01*
X147805068Y-92722221D01*
X147785175Y-92669578D01*
X147785173Y-92669574D01*
X147782487Y-92662466D01*
X147778184Y-92656205D01*
X147776947Y-92653839D01*
X147768720Y-92639059D01*
X147767369Y-92636774D01*
X147764315Y-92629817D01*
X147759695Y-92623797D01*
X147759692Y-92623791D01*
X147725421Y-92579131D01*
X147721541Y-92573790D01*
X147689661Y-92527402D01*
X147689656Y-92527397D01*
X147685357Y-92521141D01*
X147638829Y-92479686D01*
X147633554Y-92474706D01*
X147096054Y-91937206D01*
X147062028Y-91874894D01*
X147067093Y-91804079D01*
X147080937Y-91777288D01*
X147167949Y-91649255D01*
X147171784Y-91643612D01*
X147239037Y-91475466D01*
X147240151Y-91468738D01*
X147240152Y-91468734D01*
X147267500Y-91303539D01*
X147267500Y-91303536D01*
X147268615Y-91296802D01*
X147267461Y-91274771D01*
X147259494Y-91122766D01*
X147259137Y-91115953D01*
X147254859Y-91100419D01*
X147212859Y-90947941D01*
X147211046Y-90941359D01*
X147126585Y-90781164D01*
X147122180Y-90775951D01*
X147122177Y-90775947D01*
X147103813Y-90754217D01*
X147075121Y-90689276D01*
X147086094Y-90619132D01*
X147120415Y-90575246D01*
X147160440Y-90542603D01*
X147169144Y-90533959D01*
X147287291Y-90391144D01*
X147294151Y-90380973D01*
X147382311Y-90217924D01*
X147387063Y-90206619D01*
X147422757Y-90091308D01*
X147422838Y-90085768D01*
X148808932Y-90085768D01*
X148840645Y-90193521D01*
X148845238Y-90204889D01*
X148931114Y-90369154D01*
X148937828Y-90379415D01*
X149053975Y-90523873D01*
X149062553Y-90532632D01*
X149204546Y-90651778D01*
X149214666Y-90658708D01*
X149377092Y-90748002D01*
X149388365Y-90752834D01*
X149565045Y-90808880D01*
X149577039Y-90811430D01*
X149721268Y-90827607D01*
X149728292Y-90828000D01*
X149809392Y-90828000D01*
X149824631Y-90823525D01*
X149825836Y-90822135D01*
X149827507Y-90814452D01*
X149827507Y-90092115D01*
X149823032Y-90076876D01*
X149821642Y-90075671D01*
X149813959Y-90074000D01*
X148823583Y-90074000D01*
X148810052Y-90077973D01*
X148808932Y-90085768D01*
X147422838Y-90085768D01*
X147422963Y-90077205D01*
X147416208Y-90074000D01*
X146173622Y-90074000D01*
X146158383Y-90078475D01*
X146157178Y-90079865D01*
X146155507Y-90087548D01*
X146155507Y-90374170D01*
X146135505Y-90442291D01*
X146083289Y-90487743D01*
X146079832Y-90488906D01*
X146073987Y-90492418D01*
X146073985Y-90492419D01*
X146007059Y-90532632D01*
X145924602Y-90582177D01*
X145919645Y-90586865D01*
X145919642Y-90586867D01*
X145860080Y-90643193D01*
X145796843Y-90675465D01*
X145726196Y-90668425D01*
X145670570Y-90624309D01*
X145647507Y-90551645D01*
X145647507Y-90092115D01*
X145643032Y-90076876D01*
X145641642Y-90075671D01*
X145633959Y-90074000D01*
X145258622Y-90074000D01*
X145243383Y-90078475D01*
X145242178Y-90079865D01*
X145240507Y-90087548D01*
X145240507Y-90755500D01*
X145220505Y-90823621D01*
X145166849Y-90870114D01*
X145114507Y-90881500D01*
X144754644Y-90881500D01*
X144686523Y-90861498D01*
X144640030Y-90807842D01*
X144629926Y-90737568D01*
X144659420Y-90672988D01*
X144719146Y-90634604D01*
X144729631Y-90631525D01*
X144730836Y-90630135D01*
X144732507Y-90622452D01*
X144732507Y-90092115D01*
X144728032Y-90076876D01*
X144726642Y-90075671D01*
X144718959Y-90074000D01*
X144393583Y-90074000D01*
X144383717Y-90076897D01*
X144348219Y-90082001D01*
X144216838Y-90082001D01*
X144210017Y-90082371D01*
X144181222Y-90085498D01*
X144111340Y-90072969D01*
X144059163Y-90024374D01*
X144012801Y-89945980D01*
X143995342Y-89877164D01*
X144012801Y-89817702D01*
X144066903Y-89726220D01*
X144073150Y-89711784D01*
X144114819Y-89568359D01*
X144116275Y-89560391D01*
X144113455Y-89546969D01*
X144101994Y-89544000D01*
X143603622Y-89544000D01*
X143588383Y-89548475D01*
X143587178Y-89549865D01*
X143585507Y-89557548D01*
X143585507Y-89631385D01*
X143600403Y-89682116D01*
X143605507Y-89717614D01*
X143605507Y-90848885D01*
X143610403Y-90865559D01*
X143615507Y-90901057D01*
X143615507Y-91853000D01*
X143595505Y-91921121D01*
X143541849Y-91967614D01*
X143489507Y-91979000D01*
X143316007Y-91979000D01*
X143247886Y-91958998D01*
X143201393Y-91905342D01*
X143190007Y-91853000D01*
X143190007Y-91489516D01*
X143189392Y-91481703D01*
X143187618Y-91459156D01*
X143187617Y-91459151D01*
X143187113Y-91452746D01*
X143141401Y-91295403D01*
X143137365Y-91288578D01*
X143137363Y-91288574D01*
X143115054Y-91250851D01*
X143097507Y-91186712D01*
X143097507Y-91028879D01*
X143115053Y-90964740D01*
X143127366Y-90943920D01*
X143127366Y-90943919D01*
X143131401Y-90937097D01*
X143134168Y-90927575D01*
X143150861Y-90870114D01*
X143177113Y-90779754D01*
X143177833Y-90770615D01*
X143179814Y-90745440D01*
X143179814Y-90745432D01*
X143180007Y-90742984D01*
X143180007Y-90272016D01*
X143177113Y-90235246D01*
X143135530Y-90092115D01*
X143133613Y-90085516D01*
X143133612Y-90085514D01*
X143131401Y-90077903D01*
X143127365Y-90071078D01*
X143127363Y-90071074D01*
X143095054Y-90016442D01*
X143077507Y-89952303D01*
X143077507Y-89811379D01*
X143095053Y-89747240D01*
X143107366Y-89726420D01*
X143107366Y-89726419D01*
X143111401Y-89719597D01*
X143157113Y-89562254D01*
X143157745Y-89554232D01*
X143159814Y-89527940D01*
X143159814Y-89527932D01*
X143160007Y-89525484D01*
X143160007Y-89162000D01*
X143180009Y-89093879D01*
X143233665Y-89047386D01*
X143286007Y-89036000D01*
X144099931Y-89036000D01*
X144109794Y-89033104D01*
X144145292Y-89028000D01*
X144430668Y-89028000D01*
X144498789Y-89048002D01*
G37*
%TD.AperFunction*%
%TA.AperFunction,Conductor*%
G36*
X143423621Y-108556002D02*
G01*
X143470114Y-108609658D01*
X143481500Y-108662000D01*
X143481500Y-108835610D01*
X143483933Y-108857297D01*
X143489166Y-108903955D01*
X143476882Y-108973881D01*
X143428743Y-109026065D01*
X143363951Y-109044000D01*
X142235164Y-109044000D01*
X142167043Y-109023998D01*
X142120550Y-108970342D01*
X142110103Y-108902643D01*
X142110917Y-108896014D01*
X142112551Y-108889155D01*
X142112885Y-108857297D01*
X142112961Y-108850005D01*
X142112961Y-108849987D01*
X142112979Y-108848292D01*
X142113131Y-108844156D01*
X142113500Y-108841231D01*
X142113500Y-108799214D01*
X142113507Y-108797894D01*
X142114100Y-108741273D01*
X142114451Y-108707779D01*
X142113737Y-108704475D01*
X142113500Y-108699805D01*
X142113500Y-108662000D01*
X142133502Y-108593879D01*
X142187158Y-108547386D01*
X142239500Y-108536000D01*
X143355500Y-108536000D01*
X143423621Y-108556002D01*
G37*
%TD.AperFunction*%
%TA.AperFunction,Conductor*%
G36*
X137220390Y-94099960D02*
G01*
X137227517Y-94106559D01*
X137776712Y-94655754D01*
X137787579Y-94668145D01*
X137807040Y-94693507D01*
X137813590Y-94698533D01*
X137838952Y-94717994D01*
X137838955Y-94717997D01*
X137908345Y-94771242D01*
X137927597Y-94786015D01*
X137927601Y-94786017D01*
X137934152Y-94791044D01*
X138082177Y-94852358D01*
X138201142Y-94868020D01*
X138201147Y-94868020D01*
X138201156Y-94868021D01*
X138232839Y-94872192D01*
X138241027Y-94873270D01*
X138272720Y-94869098D01*
X138289163Y-94868020D01*
X139438542Y-94868020D01*
X139506663Y-94888022D01*
X139553156Y-94941678D01*
X139563852Y-94980849D01*
X139574348Y-95080708D01*
X139576871Y-95104712D01*
X139635325Y-95276421D01*
X139657131Y-95311866D01*
X139709969Y-95397752D01*
X139730369Y-95430912D01*
X139735300Y-95435947D01*
X139735302Y-95435950D01*
X139775025Y-95476513D01*
X139808396Y-95539178D01*
X139802590Y-95609937D01*
X139773786Y-95654077D01*
X139737425Y-95690185D01*
X139733651Y-95696131D01*
X139733650Y-95696133D01*
X139727963Y-95705095D01*
X139640234Y-95843334D01*
X139636586Y-95853579D01*
X139581750Y-96007575D01*
X139581749Y-96007580D01*
X139579388Y-96014210D01*
X139578555Y-96021198D01*
X139578554Y-96021201D01*
X139572432Y-96072544D01*
X139557911Y-96194320D01*
X139558647Y-96201323D01*
X139558647Y-96201324D01*
X139575672Y-96363302D01*
X139576871Y-96374712D01*
X139635325Y-96546421D01*
X139661370Y-96588756D01*
X139719487Y-96683223D01*
X139730369Y-96700912D01*
X139735300Y-96705947D01*
X139735302Y-96705950D01*
X139775025Y-96746513D01*
X139808396Y-96809178D01*
X139802590Y-96879937D01*
X139773786Y-96924077D01*
X139737425Y-96960185D01*
X139640234Y-97113334D01*
X139630431Y-97140864D01*
X139588739Y-97198325D01*
X139522596Y-97224126D01*
X139469466Y-97217294D01*
X139467908Y-97216739D01*
X139434390Y-97204804D01*
X139375189Y-97183723D01*
X139375187Y-97183722D01*
X139368555Y-97181361D01*
X139361569Y-97180528D01*
X139361565Y-97180527D01*
X139231503Y-97165019D01*
X139205153Y-97161877D01*
X139198150Y-97162613D01*
X139198149Y-97162613D01*
X139154935Y-97167155D01*
X139041495Y-97179078D01*
X139034827Y-97181348D01*
X138892382Y-97229840D01*
X138892379Y-97229841D01*
X138885715Y-97232110D01*
X138745555Y-97318337D01*
X138683066Y-97379531D01*
X138638052Y-97423612D01*
X138627982Y-97433473D01*
X138538838Y-97571797D01*
X138536427Y-97578420D01*
X138536426Y-97578423D01*
X138484966Y-97719809D01*
X138484965Y-97719814D01*
X138482556Y-97726432D01*
X138461931Y-97889694D01*
X138477989Y-98053468D01*
X138529932Y-98209615D01*
X138533581Y-98215640D01*
X138603483Y-98331060D01*
X138615179Y-98350373D01*
X138620070Y-98355438D01*
X138620071Y-98355439D01*
X138694789Y-98432812D01*
X138727721Y-98495709D01*
X138721421Y-98566425D01*
X138677889Y-98622510D01*
X138617322Y-98645649D01*
X138504861Y-98657469D01*
X138498193Y-98659739D01*
X138355748Y-98708231D01*
X138355745Y-98708232D01*
X138349081Y-98710501D01*
X138208921Y-98796728D01*
X138091348Y-98911864D01*
X138002204Y-99050188D01*
X137999793Y-99056811D01*
X137999792Y-99056814D01*
X137948332Y-99198200D01*
X137948331Y-99198205D01*
X137945922Y-99204823D01*
X137925297Y-99368085D01*
X137941355Y-99531859D01*
X137993298Y-99688006D01*
X137996947Y-99694031D01*
X138068764Y-99812613D01*
X138078545Y-99828764D01*
X138083436Y-99833829D01*
X138083437Y-99833830D01*
X138111717Y-99863115D01*
X138192857Y-99947138D01*
X138330555Y-100037245D01*
X138484794Y-100094606D01*
X138564220Y-100105204D01*
X138569416Y-100105897D01*
X138634292Y-100134733D01*
X138673280Y-100194066D01*
X138674001Y-100265059D01*
X138640908Y-100320814D01*
X138635289Y-100326317D01*
X138627982Y-100333473D01*
X138538838Y-100471797D01*
X138536427Y-100478420D01*
X138536426Y-100478423D01*
X138484966Y-100619809D01*
X138484965Y-100619814D01*
X138482556Y-100626432D01*
X138461931Y-100789694D01*
X138477989Y-100953468D01*
X138529932Y-101109615D01*
X138533581Y-101115640D01*
X138583178Y-101197533D01*
X138615179Y-101250373D01*
X138729491Y-101368747D01*
X138867189Y-101458854D01*
X139021428Y-101516215D01*
X139028409Y-101517146D01*
X139028411Y-101517147D01*
X139177561Y-101537048D01*
X139177565Y-101537048D01*
X139184542Y-101537979D01*
X139191553Y-101537341D01*
X139191557Y-101537341D01*
X139288196Y-101528546D01*
X139344081Y-101523460D01*
X139413734Y-101537205D01*
X139464898Y-101586427D01*
X139481500Y-101648941D01*
X139481500Y-101728134D01*
X139488255Y-101790316D01*
X139539385Y-101926705D01*
X139626739Y-102043261D01*
X139743295Y-102130615D01*
X139879684Y-102181745D01*
X139941866Y-102188500D01*
X140955500Y-102188500D01*
X141023621Y-102208502D01*
X141070114Y-102262158D01*
X141081500Y-102314500D01*
X141081500Y-105371502D01*
X141061498Y-105439623D01*
X141007842Y-105486116D01*
X140999730Y-105489484D01*
X140949982Y-105508134D01*
X140893295Y-105529385D01*
X140838681Y-105570316D01*
X140815148Y-105587953D01*
X140748642Y-105612801D01*
X140679259Y-105597748D01*
X140664018Y-105587953D01*
X140593648Y-105535214D01*
X140578054Y-105526676D01*
X140457606Y-105481522D01*
X140442351Y-105477895D01*
X140391486Y-105472369D01*
X140384672Y-105472000D01*
X139862115Y-105472000D01*
X139846876Y-105476475D01*
X139845671Y-105477865D01*
X139844000Y-105485548D01*
X139844000Y-107108000D01*
X139823998Y-107176121D01*
X139770342Y-107222614D01*
X139718000Y-107234000D01*
X139462000Y-107234000D01*
X139393879Y-107213998D01*
X139347386Y-107160342D01*
X139336000Y-107108000D01*
X139336000Y-105490116D01*
X139331525Y-105474877D01*
X139330135Y-105473672D01*
X139322452Y-105472001D01*
X138795331Y-105472001D01*
X138788510Y-105472371D01*
X138737648Y-105477895D01*
X138722394Y-105481522D01*
X138667727Y-105502015D01*
X138596920Y-105507198D01*
X138534551Y-105473277D01*
X138523543Y-105460746D01*
X138463019Y-105381870D01*
X138463017Y-105381865D01*
X138463016Y-105381866D01*
X138461800Y-105380281D01*
X138458477Y-105375950D01*
X138458474Y-105375947D01*
X138433987Y-105344035D01*
X138412491Y-105327540D01*
X138408621Y-105324570D01*
X138396230Y-105313703D01*
X138170971Y-105088444D01*
X138136945Y-105026132D01*
X138142010Y-104955317D01*
X138184498Y-104898526D01*
X138290261Y-104819261D01*
X138377615Y-104702705D01*
X138428745Y-104566316D01*
X138435500Y-104504134D01*
X138435500Y-103187866D01*
X138428745Y-103125684D01*
X138377615Y-102989295D01*
X138306825Y-102894840D01*
X138281977Y-102828334D01*
X138286654Y-102784121D01*
X138303269Y-102726935D01*
X138305570Y-102714333D01*
X138307807Y-102685916D01*
X138308000Y-102680986D01*
X138308000Y-102301615D01*
X138303525Y-102286376D01*
X138302135Y-102285171D01*
X138294452Y-102283500D01*
X136766739Y-102283500D01*
X136698618Y-102263498D01*
X136677644Y-102246595D01*
X136445405Y-102014356D01*
X136411379Y-101952044D01*
X136408500Y-101925261D01*
X136408500Y-101526500D01*
X136428502Y-101458379D01*
X136482158Y-101411886D01*
X136534500Y-101400500D01*
X136566000Y-101400500D01*
X136634121Y-101420502D01*
X136680614Y-101474158D01*
X136692000Y-101526500D01*
X136692000Y-101757385D01*
X136696475Y-101772624D01*
X136697865Y-101773829D01*
X136705548Y-101775500D01*
X137227885Y-101775500D01*
X137243124Y-101771025D01*
X137244329Y-101769635D01*
X137246000Y-101761952D01*
X137246000Y-101757385D01*
X137754000Y-101757385D01*
X137758475Y-101772624D01*
X137759865Y-101773829D01*
X137767548Y-101775500D01*
X138289884Y-101775500D01*
X138305123Y-101771025D01*
X138306328Y-101769635D01*
X138307999Y-101761952D01*
X138307999Y-101378017D01*
X138307805Y-101373080D01*
X138305570Y-101344664D01*
X138303270Y-101332069D01*
X138260893Y-101186210D01*
X138254648Y-101171779D01*
X138178089Y-101042322D01*
X138168449Y-101029896D01*
X138062104Y-100923551D01*
X138049678Y-100913911D01*
X137920221Y-100837352D01*
X137905790Y-100831107D01*
X137771395Y-100792061D01*
X137757294Y-100792101D01*
X137754000Y-100799370D01*
X137754000Y-101757385D01*
X137246000Y-101757385D01*
X137246000Y-101146842D01*
X137263547Y-101082703D01*
X137305108Y-101012427D01*
X137309145Y-101005601D01*
X137315626Y-100983295D01*
X137335783Y-100913911D01*
X137355562Y-100845831D01*
X137356230Y-100837352D01*
X137358307Y-100810958D01*
X137358307Y-100810950D01*
X137358500Y-100808502D01*
X137358500Y-99500498D01*
X137357336Y-99485709D01*
X137356067Y-99469579D01*
X137356066Y-99469574D01*
X137355562Y-99463169D01*
X137311458Y-99311360D01*
X137311357Y-99311012D01*
X137311356Y-99311010D01*
X137309145Y-99303399D01*
X137280440Y-99254861D01*
X137228491Y-99167020D01*
X137228489Y-99167017D01*
X137224453Y-99160193D01*
X137174372Y-99110112D01*
X137140346Y-99047800D01*
X137144768Y-98978751D01*
X137161263Y-98932428D01*
X137161264Y-98932422D01*
X137163626Y-98925790D01*
X137164581Y-98917787D01*
X137184269Y-98752673D01*
X137185103Y-98745680D01*
X137183909Y-98734320D01*
X137166879Y-98572288D01*
X137166878Y-98572286D01*
X137166143Y-98565288D01*
X137107689Y-98393579D01*
X137059885Y-98315875D01*
X137016341Y-98245095D01*
X137016339Y-98245092D01*
X137012645Y-98239088D01*
X137007714Y-98234053D01*
X137007712Y-98234050D01*
X136967989Y-98193487D01*
X136934618Y-98130822D01*
X136940424Y-98060063D01*
X136969228Y-98015923D01*
X137005589Y-97979815D01*
X137023970Y-97950852D01*
X137075480Y-97869684D01*
X137102780Y-97826666D01*
X137131017Y-97747368D01*
X137161264Y-97662425D01*
X137161265Y-97662420D01*
X137163626Y-97655790D01*
X137165132Y-97643166D01*
X137184269Y-97482673D01*
X137185103Y-97475680D01*
X137183174Y-97457327D01*
X137166879Y-97302288D01*
X137166878Y-97302286D01*
X137166143Y-97295288D01*
X137107689Y-97123579D01*
X137050497Y-97030615D01*
X137016341Y-96975095D01*
X137016339Y-96975092D01*
X137012645Y-96969088D01*
X137007714Y-96964053D01*
X137007712Y-96964050D01*
X136967989Y-96923487D01*
X136934618Y-96860822D01*
X136940424Y-96790063D01*
X136969228Y-96745923D01*
X136987336Y-96727941D01*
X137005589Y-96709815D01*
X137017964Y-96690316D01*
X137082415Y-96588756D01*
X137102780Y-96556666D01*
X137117743Y-96514645D01*
X137161264Y-96392425D01*
X137161265Y-96392420D01*
X137163626Y-96385790D01*
X137166478Y-96361877D01*
X137184269Y-96212673D01*
X137185103Y-96205680D01*
X137181732Y-96173605D01*
X137166879Y-96032288D01*
X137166878Y-96032286D01*
X137166143Y-96025288D01*
X137107689Y-95853579D01*
X137055108Y-95768110D01*
X137016341Y-95705095D01*
X137016339Y-95705092D01*
X137012645Y-95699088D01*
X137007714Y-95694053D01*
X137007712Y-95694050D01*
X136967989Y-95653487D01*
X136934618Y-95590822D01*
X136940424Y-95520063D01*
X136969228Y-95475923D01*
X137000592Y-95444777D01*
X137005589Y-95439815D01*
X137102780Y-95286666D01*
X137157569Y-95132801D01*
X137161264Y-95122425D01*
X137161265Y-95122420D01*
X137163626Y-95115790D01*
X137167810Y-95080708D01*
X137184269Y-94942673D01*
X137185103Y-94935680D01*
X137183909Y-94924320D01*
X137166879Y-94762288D01*
X137166878Y-94762286D01*
X137166143Y-94755288D01*
X137107689Y-94583579D01*
X137059320Y-94504957D01*
X137016341Y-94435095D01*
X137016339Y-94435092D01*
X137012645Y-94429088D01*
X137007714Y-94424053D01*
X137007712Y-94424050D01*
X136967989Y-94383487D01*
X136934618Y-94320822D01*
X136940424Y-94250063D01*
X136969228Y-94205923D01*
X137000592Y-94174777D01*
X137005589Y-94169815D01*
X137032038Y-94128138D01*
X137085426Y-94081341D01*
X137155642Y-94070836D01*
X137220390Y-94099960D01*
G37*
%TD.AperFunction*%
%TA.AperFunction,Conductor*%
G36*
X135683621Y-103612002D02*
G01*
X135730114Y-103665658D01*
X135741500Y-103718000D01*
X135741500Y-104079886D01*
X135740422Y-104096329D01*
X135736250Y-104128022D01*
X135741500Y-104167902D01*
X135741500Y-104167907D01*
X135751886Y-104246797D01*
X135757162Y-104286873D01*
X135818476Y-104434898D01*
X135823503Y-104441449D01*
X135823504Y-104441451D01*
X135891520Y-104530091D01*
X135891526Y-104530097D01*
X135916013Y-104562009D01*
X135919856Y-104564958D01*
X135953121Y-104625884D01*
X135956000Y-104652663D01*
X135956000Y-104945884D01*
X135960475Y-104961123D01*
X135961865Y-104962328D01*
X135969548Y-104963999D01*
X136071669Y-104963999D01*
X136078490Y-104963629D01*
X136129352Y-104958105D01*
X136144606Y-104954478D01*
X136193239Y-104936247D01*
X136264046Y-104931064D01*
X136326563Y-104965134D01*
X136493834Y-105132405D01*
X136527860Y-105194717D01*
X136522795Y-105265532D01*
X136480248Y-105322368D01*
X136413728Y-105347179D01*
X136404739Y-105347500D01*
X136278866Y-105347500D01*
X136216684Y-105354255D01*
X136080295Y-105405385D01*
X135963739Y-105492739D01*
X135958358Y-105499919D01*
X135958357Y-105499920D01*
X135878056Y-105607065D01*
X135821197Y-105649580D01*
X135777230Y-105657500D01*
X135102703Y-105657500D01*
X135034582Y-105637498D01*
X134988089Y-105583842D01*
X134977440Y-105517893D01*
X134978131Y-105511533D01*
X134978131Y-105511529D01*
X134978500Y-105508134D01*
X134978500Y-105030974D01*
X134998502Y-104962853D01*
X135052158Y-104916360D01*
X135122432Y-104906256D01*
X135148730Y-104912992D01*
X135259394Y-104954478D01*
X135274649Y-104958105D01*
X135325514Y-104963631D01*
X135332328Y-104964000D01*
X135429885Y-104964000D01*
X135445124Y-104959525D01*
X135446329Y-104958135D01*
X135448000Y-104950452D01*
X135448000Y-103718000D01*
X135468002Y-103649879D01*
X135521658Y-103603386D01*
X135574000Y-103592000D01*
X135615500Y-103592000D01*
X135683621Y-103612002D01*
G37*
%TD.AperFunction*%
%TA.AperFunction,Conductor*%
G36*
X126876034Y-97637037D02*
G01*
X126882617Y-97643166D01*
X127254595Y-98015144D01*
X127288621Y-98077456D01*
X127291500Y-98104239D01*
X127291500Y-98202999D01*
X127271412Y-98271253D01*
X127238838Y-98321797D01*
X127236427Y-98328420D01*
X127236426Y-98328423D01*
X127184966Y-98469809D01*
X127184965Y-98469814D01*
X127182556Y-98476432D01*
X127161931Y-98639694D01*
X127177989Y-98803468D01*
X127229932Y-98959615D01*
X127233581Y-98965640D01*
X127302841Y-99080000D01*
X127315179Y-99100373D01*
X127320070Y-99105438D01*
X127320071Y-99105439D01*
X127419805Y-99208717D01*
X127452737Y-99271614D01*
X127446437Y-99342330D01*
X127417325Y-99386268D01*
X127409880Y-99393559D01*
X127398860Y-99404351D01*
X127309716Y-99542675D01*
X127307305Y-99549298D01*
X127307304Y-99549301D01*
X127255844Y-99690687D01*
X127255843Y-99690692D01*
X127253434Y-99697310D01*
X127232809Y-99860572D01*
X127248867Y-100024346D01*
X127300810Y-100180493D01*
X127304459Y-100186518D01*
X127352026Y-100265059D01*
X127386057Y-100321251D01*
X127390948Y-100326316D01*
X127390949Y-100326317D01*
X127403579Y-100339396D01*
X127442903Y-100380117D01*
X127454909Y-100392550D01*
X127500371Y-100439627D01*
X127638069Y-100529734D01*
X127792308Y-100587095D01*
X127799294Y-100588027D01*
X127802935Y-100588935D01*
X127861549Y-100622098D01*
X128399332Y-101159881D01*
X128422603Y-101197533D01*
X128424755Y-101196538D01*
X128427708Y-101202928D01*
X128429932Y-101209615D01*
X128437599Y-101222275D01*
X128504094Y-101332069D01*
X128515179Y-101350373D01*
X128520070Y-101355438D01*
X128520071Y-101355439D01*
X128549810Y-101386235D01*
X128629491Y-101468747D01*
X128767189Y-101558854D01*
X128869421Y-101596874D01*
X128926296Y-101639366D01*
X128951170Y-101705862D01*
X128951500Y-101714971D01*
X128951500Y-102628134D01*
X128958255Y-102690316D01*
X129009385Y-102826705D01*
X129096739Y-102943261D01*
X129144660Y-102979176D01*
X129187173Y-103036033D01*
X129192199Y-103106851D01*
X129158139Y-103169145D01*
X129144670Y-103180817D01*
X129096739Y-103216739D01*
X129091358Y-103223919D01*
X129091357Y-103223920D01*
X129050156Y-103278894D01*
X128993296Y-103321409D01*
X128922478Y-103326434D01*
X128888632Y-103313745D01*
X128879213Y-103308567D01*
X128873338Y-103306703D01*
X128873335Y-103306702D01*
X128696564Y-103250627D01*
X128696563Y-103250627D01*
X128690694Y-103248765D01*
X128536773Y-103231500D01*
X128430231Y-103231500D01*
X128427175Y-103231800D01*
X128427168Y-103231800D01*
X128368660Y-103237537D01*
X128283167Y-103245920D01*
X128277266Y-103247702D01*
X128277264Y-103247702D01*
X128203947Y-103269838D01*
X128093831Y-103303084D01*
X127919204Y-103395934D01*
X127832938Y-103466291D01*
X127770713Y-103517040D01*
X127770710Y-103517043D01*
X127765938Y-103520935D01*
X127762011Y-103525682D01*
X127762009Y-103525684D01*
X127643799Y-103668575D01*
X127643797Y-103668579D01*
X127639870Y-103673325D01*
X127545802Y-103847299D01*
X127487318Y-104036232D01*
X127486674Y-104042357D01*
X127486674Y-104042358D01*
X127469474Y-104206013D01*
X127466645Y-104232925D01*
X127471555Y-104286873D01*
X127482911Y-104411655D01*
X127484570Y-104429888D01*
X127486308Y-104435794D01*
X127486309Y-104435798D01*
X127499657Y-104481150D01*
X127540410Y-104619619D01*
X127543265Y-104625080D01*
X127543267Y-104625085D01*
X127607201Y-104747379D01*
X127621035Y-104817014D01*
X127595025Y-104883075D01*
X127537429Y-104924587D01*
X127470330Y-104928128D01*
X127470316Y-104928255D01*
X127469534Y-104928170D01*
X127408134Y-104921500D01*
X126793522Y-104921500D01*
X126725401Y-104901498D01*
X126678908Y-104847842D01*
X126667522Y-104795500D01*
X126667522Y-97732261D01*
X126687524Y-97664140D01*
X126741180Y-97617647D01*
X126811454Y-97607543D01*
X126876034Y-97637037D01*
G37*
%TD.AperFunction*%
%TA.AperFunction,Conductor*%
G36*
X133237802Y-96595182D02*
G01*
X133293809Y-96638814D01*
X133313961Y-96682940D01*
X133314762Y-96690316D01*
X133365892Y-96826705D01*
X133453246Y-96943261D01*
X133569802Y-97030615D01*
X133706191Y-97081745D01*
X133768373Y-97088500D01*
X134270461Y-97088500D01*
X134338582Y-97108502D01*
X134385075Y-97162158D01*
X134395179Y-97232432D01*
X134389160Y-97256767D01*
X134381750Y-97277575D01*
X134381749Y-97277580D01*
X134379388Y-97284210D01*
X134378555Y-97291198D01*
X134378554Y-97291201D01*
X134374731Y-97323266D01*
X134357911Y-97464320D01*
X134358647Y-97471323D01*
X134358647Y-97471324D01*
X134375275Y-97629523D01*
X134376871Y-97644712D01*
X134435325Y-97816421D01*
X134447216Y-97835749D01*
X134509346Y-97936739D01*
X134530369Y-97970912D01*
X134535300Y-97975947D01*
X134535302Y-97975950D01*
X134575025Y-98016513D01*
X134608396Y-98079178D01*
X134602590Y-98149937D01*
X134573786Y-98194077D01*
X134537425Y-98230185D01*
X134440234Y-98383334D01*
X134437869Y-98389976D01*
X134381750Y-98547575D01*
X134381749Y-98547580D01*
X134379388Y-98554210D01*
X134378555Y-98561198D01*
X134378554Y-98561201D01*
X134369126Y-98640268D01*
X134357911Y-98734320D01*
X134358647Y-98741323D01*
X134358647Y-98741324D01*
X134369035Y-98840154D01*
X134376871Y-98914712D01*
X134435325Y-99086421D01*
X134447025Y-99105439D01*
X134523278Y-99229385D01*
X134530369Y-99240912D01*
X134535300Y-99245947D01*
X134535302Y-99245950D01*
X134632608Y-99345315D01*
X134657278Y-99370507D01*
X134809745Y-99468765D01*
X134816365Y-99471174D01*
X134816368Y-99471176D01*
X134903716Y-99502968D01*
X134980192Y-99530803D01*
X135120276Y-99548500D01*
X135615500Y-99548500D01*
X135683621Y-99568502D01*
X135730114Y-99622158D01*
X135741500Y-99674500D01*
X135741500Y-99859128D01*
X135721498Y-99927249D01*
X135667842Y-99973742D01*
X135597568Y-99983846D01*
X135547986Y-99965513D01*
X135429536Y-99890342D01*
X135429530Y-99890339D01*
X135423580Y-99886563D01*
X135360707Y-99864175D01*
X135275189Y-99833723D01*
X135275187Y-99833722D01*
X135268555Y-99831361D01*
X135261569Y-99830528D01*
X135261565Y-99830527D01*
X135147071Y-99816875D01*
X135105153Y-99811877D01*
X135098150Y-99812613D01*
X135098149Y-99812613D01*
X135054935Y-99817155D01*
X134941495Y-99829078D01*
X134934827Y-99831348D01*
X134792382Y-99879840D01*
X134792379Y-99879841D01*
X134785715Y-99882110D01*
X134712343Y-99927249D01*
X134670630Y-99952911D01*
X134645555Y-99968337D01*
X134581534Y-100031031D01*
X134533221Y-100078343D01*
X134527982Y-100083473D01*
X134524168Y-100089390D01*
X134524168Y-100089391D01*
X134521034Y-100094254D01*
X134467320Y-100140679D01*
X134415122Y-100152000D01*
X133442115Y-100152000D01*
X133426876Y-100156475D01*
X133425671Y-100157865D01*
X133424000Y-100165548D01*
X133424000Y-101688000D01*
X133403998Y-101756121D01*
X133350342Y-101802614D01*
X133298000Y-101814000D01*
X133042000Y-101814000D01*
X132973879Y-101793998D01*
X132927386Y-101740342D01*
X132916000Y-101688000D01*
X132916000Y-100170116D01*
X132911525Y-100154877D01*
X132910135Y-100153672D01*
X132902452Y-100152001D01*
X131894500Y-100152001D01*
X131826379Y-100131999D01*
X131779886Y-100078343D01*
X131768500Y-100026001D01*
X131768500Y-99531866D01*
X131761745Y-99469684D01*
X131710615Y-99333295D01*
X131646790Y-99248134D01*
X132358007Y-99248134D01*
X132364762Y-99310316D01*
X132415892Y-99446705D01*
X132503246Y-99563261D01*
X132619802Y-99650615D01*
X132756191Y-99701745D01*
X132818373Y-99708500D01*
X133564641Y-99708500D01*
X133626823Y-99701745D01*
X133763212Y-99650615D01*
X133879768Y-99563261D01*
X133967122Y-99446705D01*
X134018252Y-99310316D01*
X134025007Y-99248134D01*
X134025007Y-97931866D01*
X134018252Y-97869684D01*
X133967122Y-97733295D01*
X133879768Y-97616739D01*
X133763212Y-97529385D01*
X133626823Y-97478255D01*
X133564641Y-97471500D01*
X132818373Y-97471500D01*
X132756191Y-97478255D01*
X132619802Y-97529385D01*
X132503246Y-97616739D01*
X132415892Y-97733295D01*
X132364762Y-97869684D01*
X132358007Y-97931866D01*
X132358007Y-99248134D01*
X131646790Y-99248134D01*
X131623261Y-99216739D01*
X131575340Y-99180824D01*
X131532827Y-99123967D01*
X131527801Y-99053149D01*
X131561861Y-98990855D01*
X131575330Y-98979183D01*
X131623261Y-98943261D01*
X131710615Y-98826705D01*
X131761745Y-98690316D01*
X131768500Y-98628134D01*
X131768500Y-97531866D01*
X131761745Y-97469684D01*
X131710615Y-97333295D01*
X131668446Y-97277029D01*
X131643599Y-97210525D01*
X131658652Y-97141143D01*
X131708826Y-97090912D01*
X131778191Y-97075782D01*
X131798417Y-97078883D01*
X131798799Y-97078974D01*
X131806191Y-97081745D01*
X131814041Y-97082598D01*
X131814042Y-97082598D01*
X131864976Y-97088131D01*
X131868373Y-97088500D01*
X132614641Y-97088500D01*
X132676823Y-97081745D01*
X132813212Y-97030615D01*
X132929768Y-96943261D01*
X133017122Y-96826705D01*
X133068252Y-96690316D01*
X133069046Y-96683010D01*
X133104142Y-96621576D01*
X133167097Y-96588756D01*
X133237802Y-96595182D01*
G37*
%TD.AperFunction*%
%TA.AperFunction,Conductor*%
G36*
X145182628Y-97418502D02*
G01*
X145229121Y-97472158D01*
X145240507Y-97524500D01*
X145240507Y-98112000D01*
X145220505Y-98180121D01*
X145166849Y-98226614D01*
X145114507Y-98238000D01*
X144858507Y-98238000D01*
X144790386Y-98217998D01*
X144743893Y-98164342D01*
X144732507Y-98112000D01*
X144732507Y-97662115D01*
X144728032Y-97646876D01*
X144717454Y-97637710D01*
X144673293Y-97613596D01*
X144639268Y-97551284D01*
X144644332Y-97480468D01*
X144686879Y-97423632D01*
X144753399Y-97398821D01*
X144762388Y-97398500D01*
X145114507Y-97398500D01*
X145182628Y-97418502D01*
G37*
%TD.AperFunction*%
%TA.AperFunction,Conductor*%
G36*
X134614929Y-89048002D02*
G01*
X134661422Y-89101658D01*
X134671526Y-89171932D01*
X134642032Y-89236512D01*
X134635592Y-89243406D01*
X134542815Y-89335537D01*
X134534044Y-89346446D01*
X134444457Y-89487612D01*
X134438324Y-89500188D01*
X134410284Y-89578933D01*
X134409488Y-89593013D01*
X134415157Y-89596000D01*
X137120509Y-89596000D01*
X137134040Y-89592027D01*
X137134999Y-89585353D01*
X137109504Y-89510461D01*
X137103542Y-89497792D01*
X137015941Y-89355399D01*
X137007319Y-89344363D01*
X136907231Y-89242158D01*
X136873860Y-89179493D01*
X136879666Y-89108734D01*
X136922805Y-89052347D01*
X136989581Y-89028234D01*
X136997254Y-89028000D01*
X139746098Y-89028000D01*
X139814219Y-89048002D01*
X139860712Y-89101658D01*
X139870816Y-89171932D01*
X139841322Y-89236512D01*
X139834886Y-89243402D01*
X139808402Y-89269702D01*
X139742422Y-89335222D01*
X139742419Y-89335226D01*
X139737425Y-89340185D01*
X139733651Y-89346131D01*
X139733650Y-89346133D01*
X139727770Y-89355399D01*
X139640234Y-89493334D01*
X139634135Y-89510461D01*
X139581750Y-89657575D01*
X139581749Y-89657580D01*
X139579388Y-89664210D01*
X139578555Y-89671198D01*
X139578554Y-89671201D01*
X139571794Y-89727895D01*
X139557911Y-89844320D01*
X139558647Y-89851323D01*
X139558647Y-89851324D01*
X139573402Y-89991703D01*
X139576871Y-90024712D01*
X139635325Y-90196421D01*
X139663154Y-90241656D01*
X139717010Y-90329197D01*
X139730369Y-90350912D01*
X139735300Y-90355947D01*
X139735302Y-90355950D01*
X139775025Y-90396513D01*
X139808396Y-90459178D01*
X139802590Y-90529937D01*
X139773786Y-90574077D01*
X139737425Y-90610185D01*
X139733651Y-90616131D01*
X139733650Y-90616133D01*
X139701662Y-90666539D01*
X139640234Y-90763334D01*
X139637869Y-90769976D01*
X139581750Y-90927575D01*
X139581749Y-90927580D01*
X139579388Y-90934210D01*
X139578555Y-90941198D01*
X139578554Y-90941201D01*
X139577231Y-90952296D01*
X139557911Y-91114320D01*
X139558647Y-91121323D01*
X139558647Y-91121324D01*
X139573878Y-91266233D01*
X139576871Y-91294712D01*
X139635325Y-91466421D01*
X139639019Y-91472425D01*
X139718910Y-91602285D01*
X139730369Y-91620912D01*
X139735300Y-91625947D01*
X139735302Y-91625950D01*
X139775025Y-91666513D01*
X139808396Y-91729178D01*
X139802590Y-91799937D01*
X139773786Y-91844077D01*
X139737425Y-91880185D01*
X139640234Y-92033334D01*
X139637869Y-92039976D01*
X139581750Y-92197575D01*
X139581749Y-92197580D01*
X139579388Y-92204210D01*
X139578555Y-92211198D01*
X139578554Y-92211201D01*
X139570568Y-92278176D01*
X139542640Y-92343449D01*
X139483857Y-92383262D01*
X139445454Y-92389257D01*
X138553503Y-92389257D01*
X138485382Y-92369255D01*
X138464408Y-92352352D01*
X137210472Y-91098416D01*
X137176446Y-91036104D01*
X137174257Y-91022491D01*
X137166880Y-90952296D01*
X137166879Y-90952292D01*
X137166143Y-90945288D01*
X137107689Y-90773579D01*
X137045805Y-90672988D01*
X137016341Y-90625095D01*
X137016339Y-90625092D01*
X137012645Y-90619088D01*
X136968385Y-90573891D01*
X136967638Y-90573128D01*
X136934268Y-90510463D01*
X136940074Y-90439704D01*
X136968879Y-90395565D01*
X137000193Y-90364469D01*
X137008973Y-90353550D01*
X137098557Y-90212388D01*
X137104690Y-90199812D01*
X137132730Y-90121067D01*
X137133526Y-90106987D01*
X137127857Y-90104000D01*
X134422505Y-90104000D01*
X134408974Y-90107973D01*
X134408015Y-90114647D01*
X134433510Y-90189539D01*
X134439472Y-90202208D01*
X134527073Y-90344601D01*
X134535695Y-90355637D01*
X134575380Y-90396161D01*
X134608751Y-90458826D01*
X134602945Y-90529585D01*
X134574141Y-90573724D01*
X134537425Y-90610185D01*
X134533651Y-90616131D01*
X134533650Y-90616133D01*
X134501662Y-90666539D01*
X134440234Y-90763334D01*
X134437869Y-90769976D01*
X134381750Y-90927575D01*
X134381749Y-90927580D01*
X134379388Y-90934210D01*
X134378555Y-90941196D01*
X134378554Y-90941200D01*
X134377231Y-90952296D01*
X134359808Y-91098416D01*
X134359569Y-91100419D01*
X134331642Y-91165692D01*
X134272859Y-91205505D01*
X134234455Y-91211500D01*
X133768373Y-91211500D01*
X133706191Y-91218255D01*
X133569802Y-91269385D01*
X133453246Y-91356739D01*
X133365892Y-91473295D01*
X133314762Y-91609684D01*
X133313968Y-91616990D01*
X133278872Y-91678424D01*
X133215917Y-91711244D01*
X133145212Y-91704818D01*
X133089205Y-91661186D01*
X133069053Y-91617060D01*
X133068252Y-91609684D01*
X133017122Y-91473295D01*
X132929768Y-91356739D01*
X132813212Y-91269385D01*
X132763317Y-91250680D01*
X132706553Y-91208037D01*
X132681854Y-91141476D01*
X132697062Y-91072127D01*
X132718453Y-91043603D01*
X132896651Y-90865405D01*
X132958963Y-90831379D01*
X132985746Y-90828500D01*
X133564641Y-90828500D01*
X133626823Y-90821745D01*
X133763212Y-90770615D01*
X133879768Y-90683261D01*
X133967122Y-90566705D01*
X134018252Y-90430316D01*
X134025007Y-90368134D01*
X134025007Y-89154000D01*
X134045009Y-89085879D01*
X134098665Y-89039386D01*
X134151007Y-89028000D01*
X134546808Y-89028000D01*
X134614929Y-89048002D01*
G37*
%TD.AperFunction*%
%TA.AperFunction,Conductor*%
G36*
X132300128Y-89048002D02*
G01*
X132346621Y-89101658D01*
X132358007Y-89154000D01*
X132358007Y-89630761D01*
X132338005Y-89698882D01*
X132321102Y-89719856D01*
X130083095Y-91957863D01*
X130020783Y-91991889D01*
X129949968Y-91986824D01*
X129893132Y-91944277D01*
X129868321Y-91877757D01*
X129868000Y-91868768D01*
X129868000Y-91752115D01*
X129863525Y-91736876D01*
X129862135Y-91735671D01*
X129854452Y-91734000D01*
X128732000Y-91734000D01*
X128663879Y-91713998D01*
X128617386Y-91660342D01*
X128606000Y-91608000D01*
X128606000Y-91207885D01*
X129114000Y-91207885D01*
X129118475Y-91223124D01*
X129119865Y-91224329D01*
X129127548Y-91226000D01*
X129849884Y-91226000D01*
X129865123Y-91221525D01*
X129866328Y-91220135D01*
X129867999Y-91212452D01*
X129867999Y-90185331D01*
X129867629Y-90178510D01*
X129862105Y-90127648D01*
X129858479Y-90112396D01*
X129813324Y-89991946D01*
X129804786Y-89976351D01*
X129728285Y-89874276D01*
X129715724Y-89861715D01*
X129613649Y-89785214D01*
X129598054Y-89776676D01*
X129477606Y-89731522D01*
X129462351Y-89727895D01*
X129411486Y-89722369D01*
X129404672Y-89722000D01*
X129132115Y-89722000D01*
X129116876Y-89726475D01*
X129115671Y-89727865D01*
X129114000Y-89735548D01*
X129114000Y-91207885D01*
X128606000Y-91207885D01*
X128606000Y-89712115D01*
X128601525Y-89696876D01*
X128600135Y-89695671D01*
X128592452Y-89694000D01*
X128164500Y-89694000D01*
X128096379Y-89673998D01*
X128049886Y-89620342D01*
X128038500Y-89568000D01*
X128038499Y-89312000D01*
X128058501Y-89243880D01*
X128112156Y-89197387D01*
X128164499Y-89186000D01*
X129039566Y-89186000D01*
X129054361Y-89181656D01*
X129056422Y-89169995D01*
X129055941Y-89163884D01*
X129070538Y-89094404D01*
X129120382Y-89043845D01*
X129181553Y-89028000D01*
X132232007Y-89028000D01*
X132300128Y-89048002D01*
G37*
%TD.AperFunction*%
%TD*%
M02*
