%TF.GenerationSoftware,KiCad,Pcbnew,(6.0.2)*%
%TF.CreationDate,2022-02-27T22:40:51+08:00*%
%TF.ProjectId,PlantCare,506c616e-7443-4617-9265-2e6b69636164,rev?*%
%TF.SameCoordinates,Original*%
%TF.FileFunction,Paste,Top*%
%TF.FilePolarity,Positive*%
%FSLAX46Y46*%
G04 Gerber Fmt 4.6, Leading zero omitted, Abs format (unit mm)*
G04 Created by KiCad (PCBNEW (6.0.2)) date 2022-02-27 22:40:51*
%MOMM*%
%LPD*%
G01*
G04 APERTURE LIST*
G04 Aperture macros list*
%AMRoundRect*
0 Rectangle with rounded corners*
0 $1 Rounding radius*
0 $2 $3 $4 $5 $6 $7 $8 $9 X,Y pos of 4 corners*
0 Add a 4 corners polygon primitive as box body*
4,1,4,$2,$3,$4,$5,$6,$7,$8,$9,$2,$3,0*
0 Add four circle primitives for the rounded corners*
1,1,$1+$1,$2,$3*
1,1,$1+$1,$4,$5*
1,1,$1+$1,$6,$7*
1,1,$1+$1,$8,$9*
0 Add four rect primitives between the rounded corners*
20,1,$1+$1,$2,$3,$4,$5,0*
20,1,$1+$1,$4,$5,$6,$7,0*
20,1,$1+$1,$6,$7,$8,$9,0*
20,1,$1+$1,$8,$9,$2,$3,0*%
G04 Aperture macros list end*
%ADD10R,0.800000X1.000000*%
%ADD11R,1.500000X0.700000*%
%ADD12RoundRect,0.135000X-0.185000X0.135000X-0.185000X-0.135000X0.185000X-0.135000X0.185000X0.135000X0*%
%ADD13RoundRect,0.135000X0.185000X-0.135000X0.185000X0.135000X-0.185000X0.135000X-0.185000X-0.135000X0*%
%ADD14RoundRect,0.135000X-0.135000X-0.185000X0.135000X-0.185000X0.135000X0.185000X-0.135000X0.185000X0*%
%ADD15RoundRect,0.147500X-0.172500X0.147500X-0.172500X-0.147500X0.172500X-0.147500X0.172500X0.147500X0*%
%ADD16R,1.500000X2.000000*%
%ADD17R,3.800000X2.000000*%
%ADD18RoundRect,0.140000X-0.140000X-0.170000X0.140000X-0.170000X0.140000X0.170000X-0.140000X0.170000X0*%
%ADD19R,1.000000X2.500000*%
%ADD20R,1.800000X1.000000*%
%ADD21R,0.650000X1.220000*%
%ADD22RoundRect,0.135000X0.135000X0.185000X-0.135000X0.185000X-0.135000X-0.185000X0.135000X-0.185000X0*%
%ADD23RoundRect,0.140000X0.140000X0.170000X-0.140000X0.170000X-0.140000X-0.170000X0.140000X-0.170000X0*%
%ADD24RoundRect,0.150000X0.150000X-0.587500X0.150000X0.587500X-0.150000X0.587500X-0.150000X-0.587500X0*%
%ADD25R,2.600000X1.800000*%
%ADD26RoundRect,0.140000X0.170000X-0.140000X0.170000X0.140000X-0.170000X0.140000X-0.170000X-0.140000X0*%
%ADD27R,1.450000X0.600000*%
%ADD28R,1.450000X0.300000*%
%ADD29R,1.200000X0.900000*%
%ADD30O,1.800000X0.600000*%
G04 APERTURE END LIST*
D10*
%TO.C,SW1*%
X149380000Y-100180000D03*
X147170000Y-100180000D03*
X147170000Y-107480000D03*
X149380000Y-107480000D03*
D11*
X146520000Y-106080000D03*
X146520000Y-103080000D03*
X146520000Y-101580000D03*
%TD*%
D12*
%TO.C,R6*%
X115872500Y-108650000D03*
X115872500Y-109670000D03*
%TD*%
D13*
%TO.C,R16*%
X117925000Y-109670000D03*
X117925000Y-108650000D03*
%TD*%
D14*
%TO.C,R9*%
X127260000Y-89440000D03*
X128280000Y-89440000D03*
%TD*%
D12*
%TO.C,R8*%
X114846250Y-108650000D03*
X114846250Y-109670000D03*
%TD*%
%TO.C,R4*%
X118951250Y-108650000D03*
X118951250Y-109670000D03*
%TD*%
D15*
%TO.C,D1*%
X121003750Y-108675000D03*
X121003750Y-109645000D03*
%TD*%
D14*
%TO.C,R10*%
X118900000Y-89440000D03*
X119920000Y-89440000D03*
%TD*%
D16*
%TO.C,U1*%
X139590000Y-106980000D03*
X141890000Y-106980000D03*
D17*
X141890000Y-100680000D03*
D16*
X144190000Y-106980000D03*
%TD*%
D18*
%TO.C,C5*%
X142371507Y-89290000D03*
X143331507Y-89290000D03*
%TD*%
D19*
%TO.C,U2*%
X114860000Y-106680000D03*
X116860000Y-106680000D03*
X118860000Y-106680000D03*
X120860000Y-106680000D03*
X122860000Y-106680000D03*
X124860000Y-106680000D03*
X126860000Y-106680000D03*
X128860000Y-106680000D03*
D20*
X130360000Y-104080000D03*
X130360000Y-102080000D03*
X130360000Y-100080000D03*
X130360000Y-98080000D03*
X130360000Y-96080000D03*
X130360000Y-94080000D03*
D19*
X128860000Y-91480000D03*
X126860000Y-91480000D03*
X124860000Y-91480000D03*
X122860000Y-91480000D03*
X120860000Y-91480000D03*
X118860000Y-91480000D03*
X116860000Y-91480000D03*
X114860000Y-91480000D03*
%TD*%
D21*
%TO.C,Q2*%
X134141507Y-95970000D03*
X132241507Y-95970000D03*
X133191507Y-98590000D03*
%TD*%
D14*
%TO.C,R3*%
X125170000Y-89440000D03*
X126190000Y-89440000D03*
%TD*%
D18*
%TO.C,C7*%
X142401507Y-91725000D03*
X143361507Y-91725000D03*
%TD*%
D13*
%TO.C,R14*%
X134141507Y-94660000D03*
X134141507Y-93640000D03*
%TD*%
D14*
%TO.C,R12*%
X142347542Y-94193884D03*
X143367542Y-94193884D03*
%TD*%
D22*
%TO.C,R13*%
X140250000Y-108780000D03*
X139230000Y-108780000D03*
%TD*%
D12*
%TO.C,R5*%
X119977500Y-108650000D03*
X119977500Y-109670000D03*
%TD*%
D14*
%TO.C,R1*%
X123080000Y-89440000D03*
X124100000Y-89440000D03*
%TD*%
D18*
%TO.C,C6*%
X142391507Y-90507500D03*
X143351507Y-90507500D03*
%TD*%
D23*
%TO.C,C2*%
X144290000Y-108790000D03*
X143330000Y-108790000D03*
%TD*%
D18*
%TO.C,C3*%
X141305000Y-108790000D03*
X142265000Y-108790000D03*
%TD*%
D12*
%TO.C,R2*%
X122030000Y-108650000D03*
X122030000Y-109670000D03*
%TD*%
D21*
%TO.C,Q4*%
X137602000Y-103846000D03*
X135702000Y-103846000D03*
X136652000Y-106466000D03*
%TD*%
D24*
%TO.C,Q1*%
X135600000Y-102029500D03*
X137500000Y-102029500D03*
X136550000Y-100154500D03*
%TD*%
D25*
%TO.C,C1*%
X133170000Y-104560000D03*
X133170000Y-101560000D03*
%TD*%
D26*
%TO.C,C4*%
X113830000Y-109660000D03*
X113830000Y-108700000D03*
%TD*%
D21*
%TO.C,Q3*%
X132241507Y-92330000D03*
X134141507Y-92330000D03*
X133191507Y-89710000D03*
%TD*%
D22*
%TO.C,R11*%
X143352108Y-92997757D03*
X142332108Y-92997757D03*
%TD*%
D27*
%TO.C,J3*%
X144986507Y-97390000D03*
X144986507Y-96590000D03*
D28*
X144986507Y-95390000D03*
X144986507Y-94390000D03*
X144986507Y-93890000D03*
X144986507Y-92890000D03*
D27*
X144986507Y-91690000D03*
X144986507Y-90890000D03*
X144986507Y-90890000D03*
X144986507Y-91690000D03*
D28*
X144986507Y-92390000D03*
X144986507Y-93390000D03*
X144986507Y-94890000D03*
X144986507Y-95890000D03*
D27*
X144986507Y-96590000D03*
X144986507Y-97390000D03*
%TD*%
D12*
%TO.C,R17*%
X116898750Y-108650000D03*
X116898750Y-109670000D03*
%TD*%
D29*
%TO.C,D2*%
X143041507Y-95450000D03*
X143041507Y-98750000D03*
%TD*%
D12*
%TO.C,R15*%
X132241507Y-93640000D03*
X132241507Y-94660000D03*
%TD*%
D30*
%TO.C,U3*%
X135771507Y-89850000D03*
X135771507Y-91120000D03*
X135771507Y-92390000D03*
X135771507Y-93660000D03*
X135771507Y-94930000D03*
X135771507Y-96200000D03*
X135771507Y-97470000D03*
X135771507Y-98740000D03*
X140971507Y-98740000D03*
X140971507Y-97470000D03*
X140971507Y-96200000D03*
X140971507Y-94930000D03*
X140971507Y-93660000D03*
X140971507Y-92390000D03*
X140971507Y-91120000D03*
X140971507Y-89850000D03*
%TD*%
D22*
%TO.C,R7*%
X122010000Y-89440000D03*
X120990000Y-89440000D03*
%TD*%
M02*
