%TF.GenerationSoftware,KiCad,Pcbnew,(6.0.2)*%
%TF.CreationDate,2022-03-05T20:45:56+08:00*%
%TF.ProjectId,screen,73637265-656e-42e6-9b69-6361645f7063,rev?*%
%TF.SameCoordinates,Original*%
%TF.FileFunction,Copper,L3,Inr*%
%TF.FilePolarity,Positive*%
%FSLAX46Y46*%
G04 Gerber Fmt 4.6, Leading zero omitted, Abs format (unit mm)*
G04 Created by KiCad (PCBNEW (6.0.2)) date 2022-03-05 20:45:56*
%MOMM*%
%LPD*%
G01*
G04 APERTURE LIST*
%TA.AperFunction,ComponentPad*%
%ADD10R,1.000000X1.000000*%
%TD*%
%TA.AperFunction,ComponentPad*%
%ADD11O,1.000000X1.000000*%
%TD*%
%TA.AperFunction,ComponentPad*%
%ADD12O,1.850000X0.850000*%
%TD*%
%TA.AperFunction,ComponentPad*%
%ADD13R,1.700000X1.700000*%
%TD*%
%TA.AperFunction,ComponentPad*%
%ADD14O,1.700000X1.700000*%
%TD*%
%TA.AperFunction,ViaPad*%
%ADD15C,0.800000*%
%TD*%
G04 APERTURE END LIST*
D10*
%TO.N,GND*%
%TO.C,J1*%
X137350000Y-42250000D03*
D11*
%TO.N,/GPIO0*%
X137350000Y-40980000D03*
%TO.N,/RXD*%
X137350000Y-39710000D03*
%TO.N,/TXD*%
X137350000Y-38440000D03*
%TO.N,/EN*%
X137350000Y-37170000D03*
%TD*%
D12*
%TO.N,GND*%
%TO.C,J2*%
X135450000Y-47080000D03*
X135450000Y-55720000D03*
%TD*%
D13*
%TO.N,+BATT*%
%TO.C,J3*%
X137170000Y-62880000D03*
D14*
%TO.N,GND*%
X137170000Y-60340000D03*
%TD*%
D15*
%TO.N,+3V3*%
X126020000Y-57080000D03*
X124020000Y-39070000D03*
X115130000Y-39070000D03*
X106170000Y-62090000D03*
X110720000Y-62110000D03*
X130820000Y-54330000D03*
X116470000Y-55700000D03*
%TO.N,GND*%
X121570000Y-43080000D03*
X127440000Y-39930000D03*
X106290000Y-47660000D03*
X107680000Y-47610000D03*
X106330000Y-49200000D03*
X115720000Y-64090000D03*
X128620000Y-51680000D03*
X107760000Y-62100000D03*
X125720000Y-49780000D03*
X131520000Y-42230000D03*
X114450000Y-64070000D03*
X117210000Y-64120000D03*
X114950000Y-56140000D03*
X107780000Y-49150000D03*
%TO.N,Net-(D2-Pad2)*%
X132495000Y-63605000D03*
X128520000Y-43980000D03*
%TO.N,Net-(C2-Pad1)*%
X127520000Y-59680000D03*
X128620000Y-54380000D03*
%TO.N,/GPIO0*%
X114470000Y-41130000D03*
X119770000Y-41130000D03*
X116170000Y-52900000D03*
%TO.N,/GPIO2*%
X116090000Y-48020000D03*
%TO.N,/GPIO14*%
X115290000Y-51700000D03*
%TO.N,/GPIO13*%
X117330000Y-51030000D03*
%TO.N,/GPIO5*%
X113900000Y-37850000D03*
X110090000Y-43120000D03*
%TO.N,Net-(D2-Pad1)*%
X131895000Y-64830000D03*
X127120000Y-44080000D03*
%TO.N,Net-(R7-Pad2)*%
X104860000Y-38300000D03*
X112109488Y-38632690D03*
%TO.N,+BATT*%
X124570000Y-59180000D03*
X131620000Y-57280000D03*
X109270000Y-62050000D03*
X131620000Y-43280000D03*
%TO.N,Net-(D3-Pad1)*%
X129420000Y-43980000D03*
X133320000Y-62680000D03*
%TO.N,Net-(D3-Pad2)*%
X129520000Y-42880000D03*
X133520000Y-61780000D03*
%TO.N,Net-(Q1-Pad3)*%
X124560000Y-42410000D03*
%TD*%
%TA.AperFunction,Conductor*%
%TO.N,+3V3*%
G36*
X136672148Y-36208002D02*
G01*
X136718641Y-36261658D01*
X136728745Y-36331932D01*
X136699251Y-36396512D01*
X136682986Y-36412190D01*
X136640975Y-36445968D01*
X136513846Y-36597474D01*
X136510879Y-36602872D01*
X136510875Y-36602877D01*
X136507397Y-36609204D01*
X136418567Y-36770787D01*
X136416706Y-36776654D01*
X136416705Y-36776656D01*
X136364413Y-36941500D01*
X136358765Y-36959306D01*
X136336719Y-37155851D01*
X136337235Y-37161995D01*
X136350400Y-37318774D01*
X136353268Y-37352934D01*
X136354967Y-37358858D01*
X136397216Y-37506197D01*
X136407783Y-37543050D01*
X136410602Y-37548535D01*
X136467925Y-37660072D01*
X136498187Y-37718956D01*
X136502016Y-37723787D01*
X136503839Y-37726088D01*
X136504414Y-37727509D01*
X136505353Y-37728966D01*
X136505076Y-37729144D01*
X136530474Y-37791898D01*
X136517301Y-37861662D01*
X136513846Y-37867474D01*
X136418567Y-38040787D01*
X136416706Y-38046654D01*
X136416705Y-38046656D01*
X136402690Y-38090838D01*
X136358765Y-38229306D01*
X136336719Y-38425851D01*
X136337235Y-38431995D01*
X136342100Y-38489928D01*
X136353268Y-38622934D01*
X136357948Y-38639255D01*
X136391748Y-38757128D01*
X136407783Y-38813050D01*
X136498187Y-38988956D01*
X136502016Y-38993787D01*
X136503839Y-38996088D01*
X136504414Y-38997509D01*
X136505353Y-38998966D01*
X136505076Y-38999144D01*
X136530474Y-39061898D01*
X136517301Y-39131662D01*
X136513846Y-39137474D01*
X136418567Y-39310787D01*
X136416706Y-39316654D01*
X136416705Y-39316656D01*
X136382714Y-39423808D01*
X136358765Y-39499306D01*
X136336719Y-39695851D01*
X136353268Y-39892934D01*
X136407783Y-40083050D01*
X136410602Y-40088535D01*
X136492160Y-40247228D01*
X136498187Y-40258956D01*
X136502016Y-40263787D01*
X136503839Y-40266088D01*
X136504414Y-40267509D01*
X136505353Y-40268966D01*
X136505076Y-40269144D01*
X136530474Y-40331898D01*
X136517301Y-40401662D01*
X136513846Y-40407474D01*
X136418567Y-40580787D01*
X136416706Y-40586654D01*
X136416705Y-40586656D01*
X136384578Y-40687932D01*
X136358765Y-40769306D01*
X136336719Y-40965851D01*
X136337235Y-40971995D01*
X136350503Y-41130000D01*
X136353268Y-41162934D01*
X136407783Y-41353050D01*
X136414150Y-41365438D01*
X136427496Y-41435165D01*
X136407300Y-41487266D01*
X136409079Y-41488240D01*
X136404771Y-41496108D01*
X136399385Y-41503295D01*
X136348255Y-41639684D01*
X136341500Y-41701866D01*
X136341500Y-42798134D01*
X136348255Y-42860316D01*
X136399385Y-42996705D01*
X136486739Y-43113261D01*
X136603295Y-43200615D01*
X136739684Y-43251745D01*
X136801866Y-43258500D01*
X137898134Y-43258500D01*
X137960316Y-43251745D01*
X138096705Y-43200615D01*
X138213261Y-43113261D01*
X138300615Y-42996705D01*
X138351745Y-42860316D01*
X138358500Y-42798134D01*
X138358500Y-41701866D01*
X138351745Y-41639684D01*
X138300615Y-41503295D01*
X138295229Y-41496109D01*
X138290921Y-41488240D01*
X138292942Y-41487133D01*
X138272506Y-41432443D01*
X138278621Y-41383606D01*
X138336250Y-41210365D01*
X138338197Y-41204513D01*
X138362985Y-41008295D01*
X138363380Y-40980000D01*
X138344080Y-40783167D01*
X138286916Y-40593831D01*
X138194066Y-40419204D01*
X138190167Y-40414424D01*
X138189715Y-40413743D01*
X138168676Y-40345935D01*
X138185105Y-40281775D01*
X138192923Y-40268014D01*
X138218567Y-40222872D01*
X138272723Y-40127542D01*
X138272725Y-40127537D01*
X138275769Y-40122179D01*
X138338197Y-39934513D01*
X138362985Y-39738295D01*
X138363380Y-39710000D01*
X138344080Y-39513167D01*
X138286916Y-39323831D01*
X138194066Y-39149204D01*
X138190167Y-39144424D01*
X138189715Y-39143743D01*
X138168676Y-39075935D01*
X138185105Y-39011775D01*
X138272723Y-38857542D01*
X138272725Y-38857537D01*
X138275769Y-38852179D01*
X138338197Y-38664513D01*
X138362985Y-38468295D01*
X138363380Y-38440000D01*
X138344080Y-38243167D01*
X138286916Y-38053831D01*
X138194066Y-37879204D01*
X138190167Y-37874424D01*
X138189715Y-37873743D01*
X138168676Y-37805935D01*
X138185105Y-37741775D01*
X138194316Y-37725562D01*
X138227791Y-37666635D01*
X138272723Y-37587542D01*
X138272725Y-37587537D01*
X138275769Y-37582179D01*
X138338197Y-37394513D01*
X138362985Y-37198295D01*
X138363380Y-37170000D01*
X138344080Y-36973167D01*
X138334934Y-36942872D01*
X138288697Y-36789731D01*
X138286916Y-36783831D01*
X138194066Y-36609204D01*
X138123709Y-36522938D01*
X138072960Y-36460713D01*
X138072957Y-36460710D01*
X138069065Y-36455938D01*
X138057014Y-36445968D01*
X138014847Y-36411085D01*
X137975108Y-36352251D01*
X137973486Y-36281273D01*
X138010496Y-36220686D01*
X138074386Y-36189725D01*
X138095162Y-36188000D01*
X138761000Y-36188000D01*
X138829121Y-36208002D01*
X138875614Y-36261658D01*
X138887000Y-36314000D01*
X138887000Y-65046000D01*
X138866998Y-65114121D01*
X138813342Y-65160614D01*
X138761000Y-65172000D01*
X132911110Y-65172000D01*
X132842989Y-65151998D01*
X132796496Y-65098342D01*
X132786392Y-65028068D01*
X132786992Y-65024698D01*
X132788542Y-65019928D01*
X132789231Y-65013373D01*
X132789232Y-65013368D01*
X132807814Y-64836565D01*
X132808504Y-64830000D01*
X132802079Y-64768866D01*
X132789232Y-64646635D01*
X132789232Y-64646633D01*
X132788542Y-64640072D01*
X132774979Y-64598329D01*
X132772951Y-64527363D01*
X132809614Y-64466565D01*
X132843563Y-64444287D01*
X132945722Y-64398803D01*
X132945724Y-64398802D01*
X132951752Y-64396118D01*
X133106253Y-64283866D01*
X133155681Y-64228971D01*
X133229621Y-64146852D01*
X133229622Y-64146851D01*
X133234040Y-64141944D01*
X133295093Y-64036197D01*
X133326223Y-63982279D01*
X133326224Y-63982278D01*
X133329527Y-63976556D01*
X133388542Y-63794928D01*
X133400549Y-63680684D01*
X133427562Y-63615028D01*
X133485783Y-63574398D01*
X133499662Y-63570608D01*
X133508397Y-63568751D01*
X133602288Y-63548794D01*
X133608319Y-63546109D01*
X133770722Y-63473803D01*
X133770724Y-63473802D01*
X133776752Y-63471118D01*
X133931253Y-63358866D01*
X133986558Y-63297444D01*
X134054621Y-63221852D01*
X134054622Y-63221851D01*
X134059040Y-63216944D01*
X134141333Y-63074409D01*
X134151223Y-63057279D01*
X134151224Y-63057278D01*
X134154527Y-63051556D01*
X134213542Y-62869928D01*
X134233504Y-62680000D01*
X134225549Y-62604315D01*
X134214233Y-62496642D01*
X134214232Y-62496635D01*
X134213542Y-62490072D01*
X134207526Y-62471556D01*
X134206750Y-62469167D01*
X134204724Y-62398199D01*
X134232948Y-62345922D01*
X134254621Y-62321852D01*
X134254622Y-62321851D01*
X134259040Y-62316944D01*
X134303505Y-62239928D01*
X134351223Y-62157279D01*
X134351224Y-62157278D01*
X134354527Y-62151556D01*
X134413542Y-61969928D01*
X134419601Y-61912285D01*
X134432814Y-61786565D01*
X134433504Y-61780000D01*
X134421600Y-61666739D01*
X134414232Y-61596635D01*
X134414232Y-61596633D01*
X134413542Y-61590072D01*
X134354527Y-61408444D01*
X134259040Y-61243056D01*
X134244707Y-61227137D01*
X134135675Y-61106045D01*
X134135674Y-61106044D01*
X134131253Y-61101134D01*
X133976752Y-60988882D01*
X133970724Y-60986198D01*
X133970722Y-60986197D01*
X133808319Y-60913891D01*
X133808318Y-60913891D01*
X133802288Y-60911206D01*
X133708887Y-60891353D01*
X133621944Y-60872872D01*
X133621939Y-60872872D01*
X133615487Y-60871500D01*
X133424513Y-60871500D01*
X133418061Y-60872872D01*
X133418056Y-60872872D01*
X133331113Y-60891353D01*
X133237712Y-60911206D01*
X133231682Y-60913891D01*
X133231681Y-60913891D01*
X133069278Y-60986197D01*
X133069276Y-60986198D01*
X133063248Y-60988882D01*
X132908747Y-61101134D01*
X132904326Y-61106044D01*
X132904325Y-61106045D01*
X132795294Y-61227137D01*
X132780960Y-61243056D01*
X132685473Y-61408444D01*
X132626458Y-61590072D01*
X132625768Y-61596633D01*
X132625768Y-61596635D01*
X132618400Y-61666739D01*
X132606496Y-61780000D01*
X132607186Y-61786565D01*
X132620857Y-61916635D01*
X132626458Y-61969928D01*
X132628500Y-61976212D01*
X132633250Y-61990833D01*
X132635276Y-62061801D01*
X132607052Y-62114078D01*
X132580960Y-62143056D01*
X132577657Y-62148777D01*
X132492539Y-62296206D01*
X132485473Y-62308444D01*
X132426458Y-62490072D01*
X132416277Y-62586944D01*
X132414451Y-62604315D01*
X132387438Y-62669972D01*
X132329217Y-62710602D01*
X132315337Y-62714392D01*
X132212712Y-62736206D01*
X132206682Y-62738891D01*
X132206681Y-62738891D01*
X132044278Y-62811197D01*
X132044276Y-62811198D01*
X132038248Y-62813882D01*
X132032907Y-62817762D01*
X132032906Y-62817763D01*
X132006103Y-62837237D01*
X131883747Y-62926134D01*
X131879326Y-62931044D01*
X131879325Y-62931045D01*
X131765664Y-63057279D01*
X131755960Y-63068056D01*
X131712700Y-63142985D01*
X131667166Y-63221852D01*
X131660473Y-63233444D01*
X131601458Y-63415072D01*
X131600768Y-63421633D01*
X131600768Y-63421635D01*
X131587686Y-63546109D01*
X131581496Y-63605000D01*
X131601458Y-63794928D01*
X131603497Y-63801203D01*
X131615021Y-63836669D01*
X131617049Y-63907637D01*
X131580386Y-63968435D01*
X131546437Y-63990713D01*
X131444278Y-64036197D01*
X131444276Y-64036198D01*
X131438248Y-64038882D01*
X131283747Y-64151134D01*
X131279326Y-64156044D01*
X131279325Y-64156045D01*
X131168657Y-64278955D01*
X131155960Y-64293056D01*
X131098698Y-64392237D01*
X131068647Y-64444287D01*
X131060473Y-64458444D01*
X131001458Y-64640072D01*
X131000768Y-64646633D01*
X131000768Y-64646635D01*
X130987921Y-64768866D01*
X130981496Y-64830000D01*
X130982186Y-64836565D01*
X131000768Y-65013368D01*
X131000769Y-65013373D01*
X131001458Y-65019928D01*
X131002000Y-65021597D01*
X130996733Y-65090597D01*
X130953915Y-65147229D01*
X130887277Y-65171721D01*
X130878890Y-65172000D01*
X117673585Y-65172000D01*
X117605464Y-65151998D01*
X117558971Y-65098342D01*
X117548867Y-65028068D01*
X117578361Y-64963488D01*
X117622337Y-64930893D01*
X117660719Y-64913805D01*
X117660726Y-64913801D01*
X117666752Y-64911118D01*
X117821253Y-64798866D01*
X117949040Y-64656944D01*
X118044527Y-64491556D01*
X118103542Y-64309928D01*
X118104715Y-64298774D01*
X118122814Y-64126565D01*
X118123504Y-64120000D01*
X118106814Y-63961206D01*
X118104232Y-63936635D01*
X118104232Y-63936633D01*
X118103542Y-63930072D01*
X118044527Y-63748444D01*
X117949040Y-63583056D01*
X117918191Y-63548794D01*
X117825675Y-63446045D01*
X117825674Y-63446044D01*
X117821253Y-63441134D01*
X117666752Y-63328882D01*
X117660724Y-63326198D01*
X117660722Y-63326197D01*
X117498319Y-63253891D01*
X117498318Y-63253891D01*
X117492288Y-63251206D01*
X117398888Y-63231353D01*
X117311944Y-63212872D01*
X117311939Y-63212872D01*
X117305487Y-63211500D01*
X117114513Y-63211500D01*
X117108061Y-63212872D01*
X117108056Y-63212872D01*
X117021112Y-63231353D01*
X116927712Y-63251206D01*
X116921682Y-63253891D01*
X116921681Y-63253891D01*
X116759278Y-63326197D01*
X116759276Y-63326198D01*
X116753248Y-63328882D01*
X116598747Y-63441134D01*
X116594326Y-63446044D01*
X116594325Y-63446045D01*
X116572142Y-63470682D01*
X116511696Y-63507922D01*
X116440713Y-63506570D01*
X116384870Y-63470682D01*
X116335675Y-63416045D01*
X116335674Y-63416044D01*
X116331253Y-63411134D01*
X116176752Y-63298882D01*
X116170724Y-63296198D01*
X116170722Y-63296197D01*
X116008319Y-63223891D01*
X116008318Y-63223891D01*
X116002288Y-63221206D01*
X115888305Y-63196978D01*
X115821944Y-63182872D01*
X115821939Y-63182872D01*
X115815487Y-63181500D01*
X115624513Y-63181500D01*
X115618061Y-63182872D01*
X115618056Y-63182872D01*
X115551695Y-63196978D01*
X115437712Y-63221206D01*
X115431682Y-63223891D01*
X115431681Y-63223891D01*
X115269278Y-63296197D01*
X115269276Y-63296198D01*
X115263248Y-63298882D01*
X115172822Y-63364580D01*
X115105958Y-63388437D01*
X115036806Y-63372357D01*
X115024703Y-63364579D01*
X115022185Y-63362749D01*
X114906752Y-63278882D01*
X114900724Y-63276198D01*
X114900722Y-63276197D01*
X114738319Y-63203891D01*
X114738318Y-63203891D01*
X114732288Y-63201206D01*
X114638887Y-63181353D01*
X114551944Y-63162872D01*
X114551939Y-63162872D01*
X114545487Y-63161500D01*
X114354513Y-63161500D01*
X114348061Y-63162872D01*
X114348056Y-63162872D01*
X114261113Y-63181353D01*
X114167712Y-63201206D01*
X114161682Y-63203891D01*
X114161681Y-63203891D01*
X113999278Y-63276197D01*
X113999276Y-63276198D01*
X113993248Y-63278882D01*
X113838747Y-63391134D01*
X113834326Y-63396044D01*
X113834325Y-63396045D01*
X113764312Y-63473803D01*
X113710960Y-63533056D01*
X113615473Y-63698444D01*
X113556458Y-63880072D01*
X113555768Y-63886633D01*
X113555768Y-63886635D01*
X113545716Y-63982279D01*
X113536496Y-64070000D01*
X113537186Y-64076565D01*
X113553586Y-64232598D01*
X113556458Y-64259928D01*
X113615473Y-64441556D01*
X113710960Y-64606944D01*
X113715378Y-64611851D01*
X113715379Y-64611852D01*
X113755980Y-64656944D01*
X113838747Y-64748866D01*
X113993248Y-64861118D01*
X113999276Y-64863802D01*
X113999278Y-64863803D01*
X114149966Y-64930893D01*
X114204062Y-64976873D01*
X114224711Y-65044800D01*
X114205359Y-65113108D01*
X114152148Y-65160110D01*
X114098717Y-65172000D01*
X98129000Y-65172000D01*
X98060879Y-65151998D01*
X98014386Y-65098342D01*
X98003000Y-65046000D01*
X98003000Y-62100000D01*
X106846496Y-62100000D01*
X106866458Y-62289928D01*
X106925473Y-62471556D01*
X106928776Y-62477278D01*
X106928777Y-62477279D01*
X106936163Y-62490072D01*
X107020960Y-62636944D01*
X107025378Y-62641851D01*
X107025379Y-62641852D01*
X107059728Y-62680000D01*
X107148747Y-62778866D01*
X107229818Y-62837768D01*
X107274083Y-62869928D01*
X107303248Y-62891118D01*
X107309276Y-62893802D01*
X107309278Y-62893803D01*
X107454591Y-62958500D01*
X107477712Y-62968794D01*
X107571113Y-62988647D01*
X107658056Y-63007128D01*
X107658061Y-63007128D01*
X107664513Y-63008500D01*
X107855487Y-63008500D01*
X107861939Y-63007128D01*
X107861944Y-63007128D01*
X107948887Y-62988647D01*
X108042288Y-62968794D01*
X108065409Y-62958500D01*
X108210722Y-62893803D01*
X108210724Y-62893802D01*
X108216752Y-62891118D01*
X108245918Y-62869928D01*
X108290182Y-62837768D01*
X108371253Y-62778866D01*
X108443874Y-62698212D01*
X108504320Y-62660972D01*
X108575303Y-62662324D01*
X108631146Y-62698212D01*
X108645715Y-62714392D01*
X108658747Y-62728866D01*
X108813248Y-62841118D01*
X108819276Y-62843802D01*
X108819278Y-62843803D01*
X108892057Y-62876206D01*
X108987712Y-62918794D01*
X109081112Y-62938647D01*
X109168056Y-62957128D01*
X109168061Y-62957128D01*
X109174513Y-62958500D01*
X109365487Y-62958500D01*
X109371939Y-62957128D01*
X109371944Y-62957128D01*
X109458888Y-62938647D01*
X109552288Y-62918794D01*
X109647943Y-62876206D01*
X109720722Y-62843803D01*
X109720724Y-62843802D01*
X109726752Y-62841118D01*
X109881253Y-62728866D01*
X109885675Y-62723955D01*
X110004621Y-62591852D01*
X110004622Y-62591851D01*
X110009040Y-62586944D01*
X110084026Y-62457064D01*
X125357707Y-62457064D01*
X125386825Y-62649599D01*
X125389028Y-62655585D01*
X125389029Y-62655591D01*
X125451860Y-62826360D01*
X125451862Y-62826365D01*
X125454063Y-62832346D01*
X125556674Y-62997840D01*
X125561055Y-63002473D01*
X125561056Y-63002474D01*
X125624312Y-63069366D01*
X125690466Y-63139322D01*
X125695696Y-63142984D01*
X125695697Y-63142985D01*
X125724099Y-63162872D01*
X125849975Y-63251011D01*
X125897987Y-63271788D01*
X126022825Y-63325810D01*
X126022829Y-63325811D01*
X126028684Y-63328345D01*
X126034931Y-63329650D01*
X126034934Y-63329651D01*
X126214557Y-63367176D01*
X126214562Y-63367177D01*
X126219293Y-63368165D01*
X126225685Y-63368500D01*
X126368663Y-63368500D01*
X126437951Y-63361462D01*
X126507378Y-63354410D01*
X126507379Y-63354410D01*
X126513727Y-63353765D01*
X126594843Y-63328345D01*
X126693451Y-63297444D01*
X126693456Y-63297442D01*
X126699541Y-63295535D01*
X126786475Y-63247346D01*
X126864271Y-63204223D01*
X126864274Y-63204221D01*
X126869850Y-63201130D01*
X126874691Y-63196981D01*
X126874695Y-63196978D01*
X127012855Y-63078560D01*
X127017698Y-63074409D01*
X127030986Y-63057279D01*
X127101704Y-62966109D01*
X127137046Y-62920547D01*
X127158865Y-62876206D01*
X127220200Y-62751556D01*
X127223018Y-62745829D01*
X127232194Y-62710602D01*
X127270492Y-62563575D01*
X127270492Y-62563572D01*
X127272102Y-62557393D01*
X127277360Y-62457064D01*
X128357707Y-62457064D01*
X128386825Y-62649599D01*
X128389028Y-62655585D01*
X128389029Y-62655591D01*
X128451860Y-62826360D01*
X128451862Y-62826365D01*
X128454063Y-62832346D01*
X128556674Y-62997840D01*
X128561055Y-63002473D01*
X128561056Y-63002474D01*
X128624312Y-63069366D01*
X128690466Y-63139322D01*
X128695696Y-63142984D01*
X128695697Y-63142985D01*
X128724099Y-63162872D01*
X128849975Y-63251011D01*
X128897987Y-63271788D01*
X129022825Y-63325810D01*
X129022829Y-63325811D01*
X129028684Y-63328345D01*
X129034931Y-63329650D01*
X129034934Y-63329651D01*
X129214557Y-63367176D01*
X129214562Y-63367177D01*
X129219293Y-63368165D01*
X129225685Y-63368500D01*
X129368663Y-63368500D01*
X129437951Y-63361462D01*
X129507378Y-63354410D01*
X129507379Y-63354410D01*
X129513727Y-63353765D01*
X129594843Y-63328345D01*
X129693451Y-63297444D01*
X129693456Y-63297442D01*
X129699541Y-63295535D01*
X129786475Y-63247346D01*
X129864271Y-63204223D01*
X129864274Y-63204221D01*
X129869850Y-63201130D01*
X129874691Y-63196981D01*
X129874695Y-63196978D01*
X130012855Y-63078560D01*
X130017698Y-63074409D01*
X130030986Y-63057279D01*
X130101704Y-62966109D01*
X130137046Y-62920547D01*
X130158865Y-62876206D01*
X130220200Y-62751556D01*
X130223018Y-62745829D01*
X130232194Y-62710602D01*
X130270492Y-62563575D01*
X130270492Y-62563572D01*
X130272102Y-62557393D01*
X130279550Y-62415271D01*
X130281959Y-62369317D01*
X130281959Y-62369313D01*
X130282293Y-62362936D01*
X130253175Y-62170401D01*
X130250972Y-62164415D01*
X130250971Y-62164409D01*
X130188140Y-61993640D01*
X130188138Y-61993635D01*
X130185937Y-61987654D01*
X130083326Y-61822160D01*
X130054525Y-61791703D01*
X129953919Y-61685315D01*
X129949534Y-61680678D01*
X129790025Y-61568989D01*
X129742013Y-61548212D01*
X129617175Y-61494190D01*
X129617171Y-61494189D01*
X129611316Y-61491655D01*
X129605069Y-61490350D01*
X129605066Y-61490349D01*
X129425443Y-61452824D01*
X129425438Y-61452823D01*
X129420707Y-61451835D01*
X129414315Y-61451500D01*
X129271337Y-61451500D01*
X129220813Y-61456632D01*
X129132622Y-61465590D01*
X129132621Y-61465590D01*
X129126273Y-61466235D01*
X129069939Y-61483889D01*
X128946549Y-61522556D01*
X128946544Y-61522558D01*
X128940459Y-61524465D01*
X128860137Y-61568989D01*
X128775729Y-61615777D01*
X128775726Y-61615779D01*
X128770150Y-61618870D01*
X128765309Y-61623019D01*
X128765305Y-61623022D01*
X128698037Y-61680678D01*
X128622302Y-61745591D01*
X128618391Y-61750633D01*
X128618390Y-61750634D01*
X128593056Y-61783295D01*
X128502954Y-61899453D01*
X128500138Y-61905176D01*
X128500136Y-61905179D01*
X128457989Y-61990833D01*
X128416982Y-62074171D01*
X128415373Y-62080349D01*
X128415372Y-62080351D01*
X128393477Y-62164409D01*
X128367898Y-62262607D01*
X128357707Y-62457064D01*
X127277360Y-62457064D01*
X127279550Y-62415271D01*
X127281959Y-62369317D01*
X127281959Y-62369313D01*
X127282293Y-62362936D01*
X127253175Y-62170401D01*
X127250972Y-62164415D01*
X127250971Y-62164409D01*
X127188140Y-61993640D01*
X127188138Y-61993635D01*
X127185937Y-61987654D01*
X127083326Y-61822160D01*
X127054525Y-61791703D01*
X126953919Y-61685315D01*
X126949534Y-61680678D01*
X126790025Y-61568989D01*
X126742013Y-61548212D01*
X126617175Y-61494190D01*
X126617171Y-61494189D01*
X126611316Y-61491655D01*
X126605069Y-61490350D01*
X126605066Y-61490349D01*
X126425443Y-61452824D01*
X126425438Y-61452823D01*
X126420707Y-61451835D01*
X126414315Y-61451500D01*
X126271337Y-61451500D01*
X126220813Y-61456632D01*
X126132622Y-61465590D01*
X126132621Y-61465590D01*
X126126273Y-61466235D01*
X126069939Y-61483889D01*
X125946549Y-61522556D01*
X125946544Y-61522558D01*
X125940459Y-61524465D01*
X125860137Y-61568989D01*
X125775729Y-61615777D01*
X125775726Y-61615779D01*
X125770150Y-61618870D01*
X125765309Y-61623019D01*
X125765305Y-61623022D01*
X125698037Y-61680678D01*
X125622302Y-61745591D01*
X125618391Y-61750633D01*
X125618390Y-61750634D01*
X125593056Y-61783295D01*
X125502954Y-61899453D01*
X125500138Y-61905176D01*
X125500136Y-61905179D01*
X125457989Y-61990833D01*
X125416982Y-62074171D01*
X125415373Y-62080349D01*
X125415372Y-62080351D01*
X125393477Y-62164409D01*
X125367898Y-62262607D01*
X125357707Y-62457064D01*
X110084026Y-62457064D01*
X110101223Y-62427279D01*
X110101224Y-62427278D01*
X110104527Y-62421556D01*
X110163542Y-62239928D01*
X110170850Y-62170401D01*
X110182814Y-62056565D01*
X110183504Y-62050000D01*
X110170633Y-61927540D01*
X110164232Y-61866635D01*
X110164232Y-61866633D01*
X110163542Y-61860072D01*
X110104527Y-61678444D01*
X110094663Y-61661358D01*
X110039868Y-61566452D01*
X110009040Y-61513056D01*
X109990368Y-61492318D01*
X109885675Y-61376045D01*
X109885674Y-61376044D01*
X109881253Y-61371134D01*
X109726752Y-61258882D01*
X109720724Y-61256198D01*
X109720722Y-61256197D01*
X109558319Y-61183891D01*
X109558318Y-61183891D01*
X109552288Y-61181206D01*
X109458887Y-61161353D01*
X109371944Y-61142872D01*
X109371939Y-61142872D01*
X109365487Y-61141500D01*
X109174513Y-61141500D01*
X109168061Y-61142872D01*
X109168056Y-61142872D01*
X109081113Y-61161353D01*
X108987712Y-61181206D01*
X108981682Y-61183891D01*
X108981681Y-61183891D01*
X108819278Y-61256197D01*
X108819276Y-61256198D01*
X108813248Y-61258882D01*
X108658747Y-61371134D01*
X108586772Y-61451071D01*
X108586126Y-61451788D01*
X108525680Y-61489028D01*
X108454697Y-61487676D01*
X108398854Y-61451788D01*
X108375675Y-61426045D01*
X108375674Y-61426044D01*
X108371253Y-61421134D01*
X108242690Y-61327727D01*
X108222094Y-61312763D01*
X108222093Y-61312762D01*
X108216752Y-61308882D01*
X108210724Y-61306198D01*
X108210722Y-61306197D01*
X108048319Y-61233891D01*
X108048318Y-61233891D01*
X108042288Y-61231206D01*
X107948887Y-61211353D01*
X107861944Y-61192872D01*
X107861939Y-61192872D01*
X107855487Y-61191500D01*
X107664513Y-61191500D01*
X107658061Y-61192872D01*
X107658056Y-61192872D01*
X107571113Y-61211353D01*
X107477712Y-61231206D01*
X107471682Y-61233891D01*
X107471681Y-61233891D01*
X107309278Y-61306197D01*
X107309276Y-61306198D01*
X107303248Y-61308882D01*
X107297907Y-61312762D01*
X107297906Y-61312763D01*
X107277310Y-61327727D01*
X107148747Y-61421134D01*
X107144326Y-61426044D01*
X107144325Y-61426045D01*
X107052923Y-61527558D01*
X107020960Y-61563056D01*
X106925473Y-61728444D01*
X106866458Y-61910072D01*
X106846496Y-62100000D01*
X98003000Y-62100000D01*
X98003000Y-61314000D01*
X98023002Y-61245879D01*
X98076658Y-61199386D01*
X98129000Y-61188000D01*
X103486298Y-61188000D01*
X103487069Y-61188002D01*
X103564652Y-61188476D01*
X103573281Y-61186010D01*
X103573286Y-61186009D01*
X103593048Y-61180361D01*
X103609809Y-61176783D01*
X103630152Y-61173870D01*
X103630162Y-61173867D01*
X103639045Y-61172595D01*
X103662395Y-61161979D01*
X103679907Y-61155536D01*
X103695937Y-61150954D01*
X103704565Y-61148488D01*
X103729548Y-61132726D01*
X103744614Y-61124596D01*
X103771510Y-61112367D01*
X103790939Y-61095626D01*
X103805947Y-61084521D01*
X103820039Y-61075630D01*
X103827631Y-61070840D01*
X103847182Y-61048703D01*
X103859374Y-61036659D01*
X103874949Y-61023239D01*
X103874950Y-61023237D01*
X103881747Y-61017381D01*
X103886626Y-61009853D01*
X103886629Y-61009850D01*
X103895696Y-60995861D01*
X103906986Y-60980987D01*
X103918012Y-60968502D01*
X103923956Y-60961772D01*
X103936510Y-60935034D01*
X103944824Y-60920065D01*
X103960893Y-60895273D01*
X103968239Y-60870709D01*
X103974901Y-60853264D01*
X103981983Y-60838179D01*
X103985799Y-60830052D01*
X103990343Y-60800870D01*
X103994126Y-60784151D01*
X104000014Y-60764464D01*
X104000015Y-60764461D01*
X104002587Y-60755859D01*
X104002797Y-60721444D01*
X104002830Y-60720672D01*
X104003000Y-60719577D01*
X104003000Y-60688702D01*
X104003002Y-60687932D01*
X104003452Y-60614284D01*
X104003452Y-60614283D01*
X104003476Y-60610348D01*
X104003092Y-60609004D01*
X104003000Y-60607659D01*
X104003000Y-59040862D01*
X121355497Y-59040862D01*
X121356737Y-59048078D01*
X121356737Y-59048080D01*
X121378277Y-59173435D01*
X121385134Y-59213340D01*
X121422560Y-59301298D01*
X121438964Y-59339848D01*
X121453654Y-59374373D01*
X121557383Y-59515324D01*
X121562961Y-59520063D01*
X121562964Y-59520066D01*
X121685176Y-59623893D01*
X121685180Y-59623896D01*
X121690755Y-59628632D01*
X121756887Y-59662401D01*
X121831676Y-59700590D01*
X121846616Y-59708219D01*
X121853721Y-59709958D01*
X121853725Y-59709959D01*
X121934858Y-59729811D01*
X122016606Y-59749815D01*
X122022206Y-59750162D01*
X122022210Y-59750163D01*
X122025709Y-59750380D01*
X122025718Y-59750380D01*
X122027648Y-59750500D01*
X122153822Y-59750500D01*
X122245369Y-59739827D01*
X122276556Y-59736191D01*
X122276558Y-59736191D01*
X122283828Y-59735343D01*
X122290705Y-59732847D01*
X122290708Y-59732846D01*
X122441452Y-59678128D01*
X122448331Y-59675631D01*
X122594685Y-59579677D01*
X122715040Y-59452628D01*
X122802939Y-59301298D01*
X122839677Y-59180000D01*
X123656496Y-59180000D01*
X123657186Y-59186565D01*
X123674035Y-59346870D01*
X123676458Y-59369928D01*
X123735473Y-59551556D01*
X123830960Y-59716944D01*
X123835378Y-59721851D01*
X123835379Y-59721852D01*
X123848290Y-59736191D01*
X123958747Y-59858866D01*
X124113248Y-59971118D01*
X124119276Y-59973802D01*
X124119278Y-59973803D01*
X124279799Y-60045271D01*
X124287712Y-60048794D01*
X124381112Y-60068647D01*
X124468056Y-60087128D01*
X124468061Y-60087128D01*
X124474513Y-60088500D01*
X124665487Y-60088500D01*
X124671939Y-60087128D01*
X124671944Y-60087128D01*
X124758888Y-60068647D01*
X124852288Y-60048794D01*
X124860201Y-60045271D01*
X125020722Y-59973803D01*
X125020724Y-59973802D01*
X125026752Y-59971118D01*
X125181253Y-59858866D01*
X125291710Y-59736191D01*
X125304621Y-59721852D01*
X125304622Y-59721851D01*
X125309040Y-59716944D01*
X125330370Y-59680000D01*
X126606496Y-59680000D01*
X126626458Y-59869928D01*
X126685473Y-60051556D01*
X126688776Y-60057278D01*
X126688777Y-60057279D01*
X126720568Y-60112342D01*
X126780960Y-60216944D01*
X126785378Y-60221851D01*
X126785379Y-60221852D01*
X126888740Y-60336646D01*
X126908747Y-60358866D01*
X126974433Y-60406590D01*
X127054452Y-60464727D01*
X127063248Y-60471118D01*
X127069276Y-60473802D01*
X127069278Y-60473803D01*
X127231681Y-60546109D01*
X127237712Y-60548794D01*
X127331112Y-60568647D01*
X127418056Y-60587128D01*
X127418061Y-60587128D01*
X127424513Y-60588500D01*
X127615487Y-60588500D01*
X127621939Y-60587128D01*
X127621944Y-60587128D01*
X127708888Y-60568647D01*
X127802288Y-60548794D01*
X127808319Y-60546109D01*
X127970722Y-60473803D01*
X127970724Y-60473802D01*
X127976752Y-60471118D01*
X127985549Y-60464727D01*
X128065567Y-60406590D01*
X128131253Y-60358866D01*
X128151260Y-60336646D01*
X128178228Y-60306695D01*
X135807251Y-60306695D01*
X135807548Y-60311848D01*
X135807548Y-60311851D01*
X135813011Y-60406590D01*
X135820110Y-60529715D01*
X135821247Y-60534761D01*
X135821248Y-60534767D01*
X135833358Y-60588500D01*
X135869222Y-60747639D01*
X135930673Y-60898976D01*
X135942160Y-60927264D01*
X135953266Y-60954616D01*
X135978541Y-60995861D01*
X136062415Y-61132731D01*
X136069987Y-61145088D01*
X136216250Y-61313938D01*
X136220230Y-61317242D01*
X136224981Y-61321187D01*
X136264616Y-61380090D01*
X136266113Y-61451071D01*
X136228997Y-61511593D01*
X136188725Y-61536112D01*
X136109802Y-61565699D01*
X136073295Y-61579385D01*
X135956739Y-61666739D01*
X135869385Y-61783295D01*
X135818255Y-61919684D01*
X135811500Y-61981866D01*
X135811500Y-63778134D01*
X135818255Y-63840316D01*
X135869385Y-63976705D01*
X135956739Y-64093261D01*
X136073295Y-64180615D01*
X136209684Y-64231745D01*
X136271866Y-64238500D01*
X138068134Y-64238500D01*
X138130316Y-64231745D01*
X138266705Y-64180615D01*
X138383261Y-64093261D01*
X138470615Y-63976705D01*
X138521745Y-63840316D01*
X138528500Y-63778134D01*
X138528500Y-61981866D01*
X138521745Y-61919684D01*
X138470615Y-61783295D01*
X138383261Y-61666739D01*
X138266705Y-61579385D01*
X138238400Y-61568774D01*
X138148203Y-61534960D01*
X138091439Y-61492318D01*
X138066739Y-61425756D01*
X138081947Y-61356408D01*
X138103493Y-61327727D01*
X138125098Y-61306197D01*
X138208096Y-61223489D01*
X138230097Y-61192872D01*
X138335435Y-61046277D01*
X138338453Y-61042077D01*
X138347764Y-61023239D01*
X138435136Y-60846453D01*
X138435137Y-60846451D01*
X138437430Y-60841811D01*
X138474568Y-60719577D01*
X138500865Y-60633023D01*
X138500865Y-60633021D01*
X138502370Y-60628069D01*
X138531529Y-60406590D01*
X138533156Y-60340000D01*
X138514852Y-60117361D01*
X138460431Y-59900702D01*
X138371354Y-59695840D01*
X138281715Y-59557279D01*
X138252822Y-59512617D01*
X138252820Y-59512614D01*
X138250014Y-59508277D01*
X138099670Y-59343051D01*
X138095619Y-59339852D01*
X138095615Y-59339848D01*
X137928414Y-59207800D01*
X137928410Y-59207798D01*
X137924359Y-59204598D01*
X137728789Y-59096638D01*
X137723920Y-59094914D01*
X137723916Y-59094912D01*
X137523087Y-59023795D01*
X137523083Y-59023794D01*
X137518212Y-59022069D01*
X137513119Y-59021162D01*
X137513116Y-59021161D01*
X137303373Y-58983800D01*
X137303367Y-58983799D01*
X137298284Y-58982894D01*
X137224452Y-58981992D01*
X137080081Y-58980228D01*
X137080079Y-58980228D01*
X137074911Y-58980165D01*
X136854091Y-59013955D01*
X136641756Y-59083357D01*
X136443607Y-59186507D01*
X136439474Y-59189610D01*
X136439471Y-59189612D01*
X136272831Y-59314729D01*
X136264965Y-59320635D01*
X136110629Y-59482138D01*
X135984743Y-59666680D01*
X135945992Y-59750163D01*
X135895534Y-59858866D01*
X135890688Y-59869305D01*
X135830989Y-60084570D01*
X135807251Y-60306695D01*
X128178228Y-60306695D01*
X128254621Y-60221852D01*
X128254622Y-60221851D01*
X128259040Y-60216944D01*
X128319432Y-60112342D01*
X128351223Y-60057279D01*
X128351224Y-60057278D01*
X128354527Y-60051556D01*
X128413542Y-59869928D01*
X128433504Y-59680000D01*
X128427607Y-59623893D01*
X128414232Y-59496635D01*
X128414232Y-59496633D01*
X128413542Y-59490072D01*
X128354527Y-59308444D01*
X128259040Y-59143056D01*
X128131253Y-59001134D01*
X127976752Y-58888882D01*
X127970724Y-58886198D01*
X127970722Y-58886197D01*
X127808319Y-58813891D01*
X127808318Y-58813891D01*
X127802288Y-58811206D01*
X127686809Y-58786660D01*
X127621944Y-58772872D01*
X127621939Y-58772872D01*
X127615487Y-58771500D01*
X127424513Y-58771500D01*
X127418061Y-58772872D01*
X127418056Y-58772872D01*
X127353191Y-58786660D01*
X127237712Y-58811206D01*
X127231682Y-58813891D01*
X127231681Y-58813891D01*
X127069278Y-58886197D01*
X127069276Y-58886198D01*
X127063248Y-58888882D01*
X126908747Y-59001134D01*
X126780960Y-59143056D01*
X126685473Y-59308444D01*
X126626458Y-59490072D01*
X126625768Y-59496633D01*
X126625768Y-59496635D01*
X126612393Y-59623893D01*
X126606496Y-59680000D01*
X125330370Y-59680000D01*
X125404527Y-59551556D01*
X125463542Y-59369928D01*
X125465966Y-59346870D01*
X125482814Y-59186565D01*
X125483504Y-59180000D01*
X125468112Y-59033551D01*
X125464232Y-58996635D01*
X125464232Y-58996633D01*
X125463542Y-58990072D01*
X125404527Y-58808444D01*
X125383990Y-58772872D01*
X125312341Y-58648774D01*
X125309040Y-58643056D01*
X125181253Y-58501134D01*
X125026752Y-58388882D01*
X125020724Y-58386198D01*
X125020722Y-58386197D01*
X124858319Y-58313891D01*
X124858318Y-58313891D01*
X124852288Y-58311206D01*
X124752715Y-58290041D01*
X124671944Y-58272872D01*
X124671939Y-58272872D01*
X124665487Y-58271500D01*
X124474513Y-58271500D01*
X124468061Y-58272872D01*
X124468056Y-58272872D01*
X124387285Y-58290041D01*
X124287712Y-58311206D01*
X124281682Y-58313891D01*
X124281681Y-58313891D01*
X124119278Y-58386197D01*
X124119276Y-58386198D01*
X124113248Y-58388882D01*
X123958747Y-58501134D01*
X123830960Y-58643056D01*
X123827659Y-58648774D01*
X123756011Y-58772872D01*
X123735473Y-58808444D01*
X123676458Y-58990072D01*
X123675768Y-58996633D01*
X123675768Y-58996635D01*
X123671888Y-59033551D01*
X123656496Y-59180000D01*
X122839677Y-59180000D01*
X122853667Y-59133807D01*
X122864503Y-58959138D01*
X122849788Y-58873498D01*
X122836106Y-58793875D01*
X122836105Y-58793873D01*
X122834866Y-58786660D01*
X122766346Y-58625627D01*
X122662617Y-58484676D01*
X122657039Y-58479937D01*
X122657036Y-58479934D01*
X122534824Y-58376107D01*
X122534820Y-58376104D01*
X122529245Y-58371368D01*
X122445062Y-58328382D01*
X122379900Y-58295108D01*
X122379898Y-58295107D01*
X122373384Y-58291781D01*
X122366279Y-58290042D01*
X122366275Y-58290041D01*
X122272741Y-58267154D01*
X122203394Y-58250185D01*
X122197794Y-58249838D01*
X122197790Y-58249837D01*
X122194291Y-58249620D01*
X122194282Y-58249620D01*
X122192352Y-58249500D01*
X122066178Y-58249500D01*
X121974631Y-58260173D01*
X121943444Y-58263809D01*
X121943442Y-58263809D01*
X121936172Y-58264657D01*
X121929295Y-58267153D01*
X121929292Y-58267154D01*
X121852281Y-58295108D01*
X121771669Y-58324369D01*
X121625315Y-58420323D01*
X121504960Y-58547372D01*
X121417061Y-58698702D01*
X121366333Y-58866193D01*
X121355497Y-59040862D01*
X104003000Y-59040862D01*
X104003000Y-57280000D01*
X130706496Y-57280000D01*
X130726458Y-57469928D01*
X130785473Y-57651556D01*
X130880960Y-57816944D01*
X131008747Y-57958866D01*
X131163248Y-58071118D01*
X131169276Y-58073802D01*
X131169278Y-58073803D01*
X131331681Y-58146109D01*
X131337712Y-58148794D01*
X131431112Y-58168647D01*
X131518056Y-58187128D01*
X131518061Y-58187128D01*
X131524513Y-58188500D01*
X131715487Y-58188500D01*
X131721939Y-58187128D01*
X131721944Y-58187128D01*
X131808888Y-58168647D01*
X131902288Y-58148794D01*
X131908319Y-58146109D01*
X132070722Y-58073803D01*
X132070724Y-58073802D01*
X132076752Y-58071118D01*
X132231253Y-57958866D01*
X132359040Y-57816944D01*
X132454527Y-57651556D01*
X132513542Y-57469928D01*
X132533504Y-57280000D01*
X132513542Y-57090072D01*
X132454527Y-56908444D01*
X132359040Y-56743056D01*
X132262728Y-56636090D01*
X132235675Y-56606045D01*
X132235674Y-56606044D01*
X132231253Y-56601134D01*
X132107960Y-56511556D01*
X132082094Y-56492763D01*
X132082093Y-56492762D01*
X132076752Y-56488882D01*
X132070724Y-56486198D01*
X132070722Y-56486197D01*
X131908319Y-56413891D01*
X131908318Y-56413891D01*
X131902288Y-56411206D01*
X131808887Y-56391353D01*
X131721944Y-56372872D01*
X131721939Y-56372872D01*
X131715487Y-56371500D01*
X131524513Y-56371500D01*
X131518061Y-56372872D01*
X131518056Y-56372872D01*
X131431113Y-56391353D01*
X131337712Y-56411206D01*
X131331682Y-56413891D01*
X131331681Y-56413891D01*
X131169278Y-56486197D01*
X131169276Y-56486198D01*
X131163248Y-56488882D01*
X131157907Y-56492762D01*
X131157906Y-56492763D01*
X131132040Y-56511556D01*
X131008747Y-56601134D01*
X131004326Y-56606044D01*
X131004325Y-56606045D01*
X130977273Y-56636090D01*
X130880960Y-56743056D01*
X130785473Y-56908444D01*
X130726458Y-57090072D01*
X130706496Y-57280000D01*
X104003000Y-57280000D01*
X104003000Y-56140000D01*
X114036496Y-56140000D01*
X114056458Y-56329928D01*
X114115473Y-56511556D01*
X114210960Y-56676944D01*
X114338747Y-56818866D01*
X114437843Y-56890864D01*
X114470691Y-56914729D01*
X114493248Y-56931118D01*
X114499276Y-56933802D01*
X114499278Y-56933803D01*
X114661681Y-57006109D01*
X114667712Y-57008794D01*
X114761113Y-57028647D01*
X114848056Y-57047128D01*
X114848061Y-57047128D01*
X114854513Y-57048500D01*
X115045487Y-57048500D01*
X115051939Y-57047128D01*
X115051944Y-57047128D01*
X115138887Y-57028647D01*
X115232288Y-57008794D01*
X115238319Y-57006109D01*
X115400722Y-56933803D01*
X115400724Y-56933802D01*
X115406752Y-56931118D01*
X115429310Y-56914729D01*
X115462157Y-56890864D01*
X115561253Y-56818866D01*
X115689040Y-56676944D01*
X115784527Y-56511556D01*
X115843542Y-56329928D01*
X115863504Y-56140000D01*
X115862814Y-56133435D01*
X115844232Y-55956635D01*
X115844232Y-55956633D01*
X115843542Y-55950072D01*
X115800666Y-55818115D01*
X134016500Y-55818115D01*
X134057298Y-56010056D01*
X134137112Y-56189321D01*
X134252453Y-56348074D01*
X134257363Y-56352495D01*
X134257364Y-56352496D01*
X134321045Y-56409834D01*
X134398280Y-56479377D01*
X134568220Y-56577492D01*
X134574506Y-56579534D01*
X134574505Y-56579534D01*
X134748566Y-56636090D01*
X134748567Y-56636090D01*
X134754845Y-56638130D01*
X134761408Y-56638820D01*
X134761409Y-56638820D01*
X134784405Y-56641237D01*
X134901078Y-56653500D01*
X135998922Y-56653500D01*
X136115595Y-56641237D01*
X136138591Y-56638820D01*
X136138592Y-56638820D01*
X136145155Y-56638130D01*
X136151433Y-56636090D01*
X136151434Y-56636090D01*
X136325495Y-56579534D01*
X136325494Y-56579534D01*
X136331780Y-56577492D01*
X136501720Y-56479377D01*
X136578956Y-56409834D01*
X136642636Y-56352496D01*
X136642637Y-56352495D01*
X136647547Y-56348074D01*
X136762888Y-56189321D01*
X136842702Y-56010056D01*
X136883500Y-55818115D01*
X136883500Y-55621885D01*
X136880714Y-55608774D01*
X136850375Y-55466045D01*
X136842702Y-55429944D01*
X136806611Y-55348882D01*
X136765573Y-55256709D01*
X136765572Y-55256707D01*
X136762888Y-55250679D01*
X136759007Y-55245337D01*
X136651430Y-55097270D01*
X136651428Y-55097268D01*
X136647547Y-55091926D01*
X136501720Y-54960623D01*
X136331780Y-54862508D01*
X136254059Y-54837255D01*
X136151434Y-54803910D01*
X136151433Y-54803910D01*
X136145155Y-54801870D01*
X136138592Y-54801180D01*
X136138591Y-54801180D01*
X136115595Y-54798763D01*
X135998922Y-54786500D01*
X134901078Y-54786500D01*
X134784405Y-54798763D01*
X134761409Y-54801180D01*
X134761408Y-54801180D01*
X134754845Y-54801870D01*
X134748567Y-54803910D01*
X134748566Y-54803910D01*
X134645941Y-54837255D01*
X134568220Y-54862508D01*
X134398280Y-54960623D01*
X134252453Y-55091926D01*
X134248572Y-55097268D01*
X134248570Y-55097270D01*
X134140993Y-55245337D01*
X134137112Y-55250679D01*
X134134428Y-55256707D01*
X134134427Y-55256709D01*
X134093389Y-55348882D01*
X134057298Y-55429944D01*
X134049625Y-55466045D01*
X134019287Y-55608774D01*
X134016500Y-55621885D01*
X134016500Y-55818115D01*
X115800666Y-55818115D01*
X115784527Y-55768444D01*
X115689040Y-55603056D01*
X115561253Y-55461134D01*
X115406752Y-55348882D01*
X115400724Y-55346198D01*
X115400722Y-55346197D01*
X115238319Y-55273891D01*
X115238318Y-55273891D01*
X115232288Y-55271206D01*
X115133303Y-55250166D01*
X115051944Y-55232872D01*
X115051939Y-55232872D01*
X115045487Y-55231500D01*
X114854513Y-55231500D01*
X114848061Y-55232872D01*
X114848056Y-55232872D01*
X114766697Y-55250166D01*
X114667712Y-55271206D01*
X114661682Y-55273891D01*
X114661681Y-55273891D01*
X114499278Y-55346197D01*
X114499276Y-55346198D01*
X114493248Y-55348882D01*
X114338747Y-55461134D01*
X114210960Y-55603056D01*
X114115473Y-55768444D01*
X114056458Y-55950072D01*
X114055768Y-55956633D01*
X114055768Y-55956635D01*
X114037186Y-56133435D01*
X114036496Y-56140000D01*
X104003000Y-56140000D01*
X104003000Y-54380000D01*
X127706496Y-54380000D01*
X127726458Y-54569928D01*
X127785473Y-54751556D01*
X127788776Y-54757278D01*
X127788777Y-54757279D01*
X127814123Y-54801180D01*
X127880960Y-54916944D01*
X127885378Y-54921851D01*
X127885379Y-54921852D01*
X128004325Y-55053955D01*
X128008747Y-55058866D01*
X128163248Y-55171118D01*
X128169276Y-55173802D01*
X128169278Y-55173803D01*
X128301950Y-55232872D01*
X128337712Y-55248794D01*
X128431113Y-55268647D01*
X128518056Y-55287128D01*
X128518061Y-55287128D01*
X128524513Y-55288500D01*
X128715487Y-55288500D01*
X128721939Y-55287128D01*
X128721944Y-55287128D01*
X128808888Y-55268647D01*
X128902288Y-55248794D01*
X128938050Y-55232872D01*
X129070722Y-55173803D01*
X129070724Y-55173802D01*
X129076752Y-55171118D01*
X129231253Y-55058866D01*
X129235675Y-55053955D01*
X129354621Y-54921852D01*
X129354622Y-54921851D01*
X129359040Y-54916944D01*
X129425877Y-54801180D01*
X129451223Y-54757279D01*
X129451224Y-54757278D01*
X129454527Y-54751556D01*
X129513542Y-54569928D01*
X129533504Y-54380000D01*
X129513542Y-54190072D01*
X129454527Y-54008444D01*
X129359040Y-53843056D01*
X129231253Y-53701134D01*
X129076752Y-53588882D01*
X129070724Y-53586198D01*
X129070722Y-53586197D01*
X128908319Y-53513891D01*
X128908318Y-53513891D01*
X128902288Y-53511206D01*
X128808888Y-53491353D01*
X128721944Y-53472872D01*
X128721939Y-53472872D01*
X128715487Y-53471500D01*
X128524513Y-53471500D01*
X128518061Y-53472872D01*
X128518056Y-53472872D01*
X128431112Y-53491353D01*
X128337712Y-53511206D01*
X128331682Y-53513891D01*
X128331681Y-53513891D01*
X128169278Y-53586197D01*
X128169276Y-53586198D01*
X128163248Y-53588882D01*
X128008747Y-53701134D01*
X127880960Y-53843056D01*
X127785473Y-54008444D01*
X127726458Y-54190072D01*
X127706496Y-54380000D01*
X104003000Y-54380000D01*
X104003000Y-51700000D01*
X114376496Y-51700000D01*
X114396458Y-51889928D01*
X114455473Y-52071556D01*
X114550960Y-52236944D01*
X114678747Y-52378866D01*
X114833248Y-52491118D01*
X114839276Y-52493802D01*
X114839278Y-52493803D01*
X115001681Y-52566109D01*
X115007712Y-52568794D01*
X115174138Y-52604169D01*
X115236611Y-52637897D01*
X115270933Y-52700047D01*
X115273251Y-52740586D01*
X115256496Y-52900000D01*
X115276458Y-53089928D01*
X115335473Y-53271556D01*
X115430960Y-53436944D01*
X115558747Y-53578866D01*
X115713248Y-53691118D01*
X115719276Y-53693802D01*
X115719278Y-53693803D01*
X115881681Y-53766109D01*
X115887712Y-53768794D01*
X115981113Y-53788647D01*
X116068056Y-53807128D01*
X116068061Y-53807128D01*
X116074513Y-53808500D01*
X116265487Y-53808500D01*
X116271939Y-53807128D01*
X116271944Y-53807128D01*
X116358887Y-53788647D01*
X116452288Y-53768794D01*
X116458319Y-53766109D01*
X116620722Y-53693803D01*
X116620724Y-53693802D01*
X116626752Y-53691118D01*
X116781253Y-53578866D01*
X116909040Y-53436944D01*
X117004527Y-53271556D01*
X117063542Y-53089928D01*
X117083504Y-52900000D01*
X117063542Y-52710072D01*
X117004527Y-52528444D01*
X116909040Y-52363056D01*
X116900846Y-52353955D01*
X116785675Y-52226045D01*
X116785674Y-52226044D01*
X116781253Y-52221134D01*
X116626752Y-52108882D01*
X116620724Y-52106198D01*
X116620722Y-52106197D01*
X116458319Y-52033891D01*
X116458318Y-52033891D01*
X116452288Y-52031206D01*
X116285862Y-51995831D01*
X116223389Y-51962103D01*
X116189067Y-51899953D01*
X116186749Y-51859413D01*
X116202814Y-51706564D01*
X116203504Y-51700000D01*
X116190035Y-51571852D01*
X116184232Y-51516635D01*
X116184232Y-51516633D01*
X116183542Y-51510072D01*
X116124527Y-51328444D01*
X116029040Y-51163056D01*
X116016181Y-51148774D01*
X115909236Y-51030000D01*
X116416496Y-51030000D01*
X116417186Y-51036565D01*
X116431082Y-51168774D01*
X116436458Y-51219928D01*
X116495473Y-51401556D01*
X116590960Y-51566944D01*
X116718747Y-51708866D01*
X116873248Y-51821118D01*
X116879276Y-51823802D01*
X116879278Y-51823803D01*
X117041681Y-51896109D01*
X117047712Y-51898794D01*
X117141113Y-51918647D01*
X117228056Y-51937128D01*
X117228061Y-51937128D01*
X117234513Y-51938500D01*
X117425487Y-51938500D01*
X117431939Y-51937128D01*
X117431944Y-51937128D01*
X117518888Y-51918647D01*
X117612288Y-51898794D01*
X117618319Y-51896109D01*
X117780722Y-51823803D01*
X117780724Y-51823802D01*
X117786752Y-51821118D01*
X117941253Y-51708866D01*
X117967244Y-51680000D01*
X127706496Y-51680000D01*
X127726458Y-51869928D01*
X127785473Y-52051556D01*
X127880960Y-52216944D01*
X127885378Y-52221851D01*
X127885379Y-52221852D01*
X127898968Y-52236944D01*
X128008747Y-52358866D01*
X128163248Y-52471118D01*
X128169276Y-52473802D01*
X128169278Y-52473803D01*
X128292005Y-52528444D01*
X128337712Y-52548794D01*
X128431113Y-52568647D01*
X128518056Y-52587128D01*
X128518061Y-52587128D01*
X128524513Y-52588500D01*
X128715487Y-52588500D01*
X128721939Y-52587128D01*
X128721944Y-52587128D01*
X128808887Y-52568647D01*
X128902288Y-52548794D01*
X128947995Y-52528444D01*
X129070722Y-52473803D01*
X129070724Y-52473802D01*
X129076752Y-52471118D01*
X129231253Y-52358866D01*
X129341032Y-52236944D01*
X129354621Y-52221852D01*
X129354622Y-52221851D01*
X129359040Y-52216944D01*
X129454527Y-52051556D01*
X129513542Y-51869928D01*
X129533504Y-51680000D01*
X129522137Y-51571852D01*
X129514232Y-51496635D01*
X129514232Y-51496633D01*
X129513542Y-51490072D01*
X129454527Y-51308444D01*
X129359040Y-51143056D01*
X129231253Y-51001134D01*
X129076752Y-50888882D01*
X129070724Y-50886198D01*
X129070722Y-50886197D01*
X128908319Y-50813891D01*
X128908318Y-50813891D01*
X128902288Y-50811206D01*
X128808888Y-50791353D01*
X128721944Y-50772872D01*
X128721939Y-50772872D01*
X128715487Y-50771500D01*
X128524513Y-50771500D01*
X128518061Y-50772872D01*
X128518056Y-50772872D01*
X128431112Y-50791353D01*
X128337712Y-50811206D01*
X128331682Y-50813891D01*
X128331681Y-50813891D01*
X128169278Y-50886197D01*
X128169276Y-50886198D01*
X128163248Y-50888882D01*
X128008747Y-51001134D01*
X127880960Y-51143056D01*
X127785473Y-51308444D01*
X127726458Y-51490072D01*
X127725768Y-51496633D01*
X127725768Y-51496635D01*
X127717863Y-51571852D01*
X127706496Y-51680000D01*
X117967244Y-51680000D01*
X118069040Y-51566944D01*
X118164527Y-51401556D01*
X118223542Y-51219928D01*
X118228919Y-51168774D01*
X118242814Y-51036565D01*
X118243504Y-51030000D01*
X118223542Y-50840072D01*
X118164527Y-50658444D01*
X118157406Y-50646109D01*
X118114109Y-50571118D01*
X118069040Y-50493056D01*
X118041752Y-50462749D01*
X117945675Y-50356045D01*
X117945674Y-50356044D01*
X117941253Y-50351134D01*
X117786752Y-50238882D01*
X117780724Y-50236198D01*
X117780722Y-50236197D01*
X117618319Y-50163891D01*
X117618318Y-50163891D01*
X117612288Y-50161206D01*
X117518888Y-50141353D01*
X117431944Y-50122872D01*
X117431939Y-50122872D01*
X117425487Y-50121500D01*
X117234513Y-50121500D01*
X117228061Y-50122872D01*
X117228056Y-50122872D01*
X117141112Y-50141353D01*
X117047712Y-50161206D01*
X117041682Y-50163891D01*
X117041681Y-50163891D01*
X116879278Y-50236197D01*
X116879276Y-50236198D01*
X116873248Y-50238882D01*
X116718747Y-50351134D01*
X116714326Y-50356044D01*
X116714325Y-50356045D01*
X116618249Y-50462749D01*
X116590960Y-50493056D01*
X116545891Y-50571118D01*
X116502595Y-50646109D01*
X116495473Y-50658444D01*
X116436458Y-50840072D01*
X116416496Y-51030000D01*
X115909236Y-51030000D01*
X115905675Y-51026045D01*
X115905674Y-51026044D01*
X115901253Y-51021134D01*
X115746752Y-50908882D01*
X115740724Y-50906198D01*
X115740722Y-50906197D01*
X115578319Y-50833891D01*
X115578318Y-50833891D01*
X115572288Y-50831206D01*
X115471741Y-50809834D01*
X115391944Y-50792872D01*
X115391939Y-50792872D01*
X115385487Y-50791500D01*
X115194513Y-50791500D01*
X115188061Y-50792872D01*
X115188056Y-50792872D01*
X115108259Y-50809834D01*
X115007712Y-50831206D01*
X115001682Y-50833891D01*
X115001681Y-50833891D01*
X114839278Y-50906197D01*
X114839276Y-50906198D01*
X114833248Y-50908882D01*
X114678747Y-51021134D01*
X114674326Y-51026044D01*
X114674325Y-51026045D01*
X114563820Y-51148774D01*
X114550960Y-51163056D01*
X114455473Y-51328444D01*
X114396458Y-51510072D01*
X114395768Y-51516633D01*
X114395768Y-51516635D01*
X114389965Y-51571852D01*
X114376496Y-51700000D01*
X104003000Y-51700000D01*
X104003000Y-47660000D01*
X105376496Y-47660000D01*
X105377186Y-47666565D01*
X105394885Y-47834958D01*
X105396458Y-47849928D01*
X105455473Y-48031556D01*
X105550960Y-48196944D01*
X105555378Y-48201851D01*
X105555379Y-48201852D01*
X105669307Y-48328382D01*
X105678747Y-48338866D01*
X105684090Y-48342748D01*
X105688931Y-48346265D01*
X105732284Y-48402489D01*
X105738358Y-48473225D01*
X105708504Y-48532510D01*
X105590960Y-48663056D01*
X105570380Y-48698702D01*
X105523486Y-48779925D01*
X105495473Y-48828444D01*
X105436458Y-49010072D01*
X105416496Y-49200000D01*
X105436458Y-49389928D01*
X105495473Y-49571556D01*
X105498776Y-49577278D01*
X105498777Y-49577279D01*
X105506163Y-49590072D01*
X105590960Y-49736944D01*
X105595378Y-49741851D01*
X105595379Y-49741852D01*
X105667477Y-49821925D01*
X105718747Y-49878866D01*
X105804429Y-49941118D01*
X105844083Y-49969928D01*
X105873248Y-49991118D01*
X105879276Y-49993802D01*
X105879278Y-49993803D01*
X106024591Y-50058500D01*
X106047712Y-50068794D01*
X106141113Y-50088647D01*
X106228056Y-50107128D01*
X106228061Y-50107128D01*
X106234513Y-50108500D01*
X106425487Y-50108500D01*
X106431939Y-50107128D01*
X106431944Y-50107128D01*
X106518887Y-50088647D01*
X106612288Y-50068794D01*
X106635409Y-50058500D01*
X106780722Y-49993803D01*
X106780724Y-49993802D01*
X106786752Y-49991118D01*
X106815918Y-49969928D01*
X106855571Y-49941118D01*
X106941253Y-49878866D01*
X106984127Y-49831250D01*
X107044569Y-49794012D01*
X107115552Y-49795363D01*
X107162070Y-49821925D01*
X107164328Y-49823958D01*
X107168747Y-49828866D01*
X107174089Y-49832747D01*
X107174091Y-49832749D01*
X107242910Y-49882749D01*
X107323248Y-49941118D01*
X107329276Y-49943802D01*
X107329278Y-49943803D01*
X107402057Y-49976206D01*
X107497712Y-50018794D01*
X107591113Y-50038647D01*
X107678056Y-50057128D01*
X107678061Y-50057128D01*
X107684513Y-50058500D01*
X107875487Y-50058500D01*
X107881939Y-50057128D01*
X107881944Y-50057128D01*
X107968887Y-50038647D01*
X108062288Y-50018794D01*
X108157943Y-49976206D01*
X108230722Y-49943803D01*
X108230724Y-49943802D01*
X108236752Y-49941118D01*
X108391253Y-49828866D01*
X108435252Y-49780000D01*
X124806496Y-49780000D01*
X124826458Y-49969928D01*
X124885473Y-50151556D01*
X124888776Y-50157278D01*
X124888777Y-50157279D01*
X124922686Y-50216010D01*
X124980960Y-50316944D01*
X124985378Y-50321851D01*
X124985379Y-50321852D01*
X125104325Y-50453955D01*
X125108747Y-50458866D01*
X125263248Y-50571118D01*
X125269276Y-50573802D01*
X125269278Y-50573803D01*
X125431681Y-50646109D01*
X125437712Y-50648794D01*
X125512680Y-50664729D01*
X125618056Y-50687128D01*
X125618061Y-50687128D01*
X125624513Y-50688500D01*
X125815487Y-50688500D01*
X125821939Y-50687128D01*
X125821944Y-50687128D01*
X125927320Y-50664729D01*
X126002288Y-50648794D01*
X126008319Y-50646109D01*
X126170722Y-50573803D01*
X126170724Y-50573802D01*
X126176752Y-50571118D01*
X126331253Y-50458866D01*
X126335675Y-50453955D01*
X126454621Y-50321852D01*
X126454622Y-50321851D01*
X126459040Y-50316944D01*
X126517314Y-50216010D01*
X126551223Y-50157279D01*
X126551224Y-50157278D01*
X126554527Y-50151556D01*
X126613542Y-49969928D01*
X126633504Y-49780000D01*
X126627774Y-49725481D01*
X126614232Y-49596635D01*
X126614232Y-49596633D01*
X126613542Y-49590072D01*
X126554527Y-49408444D01*
X126547462Y-49396206D01*
X126462341Y-49248774D01*
X126459040Y-49243056D01*
X126426184Y-49206565D01*
X126335675Y-49106045D01*
X126335674Y-49106044D01*
X126331253Y-49101134D01*
X126214951Y-49016635D01*
X126182094Y-48992763D01*
X126182093Y-48992762D01*
X126176752Y-48988882D01*
X126170724Y-48986198D01*
X126170722Y-48986197D01*
X126008319Y-48913891D01*
X126008318Y-48913891D01*
X126002288Y-48911206D01*
X125903303Y-48890166D01*
X125821944Y-48872872D01*
X125821939Y-48872872D01*
X125815487Y-48871500D01*
X125624513Y-48871500D01*
X125618061Y-48872872D01*
X125618056Y-48872872D01*
X125536697Y-48890166D01*
X125437712Y-48911206D01*
X125431682Y-48913891D01*
X125431681Y-48913891D01*
X125269278Y-48986197D01*
X125269276Y-48986198D01*
X125263248Y-48988882D01*
X125257907Y-48992762D01*
X125257906Y-48992763D01*
X125225049Y-49016635D01*
X125108747Y-49101134D01*
X125104326Y-49106044D01*
X125104325Y-49106045D01*
X125013817Y-49206565D01*
X124980960Y-49243056D01*
X124977659Y-49248774D01*
X124892539Y-49396206D01*
X124885473Y-49408444D01*
X124826458Y-49590072D01*
X124825768Y-49596633D01*
X124825768Y-49596635D01*
X124812226Y-49725481D01*
X124806496Y-49780000D01*
X108435252Y-49780000D01*
X108461922Y-49750380D01*
X108514621Y-49691852D01*
X108514622Y-49691851D01*
X108519040Y-49686944D01*
X108614527Y-49521556D01*
X108673542Y-49339928D01*
X108693504Y-49150000D01*
X108682033Y-49040862D01*
X121355497Y-49040862D01*
X121356737Y-49048078D01*
X121356737Y-49048080D01*
X121382842Y-49200000D01*
X121385134Y-49213340D01*
X121453654Y-49374373D01*
X121557383Y-49515324D01*
X121562961Y-49520063D01*
X121562964Y-49520066D01*
X121685176Y-49623893D01*
X121685180Y-49623896D01*
X121690755Y-49628632D01*
X121771572Y-49669899D01*
X121804952Y-49686944D01*
X121846616Y-49708219D01*
X121853721Y-49709958D01*
X121853725Y-49709959D01*
X121917160Y-49725481D01*
X122016606Y-49749815D01*
X122022206Y-49750162D01*
X122022210Y-49750163D01*
X122025709Y-49750380D01*
X122025718Y-49750380D01*
X122027648Y-49750500D01*
X122153822Y-49750500D01*
X122245369Y-49739827D01*
X122276556Y-49736191D01*
X122276558Y-49736191D01*
X122283828Y-49735343D01*
X122290705Y-49732847D01*
X122290708Y-49732846D01*
X122441452Y-49678128D01*
X122448331Y-49675631D01*
X122594685Y-49579677D01*
X122715040Y-49452628D01*
X122802939Y-49301298D01*
X122853667Y-49133807D01*
X122864503Y-48959138D01*
X122859239Y-48928500D01*
X122836106Y-48793875D01*
X122836105Y-48793873D01*
X122834866Y-48786660D01*
X122766346Y-48625627D01*
X122662617Y-48484676D01*
X122657039Y-48479937D01*
X122657036Y-48479934D01*
X122534824Y-48376107D01*
X122534820Y-48376104D01*
X122529245Y-48371368D01*
X122443323Y-48327494D01*
X122379900Y-48295108D01*
X122379898Y-48295107D01*
X122373384Y-48291781D01*
X122366279Y-48290042D01*
X122366275Y-48290041D01*
X122272741Y-48267154D01*
X122203394Y-48250185D01*
X122197794Y-48249838D01*
X122197790Y-48249837D01*
X122194291Y-48249620D01*
X122194282Y-48249620D01*
X122192352Y-48249500D01*
X122066178Y-48249500D01*
X121974631Y-48260173D01*
X121943444Y-48263809D01*
X121943442Y-48263809D01*
X121936172Y-48264657D01*
X121929295Y-48267153D01*
X121929292Y-48267154D01*
X121785391Y-48319388D01*
X121771669Y-48324369D01*
X121625315Y-48420323D01*
X121504960Y-48547372D01*
X121417061Y-48698702D01*
X121366333Y-48866193D01*
X121355497Y-49040862D01*
X108682033Y-49040862D01*
X108673542Y-48960072D01*
X108614527Y-48778444D01*
X108519040Y-48613056D01*
X108466440Y-48554637D01*
X108395675Y-48476045D01*
X108395674Y-48476044D01*
X108391253Y-48471134D01*
X108344799Y-48437383D01*
X108301445Y-48381160D01*
X108295370Y-48310424D01*
X108325222Y-48251139D01*
X108419040Y-48146944D01*
X108492331Y-48020000D01*
X115176496Y-48020000D01*
X115177186Y-48026565D01*
X115190354Y-48151847D01*
X115196458Y-48209928D01*
X115255473Y-48391556D01*
X115258776Y-48397278D01*
X115258777Y-48397279D01*
X115281931Y-48437383D01*
X115350960Y-48556944D01*
X115355378Y-48561851D01*
X115355379Y-48561852D01*
X115451652Y-48668774D01*
X115478747Y-48698866D01*
X115488167Y-48705710D01*
X115599585Y-48786660D01*
X115633248Y-48811118D01*
X115639276Y-48813802D01*
X115639278Y-48813803D01*
X115771950Y-48872872D01*
X115807712Y-48888794D01*
X115901113Y-48908647D01*
X115988056Y-48927128D01*
X115988061Y-48927128D01*
X115994513Y-48928500D01*
X116185487Y-48928500D01*
X116191939Y-48927128D01*
X116191944Y-48927128D01*
X116278887Y-48908647D01*
X116372288Y-48888794D01*
X116408050Y-48872872D01*
X116540722Y-48813803D01*
X116540724Y-48813802D01*
X116546752Y-48811118D01*
X116580416Y-48786660D01*
X116691833Y-48705710D01*
X116701253Y-48698866D01*
X116728348Y-48668774D01*
X116824621Y-48561852D01*
X116824622Y-48561851D01*
X116829040Y-48556944D01*
X116898069Y-48437383D01*
X116921223Y-48397279D01*
X116921224Y-48397278D01*
X116924527Y-48391556D01*
X116983542Y-48209928D01*
X116989647Y-48151847D01*
X117002814Y-48026565D01*
X117003504Y-48020000D01*
X116983542Y-47830072D01*
X116924527Y-47648444D01*
X116829040Y-47483056D01*
X116811697Y-47463794D01*
X116705675Y-47346045D01*
X116705674Y-47346044D01*
X116701253Y-47341134D01*
X116602157Y-47269136D01*
X116552094Y-47232763D01*
X116552093Y-47232762D01*
X116546752Y-47228882D01*
X116540724Y-47226198D01*
X116540722Y-47226197D01*
X116432727Y-47178115D01*
X134016500Y-47178115D01*
X134017872Y-47184568D01*
X134017872Y-47184572D01*
X134029323Y-47238444D01*
X134057298Y-47370056D01*
X134059983Y-47376086D01*
X134059983Y-47376087D01*
X134110155Y-47488774D01*
X134137112Y-47549321D01*
X134140992Y-47554662D01*
X134140993Y-47554663D01*
X134213696Y-47654729D01*
X134252453Y-47708074D01*
X134398280Y-47839377D01*
X134568220Y-47937492D01*
X134574506Y-47939534D01*
X134574505Y-47939534D01*
X134748566Y-47996090D01*
X134748567Y-47996090D01*
X134754845Y-47998130D01*
X134761408Y-47998820D01*
X134761409Y-47998820D01*
X134784405Y-48001237D01*
X134901078Y-48013500D01*
X135998922Y-48013500D01*
X136115595Y-48001237D01*
X136138591Y-47998820D01*
X136138592Y-47998820D01*
X136145155Y-47998130D01*
X136151433Y-47996090D01*
X136151434Y-47996090D01*
X136325495Y-47939534D01*
X136325494Y-47939534D01*
X136331780Y-47937492D01*
X136501720Y-47839377D01*
X136647547Y-47708074D01*
X136686305Y-47654729D01*
X136759007Y-47554663D01*
X136759008Y-47554662D01*
X136762888Y-47549321D01*
X136789846Y-47488774D01*
X136840017Y-47376087D01*
X136840017Y-47376086D01*
X136842702Y-47370056D01*
X136870677Y-47238444D01*
X136882128Y-47184572D01*
X136882128Y-47184568D01*
X136883500Y-47178115D01*
X136883500Y-46981885D01*
X136880601Y-46968242D01*
X136844074Y-46796401D01*
X136842702Y-46789944D01*
X136840017Y-46783913D01*
X136765573Y-46616709D01*
X136765572Y-46616707D01*
X136762888Y-46610679D01*
X136647547Y-46451926D01*
X136501720Y-46320623D01*
X136331780Y-46222508D01*
X136254059Y-46197255D01*
X136151434Y-46163910D01*
X136151433Y-46163910D01*
X136145155Y-46161870D01*
X136138592Y-46161180D01*
X136138591Y-46161180D01*
X136115595Y-46158763D01*
X135998922Y-46146500D01*
X134901078Y-46146500D01*
X134784405Y-46158763D01*
X134761409Y-46161180D01*
X134761408Y-46161180D01*
X134754845Y-46161870D01*
X134748567Y-46163910D01*
X134748566Y-46163910D01*
X134645941Y-46197255D01*
X134568220Y-46222508D01*
X134398280Y-46320623D01*
X134252453Y-46451926D01*
X134137112Y-46610679D01*
X134134428Y-46616707D01*
X134134427Y-46616709D01*
X134059983Y-46783913D01*
X134057298Y-46789944D01*
X134055926Y-46796401D01*
X134019400Y-46968242D01*
X134016500Y-46981885D01*
X134016500Y-47178115D01*
X116432727Y-47178115D01*
X116378319Y-47153891D01*
X116378318Y-47153891D01*
X116372288Y-47151206D01*
X116278888Y-47131353D01*
X116191944Y-47112872D01*
X116191939Y-47112872D01*
X116185487Y-47111500D01*
X115994513Y-47111500D01*
X115988061Y-47112872D01*
X115988056Y-47112872D01*
X115901112Y-47131353D01*
X115807712Y-47151206D01*
X115801682Y-47153891D01*
X115801681Y-47153891D01*
X115639278Y-47226197D01*
X115639276Y-47226198D01*
X115633248Y-47228882D01*
X115627907Y-47232762D01*
X115627906Y-47232763D01*
X115577843Y-47269136D01*
X115478747Y-47341134D01*
X115474326Y-47346044D01*
X115474325Y-47346045D01*
X115368304Y-47463794D01*
X115350960Y-47483056D01*
X115255473Y-47648444D01*
X115196458Y-47830072D01*
X115176496Y-48020000D01*
X108492331Y-48020000D01*
X108514527Y-47981556D01*
X108573542Y-47799928D01*
X108593504Y-47610000D01*
X108587688Y-47554663D01*
X108574232Y-47426635D01*
X108574232Y-47426633D01*
X108573542Y-47420072D01*
X108514527Y-47238444D01*
X108509007Y-47228882D01*
X108451209Y-47128774D01*
X108419040Y-47073056D01*
X108397511Y-47049145D01*
X108295675Y-46936045D01*
X108295674Y-46936044D01*
X108291253Y-46931134D01*
X108136752Y-46818882D01*
X108130724Y-46816198D01*
X108130722Y-46816197D01*
X107968319Y-46743891D01*
X107968318Y-46743891D01*
X107962288Y-46741206D01*
X107868888Y-46721353D01*
X107781944Y-46702872D01*
X107781939Y-46702872D01*
X107775487Y-46701500D01*
X107584513Y-46701500D01*
X107578061Y-46702872D01*
X107578056Y-46702872D01*
X107491112Y-46721353D01*
X107397712Y-46741206D01*
X107391682Y-46743891D01*
X107391681Y-46743891D01*
X107229278Y-46816197D01*
X107229276Y-46816198D01*
X107223248Y-46818882D01*
X107068747Y-46931134D01*
X107051204Y-46950617D01*
X106990762Y-46987855D01*
X106919779Y-46986505D01*
X106883509Y-46968242D01*
X106752094Y-46872763D01*
X106752093Y-46872762D01*
X106746752Y-46868882D01*
X106740724Y-46866198D01*
X106740722Y-46866197D01*
X106578319Y-46793891D01*
X106578318Y-46793891D01*
X106572288Y-46791206D01*
X106478888Y-46771353D01*
X106391944Y-46752872D01*
X106391939Y-46752872D01*
X106385487Y-46751500D01*
X106194513Y-46751500D01*
X106188061Y-46752872D01*
X106188056Y-46752872D01*
X106101112Y-46771353D01*
X106007712Y-46791206D01*
X106001682Y-46793891D01*
X106001681Y-46793891D01*
X105839278Y-46866197D01*
X105839276Y-46866198D01*
X105833248Y-46868882D01*
X105678747Y-46981134D01*
X105674326Y-46986044D01*
X105674325Y-46986045D01*
X105590832Y-47078774D01*
X105550960Y-47123056D01*
X105522984Y-47171512D01*
X105487621Y-47232763D01*
X105455473Y-47288444D01*
X105396458Y-47470072D01*
X105376496Y-47660000D01*
X104003000Y-47660000D01*
X104003000Y-44080000D01*
X126206496Y-44080000D01*
X126207186Y-44086565D01*
X126216608Y-44176206D01*
X126226458Y-44269928D01*
X126285473Y-44451556D01*
X126380960Y-44616944D01*
X126385378Y-44621851D01*
X126385379Y-44621852D01*
X126444165Y-44687140D01*
X126508747Y-44758866D01*
X126663248Y-44871118D01*
X126669276Y-44873802D01*
X126669278Y-44873803D01*
X126831681Y-44946109D01*
X126837712Y-44948794D01*
X126931112Y-44968647D01*
X127018056Y-44987128D01*
X127018061Y-44987128D01*
X127024513Y-44988500D01*
X127215487Y-44988500D01*
X127221939Y-44987128D01*
X127221944Y-44987128D01*
X127308888Y-44968647D01*
X127402288Y-44948794D01*
X127408319Y-44946109D01*
X127570722Y-44873803D01*
X127570724Y-44873802D01*
X127576752Y-44871118D01*
X127731253Y-44758866D01*
X127779967Y-44704764D01*
X127840411Y-44667526D01*
X127911395Y-44668878D01*
X127947662Y-44687140D01*
X128051729Y-44762749D01*
X128063248Y-44771118D01*
X128069276Y-44773802D01*
X128069278Y-44773803D01*
X128231681Y-44846109D01*
X128237712Y-44848794D01*
X128324479Y-44867237D01*
X128418056Y-44887128D01*
X128418061Y-44887128D01*
X128424513Y-44888500D01*
X128615487Y-44888500D01*
X128621939Y-44887128D01*
X128621944Y-44887128D01*
X128715521Y-44867237D01*
X128802288Y-44848794D01*
X128918752Y-44796941D01*
X128989118Y-44787507D01*
X129021246Y-44796940D01*
X129137712Y-44848794D01*
X129224479Y-44867237D01*
X129318056Y-44887128D01*
X129318061Y-44887128D01*
X129324513Y-44888500D01*
X129515487Y-44888500D01*
X129521939Y-44887128D01*
X129521944Y-44887128D01*
X129615521Y-44867237D01*
X129702288Y-44848794D01*
X129708319Y-44846109D01*
X129870722Y-44773803D01*
X129870724Y-44773802D01*
X129876752Y-44771118D01*
X129893616Y-44758866D01*
X129932157Y-44730864D01*
X130031253Y-44658866D01*
X130159040Y-44516944D01*
X130254527Y-44351556D01*
X130313542Y-44169928D01*
X130316046Y-44146109D01*
X130332814Y-43986565D01*
X130333504Y-43980000D01*
X130329942Y-43946109D01*
X130314232Y-43796635D01*
X130314232Y-43796633D01*
X130313542Y-43790072D01*
X130254527Y-43608444D01*
X130234695Y-43574094D01*
X130217958Y-43505099D01*
X130241179Y-43438007D01*
X130250170Y-43426795D01*
X130259040Y-43416944D01*
X130354527Y-43251556D01*
X130413542Y-43069928D01*
X130427552Y-42936635D01*
X130432814Y-42886565D01*
X130433504Y-42880000D01*
X130422497Y-42775271D01*
X130414232Y-42696635D01*
X130414232Y-42696633D01*
X130413542Y-42690072D01*
X130354527Y-42508444D01*
X130259040Y-42343056D01*
X130157245Y-42230000D01*
X130606496Y-42230000D01*
X130607186Y-42236565D01*
X130625415Y-42410000D01*
X130626458Y-42419928D01*
X130685473Y-42601556D01*
X130780960Y-42766944D01*
X130781924Y-42768015D01*
X130805137Y-42833080D01*
X130790160Y-42896114D01*
X130791461Y-42896693D01*
X130788777Y-42902721D01*
X130785473Y-42908444D01*
X130726458Y-43090072D01*
X130725768Y-43096633D01*
X130725768Y-43096635D01*
X130713871Y-43209834D01*
X130706496Y-43280000D01*
X130707186Y-43286565D01*
X130725129Y-43457279D01*
X130726458Y-43469928D01*
X130785473Y-43651556D01*
X130880960Y-43816944D01*
X130885378Y-43821851D01*
X130885379Y-43821852D01*
X130999678Y-43948794D01*
X131008747Y-43958866D01*
X131163248Y-44071118D01*
X131169276Y-44073802D01*
X131169278Y-44073803D01*
X131331681Y-44146109D01*
X131337712Y-44148794D01*
X131406263Y-44163365D01*
X131518056Y-44187128D01*
X131518061Y-44187128D01*
X131524513Y-44188500D01*
X131715487Y-44188500D01*
X131721939Y-44187128D01*
X131721944Y-44187128D01*
X131833737Y-44163365D01*
X131902288Y-44148794D01*
X131908319Y-44146109D01*
X132070722Y-44073803D01*
X132070724Y-44073802D01*
X132076752Y-44071118D01*
X132231253Y-43958866D01*
X132240322Y-43948794D01*
X132354621Y-43821852D01*
X132354622Y-43821851D01*
X132359040Y-43816944D01*
X132454527Y-43651556D01*
X132513542Y-43469928D01*
X132514872Y-43457279D01*
X132532814Y-43286565D01*
X132533504Y-43280000D01*
X132526129Y-43209834D01*
X132514232Y-43096635D01*
X132514232Y-43096633D01*
X132513542Y-43090072D01*
X132454527Y-42908444D01*
X132359040Y-42743056D01*
X132358076Y-42741985D01*
X132334863Y-42676920D01*
X132349840Y-42613886D01*
X132348539Y-42613307D01*
X132351223Y-42607279D01*
X132354527Y-42601556D01*
X132413542Y-42419928D01*
X132414586Y-42410000D01*
X132432814Y-42236565D01*
X132433504Y-42230000D01*
X132431529Y-42211206D01*
X132414232Y-42046635D01*
X132414232Y-42046633D01*
X132413542Y-42040072D01*
X132354527Y-41858444D01*
X132259040Y-41693056D01*
X132131253Y-41551134D01*
X131976752Y-41438882D01*
X131970724Y-41436198D01*
X131970722Y-41436197D01*
X131808319Y-41363891D01*
X131808318Y-41363891D01*
X131802288Y-41361206D01*
X131708888Y-41341353D01*
X131621944Y-41322872D01*
X131621939Y-41322872D01*
X131615487Y-41321500D01*
X131424513Y-41321500D01*
X131418061Y-41322872D01*
X131418056Y-41322872D01*
X131331112Y-41341353D01*
X131237712Y-41361206D01*
X131231682Y-41363891D01*
X131231681Y-41363891D01*
X131069278Y-41436197D01*
X131069276Y-41436198D01*
X131063248Y-41438882D01*
X130908747Y-41551134D01*
X130780960Y-41693056D01*
X130685473Y-41858444D01*
X130626458Y-42040072D01*
X130625768Y-42046633D01*
X130625768Y-42046635D01*
X130608471Y-42211206D01*
X130606496Y-42230000D01*
X130157245Y-42230000D01*
X130142740Y-42213891D01*
X130135675Y-42206045D01*
X130135674Y-42206044D01*
X130131253Y-42201134D01*
X129976752Y-42088882D01*
X129970724Y-42086198D01*
X129970722Y-42086197D01*
X129808319Y-42013891D01*
X129808318Y-42013891D01*
X129802288Y-42011206D01*
X129708888Y-41991353D01*
X129621944Y-41972872D01*
X129621939Y-41972872D01*
X129615487Y-41971500D01*
X129424513Y-41971500D01*
X129418061Y-41972872D01*
X129418056Y-41972872D01*
X129331112Y-41991353D01*
X129237712Y-42011206D01*
X129231682Y-42013891D01*
X129231681Y-42013891D01*
X129069278Y-42086197D01*
X129069276Y-42086198D01*
X129063248Y-42088882D01*
X128908747Y-42201134D01*
X128904326Y-42206044D01*
X128904325Y-42206045D01*
X128897261Y-42213891D01*
X128780960Y-42343056D01*
X128685473Y-42508444D01*
X128626458Y-42690072D01*
X128625768Y-42696633D01*
X128625768Y-42696635D01*
X128617503Y-42775271D01*
X128606496Y-42880000D01*
X128607186Y-42886565D01*
X128611996Y-42932330D01*
X128599224Y-43002168D01*
X128550722Y-43054015D01*
X128486686Y-43071500D01*
X128424513Y-43071500D01*
X128418061Y-43072872D01*
X128418056Y-43072872D01*
X128353638Y-43086565D01*
X128237712Y-43111206D01*
X128231682Y-43113891D01*
X128231681Y-43113891D01*
X128069278Y-43186197D01*
X128069276Y-43186198D01*
X128063248Y-43188882D01*
X128057907Y-43192762D01*
X128057906Y-43192763D01*
X128042711Y-43203803D01*
X127908747Y-43301134D01*
X127860033Y-43355236D01*
X127799589Y-43392474D01*
X127728605Y-43391122D01*
X127692338Y-43372860D01*
X127582094Y-43292763D01*
X127582093Y-43292762D01*
X127576752Y-43288882D01*
X127570724Y-43286198D01*
X127570722Y-43286197D01*
X127408319Y-43213891D01*
X127408318Y-43213891D01*
X127402288Y-43211206D01*
X127308887Y-43191353D01*
X127221944Y-43172872D01*
X127221939Y-43172872D01*
X127215487Y-43171500D01*
X127024513Y-43171500D01*
X127018061Y-43172872D01*
X127018056Y-43172872D01*
X126931113Y-43191353D01*
X126837712Y-43211206D01*
X126831682Y-43213891D01*
X126831681Y-43213891D01*
X126669278Y-43286197D01*
X126669276Y-43286198D01*
X126663248Y-43288882D01*
X126657907Y-43292762D01*
X126657906Y-43292763D01*
X126643314Y-43303365D01*
X126508747Y-43401134D01*
X126504326Y-43406044D01*
X126504325Y-43406045D01*
X126415137Y-43505099D01*
X126380960Y-43543056D01*
X126285473Y-43708444D01*
X126226458Y-43890072D01*
X126225768Y-43896633D01*
X126225768Y-43896635D01*
X126218819Y-43962749D01*
X126206496Y-44080000D01*
X104003000Y-44080000D01*
X104003000Y-43120000D01*
X109176496Y-43120000D01*
X109177186Y-43126565D01*
X109195126Y-43297251D01*
X109196458Y-43309928D01*
X109255473Y-43491556D01*
X109350960Y-43656944D01*
X109478747Y-43798866D01*
X109572851Y-43867237D01*
X109581889Y-43873803D01*
X109633248Y-43911118D01*
X109639276Y-43913802D01*
X109639278Y-43913803D01*
X109773215Y-43973435D01*
X109807712Y-43988794D01*
X109901112Y-44008647D01*
X109988056Y-44027128D01*
X109988061Y-44027128D01*
X109994513Y-44028500D01*
X110185487Y-44028500D01*
X110191939Y-44027128D01*
X110191944Y-44027128D01*
X110278888Y-44008647D01*
X110372288Y-43988794D01*
X110406785Y-43973435D01*
X110540722Y-43913803D01*
X110540724Y-43913802D01*
X110546752Y-43911118D01*
X110598112Y-43873803D01*
X110607149Y-43867237D01*
X110701253Y-43798866D01*
X110829040Y-43656944D01*
X110924527Y-43491556D01*
X110983542Y-43309928D01*
X110984875Y-43297251D01*
X111002814Y-43126565D01*
X111003504Y-43120000D01*
X111000640Y-43092749D01*
X110999300Y-43080000D01*
X120656496Y-43080000D01*
X120657186Y-43086565D01*
X120675129Y-43257279D01*
X120676458Y-43269928D01*
X120735473Y-43451556D01*
X120830960Y-43616944D01*
X120835378Y-43621851D01*
X120835379Y-43621852D01*
X120862125Y-43651556D01*
X120958747Y-43758866D01*
X121113248Y-43871118D01*
X121119276Y-43873802D01*
X121119278Y-43873803D01*
X121281681Y-43946109D01*
X121287712Y-43948794D01*
X121353365Y-43962749D01*
X121468056Y-43987128D01*
X121468061Y-43987128D01*
X121474513Y-43988500D01*
X121665487Y-43988500D01*
X121671939Y-43987128D01*
X121671944Y-43987128D01*
X121786635Y-43962749D01*
X121852288Y-43948794D01*
X121858319Y-43946109D01*
X122020722Y-43873803D01*
X122020724Y-43873802D01*
X122026752Y-43871118D01*
X122181253Y-43758866D01*
X122277875Y-43651556D01*
X122304621Y-43621852D01*
X122304622Y-43621851D01*
X122309040Y-43616944D01*
X122404527Y-43451556D01*
X122463542Y-43269928D01*
X122464872Y-43257279D01*
X122482814Y-43086565D01*
X122483504Y-43080000D01*
X122475324Y-43002168D01*
X122464232Y-42896635D01*
X122464232Y-42896633D01*
X122463542Y-42890072D01*
X122404527Y-42708444D01*
X122309040Y-42543056D01*
X122189236Y-42410000D01*
X123646496Y-42410000D01*
X123647186Y-42416565D01*
X123665286Y-42588774D01*
X123666458Y-42599928D01*
X123725473Y-42781556D01*
X123728776Y-42787278D01*
X123728777Y-42787279D01*
X123750718Y-42825281D01*
X123820960Y-42946944D01*
X123825378Y-42951851D01*
X123825379Y-42951852D01*
X123934346Y-43072872D01*
X123948747Y-43088866D01*
X123983191Y-43113891D01*
X124095143Y-43195229D01*
X124103248Y-43201118D01*
X124109276Y-43203802D01*
X124109278Y-43203803D01*
X124265675Y-43273435D01*
X124277712Y-43278794D01*
X124343431Y-43292763D01*
X124458056Y-43317128D01*
X124458061Y-43317128D01*
X124464513Y-43318500D01*
X124655487Y-43318500D01*
X124661939Y-43317128D01*
X124661944Y-43317128D01*
X124776569Y-43292763D01*
X124842288Y-43278794D01*
X124854325Y-43273435D01*
X125010722Y-43203803D01*
X125010724Y-43203802D01*
X125016752Y-43201118D01*
X125024858Y-43195229D01*
X125136809Y-43113891D01*
X125171253Y-43088866D01*
X125185654Y-43072872D01*
X125294621Y-42951852D01*
X125294622Y-42951851D01*
X125299040Y-42946944D01*
X125369282Y-42825281D01*
X125391223Y-42787279D01*
X125391224Y-42787278D01*
X125394527Y-42781556D01*
X125453542Y-42599928D01*
X125454715Y-42588774D01*
X125472814Y-42416565D01*
X125473504Y-42410000D01*
X125460492Y-42286197D01*
X125454232Y-42226635D01*
X125454232Y-42226633D01*
X125453542Y-42220072D01*
X125394527Y-42038444D01*
X125299040Y-41873056D01*
X125291543Y-41864729D01*
X125175675Y-41736045D01*
X125175674Y-41736044D01*
X125171253Y-41731134D01*
X125056196Y-41647540D01*
X125022094Y-41622763D01*
X125022093Y-41622762D01*
X125016752Y-41618882D01*
X125010724Y-41616198D01*
X125010722Y-41616197D01*
X124848319Y-41543891D01*
X124848318Y-41543891D01*
X124842288Y-41541206D01*
X124748887Y-41521353D01*
X124661944Y-41502872D01*
X124661939Y-41502872D01*
X124655487Y-41501500D01*
X124464513Y-41501500D01*
X124458061Y-41502872D01*
X124458056Y-41502872D01*
X124371113Y-41521353D01*
X124277712Y-41541206D01*
X124271682Y-41543891D01*
X124271681Y-41543891D01*
X124109278Y-41616197D01*
X124109276Y-41616198D01*
X124103248Y-41618882D01*
X124097907Y-41622762D01*
X124097906Y-41622763D01*
X124063804Y-41647540D01*
X123948747Y-41731134D01*
X123944326Y-41736044D01*
X123944325Y-41736045D01*
X123828458Y-41864729D01*
X123820960Y-41873056D01*
X123725473Y-42038444D01*
X123666458Y-42220072D01*
X123665768Y-42226633D01*
X123665768Y-42226635D01*
X123659508Y-42286197D01*
X123646496Y-42410000D01*
X122189236Y-42410000D01*
X122181253Y-42401134D01*
X122081807Y-42328882D01*
X122032094Y-42292763D01*
X122032093Y-42292762D01*
X122026752Y-42288882D01*
X122020724Y-42286198D01*
X122020722Y-42286197D01*
X121858319Y-42213891D01*
X121858318Y-42213891D01*
X121852288Y-42211206D01*
X121758887Y-42191353D01*
X121671944Y-42172872D01*
X121671939Y-42172872D01*
X121665487Y-42171500D01*
X121474513Y-42171500D01*
X121468061Y-42172872D01*
X121468056Y-42172872D01*
X121381112Y-42191353D01*
X121287712Y-42211206D01*
X121281682Y-42213891D01*
X121281681Y-42213891D01*
X121119278Y-42286197D01*
X121119276Y-42286198D01*
X121113248Y-42288882D01*
X121107907Y-42292762D01*
X121107906Y-42292763D01*
X121058193Y-42328882D01*
X120958747Y-42401134D01*
X120830960Y-42543056D01*
X120735473Y-42708444D01*
X120676458Y-42890072D01*
X120675768Y-42896633D01*
X120675768Y-42896635D01*
X120664676Y-43002168D01*
X120656496Y-43080000D01*
X110999300Y-43080000D01*
X110984232Y-42936635D01*
X110984232Y-42936633D01*
X110983542Y-42930072D01*
X110924527Y-42748444D01*
X110829040Y-42583056D01*
X110798173Y-42548774D01*
X110705675Y-42446045D01*
X110705674Y-42446044D01*
X110701253Y-42441134D01*
X110546752Y-42328882D01*
X110540724Y-42326198D01*
X110540722Y-42326197D01*
X110378319Y-42253891D01*
X110378318Y-42253891D01*
X110372288Y-42251206D01*
X110272522Y-42230000D01*
X110191944Y-42212872D01*
X110191939Y-42212872D01*
X110185487Y-42211500D01*
X109994513Y-42211500D01*
X109988061Y-42212872D01*
X109988056Y-42212872D01*
X109907478Y-42230000D01*
X109807712Y-42251206D01*
X109801682Y-42253891D01*
X109801681Y-42253891D01*
X109639278Y-42326197D01*
X109639276Y-42326198D01*
X109633248Y-42328882D01*
X109478747Y-42441134D01*
X109474326Y-42446044D01*
X109474325Y-42446045D01*
X109381828Y-42548774D01*
X109350960Y-42583056D01*
X109255473Y-42748444D01*
X109196458Y-42930072D01*
X109195768Y-42936633D01*
X109195768Y-42936635D01*
X109179360Y-43092749D01*
X109176496Y-43120000D01*
X104003000Y-43120000D01*
X104003000Y-41130000D01*
X113556496Y-41130000D01*
X113557186Y-41136565D01*
X113564328Y-41204513D01*
X113576458Y-41319928D01*
X113635473Y-41501556D01*
X113730960Y-41666944D01*
X113735378Y-41671851D01*
X113735379Y-41671852D01*
X113788757Y-41731134D01*
X113858747Y-41808866D01*
X114013248Y-41921118D01*
X114019276Y-41923802D01*
X114019278Y-41923803D01*
X114126408Y-41971500D01*
X114187712Y-41998794D01*
X114281112Y-42018647D01*
X114368056Y-42037128D01*
X114368061Y-42037128D01*
X114374513Y-42038500D01*
X114565487Y-42038500D01*
X114571939Y-42037128D01*
X114571944Y-42037128D01*
X114658887Y-42018647D01*
X114752288Y-41998794D01*
X114813592Y-41971500D01*
X114920722Y-41923803D01*
X114920724Y-41923802D01*
X114926752Y-41921118D01*
X115081253Y-41808866D01*
X115151243Y-41731134D01*
X115204621Y-41671852D01*
X115204622Y-41671851D01*
X115209040Y-41666944D01*
X115304527Y-41501556D01*
X115363542Y-41319928D01*
X115375673Y-41204513D01*
X115382814Y-41136565D01*
X115383504Y-41130000D01*
X118856496Y-41130000D01*
X118857186Y-41136565D01*
X118864328Y-41204513D01*
X118876458Y-41319928D01*
X118935473Y-41501556D01*
X119030960Y-41666944D01*
X119035378Y-41671851D01*
X119035379Y-41671852D01*
X119088757Y-41731134D01*
X119158747Y-41808866D01*
X119313248Y-41921118D01*
X119319276Y-41923802D01*
X119319278Y-41923803D01*
X119426408Y-41971500D01*
X119487712Y-41998794D01*
X119581112Y-42018647D01*
X119668056Y-42037128D01*
X119668061Y-42037128D01*
X119674513Y-42038500D01*
X119865487Y-42038500D01*
X119871939Y-42037128D01*
X119871944Y-42037128D01*
X119958887Y-42018647D01*
X120052288Y-41998794D01*
X120113592Y-41971500D01*
X120220722Y-41923803D01*
X120220724Y-41923802D01*
X120226752Y-41921118D01*
X120381253Y-41808866D01*
X120451243Y-41731134D01*
X120504621Y-41671852D01*
X120504622Y-41671851D01*
X120509040Y-41666944D01*
X120604527Y-41501556D01*
X120663542Y-41319928D01*
X120675673Y-41204513D01*
X120682814Y-41136565D01*
X120683504Y-41130000D01*
X120671081Y-41011799D01*
X120664232Y-40946635D01*
X120664232Y-40946633D01*
X120663542Y-40940072D01*
X120604527Y-40758444D01*
X120509040Y-40593056D01*
X120503278Y-40586656D01*
X120385675Y-40456045D01*
X120385674Y-40456044D01*
X120381253Y-40451134D01*
X120248883Y-40354961D01*
X120232094Y-40342763D01*
X120232093Y-40342762D01*
X120226752Y-40338882D01*
X120220724Y-40336198D01*
X120220722Y-40336197D01*
X120058319Y-40263891D01*
X120058318Y-40263891D01*
X120052288Y-40261206D01*
X119945437Y-40238494D01*
X119871944Y-40222872D01*
X119871939Y-40222872D01*
X119865487Y-40221500D01*
X119674513Y-40221500D01*
X119668061Y-40222872D01*
X119668056Y-40222872D01*
X119594563Y-40238494D01*
X119487712Y-40261206D01*
X119481682Y-40263891D01*
X119481681Y-40263891D01*
X119319278Y-40336197D01*
X119319276Y-40336198D01*
X119313248Y-40338882D01*
X119307907Y-40342762D01*
X119307906Y-40342763D01*
X119291117Y-40354961D01*
X119158747Y-40451134D01*
X119154326Y-40456044D01*
X119154325Y-40456045D01*
X119036723Y-40586656D01*
X119030960Y-40593056D01*
X118935473Y-40758444D01*
X118876458Y-40940072D01*
X118875768Y-40946633D01*
X118875768Y-40946635D01*
X118868919Y-41011799D01*
X118856496Y-41130000D01*
X115383504Y-41130000D01*
X115371081Y-41011799D01*
X115364232Y-40946635D01*
X115364232Y-40946633D01*
X115363542Y-40940072D01*
X115304527Y-40758444D01*
X115209040Y-40593056D01*
X115203278Y-40586656D01*
X115085675Y-40456045D01*
X115085674Y-40456044D01*
X115081253Y-40451134D01*
X114948883Y-40354961D01*
X114932094Y-40342763D01*
X114932093Y-40342762D01*
X114926752Y-40338882D01*
X114920724Y-40336198D01*
X114920722Y-40336197D01*
X114758319Y-40263891D01*
X114758318Y-40263891D01*
X114752288Y-40261206D01*
X114645437Y-40238494D01*
X114571944Y-40222872D01*
X114571939Y-40222872D01*
X114565487Y-40221500D01*
X114374513Y-40221500D01*
X114368061Y-40222872D01*
X114368056Y-40222872D01*
X114294563Y-40238494D01*
X114187712Y-40261206D01*
X114181682Y-40263891D01*
X114181681Y-40263891D01*
X114019278Y-40336197D01*
X114019276Y-40336198D01*
X114013248Y-40338882D01*
X114007907Y-40342762D01*
X114007906Y-40342763D01*
X113991117Y-40354961D01*
X113858747Y-40451134D01*
X113854326Y-40456044D01*
X113854325Y-40456045D01*
X113736723Y-40586656D01*
X113730960Y-40593056D01*
X113635473Y-40758444D01*
X113576458Y-40940072D01*
X113575768Y-40946633D01*
X113575768Y-40946635D01*
X113568919Y-41011799D01*
X113556496Y-41130000D01*
X104003000Y-41130000D01*
X104003000Y-40688702D01*
X104003002Y-40687932D01*
X104003421Y-40619322D01*
X104003476Y-40610348D01*
X104001010Y-40601719D01*
X104001009Y-40601714D01*
X103995361Y-40581952D01*
X103991783Y-40565191D01*
X103988870Y-40544848D01*
X103988867Y-40544838D01*
X103987595Y-40535955D01*
X103976979Y-40512605D01*
X103970536Y-40495093D01*
X103965954Y-40479063D01*
X103963488Y-40470435D01*
X103947726Y-40445452D01*
X103939596Y-40430386D01*
X103927367Y-40403490D01*
X103910626Y-40384061D01*
X103899521Y-40369053D01*
X103890630Y-40354961D01*
X103885840Y-40347369D01*
X103863703Y-40327818D01*
X103851659Y-40315626D01*
X103838239Y-40300051D01*
X103838237Y-40300050D01*
X103832381Y-40293253D01*
X103824853Y-40288374D01*
X103824850Y-40288371D01*
X103810861Y-40279304D01*
X103795987Y-40268014D01*
X103786725Y-40259834D01*
X103776772Y-40251044D01*
X103768646Y-40247229D01*
X103768645Y-40247228D01*
X103762979Y-40244568D01*
X103750034Y-40238490D01*
X103735065Y-40230176D01*
X103710273Y-40214107D01*
X103685709Y-40206761D01*
X103668264Y-40200099D01*
X103645052Y-40189201D01*
X103615870Y-40184657D01*
X103599151Y-40180874D01*
X103579464Y-40174986D01*
X103579461Y-40174985D01*
X103570859Y-40172413D01*
X103561884Y-40172358D01*
X103561883Y-40172358D01*
X103555190Y-40172317D01*
X103536444Y-40172203D01*
X103535672Y-40172170D01*
X103534577Y-40172000D01*
X103503702Y-40172000D01*
X103502932Y-40171998D01*
X103429284Y-40171548D01*
X103429283Y-40171548D01*
X103425348Y-40171524D01*
X103424004Y-40171908D01*
X103422659Y-40172000D01*
X98129000Y-40172000D01*
X98060879Y-40151998D01*
X98014386Y-40098342D01*
X98003000Y-40046000D01*
X98003000Y-39930000D01*
X126526496Y-39930000D01*
X126527186Y-39936565D01*
X126543159Y-40088535D01*
X126546458Y-40119928D01*
X126605473Y-40301556D01*
X126700960Y-40466944D01*
X126705378Y-40471851D01*
X126705379Y-40471852D01*
X126808749Y-40586656D01*
X126828747Y-40608866D01*
X126983248Y-40721118D01*
X126989276Y-40723802D01*
X126989278Y-40723803D01*
X127122613Y-40783167D01*
X127157712Y-40798794D01*
X127251112Y-40818647D01*
X127338056Y-40837128D01*
X127338061Y-40837128D01*
X127344513Y-40838500D01*
X127535487Y-40838500D01*
X127541939Y-40837128D01*
X127541944Y-40837128D01*
X127628888Y-40818647D01*
X127722288Y-40798794D01*
X127757387Y-40783167D01*
X127890722Y-40723803D01*
X127890724Y-40723802D01*
X127896752Y-40721118D01*
X128051253Y-40608866D01*
X128071251Y-40586656D01*
X128174621Y-40471852D01*
X128174622Y-40471851D01*
X128179040Y-40466944D01*
X128274527Y-40301556D01*
X128333542Y-40119928D01*
X128336842Y-40088535D01*
X128352814Y-39936565D01*
X128353504Y-39930000D01*
X128333542Y-39740072D01*
X128274527Y-39558444D01*
X128264566Y-39541190D01*
X128198345Y-39426493D01*
X128179040Y-39393056D01*
X128109154Y-39315439D01*
X128055675Y-39256045D01*
X128055674Y-39256044D01*
X128051253Y-39251134D01*
X127896752Y-39138882D01*
X127890724Y-39136198D01*
X127890722Y-39136197D01*
X127728319Y-39063891D01*
X127728318Y-39063891D01*
X127722288Y-39061206D01*
X127628887Y-39041353D01*
X127541944Y-39022872D01*
X127541939Y-39022872D01*
X127535487Y-39021500D01*
X127344513Y-39021500D01*
X127338061Y-39022872D01*
X127338056Y-39022872D01*
X127251113Y-39041353D01*
X127157712Y-39061206D01*
X127151682Y-39063891D01*
X127151681Y-39063891D01*
X126989278Y-39136197D01*
X126989276Y-39136198D01*
X126983248Y-39138882D01*
X126828747Y-39251134D01*
X126824326Y-39256044D01*
X126824325Y-39256045D01*
X126770847Y-39315439D01*
X126700960Y-39393056D01*
X126681655Y-39426493D01*
X126615435Y-39541190D01*
X126605473Y-39558444D01*
X126546458Y-39740072D01*
X126526496Y-39930000D01*
X98003000Y-39930000D01*
X98003000Y-38300000D01*
X103946496Y-38300000D01*
X103947186Y-38306565D01*
X103964553Y-38471799D01*
X103966458Y-38489928D01*
X104025473Y-38671556D01*
X104120960Y-38836944D01*
X104125378Y-38841851D01*
X104125379Y-38841852D01*
X104244325Y-38973955D01*
X104248747Y-38978866D01*
X104403248Y-39091118D01*
X104409276Y-39093802D01*
X104409278Y-39093803D01*
X104571681Y-39166109D01*
X104577712Y-39168794D01*
X104671113Y-39188647D01*
X104758056Y-39207128D01*
X104758061Y-39207128D01*
X104764513Y-39208500D01*
X104955487Y-39208500D01*
X104961939Y-39207128D01*
X104961944Y-39207128D01*
X105048887Y-39188647D01*
X105142288Y-39168794D01*
X105148319Y-39166109D01*
X105310722Y-39093803D01*
X105310724Y-39093802D01*
X105316752Y-39091118D01*
X105471253Y-38978866D01*
X105475675Y-38973955D01*
X105594621Y-38841852D01*
X105594622Y-38841851D01*
X105599040Y-38836944D01*
X105694527Y-38671556D01*
X105707155Y-38632690D01*
X111195984Y-38632690D01*
X111196674Y-38639255D01*
X111204752Y-38716109D01*
X111215946Y-38822618D01*
X111274961Y-39004246D01*
X111278264Y-39009968D01*
X111278265Y-39009969D01*
X111285715Y-39022872D01*
X111370448Y-39169634D01*
X111374866Y-39174541D01*
X111374867Y-39174542D01*
X111443831Y-39251134D01*
X111498235Y-39311556D01*
X111652736Y-39423808D01*
X111658764Y-39426492D01*
X111658766Y-39426493D01*
X111821169Y-39498799D01*
X111827200Y-39501484D01*
X111911022Y-39519301D01*
X112007544Y-39539818D01*
X112007549Y-39539818D01*
X112014001Y-39541190D01*
X112204975Y-39541190D01*
X112211427Y-39539818D01*
X112211432Y-39539818D01*
X112307954Y-39519301D01*
X112391776Y-39501484D01*
X112397807Y-39498799D01*
X112560210Y-39426493D01*
X112560212Y-39426492D01*
X112566240Y-39423808D01*
X112720741Y-39311556D01*
X112775145Y-39251134D01*
X112844109Y-39174542D01*
X112844110Y-39174541D01*
X112848528Y-39169634D01*
X112933261Y-39022872D01*
X112940711Y-39009969D01*
X112940712Y-39009968D01*
X112944015Y-39004246D01*
X113003030Y-38822618D01*
X113014225Y-38716109D01*
X113022302Y-38639255D01*
X113022992Y-38632690D01*
X113016051Y-38566651D01*
X113028823Y-38496813D01*
X113077325Y-38444967D01*
X113146158Y-38427572D01*
X113213468Y-38450153D01*
X113234995Y-38469168D01*
X113288747Y-38528866D01*
X113340755Y-38566652D01*
X113426374Y-38628858D01*
X113443248Y-38641118D01*
X113449276Y-38643802D01*
X113449278Y-38643803D01*
X113508938Y-38670365D01*
X113617712Y-38718794D01*
X113711113Y-38738647D01*
X113798056Y-38757128D01*
X113798061Y-38757128D01*
X113804513Y-38758500D01*
X113995487Y-38758500D01*
X114001939Y-38757128D01*
X114001944Y-38757128D01*
X114088888Y-38738647D01*
X114182288Y-38718794D01*
X114291062Y-38670365D01*
X114350722Y-38643803D01*
X114350724Y-38643802D01*
X114356752Y-38641118D01*
X114373627Y-38628858D01*
X114459245Y-38566652D01*
X114511253Y-38528866D01*
X114562636Y-38471799D01*
X114634621Y-38391852D01*
X114634622Y-38391851D01*
X114639040Y-38386944D01*
X114734527Y-38221556D01*
X114793542Y-38039928D01*
X114809863Y-37884647D01*
X114812814Y-37856565D01*
X114812814Y-37856564D01*
X114813504Y-37850000D01*
X114804967Y-37768774D01*
X114794232Y-37666635D01*
X114794232Y-37666633D01*
X114793542Y-37660072D01*
X114734527Y-37478444D01*
X114639040Y-37313056D01*
X114511253Y-37171134D01*
X114356752Y-37058882D01*
X114350724Y-37056198D01*
X114350722Y-37056197D01*
X114188319Y-36983891D01*
X114188318Y-36983891D01*
X114182288Y-36981206D01*
X114079257Y-36959306D01*
X114001944Y-36942872D01*
X114001939Y-36942872D01*
X113995487Y-36941500D01*
X113804513Y-36941500D01*
X113798061Y-36942872D01*
X113798056Y-36942872D01*
X113720743Y-36959306D01*
X113617712Y-36981206D01*
X113611682Y-36983891D01*
X113611681Y-36983891D01*
X113449278Y-37056197D01*
X113449276Y-37056198D01*
X113443248Y-37058882D01*
X113288747Y-37171134D01*
X113160960Y-37313056D01*
X113065473Y-37478444D01*
X113006458Y-37660072D01*
X113005768Y-37666633D01*
X113005768Y-37666635D01*
X112995033Y-37768774D01*
X112986496Y-37850000D01*
X112989566Y-37879204D01*
X112993437Y-37916038D01*
X112980665Y-37985877D01*
X112932163Y-38037723D01*
X112863330Y-38055118D01*
X112796020Y-38032537D01*
X112774491Y-38013520D01*
X112720741Y-37953824D01*
X112601891Y-37867474D01*
X112571582Y-37845453D01*
X112571581Y-37845452D01*
X112566240Y-37841572D01*
X112560212Y-37838888D01*
X112560210Y-37838887D01*
X112397807Y-37766581D01*
X112397806Y-37766581D01*
X112391776Y-37763896D01*
X112298375Y-37744043D01*
X112211432Y-37725562D01*
X112211427Y-37725562D01*
X112204975Y-37724190D01*
X112014001Y-37724190D01*
X112007549Y-37725562D01*
X112007544Y-37725562D01*
X111920601Y-37744043D01*
X111827200Y-37763896D01*
X111821170Y-37766581D01*
X111821169Y-37766581D01*
X111658766Y-37838887D01*
X111658764Y-37838888D01*
X111652736Y-37841572D01*
X111647395Y-37845452D01*
X111647394Y-37845453D01*
X111617085Y-37867474D01*
X111498235Y-37953824D01*
X111493817Y-37958731D01*
X111493813Y-37958735D01*
X111407030Y-38055118D01*
X111370448Y-38095746D01*
X111274961Y-38261134D01*
X111215946Y-38442762D01*
X111215256Y-38449323D01*
X111215256Y-38449325D01*
X111210989Y-38489928D01*
X111195984Y-38632690D01*
X105707155Y-38632690D01*
X105753542Y-38489928D01*
X105755448Y-38471799D01*
X105772814Y-38306565D01*
X105773504Y-38300000D01*
X105753542Y-38110072D01*
X105694527Y-37928444D01*
X105687365Y-37916038D01*
X105623796Y-37805935D01*
X105599040Y-37763056D01*
X105567034Y-37727509D01*
X105475675Y-37626045D01*
X105475674Y-37626044D01*
X105471253Y-37621134D01*
X105316752Y-37508882D01*
X105310724Y-37506198D01*
X105310722Y-37506197D01*
X105148319Y-37433891D01*
X105148318Y-37433891D01*
X105142288Y-37431206D01*
X105048888Y-37411353D01*
X104961944Y-37392872D01*
X104961939Y-37392872D01*
X104955487Y-37391500D01*
X104764513Y-37391500D01*
X104758061Y-37392872D01*
X104758056Y-37392872D01*
X104671112Y-37411353D01*
X104577712Y-37431206D01*
X104571682Y-37433891D01*
X104571681Y-37433891D01*
X104409278Y-37506197D01*
X104409276Y-37506198D01*
X104403248Y-37508882D01*
X104248747Y-37621134D01*
X104244326Y-37626044D01*
X104244325Y-37626045D01*
X104152967Y-37727509D01*
X104120960Y-37763056D01*
X104096204Y-37805935D01*
X104032636Y-37916038D01*
X104025473Y-37928444D01*
X103966458Y-38110072D01*
X103946496Y-38300000D01*
X98003000Y-38300000D01*
X98003000Y-36314000D01*
X98023002Y-36245879D01*
X98076658Y-36199386D01*
X98129000Y-36188000D01*
X136604027Y-36188000D01*
X136672148Y-36208002D01*
G37*
%TD.AperFunction*%
%TD*%
%TA.AperFunction,Conductor*%
%TO.N,+3V3*%
G36*
X136672148Y-36208002D02*
G01*
X136718641Y-36261658D01*
X136728745Y-36331932D01*
X136699251Y-36396512D01*
X136682986Y-36412190D01*
X136640975Y-36445968D01*
X136513846Y-36597474D01*
X136510879Y-36602872D01*
X136510875Y-36602877D01*
X136507397Y-36609204D01*
X136418567Y-36770787D01*
X136416706Y-36776654D01*
X136416705Y-36776656D01*
X136364413Y-36941500D01*
X136358765Y-36959306D01*
X136336719Y-37155851D01*
X136337235Y-37161995D01*
X136350400Y-37318774D01*
X136353268Y-37352934D01*
X136354967Y-37358858D01*
X136397216Y-37506197D01*
X136407783Y-37543050D01*
X136410602Y-37548535D01*
X136467925Y-37660072D01*
X136498187Y-37718956D01*
X136502016Y-37723787D01*
X136503839Y-37726088D01*
X136504414Y-37727509D01*
X136505353Y-37728966D01*
X136505076Y-37729144D01*
X136530474Y-37791898D01*
X136517301Y-37861662D01*
X136513846Y-37867474D01*
X136418567Y-38040787D01*
X136416706Y-38046654D01*
X136416705Y-38046656D01*
X136402690Y-38090838D01*
X136358765Y-38229306D01*
X136336719Y-38425851D01*
X136337235Y-38431995D01*
X136342100Y-38489928D01*
X136353268Y-38622934D01*
X136357948Y-38639255D01*
X136391748Y-38757128D01*
X136407783Y-38813050D01*
X136498187Y-38988956D01*
X136502016Y-38993787D01*
X136503839Y-38996088D01*
X136504414Y-38997509D01*
X136505353Y-38998966D01*
X136505076Y-38999144D01*
X136530474Y-39061898D01*
X136517301Y-39131662D01*
X136513846Y-39137474D01*
X136418567Y-39310787D01*
X136416706Y-39316654D01*
X136416705Y-39316656D01*
X136382714Y-39423808D01*
X136358765Y-39499306D01*
X136336719Y-39695851D01*
X136353268Y-39892934D01*
X136407783Y-40083050D01*
X136410602Y-40088535D01*
X136492160Y-40247228D01*
X136498187Y-40258956D01*
X136502016Y-40263787D01*
X136503839Y-40266088D01*
X136504414Y-40267509D01*
X136505353Y-40268966D01*
X136505076Y-40269144D01*
X136530474Y-40331898D01*
X136517301Y-40401662D01*
X136513846Y-40407474D01*
X136418567Y-40580787D01*
X136416706Y-40586654D01*
X136416705Y-40586656D01*
X136384578Y-40687932D01*
X136358765Y-40769306D01*
X136336719Y-40965851D01*
X136337235Y-40971995D01*
X136350503Y-41130000D01*
X136353268Y-41162934D01*
X136407783Y-41353050D01*
X136414150Y-41365438D01*
X136427496Y-41435165D01*
X136407300Y-41487266D01*
X136409079Y-41488240D01*
X136404771Y-41496108D01*
X136399385Y-41503295D01*
X136348255Y-41639684D01*
X136341500Y-41701866D01*
X136341500Y-42798134D01*
X136348255Y-42860316D01*
X136399385Y-42996705D01*
X136486739Y-43113261D01*
X136603295Y-43200615D01*
X136739684Y-43251745D01*
X136801866Y-43258500D01*
X137898134Y-43258500D01*
X137960316Y-43251745D01*
X138096705Y-43200615D01*
X138213261Y-43113261D01*
X138300615Y-42996705D01*
X138351745Y-42860316D01*
X138358500Y-42798134D01*
X138358500Y-41701866D01*
X138351745Y-41639684D01*
X138300615Y-41503295D01*
X138295229Y-41496109D01*
X138290921Y-41488240D01*
X138292942Y-41487133D01*
X138272506Y-41432443D01*
X138278621Y-41383606D01*
X138336250Y-41210365D01*
X138338197Y-41204513D01*
X138362985Y-41008295D01*
X138363380Y-40980000D01*
X138344080Y-40783167D01*
X138286916Y-40593831D01*
X138194066Y-40419204D01*
X138190167Y-40414424D01*
X138189715Y-40413743D01*
X138168676Y-40345935D01*
X138185105Y-40281775D01*
X138192923Y-40268014D01*
X138218567Y-40222872D01*
X138272723Y-40127542D01*
X138272725Y-40127537D01*
X138275769Y-40122179D01*
X138338197Y-39934513D01*
X138362985Y-39738295D01*
X138363380Y-39710000D01*
X138344080Y-39513167D01*
X138286916Y-39323831D01*
X138194066Y-39149204D01*
X138190167Y-39144424D01*
X138189715Y-39143743D01*
X138168676Y-39075935D01*
X138185105Y-39011775D01*
X138272723Y-38857542D01*
X138272725Y-38857537D01*
X138275769Y-38852179D01*
X138338197Y-38664513D01*
X138362985Y-38468295D01*
X138363380Y-38440000D01*
X138344080Y-38243167D01*
X138286916Y-38053831D01*
X138194066Y-37879204D01*
X138190167Y-37874424D01*
X138189715Y-37873743D01*
X138168676Y-37805935D01*
X138185105Y-37741775D01*
X138194316Y-37725562D01*
X138227791Y-37666635D01*
X138272723Y-37587542D01*
X138272725Y-37587537D01*
X138275769Y-37582179D01*
X138338197Y-37394513D01*
X138362985Y-37198295D01*
X138363380Y-37170000D01*
X138344080Y-36973167D01*
X138334934Y-36942872D01*
X138288697Y-36789731D01*
X138286916Y-36783831D01*
X138194066Y-36609204D01*
X138123709Y-36522938D01*
X138072960Y-36460713D01*
X138072957Y-36460710D01*
X138069065Y-36455938D01*
X138057014Y-36445968D01*
X138014847Y-36411085D01*
X137975108Y-36352251D01*
X137973486Y-36281273D01*
X138010496Y-36220686D01*
X138074386Y-36189725D01*
X138095162Y-36188000D01*
X138761000Y-36188000D01*
X138829121Y-36208002D01*
X138875614Y-36261658D01*
X138887000Y-36314000D01*
X138887000Y-65046000D01*
X138866998Y-65114121D01*
X138813342Y-65160614D01*
X138761000Y-65172000D01*
X132911110Y-65172000D01*
X132842989Y-65151998D01*
X132796496Y-65098342D01*
X132786392Y-65028068D01*
X132786992Y-65024698D01*
X132788542Y-65019928D01*
X132789231Y-65013373D01*
X132789232Y-65013368D01*
X132807814Y-64836565D01*
X132808504Y-64830000D01*
X132802079Y-64768866D01*
X132789232Y-64646635D01*
X132789232Y-64646633D01*
X132788542Y-64640072D01*
X132774979Y-64598329D01*
X132772951Y-64527363D01*
X132809614Y-64466565D01*
X132843563Y-64444287D01*
X132945722Y-64398803D01*
X132945724Y-64398802D01*
X132951752Y-64396118D01*
X133106253Y-64283866D01*
X133155681Y-64228971D01*
X133229621Y-64146852D01*
X133229622Y-64146851D01*
X133234040Y-64141944D01*
X133295093Y-64036197D01*
X133326223Y-63982279D01*
X133326224Y-63982278D01*
X133329527Y-63976556D01*
X133388542Y-63794928D01*
X133400549Y-63680684D01*
X133427562Y-63615028D01*
X133485783Y-63574398D01*
X133499662Y-63570608D01*
X133508397Y-63568751D01*
X133602288Y-63548794D01*
X133608319Y-63546109D01*
X133770722Y-63473803D01*
X133770724Y-63473802D01*
X133776752Y-63471118D01*
X133931253Y-63358866D01*
X133986558Y-63297444D01*
X134054621Y-63221852D01*
X134054622Y-63221851D01*
X134059040Y-63216944D01*
X134141333Y-63074409D01*
X134151223Y-63057279D01*
X134151224Y-63057278D01*
X134154527Y-63051556D01*
X134213542Y-62869928D01*
X134233504Y-62680000D01*
X134225549Y-62604315D01*
X134214233Y-62496642D01*
X134214232Y-62496635D01*
X134213542Y-62490072D01*
X134207526Y-62471556D01*
X134206750Y-62469167D01*
X134204724Y-62398199D01*
X134232948Y-62345922D01*
X134254621Y-62321852D01*
X134254622Y-62321851D01*
X134259040Y-62316944D01*
X134303505Y-62239928D01*
X134351223Y-62157279D01*
X134351224Y-62157278D01*
X134354527Y-62151556D01*
X134413542Y-61969928D01*
X134419601Y-61912285D01*
X134432814Y-61786565D01*
X134433504Y-61780000D01*
X134421600Y-61666739D01*
X134414232Y-61596635D01*
X134414232Y-61596633D01*
X134413542Y-61590072D01*
X134354527Y-61408444D01*
X134259040Y-61243056D01*
X134244707Y-61227137D01*
X134135675Y-61106045D01*
X134135674Y-61106044D01*
X134131253Y-61101134D01*
X133976752Y-60988882D01*
X133970724Y-60986198D01*
X133970722Y-60986197D01*
X133808319Y-60913891D01*
X133808318Y-60913891D01*
X133802288Y-60911206D01*
X133708887Y-60891353D01*
X133621944Y-60872872D01*
X133621939Y-60872872D01*
X133615487Y-60871500D01*
X133424513Y-60871500D01*
X133418061Y-60872872D01*
X133418056Y-60872872D01*
X133331113Y-60891353D01*
X133237712Y-60911206D01*
X133231682Y-60913891D01*
X133231681Y-60913891D01*
X133069278Y-60986197D01*
X133069276Y-60986198D01*
X133063248Y-60988882D01*
X132908747Y-61101134D01*
X132904326Y-61106044D01*
X132904325Y-61106045D01*
X132795294Y-61227137D01*
X132780960Y-61243056D01*
X132685473Y-61408444D01*
X132626458Y-61590072D01*
X132625768Y-61596633D01*
X132625768Y-61596635D01*
X132618400Y-61666739D01*
X132606496Y-61780000D01*
X132607186Y-61786565D01*
X132620857Y-61916635D01*
X132626458Y-61969928D01*
X132628500Y-61976212D01*
X132633250Y-61990833D01*
X132635276Y-62061801D01*
X132607052Y-62114078D01*
X132580960Y-62143056D01*
X132577657Y-62148777D01*
X132492539Y-62296206D01*
X132485473Y-62308444D01*
X132426458Y-62490072D01*
X132416277Y-62586944D01*
X132414451Y-62604315D01*
X132387438Y-62669972D01*
X132329217Y-62710602D01*
X132315337Y-62714392D01*
X132212712Y-62736206D01*
X132206682Y-62738891D01*
X132206681Y-62738891D01*
X132044278Y-62811197D01*
X132044276Y-62811198D01*
X132038248Y-62813882D01*
X132032907Y-62817762D01*
X132032906Y-62817763D01*
X132006103Y-62837237D01*
X131883747Y-62926134D01*
X131879326Y-62931044D01*
X131879325Y-62931045D01*
X131765664Y-63057279D01*
X131755960Y-63068056D01*
X131712700Y-63142985D01*
X131667166Y-63221852D01*
X131660473Y-63233444D01*
X131601458Y-63415072D01*
X131600768Y-63421633D01*
X131600768Y-63421635D01*
X131587686Y-63546109D01*
X131581496Y-63605000D01*
X131601458Y-63794928D01*
X131603497Y-63801203D01*
X131615021Y-63836669D01*
X131617049Y-63907637D01*
X131580386Y-63968435D01*
X131546437Y-63990713D01*
X131444278Y-64036197D01*
X131444276Y-64036198D01*
X131438248Y-64038882D01*
X131283747Y-64151134D01*
X131279326Y-64156044D01*
X131279325Y-64156045D01*
X131168657Y-64278955D01*
X131155960Y-64293056D01*
X131098698Y-64392237D01*
X131068647Y-64444287D01*
X131060473Y-64458444D01*
X131001458Y-64640072D01*
X131000768Y-64646633D01*
X131000768Y-64646635D01*
X130987921Y-64768866D01*
X130981496Y-64830000D01*
X130982186Y-64836565D01*
X131000768Y-65013368D01*
X131000769Y-65013373D01*
X131001458Y-65019928D01*
X131002000Y-65021597D01*
X130996733Y-65090597D01*
X130953915Y-65147229D01*
X130887277Y-65171721D01*
X130878890Y-65172000D01*
X117673585Y-65172000D01*
X117605464Y-65151998D01*
X117558971Y-65098342D01*
X117548867Y-65028068D01*
X117578361Y-64963488D01*
X117622337Y-64930893D01*
X117660719Y-64913805D01*
X117660726Y-64913801D01*
X117666752Y-64911118D01*
X117821253Y-64798866D01*
X117949040Y-64656944D01*
X118044527Y-64491556D01*
X118103542Y-64309928D01*
X118104715Y-64298774D01*
X118122814Y-64126565D01*
X118123504Y-64120000D01*
X118106814Y-63961206D01*
X118104232Y-63936635D01*
X118104232Y-63936633D01*
X118103542Y-63930072D01*
X118044527Y-63748444D01*
X117949040Y-63583056D01*
X117918191Y-63548794D01*
X117825675Y-63446045D01*
X117825674Y-63446044D01*
X117821253Y-63441134D01*
X117666752Y-63328882D01*
X117660724Y-63326198D01*
X117660722Y-63326197D01*
X117498319Y-63253891D01*
X117498318Y-63253891D01*
X117492288Y-63251206D01*
X117398888Y-63231353D01*
X117311944Y-63212872D01*
X117311939Y-63212872D01*
X117305487Y-63211500D01*
X117114513Y-63211500D01*
X117108061Y-63212872D01*
X117108056Y-63212872D01*
X117021112Y-63231353D01*
X116927712Y-63251206D01*
X116921682Y-63253891D01*
X116921681Y-63253891D01*
X116759278Y-63326197D01*
X116759276Y-63326198D01*
X116753248Y-63328882D01*
X116598747Y-63441134D01*
X116594326Y-63446044D01*
X116594325Y-63446045D01*
X116572142Y-63470682D01*
X116511696Y-63507922D01*
X116440713Y-63506570D01*
X116384870Y-63470682D01*
X116335675Y-63416045D01*
X116335674Y-63416044D01*
X116331253Y-63411134D01*
X116176752Y-63298882D01*
X116170724Y-63296198D01*
X116170722Y-63296197D01*
X116008319Y-63223891D01*
X116008318Y-63223891D01*
X116002288Y-63221206D01*
X115888305Y-63196978D01*
X115821944Y-63182872D01*
X115821939Y-63182872D01*
X115815487Y-63181500D01*
X115624513Y-63181500D01*
X115618061Y-63182872D01*
X115618056Y-63182872D01*
X115551695Y-63196978D01*
X115437712Y-63221206D01*
X115431682Y-63223891D01*
X115431681Y-63223891D01*
X115269278Y-63296197D01*
X115269276Y-63296198D01*
X115263248Y-63298882D01*
X115172822Y-63364580D01*
X115105958Y-63388437D01*
X115036806Y-63372357D01*
X115024703Y-63364579D01*
X115022185Y-63362749D01*
X114906752Y-63278882D01*
X114900724Y-63276198D01*
X114900722Y-63276197D01*
X114738319Y-63203891D01*
X114738318Y-63203891D01*
X114732288Y-63201206D01*
X114638887Y-63181353D01*
X114551944Y-63162872D01*
X114551939Y-63162872D01*
X114545487Y-63161500D01*
X114354513Y-63161500D01*
X114348061Y-63162872D01*
X114348056Y-63162872D01*
X114261113Y-63181353D01*
X114167712Y-63201206D01*
X114161682Y-63203891D01*
X114161681Y-63203891D01*
X113999278Y-63276197D01*
X113999276Y-63276198D01*
X113993248Y-63278882D01*
X113838747Y-63391134D01*
X113834326Y-63396044D01*
X113834325Y-63396045D01*
X113764312Y-63473803D01*
X113710960Y-63533056D01*
X113615473Y-63698444D01*
X113556458Y-63880072D01*
X113555768Y-63886633D01*
X113555768Y-63886635D01*
X113545716Y-63982279D01*
X113536496Y-64070000D01*
X113537186Y-64076565D01*
X113553586Y-64232598D01*
X113556458Y-64259928D01*
X113615473Y-64441556D01*
X113710960Y-64606944D01*
X113715378Y-64611851D01*
X113715379Y-64611852D01*
X113755980Y-64656944D01*
X113838747Y-64748866D01*
X113993248Y-64861118D01*
X113999276Y-64863802D01*
X113999278Y-64863803D01*
X114149966Y-64930893D01*
X114204062Y-64976873D01*
X114224711Y-65044800D01*
X114205359Y-65113108D01*
X114152148Y-65160110D01*
X114098717Y-65172000D01*
X98129000Y-65172000D01*
X98060879Y-65151998D01*
X98014386Y-65098342D01*
X98003000Y-65046000D01*
X98003000Y-62100000D01*
X106846496Y-62100000D01*
X106866458Y-62289928D01*
X106925473Y-62471556D01*
X106928776Y-62477278D01*
X106928777Y-62477279D01*
X106936163Y-62490072D01*
X107020960Y-62636944D01*
X107025378Y-62641851D01*
X107025379Y-62641852D01*
X107059728Y-62680000D01*
X107148747Y-62778866D01*
X107229818Y-62837768D01*
X107274083Y-62869928D01*
X107303248Y-62891118D01*
X107309276Y-62893802D01*
X107309278Y-62893803D01*
X107454591Y-62958500D01*
X107477712Y-62968794D01*
X107571113Y-62988647D01*
X107658056Y-63007128D01*
X107658061Y-63007128D01*
X107664513Y-63008500D01*
X107855487Y-63008500D01*
X107861939Y-63007128D01*
X107861944Y-63007128D01*
X107948887Y-62988647D01*
X108042288Y-62968794D01*
X108065409Y-62958500D01*
X108210722Y-62893803D01*
X108210724Y-62893802D01*
X108216752Y-62891118D01*
X108245918Y-62869928D01*
X108290182Y-62837768D01*
X108371253Y-62778866D01*
X108443874Y-62698212D01*
X108504320Y-62660972D01*
X108575303Y-62662324D01*
X108631146Y-62698212D01*
X108645715Y-62714392D01*
X108658747Y-62728866D01*
X108813248Y-62841118D01*
X108819276Y-62843802D01*
X108819278Y-62843803D01*
X108892057Y-62876206D01*
X108987712Y-62918794D01*
X109081112Y-62938647D01*
X109168056Y-62957128D01*
X109168061Y-62957128D01*
X109174513Y-62958500D01*
X109365487Y-62958500D01*
X109371939Y-62957128D01*
X109371944Y-62957128D01*
X109458888Y-62938647D01*
X109552288Y-62918794D01*
X109647943Y-62876206D01*
X109720722Y-62843803D01*
X109720724Y-62843802D01*
X109726752Y-62841118D01*
X109881253Y-62728866D01*
X109885675Y-62723955D01*
X110004621Y-62591852D01*
X110004622Y-62591851D01*
X110009040Y-62586944D01*
X110084026Y-62457064D01*
X125357707Y-62457064D01*
X125386825Y-62649599D01*
X125389028Y-62655585D01*
X125389029Y-62655591D01*
X125451860Y-62826360D01*
X125451862Y-62826365D01*
X125454063Y-62832346D01*
X125556674Y-62997840D01*
X125561055Y-63002473D01*
X125561056Y-63002474D01*
X125624312Y-63069366D01*
X125690466Y-63139322D01*
X125695696Y-63142984D01*
X125695697Y-63142985D01*
X125724099Y-63162872D01*
X125849975Y-63251011D01*
X125897987Y-63271788D01*
X126022825Y-63325810D01*
X126022829Y-63325811D01*
X126028684Y-63328345D01*
X126034931Y-63329650D01*
X126034934Y-63329651D01*
X126214557Y-63367176D01*
X126214562Y-63367177D01*
X126219293Y-63368165D01*
X126225685Y-63368500D01*
X126368663Y-63368500D01*
X126437951Y-63361462D01*
X126507378Y-63354410D01*
X126507379Y-63354410D01*
X126513727Y-63353765D01*
X126594843Y-63328345D01*
X126693451Y-63297444D01*
X126693456Y-63297442D01*
X126699541Y-63295535D01*
X126786475Y-63247346D01*
X126864271Y-63204223D01*
X126864274Y-63204221D01*
X126869850Y-63201130D01*
X126874691Y-63196981D01*
X126874695Y-63196978D01*
X127012855Y-63078560D01*
X127017698Y-63074409D01*
X127030986Y-63057279D01*
X127101704Y-62966109D01*
X127137046Y-62920547D01*
X127158865Y-62876206D01*
X127220200Y-62751556D01*
X127223018Y-62745829D01*
X127232194Y-62710602D01*
X127270492Y-62563575D01*
X127270492Y-62563572D01*
X127272102Y-62557393D01*
X127277360Y-62457064D01*
X128357707Y-62457064D01*
X128386825Y-62649599D01*
X128389028Y-62655585D01*
X128389029Y-62655591D01*
X128451860Y-62826360D01*
X128451862Y-62826365D01*
X128454063Y-62832346D01*
X128556674Y-62997840D01*
X128561055Y-63002473D01*
X128561056Y-63002474D01*
X128624312Y-63069366D01*
X128690466Y-63139322D01*
X128695696Y-63142984D01*
X128695697Y-63142985D01*
X128724099Y-63162872D01*
X128849975Y-63251011D01*
X128897987Y-63271788D01*
X129022825Y-63325810D01*
X129022829Y-63325811D01*
X129028684Y-63328345D01*
X129034931Y-63329650D01*
X129034934Y-63329651D01*
X129214557Y-63367176D01*
X129214562Y-63367177D01*
X129219293Y-63368165D01*
X129225685Y-63368500D01*
X129368663Y-63368500D01*
X129437951Y-63361462D01*
X129507378Y-63354410D01*
X129507379Y-63354410D01*
X129513727Y-63353765D01*
X129594843Y-63328345D01*
X129693451Y-63297444D01*
X129693456Y-63297442D01*
X129699541Y-63295535D01*
X129786475Y-63247346D01*
X129864271Y-63204223D01*
X129864274Y-63204221D01*
X129869850Y-63201130D01*
X129874691Y-63196981D01*
X129874695Y-63196978D01*
X130012855Y-63078560D01*
X130017698Y-63074409D01*
X130030986Y-63057279D01*
X130101704Y-62966109D01*
X130137046Y-62920547D01*
X130158865Y-62876206D01*
X130220200Y-62751556D01*
X130223018Y-62745829D01*
X130232194Y-62710602D01*
X130270492Y-62563575D01*
X130270492Y-62563572D01*
X130272102Y-62557393D01*
X130279550Y-62415271D01*
X130281959Y-62369317D01*
X130281959Y-62369313D01*
X130282293Y-62362936D01*
X130253175Y-62170401D01*
X130250972Y-62164415D01*
X130250971Y-62164409D01*
X130188140Y-61993640D01*
X130188138Y-61993635D01*
X130185937Y-61987654D01*
X130083326Y-61822160D01*
X130054525Y-61791703D01*
X129953919Y-61685315D01*
X129949534Y-61680678D01*
X129790025Y-61568989D01*
X129742013Y-61548212D01*
X129617175Y-61494190D01*
X129617171Y-61494189D01*
X129611316Y-61491655D01*
X129605069Y-61490350D01*
X129605066Y-61490349D01*
X129425443Y-61452824D01*
X129425438Y-61452823D01*
X129420707Y-61451835D01*
X129414315Y-61451500D01*
X129271337Y-61451500D01*
X129220813Y-61456632D01*
X129132622Y-61465590D01*
X129132621Y-61465590D01*
X129126273Y-61466235D01*
X129069939Y-61483889D01*
X128946549Y-61522556D01*
X128946544Y-61522558D01*
X128940459Y-61524465D01*
X128860137Y-61568989D01*
X128775729Y-61615777D01*
X128775726Y-61615779D01*
X128770150Y-61618870D01*
X128765309Y-61623019D01*
X128765305Y-61623022D01*
X128698037Y-61680678D01*
X128622302Y-61745591D01*
X128618391Y-61750633D01*
X128618390Y-61750634D01*
X128593056Y-61783295D01*
X128502954Y-61899453D01*
X128500138Y-61905176D01*
X128500136Y-61905179D01*
X128457989Y-61990833D01*
X128416982Y-62074171D01*
X128415373Y-62080349D01*
X128415372Y-62080351D01*
X128393477Y-62164409D01*
X128367898Y-62262607D01*
X128357707Y-62457064D01*
X127277360Y-62457064D01*
X127279550Y-62415271D01*
X127281959Y-62369317D01*
X127281959Y-62369313D01*
X127282293Y-62362936D01*
X127253175Y-62170401D01*
X127250972Y-62164415D01*
X127250971Y-62164409D01*
X127188140Y-61993640D01*
X127188138Y-61993635D01*
X127185937Y-61987654D01*
X127083326Y-61822160D01*
X127054525Y-61791703D01*
X126953919Y-61685315D01*
X126949534Y-61680678D01*
X126790025Y-61568989D01*
X126742013Y-61548212D01*
X126617175Y-61494190D01*
X126617171Y-61494189D01*
X126611316Y-61491655D01*
X126605069Y-61490350D01*
X126605066Y-61490349D01*
X126425443Y-61452824D01*
X126425438Y-61452823D01*
X126420707Y-61451835D01*
X126414315Y-61451500D01*
X126271337Y-61451500D01*
X126220813Y-61456632D01*
X126132622Y-61465590D01*
X126132621Y-61465590D01*
X126126273Y-61466235D01*
X126069939Y-61483889D01*
X125946549Y-61522556D01*
X125946544Y-61522558D01*
X125940459Y-61524465D01*
X125860137Y-61568989D01*
X125775729Y-61615777D01*
X125775726Y-61615779D01*
X125770150Y-61618870D01*
X125765309Y-61623019D01*
X125765305Y-61623022D01*
X125698037Y-61680678D01*
X125622302Y-61745591D01*
X125618391Y-61750633D01*
X125618390Y-61750634D01*
X125593056Y-61783295D01*
X125502954Y-61899453D01*
X125500138Y-61905176D01*
X125500136Y-61905179D01*
X125457989Y-61990833D01*
X125416982Y-62074171D01*
X125415373Y-62080349D01*
X125415372Y-62080351D01*
X125393477Y-62164409D01*
X125367898Y-62262607D01*
X125357707Y-62457064D01*
X110084026Y-62457064D01*
X110101223Y-62427279D01*
X110101224Y-62427278D01*
X110104527Y-62421556D01*
X110163542Y-62239928D01*
X110170850Y-62170401D01*
X110182814Y-62056565D01*
X110183504Y-62050000D01*
X110170633Y-61927540D01*
X110164232Y-61866635D01*
X110164232Y-61866633D01*
X110163542Y-61860072D01*
X110104527Y-61678444D01*
X110094663Y-61661358D01*
X110039868Y-61566452D01*
X110009040Y-61513056D01*
X109990368Y-61492318D01*
X109885675Y-61376045D01*
X109885674Y-61376044D01*
X109881253Y-61371134D01*
X109726752Y-61258882D01*
X109720724Y-61256198D01*
X109720722Y-61256197D01*
X109558319Y-61183891D01*
X109558318Y-61183891D01*
X109552288Y-61181206D01*
X109458887Y-61161353D01*
X109371944Y-61142872D01*
X109371939Y-61142872D01*
X109365487Y-61141500D01*
X109174513Y-61141500D01*
X109168061Y-61142872D01*
X109168056Y-61142872D01*
X109081113Y-61161353D01*
X108987712Y-61181206D01*
X108981682Y-61183891D01*
X108981681Y-61183891D01*
X108819278Y-61256197D01*
X108819276Y-61256198D01*
X108813248Y-61258882D01*
X108658747Y-61371134D01*
X108586772Y-61451071D01*
X108586126Y-61451788D01*
X108525680Y-61489028D01*
X108454697Y-61487676D01*
X108398854Y-61451788D01*
X108375675Y-61426045D01*
X108375674Y-61426044D01*
X108371253Y-61421134D01*
X108242690Y-61327727D01*
X108222094Y-61312763D01*
X108222093Y-61312762D01*
X108216752Y-61308882D01*
X108210724Y-61306198D01*
X108210722Y-61306197D01*
X108048319Y-61233891D01*
X108048318Y-61233891D01*
X108042288Y-61231206D01*
X107948887Y-61211353D01*
X107861944Y-61192872D01*
X107861939Y-61192872D01*
X107855487Y-61191500D01*
X107664513Y-61191500D01*
X107658061Y-61192872D01*
X107658056Y-61192872D01*
X107571113Y-61211353D01*
X107477712Y-61231206D01*
X107471682Y-61233891D01*
X107471681Y-61233891D01*
X107309278Y-61306197D01*
X107309276Y-61306198D01*
X107303248Y-61308882D01*
X107297907Y-61312762D01*
X107297906Y-61312763D01*
X107277310Y-61327727D01*
X107148747Y-61421134D01*
X107144326Y-61426044D01*
X107144325Y-61426045D01*
X107052923Y-61527558D01*
X107020960Y-61563056D01*
X106925473Y-61728444D01*
X106866458Y-61910072D01*
X106846496Y-62100000D01*
X98003000Y-62100000D01*
X98003000Y-61314000D01*
X98023002Y-61245879D01*
X98076658Y-61199386D01*
X98129000Y-61188000D01*
X103486298Y-61188000D01*
X103487069Y-61188002D01*
X103564652Y-61188476D01*
X103573281Y-61186010D01*
X103573286Y-61186009D01*
X103593048Y-61180361D01*
X103609809Y-61176783D01*
X103630152Y-61173870D01*
X103630162Y-61173867D01*
X103639045Y-61172595D01*
X103662395Y-61161979D01*
X103679907Y-61155536D01*
X103695937Y-61150954D01*
X103704565Y-61148488D01*
X103729548Y-61132726D01*
X103744614Y-61124596D01*
X103771510Y-61112367D01*
X103790939Y-61095626D01*
X103805947Y-61084521D01*
X103813113Y-61080000D01*
X103820000Y-61080000D01*
X103820000Y-61075655D01*
X103820039Y-61075630D01*
X103827631Y-61070840D01*
X103847182Y-61048703D01*
X103859374Y-61036659D01*
X103874949Y-61023239D01*
X103874950Y-61023237D01*
X103881747Y-61017381D01*
X103886626Y-61009853D01*
X103886629Y-61009850D01*
X103895696Y-60995861D01*
X103906986Y-60980987D01*
X103918012Y-60968502D01*
X103923956Y-60961772D01*
X103936510Y-60935034D01*
X103944824Y-60920065D01*
X103960893Y-60895273D01*
X103968239Y-60870709D01*
X103974901Y-60853264D01*
X103981983Y-60838179D01*
X103985799Y-60830052D01*
X103990343Y-60800870D01*
X103994126Y-60784151D01*
X104000014Y-60764464D01*
X104000015Y-60764461D01*
X104002587Y-60755859D01*
X104002797Y-60721444D01*
X104002830Y-60720672D01*
X104003000Y-60719577D01*
X104003000Y-60688702D01*
X104003002Y-60687932D01*
X104003452Y-60614284D01*
X104003452Y-60614283D01*
X104003476Y-60610348D01*
X104003092Y-60609004D01*
X104003000Y-60607659D01*
X104003000Y-59040862D01*
X121355497Y-59040862D01*
X121356737Y-59048078D01*
X121356737Y-59048080D01*
X121378277Y-59173435D01*
X121385134Y-59213340D01*
X121422560Y-59301298D01*
X121438964Y-59339848D01*
X121453654Y-59374373D01*
X121557383Y-59515324D01*
X121562961Y-59520063D01*
X121562964Y-59520066D01*
X121685176Y-59623893D01*
X121685180Y-59623896D01*
X121690755Y-59628632D01*
X121756887Y-59662401D01*
X121831676Y-59700590D01*
X121846616Y-59708219D01*
X121853721Y-59709958D01*
X121853725Y-59709959D01*
X121934858Y-59729811D01*
X122016606Y-59749815D01*
X122022206Y-59750162D01*
X122022210Y-59750163D01*
X122025709Y-59750380D01*
X122025718Y-59750380D01*
X122027648Y-59750500D01*
X122153822Y-59750500D01*
X122245369Y-59739827D01*
X122276556Y-59736191D01*
X122276558Y-59736191D01*
X122283828Y-59735343D01*
X122290705Y-59732847D01*
X122290708Y-59732846D01*
X122441452Y-59678128D01*
X122448331Y-59675631D01*
X122594685Y-59579677D01*
X122715040Y-59452628D01*
X122802939Y-59301298D01*
X122839677Y-59180000D01*
X123656496Y-59180000D01*
X123657186Y-59186565D01*
X123674035Y-59346870D01*
X123676458Y-59369928D01*
X123735473Y-59551556D01*
X123830960Y-59716944D01*
X123835378Y-59721851D01*
X123835379Y-59721852D01*
X123848290Y-59736191D01*
X123958747Y-59858866D01*
X124113248Y-59971118D01*
X124119276Y-59973802D01*
X124119278Y-59973803D01*
X124279799Y-60045271D01*
X124287712Y-60048794D01*
X124381112Y-60068647D01*
X124468056Y-60087128D01*
X124468061Y-60087128D01*
X124474513Y-60088500D01*
X124665487Y-60088500D01*
X124671939Y-60087128D01*
X124671944Y-60087128D01*
X124758888Y-60068647D01*
X124852288Y-60048794D01*
X124860201Y-60045271D01*
X125020722Y-59973803D01*
X125020724Y-59973802D01*
X125026752Y-59971118D01*
X125181253Y-59858866D01*
X125291710Y-59736191D01*
X125304621Y-59721852D01*
X125304622Y-59721851D01*
X125309040Y-59716944D01*
X125330370Y-59680000D01*
X126606496Y-59680000D01*
X126626458Y-59869928D01*
X126685473Y-60051556D01*
X126688776Y-60057278D01*
X126688777Y-60057279D01*
X126720568Y-60112342D01*
X126780960Y-60216944D01*
X126785378Y-60221851D01*
X126785379Y-60221852D01*
X126888740Y-60336646D01*
X126908747Y-60358866D01*
X126974433Y-60406590D01*
X127054452Y-60464727D01*
X127063248Y-60471118D01*
X127069276Y-60473802D01*
X127069278Y-60473803D01*
X127231681Y-60546109D01*
X127237712Y-60548794D01*
X127331112Y-60568647D01*
X127418056Y-60587128D01*
X127418061Y-60587128D01*
X127424513Y-60588500D01*
X127615487Y-60588500D01*
X127621939Y-60587128D01*
X127621944Y-60587128D01*
X127708888Y-60568647D01*
X127802288Y-60548794D01*
X127808319Y-60546109D01*
X127970722Y-60473803D01*
X127970724Y-60473802D01*
X127976752Y-60471118D01*
X127985549Y-60464727D01*
X128065567Y-60406590D01*
X128131253Y-60358866D01*
X128151260Y-60336646D01*
X128178228Y-60306695D01*
X135807251Y-60306695D01*
X135807548Y-60311848D01*
X135807548Y-60311851D01*
X135813011Y-60406590D01*
X135820110Y-60529715D01*
X135821247Y-60534761D01*
X135821248Y-60534767D01*
X135833358Y-60588500D01*
X135869222Y-60747639D01*
X135930673Y-60898976D01*
X135942160Y-60927264D01*
X135953266Y-60954616D01*
X135978541Y-60995861D01*
X136062415Y-61132731D01*
X136069987Y-61145088D01*
X136216250Y-61313938D01*
X136220230Y-61317242D01*
X136224981Y-61321187D01*
X136264616Y-61380090D01*
X136266113Y-61451071D01*
X136228997Y-61511593D01*
X136188725Y-61536112D01*
X136109802Y-61565699D01*
X136073295Y-61579385D01*
X135956739Y-61666739D01*
X135869385Y-61783295D01*
X135818255Y-61919684D01*
X135811500Y-61981866D01*
X135811500Y-63778134D01*
X135818255Y-63840316D01*
X135869385Y-63976705D01*
X135956739Y-64093261D01*
X136073295Y-64180615D01*
X136209684Y-64231745D01*
X136271866Y-64238500D01*
X138068134Y-64238500D01*
X138130316Y-64231745D01*
X138266705Y-64180615D01*
X138383261Y-64093261D01*
X138470615Y-63976705D01*
X138521745Y-63840316D01*
X138528500Y-63778134D01*
X138528500Y-61981866D01*
X138521745Y-61919684D01*
X138470615Y-61783295D01*
X138383261Y-61666739D01*
X138266705Y-61579385D01*
X138238400Y-61568774D01*
X138148203Y-61534960D01*
X138091439Y-61492318D01*
X138066739Y-61425756D01*
X138081947Y-61356408D01*
X138103493Y-61327727D01*
X138125098Y-61306197D01*
X138208096Y-61223489D01*
X138230097Y-61192872D01*
X138335435Y-61046277D01*
X138338453Y-61042077D01*
X138347764Y-61023239D01*
X138435136Y-60846453D01*
X138435137Y-60846451D01*
X138437430Y-60841811D01*
X138474568Y-60719577D01*
X138500865Y-60633023D01*
X138500865Y-60633021D01*
X138502370Y-60628069D01*
X138531529Y-60406590D01*
X138533156Y-60340000D01*
X138514852Y-60117361D01*
X138460431Y-59900702D01*
X138371354Y-59695840D01*
X138281715Y-59557279D01*
X138252822Y-59512617D01*
X138252820Y-59512614D01*
X138250014Y-59508277D01*
X138099670Y-59343051D01*
X138095619Y-59339852D01*
X138095615Y-59339848D01*
X137928414Y-59207800D01*
X137928410Y-59207798D01*
X137924359Y-59204598D01*
X137728789Y-59096638D01*
X137723920Y-59094914D01*
X137723916Y-59094912D01*
X137523087Y-59023795D01*
X137523083Y-59023794D01*
X137518212Y-59022069D01*
X137513119Y-59021162D01*
X137513116Y-59021161D01*
X137303373Y-58983800D01*
X137303367Y-58983799D01*
X137298284Y-58982894D01*
X137224452Y-58981992D01*
X137080081Y-58980228D01*
X137080079Y-58980228D01*
X137074911Y-58980165D01*
X136854091Y-59013955D01*
X136641756Y-59083357D01*
X136443607Y-59186507D01*
X136439474Y-59189610D01*
X136439471Y-59189612D01*
X136272831Y-59314729D01*
X136264965Y-59320635D01*
X136110629Y-59482138D01*
X135984743Y-59666680D01*
X135945992Y-59750163D01*
X135895534Y-59858866D01*
X135890688Y-59869305D01*
X135830989Y-60084570D01*
X135807251Y-60306695D01*
X128178228Y-60306695D01*
X128254621Y-60221852D01*
X128254622Y-60221851D01*
X128259040Y-60216944D01*
X128319432Y-60112342D01*
X128351223Y-60057279D01*
X128351224Y-60057278D01*
X128354527Y-60051556D01*
X128413542Y-59869928D01*
X128433504Y-59680000D01*
X128427607Y-59623893D01*
X128414232Y-59496635D01*
X128414232Y-59496633D01*
X128413542Y-59490072D01*
X128354527Y-59308444D01*
X128259040Y-59143056D01*
X128131253Y-59001134D01*
X127976752Y-58888882D01*
X127970724Y-58886198D01*
X127970722Y-58886197D01*
X127808319Y-58813891D01*
X127808318Y-58813891D01*
X127802288Y-58811206D01*
X127686809Y-58786660D01*
X127621944Y-58772872D01*
X127621939Y-58772872D01*
X127615487Y-58771500D01*
X127424513Y-58771500D01*
X127418061Y-58772872D01*
X127418056Y-58772872D01*
X127353191Y-58786660D01*
X127237712Y-58811206D01*
X127231682Y-58813891D01*
X127231681Y-58813891D01*
X127069278Y-58886197D01*
X127069276Y-58886198D01*
X127063248Y-58888882D01*
X126908747Y-59001134D01*
X126780960Y-59143056D01*
X126685473Y-59308444D01*
X126626458Y-59490072D01*
X126625768Y-59496633D01*
X126625768Y-59496635D01*
X126612393Y-59623893D01*
X126606496Y-59680000D01*
X125330370Y-59680000D01*
X125404527Y-59551556D01*
X125463542Y-59369928D01*
X125465966Y-59346870D01*
X125482814Y-59186565D01*
X125483504Y-59180000D01*
X125468112Y-59033551D01*
X125464232Y-58996635D01*
X125464232Y-58996633D01*
X125463542Y-58990072D01*
X125404527Y-58808444D01*
X125383990Y-58772872D01*
X125312341Y-58648774D01*
X125309040Y-58643056D01*
X125181253Y-58501134D01*
X125026752Y-58388882D01*
X125020724Y-58386198D01*
X125020722Y-58386197D01*
X124858319Y-58313891D01*
X124858318Y-58313891D01*
X124852288Y-58311206D01*
X124752715Y-58290041D01*
X124671944Y-58272872D01*
X124671939Y-58272872D01*
X124665487Y-58271500D01*
X124474513Y-58271500D01*
X124468061Y-58272872D01*
X124468056Y-58272872D01*
X124387285Y-58290041D01*
X124287712Y-58311206D01*
X124281682Y-58313891D01*
X124281681Y-58313891D01*
X124119278Y-58386197D01*
X124119276Y-58386198D01*
X124113248Y-58388882D01*
X123958747Y-58501134D01*
X123830960Y-58643056D01*
X123827659Y-58648774D01*
X123756011Y-58772872D01*
X123735473Y-58808444D01*
X123676458Y-58990072D01*
X123675768Y-58996633D01*
X123675768Y-58996635D01*
X123671888Y-59033551D01*
X123656496Y-59180000D01*
X122839677Y-59180000D01*
X122853667Y-59133807D01*
X122864503Y-58959138D01*
X122849788Y-58873498D01*
X122836106Y-58793875D01*
X122836105Y-58793873D01*
X122834866Y-58786660D01*
X122766346Y-58625627D01*
X122662617Y-58484676D01*
X122657039Y-58479937D01*
X122657036Y-58479934D01*
X122534824Y-58376107D01*
X122534820Y-58376104D01*
X122529245Y-58371368D01*
X122445062Y-58328382D01*
X122379900Y-58295108D01*
X122379898Y-58295107D01*
X122373384Y-58291781D01*
X122366279Y-58290042D01*
X122366275Y-58290041D01*
X122272741Y-58267154D01*
X122203394Y-58250185D01*
X122197794Y-58249838D01*
X122197790Y-58249837D01*
X122194291Y-58249620D01*
X122194282Y-58249620D01*
X122192352Y-58249500D01*
X122066178Y-58249500D01*
X121974631Y-58260173D01*
X121943444Y-58263809D01*
X121943442Y-58263809D01*
X121936172Y-58264657D01*
X121929295Y-58267153D01*
X121929292Y-58267154D01*
X121852281Y-58295108D01*
X121771669Y-58324369D01*
X121625315Y-58420323D01*
X121504960Y-58547372D01*
X121417061Y-58698702D01*
X121366333Y-58866193D01*
X121355497Y-59040862D01*
X104003000Y-59040862D01*
X104003000Y-57280000D01*
X130706496Y-57280000D01*
X130726458Y-57469928D01*
X130785473Y-57651556D01*
X130880960Y-57816944D01*
X131008747Y-57958866D01*
X131163248Y-58071118D01*
X131169276Y-58073802D01*
X131169278Y-58073803D01*
X131331681Y-58146109D01*
X131337712Y-58148794D01*
X131431112Y-58168647D01*
X131518056Y-58187128D01*
X131518061Y-58187128D01*
X131524513Y-58188500D01*
X131715487Y-58188500D01*
X131721939Y-58187128D01*
X131721944Y-58187128D01*
X131808888Y-58168647D01*
X131902288Y-58148794D01*
X131908319Y-58146109D01*
X132070722Y-58073803D01*
X132070724Y-58073802D01*
X132076752Y-58071118D01*
X132231253Y-57958866D01*
X132359040Y-57816944D01*
X132454527Y-57651556D01*
X132513542Y-57469928D01*
X132533504Y-57280000D01*
X132513542Y-57090072D01*
X132454527Y-56908444D01*
X132359040Y-56743056D01*
X132262728Y-56636090D01*
X132235675Y-56606045D01*
X132235674Y-56606044D01*
X132231253Y-56601134D01*
X132107960Y-56511556D01*
X132082094Y-56492763D01*
X132082093Y-56492762D01*
X132076752Y-56488882D01*
X132070724Y-56486198D01*
X132070722Y-56486197D01*
X131908319Y-56413891D01*
X131908318Y-56413891D01*
X131902288Y-56411206D01*
X131808887Y-56391353D01*
X131721944Y-56372872D01*
X131721939Y-56372872D01*
X131715487Y-56371500D01*
X131524513Y-56371500D01*
X131518061Y-56372872D01*
X131518056Y-56372872D01*
X131431113Y-56391353D01*
X131337712Y-56411206D01*
X131331682Y-56413891D01*
X131331681Y-56413891D01*
X131169278Y-56486197D01*
X131169276Y-56486198D01*
X131163248Y-56488882D01*
X131157907Y-56492762D01*
X131157906Y-56492763D01*
X131132040Y-56511556D01*
X131008747Y-56601134D01*
X131004326Y-56606044D01*
X131004325Y-56606045D01*
X130977273Y-56636090D01*
X130880960Y-56743056D01*
X130785473Y-56908444D01*
X130726458Y-57090072D01*
X130706496Y-57280000D01*
X104003000Y-57280000D01*
X104003000Y-56140000D01*
X114036496Y-56140000D01*
X114056458Y-56329928D01*
X114115473Y-56511556D01*
X114210960Y-56676944D01*
X114338747Y-56818866D01*
X114437843Y-56890864D01*
X114470691Y-56914729D01*
X114493248Y-56931118D01*
X114499276Y-56933802D01*
X114499278Y-56933803D01*
X114661681Y-57006109D01*
X114667712Y-57008794D01*
X114761113Y-57028647D01*
X114848056Y-57047128D01*
X114848061Y-57047128D01*
X114854513Y-57048500D01*
X115045487Y-57048500D01*
X115051939Y-57047128D01*
X115051944Y-57047128D01*
X115138887Y-57028647D01*
X115232288Y-57008794D01*
X115238319Y-57006109D01*
X115400722Y-56933803D01*
X115400724Y-56933802D01*
X115406752Y-56931118D01*
X115429310Y-56914729D01*
X115462157Y-56890864D01*
X115561253Y-56818866D01*
X115689040Y-56676944D01*
X115784527Y-56511556D01*
X115843542Y-56329928D01*
X115863504Y-56140000D01*
X115862814Y-56133435D01*
X115844232Y-55956635D01*
X115844232Y-55956633D01*
X115843542Y-55950072D01*
X115800666Y-55818115D01*
X134016500Y-55818115D01*
X134057298Y-56010056D01*
X134137112Y-56189321D01*
X134252453Y-56348074D01*
X134257363Y-56352495D01*
X134257364Y-56352496D01*
X134321045Y-56409834D01*
X134398280Y-56479377D01*
X134568220Y-56577492D01*
X134574506Y-56579534D01*
X134574505Y-56579534D01*
X134748566Y-56636090D01*
X134748567Y-56636090D01*
X134754845Y-56638130D01*
X134761408Y-56638820D01*
X134761409Y-56638820D01*
X134784405Y-56641237D01*
X134901078Y-56653500D01*
X135998922Y-56653500D01*
X136115595Y-56641237D01*
X136138591Y-56638820D01*
X136138592Y-56638820D01*
X136145155Y-56638130D01*
X136151433Y-56636090D01*
X136151434Y-56636090D01*
X136325495Y-56579534D01*
X136325494Y-56579534D01*
X136331780Y-56577492D01*
X136501720Y-56479377D01*
X136578956Y-56409834D01*
X136642636Y-56352496D01*
X136642637Y-56352495D01*
X136647547Y-56348074D01*
X136762888Y-56189321D01*
X136842702Y-56010056D01*
X136883500Y-55818115D01*
X136883500Y-55621885D01*
X136880714Y-55608774D01*
X136850375Y-55466045D01*
X136842702Y-55429944D01*
X136806611Y-55348882D01*
X136765573Y-55256709D01*
X136765572Y-55256707D01*
X136762888Y-55250679D01*
X136759007Y-55245337D01*
X136651430Y-55097270D01*
X136651428Y-55097268D01*
X136647547Y-55091926D01*
X136501720Y-54960623D01*
X136331780Y-54862508D01*
X136254059Y-54837255D01*
X136151434Y-54803910D01*
X136151433Y-54803910D01*
X136145155Y-54801870D01*
X136138592Y-54801180D01*
X136138591Y-54801180D01*
X136115595Y-54798763D01*
X135998922Y-54786500D01*
X134901078Y-54786500D01*
X134784405Y-54798763D01*
X134761409Y-54801180D01*
X134761408Y-54801180D01*
X134754845Y-54801870D01*
X134748567Y-54803910D01*
X134748566Y-54803910D01*
X134645941Y-54837255D01*
X134568220Y-54862508D01*
X134398280Y-54960623D01*
X134252453Y-55091926D01*
X134248572Y-55097268D01*
X134248570Y-55097270D01*
X134140993Y-55245337D01*
X134137112Y-55250679D01*
X134134428Y-55256707D01*
X134134427Y-55256709D01*
X134093389Y-55348882D01*
X134057298Y-55429944D01*
X134049625Y-55466045D01*
X134019287Y-55608774D01*
X134016500Y-55621885D01*
X134016500Y-55818115D01*
X115800666Y-55818115D01*
X115784527Y-55768444D01*
X115689040Y-55603056D01*
X115561253Y-55461134D01*
X115406752Y-55348882D01*
X115400724Y-55346198D01*
X115400722Y-55346197D01*
X115238319Y-55273891D01*
X115238318Y-55273891D01*
X115232288Y-55271206D01*
X115133303Y-55250166D01*
X115051944Y-55232872D01*
X115051939Y-55232872D01*
X115045487Y-55231500D01*
X114854513Y-55231500D01*
X114848061Y-55232872D01*
X114848056Y-55232872D01*
X114766697Y-55250166D01*
X114667712Y-55271206D01*
X114661682Y-55273891D01*
X114661681Y-55273891D01*
X114499278Y-55346197D01*
X114499276Y-55346198D01*
X114493248Y-55348882D01*
X114338747Y-55461134D01*
X114210960Y-55603056D01*
X114115473Y-55768444D01*
X114056458Y-55950072D01*
X114055768Y-55956633D01*
X114055768Y-55956635D01*
X114037186Y-56133435D01*
X114036496Y-56140000D01*
X104003000Y-56140000D01*
X104003000Y-54380000D01*
X127706496Y-54380000D01*
X127726458Y-54569928D01*
X127785473Y-54751556D01*
X127788776Y-54757278D01*
X127788777Y-54757279D01*
X127814123Y-54801180D01*
X127880960Y-54916944D01*
X127885378Y-54921851D01*
X127885379Y-54921852D01*
X128004325Y-55053955D01*
X128008747Y-55058866D01*
X128163248Y-55171118D01*
X128169276Y-55173802D01*
X128169278Y-55173803D01*
X128301950Y-55232872D01*
X128337712Y-55248794D01*
X128431113Y-55268647D01*
X128518056Y-55287128D01*
X128518061Y-55287128D01*
X128524513Y-55288500D01*
X128715487Y-55288500D01*
X128721939Y-55287128D01*
X128721944Y-55287128D01*
X128808888Y-55268647D01*
X128902288Y-55248794D01*
X128938050Y-55232872D01*
X129070722Y-55173803D01*
X129070724Y-55173802D01*
X129076752Y-55171118D01*
X129231253Y-55058866D01*
X129235675Y-55053955D01*
X129354621Y-54921852D01*
X129354622Y-54921851D01*
X129359040Y-54916944D01*
X129425877Y-54801180D01*
X129451223Y-54757279D01*
X129451224Y-54757278D01*
X129454527Y-54751556D01*
X129513542Y-54569928D01*
X129533504Y-54380000D01*
X129513542Y-54190072D01*
X129454527Y-54008444D01*
X129359040Y-53843056D01*
X129231253Y-53701134D01*
X129076752Y-53588882D01*
X129070724Y-53586198D01*
X129070722Y-53586197D01*
X128908319Y-53513891D01*
X128908318Y-53513891D01*
X128902288Y-53511206D01*
X128808888Y-53491353D01*
X128721944Y-53472872D01*
X128721939Y-53472872D01*
X128715487Y-53471500D01*
X128524513Y-53471500D01*
X128518061Y-53472872D01*
X128518056Y-53472872D01*
X128431112Y-53491353D01*
X128337712Y-53511206D01*
X128331682Y-53513891D01*
X128331681Y-53513891D01*
X128169278Y-53586197D01*
X128169276Y-53586198D01*
X128163248Y-53588882D01*
X128008747Y-53701134D01*
X127880960Y-53843056D01*
X127785473Y-54008444D01*
X127726458Y-54190072D01*
X127706496Y-54380000D01*
X104003000Y-54380000D01*
X104003000Y-51700000D01*
X114376496Y-51700000D01*
X114396458Y-51889928D01*
X114455473Y-52071556D01*
X114550960Y-52236944D01*
X114678747Y-52378866D01*
X114833248Y-52491118D01*
X114839276Y-52493802D01*
X114839278Y-52493803D01*
X115001681Y-52566109D01*
X115007712Y-52568794D01*
X115174138Y-52604169D01*
X115236611Y-52637897D01*
X115270933Y-52700047D01*
X115273251Y-52740586D01*
X115256496Y-52900000D01*
X115276458Y-53089928D01*
X115335473Y-53271556D01*
X115430960Y-53436944D01*
X115558747Y-53578866D01*
X115713248Y-53691118D01*
X115719276Y-53693802D01*
X115719278Y-53693803D01*
X115881681Y-53766109D01*
X115887712Y-53768794D01*
X115981113Y-53788647D01*
X116068056Y-53807128D01*
X116068061Y-53807128D01*
X116074513Y-53808500D01*
X116265487Y-53808500D01*
X116271939Y-53807128D01*
X116271944Y-53807128D01*
X116358887Y-53788647D01*
X116452288Y-53768794D01*
X116458319Y-53766109D01*
X116620722Y-53693803D01*
X116620724Y-53693802D01*
X116626752Y-53691118D01*
X116781253Y-53578866D01*
X116909040Y-53436944D01*
X117004527Y-53271556D01*
X117063542Y-53089928D01*
X117083504Y-52900000D01*
X117063542Y-52710072D01*
X117004527Y-52528444D01*
X116909040Y-52363056D01*
X116900846Y-52353955D01*
X116785675Y-52226045D01*
X116785674Y-52226044D01*
X116781253Y-52221134D01*
X116626752Y-52108882D01*
X116620724Y-52106198D01*
X116620722Y-52106197D01*
X116458319Y-52033891D01*
X116458318Y-52033891D01*
X116452288Y-52031206D01*
X116285862Y-51995831D01*
X116223389Y-51962103D01*
X116189067Y-51899953D01*
X116186749Y-51859413D01*
X116202814Y-51706564D01*
X116203504Y-51700000D01*
X116190035Y-51571852D01*
X116184232Y-51516635D01*
X116184232Y-51516633D01*
X116183542Y-51510072D01*
X116124527Y-51328444D01*
X116029040Y-51163056D01*
X116016181Y-51148774D01*
X115909236Y-51030000D01*
X116416496Y-51030000D01*
X116417186Y-51036565D01*
X116431082Y-51168774D01*
X116436458Y-51219928D01*
X116495473Y-51401556D01*
X116590960Y-51566944D01*
X116718747Y-51708866D01*
X116873248Y-51821118D01*
X116879276Y-51823802D01*
X116879278Y-51823803D01*
X117041681Y-51896109D01*
X117047712Y-51898794D01*
X117141113Y-51918647D01*
X117228056Y-51937128D01*
X117228061Y-51937128D01*
X117234513Y-51938500D01*
X117425487Y-51938500D01*
X117431939Y-51937128D01*
X117431944Y-51937128D01*
X117518888Y-51918647D01*
X117612288Y-51898794D01*
X117618319Y-51896109D01*
X117780722Y-51823803D01*
X117780724Y-51823802D01*
X117786752Y-51821118D01*
X117941253Y-51708866D01*
X117967244Y-51680000D01*
X127706496Y-51680000D01*
X127726458Y-51869928D01*
X127785473Y-52051556D01*
X127880960Y-52216944D01*
X127885378Y-52221851D01*
X127885379Y-52221852D01*
X127898968Y-52236944D01*
X128008747Y-52358866D01*
X128163248Y-52471118D01*
X128169276Y-52473802D01*
X128169278Y-52473803D01*
X128292005Y-52528444D01*
X128337712Y-52548794D01*
X128431113Y-52568647D01*
X128518056Y-52587128D01*
X128518061Y-52587128D01*
X128524513Y-52588500D01*
X128715487Y-52588500D01*
X128721939Y-52587128D01*
X128721944Y-52587128D01*
X128808887Y-52568647D01*
X128902288Y-52548794D01*
X128947995Y-52528444D01*
X129070722Y-52473803D01*
X129070724Y-52473802D01*
X129076752Y-52471118D01*
X129231253Y-52358866D01*
X129341032Y-52236944D01*
X129354621Y-52221852D01*
X129354622Y-52221851D01*
X129359040Y-52216944D01*
X129454527Y-52051556D01*
X129513542Y-51869928D01*
X129533504Y-51680000D01*
X129522137Y-51571852D01*
X129514232Y-51496635D01*
X129514232Y-51496633D01*
X129513542Y-51490072D01*
X129454527Y-51308444D01*
X129359040Y-51143056D01*
X129231253Y-51001134D01*
X129076752Y-50888882D01*
X129070724Y-50886198D01*
X129070722Y-50886197D01*
X128908319Y-50813891D01*
X128908318Y-50813891D01*
X128902288Y-50811206D01*
X128808888Y-50791353D01*
X128721944Y-50772872D01*
X128721939Y-50772872D01*
X128715487Y-50771500D01*
X128524513Y-50771500D01*
X128518061Y-50772872D01*
X128518056Y-50772872D01*
X128431112Y-50791353D01*
X128337712Y-50811206D01*
X128331682Y-50813891D01*
X128331681Y-50813891D01*
X128169278Y-50886197D01*
X128169276Y-50886198D01*
X128163248Y-50888882D01*
X128008747Y-51001134D01*
X127880960Y-51143056D01*
X127785473Y-51308444D01*
X127726458Y-51490072D01*
X127725768Y-51496633D01*
X127725768Y-51496635D01*
X127717863Y-51571852D01*
X127706496Y-51680000D01*
X117967244Y-51680000D01*
X118069040Y-51566944D01*
X118164527Y-51401556D01*
X118223542Y-51219928D01*
X118228919Y-51168774D01*
X118242814Y-51036565D01*
X118243504Y-51030000D01*
X118223542Y-50840072D01*
X118164527Y-50658444D01*
X118157406Y-50646109D01*
X118114109Y-50571118D01*
X118069040Y-50493056D01*
X118041752Y-50462749D01*
X117945675Y-50356045D01*
X117945674Y-50356044D01*
X117941253Y-50351134D01*
X117786752Y-50238882D01*
X117780724Y-50236198D01*
X117780722Y-50236197D01*
X117618319Y-50163891D01*
X117618318Y-50163891D01*
X117612288Y-50161206D01*
X117518888Y-50141353D01*
X117431944Y-50122872D01*
X117431939Y-50122872D01*
X117425487Y-50121500D01*
X117234513Y-50121500D01*
X117228061Y-50122872D01*
X117228056Y-50122872D01*
X117141112Y-50141353D01*
X117047712Y-50161206D01*
X117041682Y-50163891D01*
X117041681Y-50163891D01*
X116879278Y-50236197D01*
X116879276Y-50236198D01*
X116873248Y-50238882D01*
X116718747Y-50351134D01*
X116714326Y-50356044D01*
X116714325Y-50356045D01*
X116618249Y-50462749D01*
X116590960Y-50493056D01*
X116545891Y-50571118D01*
X116502595Y-50646109D01*
X116495473Y-50658444D01*
X116436458Y-50840072D01*
X116416496Y-51030000D01*
X115909236Y-51030000D01*
X115905675Y-51026045D01*
X115905674Y-51026044D01*
X115901253Y-51021134D01*
X115746752Y-50908882D01*
X115740724Y-50906198D01*
X115740722Y-50906197D01*
X115578319Y-50833891D01*
X115578318Y-50833891D01*
X115572288Y-50831206D01*
X115471741Y-50809834D01*
X115391944Y-50792872D01*
X115391939Y-50792872D01*
X115385487Y-50791500D01*
X115194513Y-50791500D01*
X115188061Y-50792872D01*
X115188056Y-50792872D01*
X115108259Y-50809834D01*
X115007712Y-50831206D01*
X115001682Y-50833891D01*
X115001681Y-50833891D01*
X114839278Y-50906197D01*
X114839276Y-50906198D01*
X114833248Y-50908882D01*
X114678747Y-51021134D01*
X114674326Y-51026044D01*
X114674325Y-51026045D01*
X114563820Y-51148774D01*
X114550960Y-51163056D01*
X114455473Y-51328444D01*
X114396458Y-51510072D01*
X114395768Y-51516633D01*
X114395768Y-51516635D01*
X114389965Y-51571852D01*
X114376496Y-51700000D01*
X104003000Y-51700000D01*
X104003000Y-47660000D01*
X105376496Y-47660000D01*
X105377186Y-47666565D01*
X105394885Y-47834958D01*
X105396458Y-47849928D01*
X105455473Y-48031556D01*
X105550960Y-48196944D01*
X105555378Y-48201851D01*
X105555379Y-48201852D01*
X105669307Y-48328382D01*
X105678747Y-48338866D01*
X105684090Y-48342748D01*
X105688931Y-48346265D01*
X105732284Y-48402489D01*
X105738358Y-48473225D01*
X105708504Y-48532510D01*
X105590960Y-48663056D01*
X105570380Y-48698702D01*
X105523486Y-48779925D01*
X105495473Y-48828444D01*
X105436458Y-49010072D01*
X105416496Y-49200000D01*
X105436458Y-49389928D01*
X105495473Y-49571556D01*
X105498776Y-49577278D01*
X105498777Y-49577279D01*
X105506163Y-49590072D01*
X105590960Y-49736944D01*
X105595378Y-49741851D01*
X105595379Y-49741852D01*
X105667477Y-49821925D01*
X105718747Y-49878866D01*
X105804429Y-49941118D01*
X105844083Y-49969928D01*
X105873248Y-49991118D01*
X105879276Y-49993802D01*
X105879278Y-49993803D01*
X106024591Y-50058500D01*
X106047712Y-50068794D01*
X106141113Y-50088647D01*
X106228056Y-50107128D01*
X106228061Y-50107128D01*
X106234513Y-50108500D01*
X106425487Y-50108500D01*
X106431939Y-50107128D01*
X106431944Y-50107128D01*
X106518887Y-50088647D01*
X106612288Y-50068794D01*
X106635409Y-50058500D01*
X106780722Y-49993803D01*
X106780724Y-49993802D01*
X106786752Y-49991118D01*
X106815918Y-49969928D01*
X106855571Y-49941118D01*
X106941253Y-49878866D01*
X106984127Y-49831250D01*
X107044569Y-49794012D01*
X107115552Y-49795363D01*
X107162070Y-49821925D01*
X107164328Y-49823958D01*
X107168747Y-49828866D01*
X107174089Y-49832747D01*
X107174091Y-49832749D01*
X107242910Y-49882749D01*
X107323248Y-49941118D01*
X107329276Y-49943802D01*
X107329278Y-49943803D01*
X107402057Y-49976206D01*
X107497712Y-50018794D01*
X107591113Y-50038647D01*
X107678056Y-50057128D01*
X107678061Y-50057128D01*
X107684513Y-50058500D01*
X107875487Y-50058500D01*
X107881939Y-50057128D01*
X107881944Y-50057128D01*
X107968887Y-50038647D01*
X108062288Y-50018794D01*
X108157943Y-49976206D01*
X108230722Y-49943803D01*
X108230724Y-49943802D01*
X108236752Y-49941118D01*
X108391253Y-49828866D01*
X108435252Y-49780000D01*
X124806496Y-49780000D01*
X124826458Y-49969928D01*
X124885473Y-50151556D01*
X124888776Y-50157278D01*
X124888777Y-50157279D01*
X124922686Y-50216010D01*
X124980960Y-50316944D01*
X124985378Y-50321851D01*
X124985379Y-50321852D01*
X125104325Y-50453955D01*
X125108747Y-50458866D01*
X125263248Y-50571118D01*
X125269276Y-50573802D01*
X125269278Y-50573803D01*
X125431681Y-50646109D01*
X125437712Y-50648794D01*
X125512680Y-50664729D01*
X125618056Y-50687128D01*
X125618061Y-50687128D01*
X125624513Y-50688500D01*
X125815487Y-50688500D01*
X125821939Y-50687128D01*
X125821944Y-50687128D01*
X125927320Y-50664729D01*
X126002288Y-50648794D01*
X126008319Y-50646109D01*
X126170722Y-50573803D01*
X126170724Y-50573802D01*
X126176752Y-50571118D01*
X126331253Y-50458866D01*
X126335675Y-50453955D01*
X126454621Y-50321852D01*
X126454622Y-50321851D01*
X126459040Y-50316944D01*
X126517314Y-50216010D01*
X126551223Y-50157279D01*
X126551224Y-50157278D01*
X126554527Y-50151556D01*
X126613542Y-49969928D01*
X126633504Y-49780000D01*
X126627774Y-49725481D01*
X126614232Y-49596635D01*
X126614232Y-49596633D01*
X126613542Y-49590072D01*
X126554527Y-49408444D01*
X126547462Y-49396206D01*
X126462341Y-49248774D01*
X126459040Y-49243056D01*
X126426184Y-49206565D01*
X126335675Y-49106045D01*
X126335674Y-49106044D01*
X126331253Y-49101134D01*
X126214951Y-49016635D01*
X126182094Y-48992763D01*
X126182093Y-48992762D01*
X126176752Y-48988882D01*
X126170724Y-48986198D01*
X126170722Y-48986197D01*
X126008319Y-48913891D01*
X126008318Y-48913891D01*
X126002288Y-48911206D01*
X125903303Y-48890166D01*
X125821944Y-48872872D01*
X125821939Y-48872872D01*
X125815487Y-48871500D01*
X125624513Y-48871500D01*
X125618061Y-48872872D01*
X125618056Y-48872872D01*
X125536697Y-48890166D01*
X125437712Y-48911206D01*
X125431682Y-48913891D01*
X125431681Y-48913891D01*
X125269278Y-48986197D01*
X125269276Y-48986198D01*
X125263248Y-48988882D01*
X125257907Y-48992762D01*
X125257906Y-48992763D01*
X125225049Y-49016635D01*
X125108747Y-49101134D01*
X125104326Y-49106044D01*
X125104325Y-49106045D01*
X125013817Y-49206565D01*
X124980960Y-49243056D01*
X124977659Y-49248774D01*
X124892539Y-49396206D01*
X124885473Y-49408444D01*
X124826458Y-49590072D01*
X124825768Y-49596633D01*
X124825768Y-49596635D01*
X124812226Y-49725481D01*
X124806496Y-49780000D01*
X108435252Y-49780000D01*
X108461922Y-49750380D01*
X108514621Y-49691852D01*
X108514622Y-49691851D01*
X108519040Y-49686944D01*
X108614527Y-49521556D01*
X108673542Y-49339928D01*
X108693504Y-49150000D01*
X108682033Y-49040862D01*
X121355497Y-49040862D01*
X121356737Y-49048078D01*
X121356737Y-49048080D01*
X121382842Y-49200000D01*
X121385134Y-49213340D01*
X121453654Y-49374373D01*
X121557383Y-49515324D01*
X121562961Y-49520063D01*
X121562964Y-49520066D01*
X121685176Y-49623893D01*
X121685180Y-49623896D01*
X121690755Y-49628632D01*
X121771572Y-49669899D01*
X121804952Y-49686944D01*
X121846616Y-49708219D01*
X121853721Y-49709958D01*
X121853725Y-49709959D01*
X121917160Y-49725481D01*
X122016606Y-49749815D01*
X122022206Y-49750162D01*
X122022210Y-49750163D01*
X122025709Y-49750380D01*
X122025718Y-49750380D01*
X122027648Y-49750500D01*
X122153822Y-49750500D01*
X122245369Y-49739827D01*
X122276556Y-49736191D01*
X122276558Y-49736191D01*
X122283828Y-49735343D01*
X122290705Y-49732847D01*
X122290708Y-49732846D01*
X122441452Y-49678128D01*
X122448331Y-49675631D01*
X122594685Y-49579677D01*
X122715040Y-49452628D01*
X122802939Y-49301298D01*
X122853667Y-49133807D01*
X122864503Y-48959138D01*
X122859239Y-48928500D01*
X122836106Y-48793875D01*
X122836105Y-48793873D01*
X122834866Y-48786660D01*
X122766346Y-48625627D01*
X122662617Y-48484676D01*
X122657039Y-48479937D01*
X122657036Y-48479934D01*
X122534824Y-48376107D01*
X122534820Y-48376104D01*
X122529245Y-48371368D01*
X122443323Y-48327494D01*
X122379900Y-48295108D01*
X122379898Y-48295107D01*
X122373384Y-48291781D01*
X122366279Y-48290042D01*
X122366275Y-48290041D01*
X122272741Y-48267154D01*
X122203394Y-48250185D01*
X122197794Y-48249838D01*
X122197790Y-48249837D01*
X122194291Y-48249620D01*
X122194282Y-48249620D01*
X122192352Y-48249500D01*
X122066178Y-48249500D01*
X121974631Y-48260173D01*
X121943444Y-48263809D01*
X121943442Y-48263809D01*
X121936172Y-48264657D01*
X121929295Y-48267153D01*
X121929292Y-48267154D01*
X121785391Y-48319388D01*
X121771669Y-48324369D01*
X121625315Y-48420323D01*
X121504960Y-48547372D01*
X121417061Y-48698702D01*
X121366333Y-48866193D01*
X121355497Y-49040862D01*
X108682033Y-49040862D01*
X108673542Y-48960072D01*
X108614527Y-48778444D01*
X108519040Y-48613056D01*
X108466440Y-48554637D01*
X108395675Y-48476045D01*
X108395674Y-48476044D01*
X108391253Y-48471134D01*
X108344799Y-48437383D01*
X108301445Y-48381160D01*
X108295370Y-48310424D01*
X108325222Y-48251139D01*
X108419040Y-48146944D01*
X108492331Y-48020000D01*
X115176496Y-48020000D01*
X115177186Y-48026565D01*
X115190354Y-48151847D01*
X115196458Y-48209928D01*
X115255473Y-48391556D01*
X115258776Y-48397278D01*
X115258777Y-48397279D01*
X115281931Y-48437383D01*
X115350960Y-48556944D01*
X115355378Y-48561851D01*
X115355379Y-48561852D01*
X115451652Y-48668774D01*
X115478747Y-48698866D01*
X115488167Y-48705710D01*
X115599585Y-48786660D01*
X115633248Y-48811118D01*
X115639276Y-48813802D01*
X115639278Y-48813803D01*
X115771950Y-48872872D01*
X115807712Y-48888794D01*
X115901113Y-48908647D01*
X115988056Y-48927128D01*
X115988061Y-48927128D01*
X115994513Y-48928500D01*
X116185487Y-48928500D01*
X116191939Y-48927128D01*
X116191944Y-48927128D01*
X116278887Y-48908647D01*
X116372288Y-48888794D01*
X116408050Y-48872872D01*
X116540722Y-48813803D01*
X116540724Y-48813802D01*
X116546752Y-48811118D01*
X116580416Y-48786660D01*
X116691833Y-48705710D01*
X116701253Y-48698866D01*
X116728348Y-48668774D01*
X116824621Y-48561852D01*
X116824622Y-48561851D01*
X116829040Y-48556944D01*
X116898069Y-48437383D01*
X116921223Y-48397279D01*
X116921224Y-48397278D01*
X116924527Y-48391556D01*
X116983542Y-48209928D01*
X116989647Y-48151847D01*
X117002814Y-48026565D01*
X117003504Y-48020000D01*
X116983542Y-47830072D01*
X116924527Y-47648444D01*
X116829040Y-47483056D01*
X116811697Y-47463794D01*
X116705675Y-47346045D01*
X116705674Y-47346044D01*
X116701253Y-47341134D01*
X116602157Y-47269136D01*
X116552094Y-47232763D01*
X116552093Y-47232762D01*
X116546752Y-47228882D01*
X116540724Y-47226198D01*
X116540722Y-47226197D01*
X116432727Y-47178115D01*
X134016500Y-47178115D01*
X134017872Y-47184568D01*
X134017872Y-47184572D01*
X134029323Y-47238444D01*
X134057298Y-47370056D01*
X134059983Y-47376086D01*
X134059983Y-47376087D01*
X134110155Y-47488774D01*
X134137112Y-47549321D01*
X134140992Y-47554662D01*
X134140993Y-47554663D01*
X134213696Y-47654729D01*
X134252453Y-47708074D01*
X134398280Y-47839377D01*
X134568220Y-47937492D01*
X134574506Y-47939534D01*
X134574505Y-47939534D01*
X134748566Y-47996090D01*
X134748567Y-47996090D01*
X134754845Y-47998130D01*
X134761408Y-47998820D01*
X134761409Y-47998820D01*
X134784405Y-48001237D01*
X134901078Y-48013500D01*
X135998922Y-48013500D01*
X136115595Y-48001237D01*
X136138591Y-47998820D01*
X136138592Y-47998820D01*
X136145155Y-47998130D01*
X136151433Y-47996090D01*
X136151434Y-47996090D01*
X136325495Y-47939534D01*
X136325494Y-47939534D01*
X136331780Y-47937492D01*
X136501720Y-47839377D01*
X136647547Y-47708074D01*
X136686305Y-47654729D01*
X136759007Y-47554663D01*
X136759008Y-47554662D01*
X136762888Y-47549321D01*
X136789846Y-47488774D01*
X136840017Y-47376087D01*
X136840017Y-47376086D01*
X136842702Y-47370056D01*
X136870677Y-47238444D01*
X136882128Y-47184572D01*
X136882128Y-47184568D01*
X136883500Y-47178115D01*
X136883500Y-46981885D01*
X136880601Y-46968242D01*
X136844074Y-46796401D01*
X136842702Y-46789944D01*
X136840017Y-46783913D01*
X136765573Y-46616709D01*
X136765572Y-46616707D01*
X136762888Y-46610679D01*
X136647547Y-46451926D01*
X136501720Y-46320623D01*
X136331780Y-46222508D01*
X136254059Y-46197255D01*
X136151434Y-46163910D01*
X136151433Y-46163910D01*
X136145155Y-46161870D01*
X136138592Y-46161180D01*
X136138591Y-46161180D01*
X136115595Y-46158763D01*
X135998922Y-46146500D01*
X134901078Y-46146500D01*
X134784405Y-46158763D01*
X134761409Y-46161180D01*
X134761408Y-46161180D01*
X134754845Y-46161870D01*
X134748567Y-46163910D01*
X134748566Y-46163910D01*
X134645941Y-46197255D01*
X134568220Y-46222508D01*
X134398280Y-46320623D01*
X134252453Y-46451926D01*
X134137112Y-46610679D01*
X134134428Y-46616707D01*
X134134427Y-46616709D01*
X134059983Y-46783913D01*
X134057298Y-46789944D01*
X134055926Y-46796401D01*
X134019400Y-46968242D01*
X134016500Y-46981885D01*
X134016500Y-47178115D01*
X116432727Y-47178115D01*
X116378319Y-47153891D01*
X116378318Y-47153891D01*
X116372288Y-47151206D01*
X116278888Y-47131353D01*
X116191944Y-47112872D01*
X116191939Y-47112872D01*
X116185487Y-47111500D01*
X115994513Y-47111500D01*
X115988061Y-47112872D01*
X115988056Y-47112872D01*
X115901112Y-47131353D01*
X115807712Y-47151206D01*
X115801682Y-47153891D01*
X115801681Y-47153891D01*
X115639278Y-47226197D01*
X115639276Y-47226198D01*
X115633248Y-47228882D01*
X115627907Y-47232762D01*
X115627906Y-47232763D01*
X115577843Y-47269136D01*
X115478747Y-47341134D01*
X115474326Y-47346044D01*
X115474325Y-47346045D01*
X115368304Y-47463794D01*
X115350960Y-47483056D01*
X115255473Y-47648444D01*
X115196458Y-47830072D01*
X115176496Y-48020000D01*
X108492331Y-48020000D01*
X108514527Y-47981556D01*
X108573542Y-47799928D01*
X108593504Y-47610000D01*
X108587688Y-47554663D01*
X108574232Y-47426635D01*
X108574232Y-47426633D01*
X108573542Y-47420072D01*
X108514527Y-47238444D01*
X108509007Y-47228882D01*
X108451209Y-47128774D01*
X108419040Y-47073056D01*
X108397511Y-47049145D01*
X108295675Y-46936045D01*
X108295674Y-46936044D01*
X108291253Y-46931134D01*
X108136752Y-46818882D01*
X108130724Y-46816198D01*
X108130722Y-46816197D01*
X107968319Y-46743891D01*
X107968318Y-46743891D01*
X107962288Y-46741206D01*
X107868888Y-46721353D01*
X107781944Y-46702872D01*
X107781939Y-46702872D01*
X107775487Y-46701500D01*
X107584513Y-46701500D01*
X107578061Y-46702872D01*
X107578056Y-46702872D01*
X107491112Y-46721353D01*
X107397712Y-46741206D01*
X107391682Y-46743891D01*
X107391681Y-46743891D01*
X107229278Y-46816197D01*
X107229276Y-46816198D01*
X107223248Y-46818882D01*
X107068747Y-46931134D01*
X107051204Y-46950617D01*
X106990762Y-46987855D01*
X106919779Y-46986505D01*
X106883509Y-46968242D01*
X106752094Y-46872763D01*
X106752093Y-46872762D01*
X106746752Y-46868882D01*
X106740724Y-46866198D01*
X106740722Y-46866197D01*
X106578319Y-46793891D01*
X106578318Y-46793891D01*
X106572288Y-46791206D01*
X106478888Y-46771353D01*
X106391944Y-46752872D01*
X106391939Y-46752872D01*
X106385487Y-46751500D01*
X106194513Y-46751500D01*
X106188061Y-46752872D01*
X106188056Y-46752872D01*
X106101112Y-46771353D01*
X106007712Y-46791206D01*
X106001682Y-46793891D01*
X106001681Y-46793891D01*
X105839278Y-46866197D01*
X105839276Y-46866198D01*
X105833248Y-46868882D01*
X105678747Y-46981134D01*
X105674326Y-46986044D01*
X105674325Y-46986045D01*
X105590832Y-47078774D01*
X105550960Y-47123056D01*
X105522984Y-47171512D01*
X105487621Y-47232763D01*
X105455473Y-47288444D01*
X105396458Y-47470072D01*
X105376496Y-47660000D01*
X104003000Y-47660000D01*
X104003000Y-44080000D01*
X126206496Y-44080000D01*
X126207186Y-44086565D01*
X126216608Y-44176206D01*
X126226458Y-44269928D01*
X126285473Y-44451556D01*
X126380960Y-44616944D01*
X126385378Y-44621851D01*
X126385379Y-44621852D01*
X126444165Y-44687140D01*
X126508747Y-44758866D01*
X126663248Y-44871118D01*
X126669276Y-44873802D01*
X126669278Y-44873803D01*
X126831681Y-44946109D01*
X126837712Y-44948794D01*
X126931112Y-44968647D01*
X127018056Y-44987128D01*
X127018061Y-44987128D01*
X127024513Y-44988500D01*
X127215487Y-44988500D01*
X127221939Y-44987128D01*
X127221944Y-44987128D01*
X127308888Y-44968647D01*
X127402288Y-44948794D01*
X127408319Y-44946109D01*
X127570722Y-44873803D01*
X127570724Y-44873802D01*
X127576752Y-44871118D01*
X127731253Y-44758866D01*
X127779967Y-44704764D01*
X127840411Y-44667526D01*
X127911395Y-44668878D01*
X127947662Y-44687140D01*
X128051729Y-44762749D01*
X128063248Y-44771118D01*
X128069276Y-44773802D01*
X128069278Y-44773803D01*
X128231681Y-44846109D01*
X128237712Y-44848794D01*
X128324479Y-44867237D01*
X128418056Y-44887128D01*
X128418061Y-44887128D01*
X128424513Y-44888500D01*
X128615487Y-44888500D01*
X128621939Y-44887128D01*
X128621944Y-44887128D01*
X128715521Y-44867237D01*
X128802288Y-44848794D01*
X128918752Y-44796941D01*
X128989118Y-44787507D01*
X129021246Y-44796940D01*
X129137712Y-44848794D01*
X129224479Y-44867237D01*
X129318056Y-44887128D01*
X129318061Y-44887128D01*
X129324513Y-44888500D01*
X129515487Y-44888500D01*
X129521939Y-44887128D01*
X129521944Y-44887128D01*
X129615521Y-44867237D01*
X129702288Y-44848794D01*
X129708319Y-44846109D01*
X129870722Y-44773803D01*
X129870724Y-44773802D01*
X129876752Y-44771118D01*
X129893616Y-44758866D01*
X129932157Y-44730864D01*
X130031253Y-44658866D01*
X130159040Y-44516944D01*
X130254527Y-44351556D01*
X130313542Y-44169928D01*
X130316046Y-44146109D01*
X130332814Y-43986565D01*
X130333504Y-43980000D01*
X130329942Y-43946109D01*
X130314232Y-43796635D01*
X130314232Y-43796633D01*
X130313542Y-43790072D01*
X130254527Y-43608444D01*
X130234695Y-43574094D01*
X130217958Y-43505099D01*
X130241179Y-43438007D01*
X130250170Y-43426795D01*
X130259040Y-43416944D01*
X130354527Y-43251556D01*
X130413542Y-43069928D01*
X130427552Y-42936635D01*
X130432814Y-42886565D01*
X130433504Y-42880000D01*
X130422497Y-42775271D01*
X130414232Y-42696635D01*
X130414232Y-42696633D01*
X130413542Y-42690072D01*
X130354527Y-42508444D01*
X130259040Y-42343056D01*
X130157245Y-42230000D01*
X130606496Y-42230000D01*
X130607186Y-42236565D01*
X130625415Y-42410000D01*
X130626458Y-42419928D01*
X130685473Y-42601556D01*
X130780960Y-42766944D01*
X130781924Y-42768015D01*
X130805137Y-42833080D01*
X130790160Y-42896114D01*
X130791461Y-42896693D01*
X130788777Y-42902721D01*
X130785473Y-42908444D01*
X130726458Y-43090072D01*
X130725768Y-43096633D01*
X130725768Y-43096635D01*
X130713871Y-43209834D01*
X130706496Y-43280000D01*
X130707186Y-43286565D01*
X130725129Y-43457279D01*
X130726458Y-43469928D01*
X130785473Y-43651556D01*
X130880960Y-43816944D01*
X130885378Y-43821851D01*
X130885379Y-43821852D01*
X130999678Y-43948794D01*
X131008747Y-43958866D01*
X131163248Y-44071118D01*
X131169276Y-44073802D01*
X131169278Y-44073803D01*
X131331681Y-44146109D01*
X131337712Y-44148794D01*
X131406263Y-44163365D01*
X131518056Y-44187128D01*
X131518061Y-44187128D01*
X131524513Y-44188500D01*
X131715487Y-44188500D01*
X131721939Y-44187128D01*
X131721944Y-44187128D01*
X131833737Y-44163365D01*
X131902288Y-44148794D01*
X131908319Y-44146109D01*
X132070722Y-44073803D01*
X132070724Y-44073802D01*
X132076752Y-44071118D01*
X132231253Y-43958866D01*
X132240322Y-43948794D01*
X132354621Y-43821852D01*
X132354622Y-43821851D01*
X132359040Y-43816944D01*
X132454527Y-43651556D01*
X132513542Y-43469928D01*
X132514872Y-43457279D01*
X132532814Y-43286565D01*
X132533504Y-43280000D01*
X132526129Y-43209834D01*
X132514232Y-43096635D01*
X132514232Y-43096633D01*
X132513542Y-43090072D01*
X132454527Y-42908444D01*
X132359040Y-42743056D01*
X132358076Y-42741985D01*
X132334863Y-42676920D01*
X132349840Y-42613886D01*
X132348539Y-42613307D01*
X132351223Y-42607279D01*
X132354527Y-42601556D01*
X132413542Y-42419928D01*
X132414586Y-42410000D01*
X132432814Y-42236565D01*
X132433504Y-42230000D01*
X132431529Y-42211206D01*
X132414232Y-42046635D01*
X132414232Y-42046633D01*
X132413542Y-42040072D01*
X132354527Y-41858444D01*
X132259040Y-41693056D01*
X132131253Y-41551134D01*
X131976752Y-41438882D01*
X131970724Y-41436198D01*
X131970722Y-41436197D01*
X131808319Y-41363891D01*
X131808318Y-41363891D01*
X131802288Y-41361206D01*
X131708888Y-41341353D01*
X131621944Y-41322872D01*
X131621939Y-41322872D01*
X131615487Y-41321500D01*
X131424513Y-41321500D01*
X131418061Y-41322872D01*
X131418056Y-41322872D01*
X131331112Y-41341353D01*
X131237712Y-41361206D01*
X131231682Y-41363891D01*
X131231681Y-41363891D01*
X131069278Y-41436197D01*
X131069276Y-41436198D01*
X131063248Y-41438882D01*
X130908747Y-41551134D01*
X130780960Y-41693056D01*
X130685473Y-41858444D01*
X130626458Y-42040072D01*
X130625768Y-42046633D01*
X130625768Y-42046635D01*
X130608471Y-42211206D01*
X130606496Y-42230000D01*
X130157245Y-42230000D01*
X130142740Y-42213891D01*
X130135675Y-42206045D01*
X130135674Y-42206044D01*
X130131253Y-42201134D01*
X129976752Y-42088882D01*
X129970724Y-42086198D01*
X129970722Y-42086197D01*
X129808319Y-42013891D01*
X129808318Y-42013891D01*
X129802288Y-42011206D01*
X129708888Y-41991353D01*
X129621944Y-41972872D01*
X129621939Y-41972872D01*
X129615487Y-41971500D01*
X129424513Y-41971500D01*
X129418061Y-41972872D01*
X129418056Y-41972872D01*
X129331112Y-41991353D01*
X129237712Y-42011206D01*
X129231682Y-42013891D01*
X129231681Y-42013891D01*
X129069278Y-42086197D01*
X129069276Y-42086198D01*
X129063248Y-42088882D01*
X128908747Y-42201134D01*
X128904326Y-42206044D01*
X128904325Y-42206045D01*
X128897261Y-42213891D01*
X128780960Y-42343056D01*
X128685473Y-42508444D01*
X128626458Y-42690072D01*
X128625768Y-42696633D01*
X128625768Y-42696635D01*
X128617503Y-42775271D01*
X128606496Y-42880000D01*
X128607186Y-42886565D01*
X128611996Y-42932330D01*
X128599224Y-43002168D01*
X128550722Y-43054015D01*
X128486686Y-43071500D01*
X128424513Y-43071500D01*
X128418061Y-43072872D01*
X128418056Y-43072872D01*
X128353638Y-43086565D01*
X128237712Y-43111206D01*
X128231682Y-43113891D01*
X128231681Y-43113891D01*
X128069278Y-43186197D01*
X128069276Y-43186198D01*
X128063248Y-43188882D01*
X128057907Y-43192762D01*
X128057906Y-43192763D01*
X128042711Y-43203803D01*
X127908747Y-43301134D01*
X127860033Y-43355236D01*
X127799589Y-43392474D01*
X127728605Y-43391122D01*
X127692338Y-43372860D01*
X127582094Y-43292763D01*
X127582093Y-43292762D01*
X127576752Y-43288882D01*
X127570724Y-43286198D01*
X127570722Y-43286197D01*
X127408319Y-43213891D01*
X127408318Y-43213891D01*
X127402288Y-43211206D01*
X127308887Y-43191353D01*
X127221944Y-43172872D01*
X127221939Y-43172872D01*
X127215487Y-43171500D01*
X127024513Y-43171500D01*
X127018061Y-43172872D01*
X127018056Y-43172872D01*
X126931113Y-43191353D01*
X126837712Y-43211206D01*
X126831682Y-43213891D01*
X126831681Y-43213891D01*
X126669278Y-43286197D01*
X126669276Y-43286198D01*
X126663248Y-43288882D01*
X126657907Y-43292762D01*
X126657906Y-43292763D01*
X126643314Y-43303365D01*
X126508747Y-43401134D01*
X126504326Y-43406044D01*
X126504325Y-43406045D01*
X126415137Y-43505099D01*
X126380960Y-43543056D01*
X126285473Y-43708444D01*
X126226458Y-43890072D01*
X126225768Y-43896633D01*
X126225768Y-43896635D01*
X126218819Y-43962749D01*
X126206496Y-44080000D01*
X104003000Y-44080000D01*
X104003000Y-43120000D01*
X109176496Y-43120000D01*
X109177186Y-43126565D01*
X109195126Y-43297251D01*
X109196458Y-43309928D01*
X109255473Y-43491556D01*
X109350960Y-43656944D01*
X109478747Y-43798866D01*
X109572851Y-43867237D01*
X109581889Y-43873803D01*
X109633248Y-43911118D01*
X109639276Y-43913802D01*
X109639278Y-43913803D01*
X109773215Y-43973435D01*
X109807712Y-43988794D01*
X109901112Y-44008647D01*
X109988056Y-44027128D01*
X109988061Y-44027128D01*
X109994513Y-44028500D01*
X110185487Y-44028500D01*
X110191939Y-44027128D01*
X110191944Y-44027128D01*
X110278888Y-44008647D01*
X110372288Y-43988794D01*
X110406785Y-43973435D01*
X110540722Y-43913803D01*
X110540724Y-43913802D01*
X110546752Y-43911118D01*
X110598112Y-43873803D01*
X110607149Y-43867237D01*
X110701253Y-43798866D01*
X110829040Y-43656944D01*
X110924527Y-43491556D01*
X110983542Y-43309928D01*
X110984875Y-43297251D01*
X111002814Y-43126565D01*
X111003504Y-43120000D01*
X111000640Y-43092749D01*
X110999300Y-43080000D01*
X120656496Y-43080000D01*
X120657186Y-43086565D01*
X120675129Y-43257279D01*
X120676458Y-43269928D01*
X120735473Y-43451556D01*
X120830960Y-43616944D01*
X120835378Y-43621851D01*
X120835379Y-43621852D01*
X120862125Y-43651556D01*
X120958747Y-43758866D01*
X121113248Y-43871118D01*
X121119276Y-43873802D01*
X121119278Y-43873803D01*
X121281681Y-43946109D01*
X121287712Y-43948794D01*
X121353365Y-43962749D01*
X121468056Y-43987128D01*
X121468061Y-43987128D01*
X121474513Y-43988500D01*
X121665487Y-43988500D01*
X121671939Y-43987128D01*
X121671944Y-43987128D01*
X121786635Y-43962749D01*
X121852288Y-43948794D01*
X121858319Y-43946109D01*
X122020722Y-43873803D01*
X122020724Y-43873802D01*
X122026752Y-43871118D01*
X122181253Y-43758866D01*
X122277875Y-43651556D01*
X122304621Y-43621852D01*
X122304622Y-43621851D01*
X122309040Y-43616944D01*
X122404527Y-43451556D01*
X122463542Y-43269928D01*
X122464872Y-43257279D01*
X122482814Y-43086565D01*
X122483504Y-43080000D01*
X122475324Y-43002168D01*
X122464232Y-42896635D01*
X122464232Y-42896633D01*
X122463542Y-42890072D01*
X122404527Y-42708444D01*
X122309040Y-42543056D01*
X122189236Y-42410000D01*
X123646496Y-42410000D01*
X123647186Y-42416565D01*
X123665286Y-42588774D01*
X123666458Y-42599928D01*
X123725473Y-42781556D01*
X123728776Y-42787278D01*
X123728777Y-42787279D01*
X123750718Y-42825281D01*
X123820960Y-42946944D01*
X123825378Y-42951851D01*
X123825379Y-42951852D01*
X123934346Y-43072872D01*
X123948747Y-43088866D01*
X123983191Y-43113891D01*
X124095143Y-43195229D01*
X124103248Y-43201118D01*
X124109276Y-43203802D01*
X124109278Y-43203803D01*
X124265675Y-43273435D01*
X124277712Y-43278794D01*
X124343431Y-43292763D01*
X124458056Y-43317128D01*
X124458061Y-43317128D01*
X124464513Y-43318500D01*
X124655487Y-43318500D01*
X124661939Y-43317128D01*
X124661944Y-43317128D01*
X124776569Y-43292763D01*
X124842288Y-43278794D01*
X124854325Y-43273435D01*
X125010722Y-43203803D01*
X125010724Y-43203802D01*
X125016752Y-43201118D01*
X125024858Y-43195229D01*
X125136809Y-43113891D01*
X125171253Y-43088866D01*
X125185654Y-43072872D01*
X125294621Y-42951852D01*
X125294622Y-42951851D01*
X125299040Y-42946944D01*
X125369282Y-42825281D01*
X125391223Y-42787279D01*
X125391224Y-42787278D01*
X125394527Y-42781556D01*
X125453542Y-42599928D01*
X125454715Y-42588774D01*
X125472814Y-42416565D01*
X125473504Y-42410000D01*
X125460492Y-42286197D01*
X125454232Y-42226635D01*
X125454232Y-42226633D01*
X125453542Y-42220072D01*
X125394527Y-42038444D01*
X125299040Y-41873056D01*
X125291543Y-41864729D01*
X125175675Y-41736045D01*
X125175674Y-41736044D01*
X125171253Y-41731134D01*
X125056196Y-41647540D01*
X125022094Y-41622763D01*
X125022093Y-41622762D01*
X125016752Y-41618882D01*
X125010724Y-41616198D01*
X125010722Y-41616197D01*
X124848319Y-41543891D01*
X124848318Y-41543891D01*
X124842288Y-41541206D01*
X124748887Y-41521353D01*
X124661944Y-41502872D01*
X124661939Y-41502872D01*
X124655487Y-41501500D01*
X124464513Y-41501500D01*
X124458061Y-41502872D01*
X124458056Y-41502872D01*
X124371113Y-41521353D01*
X124277712Y-41541206D01*
X124271682Y-41543891D01*
X124271681Y-41543891D01*
X124109278Y-41616197D01*
X124109276Y-41616198D01*
X124103248Y-41618882D01*
X124097907Y-41622762D01*
X124097906Y-41622763D01*
X124063804Y-41647540D01*
X123948747Y-41731134D01*
X123944326Y-41736044D01*
X123944325Y-41736045D01*
X123828458Y-41864729D01*
X123820960Y-41873056D01*
X123725473Y-42038444D01*
X123666458Y-42220072D01*
X123665768Y-42226633D01*
X123665768Y-42226635D01*
X123659508Y-42286197D01*
X123646496Y-42410000D01*
X122189236Y-42410000D01*
X122181253Y-42401134D01*
X122081807Y-42328882D01*
X122032094Y-42292763D01*
X122032093Y-42292762D01*
X122026752Y-42288882D01*
X122020724Y-42286198D01*
X122020722Y-42286197D01*
X121858319Y-42213891D01*
X121858318Y-42213891D01*
X121852288Y-42211206D01*
X121758887Y-42191353D01*
X121671944Y-42172872D01*
X121671939Y-42172872D01*
X121665487Y-42171500D01*
X121474513Y-42171500D01*
X121468061Y-42172872D01*
X121468056Y-42172872D01*
X121381112Y-42191353D01*
X121287712Y-42211206D01*
X121281682Y-42213891D01*
X121281681Y-42213891D01*
X121119278Y-42286197D01*
X121119276Y-42286198D01*
X121113248Y-42288882D01*
X121107907Y-42292762D01*
X121107906Y-42292763D01*
X121058193Y-42328882D01*
X120958747Y-42401134D01*
X120830960Y-42543056D01*
X120735473Y-42708444D01*
X120676458Y-42890072D01*
X120675768Y-42896633D01*
X120675768Y-42896635D01*
X120664676Y-43002168D01*
X120656496Y-43080000D01*
X110999300Y-43080000D01*
X110984232Y-42936635D01*
X110984232Y-42936633D01*
X110983542Y-42930072D01*
X110924527Y-42748444D01*
X110829040Y-42583056D01*
X110798173Y-42548774D01*
X110705675Y-42446045D01*
X110705674Y-42446044D01*
X110701253Y-42441134D01*
X110546752Y-42328882D01*
X110540724Y-42326198D01*
X110540722Y-42326197D01*
X110378319Y-42253891D01*
X110378318Y-42253891D01*
X110372288Y-42251206D01*
X110272522Y-42230000D01*
X110191944Y-42212872D01*
X110191939Y-42212872D01*
X110185487Y-42211500D01*
X109994513Y-42211500D01*
X109988061Y-42212872D01*
X109988056Y-42212872D01*
X109907478Y-42230000D01*
X109807712Y-42251206D01*
X109801682Y-42253891D01*
X109801681Y-42253891D01*
X109639278Y-42326197D01*
X109639276Y-42326198D01*
X109633248Y-42328882D01*
X109478747Y-42441134D01*
X109474326Y-42446044D01*
X109474325Y-42446045D01*
X109381828Y-42548774D01*
X109350960Y-42583056D01*
X109255473Y-42748444D01*
X109196458Y-42930072D01*
X109195768Y-42936633D01*
X109195768Y-42936635D01*
X109179360Y-43092749D01*
X109176496Y-43120000D01*
X104003000Y-43120000D01*
X104003000Y-41130000D01*
X113556496Y-41130000D01*
X113557186Y-41136565D01*
X113564328Y-41204513D01*
X113576458Y-41319928D01*
X113635473Y-41501556D01*
X113730960Y-41666944D01*
X113735378Y-41671851D01*
X113735379Y-41671852D01*
X113788757Y-41731134D01*
X113858747Y-41808866D01*
X114013248Y-41921118D01*
X114019276Y-41923802D01*
X114019278Y-41923803D01*
X114126408Y-41971500D01*
X114187712Y-41998794D01*
X114281112Y-42018647D01*
X114368056Y-42037128D01*
X114368061Y-42037128D01*
X114374513Y-42038500D01*
X114565487Y-42038500D01*
X114571939Y-42037128D01*
X114571944Y-42037128D01*
X114658887Y-42018647D01*
X114752288Y-41998794D01*
X114813592Y-41971500D01*
X114920722Y-41923803D01*
X114920724Y-41923802D01*
X114926752Y-41921118D01*
X115081253Y-41808866D01*
X115151243Y-41731134D01*
X115204621Y-41671852D01*
X115204622Y-41671851D01*
X115209040Y-41666944D01*
X115304527Y-41501556D01*
X115363542Y-41319928D01*
X115375673Y-41204513D01*
X115382814Y-41136565D01*
X115383504Y-41130000D01*
X118856496Y-41130000D01*
X118857186Y-41136565D01*
X118864328Y-41204513D01*
X118876458Y-41319928D01*
X118935473Y-41501556D01*
X119030960Y-41666944D01*
X119035378Y-41671851D01*
X119035379Y-41671852D01*
X119088757Y-41731134D01*
X119158747Y-41808866D01*
X119313248Y-41921118D01*
X119319276Y-41923802D01*
X119319278Y-41923803D01*
X119426408Y-41971500D01*
X119487712Y-41998794D01*
X119581112Y-42018647D01*
X119668056Y-42037128D01*
X119668061Y-42037128D01*
X119674513Y-42038500D01*
X119865487Y-42038500D01*
X119871939Y-42037128D01*
X119871944Y-42037128D01*
X119958887Y-42018647D01*
X120052288Y-41998794D01*
X120113592Y-41971500D01*
X120220722Y-41923803D01*
X120220724Y-41923802D01*
X120226752Y-41921118D01*
X120381253Y-41808866D01*
X120451243Y-41731134D01*
X120504621Y-41671852D01*
X120504622Y-41671851D01*
X120509040Y-41666944D01*
X120604527Y-41501556D01*
X120663542Y-41319928D01*
X120675673Y-41204513D01*
X120682814Y-41136565D01*
X120683504Y-41130000D01*
X120671081Y-41011799D01*
X120664232Y-40946635D01*
X120664232Y-40946633D01*
X120663542Y-40940072D01*
X120604527Y-40758444D01*
X120509040Y-40593056D01*
X120503278Y-40586656D01*
X120385675Y-40456045D01*
X120385674Y-40456044D01*
X120381253Y-40451134D01*
X120248883Y-40354961D01*
X120232094Y-40342763D01*
X120232093Y-40342762D01*
X120226752Y-40338882D01*
X120220724Y-40336198D01*
X120220722Y-40336197D01*
X120058319Y-40263891D01*
X120058318Y-40263891D01*
X120052288Y-40261206D01*
X119945437Y-40238494D01*
X119871944Y-40222872D01*
X119871939Y-40222872D01*
X119865487Y-40221500D01*
X119674513Y-40221500D01*
X119668061Y-40222872D01*
X119668056Y-40222872D01*
X119594563Y-40238494D01*
X119487712Y-40261206D01*
X119481682Y-40263891D01*
X119481681Y-40263891D01*
X119319278Y-40336197D01*
X119319276Y-40336198D01*
X119313248Y-40338882D01*
X119307907Y-40342762D01*
X119307906Y-40342763D01*
X119291117Y-40354961D01*
X119158747Y-40451134D01*
X119154326Y-40456044D01*
X119154325Y-40456045D01*
X119036723Y-40586656D01*
X119030960Y-40593056D01*
X118935473Y-40758444D01*
X118876458Y-40940072D01*
X118875768Y-40946633D01*
X118875768Y-40946635D01*
X118868919Y-41011799D01*
X118856496Y-41130000D01*
X115383504Y-41130000D01*
X115371081Y-41011799D01*
X115364232Y-40946635D01*
X115364232Y-40946633D01*
X115363542Y-40940072D01*
X115304527Y-40758444D01*
X115209040Y-40593056D01*
X115203278Y-40586656D01*
X115085675Y-40456045D01*
X115085674Y-40456044D01*
X115081253Y-40451134D01*
X114948883Y-40354961D01*
X114932094Y-40342763D01*
X114932093Y-40342762D01*
X114926752Y-40338882D01*
X114920724Y-40336198D01*
X114920722Y-40336197D01*
X114758319Y-40263891D01*
X114758318Y-40263891D01*
X114752288Y-40261206D01*
X114645437Y-40238494D01*
X114571944Y-40222872D01*
X114571939Y-40222872D01*
X114565487Y-40221500D01*
X114374513Y-40221500D01*
X114368061Y-40222872D01*
X114368056Y-40222872D01*
X114294563Y-40238494D01*
X114187712Y-40261206D01*
X114181682Y-40263891D01*
X114181681Y-40263891D01*
X114019278Y-40336197D01*
X114019276Y-40336198D01*
X114013248Y-40338882D01*
X114007907Y-40342762D01*
X114007906Y-40342763D01*
X113991117Y-40354961D01*
X113858747Y-40451134D01*
X113854326Y-40456044D01*
X113854325Y-40456045D01*
X113736723Y-40586656D01*
X113730960Y-40593056D01*
X113635473Y-40758444D01*
X113576458Y-40940072D01*
X113575768Y-40946633D01*
X113575768Y-40946635D01*
X113568919Y-41011799D01*
X113556496Y-41130000D01*
X104003000Y-41130000D01*
X104003000Y-40688702D01*
X104003002Y-40687932D01*
X104003421Y-40619322D01*
X104003476Y-40610348D01*
X104001010Y-40601719D01*
X104001009Y-40601714D01*
X103995361Y-40581952D01*
X103991783Y-40565191D01*
X103988870Y-40544848D01*
X103988867Y-40544838D01*
X103987595Y-40535955D01*
X103976979Y-40512605D01*
X103970536Y-40495093D01*
X103965954Y-40479063D01*
X103963488Y-40470435D01*
X103947726Y-40445452D01*
X103939596Y-40430386D01*
X103927367Y-40403490D01*
X103910626Y-40384061D01*
X103899521Y-40369053D01*
X103890630Y-40354961D01*
X103885840Y-40347369D01*
X103863703Y-40327818D01*
X103851659Y-40315626D01*
X103838239Y-40300051D01*
X103838237Y-40300050D01*
X103832381Y-40293253D01*
X103824853Y-40288374D01*
X103824850Y-40288371D01*
X103810861Y-40279304D01*
X103795987Y-40268014D01*
X103786725Y-40259834D01*
X103776772Y-40251044D01*
X103768646Y-40247229D01*
X103768645Y-40247228D01*
X103762979Y-40244568D01*
X103750034Y-40238490D01*
X103735065Y-40230176D01*
X103710273Y-40214107D01*
X103685709Y-40206761D01*
X103668264Y-40200099D01*
X103645052Y-40189201D01*
X103615870Y-40184657D01*
X103599151Y-40180874D01*
X103579464Y-40174986D01*
X103579461Y-40174985D01*
X103570859Y-40172413D01*
X103561884Y-40172358D01*
X103561883Y-40172358D01*
X103555190Y-40172317D01*
X103536444Y-40172203D01*
X103535672Y-40172170D01*
X103534577Y-40172000D01*
X103503702Y-40172000D01*
X103502932Y-40171998D01*
X103429284Y-40171548D01*
X103429283Y-40171548D01*
X103425348Y-40171524D01*
X103424004Y-40171908D01*
X103422659Y-40172000D01*
X98129000Y-40172000D01*
X98060879Y-40151998D01*
X98014386Y-40098342D01*
X98003000Y-40046000D01*
X98003000Y-39930000D01*
X126526496Y-39930000D01*
X126527186Y-39936565D01*
X126543159Y-40088535D01*
X126546458Y-40119928D01*
X126605473Y-40301556D01*
X126700960Y-40466944D01*
X126705378Y-40471851D01*
X126705379Y-40471852D01*
X126808749Y-40586656D01*
X126828747Y-40608866D01*
X126983248Y-40721118D01*
X126989276Y-40723802D01*
X126989278Y-40723803D01*
X127122613Y-40783167D01*
X127157712Y-40798794D01*
X127251112Y-40818647D01*
X127338056Y-40837128D01*
X127338061Y-40837128D01*
X127344513Y-40838500D01*
X127535487Y-40838500D01*
X127541939Y-40837128D01*
X127541944Y-40837128D01*
X127628888Y-40818647D01*
X127722288Y-40798794D01*
X127757387Y-40783167D01*
X127890722Y-40723803D01*
X127890724Y-40723802D01*
X127896752Y-40721118D01*
X128051253Y-40608866D01*
X128071251Y-40586656D01*
X128174621Y-40471852D01*
X128174622Y-40471851D01*
X128179040Y-40466944D01*
X128274527Y-40301556D01*
X128333542Y-40119928D01*
X128336842Y-40088535D01*
X128352814Y-39936565D01*
X128353504Y-39930000D01*
X128333542Y-39740072D01*
X128274527Y-39558444D01*
X128264566Y-39541190D01*
X128198345Y-39426493D01*
X128179040Y-39393056D01*
X128109154Y-39315439D01*
X128055675Y-39256045D01*
X128055674Y-39256044D01*
X128051253Y-39251134D01*
X127896752Y-39138882D01*
X127890724Y-39136198D01*
X127890722Y-39136197D01*
X127728319Y-39063891D01*
X127728318Y-39063891D01*
X127722288Y-39061206D01*
X127628887Y-39041353D01*
X127541944Y-39022872D01*
X127541939Y-39022872D01*
X127535487Y-39021500D01*
X127344513Y-39021500D01*
X127338061Y-39022872D01*
X127338056Y-39022872D01*
X127251113Y-39041353D01*
X127157712Y-39061206D01*
X127151682Y-39063891D01*
X127151681Y-39063891D01*
X126989278Y-39136197D01*
X126989276Y-39136198D01*
X126983248Y-39138882D01*
X126828747Y-39251134D01*
X126824326Y-39256044D01*
X126824325Y-39256045D01*
X126770847Y-39315439D01*
X126700960Y-39393056D01*
X126681655Y-39426493D01*
X126615435Y-39541190D01*
X126605473Y-39558444D01*
X126546458Y-39740072D01*
X126526496Y-39930000D01*
X98003000Y-39930000D01*
X98003000Y-38300000D01*
X103946496Y-38300000D01*
X103947186Y-38306565D01*
X103964553Y-38471799D01*
X103966458Y-38489928D01*
X104025473Y-38671556D01*
X104120960Y-38836944D01*
X104125378Y-38841851D01*
X104125379Y-38841852D01*
X104244325Y-38973955D01*
X104248747Y-38978866D01*
X104403248Y-39091118D01*
X104409276Y-39093802D01*
X104409278Y-39093803D01*
X104571681Y-39166109D01*
X104577712Y-39168794D01*
X104671113Y-39188647D01*
X104758056Y-39207128D01*
X104758061Y-39207128D01*
X104764513Y-39208500D01*
X104955487Y-39208500D01*
X104961939Y-39207128D01*
X104961944Y-39207128D01*
X105048887Y-39188647D01*
X105142288Y-39168794D01*
X105148319Y-39166109D01*
X105310722Y-39093803D01*
X105310724Y-39093802D01*
X105316752Y-39091118D01*
X105471253Y-38978866D01*
X105475675Y-38973955D01*
X105594621Y-38841852D01*
X105594622Y-38841851D01*
X105599040Y-38836944D01*
X105694527Y-38671556D01*
X105707155Y-38632690D01*
X111195984Y-38632690D01*
X111196674Y-38639255D01*
X111204752Y-38716109D01*
X111215946Y-38822618D01*
X111274961Y-39004246D01*
X111278264Y-39009968D01*
X111278265Y-39009969D01*
X111285715Y-39022872D01*
X111370448Y-39169634D01*
X111374866Y-39174541D01*
X111374867Y-39174542D01*
X111443831Y-39251134D01*
X111498235Y-39311556D01*
X111652736Y-39423808D01*
X111658764Y-39426492D01*
X111658766Y-39426493D01*
X111821169Y-39498799D01*
X111827200Y-39501484D01*
X111911022Y-39519301D01*
X112007544Y-39539818D01*
X112007549Y-39539818D01*
X112014001Y-39541190D01*
X112204975Y-39541190D01*
X112211427Y-39539818D01*
X112211432Y-39539818D01*
X112307954Y-39519301D01*
X112391776Y-39501484D01*
X112397807Y-39498799D01*
X112560210Y-39426493D01*
X112560212Y-39426492D01*
X112566240Y-39423808D01*
X112720741Y-39311556D01*
X112775145Y-39251134D01*
X112844109Y-39174542D01*
X112844110Y-39174541D01*
X112848528Y-39169634D01*
X112933261Y-39022872D01*
X112940711Y-39009969D01*
X112940712Y-39009968D01*
X112944015Y-39004246D01*
X113003030Y-38822618D01*
X113014225Y-38716109D01*
X113022302Y-38639255D01*
X113022992Y-38632690D01*
X113016051Y-38566651D01*
X113028823Y-38496813D01*
X113077325Y-38444967D01*
X113146158Y-38427572D01*
X113213468Y-38450153D01*
X113234995Y-38469168D01*
X113288747Y-38528866D01*
X113340755Y-38566652D01*
X113426374Y-38628858D01*
X113443248Y-38641118D01*
X113449276Y-38643802D01*
X113449278Y-38643803D01*
X113508938Y-38670365D01*
X113617712Y-38718794D01*
X113711113Y-38738647D01*
X113798056Y-38757128D01*
X113798061Y-38757128D01*
X113804513Y-38758500D01*
X113995487Y-38758500D01*
X114001939Y-38757128D01*
X114001944Y-38757128D01*
X114088888Y-38738647D01*
X114182288Y-38718794D01*
X114291062Y-38670365D01*
X114350722Y-38643803D01*
X114350724Y-38643802D01*
X114356752Y-38641118D01*
X114373627Y-38628858D01*
X114459245Y-38566652D01*
X114511253Y-38528866D01*
X114562636Y-38471799D01*
X114634621Y-38391852D01*
X114634622Y-38391851D01*
X114639040Y-38386944D01*
X114734527Y-38221556D01*
X114793542Y-38039928D01*
X114809863Y-37884647D01*
X114812814Y-37856565D01*
X114812814Y-37856564D01*
X114813504Y-37850000D01*
X114804967Y-37768774D01*
X114794232Y-37666635D01*
X114794232Y-37666633D01*
X114793542Y-37660072D01*
X114734527Y-37478444D01*
X114639040Y-37313056D01*
X114511253Y-37171134D01*
X114356752Y-37058882D01*
X114350724Y-37056198D01*
X114350722Y-37056197D01*
X114188319Y-36983891D01*
X114188318Y-36983891D01*
X114182288Y-36981206D01*
X114079257Y-36959306D01*
X114001944Y-36942872D01*
X114001939Y-36942872D01*
X113995487Y-36941500D01*
X113804513Y-36941500D01*
X113798061Y-36942872D01*
X113798056Y-36942872D01*
X113720743Y-36959306D01*
X113617712Y-36981206D01*
X113611682Y-36983891D01*
X113611681Y-36983891D01*
X113449278Y-37056197D01*
X113449276Y-37056198D01*
X113443248Y-37058882D01*
X113288747Y-37171134D01*
X113160960Y-37313056D01*
X113065473Y-37478444D01*
X113006458Y-37660072D01*
X113005768Y-37666633D01*
X113005768Y-37666635D01*
X112995033Y-37768774D01*
X112986496Y-37850000D01*
X112989566Y-37879204D01*
X112993437Y-37916038D01*
X112980665Y-37985877D01*
X112932163Y-38037723D01*
X112863330Y-38055118D01*
X112796020Y-38032537D01*
X112774491Y-38013520D01*
X112720741Y-37953824D01*
X112601891Y-37867474D01*
X112571582Y-37845453D01*
X112571581Y-37845452D01*
X112566240Y-37841572D01*
X112560212Y-37838888D01*
X112560210Y-37838887D01*
X112397807Y-37766581D01*
X112397806Y-37766581D01*
X112391776Y-37763896D01*
X112298375Y-37744043D01*
X112211432Y-37725562D01*
X112211427Y-37725562D01*
X112204975Y-37724190D01*
X112014001Y-37724190D01*
X112007549Y-37725562D01*
X112007544Y-37725562D01*
X111920601Y-37744043D01*
X111827200Y-37763896D01*
X111821170Y-37766581D01*
X111821169Y-37766581D01*
X111658766Y-37838887D01*
X111658764Y-37838888D01*
X111652736Y-37841572D01*
X111647395Y-37845452D01*
X111647394Y-37845453D01*
X111617085Y-37867474D01*
X111498235Y-37953824D01*
X111493817Y-37958731D01*
X111493813Y-37958735D01*
X111407030Y-38055118D01*
X111370448Y-38095746D01*
X111274961Y-38261134D01*
X111215946Y-38442762D01*
X111215256Y-38449323D01*
X111215256Y-38449325D01*
X111210989Y-38489928D01*
X111195984Y-38632690D01*
X105707155Y-38632690D01*
X105753542Y-38489928D01*
X105755448Y-38471799D01*
X105772814Y-38306565D01*
X105773504Y-38300000D01*
X105753542Y-38110072D01*
X105694527Y-37928444D01*
X105687365Y-37916038D01*
X105623796Y-37805935D01*
X105599040Y-37763056D01*
X105567034Y-37727509D01*
X105475675Y-37626045D01*
X105475674Y-37626044D01*
X105471253Y-37621134D01*
X105316752Y-37508882D01*
X105310724Y-37506198D01*
X105310722Y-37506197D01*
X105148319Y-37433891D01*
X105148318Y-37433891D01*
X105142288Y-37431206D01*
X105048888Y-37411353D01*
X104961944Y-37392872D01*
X104961939Y-37392872D01*
X104955487Y-37391500D01*
X104764513Y-37391500D01*
X104758061Y-37392872D01*
X104758056Y-37392872D01*
X104671112Y-37411353D01*
X104577712Y-37431206D01*
X104571682Y-37433891D01*
X104571681Y-37433891D01*
X104409278Y-37506197D01*
X104409276Y-37506198D01*
X104403248Y-37508882D01*
X104248747Y-37621134D01*
X104244326Y-37626044D01*
X104244325Y-37626045D01*
X104152967Y-37727509D01*
X104120960Y-37763056D01*
X104096204Y-37805935D01*
X104032636Y-37916038D01*
X104025473Y-37928444D01*
X103966458Y-38110072D01*
X103946496Y-38300000D01*
X98003000Y-38300000D01*
X98003000Y-36314000D01*
X98023002Y-36245879D01*
X98076658Y-36199386D01*
X98129000Y-36188000D01*
X136604027Y-36188000D01*
X136672148Y-36208002D01*
G37*
%TD.AperFunction*%
%TD*%
M02*
