%TF.GenerationSoftware,KiCad,Pcbnew,(6.0.2)*%
%TF.CreationDate,2022-03-06T12:06:18+08:00*%
%TF.ProjectId,screen,73637265-656e-42e6-9b69-6361645f7063,rev?*%
%TF.SameCoordinates,Original*%
%TF.FileFunction,Copper,L4,Bot*%
%TF.FilePolarity,Positive*%
%FSLAX46Y46*%
G04 Gerber Fmt 4.6, Leading zero omitted, Abs format (unit mm)*
G04 Created by KiCad (PCBNEW (6.0.2)) date 2022-03-06 12:06:18*
%MOMM*%
%LPD*%
G01*
G04 APERTURE LIST*
%TA.AperFunction,ComponentPad*%
%ADD10R,1.350000X1.350000*%
%TD*%
%TA.AperFunction,ComponentPad*%
%ADD11O,1.350000X1.350000*%
%TD*%
%TA.AperFunction,ComponentPad*%
%ADD12O,1.850000X0.850000*%
%TD*%
%TA.AperFunction,ComponentPad*%
%ADD13R,1.700000X1.700000*%
%TD*%
%TA.AperFunction,ComponentPad*%
%ADD14O,1.700000X1.700000*%
%TD*%
%TA.AperFunction,SMDPad,CuDef*%
%ADD15R,2.000000X0.200000*%
%TD*%
%TA.AperFunction,ViaPad*%
%ADD16C,0.800000*%
%TD*%
%TA.AperFunction,Conductor*%
%ADD17C,0.200000*%
%TD*%
%TA.AperFunction,Conductor*%
%ADD18C,0.400000*%
%TD*%
%TA.AperFunction,Conductor*%
%ADD19C,0.600000*%
%TD*%
G04 APERTURE END LIST*
D10*
%TO.P,J1,1,GND*%
%TO.N,GND*%
X137550000Y-45000000D03*
D11*
%TO.P,J1,2,GPIO0*%
%TO.N,/GPIO0*%
X137550000Y-43000000D03*
%TO.P,J1,3,RXD*%
%TO.N,/RXD*%
X137550000Y-41000000D03*
%TO.P,J1,4,TXD*%
%TO.N,/TXD*%
X137550000Y-39000000D03*
%TO.P,J1,5,RST*%
%TO.N,/EN*%
X137550000Y-37000000D03*
%TD*%
D12*
%TO.P,J2,S1,SHIELD*%
%TO.N,GND*%
X135450000Y-47480000D03*
X135450000Y-56120000D03*
%TD*%
D13*
%TO.P,J3,1,Pin_1*%
%TO.N,+BATT*%
X135625000Y-60150000D03*
D14*
%TO.P,J3,2,Pin_2*%
%TO.N,GND*%
X135625000Y-62690000D03*
%TD*%
D15*
%TO.P,U3,1,GND*%
%TO.N,GND*%
X119110000Y-57320000D03*
%TO.P,U3,2,LEDK*%
%TO.N,Net-(Q1-Pad3)*%
X119110000Y-56620000D03*
%TO.P,U3,3,LEDA*%
%TO.N,+3V3*%
X119110000Y-55920000D03*
%TO.P,U3,4,VDD*%
X119110000Y-55220000D03*
%TO.P,U3,5,GND*%
%TO.N,GND*%
X119110000Y-54520000D03*
%TO.P,U3,6,GND*%
X119110000Y-53820000D03*
%TO.P,U3,7,D/C*%
%TO.N,/GPIO0*%
X119110000Y-53120000D03*
%TO.P,U3,8,CS*%
%TO.N,GND*%
X119110000Y-52420000D03*
%TO.P,U3,9,SCL*%
%TO.N,/GPIO14*%
X119110000Y-51720000D03*
%TO.P,U3,10,SDA*%
%TO.N,/GPIO13*%
X119110000Y-51020000D03*
%TO.P,U3,11,RESET*%
%TO.N,/GPIO2*%
X119110000Y-50320000D03*
%TO.P,U3,12,GND*%
%TO.N,GND*%
X119110000Y-49620000D03*
%TD*%
D16*
%TO.N,+3V3*%
X127482500Y-57130000D03*
X124020000Y-39070000D03*
X115130000Y-39070000D03*
X106170000Y-62090000D03*
X110720000Y-62110000D03*
X130800000Y-54475000D03*
X116475000Y-55600000D03*
X119720000Y-61580000D03*
%TO.N,GND*%
X120125000Y-43100000D03*
X127440000Y-39930000D03*
X117975000Y-46500000D03*
X128150000Y-47125000D03*
X119400000Y-47950000D03*
X119400000Y-46450000D03*
X116750000Y-61575000D03*
X99350000Y-63100000D03*
X118025000Y-47950000D03*
X127100000Y-47125000D03*
X107760000Y-62100000D03*
X127125000Y-49000000D03*
X130550000Y-42970000D03*
X99350000Y-38300000D03*
X128150000Y-49000000D03*
%TO.N,Net-(C2-Pad1)*%
X128570000Y-60650000D03*
X128475000Y-53350000D03*
%TO.N,/GPIO0*%
X114090000Y-43120000D03*
X116225000Y-53000000D03*
%TO.N,/GPIO2*%
X116090000Y-48020000D03*
%TO.N,/GPIO14*%
X114675000Y-52450000D03*
%TO.N,/GPIO13*%
X117330000Y-51030000D03*
%TO.N,/GPIO5*%
X117475000Y-37850000D03*
X110090000Y-43120000D03*
%TO.N,Net-(R7-Pad2)*%
X103500000Y-38325000D03*
X111420000Y-39070000D03*
%TO.N,+BATT*%
X124570000Y-59180000D03*
X130525000Y-45480000D03*
X109270000Y-62050000D03*
X129757500Y-57130000D03*
%TO.N,Net-(Q1-Pad3)*%
X123525000Y-48925000D03*
%TD*%
D17*
%TO.N,/GPIO5*%
X112636045Y-39113953D02*
G75*
G02*
X115687499Y-37850000I3051451J-3051448D01*
G01*
X112636045Y-39113953D02*
X110606187Y-41143812D01*
X115687499Y-37850000D02*
X117475000Y-37850000D01*
X110090000Y-42390000D02*
G75*
G02*
X110606187Y-41143812I1762371J3D01*
G01*
X110090000Y-43120000D02*
X110090000Y-42390000D01*
D18*
%TO.N,+3V3*%
X116501601Y-55799251D02*
G75*
G02*
X116475000Y-55735030I64218J64219D01*
G01*
X116505390Y-55395947D02*
G75*
G03*
X116475000Y-55469316I73369J-73368D01*
G01*
X116475000Y-55735030D02*
X116475000Y-55600000D01*
X116888576Y-55944780D02*
X119060220Y-55944780D01*
X116528202Y-55825852D02*
X116501601Y-55799251D01*
X116888576Y-55944780D02*
G75*
G02*
X116528202Y-55825852I5581J622375D01*
G01*
X116475000Y-55600000D02*
X116475000Y-55469316D01*
X116948700Y-55220000D02*
X119085000Y-55220000D01*
X116535781Y-55365557D02*
X116505390Y-55395947D01*
X116948700Y-55220000D02*
G75*
G03*
X116535781Y-55365557I3334J-667926D01*
G01*
D19*
%TO.N,+BATT*%
X123947500Y-59802500D02*
G75*
G02*
X122444652Y-60425000I-1502851J1502856D01*
G01*
X112044048Y-60425001D02*
G75*
G03*
X110082500Y-61237500I-6J-2774033D01*
G01*
X130141250Y-45863750D02*
G75*
G03*
X129757500Y-46790204I926446J-926451D01*
G01*
D18*
%TO.N,GND*%
X115422500Y-57047500D02*
G75*
G03*
X116080373Y-57320000I657874J657876D01*
G01*
X121020000Y-49630000D02*
G75*
G03*
X120995857Y-49620000I-24139J-24134D01*
G01*
X115150001Y-55766187D02*
G75*
G02*
X115515001Y-54885001I1246180J2D01*
G01*
X115422500Y-57047500D02*
G75*
G02*
X115150000Y-56389626I657869J657872D01*
G01*
X121020000Y-52882588D02*
G75*
G03*
X120884511Y-52555489I-462592J-2D01*
G01*
X121020000Y-49630000D02*
G75*
G02*
X121030000Y-49654142I-24141J-24142D01*
G01*
X120884511Y-53684511D02*
G75*
G02*
X120557411Y-53820000I-327103J327108D01*
G01*
X119110000Y-54182500D02*
G75*
G02*
X118772500Y-54520000I-337502J2D01*
G01*
X115515000Y-54885000D02*
G75*
G02*
X116396187Y-54520000I881185J-881181D01*
G01*
X120884511Y-52284511D02*
G75*
G02*
X120557411Y-52420000I-327103J327108D01*
G01*
X120557411Y-52420001D02*
G75*
G02*
X120884510Y-52555490I2J-462585D01*
G01*
X120884512Y-52284512D02*
G75*
G03*
X120884512Y-52555488I135486J-135488D01*
G01*
X120889511Y-52279511D02*
G75*
G03*
X121030000Y-51940340I-339173J339171D01*
G01*
X121020000Y-53357411D02*
G75*
G02*
X120884511Y-53684511I-462597J3D01*
G01*
D17*
%TO.N,Net-(Q1-Pad3)*%
X120328197Y-56301801D02*
G75*
G02*
X119560000Y-56620000I-768201J768203D01*
G01*
X123525000Y-51015000D02*
G75*
G02*
X122047146Y-54582853I-5045708J2D01*
G01*
%TO.N,Net-(R7-Pad2)*%
X109047500Y-38697500D02*
G75*
G03*
X109946794Y-39070000I899295J899295D01*
G01*
X108148205Y-38325001D02*
G75*
G02*
X109047499Y-38697501I3J-1271788D01*
G01*
%TO.N,/GPIO13*%
X117347071Y-51020001D02*
G75*
G03*
X117335000Y-51025000I-3J-17064D01*
G01*
%TO.N,/GPIO14*%
X115040000Y-52085000D02*
G75*
G02*
X115921187Y-51720000I881185J-881181D01*
G01*
%TO.N,/GPIO2*%
X118410000Y-50320000D02*
G75*
G02*
X117215025Y-49825025I1J1689951D01*
G01*
X116330416Y-48940416D02*
G75*
G02*
X116090000Y-48360000I580420J580417D01*
G01*
%TO.N,/GPIO0*%
X114975000Y-42235000D02*
G75*
G02*
X117111579Y-41350000I2136577J-2136575D01*
G01*
X134733273Y-41350001D02*
G75*
G02*
X136725000Y-42175000I3J-2816721D01*
G01*
X116285000Y-53060000D02*
G75*
G03*
X116429852Y-53120000I144853J144854D01*
G01*
%TO.N,Net-(C2-Pad1)*%
X128475001Y-60487824D02*
G75*
G03*
X128522501Y-60602499I162167J-4D01*
G01*
D18*
%TO.N,GND*%
X121020000Y-53357411D02*
X121020000Y-52882588D01*
X116080373Y-57320000D02*
X119110000Y-57320000D01*
X120995857Y-49620000D02*
X119110000Y-49620000D01*
X116396187Y-54520000D02*
X118772500Y-54520000D01*
X119110000Y-54182500D02*
X119110000Y-53845000D01*
X120884511Y-52284511D02*
X120889511Y-52279511D01*
X120557411Y-53820000D02*
X119110000Y-53820000D01*
X115150000Y-56389626D02*
X115150000Y-55766187D01*
X120557411Y-52420000D02*
X119110000Y-52420000D01*
X121030000Y-51940340D02*
X121030000Y-49654142D01*
D17*
%TO.N,Net-(C2-Pad1)*%
X128475000Y-60487824D02*
X128475000Y-53350000D01*
X128522500Y-60602500D02*
X128570000Y-60650000D01*
%TO.N,/GPIO0*%
X114090000Y-43120000D02*
X114975000Y-42235000D01*
X116429852Y-53120000D02*
X119110000Y-53120000D01*
X136725000Y-42175000D02*
X137550000Y-43000000D01*
X116285000Y-53060000D02*
X116225000Y-53000000D01*
X117111579Y-41350000D02*
X134733273Y-41350000D01*
%TO.N,/GPIO2*%
X118410000Y-50320000D02*
X119110000Y-50320000D01*
X116090000Y-48360000D02*
X116090000Y-48020000D01*
X116330416Y-48940416D02*
X117215025Y-49825025D01*
%TO.N,/GPIO14*%
X115921187Y-51720000D02*
X119110000Y-51720000D01*
X114675000Y-52450000D02*
X115040000Y-52085000D01*
%TO.N,/GPIO13*%
X117335000Y-51025000D02*
X117330000Y-51030000D01*
X117347071Y-51020000D02*
X119110000Y-51020000D01*
%TO.N,Net-(R7-Pad2)*%
X103500000Y-38325000D02*
X108148205Y-38325000D01*
X109946794Y-39070000D02*
X111420000Y-39070000D01*
D19*
%TO.N,+BATT*%
X110082500Y-61237500D02*
X109270000Y-62050000D01*
X129757500Y-46790204D02*
X129757500Y-57130000D01*
X124570000Y-59180000D02*
X123947500Y-59802500D01*
X122444652Y-60425000D02*
X112044048Y-60425000D01*
X130525000Y-45480000D02*
X130141250Y-45863750D01*
D17*
%TO.N,Net-(Q1-Pad3)*%
X122047146Y-54582853D02*
X120328197Y-56301801D01*
X119560000Y-56620000D02*
X119110000Y-56620000D01*
X123525000Y-51015000D02*
X123525000Y-48925000D01*
%TD*%
%TA.AperFunction,Conductor*%
%TO.N,GND*%
G36*
X139154191Y-35898907D02*
G01*
X139190155Y-35948407D01*
X139195000Y-35979000D01*
X139195000Y-65381000D01*
X139176093Y-65439191D01*
X139126593Y-65475155D01*
X139096000Y-65480000D01*
X97794000Y-65480000D01*
X97735809Y-65461093D01*
X97699845Y-65411593D01*
X97695000Y-65381000D01*
X97695000Y-62090000D01*
X105564318Y-62090000D01*
X105565165Y-62096434D01*
X105566078Y-62103369D01*
X105584956Y-62246762D01*
X105645464Y-62392841D01*
X105741718Y-62518282D01*
X105867159Y-62614536D01*
X105921438Y-62637019D01*
X105996607Y-62668155D01*
X106013238Y-62675044D01*
X106170000Y-62695682D01*
X106326762Y-62675044D01*
X106343394Y-62668155D01*
X106418562Y-62637019D01*
X106472841Y-62614536D01*
X106598282Y-62518282D01*
X106694536Y-62392841D01*
X106755044Y-62246762D01*
X106773922Y-62103369D01*
X106774835Y-62096434D01*
X106775682Y-62090000D01*
X106770416Y-62050000D01*
X108664318Y-62050000D01*
X108684956Y-62206762D01*
X108687440Y-62212759D01*
X108691845Y-62223394D01*
X108745464Y-62352841D01*
X108841718Y-62478282D01*
X108967159Y-62574536D01*
X109113238Y-62635044D01*
X109270000Y-62655682D01*
X109426762Y-62635044D01*
X109572841Y-62574536D01*
X109698282Y-62478282D01*
X109794536Y-62352841D01*
X109855044Y-62206762D01*
X109855891Y-62200332D01*
X109857571Y-62194061D01*
X109859012Y-62194447D01*
X109883960Y-62143854D01*
X109949504Y-62078310D01*
X110004021Y-62050533D01*
X110064453Y-62060104D01*
X110107718Y-62103369D01*
X110117661Y-62135391D01*
X110134956Y-62266762D01*
X110195464Y-62412841D01*
X110291718Y-62538282D01*
X110417159Y-62634536D01*
X110563238Y-62695044D01*
X110720000Y-62715682D01*
X110876762Y-62695044D01*
X111022841Y-62634536D01*
X111148282Y-62538282D01*
X111184482Y-62491105D01*
X125619031Y-62491105D01*
X125620423Y-62496901D01*
X125620423Y-62496905D01*
X125646207Y-62604297D01*
X125658612Y-62655968D01*
X125736375Y-62806631D01*
X125847831Y-62934396D01*
X125852713Y-62937827D01*
X125852714Y-62937828D01*
X125915341Y-62981843D01*
X125986547Y-63031887D01*
X126144513Y-63093476D01*
X126150428Y-63094255D01*
X126150429Y-63094255D01*
X126203624Y-63101258D01*
X126273826Y-63110500D01*
X126362516Y-63110500D01*
X126385443Y-63107726D01*
X126482398Y-63095993D01*
X126482401Y-63095992D01*
X126488320Y-63095276D01*
X126646923Y-63035345D01*
X126651840Y-63031965D01*
X126651843Y-63031964D01*
X126781733Y-62942692D01*
X126786651Y-62939312D01*
X126899440Y-62812721D01*
X126902665Y-62806631D01*
X126961298Y-62695891D01*
X126978776Y-62662881D01*
X127001959Y-62570585D01*
X127018627Y-62504231D01*
X127018627Y-62504228D01*
X127020081Y-62498441D01*
X127020119Y-62491105D01*
X128619031Y-62491105D01*
X128620423Y-62496901D01*
X128620423Y-62496905D01*
X128646207Y-62604297D01*
X128658612Y-62655968D01*
X128736375Y-62806631D01*
X128847831Y-62934396D01*
X128852713Y-62937827D01*
X128852714Y-62937828D01*
X128915341Y-62981843D01*
X128986547Y-63031887D01*
X129144513Y-63093476D01*
X129150428Y-63094255D01*
X129150429Y-63094255D01*
X129203624Y-63101258D01*
X129273826Y-63110500D01*
X129362516Y-63110500D01*
X129385443Y-63107726D01*
X129482398Y-63095993D01*
X129482401Y-63095992D01*
X129488320Y-63095276D01*
X129646923Y-63035345D01*
X129651840Y-63031965D01*
X129651843Y-63031964D01*
X129760895Y-62957014D01*
X134293043Y-62957014D01*
X134323807Y-63093524D01*
X134326231Y-63101258D01*
X134407183Y-63300620D01*
X134410840Y-63307860D01*
X134523266Y-63491322D01*
X134528056Y-63497867D01*
X134668935Y-63660502D01*
X134674729Y-63666176D01*
X134840292Y-63803629D01*
X134846921Y-63808270D01*
X135032713Y-63916838D01*
X135040008Y-63920334D01*
X135241038Y-63997099D01*
X135248808Y-63999357D01*
X135355637Y-64021091D01*
X135368846Y-64019586D01*
X135371000Y-64011405D01*
X135371000Y-64010952D01*
X135879000Y-64010952D01*
X135883122Y-64023637D01*
X135884650Y-64024748D01*
X135889884Y-64025238D01*
X135904291Y-64023392D01*
X135912200Y-64021710D01*
X136118304Y-63959876D01*
X136125852Y-63956918D01*
X136319087Y-63862253D01*
X136326046Y-63858104D01*
X136501231Y-63733148D01*
X136507412Y-63727924D01*
X136659831Y-63576035D01*
X136665088Y-63569858D01*
X136790651Y-63395119D01*
X136794823Y-63388176D01*
X136890164Y-63195268D01*
X136893144Y-63187744D01*
X136955701Y-62981843D01*
X136957410Y-62973938D01*
X136959304Y-62959547D01*
X136956873Y-62946431D01*
X136955571Y-62945195D01*
X136950290Y-62944000D01*
X135894680Y-62944000D01*
X135881995Y-62948122D01*
X135879000Y-62952243D01*
X135879000Y-64010952D01*
X135371000Y-64010952D01*
X135371000Y-62959680D01*
X135366878Y-62946995D01*
X135362757Y-62944000D01*
X134305790Y-62944000D01*
X134293460Y-62948006D01*
X134293043Y-62957014D01*
X129760895Y-62957014D01*
X129781733Y-62942692D01*
X129786651Y-62939312D01*
X129899440Y-62812721D01*
X129902665Y-62806631D01*
X129961298Y-62695891D01*
X129978776Y-62662881D01*
X130001959Y-62570585D01*
X130018627Y-62504231D01*
X130018627Y-62504228D01*
X130020081Y-62498441D01*
X130020464Y-62425384D01*
X134289056Y-62425384D01*
X134290756Y-62433462D01*
X134292566Y-62435098D01*
X134296792Y-62436000D01*
X136945779Y-62436000D01*
X136957730Y-62432117D01*
X136958058Y-62422462D01*
X136915946Y-62254809D01*
X136913333Y-62247133D01*
X136827534Y-62049807D01*
X136823701Y-62042660D01*
X136706826Y-61861997D01*
X136701880Y-61855575D01*
X136557065Y-61696426D01*
X136551139Y-61690899D01*
X136382269Y-61557534D01*
X136375525Y-61553054D01*
X136187141Y-61449060D01*
X136179749Y-61445738D01*
X136030316Y-61392821D01*
X135981774Y-61355574D01*
X135964397Y-61296908D01*
X135984821Y-61239232D01*
X136035246Y-61204577D01*
X136063363Y-61200500D01*
X136494748Y-61200500D01*
X136520995Y-61195279D01*
X136543666Y-61190770D01*
X136543668Y-61190769D01*
X136553231Y-61188867D01*
X136619552Y-61144552D01*
X136663867Y-61078231D01*
X136668470Y-61055093D01*
X136674552Y-61024512D01*
X136675500Y-61019748D01*
X136675500Y-59280252D01*
X136663867Y-59221769D01*
X136619552Y-59155448D01*
X136553231Y-59111133D01*
X136543668Y-59109231D01*
X136543666Y-59109230D01*
X136520995Y-59104721D01*
X136494748Y-59099500D01*
X134755252Y-59099500D01*
X134729005Y-59104721D01*
X134706334Y-59109230D01*
X134706332Y-59109231D01*
X134696769Y-59111133D01*
X134630448Y-59155448D01*
X134586133Y-59221769D01*
X134574500Y-59280252D01*
X134574500Y-61019748D01*
X134575448Y-61024512D01*
X134581531Y-61055093D01*
X134586133Y-61078231D01*
X134630448Y-61144552D01*
X134696769Y-61188867D01*
X134706332Y-61190769D01*
X134706334Y-61190770D01*
X134729005Y-61195279D01*
X134755252Y-61200500D01*
X135189241Y-61200500D01*
X135247432Y-61219407D01*
X135283396Y-61268907D01*
X135283396Y-61330093D01*
X135247432Y-61379593D01*
X135219998Y-61393601D01*
X135100807Y-61432558D01*
X135093350Y-61435693D01*
X134902479Y-61535054D01*
X134895627Y-61539369D01*
X134723544Y-61668573D01*
X134717491Y-61673947D01*
X134568830Y-61829513D01*
X134563727Y-61835814D01*
X134442466Y-62013575D01*
X134438468Y-62020613D01*
X134347871Y-62215790D01*
X134345073Y-62223394D01*
X134289056Y-62425384D01*
X130020464Y-62425384D01*
X130020634Y-62392841D01*
X130020938Y-62334861D01*
X130020938Y-62334859D01*
X130020969Y-62328895D01*
X129981388Y-62164032D01*
X129903625Y-62013369D01*
X129792169Y-61885604D01*
X129741742Y-61850163D01*
X129658335Y-61791544D01*
X129658334Y-61791544D01*
X129653453Y-61788113D01*
X129563789Y-61753154D01*
X129501048Y-61728692D01*
X129501047Y-61728692D01*
X129495487Y-61726524D01*
X129489572Y-61725745D01*
X129489571Y-61725745D01*
X129369387Y-61709923D01*
X129366174Y-61709500D01*
X129277484Y-61709500D01*
X129273989Y-61709923D01*
X129157602Y-61724007D01*
X129157599Y-61724008D01*
X129151680Y-61724724D01*
X128993077Y-61784655D01*
X128988160Y-61788035D01*
X128988157Y-61788036D01*
X128897763Y-61850163D01*
X128853349Y-61880688D01*
X128740560Y-62007279D01*
X128737770Y-62012549D01*
X128737769Y-62012550D01*
X128737226Y-62013575D01*
X128661224Y-62157119D01*
X128619919Y-62321559D01*
X128619787Y-62346846D01*
X128619391Y-62422462D01*
X128619031Y-62491105D01*
X127020119Y-62491105D01*
X127020634Y-62392841D01*
X127020938Y-62334861D01*
X127020938Y-62334859D01*
X127020969Y-62328895D01*
X126981388Y-62164032D01*
X126903625Y-62013369D01*
X126792169Y-61885604D01*
X126741742Y-61850163D01*
X126658335Y-61791544D01*
X126658334Y-61791544D01*
X126653453Y-61788113D01*
X126563789Y-61753154D01*
X126501048Y-61728692D01*
X126501047Y-61728692D01*
X126495487Y-61726524D01*
X126489572Y-61725745D01*
X126489571Y-61725745D01*
X126369387Y-61709923D01*
X126366174Y-61709500D01*
X126277484Y-61709500D01*
X126273989Y-61709923D01*
X126157602Y-61724007D01*
X126157599Y-61724008D01*
X126151680Y-61724724D01*
X125993077Y-61784655D01*
X125988160Y-61788035D01*
X125988157Y-61788036D01*
X125897763Y-61850163D01*
X125853349Y-61880688D01*
X125740560Y-62007279D01*
X125737770Y-62012549D01*
X125737769Y-62012550D01*
X125737226Y-62013575D01*
X125661224Y-62157119D01*
X125619919Y-62321559D01*
X125619787Y-62346846D01*
X125619391Y-62422462D01*
X125619031Y-62491105D01*
X111184482Y-62491105D01*
X111244536Y-62412841D01*
X111305044Y-62266762D01*
X111325682Y-62110000D01*
X111324443Y-62100585D01*
X111316936Y-62043566D01*
X111305044Y-61953238D01*
X111244536Y-61807159D01*
X111148282Y-61681718D01*
X111022841Y-61585464D01*
X110876762Y-61524956D01*
X110792802Y-61513903D01*
X110737577Y-61487562D01*
X110708382Y-61433792D01*
X110716368Y-61373130D01*
X110748435Y-61335010D01*
X110829915Y-61277196D01*
X110839309Y-61271294D01*
X111052731Y-61153339D01*
X111062721Y-61148528D01*
X111288008Y-61055211D01*
X111298484Y-61051545D01*
X111532798Y-60984041D01*
X111543621Y-60981571D01*
X111614102Y-60969596D01*
X111784014Y-60940726D01*
X111795039Y-60939484D01*
X111878294Y-60934809D01*
X112004949Y-60927697D01*
X112025727Y-60928719D01*
X112030898Y-60929524D01*
X112030901Y-60929524D01*
X112037870Y-60930609D01*
X112070547Y-60926336D01*
X112083383Y-60925500D01*
X119294887Y-60925500D01*
X119353078Y-60944407D01*
X119389042Y-60993907D01*
X119389042Y-61055093D01*
X119355154Y-61103042D01*
X119291718Y-61151718D01*
X119195464Y-61277159D01*
X119134956Y-61423238D01*
X119129464Y-61464956D01*
X119115712Y-61569415D01*
X119114318Y-61580000D01*
X119115165Y-61586434D01*
X119117684Y-61605569D01*
X119134956Y-61736762D01*
X119195464Y-61882841D01*
X119291718Y-62008282D01*
X119417159Y-62104536D01*
X119563238Y-62165044D01*
X119720000Y-62185682D01*
X119876762Y-62165044D01*
X120022841Y-62104536D01*
X120148282Y-62008282D01*
X120244536Y-61882841D01*
X120305044Y-61736762D01*
X120322316Y-61605569D01*
X120324835Y-61586434D01*
X120325682Y-61580000D01*
X120324289Y-61569415D01*
X120310536Y-61464956D01*
X120305044Y-61423238D01*
X120244536Y-61277159D01*
X120148282Y-61151718D01*
X120084846Y-61103042D01*
X120050190Y-61052618D01*
X120051791Y-60991453D01*
X120089039Y-60942912D01*
X120145113Y-60925500D01*
X122394334Y-60925500D01*
X122410759Y-60926872D01*
X122428529Y-60929862D01*
X122428533Y-60929862D01*
X122432299Y-60930496D01*
X122436116Y-60930543D01*
X122436120Y-60930543D01*
X122438685Y-60930574D01*
X122444653Y-60930647D01*
X122448435Y-60930105D01*
X122448439Y-60930105D01*
X122450163Y-60929858D01*
X122452037Y-60929589D01*
X122460512Y-60928746D01*
X122739117Y-60913100D01*
X122741863Y-60912633D01*
X122741867Y-60912633D01*
X123027137Y-60864163D01*
X123027139Y-60864163D01*
X123029879Y-60863697D01*
X123173102Y-60822435D01*
X123310609Y-60782820D01*
X123310612Y-60782819D01*
X123313281Y-60782050D01*
X123424852Y-60735836D01*
X123583189Y-60670251D01*
X123583196Y-60670248D01*
X123585759Y-60669186D01*
X123686847Y-60613317D01*
X123841452Y-60527871D01*
X123841461Y-60527865D01*
X123843888Y-60526524D01*
X123949823Y-60451359D01*
X124082160Y-60357461D01*
X124082165Y-60357457D01*
X124084420Y-60355857D01*
X124094154Y-60347159D01*
X124228756Y-60226871D01*
X124280679Y-60180470D01*
X124289230Y-60173640D01*
X124293087Y-60170894D01*
X124296203Y-60168676D01*
X124298935Y-60166011D01*
X124298940Y-60166006D01*
X124302311Y-60162716D01*
X124302312Y-60162715D01*
X124305046Y-60160047D01*
X124322588Y-60136641D01*
X124331804Y-60126010D01*
X124663854Y-59793960D01*
X124714447Y-59769012D01*
X124714061Y-59767571D01*
X124720332Y-59765891D01*
X124726762Y-59765044D01*
X124872841Y-59704536D01*
X124998282Y-59608282D01*
X125094536Y-59482841D01*
X125155044Y-59336762D01*
X125175682Y-59180000D01*
X125155044Y-59023238D01*
X125094536Y-58877159D01*
X124998282Y-58751718D01*
X124872841Y-58655464D01*
X124726762Y-58594956D01*
X124570000Y-58574318D01*
X124413238Y-58594956D01*
X124267159Y-58655464D01*
X124141718Y-58751718D01*
X124045464Y-58877159D01*
X123984956Y-59023238D01*
X123984109Y-59029668D01*
X123982429Y-59035939D01*
X123980988Y-59035553D01*
X123956040Y-59086146D01*
X123626580Y-59415606D01*
X123614977Y-59425542D01*
X123594349Y-59440612D01*
X123590052Y-59446202D01*
X123590050Y-59446204D01*
X123583000Y-59455376D01*
X123569790Y-59469468D01*
X123438674Y-59584453D01*
X123428405Y-59592332D01*
X123262467Y-59703209D01*
X123251268Y-59709675D01*
X123072264Y-59797950D01*
X123060316Y-59802899D01*
X122871335Y-59867049D01*
X122858834Y-59870399D01*
X122663092Y-59909335D01*
X122650267Y-59911023D01*
X122521597Y-59919457D01*
X122482997Y-59921987D01*
X122461289Y-59921020D01*
X122460718Y-59920931D01*
X122450828Y-59919391D01*
X122443831Y-59920306D01*
X122443830Y-59920306D01*
X122418151Y-59923664D01*
X122405315Y-59924500D01*
X122325602Y-59924500D01*
X122267411Y-59905593D01*
X122231447Y-59856093D01*
X122231447Y-59794907D01*
X122267411Y-59745407D01*
X122291823Y-59732441D01*
X122442923Y-59677594D01*
X122448331Y-59675631D01*
X122453140Y-59672478D01*
X122453144Y-59672476D01*
X122589877Y-59582829D01*
X122594685Y-59579677D01*
X122598634Y-59575508D01*
X122598638Y-59575505D01*
X122711084Y-59456804D01*
X122715040Y-59452628D01*
X122718772Y-59446204D01*
X122800050Y-59306272D01*
X122800050Y-59306271D01*
X122802939Y-59301298D01*
X122841625Y-59173566D01*
X122852000Y-59139312D01*
X122852000Y-59139310D01*
X122853667Y-59133807D01*
X122864503Y-58959138D01*
X122834866Y-58786660D01*
X122766346Y-58625627D01*
X122662617Y-58484676D01*
X122658235Y-58480953D01*
X122658233Y-58480951D01*
X122533631Y-58375094D01*
X122533630Y-58375093D01*
X122529245Y-58371368D01*
X122443382Y-58327524D01*
X122378508Y-58294397D01*
X122378505Y-58294396D01*
X122373384Y-58291781D01*
X122367799Y-58290414D01*
X122367798Y-58290414D01*
X122207674Y-58251232D01*
X122207671Y-58251232D01*
X122203394Y-58250185D01*
X122198996Y-58249912D01*
X122198995Y-58249912D01*
X122193868Y-58249594D01*
X122193867Y-58249594D01*
X122192352Y-58249500D01*
X122066178Y-58249500D01*
X122063331Y-58249832D01*
X122063330Y-58249832D01*
X122052662Y-58251076D01*
X121936172Y-58264657D01*
X121930766Y-58266619D01*
X121930763Y-58266620D01*
X121854240Y-58294397D01*
X121771669Y-58324369D01*
X121766860Y-58327522D01*
X121766856Y-58327524D01*
X121675054Y-58387712D01*
X121625315Y-58420323D01*
X121621366Y-58424492D01*
X121621362Y-58424495D01*
X121512451Y-58539464D01*
X121504960Y-58547372D01*
X121502073Y-58552342D01*
X121502071Y-58552345D01*
X121419950Y-58693728D01*
X121417061Y-58698702D01*
X121366333Y-58866193D01*
X121355497Y-59040862D01*
X121385134Y-59213340D01*
X121453654Y-59374373D01*
X121557383Y-59515324D01*
X121561765Y-59519047D01*
X121561767Y-59519049D01*
X121686369Y-59624906D01*
X121690755Y-59628632D01*
X121770337Y-59669269D01*
X121841492Y-59705603D01*
X121841495Y-59705604D01*
X121846616Y-59708219D01*
X121852201Y-59709586D01*
X121852202Y-59709586D01*
X121932919Y-59729337D01*
X121984948Y-59761534D01*
X122008116Y-59818163D01*
X121993573Y-59877595D01*
X121946874Y-59917128D01*
X121909388Y-59924500D01*
X112094368Y-59924500D01*
X112077943Y-59923128D01*
X112060173Y-59920138D01*
X112060169Y-59920138D01*
X112056403Y-59919504D01*
X112052586Y-59919457D01*
X112052582Y-59919457D01*
X112049958Y-59919425D01*
X112044049Y-59919353D01*
X112040259Y-59919896D01*
X112040255Y-59919896D01*
X112035877Y-59920523D01*
X112026702Y-59921404D01*
X111953575Y-59924996D01*
X111722700Y-59936338D01*
X111404445Y-59983546D01*
X111092351Y-60061722D01*
X111090061Y-60062541D01*
X111090059Y-60062542D01*
X110791709Y-60169293D01*
X110791703Y-60169296D01*
X110789421Y-60170112D01*
X110787226Y-60171150D01*
X110787224Y-60171151D01*
X110680309Y-60221718D01*
X110498575Y-60307672D01*
X110496489Y-60308923D01*
X110496484Y-60308925D01*
X110432695Y-60347159D01*
X110222612Y-60473078D01*
X110220665Y-60474522D01*
X110220659Y-60474526D01*
X109974248Y-60657277D01*
X109964191Y-60664736D01*
X109749575Y-60859253D01*
X109740529Y-60866530D01*
X109733795Y-60871325D01*
X109724953Y-60879954D01*
X109722661Y-60883013D01*
X109722656Y-60883018D01*
X109707409Y-60903362D01*
X109698192Y-60913994D01*
X109176146Y-61436040D01*
X109125553Y-61460988D01*
X109125939Y-61462429D01*
X109119668Y-61464109D01*
X109113238Y-61464956D01*
X108967159Y-61525464D01*
X108841718Y-61621718D01*
X108745464Y-61747159D01*
X108684956Y-61893238D01*
X108664318Y-62050000D01*
X106770416Y-62050000D01*
X106755044Y-61933238D01*
X106694536Y-61787159D01*
X106598282Y-61661718D01*
X106472841Y-61565464D01*
X106326762Y-61504956D01*
X106170000Y-61484318D01*
X106013238Y-61504956D01*
X105867159Y-61565464D01*
X105741718Y-61661718D01*
X105645464Y-61787159D01*
X105584956Y-61933238D01*
X105564318Y-62090000D01*
X97695000Y-62090000D01*
X97695000Y-60979000D01*
X97713907Y-60920809D01*
X97763407Y-60884845D01*
X97794000Y-60880000D01*
X103489123Y-60880000D01*
X103540449Y-60880045D01*
X103550498Y-60875219D01*
X103550500Y-60875219D01*
X103551341Y-60874815D01*
X103572183Y-60867537D01*
X103573093Y-60867330D01*
X103573096Y-60867328D01*
X103583962Y-60864850D01*
X103593210Y-60857480D01*
X103612046Y-60845666D01*
X103612653Y-60845375D01*
X103612657Y-60845372D01*
X103622705Y-60840547D01*
X103630254Y-60831107D01*
X103645872Y-60815516D01*
X103655323Y-60807985D01*
X103660459Y-60797337D01*
X103672308Y-60778522D01*
X103672730Y-60777995D01*
X103672732Y-60777990D01*
X103679694Y-60769285D01*
X103682402Y-60757508D01*
X103689715Y-60736682D01*
X103690123Y-60735836D01*
X103694965Y-60725798D01*
X103694985Y-60702787D01*
X103696730Y-60702789D01*
X103696724Y-60702723D01*
X103695000Y-60702723D01*
X103695000Y-60685877D01*
X103695045Y-60634840D01*
X103695045Y-60634551D01*
X103695003Y-60634463D01*
X103695000Y-60634439D01*
X103695000Y-57465411D01*
X117602001Y-57465411D01*
X117602290Y-57470751D01*
X117608078Y-57524035D01*
X117610927Y-57536020D01*
X117657351Y-57659855D01*
X117664059Y-57672108D01*
X117742863Y-57777256D01*
X117752744Y-57787137D01*
X117857892Y-57865941D01*
X117870145Y-57872649D01*
X117993978Y-57919072D01*
X118005967Y-57921923D01*
X118059252Y-57927711D01*
X118064586Y-57928000D01*
X118994320Y-57928000D01*
X119007005Y-57923878D01*
X119010000Y-57919757D01*
X119010000Y-57912319D01*
X119210000Y-57912319D01*
X119214122Y-57925004D01*
X119218243Y-57927999D01*
X120155411Y-57927999D01*
X120160751Y-57927710D01*
X120214035Y-57921922D01*
X120226020Y-57919073D01*
X120349855Y-57872649D01*
X120362108Y-57865941D01*
X120467256Y-57787137D01*
X120477137Y-57777256D01*
X120555941Y-57672108D01*
X120562649Y-57659855D01*
X120609072Y-57536022D01*
X120611923Y-57524033D01*
X120617711Y-57470748D01*
X120618000Y-57465414D01*
X120618000Y-57435680D01*
X120613878Y-57422995D01*
X120609757Y-57420000D01*
X119225680Y-57420000D01*
X119212995Y-57424122D01*
X119210000Y-57428243D01*
X119210000Y-57912319D01*
X119010000Y-57912319D01*
X119010000Y-57435680D01*
X119005878Y-57422995D01*
X119001757Y-57420000D01*
X117617681Y-57420000D01*
X117604996Y-57424122D01*
X117602001Y-57428243D01*
X117602001Y-57465411D01*
X103695000Y-57465411D01*
X103695000Y-55600000D01*
X115869318Y-55600000D01*
X115889956Y-55756762D01*
X115950464Y-55902841D01*
X116046718Y-56028282D01*
X116172159Y-56124536D01*
X116318238Y-56185044D01*
X116330497Y-56186658D01*
X116369412Y-56200468D01*
X116426196Y-56235369D01*
X116429735Y-56236850D01*
X116429738Y-56236851D01*
X116482636Y-56258980D01*
X116572648Y-56296635D01*
X116576374Y-56297552D01*
X116723075Y-56333656D01*
X116723081Y-56333657D01*
X116726799Y-56334572D01*
X116730618Y-56334903D01*
X116730619Y-56334903D01*
X116856510Y-56345810D01*
X116864326Y-56346802D01*
X116877257Y-56348969D01*
X116877260Y-56348969D01*
X116884940Y-56350256D01*
X116911025Y-56346364D01*
X116925635Y-56345280D01*
X117850282Y-56345280D01*
X117908473Y-56364187D01*
X117944437Y-56413687D01*
X117947380Y-56463594D01*
X117939500Y-56503209D01*
X117939501Y-56609415D01*
X117939501Y-56672735D01*
X117920594Y-56730926D01*
X117875254Y-56765436D01*
X117870143Y-56767352D01*
X117857892Y-56774059D01*
X117752744Y-56852863D01*
X117742863Y-56862744D01*
X117664059Y-56967892D01*
X117657351Y-56980145D01*
X117610928Y-57103978D01*
X117608077Y-57115967D01*
X117602289Y-57169252D01*
X117602000Y-57174586D01*
X117602000Y-57204320D01*
X117606122Y-57217005D01*
X117610243Y-57220000D01*
X120602319Y-57220000D01*
X120615004Y-57215878D01*
X120617999Y-57211757D01*
X120617999Y-57174589D01*
X120617710Y-57169249D01*
X120613447Y-57130000D01*
X126876818Y-57130000D01*
X126897456Y-57286762D01*
X126957964Y-57432841D01*
X127054218Y-57558282D01*
X127179659Y-57654536D01*
X127325738Y-57715044D01*
X127482500Y-57735682D01*
X127639262Y-57715044D01*
X127785341Y-57654536D01*
X127910782Y-57558282D01*
X127996958Y-57445975D01*
X128047382Y-57411319D01*
X128108547Y-57412920D01*
X128157088Y-57450168D01*
X128174500Y-57506242D01*
X128174500Y-60149126D01*
X128155593Y-60207317D01*
X128146288Y-60218211D01*
X128141718Y-60221718D01*
X128137770Y-60226863D01*
X128137768Y-60226865D01*
X128076562Y-60306631D01*
X128045464Y-60347159D01*
X127984956Y-60493238D01*
X127964318Y-60650000D01*
X127984956Y-60806762D01*
X128045464Y-60952841D01*
X128141718Y-61078282D01*
X128267159Y-61174536D01*
X128413238Y-61235044D01*
X128570000Y-61255682D01*
X128726762Y-61235044D01*
X128872841Y-61174536D01*
X128998282Y-61078282D01*
X129094536Y-60952841D01*
X129155044Y-60806762D01*
X129175682Y-60650000D01*
X129155044Y-60493238D01*
X129094536Y-60347159D01*
X128998282Y-60221718D01*
X128872841Y-60125464D01*
X128853562Y-60117478D01*
X128836614Y-60110458D01*
X128790088Y-60070721D01*
X128775500Y-60018994D01*
X128775500Y-53925154D01*
X128794407Y-53866963D01*
X128814232Y-53846612D01*
X128861242Y-53810540D01*
X128903282Y-53778282D01*
X128999536Y-53652841D01*
X129060044Y-53506762D01*
X129060891Y-53500326D01*
X129062373Y-53494796D01*
X129095697Y-53443482D01*
X129152818Y-53421555D01*
X129211919Y-53437390D01*
X129250424Y-53484940D01*
X129257000Y-53520419D01*
X129257000Y-56762228D01*
X129238867Y-56815644D01*
X129240159Y-56816390D01*
X129236913Y-56822013D01*
X129232964Y-56827159D01*
X129172456Y-56973238D01*
X129151818Y-57130000D01*
X129172456Y-57286762D01*
X129232964Y-57432841D01*
X129329218Y-57558282D01*
X129454659Y-57654536D01*
X129600738Y-57715044D01*
X129757500Y-57735682D01*
X129914262Y-57715044D01*
X130060341Y-57654536D01*
X130185782Y-57558282D01*
X130282036Y-57432841D01*
X130342544Y-57286762D01*
X130363182Y-57130000D01*
X130342544Y-56973238D01*
X130282036Y-56827159D01*
X130278087Y-56822013D01*
X130274841Y-56816390D01*
X130276133Y-56815644D01*
X130258000Y-56762228D01*
X130258000Y-56386746D01*
X134052855Y-56386746D01*
X134056699Y-56404830D01*
X134059886Y-56414639D01*
X134135437Y-56584329D01*
X134140598Y-56593268D01*
X134249777Y-56743540D01*
X134256681Y-56751208D01*
X134394725Y-56875502D01*
X134403068Y-56881564D01*
X134563929Y-56974438D01*
X134573358Y-56978636D01*
X134750022Y-57036037D01*
X134760102Y-57038179D01*
X134898525Y-57052729D01*
X134903707Y-57053000D01*
X135180320Y-57053000D01*
X135193005Y-57048878D01*
X135196000Y-57044757D01*
X135196000Y-57037320D01*
X135704000Y-57037320D01*
X135708122Y-57050005D01*
X135712243Y-57053000D01*
X135996293Y-57053000D01*
X136001475Y-57052729D01*
X136139898Y-57038179D01*
X136149978Y-57036037D01*
X136326642Y-56978636D01*
X136336071Y-56974438D01*
X136496932Y-56881564D01*
X136505275Y-56875502D01*
X136643317Y-56751210D01*
X136650223Y-56743540D01*
X136759407Y-56593261D01*
X136764560Y-56584336D01*
X136840114Y-56414639D01*
X136843301Y-56404830D01*
X136846594Y-56389338D01*
X136845218Y-56376250D01*
X136836821Y-56374000D01*
X135719680Y-56374000D01*
X135706995Y-56378122D01*
X135704000Y-56382243D01*
X135704000Y-57037320D01*
X135196000Y-57037320D01*
X135196000Y-56389680D01*
X135191878Y-56376995D01*
X135187757Y-56374000D01*
X134065826Y-56374000D01*
X134053310Y-56378067D01*
X134052855Y-56386746D01*
X130258000Y-56386746D01*
X130258000Y-55850662D01*
X134053406Y-55850662D01*
X134054782Y-55863750D01*
X134063179Y-55866000D01*
X135180320Y-55866000D01*
X135193005Y-55861878D01*
X135196000Y-55857757D01*
X135196000Y-55850320D01*
X135704000Y-55850320D01*
X135708122Y-55863005D01*
X135712243Y-55866000D01*
X136834174Y-55866000D01*
X136846690Y-55861933D01*
X136847145Y-55853254D01*
X136843301Y-55835170D01*
X136840114Y-55825361D01*
X136764563Y-55655671D01*
X136759402Y-55646732D01*
X136650223Y-55496460D01*
X136643319Y-55488792D01*
X136505275Y-55364498D01*
X136496932Y-55358436D01*
X136336071Y-55265562D01*
X136326642Y-55261364D01*
X136149978Y-55203963D01*
X136139898Y-55201821D01*
X136001475Y-55187271D01*
X135996293Y-55187000D01*
X135719680Y-55187000D01*
X135706995Y-55191122D01*
X135704000Y-55195243D01*
X135704000Y-55850320D01*
X135196000Y-55850320D01*
X135196000Y-55202680D01*
X135191878Y-55189995D01*
X135187757Y-55187000D01*
X134903707Y-55187000D01*
X134898525Y-55187271D01*
X134760102Y-55201821D01*
X134750022Y-55203963D01*
X134573358Y-55261364D01*
X134563929Y-55265562D01*
X134403068Y-55358436D01*
X134394725Y-55364498D01*
X134256683Y-55488790D01*
X134249777Y-55496460D01*
X134140593Y-55646739D01*
X134135440Y-55655664D01*
X134059886Y-55825361D01*
X134056699Y-55835170D01*
X134053406Y-55850662D01*
X130258000Y-55850662D01*
X130258000Y-55016775D01*
X130276907Y-54958584D01*
X130326407Y-54922620D01*
X130387593Y-54922620D01*
X130417267Y-54938233D01*
X130497159Y-54999536D01*
X130643238Y-55060044D01*
X130800000Y-55080682D01*
X130956762Y-55060044D01*
X131102841Y-54999536D01*
X131228282Y-54903282D01*
X131324536Y-54777841D01*
X131385044Y-54631762D01*
X131405682Y-54475000D01*
X131385044Y-54318238D01*
X131324536Y-54172159D01*
X131228282Y-54046718D01*
X131102841Y-53950464D01*
X130956762Y-53889956D01*
X130800000Y-53869318D01*
X130643238Y-53889956D01*
X130497159Y-53950464D01*
X130492010Y-53954415D01*
X130417267Y-54011767D01*
X130359591Y-54032191D01*
X130300926Y-54014813D01*
X130263678Y-53966272D01*
X130258000Y-53933225D01*
X130258000Y-47746746D01*
X134052855Y-47746746D01*
X134056699Y-47764830D01*
X134059886Y-47774639D01*
X134135437Y-47944329D01*
X134140598Y-47953268D01*
X134249777Y-48103540D01*
X134256681Y-48111208D01*
X134394725Y-48235502D01*
X134403068Y-48241564D01*
X134563929Y-48334438D01*
X134573358Y-48338636D01*
X134750022Y-48396037D01*
X134760102Y-48398179D01*
X134898525Y-48412729D01*
X134903707Y-48413000D01*
X135180320Y-48413000D01*
X135193005Y-48408878D01*
X135196000Y-48404757D01*
X135196000Y-48397320D01*
X135704000Y-48397320D01*
X135708122Y-48410005D01*
X135712243Y-48413000D01*
X135996293Y-48413000D01*
X136001475Y-48412729D01*
X136139898Y-48398179D01*
X136149978Y-48396037D01*
X136326642Y-48338636D01*
X136336071Y-48334438D01*
X136496932Y-48241564D01*
X136505275Y-48235502D01*
X136643317Y-48111210D01*
X136650223Y-48103540D01*
X136759407Y-47953261D01*
X136764560Y-47944336D01*
X136840114Y-47774639D01*
X136843301Y-47764830D01*
X136846594Y-47749338D01*
X136845218Y-47736250D01*
X136836821Y-47734000D01*
X135719680Y-47734000D01*
X135706995Y-47738122D01*
X135704000Y-47742243D01*
X135704000Y-48397320D01*
X135196000Y-48397320D01*
X135196000Y-47749680D01*
X135191878Y-47736995D01*
X135187757Y-47734000D01*
X134065826Y-47734000D01*
X134053310Y-47738067D01*
X134052855Y-47746746D01*
X130258000Y-47746746D01*
X130258000Y-47210662D01*
X134053406Y-47210662D01*
X134054782Y-47223750D01*
X134063179Y-47226000D01*
X135180320Y-47226000D01*
X135193005Y-47221878D01*
X135196000Y-47217757D01*
X135196000Y-47210320D01*
X135704000Y-47210320D01*
X135708122Y-47223005D01*
X135712243Y-47226000D01*
X136834174Y-47226000D01*
X136846690Y-47221933D01*
X136847145Y-47213254D01*
X136843301Y-47195170D01*
X136840114Y-47185361D01*
X136764563Y-47015671D01*
X136759402Y-47006732D01*
X136650223Y-46856460D01*
X136643319Y-46848792D01*
X136505275Y-46724498D01*
X136496932Y-46718436D01*
X136336071Y-46625562D01*
X136326642Y-46621364D01*
X136149978Y-46563963D01*
X136139898Y-46561821D01*
X136001475Y-46547271D01*
X135996293Y-46547000D01*
X135719680Y-46547000D01*
X135706995Y-46551122D01*
X135704000Y-46555243D01*
X135704000Y-47210320D01*
X135196000Y-47210320D01*
X135196000Y-46562680D01*
X135191878Y-46549995D01*
X135187757Y-46547000D01*
X134903707Y-46547000D01*
X134898525Y-46547271D01*
X134760102Y-46561821D01*
X134750022Y-46563963D01*
X134573358Y-46621364D01*
X134563929Y-46625562D01*
X134403068Y-46718436D01*
X134394725Y-46724498D01*
X134256683Y-46848790D01*
X134249777Y-46856460D01*
X134140593Y-47006739D01*
X134135440Y-47015664D01*
X134059886Y-47185361D01*
X134056699Y-47195170D01*
X134053406Y-47210662D01*
X130258000Y-47210662D01*
X130258000Y-46836852D01*
X130259179Y-46821622D01*
X130262023Y-46803355D01*
X130263109Y-46796380D01*
X130260960Y-46779945D01*
X130260429Y-46759341D01*
X130267358Y-46671304D01*
X130269788Y-46655962D01*
X130295810Y-46547568D01*
X130300611Y-46532792D01*
X130343270Y-46429804D01*
X130350323Y-46415962D01*
X130408570Y-46320914D01*
X130417700Y-46308347D01*
X130470761Y-46246220D01*
X130487638Y-46230579D01*
X130488702Y-46229801D01*
X130494401Y-46225638D01*
X130514483Y-46199514D01*
X130522968Y-46189846D01*
X130618854Y-46093960D01*
X130669447Y-46069012D01*
X130669061Y-46067571D01*
X130675332Y-46065891D01*
X130681762Y-46065044D01*
X130827841Y-46004536D01*
X130953282Y-45908282D01*
X131049536Y-45782841D01*
X131075395Y-45720411D01*
X136367001Y-45720411D01*
X136367290Y-45725751D01*
X136373078Y-45779035D01*
X136375927Y-45791020D01*
X136422351Y-45914855D01*
X136429059Y-45927108D01*
X136507863Y-46032256D01*
X136517744Y-46042137D01*
X136622892Y-46120941D01*
X136635145Y-46127649D01*
X136758978Y-46174072D01*
X136770967Y-46176923D01*
X136824252Y-46182711D01*
X136829586Y-46183000D01*
X137280320Y-46183000D01*
X137293005Y-46178878D01*
X137296000Y-46174757D01*
X137296000Y-46167319D01*
X137804000Y-46167319D01*
X137808122Y-46180004D01*
X137812243Y-46182999D01*
X138270411Y-46182999D01*
X138275751Y-46182710D01*
X138329035Y-46176922D01*
X138341020Y-46174073D01*
X138464855Y-46127649D01*
X138477108Y-46120941D01*
X138582256Y-46042137D01*
X138592137Y-46032256D01*
X138670941Y-45927108D01*
X138677649Y-45914855D01*
X138724072Y-45791022D01*
X138726923Y-45779033D01*
X138732711Y-45725748D01*
X138733000Y-45720414D01*
X138733000Y-45269680D01*
X138728878Y-45256995D01*
X138724757Y-45254000D01*
X137819680Y-45254000D01*
X137806995Y-45258122D01*
X137804000Y-45262243D01*
X137804000Y-46167319D01*
X137296000Y-46167319D01*
X137296000Y-45269680D01*
X137291878Y-45256995D01*
X137287757Y-45254000D01*
X136382681Y-45254000D01*
X136369996Y-45258122D01*
X136367001Y-45262243D01*
X136367001Y-45720411D01*
X131075395Y-45720411D01*
X131110044Y-45636762D01*
X131130682Y-45480000D01*
X131110044Y-45323238D01*
X131049536Y-45177159D01*
X130953282Y-45051718D01*
X130827841Y-44955464D01*
X130681762Y-44894956D01*
X130525000Y-44874318D01*
X130368238Y-44894956D01*
X130222159Y-44955464D01*
X130096718Y-45051718D01*
X130000464Y-45177159D01*
X129939956Y-45323238D01*
X129939109Y-45329668D01*
X129937429Y-45335939D01*
X129935988Y-45335553D01*
X129911040Y-45386146D01*
X129822922Y-45474264D01*
X129810337Y-45484907D01*
X129792547Y-45497574D01*
X129783705Y-45506203D01*
X129781414Y-45509260D01*
X129776139Y-45516297D01*
X129771353Y-45522196D01*
X129628094Y-45685551D01*
X129496224Y-45882909D01*
X129494791Y-45885815D01*
X129494788Y-45885820D01*
X129483711Y-45908282D01*
X129391242Y-46095791D01*
X129314945Y-46320554D01*
X129268639Y-46553353D01*
X129268428Y-46556574D01*
X129268427Y-46556581D01*
X129255479Y-46754148D01*
X129254319Y-46764091D01*
X129252004Y-46777851D01*
X129251853Y-46790205D01*
X129252396Y-46793996D01*
X129256000Y-46819162D01*
X129257000Y-46833197D01*
X129257000Y-53179581D01*
X129238093Y-53237772D01*
X129188593Y-53273736D01*
X129127407Y-53273736D01*
X129077907Y-53237772D01*
X129062373Y-53205204D01*
X129060891Y-53199674D01*
X129060044Y-53193238D01*
X128999536Y-53047159D01*
X128903282Y-52921718D01*
X128777841Y-52825464D01*
X128631762Y-52764956D01*
X128475000Y-52744318D01*
X128318238Y-52764956D01*
X128172159Y-52825464D01*
X128046718Y-52921718D01*
X127950464Y-53047159D01*
X127889956Y-53193238D01*
X127869318Y-53350000D01*
X127889956Y-53506762D01*
X127950464Y-53652841D01*
X128046718Y-53778282D01*
X128088758Y-53810540D01*
X128135768Y-53846612D01*
X128170423Y-53897037D01*
X128174500Y-53925154D01*
X128174500Y-56753758D01*
X128155593Y-56811949D01*
X128106093Y-56847913D01*
X128044907Y-56847913D01*
X127996958Y-56814025D01*
X127914736Y-56706871D01*
X127910782Y-56701718D01*
X127785341Y-56605464D01*
X127639262Y-56544956D01*
X127482500Y-56524318D01*
X127325738Y-56544956D01*
X127179659Y-56605464D01*
X127054218Y-56701718D01*
X126957964Y-56827159D01*
X126897456Y-56973238D01*
X126876818Y-57130000D01*
X120613447Y-57130000D01*
X120611922Y-57115965D01*
X120609073Y-57103980D01*
X120562649Y-56980145D01*
X120555941Y-56967892D01*
X120477137Y-56862744D01*
X120467256Y-56852863D01*
X120397529Y-56800606D01*
X120362303Y-56750578D01*
X120363211Y-56689399D01*
X120400997Y-56640246D01*
X120400835Y-56640036D01*
X120401623Y-56639431D01*
X120401903Y-56639067D01*
X120406100Y-56636263D01*
X120408534Y-56634128D01*
X120408541Y-56634123D01*
X120494607Y-56558645D01*
X120498324Y-56555915D01*
X120498260Y-56555837D01*
X120501279Y-56553357D01*
X120501281Y-56553355D01*
X120503146Y-56551823D01*
X120506286Y-56548683D01*
X120511014Y-56544256D01*
X120527436Y-56529854D01*
X120535924Y-56523191D01*
X120543960Y-56517565D01*
X120554013Y-56503209D01*
X120554304Y-56502793D01*
X120565395Y-56489574D01*
X122234920Y-54820051D01*
X122248140Y-54808959D01*
X122255813Y-54803586D01*
X122262910Y-54798617D01*
X122265086Y-54795510D01*
X122547717Y-54489762D01*
X122807802Y-54159846D01*
X122808874Y-54158242D01*
X122808881Y-54158232D01*
X123040118Y-53812160D01*
X123040123Y-53812152D01*
X123041200Y-53810540D01*
X123246473Y-53444000D01*
X123247876Y-53440958D01*
X123421538Y-53064255D01*
X123422355Y-53062483D01*
X123567761Y-52668343D01*
X123576877Y-52636022D01*
X123681267Y-52265879D01*
X123681268Y-52265876D01*
X123681794Y-52264010D01*
X123683320Y-52256342D01*
X123723014Y-52056785D01*
X123763753Y-51851976D01*
X123813132Y-51434782D01*
X123828780Y-51036501D01*
X123829173Y-51026495D01*
X123829173Y-51026494D01*
X123829478Y-51018729D01*
X123830136Y-51015000D01*
X123827004Y-50997236D01*
X123825500Y-50980047D01*
X123825500Y-49500154D01*
X123844407Y-49441963D01*
X123864232Y-49421612D01*
X123871589Y-49415967D01*
X123953282Y-49353282D01*
X124049536Y-49227841D01*
X124110044Y-49081762D01*
X124130682Y-48925000D01*
X124110044Y-48768238D01*
X124049536Y-48622159D01*
X123953282Y-48496718D01*
X123827841Y-48400464D01*
X123681762Y-48339956D01*
X123525000Y-48319318D01*
X123368238Y-48339956D01*
X123222159Y-48400464D01*
X123096718Y-48496718D01*
X123000464Y-48622159D01*
X122997981Y-48628154D01*
X122997980Y-48628156D01*
X122974488Y-48684871D01*
X122934752Y-48731397D01*
X122875257Y-48745681D01*
X122818729Y-48722267D01*
X122791928Y-48685748D01*
X122768597Y-48630917D01*
X122768597Y-48630916D01*
X122766346Y-48625627D01*
X122662617Y-48484676D01*
X122658235Y-48480953D01*
X122658233Y-48480951D01*
X122533631Y-48375094D01*
X122533630Y-48375093D01*
X122529245Y-48371368D01*
X122443382Y-48327524D01*
X122378508Y-48294397D01*
X122378505Y-48294396D01*
X122373384Y-48291781D01*
X122367799Y-48290414D01*
X122367798Y-48290414D01*
X122207674Y-48251232D01*
X122207671Y-48251232D01*
X122203394Y-48250185D01*
X122198996Y-48249912D01*
X122198995Y-48249912D01*
X122193868Y-48249594D01*
X122193867Y-48249594D01*
X122192352Y-48249500D01*
X122066178Y-48249500D01*
X122063331Y-48249832D01*
X122063330Y-48249832D01*
X122052662Y-48251076D01*
X121936172Y-48264657D01*
X121930766Y-48266619D01*
X121930763Y-48266620D01*
X121854240Y-48294397D01*
X121771669Y-48324369D01*
X121766860Y-48327522D01*
X121766856Y-48327524D01*
X121675054Y-48387712D01*
X121625315Y-48420323D01*
X121621366Y-48424492D01*
X121621362Y-48424495D01*
X121514694Y-48537097D01*
X121504960Y-48547372D01*
X121502073Y-48552342D01*
X121502071Y-48552345D01*
X121425095Y-48684871D01*
X121417061Y-48698702D01*
X121366333Y-48866193D01*
X121365977Y-48871936D01*
X121356721Y-49021140D01*
X121355497Y-49040862D01*
X121385134Y-49213340D01*
X121453654Y-49374373D01*
X121557383Y-49515324D01*
X121561765Y-49519047D01*
X121561767Y-49519049D01*
X121662107Y-49604294D01*
X121690755Y-49628632D01*
X121728932Y-49648126D01*
X121841492Y-49705603D01*
X121841495Y-49705604D01*
X121846616Y-49708219D01*
X121852201Y-49709586D01*
X121852202Y-49709586D01*
X122012326Y-49748768D01*
X122012329Y-49748768D01*
X122016606Y-49749815D01*
X122021004Y-49750088D01*
X122021005Y-49750088D01*
X122026132Y-49750406D01*
X122026133Y-49750406D01*
X122027648Y-49750500D01*
X122153822Y-49750500D01*
X122159698Y-49749815D01*
X122168678Y-49748768D01*
X122283828Y-49735343D01*
X122289234Y-49733381D01*
X122289237Y-49733380D01*
X122442923Y-49677594D01*
X122448331Y-49675631D01*
X122453140Y-49672478D01*
X122453144Y-49672476D01*
X122565336Y-49598919D01*
X122594685Y-49579677D01*
X122598634Y-49575508D01*
X122598638Y-49575505D01*
X122711084Y-49456804D01*
X122715040Y-49452628D01*
X122733056Y-49421612D01*
X122800050Y-49306272D01*
X122800050Y-49306271D01*
X122802939Y-49301298D01*
X122819598Y-49246294D01*
X122854561Y-49196082D01*
X122912360Y-49176010D01*
X122970919Y-49193745D01*
X122999001Y-49224309D01*
X123000464Y-49227841D01*
X123096718Y-49353282D01*
X123178411Y-49415967D01*
X123185768Y-49421612D01*
X123220423Y-49472037D01*
X123224500Y-49500154D01*
X123224500Y-50980047D01*
X123222996Y-50997236D01*
X123219864Y-51015000D01*
X123221368Y-51023530D01*
X123221810Y-51026037D01*
X123223238Y-51047114D01*
X123213676Y-51290499D01*
X123210025Y-51383419D01*
X123209416Y-51391159D01*
X123192613Y-51533127D01*
X123166535Y-51753450D01*
X123165319Y-51761128D01*
X123140376Y-51886526D01*
X123104521Y-52066785D01*
X123094147Y-52118937D01*
X123092335Y-52126482D01*
X123038603Y-52317005D01*
X122993310Y-52477601D01*
X122990908Y-52484994D01*
X122886708Y-52767440D01*
X122867275Y-52820117D01*
X122864636Y-52827269D01*
X122861661Y-52834449D01*
X122823253Y-52917764D01*
X122708934Y-53165740D01*
X122705405Y-53172667D01*
X122533209Y-53480145D01*
X122527147Y-53490969D01*
X122523085Y-53497596D01*
X122320401Y-53800934D01*
X122315833Y-53807222D01*
X122122968Y-54051871D01*
X122089987Y-54093707D01*
X122084954Y-54099602D01*
X121856474Y-54346769D01*
X121840564Y-54360659D01*
X121838478Y-54362120D01*
X121831382Y-54367089D01*
X121821036Y-54381864D01*
X121809948Y-54395080D01*
X120426917Y-55778111D01*
X120372400Y-55805888D01*
X120311968Y-55796317D01*
X120270975Y-55755324D01*
X120270607Y-55753474D01*
X120232923Y-55697077D01*
X120176526Y-55659393D01*
X120173403Y-55658772D01*
X120130029Y-55621728D01*
X120115745Y-55562233D01*
X120139160Y-55505705D01*
X120172641Y-55481380D01*
X120176526Y-55480607D01*
X120232923Y-55442923D01*
X120270607Y-55386526D01*
X120280500Y-55336791D01*
X120280499Y-55167264D01*
X120299406Y-55109074D01*
X120344746Y-55074564D01*
X120349857Y-55072648D01*
X120362108Y-55065941D01*
X120467256Y-54987137D01*
X120477137Y-54977256D01*
X120555941Y-54872108D01*
X120562649Y-54859855D01*
X120609072Y-54736022D01*
X120611923Y-54724033D01*
X120617711Y-54670748D01*
X120618000Y-54665414D01*
X120618000Y-54635680D01*
X120613878Y-54622995D01*
X120609757Y-54620000D01*
X117617681Y-54620000D01*
X117604996Y-54624122D01*
X117602001Y-54628243D01*
X117602001Y-54665411D01*
X117602290Y-54670748D01*
X117606533Y-54709809D01*
X117594020Y-54769701D01*
X117548693Y-54810800D01*
X117508112Y-54819500D01*
X116986754Y-54819500D01*
X116971758Y-54818357D01*
X116946676Y-54814513D01*
X116932475Y-54816835D01*
X116925271Y-54817743D01*
X116768595Y-54831640D01*
X116595609Y-54876812D01*
X116591831Y-54878510D01*
X116436309Y-54948407D01*
X116436306Y-54948408D01*
X116432536Y-54950103D01*
X116362279Y-54997077D01*
X116358517Y-54999592D01*
X116329114Y-55012919D01*
X116324675Y-55014109D01*
X116318238Y-55014956D01*
X116172159Y-55075464D01*
X116046718Y-55171718D01*
X115950464Y-55297159D01*
X115889956Y-55443238D01*
X115869318Y-55600000D01*
X103695000Y-55600000D01*
X103695000Y-54404320D01*
X117602000Y-54404320D01*
X117606122Y-54417005D01*
X117610243Y-54420000D01*
X118994320Y-54420000D01*
X119007005Y-54415878D01*
X119010000Y-54411757D01*
X119010000Y-54404320D01*
X119210000Y-54404320D01*
X119214122Y-54417005D01*
X119218243Y-54420000D01*
X120602319Y-54420000D01*
X120615004Y-54415878D01*
X120617999Y-54411757D01*
X120617999Y-54374589D01*
X120617710Y-54369249D01*
X120611922Y-54315965D01*
X120609073Y-54303980D01*
X120571874Y-54204752D01*
X120569151Y-54143627D01*
X120571874Y-54135248D01*
X120609072Y-54036022D01*
X120611923Y-54024033D01*
X120617711Y-53970748D01*
X120618000Y-53965414D01*
X120618000Y-53935680D01*
X120613878Y-53922995D01*
X120609757Y-53920000D01*
X119225680Y-53920000D01*
X119212995Y-53924122D01*
X119210000Y-53928243D01*
X119210000Y-54404320D01*
X119010000Y-54404320D01*
X119010000Y-53935680D01*
X119005878Y-53922995D01*
X119001757Y-53920000D01*
X117617681Y-53920000D01*
X117604996Y-53924122D01*
X117602001Y-53928243D01*
X117602001Y-53965411D01*
X117602290Y-53970751D01*
X117608078Y-54024035D01*
X117610927Y-54036020D01*
X117648126Y-54135248D01*
X117650849Y-54196373D01*
X117648126Y-54204752D01*
X117610928Y-54303978D01*
X117608077Y-54315967D01*
X117602289Y-54369252D01*
X117602000Y-54374586D01*
X117602000Y-54404320D01*
X103695000Y-54404320D01*
X103695000Y-52450000D01*
X114069318Y-52450000D01*
X114089956Y-52606762D01*
X114150464Y-52752841D01*
X114246718Y-52878282D01*
X114372159Y-52974536D01*
X114518238Y-53035044D01*
X114675000Y-53055682D01*
X114831762Y-53035044D01*
X114916366Y-53000000D01*
X115619318Y-53000000D01*
X115639956Y-53156762D01*
X115700464Y-53302841D01*
X115796718Y-53428282D01*
X115922159Y-53524536D01*
X116068238Y-53585044D01*
X116199431Y-53602316D01*
X116212080Y-53603981D01*
X116225000Y-53605682D01*
X116237921Y-53603981D01*
X116250569Y-53602316D01*
X116381762Y-53585044D01*
X116527841Y-53524536D01*
X116636762Y-53440958D01*
X116697029Y-53420500D01*
X117536870Y-53420500D01*
X117595061Y-53439407D01*
X117631025Y-53488907D01*
X117629570Y-53554253D01*
X117610927Y-53603981D01*
X117608077Y-53615967D01*
X117602289Y-53669252D01*
X117602000Y-53674586D01*
X117602000Y-53704320D01*
X117606122Y-53717005D01*
X117610243Y-53720000D01*
X120602319Y-53720000D01*
X120615004Y-53715878D01*
X120617999Y-53711757D01*
X120617999Y-53674589D01*
X120617710Y-53669249D01*
X120611922Y-53615965D01*
X120609073Y-53603980D01*
X120562649Y-53480145D01*
X120555941Y-53467892D01*
X120477137Y-53362744D01*
X120467256Y-53352863D01*
X120362103Y-53274056D01*
X120349862Y-53267354D01*
X120344748Y-53265437D01*
X120296898Y-53227306D01*
X120280500Y-53172738D01*
X120280499Y-53067265D01*
X120299406Y-53009074D01*
X120344746Y-52974564D01*
X120349857Y-52972648D01*
X120362108Y-52965941D01*
X120467256Y-52887137D01*
X120477137Y-52877256D01*
X120555941Y-52772108D01*
X120562649Y-52759855D01*
X120609072Y-52636022D01*
X120611923Y-52624033D01*
X120617711Y-52570748D01*
X120618000Y-52565414D01*
X120618000Y-52535680D01*
X120613878Y-52522995D01*
X120609757Y-52520000D01*
X117617681Y-52520000D01*
X117604996Y-52524122D01*
X117602001Y-52528243D01*
X117602001Y-52565411D01*
X117602290Y-52570751D01*
X117608078Y-52624035D01*
X117610926Y-52636017D01*
X117629570Y-52685747D01*
X117632293Y-52746872D01*
X117598568Y-52797924D01*
X117536870Y-52819500D01*
X116866360Y-52819500D01*
X116808169Y-52800593D01*
X116774896Y-52758385D01*
X116774733Y-52757990D01*
X116749536Y-52697159D01*
X116653282Y-52571718D01*
X116527841Y-52475464D01*
X116381762Y-52414956D01*
X116225000Y-52394318D01*
X116068238Y-52414956D01*
X115922159Y-52475464D01*
X115796718Y-52571718D01*
X115700464Y-52697159D01*
X115639956Y-52843238D01*
X115619318Y-53000000D01*
X114916366Y-53000000D01*
X114977841Y-52974536D01*
X115103282Y-52878282D01*
X115199536Y-52752841D01*
X115260044Y-52606762D01*
X115280682Y-52450000D01*
X115276069Y-52414956D01*
X115266799Y-52344545D01*
X115277949Y-52284384D01*
X115300654Y-52256345D01*
X115359403Y-52206170D01*
X115371968Y-52197041D01*
X115485212Y-52127643D01*
X115499052Y-52120592D01*
X115621753Y-52069768D01*
X115636524Y-52064968D01*
X115667910Y-52057433D01*
X115765674Y-52033962D01*
X115781018Y-52031532D01*
X115890456Y-52022919D01*
X115905296Y-52023632D01*
X115912657Y-52023632D01*
X115921187Y-52025136D01*
X115938951Y-52022004D01*
X115956140Y-52020500D01*
X117536870Y-52020500D01*
X117595061Y-52039407D01*
X117631025Y-52088907D01*
X117629570Y-52154253D01*
X117610927Y-52203981D01*
X117608077Y-52215967D01*
X117602289Y-52269252D01*
X117602000Y-52274586D01*
X117602000Y-52304320D01*
X117606122Y-52317005D01*
X117610243Y-52320000D01*
X120602319Y-52320000D01*
X120615004Y-52315878D01*
X120617999Y-52311757D01*
X120617999Y-52274589D01*
X120617710Y-52269249D01*
X120611922Y-52215965D01*
X120609073Y-52203980D01*
X120562649Y-52080145D01*
X120555941Y-52067892D01*
X120477137Y-51962744D01*
X120467256Y-51952863D01*
X120362103Y-51874056D01*
X120349862Y-51867354D01*
X120344748Y-51865437D01*
X120296898Y-51827306D01*
X120280500Y-51772738D01*
X120280499Y-51608070D01*
X120280499Y-51603210D01*
X120270607Y-51553474D01*
X120232923Y-51497077D01*
X120176526Y-51459393D01*
X120173403Y-51458772D01*
X120130029Y-51421728D01*
X120115745Y-51362233D01*
X120139160Y-51305705D01*
X120172641Y-51281380D01*
X120176526Y-51280607D01*
X120232923Y-51242923D01*
X120270607Y-51186526D01*
X120280500Y-51136791D01*
X120280499Y-50903210D01*
X120270607Y-50853474D01*
X120232923Y-50797077D01*
X120176526Y-50759393D01*
X120173403Y-50758772D01*
X120130029Y-50721728D01*
X120115745Y-50662233D01*
X120139160Y-50605705D01*
X120172641Y-50581380D01*
X120176526Y-50580607D01*
X120232923Y-50542923D01*
X120270607Y-50486526D01*
X120280500Y-50436791D01*
X120280499Y-50267264D01*
X120299406Y-50209074D01*
X120344746Y-50174564D01*
X120349857Y-50172648D01*
X120362108Y-50165941D01*
X120467256Y-50087137D01*
X120477137Y-50077256D01*
X120555941Y-49972108D01*
X120562649Y-49959855D01*
X120609072Y-49836022D01*
X120611923Y-49824033D01*
X120617711Y-49770748D01*
X120618000Y-49765414D01*
X120618000Y-49735680D01*
X120613878Y-49722995D01*
X120609757Y-49720000D01*
X117602001Y-49720000D01*
X117602001Y-49718638D01*
X117560684Y-49718636D01*
X117526007Y-49698917D01*
X117516014Y-49690154D01*
X117491008Y-49648126D01*
X117456805Y-49637013D01*
X117442206Y-49622157D01*
X117441882Y-49622481D01*
X117435758Y-49616357D01*
X117430789Y-49609261D01*
X117416014Y-49598915D01*
X117402798Y-49587827D01*
X117319289Y-49504318D01*
X117602000Y-49504318D01*
X117606949Y-49519550D01*
X117609792Y-49520000D01*
X118994320Y-49520000D01*
X119007005Y-49515878D01*
X119010000Y-49511757D01*
X119010000Y-49504320D01*
X119210000Y-49504320D01*
X119214122Y-49517005D01*
X119218243Y-49520000D01*
X120602319Y-49520000D01*
X120615004Y-49515878D01*
X120617999Y-49511757D01*
X120617999Y-49474589D01*
X120617710Y-49469249D01*
X120611922Y-49415965D01*
X120609073Y-49403980D01*
X120562649Y-49280145D01*
X120555941Y-49267892D01*
X120477137Y-49162744D01*
X120467256Y-49152863D01*
X120362108Y-49074059D01*
X120349855Y-49067351D01*
X120226022Y-49020928D01*
X120214033Y-49018077D01*
X120160748Y-49012289D01*
X120155414Y-49012000D01*
X119225680Y-49012000D01*
X119212995Y-49016122D01*
X119210000Y-49020243D01*
X119210000Y-49504320D01*
X119010000Y-49504320D01*
X119010000Y-49027681D01*
X119005878Y-49014996D01*
X119001757Y-49012001D01*
X118064589Y-49012001D01*
X118059249Y-49012290D01*
X118005965Y-49018078D01*
X117993980Y-49020927D01*
X117870145Y-49067351D01*
X117857892Y-49074059D01*
X117752744Y-49152863D01*
X117742863Y-49162744D01*
X117664059Y-49267892D01*
X117657351Y-49280145D01*
X117610928Y-49403978D01*
X117608077Y-49415967D01*
X117602289Y-49469252D01*
X117602000Y-49474586D01*
X117602000Y-49504318D01*
X117319289Y-49504318D01*
X116567615Y-48752644D01*
X116556524Y-48739425D01*
X116551149Y-48731748D01*
X116551146Y-48731745D01*
X116546180Y-48724653D01*
X116539088Y-48719687D01*
X116532961Y-48713560D01*
X116533219Y-48713302D01*
X116523532Y-48704328D01*
X116484378Y-48656619D01*
X116473596Y-48640483D01*
X116465655Y-48625627D01*
X116453335Y-48602577D01*
X116442579Y-48542345D01*
X116469280Y-48487294D01*
X116480373Y-48477371D01*
X116518282Y-48448282D01*
X116614536Y-48322841D01*
X116675044Y-48176762D01*
X116695682Y-48020000D01*
X116675044Y-47863238D01*
X116614536Y-47717159D01*
X116518282Y-47591718D01*
X116392841Y-47495464D01*
X116246762Y-47434956D01*
X116090000Y-47414318D01*
X115933238Y-47434956D01*
X115787159Y-47495464D01*
X115661718Y-47591718D01*
X115565464Y-47717159D01*
X115504956Y-47863238D01*
X115484318Y-48020000D01*
X115504956Y-48176762D01*
X115565464Y-48322841D01*
X115661718Y-48448282D01*
X115777466Y-48537098D01*
X115813462Y-48592527D01*
X115820298Y-48620998D01*
X115835633Y-48684871D01*
X115841085Y-48707582D01*
X115842570Y-48711168D01*
X115842572Y-48711173D01*
X115856866Y-48745681D01*
X115908629Y-48870648D01*
X116000850Y-49021140D01*
X116003376Y-49024098D01*
X116003377Y-49024099D01*
X116073311Y-49105984D01*
X116076107Y-49109844D01*
X116076380Y-49110479D01*
X116080394Y-49115365D01*
X116084022Y-49118993D01*
X116089299Y-49124703D01*
X116104596Y-49142614D01*
X116109344Y-49148745D01*
X116109684Y-49149085D01*
X116114652Y-49156179D01*
X116121747Y-49161147D01*
X116129424Y-49166523D01*
X116142643Y-49177614D01*
X116977827Y-50012798D01*
X116988915Y-50026014D01*
X116999261Y-50040789D01*
X117006362Y-50045761D01*
X117007034Y-50046433D01*
X117014015Y-50051964D01*
X117167020Y-50188698D01*
X117266908Y-50259573D01*
X117303424Y-50308665D01*
X117304111Y-50369846D01*
X117268705Y-50419747D01*
X117222541Y-50438465D01*
X117207325Y-50440468D01*
X117173238Y-50444956D01*
X117027159Y-50505464D01*
X116901718Y-50601718D01*
X116805464Y-50727159D01*
X116744956Y-50873238D01*
X116730894Y-50980047D01*
X116727416Y-51006472D01*
X116724318Y-51030000D01*
X116744956Y-51186762D01*
X116747440Y-51192760D01*
X116747441Y-51192762D01*
X116784659Y-51282615D01*
X116789460Y-51343611D01*
X116757490Y-51395780D01*
X116700962Y-51419195D01*
X116693195Y-51419500D01*
X115956140Y-51419500D01*
X115938951Y-51417996D01*
X115921187Y-51414864D01*
X115912657Y-51416368D01*
X115911748Y-51416368D01*
X115903908Y-51417313D01*
X115722099Y-51429229D01*
X115722092Y-51429230D01*
X115718871Y-51429441D01*
X115520016Y-51468996D01*
X115328025Y-51534168D01*
X115146184Y-51623842D01*
X114977603Y-51736485D01*
X114874042Y-51827306D01*
X114870107Y-51830757D01*
X114867673Y-51832823D01*
X114866920Y-51833442D01*
X114866914Y-51833447D01*
X114865887Y-51834291D01*
X114865885Y-51834292D01*
X114865046Y-51834981D01*
X114864859Y-51834753D01*
X114810270Y-51859286D01*
X114786656Y-51859018D01*
X114681434Y-51845165D01*
X114675000Y-51844318D01*
X114518238Y-51864956D01*
X114372159Y-51925464D01*
X114246718Y-52021718D01*
X114150464Y-52147159D01*
X114089956Y-52293238D01*
X114069318Y-52450000D01*
X103695000Y-52450000D01*
X103695000Y-40685877D01*
X103695035Y-40645700D01*
X103695045Y-40634551D01*
X103689815Y-40623659D01*
X103682537Y-40602817D01*
X103682330Y-40601907D01*
X103682328Y-40601904D01*
X103679850Y-40591038D01*
X103672480Y-40581789D01*
X103660666Y-40562954D01*
X103660375Y-40562347D01*
X103660372Y-40562343D01*
X103655547Y-40552295D01*
X103646107Y-40544746D01*
X103630516Y-40529128D01*
X103622985Y-40519677D01*
X103612337Y-40514541D01*
X103593522Y-40502692D01*
X103592995Y-40502270D01*
X103592990Y-40502268D01*
X103584285Y-40495306D01*
X103572508Y-40492598D01*
X103551682Y-40485285D01*
X103550836Y-40484877D01*
X103540798Y-40480035D01*
X103529653Y-40480025D01*
X103529652Y-40480025D01*
X103517787Y-40480015D01*
X103517789Y-40478270D01*
X103517723Y-40478276D01*
X103517723Y-40480000D01*
X103500877Y-40480000D01*
X103449840Y-40479955D01*
X103449551Y-40479955D01*
X103449463Y-40479997D01*
X103449439Y-40480000D01*
X97794000Y-40480000D01*
X97735809Y-40461093D01*
X97699845Y-40411593D01*
X97695000Y-40381000D01*
X97695000Y-38325000D01*
X102894318Y-38325000D01*
X102914956Y-38481762D01*
X102975464Y-38627841D01*
X103071718Y-38753282D01*
X103197159Y-38849536D01*
X103343238Y-38910044D01*
X103500000Y-38930682D01*
X103656762Y-38910044D01*
X103802841Y-38849536D01*
X103928282Y-38753282D01*
X103996613Y-38664232D01*
X104047037Y-38629577D01*
X104075154Y-38625500D01*
X108113253Y-38625500D01*
X108130442Y-38627004D01*
X108148206Y-38630136D01*
X108156735Y-38628632D01*
X108164104Y-38628632D01*
X108178936Y-38627919D01*
X108227833Y-38631768D01*
X108292381Y-38636848D01*
X108307724Y-38639278D01*
X108440778Y-38671221D01*
X108455553Y-38676022D01*
X108581966Y-38728384D01*
X108595808Y-38735437D01*
X108712476Y-38806932D01*
X108725041Y-38816061D01*
X108811575Y-38889967D01*
X108821568Y-38900969D01*
X108826769Y-38906170D01*
X108831736Y-38913264D01*
X108838830Y-38918231D01*
X108839638Y-38919039D01*
X108845282Y-38923468D01*
X108985147Y-39046127D01*
X108985154Y-39046132D01*
X108987588Y-39048267D01*
X108990277Y-39050064D01*
X108990280Y-39050066D01*
X109138937Y-39149395D01*
X109158960Y-39162774D01*
X109161866Y-39164207D01*
X109161871Y-39164210D01*
X109200033Y-39183029D01*
X109343812Y-39253933D01*
X109538981Y-39320184D01*
X109611892Y-39334687D01*
X109737959Y-39359764D01*
X109737964Y-39359765D01*
X109741128Y-39360394D01*
X109744349Y-39360605D01*
X109744356Y-39360606D01*
X109839574Y-39366846D01*
X109888873Y-39370077D01*
X109890925Y-39370245D01*
X109891298Y-39370263D01*
X109893709Y-39370500D01*
X109894010Y-39370500D01*
X109895287Y-39370985D01*
X109895319Y-39370500D01*
X109910880Y-39371520D01*
X109930003Y-39372773D01*
X109937126Y-39373632D01*
X109938266Y-39373632D01*
X109946794Y-39375136D01*
X109964558Y-39372004D01*
X109981747Y-39370500D01*
X110844846Y-39370500D01*
X110903037Y-39389407D01*
X110923387Y-39409231D01*
X110991718Y-39498282D01*
X111117159Y-39594536D01*
X111263238Y-39655044D01*
X111420000Y-39675682D01*
X111419745Y-39677617D01*
X111469375Y-39693742D01*
X111505339Y-39743242D01*
X111505339Y-39804428D01*
X111481188Y-39843839D01*
X110418414Y-40906614D01*
X110405198Y-40917702D01*
X110390423Y-40928048D01*
X110385455Y-40935143D01*
X110384426Y-40936172D01*
X110379796Y-40942016D01*
X110238865Y-41099718D01*
X110238861Y-41099724D01*
X110237013Y-41101791D01*
X110235408Y-41104053D01*
X110235404Y-41104058D01*
X110104542Y-41288491D01*
X110102936Y-41290755D01*
X109990860Y-41493542D01*
X109989798Y-41496105D01*
X109989795Y-41496112D01*
X109957877Y-41573170D01*
X109902193Y-41707602D01*
X109901424Y-41710271D01*
X109901423Y-41710274D01*
X109875853Y-41799030D01*
X109838051Y-41930244D01*
X109837585Y-41932984D01*
X109837585Y-41932986D01*
X109820053Y-42036177D01*
X109799241Y-42158668D01*
X109794621Y-42240939D01*
X109787227Y-42372601D01*
X109786368Y-42380021D01*
X109786368Y-42381472D01*
X109784864Y-42390001D01*
X109787996Y-42407762D01*
X109789500Y-42424954D01*
X109789500Y-42544846D01*
X109770593Y-42603037D01*
X109750769Y-42623387D01*
X109661718Y-42691718D01*
X109565464Y-42817159D01*
X109504956Y-42963238D01*
X109484318Y-43120000D01*
X109504956Y-43276762D01*
X109565464Y-43422841D01*
X109661718Y-43548282D01*
X109787159Y-43644536D01*
X109933238Y-43705044D01*
X110090000Y-43725682D01*
X110246762Y-43705044D01*
X110392841Y-43644536D01*
X110518282Y-43548282D01*
X110614536Y-43422841D01*
X110675044Y-43276762D01*
X110695682Y-43120000D01*
X113484318Y-43120000D01*
X113504956Y-43276762D01*
X113565464Y-43422841D01*
X113661718Y-43548282D01*
X113787159Y-43644536D01*
X113933238Y-43705044D01*
X114090000Y-43725682D01*
X114246762Y-43705044D01*
X114392841Y-43644536D01*
X114518282Y-43548282D01*
X114614536Y-43422841D01*
X114675044Y-43276762D01*
X114695682Y-43120000D01*
X114681031Y-43008716D01*
X114692181Y-42948557D01*
X114709180Y-42925791D01*
X115162773Y-42472198D01*
X115175989Y-42461110D01*
X115190764Y-42450764D01*
X115195802Y-42443569D01*
X115210925Y-42426539D01*
X115410873Y-42247853D01*
X115419544Y-42240939D01*
X115659343Y-42070792D01*
X115668744Y-42064885D01*
X115711767Y-42041107D01*
X115926085Y-41922658D01*
X115936082Y-41917844D01*
X116207726Y-41805326D01*
X116218199Y-41801661D01*
X116403971Y-41748141D01*
X116500744Y-41720261D01*
X116511568Y-41717791D01*
X116599634Y-41702828D01*
X116801439Y-41668539D01*
X116812461Y-41667298D01*
X117080188Y-41652263D01*
X117102930Y-41653611D01*
X117111579Y-41655136D01*
X117129343Y-41652004D01*
X117146532Y-41650500D01*
X134698320Y-41650500D01*
X134715509Y-41652004D01*
X134733273Y-41655136D01*
X134741924Y-41653611D01*
X134764657Y-41652264D01*
X134876213Y-41658528D01*
X135009453Y-41666010D01*
X135020477Y-41667252D01*
X135206079Y-41698788D01*
X135287700Y-41712656D01*
X135298523Y-41715126D01*
X135439742Y-41755810D01*
X135558994Y-41790166D01*
X135569458Y-41793827D01*
X135819886Y-41897557D01*
X135829888Y-41902374D01*
X135866595Y-41922661D01*
X136067125Y-42033491D01*
X136076515Y-42039390D01*
X136120771Y-42070792D01*
X136297581Y-42196246D01*
X136306260Y-42203167D01*
X136489070Y-42366535D01*
X136504197Y-42383569D01*
X136504264Y-42383665D01*
X136504269Y-42383670D01*
X136509236Y-42390764D01*
X136524011Y-42401110D01*
X136537227Y-42412198D01*
X136708083Y-42583054D01*
X136735860Y-42637571D01*
X136732233Y-42683651D01*
X136690519Y-42812031D01*
X136690517Y-42812041D01*
X136688915Y-42816971D01*
X136669678Y-43000000D01*
X136688915Y-43183029D01*
X136690516Y-43187956D01*
X136690517Y-43187961D01*
X136717280Y-43270326D01*
X136745786Y-43358059D01*
X136748378Y-43362548D01*
X136748380Y-43362553D01*
X136783188Y-43422841D01*
X136837805Y-43517440D01*
X136841273Y-43521292D01*
X136841277Y-43521297D01*
X136958744Y-43651757D01*
X136983631Y-43707653D01*
X136970909Y-43767501D01*
X136925440Y-43808442D01*
X136885173Y-43817001D01*
X136829589Y-43817001D01*
X136824249Y-43817290D01*
X136770965Y-43823078D01*
X136758980Y-43825927D01*
X136635145Y-43872351D01*
X136622892Y-43879059D01*
X136517744Y-43957863D01*
X136507863Y-43967744D01*
X136429059Y-44072892D01*
X136422351Y-44085145D01*
X136375928Y-44208978D01*
X136373077Y-44220967D01*
X136367289Y-44274252D01*
X136367000Y-44279586D01*
X136367000Y-44730320D01*
X136371122Y-44743005D01*
X136375243Y-44746000D01*
X138717319Y-44746000D01*
X138730004Y-44741878D01*
X138732999Y-44737757D01*
X138732999Y-44279589D01*
X138732710Y-44274249D01*
X138726922Y-44220965D01*
X138724073Y-44208980D01*
X138677649Y-44085145D01*
X138670941Y-44072892D01*
X138592137Y-43967744D01*
X138582256Y-43957863D01*
X138477108Y-43879059D01*
X138464855Y-43872351D01*
X138341022Y-43825928D01*
X138329033Y-43823077D01*
X138275748Y-43817289D01*
X138270414Y-43817000D01*
X138214828Y-43817000D01*
X138156637Y-43798093D01*
X138120673Y-43748593D01*
X138120673Y-43687407D01*
X138141254Y-43651759D01*
X138262195Y-43517440D01*
X138316812Y-43422841D01*
X138351620Y-43362553D01*
X138351622Y-43362548D01*
X138354214Y-43358059D01*
X138382720Y-43270326D01*
X138409483Y-43187961D01*
X138409484Y-43187956D01*
X138411085Y-43183029D01*
X138430322Y-43000000D01*
X138411085Y-42816971D01*
X138409484Y-42812044D01*
X138409483Y-42812039D01*
X138355816Y-42646872D01*
X138354214Y-42641941D01*
X138351622Y-42637452D01*
X138351620Y-42637447D01*
X138264790Y-42487055D01*
X138262195Y-42482560D01*
X138258727Y-42478708D01*
X138258723Y-42478703D01*
X138142520Y-42349646D01*
X138142516Y-42349642D01*
X138139050Y-42345793D01*
X137990161Y-42237619D01*
X137985429Y-42235512D01*
X137985427Y-42235511D01*
X137826774Y-42164874D01*
X137826771Y-42164873D01*
X137822034Y-42162764D01*
X137642019Y-42124500D01*
X137457981Y-42124500D01*
X137277966Y-42162764D01*
X137243094Y-42178290D01*
X137182246Y-42184686D01*
X137132824Y-42157853D01*
X136962198Y-41987227D01*
X136951110Y-41974011D01*
X136940764Y-41959236D01*
X136935021Y-41955215D01*
X136931325Y-41951865D01*
X136931273Y-41951763D01*
X136931020Y-41951523D01*
X136930412Y-41951037D01*
X136722262Y-41762381D01*
X136713205Y-41754172D01*
X136711250Y-41752722D01*
X136469153Y-41573170D01*
X136469147Y-41573166D01*
X136467200Y-41571722D01*
X136369137Y-41512945D01*
X136206587Y-41415516D01*
X136206582Y-41415514D01*
X136204496Y-41414263D01*
X136088870Y-41359576D01*
X135929820Y-41284351D01*
X135929818Y-41284350D01*
X135927623Y-41283312D01*
X135925341Y-41282496D01*
X135925335Y-41282493D01*
X135641539Y-41180950D01*
X135641537Y-41180950D01*
X135639247Y-41180130D01*
X135342147Y-41105710D01*
X135133050Y-41074694D01*
X135041604Y-41061129D01*
X135041602Y-41061129D01*
X135039183Y-41060770D01*
X135036754Y-41060651D01*
X135036747Y-41060650D01*
X134768505Y-41047473D01*
X134746383Y-41046386D01*
X134745600Y-41046298D01*
X134745555Y-41046297D01*
X134745291Y-41046332D01*
X134740175Y-41046081D01*
X134733273Y-41044864D01*
X134715509Y-41047996D01*
X134698320Y-41049500D01*
X117146532Y-41049500D01*
X117129343Y-41047996D01*
X117111579Y-41044864D01*
X117106626Y-41045737D01*
X117100740Y-41046026D01*
X117030030Y-41049500D01*
X116785566Y-41061510D01*
X116462692Y-41109403D01*
X116215732Y-41171264D01*
X116168763Y-41183029D01*
X116146067Y-41188714D01*
X116143777Y-41189533D01*
X116143775Y-41189534D01*
X115841029Y-41297858D01*
X115841023Y-41297860D01*
X115838741Y-41298677D01*
X115836546Y-41299715D01*
X115836544Y-41299716D01*
X115709981Y-41359576D01*
X115543673Y-41438234D01*
X115263705Y-41606040D01*
X115261758Y-41607484D01*
X115261752Y-41607488D01*
X115050061Y-41764489D01*
X115001533Y-41800480D01*
X114763356Y-42016351D01*
X114759236Y-42019236D01*
X114748890Y-42034011D01*
X114737802Y-42047227D01*
X114284209Y-42500820D01*
X114229692Y-42528597D01*
X114201286Y-42528969D01*
X114090000Y-42514318D01*
X113933238Y-42534956D01*
X113787159Y-42595464D01*
X113661718Y-42691718D01*
X113565464Y-42817159D01*
X113504956Y-42963238D01*
X113484318Y-43120000D01*
X110695682Y-43120000D01*
X110675044Y-42963238D01*
X110614536Y-42817159D01*
X110518282Y-42691718D01*
X110429232Y-42623387D01*
X110394577Y-42572963D01*
X110390500Y-42544846D01*
X110390500Y-42424952D01*
X110392004Y-42407760D01*
X110392301Y-42406078D01*
X110395136Y-42389999D01*
X110393632Y-42381470D01*
X110393632Y-42378975D01*
X110392537Y-42358919D01*
X110400269Y-42240939D01*
X110402582Y-42205659D01*
X110404271Y-42192825D01*
X110407163Y-42178290D01*
X110439047Y-42017998D01*
X110442399Y-42005490D01*
X110499693Y-41836706D01*
X110504642Y-41824756D01*
X110583490Y-41664868D01*
X110589956Y-41653669D01*
X110590896Y-41652263D01*
X110688985Y-41505462D01*
X110696867Y-41495190D01*
X110698312Y-41493542D01*
X110798144Y-41379708D01*
X110813088Y-41366312D01*
X110814855Y-41364545D01*
X110821951Y-41359576D01*
X110832297Y-41344801D01*
X110843385Y-41331585D01*
X111174970Y-41000000D01*
X136669678Y-41000000D01*
X136688915Y-41183029D01*
X136690516Y-41187956D01*
X136690517Y-41187961D01*
X136726829Y-41299716D01*
X136745786Y-41358059D01*
X136748378Y-41362548D01*
X136748380Y-41362553D01*
X136814157Y-41476480D01*
X136837805Y-41517440D01*
X136841273Y-41521292D01*
X136841277Y-41521297D01*
X136957480Y-41650354D01*
X136957484Y-41650358D01*
X136960950Y-41654207D01*
X137109839Y-41762381D01*
X137114571Y-41764488D01*
X137114573Y-41764489D01*
X137273226Y-41835126D01*
X137273229Y-41835127D01*
X137277966Y-41837236D01*
X137457981Y-41875500D01*
X137642019Y-41875500D01*
X137822034Y-41837236D01*
X137826771Y-41835127D01*
X137826774Y-41835126D01*
X137985427Y-41764489D01*
X137985429Y-41764488D01*
X137990161Y-41762381D01*
X138139050Y-41654207D01*
X138142516Y-41650358D01*
X138142520Y-41650354D01*
X138258723Y-41521297D01*
X138258727Y-41521292D01*
X138262195Y-41517440D01*
X138285843Y-41476480D01*
X138351620Y-41362553D01*
X138351622Y-41362548D01*
X138354214Y-41358059D01*
X138373171Y-41299716D01*
X138409483Y-41187961D01*
X138409484Y-41187956D01*
X138411085Y-41183029D01*
X138430322Y-41000000D01*
X138411085Y-40816971D01*
X138409484Y-40812044D01*
X138409483Y-40812039D01*
X138355816Y-40646872D01*
X138354214Y-40641941D01*
X138351622Y-40637452D01*
X138351620Y-40637447D01*
X138273818Y-40502692D01*
X138262195Y-40482560D01*
X138258727Y-40478708D01*
X138258723Y-40478703D01*
X138142520Y-40349646D01*
X138142516Y-40349642D01*
X138139050Y-40345793D01*
X137990161Y-40237619D01*
X137985429Y-40235512D01*
X137985427Y-40235511D01*
X137826774Y-40164874D01*
X137826771Y-40164873D01*
X137822034Y-40162764D01*
X137642019Y-40124500D01*
X137457981Y-40124500D01*
X137277966Y-40162764D01*
X137273229Y-40164873D01*
X137273226Y-40164874D01*
X137114573Y-40235511D01*
X137114571Y-40235512D01*
X137109839Y-40237619D01*
X136960950Y-40345793D01*
X136957484Y-40349642D01*
X136957480Y-40349646D01*
X136841277Y-40478703D01*
X136841273Y-40478708D01*
X136837805Y-40482560D01*
X136826182Y-40502692D01*
X136748380Y-40637447D01*
X136748378Y-40637452D01*
X136745786Y-40641941D01*
X136744184Y-40646872D01*
X136690517Y-40812039D01*
X136690516Y-40812044D01*
X136688915Y-40816971D01*
X136669678Y-41000000D01*
X111174970Y-41000000D01*
X112823819Y-39351151D01*
X112837039Y-39340059D01*
X112844711Y-39334687D01*
X112851809Y-39329717D01*
X112857864Y-39321070D01*
X112872076Y-39304864D01*
X113103581Y-39092728D01*
X113110197Y-39087176D01*
X113132581Y-39070000D01*
X114524318Y-39070000D01*
X114544956Y-39226762D01*
X114605464Y-39372841D01*
X114701718Y-39498282D01*
X114827159Y-39594536D01*
X114973238Y-39655044D01*
X115130000Y-39675682D01*
X115286762Y-39655044D01*
X115432841Y-39594536D01*
X115558282Y-39498282D01*
X115654536Y-39372841D01*
X115715044Y-39226762D01*
X115735682Y-39070000D01*
X123414318Y-39070000D01*
X123434956Y-39226762D01*
X123495464Y-39372841D01*
X123591718Y-39498282D01*
X123717159Y-39594536D01*
X123863238Y-39655044D01*
X124020000Y-39675682D01*
X124176762Y-39655044D01*
X124322841Y-39594536D01*
X124448282Y-39498282D01*
X124544536Y-39372841D01*
X124605044Y-39226762D01*
X124625682Y-39070000D01*
X124616466Y-39000000D01*
X136669678Y-39000000D01*
X136688915Y-39183029D01*
X136690516Y-39187956D01*
X136690517Y-39187961D01*
X136705073Y-39232759D01*
X136745786Y-39358059D01*
X136748378Y-39362548D01*
X136748380Y-39362553D01*
X136814157Y-39476480D01*
X136837805Y-39517440D01*
X136841273Y-39521292D01*
X136841277Y-39521297D01*
X136957480Y-39650354D01*
X136957484Y-39650358D01*
X136960950Y-39654207D01*
X137109839Y-39762381D01*
X137114571Y-39764488D01*
X137114573Y-39764489D01*
X137273226Y-39835126D01*
X137273229Y-39835127D01*
X137277966Y-39837236D01*
X137457981Y-39875500D01*
X137642019Y-39875500D01*
X137822034Y-39837236D01*
X137826771Y-39835127D01*
X137826774Y-39835126D01*
X137985427Y-39764489D01*
X137985429Y-39764488D01*
X137990161Y-39762381D01*
X138139050Y-39654207D01*
X138142516Y-39650358D01*
X138142520Y-39650354D01*
X138258723Y-39521297D01*
X138258727Y-39521292D01*
X138262195Y-39517440D01*
X138285843Y-39476480D01*
X138351620Y-39362553D01*
X138351622Y-39362548D01*
X138354214Y-39358059D01*
X138394927Y-39232759D01*
X138409483Y-39187961D01*
X138409484Y-39187956D01*
X138411085Y-39183029D01*
X138430322Y-39000000D01*
X138411085Y-38816971D01*
X138409484Y-38812044D01*
X138409483Y-38812039D01*
X138355816Y-38646872D01*
X138355816Y-38646871D01*
X138354214Y-38641941D01*
X138351622Y-38637452D01*
X138351620Y-38637447D01*
X138268827Y-38494047D01*
X138262195Y-38482560D01*
X138258727Y-38478708D01*
X138258723Y-38478703D01*
X138142520Y-38349646D01*
X138142516Y-38349642D01*
X138139050Y-38345793D01*
X137990161Y-38237619D01*
X137985429Y-38235512D01*
X137985427Y-38235511D01*
X137826774Y-38164874D01*
X137826771Y-38164873D01*
X137822034Y-38162764D01*
X137642019Y-38124500D01*
X137457981Y-38124500D01*
X137277966Y-38162764D01*
X137273229Y-38164873D01*
X137273226Y-38164874D01*
X137114573Y-38235511D01*
X137114571Y-38235512D01*
X137109839Y-38237619D01*
X136960950Y-38345793D01*
X136957484Y-38349642D01*
X136957480Y-38349646D01*
X136841277Y-38478703D01*
X136841273Y-38478708D01*
X136837805Y-38482560D01*
X136831173Y-38494047D01*
X136748380Y-38637447D01*
X136748378Y-38637452D01*
X136745786Y-38641941D01*
X136744184Y-38646871D01*
X136744184Y-38646872D01*
X136690517Y-38812039D01*
X136690516Y-38812044D01*
X136688915Y-38816971D01*
X136669678Y-39000000D01*
X124616466Y-39000000D01*
X124605044Y-38913238D01*
X124598811Y-38898189D01*
X124562696Y-38811001D01*
X124544536Y-38767159D01*
X124448282Y-38641718D01*
X124322841Y-38545464D01*
X124176762Y-38484956D01*
X124020000Y-38464318D01*
X123863238Y-38484956D01*
X123717159Y-38545464D01*
X123591718Y-38641718D01*
X123495464Y-38767159D01*
X123477304Y-38811001D01*
X123441190Y-38898189D01*
X123434956Y-38913238D01*
X123414318Y-39070000D01*
X115735682Y-39070000D01*
X115715044Y-38913238D01*
X115708811Y-38898189D01*
X115672696Y-38811001D01*
X115654536Y-38767159D01*
X115558282Y-38641718D01*
X115432841Y-38545464D01*
X115286762Y-38484956D01*
X115130000Y-38464318D01*
X114973238Y-38484956D01*
X114827159Y-38545464D01*
X114701718Y-38641718D01*
X114605464Y-38767159D01*
X114587304Y-38811001D01*
X114551190Y-38898189D01*
X114544956Y-38913238D01*
X114524318Y-39070000D01*
X113132581Y-39070000D01*
X113381230Y-38879206D01*
X113388271Y-38874276D01*
X113676414Y-38690708D01*
X113683874Y-38686402D01*
X113986890Y-38528662D01*
X113994717Y-38525012D01*
X114099194Y-38481736D01*
X114310333Y-38394279D01*
X114318435Y-38391330D01*
X114644249Y-38288601D01*
X114652582Y-38286369D01*
X114986107Y-38212428D01*
X114994589Y-38210933D01*
X115159424Y-38189232D01*
X115333289Y-38166343D01*
X115341893Y-38165590D01*
X115655593Y-38151893D01*
X115677101Y-38153303D01*
X115678967Y-38153632D01*
X115678970Y-38153632D01*
X115687499Y-38155136D01*
X115705263Y-38152004D01*
X115722452Y-38150500D01*
X116899846Y-38150500D01*
X116958037Y-38169407D01*
X116978387Y-38189231D01*
X117046718Y-38278282D01*
X117172159Y-38374536D01*
X117318238Y-38435044D01*
X117475000Y-38455682D01*
X117631762Y-38435044D01*
X117777841Y-38374536D01*
X117903282Y-38278282D01*
X117999536Y-38152841D01*
X118060044Y-38006762D01*
X118080682Y-37850000D01*
X118060044Y-37693238D01*
X117999536Y-37547159D01*
X117903282Y-37421718D01*
X117777841Y-37325464D01*
X117631762Y-37264956D01*
X117475000Y-37244318D01*
X117318238Y-37264956D01*
X117172159Y-37325464D01*
X117046718Y-37421718D01*
X116978388Y-37510768D01*
X116927963Y-37545423D01*
X116899846Y-37549500D01*
X115722452Y-37549500D01*
X115705263Y-37547996D01*
X115687499Y-37544864D01*
X115685705Y-37545180D01*
X115678716Y-37545485D01*
X115380187Y-37558519D01*
X115284813Y-37562683D01*
X114885191Y-37615294D01*
X114883075Y-37615763D01*
X114883070Y-37615764D01*
X114727047Y-37650354D01*
X114491676Y-37702535D01*
X114489625Y-37703182D01*
X114489620Y-37703183D01*
X114181083Y-37800464D01*
X114107261Y-37823740D01*
X113734873Y-37977988D01*
X113546869Y-38075857D01*
X113380927Y-38162241D01*
X113377346Y-38164105D01*
X113375538Y-38165257D01*
X113375536Y-38165258D01*
X113047036Y-38374536D01*
X113037401Y-38380674D01*
X112717624Y-38626048D01*
X112421779Y-38897140D01*
X112420281Y-38898189D01*
X112411980Y-38910044D01*
X112409937Y-38912962D01*
X112398850Y-38926177D01*
X112193838Y-39131190D01*
X112139322Y-39158966D01*
X112078890Y-39149395D01*
X112035625Y-39106130D01*
X112026912Y-39069838D01*
X112025682Y-39070000D01*
X112015787Y-38994843D01*
X112005044Y-38913238D01*
X111998811Y-38898189D01*
X111962696Y-38811001D01*
X111944536Y-38767159D01*
X111848282Y-38641718D01*
X111722841Y-38545464D01*
X111576762Y-38484956D01*
X111420000Y-38464318D01*
X111263238Y-38484956D01*
X111117159Y-38545464D01*
X110991718Y-38641718D01*
X110932433Y-38718980D01*
X110923388Y-38730768D01*
X110872963Y-38765423D01*
X110844846Y-38769500D01*
X109981747Y-38769500D01*
X109964558Y-38767996D01*
X109946794Y-38764864D01*
X109938264Y-38766368D01*
X109930903Y-38766368D01*
X109916063Y-38767081D01*
X109802615Y-38758153D01*
X109787270Y-38755722D01*
X109654226Y-38723780D01*
X109639453Y-38718980D01*
X109513032Y-38666615D01*
X109499197Y-38659566D01*
X109382512Y-38588062D01*
X109369963Y-38578943D01*
X109283427Y-38505034D01*
X109273447Y-38494047D01*
X109268234Y-38488834D01*
X109263264Y-38481736D01*
X109256166Y-38476766D01*
X109255365Y-38475965D01*
X109249712Y-38471529D01*
X109242456Y-38465165D01*
X109209075Y-38435891D01*
X109109844Y-38348866D01*
X109109838Y-38348861D01*
X109107411Y-38346733D01*
X109084515Y-38331434D01*
X108938736Y-38234028D01*
X108938735Y-38234028D01*
X108936039Y-38232226D01*
X108933133Y-38230793D01*
X108933128Y-38230790D01*
X108819335Y-38174674D01*
X108751187Y-38141067D01*
X108556018Y-38074816D01*
X108353871Y-38034607D01*
X108350649Y-38034396D01*
X108350643Y-38034395D01*
X108269269Y-38029062D01*
X108206135Y-38024923D01*
X108204036Y-38024752D01*
X108203691Y-38024735D01*
X108201290Y-38024500D01*
X108201003Y-38024500D01*
X108199701Y-38024006D01*
X108199669Y-38024500D01*
X108189042Y-38023803D01*
X108164993Y-38022227D01*
X108157867Y-38021368D01*
X108156735Y-38021368D01*
X108148204Y-38019864D01*
X108130440Y-38022996D01*
X108113251Y-38024500D01*
X104075154Y-38024500D01*
X104016963Y-38005593D01*
X103996612Y-37985768D01*
X103990006Y-37977159D01*
X103928282Y-37896718D01*
X103802841Y-37800464D01*
X103656762Y-37739956D01*
X103500000Y-37719318D01*
X103343238Y-37739956D01*
X103197159Y-37800464D01*
X103071718Y-37896718D01*
X102975464Y-38022159D01*
X102914956Y-38168238D01*
X102894318Y-38325000D01*
X97695000Y-38325000D01*
X97695000Y-37000000D01*
X136669678Y-37000000D01*
X136688915Y-37183029D01*
X136690516Y-37187956D01*
X136690517Y-37187961D01*
X136715535Y-37264956D01*
X136745786Y-37358059D01*
X136748378Y-37362548D01*
X136748380Y-37362553D01*
X136785513Y-37426868D01*
X136837805Y-37517440D01*
X136841273Y-37521292D01*
X136841277Y-37521297D01*
X136957480Y-37650354D01*
X136957484Y-37650358D01*
X136960950Y-37654207D01*
X137109839Y-37762381D01*
X137114571Y-37764488D01*
X137114573Y-37764489D01*
X137273226Y-37835126D01*
X137273229Y-37835127D01*
X137277966Y-37837236D01*
X137457981Y-37875500D01*
X137642019Y-37875500D01*
X137822034Y-37837236D01*
X137826771Y-37835127D01*
X137826774Y-37835126D01*
X137985427Y-37764489D01*
X137985429Y-37764488D01*
X137990161Y-37762381D01*
X138139050Y-37654207D01*
X138142516Y-37650358D01*
X138142520Y-37650354D01*
X138258723Y-37521297D01*
X138258727Y-37521292D01*
X138262195Y-37517440D01*
X138314487Y-37426868D01*
X138351620Y-37362553D01*
X138351622Y-37362548D01*
X138354214Y-37358059D01*
X138384465Y-37264956D01*
X138409483Y-37187961D01*
X138409484Y-37187956D01*
X138411085Y-37183029D01*
X138430322Y-37000000D01*
X138411085Y-36816971D01*
X138409484Y-36812044D01*
X138409483Y-36812039D01*
X138355816Y-36646872D01*
X138354214Y-36641941D01*
X138351622Y-36637452D01*
X138351620Y-36637447D01*
X138264790Y-36487055D01*
X138262195Y-36482560D01*
X138258727Y-36478708D01*
X138258723Y-36478703D01*
X138142520Y-36349646D01*
X138142516Y-36349642D01*
X138139050Y-36345793D01*
X137990161Y-36237619D01*
X137985429Y-36235512D01*
X137985427Y-36235511D01*
X137826774Y-36164874D01*
X137826771Y-36164873D01*
X137822034Y-36162764D01*
X137642019Y-36124500D01*
X137457981Y-36124500D01*
X137277966Y-36162764D01*
X137273229Y-36164873D01*
X137273226Y-36164874D01*
X137114573Y-36235511D01*
X137114571Y-36235512D01*
X137109839Y-36237619D01*
X136960950Y-36345793D01*
X136957484Y-36349642D01*
X136957480Y-36349646D01*
X136841277Y-36478703D01*
X136841273Y-36478708D01*
X136837805Y-36482560D01*
X136835210Y-36487055D01*
X136748380Y-36637447D01*
X136748378Y-36637452D01*
X136745786Y-36641941D01*
X136744184Y-36646872D01*
X136690517Y-36812039D01*
X136690516Y-36812044D01*
X136688915Y-36816971D01*
X136669678Y-37000000D01*
X97695000Y-37000000D01*
X97695000Y-35979000D01*
X97713907Y-35920809D01*
X97763407Y-35884845D01*
X97794000Y-35880000D01*
X139096000Y-35880000D01*
X139154191Y-35898907D01*
G37*
%TD.AperFunction*%
%TD*%
M02*
