%TF.GenerationSoftware,KiCad,Pcbnew,(6.0.2)*%
%TF.CreationDate,2022-03-06T12:06:18+08:00*%
%TF.ProjectId,screen,73637265-656e-42e6-9b69-6361645f7063,rev?*%
%TF.SameCoordinates,Original*%
%TF.FileFunction,Copper,L1,Top*%
%TF.FilePolarity,Positive*%
%FSLAX46Y46*%
G04 Gerber Fmt 4.6, Leading zero omitted, Abs format (unit mm)*
G04 Created by KiCad (PCBNEW (6.0.2)) date 2022-03-06 12:06:18*
%MOMM*%
%LPD*%
G01*
G04 APERTURE LIST*
G04 Aperture macros list*
%AMRoundRect*
0 Rectangle with rounded corners*
0 $1 Rounding radius*
0 $2 $3 $4 $5 $6 $7 $8 $9 X,Y pos of 4 corners*
0 Add a 4 corners polygon primitive as box body*
4,1,4,$2,$3,$4,$5,$6,$7,$8,$9,$2,$3,0*
0 Add four circle primitives for the rounded corners*
1,1,$1+$1,$2,$3*
1,1,$1+$1,$4,$5*
1,1,$1+$1,$6,$7*
1,1,$1+$1,$8,$9*
0 Add four rect primitives between the rounded corners*
20,1,$1+$1,$2,$3,$4,$5,0*
20,1,$1+$1,$4,$5,$6,$7,0*
20,1,$1+$1,$6,$7,$8,$9,0*
20,1,$1+$1,$8,$9,$2,$3,0*%
G04 Aperture macros list end*
%TA.AperFunction,SMDPad,CuDef*%
%ADD10RoundRect,0.140000X0.170000X-0.140000X0.170000X0.140000X-0.170000X0.140000X-0.170000X-0.140000X0*%
%TD*%
%TA.AperFunction,SMDPad,CuDef*%
%ADD11RoundRect,0.135000X-0.135000X-0.185000X0.135000X-0.185000X0.135000X0.185000X-0.135000X0.185000X0*%
%TD*%
%TA.AperFunction,SMDPad,CuDef*%
%ADD12R,4.000000X2.900000*%
%TD*%
%TA.AperFunction,SMDPad,CuDef*%
%ADD13O,0.600000X1.600000*%
%TD*%
%TA.AperFunction,SMDPad,CuDef*%
%ADD14RoundRect,0.135000X-0.185000X0.135000X-0.185000X-0.135000X0.185000X-0.135000X0.185000X0.135000X0*%
%TD*%
%TA.AperFunction,SMDPad,CuDef*%
%ADD15RoundRect,0.147500X0.147500X0.172500X-0.147500X0.172500X-0.147500X-0.172500X0.147500X-0.172500X0*%
%TD*%
%TA.AperFunction,ComponentPad*%
%ADD16R,1.350000X1.350000*%
%TD*%
%TA.AperFunction,ComponentPad*%
%ADD17O,1.350000X1.350000*%
%TD*%
%TA.AperFunction,SMDPad,CuDef*%
%ADD18R,1.550000X0.700000*%
%TD*%
%TA.AperFunction,SMDPad,CuDef*%
%ADD19R,1.550000X0.800000*%
%TD*%
%TA.AperFunction,SMDPad,CuDef*%
%ADD20R,1.550000X0.900000*%
%TD*%
%TA.AperFunction,ComponentPad*%
%ADD21O,1.850000X0.850000*%
%TD*%
%TA.AperFunction,SMDPad,CuDef*%
%ADD22RoundRect,0.135000X0.185000X-0.135000X0.185000X0.135000X-0.185000X0.135000X-0.185000X-0.135000X0*%
%TD*%
%TA.AperFunction,SMDPad,CuDef*%
%ADD23R,1.800000X2.600000*%
%TD*%
%TA.AperFunction,SMDPad,CuDef*%
%ADD24R,1.000000X0.800000*%
%TD*%
%TA.AperFunction,SMDPad,CuDef*%
%ADD25R,0.700000X1.500000*%
%TD*%
%TA.AperFunction,ComponentPad*%
%ADD26R,1.700000X1.700000*%
%TD*%
%TA.AperFunction,ComponentPad*%
%ADD27O,1.700000X1.700000*%
%TD*%
%TA.AperFunction,BGAPad,CuDef*%
%ADD28R,1.350000X1.800000*%
%TD*%
%TA.AperFunction,SMDPad,CuDef*%
%ADD29R,1.000000X2.500000*%
%TD*%
%TA.AperFunction,SMDPad,CuDef*%
%ADD30R,1.800000X1.000000*%
%TD*%
%TA.AperFunction,SMDPad,CuDef*%
%ADD31RoundRect,0.150000X0.512500X0.150000X-0.512500X0.150000X-0.512500X-0.150000X0.512500X-0.150000X0*%
%TD*%
%TA.AperFunction,SMDPad,CuDef*%
%ADD32RoundRect,0.147500X-0.172500X0.147500X-0.172500X-0.147500X0.172500X-0.147500X0.172500X0.147500X0*%
%TD*%
%TA.AperFunction,SMDPad,CuDef*%
%ADD33RoundRect,0.150000X0.150000X-0.587500X0.150000X0.587500X-0.150000X0.587500X-0.150000X-0.587500X0*%
%TD*%
%TA.AperFunction,ViaPad*%
%ADD34C,0.800000*%
%TD*%
%TA.AperFunction,Conductor*%
%ADD35C,0.200000*%
%TD*%
%TA.AperFunction,Conductor*%
%ADD36C,0.600000*%
%TD*%
%TA.AperFunction,Conductor*%
%ADD37C,0.400000*%
%TD*%
G04 APERTURE END LIST*
D10*
%TO.P,C4,1*%
%TO.N,+3V3*%
X129600000Y-53360000D03*
%TO.P,C4,2*%
%TO.N,GND*%
X129600000Y-52400000D03*
%TD*%
D11*
%TO.P,R12,1*%
%TO.N,Net-(D3-Pad2)*%
X128465000Y-42925000D03*
%TO.P,R12,2*%
%TO.N,Net-(C6-Pad2)*%
X129485000Y-42925000D03*
%TD*%
D12*
%TO.P,U4,0*%
%TO.N,GND*%
X128620000Y-48080000D03*
D13*
%TO.P,U4,1,TEMP*%
X126715000Y-50680000D03*
%TO.P,U4,2,PROG*%
%TO.N,Net-(R11-Pad1)*%
X127985000Y-50680000D03*
%TO.P,U4,3,GND*%
%TO.N,GND*%
X129255000Y-50680000D03*
%TO.P,U4,4,VCC*%
%TO.N,Net-(C6-Pad2)*%
X130525000Y-50680000D03*
%TO.P,U4,5,BAT*%
%TO.N,+BATT*%
X130525000Y-45480000D03*
%TO.P,U4,6,~{STDBY}*%
%TO.N,Net-(D3-Pad1)*%
X129255000Y-45480000D03*
%TO.P,U4,7,~{CHRG}*%
%TO.N,Net-(D2-Pad1)*%
X127985000Y-45480000D03*
%TO.P,U4,8,CE*%
%TO.N,Net-(C6-Pad2)*%
X126715000Y-45480000D03*
%TD*%
D14*
%TO.P,R8,1*%
%TO.N,/nRST*%
X106195000Y-61070000D03*
%TO.P,R8,2*%
%TO.N,+3V3*%
X106195000Y-62090000D03*
%TD*%
D15*
%TO.P,D3,1,K*%
%TO.N,Net-(D3-Pad1)*%
X129460000Y-43950000D03*
%TO.P,D3,2,A*%
%TO.N,Net-(D3-Pad2)*%
X128490000Y-43950000D03*
%TD*%
D10*
%TO.P,C7,1*%
%TO.N,+BATT*%
X130550000Y-43930000D03*
%TO.P,C7,2*%
%TO.N,GND*%
X130550000Y-42970000D03*
%TD*%
%TO.P,C3,1*%
%TO.N,Net-(C3-Pad1)*%
X126220000Y-53360000D03*
%TO.P,C3,2*%
%TO.N,GND*%
X126220000Y-52400000D03*
%TD*%
D16*
%TO.P,J1,1,GND*%
%TO.N,GND*%
X137550000Y-45000000D03*
D17*
%TO.P,J1,2,GPIO0*%
%TO.N,/GPIO0*%
X137550000Y-43000000D03*
%TO.P,J1,3,RXD*%
%TO.N,/RXD*%
X137550000Y-41000000D03*
%TO.P,J1,4,TXD*%
%TO.N,/TXD*%
X137550000Y-39000000D03*
%TO.P,J1,5,RST*%
%TO.N,/EN*%
X137550000Y-37000000D03*
%TD*%
D18*
%TO.P,J2,A5,CC*%
%TO.N,unconnected-(J2-PadA5)*%
X134675000Y-52300000D03*
D19*
%TO.P,J2,A9,VBUS*%
%TO.N,Net-(C6-Pad2)*%
X134675000Y-50280000D03*
D20*
%TO.P,J2,A12,GND*%
%TO.N,GND*%
X134675000Y-49060000D03*
D18*
%TO.P,J2,B5,VCONN*%
%TO.N,unconnected-(J2-PadB5)*%
X134675000Y-51300000D03*
D19*
%TO.P,J2,B9,VBUS*%
%TO.N,Net-(C6-Pad2)*%
X134675000Y-53320000D03*
D20*
%TO.P,J2,B12,GND*%
%TO.N,GND*%
X134675000Y-54540000D03*
D21*
%TO.P,J2,S1,SHIELD*%
X135450000Y-47480000D03*
X135450000Y-56120000D03*
%TD*%
D15*
%TO.P,D2,1,K*%
%TO.N,Net-(D2-Pad1)*%
X127385000Y-43950000D03*
%TO.P,D2,2,A*%
%TO.N,Net-(D2-Pad2)*%
X126415000Y-43950000D03*
%TD*%
D10*
%TO.P,C6,1*%
%TO.N,GND*%
X130720000Y-53360000D03*
%TO.P,C6,2*%
%TO.N,Net-(C6-Pad2)*%
X130720000Y-52400000D03*
%TD*%
D22*
%TO.P,R7,1*%
%TO.N,/GPIO0*%
X111420000Y-40090000D03*
%TO.P,R7,2*%
%TO.N,Net-(R7-Pad2)*%
X111420000Y-39070000D03*
%TD*%
D11*
%TO.P,R10,1*%
%TO.N,Net-(D2-Pad2)*%
X126390000Y-42925000D03*
%TO.P,R10,2*%
%TO.N,Net-(C6-Pad2)*%
X127410000Y-42925000D03*
%TD*%
D22*
%TO.P,R2,1*%
%TO.N,+3V3*%
X111250000Y-62090000D03*
%TO.P,R2,2*%
%TO.N,Net-(D1-Pad2)*%
X111250000Y-61070000D03*
%TD*%
%TO.P,R1,1*%
%TO.N,/GPIO0*%
X113920000Y-40090000D03*
%TO.P,R1,2*%
%TO.N,+3V3*%
X113920000Y-39070000D03*
%TD*%
D23*
%TO.P,C1,1*%
%TO.N,+3V3*%
X119720000Y-61580000D03*
%TO.P,C1,2*%
%TO.N,GND*%
X116720000Y-61580000D03*
%TD*%
D22*
%TO.P,R11,1*%
%TO.N,Net-(R11-Pad1)*%
X127350000Y-53390000D03*
%TO.P,R11,2*%
%TO.N,GND*%
X127350000Y-52370000D03*
%TD*%
D14*
%TO.P,R15,1*%
%TO.N,/GPIO5*%
X122220000Y-39110000D03*
%TO.P,R15,2*%
%TO.N,Net-(Q1-Pad1)*%
X122220000Y-40130000D03*
%TD*%
D24*
%TO.P,SW1,*%
%TO.N,*%
X131470000Y-63510000D03*
X131470000Y-61300000D03*
X124170000Y-63510000D03*
X124170000Y-61300000D03*
D25*
%TO.P,SW1,1,A*%
%TO.N,+BATT*%
X125570000Y-60650000D03*
%TO.P,SW1,2,B*%
%TO.N,Net-(C2-Pad1)*%
X128570000Y-60650000D03*
%TO.P,SW1,3,C*%
%TO.N,unconnected-(SW1-Pad3)*%
X130070000Y-60650000D03*
%TD*%
D14*
%TO.P,R4,1*%
%TO.N,/EN*%
X110235000Y-61070000D03*
%TO.P,R4,2*%
%TO.N,+3V3*%
X110235000Y-62090000D03*
%TD*%
D26*
%TO.P,J3,1,Pin_1*%
%TO.N,+BATT*%
X135625000Y-60150000D03*
D27*
%TO.P,J3,2,Pin_2*%
%TO.N,GND*%
X135625000Y-62690000D03*
%TD*%
D28*
%TO.P,SW3,1,1*%
%TO.N,Net-(R7-Pad2)*%
X103485000Y-38300000D03*
%TO.P,SW3,2,2*%
%TO.N,GND*%
X99335000Y-38300000D03*
%TD*%
D29*
%TO.P,U2,1,~{RST}*%
%TO.N,/nRST*%
X106090000Y-58320000D03*
%TO.P,U2,2,ADC*%
%TO.N,/ADC*%
X108090000Y-58320000D03*
%TO.P,U2,3,EN*%
%TO.N,/EN*%
X110090000Y-58320000D03*
%TO.P,U2,4,GPIO16*%
%TO.N,/GPIO16*%
X112090000Y-58320000D03*
%TO.P,U2,5,GPIO14*%
%TO.N,/GPIO14*%
X114090000Y-58320000D03*
%TO.P,U2,6,GPIO12*%
%TO.N,/GPIO12*%
X116090000Y-58320000D03*
%TO.P,U2,7,GPIO13*%
%TO.N,/GPIO13*%
X118090000Y-58320000D03*
%TO.P,U2,8,VCC*%
%TO.N,+3V3*%
X120090000Y-58320000D03*
D30*
%TO.P,U2,9,CS0*%
%TO.N,unconnected-(U2-Pad9)*%
X121590000Y-55720000D03*
%TO.P,U2,10,MISO*%
%TO.N,unconnected-(U2-Pad10)*%
X121590000Y-53720000D03*
%TO.P,U2,11,GPIO9*%
%TO.N,unconnected-(U2-Pad11)*%
X121590000Y-51720000D03*
%TO.P,U2,12,GPIO10*%
%TO.N,unconnected-(U2-Pad12)*%
X121590000Y-49720000D03*
%TO.P,U2,13,MOSI*%
%TO.N,unconnected-(U2-Pad13)*%
X121590000Y-47720000D03*
%TO.P,U2,14,SCLK*%
%TO.N,unconnected-(U2-Pad14)*%
X121590000Y-45720000D03*
D29*
%TO.P,U2,15,GND*%
%TO.N,GND*%
X120090000Y-43120000D03*
%TO.P,U2,16,GPIO15*%
%TO.N,/GPIO15*%
X118090000Y-43120000D03*
%TO.P,U2,17,GPIO2*%
%TO.N,/GPIO2*%
X116090000Y-43120000D03*
%TO.P,U2,18,GPIO0*%
%TO.N,/GPIO0*%
X114090000Y-43120000D03*
%TO.P,U2,19,GPIO4*%
%TO.N,/GPIO4*%
X112090000Y-43120000D03*
%TO.P,U2,20,GPIO5*%
%TO.N,/GPIO5*%
X110090000Y-43120000D03*
%TO.P,U2,21,GPIO3/RXD*%
%TO.N,/RXD*%
X108090000Y-43120000D03*
%TO.P,U2,22,GPIO1/TXD*%
%TO.N,/TXD*%
X106090000Y-43120000D03*
%TD*%
D22*
%TO.P,R3,1*%
%TO.N,/GPIO2*%
X116420000Y-40090000D03*
%TO.P,R3,2*%
%TO.N,+3V3*%
X116420000Y-39070000D03*
%TD*%
D14*
%TO.P,R13,1*%
%TO.N,/ADC*%
X109220000Y-61070000D03*
%TO.P,R13,2*%
%TO.N,+BATT*%
X109220000Y-62090000D03*
%TD*%
D28*
%TO.P,SW2,1,1*%
%TO.N,Net-(R5-Pad2)*%
X103495000Y-63180000D03*
%TO.P,SW2,2,2*%
%TO.N,GND*%
X99345000Y-63180000D03*
%TD*%
D22*
%TO.P,R9,1*%
%TO.N,/GPIO15*%
X118920000Y-40090000D03*
%TO.P,R9,2*%
%TO.N,GND*%
X118920000Y-39070000D03*
%TD*%
D14*
%TO.P,R16,1*%
%TO.N,+3V3*%
X123960000Y-39110000D03*
%TO.P,R16,2*%
%TO.N,Net-(Q1-Pad1)*%
X123960000Y-40130000D03*
%TD*%
D31*
%TO.P,U1,1,IN*%
%TO.N,+BATT*%
X129757500Y-57130000D03*
%TO.P,U1,2,GND*%
%TO.N,GND*%
X129757500Y-56180000D03*
%TO.P,U1,3,EN*%
%TO.N,Net-(C2-Pad1)*%
X129757500Y-55230000D03*
%TO.P,U1,4,BP*%
%TO.N,Net-(C3-Pad1)*%
X127482500Y-55230000D03*
%TO.P,U1,5,OUT*%
%TO.N,+3V3*%
X127482500Y-57130000D03*
%TD*%
D10*
%TO.P,C2,1*%
%TO.N,Net-(C2-Pad1)*%
X128480000Y-53360000D03*
%TO.P,C2,2*%
%TO.N,GND*%
X128480000Y-52400000D03*
%TD*%
D14*
%TO.P,R5,1*%
%TO.N,/GPIO16*%
X113280000Y-61070000D03*
%TO.P,R5,2*%
%TO.N,Net-(R5-Pad2)*%
X113280000Y-62090000D03*
%TD*%
D32*
%TO.P,D1,1,K*%
%TO.N,/GPIO16*%
X112265000Y-61095000D03*
%TO.P,D1,2,A*%
%TO.N,Net-(D1-Pad2)*%
X112265000Y-62065000D03*
%TD*%
D10*
%TO.P,C5,1*%
%TO.N,GND*%
X107200000Y-62080000D03*
%TO.P,C5,2*%
%TO.N,/nRST*%
X107200000Y-61120000D03*
%TD*%
D22*
%TO.P,R14,1*%
%TO.N,GND*%
X108205000Y-62090000D03*
%TO.P,R14,2*%
%TO.N,/ADC*%
X108205000Y-61070000D03*
%TD*%
D33*
%TO.P,Q1,1,B*%
%TO.N,Net-(Q1-Pad1)*%
X125500000Y-40007500D03*
%TO.P,Q1,2,E*%
%TO.N,GND*%
X127400000Y-40007500D03*
%TO.P,Q1,3,C*%
%TO.N,Net-(Q1-Pad3)*%
X126450000Y-38132500D03*
%TD*%
D14*
%TO.P,R6,1*%
%TO.N,/nRST*%
X105180000Y-61070000D03*
%TO.P,R6,2*%
%TO.N,Net-(R5-Pad2)*%
X105180000Y-62090000D03*
%TD*%
D34*
%TO.N,+3V3*%
X127482500Y-57130000D03*
X124020000Y-39070000D03*
X115130000Y-39070000D03*
X106170000Y-62090000D03*
X110720000Y-62110000D03*
X130800000Y-54475000D03*
X116475000Y-55600000D03*
X119720000Y-61580000D03*
%TO.N,GND*%
X120125000Y-43100000D03*
X127440000Y-39930000D03*
X117975000Y-46500000D03*
X128150000Y-47125000D03*
X119400000Y-47950000D03*
X119400000Y-46450000D03*
X116750000Y-61575000D03*
X99350000Y-63100000D03*
X118025000Y-47950000D03*
X127100000Y-47125000D03*
X107760000Y-62100000D03*
X127125000Y-49000000D03*
X130550000Y-42970000D03*
X99350000Y-38300000D03*
X128150000Y-49000000D03*
%TO.N,Net-(C2-Pad1)*%
X128570000Y-60650000D03*
X128475000Y-53350000D03*
%TO.N,/GPIO0*%
X114090000Y-43120000D03*
X116225000Y-53000000D03*
%TO.N,/GPIO2*%
X116090000Y-48020000D03*
%TO.N,/GPIO14*%
X114675000Y-52450000D03*
%TO.N,/GPIO13*%
X117330000Y-51030000D03*
%TO.N,/GPIO5*%
X117475000Y-37850000D03*
X110090000Y-43120000D03*
%TO.N,Net-(R7-Pad2)*%
X103500000Y-38325000D03*
X111420000Y-39070000D03*
%TO.N,+BATT*%
X124570000Y-59180000D03*
X130525000Y-45480000D03*
X109270000Y-62050000D03*
X129757500Y-57130000D03*
%TO.N,Net-(Q1-Pad3)*%
X123525000Y-48925000D03*
%TD*%
D35*
%TO.N,/TXD*%
X113207994Y-36695969D02*
G75*
G03*
X109360238Y-38289761I-1J-5441547D01*
G01*
X136397984Y-37847984D02*
G75*
G03*
X133616773Y-36695969I-2781208J-2781204D01*
G01*
X136397984Y-37847984D02*
X137550000Y-39000000D01*
X106170000Y-42280000D02*
X106170000Y-43080000D01*
X133616773Y-36695969D02*
X113207994Y-36695969D01*
X109360238Y-38289761D02*
X106735685Y-40914314D01*
X106170001Y-42280000D02*
G75*
G02*
X106735686Y-40914315I1931363J4D01*
G01*
%TO.N,/RXD*%
X108150000Y-42086137D02*
X108150000Y-43060000D01*
X131591516Y-37095480D02*
G75*
G02*
X135439272Y-38689272I-1J-5441552D01*
G01*
X108150001Y-42086137D02*
G75*
G02*
X108838625Y-40423651I2351103J4D01*
G01*
X137479289Y-40729289D02*
G75*
G02*
X137550000Y-40900000I-170716J-170713D01*
G01*
X108838624Y-40423650D02*
X110573002Y-38689272D01*
X114420758Y-37095480D02*
G75*
G03*
X110573002Y-38689272I-1J-5441547D01*
G01*
X114420758Y-37095480D02*
X131591516Y-37095480D01*
X135439272Y-38689272D02*
X137479289Y-40729289D01*
X137550000Y-40900000D02*
X137550000Y-41000000D01*
D36*
%TO.N,+BATT*%
X129729375Y-58770625D02*
X129710625Y-58789375D01*
X129701250Y-58798750D02*
X129663750Y-58836250D01*
D37*
%TO.N,GND*%
X128867499Y-52012499D02*
X128814106Y-52065892D01*
X128907544Y-51972455D02*
X128880848Y-51999151D01*
X129255000Y-50185494D02*
X129255000Y-49504506D01*
X129255000Y-49504506D02*
X129255000Y-50185494D01*
D35*
%TO.N,Net-(Q1-Pad1)*%
X124062280Y-40130000D02*
X123471470Y-40130000D01*
X125135346Y-40130000D02*
X124824281Y-40130000D01*
X122993437Y-40130000D02*
X122477812Y-40130000D01*
X124653090Y-40130000D02*
X124062280Y-40130000D01*
D37*
%TO.N,Net-(C6-Pad2)*%
X134310625Y-50280000D02*
X134161875Y-50280000D01*
X134682500Y-50280000D02*
X134385000Y-50280000D01*
X130525000Y-50530000D02*
X130525000Y-50830000D01*
X130525000Y-50980000D02*
X130525000Y-51580000D01*
D35*
%TO.N,/GPIO2*%
X116090000Y-42724163D02*
X116090000Y-43515836D01*
X116090000Y-44720000D02*
X116090000Y-46920000D01*
X116090000Y-41932490D02*
X116090000Y-42724163D01*
X116090000Y-40932508D02*
X116090000Y-41490835D01*
%TO.N,/GPIO5*%
X117475000Y-37850000D02*
X120069045Y-37850000D01*
X121590000Y-38480000D02*
X122220000Y-39110000D01*
X121590000Y-38480000D02*
G75*
G03*
X120069045Y-37850000I-1520952J-1520948D01*
G01*
D36*
%TO.N,+BATT*%
X129710625Y-58789375D02*
X129701250Y-58798750D01*
D37*
%TO.N,GND*%
X128673748Y-52206249D02*
G75*
G03*
X128754002Y-52400000I80255J-80254D01*
G01*
X129255000Y-50680000D02*
X129255000Y-50185494D01*
X128867499Y-52012499D02*
X128880848Y-51999151D01*
D35*
%TO.N,Net-(Q1-Pad1)*%
X123471470Y-40130000D02*
X122993437Y-40130000D01*
X124824281Y-40130000D02*
X124653090Y-40130000D01*
D37*
%TO.N,Net-(C6-Pad2)*%
X134310625Y-50280000D02*
X134385000Y-50280000D01*
X130525000Y-50830000D02*
X130525000Y-50980000D01*
D35*
%TO.N,/GPIO2*%
X116090000Y-41932490D02*
X116090000Y-41490835D01*
X116090000Y-43515836D02*
X116090000Y-44720000D01*
D37*
%TO.N,GND*%
X128673748Y-52206249D02*
X128814106Y-52065892D01*
D36*
%TO.N,+BATT*%
X134054461Y-59230000D02*
G75*
G02*
X135165000Y-59690000I0J-1570540D01*
G01*
X125570000Y-59705000D02*
G75*
G03*
X125095000Y-59230000I-475001J-1D01*
G01*
X126045000Y-59230000D02*
G75*
G03*
X125570000Y-59705000I-1J-474999D01*
G01*
X130537500Y-43942500D02*
G75*
G03*
X130525000Y-43972677I30168J-30173D01*
G01*
X129495000Y-59005000D02*
G75*
G02*
X128951801Y-59230000I-543201J543205D01*
G01*
X129588198Y-59229999D02*
G75*
G02*
X129495000Y-59005000I-1J131801D01*
G01*
X129738750Y-58761250D02*
G75*
G03*
X129757500Y-58715983I-45269J45268D01*
G01*
X124655355Y-59229999D02*
G75*
G02*
X124595001Y-59204999I3J85361D01*
G01*
X109256464Y-62053535D02*
G75*
G02*
X109265000Y-62050000I8532J-8528D01*
G01*
X129729375Y-58770625D02*
X129738750Y-58761250D01*
X125095000Y-59230000D02*
X126045000Y-59230000D01*
X128951801Y-59230000D02*
X129588198Y-59230000D01*
D37*
%TO.N,GND*%
X126235000Y-52385000D02*
G75*
G02*
X126271213Y-52370000I36210J-36205D01*
G01*
X129255001Y-51256906D02*
G75*
G03*
X129437501Y-51697499I623094J0D01*
G01*
X129620000Y-52130000D02*
G75*
G03*
X129443223Y-51703223I-603555J-1D01*
G01*
X99345000Y-63108535D02*
G75*
G02*
X99347500Y-63102500I8522J5D01*
G01*
X129255000Y-49164012D02*
G75*
G03*
X128937500Y-48397500I-1084013J-1D01*
G01*
X107702928Y-62090001D02*
G75*
G02*
X107714999Y-62095001I2J-17068D01*
G01*
X107717071Y-62090001D02*
G75*
G03*
X107715001Y-62094999I0J-2928D01*
G01*
X126220001Y-52340000D02*
G75*
G02*
X126262427Y-52237574I144852J1D01*
G01*
X107715000Y-62095000D02*
G75*
G03*
X107727071Y-62100000I12073J12076D01*
G01*
X129619999Y-52365857D02*
G75*
G02*
X129609999Y-52389999I-34144J0D01*
G01*
X128920892Y-51959107D02*
G75*
G03*
X129255000Y-51152500I-806610J806609D01*
G01*
X126717499Y-51782499D02*
G75*
G03*
X126717499Y-51777501I-2501J2499D01*
G01*
X126235000Y-52385000D02*
G75*
G02*
X126220000Y-52378786I-6213J6214D01*
G01*
X126715000Y-51771464D02*
G75*
G03*
X126717500Y-51777500I8531J-2D01*
G01*
X129585857Y-52399999D02*
G75*
G03*
X129609999Y-52389999I0J34144D01*
G01*
X107205000Y-62085000D02*
G75*
G03*
X107217071Y-62090000I12073J12076D01*
G01*
X127413258Y-39956741D02*
G75*
G03*
X127400000Y-39988750I32004J-32006D01*
G01*
X107717071Y-62090000D02*
X107702928Y-62090000D01*
X129255000Y-51097500D02*
X129255000Y-50680000D01*
%TO.N,+3V3*%
X120090000Y-60948370D02*
G75*
G02*
X119905000Y-61395000I-631633J1D01*
G01*
X110715000Y-62095000D02*
G75*
G03*
X110702928Y-62090000I-12070J-12069D01*
G01*
X110717071Y-62090001D02*
G75*
G03*
X110715001Y-62094999I0J-2928D01*
G01*
X110716464Y-62096464D02*
G75*
G02*
X110720000Y-62105000I-8534J-8536D01*
G01*
X123987071Y-39102928D02*
G75*
G02*
X123970000Y-39110000I-17073J17072D01*
G01*
X130757500Y-54474999D02*
G75*
G02*
X130684948Y-54444946I1J102606D01*
G01*
X110702928Y-62090000D02*
X110717071Y-62090000D01*
D35*
%TO.N,Net-(Q1-Pad3)*%
X123525000Y-45654017D02*
G75*
G02*
X124987499Y-42123229I4993288J1D01*
G01*
X125556135Y-41554594D02*
G75*
G03*
X126450000Y-39396615I-2157981J2157981D01*
G01*
%TO.N,Net-(Q1-Pad1)*%
X125290879Y-40129999D02*
G75*
G03*
X125438750Y-40068750I-3J209129D01*
G01*
%TO.N,Net-(D3-Pad2)*%
X128477500Y-43937500D02*
G75*
G02*
X128465000Y-43907322I30172J30175D01*
G01*
%TO.N,Net-(D3-Pad1)*%
X129459999Y-45130043D02*
G75*
G02*
X129357499Y-45377499I-349961J2D01*
G01*
%TO.N,Net-(D1-Pad2)*%
X111274748Y-61164748D02*
G75*
G02*
X111250000Y-61105000I59742J59745D01*
G01*
X112220000Y-62065000D02*
G75*
G02*
X112143180Y-62033180I1J108641D01*
G01*
%TO.N,Net-(R11-Pad1)*%
X127869519Y-52503123D02*
G75*
G02*
X127609759Y-53130239I-886885J3D01*
G01*
X127869520Y-50877136D02*
G75*
G02*
X127927260Y-50737740I197132J1D01*
G01*
%TO.N,Net-(R7-Pad2)*%
X103485000Y-38305000D02*
G75*
G03*
X103488535Y-38313535I12063J-3D01*
G01*
%TO.N,Net-(R5-Pad2)*%
X105149999Y-62119999D02*
G75*
G02*
X105150000Y-62120000I0J-1D01*
G01*
X105150000Y-62120000D02*
G75*
G03*
X105120000Y-62192426I72416J-72422D01*
G01*
X112724999Y-63274999D02*
G75*
G02*
X111385111Y-63830000I-1339893J1339896D01*
G01*
X105495000Y-63455000D02*
G75*
G03*
X106400330Y-63830000I905331J905333D01*
G01*
X113280000Y-62405000D02*
G75*
G02*
X113057261Y-62942738I-760479J2D01*
G01*
X105120001Y-62615000D02*
G75*
G03*
X105448804Y-63408804I1122607J-1D01*
G01*
X104300364Y-62969635D02*
G75*
G02*
X103792500Y-63180000I-507869J507872D01*
G01*
%TO.N,Net-(D2-Pad1)*%
X127985000Y-45480000D02*
G75*
G02*
X127385000Y-44031422I1448642J1448575D01*
G01*
D37*
%TO.N,Net-(C6-Pad2)*%
X132778856Y-49558856D02*
G75*
G02*
X132420000Y-48692500I866352J866354D01*
G01*
X132420000Y-43497500D02*
G75*
G03*
X130972500Y-42050000I-1447499J1D01*
G01*
X135677499Y-52972499D02*
G75*
G03*
X136025000Y-52133560I-838943J838942D01*
G01*
X130525000Y-52067114D02*
G75*
G03*
X130622500Y-52302500I332881J-2D01*
G01*
X126157740Y-44922740D02*
G75*
G02*
X125600480Y-43577395I1345346J1345345D01*
G01*
D35*
X127467500Y-42107500D02*
G75*
G03*
X127410000Y-42246317I138805J-138812D01*
G01*
X129485001Y-42118284D02*
G75*
G02*
X129505001Y-42070001I68269J6D01*
G01*
D37*
X132420000Y-47677500D02*
G75*
G02*
X132061143Y-48543856I-1225215J2D01*
G01*
X132061143Y-48543856D02*
G75*
G02*
X132420000Y-48692500I148644J-148643D01*
G01*
X135561577Y-53088422D02*
G75*
G02*
X135002500Y-53320000I-559082J559086D01*
G01*
X125825240Y-42274760D02*
G75*
G03*
X125600480Y-42817378I542614J-542617D01*
G01*
X130525001Y-50380000D02*
G75*
G02*
X130737133Y-49867868I724259J3D01*
G01*
X134965000Y-50280001D02*
G75*
G02*
X135460059Y-50485061I1J-700119D01*
G01*
D35*
X129496715Y-42050000D02*
G75*
G02*
X129505000Y-42070000I0J-11716D01*
G01*
D37*
X129553284Y-42050001D02*
G75*
G03*
X129505001Y-42070001I-6J-68269D01*
G01*
X133084574Y-49864574D02*
G75*
G03*
X134087500Y-50280000I1002927J1002926D01*
G01*
X135640000Y-50665000D02*
G75*
G02*
X136025000Y-51594472I-929479J-929475D01*
G01*
D35*
X127467500Y-42107500D02*
G75*
G03*
X127443682Y-42050000I-23817J23817D01*
G01*
D37*
X125825240Y-42274760D02*
G75*
G02*
X126367858Y-42050000I542617J-542614D01*
G01*
X134682500Y-50280000D02*
X134965000Y-50280000D01*
X132420000Y-48692500D02*
X132420000Y-47677500D01*
X129496715Y-42050000D02*
X129553284Y-42050000D01*
X130525000Y-50380000D02*
X130525000Y-50530000D01*
X127606317Y-42050000D02*
X127443682Y-42050000D01*
D35*
%TO.N,Net-(C3-Pad1)*%
X126220000Y-53663750D02*
G75*
G03*
X126434783Y-54182283I733314J-1D01*
G01*
%TO.N,/GPIO13*%
X117705000Y-57935000D02*
G75*
G02*
X117320000Y-57005527I929472J929472D01*
G01*
X117325000Y-51035000D02*
G75*
G03*
X117320000Y-51047071I12065J-12068D01*
G01*
%TO.N,/GPIO14*%
X114170000Y-53312088D02*
G75*
G02*
X114422500Y-52702500I862078J3D01*
G01*
%TO.N,/ADC*%
X108187500Y-61052500D02*
G75*
G03*
X108229748Y-61070000I42251J42255D01*
G01*
X108187500Y-61052500D02*
G75*
G02*
X108170000Y-61010251I42248J42248D01*
G01*
%TO.N,/GPIO15*%
X118170000Y-41860330D02*
G75*
G02*
X118544999Y-40954999I1280331J1D01*
G01*
X118919999Y-40335000D02*
G75*
G02*
X118746757Y-40753240I-591491J5D01*
G01*
%TO.N,/EN*%
X110234999Y-60490961D02*
G75*
G03*
X110202499Y-60412501I-110964J-2D01*
G01*
X109036410Y-54286410D02*
G75*
G02*
X110090000Y-56830000I-2543598J-2543594D01*
G01*
X110202500Y-60412500D02*
G75*
G02*
X110170000Y-60334038I78458J78460D01*
G01*
X107459748Y-37890250D02*
G75*
G02*
X111307505Y-36296458I3847757J-3847760D01*
G01*
X106593792Y-51843792D02*
G75*
G02*
X105000000Y-47996036I3847760J3847757D01*
G01*
X105000000Y-42603963D02*
G75*
G02*
X106593792Y-38756207I5441547J1D01*
G01*
X136348978Y-36296459D02*
G75*
G02*
X137198228Y-36648230I1J-1201020D01*
G01*
%TO.N,/GPIO2*%
X116090000Y-40653345D02*
G75*
G02*
X116255000Y-40255000I563342J1D01*
G01*
%TO.N,/GPIO0*%
X114090000Y-49355327D02*
G75*
G03*
X115157500Y-51932500I3644675J1D01*
G01*
X114005000Y-40175000D02*
G75*
G03*
X113799791Y-40090000I-205206J-205203D01*
G01*
X114005000Y-40175000D02*
G75*
G02*
X114090000Y-40380208I-205209J-205209D01*
G01*
%TO.N,Net-(C2-Pad1)*%
X128686248Y-54158748D02*
G75*
G02*
X128475000Y-53648750I509996J509997D01*
G01*
X128478232Y-53353232D02*
G75*
G02*
X128480000Y-53357500I-4273J-4270D01*
G01*
%TO.N,Net-(D2-Pad2)*%
X126402500Y-42937500D02*
G75*
G02*
X126415000Y-42967677I-30179J-30178D01*
G01*
%TO.N,/GPIO16*%
X112217500Y-61047500D02*
G75*
G02*
X112170000Y-60932824I114668J114672D01*
G01*
X112217500Y-61047500D02*
G75*
G03*
X112332175Y-61095000I114675J114675D01*
G01*
X113237322Y-61095000D02*
G75*
G03*
X113267500Y-61082500I-2J42683D01*
G01*
%TO.N,/nRST*%
X106220000Y-61095000D02*
G75*
G03*
X106280355Y-61120000I60358J60362D01*
G01*
X106170001Y-61027322D02*
G75*
G03*
X106182501Y-61057499I42671J-3D01*
G01*
X106177322Y-61069999D02*
G75*
G03*
X106182499Y-61057501I-1J7322D01*
G01*
X106207500Y-61082500D02*
G75*
G03*
X106177322Y-61070000I-30175J-30172D01*
G01*
X106182500Y-61057500D02*
X106207500Y-61082500D01*
D37*
%TO.N,+3V3*%
X110720000Y-62105000D02*
X110720000Y-62110000D01*
X130800000Y-54475000D02*
X130757500Y-54475000D01*
X110717071Y-62090000D02*
X111250000Y-62090000D01*
X119905000Y-61395000D02*
X119720000Y-61580000D01*
X120090000Y-60948370D02*
X120090000Y-58320000D01*
X115130000Y-39070000D02*
X113920000Y-39070000D01*
X130684947Y-54444947D02*
X129600000Y-53360000D01*
X110715000Y-62095000D02*
X110716464Y-62096464D01*
X123970000Y-39110000D02*
X123960000Y-39110000D01*
X124020000Y-39070000D02*
X123987071Y-39102928D01*
X106170000Y-62090000D02*
X106195000Y-62090000D01*
X110702928Y-62090000D02*
X110235000Y-62090000D01*
X115130000Y-39070000D02*
X116420000Y-39070000D01*
%TO.N,GND*%
X127413258Y-39956741D02*
X127440000Y-39930000D01*
X126715000Y-51771464D02*
X126715000Y-50680000D01*
X128754002Y-52400000D02*
X129585857Y-52400000D01*
X129255000Y-49164012D02*
X129255000Y-49504506D01*
X126271213Y-52370000D02*
X127350000Y-52370000D01*
X107717071Y-62090000D02*
X108205000Y-62090000D01*
X107727071Y-62100000D02*
X107760000Y-62100000D01*
X126220000Y-52378786D02*
X126220000Y-52340000D01*
X107217071Y-62090000D02*
X107702928Y-62090000D01*
X107205000Y-62085000D02*
X107200000Y-62080000D01*
X99345000Y-63108535D02*
X99345000Y-63180000D01*
X129437500Y-51697500D02*
X129443223Y-51703223D01*
X127400000Y-39988750D02*
X127400000Y-40007500D01*
X129620000Y-52130000D02*
X129620000Y-52365857D01*
X129255000Y-51097500D02*
X129255000Y-51256906D01*
X128907544Y-51972455D02*
X128920892Y-51959107D01*
X126262426Y-52237573D02*
X126717500Y-51782500D01*
X99350000Y-63100000D02*
X99347500Y-63102500D01*
X128937500Y-48397500D02*
X128620000Y-48080000D01*
X99350000Y-38300000D02*
X99335000Y-38300000D01*
D35*
%TO.N,/nRST*%
X106170000Y-61027322D02*
X106170000Y-58280000D01*
X106120000Y-58290000D02*
X106090000Y-58320000D01*
X106280355Y-61120000D02*
X107200000Y-61120000D01*
X106207500Y-61082500D02*
X106220000Y-61095000D01*
X106177322Y-61070000D02*
X105180000Y-61070000D01*
%TO.N,/GPIO16*%
X113267500Y-61082500D02*
X113280000Y-61070000D01*
X112332175Y-61095000D02*
X113237322Y-61095000D01*
X112170000Y-60932824D02*
X112170000Y-58280000D01*
%TO.N,Net-(D2-Pad2)*%
X126415000Y-42967677D02*
X126415000Y-43950000D01*
X126402500Y-42937500D02*
X126390000Y-42925000D01*
%TO.N,Net-(C2-Pad1)*%
X128480000Y-53357500D02*
X128480000Y-53360000D01*
X128475000Y-53350000D02*
X128478232Y-53353232D01*
X128686248Y-54158748D02*
X129757500Y-55230000D01*
X128475000Y-53350000D02*
X128475000Y-53648750D01*
%TO.N,/GPIO0*%
X115157500Y-51932500D02*
X116225000Y-53000000D01*
X114090000Y-43120000D02*
X114090000Y-40380208D01*
X113799791Y-40090000D02*
X111420000Y-40090000D01*
X114090000Y-43120000D02*
X114090000Y-49355327D01*
%TO.N,/GPIO2*%
X116255000Y-40255000D02*
X116420000Y-40090000D01*
X116090000Y-46920000D02*
X116090000Y-48020000D01*
X116090000Y-40653345D02*
X116090000Y-40932508D01*
%TO.N,/EN*%
X111307505Y-36296458D02*
X136348978Y-36296458D01*
X110170000Y-60334038D02*
X110170000Y-58280000D01*
X106593792Y-38756207D02*
X107459748Y-37890250D01*
X110090000Y-56830000D02*
X110090000Y-58320000D01*
X110235000Y-60490961D02*
X110235000Y-61070000D01*
X137198229Y-36648229D02*
X137550000Y-37000000D01*
X105000000Y-47996036D02*
X105000000Y-42603963D01*
X106593792Y-51843792D02*
X109036410Y-54286410D01*
%TO.N,/GPIO15*%
X118544999Y-40954999D02*
X118746758Y-40753241D01*
X118920000Y-40335000D02*
X118920000Y-40090000D01*
X118170000Y-41860330D02*
X118170000Y-43080000D01*
%TO.N,/ADC*%
X108170000Y-61010251D02*
X108170000Y-58280000D01*
X108229748Y-61070000D02*
X109220000Y-61070000D01*
%TO.N,/GPIO14*%
X114170000Y-53312088D02*
X114170000Y-58280000D01*
X114422500Y-52702500D02*
X114675000Y-52450000D01*
%TO.N,/GPIO13*%
X117705000Y-57935000D02*
X118090000Y-58320000D01*
X117330000Y-51030000D02*
X117325000Y-51035000D01*
X117320000Y-57005527D02*
X117320000Y-51047071D01*
%TO.N,Net-(C3-Pad1)*%
X126220000Y-53663750D02*
X126220000Y-53360000D01*
X126434783Y-54182283D02*
X127482500Y-55230000D01*
D37*
%TO.N,Net-(C6-Pad2)*%
X130737132Y-49867867D02*
X132061143Y-48543856D01*
X126157740Y-44922740D02*
X126715000Y-45480000D01*
X132778856Y-49558856D02*
X133084574Y-49864574D01*
D35*
X129485000Y-42118284D02*
X129485000Y-42925000D01*
D37*
X130622500Y-52302500D02*
X130720000Y-52400000D01*
X126367858Y-42050000D02*
X127443682Y-42050000D01*
X125600480Y-43577395D02*
X125600480Y-42817378D01*
X130525000Y-52067114D02*
X130525000Y-51580000D01*
X135640000Y-50665000D02*
X135460060Y-50485060D01*
X135002500Y-53320000D02*
X134675000Y-53320000D01*
X132420000Y-47677500D02*
X132420000Y-43497500D01*
X135677499Y-52972499D02*
X135561577Y-53088422D01*
X129553284Y-42050000D02*
X130972500Y-42050000D01*
X134161875Y-50280000D02*
X134087500Y-50280000D01*
X129496715Y-42050000D02*
X127606317Y-42050000D01*
D35*
X127410000Y-42246317D02*
X127410000Y-42925000D01*
D37*
X136025000Y-51594472D02*
X136025000Y-52133560D01*
D35*
%TO.N,Net-(D2-Pad1)*%
X127385000Y-44031422D02*
X127385000Y-43950000D01*
%TO.N,Net-(R5-Pad2)*%
X105448804Y-63408804D02*
X105495000Y-63455000D01*
X113057261Y-62942738D02*
X112724999Y-63274999D01*
X105120000Y-62192426D02*
X105120000Y-62615000D01*
X103792500Y-63180000D02*
X103495000Y-63180000D01*
X111385111Y-63830000D02*
X106400330Y-63830000D01*
X113280000Y-62405000D02*
X113280000Y-62090000D01*
X105149999Y-62119999D02*
X104300364Y-62969635D01*
%TO.N,Net-(R7-Pad2)*%
X103485000Y-38305000D02*
X103485000Y-38300000D01*
X103500000Y-38325000D02*
X103488535Y-38313535D01*
D36*
%TO.N,+BATT*%
X124570000Y-59180000D02*
X124595000Y-59205000D01*
X134054461Y-59230000D02*
X129588198Y-59230000D01*
X130537500Y-43942500D02*
X130550000Y-43930000D01*
X129495000Y-59005000D02*
X129663750Y-58836250D01*
X130525000Y-43972677D02*
X130525000Y-45480000D01*
X109265000Y-62050000D02*
X109270000Y-62050000D01*
X125570000Y-59705000D02*
X125570000Y-60650000D01*
X129757500Y-58715983D02*
X129757500Y-57130000D01*
X125095000Y-59230000D02*
X124655355Y-59230000D01*
X135165000Y-59690000D02*
X135625000Y-60150000D01*
X109256464Y-62053535D02*
X109220000Y-62090000D01*
X128951801Y-59230000D02*
X126045000Y-59230000D01*
D35*
%TO.N,Net-(R11-Pad1)*%
X127869520Y-50877136D02*
X127869520Y-52503123D01*
X127927260Y-50737740D02*
X127985000Y-50680000D01*
X127609760Y-53130240D02*
X127350000Y-53390000D01*
%TO.N,Net-(D1-Pad2)*%
X111250000Y-61105000D02*
X111250000Y-61070000D01*
X112220000Y-62065000D02*
X112265000Y-62065000D01*
X112143180Y-62033180D02*
X111274748Y-61164748D01*
%TO.N,Net-(D3-Pad1)*%
X129460000Y-45130043D02*
X129460000Y-43950000D01*
X129357500Y-45377500D02*
X129255000Y-45480000D01*
%TO.N,Net-(D3-Pad2)*%
X128465000Y-43907322D02*
X128465000Y-42925000D01*
X128477500Y-43937500D02*
X128490000Y-43950000D01*
%TO.N,Net-(Q1-Pad1)*%
X125290879Y-40130000D02*
X125135346Y-40130000D01*
X122477812Y-40130000D02*
X122220000Y-40130000D01*
X125438750Y-40068750D02*
X125500000Y-40007500D01*
%TO.N,Net-(Q1-Pad3)*%
X123525000Y-48925000D02*
X123525000Y-45654017D01*
X126450000Y-39396615D02*
X126450000Y-38132500D01*
X124987499Y-42123229D02*
X125556135Y-41554594D01*
%TD*%
%TA.AperFunction,Conductor*%
%TO.N,GND*%
G36*
X110377952Y-35898907D02*
G01*
X110413916Y-35948407D01*
X110413916Y-36009593D01*
X110377952Y-36059093D01*
X110339075Y-36076098D01*
X109967920Y-36149925D01*
X109967913Y-36149927D01*
X109966016Y-36150304D01*
X109765370Y-36206892D01*
X109533620Y-36272252D01*
X109533615Y-36272253D01*
X109531745Y-36272781D01*
X109529918Y-36273455D01*
X109529915Y-36273456D01*
X109110262Y-36428273D01*
X109110250Y-36428278D01*
X109108423Y-36428952D01*
X109106652Y-36429768D01*
X109106641Y-36429773D01*
X108700423Y-36617042D01*
X108700416Y-36617045D01*
X108698658Y-36617856D01*
X108304978Y-36838328D01*
X108303366Y-36839405D01*
X108303358Y-36839410D01*
X107931423Y-37087928D01*
X107931413Y-37087935D01*
X107929809Y-37089007D01*
X107575465Y-37368349D01*
X107405381Y-37525573D01*
X107318170Y-37606190D01*
X107245237Y-37673608D01*
X107243984Y-37674486D01*
X107233638Y-37689261D01*
X107222550Y-37702477D01*
X106406019Y-38519009D01*
X106392803Y-38530097D01*
X106378028Y-38540443D01*
X106377150Y-38541696D01*
X106071892Y-38871924D01*
X105792549Y-39226268D01*
X105791477Y-39227872D01*
X105791470Y-39227882D01*
X105544821Y-39597019D01*
X105541870Y-39601436D01*
X105321398Y-39995116D01*
X105320587Y-39996874D01*
X105320584Y-39996881D01*
X105209603Y-40237619D01*
X105132494Y-40404881D01*
X105083454Y-40537811D01*
X104982286Y-40812039D01*
X104976322Y-40828204D01*
X104853845Y-41262474D01*
X104853469Y-41264366D01*
X104853466Y-41264377D01*
X104825732Y-41403809D01*
X104765819Y-41705016D01*
X104712784Y-42153100D01*
X104695129Y-42602460D01*
X104694864Y-42603963D01*
X104696368Y-42612491D01*
X104697996Y-42621724D01*
X104699500Y-42638916D01*
X104699500Y-47961083D01*
X104697996Y-47978272D01*
X104694864Y-47996036D01*
X104695129Y-47997539D01*
X104695397Y-48004367D01*
X104695397Y-48004368D01*
X104703760Y-48217205D01*
X104712785Y-48446900D01*
X104765819Y-48894983D01*
X104807045Y-49102239D01*
X104852286Y-49329680D01*
X104853846Y-49337525D01*
X104976323Y-49771795D01*
X104976991Y-49773605D01*
X104976993Y-49773612D01*
X105011540Y-49867256D01*
X105132495Y-50195118D01*
X105321399Y-50604882D01*
X105322350Y-50606579D01*
X105322356Y-50606592D01*
X105510329Y-50942243D01*
X105541870Y-50998563D01*
X105589622Y-51070029D01*
X105791470Y-51372117D01*
X105791477Y-51372127D01*
X105792549Y-51373731D01*
X106071892Y-51728075D01*
X106377150Y-52058303D01*
X106378028Y-52059556D01*
X106392803Y-52069902D01*
X106406019Y-52080990D01*
X108799212Y-54474183D01*
X108810300Y-54487399D01*
X108820646Y-54502174D01*
X108828650Y-54507779D01*
X108845215Y-54522386D01*
X108986017Y-54677738D01*
X109037917Y-54735001D01*
X109044080Y-54742511D01*
X109231013Y-54994560D01*
X109236405Y-55002629D01*
X109327312Y-55154298D01*
X109397729Y-55271782D01*
X109402309Y-55280350D01*
X109536474Y-55564019D01*
X109540192Y-55572995D01*
X109645907Y-55868448D01*
X109648727Y-55877745D01*
X109724974Y-56182136D01*
X109726869Y-56191665D01*
X109772910Y-56502051D01*
X109773863Y-56511719D01*
X109786338Y-56765642D01*
X109770309Y-56824691D01*
X109722633Y-56863040D01*
X109687457Y-56869500D01*
X109570252Y-56869500D01*
X109544005Y-56874721D01*
X109521334Y-56879230D01*
X109521332Y-56879231D01*
X109511769Y-56881133D01*
X109445448Y-56925448D01*
X109401133Y-56991769D01*
X109389500Y-57050252D01*
X109389500Y-59589748D01*
X109390448Y-59594512D01*
X109397235Y-59628632D01*
X109401133Y-59648231D01*
X109445448Y-59714552D01*
X109511769Y-59758867D01*
X109521332Y-59760769D01*
X109521334Y-59760770D01*
X109542823Y-59765044D01*
X109570252Y-59770500D01*
X109770500Y-59770500D01*
X109828691Y-59789407D01*
X109864655Y-59838907D01*
X109869500Y-59869500D01*
X109869500Y-60299079D01*
X109867996Y-60316271D01*
X109864864Y-60334032D01*
X109869357Y-60359514D01*
X109869500Y-60360583D01*
X109869500Y-60361986D01*
X109870171Y-60365589D01*
X109870337Y-60366480D01*
X109871533Y-60374900D01*
X109874561Y-60405644D01*
X109875452Y-60414696D01*
X109898981Y-60492259D01*
X109901275Y-60496550D01*
X109901275Y-60496551D01*
X109910872Y-60514507D01*
X109921627Y-60574740D01*
X109894924Y-60629790D01*
X109865400Y-60650897D01*
X109862446Y-60652274D01*
X109862444Y-60652275D01*
X109854596Y-60655935D01*
X109797504Y-60713027D01*
X109742987Y-60740804D01*
X109682555Y-60731233D01*
X109657496Y-60713027D01*
X109600404Y-60655935D01*
X109592556Y-60652275D01*
X109592554Y-60652274D01*
X109500042Y-60609135D01*
X109500041Y-60609135D01*
X109493173Y-60605932D01*
X109444316Y-60599500D01*
X108995684Y-60599500D01*
X108946827Y-60605932D01*
X108939959Y-60609135D01*
X108939958Y-60609135D01*
X108847446Y-60652274D01*
X108847444Y-60652275D01*
X108839596Y-60655935D01*
X108782504Y-60713027D01*
X108727987Y-60740804D01*
X108667555Y-60731233D01*
X108642496Y-60713027D01*
X108585404Y-60655935D01*
X108577556Y-60652275D01*
X108577554Y-60652274D01*
X108537659Y-60633671D01*
X108527661Y-60629009D01*
X108482913Y-60587281D01*
X108470500Y-60539285D01*
X108470500Y-59869500D01*
X108489407Y-59811309D01*
X108538907Y-59775345D01*
X108569500Y-59770500D01*
X108609748Y-59770500D01*
X108637177Y-59765044D01*
X108658666Y-59760770D01*
X108658668Y-59760769D01*
X108668231Y-59758867D01*
X108734552Y-59714552D01*
X108778867Y-59648231D01*
X108782766Y-59628632D01*
X108789552Y-59594512D01*
X108790500Y-59589748D01*
X108790500Y-57050252D01*
X108778867Y-56991769D01*
X108734552Y-56925448D01*
X108668231Y-56881133D01*
X108658668Y-56879231D01*
X108658666Y-56879230D01*
X108635995Y-56874721D01*
X108609748Y-56869500D01*
X107570252Y-56869500D01*
X107544005Y-56874721D01*
X107521334Y-56879230D01*
X107521332Y-56879231D01*
X107511769Y-56881133D01*
X107445448Y-56925448D01*
X107401133Y-56991769D01*
X107389500Y-57050252D01*
X107389500Y-59589748D01*
X107390448Y-59594512D01*
X107397235Y-59628632D01*
X107401133Y-59648231D01*
X107445448Y-59714552D01*
X107511769Y-59758867D01*
X107521332Y-59760769D01*
X107521334Y-59760770D01*
X107542823Y-59765044D01*
X107570252Y-59770500D01*
X107770500Y-59770500D01*
X107828691Y-59789407D01*
X107864655Y-59838907D01*
X107869500Y-59869500D01*
X107869500Y-60574792D01*
X107850593Y-60632983D01*
X107829620Y-60653592D01*
X107824596Y-60655935D01*
X107818474Y-60662057D01*
X107818471Y-60662059D01*
X107746040Y-60734491D01*
X107691524Y-60762269D01*
X107631092Y-60752698D01*
X107606032Y-60734492D01*
X107568316Y-60696776D01*
X107560468Y-60693116D01*
X107560466Y-60693115D01*
X107466356Y-60649231D01*
X107459487Y-60646028D01*
X107409901Y-60639500D01*
X107200033Y-60639500D01*
X106990100Y-60639501D01*
X106986890Y-60639924D01*
X106986883Y-60639924D01*
X106948025Y-60645039D01*
X106948024Y-60645039D01*
X106940513Y-60646028D01*
X106916527Y-60657213D01*
X106839534Y-60693115D01*
X106839532Y-60693116D01*
X106831684Y-60696776D01*
X106793969Y-60734491D01*
X106739453Y-60762269D01*
X106679021Y-60752698D01*
X106653961Y-60734492D01*
X106575404Y-60655935D01*
X106567556Y-60652275D01*
X106567554Y-60652274D01*
X106527660Y-60633671D01*
X106482912Y-60591942D01*
X106470500Y-60543947D01*
X106470500Y-59869500D01*
X106489407Y-59811309D01*
X106538907Y-59775345D01*
X106569500Y-59770500D01*
X106609748Y-59770500D01*
X106637177Y-59765044D01*
X106658666Y-59760770D01*
X106658668Y-59760769D01*
X106668231Y-59758867D01*
X106734552Y-59714552D01*
X106778867Y-59648231D01*
X106782766Y-59628632D01*
X106789552Y-59594512D01*
X106790500Y-59589748D01*
X106790500Y-57050252D01*
X106778867Y-56991769D01*
X106734552Y-56925448D01*
X106668231Y-56881133D01*
X106658668Y-56879231D01*
X106658666Y-56879230D01*
X106635995Y-56874721D01*
X106609748Y-56869500D01*
X105570252Y-56869500D01*
X105544005Y-56874721D01*
X105521334Y-56879230D01*
X105521332Y-56879231D01*
X105511769Y-56881133D01*
X105445448Y-56925448D01*
X105401133Y-56991769D01*
X105389500Y-57050252D01*
X105389500Y-59589748D01*
X105390448Y-59594512D01*
X105397235Y-59628632D01*
X105401133Y-59648231D01*
X105445448Y-59714552D01*
X105511769Y-59758867D01*
X105521332Y-59760769D01*
X105521334Y-59760770D01*
X105542823Y-59765044D01*
X105570252Y-59770500D01*
X105770500Y-59770500D01*
X105828691Y-59789407D01*
X105864655Y-59838907D01*
X105869500Y-59869500D01*
X105869500Y-60567790D01*
X105850593Y-60625981D01*
X105827284Y-60648886D01*
X105822442Y-60652276D01*
X105814596Y-60655935D01*
X105757504Y-60713027D01*
X105702987Y-60740804D01*
X105642555Y-60731233D01*
X105617496Y-60713027D01*
X105560404Y-60655935D01*
X105552556Y-60652275D01*
X105552554Y-60652274D01*
X105460042Y-60609135D01*
X105460041Y-60609135D01*
X105453173Y-60605932D01*
X105404316Y-60599500D01*
X104955684Y-60599500D01*
X104906827Y-60605932D01*
X104899959Y-60609135D01*
X104899958Y-60609135D01*
X104807446Y-60652274D01*
X104807444Y-60652275D01*
X104799596Y-60655935D01*
X104715935Y-60739596D01*
X104712275Y-60747444D01*
X104712274Y-60747446D01*
X104672920Y-60831842D01*
X104665932Y-60846827D01*
X104664943Y-60854339D01*
X104664474Y-60857903D01*
X104659500Y-60895684D01*
X104659500Y-61244316D01*
X104665932Y-61293173D01*
X104669135Y-61300041D01*
X104669135Y-61300042D01*
X104706231Y-61379593D01*
X104715935Y-61400404D01*
X104799596Y-61484065D01*
X104812919Y-61490277D01*
X104857664Y-61532005D01*
X104869338Y-61592067D01*
X104843479Y-61647519D01*
X104812920Y-61669722D01*
X104799596Y-61675935D01*
X104715935Y-61759596D01*
X104712275Y-61767444D01*
X104712274Y-61767446D01*
X104681212Y-61834059D01*
X104665932Y-61866827D01*
X104659500Y-61915684D01*
X104659500Y-62144520D01*
X104640593Y-62202711D01*
X104630504Y-62214523D01*
X104537018Y-62308010D01*
X104482503Y-62335787D01*
X104422070Y-62326216D01*
X104378806Y-62282952D01*
X104369917Y-62257320D01*
X104360770Y-62211334D01*
X104360769Y-62211332D01*
X104358867Y-62201769D01*
X104314552Y-62135448D01*
X104248231Y-62091133D01*
X104238668Y-62089231D01*
X104238666Y-62089230D01*
X104215995Y-62084721D01*
X104189748Y-62079500D01*
X102800252Y-62079500D01*
X102774005Y-62084721D01*
X102751334Y-62089230D01*
X102751332Y-62089231D01*
X102741769Y-62091133D01*
X102675448Y-62135448D01*
X102631133Y-62201769D01*
X102629231Y-62211332D01*
X102629230Y-62211334D01*
X102625667Y-62229249D01*
X102619500Y-62260252D01*
X102619500Y-64099748D01*
X102620448Y-64104512D01*
X102626196Y-64133409D01*
X102631133Y-64158231D01*
X102675448Y-64224552D01*
X102741769Y-64268867D01*
X102751332Y-64270769D01*
X102751334Y-64270770D01*
X102774005Y-64275279D01*
X102800252Y-64280500D01*
X104189748Y-64280500D01*
X104215995Y-64275279D01*
X104238666Y-64270770D01*
X104238668Y-64270769D01*
X104248231Y-64268867D01*
X104314552Y-64224552D01*
X104358867Y-64158231D01*
X104363805Y-64133409D01*
X104369552Y-64104512D01*
X104370500Y-64099748D01*
X104370500Y-63353468D01*
X104389407Y-63295277D01*
X104405204Y-63278188D01*
X104436400Y-63251544D01*
X104464232Y-63227773D01*
X104469123Y-63224231D01*
X104470427Y-63223671D01*
X104475313Y-63219657D01*
X104481807Y-63213163D01*
X104487516Y-63207887D01*
X104499845Y-63197357D01*
X104507354Y-63191543D01*
X104509031Y-63190369D01*
X104509034Y-63190366D01*
X104516127Y-63185399D01*
X104526476Y-63170619D01*
X104537559Y-63157411D01*
X104713392Y-62981578D01*
X104767908Y-62953801D01*
X104828340Y-62963372D01*
X104871605Y-63006637D01*
X104877141Y-63019760D01*
X104923963Y-63157694D01*
X104923966Y-63157701D01*
X104925007Y-63160768D01*
X104926440Y-63163673D01*
X104926440Y-63163674D01*
X105002922Y-63318765D01*
X105007516Y-63328081D01*
X105111158Y-63483192D01*
X105113295Y-63485629D01*
X105113299Y-63485634D01*
X105192190Y-63575592D01*
X105194660Y-63578955D01*
X105194768Y-63578867D01*
X105198782Y-63583753D01*
X105201093Y-63586064D01*
X105205522Y-63590794D01*
X105221152Y-63608617D01*
X105227813Y-63617104D01*
X105228071Y-63617473D01*
X105228074Y-63617476D01*
X105233040Y-63624568D01*
X105245912Y-63633581D01*
X105270223Y-63657891D01*
X105279237Y-63670764D01*
X105286335Y-63675734D01*
X105287194Y-63676593D01*
X105292643Y-63680870D01*
X105435917Y-63806518D01*
X105608219Y-63921646D01*
X105611125Y-63923079D01*
X105611130Y-63923082D01*
X105685742Y-63959876D01*
X105794075Y-64013300D01*
X105990303Y-64079911D01*
X106193547Y-64120339D01*
X106196769Y-64120550D01*
X106196775Y-64120551D01*
X106289557Y-64126632D01*
X106342990Y-64130134D01*
X106344205Y-64130234D01*
X106344847Y-64130265D01*
X106347245Y-64130500D01*
X106347285Y-64130500D01*
X106348544Y-64130978D01*
X106348575Y-64130500D01*
X106355870Y-64130978D01*
X106383711Y-64132803D01*
X106390590Y-64133632D01*
X106391800Y-64133632D01*
X106400330Y-64135136D01*
X106418094Y-64132004D01*
X106435283Y-64130500D01*
X111350159Y-64130500D01*
X111367348Y-64132004D01*
X111385112Y-64135136D01*
X111393642Y-64133632D01*
X111395998Y-64133632D01*
X111400767Y-64133080D01*
X111457126Y-64129915D01*
X111631304Y-64120133D01*
X111788356Y-64093448D01*
X111871671Y-64079292D01*
X111871673Y-64079291D01*
X111874401Y-64078828D01*
X111877060Y-64078062D01*
X112108672Y-64011336D01*
X112108675Y-64011335D01*
X112111344Y-64010566D01*
X112240861Y-63956918D01*
X112306455Y-63929748D01*
X123469500Y-63929748D01*
X123481133Y-63988231D01*
X123525448Y-64054552D01*
X123591769Y-64098867D01*
X123601332Y-64100769D01*
X123601334Y-64100770D01*
X123620148Y-64104512D01*
X123650252Y-64110500D01*
X124689748Y-64110500D01*
X124719852Y-64104512D01*
X124738666Y-64100770D01*
X124738668Y-64100769D01*
X124748231Y-64098867D01*
X124814552Y-64054552D01*
X124858867Y-63988231D01*
X124870500Y-63929748D01*
X130769500Y-63929748D01*
X130781133Y-63988231D01*
X130825448Y-64054552D01*
X130891769Y-64098867D01*
X130901332Y-64100769D01*
X130901334Y-64100770D01*
X130920148Y-64104512D01*
X130950252Y-64110500D01*
X131989748Y-64110500D01*
X132019852Y-64104512D01*
X132038666Y-64100770D01*
X132038668Y-64100769D01*
X132048231Y-64098867D01*
X132114552Y-64054552D01*
X132158867Y-63988231D01*
X132170500Y-63929748D01*
X132170500Y-63090252D01*
X132158867Y-63031769D01*
X132114552Y-62965448D01*
X132101930Y-62957014D01*
X134293043Y-62957014D01*
X134323807Y-63093524D01*
X134326231Y-63101258D01*
X134407183Y-63300620D01*
X134410840Y-63307860D01*
X134523266Y-63491322D01*
X134528056Y-63497867D01*
X134668935Y-63660502D01*
X134674729Y-63666176D01*
X134840292Y-63803629D01*
X134846921Y-63808270D01*
X135032713Y-63916838D01*
X135040008Y-63920334D01*
X135241038Y-63997099D01*
X135248808Y-63999357D01*
X135355637Y-64021091D01*
X135368846Y-64019586D01*
X135371000Y-64011405D01*
X135371000Y-64010952D01*
X135879000Y-64010952D01*
X135883122Y-64023637D01*
X135884650Y-64024748D01*
X135889884Y-64025238D01*
X135904291Y-64023392D01*
X135912200Y-64021710D01*
X136118304Y-63959876D01*
X136125852Y-63956918D01*
X136319087Y-63862253D01*
X136326046Y-63858104D01*
X136501231Y-63733148D01*
X136507412Y-63727924D01*
X136659831Y-63576035D01*
X136665088Y-63569858D01*
X136790651Y-63395119D01*
X136794823Y-63388176D01*
X136890164Y-63195268D01*
X136893144Y-63187744D01*
X136955701Y-62981843D01*
X136957410Y-62973938D01*
X136959304Y-62959547D01*
X136956873Y-62946431D01*
X136955571Y-62945195D01*
X136950290Y-62944000D01*
X135894680Y-62944000D01*
X135881995Y-62948122D01*
X135879000Y-62952243D01*
X135879000Y-64010952D01*
X135371000Y-64010952D01*
X135371000Y-62959680D01*
X135366878Y-62946995D01*
X135362757Y-62944000D01*
X134305790Y-62944000D01*
X134293460Y-62948006D01*
X134293043Y-62957014D01*
X132101930Y-62957014D01*
X132048231Y-62921133D01*
X132038668Y-62919231D01*
X132038666Y-62919230D01*
X132015995Y-62914721D01*
X131989748Y-62909500D01*
X130950252Y-62909500D01*
X130924005Y-62914721D01*
X130901334Y-62919230D01*
X130901332Y-62919231D01*
X130891769Y-62921133D01*
X130825448Y-62965448D01*
X130781133Y-63031769D01*
X130769500Y-63090252D01*
X130769500Y-63929748D01*
X124870500Y-63929748D01*
X124870500Y-63090252D01*
X124858867Y-63031769D01*
X124814552Y-62965448D01*
X124748231Y-62921133D01*
X124738668Y-62919231D01*
X124738666Y-62919230D01*
X124715995Y-62914721D01*
X124689748Y-62909500D01*
X123650252Y-62909500D01*
X123624005Y-62914721D01*
X123601334Y-62919230D01*
X123601332Y-62919231D01*
X123591769Y-62921133D01*
X123525448Y-62965448D01*
X123481133Y-63031769D01*
X123469500Y-63090252D01*
X123469500Y-63929748D01*
X112306455Y-63929748D01*
X112336585Y-63917268D01*
X112336592Y-63917265D01*
X112339155Y-63916203D01*
X112444278Y-63858104D01*
X112552532Y-63798275D01*
X112552541Y-63798269D01*
X112554968Y-63796928D01*
X112652220Y-63727924D01*
X112753809Y-63655843D01*
X112753814Y-63655839D01*
X112756069Y-63654239D01*
X112797211Y-63617473D01*
X112928244Y-63500375D01*
X112932001Y-63497398D01*
X112933669Y-63495730D01*
X112940762Y-63490763D01*
X112945731Y-63483667D01*
X112951106Y-63475991D01*
X112962199Y-63462770D01*
X113245029Y-63179941D01*
X113258250Y-63168847D01*
X113265928Y-63163471D01*
X113273025Y-63158502D01*
X113278385Y-63150847D01*
X113284203Y-63143332D01*
X113293790Y-63132108D01*
X113380525Y-63030555D01*
X113444957Y-62925411D01*
X115312001Y-62925411D01*
X115312290Y-62930751D01*
X115318078Y-62984035D01*
X115320927Y-62996020D01*
X115367351Y-63119855D01*
X115374059Y-63132108D01*
X115452863Y-63237256D01*
X115462744Y-63247137D01*
X115567892Y-63325941D01*
X115580145Y-63332649D01*
X115703978Y-63379072D01*
X115715967Y-63381923D01*
X115769252Y-63387711D01*
X115774586Y-63388000D01*
X116450320Y-63388000D01*
X116463005Y-63383878D01*
X116466000Y-63379757D01*
X116466000Y-63372319D01*
X116974000Y-63372319D01*
X116978122Y-63385004D01*
X116982243Y-63387999D01*
X117665411Y-63387999D01*
X117670751Y-63387710D01*
X117724035Y-63381922D01*
X117736020Y-63379073D01*
X117859855Y-63332649D01*
X117872108Y-63325941D01*
X117977256Y-63247137D01*
X117987137Y-63237256D01*
X118065941Y-63132108D01*
X118072649Y-63119855D01*
X118119072Y-62996022D01*
X118121923Y-62984033D01*
X118127711Y-62930748D01*
X118128000Y-62925414D01*
X118128000Y-62899748D01*
X118619500Y-62899748D01*
X118623082Y-62917757D01*
X118628786Y-62946431D01*
X118631133Y-62958231D01*
X118675448Y-63024552D01*
X118741769Y-63068867D01*
X118751332Y-63070769D01*
X118751334Y-63070770D01*
X118774005Y-63075279D01*
X118800252Y-63080500D01*
X120639748Y-63080500D01*
X120665995Y-63075279D01*
X120688666Y-63070770D01*
X120688668Y-63070769D01*
X120698231Y-63068867D01*
X120764552Y-63024552D01*
X120808867Y-62958231D01*
X120811215Y-62946431D01*
X120816918Y-62917757D01*
X120820500Y-62899748D01*
X120820500Y-62491105D01*
X125619031Y-62491105D01*
X125620423Y-62496901D01*
X125620423Y-62496905D01*
X125640603Y-62580958D01*
X125658612Y-62655968D01*
X125667176Y-62672560D01*
X125731243Y-62796687D01*
X125736375Y-62806631D01*
X125847831Y-62934396D01*
X125852713Y-62937827D01*
X125852714Y-62937828D01*
X125914180Y-62981027D01*
X125986547Y-63031887D01*
X126010777Y-63041334D01*
X126111232Y-63080500D01*
X126144513Y-63093476D01*
X126150428Y-63094255D01*
X126150429Y-63094255D01*
X126203624Y-63101258D01*
X126273826Y-63110500D01*
X126362516Y-63110500D01*
X126385443Y-63107726D01*
X126482398Y-63095993D01*
X126482401Y-63095992D01*
X126488320Y-63095276D01*
X126646923Y-63035345D01*
X126651840Y-63031965D01*
X126651843Y-63031964D01*
X126764231Y-62954721D01*
X126786651Y-62939312D01*
X126899440Y-62812721D01*
X126902665Y-62806631D01*
X126918135Y-62777412D01*
X126978776Y-62662881D01*
X127006913Y-62550865D01*
X127018627Y-62504231D01*
X127018627Y-62504228D01*
X127020081Y-62498441D01*
X127020119Y-62491105D01*
X128619031Y-62491105D01*
X128620423Y-62496901D01*
X128620423Y-62496905D01*
X128640603Y-62580958D01*
X128658612Y-62655968D01*
X128667176Y-62672560D01*
X128731243Y-62796687D01*
X128736375Y-62806631D01*
X128847831Y-62934396D01*
X128852713Y-62937827D01*
X128852714Y-62937828D01*
X128914180Y-62981027D01*
X128986547Y-63031887D01*
X129010777Y-63041334D01*
X129111232Y-63080500D01*
X129144513Y-63093476D01*
X129150428Y-63094255D01*
X129150429Y-63094255D01*
X129203624Y-63101258D01*
X129273826Y-63110500D01*
X129362516Y-63110500D01*
X129385443Y-63107726D01*
X129482398Y-63095993D01*
X129482401Y-63095992D01*
X129488320Y-63095276D01*
X129646923Y-63035345D01*
X129651840Y-63031965D01*
X129651843Y-63031964D01*
X129764231Y-62954721D01*
X129786651Y-62939312D01*
X129899440Y-62812721D01*
X129902665Y-62806631D01*
X129918135Y-62777412D01*
X129978776Y-62662881D01*
X130006913Y-62550865D01*
X130018627Y-62504231D01*
X130018627Y-62504228D01*
X130020081Y-62498441D01*
X130020847Y-62352243D01*
X130020938Y-62334861D01*
X130020938Y-62334859D01*
X130020969Y-62328895D01*
X130017195Y-62313173D01*
X129988501Y-62193660D01*
X129981388Y-62164032D01*
X129903625Y-62013369D01*
X129792169Y-61885604D01*
X129780365Y-61877308D01*
X129658338Y-61791546D01*
X129658337Y-61791545D01*
X129653453Y-61788113D01*
X129648343Y-61786121D01*
X129606125Y-61742097D01*
X129600482Y-61700906D01*
X129592983Y-61712128D01*
X129535580Y-61733306D01*
X129507243Y-61728558D01*
X129506827Y-61730176D01*
X129501047Y-61728692D01*
X129495487Y-61726524D01*
X129489572Y-61725745D01*
X129489571Y-61725745D01*
X129369387Y-61709923D01*
X129366174Y-61709500D01*
X129277484Y-61709500D01*
X129273989Y-61709923D01*
X129157602Y-61724007D01*
X129157599Y-61724008D01*
X129151680Y-61724724D01*
X129146102Y-61726832D01*
X129146097Y-61726833D01*
X129140201Y-61729061D01*
X129079084Y-61731941D01*
X129040105Y-61706336D01*
X129041473Y-61720218D01*
X129010536Y-61773006D01*
X128994362Y-61784169D01*
X128993077Y-61784655D01*
X128853349Y-61880688D01*
X128740560Y-62007279D01*
X128737770Y-62012549D01*
X128737769Y-62012550D01*
X128737226Y-62013575D01*
X128661224Y-62157119D01*
X128647606Y-62211334D01*
X128623323Y-62308009D01*
X128619919Y-62321559D01*
X128619786Y-62346995D01*
X128619196Y-62459693D01*
X128619031Y-62491105D01*
X127020119Y-62491105D01*
X127020847Y-62352243D01*
X127020938Y-62334861D01*
X127020938Y-62334859D01*
X127020969Y-62328895D01*
X127017195Y-62313173D01*
X126988501Y-62193660D01*
X126981388Y-62164032D01*
X126903625Y-62013369D01*
X126792169Y-61885604D01*
X126776141Y-61874339D01*
X126658335Y-61791544D01*
X126658334Y-61791544D01*
X126653453Y-61788113D01*
X126564607Y-61753473D01*
X126501048Y-61728692D01*
X126501047Y-61728692D01*
X126495487Y-61726524D01*
X126489572Y-61725745D01*
X126489571Y-61725745D01*
X126369387Y-61709923D01*
X126366174Y-61709500D01*
X126277484Y-61709500D01*
X126273989Y-61709923D01*
X126157602Y-61724007D01*
X126157599Y-61724008D01*
X126151680Y-61724724D01*
X126146102Y-61726832D01*
X126146097Y-61726833D01*
X126140201Y-61729061D01*
X126079084Y-61731941D01*
X126040105Y-61706336D01*
X126041473Y-61720218D01*
X126010536Y-61773006D01*
X125994362Y-61784169D01*
X125993077Y-61784655D01*
X125853349Y-61880688D01*
X125740560Y-62007279D01*
X125737770Y-62012549D01*
X125737769Y-62012550D01*
X125737226Y-62013575D01*
X125661224Y-62157119D01*
X125647606Y-62211334D01*
X125623323Y-62308009D01*
X125619919Y-62321559D01*
X125619786Y-62346995D01*
X125619196Y-62459693D01*
X125619031Y-62491105D01*
X120820500Y-62491105D01*
X120820500Y-61719748D01*
X123469500Y-61719748D01*
X123474721Y-61745995D01*
X123478988Y-61767446D01*
X123481133Y-61778231D01*
X123525448Y-61844552D01*
X123591769Y-61888867D01*
X123601332Y-61890769D01*
X123601334Y-61890770D01*
X123613743Y-61893238D01*
X123650252Y-61900500D01*
X124689748Y-61900500D01*
X124726257Y-61893238D01*
X124738666Y-61890770D01*
X124738668Y-61890769D01*
X124748231Y-61888867D01*
X124814552Y-61844552D01*
X124858867Y-61778231D01*
X124861013Y-61767446D01*
X124865279Y-61745995D01*
X124870500Y-61719748D01*
X124870500Y-61564185D01*
X124889407Y-61505994D01*
X124938907Y-61470030D01*
X125000093Y-61470030D01*
X125051815Y-61509183D01*
X125075448Y-61544552D01*
X125141769Y-61588867D01*
X125151332Y-61590769D01*
X125151334Y-61590770D01*
X125174005Y-61595279D01*
X125200252Y-61600500D01*
X125939748Y-61600500D01*
X125939748Y-61601509D01*
X125994829Y-61613593D01*
X126009372Y-61629957D01*
X126022467Y-61582095D01*
X126050210Y-61554135D01*
X126056442Y-61549971D01*
X126064552Y-61544552D01*
X126108867Y-61478231D01*
X126112829Y-61458316D01*
X126119552Y-61424512D01*
X126120500Y-61419748D01*
X126120500Y-59880252D01*
X126118086Y-59868116D01*
X126114247Y-59848813D01*
X126121439Y-59788052D01*
X126162973Y-59743122D01*
X126211345Y-59730500D01*
X127928655Y-59730500D01*
X127986846Y-59749407D01*
X128022810Y-59798907D01*
X128025753Y-59848813D01*
X128021914Y-59868116D01*
X128019500Y-59880252D01*
X128019500Y-60390149D01*
X128011964Y-60428035D01*
X127984956Y-60493238D01*
X127970966Y-60599500D01*
X127965645Y-60639924D01*
X127964318Y-60650000D01*
X127984956Y-60806762D01*
X127987440Y-60812759D01*
X128011964Y-60871965D01*
X128019500Y-60909851D01*
X128019500Y-61419748D01*
X128020448Y-61424512D01*
X128027172Y-61458316D01*
X128031133Y-61478231D01*
X128075448Y-61544552D01*
X128141769Y-61588867D01*
X128151332Y-61590769D01*
X128151334Y-61590770D01*
X128174005Y-61595279D01*
X128200252Y-61600500D01*
X128939748Y-61600500D01*
X128939748Y-61601509D01*
X128994829Y-61613593D01*
X129009372Y-61629957D01*
X129022467Y-61582095D01*
X129050210Y-61554135D01*
X129056442Y-61549971D01*
X129064552Y-61544552D01*
X129108867Y-61478231D01*
X129112829Y-61458316D01*
X129119552Y-61424512D01*
X129120500Y-61419748D01*
X129120500Y-60909851D01*
X129128036Y-60871965D01*
X129152560Y-60812759D01*
X129155044Y-60806762D01*
X129175682Y-60650000D01*
X129174356Y-60639924D01*
X129169034Y-60599500D01*
X129155044Y-60493238D01*
X129128036Y-60428035D01*
X129120500Y-60390149D01*
X129120500Y-59880252D01*
X129118086Y-59868116D01*
X129114247Y-59848813D01*
X129121439Y-59788052D01*
X129162973Y-59743122D01*
X129211345Y-59730500D01*
X129428655Y-59730500D01*
X129486846Y-59749407D01*
X129522810Y-59798907D01*
X129525753Y-59848813D01*
X129521914Y-59868116D01*
X129519500Y-59880252D01*
X129519500Y-61419748D01*
X129520448Y-61424512D01*
X129527172Y-61458316D01*
X129531133Y-61478231D01*
X129575448Y-61544552D01*
X129586695Y-61552067D01*
X129624574Y-61600116D01*
X129625726Y-61629433D01*
X129626733Y-61627555D01*
X129681818Y-61600924D01*
X129700252Y-61600574D01*
X129700252Y-61600500D01*
X130439748Y-61600500D01*
X130465995Y-61595279D01*
X130488666Y-61590770D01*
X130488668Y-61590769D01*
X130498231Y-61588867D01*
X130564552Y-61544552D01*
X130588185Y-61509183D01*
X130636235Y-61471304D01*
X130697373Y-61468902D01*
X130748247Y-61502895D01*
X130769500Y-61564185D01*
X130769500Y-61719748D01*
X130774721Y-61745995D01*
X130778988Y-61767446D01*
X130781133Y-61778231D01*
X130825448Y-61844552D01*
X130891769Y-61888867D01*
X130901332Y-61890769D01*
X130901334Y-61890770D01*
X130913743Y-61893238D01*
X130950252Y-61900500D01*
X131989748Y-61900500D01*
X132026257Y-61893238D01*
X132038666Y-61890770D01*
X132038668Y-61890769D01*
X132048231Y-61888867D01*
X132114552Y-61844552D01*
X132158867Y-61778231D01*
X132161013Y-61767446D01*
X132165279Y-61745995D01*
X132170500Y-61719748D01*
X132170500Y-60880252D01*
X132163851Y-60846827D01*
X132160770Y-60831334D01*
X132160769Y-60831332D01*
X132158867Y-60821769D01*
X132114552Y-60755448D01*
X132048231Y-60711133D01*
X132038668Y-60709231D01*
X132038666Y-60709230D01*
X132015995Y-60704721D01*
X131989748Y-60699500D01*
X130950252Y-60699500D01*
X130924005Y-60704721D01*
X130901334Y-60709230D01*
X130901332Y-60709231D01*
X130891769Y-60711133D01*
X130825448Y-60755448D01*
X130807918Y-60781684D01*
X130801815Y-60790817D01*
X130753765Y-60828696D01*
X130692627Y-60831098D01*
X130641753Y-60797105D01*
X130620500Y-60735815D01*
X130620500Y-59880252D01*
X130618086Y-59868116D01*
X130614247Y-59848813D01*
X130621439Y-59788052D01*
X130662973Y-59743122D01*
X130711345Y-59730500D01*
X134007812Y-59730500D01*
X134023043Y-59731679D01*
X134048284Y-59735609D01*
X134055281Y-59734694D01*
X134055283Y-59734694D01*
X134064719Y-59733460D01*
X134085323Y-59732929D01*
X134214084Y-59743063D01*
X134229427Y-59745493D01*
X134377547Y-59781053D01*
X134392321Y-59785854D01*
X134513385Y-59836000D01*
X134559911Y-59875736D01*
X134574500Y-59927464D01*
X134574500Y-61019748D01*
X134586133Y-61078231D01*
X134630448Y-61144552D01*
X134696769Y-61188867D01*
X134706332Y-61190769D01*
X134706334Y-61190770D01*
X134729005Y-61195279D01*
X134755252Y-61200500D01*
X135189241Y-61200500D01*
X135247432Y-61219407D01*
X135283396Y-61268907D01*
X135283396Y-61330093D01*
X135247432Y-61379593D01*
X135219998Y-61393601D01*
X135100807Y-61432558D01*
X135093350Y-61435693D01*
X134902479Y-61535054D01*
X134895627Y-61539369D01*
X134723544Y-61668573D01*
X134717491Y-61673947D01*
X134568830Y-61829513D01*
X134563727Y-61835814D01*
X134442466Y-62013575D01*
X134438468Y-62020613D01*
X134347871Y-62215790D01*
X134345073Y-62223394D01*
X134289056Y-62425384D01*
X134290756Y-62433462D01*
X134292566Y-62435098D01*
X134296792Y-62436000D01*
X136945779Y-62436000D01*
X136957730Y-62432117D01*
X136958058Y-62422462D01*
X136915946Y-62254809D01*
X136913333Y-62247133D01*
X136827534Y-62049807D01*
X136823701Y-62042660D01*
X136706826Y-61861997D01*
X136701880Y-61855575D01*
X136557065Y-61696426D01*
X136551139Y-61690899D01*
X136382269Y-61557534D01*
X136375525Y-61553054D01*
X136187141Y-61449060D01*
X136179749Y-61445738D01*
X136030316Y-61392821D01*
X135981774Y-61355574D01*
X135964397Y-61296908D01*
X135984821Y-61239232D01*
X136035246Y-61204577D01*
X136063363Y-61200500D01*
X136494748Y-61200500D01*
X136520995Y-61195279D01*
X136543666Y-61190770D01*
X136543668Y-61190769D01*
X136553231Y-61188867D01*
X136619552Y-61144552D01*
X136663867Y-61078231D01*
X136675500Y-61019748D01*
X136675500Y-59280252D01*
X136663867Y-59221769D01*
X136619552Y-59155448D01*
X136553231Y-59111133D01*
X136543668Y-59109231D01*
X136543666Y-59109230D01*
X136520995Y-59104721D01*
X136494748Y-59099500D01*
X135267581Y-59099500D01*
X135210293Y-59081241D01*
X135160320Y-59045783D01*
X135160315Y-59045780D01*
X135158056Y-59044177D01*
X135014576Y-58964878D01*
X134956907Y-58933005D01*
X134956899Y-58933001D01*
X134954467Y-58931657D01*
X134739559Y-58842640D01*
X134736897Y-58841873D01*
X134736891Y-58841871D01*
X134518706Y-58779013D01*
X134518707Y-58779013D01*
X134516037Y-58778244D01*
X134513297Y-58777778D01*
X134513295Y-58777778D01*
X134289459Y-58739747D01*
X134289455Y-58739747D01*
X134286709Y-58739280D01*
X134190016Y-58733850D01*
X134093942Y-58728454D01*
X134083069Y-58727238D01*
X134070589Y-58725139D01*
X134066815Y-58724504D01*
X134062999Y-58724457D01*
X134062995Y-58724457D01*
X134060324Y-58724425D01*
X134054461Y-58724353D01*
X134026586Y-58728345D01*
X134025504Y-58728500D01*
X134011469Y-58729500D01*
X130357000Y-58729500D01*
X130298809Y-58710593D01*
X130262845Y-58661093D01*
X130258000Y-58630500D01*
X130258000Y-57722649D01*
X130276907Y-57664458D01*
X130326407Y-57628494D01*
X130342569Y-57624707D01*
X130372112Y-57620358D01*
X130476855Y-57568932D01*
X130559293Y-57486350D01*
X130610536Y-57381518D01*
X130611645Y-57373916D01*
X130611646Y-57373913D01*
X130619983Y-57316763D01*
X130619983Y-57316761D01*
X130620500Y-57313218D01*
X130620500Y-56946782D01*
X130621578Y-56946782D01*
X130635159Y-56891574D01*
X130666272Y-56861115D01*
X130666216Y-56861043D01*
X130666836Y-56860562D01*
X130668879Y-56858562D01*
X130671134Y-56857228D01*
X130680899Y-56849654D01*
X130789654Y-56740899D01*
X130797224Y-56731140D01*
X130875513Y-56598759D01*
X130880419Y-56587421D01*
X130920618Y-56449057D01*
X130920243Y-56437118D01*
X130910108Y-56434000D01*
X128605687Y-56434000D01*
X128594326Y-56437691D01*
X128594160Y-56448293D01*
X128634581Y-56587421D01*
X128639487Y-56598759D01*
X128717776Y-56731140D01*
X128725346Y-56740899D01*
X128834102Y-56849655D01*
X128843860Y-56857224D01*
X128846113Y-56858556D01*
X128847270Y-56859869D01*
X128848783Y-56861042D01*
X128848559Y-56861331D01*
X128886576Y-56904451D01*
X128893752Y-56946782D01*
X128894500Y-56946782D01*
X128894500Y-57313218D01*
X128904642Y-57382112D01*
X128956068Y-57486855D01*
X129038650Y-57569293D01*
X129143482Y-57620536D01*
X129170991Y-57624549D01*
X129172292Y-57624739D01*
X129227144Y-57651849D01*
X129255585Y-57706022D01*
X129257000Y-57722702D01*
X129257000Y-58494178D01*
X129238093Y-58552369D01*
X129228004Y-58564182D01*
X129176670Y-58615516D01*
X129164090Y-58626156D01*
X129146298Y-58638823D01*
X129142063Y-58642955D01*
X129141850Y-58643111D01*
X129141689Y-58643321D01*
X129137455Y-58647452D01*
X129134272Y-58651700D01*
X129132919Y-58653068D01*
X129132636Y-58653390D01*
X129132617Y-58653373D01*
X129115321Y-58670868D01*
X129095987Y-58685704D01*
X129073613Y-58698621D01*
X129033124Y-58715392D01*
X129008166Y-58722079D01*
X128987028Y-58724862D01*
X128972012Y-58724687D01*
X128972001Y-58725563D01*
X128964949Y-58725477D01*
X128957977Y-58724391D01*
X128950980Y-58725306D01*
X128950979Y-58725306D01*
X128925300Y-58728664D01*
X128912464Y-58729500D01*
X126095320Y-58729500D01*
X126078895Y-58728128D01*
X126061125Y-58725138D01*
X126061121Y-58725138D01*
X126057355Y-58724504D01*
X126053538Y-58724457D01*
X126053534Y-58724457D01*
X126050910Y-58724425D01*
X126045001Y-58724353D01*
X126022170Y-58727623D01*
X126016819Y-58728240D01*
X126006703Y-58729125D01*
X125998093Y-58729500D01*
X125145321Y-58729500D01*
X125128896Y-58728128D01*
X125111126Y-58725138D01*
X125111120Y-58725137D01*
X125107355Y-58724504D01*
X125103539Y-58724457D01*
X125103535Y-58724457D01*
X125100864Y-58724425D01*
X125095001Y-58724353D01*
X125067126Y-58728345D01*
X125066044Y-58728500D01*
X125052009Y-58729500D01*
X125002933Y-58729500D01*
X124942666Y-58709042D01*
X124885484Y-58665166D01*
X124872841Y-58655464D01*
X124726762Y-58594956D01*
X124570000Y-58574318D01*
X124413238Y-58594956D01*
X124267159Y-58655464D01*
X124141718Y-58751718D01*
X124045464Y-58877159D01*
X123984956Y-59023238D01*
X123964318Y-59180000D01*
X123984956Y-59336762D01*
X124045464Y-59482841D01*
X124141718Y-59608282D01*
X124267159Y-59704536D01*
X124413238Y-59765044D01*
X124570000Y-59785682D01*
X124726762Y-59765044D01*
X124737080Y-59760770D01*
X124791965Y-59738036D01*
X124829851Y-59730500D01*
X124928655Y-59730500D01*
X124986846Y-59749407D01*
X125022810Y-59798907D01*
X125025753Y-59848813D01*
X125021914Y-59868116D01*
X125019500Y-59880252D01*
X125019500Y-60735815D01*
X125000593Y-60794006D01*
X124951093Y-60829970D01*
X124889907Y-60829970D01*
X124838185Y-60790817D01*
X124832083Y-60781684D01*
X124814552Y-60755448D01*
X124748231Y-60711133D01*
X124738668Y-60709231D01*
X124738666Y-60709230D01*
X124715995Y-60704721D01*
X124689748Y-60699500D01*
X123650252Y-60699500D01*
X123624005Y-60704721D01*
X123601334Y-60709230D01*
X123601332Y-60709231D01*
X123591769Y-60711133D01*
X123525448Y-60755448D01*
X123481133Y-60821769D01*
X123479231Y-60831332D01*
X123479230Y-60831334D01*
X123476149Y-60846827D01*
X123469500Y-60880252D01*
X123469500Y-61719748D01*
X120820500Y-61719748D01*
X120820500Y-60260252D01*
X120808867Y-60201769D01*
X120764552Y-60135448D01*
X120698231Y-60091133D01*
X120688668Y-60089231D01*
X120688666Y-60089230D01*
X120665995Y-60084721D01*
X120639748Y-60079500D01*
X120589500Y-60079500D01*
X120531309Y-60060593D01*
X120495345Y-60011093D01*
X120490500Y-59980500D01*
X120490500Y-59869500D01*
X120509407Y-59811309D01*
X120558907Y-59775345D01*
X120589500Y-59770500D01*
X120609748Y-59770500D01*
X120637177Y-59765044D01*
X120658666Y-59760770D01*
X120658668Y-59760769D01*
X120668231Y-59758867D01*
X120734552Y-59714552D01*
X120778867Y-59648231D01*
X120782766Y-59628632D01*
X120789552Y-59594512D01*
X120790500Y-59589748D01*
X120790500Y-59040862D01*
X121355497Y-59040862D01*
X121385134Y-59213340D01*
X121453654Y-59374373D01*
X121557383Y-59515324D01*
X121561765Y-59519047D01*
X121561767Y-59519049D01*
X121686369Y-59624906D01*
X121690755Y-59628632D01*
X121745018Y-59656340D01*
X121841492Y-59705603D01*
X121841495Y-59705604D01*
X121846616Y-59708219D01*
X121852201Y-59709586D01*
X121852202Y-59709586D01*
X122012326Y-59748768D01*
X122012329Y-59748768D01*
X122016606Y-59749815D01*
X122021004Y-59750088D01*
X122021005Y-59750088D01*
X122026132Y-59750406D01*
X122026133Y-59750406D01*
X122027648Y-59750500D01*
X122153822Y-59750500D01*
X122159698Y-59749815D01*
X122172898Y-59748276D01*
X122283828Y-59735343D01*
X122289234Y-59733381D01*
X122289237Y-59733380D01*
X122442923Y-59677594D01*
X122448331Y-59675631D01*
X122453140Y-59672478D01*
X122453144Y-59672476D01*
X122579324Y-59589748D01*
X122594685Y-59579677D01*
X122598634Y-59575508D01*
X122598638Y-59575505D01*
X122711084Y-59456804D01*
X122715040Y-59452628D01*
X122802939Y-59301298D01*
X122841625Y-59173566D01*
X122852000Y-59139312D01*
X122852000Y-59139310D01*
X122853667Y-59133807D01*
X122864503Y-58959138D01*
X122834866Y-58786660D01*
X122809969Y-58728147D01*
X122768597Y-58630917D01*
X122768597Y-58630916D01*
X122766346Y-58625627D01*
X122662617Y-58484676D01*
X122658235Y-58480953D01*
X122658233Y-58480951D01*
X122533631Y-58375094D01*
X122533630Y-58375093D01*
X122529245Y-58371368D01*
X122443382Y-58327524D01*
X122378508Y-58294397D01*
X122378505Y-58294396D01*
X122373384Y-58291781D01*
X122367799Y-58290414D01*
X122367798Y-58290414D01*
X122207674Y-58251232D01*
X122207671Y-58251232D01*
X122203394Y-58250185D01*
X122198996Y-58249912D01*
X122198995Y-58249912D01*
X122193868Y-58249594D01*
X122193867Y-58249594D01*
X122192352Y-58249500D01*
X122066178Y-58249500D01*
X122063331Y-58249832D01*
X122063330Y-58249832D01*
X122052662Y-58251076D01*
X121936172Y-58264657D01*
X121930766Y-58266619D01*
X121930763Y-58266620D01*
X121854240Y-58294397D01*
X121771669Y-58324369D01*
X121766860Y-58327522D01*
X121766856Y-58327524D01*
X121675054Y-58387712D01*
X121625315Y-58420323D01*
X121621366Y-58424492D01*
X121621362Y-58424495D01*
X121555351Y-58494178D01*
X121504960Y-58547372D01*
X121502073Y-58552342D01*
X121502071Y-58552345D01*
X121424612Y-58685702D01*
X121417061Y-58698702D01*
X121366333Y-58866193D01*
X121355497Y-59040862D01*
X120790500Y-59040862D01*
X120790500Y-57313218D01*
X126619500Y-57313218D01*
X126629642Y-57382112D01*
X126681068Y-57486855D01*
X126763650Y-57569293D01*
X126868482Y-57620536D01*
X126876084Y-57621645D01*
X126876087Y-57621646D01*
X126933237Y-57629983D01*
X126933239Y-57629983D01*
X126936782Y-57630500D01*
X127114728Y-57630500D01*
X127168144Y-57648633D01*
X127168890Y-57647341D01*
X127174513Y-57650587D01*
X127179659Y-57654536D01*
X127325738Y-57715044D01*
X127482500Y-57735682D01*
X127639262Y-57715044D01*
X127785341Y-57654536D01*
X127790487Y-57650587D01*
X127796110Y-57647341D01*
X127796856Y-57648633D01*
X127850272Y-57630500D01*
X128028218Y-57630500D01*
X128031801Y-57629972D01*
X128031808Y-57629972D01*
X128089499Y-57621479D01*
X128089501Y-57621478D01*
X128097112Y-57620358D01*
X128201855Y-57568932D01*
X128284293Y-57486350D01*
X128335536Y-57381518D01*
X128336645Y-57373916D01*
X128336646Y-57373913D01*
X128344983Y-57316763D01*
X128344983Y-57316761D01*
X128345500Y-57313218D01*
X128345500Y-56946782D01*
X128343554Y-56933558D01*
X128336479Y-56885501D01*
X128336478Y-56885499D01*
X128335358Y-56877888D01*
X128326852Y-56860562D01*
X128287538Y-56780490D01*
X128283932Y-56773145D01*
X128201350Y-56690707D01*
X128096518Y-56639464D01*
X128088916Y-56638355D01*
X128088913Y-56638354D01*
X128031763Y-56630017D01*
X128031761Y-56630017D01*
X128028218Y-56629500D01*
X127850272Y-56629500D01*
X127796856Y-56611367D01*
X127796110Y-56612659D01*
X127790487Y-56609413D01*
X127785341Y-56605464D01*
X127639262Y-56544956D01*
X127482500Y-56524318D01*
X127325738Y-56544956D01*
X127179659Y-56605464D01*
X127174513Y-56609413D01*
X127168890Y-56612659D01*
X127168144Y-56611367D01*
X127114728Y-56629500D01*
X126936782Y-56629500D01*
X126933199Y-56630028D01*
X126933192Y-56630028D01*
X126875501Y-56638521D01*
X126875499Y-56638522D01*
X126867888Y-56639642D01*
X126763145Y-56691068D01*
X126680707Y-56773650D01*
X126629464Y-56878482D01*
X126628355Y-56886084D01*
X126628354Y-56886087D01*
X126627554Y-56891574D01*
X126619500Y-56946782D01*
X126619500Y-57313218D01*
X120790500Y-57313218D01*
X120790500Y-57050252D01*
X120778867Y-56991769D01*
X120734552Y-56925448D01*
X120668231Y-56881133D01*
X120658668Y-56879231D01*
X120658666Y-56879230D01*
X120635995Y-56874721D01*
X120609748Y-56869500D01*
X119570252Y-56869500D01*
X119544005Y-56874721D01*
X119521334Y-56879230D01*
X119521332Y-56879231D01*
X119511769Y-56881133D01*
X119445448Y-56925448D01*
X119401133Y-56991769D01*
X119389500Y-57050252D01*
X119389500Y-59589748D01*
X119390448Y-59594512D01*
X119397235Y-59628632D01*
X119401133Y-59648231D01*
X119445448Y-59714552D01*
X119511769Y-59758867D01*
X119521332Y-59760769D01*
X119521334Y-59760770D01*
X119542823Y-59765044D01*
X119570252Y-59770500D01*
X119590500Y-59770500D01*
X119648691Y-59789407D01*
X119684655Y-59838907D01*
X119689500Y-59869500D01*
X119689500Y-59980500D01*
X119670593Y-60038691D01*
X119621093Y-60074655D01*
X119590500Y-60079500D01*
X118800252Y-60079500D01*
X118774005Y-60084721D01*
X118751334Y-60089230D01*
X118751332Y-60089231D01*
X118741769Y-60091133D01*
X118675448Y-60135448D01*
X118631133Y-60201769D01*
X118619500Y-60260252D01*
X118619500Y-62899748D01*
X118128000Y-62899748D01*
X118128000Y-61849680D01*
X118123878Y-61836995D01*
X118119757Y-61834000D01*
X116989680Y-61834000D01*
X116976995Y-61838122D01*
X116974000Y-61842243D01*
X116974000Y-63372319D01*
X116466000Y-63372319D01*
X116466000Y-61849680D01*
X116461878Y-61836995D01*
X116457757Y-61834000D01*
X115327681Y-61834000D01*
X115314996Y-61838122D01*
X115312001Y-61842243D01*
X115312001Y-62925411D01*
X113444957Y-62925411D01*
X113467783Y-62888163D01*
X113531692Y-62733874D01*
X113535708Y-62717149D01*
X113555868Y-62633175D01*
X113566447Y-62589112D01*
X113598416Y-62536944D01*
X113620871Y-62522500D01*
X113652554Y-62507726D01*
X113652556Y-62507725D01*
X113660404Y-62504065D01*
X113744065Y-62420404D01*
X113752589Y-62402126D01*
X113790865Y-62320042D01*
X113790865Y-62320041D01*
X113794068Y-62313173D01*
X113800500Y-62264316D01*
X113800500Y-61915684D01*
X113794068Y-61866827D01*
X113778788Y-61834059D01*
X113747726Y-61767446D01*
X113747725Y-61767444D01*
X113744065Y-61759596D01*
X113660404Y-61675935D01*
X113647081Y-61669723D01*
X113602336Y-61627995D01*
X113590662Y-61567933D01*
X113616521Y-61512481D01*
X113647080Y-61490278D01*
X113660404Y-61484065D01*
X113744065Y-61400404D01*
X113753770Y-61379593D01*
X113786072Y-61310320D01*
X115312000Y-61310320D01*
X115316122Y-61323005D01*
X115320243Y-61326000D01*
X118112319Y-61326000D01*
X118125004Y-61321878D01*
X118127999Y-61317757D01*
X118127999Y-60234589D01*
X118127710Y-60229249D01*
X118121922Y-60175965D01*
X118119073Y-60163980D01*
X118072649Y-60040145D01*
X118065941Y-60027892D01*
X117991730Y-59928872D01*
X117971962Y-59870968D01*
X117990004Y-59812503D01*
X118038965Y-59775809D01*
X118070951Y-59770500D01*
X118609748Y-59770500D01*
X118637177Y-59765044D01*
X118658666Y-59760770D01*
X118658668Y-59760769D01*
X118668231Y-59758867D01*
X118734552Y-59714552D01*
X118778867Y-59648231D01*
X118782766Y-59628632D01*
X118789552Y-59594512D01*
X118790500Y-59589748D01*
X118790500Y-57050252D01*
X118778867Y-56991769D01*
X118734552Y-56925448D01*
X118668231Y-56881133D01*
X118658668Y-56879231D01*
X118658666Y-56879230D01*
X118635995Y-56874721D01*
X118609748Y-56869500D01*
X117719500Y-56869500D01*
X117661309Y-56850593D01*
X117625345Y-56801093D01*
X117620500Y-56770500D01*
X117620500Y-56239748D01*
X120489500Y-56239748D01*
X120501133Y-56298231D01*
X120545448Y-56364552D01*
X120611769Y-56408867D01*
X120621332Y-56410769D01*
X120621334Y-56410770D01*
X120644005Y-56415279D01*
X120670252Y-56420500D01*
X122509748Y-56420500D01*
X122535995Y-56415279D01*
X122558666Y-56410770D01*
X122558668Y-56410769D01*
X122568231Y-56408867D01*
X122601337Y-56386746D01*
X134052855Y-56386746D01*
X134056699Y-56404830D01*
X134059886Y-56414639D01*
X134135437Y-56584329D01*
X134140598Y-56593268D01*
X134249777Y-56743540D01*
X134256681Y-56751208D01*
X134394725Y-56875502D01*
X134403068Y-56881564D01*
X134563929Y-56974438D01*
X134573358Y-56978636D01*
X134750022Y-57036037D01*
X134760102Y-57038179D01*
X134898525Y-57052729D01*
X134903707Y-57053000D01*
X135180320Y-57053000D01*
X135193005Y-57048878D01*
X135196000Y-57044757D01*
X135196000Y-57037320D01*
X135704000Y-57037320D01*
X135708122Y-57050005D01*
X135712243Y-57053000D01*
X135996293Y-57053000D01*
X136001475Y-57052729D01*
X136139898Y-57038179D01*
X136149978Y-57036037D01*
X136326642Y-56978636D01*
X136336071Y-56974438D01*
X136496932Y-56881564D01*
X136505275Y-56875502D01*
X136643317Y-56751210D01*
X136650223Y-56743540D01*
X136759407Y-56593261D01*
X136764560Y-56584336D01*
X136840114Y-56414639D01*
X136843301Y-56404830D01*
X136846594Y-56389338D01*
X136845218Y-56376250D01*
X136836821Y-56374000D01*
X135719680Y-56374000D01*
X135706995Y-56378122D01*
X135704000Y-56382243D01*
X135704000Y-57037320D01*
X135196000Y-57037320D01*
X135196000Y-56389680D01*
X135191878Y-56376995D01*
X135187757Y-56374000D01*
X134065826Y-56374000D01*
X134053310Y-56378067D01*
X134052855Y-56386746D01*
X122601337Y-56386746D01*
X122634552Y-56364552D01*
X122678867Y-56298231D01*
X122690500Y-56239748D01*
X122690500Y-55200252D01*
X122683800Y-55166567D01*
X122680770Y-55151334D01*
X122680769Y-55151332D01*
X122678867Y-55141769D01*
X122634552Y-55075448D01*
X122568231Y-55031133D01*
X122558668Y-55029231D01*
X122558666Y-55029230D01*
X122535995Y-55024721D01*
X122509748Y-55019500D01*
X120670252Y-55019500D01*
X120644005Y-55024721D01*
X120621334Y-55029230D01*
X120621332Y-55029231D01*
X120611769Y-55031133D01*
X120545448Y-55075448D01*
X120501133Y-55141769D01*
X120499231Y-55151332D01*
X120499230Y-55151334D01*
X120496200Y-55166567D01*
X120489500Y-55200252D01*
X120489500Y-56239748D01*
X117620500Y-56239748D01*
X117620500Y-54239748D01*
X120489500Y-54239748D01*
X120501133Y-54298231D01*
X120545448Y-54364552D01*
X120611769Y-54408867D01*
X120621332Y-54410769D01*
X120621334Y-54410770D01*
X120644005Y-54415279D01*
X120670252Y-54420500D01*
X122509748Y-54420500D01*
X122535995Y-54415279D01*
X122558666Y-54410770D01*
X122558668Y-54410769D01*
X122568231Y-54408867D01*
X122634552Y-54364552D01*
X122678867Y-54298231D01*
X122690500Y-54239748D01*
X122690500Y-53200252D01*
X122683033Y-53162712D01*
X122680770Y-53151334D01*
X122680769Y-53151332D01*
X122678867Y-53141769D01*
X122634552Y-53075448D01*
X122568231Y-53031133D01*
X122558668Y-53029231D01*
X122558666Y-53029230D01*
X122535995Y-53024721D01*
X122509748Y-53019500D01*
X120670252Y-53019500D01*
X120644005Y-53024721D01*
X120621334Y-53029230D01*
X120621332Y-53029231D01*
X120611769Y-53031133D01*
X120545448Y-53075448D01*
X120501133Y-53141769D01*
X120499231Y-53151332D01*
X120499230Y-53151334D01*
X120496967Y-53162712D01*
X120489500Y-53200252D01*
X120489500Y-54239748D01*
X117620500Y-54239748D01*
X117620500Y-52239748D01*
X120489500Y-52239748D01*
X120501133Y-52298231D01*
X120545448Y-52364552D01*
X120611769Y-52408867D01*
X120621332Y-52410769D01*
X120621334Y-52410770D01*
X120638122Y-52414109D01*
X120670252Y-52420500D01*
X122509748Y-52420500D01*
X122541878Y-52414109D01*
X122558666Y-52410770D01*
X122558668Y-52410769D01*
X122568231Y-52408867D01*
X122634552Y-52364552D01*
X122678867Y-52298231D01*
X122690500Y-52239748D01*
X122690500Y-51200252D01*
X122685279Y-51174005D01*
X122680770Y-51151334D01*
X122680769Y-51151332D01*
X122678867Y-51141769D01*
X122634552Y-51075448D01*
X122568231Y-51031133D01*
X122558668Y-51029231D01*
X122558666Y-51029230D01*
X122530189Y-51023566D01*
X122509748Y-51019500D01*
X120670252Y-51019500D01*
X120649811Y-51023566D01*
X120621334Y-51029230D01*
X120621332Y-51029231D01*
X120611769Y-51031133D01*
X120545448Y-51075448D01*
X120501133Y-51141769D01*
X120499231Y-51151332D01*
X120499230Y-51151334D01*
X120494721Y-51174005D01*
X120489500Y-51200252D01*
X120489500Y-52239748D01*
X117620500Y-52239748D01*
X117620500Y-51612827D01*
X117639407Y-51554636D01*
X117659233Y-51534285D01*
X117753129Y-51462236D01*
X117758282Y-51458282D01*
X117854536Y-51332841D01*
X117915044Y-51186762D01*
X117935682Y-51030000D01*
X117934425Y-51020448D01*
X117931320Y-50996867D01*
X117915044Y-50873238D01*
X117854536Y-50727159D01*
X117758282Y-50601718D01*
X117632841Y-50505464D01*
X117486762Y-50444956D01*
X117330000Y-50424318D01*
X117173238Y-50444956D01*
X117027159Y-50505464D01*
X116901718Y-50601718D01*
X116805464Y-50727159D01*
X116744956Y-50873238D01*
X116728680Y-50996867D01*
X116725576Y-51020448D01*
X116724318Y-51030000D01*
X116744956Y-51186762D01*
X116805464Y-51332841D01*
X116901718Y-51458282D01*
X116906871Y-51462236D01*
X116980767Y-51518938D01*
X117015423Y-51569362D01*
X117019500Y-51597480D01*
X117019500Y-52923767D01*
X117000593Y-52981958D01*
X116976434Y-52999511D01*
X117007503Y-53028994D01*
X117019500Y-53076233D01*
X117019500Y-55060143D01*
X117000593Y-55118334D01*
X116951093Y-55154298D01*
X116889907Y-55154298D01*
X116860233Y-55138685D01*
X116782990Y-55079415D01*
X116777841Y-55075464D01*
X116631762Y-55014956D01*
X116475000Y-54994318D01*
X116318238Y-55014956D01*
X116172159Y-55075464D01*
X116046718Y-55171718D01*
X115950464Y-55297159D01*
X115947981Y-55303154D01*
X115892979Y-55435941D01*
X115889956Y-55443238D01*
X115869318Y-55600000D01*
X115889956Y-55756762D01*
X115950464Y-55902841D01*
X116046718Y-56028282D01*
X116172159Y-56124536D01*
X116318238Y-56185044D01*
X116475000Y-56205682D01*
X116631762Y-56185044D01*
X116777841Y-56124536D01*
X116800941Y-56106811D01*
X116860233Y-56061315D01*
X116917909Y-56040891D01*
X116976575Y-56058269D01*
X117013822Y-56106811D01*
X117019500Y-56139857D01*
X117019500Y-56970574D01*
X117017996Y-56987763D01*
X117014864Y-57005527D01*
X117016368Y-57014056D01*
X117016368Y-57015575D01*
X117017082Y-57021491D01*
X117029881Y-57216775D01*
X117071182Y-57424410D01*
X117139231Y-57624876D01*
X117140664Y-57627782D01*
X117140667Y-57627789D01*
X117182472Y-57712560D01*
X117232864Y-57814746D01*
X117350479Y-57990770D01*
X117352617Y-57993207D01*
X117352617Y-57993208D01*
X117364933Y-58007252D01*
X117389085Y-58063469D01*
X117389500Y-58072526D01*
X117389500Y-59589748D01*
X117397235Y-59628632D01*
X117401133Y-59648231D01*
X117398826Y-59648690D01*
X117402561Y-59696104D01*
X117370596Y-59748276D01*
X117314070Y-59771694D01*
X117306295Y-59772000D01*
X116873705Y-59772000D01*
X116815514Y-59753093D01*
X116779550Y-59703593D01*
X116779550Y-59648367D01*
X116778867Y-59648231D01*
X116779550Y-59644797D01*
X116790500Y-59589748D01*
X116790500Y-57050252D01*
X116778867Y-56991769D01*
X116734552Y-56925448D01*
X116668231Y-56881133D01*
X116658668Y-56879231D01*
X116658666Y-56879230D01*
X116635995Y-56874721D01*
X116609748Y-56869500D01*
X115570252Y-56869500D01*
X115544005Y-56874721D01*
X115521334Y-56879230D01*
X115521332Y-56879231D01*
X115511769Y-56881133D01*
X115445448Y-56925448D01*
X115401133Y-56991769D01*
X115389500Y-57050252D01*
X115389500Y-59589748D01*
X115390448Y-59594512D01*
X115397235Y-59628632D01*
X115401133Y-59648231D01*
X115445448Y-59714552D01*
X115453558Y-59719971D01*
X115453560Y-59719973D01*
X115478223Y-59736453D01*
X115516102Y-59784504D01*
X115518502Y-59845642D01*
X115482592Y-59897988D01*
X115462744Y-59912863D01*
X115452863Y-59922744D01*
X115374059Y-60027892D01*
X115367351Y-60040145D01*
X115320928Y-60163978D01*
X115318077Y-60175967D01*
X115312289Y-60229252D01*
X115312000Y-60234586D01*
X115312000Y-61310320D01*
X113786072Y-61310320D01*
X113790865Y-61300042D01*
X113790865Y-61300041D01*
X113794068Y-61293173D01*
X113800500Y-61244316D01*
X113800500Y-60895684D01*
X113795526Y-60857903D01*
X113795057Y-60854339D01*
X113794068Y-60846827D01*
X113787080Y-60831842D01*
X113747726Y-60747446D01*
X113747725Y-60747444D01*
X113744065Y-60739596D01*
X113660404Y-60655935D01*
X113652556Y-60652275D01*
X113652554Y-60652274D01*
X113560042Y-60609135D01*
X113560041Y-60609135D01*
X113553173Y-60605932D01*
X113504316Y-60599500D01*
X113055684Y-60599500D01*
X113006827Y-60605932D01*
X112999959Y-60609135D01*
X112999958Y-60609135D01*
X112907446Y-60652274D01*
X112907444Y-60652275D01*
X112899596Y-60655935D01*
X112838873Y-60716658D01*
X112784356Y-60744435D01*
X112723924Y-60734864D01*
X112698927Y-60716719D01*
X112648170Y-60666051D01*
X112642379Y-60660270D01*
X112578426Y-60629009D01*
X112545195Y-60612765D01*
X112545193Y-60612764D01*
X112538294Y-60609392D01*
X112537472Y-60609272D01*
X112490255Y-60575997D01*
X112470500Y-60516657D01*
X112470500Y-59869500D01*
X112489407Y-59811309D01*
X112538907Y-59775345D01*
X112569500Y-59770500D01*
X112609748Y-59770500D01*
X112637177Y-59765044D01*
X112658666Y-59760770D01*
X112658668Y-59760769D01*
X112668231Y-59758867D01*
X112734552Y-59714552D01*
X112778867Y-59648231D01*
X112782766Y-59628632D01*
X112789552Y-59594512D01*
X112790500Y-59589748D01*
X112790500Y-57050252D01*
X112778867Y-56991769D01*
X112734552Y-56925448D01*
X112668231Y-56881133D01*
X112658668Y-56879231D01*
X112658666Y-56879230D01*
X112635995Y-56874721D01*
X112609748Y-56869500D01*
X111570252Y-56869500D01*
X111544005Y-56874721D01*
X111521334Y-56879230D01*
X111521332Y-56879231D01*
X111511769Y-56881133D01*
X111445448Y-56925448D01*
X111401133Y-56991769D01*
X111389500Y-57050252D01*
X111389500Y-59589748D01*
X111390448Y-59594512D01*
X111397235Y-59628632D01*
X111401133Y-59648231D01*
X111445448Y-59714552D01*
X111511769Y-59758867D01*
X111521332Y-59760769D01*
X111521334Y-59760770D01*
X111542823Y-59765044D01*
X111570252Y-59770500D01*
X111770500Y-59770500D01*
X111828691Y-59789407D01*
X111864655Y-59838907D01*
X111869500Y-59869500D01*
X111869500Y-60637321D01*
X111850593Y-60695512D01*
X111840563Y-60707265D01*
X111831220Y-60716624D01*
X111776728Y-60744448D01*
X111716287Y-60734928D01*
X111691153Y-60716684D01*
X111630404Y-60655935D01*
X111622556Y-60652275D01*
X111622554Y-60652274D01*
X111530042Y-60609135D01*
X111530041Y-60609135D01*
X111523173Y-60605932D01*
X111474316Y-60599500D01*
X111025684Y-60599500D01*
X110976827Y-60605932D01*
X110969959Y-60609135D01*
X110969958Y-60609135D01*
X110877446Y-60652274D01*
X110877444Y-60652275D01*
X110869596Y-60655935D01*
X110812504Y-60713027D01*
X110757987Y-60740804D01*
X110697555Y-60731233D01*
X110672496Y-60713027D01*
X110615404Y-60655935D01*
X110592660Y-60645329D01*
X110547913Y-60603603D01*
X110535500Y-60555606D01*
X110535500Y-60525909D01*
X110537004Y-60508719D01*
X110538632Y-60499485D01*
X110540136Y-60490956D01*
X110538632Y-60482427D01*
X110538632Y-60482424D01*
X110535647Y-60465498D01*
X110535500Y-60464402D01*
X110535500Y-60463013D01*
X110534833Y-60459429D01*
X110534660Y-60458499D01*
X110533464Y-60450081D01*
X110530022Y-60415140D01*
X110529545Y-60410298D01*
X110506017Y-60332740D01*
X110482190Y-60288162D01*
X110470500Y-60241495D01*
X110470500Y-59869500D01*
X110489407Y-59811309D01*
X110538907Y-59775345D01*
X110569500Y-59770500D01*
X110609748Y-59770500D01*
X110637177Y-59765044D01*
X110658666Y-59760770D01*
X110658668Y-59760769D01*
X110668231Y-59758867D01*
X110734552Y-59714552D01*
X110778867Y-59648231D01*
X110782766Y-59628632D01*
X110789552Y-59594512D01*
X110790500Y-59589748D01*
X110790500Y-57050252D01*
X110778867Y-56991769D01*
X110734552Y-56925448D01*
X110668231Y-56881133D01*
X110658668Y-56879231D01*
X110658666Y-56879230D01*
X110635995Y-56874721D01*
X110609748Y-56869500D01*
X110490709Y-56869500D01*
X110432518Y-56850593D01*
X110396554Y-56801093D01*
X110391803Y-56774818D01*
X110391615Y-56770500D01*
X110379367Y-56489971D01*
X110341939Y-56205682D01*
X110335223Y-56154669D01*
X110335221Y-56154660D01*
X110334941Y-56152530D01*
X110261276Y-55820245D01*
X110158929Y-55495645D01*
X110028682Y-55181200D01*
X109919249Y-54970981D01*
X109872519Y-54881213D01*
X109872517Y-54881209D01*
X109871525Y-54879304D01*
X109861396Y-54863405D01*
X109689812Y-54594072D01*
X109689810Y-54594069D01*
X109688653Y-54592253D01*
X109549397Y-54410770D01*
X109482777Y-54323949D01*
X109482774Y-54323945D01*
X109481460Y-54322233D01*
X109480010Y-54320650D01*
X109479991Y-54320628D01*
X109260611Y-54081218D01*
X109260259Y-54080780D01*
X109259546Y-54080035D01*
X109259480Y-54079985D01*
X109256228Y-54076436D01*
X109252174Y-54070646D01*
X109237399Y-54060300D01*
X109224183Y-54049212D01*
X106830990Y-51656019D01*
X106819902Y-51642803D01*
X106809556Y-51628028D01*
X106801029Y-51622057D01*
X106800374Y-51621598D01*
X106784460Y-51607703D01*
X106534908Y-51337740D01*
X106529860Y-51331829D01*
X106284754Y-51020913D01*
X106280199Y-51014644D01*
X106060233Y-50685443D01*
X106056191Y-50678846D01*
X105910980Y-50419552D01*
X105862742Y-50333417D01*
X105859213Y-50326491D01*
X105693470Y-49966968D01*
X105690495Y-49959786D01*
X105553467Y-49588354D01*
X105551065Y-49580962D01*
X105443605Y-49199937D01*
X105441790Y-49192378D01*
X105364554Y-48804087D01*
X105363338Y-48796409D01*
X105328961Y-48505965D01*
X105316804Y-48403253D01*
X105316195Y-48395513D01*
X105315506Y-48377963D01*
X105301762Y-48028150D01*
X105303190Y-48007073D01*
X105303632Y-48004566D01*
X105305136Y-47996036D01*
X105302004Y-47978272D01*
X105300500Y-47961083D01*
X105300500Y-44602917D01*
X105319407Y-44544726D01*
X105368907Y-44508762D01*
X105430093Y-44508762D01*
X105454502Y-44520602D01*
X105468151Y-44529722D01*
X105511769Y-44558867D01*
X105521332Y-44560769D01*
X105521334Y-44560770D01*
X105544005Y-44565279D01*
X105570252Y-44570500D01*
X106609748Y-44570500D01*
X106635995Y-44565279D01*
X106658666Y-44560770D01*
X106658668Y-44560769D01*
X106668231Y-44558867D01*
X106734552Y-44514552D01*
X106778867Y-44448231D01*
X106780921Y-44437908D01*
X106786525Y-44409730D01*
X106790500Y-44389748D01*
X106790500Y-41850252D01*
X106778867Y-41791769D01*
X106734552Y-41725448D01*
X106675706Y-41686127D01*
X106637827Y-41638078D01*
X106635425Y-41576940D01*
X106641913Y-41560037D01*
X106686132Y-41470370D01*
X106692595Y-41459177D01*
X106803910Y-41292583D01*
X106811793Y-41282310D01*
X106927639Y-41150213D01*
X106942578Y-41136820D01*
X106944349Y-41135049D01*
X106951448Y-41130078D01*
X106956948Y-41122224D01*
X106961792Y-41115306D01*
X106972883Y-41102087D01*
X109548011Y-38526959D01*
X109561227Y-38515871D01*
X109576002Y-38505525D01*
X109580971Y-38498429D01*
X109582432Y-38496343D01*
X109596327Y-38480429D01*
X109708195Y-38377019D01*
X109866301Y-38230866D01*
X109872208Y-38225822D01*
X109885127Y-38215638D01*
X110183103Y-37980733D01*
X110189390Y-37976164D01*
X110518571Y-37756214D01*
X110525198Y-37752153D01*
X110870618Y-37558707D01*
X110877545Y-37555178D01*
X111220136Y-37397242D01*
X111237063Y-37389439D01*
X111244244Y-37386464D01*
X111615676Y-37249436D01*
X111623068Y-37247034D01*
X111810422Y-37194194D01*
X111847776Y-37183659D01*
X111908914Y-37186061D01*
X111956964Y-37223940D01*
X111973573Y-37282828D01*
X111952396Y-37340232D01*
X111916096Y-37368848D01*
X111813676Y-37416064D01*
X111813669Y-37416067D01*
X111811911Y-37416878D01*
X111418231Y-37637350D01*
X111416621Y-37638426D01*
X111416611Y-37638432D01*
X111044677Y-37886950D01*
X111044667Y-37886957D01*
X111043063Y-37888029D01*
X110688719Y-38167372D01*
X110358491Y-38472630D01*
X110357238Y-38473508D01*
X110346892Y-38488283D01*
X110335804Y-38501499D01*
X108650851Y-40186452D01*
X108637635Y-40197540D01*
X108622860Y-40207886D01*
X108620632Y-40211067D01*
X108616040Y-40216206D01*
X108616039Y-40216206D01*
X108426577Y-40428215D01*
X108424732Y-40430280D01*
X108423132Y-40432535D01*
X108423128Y-40432540D01*
X108333153Y-40559348D01*
X108252390Y-40673172D01*
X108251049Y-40675599D01*
X108251043Y-40675608D01*
X108135766Y-40884187D01*
X108108328Y-40933833D01*
X108107266Y-40936396D01*
X108107263Y-40936403D01*
X108016307Y-41155991D01*
X107994356Y-41208986D01*
X107993587Y-41211655D01*
X107993586Y-41211658D01*
X107947701Y-41370928D01*
X107911908Y-41495169D01*
X107904003Y-41541698D01*
X107896292Y-41587082D01*
X107867905Y-41641284D01*
X107813081Y-41668449D01*
X107798691Y-41669500D01*
X107570252Y-41669500D01*
X107544005Y-41674721D01*
X107521334Y-41679230D01*
X107521332Y-41679231D01*
X107511769Y-41681133D01*
X107445448Y-41725448D01*
X107401133Y-41791769D01*
X107389500Y-41850252D01*
X107389500Y-44389748D01*
X107393475Y-44409730D01*
X107399080Y-44437908D01*
X107401133Y-44448231D01*
X107445448Y-44514552D01*
X107511769Y-44558867D01*
X107521332Y-44560769D01*
X107521334Y-44560770D01*
X107544005Y-44565279D01*
X107570252Y-44570500D01*
X108609748Y-44570500D01*
X108635995Y-44565279D01*
X108658666Y-44560770D01*
X108658668Y-44560769D01*
X108668231Y-44558867D01*
X108734552Y-44514552D01*
X108778867Y-44448231D01*
X108780921Y-44437908D01*
X108786525Y-44409730D01*
X108790500Y-44389748D01*
X109389500Y-44389748D01*
X109393475Y-44409730D01*
X109399080Y-44437908D01*
X109401133Y-44448231D01*
X109445448Y-44514552D01*
X109511769Y-44558867D01*
X109521332Y-44560769D01*
X109521334Y-44560770D01*
X109544005Y-44565279D01*
X109570252Y-44570500D01*
X110609748Y-44570500D01*
X110635995Y-44565279D01*
X110658666Y-44560770D01*
X110658668Y-44560769D01*
X110668231Y-44558867D01*
X110734552Y-44514552D01*
X110778867Y-44448231D01*
X110780921Y-44437908D01*
X110786525Y-44409730D01*
X110790500Y-44389748D01*
X111389500Y-44389748D01*
X111393475Y-44409730D01*
X111399080Y-44437908D01*
X111401133Y-44448231D01*
X111445448Y-44514552D01*
X111511769Y-44558867D01*
X111521332Y-44560769D01*
X111521334Y-44560770D01*
X111544005Y-44565279D01*
X111570252Y-44570500D01*
X112609748Y-44570500D01*
X112635995Y-44565279D01*
X112658666Y-44560770D01*
X112658668Y-44560769D01*
X112668231Y-44558867D01*
X112734552Y-44514552D01*
X112778867Y-44448231D01*
X112780921Y-44437908D01*
X112786525Y-44409730D01*
X112790500Y-44389748D01*
X112790500Y-41850252D01*
X112778867Y-41791769D01*
X112734552Y-41725448D01*
X112668231Y-41681133D01*
X112658668Y-41679231D01*
X112658666Y-41679230D01*
X112635995Y-41674721D01*
X112609748Y-41669500D01*
X111570252Y-41669500D01*
X111544005Y-41674721D01*
X111521334Y-41679230D01*
X111521332Y-41679231D01*
X111511769Y-41681133D01*
X111445448Y-41725448D01*
X111401133Y-41791769D01*
X111389500Y-41850252D01*
X111389500Y-44389748D01*
X110790500Y-44389748D01*
X110790500Y-41850252D01*
X110778867Y-41791769D01*
X110734552Y-41725448D01*
X110668231Y-41681133D01*
X110658668Y-41679231D01*
X110658666Y-41679230D01*
X110635995Y-41674721D01*
X110609748Y-41669500D01*
X109570252Y-41669500D01*
X109544005Y-41674721D01*
X109521334Y-41679230D01*
X109521332Y-41679231D01*
X109511769Y-41681133D01*
X109445448Y-41725448D01*
X109401133Y-41791769D01*
X109389500Y-41850252D01*
X109389500Y-44389748D01*
X108790500Y-44389748D01*
X108790500Y-41850252D01*
X108778867Y-41791769D01*
X108734552Y-41725448D01*
X108668231Y-41681133D01*
X108658668Y-41679231D01*
X108658666Y-41679230D01*
X108614515Y-41670448D01*
X108614513Y-41670448D01*
X108609748Y-41669500D01*
X108609799Y-41669242D01*
X108555930Y-41645676D01*
X108524994Y-41592887D01*
X108526564Y-41544269D01*
X108547849Y-41470387D01*
X108564038Y-41414193D01*
X108567698Y-41403734D01*
X108651447Y-41201544D01*
X108656263Y-41191545D01*
X108762119Y-41000013D01*
X108768026Y-40990612D01*
X108783358Y-40969004D01*
X108894663Y-40812134D01*
X108901582Y-40803458D01*
X108909579Y-40794510D01*
X109004496Y-40688297D01*
X109030159Y-40659580D01*
X109047193Y-40644453D01*
X109047289Y-40644386D01*
X109047294Y-40644381D01*
X109054388Y-40639414D01*
X109064734Y-40624639D01*
X109075822Y-40611423D01*
X110649438Y-39037807D01*
X110703955Y-39010030D01*
X110764387Y-39019601D01*
X110807652Y-39062866D01*
X110817594Y-39094887D01*
X110834956Y-39226762D01*
X110895464Y-39372841D01*
X110991718Y-39498282D01*
X111029771Y-39527481D01*
X111064425Y-39577903D01*
X111062824Y-39639067D01*
X111039506Y-39676025D01*
X110955935Y-39759596D01*
X110952275Y-39767444D01*
X110952274Y-39767446D01*
X110912525Y-39852689D01*
X110905932Y-39866827D01*
X110899500Y-39915684D01*
X110899500Y-40264316D01*
X110905932Y-40313173D01*
X110909135Y-40320041D01*
X110909135Y-40320042D01*
X110949500Y-40406604D01*
X110955935Y-40420404D01*
X111039596Y-40504065D01*
X111047444Y-40507725D01*
X111047446Y-40507726D01*
X111134440Y-40548292D01*
X111146827Y-40554068D01*
X111195684Y-40560500D01*
X111644316Y-40560500D01*
X111693173Y-40554068D01*
X111705560Y-40548292D01*
X111792554Y-40507726D01*
X111792556Y-40507725D01*
X111800404Y-40504065D01*
X111884065Y-40420404D01*
X111886591Y-40422930D01*
X111922488Y-40395889D01*
X111954705Y-40390500D01*
X113385295Y-40390500D01*
X113443486Y-40409407D01*
X113455107Y-40421232D01*
X113455935Y-40420404D01*
X113539596Y-40504065D01*
X113547444Y-40507725D01*
X113547446Y-40507726D01*
X113634440Y-40548292D01*
X113646827Y-40554068D01*
X113695684Y-40560500D01*
X113697294Y-40560500D01*
X113753803Y-40583043D01*
X113786453Y-40634789D01*
X113789500Y-40659160D01*
X113789500Y-41570500D01*
X113770593Y-41628691D01*
X113721093Y-41664655D01*
X113690500Y-41669500D01*
X113570252Y-41669500D01*
X113544005Y-41674721D01*
X113521334Y-41679230D01*
X113521332Y-41679231D01*
X113511769Y-41681133D01*
X113445448Y-41725448D01*
X113401133Y-41791769D01*
X113389500Y-41850252D01*
X113389500Y-44389748D01*
X113393475Y-44409730D01*
X113399080Y-44437908D01*
X113401133Y-44448231D01*
X113445448Y-44514552D01*
X113511769Y-44558867D01*
X113521332Y-44560769D01*
X113521334Y-44560770D01*
X113544005Y-44565279D01*
X113570252Y-44570500D01*
X113690500Y-44570500D01*
X113748691Y-44589407D01*
X113784655Y-44638907D01*
X113789500Y-44669500D01*
X113789500Y-49320374D01*
X113787996Y-49337563D01*
X113784864Y-49355327D01*
X113786030Y-49361938D01*
X113786236Y-49366651D01*
X113786275Y-49367548D01*
X113786289Y-49368203D01*
X113786313Y-49368418D01*
X113800768Y-49699499D01*
X113845734Y-50041052D01*
X113846203Y-50043168D01*
X113846204Y-50043173D01*
X113877410Y-50183932D01*
X113920298Y-50377386D01*
X113920945Y-50379437D01*
X113920946Y-50379442D01*
X114002771Y-50638956D01*
X114023891Y-50705941D01*
X114155725Y-51024218D01*
X114243462Y-51192759D01*
X114310699Y-51321918D01*
X114314798Y-51329793D01*
X114315950Y-51331601D01*
X114315951Y-51331603D01*
X114494053Y-51611167D01*
X114499897Y-51620341D01*
X114510209Y-51633780D01*
X114569076Y-51710497D01*
X114589500Y-51768173D01*
X114572122Y-51826838D01*
X114523581Y-51864086D01*
X114522649Y-51864375D01*
X114518238Y-51864956D01*
X114372159Y-51925464D01*
X114246718Y-52021718D01*
X114150464Y-52147159D01*
X114089956Y-52293238D01*
X114069318Y-52450000D01*
X114070165Y-52456434D01*
X114087297Y-52586567D01*
X114073555Y-52651217D01*
X113993011Y-52782651D01*
X113922982Y-52951717D01*
X113880262Y-53129657D01*
X113878556Y-53151334D01*
X113870938Y-53248128D01*
X113870265Y-53252338D01*
X113870117Y-53252710D01*
X113869500Y-53259003D01*
X113869500Y-53262515D01*
X113869195Y-53270281D01*
X113867117Y-53296688D01*
X113866368Y-53302577D01*
X113866368Y-53303559D01*
X113864864Y-53312089D01*
X113867996Y-53329850D01*
X113869500Y-53347042D01*
X113869500Y-56770500D01*
X113850593Y-56828691D01*
X113801093Y-56864655D01*
X113770500Y-56869500D01*
X113570252Y-56869500D01*
X113544005Y-56874721D01*
X113521334Y-56879230D01*
X113521332Y-56879231D01*
X113511769Y-56881133D01*
X113445448Y-56925448D01*
X113401133Y-56991769D01*
X113389500Y-57050252D01*
X113389500Y-59589748D01*
X113390448Y-59594512D01*
X113397235Y-59628632D01*
X113401133Y-59648231D01*
X113445448Y-59714552D01*
X113511769Y-59758867D01*
X113521332Y-59760769D01*
X113521334Y-59760770D01*
X113542823Y-59765044D01*
X113570252Y-59770500D01*
X114609748Y-59770500D01*
X114637177Y-59765044D01*
X114658666Y-59760770D01*
X114658668Y-59760769D01*
X114668231Y-59758867D01*
X114734552Y-59714552D01*
X114778867Y-59648231D01*
X114782766Y-59628632D01*
X114789552Y-59594512D01*
X114790500Y-59589748D01*
X114790500Y-57050252D01*
X114778867Y-56991769D01*
X114734552Y-56925448D01*
X114668231Y-56881133D01*
X114658668Y-56879231D01*
X114658666Y-56879230D01*
X114635995Y-56874721D01*
X114609748Y-56869500D01*
X114569500Y-56869500D01*
X114511309Y-56850593D01*
X114475345Y-56801093D01*
X114470500Y-56770500D01*
X114470500Y-53347040D01*
X114472004Y-53329848D01*
X114473632Y-53320615D01*
X114475136Y-53312087D01*
X114473632Y-53303558D01*
X114473632Y-53294894D01*
X114473997Y-53294894D01*
X114473493Y-53281696D01*
X114480334Y-53212234D01*
X114484120Y-53193198D01*
X114507182Y-53117176D01*
X114542168Y-53066980D01*
X114599976Y-53046934D01*
X114614841Y-53047762D01*
X114668566Y-53054835D01*
X114675000Y-53055682D01*
X114831762Y-53035044D01*
X114977841Y-52974536D01*
X115103282Y-52878282D01*
X115199536Y-52752841D01*
X115246325Y-52639881D01*
X115286062Y-52593357D01*
X115345556Y-52579073D01*
X115402084Y-52602488D01*
X115407793Y-52607764D01*
X115605820Y-52805791D01*
X115633597Y-52860308D01*
X115633969Y-52888714D01*
X115619318Y-53000000D01*
X115620165Y-53006434D01*
X115621885Y-53019500D01*
X115639956Y-53156762D01*
X115700464Y-53302841D01*
X115796718Y-53428282D01*
X115922159Y-53524536D01*
X116068238Y-53585044D01*
X116225000Y-53605682D01*
X116381762Y-53585044D01*
X116527841Y-53524536D01*
X116653282Y-53428282D01*
X116749536Y-53302841D01*
X116810044Y-53156762D01*
X116822347Y-53063311D01*
X116848688Y-53008086D01*
X116864530Y-52999485D01*
X116840407Y-52981958D01*
X116822347Y-52936689D01*
X116822083Y-52934687D01*
X116810044Y-52843238D01*
X116749536Y-52697159D01*
X116653282Y-52571718D01*
X116527841Y-52475464D01*
X116381762Y-52414956D01*
X116225000Y-52394318D01*
X116113716Y-52408969D01*
X116053557Y-52397819D01*
X116030791Y-52380820D01*
X115394698Y-51744727D01*
X115383610Y-51731511D01*
X115373264Y-51716736D01*
X115365268Y-51711137D01*
X115348699Y-51696527D01*
X115152858Y-51480451D01*
X115146695Y-51472940D01*
X114956990Y-51217153D01*
X114951598Y-51209084D01*
X114787878Y-50935933D01*
X114783298Y-50927365D01*
X114647140Y-50639483D01*
X114643422Y-50630507D01*
X114536137Y-50330666D01*
X114533317Y-50321369D01*
X114455938Y-50012457D01*
X114454043Y-50002928D01*
X114407318Y-49687932D01*
X114406365Y-49678264D01*
X114400672Y-49562383D01*
X114392055Y-49386989D01*
X114393441Y-49364940D01*
X114393632Y-49363857D01*
X114393632Y-49363856D01*
X114395136Y-49355327D01*
X114392004Y-49337563D01*
X114390500Y-49320374D01*
X114390500Y-44669500D01*
X114409407Y-44611309D01*
X114458907Y-44575345D01*
X114489500Y-44570500D01*
X114609748Y-44570500D01*
X114635995Y-44565279D01*
X114658666Y-44560770D01*
X114658668Y-44560769D01*
X114668231Y-44558867D01*
X114734552Y-44514552D01*
X114778867Y-44448231D01*
X114780921Y-44437908D01*
X114786525Y-44409730D01*
X114790500Y-44389748D01*
X114790500Y-41850252D01*
X114778867Y-41791769D01*
X114734552Y-41725448D01*
X114668231Y-41681133D01*
X114658668Y-41679231D01*
X114658666Y-41679230D01*
X114635995Y-41674721D01*
X114609748Y-41669500D01*
X114489500Y-41669500D01*
X114431309Y-41650593D01*
X114395345Y-41601093D01*
X114390500Y-41570500D01*
X114390500Y-40428552D01*
X114399776Y-40386713D01*
X114430865Y-40320043D01*
X114430866Y-40320040D01*
X114434068Y-40313173D01*
X114440500Y-40264316D01*
X114440500Y-39915684D01*
X114434068Y-39866827D01*
X114427475Y-39852689D01*
X114387726Y-39767446D01*
X114387725Y-39767444D01*
X114384065Y-39759596D01*
X114300404Y-39675935D01*
X114287081Y-39669723D01*
X114242336Y-39627995D01*
X114230662Y-39567933D01*
X114256521Y-39512481D01*
X114287080Y-39490278D01*
X114300402Y-39484066D01*
X114301035Y-39485423D01*
X114348369Y-39470500D01*
X114634127Y-39470500D01*
X114692318Y-39489407D01*
X114699833Y-39495825D01*
X114701718Y-39498282D01*
X114827159Y-39594536D01*
X114973238Y-39655044D01*
X115130000Y-39675682D01*
X115286762Y-39655044D01*
X115432841Y-39594536D01*
X115558282Y-39498282D01*
X115558301Y-39498257D01*
X115610386Y-39471719D01*
X115625873Y-39470500D01*
X115991631Y-39470500D01*
X116038965Y-39485423D01*
X116039598Y-39484066D01*
X116052919Y-39490277D01*
X116097664Y-39532005D01*
X116109338Y-39592067D01*
X116083479Y-39647519D01*
X116052920Y-39669722D01*
X116039596Y-39675935D01*
X115955935Y-39759596D01*
X115952275Y-39767444D01*
X115952274Y-39767446D01*
X115912525Y-39852689D01*
X115905932Y-39866827D01*
X115899500Y-39915684D01*
X115899500Y-40202292D01*
X115884911Y-40254020D01*
X115881274Y-40259955D01*
X115879789Y-40263540D01*
X115879786Y-40263546D01*
X115861568Y-40307529D01*
X115829239Y-40385577D01*
X115828333Y-40389351D01*
X115828332Y-40389354D01*
X115798910Y-40511905D01*
X115797497Y-40517792D01*
X115797193Y-40521657D01*
X115797192Y-40521662D01*
X115792304Y-40583771D01*
X115791046Y-40591638D01*
X115790117Y-40593967D01*
X115789500Y-40600260D01*
X115789500Y-40615514D01*
X115789195Y-40623280D01*
X115788786Y-40628478D01*
X115787587Y-40637902D01*
X115784864Y-40653346D01*
X115787996Y-40671107D01*
X115789500Y-40688299D01*
X115789500Y-41570500D01*
X115770593Y-41628691D01*
X115721093Y-41664655D01*
X115690500Y-41669500D01*
X115570252Y-41669500D01*
X115544005Y-41674721D01*
X115521334Y-41679230D01*
X115521332Y-41679231D01*
X115511769Y-41681133D01*
X115445448Y-41725448D01*
X115401133Y-41791769D01*
X115389500Y-41850252D01*
X115389500Y-44389748D01*
X115393475Y-44409730D01*
X115399080Y-44437908D01*
X115401133Y-44448231D01*
X115445448Y-44514552D01*
X115511769Y-44558867D01*
X115521332Y-44560769D01*
X115521334Y-44560770D01*
X115544005Y-44565279D01*
X115570252Y-44570500D01*
X115690500Y-44570500D01*
X115748691Y-44589407D01*
X115784655Y-44638907D01*
X115789500Y-44669500D01*
X115789500Y-47444846D01*
X115770593Y-47503037D01*
X115750769Y-47523387D01*
X115661718Y-47591718D01*
X115565464Y-47717159D01*
X115504956Y-47863238D01*
X115484318Y-48020000D01*
X115504956Y-48176762D01*
X115565464Y-48322841D01*
X115661718Y-48448282D01*
X115787159Y-48544536D01*
X115933238Y-48605044D01*
X116090000Y-48625682D01*
X116246762Y-48605044D01*
X116392841Y-48544536D01*
X116518282Y-48448282D01*
X116614536Y-48322841D01*
X116675044Y-48176762D01*
X116695682Y-48020000D01*
X116675044Y-47863238D01*
X116614536Y-47717159D01*
X116518282Y-47591718D01*
X116429232Y-47523387D01*
X116394577Y-47472963D01*
X116390500Y-47444846D01*
X116390500Y-44669500D01*
X116409407Y-44611309D01*
X116458907Y-44575345D01*
X116489500Y-44570500D01*
X116609748Y-44570500D01*
X116635995Y-44565279D01*
X116658666Y-44560770D01*
X116658668Y-44560769D01*
X116668231Y-44558867D01*
X116734552Y-44514552D01*
X116778867Y-44448231D01*
X116780921Y-44437908D01*
X116786525Y-44409730D01*
X116790500Y-44389748D01*
X117389500Y-44389748D01*
X117393475Y-44409730D01*
X117399080Y-44437908D01*
X117401133Y-44448231D01*
X117445448Y-44514552D01*
X117511769Y-44558867D01*
X117521332Y-44560769D01*
X117521334Y-44560770D01*
X117544005Y-44565279D01*
X117570252Y-44570500D01*
X118609748Y-44570500D01*
X118635995Y-44565279D01*
X118658666Y-44560770D01*
X118658668Y-44560769D01*
X118668231Y-44558867D01*
X118734552Y-44514552D01*
X118778867Y-44448231D01*
X118780921Y-44437908D01*
X118785395Y-44415411D01*
X119082001Y-44415411D01*
X119082290Y-44420751D01*
X119088078Y-44474035D01*
X119090927Y-44486020D01*
X119137351Y-44609855D01*
X119144059Y-44622108D01*
X119222863Y-44727256D01*
X119232744Y-44737137D01*
X119337892Y-44815941D01*
X119350145Y-44822649D01*
X119473978Y-44869072D01*
X119485967Y-44871923D01*
X119539252Y-44877711D01*
X119544586Y-44878000D01*
X119820320Y-44878000D01*
X119833005Y-44873878D01*
X119836000Y-44869757D01*
X119836000Y-44862319D01*
X120344000Y-44862319D01*
X120348122Y-44875004D01*
X120352243Y-44877999D01*
X120514592Y-44877999D01*
X120572783Y-44896906D01*
X120608747Y-44946406D01*
X120608747Y-45007592D01*
X120569594Y-45059314D01*
X120545448Y-45075448D01*
X120501133Y-45141769D01*
X120499231Y-45151332D01*
X120499230Y-45151334D01*
X120496144Y-45166850D01*
X120489500Y-45200252D01*
X120489500Y-46239748D01*
X120501133Y-46298231D01*
X120545448Y-46364552D01*
X120611769Y-46408867D01*
X120621332Y-46410769D01*
X120621334Y-46410770D01*
X120644005Y-46415279D01*
X120670252Y-46420500D01*
X122509748Y-46420500D01*
X122535995Y-46415279D01*
X122558666Y-46410770D01*
X122558668Y-46410769D01*
X122568231Y-46408867D01*
X122634552Y-46364552D01*
X122678867Y-46298231D01*
X122690500Y-46239748D01*
X122690500Y-45200252D01*
X122683856Y-45166850D01*
X122680770Y-45151334D01*
X122680769Y-45151332D01*
X122678867Y-45141769D01*
X122634552Y-45075448D01*
X122568231Y-45031133D01*
X122558668Y-45029231D01*
X122558666Y-45029230D01*
X122535995Y-45024721D01*
X122509748Y-45019500D01*
X120850866Y-45019500D01*
X120792675Y-45000593D01*
X120756711Y-44951093D01*
X120756711Y-44889907D01*
X120792675Y-44840407D01*
X120816115Y-44827800D01*
X120829853Y-44822650D01*
X120842108Y-44815941D01*
X120947256Y-44737137D01*
X120957137Y-44727256D01*
X121035941Y-44622108D01*
X121042649Y-44609855D01*
X121089072Y-44486022D01*
X121091923Y-44474033D01*
X121097711Y-44420748D01*
X121098000Y-44415414D01*
X121098000Y-43389680D01*
X121093878Y-43376995D01*
X121089757Y-43374000D01*
X120359680Y-43374000D01*
X120346995Y-43378122D01*
X120344000Y-43382243D01*
X120344000Y-44862319D01*
X119836000Y-44862319D01*
X119836000Y-43389680D01*
X119831878Y-43376995D01*
X119827757Y-43374000D01*
X119097681Y-43374000D01*
X119084996Y-43378122D01*
X119082001Y-43382243D01*
X119082001Y-44415411D01*
X118785395Y-44415411D01*
X118786525Y-44409730D01*
X118790500Y-44389748D01*
X118790500Y-42850320D01*
X119082000Y-42850320D01*
X119086122Y-42863005D01*
X119090243Y-42866000D01*
X119820320Y-42866000D01*
X119833005Y-42861878D01*
X119836000Y-42857757D01*
X119836000Y-42850320D01*
X120344000Y-42850320D01*
X120348122Y-42863005D01*
X120352243Y-42866000D01*
X121082319Y-42866000D01*
X121095004Y-42861878D01*
X121097999Y-42857757D01*
X121097999Y-41824589D01*
X121097710Y-41819249D01*
X121091922Y-41765965D01*
X121089073Y-41753980D01*
X121042649Y-41630145D01*
X121035941Y-41617892D01*
X120957137Y-41512744D01*
X120947256Y-41502863D01*
X120842108Y-41424059D01*
X120829855Y-41417351D01*
X120706022Y-41370928D01*
X120694033Y-41368077D01*
X120640748Y-41362289D01*
X120635414Y-41362000D01*
X120359680Y-41362000D01*
X120346995Y-41366122D01*
X120344000Y-41370243D01*
X120344000Y-42850320D01*
X119836000Y-42850320D01*
X119836000Y-41377681D01*
X119831878Y-41364996D01*
X119827757Y-41362001D01*
X119544589Y-41362001D01*
X119539249Y-41362290D01*
X119485965Y-41368078D01*
X119473980Y-41370927D01*
X119350145Y-41417351D01*
X119337892Y-41424059D01*
X119232744Y-41502863D01*
X119222863Y-41512744D01*
X119144059Y-41617892D01*
X119137351Y-41630145D01*
X119090928Y-41753978D01*
X119088077Y-41765967D01*
X119082289Y-41819252D01*
X119082000Y-41824586D01*
X119082000Y-42850320D01*
X118790500Y-42850320D01*
X118790500Y-41850252D01*
X118778867Y-41791769D01*
X118734552Y-41725448D01*
X118668231Y-41681133D01*
X118658668Y-41679231D01*
X118658666Y-41679230D01*
X118614514Y-41670448D01*
X118609748Y-41669500D01*
X118608949Y-41669500D01*
X118554072Y-41645495D01*
X118523135Y-41592707D01*
X118528371Y-41533609D01*
X118561559Y-41453485D01*
X118574313Y-41422696D01*
X118581365Y-41408855D01*
X118653561Y-41291040D01*
X118662688Y-41278478D01*
X118737467Y-41190923D01*
X118748468Y-41180930D01*
X118753669Y-41175730D01*
X118760763Y-41170762D01*
X118765729Y-41163670D01*
X118765733Y-41163666D01*
X118771107Y-41155991D01*
X118782198Y-41142772D01*
X118934530Y-40990440D01*
X118947752Y-40979347D01*
X118955423Y-40973976D01*
X118955425Y-40973974D01*
X118962523Y-40969004D01*
X118971013Y-40956878D01*
X118976813Y-40949387D01*
X119052376Y-40860914D01*
X119125735Y-40741203D01*
X119158595Y-40661872D01*
X119177976Y-40615083D01*
X119177977Y-40615080D01*
X119179464Y-40611490D01*
X119182113Y-40600458D01*
X119214080Y-40548292D01*
X119236536Y-40533848D01*
X119292554Y-40507726D01*
X119292556Y-40507725D01*
X119300404Y-40504065D01*
X119384065Y-40420404D01*
X119390501Y-40406604D01*
X119430865Y-40320042D01*
X119430865Y-40320041D01*
X119434068Y-40313173D01*
X119440500Y-40264316D01*
X119440500Y-39915684D01*
X119434068Y-39866827D01*
X119430869Y-39859968D01*
X119428748Y-39852689D01*
X119430749Y-39852106D01*
X119424561Y-39801693D01*
X119454226Y-39748180D01*
X119471346Y-39735374D01*
X119496867Y-39720281D01*
X119506636Y-39712704D01*
X119612704Y-39606636D01*
X119620281Y-39596867D01*
X119696635Y-39467759D01*
X119701545Y-39456414D01*
X119735640Y-39339057D01*
X119735265Y-39327117D01*
X119725133Y-39324000D01*
X118115665Y-39324000D01*
X118104304Y-39327691D01*
X118104138Y-39338293D01*
X118138455Y-39456414D01*
X118143365Y-39467759D01*
X118219719Y-39596867D01*
X118227296Y-39606636D01*
X118333364Y-39712704D01*
X118343133Y-39720281D01*
X118368654Y-39735374D01*
X118409117Y-39781270D01*
X118414875Y-39842183D01*
X118410975Y-39853641D01*
X118409131Y-39859966D01*
X118405932Y-39866827D01*
X118399500Y-39915684D01*
X118399500Y-40264316D01*
X118405932Y-40313173D01*
X118409135Y-40320041D01*
X118409135Y-40320042D01*
X118449500Y-40406604D01*
X118455935Y-40420404D01*
X118485276Y-40449745D01*
X118513053Y-40504262D01*
X118503482Y-40564694D01*
X118485275Y-40589752D01*
X118357228Y-40717799D01*
X118344015Y-40728887D01*
X118329235Y-40739236D01*
X118324265Y-40746334D01*
X118323406Y-40747193D01*
X118319129Y-40752642D01*
X118242235Y-40840323D01*
X118193481Y-40895916D01*
X118078353Y-41068219D01*
X118076920Y-41071125D01*
X118076917Y-41071130D01*
X118042343Y-41141239D01*
X117986699Y-41254074D01*
X117948664Y-41366122D01*
X117928998Y-41424059D01*
X117920089Y-41450303D01*
X117919456Y-41453484D01*
X117919456Y-41453485D01*
X117892338Y-41589814D01*
X117862441Y-41643198D01*
X117806876Y-41668814D01*
X117795240Y-41669500D01*
X117570252Y-41669500D01*
X117544005Y-41674721D01*
X117521334Y-41679230D01*
X117521332Y-41679231D01*
X117511769Y-41681133D01*
X117445448Y-41725448D01*
X117401133Y-41791769D01*
X117389500Y-41850252D01*
X117389500Y-44389748D01*
X116790500Y-44389748D01*
X116790500Y-41850252D01*
X116778867Y-41791769D01*
X116734552Y-41725448D01*
X116668231Y-41681133D01*
X116658668Y-41679231D01*
X116658666Y-41679230D01*
X116635995Y-41674721D01*
X116609748Y-41669500D01*
X116489500Y-41669500D01*
X116431309Y-41650593D01*
X116395345Y-41601093D01*
X116390500Y-41570500D01*
X116390500Y-40688297D01*
X116392004Y-40671105D01*
X116393632Y-40661872D01*
X116395136Y-40653344D01*
X116395136Y-40653343D01*
X116395606Y-40653426D01*
X116412539Y-40601309D01*
X116462039Y-40565345D01*
X116492632Y-40560500D01*
X116644316Y-40560500D01*
X116693173Y-40554068D01*
X116705560Y-40548292D01*
X116792554Y-40507726D01*
X116792556Y-40507725D01*
X116800404Y-40504065D01*
X116884065Y-40420404D01*
X116890501Y-40406604D01*
X116930865Y-40320042D01*
X116930865Y-40320041D01*
X116934068Y-40313173D01*
X116940500Y-40264316D01*
X116940500Y-39915684D01*
X116934068Y-39866827D01*
X116927475Y-39852689D01*
X116887726Y-39767446D01*
X116887725Y-39767444D01*
X116884065Y-39759596D01*
X116800404Y-39675935D01*
X116787081Y-39669723D01*
X116742336Y-39627995D01*
X116730662Y-39567933D01*
X116756521Y-39512481D01*
X116787080Y-39490278D01*
X116800404Y-39484065D01*
X116884065Y-39400404D01*
X116888117Y-39391716D01*
X116930865Y-39300042D01*
X116930865Y-39300041D01*
X116934068Y-39293173D01*
X116940500Y-39244316D01*
X116940500Y-38895684D01*
X116934068Y-38846827D01*
X116906378Y-38787446D01*
X116887726Y-38747446D01*
X116887725Y-38747444D01*
X116884065Y-38739596D01*
X116800404Y-38655935D01*
X116792556Y-38652275D01*
X116792554Y-38652274D01*
X116700042Y-38609135D01*
X116700041Y-38609135D01*
X116693173Y-38605932D01*
X116644316Y-38599500D01*
X116195684Y-38599500D01*
X116146827Y-38605932D01*
X116139959Y-38609135D01*
X116139958Y-38609135D01*
X116054179Y-38649135D01*
X116039596Y-38655935D01*
X116038963Y-38654578D01*
X115991631Y-38669500D01*
X115625873Y-38669500D01*
X115567682Y-38650593D01*
X115560167Y-38644175D01*
X115558282Y-38641718D01*
X115432841Y-38545464D01*
X115311925Y-38495379D01*
X115292759Y-38487440D01*
X115286762Y-38484956D01*
X115130000Y-38464318D01*
X114973238Y-38484956D01*
X114967241Y-38487440D01*
X114948075Y-38495379D01*
X114827159Y-38545464D01*
X114701718Y-38641718D01*
X114701699Y-38641743D01*
X114649614Y-38668281D01*
X114634127Y-38669500D01*
X114348369Y-38669500D01*
X114301037Y-38654578D01*
X114300404Y-38655935D01*
X114200042Y-38609135D01*
X114200041Y-38609135D01*
X114193173Y-38605932D01*
X114144316Y-38599500D01*
X113695684Y-38599500D01*
X113646827Y-38605932D01*
X113639959Y-38609135D01*
X113639958Y-38609135D01*
X113547446Y-38652274D01*
X113547444Y-38652275D01*
X113539596Y-38655935D01*
X113455935Y-38739596D01*
X113452275Y-38747444D01*
X113452274Y-38747446D01*
X113433622Y-38787446D01*
X113405932Y-38846827D01*
X113399500Y-38895684D01*
X113399500Y-39244316D01*
X113405932Y-39293173D01*
X113409135Y-39300041D01*
X113409135Y-39300042D01*
X113451884Y-39391716D01*
X113455935Y-39400404D01*
X113539596Y-39484065D01*
X113552919Y-39490277D01*
X113597664Y-39532005D01*
X113609338Y-39592067D01*
X113583479Y-39647519D01*
X113552920Y-39669722D01*
X113539596Y-39675935D01*
X113455935Y-39759596D01*
X113453409Y-39757070D01*
X113417512Y-39784111D01*
X113385295Y-39789500D01*
X111954705Y-39789500D01*
X111896514Y-39770593D01*
X111884893Y-39758768D01*
X111884065Y-39759596D01*
X111800494Y-39676025D01*
X111772717Y-39621508D01*
X111782288Y-39561076D01*
X111810228Y-39527482D01*
X111848282Y-39498282D01*
X111944536Y-39372841D01*
X112005044Y-39226762D01*
X112025682Y-39070000D01*
X112005044Y-38913238D01*
X111944536Y-38767159D01*
X111848282Y-38641718D01*
X111722841Y-38545464D01*
X111601925Y-38495379D01*
X111582759Y-38487440D01*
X111576762Y-38484956D01*
X111555053Y-38482098D01*
X111499827Y-38455758D01*
X111470632Y-38401987D01*
X111478618Y-38341325D01*
X111512973Y-38301629D01*
X111731335Y-38155725D01*
X111737962Y-38151664D01*
X112083382Y-37958218D01*
X112090309Y-37954689D01*
X112449826Y-37788950D01*
X112457008Y-37785975D01*
X112828440Y-37648947D01*
X112835832Y-37646545D01*
X113216857Y-37539084D01*
X113224416Y-37537269D01*
X113612707Y-37460034D01*
X113620385Y-37458818D01*
X113816958Y-37435552D01*
X114013541Y-37412284D01*
X114021272Y-37411676D01*
X114382484Y-37397484D01*
X114388644Y-37397242D01*
X114409721Y-37398670D01*
X114420758Y-37400616D01*
X114438522Y-37397484D01*
X114455711Y-37395980D01*
X116867252Y-37395980D01*
X116925443Y-37414887D01*
X116961407Y-37464387D01*
X116961407Y-37525573D01*
X116953638Y-37543023D01*
X116950464Y-37547159D01*
X116889956Y-37693238D01*
X116869318Y-37850000D01*
X116889956Y-38006762D01*
X116950464Y-38152841D01*
X117046718Y-38278282D01*
X117172159Y-38374536D01*
X117318238Y-38435044D01*
X117475000Y-38455682D01*
X117631762Y-38435044D01*
X117777841Y-38374536D01*
X117903282Y-38278282D01*
X117971613Y-38189232D01*
X118022037Y-38154577D01*
X118050154Y-38150500D01*
X118439872Y-38150500D01*
X118498063Y-38169407D01*
X118534027Y-38218907D01*
X118534027Y-38280093D01*
X118498063Y-38329593D01*
X118479191Y-38340357D01*
X118472241Y-38343365D01*
X118343133Y-38419719D01*
X118333364Y-38427296D01*
X118227296Y-38533364D01*
X118219719Y-38543133D01*
X118143365Y-38672241D01*
X118138455Y-38683586D01*
X118104360Y-38800943D01*
X118104735Y-38812883D01*
X118114867Y-38816000D01*
X119724335Y-38816000D01*
X119735696Y-38812309D01*
X119735862Y-38801707D01*
X119701545Y-38683586D01*
X119696635Y-38672241D01*
X119620281Y-38543133D01*
X119612704Y-38533364D01*
X119506636Y-38427296D01*
X119496867Y-38419719D01*
X119367759Y-38343365D01*
X119360809Y-38340357D01*
X119314914Y-38299894D01*
X119301568Y-38240182D01*
X119325868Y-38184029D01*
X119378533Y-38152884D01*
X119400128Y-38150500D01*
X120034092Y-38150500D01*
X120051281Y-38152004D01*
X120069045Y-38155136D01*
X120077574Y-38153632D01*
X120080067Y-38153632D01*
X120100125Y-38152537D01*
X120148766Y-38155725D01*
X120304108Y-38165907D01*
X120316933Y-38167595D01*
X120541620Y-38212287D01*
X120554120Y-38215637D01*
X120761715Y-38286106D01*
X120771045Y-38289273D01*
X120782994Y-38294222D01*
X120988467Y-38395550D01*
X120999660Y-38402013D01*
X121127511Y-38487440D01*
X121190137Y-38529286D01*
X121200410Y-38537169D01*
X121229002Y-38562243D01*
X121351306Y-38669500D01*
X121354097Y-38671948D01*
X121367497Y-38686896D01*
X121369266Y-38688665D01*
X121374236Y-38695763D01*
X121381334Y-38700733D01*
X121381336Y-38700735D01*
X121389008Y-38706107D01*
X121402227Y-38717198D01*
X121670504Y-38985475D01*
X121698281Y-39039992D01*
X121699500Y-39055479D01*
X121699500Y-39284316D01*
X121705932Y-39333173D01*
X121709135Y-39340041D01*
X121709135Y-39340042D01*
X121742048Y-39410623D01*
X121755935Y-39440404D01*
X121839596Y-39524065D01*
X121852919Y-39530277D01*
X121897664Y-39572005D01*
X121909338Y-39632067D01*
X121883479Y-39687519D01*
X121852920Y-39709722D01*
X121839596Y-39715935D01*
X121755935Y-39799596D01*
X121752275Y-39807444D01*
X121752274Y-39807446D01*
X121721043Y-39874422D01*
X121705932Y-39906827D01*
X121699500Y-39955684D01*
X121699500Y-40304316D01*
X121705932Y-40353173D01*
X121709135Y-40360041D01*
X121709135Y-40360042D01*
X121750965Y-40449745D01*
X121755935Y-40460404D01*
X121839596Y-40544065D01*
X121847444Y-40547725D01*
X121847446Y-40547726D01*
X121939958Y-40590865D01*
X121946827Y-40594068D01*
X121995684Y-40600500D01*
X122444316Y-40600500D01*
X122493173Y-40594068D01*
X122500042Y-40590865D01*
X122592554Y-40547726D01*
X122592556Y-40547725D01*
X122600404Y-40544065D01*
X122684065Y-40460404D01*
X122686591Y-40462930D01*
X122722488Y-40435889D01*
X122754705Y-40430500D01*
X123425295Y-40430500D01*
X123483486Y-40449407D01*
X123495107Y-40461232D01*
X123495935Y-40460404D01*
X123579596Y-40544065D01*
X123587444Y-40547725D01*
X123587446Y-40547726D01*
X123679958Y-40590865D01*
X123686827Y-40594068D01*
X123735684Y-40600500D01*
X124184316Y-40600500D01*
X124233173Y-40594068D01*
X124240042Y-40590865D01*
X124332554Y-40547726D01*
X124332556Y-40547725D01*
X124340404Y-40544065D01*
X124424065Y-40460404D01*
X124426591Y-40462930D01*
X124462488Y-40435889D01*
X124494705Y-40430500D01*
X124900500Y-40430500D01*
X124958691Y-40449407D01*
X124994655Y-40498907D01*
X124999500Y-40529500D01*
X124999500Y-40628218D01*
X125000028Y-40631801D01*
X125000028Y-40631808D01*
X125008521Y-40689499D01*
X125009642Y-40697112D01*
X125061068Y-40801855D01*
X125066859Y-40807636D01*
X125085643Y-40826387D01*
X125143650Y-40884293D01*
X125248482Y-40935536D01*
X125256084Y-40936645D01*
X125256087Y-40936646D01*
X125313237Y-40944983D01*
X125313239Y-40944983D01*
X125316782Y-40945500D01*
X125474064Y-40945500D01*
X125532255Y-40964407D01*
X125568219Y-41013907D01*
X125568219Y-41075093D01*
X125553581Y-41103475D01*
X125527870Y-41138142D01*
X125521707Y-41145652D01*
X125364936Y-41318621D01*
X125348367Y-41333231D01*
X125340371Y-41338830D01*
X125335402Y-41345927D01*
X125330027Y-41353603D01*
X125318934Y-41366824D01*
X125187843Y-41497914D01*
X124799727Y-41886029D01*
X124786507Y-41897121D01*
X124778834Y-41902493D01*
X124778830Y-41902497D01*
X124771735Y-41907465D01*
X124769385Y-41910821D01*
X124765567Y-41914952D01*
X124765566Y-41914952D01*
X124662517Y-42026430D01*
X124489754Y-42213324D01*
X124232219Y-42540006D01*
X124231147Y-42541610D01*
X124231140Y-42541620D01*
X124117090Y-42712309D01*
X124001109Y-42885887D01*
X124000161Y-42887579D01*
X124000159Y-42887583D01*
X123798806Y-43247124D01*
X123798800Y-43247137D01*
X123797849Y-43248834D01*
X123623692Y-43626609D01*
X123584549Y-43732711D01*
X123530559Y-43879059D01*
X123479712Y-44016885D01*
X123366796Y-44417254D01*
X123366419Y-44419151D01*
X123366417Y-44419158D01*
X123344425Y-44529722D01*
X123285641Y-44825247D01*
X123236747Y-45238351D01*
X123220574Y-45649989D01*
X123219864Y-45654017D01*
X123221368Y-45662545D01*
X123222996Y-45671778D01*
X123224500Y-45688970D01*
X123224500Y-48349846D01*
X123205593Y-48408037D01*
X123185769Y-48428387D01*
X123096718Y-48496718D01*
X123000464Y-48622159D01*
X122997981Y-48628154D01*
X122997980Y-48628156D01*
X122974488Y-48684871D01*
X122934752Y-48731397D01*
X122875257Y-48745681D01*
X122818729Y-48722267D01*
X122791928Y-48685748D01*
X122768597Y-48630917D01*
X122768597Y-48630916D01*
X122766346Y-48625627D01*
X122662617Y-48484676D01*
X122658236Y-48480954D01*
X122654310Y-48476744D01*
X122655913Y-48475250D01*
X122628633Y-48430998D01*
X122633270Y-48369989D01*
X122642520Y-48352628D01*
X122673448Y-48306341D01*
X122678867Y-48298231D01*
X122690500Y-48239748D01*
X122690500Y-47200252D01*
X122678867Y-47141769D01*
X122634552Y-47075448D01*
X122568231Y-47031133D01*
X122558668Y-47029231D01*
X122558666Y-47029230D01*
X122535995Y-47024721D01*
X122509748Y-47019500D01*
X120670252Y-47019500D01*
X120644005Y-47024721D01*
X120621334Y-47029230D01*
X120621332Y-47029231D01*
X120611769Y-47031133D01*
X120545448Y-47075448D01*
X120501133Y-47141769D01*
X120489500Y-47200252D01*
X120489500Y-48239748D01*
X120501133Y-48298231D01*
X120545448Y-48364552D01*
X120611769Y-48408867D01*
X120621332Y-48410769D01*
X120621334Y-48410770D01*
X120644005Y-48415279D01*
X120670252Y-48420500D01*
X121406660Y-48420500D01*
X121464851Y-48439407D01*
X121500815Y-48488907D01*
X121500815Y-48550093D01*
X121492267Y-48569224D01*
X121419950Y-48693727D01*
X121419948Y-48693732D01*
X121417061Y-48698702D01*
X121366333Y-48866193D01*
X121364430Y-48896876D01*
X121362584Y-48926629D01*
X121340110Y-48983538D01*
X121288479Y-49016368D01*
X121263774Y-49019500D01*
X120670252Y-49019500D01*
X120644005Y-49024721D01*
X120621334Y-49029230D01*
X120621332Y-49029231D01*
X120611769Y-49031133D01*
X120545448Y-49075448D01*
X120501133Y-49141769D01*
X120489500Y-49200252D01*
X120489500Y-50239748D01*
X120501133Y-50298231D01*
X120545448Y-50364552D01*
X120611769Y-50408867D01*
X120621332Y-50410769D01*
X120621334Y-50410770D01*
X120644005Y-50415279D01*
X120670252Y-50420500D01*
X122509748Y-50420500D01*
X122535995Y-50415279D01*
X122558666Y-50410770D01*
X122558668Y-50410769D01*
X122568231Y-50408867D01*
X122634552Y-50364552D01*
X122678867Y-50298231D01*
X122690500Y-50239748D01*
X122690500Y-49517253D01*
X122710227Y-49457951D01*
X122711089Y-49456799D01*
X122715040Y-49452628D01*
X122795561Y-49314000D01*
X122800050Y-49306272D01*
X122800050Y-49306271D01*
X122802939Y-49301298D01*
X122819598Y-49246294D01*
X122854561Y-49196082D01*
X122912360Y-49176010D01*
X122970919Y-49193745D01*
X122999001Y-49224309D01*
X123000464Y-49227841D01*
X123004415Y-49232990D01*
X123004417Y-49232993D01*
X123052604Y-49295791D01*
X123096718Y-49353282D01*
X123222159Y-49449536D01*
X123229624Y-49452628D01*
X123361131Y-49507100D01*
X123368238Y-49510044D01*
X123525000Y-49530682D01*
X123681762Y-49510044D01*
X123688870Y-49507100D01*
X123820376Y-49452628D01*
X123827841Y-49449536D01*
X123953282Y-49353282D01*
X124049536Y-49227841D01*
X124110044Y-49081762D01*
X124130682Y-48925000D01*
X124110044Y-48768238D01*
X124049536Y-48622159D01*
X123953282Y-48496718D01*
X123864232Y-48428387D01*
X123829577Y-48377963D01*
X123825500Y-48349846D01*
X123825500Y-45688970D01*
X123827004Y-45671778D01*
X123828632Y-45662545D01*
X123830136Y-45654017D01*
X123828190Y-45642980D01*
X123826762Y-45621904D01*
X123829748Y-45545893D01*
X123839814Y-45289703D01*
X123840423Y-45281961D01*
X123841739Y-45270847D01*
X123873726Y-45000593D01*
X123882819Y-44923767D01*
X123884035Y-44916089D01*
X123954404Y-44562319D01*
X123956219Y-44554760D01*
X124054125Y-44207611D01*
X124056527Y-44200218D01*
X124176322Y-43875500D01*
X124181373Y-43861807D01*
X124184348Y-43854627D01*
X124335355Y-43527068D01*
X124338884Y-43520142D01*
X124515124Y-43205442D01*
X124519185Y-43198814D01*
X124655474Y-42994843D01*
X124719587Y-42898891D01*
X124724155Y-42892604D01*
X124729450Y-42885887D01*
X124947455Y-42609349D01*
X124952485Y-42603458D01*
X125053829Y-42493825D01*
X125107213Y-42463930D01*
X125167974Y-42471122D01*
X125212903Y-42512655D01*
X125224840Y-42572665D01*
X125222790Y-42584140D01*
X125211699Y-42630335D01*
X125211697Y-42630347D01*
X125210792Y-42634117D01*
X125210488Y-42637982D01*
X125210487Y-42637987D01*
X125206640Y-42686875D01*
X125198620Y-42788784D01*
X125198038Y-42796175D01*
X125197126Y-42803881D01*
X125194988Y-42817379D01*
X125196207Y-42825076D01*
X125198761Y-42841201D01*
X125199980Y-42856688D01*
X125199980Y-43538086D01*
X125198761Y-43553572D01*
X125194988Y-43577395D01*
X125196207Y-43585091D01*
X125196207Y-43585094D01*
X125196317Y-43585788D01*
X125197381Y-43595724D01*
X125210855Y-43835667D01*
X125211322Y-43838413D01*
X125211322Y-43838417D01*
X125253720Y-44087950D01*
X125254186Y-44090692D01*
X125254955Y-44093361D01*
X125322567Y-44328048D01*
X125325797Y-44339261D01*
X125326862Y-44341832D01*
X125421187Y-44569552D01*
X125424789Y-44578249D01*
X125549917Y-44804651D01*
X125551520Y-44806910D01*
X125551523Y-44806915D01*
X125601960Y-44877999D01*
X125699607Y-45015620D01*
X125859751Y-45194820D01*
X125866016Y-45202587D01*
X125871014Y-45209466D01*
X125877318Y-45214046D01*
X125877320Y-45214048D01*
X125890524Y-45223642D01*
X125902337Y-45233730D01*
X126185504Y-45516897D01*
X126213281Y-45571414D01*
X126214500Y-45586901D01*
X126214500Y-46015940D01*
X126215000Y-46019430D01*
X126215000Y-46019433D01*
X126218252Y-46042137D01*
X126229677Y-46121918D01*
X126253702Y-46174757D01*
X126256833Y-46181644D01*
X126263706Y-46242442D01*
X126245932Y-46281992D01*
X126174059Y-46377892D01*
X126167351Y-46390145D01*
X126120928Y-46513978D01*
X126118077Y-46525967D01*
X126112289Y-46579252D01*
X126112000Y-46584586D01*
X126112000Y-47810320D01*
X126116122Y-47823005D01*
X126120243Y-47826000D01*
X128350320Y-47826000D01*
X128363005Y-47821878D01*
X128366000Y-47817757D01*
X128366000Y-46342200D01*
X128384907Y-46284009D01*
X128390796Y-46276665D01*
X128407623Y-46257612D01*
X128468553Y-46127837D01*
X128472406Y-46103094D01*
X128480112Y-46053594D01*
X128485500Y-46018991D01*
X128485500Y-44944060D01*
X128470323Y-44838082D01*
X128410984Y-44707572D01*
X128347696Y-44634123D01*
X128324035Y-44577698D01*
X128338059Y-44518142D01*
X128384410Y-44478202D01*
X128422695Y-44470500D01*
X128670486Y-44470500D01*
X128674069Y-44469972D01*
X128674076Y-44469972D01*
X128731271Y-44461552D01*
X128731273Y-44461551D01*
X128738884Y-44460431D01*
X128747217Y-44456340D01*
X128819703Y-44420751D01*
X128842880Y-44409372D01*
X128904898Y-44347245D01*
X128959391Y-44319420D01*
X129019831Y-44328939D01*
X129044907Y-44347125D01*
X129063687Y-44365873D01*
X129091511Y-44420366D01*
X129081991Y-44480806D01*
X129046571Y-44519663D01*
X128957791Y-44575679D01*
X128927280Y-44594930D01*
X128922613Y-44600214D01*
X128922611Y-44600216D01*
X128837044Y-44697103D01*
X128837042Y-44697105D01*
X128832377Y-44702388D01*
X128771447Y-44832163D01*
X128754500Y-44941009D01*
X128754500Y-46015940D01*
X128755000Y-46019430D01*
X128755000Y-46019433D01*
X128758252Y-46042137D01*
X128769677Y-46121918D01*
X128829016Y-46252428D01*
X128833618Y-46257769D01*
X128833622Y-46257775D01*
X128849999Y-46276781D01*
X128873660Y-46333206D01*
X128874000Y-46341404D01*
X128874000Y-47810320D01*
X128878122Y-47823005D01*
X128882243Y-47826000D01*
X131112319Y-47826000D01*
X131125004Y-47821878D01*
X131127999Y-47817757D01*
X131127999Y-46584589D01*
X131127710Y-46579249D01*
X131121922Y-46525965D01*
X131119073Y-46513980D01*
X131072649Y-46390145D01*
X131065941Y-46377892D01*
X130994149Y-46282100D01*
X130974381Y-46224196D01*
X130983755Y-46180654D01*
X131005553Y-46134226D01*
X131008553Y-46127837D01*
X131025500Y-46018991D01*
X131025500Y-45847772D01*
X131043633Y-45794356D01*
X131042341Y-45793610D01*
X131045587Y-45787987D01*
X131049536Y-45782841D01*
X131110044Y-45636762D01*
X131130682Y-45480000D01*
X131110044Y-45323238D01*
X131049536Y-45177159D01*
X131045587Y-45172013D01*
X131042341Y-45166390D01*
X131043633Y-45165644D01*
X131025500Y-45112228D01*
X131025500Y-44242492D01*
X131034776Y-44200653D01*
X131050769Y-44166356D01*
X131050769Y-44166355D01*
X131053972Y-44159487D01*
X131060500Y-44109901D01*
X131060499Y-43750100D01*
X131058210Y-43732711D01*
X131069361Y-43672551D01*
X131105969Y-43634577D01*
X131114962Y-43629259D01*
X131124720Y-43621690D01*
X131231689Y-43514721D01*
X131239259Y-43504962D01*
X131316259Y-43374760D01*
X131321170Y-43363412D01*
X131357298Y-43239057D01*
X131356923Y-43227117D01*
X131346791Y-43224000D01*
X130395000Y-43224000D01*
X130336809Y-43205093D01*
X130300845Y-43155593D01*
X130296000Y-43125000D01*
X130296000Y-42815000D01*
X130314907Y-42756809D01*
X130364407Y-42720845D01*
X130395000Y-42716000D01*
X131345993Y-42716000D01*
X131357354Y-42712309D01*
X131357754Y-42686826D01*
X131360874Y-42686875D01*
X131362046Y-42649525D01*
X131399545Y-42601177D01*
X131458301Y-42584105D01*
X131511979Y-42601960D01*
X131638401Y-42690481D01*
X131651621Y-42701573D01*
X131768427Y-42818379D01*
X131779519Y-42831599D01*
X131874259Y-42966903D01*
X131882887Y-42981848D01*
X131952697Y-43131556D01*
X131958600Y-43147772D01*
X132001353Y-43307327D01*
X132004349Y-43324322D01*
X132016664Y-43465085D01*
X132015823Y-43489197D01*
X132015801Y-43489340D01*
X132014508Y-43497500D01*
X132015727Y-43505197D01*
X132018281Y-43521322D01*
X132019500Y-43536809D01*
X132019500Y-47638190D01*
X132018281Y-47653676D01*
X132014508Y-47677499D01*
X132016010Y-47686984D01*
X132016924Y-47710233D01*
X132015312Y-47730715D01*
X132009957Y-47798746D01*
X132007527Y-47814088D01*
X131980954Y-47924775D01*
X131976154Y-47939546D01*
X131963646Y-47969744D01*
X131932591Y-48044716D01*
X131925538Y-48058557D01*
X131866064Y-48155610D01*
X131856934Y-48168177D01*
X131799271Y-48235693D01*
X131782185Y-48251487D01*
X131774416Y-48257131D01*
X131769833Y-48263439D01*
X131760242Y-48276640D01*
X131750153Y-48288454D01*
X131297004Y-48741603D01*
X131242487Y-48769380D01*
X131182055Y-48759809D01*
X131138790Y-48716544D01*
X131128000Y-48671599D01*
X131128000Y-48349680D01*
X131123878Y-48336995D01*
X131119757Y-48334000D01*
X126127681Y-48334000D01*
X126114996Y-48338122D01*
X126112001Y-48342243D01*
X126112001Y-49575411D01*
X126112290Y-49580743D01*
X126112871Y-49586093D01*
X126100359Y-49645986D01*
X126091170Y-49659356D01*
X126081885Y-49670741D01*
X125989681Y-49813811D01*
X125984794Y-49823657D01*
X125926579Y-49983603D01*
X125923992Y-49994297D01*
X125907390Y-50125717D01*
X125907000Y-50131905D01*
X125907000Y-50410320D01*
X125911122Y-50423005D01*
X125915243Y-50426000D01*
X126870000Y-50426000D01*
X126928191Y-50444907D01*
X126964155Y-50494407D01*
X126969000Y-50525000D01*
X126969000Y-50835000D01*
X126950093Y-50893191D01*
X126900593Y-50929155D01*
X126870000Y-50934000D01*
X125922680Y-50934000D01*
X125909995Y-50938122D01*
X125907000Y-50942243D01*
X125907000Y-51222811D01*
X125907309Y-51228340D01*
X125921476Y-51354639D01*
X125923915Y-51365376D01*
X125970710Y-51499753D01*
X125971992Y-51560925D01*
X125937072Y-51611167D01*
X125904838Y-51627380D01*
X125796582Y-51658832D01*
X125785244Y-51663738D01*
X125655038Y-51740741D01*
X125645279Y-51748311D01*
X125538311Y-51855279D01*
X125530741Y-51865038D01*
X125453741Y-51995240D01*
X125448830Y-52006588D01*
X125412702Y-52130943D01*
X125413077Y-52142883D01*
X125423209Y-52146000D01*
X126466320Y-52146000D01*
X126496560Y-52136174D01*
X126517661Y-52120845D01*
X126548251Y-52116000D01*
X127470020Y-52116000D01*
X127528211Y-52134907D01*
X127564175Y-52184407D01*
X127569020Y-52215000D01*
X127569020Y-52468169D01*
X127567516Y-52485358D01*
X127564384Y-52503122D01*
X127565888Y-52511651D01*
X127565888Y-52520314D01*
X127565528Y-52520314D01*
X127566033Y-52533441D01*
X127565915Y-52534642D01*
X127541433Y-52590712D01*
X127488666Y-52621686D01*
X127467386Y-52624000D01*
X127093680Y-52624000D01*
X127063440Y-52633826D01*
X127042339Y-52649155D01*
X127011749Y-52654000D01*
X125424007Y-52654000D01*
X125412646Y-52657691D01*
X125412480Y-52668293D01*
X125448830Y-52793412D01*
X125453741Y-52804760D01*
X125530741Y-52934962D01*
X125538311Y-52944721D01*
X125645280Y-53051690D01*
X125655035Y-53059256D01*
X125664029Y-53064575D01*
X125704493Y-53110470D01*
X125711789Y-53162712D01*
X125709500Y-53180099D01*
X125709501Y-53539900D01*
X125709924Y-53543110D01*
X125709924Y-53543117D01*
X125715039Y-53581975D01*
X125716028Y-53589487D01*
X125719231Y-53596355D01*
X125759895Y-53683559D01*
X125766776Y-53698316D01*
X125851684Y-53783224D01*
X125883991Y-53798289D01*
X125928738Y-53840015D01*
X125938415Y-53864898D01*
X125967058Y-53984205D01*
X126029330Y-54134544D01*
X126031364Y-54137864D01*
X126031365Y-54137865D01*
X126112323Y-54269976D01*
X126112326Y-54269981D01*
X126114355Y-54273291D01*
X126135656Y-54298231D01*
X126176797Y-54346402D01*
X126180228Y-54351139D01*
X126180747Y-54352346D01*
X126184761Y-54357232D01*
X126190832Y-54363303D01*
X126196107Y-54369011D01*
X126207341Y-54382164D01*
X126213149Y-54389665D01*
X126219019Y-54398047D01*
X126233794Y-54408393D01*
X126247010Y-54419481D01*
X126637449Y-54809920D01*
X126665226Y-54864437D01*
X126656388Y-54923399D01*
X126632840Y-54971575D01*
X126629464Y-54978482D01*
X126628355Y-54986084D01*
X126628354Y-54986087D01*
X126621783Y-55031133D01*
X126619500Y-55046782D01*
X126619500Y-55413218D01*
X126620028Y-55416801D01*
X126620028Y-55416808D01*
X126627627Y-55468426D01*
X126629642Y-55482112D01*
X126633033Y-55489018D01*
X126633033Y-55489019D01*
X126639787Y-55502776D01*
X126681068Y-55586855D01*
X126763650Y-55669293D01*
X126868482Y-55720536D01*
X126876084Y-55721645D01*
X126876087Y-55721646D01*
X126933237Y-55729983D01*
X126933239Y-55729983D01*
X126936782Y-55730500D01*
X128028218Y-55730500D01*
X128031801Y-55729972D01*
X128031808Y-55729972D01*
X128089499Y-55721479D01*
X128089501Y-55721478D01*
X128097112Y-55720358D01*
X128201855Y-55668932D01*
X128284293Y-55586350D01*
X128335536Y-55481518D01*
X128336645Y-55473916D01*
X128336646Y-55473913D01*
X128344983Y-55416763D01*
X128344983Y-55416761D01*
X128345500Y-55413218D01*
X128345500Y-55046782D01*
X128344613Y-55040751D01*
X128336479Y-54985501D01*
X128336478Y-54985499D01*
X128335358Y-54977888D01*
X128283932Y-54873145D01*
X128201350Y-54790707D01*
X128096518Y-54739464D01*
X128088916Y-54738355D01*
X128088913Y-54738354D01*
X128031763Y-54730017D01*
X128031761Y-54730017D01*
X128028218Y-54729500D01*
X127447980Y-54729500D01*
X127389789Y-54710593D01*
X127377976Y-54700504D01*
X126671981Y-53994510D01*
X126660893Y-53981294D01*
X126650547Y-53966519D01*
X126643454Y-53961552D01*
X126637327Y-53955425D01*
X126637584Y-53955168D01*
X126627899Y-53946194D01*
X126599628Y-53911747D01*
X126588844Y-53895608D01*
X126584125Y-53886779D01*
X126573370Y-53826546D01*
X126601432Y-53770108D01*
X126673224Y-53698316D01*
X126684707Y-53673691D01*
X126726436Y-53628945D01*
X126786497Y-53617271D01*
X126841949Y-53643130D01*
X126864151Y-53673689D01*
X126885935Y-53720404D01*
X126969596Y-53804065D01*
X126977444Y-53807725D01*
X126977446Y-53807726D01*
X127068414Y-53850145D01*
X127076827Y-53854068D01*
X127125684Y-53860500D01*
X127574316Y-53860500D01*
X127623173Y-53854068D01*
X127631586Y-53850145D01*
X127722554Y-53807726D01*
X127722556Y-53807725D01*
X127730404Y-53804065D01*
X127814065Y-53720404D01*
X127817726Y-53712553D01*
X127822691Y-53705462D01*
X127824567Y-53706775D01*
X127858004Y-53670923D01*
X127918066Y-53659252D01*
X127973517Y-53685113D01*
X127984537Y-53697246D01*
X128046718Y-53778282D01*
X128072716Y-53798231D01*
X128172159Y-53874536D01*
X128171423Y-53875495D01*
X128207935Y-53916048D01*
X128213758Y-53933202D01*
X128220595Y-53961684D01*
X128220598Y-53961693D01*
X128221503Y-53965463D01*
X128283049Y-54114047D01*
X128285081Y-54117363D01*
X128362998Y-54244512D01*
X128367080Y-54251174D01*
X128394266Y-54283005D01*
X128428136Y-54322662D01*
X128431661Y-54327528D01*
X128432212Y-54328811D01*
X128436226Y-54333697D01*
X128442635Y-54340106D01*
X128447901Y-54345803D01*
X128458591Y-54358319D01*
X128464395Y-54365815D01*
X128470484Y-54374512D01*
X128485259Y-54384858D01*
X128498475Y-54395946D01*
X128912449Y-54809920D01*
X128940226Y-54864437D01*
X128931388Y-54923399D01*
X128907840Y-54971575D01*
X128904464Y-54978482D01*
X128903355Y-54986084D01*
X128903354Y-54986087D01*
X128896783Y-55031133D01*
X128894500Y-55046782D01*
X128894500Y-55413218D01*
X128893422Y-55413218D01*
X128879841Y-55468426D01*
X128848728Y-55498885D01*
X128848784Y-55498957D01*
X128848164Y-55499438D01*
X128846121Y-55501438D01*
X128843866Y-55502772D01*
X128834101Y-55510346D01*
X128725346Y-55619101D01*
X128717776Y-55628860D01*
X128639487Y-55761241D01*
X128634581Y-55772579D01*
X128594382Y-55910943D01*
X128594757Y-55922882D01*
X128604892Y-55926000D01*
X130909313Y-55926000D01*
X130920674Y-55922309D01*
X130920840Y-55911707D01*
X130880419Y-55772579D01*
X130875513Y-55761241D01*
X130797224Y-55628860D01*
X130789654Y-55619101D01*
X130680898Y-55510345D01*
X130671140Y-55502776D01*
X130668887Y-55501444D01*
X130667730Y-55500131D01*
X130666217Y-55498958D01*
X130666441Y-55498669D01*
X130628424Y-55455549D01*
X130621248Y-55413218D01*
X130620500Y-55413218D01*
X130620500Y-55169938D01*
X130639407Y-55111747D01*
X130688907Y-55075783D01*
X130732421Y-55071785D01*
X130800000Y-55080682D01*
X130956762Y-55060044D01*
X131016231Y-55035411D01*
X133392001Y-55035411D01*
X133392290Y-55040751D01*
X133398078Y-55094035D01*
X133400927Y-55106020D01*
X133447351Y-55229855D01*
X133454059Y-55242108D01*
X133532863Y-55347256D01*
X133542744Y-55357137D01*
X133647892Y-55435941D01*
X133660145Y-55442649D01*
X133783978Y-55489072D01*
X133795967Y-55491923D01*
X133849252Y-55497711D01*
X133854586Y-55498000D01*
X134054995Y-55498000D01*
X134113186Y-55516907D01*
X134149150Y-55566407D01*
X134149150Y-55627593D01*
X134140732Y-55646498D01*
X134135440Y-55655664D01*
X134059886Y-55825361D01*
X134056699Y-55835170D01*
X134053406Y-55850662D01*
X134054782Y-55863750D01*
X134063179Y-55866000D01*
X136834174Y-55866000D01*
X136846690Y-55861933D01*
X136847145Y-55853254D01*
X136843301Y-55835170D01*
X136840114Y-55825361D01*
X136764563Y-55655671D01*
X136759402Y-55646732D01*
X136650223Y-55496460D01*
X136643319Y-55488792D01*
X136505275Y-55364498D01*
X136496932Y-55358436D01*
X136336071Y-55265562D01*
X136326642Y-55261364D01*
X136149978Y-55203963D01*
X136139897Y-55201820D01*
X136041270Y-55191454D01*
X135985374Y-55166567D01*
X135954781Y-55113579D01*
X135953197Y-55082305D01*
X135957711Y-55040751D01*
X135958000Y-55035414D01*
X135958000Y-54809680D01*
X135953878Y-54796995D01*
X135949757Y-54794000D01*
X133407681Y-54794000D01*
X133394996Y-54798122D01*
X133392001Y-54802243D01*
X133392001Y-55035411D01*
X131016231Y-55035411D01*
X131102841Y-54999536D01*
X131228282Y-54903282D01*
X131324536Y-54777841D01*
X131385044Y-54631762D01*
X131405682Y-54475000D01*
X131385044Y-54318238D01*
X131324536Y-54172159D01*
X131304993Y-54146690D01*
X131294772Y-54133369D01*
X131274349Y-54075693D01*
X131291727Y-54017028D01*
X131303311Y-54003099D01*
X131401689Y-53904721D01*
X131409259Y-53894962D01*
X131486259Y-53764760D01*
X131491170Y-53753412D01*
X131527298Y-53629057D01*
X131526923Y-53617117D01*
X131516791Y-53614000D01*
X130565000Y-53614000D01*
X130506809Y-53595093D01*
X130470845Y-53545593D01*
X130466000Y-53515000D01*
X130466000Y-53205000D01*
X130484907Y-53146809D01*
X130534407Y-53110845D01*
X130565000Y-53106000D01*
X131515993Y-53106000D01*
X131527354Y-53102309D01*
X131527520Y-53091707D01*
X131491170Y-52966588D01*
X131486259Y-52955240D01*
X131409259Y-52825038D01*
X131401689Y-52815279D01*
X131294720Y-52708310D01*
X131284965Y-52700744D01*
X131275971Y-52695425D01*
X131235507Y-52649530D01*
X131228211Y-52597288D01*
X131230077Y-52583114D01*
X131230500Y-52579901D01*
X131230499Y-52220100D01*
X131223972Y-52170513D01*
X131188411Y-52094252D01*
X131176885Y-52069534D01*
X131176884Y-52069532D01*
X131173224Y-52061684D01*
X131088316Y-51976776D01*
X131080468Y-51973116D01*
X131080466Y-51973115D01*
X130982661Y-51927508D01*
X130937913Y-51885780D01*
X130925500Y-51837784D01*
X130925500Y-51519077D01*
X130941754Y-51464725D01*
X130942952Y-51462901D01*
X130947623Y-51457612D01*
X131008553Y-51327837D01*
X131025500Y-51218991D01*
X131025500Y-50186899D01*
X131044407Y-50128708D01*
X131054496Y-50116895D01*
X131955325Y-49216066D01*
X132009842Y-49188289D01*
X132070274Y-49197860D01*
X132113539Y-49241125D01*
X132119075Y-49254247D01*
X132131769Y-49291640D01*
X132140027Y-49315968D01*
X132165893Y-49368419D01*
X132205896Y-49449536D01*
X132234283Y-49507100D01*
X132288575Y-49588354D01*
X132349164Y-49679031D01*
X132352681Y-49684295D01*
X132457568Y-49803895D01*
X132479496Y-49828899D01*
X132485153Y-49835979D01*
X132492130Y-49845582D01*
X132498434Y-49850162D01*
X132498436Y-49850164D01*
X132511640Y-49859758D01*
X132523453Y-49869846D01*
X132773584Y-50119977D01*
X132783672Y-50131790D01*
X132793265Y-50144994D01*
X132793270Y-50144999D01*
X132797848Y-50151300D01*
X132804155Y-50155882D01*
X132804285Y-50156012D01*
X132810867Y-50161272D01*
X132977877Y-50307736D01*
X133176123Y-50440200D01*
X133389962Y-50545654D01*
X133615736Y-50622294D01*
X133620196Y-50623181D01*
X133622029Y-50623546D01*
X133675413Y-50653441D01*
X133699815Y-50701331D01*
X133711133Y-50758231D01*
X133716552Y-50766341D01*
X133720282Y-50775346D01*
X133717022Y-50776697D01*
X133728923Y-50818874D01*
X133717651Y-50853564D01*
X133720282Y-50854654D01*
X133716551Y-50863660D01*
X133711133Y-50871769D01*
X133699500Y-50930252D01*
X133699500Y-51669748D01*
X133700448Y-51674512D01*
X133708847Y-51716736D01*
X133711133Y-51728231D01*
X133722337Y-51744998D01*
X133738946Y-51803884D01*
X133722337Y-51855002D01*
X133711133Y-51871769D01*
X133699500Y-51930252D01*
X133699500Y-52669748D01*
X133711133Y-52728231D01*
X133716551Y-52736340D01*
X133720282Y-52745346D01*
X133717022Y-52746697D01*
X133728923Y-52788874D01*
X133717651Y-52823564D01*
X133720282Y-52824654D01*
X133716551Y-52833660D01*
X133711133Y-52841769D01*
X133709231Y-52851332D01*
X133709230Y-52851334D01*
X133704895Y-52873129D01*
X133699500Y-52900252D01*
X133699500Y-53557139D01*
X133680593Y-53615330D01*
X133653228Y-53639414D01*
X133653538Y-53639828D01*
X133648277Y-53643771D01*
X133648045Y-53643975D01*
X133647895Y-53644057D01*
X133542744Y-53722863D01*
X133532863Y-53732744D01*
X133454059Y-53837892D01*
X133447351Y-53850145D01*
X133400928Y-53973978D01*
X133398077Y-53985967D01*
X133392289Y-54039252D01*
X133392000Y-54044586D01*
X133392000Y-54270320D01*
X133396122Y-54283005D01*
X133400243Y-54286000D01*
X135942319Y-54286000D01*
X135955004Y-54281878D01*
X135957999Y-54277757D01*
X135957999Y-54044589D01*
X135957710Y-54039249D01*
X135951922Y-53985965D01*
X135949073Y-53973980D01*
X135902649Y-53850145D01*
X135895941Y-53837892D01*
X135817137Y-53732744D01*
X135807256Y-53722863D01*
X135710178Y-53650108D01*
X135674952Y-53600080D01*
X135675859Y-53538901D01*
X135705255Y-53495607D01*
X135831883Y-53387457D01*
X135837984Y-53382647D01*
X135841993Y-53379734D01*
X135841998Y-53379729D01*
X135848302Y-53375149D01*
X135852883Y-53368844D01*
X135852885Y-53368842D01*
X135862480Y-53355636D01*
X135872568Y-53343823D01*
X135932902Y-53283489D01*
X135944715Y-53273401D01*
X135957919Y-53263807D01*
X135957921Y-53263805D01*
X135964225Y-53259225D01*
X135971735Y-53248888D01*
X135977387Y-53241815D01*
X136000304Y-53215684D01*
X136100265Y-53101700D01*
X136215838Y-52928732D01*
X136218287Y-52923767D01*
X136282571Y-52793412D01*
X136307846Y-52742159D01*
X136374715Y-52545172D01*
X136415299Y-52341142D01*
X136417581Y-52306340D01*
X136427488Y-52155189D01*
X136428494Y-52146181D01*
X136429274Y-52141257D01*
X136429274Y-52141252D01*
X136430492Y-52133561D01*
X136426719Y-52109738D01*
X136425500Y-52094252D01*
X136425500Y-51633780D01*
X136426719Y-51618293D01*
X136429273Y-51602168D01*
X136430492Y-51594471D01*
X136428961Y-51584806D01*
X136427957Y-51575815D01*
X136426898Y-51559648D01*
X136414812Y-51375262D01*
X136414688Y-51373371D01*
X136414687Y-51373366D01*
X136414476Y-51370142D01*
X136370618Y-51149652D01*
X136298355Y-50936773D01*
X136210308Y-50758231D01*
X136200361Y-50738060D01*
X136200358Y-50738054D01*
X136198924Y-50735147D01*
X136074026Y-50548224D01*
X135985642Y-50447440D01*
X135938124Y-50393255D01*
X135932468Y-50386176D01*
X135926727Y-50378274D01*
X135907218Y-50364100D01*
X135895404Y-50354011D01*
X135771050Y-50229657D01*
X135760962Y-50217844D01*
X135751370Y-50204642D01*
X135751366Y-50204638D01*
X135746786Y-50198334D01*
X135733582Y-50188741D01*
X135727505Y-50183950D01*
X135685203Y-50147821D01*
X135653235Y-50095654D01*
X135650500Y-50072543D01*
X135650500Y-50042861D01*
X135669407Y-49984670D01*
X135696772Y-49960586D01*
X135696462Y-49960172D01*
X135701723Y-49956229D01*
X135701955Y-49956025D01*
X135702105Y-49955943D01*
X135807256Y-49877137D01*
X135817137Y-49867256D01*
X135895941Y-49762108D01*
X135902649Y-49749855D01*
X135949072Y-49626022D01*
X135951923Y-49614033D01*
X135957711Y-49560748D01*
X135958000Y-49555414D01*
X135958000Y-49329680D01*
X135953878Y-49316995D01*
X135949757Y-49314000D01*
X133407681Y-49314000D01*
X133394996Y-49318122D01*
X133392001Y-49322243D01*
X133392001Y-49366600D01*
X133373094Y-49424791D01*
X133323594Y-49460755D01*
X133262408Y-49460755D01*
X133222997Y-49436604D01*
X133089846Y-49303453D01*
X133079758Y-49291640D01*
X133070164Y-49278436D01*
X133070162Y-49278434D01*
X133065582Y-49272130D01*
X133057814Y-49266487D01*
X133040731Y-49250696D01*
X132983065Y-49183178D01*
X132973937Y-49170613D01*
X132914460Y-49073556D01*
X132907407Y-49059714D01*
X132875853Y-48983538D01*
X132863845Y-48954546D01*
X132859045Y-48939775D01*
X132832472Y-48829089D01*
X132830042Y-48813746D01*
X132828198Y-48790320D01*
X133392000Y-48790320D01*
X133396122Y-48803005D01*
X133400243Y-48806000D01*
X135942319Y-48806000D01*
X135955004Y-48801878D01*
X135957999Y-48797757D01*
X135957999Y-48564589D01*
X135957710Y-48559252D01*
X135953196Y-48517695D01*
X135965709Y-48457802D01*
X136011036Y-48416704D01*
X136041269Y-48408546D01*
X136139897Y-48398180D01*
X136149978Y-48396037D01*
X136326642Y-48338636D01*
X136336071Y-48334438D01*
X136496932Y-48241564D01*
X136505275Y-48235502D01*
X136643317Y-48111210D01*
X136650223Y-48103540D01*
X136759407Y-47953261D01*
X136764560Y-47944336D01*
X136840114Y-47774639D01*
X136843301Y-47764830D01*
X136846594Y-47749338D01*
X136845218Y-47736250D01*
X136836821Y-47734000D01*
X134065826Y-47734000D01*
X134053310Y-47738067D01*
X134052855Y-47746746D01*
X134056699Y-47764830D01*
X134059886Y-47774639D01*
X134135437Y-47944328D01*
X134140734Y-47953503D01*
X134153453Y-48013352D01*
X134128566Y-48069247D01*
X134075577Y-48099838D01*
X134054996Y-48102001D01*
X133854589Y-48102001D01*
X133849249Y-48102290D01*
X133795965Y-48108078D01*
X133783980Y-48110927D01*
X133660145Y-48157351D01*
X133647892Y-48164059D01*
X133542744Y-48242863D01*
X133532863Y-48252744D01*
X133454059Y-48357892D01*
X133447351Y-48370145D01*
X133400928Y-48493978D01*
X133398078Y-48505965D01*
X133392289Y-48559252D01*
X133392000Y-48564586D01*
X133392000Y-48790320D01*
X132828198Y-48790320D01*
X132823076Y-48725239D01*
X132823990Y-48701986D01*
X132825492Y-48692502D01*
X132822496Y-48673584D01*
X132821967Y-48669757D01*
X132821187Y-48663170D01*
X132820500Y-48651528D01*
X132820500Y-47733955D01*
X132820712Y-47727480D01*
X132822629Y-47698231D01*
X132823636Y-47689217D01*
X132824273Y-47685196D01*
X132825492Y-47677501D01*
X132821719Y-47653677D01*
X132820500Y-47638192D01*
X132820500Y-47210662D01*
X134053406Y-47210662D01*
X134054782Y-47223750D01*
X134063179Y-47226000D01*
X135180320Y-47226000D01*
X135193005Y-47221878D01*
X135196000Y-47217757D01*
X135196000Y-47210320D01*
X135704000Y-47210320D01*
X135708122Y-47223005D01*
X135712243Y-47226000D01*
X136834174Y-47226000D01*
X136846690Y-47221933D01*
X136847145Y-47213254D01*
X136843301Y-47195170D01*
X136840114Y-47185361D01*
X136764563Y-47015671D01*
X136759402Y-47006732D01*
X136650223Y-46856460D01*
X136643319Y-46848792D01*
X136505275Y-46724498D01*
X136496932Y-46718436D01*
X136336071Y-46625562D01*
X136326642Y-46621364D01*
X136149978Y-46563963D01*
X136139898Y-46561821D01*
X136001475Y-46547271D01*
X135996293Y-46547000D01*
X135719680Y-46547000D01*
X135706995Y-46551122D01*
X135704000Y-46555243D01*
X135704000Y-47210320D01*
X135196000Y-47210320D01*
X135196000Y-46562680D01*
X135191878Y-46549995D01*
X135187757Y-46547000D01*
X134903707Y-46547000D01*
X134898525Y-46547271D01*
X134760102Y-46561821D01*
X134750022Y-46563963D01*
X134573358Y-46621364D01*
X134563929Y-46625562D01*
X134403068Y-46718436D01*
X134394725Y-46724498D01*
X134256683Y-46848790D01*
X134249777Y-46856460D01*
X134140593Y-47006739D01*
X134135440Y-47015664D01*
X134059886Y-47185361D01*
X134056699Y-47195170D01*
X134053406Y-47210662D01*
X132820500Y-47210662D01*
X132820500Y-45720411D01*
X136367001Y-45720411D01*
X136367290Y-45725751D01*
X136373078Y-45779035D01*
X136375927Y-45791020D01*
X136422351Y-45914855D01*
X136429059Y-45927108D01*
X136507863Y-46032256D01*
X136517744Y-46042137D01*
X136622892Y-46120941D01*
X136635145Y-46127649D01*
X136758978Y-46174072D01*
X136770967Y-46176923D01*
X136824252Y-46182711D01*
X136829586Y-46183000D01*
X137280320Y-46183000D01*
X137293005Y-46178878D01*
X137296000Y-46174757D01*
X137296000Y-46167319D01*
X137804000Y-46167319D01*
X137808122Y-46180004D01*
X137812243Y-46182999D01*
X138270411Y-46182999D01*
X138275751Y-46182710D01*
X138329035Y-46176922D01*
X138341020Y-46174073D01*
X138464855Y-46127649D01*
X138477108Y-46120941D01*
X138582256Y-46042137D01*
X138592137Y-46032256D01*
X138670941Y-45927108D01*
X138677649Y-45914855D01*
X138724072Y-45791022D01*
X138726923Y-45779033D01*
X138732711Y-45725748D01*
X138733000Y-45720414D01*
X138733000Y-45269680D01*
X138728878Y-45256995D01*
X138724757Y-45254000D01*
X137819680Y-45254000D01*
X137806995Y-45258122D01*
X137804000Y-45262243D01*
X137804000Y-46167319D01*
X137296000Y-46167319D01*
X137296000Y-45269680D01*
X137291878Y-45256995D01*
X137287757Y-45254000D01*
X136382681Y-45254000D01*
X136369996Y-45258122D01*
X136367001Y-45262243D01*
X136367001Y-45720411D01*
X132820500Y-45720411D01*
X132820500Y-44730320D01*
X136367000Y-44730320D01*
X136371122Y-44743005D01*
X136375243Y-44746000D01*
X138717319Y-44746000D01*
X138730004Y-44741878D01*
X138732999Y-44737757D01*
X138732999Y-44279589D01*
X138732710Y-44274249D01*
X138726922Y-44220965D01*
X138724073Y-44208980D01*
X138677649Y-44085145D01*
X138670941Y-44072892D01*
X138592137Y-43967744D01*
X138582256Y-43957863D01*
X138477108Y-43879059D01*
X138464855Y-43872351D01*
X138341022Y-43825928D01*
X138329033Y-43823077D01*
X138275748Y-43817289D01*
X138270414Y-43817000D01*
X138214828Y-43817000D01*
X138156637Y-43798093D01*
X138120673Y-43748593D01*
X138120673Y-43687407D01*
X138141254Y-43651759D01*
X138262195Y-43517440D01*
X138307443Y-43439068D01*
X138351620Y-43362553D01*
X138351622Y-43362548D01*
X138354214Y-43358059D01*
X138387450Y-43255770D01*
X138409483Y-43187961D01*
X138409484Y-43187956D01*
X138411085Y-43183029D01*
X138430322Y-43000000D01*
X138411085Y-42816971D01*
X138409484Y-42812044D01*
X138409483Y-42812039D01*
X138355816Y-42646872D01*
X138354214Y-42641941D01*
X138351622Y-42637452D01*
X138351620Y-42637447D01*
X138264790Y-42487055D01*
X138262195Y-42482560D01*
X138258727Y-42478708D01*
X138258723Y-42478703D01*
X138142520Y-42349646D01*
X138142516Y-42349642D01*
X138139050Y-42345793D01*
X137990161Y-42237619D01*
X137985429Y-42235512D01*
X137985427Y-42235511D01*
X137826774Y-42164874D01*
X137826771Y-42164873D01*
X137822034Y-42162764D01*
X137732026Y-42143632D01*
X137647091Y-42125578D01*
X137647090Y-42125578D01*
X137642019Y-42124500D01*
X137457981Y-42124500D01*
X137452910Y-42125578D01*
X137452909Y-42125578D01*
X137367973Y-42143632D01*
X137277966Y-42162764D01*
X137273229Y-42164873D01*
X137273226Y-42164874D01*
X137114573Y-42235511D01*
X137114571Y-42235512D01*
X137109839Y-42237619D01*
X136960950Y-42345793D01*
X136957484Y-42349642D01*
X136957480Y-42349646D01*
X136841277Y-42478703D01*
X136841273Y-42478708D01*
X136837805Y-42482560D01*
X136835210Y-42487055D01*
X136748380Y-42637447D01*
X136748378Y-42637452D01*
X136745786Y-42641941D01*
X136744184Y-42646872D01*
X136690517Y-42812039D01*
X136690516Y-42812044D01*
X136688915Y-42816971D01*
X136669678Y-43000000D01*
X136688915Y-43183029D01*
X136690516Y-43187956D01*
X136690517Y-43187961D01*
X136712550Y-43255770D01*
X136745786Y-43358059D01*
X136748378Y-43362548D01*
X136748380Y-43362553D01*
X136792557Y-43439068D01*
X136837805Y-43517440D01*
X136841273Y-43521292D01*
X136841277Y-43521297D01*
X136958744Y-43651757D01*
X136983631Y-43707653D01*
X136970909Y-43767501D01*
X136925440Y-43808442D01*
X136885173Y-43817001D01*
X136829589Y-43817001D01*
X136824249Y-43817290D01*
X136770965Y-43823078D01*
X136758980Y-43825927D01*
X136635145Y-43872351D01*
X136622892Y-43879059D01*
X136517744Y-43957863D01*
X136507863Y-43967744D01*
X136429059Y-44072892D01*
X136422351Y-44085145D01*
X136375928Y-44208978D01*
X136373077Y-44220967D01*
X136367289Y-44274252D01*
X136367000Y-44279586D01*
X136367000Y-44730320D01*
X132820500Y-44730320D01*
X132820500Y-43536809D01*
X132821719Y-43521322D01*
X132824273Y-43505197D01*
X132825492Y-43497500D01*
X132824273Y-43489803D01*
X132824273Y-43489340D01*
X132823443Y-43481910D01*
X132823134Y-43477185D01*
X132816911Y-43382243D01*
X132808833Y-43258998D01*
X132808832Y-43258992D01*
X132808621Y-43255770D01*
X132761361Y-43018176D01*
X132683493Y-42788784D01*
X132576349Y-42571517D01*
X132441763Y-42370095D01*
X132282037Y-42187963D01*
X132099905Y-42028237D01*
X131898483Y-41893651D01*
X131681216Y-41786507D01*
X131451824Y-41708639D01*
X131443253Y-41706934D01*
X131340784Y-41686552D01*
X131214230Y-41661379D01*
X131211008Y-41661168D01*
X131211002Y-41661167D01*
X131063225Y-41651481D01*
X130988085Y-41646556D01*
X130980660Y-41645727D01*
X130980197Y-41645727D01*
X130972500Y-41644508D01*
X130964803Y-41645727D01*
X130948678Y-41648281D01*
X130933191Y-41649500D01*
X129592617Y-41649500D01*
X129577124Y-41648280D01*
X129564376Y-41646260D01*
X129561013Y-41645727D01*
X129561012Y-41645727D01*
X129553320Y-41644508D01*
X129534052Y-41647558D01*
X129529471Y-41648283D01*
X129513993Y-41649500D01*
X126407168Y-41649500D01*
X126391681Y-41648281D01*
X126375556Y-41645727D01*
X126367859Y-41644508D01*
X126354361Y-41646646D01*
X126346662Y-41647557D01*
X126285599Y-41652363D01*
X126188467Y-41660007D01*
X126188462Y-41660008D01*
X126184597Y-41660312D01*
X126145352Y-41669734D01*
X126094668Y-41681902D01*
X126033671Y-41677101D01*
X125987146Y-41637364D01*
X125972862Y-41577870D01*
X125993536Y-41526520D01*
X125992678Y-41525884D01*
X126187441Y-41263276D01*
X126187445Y-41263270D01*
X126188889Y-41261323D01*
X126289698Y-41093134D01*
X126356971Y-40980896D01*
X126356973Y-40980891D01*
X126358224Y-40978805D01*
X126397428Y-40895916D01*
X126443578Y-40798341D01*
X126485550Y-40753821D01*
X126545674Y-40742474D01*
X126600985Y-40768635D01*
X126628142Y-40813049D01*
X126639580Y-40852419D01*
X126644487Y-40863759D01*
X126722776Y-40996140D01*
X126730346Y-41005899D01*
X126839101Y-41114654D01*
X126848860Y-41122224D01*
X126981241Y-41200513D01*
X126992579Y-41205419D01*
X127130943Y-41245618D01*
X127142882Y-41245243D01*
X127146000Y-41235108D01*
X127146000Y-41234313D01*
X127654000Y-41234313D01*
X127657691Y-41245674D01*
X127668293Y-41245840D01*
X127807421Y-41205419D01*
X127818759Y-41200513D01*
X127951140Y-41122224D01*
X127960899Y-41114654D01*
X128069654Y-41005899D01*
X128077224Y-40996140D01*
X128155513Y-40863759D01*
X128160419Y-40852421D01*
X128203655Y-40703607D01*
X128205462Y-40693712D01*
X128207847Y-40663399D01*
X128208000Y-40659500D01*
X128208000Y-40277180D01*
X128203878Y-40264495D01*
X128199757Y-40261500D01*
X127669680Y-40261500D01*
X127656995Y-40265622D01*
X127654000Y-40269743D01*
X127654000Y-41234313D01*
X127146000Y-41234313D01*
X127146000Y-39737820D01*
X127654000Y-39737820D01*
X127658122Y-39750505D01*
X127662243Y-39753500D01*
X128192319Y-39753500D01*
X128205004Y-39749378D01*
X128207999Y-39745257D01*
X128207999Y-39355495D01*
X128207846Y-39351598D01*
X128205462Y-39321296D01*
X128203653Y-39311386D01*
X128160419Y-39162579D01*
X128155513Y-39151241D01*
X128077224Y-39018860D01*
X128069654Y-39009101D01*
X127960899Y-38900346D01*
X127951140Y-38892776D01*
X127818759Y-38814487D01*
X127807421Y-38809581D01*
X127669057Y-38769382D01*
X127657118Y-38769757D01*
X127654000Y-38779892D01*
X127654000Y-39737820D01*
X127146000Y-39737820D01*
X127146000Y-38780687D01*
X127142309Y-38769326D01*
X127131707Y-38769160D01*
X127077121Y-38785019D01*
X127015966Y-38783098D01*
X126967620Y-38745597D01*
X126950500Y-38689950D01*
X126950500Y-37511782D01*
X126949972Y-37508192D01*
X126949708Y-37504594D01*
X126950982Y-37504501D01*
X126960376Y-37449082D01*
X127004107Y-37406288D01*
X127048093Y-37395980D01*
X131556563Y-37395980D01*
X131573752Y-37397484D01*
X131591516Y-37400616D01*
X131600046Y-37399112D01*
X131602553Y-37398670D01*
X131623630Y-37397242D01*
X131629790Y-37397484D01*
X131991002Y-37411676D01*
X131998733Y-37412284D01*
X132195316Y-37435552D01*
X132391889Y-37458818D01*
X132399567Y-37460034D01*
X132787858Y-37537270D01*
X132795417Y-37539085D01*
X133176442Y-37646545D01*
X133183834Y-37648947D01*
X133555266Y-37785975D01*
X133562448Y-37788950D01*
X133921971Y-37954693D01*
X133928897Y-37958222D01*
X134015572Y-38006762D01*
X134274326Y-38151671D01*
X134280923Y-38155713D01*
X134610124Y-38375679D01*
X134616393Y-38380234D01*
X134927309Y-38625340D01*
X134933220Y-38630388D01*
X135203183Y-38879940D01*
X135217078Y-38895854D01*
X135218539Y-38897940D01*
X135223508Y-38905036D01*
X135238283Y-38915382D01*
X135251499Y-38926470D01*
X136773030Y-40448001D01*
X136800807Y-40502518D01*
X136788762Y-40567504D01*
X136775981Y-40589642D01*
X136748380Y-40637447D01*
X136748378Y-40637452D01*
X136745786Y-40641941D01*
X136740191Y-40659160D01*
X136690517Y-40812039D01*
X136690516Y-40812044D01*
X136688915Y-40816971D01*
X136669678Y-41000000D01*
X136688915Y-41183029D01*
X136690516Y-41187956D01*
X136690517Y-41187961D01*
X136721853Y-41284400D01*
X136745786Y-41358059D01*
X136748378Y-41362548D01*
X136748380Y-41362553D01*
X136778199Y-41414200D01*
X136837805Y-41517440D01*
X136841273Y-41521292D01*
X136841277Y-41521297D01*
X136957480Y-41650354D01*
X136957484Y-41650358D01*
X136960950Y-41654207D01*
X137109839Y-41762381D01*
X137114571Y-41764488D01*
X137114573Y-41764489D01*
X137273226Y-41835126D01*
X137273229Y-41835127D01*
X137277966Y-41837236D01*
X137457981Y-41875500D01*
X137642019Y-41875500D01*
X137822034Y-41837236D01*
X137826771Y-41835127D01*
X137826774Y-41835126D01*
X137985427Y-41764489D01*
X137985429Y-41764488D01*
X137990161Y-41762381D01*
X138139050Y-41654207D01*
X138142516Y-41650358D01*
X138142520Y-41650354D01*
X138258723Y-41521297D01*
X138258727Y-41521292D01*
X138262195Y-41517440D01*
X138321801Y-41414200D01*
X138351620Y-41362553D01*
X138351622Y-41362548D01*
X138354214Y-41358059D01*
X138378147Y-41284400D01*
X138409483Y-41187961D01*
X138409484Y-41187956D01*
X138411085Y-41183029D01*
X138430322Y-41000000D01*
X138411085Y-40816971D01*
X138409484Y-40812044D01*
X138409483Y-40812039D01*
X138359809Y-40659160D01*
X138354214Y-40641941D01*
X138351622Y-40637452D01*
X138351620Y-40637447D01*
X138273718Y-40502518D01*
X138262195Y-40482560D01*
X138258727Y-40478708D01*
X138258723Y-40478703D01*
X138142520Y-40349646D01*
X138142516Y-40349642D01*
X138139050Y-40345793D01*
X137990161Y-40237619D01*
X137985429Y-40235512D01*
X137985427Y-40235511D01*
X137826774Y-40164874D01*
X137826771Y-40164873D01*
X137822034Y-40162764D01*
X137720162Y-40141110D01*
X137647091Y-40125578D01*
X137647090Y-40125578D01*
X137642019Y-40124500D01*
X137457981Y-40124500D01*
X137409928Y-40134714D01*
X137379836Y-40141110D01*
X137318986Y-40134714D01*
X137289249Y-40114277D01*
X137175040Y-40000068D01*
X137147263Y-39945551D01*
X137156834Y-39885119D01*
X137200099Y-39841854D01*
X137260531Y-39832283D01*
X137274227Y-39835571D01*
X137277966Y-39837236D01*
X137457981Y-39875500D01*
X137642019Y-39875500D01*
X137822034Y-39837236D01*
X137826771Y-39835127D01*
X137826774Y-39835126D01*
X137985427Y-39764489D01*
X137985429Y-39764488D01*
X137990161Y-39762381D01*
X138139050Y-39654207D01*
X138142516Y-39650358D01*
X138142520Y-39650354D01*
X138258723Y-39521297D01*
X138258727Y-39521292D01*
X138262195Y-39517440D01*
X138331954Y-39396615D01*
X138351620Y-39362553D01*
X138351622Y-39362548D01*
X138354214Y-39358059D01*
X138380152Y-39278231D01*
X138409483Y-39187961D01*
X138409484Y-39187956D01*
X138411085Y-39183029D01*
X138430322Y-39000000D01*
X138411085Y-38816971D01*
X138409484Y-38812044D01*
X138409483Y-38812039D01*
X138363964Y-38671948D01*
X138354214Y-38641941D01*
X138351622Y-38637452D01*
X138351620Y-38637447D01*
X138271357Y-38498429D01*
X138262195Y-38482560D01*
X138258727Y-38478708D01*
X138258723Y-38478703D01*
X138142520Y-38349646D01*
X138142516Y-38349642D01*
X138139050Y-38345793D01*
X137990161Y-38237619D01*
X137985429Y-38235512D01*
X137985427Y-38235511D01*
X137826774Y-38164874D01*
X137826771Y-38164873D01*
X137822034Y-38162764D01*
X137642019Y-38124500D01*
X137457981Y-38124500D01*
X137277966Y-38162764D01*
X137243094Y-38178290D01*
X137182246Y-38184686D01*
X137132824Y-38157853D01*
X136635182Y-37660211D01*
X136624094Y-37646995D01*
X136613748Y-37632220D01*
X136609962Y-37629569D01*
X136429698Y-37464387D01*
X136342345Y-37384342D01*
X136342336Y-37384334D01*
X136340752Y-37382883D01*
X136337324Y-37380252D01*
X136102998Y-37200448D01*
X136047452Y-37157826D01*
X136044070Y-37155671D01*
X135737463Y-36960341D01*
X135737461Y-36960340D01*
X135735653Y-36959188D01*
X135725801Y-36954059D01*
X135409657Y-36789484D01*
X135409654Y-36789482D01*
X135407728Y-36788480D01*
X135405169Y-36787420D01*
X135405095Y-36787357D01*
X135403776Y-36786742D01*
X135403947Y-36786376D01*
X135358646Y-36747683D01*
X135344364Y-36688187D01*
X135367781Y-36631660D01*
X135419951Y-36599693D01*
X135443059Y-36596958D01*
X136314025Y-36596958D01*
X136331214Y-36598462D01*
X136348978Y-36601594D01*
X136357506Y-36600090D01*
X136364876Y-36600090D01*
X136379707Y-36599377D01*
X136430624Y-36603385D01*
X136482083Y-36607435D01*
X136497425Y-36609865D01*
X136619677Y-36639214D01*
X136634452Y-36644015D01*
X136647436Y-36649393D01*
X136693962Y-36689129D01*
X136708246Y-36748623D01*
X136703705Y-36771450D01*
X136690519Y-36812031D01*
X136690517Y-36812041D01*
X136688915Y-36816971D01*
X136669678Y-37000000D01*
X136670220Y-37005157D01*
X136670973Y-37012317D01*
X136688915Y-37183029D01*
X136690516Y-37187956D01*
X136690517Y-37187961D01*
X136717614Y-37271355D01*
X136745786Y-37358059D01*
X136748378Y-37362548D01*
X136748380Y-37362553D01*
X136807175Y-37464387D01*
X136837805Y-37517440D01*
X136841273Y-37521292D01*
X136841277Y-37521297D01*
X136957480Y-37650354D01*
X136957484Y-37650358D01*
X136960950Y-37654207D01*
X137109839Y-37762381D01*
X137114571Y-37764488D01*
X137114573Y-37764489D01*
X137273226Y-37835126D01*
X137273229Y-37835127D01*
X137277966Y-37837236D01*
X137457981Y-37875500D01*
X137642019Y-37875500D01*
X137822034Y-37837236D01*
X137826771Y-37835127D01*
X137826774Y-37835126D01*
X137985427Y-37764489D01*
X137985429Y-37764488D01*
X137990161Y-37762381D01*
X138139050Y-37654207D01*
X138142516Y-37650358D01*
X138142520Y-37650354D01*
X138258723Y-37521297D01*
X138258727Y-37521292D01*
X138262195Y-37517440D01*
X138292825Y-37464387D01*
X138351620Y-37362553D01*
X138351622Y-37362548D01*
X138354214Y-37358059D01*
X138382386Y-37271355D01*
X138409483Y-37187961D01*
X138409484Y-37187956D01*
X138411085Y-37183029D01*
X138429027Y-37012317D01*
X138429780Y-37005157D01*
X138430322Y-37000000D01*
X138411085Y-36816971D01*
X138409484Y-36812044D01*
X138409483Y-36812039D01*
X138363881Y-36671693D01*
X138354214Y-36641941D01*
X138351622Y-36637452D01*
X138351620Y-36637447D01*
X138264790Y-36487055D01*
X138262195Y-36482560D01*
X138258727Y-36478708D01*
X138258723Y-36478703D01*
X138142520Y-36349646D01*
X138142516Y-36349642D01*
X138139050Y-36345793D01*
X137990161Y-36237619D01*
X137985429Y-36235512D01*
X137985427Y-36235511D01*
X137826774Y-36164874D01*
X137826771Y-36164873D01*
X137822034Y-36162764D01*
X137642019Y-36124500D01*
X137457981Y-36124500D01*
X137277966Y-36162764D01*
X137273229Y-36164873D01*
X137273226Y-36164874D01*
X137193218Y-36200496D01*
X137132368Y-36206892D01*
X137103641Y-36195865D01*
X137101350Y-36194334D01*
X136924818Y-36107278D01*
X136844206Y-36079914D01*
X136823089Y-36072746D01*
X136774064Y-36036138D01*
X136755919Y-35977704D01*
X136775587Y-35919766D01*
X136825553Y-35884453D01*
X136854911Y-35880000D01*
X139096000Y-35880000D01*
X139154191Y-35898907D01*
X139190155Y-35948407D01*
X139195000Y-35979000D01*
X139195000Y-65381000D01*
X139176093Y-65439191D01*
X139126593Y-65475155D01*
X139096000Y-65480000D01*
X97794000Y-65480000D01*
X97735809Y-65461093D01*
X97699845Y-65411593D01*
X97695000Y-65381000D01*
X97695000Y-64125411D01*
X98162001Y-64125411D01*
X98162290Y-64130751D01*
X98168078Y-64184035D01*
X98170927Y-64196020D01*
X98217351Y-64319855D01*
X98224059Y-64332108D01*
X98302863Y-64437256D01*
X98312744Y-64447137D01*
X98417892Y-64525941D01*
X98430145Y-64532649D01*
X98553978Y-64579072D01*
X98565967Y-64581923D01*
X98619252Y-64587711D01*
X98624586Y-64588000D01*
X99075320Y-64588000D01*
X99088005Y-64583878D01*
X99091000Y-64579757D01*
X99091000Y-64572319D01*
X99599000Y-64572319D01*
X99603122Y-64585004D01*
X99607243Y-64587999D01*
X100065411Y-64587999D01*
X100070751Y-64587710D01*
X100124035Y-64581922D01*
X100136020Y-64579073D01*
X100259855Y-64532649D01*
X100272108Y-64525941D01*
X100377256Y-64447137D01*
X100387137Y-64437256D01*
X100465941Y-64332108D01*
X100472649Y-64319855D01*
X100519072Y-64196022D01*
X100521923Y-64184033D01*
X100527711Y-64130748D01*
X100528000Y-64125414D01*
X100528000Y-63449680D01*
X100523878Y-63436995D01*
X100519757Y-63434000D01*
X99614680Y-63434000D01*
X99601995Y-63438122D01*
X99599000Y-63442243D01*
X99599000Y-64572319D01*
X99091000Y-64572319D01*
X99091000Y-63449680D01*
X99086878Y-63436995D01*
X99082757Y-63434000D01*
X98177681Y-63434000D01*
X98164996Y-63438122D01*
X98162001Y-63442243D01*
X98162001Y-64125411D01*
X97695000Y-64125411D01*
X97695000Y-62910320D01*
X98162000Y-62910320D01*
X98166122Y-62923005D01*
X98170243Y-62926000D01*
X99075320Y-62926000D01*
X99088005Y-62921878D01*
X99091000Y-62917757D01*
X99091000Y-62910320D01*
X99599000Y-62910320D01*
X99603122Y-62923005D01*
X99607243Y-62926000D01*
X100512319Y-62926000D01*
X100525004Y-62921878D01*
X100527999Y-62917757D01*
X100527999Y-62234589D01*
X100527710Y-62229249D01*
X100521922Y-62175965D01*
X100519073Y-62163980D01*
X100472649Y-62040145D01*
X100465941Y-62027892D01*
X100387137Y-61922744D01*
X100377256Y-61912863D01*
X100272108Y-61834059D01*
X100259855Y-61827351D01*
X100136022Y-61780928D01*
X100124033Y-61778077D01*
X100070748Y-61772289D01*
X100065414Y-61772000D01*
X99614680Y-61772000D01*
X99601995Y-61776122D01*
X99599000Y-61780243D01*
X99599000Y-62910320D01*
X99091000Y-62910320D01*
X99091000Y-61787681D01*
X99086878Y-61774996D01*
X99082757Y-61772001D01*
X98624589Y-61772001D01*
X98619249Y-61772290D01*
X98565965Y-61778078D01*
X98553980Y-61780927D01*
X98430145Y-61827351D01*
X98417892Y-61834059D01*
X98312744Y-61912863D01*
X98302863Y-61922744D01*
X98224059Y-62027892D01*
X98217351Y-62040145D01*
X98170928Y-62163978D01*
X98168077Y-62175967D01*
X98162289Y-62229252D01*
X98162000Y-62234586D01*
X98162000Y-62910320D01*
X97695000Y-62910320D01*
X97695000Y-60979000D01*
X97713907Y-60920809D01*
X97763407Y-60884845D01*
X97794000Y-60880000D01*
X103489123Y-60880000D01*
X103540449Y-60880045D01*
X103550498Y-60875219D01*
X103550500Y-60875219D01*
X103551341Y-60874815D01*
X103572183Y-60867537D01*
X103573093Y-60867330D01*
X103573096Y-60867328D01*
X103583962Y-60864850D01*
X103593210Y-60857480D01*
X103612046Y-60845666D01*
X103612653Y-60845375D01*
X103612657Y-60845372D01*
X103622705Y-60840547D01*
X103630254Y-60831107D01*
X103645872Y-60815516D01*
X103655323Y-60807985D01*
X103660459Y-60797337D01*
X103672308Y-60778522D01*
X103672730Y-60777995D01*
X103672732Y-60777990D01*
X103679694Y-60769285D01*
X103682402Y-60757508D01*
X103689715Y-60736682D01*
X103690123Y-60735836D01*
X103694965Y-60725798D01*
X103694980Y-60709230D01*
X103694985Y-60702787D01*
X103696730Y-60702789D01*
X103696724Y-60702723D01*
X103695000Y-60702723D01*
X103695000Y-60685877D01*
X103695045Y-60634840D01*
X103695045Y-60634551D01*
X103695003Y-60634463D01*
X103695000Y-60634439D01*
X103695000Y-40685877D01*
X103695023Y-40659160D01*
X103695045Y-40634551D01*
X103689815Y-40623659D01*
X103682537Y-40602817D01*
X103682330Y-40601907D01*
X103682328Y-40601904D01*
X103679850Y-40591038D01*
X103672480Y-40581789D01*
X103660666Y-40562954D01*
X103660375Y-40562347D01*
X103660372Y-40562343D01*
X103655547Y-40552295D01*
X103646107Y-40544746D01*
X103630516Y-40529128D01*
X103622985Y-40519677D01*
X103612337Y-40514541D01*
X103593522Y-40502692D01*
X103592995Y-40502270D01*
X103592990Y-40502268D01*
X103584285Y-40495306D01*
X103572508Y-40492598D01*
X103551682Y-40485285D01*
X103550836Y-40484877D01*
X103540798Y-40480035D01*
X103529653Y-40480025D01*
X103529652Y-40480025D01*
X103517787Y-40480015D01*
X103517789Y-40478270D01*
X103517723Y-40478276D01*
X103517723Y-40480000D01*
X103500877Y-40480000D01*
X103449840Y-40479955D01*
X103449551Y-40479955D01*
X103449463Y-40479997D01*
X103449439Y-40480000D01*
X97794000Y-40480000D01*
X97735809Y-40461093D01*
X97699845Y-40411593D01*
X97695000Y-40381000D01*
X97695000Y-39245411D01*
X98152001Y-39245411D01*
X98152290Y-39250751D01*
X98158078Y-39304035D01*
X98160927Y-39316020D01*
X98207351Y-39439855D01*
X98214059Y-39452108D01*
X98292863Y-39557256D01*
X98302744Y-39567137D01*
X98407892Y-39645941D01*
X98420145Y-39652649D01*
X98543978Y-39699072D01*
X98555967Y-39701923D01*
X98609252Y-39707711D01*
X98614586Y-39708000D01*
X99065320Y-39708000D01*
X99078005Y-39703878D01*
X99081000Y-39699757D01*
X99081000Y-39692319D01*
X99589000Y-39692319D01*
X99593122Y-39705004D01*
X99597243Y-39707999D01*
X100055411Y-39707999D01*
X100060751Y-39707710D01*
X100114035Y-39701922D01*
X100126020Y-39699073D01*
X100249855Y-39652649D01*
X100262108Y-39645941D01*
X100367256Y-39567137D01*
X100377137Y-39557256D01*
X100455941Y-39452108D01*
X100462649Y-39439855D01*
X100509072Y-39316022D01*
X100511923Y-39304033D01*
X100517711Y-39250748D01*
X100518000Y-39245414D01*
X100518000Y-39219748D01*
X102609500Y-39219748D01*
X102611114Y-39227860D01*
X102617384Y-39259382D01*
X102621133Y-39278231D01*
X102665448Y-39344552D01*
X102731769Y-39388867D01*
X102741332Y-39390769D01*
X102741334Y-39390770D01*
X102764005Y-39395279D01*
X102790252Y-39400500D01*
X104179748Y-39400500D01*
X104205995Y-39395279D01*
X104228666Y-39390770D01*
X104228668Y-39390769D01*
X104238231Y-39388867D01*
X104304552Y-39344552D01*
X104348867Y-39278231D01*
X104352617Y-39259382D01*
X104358886Y-39227860D01*
X104360500Y-39219748D01*
X104360500Y-37380252D01*
X104348867Y-37321769D01*
X104304552Y-37255448D01*
X104238231Y-37211133D01*
X104228668Y-37209231D01*
X104228666Y-37209230D01*
X104205995Y-37204721D01*
X104179748Y-37199500D01*
X102790252Y-37199500D01*
X102764005Y-37204721D01*
X102741334Y-37209230D01*
X102741332Y-37209231D01*
X102731769Y-37211133D01*
X102665448Y-37255448D01*
X102621133Y-37321769D01*
X102609500Y-37380252D01*
X102609500Y-39219748D01*
X100518000Y-39219748D01*
X100518000Y-38569680D01*
X100513878Y-38556995D01*
X100509757Y-38554000D01*
X99604680Y-38554000D01*
X99591995Y-38558122D01*
X99589000Y-38562243D01*
X99589000Y-39692319D01*
X99081000Y-39692319D01*
X99081000Y-38569680D01*
X99076878Y-38556995D01*
X99072757Y-38554000D01*
X98167681Y-38554000D01*
X98154996Y-38558122D01*
X98152001Y-38562243D01*
X98152001Y-39245411D01*
X97695000Y-39245411D01*
X97695000Y-38030320D01*
X98152000Y-38030320D01*
X98156122Y-38043005D01*
X98160243Y-38046000D01*
X99065320Y-38046000D01*
X99078005Y-38041878D01*
X99081000Y-38037757D01*
X99081000Y-38030320D01*
X99589000Y-38030320D01*
X99593122Y-38043005D01*
X99597243Y-38046000D01*
X100502319Y-38046000D01*
X100515004Y-38041878D01*
X100517999Y-38037757D01*
X100517999Y-37354589D01*
X100517710Y-37349249D01*
X100511922Y-37295965D01*
X100509073Y-37283980D01*
X100462649Y-37160145D01*
X100455941Y-37147892D01*
X100377137Y-37042744D01*
X100367256Y-37032863D01*
X100262108Y-36954059D01*
X100249855Y-36947351D01*
X100126022Y-36900928D01*
X100114033Y-36898077D01*
X100060748Y-36892289D01*
X100055414Y-36892000D01*
X99604680Y-36892000D01*
X99591995Y-36896122D01*
X99589000Y-36900243D01*
X99589000Y-38030320D01*
X99081000Y-38030320D01*
X99081000Y-36907681D01*
X99076878Y-36894996D01*
X99072757Y-36892001D01*
X98614589Y-36892001D01*
X98609249Y-36892290D01*
X98555965Y-36898078D01*
X98543980Y-36900927D01*
X98420145Y-36947351D01*
X98407892Y-36954059D01*
X98302744Y-37032863D01*
X98292863Y-37042744D01*
X98214059Y-37147892D01*
X98207351Y-37160145D01*
X98160928Y-37283978D01*
X98158077Y-37295967D01*
X98152289Y-37349252D01*
X98152000Y-37354586D01*
X98152000Y-38030320D01*
X97695000Y-38030320D01*
X97695000Y-35979000D01*
X97713907Y-35920809D01*
X97763407Y-35884845D01*
X97794000Y-35880000D01*
X110319761Y-35880000D01*
X110377952Y-35898907D01*
G37*
%TD.AperFunction*%
%TA.AperFunction,Conductor*%
G36*
X108042748Y-61833290D02*
G01*
X108042893Y-61832374D01*
X108065789Y-61836000D01*
X108360000Y-61836000D01*
X108418191Y-61854907D01*
X108454155Y-61904407D01*
X108459000Y-61935000D01*
X108459000Y-62852001D01*
X108463122Y-62864686D01*
X108465698Y-62866558D01*
X108468720Y-62866916D01*
X108486344Y-62865529D01*
X108496246Y-62863720D01*
X108641414Y-62821545D01*
X108652759Y-62816635D01*
X108781867Y-62740281D01*
X108791636Y-62732704D01*
X108897705Y-62626635D01*
X108898870Y-62625133D01*
X108899922Y-62624418D01*
X108902108Y-62622232D01*
X108902525Y-62622649D01*
X108949474Y-62590741D01*
X109014982Y-62594345D01*
X109113238Y-62635044D01*
X109270000Y-62655682D01*
X109426762Y-62635044D01*
X109572841Y-62574536D01*
X109698282Y-62478282D01*
X109699065Y-62479302D01*
X109747461Y-62454644D01*
X109807893Y-62464215D01*
X109832952Y-62482421D01*
X109854596Y-62504065D01*
X109862444Y-62507725D01*
X109862446Y-62507726D01*
X109947169Y-62547233D01*
X109961827Y-62554068D01*
X110010684Y-62560500D01*
X110287067Y-62560500D01*
X110347334Y-62580958D01*
X110357962Y-62589113D01*
X110417159Y-62634536D01*
X110563238Y-62695044D01*
X110720000Y-62715682D01*
X110876762Y-62695044D01*
X111022841Y-62634536D01*
X111082038Y-62589113D01*
X111092666Y-62580958D01*
X111152933Y-62560500D01*
X111474316Y-62560500D01*
X111523173Y-62554068D01*
X111537831Y-62547233D01*
X111622554Y-62507726D01*
X111622556Y-62507725D01*
X111630404Y-62504065D01*
X111691127Y-62443342D01*
X111745644Y-62415565D01*
X111806076Y-62425136D01*
X111831073Y-62443281D01*
X111867157Y-62479302D01*
X111887621Y-62499730D01*
X111991706Y-62550608D01*
X112041229Y-62557833D01*
X112055969Y-62559983D01*
X112055971Y-62559983D01*
X112059514Y-62560500D01*
X112470486Y-62560500D01*
X112474069Y-62559972D01*
X112474076Y-62559972D01*
X112531271Y-62551552D01*
X112531273Y-62551551D01*
X112538884Y-62550431D01*
X112550087Y-62544931D01*
X112614848Y-62513135D01*
X112642880Y-62499372D01*
X112698778Y-62443377D01*
X112753269Y-62415551D01*
X112813710Y-62425070D01*
X112838846Y-62443315D01*
X112899596Y-62504065D01*
X112898069Y-62505592D01*
X112927824Y-62545075D01*
X112928893Y-62606251D01*
X112921528Y-62623977D01*
X112920107Y-62626635D01*
X112906574Y-62651952D01*
X112895792Y-62668088D01*
X112864144Y-62706650D01*
X112854458Y-62715623D01*
X112854716Y-62715881D01*
X112848589Y-62722008D01*
X112841497Y-62726974D01*
X112831148Y-62741754D01*
X112820059Y-62754968D01*
X112537225Y-63037801D01*
X112524006Y-63048893D01*
X112509236Y-63059235D01*
X112504266Y-63066333D01*
X112502497Y-63068102D01*
X112489098Y-63083049D01*
X112442132Y-63124237D01*
X112360594Y-63195743D01*
X112350321Y-63203626D01*
X112187696Y-63312289D01*
X112176497Y-63318755D01*
X112001066Y-63405268D01*
X111989118Y-63410217D01*
X111803910Y-63473087D01*
X111791410Y-63476437D01*
X111599575Y-63514595D01*
X111586750Y-63516283D01*
X111455842Y-63524864D01*
X111416190Y-63527463D01*
X111396132Y-63526368D01*
X111393639Y-63526368D01*
X111385110Y-63524864D01*
X111367346Y-63527996D01*
X111350157Y-63529500D01*
X106435283Y-63529500D01*
X106418094Y-63527996D01*
X106400330Y-63524864D01*
X106391799Y-63526368D01*
X106384450Y-63526368D01*
X106369599Y-63527081D01*
X106254820Y-63518048D01*
X106239476Y-63515618D01*
X106165536Y-63497867D01*
X106105116Y-63483361D01*
X106090350Y-63478563D01*
X105982765Y-63434000D01*
X105962691Y-63425685D01*
X105948857Y-63418636D01*
X105831030Y-63346432D01*
X105818486Y-63337318D01*
X105730925Y-63262534D01*
X105720943Y-63251544D01*
X105715733Y-63246334D01*
X105710763Y-63239236D01*
X105697894Y-63230225D01*
X105673581Y-63205912D01*
X105664568Y-63193040D01*
X105657472Y-63188072D01*
X105652266Y-63182865D01*
X105641268Y-63172875D01*
X105582572Y-63104151D01*
X105573440Y-63091583D01*
X105573272Y-63091308D01*
X105566648Y-63080500D01*
X105514174Y-62994868D01*
X105507122Y-62981027D01*
X105493444Y-62948006D01*
X105463717Y-62876238D01*
X105458921Y-62861478D01*
X105432440Y-62751178D01*
X105430011Y-62735842D01*
X105428358Y-62714835D01*
X105422919Y-62645730D01*
X105424119Y-62620770D01*
X105425137Y-62614998D01*
X105428604Y-62615609D01*
X105442539Y-62572721D01*
X105480789Y-62541190D01*
X105560404Y-62504065D01*
X105576999Y-62487470D01*
X105631516Y-62459693D01*
X105691948Y-62469264D01*
X105725544Y-62497205D01*
X105737768Y-62513135D01*
X105737770Y-62513137D01*
X105741718Y-62518282D01*
X105867159Y-62614536D01*
X105921438Y-62637019D01*
X105996607Y-62668155D01*
X106013238Y-62675044D01*
X106170000Y-62695682D01*
X106326762Y-62675044D01*
X106343394Y-62668155D01*
X106418562Y-62637019D01*
X106436676Y-62629516D01*
X106497673Y-62624715D01*
X106544566Y-62650976D01*
X106625279Y-62731689D01*
X106635038Y-62739259D01*
X106765244Y-62816262D01*
X106776582Y-62821168D01*
X106922971Y-62863699D01*
X106930982Y-62865162D01*
X106943339Y-62862195D01*
X106945407Y-62859773D01*
X106946000Y-62856790D01*
X106946000Y-62850859D01*
X107454000Y-62850859D01*
X107458122Y-62863544D01*
X107460698Y-62865417D01*
X107463720Y-62865774D01*
X107467135Y-62865506D01*
X107477029Y-62863699D01*
X107623418Y-62821168D01*
X107634758Y-62816261D01*
X107645291Y-62810032D01*
X107705003Y-62796687D01*
X107746080Y-62810034D01*
X107757245Y-62816637D01*
X107768586Y-62821545D01*
X107913754Y-62863720D01*
X107923656Y-62865529D01*
X107935369Y-62866451D01*
X107948339Y-62863337D01*
X107950406Y-62860917D01*
X107951000Y-62857929D01*
X107951000Y-62359680D01*
X107946878Y-62346995D01*
X107942757Y-62344000D01*
X107469680Y-62344000D01*
X107456995Y-62348122D01*
X107454000Y-62352243D01*
X107454000Y-62850859D01*
X106946000Y-62850859D01*
X106946000Y-61925000D01*
X106964907Y-61866809D01*
X107014407Y-61830845D01*
X107045000Y-61826000D01*
X108020312Y-61826000D01*
X108042748Y-61833290D01*
G37*
%TD.AperFunction*%
%TA.AperFunction,Conductor*%
G36*
X129813191Y-52164907D02*
G01*
X129849155Y-52214407D01*
X129854000Y-52245000D01*
X129854000Y-52555000D01*
X129835093Y-52613191D01*
X129785593Y-52649155D01*
X129755000Y-52654000D01*
X128269020Y-52654000D01*
X128210829Y-52635093D01*
X128174865Y-52585593D01*
X128170020Y-52555000D01*
X128170020Y-52553660D01*
X128170325Y-52545893D01*
X128172540Y-52517748D01*
X128173152Y-52512937D01*
X128173152Y-52511654D01*
X128174656Y-52503124D01*
X128171524Y-52485360D01*
X128170020Y-52468171D01*
X128170020Y-52245000D01*
X128188927Y-52186809D01*
X128238427Y-52150845D01*
X128269020Y-52146000D01*
X129755000Y-52146000D01*
X129813191Y-52164907D01*
G37*
%TD.AperFunction*%
%TD*%
M02*
