%TF.GenerationSoftware,KiCad,Pcbnew,(6.0.2)*%
%TF.CreationDate,2022-03-05T20:45:56+08:00*%
%TF.ProjectId,screen,73637265-656e-42e6-9b69-6361645f7063,rev?*%
%TF.SameCoordinates,Original*%
%TF.FileFunction,Copper,L4,Bot*%
%TF.FilePolarity,Positive*%
%FSLAX46Y46*%
G04 Gerber Fmt 4.6, Leading zero omitted, Abs format (unit mm)*
G04 Created by KiCad (PCBNEW (6.0.2)) date 2022-03-05 20:45:56*
%MOMM*%
%LPD*%
G01*
G04 APERTURE LIST*
%TA.AperFunction,ComponentPad*%
%ADD10R,1.000000X1.000000*%
%TD*%
%TA.AperFunction,ComponentPad*%
%ADD11O,1.000000X1.000000*%
%TD*%
%TA.AperFunction,ComponentPad*%
%ADD12O,1.850000X0.850000*%
%TD*%
%TA.AperFunction,ComponentPad*%
%ADD13R,1.700000X1.700000*%
%TD*%
%TA.AperFunction,ComponentPad*%
%ADD14O,1.700000X1.700000*%
%TD*%
%TA.AperFunction,SMDPad,CuDef*%
%ADD15R,2.000000X0.200000*%
%TD*%
%TA.AperFunction,ViaPad*%
%ADD16C,0.800000*%
%TD*%
%TA.AperFunction,Conductor*%
%ADD17C,0.200000*%
%TD*%
%TA.AperFunction,Conductor*%
%ADD18C,0.400000*%
%TD*%
%TA.AperFunction,Conductor*%
%ADD19C,0.600000*%
%TD*%
G04 APERTURE END LIST*
D10*
%TO.P,J1,1,GND*%
%TO.N,GND*%
X137350000Y-42250000D03*
D11*
%TO.P,J1,2,GPIO0*%
%TO.N,/GPIO0*%
X137350000Y-40980000D03*
%TO.P,J1,3,RXD*%
%TO.N,/RXD*%
X137350000Y-39710000D03*
%TO.P,J1,4,TXD*%
%TO.N,/TXD*%
X137350000Y-38440000D03*
%TO.P,J1,5,RST*%
%TO.N,/EN*%
X137350000Y-37170000D03*
%TD*%
D12*
%TO.P,J2,S1,SHIELD*%
%TO.N,GND*%
X135450000Y-47080000D03*
X135450000Y-55720000D03*
%TD*%
D13*
%TO.P,J3,1,Pin_1*%
%TO.N,+BATT*%
X137170000Y-62880000D03*
D14*
%TO.P,J3,2,Pin_2*%
%TO.N,GND*%
X137170000Y-60340000D03*
%TD*%
D15*
%TO.P,U3,1,GND*%
%TO.N,GND*%
X119110000Y-57320000D03*
%TO.P,U3,2,LEDK*%
%TO.N,Net-(Q1-Pad3)*%
X119110000Y-56620000D03*
%TO.P,U3,3,LEDA*%
%TO.N,+3V3*%
X119110000Y-55920000D03*
%TO.P,U3,4,VDD*%
X119110000Y-55220000D03*
%TO.P,U3,5,GND*%
%TO.N,GND*%
X119110000Y-54520000D03*
%TO.P,U3,6,GND*%
X119110000Y-53820000D03*
%TO.P,U3,7,D/C*%
%TO.N,/GPIO0*%
X119110000Y-53120000D03*
%TO.P,U3,8,CS*%
%TO.N,GND*%
X119110000Y-52420000D03*
%TO.P,U3,9,SCL*%
%TO.N,/GPIO14*%
X119110000Y-51720000D03*
%TO.P,U3,10,SDA*%
%TO.N,/GPIO13*%
X119110000Y-51020000D03*
%TO.P,U3,11,RESET*%
%TO.N,/GPIO2*%
X119110000Y-50320000D03*
%TO.P,U3,12,GND*%
%TO.N,GND*%
X119110000Y-49620000D03*
%TD*%
D16*
%TO.N,+3V3*%
X126020000Y-57080000D03*
X124020000Y-39070000D03*
X115130000Y-39070000D03*
X106170000Y-62090000D03*
X110720000Y-62110000D03*
X130820000Y-54330000D03*
X116470000Y-55700000D03*
%TO.N,GND*%
X121570000Y-43080000D03*
X127440000Y-39930000D03*
X106290000Y-47660000D03*
X107680000Y-47610000D03*
X106330000Y-49200000D03*
X115720000Y-64090000D03*
X128620000Y-51680000D03*
X107760000Y-62100000D03*
X125720000Y-49780000D03*
X131520000Y-42230000D03*
X114450000Y-64070000D03*
X117210000Y-64120000D03*
X114950000Y-56140000D03*
X107780000Y-49150000D03*
%TO.N,Net-(D2-Pad2)*%
X132495000Y-63605000D03*
X128520000Y-43980000D03*
%TO.N,Net-(C2-Pad1)*%
X127520000Y-59680000D03*
X128620000Y-54380000D03*
%TO.N,/GPIO0*%
X114470000Y-41130000D03*
X119770000Y-41130000D03*
X116170000Y-52900000D03*
%TO.N,/GPIO2*%
X116090000Y-48020000D03*
%TO.N,/GPIO14*%
X115290000Y-51700000D03*
%TO.N,/GPIO13*%
X117330000Y-51030000D03*
%TO.N,/GPIO5*%
X113900000Y-37850000D03*
X110090000Y-43120000D03*
%TO.N,Net-(D2-Pad1)*%
X131895000Y-64830000D03*
X127120000Y-44080000D03*
%TO.N,Net-(R7-Pad2)*%
X104860000Y-38300000D03*
X112109488Y-38632690D03*
%TO.N,+BATT*%
X124570000Y-59180000D03*
X131620000Y-57280000D03*
X109270000Y-62050000D03*
X131620000Y-43280000D03*
%TO.N,Net-(D3-Pad1)*%
X129420000Y-43980000D03*
X133320000Y-62680000D03*
%TO.N,Net-(D3-Pad2)*%
X129520000Y-42880000D03*
X133520000Y-61780000D03*
%TO.N,Net-(Q1-Pad3)*%
X124560000Y-42410000D03*
%TD*%
D17*
%TO.N,/GPIO0*%
X119920000Y-40980000D02*
X137350000Y-40980000D01*
X119770000Y-41130000D02*
X119920000Y-40980000D01*
%TO.N,/GPIO5*%
X110090000Y-43120000D02*
X110090000Y-41660000D01*
X110090000Y-41660000D02*
X113900000Y-37850000D01*
D18*
%TO.N,+3V3*%
X119085000Y-55220000D02*
X116950000Y-55220000D01*
X119060220Y-55944780D02*
X116714780Y-55944780D01*
X116714780Y-55944780D02*
X116470000Y-55700000D01*
X116950000Y-55220000D02*
X116470000Y-55700000D01*
%TO.N,GND*%
X120749022Y-53820000D02*
X121020000Y-53549022D01*
X121020000Y-53549022D02*
X121020000Y-52690978D01*
X119110000Y-49620000D02*
X121010000Y-49620000D01*
X119110000Y-53845000D02*
X119110000Y-54520000D01*
X121030000Y-52139022D02*
X120749022Y-52420000D01*
X119110000Y-53820000D02*
X120749022Y-53820000D01*
X121020000Y-52690978D02*
X120749022Y-52420000D01*
X119110000Y-54520000D02*
X116570000Y-54520000D01*
X119085000Y-57320000D02*
X116130000Y-57320000D01*
X120749022Y-52420000D02*
X119110000Y-52420000D01*
X121010000Y-49620000D02*
X121030000Y-49640000D01*
X121030000Y-49640000D02*
X121030000Y-52139022D01*
X116570000Y-54520000D02*
X114950000Y-56140000D01*
X115430000Y-56620000D02*
X114950000Y-56140000D01*
X116130000Y-57320000D02*
X114950000Y-56140000D01*
D17*
%TO.N,Net-(D2-Pad2)*%
X132397856Y-63605000D02*
X132495000Y-63605000D01*
X129520490Y-44980490D02*
X129520490Y-60727634D01*
X129520490Y-60727634D02*
X132397856Y-63605000D01*
X128520000Y-43980000D02*
X129520490Y-44980490D01*
%TO.N,Net-(C2-Pad1)*%
X127520000Y-59680000D02*
X128620000Y-58580000D01*
X128620000Y-58580000D02*
X128620000Y-54380000D01*
%TO.N,/GPIO0*%
X119085000Y-53120000D02*
X116390000Y-53120000D01*
X119770000Y-41130000D02*
X114470000Y-41130000D01*
X116390000Y-53120000D02*
X116170000Y-52900000D01*
%TO.N,/GPIO2*%
X119110000Y-50320000D02*
X117710000Y-50320000D01*
X116090000Y-48700000D02*
X116090000Y-48020000D01*
X117710000Y-50320000D02*
X116090000Y-48700000D01*
%TO.N,/GPIO14*%
X119105000Y-51700000D02*
X115290000Y-51700000D01*
%TO.N,/GPIO13*%
X117340000Y-51020000D02*
X117330000Y-51030000D01*
X119110000Y-51020000D02*
X117340000Y-51020000D01*
%TO.N,Net-(D2-Pad1)*%
X129220000Y-60880000D02*
X131895000Y-63555000D01*
X131895000Y-63555000D02*
X131895000Y-64830000D01*
X127120000Y-44080000D02*
X129220000Y-46180000D01*
X129220000Y-46180000D02*
X129220000Y-60880000D01*
%TO.N,Net-(R7-Pad2)*%
X111756798Y-38280000D02*
X112109488Y-38632690D01*
X104870000Y-38280000D02*
X111756798Y-38280000D01*
D19*
%TO.N,+BATT*%
X124570000Y-59180000D02*
X122439501Y-61310499D01*
X131719501Y-43379501D02*
X131620000Y-43280000D01*
X122439501Y-61310499D02*
X110009501Y-61310499D01*
X131719501Y-57180499D02*
X131719501Y-43379501D01*
X131620000Y-57280000D02*
X131719501Y-57180499D01*
X110009501Y-61310499D02*
X109270000Y-62050000D01*
D17*
%TO.N,Net-(D3-Pad1)*%
X129820000Y-60603572D02*
X131896428Y-62680000D01*
X131896428Y-62680000D02*
X133320000Y-62680000D01*
X129420000Y-43980000D02*
X129820000Y-44380000D01*
X129820000Y-44380000D02*
X129820000Y-60603572D01*
%TO.N,Net-(D3-Pad2)*%
X131420000Y-61780000D02*
X130119510Y-60479510D01*
X133520000Y-61780000D02*
X131420000Y-61780000D01*
X130119510Y-43479510D02*
X129520000Y-42880000D01*
X130119510Y-60479510D02*
X130119510Y-43479510D01*
%TO.N,Net-(Q1-Pad3)*%
X123810000Y-43160000D02*
X124560000Y-42410000D01*
X120510000Y-56620000D02*
X123810000Y-53320000D01*
X119110000Y-56620000D02*
X120510000Y-56620000D01*
X123810000Y-53320000D02*
X123810000Y-43160000D01*
%TD*%
%TA.AperFunction,Conductor*%
%TO.N,GND*%
G36*
X136672148Y-36208002D02*
G01*
X136718641Y-36261658D01*
X136728745Y-36331932D01*
X136699251Y-36396512D01*
X136682986Y-36412190D01*
X136640975Y-36445968D01*
X136513846Y-36597474D01*
X136510879Y-36602872D01*
X136510875Y-36602877D01*
X136507397Y-36609204D01*
X136418567Y-36770787D01*
X136416706Y-36776654D01*
X136416705Y-36776656D01*
X136364413Y-36941500D01*
X136358765Y-36959306D01*
X136336719Y-37155851D01*
X136337235Y-37161995D01*
X136350400Y-37318774D01*
X136353268Y-37352934D01*
X136354967Y-37358858D01*
X136397216Y-37506197D01*
X136407783Y-37543050D01*
X136410602Y-37548535D01*
X136483472Y-37690323D01*
X136498187Y-37718956D01*
X136502016Y-37723787D01*
X136503839Y-37726088D01*
X136504414Y-37727509D01*
X136505353Y-37728966D01*
X136505076Y-37729144D01*
X136530474Y-37791898D01*
X136517301Y-37861662D01*
X136513846Y-37867474D01*
X136418567Y-38040787D01*
X136416706Y-38046654D01*
X136416705Y-38046656D01*
X136410614Y-38065858D01*
X136358765Y-38229306D01*
X136336719Y-38425851D01*
X136337235Y-38431995D01*
X136342100Y-38489928D01*
X136353268Y-38622934D01*
X136354967Y-38628858D01*
X136392967Y-38761379D01*
X136407783Y-38813050D01*
X136410602Y-38818535D01*
X136490480Y-38973959D01*
X136498187Y-38988956D01*
X136502016Y-38993787D01*
X136503839Y-38996088D01*
X136504414Y-38997509D01*
X136505353Y-38998966D01*
X136505076Y-38999144D01*
X136530474Y-39061898D01*
X136517301Y-39131662D01*
X136513846Y-39137474D01*
X136418567Y-39310787D01*
X136416706Y-39316654D01*
X136416705Y-39316656D01*
X136407689Y-39345078D01*
X136358765Y-39499306D01*
X136336719Y-39695851D01*
X136337235Y-39701995D01*
X136350271Y-39857237D01*
X136353268Y-39892934D01*
X136407783Y-40083050D01*
X136460003Y-40184658D01*
X136461672Y-40187905D01*
X136475020Y-40257635D01*
X136448550Y-40323513D01*
X136390666Y-40364622D01*
X136349606Y-40371500D01*
X120312587Y-40371500D01*
X120238528Y-40347437D01*
X120232098Y-40342765D01*
X120232091Y-40342761D01*
X120226752Y-40338882D01*
X120220724Y-40336198D01*
X120220722Y-40336197D01*
X120058319Y-40263891D01*
X120058318Y-40263891D01*
X120052288Y-40261206D01*
X119945437Y-40238494D01*
X119871944Y-40222872D01*
X119871939Y-40222872D01*
X119865487Y-40221500D01*
X119674513Y-40221500D01*
X119668061Y-40222872D01*
X119668056Y-40222872D01*
X119594563Y-40238494D01*
X119487712Y-40261206D01*
X119481682Y-40263891D01*
X119481681Y-40263891D01*
X119319278Y-40336197D01*
X119319276Y-40336198D01*
X119313248Y-40338882D01*
X119307907Y-40342762D01*
X119307906Y-40342763D01*
X119301473Y-40347437D01*
X119158747Y-40451134D01*
X119154334Y-40456036D01*
X119154332Y-40456037D01*
X119132926Y-40479811D01*
X119072480Y-40517050D01*
X119039290Y-40521500D01*
X115200710Y-40521500D01*
X115132589Y-40501498D01*
X115107074Y-40479811D01*
X115085668Y-40456037D01*
X115085666Y-40456036D01*
X115081253Y-40451134D01*
X114938527Y-40347437D01*
X114932094Y-40342763D01*
X114932093Y-40342762D01*
X114926752Y-40338882D01*
X114920724Y-40336198D01*
X114920722Y-40336197D01*
X114758319Y-40263891D01*
X114758318Y-40263891D01*
X114752288Y-40261206D01*
X114645437Y-40238494D01*
X114571944Y-40222872D01*
X114571939Y-40222872D01*
X114565487Y-40221500D01*
X114374513Y-40221500D01*
X114368061Y-40222872D01*
X114368056Y-40222872D01*
X114294563Y-40238494D01*
X114187712Y-40261206D01*
X114181682Y-40263891D01*
X114181681Y-40263891D01*
X114019278Y-40336197D01*
X114019276Y-40336198D01*
X114013248Y-40338882D01*
X114007907Y-40342762D01*
X114007906Y-40342763D01*
X114001473Y-40347437D01*
X113858747Y-40451134D01*
X113854326Y-40456044D01*
X113854325Y-40456045D01*
X113774367Y-40544848D01*
X113730960Y-40593056D01*
X113635473Y-40758444D01*
X113576458Y-40940072D01*
X113575768Y-40946633D01*
X113575768Y-40946635D01*
X113568919Y-41011799D01*
X113556496Y-41130000D01*
X113557186Y-41136565D01*
X113569942Y-41257928D01*
X113576458Y-41319928D01*
X113635473Y-41501556D01*
X113730960Y-41666944D01*
X113735378Y-41671851D01*
X113735379Y-41671852D01*
X113854325Y-41803955D01*
X113858747Y-41808866D01*
X113954967Y-41878774D01*
X114000766Y-41912049D01*
X114013248Y-41921118D01*
X114019276Y-41923802D01*
X114019278Y-41923803D01*
X114181681Y-41996109D01*
X114187712Y-41998794D01*
X114281112Y-42018647D01*
X114368056Y-42037128D01*
X114368061Y-42037128D01*
X114374513Y-42038500D01*
X114565487Y-42038500D01*
X114571939Y-42037128D01*
X114571944Y-42037128D01*
X114658887Y-42018647D01*
X114752288Y-41998794D01*
X114758319Y-41996109D01*
X114920722Y-41923803D01*
X114920724Y-41923802D01*
X114926752Y-41921118D01*
X114939235Y-41912049D01*
X115059671Y-41824546D01*
X115081253Y-41808866D01*
X115090308Y-41798810D01*
X115107074Y-41780189D01*
X115167520Y-41742950D01*
X115200710Y-41738500D01*
X119039290Y-41738500D01*
X119107411Y-41758502D01*
X119132926Y-41780189D01*
X119149693Y-41798810D01*
X119158747Y-41808866D01*
X119180329Y-41824546D01*
X119300766Y-41912049D01*
X119313248Y-41921118D01*
X119319276Y-41923802D01*
X119319278Y-41923803D01*
X119481681Y-41996109D01*
X119487712Y-41998794D01*
X119581112Y-42018647D01*
X119668056Y-42037128D01*
X119668061Y-42037128D01*
X119674513Y-42038500D01*
X119865487Y-42038500D01*
X119871939Y-42037128D01*
X119871944Y-42037128D01*
X119958887Y-42018647D01*
X120052288Y-41998794D01*
X120058319Y-41996109D01*
X120220722Y-41923803D01*
X120220724Y-41923802D01*
X120226752Y-41921118D01*
X120239235Y-41912049D01*
X120285033Y-41878774D01*
X120381253Y-41808866D01*
X120385675Y-41803955D01*
X120504621Y-41671852D01*
X120504622Y-41671851D01*
X120509040Y-41666944D01*
X120517958Y-41651498D01*
X120569342Y-41602506D01*
X120627076Y-41588500D01*
X123794175Y-41588500D01*
X123862296Y-41608502D01*
X123908789Y-41662158D01*
X123918893Y-41732432D01*
X123887811Y-41798810D01*
X123854663Y-41835625D01*
X123820960Y-41873056D01*
X123725473Y-42038444D01*
X123666458Y-42220072D01*
X123646496Y-42410000D01*
X123646684Y-42411786D01*
X123627184Y-42478196D01*
X123610281Y-42499170D01*
X123413766Y-42695685D01*
X123401375Y-42706552D01*
X123376013Y-42726013D01*
X123351526Y-42757925D01*
X123351523Y-42757928D01*
X123351517Y-42757936D01*
X123318100Y-42801486D01*
X123278476Y-42853124D01*
X123217162Y-43001149D01*
X123214978Y-43017739D01*
X123201500Y-43120115D01*
X123201500Y-43120120D01*
X123196250Y-43160000D01*
X123197328Y-43168188D01*
X123200422Y-43191690D01*
X123201500Y-43208136D01*
X123201500Y-53015761D01*
X123181498Y-53083882D01*
X123164595Y-53104856D01*
X120473962Y-55795489D01*
X120411650Y-55829515D01*
X120340835Y-55824450D01*
X120283999Y-55781903D01*
X120272108Y-55761022D01*
X120270607Y-55753474D01*
X120232923Y-55697077D01*
X120222610Y-55690186D01*
X120222608Y-55690184D01*
X120199532Y-55674765D01*
X120154004Y-55620288D01*
X120145157Y-55549845D01*
X120175798Y-55485801D01*
X120199532Y-55465235D01*
X120222608Y-55449816D01*
X120222610Y-55449814D01*
X120232923Y-55442923D01*
X120270607Y-55386526D01*
X120280500Y-55336791D01*
X120280499Y-55184974D01*
X120300501Y-55116854D01*
X120345991Y-55074453D01*
X120363649Y-55064786D01*
X120465724Y-54988285D01*
X120478285Y-54975724D01*
X120554786Y-54873649D01*
X120563324Y-54858054D01*
X120608478Y-54737606D01*
X120612105Y-54722351D01*
X120617631Y-54671486D01*
X120618000Y-54664673D01*
X120617999Y-54375332D01*
X120617629Y-54368510D01*
X120612105Y-54317648D01*
X120608479Y-54302396D01*
X120575427Y-54214230D01*
X120570244Y-54143422D01*
X120575427Y-54125770D01*
X120608478Y-54037606D01*
X120612105Y-54022351D01*
X120617631Y-53971486D01*
X120618000Y-53964673D01*
X120617999Y-53675332D01*
X120617629Y-53668510D01*
X120612105Y-53617648D01*
X120608479Y-53602396D01*
X120563324Y-53481946D01*
X120554786Y-53466351D01*
X120478285Y-53364276D01*
X120465724Y-53351715D01*
X120363646Y-53275212D01*
X120345991Y-53265546D01*
X120295845Y-53215287D01*
X120280500Y-53155028D01*
X120280499Y-53084976D01*
X120300500Y-53016855D01*
X120345991Y-52974453D01*
X120363649Y-52964786D01*
X120465724Y-52888285D01*
X120478285Y-52875724D01*
X120554786Y-52773649D01*
X120563324Y-52758054D01*
X120608478Y-52637606D01*
X120612105Y-52622351D01*
X120617631Y-52571486D01*
X120618000Y-52564673D01*
X120617999Y-52275332D01*
X120617629Y-52268510D01*
X120612105Y-52217648D01*
X120608479Y-52202396D01*
X120563324Y-52081946D01*
X120554786Y-52066351D01*
X120478285Y-51964276D01*
X120465724Y-51951715D01*
X120363646Y-51875212D01*
X120345991Y-51865546D01*
X120295845Y-51815287D01*
X120280500Y-51755027D01*
X120280499Y-51609399D01*
X120280499Y-51603210D01*
X120270607Y-51553474D01*
X120245992Y-51516635D01*
X120239814Y-51507390D01*
X120232923Y-51497077D01*
X120222610Y-51490186D01*
X120222608Y-51490184D01*
X120199532Y-51474765D01*
X120154004Y-51420288D01*
X120145157Y-51349845D01*
X120175798Y-51285801D01*
X120199532Y-51265235D01*
X120222608Y-51249816D01*
X120222610Y-51249814D01*
X120232923Y-51242923D01*
X120270607Y-51186526D01*
X120280500Y-51136791D01*
X120280499Y-50903210D01*
X120270607Y-50853474D01*
X120232923Y-50797077D01*
X120222610Y-50790186D01*
X120222608Y-50790184D01*
X120199532Y-50774765D01*
X120154004Y-50720288D01*
X120145157Y-50649845D01*
X120175798Y-50585801D01*
X120199532Y-50565235D01*
X120222608Y-50549816D01*
X120222610Y-50549814D01*
X120232923Y-50542923D01*
X120270607Y-50486526D01*
X120280500Y-50436791D01*
X120280499Y-50284974D01*
X120300501Y-50216854D01*
X120345991Y-50174453D01*
X120363649Y-50164786D01*
X120465724Y-50088285D01*
X120478285Y-50075724D01*
X120554786Y-49973649D01*
X120563324Y-49958054D01*
X120608478Y-49837606D01*
X120612105Y-49822351D01*
X120617631Y-49771486D01*
X120618000Y-49764673D01*
X120617999Y-49475332D01*
X120617629Y-49468510D01*
X120612105Y-49417648D01*
X120608479Y-49402396D01*
X120563324Y-49281946D01*
X120554786Y-49266351D01*
X120478285Y-49164276D01*
X120465724Y-49151715D01*
X120363649Y-49075214D01*
X120348054Y-49066676D01*
X120279195Y-49040862D01*
X121355497Y-49040862D01*
X121356737Y-49048078D01*
X121356737Y-49048080D01*
X121383894Y-49206125D01*
X121385134Y-49213340D01*
X121453654Y-49374373D01*
X121557383Y-49515324D01*
X121562961Y-49520063D01*
X121562964Y-49520066D01*
X121685176Y-49623893D01*
X121685180Y-49623896D01*
X121690755Y-49628632D01*
X121771572Y-49669899D01*
X121787687Y-49678128D01*
X121846616Y-49708219D01*
X121853721Y-49709958D01*
X121853725Y-49709959D01*
X121924030Y-49727162D01*
X122016606Y-49749815D01*
X122022206Y-49750162D01*
X122022210Y-49750163D01*
X122025709Y-49750380D01*
X122025718Y-49750380D01*
X122027648Y-49750500D01*
X122153822Y-49750500D01*
X122245369Y-49739827D01*
X122276556Y-49736191D01*
X122276558Y-49736191D01*
X122283828Y-49735343D01*
X122290705Y-49732847D01*
X122290708Y-49732846D01*
X122441452Y-49678128D01*
X122448331Y-49675631D01*
X122594685Y-49579677D01*
X122715040Y-49452628D01*
X122802939Y-49301298D01*
X122853667Y-49133807D01*
X122864503Y-48959138D01*
X122849788Y-48873498D01*
X122836106Y-48793875D01*
X122836105Y-48793873D01*
X122834866Y-48786660D01*
X122783673Y-48666348D01*
X122769211Y-48632360D01*
X122769211Y-48632359D01*
X122766346Y-48625627D01*
X122662617Y-48484676D01*
X122657039Y-48479937D01*
X122657036Y-48479934D01*
X122534824Y-48376107D01*
X122534820Y-48376104D01*
X122529245Y-48371368D01*
X122445062Y-48328382D01*
X122379900Y-48295108D01*
X122379898Y-48295107D01*
X122373384Y-48291781D01*
X122366279Y-48290042D01*
X122366275Y-48290041D01*
X122272741Y-48267154D01*
X122203394Y-48250185D01*
X122197794Y-48249838D01*
X122197790Y-48249837D01*
X122194291Y-48249620D01*
X122194282Y-48249620D01*
X122192352Y-48249500D01*
X122066178Y-48249500D01*
X121974631Y-48260173D01*
X121943444Y-48263809D01*
X121943442Y-48263809D01*
X121936172Y-48264657D01*
X121929295Y-48267153D01*
X121929292Y-48267154D01*
X121852281Y-48295108D01*
X121771669Y-48324369D01*
X121625315Y-48420323D01*
X121504960Y-48547372D01*
X121417061Y-48698702D01*
X121366333Y-48866193D01*
X121355497Y-49040862D01*
X120279195Y-49040862D01*
X120227606Y-49021522D01*
X120212351Y-49017895D01*
X120161486Y-49012369D01*
X120154672Y-49012000D01*
X118065331Y-49012001D01*
X118058510Y-49012371D01*
X118007648Y-49017895D01*
X117992396Y-49021521D01*
X117871946Y-49066676D01*
X117856351Y-49075214D01*
X117754276Y-49151715D01*
X117741716Y-49164275D01*
X117688836Y-49234834D01*
X117631977Y-49277350D01*
X117561158Y-49282376D01*
X117498914Y-49248365D01*
X116889519Y-48638970D01*
X116855493Y-48576658D01*
X116860558Y-48505843D01*
X116869495Y-48486875D01*
X116921223Y-48397279D01*
X116921224Y-48397278D01*
X116924527Y-48391556D01*
X116983542Y-48209928D01*
X117003504Y-48020000D01*
X116983542Y-47830072D01*
X116924527Y-47648444D01*
X116829040Y-47483056D01*
X116701253Y-47341134D01*
X116546752Y-47228882D01*
X116540724Y-47226198D01*
X116540722Y-47226197D01*
X116378319Y-47153891D01*
X116378318Y-47153891D01*
X116372288Y-47151206D01*
X116278888Y-47131353D01*
X116191944Y-47112872D01*
X116191939Y-47112872D01*
X116185487Y-47111500D01*
X115994513Y-47111500D01*
X115988061Y-47112872D01*
X115988056Y-47112872D01*
X115901112Y-47131353D01*
X115807712Y-47151206D01*
X115801682Y-47153891D01*
X115801681Y-47153891D01*
X115639278Y-47226197D01*
X115639276Y-47226198D01*
X115633248Y-47228882D01*
X115478747Y-47341134D01*
X115350960Y-47483056D01*
X115255473Y-47648444D01*
X115196458Y-47830072D01*
X115176496Y-48020000D01*
X115196458Y-48209928D01*
X115255473Y-48391556D01*
X115258776Y-48397278D01*
X115258777Y-48397279D01*
X115306498Y-48479934D01*
X115350960Y-48556944D01*
X115355378Y-48561851D01*
X115355379Y-48561852D01*
X115449468Y-48666348D01*
X115480754Y-48734210D01*
X115481500Y-48739880D01*
X115481500Y-48739885D01*
X115487658Y-48786660D01*
X115497162Y-48858851D01*
X115558476Y-49006876D01*
X115563503Y-49013427D01*
X115563504Y-49013429D01*
X115631520Y-49102069D01*
X115631526Y-49102075D01*
X115656013Y-49133987D01*
X115662568Y-49139017D01*
X115681379Y-49153452D01*
X115693770Y-49164319D01*
X116710877Y-50181426D01*
X116744903Y-50243738D01*
X116739838Y-50314553D01*
X116715418Y-50354831D01*
X116595379Y-50488148D01*
X116590960Y-50493056D01*
X116562169Y-50542923D01*
X116500438Y-50649845D01*
X116495473Y-50658444D01*
X116436458Y-50840072D01*
X116435768Y-50846633D01*
X116435768Y-50846635D01*
X116421891Y-50978670D01*
X116394878Y-51044327D01*
X116336656Y-51084957D01*
X116296581Y-51091500D01*
X116020710Y-51091500D01*
X115952589Y-51071498D01*
X115927074Y-51049811D01*
X115905668Y-51026037D01*
X115905666Y-51026036D01*
X115901253Y-51021134D01*
X115746752Y-50908882D01*
X115740724Y-50906198D01*
X115740722Y-50906197D01*
X115578319Y-50833891D01*
X115578318Y-50833891D01*
X115572288Y-50831206D01*
X115478887Y-50811353D01*
X115391944Y-50792872D01*
X115391939Y-50792872D01*
X115385487Y-50791500D01*
X115194513Y-50791500D01*
X115188061Y-50792872D01*
X115188056Y-50792872D01*
X115101112Y-50811353D01*
X115007712Y-50831206D01*
X115001682Y-50833891D01*
X115001681Y-50833891D01*
X114839278Y-50906197D01*
X114839276Y-50906198D01*
X114833248Y-50908882D01*
X114678747Y-51021134D01*
X114674326Y-51026044D01*
X114674325Y-51026045D01*
X114621281Y-51084957D01*
X114550960Y-51163056D01*
X114455473Y-51328444D01*
X114396458Y-51510072D01*
X114376496Y-51700000D01*
X114377186Y-51706565D01*
X114382280Y-51755027D01*
X114396458Y-51889928D01*
X114455473Y-52071556D01*
X114550960Y-52236944D01*
X114678747Y-52378866D01*
X114833248Y-52491118D01*
X114839276Y-52493802D01*
X114839278Y-52493803D01*
X114998456Y-52564673D01*
X115007712Y-52568794D01*
X115174138Y-52604169D01*
X115236611Y-52637897D01*
X115270933Y-52700047D01*
X115273251Y-52740586D01*
X115256496Y-52900000D01*
X115276458Y-53089928D01*
X115335473Y-53271556D01*
X115430960Y-53436944D01*
X115558747Y-53578866D01*
X115612126Y-53617648D01*
X115691521Y-53675332D01*
X115713248Y-53691118D01*
X115719276Y-53693802D01*
X115719278Y-53693803D01*
X115865743Y-53759013D01*
X115887712Y-53768794D01*
X115981113Y-53788647D01*
X116068056Y-53807128D01*
X116068061Y-53807128D01*
X116074513Y-53808500D01*
X116265487Y-53808500D01*
X116271939Y-53807128D01*
X116271944Y-53807128D01*
X116358887Y-53788647D01*
X116452288Y-53768794D01*
X116518324Y-53739393D01*
X116569573Y-53728500D01*
X117476001Y-53728500D01*
X117544122Y-53748502D01*
X117590615Y-53802158D01*
X117602001Y-53854500D01*
X117602001Y-53964669D01*
X117602371Y-53971490D01*
X117607895Y-54022352D01*
X117611521Y-54037604D01*
X117644573Y-54125770D01*
X117649756Y-54196578D01*
X117644573Y-54214230D01*
X117611522Y-54302394D01*
X117607895Y-54317649D01*
X117602369Y-54368514D01*
X117602000Y-54375328D01*
X117602000Y-54385500D01*
X117581998Y-54453621D01*
X117528342Y-54500114D01*
X117476000Y-54511500D01*
X116978927Y-54511500D01*
X116970358Y-54511208D01*
X116920225Y-54507790D01*
X116920221Y-54507790D01*
X116912648Y-54507274D01*
X116849681Y-54518264D01*
X116843169Y-54519224D01*
X116779758Y-54526898D01*
X116772657Y-54529581D01*
X116770048Y-54530222D01*
X116753728Y-54534687D01*
X116751195Y-54535452D01*
X116743717Y-54536757D01*
X116685190Y-54562448D01*
X116679108Y-54564930D01*
X116658753Y-54572622D01*
X116626449Y-54584828D01*
X116626447Y-54584829D01*
X116619344Y-54587513D01*
X116613085Y-54591814D01*
X116610720Y-54593051D01*
X116595948Y-54601273D01*
X116593656Y-54602628D01*
X116586695Y-54605684D01*
X116580668Y-54610309D01*
X116580664Y-54610311D01*
X116535987Y-54644593D01*
X116530662Y-54648462D01*
X116478019Y-54684643D01*
X116472967Y-54690313D01*
X116472966Y-54690314D01*
X116436572Y-54731162D01*
X116431591Y-54736438D01*
X116403466Y-54764563D01*
X116340568Y-54798715D01*
X116287895Y-54809911D01*
X116187712Y-54831206D01*
X116181682Y-54833891D01*
X116181681Y-54833891D01*
X116019278Y-54906197D01*
X116019276Y-54906198D01*
X116013248Y-54908882D01*
X116007907Y-54912762D01*
X116007906Y-54912763D01*
X115995396Y-54921852D01*
X115858747Y-55021134D01*
X115854326Y-55026044D01*
X115854325Y-55026045D01*
X115784846Y-55103210D01*
X115730960Y-55163056D01*
X115635473Y-55328444D01*
X115576458Y-55510072D01*
X115556496Y-55700000D01*
X115576458Y-55889928D01*
X115635473Y-56071556D01*
X115730960Y-56236944D01*
X115735378Y-56241851D01*
X115735379Y-56241852D01*
X115834698Y-56352157D01*
X115858747Y-56378866D01*
X116013248Y-56491118D01*
X116019276Y-56493802D01*
X116019278Y-56493803D01*
X116129903Y-56543056D01*
X116187712Y-56568794D01*
X116281112Y-56588647D01*
X116368056Y-56607128D01*
X116368061Y-56607128D01*
X116374513Y-56608500D01*
X116435856Y-56608500D01*
X116487705Y-56619663D01*
X116501353Y-56625825D01*
X116508825Y-56627210D01*
X116511392Y-56628014D01*
X116527615Y-56632635D01*
X116530207Y-56633300D01*
X116537289Y-56636062D01*
X116544824Y-56637054D01*
X116600641Y-56644402D01*
X116607157Y-56645434D01*
X116616335Y-56647135D01*
X116669966Y-56657075D01*
X116677546Y-56656638D01*
X116677547Y-56656638D01*
X116732160Y-56653489D01*
X116739413Y-56653280D01*
X117648521Y-56653280D01*
X117716642Y-56673282D01*
X117763135Y-56726938D01*
X117773239Y-56797212D01*
X117746197Y-56856422D01*
X117747096Y-56857096D01*
X117744008Y-56861217D01*
X117743745Y-56861792D01*
X117742881Y-56862720D01*
X117665214Y-56966351D01*
X117656676Y-56981946D01*
X117611522Y-57102394D01*
X117607895Y-57117649D01*
X117602369Y-57168514D01*
X117602000Y-57175327D01*
X117602001Y-57464668D01*
X117602371Y-57471490D01*
X117607895Y-57522352D01*
X117611521Y-57537604D01*
X117656676Y-57658054D01*
X117665214Y-57673649D01*
X117741715Y-57775724D01*
X117754276Y-57788285D01*
X117856351Y-57864786D01*
X117871946Y-57873324D01*
X117992394Y-57918478D01*
X118007649Y-57922105D01*
X118058514Y-57927631D01*
X118065328Y-57928000D01*
X120154669Y-57927999D01*
X120161490Y-57927629D01*
X120212352Y-57922105D01*
X120227604Y-57918479D01*
X120348054Y-57873324D01*
X120363649Y-57864786D01*
X120465724Y-57788285D01*
X120478285Y-57775724D01*
X120554786Y-57673649D01*
X120563324Y-57658054D01*
X120608478Y-57537606D01*
X120612105Y-57522351D01*
X120617631Y-57471486D01*
X120618000Y-57464672D01*
X120617999Y-57318093D01*
X120638001Y-57249972D01*
X120695780Y-57201683D01*
X120816876Y-57151524D01*
X120861023Y-57117649D01*
X120910087Y-57080000D01*
X125106496Y-57080000D01*
X125107186Y-57086565D01*
X125124361Y-57249972D01*
X125126458Y-57269928D01*
X125185473Y-57451556D01*
X125188776Y-57457278D01*
X125188777Y-57457279D01*
X125196982Y-57471490D01*
X125280960Y-57616944D01*
X125285378Y-57621851D01*
X125285379Y-57621852D01*
X125332017Y-57673649D01*
X125408747Y-57758866D01*
X125507843Y-57830864D01*
X125548912Y-57860702D01*
X125563248Y-57871118D01*
X125569276Y-57873802D01*
X125569278Y-57873803D01*
X125731681Y-57946109D01*
X125737712Y-57948794D01*
X125803365Y-57962749D01*
X125918056Y-57987128D01*
X125918061Y-57987128D01*
X125924513Y-57988500D01*
X126115487Y-57988500D01*
X126121939Y-57987128D01*
X126121944Y-57987128D01*
X126236635Y-57962749D01*
X126302288Y-57948794D01*
X126308319Y-57946109D01*
X126470722Y-57873803D01*
X126470724Y-57873802D01*
X126476752Y-57871118D01*
X126491089Y-57860702D01*
X126532157Y-57830864D01*
X126631253Y-57758866D01*
X126707983Y-57673649D01*
X126754621Y-57621852D01*
X126754622Y-57621851D01*
X126759040Y-57616944D01*
X126843018Y-57471490D01*
X126851223Y-57457279D01*
X126851224Y-57457278D01*
X126854527Y-57451556D01*
X126913542Y-57269928D01*
X126915640Y-57249972D01*
X126932814Y-57086565D01*
X126933504Y-57080000D01*
X126913542Y-56890072D01*
X126854527Y-56708444D01*
X126759040Y-56543056D01*
X126714693Y-56493803D01*
X126635675Y-56406045D01*
X126635674Y-56406044D01*
X126631253Y-56401134D01*
X126476752Y-56288882D01*
X126470724Y-56286198D01*
X126470722Y-56286197D01*
X126308319Y-56213891D01*
X126308318Y-56213891D01*
X126302288Y-56211206D01*
X126208888Y-56191353D01*
X126121944Y-56172872D01*
X126121939Y-56172872D01*
X126115487Y-56171500D01*
X125924513Y-56171500D01*
X125918061Y-56172872D01*
X125918056Y-56172872D01*
X125831113Y-56191353D01*
X125737712Y-56211206D01*
X125731682Y-56213891D01*
X125731681Y-56213891D01*
X125569278Y-56286197D01*
X125569276Y-56286198D01*
X125563248Y-56288882D01*
X125408747Y-56401134D01*
X125404326Y-56406044D01*
X125404325Y-56406045D01*
X125325308Y-56493803D01*
X125280960Y-56543056D01*
X125185473Y-56708444D01*
X125126458Y-56890072D01*
X125106496Y-57080000D01*
X120910087Y-57080000D01*
X120912072Y-57078477D01*
X120912075Y-57078474D01*
X120937434Y-57059015D01*
X120943987Y-57053987D01*
X120949017Y-57047432D01*
X120963452Y-57028621D01*
X120974319Y-57016230D01*
X124206234Y-53784315D01*
X124218625Y-53773448D01*
X124237437Y-53759013D01*
X124243987Y-53753987D01*
X124268474Y-53722075D01*
X124268478Y-53722071D01*
X124341524Y-53626876D01*
X124402838Y-53478851D01*
X124408355Y-53436944D01*
X124409680Y-53426878D01*
X124409680Y-53426876D01*
X124418500Y-53359885D01*
X124418500Y-53359880D01*
X124422672Y-53328189D01*
X124423750Y-53320000D01*
X124419578Y-53288307D01*
X124418500Y-53271864D01*
X124418500Y-43464239D01*
X124438502Y-43396118D01*
X124455405Y-43375144D01*
X124475144Y-43355405D01*
X124537456Y-43321379D01*
X124564239Y-43318500D01*
X124655487Y-43318500D01*
X124661939Y-43317128D01*
X124661944Y-43317128D01*
X124776569Y-43292763D01*
X124842288Y-43278794D01*
X124854325Y-43273435D01*
X125010722Y-43203803D01*
X125010724Y-43203802D01*
X125016752Y-43201118D01*
X125029729Y-43191690D01*
X125119365Y-43126565D01*
X125171253Y-43088866D01*
X125185654Y-43072872D01*
X125294621Y-42951852D01*
X125294622Y-42951851D01*
X125299040Y-42946944D01*
X125383018Y-42801490D01*
X125391223Y-42787279D01*
X125391224Y-42787278D01*
X125394527Y-42781556D01*
X125453542Y-42599928D01*
X125454715Y-42588774D01*
X125472814Y-42416565D01*
X125473504Y-42410000D01*
X125453542Y-42220072D01*
X125394527Y-42038444D01*
X125299040Y-41873056D01*
X125265337Y-41835625D01*
X125232189Y-41798810D01*
X125201471Y-41734803D01*
X125210236Y-41664349D01*
X125255699Y-41609818D01*
X125325825Y-41588500D01*
X136216000Y-41588500D01*
X136284121Y-41608502D01*
X136330614Y-41662158D01*
X136342000Y-41714500D01*
X136342000Y-41977885D01*
X136346475Y-41993124D01*
X136347865Y-41994329D01*
X136355548Y-41996000D01*
X138339884Y-41996000D01*
X138355123Y-41991525D01*
X138356328Y-41990135D01*
X138357999Y-41982452D01*
X138357999Y-41705331D01*
X138357629Y-41698510D01*
X138352105Y-41647648D01*
X138348479Y-41632396D01*
X138303324Y-41511946D01*
X138290478Y-41488483D01*
X138292602Y-41487320D01*
X138272313Y-41433007D01*
X138278429Y-41384183D01*
X138301987Y-41313365D01*
X138338197Y-41204513D01*
X138362985Y-41008295D01*
X138363380Y-40980000D01*
X138344080Y-40783167D01*
X138286916Y-40593831D01*
X138194066Y-40419204D01*
X138190167Y-40414424D01*
X138189715Y-40413743D01*
X138168676Y-40345935D01*
X138185105Y-40281775D01*
X138192923Y-40268014D01*
X138218567Y-40222872D01*
X138272723Y-40127542D01*
X138272725Y-40127537D01*
X138275769Y-40122179D01*
X138338197Y-39934513D01*
X138362985Y-39738295D01*
X138363380Y-39710000D01*
X138344080Y-39513167D01*
X138286916Y-39323831D01*
X138194066Y-39149204D01*
X138190167Y-39144424D01*
X138189715Y-39143743D01*
X138168676Y-39075935D01*
X138185105Y-39011775D01*
X138272723Y-38857542D01*
X138272725Y-38857537D01*
X138275769Y-38852179D01*
X138338197Y-38664513D01*
X138362985Y-38468295D01*
X138363380Y-38440000D01*
X138344080Y-38243167D01*
X138286916Y-38053831D01*
X138194066Y-37879204D01*
X138190167Y-37874424D01*
X138189715Y-37873743D01*
X138168676Y-37805935D01*
X138185105Y-37741775D01*
X138194316Y-37725562D01*
X138228010Y-37666250D01*
X138272723Y-37587542D01*
X138272725Y-37587537D01*
X138275769Y-37582179D01*
X138338197Y-37394513D01*
X138362985Y-37198295D01*
X138363380Y-37170000D01*
X138344080Y-36973167D01*
X138334934Y-36942872D01*
X138288697Y-36789731D01*
X138286916Y-36783831D01*
X138194066Y-36609204D01*
X138123709Y-36522938D01*
X138072960Y-36460713D01*
X138072957Y-36460710D01*
X138069065Y-36455938D01*
X138057014Y-36445968D01*
X138014847Y-36411085D01*
X137975108Y-36352251D01*
X137973486Y-36281273D01*
X138010496Y-36220686D01*
X138074386Y-36189725D01*
X138095162Y-36188000D01*
X138761000Y-36188000D01*
X138829121Y-36208002D01*
X138875614Y-36261658D01*
X138887000Y-36314000D01*
X138887000Y-65046000D01*
X138866998Y-65114121D01*
X138813342Y-65160614D01*
X138761000Y-65172000D01*
X132911110Y-65172000D01*
X132842989Y-65151998D01*
X132796496Y-65098342D01*
X132786392Y-65028068D01*
X132786992Y-65024698D01*
X132788542Y-65019928D01*
X132789231Y-65013373D01*
X132789232Y-65013368D01*
X132807814Y-64836565D01*
X132808504Y-64830000D01*
X132788542Y-64640072D01*
X132774979Y-64598329D01*
X132772951Y-64527363D01*
X132809614Y-64466565D01*
X132843563Y-64444287D01*
X132945722Y-64398803D01*
X132945724Y-64398802D01*
X132951752Y-64396118D01*
X133106253Y-64283866D01*
X133196155Y-64184020D01*
X133229621Y-64146852D01*
X133229622Y-64146851D01*
X133234040Y-64141944D01*
X133329527Y-63976556D01*
X133388542Y-63794928D01*
X133390307Y-63778134D01*
X135811500Y-63778134D01*
X135818255Y-63840316D01*
X135869385Y-63976705D01*
X135956739Y-64093261D01*
X136073295Y-64180615D01*
X136209684Y-64231745D01*
X136271866Y-64238500D01*
X138068134Y-64238500D01*
X138130316Y-64231745D01*
X138266705Y-64180615D01*
X138383261Y-64093261D01*
X138470615Y-63976705D01*
X138521745Y-63840316D01*
X138528500Y-63778134D01*
X138528500Y-61981866D01*
X138521745Y-61919684D01*
X138470615Y-61783295D01*
X138383261Y-61666739D01*
X138266705Y-61579385D01*
X138196473Y-61553056D01*
X138147687Y-61534767D01*
X138090923Y-61492125D01*
X138066223Y-61425564D01*
X138081430Y-61356215D01*
X138102977Y-61327535D01*
X138204052Y-61226812D01*
X138210730Y-61218965D01*
X138335003Y-61046020D01*
X138340313Y-61037183D01*
X138434670Y-60846267D01*
X138438469Y-60836672D01*
X138500377Y-60632910D01*
X138502555Y-60622837D01*
X138503986Y-60611962D01*
X138501775Y-60597778D01*
X138488617Y-60594000D01*
X135853225Y-60594000D01*
X135839694Y-60597973D01*
X135838257Y-60607966D01*
X135868565Y-60742446D01*
X135871645Y-60752275D01*
X135951770Y-60949603D01*
X135956413Y-60958794D01*
X136067694Y-61140388D01*
X136073777Y-61148699D01*
X136213213Y-61309667D01*
X136220577Y-61316879D01*
X136225522Y-61320985D01*
X136265156Y-61379889D01*
X136266653Y-61450870D01*
X136229537Y-61511392D01*
X136189264Y-61535910D01*
X136081705Y-61576232D01*
X136081704Y-61576233D01*
X136073295Y-61579385D01*
X135956739Y-61666739D01*
X135869385Y-61783295D01*
X135818255Y-61919684D01*
X135811500Y-61981866D01*
X135811500Y-63778134D01*
X133390307Y-63778134D01*
X133400549Y-63680684D01*
X133427562Y-63615028D01*
X133485783Y-63574398D01*
X133499662Y-63570608D01*
X133508397Y-63568751D01*
X133602288Y-63548794D01*
X133608319Y-63546109D01*
X133770722Y-63473803D01*
X133770724Y-63473802D01*
X133776752Y-63471118D01*
X133931253Y-63358866D01*
X133986558Y-63297444D01*
X134054621Y-63221852D01*
X134054622Y-63221851D01*
X134059040Y-63216944D01*
X134141333Y-63074409D01*
X134151223Y-63057279D01*
X134151224Y-63057278D01*
X134154527Y-63051556D01*
X134213542Y-62869928D01*
X134233504Y-62680000D01*
X134227327Y-62621226D01*
X134214233Y-62496642D01*
X134214232Y-62496638D01*
X134213542Y-62490072D01*
X134208733Y-62475271D01*
X134206750Y-62469167D01*
X134204724Y-62398199D01*
X134232948Y-62345922D01*
X134254621Y-62321852D01*
X134254622Y-62321851D01*
X134259040Y-62316944D01*
X134303505Y-62239928D01*
X134351223Y-62157279D01*
X134351224Y-62157278D01*
X134354527Y-62151556D01*
X134413542Y-61969928D01*
X134415442Y-61951857D01*
X134432814Y-61786565D01*
X134433504Y-61780000D01*
X134421600Y-61666739D01*
X134414232Y-61596635D01*
X134414232Y-61596633D01*
X134413542Y-61590072D01*
X134354527Y-61408444D01*
X134259040Y-61243056D01*
X134237349Y-61218965D01*
X134135675Y-61106045D01*
X134135674Y-61106044D01*
X134131253Y-61101134D01*
X133976752Y-60988882D01*
X133970724Y-60986198D01*
X133970722Y-60986197D01*
X133808319Y-60913891D01*
X133808318Y-60913891D01*
X133802288Y-60911206D01*
X133708887Y-60891353D01*
X133621944Y-60872872D01*
X133621939Y-60872872D01*
X133615487Y-60871500D01*
X133424513Y-60871500D01*
X133418061Y-60872872D01*
X133418056Y-60872872D01*
X133331113Y-60891353D01*
X133237712Y-60911206D01*
X133231682Y-60913891D01*
X133231681Y-60913891D01*
X133069278Y-60986197D01*
X133069276Y-60986198D01*
X133063248Y-60988882D01*
X133057907Y-60992762D01*
X133057906Y-60992763D01*
X132983971Y-61046480D01*
X132908747Y-61101134D01*
X132904334Y-61106036D01*
X132904332Y-61106037D01*
X132882926Y-61129811D01*
X132822480Y-61167050D01*
X132789290Y-61171500D01*
X131724239Y-61171500D01*
X131656118Y-61151498D01*
X131635144Y-61134595D01*
X130764915Y-60264366D01*
X130730889Y-60202054D01*
X130728010Y-60175271D01*
X130728010Y-60074183D01*
X135834389Y-60074183D01*
X135835912Y-60082607D01*
X135848292Y-60086000D01*
X136897885Y-60086000D01*
X136913124Y-60081525D01*
X136914329Y-60080135D01*
X136916000Y-60072452D01*
X136916000Y-60067885D01*
X137424000Y-60067885D01*
X137428475Y-60083124D01*
X137429865Y-60084329D01*
X137437548Y-60086000D01*
X138488344Y-60086000D01*
X138501875Y-60082027D01*
X138503180Y-60072947D01*
X138461214Y-59905875D01*
X138457894Y-59896124D01*
X138372972Y-59700814D01*
X138368105Y-59691739D01*
X138252426Y-59512926D01*
X138246136Y-59504757D01*
X138102806Y-59347240D01*
X138095273Y-59340215D01*
X137928139Y-59208222D01*
X137919552Y-59202517D01*
X137733117Y-59099599D01*
X137723705Y-59095369D01*
X137522959Y-59024280D01*
X137512988Y-59021646D01*
X137441837Y-59008972D01*
X137428540Y-59010432D01*
X137424000Y-59024989D01*
X137424000Y-60067885D01*
X136916000Y-60067885D01*
X136916000Y-59023102D01*
X136912082Y-59009758D01*
X136897806Y-59007771D01*
X136859324Y-59013660D01*
X136849288Y-59016051D01*
X136646868Y-59082212D01*
X136637359Y-59086209D01*
X136448463Y-59184542D01*
X136439738Y-59190036D01*
X136269433Y-59317905D01*
X136261726Y-59324748D01*
X136114590Y-59478717D01*
X136108104Y-59486727D01*
X135988098Y-59662649D01*
X135983000Y-59671623D01*
X135893338Y-59864783D01*
X135889775Y-59874470D01*
X135834389Y-60074183D01*
X130728010Y-60074183D01*
X130728010Y-57975316D01*
X130748012Y-57907195D01*
X130801668Y-57860702D01*
X130871942Y-57850598D01*
X130936522Y-57880092D01*
X130947635Y-57890995D01*
X131008747Y-57958866D01*
X131163248Y-58071118D01*
X131169276Y-58073802D01*
X131169278Y-58073803D01*
X131331681Y-58146109D01*
X131337712Y-58148794D01*
X131431112Y-58168647D01*
X131518056Y-58187128D01*
X131518061Y-58187128D01*
X131524513Y-58188500D01*
X131715487Y-58188500D01*
X131721939Y-58187128D01*
X131721944Y-58187128D01*
X131808888Y-58168647D01*
X131902288Y-58148794D01*
X131908319Y-58146109D01*
X132070722Y-58073803D01*
X132070724Y-58073802D01*
X132076752Y-58071118D01*
X132231253Y-57958866D01*
X132240322Y-57948794D01*
X132354621Y-57821852D01*
X132354622Y-57821851D01*
X132359040Y-57816944D01*
X132441772Y-57673649D01*
X132451223Y-57657279D01*
X132451224Y-57657278D01*
X132454527Y-57651556D01*
X132513542Y-57469928D01*
X132514872Y-57457279D01*
X132532814Y-57286565D01*
X132533504Y-57280000D01*
X132528691Y-57234207D01*
X132528001Y-57221037D01*
X132528001Y-57195366D01*
X132528002Y-57194926D01*
X132528347Y-57096163D01*
X132528347Y-57096157D01*
X132528359Y-57092629D01*
X132528090Y-57091426D01*
X132528001Y-57089782D01*
X132528001Y-55988468D01*
X134053221Y-55988468D01*
X134056405Y-56003444D01*
X134060462Y-56015932D01*
X134134863Y-56183039D01*
X134141429Y-56194411D01*
X134248944Y-56342394D01*
X134257735Y-56352157D01*
X134393672Y-56474554D01*
X134404291Y-56482270D01*
X134562711Y-56573734D01*
X134574700Y-56579072D01*
X134748671Y-56635598D01*
X134761514Y-56638328D01*
X134897838Y-56652656D01*
X134904397Y-56653000D01*
X135177885Y-56653000D01*
X135193124Y-56648525D01*
X135194329Y-56647135D01*
X135196000Y-56639452D01*
X135196000Y-56634885D01*
X135704000Y-56634885D01*
X135708475Y-56650124D01*
X135709865Y-56651329D01*
X135717548Y-56653000D01*
X135995603Y-56653000D01*
X136002162Y-56652656D01*
X136138486Y-56638328D01*
X136151329Y-56635598D01*
X136325300Y-56579072D01*
X136337289Y-56573734D01*
X136495709Y-56482270D01*
X136506328Y-56474554D01*
X136642265Y-56352157D01*
X136651056Y-56342394D01*
X136758571Y-56194412D01*
X136765137Y-56183040D01*
X136839538Y-56015932D01*
X136843595Y-56003444D01*
X136846088Y-55991720D01*
X136845015Y-55977659D01*
X136835059Y-55974000D01*
X135722115Y-55974000D01*
X135706876Y-55978475D01*
X135705671Y-55979865D01*
X135704000Y-55987548D01*
X135704000Y-56634885D01*
X135196000Y-56634885D01*
X135196000Y-55992115D01*
X135191525Y-55976876D01*
X135190135Y-55975671D01*
X135182452Y-55974000D01*
X134068261Y-55974000D01*
X134054730Y-55977973D01*
X134053221Y-55988468D01*
X132528001Y-55988468D01*
X132528001Y-55448280D01*
X134053912Y-55448280D01*
X134054985Y-55462341D01*
X134064941Y-55466000D01*
X135177885Y-55466000D01*
X135193124Y-55461525D01*
X135194329Y-55460135D01*
X135196000Y-55452452D01*
X135196000Y-55447885D01*
X135704000Y-55447885D01*
X135708475Y-55463124D01*
X135709865Y-55464329D01*
X135717548Y-55466000D01*
X136831739Y-55466000D01*
X136845270Y-55462027D01*
X136846779Y-55451532D01*
X136843595Y-55436556D01*
X136839538Y-55424068D01*
X136765137Y-55256961D01*
X136758571Y-55245589D01*
X136651056Y-55097606D01*
X136642265Y-55087843D01*
X136506328Y-54965446D01*
X136495709Y-54957730D01*
X136337289Y-54866266D01*
X136325300Y-54860928D01*
X136151329Y-54804402D01*
X136138486Y-54801672D01*
X136002162Y-54787344D01*
X135995603Y-54787000D01*
X135722115Y-54787000D01*
X135706876Y-54791475D01*
X135705671Y-54792865D01*
X135704000Y-54800548D01*
X135704000Y-55447885D01*
X135196000Y-55447885D01*
X135196000Y-54805115D01*
X135191525Y-54789876D01*
X135190135Y-54788671D01*
X135182452Y-54787000D01*
X134904397Y-54787000D01*
X134897838Y-54787344D01*
X134761514Y-54801672D01*
X134748671Y-54804402D01*
X134574700Y-54860928D01*
X134562711Y-54866266D01*
X134404291Y-54957730D01*
X134393672Y-54965446D01*
X134257735Y-55087843D01*
X134248944Y-55097606D01*
X134141429Y-55245588D01*
X134134863Y-55256960D01*
X134060462Y-55424068D01*
X134056405Y-55436556D01*
X134053912Y-55448280D01*
X132528001Y-55448280D01*
X132528001Y-47348468D01*
X134053221Y-47348468D01*
X134056405Y-47363444D01*
X134060462Y-47375932D01*
X134134863Y-47543039D01*
X134141429Y-47554411D01*
X134248944Y-47702394D01*
X134257735Y-47712157D01*
X134393672Y-47834554D01*
X134404291Y-47842270D01*
X134562711Y-47933734D01*
X134574700Y-47939072D01*
X134748671Y-47995598D01*
X134761514Y-47998328D01*
X134897838Y-48012656D01*
X134904397Y-48013000D01*
X135177885Y-48013000D01*
X135193124Y-48008525D01*
X135194329Y-48007135D01*
X135196000Y-47999452D01*
X135196000Y-47994885D01*
X135704000Y-47994885D01*
X135708475Y-48010124D01*
X135709865Y-48011329D01*
X135717548Y-48013000D01*
X135995603Y-48013000D01*
X136002162Y-48012656D01*
X136138486Y-47998328D01*
X136151329Y-47995598D01*
X136325300Y-47939072D01*
X136337289Y-47933734D01*
X136495709Y-47842270D01*
X136506328Y-47834554D01*
X136642265Y-47712157D01*
X136651056Y-47702394D01*
X136758571Y-47554412D01*
X136765137Y-47543040D01*
X136839538Y-47375932D01*
X136843595Y-47363444D01*
X136846088Y-47351720D01*
X136845015Y-47337659D01*
X136835059Y-47334000D01*
X135722115Y-47334000D01*
X135706876Y-47338475D01*
X135705671Y-47339865D01*
X135704000Y-47347548D01*
X135704000Y-47994885D01*
X135196000Y-47994885D01*
X135196000Y-47352115D01*
X135191525Y-47336876D01*
X135190135Y-47335671D01*
X135182452Y-47334000D01*
X134068261Y-47334000D01*
X134054730Y-47337973D01*
X134053221Y-47348468D01*
X132528001Y-47348468D01*
X132528001Y-46808280D01*
X134053912Y-46808280D01*
X134054985Y-46822341D01*
X134064941Y-46826000D01*
X135177885Y-46826000D01*
X135193124Y-46821525D01*
X135194329Y-46820135D01*
X135196000Y-46812452D01*
X135196000Y-46807885D01*
X135704000Y-46807885D01*
X135708475Y-46823124D01*
X135709865Y-46824329D01*
X135717548Y-46826000D01*
X136831739Y-46826000D01*
X136845270Y-46822027D01*
X136846779Y-46811532D01*
X136843595Y-46796556D01*
X136839538Y-46784068D01*
X136765137Y-46616961D01*
X136758571Y-46605589D01*
X136651056Y-46457606D01*
X136642265Y-46447843D01*
X136506328Y-46325446D01*
X136495709Y-46317730D01*
X136337289Y-46226266D01*
X136325300Y-46220928D01*
X136151329Y-46164402D01*
X136138486Y-46161672D01*
X136002162Y-46147344D01*
X135995603Y-46147000D01*
X135722115Y-46147000D01*
X135706876Y-46151475D01*
X135705671Y-46152865D01*
X135704000Y-46160548D01*
X135704000Y-46807885D01*
X135196000Y-46807885D01*
X135196000Y-46165115D01*
X135191525Y-46149876D01*
X135190135Y-46148671D01*
X135182452Y-46147000D01*
X134904397Y-46147000D01*
X134897838Y-46147344D01*
X134761514Y-46161672D01*
X134748671Y-46164402D01*
X134574700Y-46220928D01*
X134562711Y-46226266D01*
X134404291Y-46317730D01*
X134393672Y-46325446D01*
X134257735Y-46447843D01*
X134248944Y-46457606D01*
X134141429Y-46605588D01*
X134134863Y-46616960D01*
X134060462Y-46784068D01*
X134056405Y-46796556D01*
X134053912Y-46808280D01*
X132528001Y-46808280D01*
X132528001Y-43388761D01*
X132528008Y-43387442D01*
X132528587Y-43332136D01*
X132529270Y-43320284D01*
X132532814Y-43286565D01*
X132533504Y-43280000D01*
X132525951Y-43208136D01*
X132514232Y-43096635D01*
X132514232Y-43096633D01*
X132513542Y-43090072D01*
X132454527Y-42908444D01*
X132388839Y-42794669D01*
X136342001Y-42794669D01*
X136342371Y-42801490D01*
X136347895Y-42852352D01*
X136351521Y-42867604D01*
X136396676Y-42988054D01*
X136405214Y-43003649D01*
X136481715Y-43105724D01*
X136494276Y-43118285D01*
X136596351Y-43194786D01*
X136611946Y-43203324D01*
X136732394Y-43248478D01*
X136747649Y-43252105D01*
X136798514Y-43257631D01*
X136805328Y-43258000D01*
X137077885Y-43258000D01*
X137093124Y-43253525D01*
X137094329Y-43252135D01*
X137096000Y-43244452D01*
X137096000Y-43239884D01*
X137604000Y-43239884D01*
X137608475Y-43255123D01*
X137609865Y-43256328D01*
X137617548Y-43257999D01*
X137894669Y-43257999D01*
X137901490Y-43257629D01*
X137952352Y-43252105D01*
X137967604Y-43248479D01*
X138088054Y-43203324D01*
X138103649Y-43194786D01*
X138205724Y-43118285D01*
X138218285Y-43105724D01*
X138294786Y-43003649D01*
X138303324Y-42988054D01*
X138348478Y-42867606D01*
X138352105Y-42852351D01*
X138357631Y-42801486D01*
X138358000Y-42794672D01*
X138358000Y-42522115D01*
X138353525Y-42506876D01*
X138352135Y-42505671D01*
X138344452Y-42504000D01*
X137622115Y-42504000D01*
X137606876Y-42508475D01*
X137605671Y-42509865D01*
X137604000Y-42517548D01*
X137604000Y-43239884D01*
X137096000Y-43239884D01*
X137096000Y-42522115D01*
X137091525Y-42506876D01*
X137090135Y-42505671D01*
X137082452Y-42504000D01*
X136360116Y-42504000D01*
X136344877Y-42508475D01*
X136343672Y-42509865D01*
X136342001Y-42517548D01*
X136342001Y-42794669D01*
X132388839Y-42794669D01*
X132359040Y-42743056D01*
X132343695Y-42726013D01*
X132235675Y-42606045D01*
X132235674Y-42606044D01*
X132231253Y-42601134D01*
X132105633Y-42509865D01*
X132082094Y-42492763D01*
X132082093Y-42492762D01*
X132076752Y-42488882D01*
X132070724Y-42486198D01*
X132070722Y-42486197D01*
X131908319Y-42413891D01*
X131908318Y-42413891D01*
X131902288Y-42411206D01*
X131801158Y-42389710D01*
X131721944Y-42372872D01*
X131721939Y-42372872D01*
X131715487Y-42371500D01*
X131524513Y-42371500D01*
X131518061Y-42372872D01*
X131518056Y-42372872D01*
X131438842Y-42389710D01*
X131337712Y-42411206D01*
X131331682Y-42413891D01*
X131331681Y-42413891D01*
X131169278Y-42486197D01*
X131169276Y-42486198D01*
X131163248Y-42488882D01*
X131157907Y-42492762D01*
X131157906Y-42492763D01*
X131134367Y-42509865D01*
X131008747Y-42601134D01*
X131004326Y-42606044D01*
X131004325Y-42606045D01*
X130896306Y-42726013D01*
X130880960Y-42743056D01*
X130785473Y-42908444D01*
X130772964Y-42946944D01*
X130758131Y-42992594D01*
X130718057Y-43051199D01*
X130652660Y-43078836D01*
X130582704Y-43066729D01*
X130554011Y-43046193D01*
X130553497Y-43045523D01*
X130546951Y-43040500D01*
X130546948Y-43040497D01*
X130528131Y-43026058D01*
X130515740Y-43015191D01*
X130469719Y-42969170D01*
X130435693Y-42906858D01*
X130433159Y-42883284D01*
X130433504Y-42880000D01*
X130424536Y-42794672D01*
X130414232Y-42696635D01*
X130414232Y-42696633D01*
X130413542Y-42690072D01*
X130354527Y-42508444D01*
X130259040Y-42343056D01*
X130131253Y-42201134D01*
X129976752Y-42088882D01*
X129970724Y-42086198D01*
X129970722Y-42086197D01*
X129808319Y-42013891D01*
X129808318Y-42013891D01*
X129802288Y-42011206D01*
X129703157Y-41990135D01*
X129621944Y-41972872D01*
X129621939Y-41972872D01*
X129615487Y-41971500D01*
X129424513Y-41971500D01*
X129418061Y-41972872D01*
X129418056Y-41972872D01*
X129336843Y-41990135D01*
X129237712Y-42011206D01*
X129231682Y-42013891D01*
X129231681Y-42013891D01*
X129069278Y-42086197D01*
X129069276Y-42086198D01*
X129063248Y-42088882D01*
X128908747Y-42201134D01*
X128780960Y-42343056D01*
X128685473Y-42508444D01*
X128626458Y-42690072D01*
X128625768Y-42696633D01*
X128625768Y-42696635D01*
X128615464Y-42794672D01*
X128606496Y-42880000D01*
X128607186Y-42886565D01*
X128611996Y-42932330D01*
X128599224Y-43002168D01*
X128550722Y-43054015D01*
X128486686Y-43071500D01*
X128424513Y-43071500D01*
X128418061Y-43072872D01*
X128418056Y-43072872D01*
X128342813Y-43088866D01*
X128237712Y-43111206D01*
X128231682Y-43113891D01*
X128231681Y-43113891D01*
X128069278Y-43186197D01*
X128069276Y-43186198D01*
X128063248Y-43188882D01*
X128057907Y-43192762D01*
X128057906Y-43192763D01*
X128043370Y-43203324D01*
X127908747Y-43301134D01*
X127860033Y-43355236D01*
X127799589Y-43392474D01*
X127728605Y-43391122D01*
X127692338Y-43372860D01*
X127582094Y-43292763D01*
X127582093Y-43292762D01*
X127576752Y-43288882D01*
X127570724Y-43286198D01*
X127570722Y-43286197D01*
X127408319Y-43213891D01*
X127408318Y-43213891D01*
X127402288Y-43211206D01*
X127308887Y-43191353D01*
X127221944Y-43172872D01*
X127221939Y-43172872D01*
X127215487Y-43171500D01*
X127024513Y-43171500D01*
X127018061Y-43172872D01*
X127018056Y-43172872D01*
X126931113Y-43191353D01*
X126837712Y-43211206D01*
X126831682Y-43213891D01*
X126831681Y-43213891D01*
X126669278Y-43286197D01*
X126669276Y-43286198D01*
X126663248Y-43288882D01*
X126657907Y-43292762D01*
X126657906Y-43292763D01*
X126643314Y-43303365D01*
X126508747Y-43401134D01*
X126504326Y-43406044D01*
X126504325Y-43406045D01*
X126430903Y-43487589D01*
X126380960Y-43543056D01*
X126285473Y-43708444D01*
X126226458Y-43890072D01*
X126206496Y-44080000D01*
X126226458Y-44269928D01*
X126285473Y-44451556D01*
X126380960Y-44616944D01*
X126508747Y-44758866D01*
X126663248Y-44871118D01*
X126669276Y-44873802D01*
X126669278Y-44873803D01*
X126831681Y-44946109D01*
X126837712Y-44948794D01*
X126931112Y-44968647D01*
X127018056Y-44987128D01*
X127018061Y-44987128D01*
X127024513Y-44988500D01*
X127115761Y-44988500D01*
X127183882Y-45008502D01*
X127204856Y-45025405D01*
X128574595Y-46395144D01*
X128608621Y-46457456D01*
X128611500Y-46484239D01*
X128611500Y-53350977D01*
X128591498Y-53419098D01*
X128537842Y-53465591D01*
X128511697Y-53474224D01*
X128489929Y-53478851D01*
X128337712Y-53511206D01*
X128331682Y-53513891D01*
X128331681Y-53513891D01*
X128169278Y-53586197D01*
X128169276Y-53586198D01*
X128163248Y-53588882D01*
X128157907Y-53592762D01*
X128157906Y-53592763D01*
X128123655Y-53617648D01*
X128008747Y-53701134D01*
X128004326Y-53706044D01*
X128004325Y-53706045D01*
X127933851Y-53784315D01*
X127880960Y-53843056D01*
X127877659Y-53848774D01*
X127810747Y-53964669D01*
X127785473Y-54008444D01*
X127726458Y-54190072D01*
X127706496Y-54380000D01*
X127707186Y-54386565D01*
X127722972Y-54536757D01*
X127726458Y-54569928D01*
X127785473Y-54751556D01*
X127788776Y-54757278D01*
X127788777Y-54757279D01*
X127805937Y-54787000D01*
X127880960Y-54916944D01*
X127885378Y-54921851D01*
X127885379Y-54921852D01*
X127979136Y-55025980D01*
X128009854Y-55089987D01*
X128011500Y-55110290D01*
X128011500Y-58275761D01*
X127991498Y-58343882D01*
X127974595Y-58364857D01*
X127604855Y-58734596D01*
X127542543Y-58768621D01*
X127515760Y-58771500D01*
X127424513Y-58771500D01*
X127418061Y-58772872D01*
X127418056Y-58772872D01*
X127353191Y-58786660D01*
X127237712Y-58811206D01*
X127231682Y-58813891D01*
X127231681Y-58813891D01*
X127069278Y-58886197D01*
X127069276Y-58886198D01*
X127063248Y-58888882D01*
X126908747Y-59001134D01*
X126904326Y-59006044D01*
X126904325Y-59006045D01*
X126823898Y-59095369D01*
X126780960Y-59143056D01*
X126685473Y-59308444D01*
X126626458Y-59490072D01*
X126625768Y-59496633D01*
X126625768Y-59496635D01*
X126612393Y-59623893D01*
X126606496Y-59680000D01*
X126626458Y-59869928D01*
X126685473Y-60051556D01*
X126688776Y-60057278D01*
X126688777Y-60057279D01*
X126705359Y-60086000D01*
X126780960Y-60216944D01*
X126785378Y-60221851D01*
X126785379Y-60221852D01*
X126894118Y-60342619D01*
X126908747Y-60358866D01*
X126926815Y-60371993D01*
X127054957Y-60465094D01*
X127063248Y-60471118D01*
X127069276Y-60473802D01*
X127069278Y-60473803D01*
X127231681Y-60546109D01*
X127237712Y-60548794D01*
X127331112Y-60568647D01*
X127418056Y-60587128D01*
X127418061Y-60587128D01*
X127424513Y-60588500D01*
X127615487Y-60588500D01*
X127621939Y-60587128D01*
X127621944Y-60587128D01*
X127708888Y-60568647D01*
X127802288Y-60548794D01*
X127808319Y-60546109D01*
X127970722Y-60473803D01*
X127970724Y-60473802D01*
X127976752Y-60471118D01*
X127985044Y-60465094D01*
X128113185Y-60371993D01*
X128131253Y-60358866D01*
X128145882Y-60342619D01*
X128254621Y-60221852D01*
X128254622Y-60221851D01*
X128259040Y-60216944D01*
X128334641Y-60086000D01*
X128351223Y-60057279D01*
X128351224Y-60057278D01*
X128354527Y-60051556D01*
X128365668Y-60017269D01*
X128405741Y-59958665D01*
X128471138Y-59931028D01*
X128541094Y-59943135D01*
X128593400Y-59991141D01*
X128611500Y-60056207D01*
X128611500Y-60831864D01*
X128610422Y-60848307D01*
X128606250Y-60880000D01*
X128611500Y-60919880D01*
X128611500Y-60919885D01*
X128613496Y-60935041D01*
X128616322Y-60956508D01*
X128616322Y-60956510D01*
X128624336Y-61017381D01*
X128627162Y-61038851D01*
X128688476Y-61186876D01*
X128693503Y-61193427D01*
X128693504Y-61193429D01*
X128761520Y-61282069D01*
X128761526Y-61282075D01*
X128786013Y-61313987D01*
X128792568Y-61319017D01*
X128811379Y-61333452D01*
X128823770Y-61344319D01*
X128863052Y-61383601D01*
X128897078Y-61445913D01*
X128892013Y-61516728D01*
X128849466Y-61573564D01*
X128835044Y-61582898D01*
X128775729Y-61615777D01*
X128775726Y-61615779D01*
X128770150Y-61618870D01*
X128765309Y-61623019D01*
X128765305Y-61623022D01*
X128698037Y-61680678D01*
X128622302Y-61745591D01*
X128618391Y-61750633D01*
X128618390Y-61750634D01*
X128593056Y-61783295D01*
X128502954Y-61899453D01*
X128500138Y-61905176D01*
X128500136Y-61905179D01*
X128449572Y-62007940D01*
X128416982Y-62074171D01*
X128415373Y-62080349D01*
X128415372Y-62080351D01*
X128393477Y-62164409D01*
X128367898Y-62262607D01*
X128357707Y-62457064D01*
X128386825Y-62649599D01*
X128389028Y-62655585D01*
X128389029Y-62655591D01*
X128451860Y-62826360D01*
X128451862Y-62826365D01*
X128454063Y-62832346D01*
X128481897Y-62877237D01*
X128545716Y-62980166D01*
X128556674Y-62997840D01*
X128690466Y-63139322D01*
X128849975Y-63251011D01*
X128855838Y-63253548D01*
X129022825Y-63325810D01*
X129022829Y-63325811D01*
X129028684Y-63328345D01*
X129034931Y-63329650D01*
X129034934Y-63329651D01*
X129214557Y-63367176D01*
X129214562Y-63367177D01*
X129219293Y-63368165D01*
X129225685Y-63368500D01*
X129368663Y-63368500D01*
X129437951Y-63361462D01*
X129507378Y-63354410D01*
X129507379Y-63354410D01*
X129513727Y-63353765D01*
X129594843Y-63328345D01*
X129693451Y-63297444D01*
X129693456Y-63297442D01*
X129699541Y-63295535D01*
X129832467Y-63221852D01*
X129864271Y-63204223D01*
X129864274Y-63204221D01*
X129869850Y-63201130D01*
X129874691Y-63196981D01*
X129874695Y-63196978D01*
X130012855Y-63078560D01*
X130017698Y-63074409D01*
X130030986Y-63057279D01*
X130107378Y-62958794D01*
X130137046Y-62920547D01*
X130146060Y-62902228D01*
X130194082Y-62849936D01*
X130262751Y-62831907D01*
X130330266Y-62853866D01*
X130348211Y-62868760D01*
X131249595Y-63770144D01*
X131283621Y-63832456D01*
X131286500Y-63859239D01*
X131286500Y-64099710D01*
X131266498Y-64167831D01*
X131254136Y-64184020D01*
X131164235Y-64283866D01*
X131155960Y-64293056D01*
X131152659Y-64298774D01*
X131068647Y-64444287D01*
X131060473Y-64458444D01*
X131001458Y-64640072D01*
X130981496Y-64830000D01*
X130982186Y-64836565D01*
X131000768Y-65013368D01*
X131000769Y-65013373D01*
X131001458Y-65019928D01*
X131002000Y-65021597D01*
X130996733Y-65090597D01*
X130953915Y-65147229D01*
X130887277Y-65171721D01*
X130878890Y-65172000D01*
X98129000Y-65172000D01*
X98060879Y-65151998D01*
X98014386Y-65098342D01*
X98003000Y-65046000D01*
X98003000Y-62090000D01*
X105256496Y-62090000D01*
X105257186Y-62096565D01*
X105274638Y-62262607D01*
X105276458Y-62279928D01*
X105335473Y-62461556D01*
X105430960Y-62626944D01*
X105435378Y-62631851D01*
X105435379Y-62631852D01*
X105526227Y-62732749D01*
X105558747Y-62768866D01*
X105579521Y-62783959D01*
X105661889Y-62843803D01*
X105713248Y-62881118D01*
X105719276Y-62883802D01*
X105719278Y-62883803D01*
X105801807Y-62920547D01*
X105887712Y-62958794D01*
X105981112Y-62978647D01*
X106068056Y-62997128D01*
X106068061Y-62997128D01*
X106074513Y-62998500D01*
X106265487Y-62998500D01*
X106271939Y-62997128D01*
X106271944Y-62997128D01*
X106358888Y-62978647D01*
X106452288Y-62958794D01*
X106538193Y-62920547D01*
X106620722Y-62883803D01*
X106620724Y-62883802D01*
X106626752Y-62881118D01*
X106678112Y-62843803D01*
X106760479Y-62783959D01*
X106781253Y-62768866D01*
X106813773Y-62732749D01*
X106904621Y-62631852D01*
X106904622Y-62631851D01*
X106909040Y-62626944D01*
X107004527Y-62461556D01*
X107063542Y-62279928D01*
X107065363Y-62262607D01*
X107082814Y-62096565D01*
X107083504Y-62090000D01*
X107079300Y-62050000D01*
X108356496Y-62050000D01*
X108357186Y-62056565D01*
X108369151Y-62170401D01*
X108376458Y-62239928D01*
X108435473Y-62421556D01*
X108438776Y-62427278D01*
X108438777Y-62427279D01*
X108454938Y-62455271D01*
X108530960Y-62586944D01*
X108535378Y-62591851D01*
X108535379Y-62591852D01*
X108654325Y-62723955D01*
X108658747Y-62728866D01*
X108813248Y-62841118D01*
X108819276Y-62843802D01*
X108819278Y-62843803D01*
X108978788Y-62914821D01*
X108987712Y-62918794D01*
X109081112Y-62938647D01*
X109168056Y-62957128D01*
X109168061Y-62957128D01*
X109174513Y-62958500D01*
X109365487Y-62958500D01*
X109371939Y-62957128D01*
X109371944Y-62957128D01*
X109458888Y-62938647D01*
X109552288Y-62918794D01*
X109561212Y-62914821D01*
X109720722Y-62843803D01*
X109720724Y-62843802D01*
X109726752Y-62841118D01*
X109798671Y-62788866D01*
X109871807Y-62735729D01*
X109881253Y-62728866D01*
X109883862Y-62725969D01*
X109946967Y-62695686D01*
X110017421Y-62704452D01*
X110060901Y-62735728D01*
X110108747Y-62788866D01*
X110263248Y-62901118D01*
X110269276Y-62903802D01*
X110269278Y-62903803D01*
X110431681Y-62976109D01*
X110437712Y-62978794D01*
X110501808Y-62992418D01*
X110618056Y-63017128D01*
X110618061Y-63017128D01*
X110624513Y-63018500D01*
X110815487Y-63018500D01*
X110821939Y-63017128D01*
X110821944Y-63017128D01*
X110938192Y-62992418D01*
X111002288Y-62978794D01*
X111008319Y-62976109D01*
X111170722Y-62903803D01*
X111170724Y-62903802D01*
X111176752Y-62901118D01*
X111331253Y-62788866D01*
X111429276Y-62680000D01*
X111454621Y-62651852D01*
X111454622Y-62651851D01*
X111459040Y-62646944D01*
X111554527Y-62481556D01*
X111562485Y-62457064D01*
X125357707Y-62457064D01*
X125386825Y-62649599D01*
X125389028Y-62655585D01*
X125389029Y-62655591D01*
X125451860Y-62826360D01*
X125451862Y-62826365D01*
X125454063Y-62832346D01*
X125481897Y-62877237D01*
X125545716Y-62980166D01*
X125556674Y-62997840D01*
X125690466Y-63139322D01*
X125849975Y-63251011D01*
X125855838Y-63253548D01*
X126022825Y-63325810D01*
X126022829Y-63325811D01*
X126028684Y-63328345D01*
X126034931Y-63329650D01*
X126034934Y-63329651D01*
X126214557Y-63367176D01*
X126214562Y-63367177D01*
X126219293Y-63368165D01*
X126225685Y-63368500D01*
X126368663Y-63368500D01*
X126437951Y-63361462D01*
X126507378Y-63354410D01*
X126507379Y-63354410D01*
X126513727Y-63353765D01*
X126594843Y-63328345D01*
X126693451Y-63297444D01*
X126693456Y-63297442D01*
X126699541Y-63295535D01*
X126832467Y-63221852D01*
X126864271Y-63204223D01*
X126864274Y-63204221D01*
X126869850Y-63201130D01*
X126874691Y-63196981D01*
X126874695Y-63196978D01*
X127012855Y-63078560D01*
X127017698Y-63074409D01*
X127030986Y-63057279D01*
X127107378Y-62958794D01*
X127137046Y-62920547D01*
X127145286Y-62903803D01*
X127220200Y-62751556D01*
X127223018Y-62745829D01*
X127227437Y-62728866D01*
X127270492Y-62563575D01*
X127270492Y-62563572D01*
X127272102Y-62557393D01*
X127279550Y-62415271D01*
X127281959Y-62369317D01*
X127281959Y-62369313D01*
X127282293Y-62362936D01*
X127253175Y-62170401D01*
X127250972Y-62164415D01*
X127250971Y-62164409D01*
X127188140Y-61993640D01*
X127188138Y-61993635D01*
X127185937Y-61987654D01*
X127083326Y-61822160D01*
X127054525Y-61791703D01*
X126953919Y-61685315D01*
X126949534Y-61680678D01*
X126790025Y-61568989D01*
X126713584Y-61535910D01*
X126617175Y-61494190D01*
X126617171Y-61494189D01*
X126611316Y-61491655D01*
X126605069Y-61490350D01*
X126605066Y-61490349D01*
X126425443Y-61452824D01*
X126425438Y-61452823D01*
X126420707Y-61451835D01*
X126414315Y-61451500D01*
X126271337Y-61451500D01*
X126202049Y-61458538D01*
X126132622Y-61465590D01*
X126132621Y-61465590D01*
X126126273Y-61466235D01*
X126069939Y-61483889D01*
X125946549Y-61522556D01*
X125946544Y-61522558D01*
X125940459Y-61524465D01*
X125888880Y-61553056D01*
X125775729Y-61615777D01*
X125775726Y-61615779D01*
X125770150Y-61618870D01*
X125765309Y-61623019D01*
X125765305Y-61623022D01*
X125698037Y-61680678D01*
X125622302Y-61745591D01*
X125618391Y-61750633D01*
X125618390Y-61750634D01*
X125593056Y-61783295D01*
X125502954Y-61899453D01*
X125500138Y-61905176D01*
X125500136Y-61905179D01*
X125449572Y-62007940D01*
X125416982Y-62074171D01*
X125415373Y-62080349D01*
X125415372Y-62080351D01*
X125393477Y-62164409D01*
X125367898Y-62262607D01*
X125357707Y-62457064D01*
X111562485Y-62457064D01*
X111613542Y-62299928D01*
X111620699Y-62231828D01*
X111647712Y-62166172D01*
X111705933Y-62125542D01*
X111746009Y-62118999D01*
X122430287Y-62118999D01*
X122431607Y-62119006D01*
X122521722Y-62119950D01*
X122564098Y-62110788D01*
X122576664Y-62108730D01*
X122619756Y-62103896D01*
X122626407Y-62101580D01*
X122626411Y-62101579D01*
X122651431Y-62092866D01*
X122666243Y-62088703D01*
X122692120Y-62083108D01*
X122699011Y-62081618D01*
X122738314Y-62063291D01*
X122750090Y-62058509D01*
X122791053Y-62044244D01*
X122797028Y-62040510D01*
X122797031Y-62040509D01*
X122819496Y-62026472D01*
X122833013Y-62019133D01*
X122857015Y-62007940D01*
X122857016Y-62007939D01*
X122863403Y-62004961D01*
X122888772Y-61985283D01*
X122897654Y-61978393D01*
X122908113Y-61971097D01*
X122938905Y-61951857D01*
X122938908Y-61951855D01*
X122944877Y-61948125D01*
X122973680Y-61919523D01*
X122974305Y-61918938D01*
X122974971Y-61918421D01*
X123000959Y-61892433D01*
X123073583Y-61820314D01*
X123074241Y-61819277D01*
X123075344Y-61818048D01*
X123943789Y-60949603D01*
X124821910Y-60071481D01*
X124859756Y-60045469D01*
X125020722Y-59973803D01*
X125020724Y-59973802D01*
X125026752Y-59971118D01*
X125181253Y-59858866D01*
X125291710Y-59736191D01*
X125304621Y-59721852D01*
X125304622Y-59721851D01*
X125309040Y-59716944D01*
X125404527Y-59551556D01*
X125463542Y-59369928D01*
X125483504Y-59180000D01*
X125467212Y-59024989D01*
X125464232Y-58996635D01*
X125464232Y-58996633D01*
X125463542Y-58990072D01*
X125404527Y-58808444D01*
X125383990Y-58772872D01*
X125312341Y-58648774D01*
X125309040Y-58643056D01*
X125181253Y-58501134D01*
X125026752Y-58388882D01*
X125020724Y-58386198D01*
X125020722Y-58386197D01*
X124858319Y-58313891D01*
X124858318Y-58313891D01*
X124852288Y-58311206D01*
X124752715Y-58290041D01*
X124671944Y-58272872D01*
X124671939Y-58272872D01*
X124665487Y-58271500D01*
X124474513Y-58271500D01*
X124468061Y-58272872D01*
X124468056Y-58272872D01*
X124387285Y-58290041D01*
X124287712Y-58311206D01*
X124281682Y-58313891D01*
X124281681Y-58313891D01*
X124119278Y-58386197D01*
X124119276Y-58386198D01*
X124113248Y-58388882D01*
X123958747Y-58501134D01*
X123830960Y-58643056D01*
X123735473Y-58808444D01*
X123733433Y-58814724D01*
X123733432Y-58814725D01*
X123714646Y-58872542D01*
X123683908Y-58922700D01*
X122141514Y-60465094D01*
X122079202Y-60499120D01*
X122052419Y-60501999D01*
X110018666Y-60501999D01*
X110017347Y-60501992D01*
X109927280Y-60501049D01*
X109920394Y-60502538D01*
X109920392Y-60502538D01*
X109901814Y-60506555D01*
X109884915Y-60510209D01*
X109872336Y-60512269D01*
X109836242Y-60516317D01*
X109836239Y-60516318D01*
X109829246Y-60517102D01*
X109797569Y-60528133D01*
X109782759Y-60532295D01*
X109756879Y-60537890D01*
X109756875Y-60537891D01*
X109749990Y-60539380D01*
X109743606Y-60542357D01*
X109743600Y-60542359D01*
X109710694Y-60557703D01*
X109698885Y-60562498D01*
X109657949Y-60576754D01*
X109651977Y-60580486D01*
X109651970Y-60580489D01*
X109629506Y-60594526D01*
X109615989Y-60601865D01*
X109591982Y-60613060D01*
X109591978Y-60613062D01*
X109585599Y-60616037D01*
X109557685Y-60637689D01*
X109551345Y-60642607D01*
X109540896Y-60649896D01*
X109504125Y-60672873D01*
X109499126Y-60677838D01*
X109499124Y-60677839D01*
X109475316Y-60701482D01*
X109474693Y-60702065D01*
X109474031Y-60702578D01*
X109448180Y-60728429D01*
X109392068Y-60784151D01*
X109375419Y-60800684D01*
X109374759Y-60801724D01*
X109373658Y-60802951D01*
X109018087Y-61158521D01*
X108980241Y-61184532D01*
X108819278Y-61256197D01*
X108819276Y-61256198D01*
X108813248Y-61258882D01*
X108807907Y-61262762D01*
X108807906Y-61262763D01*
X108758193Y-61298882D01*
X108658747Y-61371134D01*
X108654326Y-61376044D01*
X108654325Y-61376045D01*
X108550230Y-61491655D01*
X108530960Y-61513056D01*
X108522185Y-61528255D01*
X108445338Y-61661358D01*
X108435473Y-61678444D01*
X108376458Y-61860072D01*
X108375768Y-61866633D01*
X108375768Y-61866635D01*
X108369367Y-61927540D01*
X108356496Y-62050000D01*
X107079300Y-62050000D01*
X107065603Y-61919684D01*
X107064232Y-61906635D01*
X107064232Y-61906633D01*
X107063542Y-61900072D01*
X107004527Y-61718444D01*
X106909040Y-61553056D01*
X106878173Y-61518774D01*
X106785675Y-61416045D01*
X106785674Y-61416044D01*
X106781253Y-61411134D01*
X106626752Y-61298882D01*
X106620724Y-61296198D01*
X106620722Y-61296197D01*
X106458319Y-61223891D01*
X106458318Y-61223891D01*
X106452288Y-61221206D01*
X106349634Y-61199386D01*
X106271944Y-61182872D01*
X106271939Y-61182872D01*
X106265487Y-61181500D01*
X106074513Y-61181500D01*
X106068061Y-61182872D01*
X106068056Y-61182872D01*
X105990366Y-61199386D01*
X105887712Y-61221206D01*
X105881682Y-61223891D01*
X105881681Y-61223891D01*
X105719278Y-61296197D01*
X105719276Y-61296198D01*
X105713248Y-61298882D01*
X105558747Y-61411134D01*
X105554326Y-61416044D01*
X105554325Y-61416045D01*
X105461828Y-61518774D01*
X105430960Y-61553056D01*
X105335473Y-61718444D01*
X105276458Y-61900072D01*
X105275768Y-61906633D01*
X105275768Y-61906635D01*
X105274397Y-61919684D01*
X105256496Y-62090000D01*
X98003000Y-62090000D01*
X98003000Y-61314000D01*
X98023002Y-61245879D01*
X98076658Y-61199386D01*
X98129000Y-61188000D01*
X103486298Y-61188000D01*
X103487069Y-61188002D01*
X103564652Y-61188476D01*
X103573281Y-61186010D01*
X103573286Y-61186009D01*
X103593048Y-61180361D01*
X103609809Y-61176783D01*
X103630152Y-61173870D01*
X103630162Y-61173867D01*
X103639045Y-61172595D01*
X103662395Y-61161979D01*
X103679907Y-61155536D01*
X103695937Y-61150954D01*
X103704565Y-61148488D01*
X103729548Y-61132726D01*
X103744614Y-61124596D01*
X103771510Y-61112367D01*
X103790939Y-61095626D01*
X103805947Y-61084521D01*
X103820039Y-61075630D01*
X103827631Y-61070840D01*
X103847182Y-61048703D01*
X103859374Y-61036659D01*
X103874949Y-61023239D01*
X103874950Y-61023237D01*
X103881747Y-61017381D01*
X103886626Y-61009853D01*
X103886629Y-61009850D01*
X103895696Y-60995861D01*
X103906986Y-60980987D01*
X103918012Y-60968502D01*
X103923956Y-60961772D01*
X103936510Y-60935034D01*
X103944824Y-60920065D01*
X103960893Y-60895273D01*
X103968239Y-60870709D01*
X103974901Y-60853264D01*
X103981983Y-60838179D01*
X103985799Y-60830052D01*
X103990343Y-60800870D01*
X103994126Y-60784151D01*
X104000014Y-60764464D01*
X104000015Y-60764461D01*
X104002587Y-60755859D01*
X104002797Y-60721444D01*
X104002830Y-60720672D01*
X104003000Y-60719577D01*
X104003000Y-60688702D01*
X104003002Y-60687932D01*
X104003452Y-60614284D01*
X104003452Y-60614283D01*
X104003476Y-60610348D01*
X104003092Y-60609004D01*
X104003000Y-60607659D01*
X104003000Y-59040862D01*
X121355497Y-59040862D01*
X121356737Y-59048078D01*
X121356737Y-59048080D01*
X121383274Y-59202517D01*
X121385134Y-59213340D01*
X121453654Y-59374373D01*
X121557383Y-59515324D01*
X121562961Y-59520063D01*
X121562964Y-59520066D01*
X121685176Y-59623893D01*
X121685180Y-59623896D01*
X121690755Y-59628632D01*
X121757373Y-59662649D01*
X121787687Y-59678128D01*
X121846616Y-59708219D01*
X121853721Y-59709958D01*
X121853725Y-59709959D01*
X121934858Y-59729811D01*
X122016606Y-59749815D01*
X122022206Y-59750162D01*
X122022210Y-59750163D01*
X122025709Y-59750380D01*
X122025718Y-59750380D01*
X122027648Y-59750500D01*
X122153822Y-59750500D01*
X122245369Y-59739827D01*
X122276556Y-59736191D01*
X122276558Y-59736191D01*
X122283828Y-59735343D01*
X122290705Y-59732847D01*
X122290708Y-59732846D01*
X122441452Y-59678128D01*
X122448331Y-59675631D01*
X122594685Y-59579677D01*
X122715040Y-59452628D01*
X122802939Y-59301298D01*
X122853667Y-59133807D01*
X122864503Y-58959138D01*
X122849788Y-58873498D01*
X122836106Y-58793875D01*
X122836105Y-58793873D01*
X122834866Y-58786660D01*
X122766346Y-58625627D01*
X122662617Y-58484676D01*
X122657039Y-58479937D01*
X122657036Y-58479934D01*
X122534824Y-58376107D01*
X122534820Y-58376104D01*
X122529245Y-58371368D01*
X122444220Y-58327952D01*
X122379900Y-58295108D01*
X122379898Y-58295107D01*
X122373384Y-58291781D01*
X122366279Y-58290042D01*
X122366275Y-58290041D01*
X122272741Y-58267154D01*
X122203394Y-58250185D01*
X122197794Y-58249838D01*
X122197790Y-58249837D01*
X122194291Y-58249620D01*
X122194282Y-58249620D01*
X122192352Y-58249500D01*
X122066178Y-58249500D01*
X121974631Y-58260173D01*
X121943444Y-58263809D01*
X121943442Y-58263809D01*
X121936172Y-58264657D01*
X121929295Y-58267153D01*
X121929292Y-58267154D01*
X121852281Y-58295108D01*
X121771669Y-58324369D01*
X121625315Y-58420323D01*
X121504960Y-58547372D01*
X121417061Y-58698702D01*
X121366333Y-58866193D01*
X121355497Y-59040862D01*
X104003000Y-59040862D01*
X104003000Y-40688702D01*
X104003002Y-40687932D01*
X104003421Y-40619322D01*
X104003476Y-40610348D01*
X104001010Y-40601719D01*
X104001009Y-40601714D01*
X103995361Y-40581952D01*
X103991783Y-40565191D01*
X103988870Y-40544848D01*
X103988867Y-40544838D01*
X103987595Y-40535955D01*
X103976979Y-40512605D01*
X103970536Y-40495093D01*
X103965954Y-40479063D01*
X103963488Y-40470435D01*
X103947726Y-40445452D01*
X103939596Y-40430386D01*
X103927367Y-40403490D01*
X103910626Y-40384061D01*
X103899521Y-40369053D01*
X103890630Y-40354961D01*
X103885840Y-40347369D01*
X103863703Y-40327818D01*
X103851659Y-40315626D01*
X103838239Y-40300051D01*
X103838237Y-40300050D01*
X103832381Y-40293253D01*
X103824853Y-40288374D01*
X103824850Y-40288371D01*
X103810861Y-40279304D01*
X103795987Y-40268014D01*
X103786725Y-40259834D01*
X103776772Y-40251044D01*
X103768646Y-40247229D01*
X103768645Y-40247228D01*
X103762979Y-40244568D01*
X103750034Y-40238490D01*
X103735065Y-40230176D01*
X103710273Y-40214107D01*
X103685709Y-40206761D01*
X103668264Y-40200099D01*
X103645052Y-40189201D01*
X103615870Y-40184657D01*
X103599151Y-40180874D01*
X103579464Y-40174986D01*
X103579461Y-40174985D01*
X103570859Y-40172413D01*
X103561884Y-40172358D01*
X103561883Y-40172358D01*
X103555190Y-40172317D01*
X103536444Y-40172203D01*
X103535672Y-40172170D01*
X103534577Y-40172000D01*
X103503702Y-40172000D01*
X103502932Y-40171998D01*
X103429284Y-40171548D01*
X103429283Y-40171548D01*
X103425348Y-40171524D01*
X103424004Y-40171908D01*
X103422659Y-40172000D01*
X98129000Y-40172000D01*
X98060879Y-40151998D01*
X98014386Y-40098342D01*
X98003000Y-40046000D01*
X98003000Y-38300000D01*
X103946496Y-38300000D01*
X103947186Y-38306565D01*
X103964553Y-38471799D01*
X103966458Y-38489928D01*
X104025473Y-38671556D01*
X104120960Y-38836944D01*
X104125378Y-38841851D01*
X104125379Y-38841852D01*
X104165702Y-38886635D01*
X104248747Y-38978866D01*
X104294042Y-39011775D01*
X104383218Y-39076565D01*
X104403248Y-39091118D01*
X104409276Y-39093802D01*
X104409278Y-39093803D01*
X104571681Y-39166109D01*
X104577712Y-39168794D01*
X104671113Y-39188647D01*
X104758056Y-39207128D01*
X104758061Y-39207128D01*
X104764513Y-39208500D01*
X104955487Y-39208500D01*
X104961939Y-39207128D01*
X104961944Y-39207128D01*
X105048887Y-39188647D01*
X105142288Y-39168794D01*
X105148319Y-39166109D01*
X105310722Y-39093803D01*
X105310724Y-39093802D01*
X105316752Y-39091118D01*
X105336783Y-39076565D01*
X105457365Y-38988956D01*
X105471253Y-38978866D01*
X105475664Y-38973967D01*
X105475673Y-38973959D01*
X105515082Y-38930190D01*
X105575528Y-38892950D01*
X105608718Y-38888500D01*
X111145809Y-38888500D01*
X111213930Y-38908502D01*
X111260423Y-38962158D01*
X111265637Y-38975550D01*
X111274961Y-39004246D01*
X111370448Y-39169634D01*
X111455973Y-39264619D01*
X111486688Y-39328623D01*
X111477925Y-39399076D01*
X111451430Y-39438021D01*
X109693766Y-41195685D01*
X109681375Y-41206552D01*
X109656013Y-41226013D01*
X109631526Y-41257925D01*
X109631523Y-41257928D01*
X109558476Y-41353124D01*
X109497162Y-41501149D01*
X109495796Y-41511524D01*
X109481500Y-41620115D01*
X109481500Y-41620120D01*
X109476250Y-41660000D01*
X109477328Y-41668188D01*
X109480422Y-41691690D01*
X109481500Y-41708136D01*
X109481500Y-42389710D01*
X109461498Y-42457831D01*
X109449136Y-42474020D01*
X109405831Y-42522115D01*
X109350960Y-42583056D01*
X109292799Y-42683794D01*
X109268424Y-42726013D01*
X109255473Y-42748444D01*
X109196458Y-42930072D01*
X109195768Y-42936633D01*
X109195768Y-42936635D01*
X109179360Y-43092749D01*
X109176496Y-43120000D01*
X109177186Y-43126565D01*
X109195126Y-43297251D01*
X109196458Y-43309928D01*
X109255473Y-43491556D01*
X109350960Y-43656944D01*
X109478747Y-43798866D01*
X109633248Y-43911118D01*
X109639276Y-43913802D01*
X109639278Y-43913803D01*
X109801681Y-43986109D01*
X109807712Y-43988794D01*
X109901112Y-44008647D01*
X109988056Y-44027128D01*
X109988061Y-44027128D01*
X109994513Y-44028500D01*
X110185487Y-44028500D01*
X110191939Y-44027128D01*
X110191944Y-44027128D01*
X110278888Y-44008647D01*
X110372288Y-43988794D01*
X110378319Y-43986109D01*
X110540722Y-43913803D01*
X110540724Y-43913802D01*
X110546752Y-43911118D01*
X110701253Y-43798866D01*
X110829040Y-43656944D01*
X110924527Y-43491556D01*
X110983542Y-43309928D01*
X110984875Y-43297251D01*
X111002814Y-43126565D01*
X111003504Y-43120000D01*
X111000640Y-43092749D01*
X110984232Y-42936635D01*
X110984232Y-42936633D01*
X110983542Y-42930072D01*
X110924527Y-42748444D01*
X110911577Y-42726013D01*
X110887201Y-42683794D01*
X110829040Y-42583056D01*
X110774169Y-42522115D01*
X110730864Y-42474020D01*
X110700146Y-42410013D01*
X110698500Y-42389710D01*
X110698500Y-41964239D01*
X110718502Y-41896118D01*
X110735405Y-41875144D01*
X113815144Y-38795405D01*
X113877456Y-38761379D01*
X113904239Y-38758500D01*
X113995487Y-38758500D01*
X114001940Y-38757128D01*
X114001953Y-38757127D01*
X114085880Y-38739287D01*
X114156670Y-38744688D01*
X114213303Y-38787505D01*
X114237797Y-38854142D01*
X114235946Y-38880018D01*
X114236458Y-38880072D01*
X114216496Y-39070000D01*
X114217186Y-39076565D01*
X114230909Y-39207128D01*
X114236458Y-39259928D01*
X114295473Y-39441556D01*
X114390960Y-39606944D01*
X114518747Y-39748866D01*
X114673248Y-39861118D01*
X114679276Y-39863802D01*
X114679278Y-39863803D01*
X114841681Y-39936109D01*
X114847712Y-39938794D01*
X114941112Y-39958647D01*
X115028056Y-39977128D01*
X115028061Y-39977128D01*
X115034513Y-39978500D01*
X115225487Y-39978500D01*
X115231939Y-39977128D01*
X115231944Y-39977128D01*
X115318887Y-39958647D01*
X115412288Y-39938794D01*
X115418319Y-39936109D01*
X115580722Y-39863803D01*
X115580724Y-39863802D01*
X115586752Y-39861118D01*
X115741253Y-39748866D01*
X115869040Y-39606944D01*
X115964527Y-39441556D01*
X116023542Y-39259928D01*
X116029092Y-39207128D01*
X116042814Y-39076565D01*
X116043504Y-39070000D01*
X123106496Y-39070000D01*
X123107186Y-39076565D01*
X123120909Y-39207128D01*
X123126458Y-39259928D01*
X123185473Y-39441556D01*
X123280960Y-39606944D01*
X123408747Y-39748866D01*
X123563248Y-39861118D01*
X123569276Y-39863802D01*
X123569278Y-39863803D01*
X123731681Y-39936109D01*
X123737712Y-39938794D01*
X123831112Y-39958647D01*
X123918056Y-39977128D01*
X123918061Y-39977128D01*
X123924513Y-39978500D01*
X124115487Y-39978500D01*
X124121939Y-39977128D01*
X124121944Y-39977128D01*
X124208887Y-39958647D01*
X124302288Y-39938794D01*
X124308319Y-39936109D01*
X124470722Y-39863803D01*
X124470724Y-39863802D01*
X124476752Y-39861118D01*
X124631253Y-39748866D01*
X124759040Y-39606944D01*
X124854527Y-39441556D01*
X124913542Y-39259928D01*
X124919092Y-39207128D01*
X124932814Y-39076565D01*
X124933504Y-39070000D01*
X124923409Y-38973955D01*
X124914232Y-38886635D01*
X124914232Y-38886633D01*
X124913542Y-38880072D01*
X124854527Y-38698444D01*
X124831404Y-38658393D01*
X124762341Y-38538774D01*
X124759040Y-38533056D01*
X124720208Y-38489928D01*
X124635675Y-38396045D01*
X124635674Y-38396044D01*
X124631253Y-38391134D01*
X124505818Y-38300000D01*
X124482094Y-38282763D01*
X124482093Y-38282762D01*
X124476752Y-38278882D01*
X124470724Y-38276198D01*
X124470722Y-38276197D01*
X124308319Y-38203891D01*
X124308318Y-38203891D01*
X124302288Y-38201206D01*
X124205877Y-38180713D01*
X124121944Y-38162872D01*
X124121939Y-38162872D01*
X124115487Y-38161500D01*
X123924513Y-38161500D01*
X123918061Y-38162872D01*
X123918056Y-38162872D01*
X123834123Y-38180713D01*
X123737712Y-38201206D01*
X123731682Y-38203891D01*
X123731681Y-38203891D01*
X123569278Y-38276197D01*
X123569276Y-38276198D01*
X123563248Y-38278882D01*
X123557907Y-38282762D01*
X123557906Y-38282763D01*
X123534182Y-38300000D01*
X123408747Y-38391134D01*
X123404326Y-38396044D01*
X123404325Y-38396045D01*
X123319793Y-38489928D01*
X123280960Y-38533056D01*
X123277659Y-38538774D01*
X123208597Y-38658393D01*
X123185473Y-38698444D01*
X123126458Y-38880072D01*
X123125768Y-38886633D01*
X123125768Y-38886635D01*
X123116591Y-38973955D01*
X123106496Y-39070000D01*
X116043504Y-39070000D01*
X116033409Y-38973955D01*
X116024232Y-38886635D01*
X116024232Y-38886633D01*
X116023542Y-38880072D01*
X115964527Y-38698444D01*
X115941404Y-38658393D01*
X115872341Y-38538774D01*
X115869040Y-38533056D01*
X115830208Y-38489928D01*
X115745675Y-38396045D01*
X115745674Y-38396044D01*
X115741253Y-38391134D01*
X115615818Y-38300000D01*
X115592094Y-38282763D01*
X115592093Y-38282762D01*
X115586752Y-38278882D01*
X115580724Y-38276198D01*
X115580722Y-38276197D01*
X115418319Y-38203891D01*
X115418318Y-38203891D01*
X115412288Y-38201206D01*
X115315877Y-38180713D01*
X115231944Y-38162872D01*
X115231939Y-38162872D01*
X115225487Y-38161500D01*
X115034513Y-38161500D01*
X115028060Y-38162872D01*
X115028047Y-38162873D01*
X114944120Y-38180713D01*
X114873330Y-38175312D01*
X114816697Y-38132495D01*
X114792203Y-38065858D01*
X114794054Y-38039982D01*
X114793542Y-38039928D01*
X114812814Y-37856565D01*
X114813504Y-37850000D01*
X114804967Y-37768774D01*
X114794232Y-37666635D01*
X114794232Y-37666633D01*
X114793542Y-37660072D01*
X114734527Y-37478444D01*
X114639040Y-37313056D01*
X114511253Y-37171134D01*
X114356752Y-37058882D01*
X114350724Y-37056198D01*
X114350722Y-37056197D01*
X114188319Y-36983891D01*
X114188318Y-36983891D01*
X114182288Y-36981206D01*
X114079257Y-36959306D01*
X114001944Y-36942872D01*
X114001939Y-36942872D01*
X113995487Y-36941500D01*
X113804513Y-36941500D01*
X113798061Y-36942872D01*
X113798056Y-36942872D01*
X113720743Y-36959306D01*
X113617712Y-36981206D01*
X113611682Y-36983891D01*
X113611681Y-36983891D01*
X113449278Y-37056197D01*
X113449276Y-37056198D01*
X113443248Y-37058882D01*
X113288747Y-37171134D01*
X113160960Y-37313056D01*
X113065473Y-37478444D01*
X113006458Y-37660072D01*
X113005768Y-37666633D01*
X113005768Y-37666635D01*
X112995033Y-37768774D01*
X112986496Y-37850000D01*
X112986684Y-37851786D01*
X112967184Y-37918196D01*
X112950281Y-37939170D01*
X112916440Y-37973011D01*
X112854128Y-38007037D01*
X112783313Y-38001972D01*
X112733710Y-37968228D01*
X112720741Y-37953824D01*
X112601891Y-37867474D01*
X112571582Y-37845453D01*
X112571581Y-37845452D01*
X112566240Y-37841572D01*
X112560212Y-37838888D01*
X112560210Y-37838887D01*
X112397807Y-37766581D01*
X112397806Y-37766581D01*
X112391776Y-37763896D01*
X112298375Y-37744043D01*
X112211432Y-37725562D01*
X112211427Y-37725562D01*
X112204975Y-37724190D01*
X112030106Y-37724190D01*
X111981889Y-37714599D01*
X111923281Y-37690323D01*
X111923279Y-37690323D01*
X111915649Y-37687162D01*
X111902104Y-37685379D01*
X111896256Y-37684609D01*
X111865060Y-37680502D01*
X111796683Y-37671500D01*
X111796680Y-37671500D01*
X111796672Y-37671499D01*
X111764987Y-37667328D01*
X111756798Y-37666250D01*
X111725105Y-37670422D01*
X111708662Y-37671500D01*
X105572702Y-37671500D01*
X105504581Y-37651498D01*
X105479067Y-37629812D01*
X105475669Y-37626038D01*
X105475667Y-37626036D01*
X105471253Y-37621134D01*
X105409580Y-37576326D01*
X105322094Y-37512763D01*
X105322093Y-37512762D01*
X105316752Y-37508882D01*
X105310724Y-37506198D01*
X105310722Y-37506197D01*
X105148319Y-37433891D01*
X105148318Y-37433891D01*
X105142288Y-37431206D01*
X105048888Y-37411353D01*
X104961944Y-37392872D01*
X104961939Y-37392872D01*
X104955487Y-37391500D01*
X104764513Y-37391500D01*
X104758061Y-37392872D01*
X104758056Y-37392872D01*
X104671112Y-37411353D01*
X104577712Y-37431206D01*
X104571682Y-37433891D01*
X104571681Y-37433891D01*
X104409278Y-37506197D01*
X104409276Y-37506198D01*
X104403248Y-37508882D01*
X104248747Y-37621134D01*
X104244326Y-37626044D01*
X104244325Y-37626045D01*
X104152967Y-37727509D01*
X104120960Y-37763056D01*
X104025473Y-37928444D01*
X103966458Y-38110072D01*
X103965768Y-38116633D01*
X103965768Y-38116635D01*
X103956597Y-38203891D01*
X103946496Y-38300000D01*
X98003000Y-38300000D01*
X98003000Y-36314000D01*
X98023002Y-36245879D01*
X98076658Y-36199386D01*
X98129000Y-36188000D01*
X136604027Y-36188000D01*
X136672148Y-36208002D01*
G37*
%TD.AperFunction*%
%TD*%
M02*
