%TF.GenerationSoftware,KiCad,Pcbnew,(6.0.2)*%
%TF.CreationDate,2022-03-06T12:06:19+08:00*%
%TF.ProjectId,screen,73637265-656e-42e6-9b69-6361645f7063,rev?*%
%TF.SameCoordinates,Original*%
%TF.FileFunction,Legend,Top*%
%TF.FilePolarity,Positive*%
%FSLAX46Y46*%
G04 Gerber Fmt 4.6, Leading zero omitted, Abs format (unit mm)*
G04 Created by KiCad (PCBNEW (6.0.2)) date 2022-03-06 12:06:19*
%MOMM*%
%LPD*%
G01*
G04 APERTURE LIST*
%ADD10C,0.100000*%
%ADD11C,0.120000*%
%ADD12C,0.254000*%
%ADD13C,0.300000*%
G04 APERTURE END LIST*
D10*
X137992857Y-62521428D02*
X137992857Y-62978571D01*
X128918095Y-64311904D02*
X129070476Y-64311904D01*
X129146666Y-64350000D01*
X129222857Y-64426190D01*
X129260952Y-64578571D01*
X129260952Y-64845238D01*
X129222857Y-64997619D01*
X129146666Y-65073809D01*
X129070476Y-65111904D01*
X128918095Y-65111904D01*
X128841904Y-65073809D01*
X128765714Y-64997619D01*
X128727619Y-64845238D01*
X128727619Y-64578571D01*
X128765714Y-64426190D01*
X128841904Y-64350000D01*
X128918095Y-64311904D01*
X129870476Y-64692857D02*
X129603809Y-64692857D01*
X129603809Y-65111904D02*
X129603809Y-64311904D01*
X129984761Y-64311904D01*
X130556190Y-64692857D02*
X130289523Y-64692857D01*
X130289523Y-65111904D02*
X130289523Y-64311904D01*
X130670476Y-64311904D01*
X134800000Y-41411904D02*
X134600000Y-41030952D01*
X134457142Y-41411904D02*
X134457142Y-40611904D01*
X134685714Y-40611904D01*
X134742857Y-40650000D01*
X134771428Y-40688095D01*
X134800000Y-40764285D01*
X134800000Y-40878571D01*
X134771428Y-40954761D01*
X134742857Y-40992857D01*
X134685714Y-41030952D01*
X134457142Y-41030952D01*
X135000000Y-40611904D02*
X135400000Y-41411904D01*
X135400000Y-40611904D02*
X135000000Y-41411904D01*
X135628571Y-41411904D02*
X135628571Y-40611904D01*
X135771428Y-40611904D01*
X135857142Y-40650000D01*
X135914285Y-40726190D01*
X135942857Y-40802380D01*
X135971428Y-40954761D01*
X135971428Y-41069047D01*
X135942857Y-41221428D01*
X135914285Y-41297619D01*
X135857142Y-41373809D01*
X135771428Y-41411904D01*
X135628571Y-41411904D01*
X137942857Y-59946428D02*
X137942857Y-60403571D01*
X137638095Y-60175000D02*
X138247619Y-60175000D01*
X134492857Y-38511904D02*
X134835714Y-38511904D01*
X134664285Y-39311904D02*
X134664285Y-38511904D01*
X134978571Y-38511904D02*
X135378571Y-39311904D01*
X135378571Y-38511904D02*
X134978571Y-39311904D01*
X135607142Y-39311904D02*
X135607142Y-38511904D01*
X135750000Y-38511904D01*
X135835714Y-38550000D01*
X135892857Y-38626190D01*
X135921428Y-38702380D01*
X135950000Y-38854761D01*
X135950000Y-38969047D01*
X135921428Y-39121428D01*
X135892857Y-39197619D01*
X135835714Y-39273809D01*
X135750000Y-39311904D01*
X135607142Y-39311904D01*
X133864285Y-42650000D02*
X133807142Y-42611904D01*
X133721428Y-42611904D01*
X133635714Y-42650000D01*
X133578571Y-42726190D01*
X133550000Y-42802380D01*
X133521428Y-42954761D01*
X133521428Y-43069047D01*
X133550000Y-43221428D01*
X133578571Y-43297619D01*
X133635714Y-43373809D01*
X133721428Y-43411904D01*
X133778571Y-43411904D01*
X133864285Y-43373809D01*
X133892857Y-43335714D01*
X133892857Y-43069047D01*
X133778571Y-43069047D01*
X134150000Y-43411904D02*
X134150000Y-42611904D01*
X134378571Y-42611904D01*
X134435714Y-42650000D01*
X134464285Y-42688095D01*
X134492857Y-42764285D01*
X134492857Y-42878571D01*
X134464285Y-42954761D01*
X134435714Y-42992857D01*
X134378571Y-43030952D01*
X134150000Y-43030952D01*
X134750000Y-43411904D02*
X134750000Y-42611904D01*
X135150000Y-42611904D02*
X135264285Y-42611904D01*
X135321428Y-42650000D01*
X135378571Y-42726190D01*
X135407142Y-42878571D01*
X135407142Y-43145238D01*
X135378571Y-43297619D01*
X135321428Y-43373809D01*
X135264285Y-43411904D01*
X135150000Y-43411904D01*
X135092857Y-43373809D01*
X135035714Y-43297619D01*
X135007142Y-43145238D01*
X135007142Y-42878571D01*
X135035714Y-42726190D01*
X135092857Y-42650000D01*
X135150000Y-42611904D01*
X135778571Y-42611904D02*
X135835714Y-42611904D01*
X135892857Y-42650000D01*
X135921428Y-42688095D01*
X135950000Y-42764285D01*
X135978571Y-42916666D01*
X135978571Y-43107142D01*
X135950000Y-43259523D01*
X135921428Y-43335714D01*
X135892857Y-43373809D01*
X135835714Y-43411904D01*
X135778571Y-43411904D01*
X135721428Y-43373809D01*
X135692857Y-43335714D01*
X135664285Y-43259523D01*
X135635714Y-43107142D01*
X135635714Y-42916666D01*
X135664285Y-42764285D01*
X135692857Y-42688095D01*
X135721428Y-42650000D01*
X135778571Y-42611904D01*
X134742857Y-44650000D02*
X134685714Y-44611904D01*
X134600000Y-44611904D01*
X134514285Y-44650000D01*
X134457142Y-44726190D01*
X134428571Y-44802380D01*
X134400000Y-44954761D01*
X134400000Y-45069047D01*
X134428571Y-45221428D01*
X134457142Y-45297619D01*
X134514285Y-45373809D01*
X134600000Y-45411904D01*
X134657142Y-45411904D01*
X134742857Y-45373809D01*
X134771428Y-45335714D01*
X134771428Y-45069047D01*
X134657142Y-45069047D01*
X135028571Y-45411904D02*
X135028571Y-44611904D01*
X135371428Y-45411904D01*
X135371428Y-44611904D01*
X135657142Y-45411904D02*
X135657142Y-44611904D01*
X135800000Y-44611904D01*
X135885714Y-44650000D01*
X135942857Y-44726190D01*
X135971428Y-44802380D01*
X136000000Y-44954761D01*
X136000000Y-45069047D01*
X135971428Y-45221428D01*
X135942857Y-45297619D01*
X135885714Y-45373809D01*
X135800000Y-45411904D01*
X135657142Y-45411904D01*
X135057142Y-37142857D02*
X135257142Y-37142857D01*
X135342857Y-37561904D02*
X135057142Y-37561904D01*
X135057142Y-36761904D01*
X135342857Y-36761904D01*
X135600000Y-37561904D02*
X135600000Y-36761904D01*
X135942857Y-37561904D01*
X135942857Y-36761904D01*
%TO.C,R8*%
X106116666Y-63206190D02*
X105950000Y-62968095D01*
X105830952Y-63206190D02*
X105830952Y-62706190D01*
X106021428Y-62706190D01*
X106069047Y-62730000D01*
X106092857Y-62753809D01*
X106116666Y-62801428D01*
X106116666Y-62872857D01*
X106092857Y-62920476D01*
X106069047Y-62944285D01*
X106021428Y-62968095D01*
X105830952Y-62968095D01*
X106402380Y-62920476D02*
X106354761Y-62896666D01*
X106330952Y-62872857D01*
X106307142Y-62825238D01*
X106307142Y-62801428D01*
X106330952Y-62753809D01*
X106354761Y-62730000D01*
X106402380Y-62706190D01*
X106497619Y-62706190D01*
X106545238Y-62730000D01*
X106569047Y-62753809D01*
X106592857Y-62801428D01*
X106592857Y-62825238D01*
X106569047Y-62872857D01*
X106545238Y-62896666D01*
X106497619Y-62920476D01*
X106402380Y-62920476D01*
X106354761Y-62944285D01*
X106330952Y-62968095D01*
X106307142Y-63015714D01*
X106307142Y-63110952D01*
X106330952Y-63158571D01*
X106354761Y-63182380D01*
X106402380Y-63206190D01*
X106497619Y-63206190D01*
X106545238Y-63182380D01*
X106569047Y-63158571D01*
X106592857Y-63110952D01*
X106592857Y-63015714D01*
X106569047Y-62968095D01*
X106545238Y-62944285D01*
X106497619Y-62920476D01*
%TO.C,R7*%
X110611904Y-39713333D02*
X110230952Y-39980000D01*
X110611904Y-40170476D02*
X109811904Y-40170476D01*
X109811904Y-39865714D01*
X109850000Y-39789523D01*
X109888095Y-39751428D01*
X109964285Y-39713333D01*
X110078571Y-39713333D01*
X110154761Y-39751428D01*
X110192857Y-39789523D01*
X110230952Y-39865714D01*
X110230952Y-40170476D01*
X109811904Y-39446666D02*
X109811904Y-38913333D01*
X110611904Y-39256190D01*
%TO.C,R2*%
X111216666Y-60486190D02*
X111050000Y-60248095D01*
X110930952Y-60486190D02*
X110930952Y-59986190D01*
X111121428Y-59986190D01*
X111169047Y-60010000D01*
X111192857Y-60033809D01*
X111216666Y-60081428D01*
X111216666Y-60152857D01*
X111192857Y-60200476D01*
X111169047Y-60224285D01*
X111121428Y-60248095D01*
X110930952Y-60248095D01*
X111407142Y-60033809D02*
X111430952Y-60010000D01*
X111478571Y-59986190D01*
X111597619Y-59986190D01*
X111645238Y-60010000D01*
X111669047Y-60033809D01*
X111692857Y-60081428D01*
X111692857Y-60129047D01*
X111669047Y-60200476D01*
X111383333Y-60486190D01*
X111692857Y-60486190D01*
%TO.C,R1*%
X113111904Y-39713333D02*
X112730952Y-39980000D01*
X113111904Y-40170476D02*
X112311904Y-40170476D01*
X112311904Y-39865714D01*
X112350000Y-39789523D01*
X112388095Y-39751428D01*
X112464285Y-39713333D01*
X112578571Y-39713333D01*
X112654761Y-39751428D01*
X112692857Y-39789523D01*
X112730952Y-39865714D01*
X112730952Y-40170476D01*
X113111904Y-38951428D02*
X113111904Y-39408571D01*
X113111904Y-39180000D02*
X112311904Y-39180000D01*
X112426190Y-39256190D01*
X112502380Y-39332380D01*
X112540476Y-39408571D01*
%TO.C,R4*%
X110116666Y-63156190D02*
X109950000Y-62918095D01*
X109830952Y-63156190D02*
X109830952Y-62656190D01*
X110021428Y-62656190D01*
X110069047Y-62680000D01*
X110092857Y-62703809D01*
X110116666Y-62751428D01*
X110116666Y-62822857D01*
X110092857Y-62870476D01*
X110069047Y-62894285D01*
X110021428Y-62918095D01*
X109830952Y-62918095D01*
X110545238Y-62822857D02*
X110545238Y-63156190D01*
X110426190Y-62632380D02*
X110307142Y-62989523D01*
X110616666Y-62989523D01*
%TO.C,R3*%
X115611904Y-39713333D02*
X115230952Y-39980000D01*
X115611904Y-40170476D02*
X114811904Y-40170476D01*
X114811904Y-39865714D01*
X114850000Y-39789523D01*
X114888095Y-39751428D01*
X114964285Y-39713333D01*
X115078571Y-39713333D01*
X115154761Y-39751428D01*
X115192857Y-39789523D01*
X115230952Y-39865714D01*
X115230952Y-40170476D01*
X114811904Y-39446666D02*
X114811904Y-38951428D01*
X115116666Y-39218095D01*
X115116666Y-39103809D01*
X115154761Y-39027619D01*
X115192857Y-38989523D01*
X115269047Y-38951428D01*
X115459523Y-38951428D01*
X115535714Y-38989523D01*
X115573809Y-39027619D01*
X115611904Y-39103809D01*
X115611904Y-39332380D01*
X115573809Y-39408571D01*
X115535714Y-39446666D01*
%TO.C,R13*%
X108848571Y-60486190D02*
X108681904Y-60248095D01*
X108562857Y-60486190D02*
X108562857Y-59986190D01*
X108753333Y-59986190D01*
X108800952Y-60010000D01*
X108824761Y-60033809D01*
X108848571Y-60081428D01*
X108848571Y-60152857D01*
X108824761Y-60200476D01*
X108800952Y-60224285D01*
X108753333Y-60248095D01*
X108562857Y-60248095D01*
X109324761Y-60486190D02*
X109039047Y-60486190D01*
X109181904Y-60486190D02*
X109181904Y-59986190D01*
X109134285Y-60057619D01*
X109086666Y-60105238D01*
X109039047Y-60129047D01*
X109491428Y-59986190D02*
X109800952Y-59986190D01*
X109634285Y-60176666D01*
X109705714Y-60176666D01*
X109753333Y-60200476D01*
X109777142Y-60224285D01*
X109800952Y-60271904D01*
X109800952Y-60390952D01*
X109777142Y-60438571D01*
X109753333Y-60462380D01*
X109705714Y-60486190D01*
X109562857Y-60486190D01*
X109515238Y-60462380D01*
X109491428Y-60438571D01*
%TO.C,R9*%
X118111904Y-39713333D02*
X117730952Y-39980000D01*
X118111904Y-40170476D02*
X117311904Y-40170476D01*
X117311904Y-39865714D01*
X117350000Y-39789523D01*
X117388095Y-39751428D01*
X117464285Y-39713333D01*
X117578571Y-39713333D01*
X117654761Y-39751428D01*
X117692857Y-39789523D01*
X117730952Y-39865714D01*
X117730952Y-40170476D01*
X118111904Y-39332380D02*
X118111904Y-39180000D01*
X118073809Y-39103809D01*
X118035714Y-39065714D01*
X117921428Y-38989523D01*
X117769047Y-38951428D01*
X117464285Y-38951428D01*
X117388095Y-38989523D01*
X117350000Y-39027619D01*
X117311904Y-39103809D01*
X117311904Y-39256190D01*
X117350000Y-39332380D01*
X117388095Y-39370476D01*
X117464285Y-39408571D01*
X117654761Y-39408571D01*
X117730952Y-39370476D01*
X117769047Y-39332380D01*
X117807142Y-39256190D01*
X117807142Y-39103809D01*
X117769047Y-39027619D01*
X117730952Y-38989523D01*
X117654761Y-38951428D01*
%TO.C,R5*%
X113186666Y-60486190D02*
X113020000Y-60248095D01*
X112900952Y-60486190D02*
X112900952Y-59986190D01*
X113091428Y-59986190D01*
X113139047Y-60010000D01*
X113162857Y-60033809D01*
X113186666Y-60081428D01*
X113186666Y-60152857D01*
X113162857Y-60200476D01*
X113139047Y-60224285D01*
X113091428Y-60248095D01*
X112900952Y-60248095D01*
X113639047Y-59986190D02*
X113400952Y-59986190D01*
X113377142Y-60224285D01*
X113400952Y-60200476D01*
X113448571Y-60176666D01*
X113567619Y-60176666D01*
X113615238Y-60200476D01*
X113639047Y-60224285D01*
X113662857Y-60271904D01*
X113662857Y-60390952D01*
X113639047Y-60438571D01*
X113615238Y-60462380D01*
X113567619Y-60486190D01*
X113448571Y-60486190D01*
X113400952Y-60462380D01*
X113377142Y-60438571D01*
%TO.C,D1*%
X111960952Y-63136190D02*
X111960952Y-62636190D01*
X112080000Y-62636190D01*
X112151428Y-62660000D01*
X112199047Y-62707619D01*
X112222857Y-62755238D01*
X112246666Y-62850476D01*
X112246666Y-62921904D01*
X112222857Y-63017142D01*
X112199047Y-63064761D01*
X112151428Y-63112380D01*
X112080000Y-63136190D01*
X111960952Y-63136190D01*
X112722857Y-63136190D02*
X112437142Y-63136190D01*
X112580000Y-63136190D02*
X112580000Y-62636190D01*
X112532380Y-62707619D01*
X112484761Y-62755238D01*
X112437142Y-62779047D01*
%TO.C,C5*%
X107186666Y-60438571D02*
X107162857Y-60462380D01*
X107091428Y-60486190D01*
X107043809Y-60486190D01*
X106972380Y-60462380D01*
X106924761Y-60414761D01*
X106900952Y-60367142D01*
X106877142Y-60271904D01*
X106877142Y-60200476D01*
X106900952Y-60105238D01*
X106924761Y-60057619D01*
X106972380Y-60010000D01*
X107043809Y-59986190D01*
X107091428Y-59986190D01*
X107162857Y-60010000D01*
X107186666Y-60033809D01*
X107639047Y-59986190D02*
X107400952Y-59986190D01*
X107377142Y-60224285D01*
X107400952Y-60200476D01*
X107448571Y-60176666D01*
X107567619Y-60176666D01*
X107615238Y-60200476D01*
X107639047Y-60224285D01*
X107662857Y-60271904D01*
X107662857Y-60390952D01*
X107639047Y-60438571D01*
X107615238Y-60462380D01*
X107567619Y-60486190D01*
X107448571Y-60486190D01*
X107400952Y-60462380D01*
X107377142Y-60438571D01*
%TO.C,R14*%
X107858571Y-63136190D02*
X107691904Y-62898095D01*
X107572857Y-63136190D02*
X107572857Y-62636190D01*
X107763333Y-62636190D01*
X107810952Y-62660000D01*
X107834761Y-62683809D01*
X107858571Y-62731428D01*
X107858571Y-62802857D01*
X107834761Y-62850476D01*
X107810952Y-62874285D01*
X107763333Y-62898095D01*
X107572857Y-62898095D01*
X108334761Y-63136190D02*
X108049047Y-63136190D01*
X108191904Y-63136190D02*
X108191904Y-62636190D01*
X108144285Y-62707619D01*
X108096666Y-62755238D01*
X108049047Y-62779047D01*
X108763333Y-62802857D02*
X108763333Y-63136190D01*
X108644285Y-62612380D02*
X108525238Y-62969523D01*
X108834761Y-62969523D01*
%TO.C,R6*%
X105046666Y-60506190D02*
X104880000Y-60268095D01*
X104760952Y-60506190D02*
X104760952Y-60006190D01*
X104951428Y-60006190D01*
X104999047Y-60030000D01*
X105022857Y-60053809D01*
X105046666Y-60101428D01*
X105046666Y-60172857D01*
X105022857Y-60220476D01*
X104999047Y-60244285D01*
X104951428Y-60268095D01*
X104760952Y-60268095D01*
X105475238Y-60006190D02*
X105380000Y-60006190D01*
X105332380Y-60030000D01*
X105308571Y-60053809D01*
X105260952Y-60125238D01*
X105237142Y-60220476D01*
X105237142Y-60410952D01*
X105260952Y-60458571D01*
X105284761Y-60482380D01*
X105332380Y-60506190D01*
X105427619Y-60506190D01*
X105475238Y-60482380D01*
X105499047Y-60458571D01*
X105522857Y-60410952D01*
X105522857Y-60291904D01*
X105499047Y-60244285D01*
X105475238Y-60220476D01*
X105427619Y-60196666D01*
X105332380Y-60196666D01*
X105284761Y-60220476D01*
X105260952Y-60244285D01*
X105237142Y-60291904D01*
D11*
%TO.C,C4*%
X129240000Y-52987836D02*
X129240000Y-52772164D01*
X129960000Y-52987836D02*
X129960000Y-52772164D01*
%TO.C,R12*%
X128821359Y-43305000D02*
X129128641Y-43305000D01*
X128821359Y-42545000D02*
X129128641Y-42545000D01*
D12*
%TO.C,U4*%
X131020000Y-49680000D02*
X131020000Y-46580000D01*
X126220000Y-49680000D02*
X126220000Y-46580000D01*
D13*
X126070000Y-50980000D02*
G75*
G03*
X126070000Y-50980000I-150000J0D01*
G01*
D11*
%TO.C,R8*%
X106575000Y-61426359D02*
X106575000Y-61733641D01*
X105815000Y-61426359D02*
X105815000Y-61733641D01*
D10*
%TO.C,D3*%
X130115000Y-43950000D02*
G75*
G03*
X130115000Y-43950000I-50000J0D01*
G01*
D11*
%TO.C,C7*%
X130910000Y-43557836D02*
X130910000Y-43342164D01*
X130190000Y-43557836D02*
X130190000Y-43342164D01*
%TO.C,C3*%
X125860000Y-52987836D02*
X125860000Y-52772164D01*
X126580000Y-52987836D02*
X126580000Y-52772164D01*
%TO.C,J1*%
X138610000Y-45000000D02*
X138610000Y-46060000D01*
X138610000Y-46060000D02*
X137550000Y-46060000D01*
X138610000Y-44000000D02*
X138610000Y-35940000D01*
X138610000Y-44000000D02*
X136490000Y-44000000D01*
X138610000Y-35940000D02*
X136490000Y-35940000D01*
X136490000Y-44000000D02*
X136490000Y-35940000D01*
D10*
%TO.C,D2*%
X128040000Y-43950000D02*
G75*
G03*
X128040000Y-43950000I-50000J0D01*
G01*
D11*
%TO.C,C6*%
X131080000Y-52987836D02*
X131080000Y-52772164D01*
X130360000Y-52987836D02*
X130360000Y-52772164D01*
%TO.C,R7*%
X111040000Y-39733641D02*
X111040000Y-39426359D01*
X111800000Y-39733641D02*
X111800000Y-39426359D01*
%TO.C,R10*%
X126746359Y-42545000D02*
X127053641Y-42545000D01*
X126746359Y-43305000D02*
X127053641Y-43305000D01*
%TO.C,R2*%
X110870000Y-61733641D02*
X110870000Y-61426359D01*
X111630000Y-61733641D02*
X111630000Y-61426359D01*
%TO.C,R1*%
X114300000Y-39733641D02*
X114300000Y-39426359D01*
X113540000Y-39733641D02*
X113540000Y-39426359D01*
D12*
%TO.C,C1*%
X119020000Y-59930000D02*
X120947000Y-59930000D01*
X121383000Y-62780000D02*
X121383000Y-60380000D01*
X115493000Y-63230000D02*
X115493000Y-59930000D01*
X119020000Y-63230000D02*
X120947000Y-63230000D01*
X120947000Y-63230000D02*
X121383000Y-62780000D01*
X120947000Y-63230000D02*
X120947000Y-59930000D01*
X115493000Y-59930000D02*
X117420000Y-59930000D01*
X115493000Y-63230000D02*
X117420000Y-63230000D01*
X120947000Y-59930000D02*
X121383000Y-60380000D01*
D11*
%TO.C,R11*%
X126970000Y-53033641D02*
X126970000Y-52726359D01*
X127730000Y-53033641D02*
X127730000Y-52726359D01*
%TO.C,R15*%
X122600000Y-39466359D02*
X122600000Y-39773641D01*
X121840000Y-39466359D02*
X121840000Y-39773641D01*
%TO.C,SW1*%
X126420000Y-65100000D02*
X126620000Y-65310000D01*
X127720000Y-65100000D02*
X127720000Y-63810000D01*
X131270000Y-62800000D02*
X131270000Y-62010000D01*
X126420000Y-63810000D02*
X126420000Y-65100000D01*
X124970000Y-63810000D02*
X130670000Y-63810000D01*
X124370000Y-62010000D02*
X124370000Y-62800000D01*
X126620000Y-65310000D02*
X127520000Y-65310000D01*
X126220000Y-60960000D02*
X127920000Y-60960000D01*
X127720000Y-65100000D02*
X127520000Y-65310000D01*
X129220000Y-60960000D02*
X129420000Y-60960000D01*
%TO.C,R4*%
X110615000Y-61426359D02*
X110615000Y-61733641D01*
X109855000Y-61426359D02*
X109855000Y-61733641D01*
%TO.C,J3*%
X134295000Y-64020000D02*
X136955000Y-64020000D01*
X134295000Y-60150000D02*
X134295000Y-58820000D01*
X134295000Y-61420000D02*
X136955000Y-61420000D01*
X134295000Y-61420000D02*
X134295000Y-64020000D01*
X134295000Y-58820000D02*
X135625000Y-58820000D01*
X136955000Y-61420000D02*
X136955000Y-64020000D01*
%TO.C,SW3*%
X99410000Y-39750000D02*
X99410000Y-39300000D01*
X103410000Y-39750000D02*
X99410000Y-39750000D01*
X103410000Y-39300000D02*
X103410000Y-39750000D01*
X99410000Y-36850000D02*
X103410000Y-36850000D01*
X99410000Y-37300000D02*
X99410000Y-36850000D01*
X103410000Y-36850000D02*
X103410000Y-37300000D01*
%TO.C,U2*%
X105090000Y-58840000D02*
X105090000Y-59450000D01*
X97470000Y-42600000D02*
X105090000Y-42600000D01*
X121710000Y-56720000D02*
X121710000Y-58840000D01*
X105090000Y-58840000D02*
X97470000Y-58840000D01*
X121710000Y-58840000D02*
X121090000Y-58840000D01*
X97470000Y-58840000D02*
X97470000Y-42600000D01*
X121090000Y-42600000D02*
X121710000Y-42600000D01*
X121710000Y-42600000D02*
X121710000Y-44720000D01*
%TO.C,R3*%
X116040000Y-39733641D02*
X116040000Y-39426359D01*
X116800000Y-39733641D02*
X116800000Y-39426359D01*
%TO.C,R13*%
X109600000Y-61426359D02*
X109600000Y-61733641D01*
X108840000Y-61426359D02*
X108840000Y-61733641D01*
%TO.C,SW2*%
X103420000Y-64180000D02*
X103420000Y-64630000D01*
X103420000Y-64630000D02*
X99420000Y-64630000D01*
X103420000Y-61730000D02*
X103420000Y-62180000D01*
X99420000Y-61730000D02*
X103420000Y-61730000D01*
X99420000Y-64630000D02*
X99420000Y-64180000D01*
X99420000Y-62180000D02*
X99420000Y-61730000D01*
%TO.C,R9*%
X119300000Y-39733641D02*
X119300000Y-39426359D01*
X118540000Y-39733641D02*
X118540000Y-39426359D01*
%TO.C,R16*%
X124340000Y-39466359D02*
X124340000Y-39773641D01*
X123580000Y-39466359D02*
X123580000Y-39773641D01*
%TO.C,U1*%
X128620000Y-57740000D02*
X130420000Y-57740000D01*
X128620000Y-57740000D02*
X127820000Y-57740000D01*
X128620000Y-54620000D02*
X129420000Y-54620000D01*
X128620000Y-54620000D02*
X127820000Y-54620000D01*
%TO.C,C2*%
X128120000Y-52987836D02*
X128120000Y-52772164D01*
X128840000Y-52987836D02*
X128840000Y-52772164D01*
%TO.C,R5*%
X112900000Y-61426359D02*
X112900000Y-61733641D01*
X113660000Y-61426359D02*
X113660000Y-61733641D01*
D10*
%TO.C,D1*%
X112315000Y-60490000D02*
G75*
G03*
X112315000Y-60490000I-50000J0D01*
G01*
D11*
%TO.C,C5*%
X107560000Y-61707836D02*
X107560000Y-61492164D01*
X106840000Y-61707836D02*
X106840000Y-61492164D01*
%TO.C,R14*%
X108585000Y-61733641D02*
X108585000Y-61426359D01*
X107825000Y-61733641D02*
X107825000Y-61426359D01*
%TO.C,Q1*%
X124890000Y-39070000D02*
X124890000Y-40745000D01*
X128010000Y-39070000D02*
X128010000Y-39720000D01*
X124890000Y-39070000D02*
X124890000Y-38420000D01*
X128010000Y-39070000D02*
X128010000Y-38420000D01*
%TO.C,R6*%
X104800000Y-61426359D02*
X104800000Y-61733641D01*
X105560000Y-61426359D02*
X105560000Y-61733641D01*
%TD*%
M02*
