M48
; DRILL file {KiCad (6.0.2)} date Sun Mar  6 12:06:21 2022
; FORMAT={-:-/ absolute / metric / decimal}
; #@! TF.CreationDate,2022-03-06T12:06:21+08:00
; #@! TF.GenerationSoftware,Kicad,Pcbnew,(6.0.2)
; #@! TF.FileFunction,Plated,1,4,PTH
FMAT,2
METRIC
; #@! TA.AperFunction,Plated,PTH,ViaDrill
T1C0.400
; #@! TA.AperFunction,Plated,PTH,ComponentDrill
T2C0.550
; #@! TA.AperFunction,Plated,PTH,ComponentDrill
T3C0.800
; #@! TA.AperFunction,Plated,PTH,ComponentDrill
T4C1.000
%
G90
G05
T1
X99.35Y-38.3
X99.35Y-63.1
X103.5Y-38.325
X106.17Y-62.09
X107.76Y-62.1
X109.27Y-62.05
X110.09Y-43.12
X110.72Y-62.11
X111.42Y-39.07
X114.09Y-43.12
X114.675Y-52.45
X115.13Y-39.07
X116.09Y-48.02
X116.225Y-53.0
X116.475Y-55.6
X116.75Y-61.575
X117.33Y-51.03
X117.475Y-37.85
X117.975Y-46.5
X118.025Y-47.95
X119.4Y-46.45
X119.4Y-47.95
X119.72Y-61.58
X120.125Y-43.1
X123.525Y-48.925
X124.02Y-39.07
X124.57Y-59.18
X127.1Y-47.125
X127.125Y-49.0
X127.44Y-39.93
X127.482Y-57.13
X128.15Y-47.125
X128.15Y-49.0
X128.475Y-53.35
X128.57Y-60.65
X129.757Y-57.13
X130.525Y-45.48
X130.55Y-42.97
X130.8Y-54.475
T3
X137.55Y-37.0
X137.55Y-39.0
X137.55Y-41.0
X137.55Y-43.0
X137.55Y-45.0
T4
X135.625Y-60.15
X135.625Y-62.69
T2
G00X135.925Y-47.48
M15
G01X134.975Y-47.48
M16
G05
G00X135.925Y-56.12
M15
G01X134.975Y-56.12
M16
G05
T0
M30
