%TF.GenerationSoftware,KiCad,Pcbnew,(6.0.2)*%
%TF.CreationDate,2022-03-06T12:06:19+08:00*%
%TF.ProjectId,screen,73637265-656e-42e6-9b69-6361645f7063,rev?*%
%TF.SameCoordinates,Original*%
%TF.FileFunction,Soldermask,Top*%
%TF.FilePolarity,Negative*%
%FSLAX46Y46*%
G04 Gerber Fmt 4.6, Leading zero omitted, Abs format (unit mm)*
G04 Created by KiCad (PCBNEW (6.0.2)) date 2022-03-06 12:06:19*
%MOMM*%
%LPD*%
G01*
G04 APERTURE LIST*
G04 Aperture macros list*
%AMRoundRect*
0 Rectangle with rounded corners*
0 $1 Rounding radius*
0 $2 $3 $4 $5 $6 $7 $8 $9 X,Y pos of 4 corners*
0 Add a 4 corners polygon primitive as box body*
4,1,4,$2,$3,$4,$5,$6,$7,$8,$9,$2,$3,0*
0 Add four circle primitives for the rounded corners*
1,1,$1+$1,$2,$3*
1,1,$1+$1,$4,$5*
1,1,$1+$1,$6,$7*
1,1,$1+$1,$8,$9*
0 Add four rect primitives between the rounded corners*
20,1,$1+$1,$2,$3,$4,$5,0*
20,1,$1+$1,$4,$5,$6,$7,0*
20,1,$1+$1,$6,$7,$8,$9,0*
20,1,$1+$1,$8,$9,$2,$3,0*%
G04 Aperture macros list end*
%ADD10RoundRect,0.140000X0.170000X-0.140000X0.170000X0.140000X-0.170000X0.140000X-0.170000X-0.140000X0*%
%ADD11RoundRect,0.135000X-0.135000X-0.185000X0.135000X-0.185000X0.135000X0.185000X-0.135000X0.185000X0*%
%ADD12R,4.000000X2.900000*%
%ADD13O,0.600000X1.600000*%
%ADD14RoundRect,0.135000X-0.185000X0.135000X-0.185000X-0.135000X0.185000X-0.135000X0.185000X0.135000X0*%
%ADD15RoundRect,0.147500X0.147500X0.172500X-0.147500X0.172500X-0.147500X-0.172500X0.147500X-0.172500X0*%
%ADD16R,1.350000X1.350000*%
%ADD17O,1.350000X1.350000*%
%ADD18R,1.550000X0.700000*%
%ADD19R,1.550000X0.800000*%
%ADD20R,1.550000X0.900000*%
%ADD21O,1.850000X0.850000*%
%ADD22RoundRect,0.135000X0.185000X-0.135000X0.185000X0.135000X-0.185000X0.135000X-0.185000X-0.135000X0*%
%ADD23R,1.800000X2.600000*%
%ADD24R,1.000000X0.800000*%
%ADD25C,0.900000*%
%ADD26R,0.700000X1.500000*%
%ADD27R,1.700000X1.700000*%
%ADD28O,1.700000X1.700000*%
%ADD29R,1.350000X1.800000*%
%ADD30R,1.000000X2.500000*%
%ADD31R,1.800000X1.000000*%
%ADD32RoundRect,0.150000X0.512500X0.150000X-0.512500X0.150000X-0.512500X-0.150000X0.512500X-0.150000X0*%
%ADD33RoundRect,0.147500X-0.172500X0.147500X-0.172500X-0.147500X0.172500X-0.147500X0.172500X0.147500X0*%
%ADD34RoundRect,0.150000X0.150000X-0.587500X0.150000X0.587500X-0.150000X0.587500X-0.150000X-0.587500X0*%
%ADD35C,1.000000*%
G04 APERTURE END LIST*
D10*
%TO.C,C4*%
X129600000Y-53360000D03*
X129600000Y-52400000D03*
%TD*%
D11*
%TO.C,R12*%
X128465000Y-42925000D03*
X129485000Y-42925000D03*
%TD*%
D12*
%TO.C,U4*%
X128620000Y-48080000D03*
D13*
X126715000Y-50680000D03*
X127985000Y-50680000D03*
X129255000Y-50680000D03*
X130525000Y-50680000D03*
X130525000Y-45480000D03*
X129255000Y-45480000D03*
X127985000Y-45480000D03*
X126715000Y-45480000D03*
%TD*%
D14*
%TO.C,R8*%
X106195000Y-61070000D03*
X106195000Y-62090000D03*
%TD*%
D15*
%TO.C,D3*%
X129460000Y-43950000D03*
X128490000Y-43950000D03*
%TD*%
D10*
%TO.C,C7*%
X130550000Y-43930000D03*
X130550000Y-42970000D03*
%TD*%
%TO.C,C3*%
X126220000Y-53360000D03*
X126220000Y-52400000D03*
%TD*%
D16*
%TO.C,J1*%
X137550000Y-45000000D03*
D17*
X137550000Y-43000000D03*
X137550000Y-41000000D03*
X137550000Y-39000000D03*
X137550000Y-37000000D03*
%TD*%
D18*
%TO.C,J2*%
X134675000Y-52300000D03*
D19*
X134675000Y-50280000D03*
D20*
X134675000Y-49060000D03*
D18*
X134675000Y-51300000D03*
D19*
X134675000Y-53320000D03*
D20*
X134675000Y-54540000D03*
D21*
X135450000Y-47480000D03*
X135450000Y-56120000D03*
%TD*%
D15*
%TO.C,D2*%
X127385000Y-43950000D03*
X126415000Y-43950000D03*
%TD*%
D10*
%TO.C,C6*%
X130720000Y-53360000D03*
X130720000Y-52400000D03*
%TD*%
D22*
%TO.C,R7*%
X111420000Y-40090000D03*
X111420000Y-39070000D03*
%TD*%
D11*
%TO.C,R10*%
X126390000Y-42925000D03*
X127410000Y-42925000D03*
%TD*%
D22*
%TO.C,R2*%
X111250000Y-62090000D03*
X111250000Y-61070000D03*
%TD*%
%TO.C,R1*%
X113920000Y-40090000D03*
X113920000Y-39070000D03*
%TD*%
D23*
%TO.C,C1*%
X119720000Y-61580000D03*
X116720000Y-61580000D03*
%TD*%
D22*
%TO.C,R11*%
X127350000Y-53390000D03*
X127350000Y-52370000D03*
%TD*%
D14*
%TO.C,R15*%
X122220000Y-39110000D03*
X122220000Y-40130000D03*
%TD*%
D24*
%TO.C,SW1*%
X131470000Y-63510000D03*
D25*
X126320000Y-62410000D03*
D24*
X131470000Y-61300000D03*
X124170000Y-63510000D03*
D25*
X129320000Y-62410000D03*
D24*
X124170000Y-61300000D03*
D26*
X125570000Y-60650000D03*
X128570000Y-60650000D03*
X130070000Y-60650000D03*
%TD*%
D14*
%TO.C,R4*%
X110235000Y-61070000D03*
X110235000Y-62090000D03*
%TD*%
D27*
%TO.C,J3*%
X135625000Y-60150000D03*
D28*
X135625000Y-62690000D03*
%TD*%
D29*
%TO.C,SW3*%
X103485000Y-38300000D03*
X99335000Y-38300000D03*
%TD*%
D30*
%TO.C,U2*%
X106090000Y-58320000D03*
X108090000Y-58320000D03*
X110090000Y-58320000D03*
X112090000Y-58320000D03*
X114090000Y-58320000D03*
X116090000Y-58320000D03*
X118090000Y-58320000D03*
X120090000Y-58320000D03*
D31*
X121590000Y-55720000D03*
X121590000Y-53720000D03*
X121590000Y-51720000D03*
X121590000Y-49720000D03*
X121590000Y-47720000D03*
X121590000Y-45720000D03*
D30*
X120090000Y-43120000D03*
X118090000Y-43120000D03*
X116090000Y-43120000D03*
X114090000Y-43120000D03*
X112090000Y-43120000D03*
X110090000Y-43120000D03*
X108090000Y-43120000D03*
X106090000Y-43120000D03*
%TD*%
D22*
%TO.C,R3*%
X116420000Y-40090000D03*
X116420000Y-39070000D03*
%TD*%
D14*
%TO.C,R13*%
X109220000Y-61070000D03*
X109220000Y-62090000D03*
%TD*%
D29*
%TO.C,SW2*%
X103495000Y-63180000D03*
X99345000Y-63180000D03*
%TD*%
D22*
%TO.C,R9*%
X118920000Y-40090000D03*
X118920000Y-39070000D03*
%TD*%
D14*
%TO.C,R16*%
X123960000Y-39110000D03*
X123960000Y-40130000D03*
%TD*%
D32*
%TO.C,U1*%
X129757500Y-57130000D03*
X129757500Y-56180000D03*
X129757500Y-55230000D03*
X127482500Y-55230000D03*
X127482500Y-57130000D03*
%TD*%
D10*
%TO.C,C2*%
X128480000Y-53360000D03*
X128480000Y-52400000D03*
%TD*%
D14*
%TO.C,R5*%
X113280000Y-61070000D03*
X113280000Y-62090000D03*
%TD*%
D33*
%TO.C,D1*%
X112265000Y-61095000D03*
X112265000Y-62065000D03*
%TD*%
D10*
%TO.C,C5*%
X107200000Y-62080000D03*
X107200000Y-61120000D03*
%TD*%
D22*
%TO.C,R14*%
X108205000Y-62090000D03*
X108205000Y-61070000D03*
%TD*%
D34*
%TO.C,Q1*%
X125500000Y-40007500D03*
X127400000Y-40007500D03*
X126450000Y-38132500D03*
%TD*%
D14*
%TO.C,R6*%
X105180000Y-61070000D03*
X105180000Y-62090000D03*
%TD*%
D35*
%TO.C,U3*%
X122110000Y-59000000D03*
X122110000Y-49000000D03*
%TD*%
M02*
