%TF.GenerationSoftware,KiCad,Pcbnew,(6.0.2)*%
%TF.CreationDate,2022-03-05T20:45:56+08:00*%
%TF.ProjectId,screen,73637265-656e-42e6-9b69-6361645f7063,rev?*%
%TF.SameCoordinates,Original*%
%TF.FileFunction,Legend,Top*%
%TF.FilePolarity,Positive*%
%FSLAX46Y46*%
G04 Gerber Fmt 4.6, Leading zero omitted, Abs format (unit mm)*
G04 Created by KiCad (PCBNEW (6.0.2)) date 2022-03-05 20:45:56*
%MOMM*%
%LPD*%
G01*
G04 APERTURE LIST*
%ADD10C,0.100000*%
%ADD11C,0.150000*%
%ADD12C,0.120000*%
%ADD13C,0.254000*%
%ADD14C,0.300000*%
G04 APERTURE END LIST*
D10*
X134607142Y-37242857D02*
X134807142Y-37242857D01*
X134892857Y-37661904D02*
X134607142Y-37661904D01*
X134607142Y-36861904D01*
X134892857Y-36861904D01*
X135150000Y-37661904D02*
X135150000Y-36861904D01*
X135492857Y-37661904D01*
X135492857Y-36861904D01*
X135152857Y-60897142D02*
X135190952Y-60811428D01*
X135229047Y-60782857D01*
X135305238Y-60754285D01*
X135419523Y-60754285D01*
X135495714Y-60782857D01*
X135533809Y-60811428D01*
X135571904Y-60868571D01*
X135571904Y-61097142D01*
X134771904Y-61097142D01*
X134771904Y-60897142D01*
X134810000Y-60840000D01*
X134848095Y-60811428D01*
X134924285Y-60782857D01*
X135000476Y-60782857D01*
X135076666Y-60811428D01*
X135114761Y-60840000D01*
X135152857Y-60897142D01*
X135152857Y-61097142D01*
X134771904Y-60582857D02*
X134771904Y-60240000D01*
X135571904Y-60411428D02*
X134771904Y-60411428D01*
X135267142Y-60040000D02*
X135267142Y-59582857D01*
X128918095Y-64311904D02*
X129070476Y-64311904D01*
X129146666Y-64350000D01*
X129222857Y-64426190D01*
X129260952Y-64578571D01*
X129260952Y-64845238D01*
X129222857Y-64997619D01*
X129146666Y-65073809D01*
X129070476Y-65111904D01*
X128918095Y-65111904D01*
X128841904Y-65073809D01*
X128765714Y-64997619D01*
X128727619Y-64845238D01*
X128727619Y-64578571D01*
X128765714Y-64426190D01*
X128841904Y-64350000D01*
X128918095Y-64311904D01*
X129870476Y-64692857D02*
X129603809Y-64692857D01*
X129603809Y-65111904D02*
X129603809Y-64311904D01*
X129984761Y-64311904D01*
X130556190Y-64692857D02*
X130289523Y-64692857D01*
X130289523Y-65111904D02*
X130289523Y-64311904D01*
X130670476Y-64311904D01*
X134430000Y-40161904D02*
X134230000Y-39780952D01*
X134087142Y-40161904D02*
X134087142Y-39361904D01*
X134315714Y-39361904D01*
X134372857Y-39400000D01*
X134401428Y-39438095D01*
X134430000Y-39514285D01*
X134430000Y-39628571D01*
X134401428Y-39704761D01*
X134372857Y-39742857D01*
X134315714Y-39780952D01*
X134087142Y-39780952D01*
X134630000Y-39361904D02*
X135030000Y-40161904D01*
X135030000Y-39361904D02*
X134630000Y-40161904D01*
X135258571Y-40161904D02*
X135258571Y-39361904D01*
X135401428Y-39361904D01*
X135487142Y-39400000D01*
X135544285Y-39476190D01*
X135572857Y-39552380D01*
X135601428Y-39704761D01*
X135601428Y-39819047D01*
X135572857Y-39971428D01*
X135544285Y-40047619D01*
X135487142Y-40123809D01*
X135401428Y-40161904D01*
X135258571Y-40161904D01*
X135267142Y-63188571D02*
X135267142Y-62731428D01*
X135571904Y-62960000D02*
X134962380Y-62960000D01*
X134092857Y-38211904D02*
X134435714Y-38211904D01*
X134264285Y-39011904D02*
X134264285Y-38211904D01*
X134578571Y-38211904D02*
X134978571Y-39011904D01*
X134978571Y-38211904D02*
X134578571Y-39011904D01*
X135207142Y-39011904D02*
X135207142Y-38211904D01*
X135350000Y-38211904D01*
X135435714Y-38250000D01*
X135492857Y-38326190D01*
X135521428Y-38402380D01*
X135550000Y-38554761D01*
X135550000Y-38669047D01*
X135521428Y-38821428D01*
X135492857Y-38897619D01*
X135435714Y-38973809D01*
X135350000Y-39011904D01*
X135207142Y-39011904D01*
X133514285Y-40770000D02*
X133457142Y-40731904D01*
X133371428Y-40731904D01*
X133285714Y-40770000D01*
X133228571Y-40846190D01*
X133200000Y-40922380D01*
X133171428Y-41074761D01*
X133171428Y-41189047D01*
X133200000Y-41341428D01*
X133228571Y-41417619D01*
X133285714Y-41493809D01*
X133371428Y-41531904D01*
X133428571Y-41531904D01*
X133514285Y-41493809D01*
X133542857Y-41455714D01*
X133542857Y-41189047D01*
X133428571Y-41189047D01*
X133800000Y-41531904D02*
X133800000Y-40731904D01*
X134028571Y-40731904D01*
X134085714Y-40770000D01*
X134114285Y-40808095D01*
X134142857Y-40884285D01*
X134142857Y-40998571D01*
X134114285Y-41074761D01*
X134085714Y-41112857D01*
X134028571Y-41150952D01*
X133800000Y-41150952D01*
X134400000Y-41531904D02*
X134400000Y-40731904D01*
X134800000Y-40731904D02*
X134914285Y-40731904D01*
X134971428Y-40770000D01*
X135028571Y-40846190D01*
X135057142Y-40998571D01*
X135057142Y-41265238D01*
X135028571Y-41417619D01*
X134971428Y-41493809D01*
X134914285Y-41531904D01*
X134800000Y-41531904D01*
X134742857Y-41493809D01*
X134685714Y-41417619D01*
X134657142Y-41265238D01*
X134657142Y-40998571D01*
X134685714Y-40846190D01*
X134742857Y-40770000D01*
X134800000Y-40731904D01*
X135428571Y-40731904D02*
X135485714Y-40731904D01*
X135542857Y-40770000D01*
X135571428Y-40808095D01*
X135600000Y-40884285D01*
X135628571Y-41036666D01*
X135628571Y-41227142D01*
X135600000Y-41379523D01*
X135571428Y-41455714D01*
X135542857Y-41493809D01*
X135485714Y-41531904D01*
X135428571Y-41531904D01*
X135371428Y-41493809D01*
X135342857Y-41455714D01*
X135314285Y-41379523D01*
X135285714Y-41227142D01*
X135285714Y-41036666D01*
X135314285Y-40884285D01*
X135342857Y-40808095D01*
X135371428Y-40770000D01*
X135428571Y-40731904D01*
X134332857Y-42060000D02*
X134275714Y-42021904D01*
X134190000Y-42021904D01*
X134104285Y-42060000D01*
X134047142Y-42136190D01*
X134018571Y-42212380D01*
X133990000Y-42364761D01*
X133990000Y-42479047D01*
X134018571Y-42631428D01*
X134047142Y-42707619D01*
X134104285Y-42783809D01*
X134190000Y-42821904D01*
X134247142Y-42821904D01*
X134332857Y-42783809D01*
X134361428Y-42745714D01*
X134361428Y-42479047D01*
X134247142Y-42479047D01*
X134618571Y-42821904D02*
X134618571Y-42021904D01*
X134961428Y-42821904D01*
X134961428Y-42021904D01*
X135247142Y-42821904D02*
X135247142Y-42021904D01*
X135390000Y-42021904D01*
X135475714Y-42060000D01*
X135532857Y-42136190D01*
X135561428Y-42212380D01*
X135590000Y-42364761D01*
X135590000Y-42479047D01*
X135561428Y-42631428D01*
X135532857Y-42707619D01*
X135475714Y-42783809D01*
X135390000Y-42821904D01*
X135247142Y-42821904D01*
%TO.C,C4*%
X129636666Y-54328571D02*
X129612857Y-54352380D01*
X129541428Y-54376190D01*
X129493809Y-54376190D01*
X129422380Y-54352380D01*
X129374761Y-54304761D01*
X129350952Y-54257142D01*
X129327142Y-54161904D01*
X129327142Y-54090476D01*
X129350952Y-53995238D01*
X129374761Y-53947619D01*
X129422380Y-53900000D01*
X129493809Y-53876190D01*
X129541428Y-53876190D01*
X129612857Y-53900000D01*
X129636666Y-53923809D01*
X130065238Y-54042857D02*
X130065238Y-54376190D01*
X129946190Y-53852380D02*
X129827142Y-54209523D01*
X130136666Y-54209523D01*
%TO.C,R12*%
X127691904Y-42964285D02*
X127310952Y-43230952D01*
X127691904Y-43421428D02*
X126891904Y-43421428D01*
X126891904Y-43116666D01*
X126930000Y-43040476D01*
X126968095Y-43002380D01*
X127044285Y-42964285D01*
X127158571Y-42964285D01*
X127234761Y-43002380D01*
X127272857Y-43040476D01*
X127310952Y-43116666D01*
X127310952Y-43421428D01*
X127691904Y-42202380D02*
X127691904Y-42659523D01*
X127691904Y-42430952D02*
X126891904Y-42430952D01*
X127006190Y-42507142D01*
X127082380Y-42583333D01*
X127120476Y-42659523D01*
X126968095Y-41897619D02*
X126930000Y-41859523D01*
X126891904Y-41783333D01*
X126891904Y-41592857D01*
X126930000Y-41516666D01*
X126968095Y-41478571D01*
X127044285Y-41440476D01*
X127120476Y-41440476D01*
X127234761Y-41478571D01*
X127691904Y-41935714D01*
X127691904Y-41440476D01*
%TO.C,U4*%
X124310476Y-47641904D02*
X124310476Y-48289523D01*
X124348571Y-48365714D01*
X124386666Y-48403809D01*
X124462857Y-48441904D01*
X124615238Y-48441904D01*
X124691428Y-48403809D01*
X124729523Y-48365714D01*
X124767619Y-48289523D01*
X124767619Y-47641904D01*
X125491428Y-47908571D02*
X125491428Y-48441904D01*
X125300952Y-47603809D02*
X125110476Y-48175238D01*
X125605714Y-48175238D01*
%TO.C,R8*%
X106116666Y-63206190D02*
X105950000Y-62968095D01*
X105830952Y-63206190D02*
X105830952Y-62706190D01*
X106021428Y-62706190D01*
X106069047Y-62730000D01*
X106092857Y-62753809D01*
X106116666Y-62801428D01*
X106116666Y-62872857D01*
X106092857Y-62920476D01*
X106069047Y-62944285D01*
X106021428Y-62968095D01*
X105830952Y-62968095D01*
X106402380Y-62920476D02*
X106354761Y-62896666D01*
X106330952Y-62872857D01*
X106307142Y-62825238D01*
X106307142Y-62801428D01*
X106330952Y-62753809D01*
X106354761Y-62730000D01*
X106402380Y-62706190D01*
X106497619Y-62706190D01*
X106545238Y-62730000D01*
X106569047Y-62753809D01*
X106592857Y-62801428D01*
X106592857Y-62825238D01*
X106569047Y-62872857D01*
X106545238Y-62896666D01*
X106497619Y-62920476D01*
X106402380Y-62920476D01*
X106354761Y-62944285D01*
X106330952Y-62968095D01*
X106307142Y-63015714D01*
X106307142Y-63110952D01*
X106330952Y-63158571D01*
X106354761Y-63182380D01*
X106402380Y-63206190D01*
X106497619Y-63206190D01*
X106545238Y-63182380D01*
X106569047Y-63158571D01*
X106592857Y-63110952D01*
X106592857Y-63015714D01*
X106569047Y-62968095D01*
X106545238Y-62944285D01*
X106497619Y-62920476D01*
%TO.C,D3*%
X136191904Y-65540476D02*
X135391904Y-65540476D01*
X135391904Y-65350000D01*
X135430000Y-65235714D01*
X135506190Y-65159523D01*
X135582380Y-65121428D01*
X135734761Y-65083333D01*
X135849047Y-65083333D01*
X136001428Y-65121428D01*
X136077619Y-65159523D01*
X136153809Y-65235714D01*
X136191904Y-65350000D01*
X136191904Y-65540476D01*
X135391904Y-64816666D02*
X135391904Y-64321428D01*
X135696666Y-64588095D01*
X135696666Y-64473809D01*
X135734761Y-64397619D01*
X135772857Y-64359523D01*
X135849047Y-64321428D01*
X136039523Y-64321428D01*
X136115714Y-64359523D01*
X136153809Y-64397619D01*
X136191904Y-64473809D01*
X136191904Y-64702380D01*
X136153809Y-64778571D01*
X136115714Y-64816666D01*
%TO.C,C7*%
X129825714Y-42743333D02*
X129863809Y-42781428D01*
X129901904Y-42895714D01*
X129901904Y-42971904D01*
X129863809Y-43086190D01*
X129787619Y-43162380D01*
X129711428Y-43200476D01*
X129559047Y-43238571D01*
X129444761Y-43238571D01*
X129292380Y-43200476D01*
X129216190Y-43162380D01*
X129140000Y-43086190D01*
X129101904Y-42971904D01*
X129101904Y-42895714D01*
X129140000Y-42781428D01*
X129178095Y-42743333D01*
X129101904Y-42476666D02*
X129101904Y-41943333D01*
X129901904Y-42286190D01*
%TO.C,C3*%
X125405714Y-53063333D02*
X125443809Y-53101428D01*
X125481904Y-53215714D01*
X125481904Y-53291904D01*
X125443809Y-53406190D01*
X125367619Y-53482380D01*
X125291428Y-53520476D01*
X125139047Y-53558571D01*
X125024761Y-53558571D01*
X124872380Y-53520476D01*
X124796190Y-53482380D01*
X124720000Y-53406190D01*
X124681904Y-53291904D01*
X124681904Y-53215714D01*
X124720000Y-53101428D01*
X124758095Y-53063333D01*
X124681904Y-52796666D02*
X124681904Y-52301428D01*
X124986666Y-52568095D01*
X124986666Y-52453809D01*
X125024761Y-52377619D01*
X125062857Y-52339523D01*
X125139047Y-52301428D01*
X125329523Y-52301428D01*
X125405714Y-52339523D01*
X125443809Y-52377619D01*
X125481904Y-52453809D01*
X125481904Y-52682380D01*
X125443809Y-52758571D01*
X125405714Y-52796666D01*
D11*
%TO.C,J1*%
X137016666Y-43397380D02*
X137016666Y-44111666D01*
X136969047Y-44254523D01*
X136873809Y-44349761D01*
X136730952Y-44397380D01*
X136635714Y-44397380D01*
X138016666Y-44397380D02*
X137445238Y-44397380D01*
X137730952Y-44397380D02*
X137730952Y-43397380D01*
X137635714Y-43540238D01*
X137540476Y-43635476D01*
X137445238Y-43683095D01*
%TO.C,J2*%
X131102380Y-51733333D02*
X131816666Y-51733333D01*
X131959523Y-51780952D01*
X132054761Y-51876190D01*
X132102380Y-52019047D01*
X132102380Y-52114285D01*
X131197619Y-51304761D02*
X131150000Y-51257142D01*
X131102380Y-51161904D01*
X131102380Y-50923809D01*
X131150000Y-50828571D01*
X131197619Y-50780952D01*
X131292857Y-50733333D01*
X131388095Y-50733333D01*
X131530952Y-50780952D01*
X132102380Y-51352380D01*
X132102380Y-50733333D01*
D10*
%TO.C,D2*%
X132641904Y-65490476D02*
X131841904Y-65490476D01*
X131841904Y-65300000D01*
X131880000Y-65185714D01*
X131956190Y-65109523D01*
X132032380Y-65071428D01*
X132184761Y-65033333D01*
X132299047Y-65033333D01*
X132451428Y-65071428D01*
X132527619Y-65109523D01*
X132603809Y-65185714D01*
X132641904Y-65300000D01*
X132641904Y-65490476D01*
X131918095Y-64728571D02*
X131880000Y-64690476D01*
X131841904Y-64614285D01*
X131841904Y-64423809D01*
X131880000Y-64347619D01*
X131918095Y-64309523D01*
X131994285Y-64271428D01*
X132070476Y-64271428D01*
X132184761Y-64309523D01*
X132641904Y-64766666D01*
X132641904Y-64271428D01*
%TO.C,C6*%
X132205714Y-53083333D02*
X132243809Y-53121428D01*
X132281904Y-53235714D01*
X132281904Y-53311904D01*
X132243809Y-53426190D01*
X132167619Y-53502380D01*
X132091428Y-53540476D01*
X131939047Y-53578571D01*
X131824761Y-53578571D01*
X131672380Y-53540476D01*
X131596190Y-53502380D01*
X131520000Y-53426190D01*
X131481904Y-53311904D01*
X131481904Y-53235714D01*
X131520000Y-53121428D01*
X131558095Y-53083333D01*
X131481904Y-52397619D02*
X131481904Y-52550000D01*
X131520000Y-52626190D01*
X131558095Y-52664285D01*
X131672380Y-52740476D01*
X131824761Y-52778571D01*
X132129523Y-52778571D01*
X132205714Y-52740476D01*
X132243809Y-52702380D01*
X132281904Y-52626190D01*
X132281904Y-52473809D01*
X132243809Y-52397619D01*
X132205714Y-52359523D01*
X132129523Y-52321428D01*
X131939047Y-52321428D01*
X131862857Y-52359523D01*
X131824761Y-52397619D01*
X131786666Y-52473809D01*
X131786666Y-52626190D01*
X131824761Y-52702380D01*
X131862857Y-52740476D01*
X131939047Y-52778571D01*
%TO.C,R7*%
X110611904Y-39713333D02*
X110230952Y-39980000D01*
X110611904Y-40170476D02*
X109811904Y-40170476D01*
X109811904Y-39865714D01*
X109850000Y-39789523D01*
X109888095Y-39751428D01*
X109964285Y-39713333D01*
X110078571Y-39713333D01*
X110154761Y-39751428D01*
X110192857Y-39789523D01*
X110230952Y-39865714D01*
X110230952Y-40170476D01*
X109811904Y-39446666D02*
X109811904Y-38913333D01*
X110611904Y-39256190D01*
%TO.C,R10*%
X125556904Y-42869285D02*
X125175952Y-43135952D01*
X125556904Y-43326428D02*
X124756904Y-43326428D01*
X124756904Y-43021666D01*
X124795000Y-42945476D01*
X124833095Y-42907380D01*
X124909285Y-42869285D01*
X125023571Y-42869285D01*
X125099761Y-42907380D01*
X125137857Y-42945476D01*
X125175952Y-43021666D01*
X125175952Y-43326428D01*
X125556904Y-42107380D02*
X125556904Y-42564523D01*
X125556904Y-42335952D02*
X124756904Y-42335952D01*
X124871190Y-42412142D01*
X124947380Y-42488333D01*
X124985476Y-42564523D01*
X124756904Y-41612142D02*
X124756904Y-41535952D01*
X124795000Y-41459761D01*
X124833095Y-41421666D01*
X124909285Y-41383571D01*
X125061666Y-41345476D01*
X125252142Y-41345476D01*
X125404523Y-41383571D01*
X125480714Y-41421666D01*
X125518809Y-41459761D01*
X125556904Y-41535952D01*
X125556904Y-41612142D01*
X125518809Y-41688333D01*
X125480714Y-41726428D01*
X125404523Y-41764523D01*
X125252142Y-41802619D01*
X125061666Y-41802619D01*
X124909285Y-41764523D01*
X124833095Y-41726428D01*
X124795000Y-41688333D01*
X124756904Y-41612142D01*
%TO.C,R2*%
X111216666Y-60486190D02*
X111050000Y-60248095D01*
X110930952Y-60486190D02*
X110930952Y-59986190D01*
X111121428Y-59986190D01*
X111169047Y-60010000D01*
X111192857Y-60033809D01*
X111216666Y-60081428D01*
X111216666Y-60152857D01*
X111192857Y-60200476D01*
X111169047Y-60224285D01*
X111121428Y-60248095D01*
X110930952Y-60248095D01*
X111407142Y-60033809D02*
X111430952Y-60010000D01*
X111478571Y-59986190D01*
X111597619Y-59986190D01*
X111645238Y-60010000D01*
X111669047Y-60033809D01*
X111692857Y-60081428D01*
X111692857Y-60129047D01*
X111669047Y-60200476D01*
X111383333Y-60486190D01*
X111692857Y-60486190D01*
%TO.C,R1*%
X113111904Y-39713333D02*
X112730952Y-39980000D01*
X113111904Y-40170476D02*
X112311904Y-40170476D01*
X112311904Y-39865714D01*
X112350000Y-39789523D01*
X112388095Y-39751428D01*
X112464285Y-39713333D01*
X112578571Y-39713333D01*
X112654761Y-39751428D01*
X112692857Y-39789523D01*
X112730952Y-39865714D01*
X112730952Y-40170476D01*
X113111904Y-38951428D02*
X113111904Y-39408571D01*
X113111904Y-39180000D02*
X112311904Y-39180000D01*
X112426190Y-39256190D01*
X112502380Y-39332380D01*
X112540476Y-39408571D01*
%TO.C,C1*%
X118806666Y-64285714D02*
X118768571Y-64323809D01*
X118654285Y-64361904D01*
X118578095Y-64361904D01*
X118463809Y-64323809D01*
X118387619Y-64247619D01*
X118349523Y-64171428D01*
X118311428Y-64019047D01*
X118311428Y-63904761D01*
X118349523Y-63752380D01*
X118387619Y-63676190D01*
X118463809Y-63600000D01*
X118578095Y-63561904D01*
X118654285Y-63561904D01*
X118768571Y-63600000D01*
X118806666Y-63638095D01*
X119568571Y-64361904D02*
X119111428Y-64361904D01*
X119340000Y-64361904D02*
X119340000Y-63561904D01*
X119263809Y-63676190D01*
X119187619Y-63752380D01*
X119111428Y-63790476D01*
%TO.C,R11*%
X126988571Y-54386190D02*
X126821904Y-54148095D01*
X126702857Y-54386190D02*
X126702857Y-53886190D01*
X126893333Y-53886190D01*
X126940952Y-53910000D01*
X126964761Y-53933809D01*
X126988571Y-53981428D01*
X126988571Y-54052857D01*
X126964761Y-54100476D01*
X126940952Y-54124285D01*
X126893333Y-54148095D01*
X126702857Y-54148095D01*
X127464761Y-54386190D02*
X127179047Y-54386190D01*
X127321904Y-54386190D02*
X127321904Y-53886190D01*
X127274285Y-53957619D01*
X127226666Y-54005238D01*
X127179047Y-54029047D01*
X127940952Y-54386190D02*
X127655238Y-54386190D01*
X127798095Y-54386190D02*
X127798095Y-53886190D01*
X127750476Y-53957619D01*
X127702857Y-54005238D01*
X127655238Y-54029047D01*
%TO.C,R15*%
X121451904Y-40084285D02*
X121070952Y-40350952D01*
X121451904Y-40541428D02*
X120651904Y-40541428D01*
X120651904Y-40236666D01*
X120690000Y-40160476D01*
X120728095Y-40122380D01*
X120804285Y-40084285D01*
X120918571Y-40084285D01*
X120994761Y-40122380D01*
X121032857Y-40160476D01*
X121070952Y-40236666D01*
X121070952Y-40541428D01*
X121451904Y-39322380D02*
X121451904Y-39779523D01*
X121451904Y-39550952D02*
X120651904Y-39550952D01*
X120766190Y-39627142D01*
X120842380Y-39703333D01*
X120880476Y-39779523D01*
X120651904Y-38598571D02*
X120651904Y-38979523D01*
X121032857Y-39017619D01*
X120994761Y-38979523D01*
X120956666Y-38903333D01*
X120956666Y-38712857D01*
X120994761Y-38636666D01*
X121032857Y-38598571D01*
X121109047Y-38560476D01*
X121299523Y-38560476D01*
X121375714Y-38598571D01*
X121413809Y-38636666D01*
X121451904Y-38712857D01*
X121451904Y-38903333D01*
X121413809Y-38979523D01*
X121375714Y-39017619D01*
%TO.C,SW1*%
X127813809Y-63496666D02*
X127851904Y-63382380D01*
X127851904Y-63191904D01*
X127813809Y-63115714D01*
X127775714Y-63077619D01*
X127699523Y-63039523D01*
X127623333Y-63039523D01*
X127547142Y-63077619D01*
X127509047Y-63115714D01*
X127470952Y-63191904D01*
X127432857Y-63344285D01*
X127394761Y-63420476D01*
X127356666Y-63458571D01*
X127280476Y-63496666D01*
X127204285Y-63496666D01*
X127128095Y-63458571D01*
X127090000Y-63420476D01*
X127051904Y-63344285D01*
X127051904Y-63153809D01*
X127090000Y-63039523D01*
X127051904Y-62772857D02*
X127851904Y-62582380D01*
X127280476Y-62430000D01*
X127851904Y-62277619D01*
X127051904Y-62087142D01*
X127851904Y-61363333D02*
X127851904Y-61820476D01*
X127851904Y-61591904D02*
X127051904Y-61591904D01*
X127166190Y-61668095D01*
X127242380Y-61744285D01*
X127280476Y-61820476D01*
%TO.C,R4*%
X110116666Y-63156190D02*
X109950000Y-62918095D01*
X109830952Y-63156190D02*
X109830952Y-62656190D01*
X110021428Y-62656190D01*
X110069047Y-62680000D01*
X110092857Y-62703809D01*
X110116666Y-62751428D01*
X110116666Y-62822857D01*
X110092857Y-62870476D01*
X110069047Y-62894285D01*
X110021428Y-62918095D01*
X109830952Y-62918095D01*
X110545238Y-62822857D02*
X110545238Y-63156190D01*
X110426190Y-62632380D02*
X110307142Y-62989523D01*
X110616666Y-62989523D01*
%TO.C,J3*%
X137173333Y-58156666D02*
X137173333Y-58656666D01*
X137135238Y-58756666D01*
X137059047Y-58823333D01*
X136944761Y-58856666D01*
X136868571Y-58856666D01*
X137478095Y-58156666D02*
X137973333Y-58156666D01*
X137706666Y-58423333D01*
X137820952Y-58423333D01*
X137897142Y-58456666D01*
X137935238Y-58490000D01*
X137973333Y-58556666D01*
X137973333Y-58723333D01*
X137935238Y-58790000D01*
X137897142Y-58823333D01*
X137820952Y-58856666D01*
X137592380Y-58856666D01*
X137516190Y-58823333D01*
X137478095Y-58790000D01*
%TO.C,SW3*%
X102451666Y-38026190D02*
X102337380Y-37988095D01*
X102146904Y-37988095D01*
X102070714Y-38026190D01*
X102032619Y-38064285D01*
X101994523Y-38140476D01*
X101994523Y-38216666D01*
X102032619Y-38292857D01*
X102070714Y-38330952D01*
X102146904Y-38369047D01*
X102299285Y-38407142D01*
X102375476Y-38445238D01*
X102413571Y-38483333D01*
X102451666Y-38559523D01*
X102451666Y-38635714D01*
X102413571Y-38711904D01*
X102375476Y-38750000D01*
X102299285Y-38788095D01*
X102108809Y-38788095D01*
X101994523Y-38750000D01*
X101727857Y-38788095D02*
X101537380Y-37988095D01*
X101385000Y-38559523D01*
X101232619Y-37988095D01*
X101042142Y-38788095D01*
X100813571Y-38788095D02*
X100318333Y-38788095D01*
X100585000Y-38483333D01*
X100470714Y-38483333D01*
X100394523Y-38445238D01*
X100356428Y-38407142D01*
X100318333Y-38330952D01*
X100318333Y-38140476D01*
X100356428Y-38064285D01*
X100394523Y-38026190D01*
X100470714Y-37988095D01*
X100699285Y-37988095D01*
X100775476Y-38026190D01*
X100813571Y-38064285D01*
%TO.C,U2*%
X110256190Y-51050952D02*
X110660952Y-51050952D01*
X110708571Y-51027142D01*
X110732380Y-51003333D01*
X110756190Y-50955714D01*
X110756190Y-50860476D01*
X110732380Y-50812857D01*
X110708571Y-50789047D01*
X110660952Y-50765238D01*
X110256190Y-50765238D01*
X110303809Y-50550952D02*
X110280000Y-50527142D01*
X110256190Y-50479523D01*
X110256190Y-50360476D01*
X110280000Y-50312857D01*
X110303809Y-50289047D01*
X110351428Y-50265238D01*
X110399047Y-50265238D01*
X110470476Y-50289047D01*
X110756190Y-50574761D01*
X110756190Y-50265238D01*
%TO.C,R3*%
X115611904Y-39713333D02*
X115230952Y-39980000D01*
X115611904Y-40170476D02*
X114811904Y-40170476D01*
X114811904Y-39865714D01*
X114850000Y-39789523D01*
X114888095Y-39751428D01*
X114964285Y-39713333D01*
X115078571Y-39713333D01*
X115154761Y-39751428D01*
X115192857Y-39789523D01*
X115230952Y-39865714D01*
X115230952Y-40170476D01*
X114811904Y-39446666D02*
X114811904Y-38951428D01*
X115116666Y-39218095D01*
X115116666Y-39103809D01*
X115154761Y-39027619D01*
X115192857Y-38989523D01*
X115269047Y-38951428D01*
X115459523Y-38951428D01*
X115535714Y-38989523D01*
X115573809Y-39027619D01*
X115611904Y-39103809D01*
X115611904Y-39332380D01*
X115573809Y-39408571D01*
X115535714Y-39446666D01*
%TO.C,R13*%
X108848571Y-60486190D02*
X108681904Y-60248095D01*
X108562857Y-60486190D02*
X108562857Y-59986190D01*
X108753333Y-59986190D01*
X108800952Y-60010000D01*
X108824761Y-60033809D01*
X108848571Y-60081428D01*
X108848571Y-60152857D01*
X108824761Y-60200476D01*
X108800952Y-60224285D01*
X108753333Y-60248095D01*
X108562857Y-60248095D01*
X109324761Y-60486190D02*
X109039047Y-60486190D01*
X109181904Y-60486190D02*
X109181904Y-59986190D01*
X109134285Y-60057619D01*
X109086666Y-60105238D01*
X109039047Y-60129047D01*
X109491428Y-59986190D02*
X109800952Y-59986190D01*
X109634285Y-60176666D01*
X109705714Y-60176666D01*
X109753333Y-60200476D01*
X109777142Y-60224285D01*
X109800952Y-60271904D01*
X109800952Y-60390952D01*
X109777142Y-60438571D01*
X109753333Y-60462380D01*
X109705714Y-60486190D01*
X109562857Y-60486190D01*
X109515238Y-60462380D01*
X109491428Y-60438571D01*
%TO.C,SW2*%
X102486666Y-62776190D02*
X102372380Y-62738095D01*
X102181904Y-62738095D01*
X102105714Y-62776190D01*
X102067619Y-62814285D01*
X102029523Y-62890476D01*
X102029523Y-62966666D01*
X102067619Y-63042857D01*
X102105714Y-63080952D01*
X102181904Y-63119047D01*
X102334285Y-63157142D01*
X102410476Y-63195238D01*
X102448571Y-63233333D01*
X102486666Y-63309523D01*
X102486666Y-63385714D01*
X102448571Y-63461904D01*
X102410476Y-63500000D01*
X102334285Y-63538095D01*
X102143809Y-63538095D01*
X102029523Y-63500000D01*
X101762857Y-63538095D02*
X101572380Y-62738095D01*
X101420000Y-63309523D01*
X101267619Y-62738095D01*
X101077142Y-63538095D01*
X100810476Y-63461904D02*
X100772380Y-63500000D01*
X100696190Y-63538095D01*
X100505714Y-63538095D01*
X100429523Y-63500000D01*
X100391428Y-63461904D01*
X100353333Y-63385714D01*
X100353333Y-63309523D01*
X100391428Y-63195238D01*
X100848571Y-62738095D01*
X100353333Y-62738095D01*
%TO.C,R9*%
X118111904Y-39713333D02*
X117730952Y-39980000D01*
X118111904Y-40170476D02*
X117311904Y-40170476D01*
X117311904Y-39865714D01*
X117350000Y-39789523D01*
X117388095Y-39751428D01*
X117464285Y-39713333D01*
X117578571Y-39713333D01*
X117654761Y-39751428D01*
X117692857Y-39789523D01*
X117730952Y-39865714D01*
X117730952Y-40170476D01*
X118111904Y-39332380D02*
X118111904Y-39180000D01*
X118073809Y-39103809D01*
X118035714Y-39065714D01*
X117921428Y-38989523D01*
X117769047Y-38951428D01*
X117464285Y-38951428D01*
X117388095Y-38989523D01*
X117350000Y-39027619D01*
X117311904Y-39103809D01*
X117311904Y-39256190D01*
X117350000Y-39332380D01*
X117388095Y-39370476D01*
X117464285Y-39408571D01*
X117654761Y-39408571D01*
X117730952Y-39370476D01*
X117769047Y-39332380D01*
X117807142Y-39256190D01*
X117807142Y-39103809D01*
X117769047Y-39027619D01*
X117730952Y-38989523D01*
X117654761Y-38951428D01*
%TO.C,R16*%
X123095714Y-38641904D02*
X122829047Y-38260952D01*
X122638571Y-38641904D02*
X122638571Y-37841904D01*
X122943333Y-37841904D01*
X123019523Y-37880000D01*
X123057619Y-37918095D01*
X123095714Y-37994285D01*
X123095714Y-38108571D01*
X123057619Y-38184761D01*
X123019523Y-38222857D01*
X122943333Y-38260952D01*
X122638571Y-38260952D01*
X123857619Y-38641904D02*
X123400476Y-38641904D01*
X123629047Y-38641904D02*
X123629047Y-37841904D01*
X123552857Y-37956190D01*
X123476666Y-38032380D01*
X123400476Y-38070476D01*
X124543333Y-37841904D02*
X124390952Y-37841904D01*
X124314761Y-37880000D01*
X124276666Y-37918095D01*
X124200476Y-38032380D01*
X124162380Y-38184761D01*
X124162380Y-38489523D01*
X124200476Y-38565714D01*
X124238571Y-38603809D01*
X124314761Y-38641904D01*
X124467142Y-38641904D01*
X124543333Y-38603809D01*
X124581428Y-38565714D01*
X124619523Y-38489523D01*
X124619523Y-38299047D01*
X124581428Y-38222857D01*
X124543333Y-38184761D01*
X124467142Y-38146666D01*
X124314761Y-38146666D01*
X124238571Y-38184761D01*
X124200476Y-38222857D01*
X124162380Y-38299047D01*
%TO.C,U1*%
X126880476Y-55761904D02*
X126880476Y-56409523D01*
X126918571Y-56485714D01*
X126956666Y-56523809D01*
X127032857Y-56561904D01*
X127185238Y-56561904D01*
X127261428Y-56523809D01*
X127299523Y-56485714D01*
X127337619Y-56409523D01*
X127337619Y-55761904D01*
X128137619Y-56561904D02*
X127680476Y-56561904D01*
X127909047Y-56561904D02*
X127909047Y-55761904D01*
X127832857Y-55876190D01*
X127756666Y-55952380D01*
X127680476Y-55990476D01*
%TO.C,C2*%
X128386666Y-54348571D02*
X128362857Y-54372380D01*
X128291428Y-54396190D01*
X128243809Y-54396190D01*
X128172380Y-54372380D01*
X128124761Y-54324761D01*
X128100952Y-54277142D01*
X128077142Y-54181904D01*
X128077142Y-54110476D01*
X128100952Y-54015238D01*
X128124761Y-53967619D01*
X128172380Y-53920000D01*
X128243809Y-53896190D01*
X128291428Y-53896190D01*
X128362857Y-53920000D01*
X128386666Y-53943809D01*
X128577142Y-53943809D02*
X128600952Y-53920000D01*
X128648571Y-53896190D01*
X128767619Y-53896190D01*
X128815238Y-53920000D01*
X128839047Y-53943809D01*
X128862857Y-53991428D01*
X128862857Y-54039047D01*
X128839047Y-54110476D01*
X128553333Y-54396190D01*
X128862857Y-54396190D01*
%TO.C,R5*%
X113186666Y-60486190D02*
X113020000Y-60248095D01*
X112900952Y-60486190D02*
X112900952Y-59986190D01*
X113091428Y-59986190D01*
X113139047Y-60010000D01*
X113162857Y-60033809D01*
X113186666Y-60081428D01*
X113186666Y-60152857D01*
X113162857Y-60200476D01*
X113139047Y-60224285D01*
X113091428Y-60248095D01*
X112900952Y-60248095D01*
X113639047Y-59986190D02*
X113400952Y-59986190D01*
X113377142Y-60224285D01*
X113400952Y-60200476D01*
X113448571Y-60176666D01*
X113567619Y-60176666D01*
X113615238Y-60200476D01*
X113639047Y-60224285D01*
X113662857Y-60271904D01*
X113662857Y-60390952D01*
X113639047Y-60438571D01*
X113615238Y-60462380D01*
X113567619Y-60486190D01*
X113448571Y-60486190D01*
X113400952Y-60462380D01*
X113377142Y-60438571D01*
%TO.C,D1*%
X111960952Y-63136190D02*
X111960952Y-62636190D01*
X112080000Y-62636190D01*
X112151428Y-62660000D01*
X112199047Y-62707619D01*
X112222857Y-62755238D01*
X112246666Y-62850476D01*
X112246666Y-62921904D01*
X112222857Y-63017142D01*
X112199047Y-63064761D01*
X112151428Y-63112380D01*
X112080000Y-63136190D01*
X111960952Y-63136190D01*
X112722857Y-63136190D02*
X112437142Y-63136190D01*
X112580000Y-63136190D02*
X112580000Y-62636190D01*
X112532380Y-62707619D01*
X112484761Y-62755238D01*
X112437142Y-62779047D01*
%TO.C,C5*%
X107186666Y-60438571D02*
X107162857Y-60462380D01*
X107091428Y-60486190D01*
X107043809Y-60486190D01*
X106972380Y-60462380D01*
X106924761Y-60414761D01*
X106900952Y-60367142D01*
X106877142Y-60271904D01*
X106877142Y-60200476D01*
X106900952Y-60105238D01*
X106924761Y-60057619D01*
X106972380Y-60010000D01*
X107043809Y-59986190D01*
X107091428Y-59986190D01*
X107162857Y-60010000D01*
X107186666Y-60033809D01*
X107639047Y-59986190D02*
X107400952Y-59986190D01*
X107377142Y-60224285D01*
X107400952Y-60200476D01*
X107448571Y-60176666D01*
X107567619Y-60176666D01*
X107615238Y-60200476D01*
X107639047Y-60224285D01*
X107662857Y-60271904D01*
X107662857Y-60390952D01*
X107639047Y-60438571D01*
X107615238Y-60462380D01*
X107567619Y-60486190D01*
X107448571Y-60486190D01*
X107400952Y-60462380D01*
X107377142Y-60438571D01*
%TO.C,R14*%
X107858571Y-63136190D02*
X107691904Y-62898095D01*
X107572857Y-63136190D02*
X107572857Y-62636190D01*
X107763333Y-62636190D01*
X107810952Y-62660000D01*
X107834761Y-62683809D01*
X107858571Y-62731428D01*
X107858571Y-62802857D01*
X107834761Y-62850476D01*
X107810952Y-62874285D01*
X107763333Y-62898095D01*
X107572857Y-62898095D01*
X108334761Y-63136190D02*
X108049047Y-63136190D01*
X108191904Y-63136190D02*
X108191904Y-62636190D01*
X108144285Y-62707619D01*
X108096666Y-62755238D01*
X108049047Y-62779047D01*
X108763333Y-62802857D02*
X108763333Y-63136190D01*
X108644285Y-62612380D02*
X108525238Y-62969523D01*
X108834761Y-62969523D01*
D11*
%TO.C,Q1*%
X126987619Y-39855238D02*
X126940000Y-39950476D01*
X126844761Y-40045714D01*
X126701904Y-40188571D01*
X126654285Y-40283809D01*
X126654285Y-40379047D01*
X126892380Y-40331428D02*
X126844761Y-40426666D01*
X126749523Y-40521904D01*
X126559047Y-40569523D01*
X126225714Y-40569523D01*
X126035238Y-40521904D01*
X125940000Y-40426666D01*
X125892380Y-40331428D01*
X125892380Y-40140952D01*
X125940000Y-40045714D01*
X126035238Y-39950476D01*
X126225714Y-39902857D01*
X126559047Y-39902857D01*
X126749523Y-39950476D01*
X126844761Y-40045714D01*
X126892380Y-40140952D01*
X126892380Y-40331428D01*
X126892380Y-38950476D02*
X126892380Y-39521904D01*
X126892380Y-39236190D02*
X125892380Y-39236190D01*
X126035238Y-39331428D01*
X126130476Y-39426666D01*
X126178095Y-39521904D01*
D10*
%TO.C,R6*%
X105046666Y-60506190D02*
X104880000Y-60268095D01*
X104760952Y-60506190D02*
X104760952Y-60006190D01*
X104951428Y-60006190D01*
X104999047Y-60030000D01*
X105022857Y-60053809D01*
X105046666Y-60101428D01*
X105046666Y-60172857D01*
X105022857Y-60220476D01*
X104999047Y-60244285D01*
X104951428Y-60268095D01*
X104760952Y-60268095D01*
X105475238Y-60006190D02*
X105380000Y-60006190D01*
X105332380Y-60030000D01*
X105308571Y-60053809D01*
X105260952Y-60125238D01*
X105237142Y-60220476D01*
X105237142Y-60410952D01*
X105260952Y-60458571D01*
X105284761Y-60482380D01*
X105332380Y-60506190D01*
X105427619Y-60506190D01*
X105475238Y-60482380D01*
X105499047Y-60458571D01*
X105522857Y-60410952D01*
X105522857Y-60291904D01*
X105499047Y-60244285D01*
X105475238Y-60220476D01*
X105427619Y-60196666D01*
X105332380Y-60196666D01*
X105284761Y-60220476D01*
X105260952Y-60244285D01*
X105237142Y-60291904D01*
D12*
%TO.C,C4*%
X129240000Y-52987836D02*
X129240000Y-52772164D01*
X129960000Y-52987836D02*
X129960000Y-52772164D01*
%TO.C,R12*%
X128755000Y-42713641D02*
X128755000Y-42406359D01*
X127995000Y-42713641D02*
X127995000Y-42406359D01*
D13*
%TO.C,U4*%
X131020000Y-49680000D02*
X131020000Y-46580000D01*
X126220000Y-49680000D02*
X126220000Y-46580000D01*
D14*
X126070000Y-50980000D02*
G75*
G03*
X126070000Y-50980000I-150000J0D01*
G01*
D12*
%TO.C,R8*%
X106575000Y-61426359D02*
X106575000Y-61733641D01*
X105815000Y-61426359D02*
X105815000Y-61733641D01*
D10*
%TO.C,D3*%
X134820000Y-65470000D02*
G75*
G03*
X134820000Y-65470000I-50000J0D01*
G01*
D12*
%TO.C,C7*%
X130880000Y-42667836D02*
X130880000Y-42452164D01*
X130160000Y-42667836D02*
X130160000Y-42452164D01*
%TO.C,C3*%
X125860000Y-52987836D02*
X125860000Y-52772164D01*
X126580000Y-52987836D02*
X126580000Y-52772164D01*
%TO.C,J1*%
X138460000Y-43010000D02*
X137350000Y-43010000D01*
X138460000Y-41490000D02*
X138460000Y-36475000D01*
X136786529Y-41490000D02*
X136240000Y-41490000D01*
X138460000Y-36475000D02*
X137657530Y-36475000D01*
X136240000Y-41490000D02*
X136240000Y-36475000D01*
X137042470Y-36475000D02*
X136240000Y-36475000D01*
X138460000Y-42250000D02*
X138460000Y-43010000D01*
X138460000Y-41490000D02*
X137913471Y-41490000D01*
D10*
%TO.C,D2*%
X133445000Y-65470000D02*
G75*
G03*
X133445000Y-65470000I-50000J0D01*
G01*
D12*
%TO.C,C6*%
X131080000Y-52987836D02*
X131080000Y-52772164D01*
X130360000Y-52987836D02*
X130360000Y-52772164D01*
%TO.C,R7*%
X111040000Y-39733641D02*
X111040000Y-39426359D01*
X111800000Y-39733641D02*
X111800000Y-39426359D01*
%TO.C,R10*%
X125840000Y-42713641D02*
X125840000Y-42406359D01*
X126600000Y-42713641D02*
X126600000Y-42406359D01*
%TO.C,R2*%
X110870000Y-61733641D02*
X110870000Y-61426359D01*
X111630000Y-61733641D02*
X111630000Y-61426359D01*
%TO.C,R1*%
X114300000Y-39733641D02*
X114300000Y-39426359D01*
X113540000Y-39733641D02*
X113540000Y-39426359D01*
D13*
%TO.C,C1*%
X119020000Y-59930000D02*
X120947000Y-59930000D01*
X121383000Y-62780000D02*
X121383000Y-60380000D01*
X115493000Y-63230000D02*
X115493000Y-59930000D01*
X119020000Y-63230000D02*
X120947000Y-63230000D01*
X120947000Y-63230000D02*
X121383000Y-62780000D01*
X120947000Y-63230000D02*
X120947000Y-59930000D01*
X115493000Y-59930000D02*
X117420000Y-59930000D01*
X115493000Y-63230000D02*
X117420000Y-63230000D01*
X120947000Y-59930000D02*
X121383000Y-60380000D01*
D12*
%TO.C,R11*%
X126970000Y-53033641D02*
X126970000Y-52726359D01*
X127730000Y-53033641D02*
X127730000Y-52726359D01*
%TO.C,R15*%
X122600000Y-39466359D02*
X122600000Y-39773641D01*
X121840000Y-39466359D02*
X121840000Y-39773641D01*
%TO.C,SW1*%
X126420000Y-65100000D02*
X126620000Y-65310000D01*
X127720000Y-65100000D02*
X127720000Y-63810000D01*
X131270000Y-62800000D02*
X131270000Y-62010000D01*
X126420000Y-63810000D02*
X126420000Y-65100000D01*
X124970000Y-63810000D02*
X130670000Y-63810000D01*
X124370000Y-62010000D02*
X124370000Y-62800000D01*
X126620000Y-65310000D02*
X127520000Y-65310000D01*
X126220000Y-60960000D02*
X127920000Y-60960000D01*
X127720000Y-65100000D02*
X127520000Y-65310000D01*
X129220000Y-60960000D02*
X129420000Y-60960000D01*
%TO.C,R4*%
X110615000Y-61426359D02*
X110615000Y-61733641D01*
X109855000Y-61426359D02*
X109855000Y-61733641D01*
%TO.C,J3*%
X138500000Y-59010000D02*
X135840000Y-59010000D01*
X138500000Y-62880000D02*
X138500000Y-64210000D01*
X138500000Y-61610000D02*
X135840000Y-61610000D01*
X138500000Y-61610000D02*
X138500000Y-59010000D01*
X138500000Y-64210000D02*
X137170000Y-64210000D01*
X135840000Y-61610000D02*
X135840000Y-59010000D01*
%TO.C,SW3*%
X99410000Y-39750000D02*
X99410000Y-39300000D01*
X103410000Y-39750000D02*
X99410000Y-39750000D01*
X103410000Y-39300000D02*
X103410000Y-39750000D01*
X99410000Y-36850000D02*
X103410000Y-36850000D01*
X99410000Y-37300000D02*
X99410000Y-36850000D01*
X103410000Y-36850000D02*
X103410000Y-37300000D01*
%TO.C,U2*%
X105090000Y-58840000D02*
X105090000Y-59450000D01*
X97470000Y-42600000D02*
X105090000Y-42600000D01*
X121710000Y-56720000D02*
X121710000Y-58840000D01*
X105090000Y-58840000D02*
X97470000Y-58840000D01*
X121710000Y-58840000D02*
X121090000Y-58840000D01*
X97470000Y-58840000D02*
X97470000Y-42600000D01*
X121090000Y-42600000D02*
X121710000Y-42600000D01*
X121710000Y-42600000D02*
X121710000Y-44720000D01*
%TO.C,R3*%
X116040000Y-39733641D02*
X116040000Y-39426359D01*
X116800000Y-39733641D02*
X116800000Y-39426359D01*
%TO.C,R13*%
X109600000Y-61426359D02*
X109600000Y-61733641D01*
X108840000Y-61426359D02*
X108840000Y-61733641D01*
%TO.C,SW2*%
X103420000Y-64180000D02*
X103420000Y-64630000D01*
X103420000Y-64630000D02*
X99420000Y-64630000D01*
X103420000Y-61730000D02*
X103420000Y-62180000D01*
X99420000Y-61730000D02*
X103420000Y-61730000D01*
X99420000Y-64630000D02*
X99420000Y-64180000D01*
X99420000Y-62180000D02*
X99420000Y-61730000D01*
%TO.C,R9*%
X119300000Y-39733641D02*
X119300000Y-39426359D01*
X118540000Y-39733641D02*
X118540000Y-39426359D01*
%TO.C,R16*%
X124340000Y-39466359D02*
X124340000Y-39773641D01*
X123580000Y-39466359D02*
X123580000Y-39773641D01*
%TO.C,U1*%
X128620000Y-57740000D02*
X130420000Y-57740000D01*
X128620000Y-57740000D02*
X127820000Y-57740000D01*
X128620000Y-54620000D02*
X129420000Y-54620000D01*
X128620000Y-54620000D02*
X127820000Y-54620000D01*
%TO.C,C2*%
X128120000Y-52987836D02*
X128120000Y-52772164D01*
X128840000Y-52987836D02*
X128840000Y-52772164D01*
%TO.C,R5*%
X112900000Y-61426359D02*
X112900000Y-61733641D01*
X113660000Y-61426359D02*
X113660000Y-61733641D01*
D10*
%TO.C,D1*%
X112315000Y-60490000D02*
G75*
G03*
X112315000Y-60490000I-50000J0D01*
G01*
D12*
%TO.C,C5*%
X107560000Y-61707836D02*
X107560000Y-61492164D01*
X106840000Y-61707836D02*
X106840000Y-61492164D01*
%TO.C,R14*%
X108585000Y-61733641D02*
X108585000Y-61426359D01*
X107825000Y-61733641D02*
X107825000Y-61426359D01*
%TO.C,Q1*%
X124890000Y-39070000D02*
X124890000Y-40745000D01*
X128010000Y-39070000D02*
X128010000Y-39720000D01*
X124890000Y-39070000D02*
X124890000Y-38420000D01*
X128010000Y-39070000D02*
X128010000Y-38420000D01*
%TO.C,R6*%
X104800000Y-61426359D02*
X104800000Y-61733641D01*
X105560000Y-61426359D02*
X105560000Y-61733641D01*
%TD*%
M02*
