%TF.GenerationSoftware,KiCad,Pcbnew,(6.0.2)*%
%TF.CreationDate,2022-03-06T12:06:18+08:00*%
%TF.ProjectId,screen,73637265-656e-42e6-9b69-6361645f7063,rev?*%
%TF.SameCoordinates,Original*%
%TF.FileFunction,Copper,L2,Inr*%
%TF.FilePolarity,Positive*%
%FSLAX46Y46*%
G04 Gerber Fmt 4.6, Leading zero omitted, Abs format (unit mm)*
G04 Created by KiCad (PCBNEW (6.0.2)) date 2022-03-06 12:06:18*
%MOMM*%
%LPD*%
G01*
G04 APERTURE LIST*
%TA.AperFunction,ComponentPad*%
%ADD10R,1.350000X1.350000*%
%TD*%
%TA.AperFunction,ComponentPad*%
%ADD11O,1.350000X1.350000*%
%TD*%
%TA.AperFunction,ComponentPad*%
%ADD12O,1.850000X0.850000*%
%TD*%
%TA.AperFunction,ComponentPad*%
%ADD13R,1.700000X1.700000*%
%TD*%
%TA.AperFunction,ComponentPad*%
%ADD14O,1.700000X1.700000*%
%TD*%
%TA.AperFunction,ViaPad*%
%ADD15C,0.800000*%
%TD*%
G04 APERTURE END LIST*
D10*
%TO.N,GND*%
%TO.C,J1*%
X137550000Y-45000000D03*
D11*
%TO.N,/GPIO0*%
X137550000Y-43000000D03*
%TO.N,/RXD*%
X137550000Y-41000000D03*
%TO.N,/TXD*%
X137550000Y-39000000D03*
%TO.N,/EN*%
X137550000Y-37000000D03*
%TD*%
D12*
%TO.N,GND*%
%TO.C,J2*%
X135450000Y-47480000D03*
X135450000Y-56120000D03*
%TD*%
D13*
%TO.N,+BATT*%
%TO.C,J3*%
X135625000Y-60150000D03*
D14*
%TO.N,GND*%
X135625000Y-62690000D03*
%TD*%
D15*
%TO.N,+3V3*%
X127482500Y-57130000D03*
X124020000Y-39070000D03*
X115130000Y-39070000D03*
X106170000Y-62090000D03*
X110720000Y-62110000D03*
X130800000Y-54475000D03*
X116475000Y-55600000D03*
X119720000Y-61580000D03*
%TO.N,GND*%
X120125000Y-43100000D03*
X127440000Y-39930000D03*
X117975000Y-46500000D03*
X128150000Y-47125000D03*
X119400000Y-47950000D03*
X119400000Y-46450000D03*
X116750000Y-61575000D03*
X99350000Y-63100000D03*
X118025000Y-47950000D03*
X127100000Y-47125000D03*
X107760000Y-62100000D03*
X127125000Y-49000000D03*
X130550000Y-42970000D03*
X99350000Y-38300000D03*
X128150000Y-49000000D03*
%TO.N,Net-(C2-Pad1)*%
X128570000Y-60650000D03*
X128475000Y-53350000D03*
%TO.N,/GPIO0*%
X114090000Y-43120000D03*
X116225000Y-53000000D03*
%TO.N,/GPIO2*%
X116090000Y-48020000D03*
%TO.N,/GPIO14*%
X114675000Y-52450000D03*
%TO.N,/GPIO13*%
X117330000Y-51030000D03*
%TO.N,/GPIO5*%
X117475000Y-37850000D03*
X110090000Y-43120000D03*
%TO.N,Net-(R7-Pad2)*%
X103500000Y-38325000D03*
X111420000Y-39070000D03*
%TO.N,+BATT*%
X124570000Y-59180000D03*
X130525000Y-45480000D03*
X109270000Y-62050000D03*
X129757500Y-57130000D03*
%TO.N,Net-(Q1-Pad3)*%
X123525000Y-48925000D03*
%TD*%
%TA.AperFunction,Conductor*%
%TO.N,GND*%
G36*
X139154191Y-35898907D02*
G01*
X139190155Y-35948407D01*
X139195000Y-35979000D01*
X139195000Y-65381000D01*
X139176093Y-65439191D01*
X139126593Y-65475155D01*
X139096000Y-65480000D01*
X97794000Y-65480000D01*
X97735809Y-65461093D01*
X97699845Y-65411593D01*
X97695000Y-65381000D01*
X97695000Y-62090000D01*
X105564318Y-62090000D01*
X105565165Y-62096434D01*
X105566104Y-62103566D01*
X105584956Y-62246762D01*
X105645464Y-62392841D01*
X105741718Y-62518282D01*
X105867159Y-62614536D01*
X105921438Y-62637019D01*
X105996607Y-62668155D01*
X106013238Y-62675044D01*
X106170000Y-62695682D01*
X106326762Y-62675044D01*
X106343394Y-62668155D01*
X106418562Y-62637019D01*
X106472841Y-62614536D01*
X106598282Y-62518282D01*
X106694536Y-62392841D01*
X106755044Y-62246762D01*
X106773896Y-62103566D01*
X106774835Y-62096434D01*
X106775682Y-62090000D01*
X106770416Y-62050000D01*
X108664318Y-62050000D01*
X108684956Y-62206762D01*
X108687440Y-62212759D01*
X108691845Y-62223394D01*
X108745464Y-62352841D01*
X108841718Y-62478282D01*
X108967159Y-62574536D01*
X109113238Y-62635044D01*
X109270000Y-62655682D01*
X109426762Y-62635044D01*
X109572841Y-62574536D01*
X109698282Y-62478282D01*
X109794536Y-62352841D01*
X109848155Y-62223394D01*
X109852560Y-62212759D01*
X109855044Y-62206762D01*
X109867783Y-62110000D01*
X110114318Y-62110000D01*
X110134956Y-62266762D01*
X110195464Y-62412841D01*
X110291718Y-62538282D01*
X110417159Y-62634536D01*
X110563238Y-62695044D01*
X110720000Y-62715682D01*
X110876762Y-62695044D01*
X111022841Y-62634536D01*
X111148282Y-62538282D01*
X111184482Y-62491105D01*
X125619031Y-62491105D01*
X125620423Y-62496901D01*
X125620423Y-62496905D01*
X125646207Y-62604297D01*
X125658612Y-62655968D01*
X125736375Y-62806631D01*
X125847831Y-62934396D01*
X125852713Y-62937827D01*
X125852714Y-62937828D01*
X125915341Y-62981843D01*
X125986547Y-63031887D01*
X126144513Y-63093476D01*
X126150428Y-63094255D01*
X126150429Y-63094255D01*
X126203624Y-63101258D01*
X126273826Y-63110500D01*
X126362516Y-63110500D01*
X126385443Y-63107726D01*
X126482398Y-63095993D01*
X126482401Y-63095992D01*
X126488320Y-63095276D01*
X126646923Y-63035345D01*
X126651840Y-63031965D01*
X126651843Y-63031964D01*
X126781733Y-62942692D01*
X126786651Y-62939312D01*
X126899440Y-62812721D01*
X126902665Y-62806631D01*
X126961298Y-62695891D01*
X126978776Y-62662881D01*
X127001959Y-62570585D01*
X127018627Y-62504231D01*
X127018627Y-62504228D01*
X127020081Y-62498441D01*
X127020119Y-62491105D01*
X128619031Y-62491105D01*
X128620423Y-62496901D01*
X128620423Y-62496905D01*
X128646207Y-62604297D01*
X128658612Y-62655968D01*
X128736375Y-62806631D01*
X128847831Y-62934396D01*
X128852713Y-62937827D01*
X128852714Y-62937828D01*
X128915341Y-62981843D01*
X128986547Y-63031887D01*
X129144513Y-63093476D01*
X129150428Y-63094255D01*
X129150429Y-63094255D01*
X129203624Y-63101258D01*
X129273826Y-63110500D01*
X129362516Y-63110500D01*
X129385443Y-63107726D01*
X129482398Y-63095993D01*
X129482401Y-63095992D01*
X129488320Y-63095276D01*
X129646923Y-63035345D01*
X129651840Y-63031965D01*
X129651843Y-63031964D01*
X129760895Y-62957014D01*
X134293043Y-62957014D01*
X134323807Y-63093524D01*
X134326231Y-63101258D01*
X134407183Y-63300620D01*
X134410840Y-63307860D01*
X134523266Y-63491322D01*
X134528056Y-63497867D01*
X134668935Y-63660502D01*
X134674729Y-63666176D01*
X134840292Y-63803629D01*
X134846921Y-63808270D01*
X135032713Y-63916838D01*
X135040008Y-63920334D01*
X135241038Y-63997099D01*
X135248808Y-63999357D01*
X135355637Y-64021091D01*
X135368846Y-64019586D01*
X135371000Y-64011405D01*
X135371000Y-64010952D01*
X135879000Y-64010952D01*
X135883122Y-64023637D01*
X135884650Y-64024748D01*
X135889884Y-64025238D01*
X135904291Y-64023392D01*
X135912200Y-64021710D01*
X136118304Y-63959876D01*
X136125852Y-63956918D01*
X136319087Y-63862253D01*
X136326046Y-63858104D01*
X136501231Y-63733148D01*
X136507412Y-63727924D01*
X136659831Y-63576035D01*
X136665088Y-63569858D01*
X136790651Y-63395119D01*
X136794823Y-63388176D01*
X136890164Y-63195268D01*
X136893144Y-63187744D01*
X136955701Y-62981843D01*
X136957410Y-62973938D01*
X136959304Y-62959547D01*
X136956873Y-62946431D01*
X136955571Y-62945195D01*
X136950290Y-62944000D01*
X135894680Y-62944000D01*
X135881995Y-62948122D01*
X135879000Y-62952243D01*
X135879000Y-64010952D01*
X135371000Y-64010952D01*
X135371000Y-62959680D01*
X135366878Y-62946995D01*
X135362757Y-62944000D01*
X134305790Y-62944000D01*
X134293460Y-62948006D01*
X134293043Y-62957014D01*
X129760895Y-62957014D01*
X129781733Y-62942692D01*
X129786651Y-62939312D01*
X129899440Y-62812721D01*
X129902665Y-62806631D01*
X129961298Y-62695891D01*
X129978776Y-62662881D01*
X130001959Y-62570585D01*
X130018627Y-62504231D01*
X130018627Y-62504228D01*
X130020081Y-62498441D01*
X130020464Y-62425384D01*
X134289056Y-62425384D01*
X134290756Y-62433462D01*
X134292566Y-62435098D01*
X134296792Y-62436000D01*
X136945779Y-62436000D01*
X136957730Y-62432117D01*
X136958058Y-62422462D01*
X136915946Y-62254809D01*
X136913333Y-62247133D01*
X136827534Y-62049807D01*
X136823701Y-62042660D01*
X136706826Y-61861997D01*
X136701880Y-61855575D01*
X136557065Y-61696426D01*
X136551139Y-61690899D01*
X136382269Y-61557534D01*
X136375525Y-61553054D01*
X136187141Y-61449060D01*
X136179749Y-61445738D01*
X136030316Y-61392821D01*
X135981774Y-61355574D01*
X135964397Y-61296908D01*
X135984821Y-61239232D01*
X136035246Y-61204577D01*
X136063363Y-61200500D01*
X136494748Y-61200500D01*
X136520995Y-61195279D01*
X136543666Y-61190770D01*
X136543668Y-61190769D01*
X136553231Y-61188867D01*
X136619552Y-61144552D01*
X136663867Y-61078231D01*
X136675500Y-61019748D01*
X136675500Y-59280252D01*
X136663867Y-59221769D01*
X136619552Y-59155448D01*
X136553231Y-59111133D01*
X136543668Y-59109231D01*
X136543666Y-59109230D01*
X136520995Y-59104721D01*
X136494748Y-59099500D01*
X134755252Y-59099500D01*
X134729005Y-59104721D01*
X134706334Y-59109230D01*
X134706332Y-59109231D01*
X134696769Y-59111133D01*
X134630448Y-59155448D01*
X134586133Y-59221769D01*
X134574500Y-59280252D01*
X134574500Y-61019748D01*
X134586133Y-61078231D01*
X134630448Y-61144552D01*
X134696769Y-61188867D01*
X134706332Y-61190769D01*
X134706334Y-61190770D01*
X134729005Y-61195279D01*
X134755252Y-61200500D01*
X135189241Y-61200500D01*
X135247432Y-61219407D01*
X135283396Y-61268907D01*
X135283396Y-61330093D01*
X135247432Y-61379593D01*
X135219998Y-61393601D01*
X135100807Y-61432558D01*
X135093350Y-61435693D01*
X134902479Y-61535054D01*
X134895627Y-61539369D01*
X134723544Y-61668573D01*
X134717491Y-61673947D01*
X134568830Y-61829513D01*
X134563727Y-61835814D01*
X134442466Y-62013575D01*
X134438468Y-62020613D01*
X134347871Y-62215790D01*
X134345073Y-62223394D01*
X134289056Y-62425384D01*
X130020464Y-62425384D01*
X130020634Y-62392841D01*
X130020938Y-62334861D01*
X130020938Y-62334859D01*
X130020969Y-62328895D01*
X129981388Y-62164032D01*
X129903625Y-62013369D01*
X129792169Y-61885604D01*
X129712360Y-61829513D01*
X129658335Y-61791544D01*
X129658334Y-61791544D01*
X129653453Y-61788113D01*
X129563789Y-61753154D01*
X129501048Y-61728692D01*
X129501047Y-61728692D01*
X129495487Y-61726524D01*
X129489572Y-61725745D01*
X129489571Y-61725745D01*
X129369387Y-61709923D01*
X129366174Y-61709500D01*
X129277484Y-61709500D01*
X129273989Y-61709923D01*
X129157602Y-61724007D01*
X129157599Y-61724008D01*
X129151680Y-61724724D01*
X128993077Y-61784655D01*
X128988160Y-61788035D01*
X128988157Y-61788036D01*
X128889888Y-61855575D01*
X128853349Y-61880688D01*
X128740560Y-62007279D01*
X128737770Y-62012549D01*
X128737769Y-62012550D01*
X128737226Y-62013575D01*
X128661224Y-62157119D01*
X128619919Y-62321559D01*
X128619787Y-62346846D01*
X128619391Y-62422462D01*
X128619031Y-62491105D01*
X127020119Y-62491105D01*
X127020634Y-62392841D01*
X127020938Y-62334861D01*
X127020938Y-62334859D01*
X127020969Y-62328895D01*
X126981388Y-62164032D01*
X126903625Y-62013369D01*
X126792169Y-61885604D01*
X126712360Y-61829513D01*
X126658335Y-61791544D01*
X126658334Y-61791544D01*
X126653453Y-61788113D01*
X126563789Y-61753154D01*
X126501048Y-61728692D01*
X126501047Y-61728692D01*
X126495487Y-61726524D01*
X126489572Y-61725745D01*
X126489571Y-61725745D01*
X126369387Y-61709923D01*
X126366174Y-61709500D01*
X126277484Y-61709500D01*
X126273989Y-61709923D01*
X126157602Y-61724007D01*
X126157599Y-61724008D01*
X126151680Y-61724724D01*
X125993077Y-61784655D01*
X125988160Y-61788035D01*
X125988157Y-61788036D01*
X125889888Y-61855575D01*
X125853349Y-61880688D01*
X125740560Y-62007279D01*
X125737770Y-62012549D01*
X125737769Y-62012550D01*
X125737226Y-62013575D01*
X125661224Y-62157119D01*
X125619919Y-62321559D01*
X125619787Y-62346846D01*
X125619391Y-62422462D01*
X125619031Y-62491105D01*
X111184482Y-62491105D01*
X111244536Y-62412841D01*
X111305044Y-62266762D01*
X111325682Y-62110000D01*
X111324443Y-62100585D01*
X111316936Y-62043566D01*
X111305044Y-61953238D01*
X111244536Y-61807159D01*
X111148282Y-61681718D01*
X111022841Y-61585464D01*
X111009650Y-61580000D01*
X119114318Y-61580000D01*
X119115165Y-61586434D01*
X119117684Y-61605569D01*
X119134956Y-61736762D01*
X119195464Y-61882841D01*
X119291718Y-62008282D01*
X119417159Y-62104536D01*
X119563238Y-62165044D01*
X119720000Y-62185682D01*
X119876762Y-62165044D01*
X120022841Y-62104536D01*
X120148282Y-62008282D01*
X120244536Y-61882841D01*
X120305044Y-61736762D01*
X120322316Y-61605569D01*
X120324835Y-61586434D01*
X120325682Y-61580000D01*
X120324289Y-61569415D01*
X120310425Y-61464109D01*
X120305044Y-61423238D01*
X120244536Y-61277159D01*
X120148282Y-61151718D01*
X120022841Y-61055464D01*
X119876762Y-60994956D01*
X119720000Y-60974318D01*
X119563238Y-60994956D01*
X119417159Y-61055464D01*
X119291718Y-61151718D01*
X119195464Y-61277159D01*
X119134956Y-61423238D01*
X119129575Y-61464109D01*
X119115712Y-61569415D01*
X119114318Y-61580000D01*
X111009650Y-61580000D01*
X110876762Y-61524956D01*
X110720000Y-61504318D01*
X110563238Y-61524956D01*
X110417159Y-61585464D01*
X110291718Y-61681718D01*
X110195464Y-61807159D01*
X110134956Y-61953238D01*
X110123064Y-62043566D01*
X110115558Y-62100585D01*
X110114318Y-62110000D01*
X109867783Y-62110000D01*
X109875682Y-62050000D01*
X109855044Y-61893238D01*
X109794536Y-61747159D01*
X109698282Y-61621718D01*
X109572841Y-61525464D01*
X109426762Y-61464956D01*
X109270000Y-61444318D01*
X109113238Y-61464956D01*
X108967159Y-61525464D01*
X108841718Y-61621718D01*
X108745464Y-61747159D01*
X108684956Y-61893238D01*
X108664318Y-62050000D01*
X106770416Y-62050000D01*
X106755044Y-61933238D01*
X106694536Y-61787159D01*
X106598282Y-61661718D01*
X106472841Y-61565464D01*
X106326762Y-61504956D01*
X106170000Y-61484318D01*
X106013238Y-61504956D01*
X105867159Y-61565464D01*
X105741718Y-61661718D01*
X105645464Y-61787159D01*
X105584956Y-61933238D01*
X105564318Y-62090000D01*
X97695000Y-62090000D01*
X97695000Y-60979000D01*
X97713907Y-60920809D01*
X97763407Y-60884845D01*
X97794000Y-60880000D01*
X103489123Y-60880000D01*
X103540449Y-60880045D01*
X103550498Y-60875219D01*
X103550500Y-60875219D01*
X103551341Y-60874815D01*
X103572183Y-60867537D01*
X103573093Y-60867330D01*
X103573096Y-60867328D01*
X103583962Y-60864850D01*
X103593210Y-60857480D01*
X103612046Y-60845666D01*
X103612653Y-60845375D01*
X103612657Y-60845372D01*
X103622705Y-60840547D01*
X103630254Y-60831107D01*
X103645872Y-60815516D01*
X103655323Y-60807985D01*
X103660459Y-60797337D01*
X103672308Y-60778522D01*
X103672730Y-60777995D01*
X103672732Y-60777990D01*
X103679694Y-60769285D01*
X103682402Y-60757508D01*
X103689715Y-60736682D01*
X103690123Y-60735836D01*
X103694965Y-60725798D01*
X103694985Y-60702787D01*
X103696730Y-60702789D01*
X103696724Y-60702723D01*
X103695000Y-60702723D01*
X103695000Y-60685877D01*
X103695032Y-60650000D01*
X127964318Y-60650000D01*
X127984956Y-60806762D01*
X128045464Y-60952841D01*
X128141718Y-61078282D01*
X128267159Y-61174536D01*
X128413238Y-61235044D01*
X128570000Y-61255682D01*
X128726762Y-61235044D01*
X128872841Y-61174536D01*
X128998282Y-61078282D01*
X129094536Y-60952841D01*
X129155044Y-60806762D01*
X129175682Y-60650000D01*
X129155044Y-60493238D01*
X129094536Y-60347159D01*
X128998282Y-60221718D01*
X128872841Y-60125464D01*
X128726762Y-60064956D01*
X128570000Y-60044318D01*
X128413238Y-60064956D01*
X128267159Y-60125464D01*
X128141718Y-60221718D01*
X128045464Y-60347159D01*
X127984956Y-60493238D01*
X127964318Y-60650000D01*
X103695032Y-60650000D01*
X103695045Y-60634840D01*
X103695045Y-60634551D01*
X103695003Y-60634463D01*
X103695000Y-60634439D01*
X103695000Y-59040862D01*
X121355497Y-59040862D01*
X121385134Y-59213340D01*
X121453654Y-59374373D01*
X121557383Y-59515324D01*
X121561765Y-59519047D01*
X121561767Y-59519049D01*
X121686369Y-59624906D01*
X121690755Y-59628632D01*
X121770337Y-59669269D01*
X121841492Y-59705603D01*
X121841495Y-59705604D01*
X121846616Y-59708219D01*
X121852201Y-59709586D01*
X121852202Y-59709586D01*
X122012326Y-59748768D01*
X122012329Y-59748768D01*
X122016606Y-59749815D01*
X122021004Y-59750088D01*
X122021005Y-59750088D01*
X122026132Y-59750406D01*
X122026133Y-59750406D01*
X122027648Y-59750500D01*
X122153822Y-59750500D01*
X122159698Y-59749815D01*
X122168678Y-59748768D01*
X122283828Y-59735343D01*
X122289234Y-59733381D01*
X122289237Y-59733380D01*
X122442923Y-59677594D01*
X122448331Y-59675631D01*
X122453140Y-59672478D01*
X122453144Y-59672476D01*
X122589877Y-59582829D01*
X122594685Y-59579677D01*
X122598634Y-59575508D01*
X122598638Y-59575505D01*
X122711084Y-59456804D01*
X122715040Y-59452628D01*
X122802939Y-59301298D01*
X122839676Y-59180000D01*
X123964318Y-59180000D01*
X123984956Y-59336762D01*
X124045464Y-59482841D01*
X124141718Y-59608282D01*
X124267159Y-59704536D01*
X124413238Y-59765044D01*
X124570000Y-59785682D01*
X124726762Y-59765044D01*
X124872841Y-59704536D01*
X124998282Y-59608282D01*
X125094536Y-59482841D01*
X125155044Y-59336762D01*
X125175682Y-59180000D01*
X125155044Y-59023238D01*
X125094536Y-58877159D01*
X124998282Y-58751718D01*
X124872841Y-58655464D01*
X124726762Y-58594956D01*
X124570000Y-58574318D01*
X124413238Y-58594956D01*
X124267159Y-58655464D01*
X124141718Y-58751718D01*
X124045464Y-58877159D01*
X123984956Y-59023238D01*
X123964318Y-59180000D01*
X122839676Y-59180000D01*
X122841625Y-59173566D01*
X122852000Y-59139312D01*
X122852000Y-59139310D01*
X122853667Y-59133807D01*
X122864503Y-58959138D01*
X122834866Y-58786660D01*
X122766346Y-58625627D01*
X122662617Y-58484676D01*
X122658235Y-58480953D01*
X122658233Y-58480951D01*
X122533631Y-58375094D01*
X122533630Y-58375093D01*
X122529245Y-58371368D01*
X122443382Y-58327524D01*
X122378508Y-58294397D01*
X122378505Y-58294396D01*
X122373384Y-58291781D01*
X122367799Y-58290414D01*
X122367798Y-58290414D01*
X122207674Y-58251232D01*
X122207671Y-58251232D01*
X122203394Y-58250185D01*
X122198996Y-58249912D01*
X122198995Y-58249912D01*
X122193868Y-58249594D01*
X122193867Y-58249594D01*
X122192352Y-58249500D01*
X122066178Y-58249500D01*
X122063331Y-58249832D01*
X122063330Y-58249832D01*
X122052662Y-58251076D01*
X121936172Y-58264657D01*
X121930766Y-58266619D01*
X121930763Y-58266620D01*
X121854240Y-58294397D01*
X121771669Y-58324369D01*
X121766860Y-58327522D01*
X121766856Y-58327524D01*
X121675054Y-58387712D01*
X121625315Y-58420323D01*
X121621366Y-58424492D01*
X121621362Y-58424495D01*
X121512451Y-58539464D01*
X121504960Y-58547372D01*
X121502073Y-58552342D01*
X121502071Y-58552345D01*
X121419950Y-58693728D01*
X121417061Y-58698702D01*
X121366333Y-58866193D01*
X121355497Y-59040862D01*
X103695000Y-59040862D01*
X103695000Y-57130000D01*
X126876818Y-57130000D01*
X126897456Y-57286762D01*
X126957964Y-57432841D01*
X127054218Y-57558282D01*
X127179659Y-57654536D01*
X127325738Y-57715044D01*
X127482500Y-57735682D01*
X127639262Y-57715044D01*
X127785341Y-57654536D01*
X127910782Y-57558282D01*
X128007036Y-57432841D01*
X128067544Y-57286762D01*
X128088182Y-57130000D01*
X129151818Y-57130000D01*
X129172456Y-57286762D01*
X129232964Y-57432841D01*
X129329218Y-57558282D01*
X129454659Y-57654536D01*
X129600738Y-57715044D01*
X129757500Y-57735682D01*
X129914262Y-57715044D01*
X130060341Y-57654536D01*
X130185782Y-57558282D01*
X130282036Y-57432841D01*
X130342544Y-57286762D01*
X130363182Y-57130000D01*
X130342544Y-56973238D01*
X130282036Y-56827159D01*
X130185782Y-56701718D01*
X130060341Y-56605464D01*
X129914262Y-56544956D01*
X129757500Y-56524318D01*
X129600738Y-56544956D01*
X129454659Y-56605464D01*
X129329218Y-56701718D01*
X129232964Y-56827159D01*
X129172456Y-56973238D01*
X129151818Y-57130000D01*
X128088182Y-57130000D01*
X128067544Y-56973238D01*
X128007036Y-56827159D01*
X127910782Y-56701718D01*
X127785341Y-56605464D01*
X127639262Y-56544956D01*
X127482500Y-56524318D01*
X127325738Y-56544956D01*
X127179659Y-56605464D01*
X127054218Y-56701718D01*
X126957964Y-56827159D01*
X126897456Y-56973238D01*
X126876818Y-57130000D01*
X103695000Y-57130000D01*
X103695000Y-56386746D01*
X134052855Y-56386746D01*
X134056699Y-56404830D01*
X134059886Y-56414639D01*
X134135437Y-56584329D01*
X134140598Y-56593268D01*
X134249777Y-56743540D01*
X134256681Y-56751208D01*
X134394725Y-56875502D01*
X134403068Y-56881564D01*
X134563929Y-56974438D01*
X134573358Y-56978636D01*
X134750022Y-57036037D01*
X134760102Y-57038179D01*
X134898525Y-57052729D01*
X134903707Y-57053000D01*
X135180320Y-57053000D01*
X135193005Y-57048878D01*
X135196000Y-57044757D01*
X135196000Y-57037320D01*
X135704000Y-57037320D01*
X135708122Y-57050005D01*
X135712243Y-57053000D01*
X135996293Y-57053000D01*
X136001475Y-57052729D01*
X136139898Y-57038179D01*
X136149978Y-57036037D01*
X136326642Y-56978636D01*
X136336071Y-56974438D01*
X136496932Y-56881564D01*
X136505275Y-56875502D01*
X136643317Y-56751210D01*
X136650223Y-56743540D01*
X136759407Y-56593261D01*
X136764560Y-56584336D01*
X136840114Y-56414639D01*
X136843301Y-56404830D01*
X136846594Y-56389338D01*
X136845218Y-56376250D01*
X136836821Y-56374000D01*
X135719680Y-56374000D01*
X135706995Y-56378122D01*
X135704000Y-56382243D01*
X135704000Y-57037320D01*
X135196000Y-57037320D01*
X135196000Y-56389680D01*
X135191878Y-56376995D01*
X135187757Y-56374000D01*
X134065826Y-56374000D01*
X134053310Y-56378067D01*
X134052855Y-56386746D01*
X103695000Y-56386746D01*
X103695000Y-55600000D01*
X115869318Y-55600000D01*
X115889956Y-55756762D01*
X115950464Y-55902841D01*
X116046718Y-56028282D01*
X116172159Y-56124536D01*
X116318238Y-56185044D01*
X116475000Y-56205682D01*
X116631762Y-56185044D01*
X116777841Y-56124536D01*
X116903282Y-56028282D01*
X116999536Y-55902841D01*
X117021149Y-55850662D01*
X134053406Y-55850662D01*
X134054782Y-55863750D01*
X134063179Y-55866000D01*
X135180320Y-55866000D01*
X135193005Y-55861878D01*
X135196000Y-55857757D01*
X135196000Y-55850320D01*
X135704000Y-55850320D01*
X135708122Y-55863005D01*
X135712243Y-55866000D01*
X136834174Y-55866000D01*
X136846690Y-55861933D01*
X136847145Y-55853254D01*
X136843301Y-55835170D01*
X136840114Y-55825361D01*
X136764563Y-55655671D01*
X136759402Y-55646732D01*
X136650223Y-55496460D01*
X136643319Y-55488792D01*
X136505275Y-55364498D01*
X136496932Y-55358436D01*
X136336071Y-55265562D01*
X136326642Y-55261364D01*
X136149978Y-55203963D01*
X136139898Y-55201821D01*
X136001475Y-55187271D01*
X135996293Y-55187000D01*
X135719680Y-55187000D01*
X135706995Y-55191122D01*
X135704000Y-55195243D01*
X135704000Y-55850320D01*
X135196000Y-55850320D01*
X135196000Y-55202680D01*
X135191878Y-55189995D01*
X135187757Y-55187000D01*
X134903707Y-55187000D01*
X134898525Y-55187271D01*
X134760102Y-55201821D01*
X134750022Y-55203963D01*
X134573358Y-55261364D01*
X134563929Y-55265562D01*
X134403068Y-55358436D01*
X134394725Y-55364498D01*
X134256683Y-55488790D01*
X134249777Y-55496460D01*
X134140593Y-55646739D01*
X134135440Y-55655664D01*
X134059886Y-55825361D01*
X134056699Y-55835170D01*
X134053406Y-55850662D01*
X117021149Y-55850662D01*
X117060044Y-55756762D01*
X117080682Y-55600000D01*
X117060044Y-55443238D01*
X116999536Y-55297159D01*
X116903282Y-55171718D01*
X116777841Y-55075464D01*
X116631762Y-55014956D01*
X116475000Y-54994318D01*
X116318238Y-55014956D01*
X116172159Y-55075464D01*
X116046718Y-55171718D01*
X115950464Y-55297159D01*
X115889956Y-55443238D01*
X115869318Y-55600000D01*
X103695000Y-55600000D01*
X103695000Y-54475000D01*
X130194318Y-54475000D01*
X130214956Y-54631762D01*
X130275464Y-54777841D01*
X130371718Y-54903282D01*
X130497159Y-54999536D01*
X130643238Y-55060044D01*
X130800000Y-55080682D01*
X130956762Y-55060044D01*
X131102841Y-54999536D01*
X131228282Y-54903282D01*
X131324536Y-54777841D01*
X131385044Y-54631762D01*
X131405682Y-54475000D01*
X131385044Y-54318238D01*
X131324536Y-54172159D01*
X131228282Y-54046718D01*
X131102841Y-53950464D01*
X130956762Y-53889956D01*
X130800000Y-53869318D01*
X130643238Y-53889956D01*
X130497159Y-53950464D01*
X130371718Y-54046718D01*
X130275464Y-54172159D01*
X130214956Y-54318238D01*
X130194318Y-54475000D01*
X103695000Y-54475000D01*
X103695000Y-52450000D01*
X114069318Y-52450000D01*
X114089956Y-52606762D01*
X114150464Y-52752841D01*
X114246718Y-52878282D01*
X114372159Y-52974536D01*
X114518238Y-53035044D01*
X114675000Y-53055682D01*
X114831762Y-53035044D01*
X114916366Y-53000000D01*
X115619318Y-53000000D01*
X115639956Y-53156762D01*
X115700464Y-53302841D01*
X115796718Y-53428282D01*
X115922159Y-53524536D01*
X116068238Y-53585044D01*
X116225000Y-53605682D01*
X116381762Y-53585044D01*
X116527841Y-53524536D01*
X116653282Y-53428282D01*
X116713350Y-53350000D01*
X127869318Y-53350000D01*
X127889956Y-53506762D01*
X127950464Y-53652841D01*
X128046718Y-53778282D01*
X128172159Y-53874536D01*
X128318238Y-53935044D01*
X128475000Y-53955682D01*
X128631762Y-53935044D01*
X128777841Y-53874536D01*
X128903282Y-53778282D01*
X128999536Y-53652841D01*
X129060044Y-53506762D01*
X129080682Y-53350000D01*
X129060044Y-53193238D01*
X128999536Y-53047159D01*
X128903282Y-52921718D01*
X128777841Y-52825464D01*
X128631762Y-52764956D01*
X128475000Y-52744318D01*
X128318238Y-52764956D01*
X128172159Y-52825464D01*
X128046718Y-52921718D01*
X127950464Y-53047159D01*
X127889956Y-53193238D01*
X127869318Y-53350000D01*
X116713350Y-53350000D01*
X116749536Y-53302841D01*
X116810044Y-53156762D01*
X116830682Y-53000000D01*
X116810044Y-52843238D01*
X116749536Y-52697159D01*
X116653282Y-52571718D01*
X116527841Y-52475464D01*
X116381762Y-52414956D01*
X116225000Y-52394318D01*
X116068238Y-52414956D01*
X115922159Y-52475464D01*
X115796718Y-52571718D01*
X115700464Y-52697159D01*
X115639956Y-52843238D01*
X115619318Y-53000000D01*
X114916366Y-53000000D01*
X114977841Y-52974536D01*
X115103282Y-52878282D01*
X115199536Y-52752841D01*
X115260044Y-52606762D01*
X115280682Y-52450000D01*
X115260044Y-52293238D01*
X115199536Y-52147159D01*
X115103282Y-52021718D01*
X114977841Y-51925464D01*
X114831762Y-51864956D01*
X114675000Y-51844318D01*
X114518238Y-51864956D01*
X114372159Y-51925464D01*
X114246718Y-52021718D01*
X114150464Y-52147159D01*
X114089956Y-52293238D01*
X114069318Y-52450000D01*
X103695000Y-52450000D01*
X103695000Y-51030000D01*
X116724318Y-51030000D01*
X116744956Y-51186762D01*
X116805464Y-51332841D01*
X116901718Y-51458282D01*
X117027159Y-51554536D01*
X117173238Y-51615044D01*
X117330000Y-51635682D01*
X117486762Y-51615044D01*
X117632841Y-51554536D01*
X117758282Y-51458282D01*
X117854536Y-51332841D01*
X117915044Y-51186762D01*
X117935682Y-51030000D01*
X117915044Y-50873238D01*
X117854536Y-50727159D01*
X117758282Y-50601718D01*
X117632841Y-50505464D01*
X117486762Y-50444956D01*
X117330000Y-50424318D01*
X117173238Y-50444956D01*
X117027159Y-50505464D01*
X116901718Y-50601718D01*
X116805464Y-50727159D01*
X116744956Y-50873238D01*
X116724318Y-51030000D01*
X103695000Y-51030000D01*
X103695000Y-49040862D01*
X121355497Y-49040862D01*
X121385134Y-49213340D01*
X121453654Y-49374373D01*
X121557383Y-49515324D01*
X121561765Y-49519047D01*
X121561767Y-49519049D01*
X121633131Y-49579677D01*
X121690755Y-49628632D01*
X121770337Y-49669269D01*
X121841492Y-49705603D01*
X121841495Y-49705604D01*
X121846616Y-49708219D01*
X121852201Y-49709586D01*
X121852202Y-49709586D01*
X122012326Y-49748768D01*
X122012329Y-49748768D01*
X122016606Y-49749815D01*
X122021004Y-49750088D01*
X122021005Y-49750088D01*
X122026132Y-49750406D01*
X122026133Y-49750406D01*
X122027648Y-49750500D01*
X122153822Y-49750500D01*
X122159698Y-49749815D01*
X122168678Y-49748768D01*
X122283828Y-49735343D01*
X122289234Y-49733381D01*
X122289237Y-49733380D01*
X122442923Y-49677594D01*
X122448331Y-49675631D01*
X122453140Y-49672478D01*
X122453144Y-49672476D01*
X122589877Y-49582829D01*
X122594685Y-49579677D01*
X122598634Y-49575508D01*
X122598638Y-49575505D01*
X122711084Y-49456804D01*
X122715040Y-49452628D01*
X122772745Y-49353282D01*
X122800050Y-49306272D01*
X122800050Y-49306271D01*
X122802939Y-49301298D01*
X122819598Y-49246294D01*
X122854561Y-49196082D01*
X122912360Y-49176010D01*
X122970919Y-49193745D01*
X122999001Y-49224309D01*
X123000464Y-49227841D01*
X123096718Y-49353282D01*
X123222159Y-49449536D01*
X123368238Y-49510044D01*
X123525000Y-49530682D01*
X123681762Y-49510044D01*
X123827841Y-49449536D01*
X123953282Y-49353282D01*
X124049536Y-49227841D01*
X124110044Y-49081762D01*
X124130682Y-48925000D01*
X124110044Y-48768238D01*
X124049536Y-48622159D01*
X123953282Y-48496718D01*
X123827841Y-48400464D01*
X123681762Y-48339956D01*
X123525000Y-48319318D01*
X123368238Y-48339956D01*
X123222159Y-48400464D01*
X123096718Y-48496718D01*
X123000464Y-48622159D01*
X122997981Y-48628154D01*
X122997980Y-48628156D01*
X122974488Y-48684871D01*
X122934752Y-48731397D01*
X122875257Y-48745681D01*
X122818729Y-48722267D01*
X122791928Y-48685748D01*
X122768597Y-48630917D01*
X122768597Y-48630916D01*
X122766346Y-48625627D01*
X122662617Y-48484676D01*
X122658235Y-48480953D01*
X122658233Y-48480951D01*
X122533631Y-48375094D01*
X122533630Y-48375093D01*
X122529245Y-48371368D01*
X122443382Y-48327524D01*
X122378508Y-48294397D01*
X122378505Y-48294396D01*
X122373384Y-48291781D01*
X122367799Y-48290414D01*
X122367798Y-48290414D01*
X122207674Y-48251232D01*
X122207671Y-48251232D01*
X122203394Y-48250185D01*
X122198996Y-48249912D01*
X122198995Y-48249912D01*
X122193868Y-48249594D01*
X122193867Y-48249594D01*
X122192352Y-48249500D01*
X122066178Y-48249500D01*
X122063331Y-48249832D01*
X122063330Y-48249832D01*
X122052662Y-48251076D01*
X121936172Y-48264657D01*
X121930766Y-48266619D01*
X121930763Y-48266620D01*
X121854240Y-48294397D01*
X121771669Y-48324369D01*
X121766860Y-48327522D01*
X121766856Y-48327524D01*
X121675054Y-48387712D01*
X121625315Y-48420323D01*
X121621366Y-48424492D01*
X121621362Y-48424495D01*
X121512451Y-48539464D01*
X121504960Y-48547372D01*
X121502073Y-48552342D01*
X121502071Y-48552345D01*
X121464511Y-48617010D01*
X121417061Y-48698702D01*
X121366333Y-48866193D01*
X121355497Y-49040862D01*
X103695000Y-49040862D01*
X103695000Y-48020000D01*
X115484318Y-48020000D01*
X115504956Y-48176762D01*
X115565464Y-48322841D01*
X115661718Y-48448282D01*
X115787159Y-48544536D01*
X115933238Y-48605044D01*
X116090000Y-48625682D01*
X116246762Y-48605044D01*
X116392841Y-48544536D01*
X116518282Y-48448282D01*
X116614536Y-48322841D01*
X116675044Y-48176762D01*
X116695682Y-48020000D01*
X116675044Y-47863238D01*
X116626791Y-47746746D01*
X134052855Y-47746746D01*
X134056699Y-47764830D01*
X134059886Y-47774639D01*
X134135437Y-47944329D01*
X134140598Y-47953268D01*
X134249777Y-48103540D01*
X134256681Y-48111208D01*
X134394725Y-48235502D01*
X134403068Y-48241564D01*
X134563929Y-48334438D01*
X134573358Y-48338636D01*
X134750022Y-48396037D01*
X134760102Y-48398179D01*
X134898525Y-48412729D01*
X134903707Y-48413000D01*
X135180320Y-48413000D01*
X135193005Y-48408878D01*
X135196000Y-48404757D01*
X135196000Y-48397320D01*
X135704000Y-48397320D01*
X135708122Y-48410005D01*
X135712243Y-48413000D01*
X135996293Y-48413000D01*
X136001475Y-48412729D01*
X136139898Y-48398179D01*
X136149978Y-48396037D01*
X136326642Y-48338636D01*
X136336071Y-48334438D01*
X136496932Y-48241564D01*
X136505275Y-48235502D01*
X136643317Y-48111210D01*
X136650223Y-48103540D01*
X136759407Y-47953261D01*
X136764560Y-47944336D01*
X136840114Y-47774639D01*
X136843301Y-47764830D01*
X136846594Y-47749338D01*
X136845218Y-47736250D01*
X136836821Y-47734000D01*
X135719680Y-47734000D01*
X135706995Y-47738122D01*
X135704000Y-47742243D01*
X135704000Y-48397320D01*
X135196000Y-48397320D01*
X135196000Y-47749680D01*
X135191878Y-47736995D01*
X135187757Y-47734000D01*
X134065826Y-47734000D01*
X134053310Y-47738067D01*
X134052855Y-47746746D01*
X116626791Y-47746746D01*
X116614536Y-47717159D01*
X116518282Y-47591718D01*
X116392841Y-47495464D01*
X116246762Y-47434956D01*
X116090000Y-47414318D01*
X115933238Y-47434956D01*
X115787159Y-47495464D01*
X115661718Y-47591718D01*
X115565464Y-47717159D01*
X115504956Y-47863238D01*
X115484318Y-48020000D01*
X103695000Y-48020000D01*
X103695000Y-47210662D01*
X134053406Y-47210662D01*
X134054782Y-47223750D01*
X134063179Y-47226000D01*
X135180320Y-47226000D01*
X135193005Y-47221878D01*
X135196000Y-47217757D01*
X135196000Y-47210320D01*
X135704000Y-47210320D01*
X135708122Y-47223005D01*
X135712243Y-47226000D01*
X136834174Y-47226000D01*
X136846690Y-47221933D01*
X136847145Y-47213254D01*
X136843301Y-47195170D01*
X136840114Y-47185361D01*
X136764563Y-47015671D01*
X136759402Y-47006732D01*
X136650223Y-46856460D01*
X136643319Y-46848792D01*
X136505275Y-46724498D01*
X136496932Y-46718436D01*
X136336071Y-46625562D01*
X136326642Y-46621364D01*
X136149978Y-46563963D01*
X136139898Y-46561821D01*
X136001475Y-46547271D01*
X135996293Y-46547000D01*
X135719680Y-46547000D01*
X135706995Y-46551122D01*
X135704000Y-46555243D01*
X135704000Y-47210320D01*
X135196000Y-47210320D01*
X135196000Y-46562680D01*
X135191878Y-46549995D01*
X135187757Y-46547000D01*
X134903707Y-46547000D01*
X134898525Y-46547271D01*
X134760102Y-46561821D01*
X134750022Y-46563963D01*
X134573358Y-46621364D01*
X134563929Y-46625562D01*
X134403068Y-46718436D01*
X134394725Y-46724498D01*
X134256683Y-46848790D01*
X134249777Y-46856460D01*
X134140593Y-47006739D01*
X134135440Y-47015664D01*
X134059886Y-47185361D01*
X134056699Y-47195170D01*
X134053406Y-47210662D01*
X103695000Y-47210662D01*
X103695000Y-45480000D01*
X129919318Y-45480000D01*
X129939956Y-45636762D01*
X130000464Y-45782841D01*
X130096718Y-45908282D01*
X130222159Y-46004536D01*
X130368238Y-46065044D01*
X130525000Y-46085682D01*
X130681762Y-46065044D01*
X130827841Y-46004536D01*
X130953282Y-45908282D01*
X131049536Y-45782841D01*
X131075395Y-45720411D01*
X136367001Y-45720411D01*
X136367290Y-45725751D01*
X136373078Y-45779035D01*
X136375927Y-45791020D01*
X136422351Y-45914855D01*
X136429059Y-45927108D01*
X136507863Y-46032256D01*
X136517744Y-46042137D01*
X136622892Y-46120941D01*
X136635145Y-46127649D01*
X136758978Y-46174072D01*
X136770967Y-46176923D01*
X136824252Y-46182711D01*
X136829586Y-46183000D01*
X137280320Y-46183000D01*
X137293005Y-46178878D01*
X137296000Y-46174757D01*
X137296000Y-46167319D01*
X137804000Y-46167319D01*
X137808122Y-46180004D01*
X137812243Y-46182999D01*
X138270411Y-46182999D01*
X138275751Y-46182710D01*
X138329035Y-46176922D01*
X138341020Y-46174073D01*
X138464855Y-46127649D01*
X138477108Y-46120941D01*
X138582256Y-46042137D01*
X138592137Y-46032256D01*
X138670941Y-45927108D01*
X138677649Y-45914855D01*
X138724072Y-45791022D01*
X138726923Y-45779033D01*
X138732711Y-45725748D01*
X138733000Y-45720414D01*
X138733000Y-45269680D01*
X138728878Y-45256995D01*
X138724757Y-45254000D01*
X137819680Y-45254000D01*
X137806995Y-45258122D01*
X137804000Y-45262243D01*
X137804000Y-46167319D01*
X137296000Y-46167319D01*
X137296000Y-45269680D01*
X137291878Y-45256995D01*
X137287757Y-45254000D01*
X136382681Y-45254000D01*
X136369996Y-45258122D01*
X136367001Y-45262243D01*
X136367001Y-45720411D01*
X131075395Y-45720411D01*
X131110044Y-45636762D01*
X131130682Y-45480000D01*
X131110044Y-45323238D01*
X131049536Y-45177159D01*
X130953282Y-45051718D01*
X130827841Y-44955464D01*
X130681762Y-44894956D01*
X130525000Y-44874318D01*
X130368238Y-44894956D01*
X130222159Y-44955464D01*
X130096718Y-45051718D01*
X130000464Y-45177159D01*
X129939956Y-45323238D01*
X129919318Y-45480000D01*
X103695000Y-45480000D01*
X103695000Y-44730320D01*
X136367000Y-44730320D01*
X136371122Y-44743005D01*
X136375243Y-44746000D01*
X138717319Y-44746000D01*
X138730004Y-44741878D01*
X138732999Y-44737757D01*
X138732999Y-44279589D01*
X138732710Y-44274249D01*
X138726922Y-44220965D01*
X138724073Y-44208980D01*
X138677649Y-44085145D01*
X138670941Y-44072892D01*
X138592137Y-43967744D01*
X138582256Y-43957863D01*
X138477108Y-43879059D01*
X138464855Y-43872351D01*
X138341022Y-43825928D01*
X138329033Y-43823077D01*
X138275748Y-43817289D01*
X138270414Y-43817000D01*
X138214828Y-43817000D01*
X138156637Y-43798093D01*
X138120673Y-43748593D01*
X138120673Y-43687407D01*
X138141254Y-43651759D01*
X138262195Y-43517440D01*
X138316812Y-43422841D01*
X138351620Y-43362553D01*
X138351622Y-43362548D01*
X138354214Y-43358059D01*
X138382720Y-43270326D01*
X138409483Y-43187961D01*
X138409484Y-43187956D01*
X138411085Y-43183029D01*
X138430322Y-43000000D01*
X138411085Y-42816971D01*
X138409484Y-42812044D01*
X138409483Y-42812039D01*
X138355816Y-42646872D01*
X138354214Y-42641941D01*
X138351622Y-42637452D01*
X138351620Y-42637447D01*
X138264790Y-42487055D01*
X138262195Y-42482560D01*
X138258727Y-42478708D01*
X138258723Y-42478703D01*
X138142520Y-42349646D01*
X138142516Y-42349642D01*
X138139050Y-42345793D01*
X137990161Y-42237619D01*
X137985429Y-42235512D01*
X137985427Y-42235511D01*
X137826774Y-42164874D01*
X137826771Y-42164873D01*
X137822034Y-42162764D01*
X137642019Y-42124500D01*
X137457981Y-42124500D01*
X137277966Y-42162764D01*
X137273229Y-42164873D01*
X137273226Y-42164874D01*
X137114573Y-42235511D01*
X137114571Y-42235512D01*
X137109839Y-42237619D01*
X136960950Y-42345793D01*
X136957484Y-42349642D01*
X136957480Y-42349646D01*
X136841277Y-42478703D01*
X136841273Y-42478708D01*
X136837805Y-42482560D01*
X136835210Y-42487055D01*
X136748380Y-42637447D01*
X136748378Y-42637452D01*
X136745786Y-42641941D01*
X136744184Y-42646872D01*
X136690517Y-42812039D01*
X136690516Y-42812044D01*
X136688915Y-42816971D01*
X136669678Y-43000000D01*
X136688915Y-43183029D01*
X136690516Y-43187956D01*
X136690517Y-43187961D01*
X136717280Y-43270326D01*
X136745786Y-43358059D01*
X136748378Y-43362548D01*
X136748380Y-43362553D01*
X136783188Y-43422841D01*
X136837805Y-43517440D01*
X136841273Y-43521292D01*
X136841277Y-43521297D01*
X136958744Y-43651757D01*
X136983631Y-43707653D01*
X136970909Y-43767501D01*
X136925440Y-43808442D01*
X136885173Y-43817001D01*
X136829589Y-43817001D01*
X136824249Y-43817290D01*
X136770965Y-43823078D01*
X136758980Y-43825927D01*
X136635145Y-43872351D01*
X136622892Y-43879059D01*
X136517744Y-43957863D01*
X136507863Y-43967744D01*
X136429059Y-44072892D01*
X136422351Y-44085145D01*
X136375928Y-44208978D01*
X136373077Y-44220967D01*
X136367289Y-44274252D01*
X136367000Y-44279586D01*
X136367000Y-44730320D01*
X103695000Y-44730320D01*
X103695000Y-43120000D01*
X109484318Y-43120000D01*
X109504956Y-43276762D01*
X109565464Y-43422841D01*
X109661718Y-43548282D01*
X109787159Y-43644536D01*
X109933238Y-43705044D01*
X110090000Y-43725682D01*
X110246762Y-43705044D01*
X110392841Y-43644536D01*
X110518282Y-43548282D01*
X110614536Y-43422841D01*
X110675044Y-43276762D01*
X110695682Y-43120000D01*
X113484318Y-43120000D01*
X113504956Y-43276762D01*
X113565464Y-43422841D01*
X113661718Y-43548282D01*
X113787159Y-43644536D01*
X113933238Y-43705044D01*
X114090000Y-43725682D01*
X114246762Y-43705044D01*
X114392841Y-43644536D01*
X114518282Y-43548282D01*
X114614536Y-43422841D01*
X114675044Y-43276762D01*
X114695682Y-43120000D01*
X114675044Y-42963238D01*
X114614536Y-42817159D01*
X114518282Y-42691718D01*
X114392841Y-42595464D01*
X114246762Y-42534956D01*
X114090000Y-42514318D01*
X113933238Y-42534956D01*
X113787159Y-42595464D01*
X113661718Y-42691718D01*
X113565464Y-42817159D01*
X113504956Y-42963238D01*
X113484318Y-43120000D01*
X110695682Y-43120000D01*
X110675044Y-42963238D01*
X110614536Y-42817159D01*
X110518282Y-42691718D01*
X110392841Y-42595464D01*
X110246762Y-42534956D01*
X110090000Y-42514318D01*
X109933238Y-42534956D01*
X109787159Y-42595464D01*
X109661718Y-42691718D01*
X109565464Y-42817159D01*
X109504956Y-42963238D01*
X109484318Y-43120000D01*
X103695000Y-43120000D01*
X103695000Y-41000000D01*
X136669678Y-41000000D01*
X136688915Y-41183029D01*
X136690516Y-41187956D01*
X136690517Y-41187961D01*
X136729803Y-41308868D01*
X136745786Y-41358059D01*
X136748378Y-41362548D01*
X136748380Y-41362553D01*
X136814157Y-41476480D01*
X136837805Y-41517440D01*
X136841273Y-41521292D01*
X136841277Y-41521297D01*
X136957480Y-41650354D01*
X136957484Y-41650358D01*
X136960950Y-41654207D01*
X137109839Y-41762381D01*
X137114571Y-41764488D01*
X137114573Y-41764489D01*
X137273226Y-41835126D01*
X137273229Y-41835127D01*
X137277966Y-41837236D01*
X137457981Y-41875500D01*
X137642019Y-41875500D01*
X137822034Y-41837236D01*
X137826771Y-41835127D01*
X137826774Y-41835126D01*
X137985427Y-41764489D01*
X137985429Y-41764488D01*
X137990161Y-41762381D01*
X138139050Y-41654207D01*
X138142516Y-41650358D01*
X138142520Y-41650354D01*
X138258723Y-41521297D01*
X138258727Y-41521292D01*
X138262195Y-41517440D01*
X138285843Y-41476480D01*
X138351620Y-41362553D01*
X138351622Y-41362548D01*
X138354214Y-41358059D01*
X138370197Y-41308868D01*
X138409483Y-41187961D01*
X138409484Y-41187956D01*
X138411085Y-41183029D01*
X138430322Y-41000000D01*
X138411085Y-40816971D01*
X138409484Y-40812044D01*
X138409483Y-40812039D01*
X138355816Y-40646872D01*
X138354214Y-40641941D01*
X138351622Y-40637452D01*
X138351620Y-40637447D01*
X138273818Y-40502692D01*
X138262195Y-40482560D01*
X138258727Y-40478708D01*
X138258723Y-40478703D01*
X138142520Y-40349646D01*
X138142516Y-40349642D01*
X138139050Y-40345793D01*
X137990161Y-40237619D01*
X137985429Y-40235512D01*
X137985427Y-40235511D01*
X137826774Y-40164874D01*
X137826771Y-40164873D01*
X137822034Y-40162764D01*
X137642019Y-40124500D01*
X137457981Y-40124500D01*
X137277966Y-40162764D01*
X137273229Y-40164873D01*
X137273226Y-40164874D01*
X137114573Y-40235511D01*
X137114571Y-40235512D01*
X137109839Y-40237619D01*
X136960950Y-40345793D01*
X136957484Y-40349642D01*
X136957480Y-40349646D01*
X136841277Y-40478703D01*
X136841273Y-40478708D01*
X136837805Y-40482560D01*
X136826182Y-40502692D01*
X136748380Y-40637447D01*
X136748378Y-40637452D01*
X136745786Y-40641941D01*
X136744184Y-40646872D01*
X136690517Y-40812039D01*
X136690516Y-40812044D01*
X136688915Y-40816971D01*
X136669678Y-41000000D01*
X103695000Y-41000000D01*
X103695000Y-40685877D01*
X103695035Y-40645700D01*
X103695045Y-40634551D01*
X103689815Y-40623659D01*
X103682537Y-40602817D01*
X103682330Y-40601907D01*
X103682328Y-40601904D01*
X103679850Y-40591038D01*
X103672480Y-40581789D01*
X103660666Y-40562954D01*
X103660375Y-40562347D01*
X103660372Y-40562343D01*
X103655547Y-40552295D01*
X103646107Y-40544746D01*
X103630516Y-40529128D01*
X103622985Y-40519677D01*
X103612337Y-40514541D01*
X103593522Y-40502692D01*
X103592995Y-40502270D01*
X103592990Y-40502268D01*
X103584285Y-40495306D01*
X103572508Y-40492598D01*
X103551682Y-40485285D01*
X103550836Y-40484877D01*
X103540798Y-40480035D01*
X103529653Y-40480025D01*
X103529652Y-40480025D01*
X103517787Y-40480015D01*
X103517789Y-40478270D01*
X103517723Y-40478276D01*
X103517723Y-40480000D01*
X103500877Y-40480000D01*
X103449840Y-40479955D01*
X103449551Y-40479955D01*
X103449463Y-40479997D01*
X103449439Y-40480000D01*
X97794000Y-40480000D01*
X97735809Y-40461093D01*
X97699845Y-40411593D01*
X97695000Y-40381000D01*
X97695000Y-39070000D01*
X110814318Y-39070000D01*
X110834956Y-39226762D01*
X110895464Y-39372841D01*
X110991718Y-39498282D01*
X111117159Y-39594536D01*
X111263238Y-39655044D01*
X111420000Y-39675682D01*
X111576762Y-39655044D01*
X111722841Y-39594536D01*
X111848282Y-39498282D01*
X111944536Y-39372841D01*
X112005044Y-39226762D01*
X112025682Y-39070000D01*
X114524318Y-39070000D01*
X114544956Y-39226762D01*
X114605464Y-39372841D01*
X114701718Y-39498282D01*
X114827159Y-39594536D01*
X114973238Y-39655044D01*
X115130000Y-39675682D01*
X115286762Y-39655044D01*
X115432841Y-39594536D01*
X115558282Y-39498282D01*
X115654536Y-39372841D01*
X115715044Y-39226762D01*
X115735682Y-39070000D01*
X123414318Y-39070000D01*
X123434956Y-39226762D01*
X123495464Y-39372841D01*
X123591718Y-39498282D01*
X123717159Y-39594536D01*
X123863238Y-39655044D01*
X124020000Y-39675682D01*
X124176762Y-39655044D01*
X124322841Y-39594536D01*
X124448282Y-39498282D01*
X124544536Y-39372841D01*
X124605044Y-39226762D01*
X124625682Y-39070000D01*
X124616466Y-39000000D01*
X136669678Y-39000000D01*
X136688915Y-39183029D01*
X136690516Y-39187956D01*
X136690517Y-39187961D01*
X136705073Y-39232759D01*
X136745786Y-39358059D01*
X136748378Y-39362548D01*
X136748380Y-39362553D01*
X136750859Y-39366846D01*
X136837805Y-39517440D01*
X136841273Y-39521292D01*
X136841277Y-39521297D01*
X136957480Y-39650354D01*
X136957484Y-39650358D01*
X136960950Y-39654207D01*
X137109839Y-39762381D01*
X137114571Y-39764488D01*
X137114573Y-39764489D01*
X137273226Y-39835126D01*
X137273229Y-39835127D01*
X137277966Y-39837236D01*
X137457981Y-39875500D01*
X137642019Y-39875500D01*
X137822034Y-39837236D01*
X137826771Y-39835127D01*
X137826774Y-39835126D01*
X137985427Y-39764489D01*
X137985429Y-39764488D01*
X137990161Y-39762381D01*
X138139050Y-39654207D01*
X138142516Y-39650358D01*
X138142520Y-39650354D01*
X138258723Y-39521297D01*
X138258727Y-39521292D01*
X138262195Y-39517440D01*
X138349141Y-39366846D01*
X138351620Y-39362553D01*
X138351622Y-39362548D01*
X138354214Y-39358059D01*
X138394927Y-39232759D01*
X138409483Y-39187961D01*
X138409484Y-39187956D01*
X138411085Y-39183029D01*
X138430322Y-39000000D01*
X138411085Y-38816971D01*
X138409484Y-38812044D01*
X138409483Y-38812039D01*
X138355816Y-38646872D01*
X138355816Y-38646871D01*
X138354214Y-38641941D01*
X138351622Y-38637452D01*
X138351620Y-38637447D01*
X138285843Y-38523520D01*
X138262195Y-38482560D01*
X138258727Y-38478708D01*
X138258723Y-38478703D01*
X138142520Y-38349646D01*
X138142516Y-38349642D01*
X138139050Y-38345793D01*
X137990161Y-38237619D01*
X137985429Y-38235512D01*
X137985427Y-38235511D01*
X137826774Y-38164874D01*
X137826771Y-38164873D01*
X137822034Y-38162764D01*
X137642019Y-38124500D01*
X137457981Y-38124500D01*
X137277966Y-38162764D01*
X137273229Y-38164873D01*
X137273226Y-38164874D01*
X137114573Y-38235511D01*
X137114571Y-38235512D01*
X137109839Y-38237619D01*
X136960950Y-38345793D01*
X136957484Y-38349642D01*
X136957480Y-38349646D01*
X136841277Y-38478703D01*
X136841273Y-38478708D01*
X136837805Y-38482560D01*
X136814157Y-38523520D01*
X136748380Y-38637447D01*
X136748378Y-38637452D01*
X136745786Y-38641941D01*
X136744184Y-38646871D01*
X136744184Y-38646872D01*
X136690517Y-38812039D01*
X136690516Y-38812044D01*
X136688915Y-38816971D01*
X136669678Y-39000000D01*
X124616466Y-39000000D01*
X124605044Y-38913238D01*
X124544536Y-38767159D01*
X124448282Y-38641718D01*
X124322841Y-38545464D01*
X124176762Y-38484956D01*
X124020000Y-38464318D01*
X123863238Y-38484956D01*
X123717159Y-38545464D01*
X123591718Y-38641718D01*
X123495464Y-38767159D01*
X123434956Y-38913238D01*
X123414318Y-39070000D01*
X115735682Y-39070000D01*
X115715044Y-38913238D01*
X115654536Y-38767159D01*
X115558282Y-38641718D01*
X115432841Y-38545464D01*
X115286762Y-38484956D01*
X115130000Y-38464318D01*
X114973238Y-38484956D01*
X114827159Y-38545464D01*
X114701718Y-38641718D01*
X114605464Y-38767159D01*
X114544956Y-38913238D01*
X114524318Y-39070000D01*
X112025682Y-39070000D01*
X112005044Y-38913238D01*
X111944536Y-38767159D01*
X111848282Y-38641718D01*
X111722841Y-38545464D01*
X111576762Y-38484956D01*
X111420000Y-38464318D01*
X111263238Y-38484956D01*
X111117159Y-38545464D01*
X110991718Y-38641718D01*
X110895464Y-38767159D01*
X110834956Y-38913238D01*
X110814318Y-39070000D01*
X97695000Y-39070000D01*
X97695000Y-38325000D01*
X102894318Y-38325000D01*
X102914956Y-38481762D01*
X102975464Y-38627841D01*
X103071718Y-38753282D01*
X103197159Y-38849536D01*
X103343238Y-38910044D01*
X103500000Y-38930682D01*
X103656762Y-38910044D01*
X103802841Y-38849536D01*
X103928282Y-38753282D01*
X104024536Y-38627841D01*
X104085044Y-38481762D01*
X104105682Y-38325000D01*
X104085044Y-38168238D01*
X104024536Y-38022159D01*
X103928282Y-37896718D01*
X103867398Y-37850000D01*
X116869318Y-37850000D01*
X116889956Y-38006762D01*
X116950464Y-38152841D01*
X117046718Y-38278282D01*
X117172159Y-38374536D01*
X117318238Y-38435044D01*
X117475000Y-38455682D01*
X117631762Y-38435044D01*
X117777841Y-38374536D01*
X117903282Y-38278282D01*
X117999536Y-38152841D01*
X118060044Y-38006762D01*
X118080682Y-37850000D01*
X118060044Y-37693238D01*
X117999536Y-37547159D01*
X117903282Y-37421718D01*
X117777841Y-37325464D01*
X117631762Y-37264956D01*
X117475000Y-37244318D01*
X117318238Y-37264956D01*
X117172159Y-37325464D01*
X117046718Y-37421718D01*
X116950464Y-37547159D01*
X116889956Y-37693238D01*
X116869318Y-37850000D01*
X103867398Y-37850000D01*
X103802841Y-37800464D01*
X103656762Y-37739956D01*
X103500000Y-37719318D01*
X103343238Y-37739956D01*
X103197159Y-37800464D01*
X103071718Y-37896718D01*
X102975464Y-38022159D01*
X102914956Y-38168238D01*
X102894318Y-38325000D01*
X97695000Y-38325000D01*
X97695000Y-37000000D01*
X136669678Y-37000000D01*
X136688915Y-37183029D01*
X136690516Y-37187956D01*
X136690517Y-37187961D01*
X136715535Y-37264956D01*
X136745786Y-37358059D01*
X136748378Y-37362548D01*
X136748380Y-37362553D01*
X136785515Y-37426871D01*
X136837805Y-37517440D01*
X136841273Y-37521292D01*
X136841277Y-37521297D01*
X136957480Y-37650354D01*
X136957484Y-37650358D01*
X136960950Y-37654207D01*
X137109839Y-37762381D01*
X137114571Y-37764488D01*
X137114573Y-37764489D01*
X137273226Y-37835126D01*
X137273229Y-37835127D01*
X137277966Y-37837236D01*
X137457981Y-37875500D01*
X137642019Y-37875500D01*
X137822034Y-37837236D01*
X137826771Y-37835127D01*
X137826774Y-37835126D01*
X137985427Y-37764489D01*
X137985429Y-37764488D01*
X137990161Y-37762381D01*
X138139050Y-37654207D01*
X138142516Y-37650358D01*
X138142520Y-37650354D01*
X138258723Y-37521297D01*
X138258727Y-37521292D01*
X138262195Y-37517440D01*
X138314485Y-37426871D01*
X138351620Y-37362553D01*
X138351622Y-37362548D01*
X138354214Y-37358059D01*
X138384465Y-37264956D01*
X138409483Y-37187961D01*
X138409484Y-37187956D01*
X138411085Y-37183029D01*
X138430322Y-37000000D01*
X138411085Y-36816971D01*
X138409484Y-36812044D01*
X138409483Y-36812039D01*
X138355816Y-36646872D01*
X138354214Y-36641941D01*
X138351622Y-36637452D01*
X138351620Y-36637447D01*
X138264790Y-36487055D01*
X138262195Y-36482560D01*
X138258727Y-36478708D01*
X138258723Y-36478703D01*
X138142520Y-36349646D01*
X138142516Y-36349642D01*
X138139050Y-36345793D01*
X137990161Y-36237619D01*
X137985429Y-36235512D01*
X137985427Y-36235511D01*
X137826774Y-36164874D01*
X137826771Y-36164873D01*
X137822034Y-36162764D01*
X137642019Y-36124500D01*
X137457981Y-36124500D01*
X137277966Y-36162764D01*
X137273229Y-36164873D01*
X137273226Y-36164874D01*
X137114573Y-36235511D01*
X137114571Y-36235512D01*
X137109839Y-36237619D01*
X136960950Y-36345793D01*
X136957484Y-36349642D01*
X136957480Y-36349646D01*
X136841277Y-36478703D01*
X136841273Y-36478708D01*
X136837805Y-36482560D01*
X136835210Y-36487055D01*
X136748380Y-36637447D01*
X136748378Y-36637452D01*
X136745786Y-36641941D01*
X136744184Y-36646872D01*
X136690517Y-36812039D01*
X136690516Y-36812044D01*
X136688915Y-36816971D01*
X136669678Y-37000000D01*
X97695000Y-37000000D01*
X97695000Y-35979000D01*
X97713907Y-35920809D01*
X97763407Y-35884845D01*
X97794000Y-35880000D01*
X139096000Y-35880000D01*
X139154191Y-35898907D01*
G37*
%TD.AperFunction*%
%TD*%
M02*
