%TF.GenerationSoftware,KiCad,Pcbnew,(6.0.2)*%
%TF.CreationDate,2022-03-06T12:06:18+08:00*%
%TF.ProjectId,screen,73637265-656e-42e6-9b69-6361645f7063,rev?*%
%TF.SameCoordinates,Original*%
%TF.FileFunction,Copper,L3,Inr*%
%TF.FilePolarity,Positive*%
%FSLAX46Y46*%
G04 Gerber Fmt 4.6, Leading zero omitted, Abs format (unit mm)*
G04 Created by KiCad (PCBNEW (6.0.2)) date 2022-03-06 12:06:18*
%MOMM*%
%LPD*%
G01*
G04 APERTURE LIST*
%TA.AperFunction,ComponentPad*%
%ADD10R,1.350000X1.350000*%
%TD*%
%TA.AperFunction,ComponentPad*%
%ADD11O,1.350000X1.350000*%
%TD*%
%TA.AperFunction,ComponentPad*%
%ADD12O,1.850000X0.850000*%
%TD*%
%TA.AperFunction,ComponentPad*%
%ADD13R,1.700000X1.700000*%
%TD*%
%TA.AperFunction,ComponentPad*%
%ADD14O,1.700000X1.700000*%
%TD*%
%TA.AperFunction,ViaPad*%
%ADD15C,0.800000*%
%TD*%
G04 APERTURE END LIST*
D10*
%TO.N,GND*%
%TO.C,J1*%
X137550000Y-45000000D03*
D11*
%TO.N,/GPIO0*%
X137550000Y-43000000D03*
%TO.N,/RXD*%
X137550000Y-41000000D03*
%TO.N,/TXD*%
X137550000Y-39000000D03*
%TO.N,/EN*%
X137550000Y-37000000D03*
%TD*%
D12*
%TO.N,GND*%
%TO.C,J2*%
X135450000Y-47480000D03*
X135450000Y-56120000D03*
%TD*%
D13*
%TO.N,+BATT*%
%TO.C,J3*%
X135625000Y-60150000D03*
D14*
%TO.N,GND*%
X135625000Y-62690000D03*
%TD*%
D15*
%TO.N,+3V3*%
X127482500Y-57130000D03*
X124020000Y-39070000D03*
X115130000Y-39070000D03*
X106170000Y-62090000D03*
X110720000Y-62110000D03*
X130800000Y-54475000D03*
X116475000Y-55600000D03*
X119720000Y-61580000D03*
%TO.N,GND*%
X120125000Y-43100000D03*
X127440000Y-39930000D03*
X117975000Y-46500000D03*
X128150000Y-47125000D03*
X119400000Y-47950000D03*
X119400000Y-46450000D03*
X116750000Y-61575000D03*
X99350000Y-63100000D03*
X118025000Y-47950000D03*
X127100000Y-47125000D03*
X107760000Y-62100000D03*
X127125000Y-49000000D03*
X130550000Y-42970000D03*
X99350000Y-38300000D03*
X128150000Y-49000000D03*
%TO.N,Net-(C2-Pad1)*%
X128570000Y-60650000D03*
X128475000Y-53350000D03*
%TO.N,/GPIO0*%
X114090000Y-43120000D03*
X116225000Y-53000000D03*
%TO.N,/GPIO2*%
X116090000Y-48020000D03*
%TO.N,/GPIO14*%
X114675000Y-52450000D03*
%TO.N,/GPIO13*%
X117330000Y-51030000D03*
%TO.N,/GPIO5*%
X117475000Y-37850000D03*
X110090000Y-43120000D03*
%TO.N,Net-(R7-Pad2)*%
X103500000Y-38325000D03*
X111420000Y-39070000D03*
%TO.N,+BATT*%
X124570000Y-59180000D03*
X130525000Y-45480000D03*
X109270000Y-62050000D03*
X129757500Y-57130000D03*
%TO.N,Net-(Q1-Pad3)*%
X123525000Y-48925000D03*
%TD*%
%TA.AperFunction,Conductor*%
%TO.N,+3V3*%
G36*
X138878996Y-36099007D02*
G01*
X138915080Y-36148419D01*
X138920000Y-36179241D01*
X138920000Y-65181000D01*
X138901093Y-65239191D01*
X138851593Y-65275155D01*
X138821000Y-65280000D01*
X97919000Y-65280000D01*
X97860809Y-65261093D01*
X97824845Y-65211593D01*
X97820000Y-65181000D01*
X97820000Y-63100000D01*
X98744318Y-63100000D01*
X98745165Y-63106434D01*
X98746865Y-63119344D01*
X98764956Y-63256762D01*
X98825464Y-63402841D01*
X98921718Y-63528282D01*
X99047159Y-63624536D01*
X99193238Y-63685044D01*
X99350000Y-63705682D01*
X99506762Y-63685044D01*
X99652841Y-63624536D01*
X99778282Y-63528282D01*
X99874536Y-63402841D01*
X99935044Y-63256762D01*
X99953135Y-63119344D01*
X99954835Y-63106434D01*
X99955682Y-63100000D01*
X99935044Y-62943238D01*
X99874536Y-62797159D01*
X99778282Y-62671718D01*
X99652841Y-62575464D01*
X99506762Y-62514956D01*
X99350000Y-62494318D01*
X99193238Y-62514956D01*
X99047159Y-62575464D01*
X98921718Y-62671718D01*
X98825464Y-62797159D01*
X98764956Y-62943238D01*
X98744318Y-63100000D01*
X97820000Y-63100000D01*
X97820000Y-62100000D01*
X107154318Y-62100000D01*
X107174956Y-62256762D01*
X107235464Y-62402841D01*
X107331718Y-62528282D01*
X107457159Y-62624536D01*
X107603238Y-62685044D01*
X107760000Y-62705682D01*
X107916762Y-62685044D01*
X108062841Y-62624536D01*
X108188282Y-62528282D01*
X108284536Y-62402841D01*
X108345044Y-62256762D01*
X108365682Y-62100000D01*
X108359099Y-62050000D01*
X108664318Y-62050000D01*
X108684956Y-62206762D01*
X108745464Y-62352841D01*
X108841718Y-62478282D01*
X108967159Y-62574536D01*
X109113238Y-62635044D01*
X109270000Y-62655682D01*
X109426762Y-62635044D01*
X109572841Y-62574536D01*
X109681571Y-62491105D01*
X125619031Y-62491105D01*
X125620423Y-62496901D01*
X125620423Y-62496905D01*
X125640233Y-62579415D01*
X125658612Y-62655968D01*
X125674755Y-62687244D01*
X125728829Y-62792010D01*
X125736375Y-62806631D01*
X125740299Y-62811129D01*
X125838643Y-62923863D01*
X125847831Y-62934396D01*
X125986547Y-63031887D01*
X126065530Y-63062682D01*
X126106323Y-63078586D01*
X126144513Y-63093476D01*
X126150428Y-63094255D01*
X126150429Y-63094255D01*
X126242941Y-63106434D01*
X126273826Y-63110500D01*
X126362516Y-63110500D01*
X126396116Y-63106434D01*
X126482398Y-63095993D01*
X126482401Y-63095992D01*
X126488320Y-63095276D01*
X126646923Y-63035345D01*
X126651840Y-63031965D01*
X126651843Y-63031964D01*
X126781733Y-62942692D01*
X126786651Y-62939312D01*
X126899440Y-62812721D01*
X126902665Y-62806631D01*
X126947353Y-62722228D01*
X126978776Y-62662881D01*
X127011592Y-62532236D01*
X127018627Y-62504231D01*
X127018627Y-62504228D01*
X127020081Y-62498441D01*
X127020119Y-62491105D01*
X128619031Y-62491105D01*
X128620423Y-62496901D01*
X128620423Y-62496905D01*
X128640233Y-62579415D01*
X128658612Y-62655968D01*
X128674755Y-62687244D01*
X128728829Y-62792010D01*
X128736375Y-62806631D01*
X128740299Y-62811129D01*
X128838643Y-62923863D01*
X128847831Y-62934396D01*
X128986547Y-63031887D01*
X129065530Y-63062682D01*
X129106323Y-63078586D01*
X129144513Y-63093476D01*
X129150428Y-63094255D01*
X129150429Y-63094255D01*
X129242941Y-63106434D01*
X129273826Y-63110500D01*
X129362516Y-63110500D01*
X129396116Y-63106434D01*
X129482398Y-63095993D01*
X129482401Y-63095992D01*
X129488320Y-63095276D01*
X129646923Y-63035345D01*
X129651840Y-63031965D01*
X129651843Y-63031964D01*
X129781733Y-62942692D01*
X129786651Y-62939312D01*
X129899440Y-62812721D01*
X129902665Y-62806631D01*
X129947353Y-62722228D01*
X129972221Y-62675262D01*
X134569520Y-62675262D01*
X134573000Y-62716699D01*
X134580552Y-62806631D01*
X134586759Y-62880553D01*
X134588092Y-62885201D01*
X134588092Y-62885202D01*
X134631750Y-63037454D01*
X134643544Y-63078586D01*
X134737712Y-63261818D01*
X134865677Y-63423270D01*
X134869357Y-63426402D01*
X134869359Y-63426404D01*
X134982017Y-63522283D01*
X135022564Y-63556791D01*
X135026787Y-63559151D01*
X135026791Y-63559154D01*
X135066342Y-63581258D01*
X135202398Y-63657297D01*
X135206996Y-63658791D01*
X135393724Y-63719463D01*
X135393726Y-63719464D01*
X135398329Y-63720959D01*
X135602894Y-63745351D01*
X135607716Y-63744980D01*
X135607719Y-63744980D01*
X135675541Y-63739761D01*
X135808300Y-63729546D01*
X136006725Y-63674145D01*
X136011038Y-63671966D01*
X136011044Y-63671964D01*
X136186289Y-63583441D01*
X136186291Y-63583440D01*
X136190610Y-63581258D01*
X136258417Y-63528282D01*
X136349135Y-63457406D01*
X136349139Y-63457402D01*
X136352951Y-63454424D01*
X136393032Y-63407990D01*
X136412313Y-63385651D01*
X136487564Y-63298472D01*
X136507852Y-63262759D01*
X136586934Y-63123550D01*
X136586935Y-63123547D01*
X136589323Y-63119344D01*
X136592385Y-63110141D01*
X136652824Y-62928454D01*
X136652824Y-62928452D01*
X136654351Y-62923863D01*
X136680171Y-62719474D01*
X136680583Y-62690000D01*
X136679138Y-62675262D01*
X136660952Y-62489780D01*
X136660951Y-62489776D01*
X136660480Y-62484970D01*
X136600935Y-62287749D01*
X136504218Y-62105849D01*
X136374011Y-61946200D01*
X136365945Y-61939527D01*
X136219002Y-61817965D01*
X136219000Y-61817964D01*
X136215275Y-61814882D01*
X136061547Y-61731762D01*
X136038309Y-61719197D01*
X136038308Y-61719197D01*
X136034055Y-61716897D01*
X135904752Y-61676871D01*
X135841875Y-61657407D01*
X135841871Y-61657406D01*
X135837254Y-61655977D01*
X135832446Y-61655472D01*
X135832443Y-61655471D01*
X135637185Y-61634949D01*
X135637183Y-61634949D01*
X135632369Y-61634443D01*
X135572354Y-61639905D01*
X135432022Y-61652675D01*
X135432017Y-61652676D01*
X135427203Y-61653114D01*
X135229572Y-61711280D01*
X135225288Y-61713519D01*
X135225287Y-61713520D01*
X135201903Y-61725745D01*
X135047002Y-61806726D01*
X135043231Y-61809758D01*
X134890220Y-61932781D01*
X134890217Y-61932783D01*
X134886447Y-61935815D01*
X134883333Y-61939526D01*
X134883332Y-61939527D01*
X134825146Y-62008871D01*
X134754024Y-62093630D01*
X134751689Y-62097878D01*
X134751688Y-62097879D01*
X134746985Y-62106434D01*
X134654776Y-62274162D01*
X134653313Y-62278775D01*
X134653311Y-62278779D01*
X134628184Y-62357990D01*
X134592484Y-62470532D01*
X134591944Y-62475344D01*
X134591944Y-62475345D01*
X134570909Y-62662881D01*
X134569520Y-62675262D01*
X129972221Y-62675262D01*
X129978776Y-62662881D01*
X130011592Y-62532236D01*
X130018627Y-62504231D01*
X130018627Y-62504228D01*
X130020081Y-62498441D01*
X130020969Y-62328895D01*
X130012203Y-62292380D01*
X129982781Y-62169835D01*
X129981388Y-62164032D01*
X129903625Y-62013369D01*
X129792169Y-61885604D01*
X129781124Y-61877841D01*
X129658335Y-61791544D01*
X129658334Y-61791544D01*
X129653453Y-61788113D01*
X129563789Y-61753154D01*
X129501048Y-61728692D01*
X129501047Y-61728692D01*
X129495487Y-61726524D01*
X129489572Y-61725745D01*
X129489571Y-61725745D01*
X129369387Y-61709923D01*
X129366174Y-61709500D01*
X129277484Y-61709500D01*
X129274055Y-61709915D01*
X129157602Y-61724007D01*
X129157599Y-61724008D01*
X129151680Y-61724724D01*
X128993077Y-61784655D01*
X128988160Y-61788035D01*
X128988157Y-61788036D01*
X128944611Y-61817965D01*
X128853349Y-61880688D01*
X128740560Y-62007279D01*
X128737770Y-62012549D01*
X128737769Y-62012550D01*
X128734526Y-62018675D01*
X128661224Y-62157119D01*
X128647248Y-62212759D01*
X128628412Y-62287749D01*
X128619919Y-62321559D01*
X128619787Y-62346846D01*
X128619114Y-62475345D01*
X128619031Y-62491105D01*
X127020119Y-62491105D01*
X127020969Y-62328895D01*
X127012203Y-62292380D01*
X126982781Y-62169835D01*
X126981388Y-62164032D01*
X126903625Y-62013369D01*
X126792169Y-61885604D01*
X126781124Y-61877841D01*
X126658335Y-61791544D01*
X126658334Y-61791544D01*
X126653453Y-61788113D01*
X126563789Y-61753154D01*
X126501048Y-61728692D01*
X126501047Y-61728692D01*
X126495487Y-61726524D01*
X126489572Y-61725745D01*
X126489571Y-61725745D01*
X126369387Y-61709923D01*
X126366174Y-61709500D01*
X126277484Y-61709500D01*
X126274055Y-61709915D01*
X126157602Y-61724007D01*
X126157599Y-61724008D01*
X126151680Y-61724724D01*
X125993077Y-61784655D01*
X125988160Y-61788035D01*
X125988157Y-61788036D01*
X125944611Y-61817965D01*
X125853349Y-61880688D01*
X125740560Y-62007279D01*
X125737770Y-62012549D01*
X125737769Y-62012550D01*
X125734526Y-62018675D01*
X125661224Y-62157119D01*
X125647248Y-62212759D01*
X125628412Y-62287749D01*
X125619919Y-62321559D01*
X125619787Y-62346846D01*
X125619114Y-62475345D01*
X125619031Y-62491105D01*
X109681571Y-62491105D01*
X109698282Y-62478282D01*
X109794536Y-62352841D01*
X109855044Y-62206762D01*
X109875682Y-62050000D01*
X109855044Y-61893238D01*
X109794536Y-61747159D01*
X109698282Y-61621718D01*
X109637398Y-61575000D01*
X116144318Y-61575000D01*
X116164956Y-61731762D01*
X116225464Y-61877841D01*
X116321718Y-62003282D01*
X116447159Y-62099536D01*
X116593238Y-62160044D01*
X116750000Y-62180682D01*
X116906762Y-62160044D01*
X117052841Y-62099536D01*
X117178282Y-62003282D01*
X117274536Y-61877841D01*
X117335044Y-61731762D01*
X117355682Y-61575000D01*
X117335044Y-61418238D01*
X117274536Y-61272159D01*
X117178282Y-61146718D01*
X117052841Y-61050464D01*
X116906762Y-60989956D01*
X116750000Y-60969318D01*
X116593238Y-60989956D01*
X116447159Y-61050464D01*
X116321718Y-61146718D01*
X116225464Y-61272159D01*
X116164956Y-61418238D01*
X116144318Y-61575000D01*
X109637398Y-61575000D01*
X109572841Y-61525464D01*
X109426762Y-61464956D01*
X109270000Y-61444318D01*
X109113238Y-61464956D01*
X108967159Y-61525464D01*
X108841718Y-61621718D01*
X108745464Y-61747159D01*
X108684956Y-61893238D01*
X108664318Y-62050000D01*
X108359099Y-62050000D01*
X108345044Y-61943238D01*
X108284536Y-61797159D01*
X108188282Y-61671718D01*
X108062841Y-61575464D01*
X107916762Y-61514956D01*
X107760000Y-61494318D01*
X107603238Y-61514956D01*
X107457159Y-61575464D01*
X107331718Y-61671718D01*
X107235464Y-61797159D01*
X107174956Y-61943238D01*
X107154318Y-62100000D01*
X97820000Y-62100000D01*
X97820000Y-61179000D01*
X97838907Y-61120809D01*
X97888407Y-61084845D01*
X97919000Y-61080000D01*
X103820000Y-61080000D01*
X103820000Y-60650000D01*
X127964318Y-60650000D01*
X127984956Y-60806762D01*
X128045464Y-60952841D01*
X128141718Y-61078282D01*
X128267159Y-61174536D01*
X128413238Y-61235044D01*
X128570000Y-61255682D01*
X128726762Y-61235044D01*
X128872841Y-61174536D01*
X128998282Y-61078282D01*
X129043197Y-61019748D01*
X134574500Y-61019748D01*
X134586133Y-61078231D01*
X134630448Y-61144552D01*
X134696769Y-61188867D01*
X134706332Y-61190769D01*
X134706334Y-61190770D01*
X134729005Y-61195279D01*
X134755252Y-61200500D01*
X136494748Y-61200500D01*
X136520995Y-61195279D01*
X136543666Y-61190770D01*
X136543668Y-61190769D01*
X136553231Y-61188867D01*
X136619552Y-61144552D01*
X136663867Y-61078231D01*
X136675500Y-61019748D01*
X136675500Y-59280252D01*
X136663867Y-59221769D01*
X136619552Y-59155448D01*
X136553231Y-59111133D01*
X136543668Y-59109231D01*
X136543666Y-59109230D01*
X136520995Y-59104721D01*
X136494748Y-59099500D01*
X134755252Y-59099500D01*
X134729005Y-59104721D01*
X134706334Y-59109230D01*
X134706332Y-59109231D01*
X134696769Y-59111133D01*
X134630448Y-59155448D01*
X134586133Y-59221769D01*
X134574500Y-59280252D01*
X134574500Y-61019748D01*
X129043197Y-61019748D01*
X129094536Y-60952841D01*
X129155044Y-60806762D01*
X129175682Y-60650000D01*
X129155044Y-60493238D01*
X129094536Y-60347159D01*
X128998282Y-60221718D01*
X128872841Y-60125464D01*
X128726762Y-60064956D01*
X128570000Y-60044318D01*
X128413238Y-60064956D01*
X128267159Y-60125464D01*
X128141718Y-60221718D01*
X128045464Y-60347159D01*
X127984956Y-60493238D01*
X127964318Y-60650000D01*
X103820000Y-60650000D01*
X103820000Y-59040862D01*
X121355497Y-59040862D01*
X121385134Y-59213340D01*
X121453654Y-59374373D01*
X121557383Y-59515324D01*
X121561765Y-59519047D01*
X121561767Y-59519049D01*
X121686369Y-59624906D01*
X121690755Y-59628632D01*
X121770337Y-59669269D01*
X121841492Y-59705603D01*
X121841495Y-59705604D01*
X121846616Y-59708219D01*
X121852201Y-59709586D01*
X121852202Y-59709586D01*
X122012326Y-59748768D01*
X122012329Y-59748768D01*
X122016606Y-59749815D01*
X122021004Y-59750088D01*
X122021005Y-59750088D01*
X122026132Y-59750406D01*
X122026133Y-59750406D01*
X122027648Y-59750500D01*
X122153822Y-59750500D01*
X122159698Y-59749815D01*
X122168678Y-59748768D01*
X122283828Y-59735343D01*
X122289234Y-59733381D01*
X122289237Y-59733380D01*
X122442923Y-59677594D01*
X122448331Y-59675631D01*
X122453140Y-59672478D01*
X122453144Y-59672476D01*
X122589877Y-59582829D01*
X122594685Y-59579677D01*
X122598634Y-59575508D01*
X122598638Y-59575505D01*
X122711084Y-59456804D01*
X122715040Y-59452628D01*
X122802939Y-59301298D01*
X122839676Y-59180000D01*
X123964318Y-59180000D01*
X123984956Y-59336762D01*
X124045464Y-59482841D01*
X124141718Y-59608282D01*
X124267159Y-59704536D01*
X124413238Y-59765044D01*
X124570000Y-59785682D01*
X124726762Y-59765044D01*
X124872841Y-59704536D01*
X124998282Y-59608282D01*
X125094536Y-59482841D01*
X125155044Y-59336762D01*
X125175682Y-59180000D01*
X125155044Y-59023238D01*
X125094536Y-58877159D01*
X124998282Y-58751718D01*
X124872841Y-58655464D01*
X124726762Y-58594956D01*
X124570000Y-58574318D01*
X124413238Y-58594956D01*
X124267159Y-58655464D01*
X124141718Y-58751718D01*
X124045464Y-58877159D01*
X123984956Y-59023238D01*
X123964318Y-59180000D01*
X122839676Y-59180000D01*
X122841625Y-59173566D01*
X122852000Y-59139312D01*
X122852000Y-59139310D01*
X122853667Y-59133807D01*
X122864503Y-58959138D01*
X122834866Y-58786660D01*
X122766346Y-58625627D01*
X122662617Y-58484676D01*
X122658235Y-58480953D01*
X122658233Y-58480951D01*
X122533631Y-58375094D01*
X122533630Y-58375093D01*
X122529245Y-58371368D01*
X122443382Y-58327524D01*
X122378508Y-58294397D01*
X122378505Y-58294396D01*
X122373384Y-58291781D01*
X122367799Y-58290414D01*
X122367798Y-58290414D01*
X122207674Y-58251232D01*
X122207671Y-58251232D01*
X122203394Y-58250185D01*
X122198996Y-58249912D01*
X122198995Y-58249912D01*
X122193868Y-58249594D01*
X122193867Y-58249594D01*
X122192352Y-58249500D01*
X122066178Y-58249500D01*
X122063331Y-58249832D01*
X122063330Y-58249832D01*
X122052662Y-58251076D01*
X121936172Y-58264657D01*
X121930766Y-58266619D01*
X121930763Y-58266620D01*
X121854240Y-58294397D01*
X121771669Y-58324369D01*
X121766860Y-58327522D01*
X121766856Y-58327524D01*
X121675054Y-58387712D01*
X121625315Y-58420323D01*
X121621366Y-58424492D01*
X121621362Y-58424495D01*
X121512451Y-58539464D01*
X121504960Y-58547372D01*
X121502073Y-58552342D01*
X121502071Y-58552345D01*
X121419950Y-58693728D01*
X121417061Y-58698702D01*
X121366333Y-58866193D01*
X121355497Y-59040862D01*
X103820000Y-59040862D01*
X103820000Y-57130000D01*
X129151818Y-57130000D01*
X129172456Y-57286762D01*
X129232964Y-57432841D01*
X129329218Y-57558282D01*
X129454659Y-57654536D01*
X129600738Y-57715044D01*
X129757500Y-57735682D01*
X129914262Y-57715044D01*
X130060341Y-57654536D01*
X130185782Y-57558282D01*
X130282036Y-57432841D01*
X130342544Y-57286762D01*
X130363182Y-57130000D01*
X130342544Y-56973238D01*
X130282036Y-56827159D01*
X130185782Y-56701718D01*
X130060341Y-56605464D01*
X129914262Y-56544956D01*
X129757500Y-56524318D01*
X129600738Y-56544956D01*
X129454659Y-56605464D01*
X129329218Y-56701718D01*
X129232964Y-56827159D01*
X129172456Y-56973238D01*
X129151818Y-57130000D01*
X103820000Y-57130000D01*
X103820000Y-56080412D01*
X134320773Y-56080412D01*
X134330696Y-56238138D01*
X134379533Y-56388441D01*
X134382871Y-56393701D01*
X134382872Y-56393703D01*
X134460877Y-56516619D01*
X134464214Y-56521877D01*
X134579418Y-56630062D01*
X134584881Y-56633065D01*
X134584882Y-56633066D01*
X134712450Y-56703197D01*
X134712454Y-56703198D01*
X134717908Y-56706197D01*
X134723934Y-56707744D01*
X134723936Y-56707745D01*
X134864946Y-56743951D01*
X134864950Y-56743952D01*
X134870981Y-56745500D01*
X135989350Y-56745500D01*
X136106792Y-56730664D01*
X136253732Y-56672486D01*
X136381587Y-56579594D01*
X136385553Y-56574800D01*
X136385556Y-56574797D01*
X136478354Y-56462622D01*
X136482324Y-56457823D01*
X136549614Y-56314826D01*
X136579227Y-56159588D01*
X136569304Y-56001862D01*
X136520467Y-55851559D01*
X136480012Y-55787811D01*
X136439123Y-55723381D01*
X136439122Y-55723380D01*
X136435786Y-55718123D01*
X136320582Y-55609938D01*
X136315118Y-55606934D01*
X136187550Y-55536803D01*
X136187546Y-55536802D01*
X136182092Y-55533803D01*
X136176066Y-55532256D01*
X136176064Y-55532255D01*
X136035054Y-55496049D01*
X136035050Y-55496048D01*
X136029019Y-55494500D01*
X134910650Y-55494500D01*
X134793208Y-55509336D01*
X134646268Y-55567514D01*
X134518413Y-55660406D01*
X134514447Y-55665200D01*
X134514444Y-55665203D01*
X134466316Y-55723381D01*
X134417676Y-55782177D01*
X134350386Y-55925174D01*
X134320773Y-56080412D01*
X103820000Y-56080412D01*
X103820000Y-52450000D01*
X114069318Y-52450000D01*
X114089956Y-52606762D01*
X114150464Y-52752841D01*
X114246718Y-52878282D01*
X114372159Y-52974536D01*
X114518238Y-53035044D01*
X114675000Y-53055682D01*
X114831762Y-53035044D01*
X114916366Y-53000000D01*
X115619318Y-53000000D01*
X115639956Y-53156762D01*
X115700464Y-53302841D01*
X115796718Y-53428282D01*
X115922159Y-53524536D01*
X116068238Y-53585044D01*
X116225000Y-53605682D01*
X116381762Y-53585044D01*
X116527841Y-53524536D01*
X116653282Y-53428282D01*
X116713350Y-53350000D01*
X127869318Y-53350000D01*
X127889956Y-53506762D01*
X127950464Y-53652841D01*
X128046718Y-53778282D01*
X128172159Y-53874536D01*
X128318238Y-53935044D01*
X128475000Y-53955682D01*
X128631762Y-53935044D01*
X128777841Y-53874536D01*
X128903282Y-53778282D01*
X128999536Y-53652841D01*
X129060044Y-53506762D01*
X129080682Y-53350000D01*
X129060044Y-53193238D01*
X128999536Y-53047159D01*
X128903282Y-52921718D01*
X128777841Y-52825464D01*
X128631762Y-52764956D01*
X128475000Y-52744318D01*
X128318238Y-52764956D01*
X128172159Y-52825464D01*
X128046718Y-52921718D01*
X127950464Y-53047159D01*
X127889956Y-53193238D01*
X127869318Y-53350000D01*
X116713350Y-53350000D01*
X116749536Y-53302841D01*
X116810044Y-53156762D01*
X116830682Y-53000000D01*
X116810044Y-52843238D01*
X116749536Y-52697159D01*
X116653282Y-52571718D01*
X116527841Y-52475464D01*
X116381762Y-52414956D01*
X116225000Y-52394318D01*
X116068238Y-52414956D01*
X115922159Y-52475464D01*
X115796718Y-52571718D01*
X115700464Y-52697159D01*
X115639956Y-52843238D01*
X115619318Y-53000000D01*
X114916366Y-53000000D01*
X114977841Y-52974536D01*
X115103282Y-52878282D01*
X115199536Y-52752841D01*
X115260044Y-52606762D01*
X115280682Y-52450000D01*
X115260044Y-52293238D01*
X115199536Y-52147159D01*
X115103282Y-52021718D01*
X114977841Y-51925464D01*
X114831762Y-51864956D01*
X114675000Y-51844318D01*
X114518238Y-51864956D01*
X114372159Y-51925464D01*
X114246718Y-52021718D01*
X114150464Y-52147159D01*
X114089956Y-52293238D01*
X114069318Y-52450000D01*
X103820000Y-52450000D01*
X103820000Y-51030000D01*
X116724318Y-51030000D01*
X116744956Y-51186762D01*
X116805464Y-51332841D01*
X116901718Y-51458282D01*
X117027159Y-51554536D01*
X117173238Y-51615044D01*
X117330000Y-51635682D01*
X117486762Y-51615044D01*
X117632841Y-51554536D01*
X117758282Y-51458282D01*
X117854536Y-51332841D01*
X117915044Y-51186762D01*
X117935682Y-51030000D01*
X117915044Y-50873238D01*
X117854536Y-50727159D01*
X117758282Y-50601718D01*
X117632841Y-50505464D01*
X117486762Y-50444956D01*
X117330000Y-50424318D01*
X117173238Y-50444956D01*
X117027159Y-50505464D01*
X116901718Y-50601718D01*
X116805464Y-50727159D01*
X116744956Y-50873238D01*
X116724318Y-51030000D01*
X103820000Y-51030000D01*
X103820000Y-49040862D01*
X121355497Y-49040862D01*
X121385134Y-49213340D01*
X121453654Y-49374373D01*
X121557383Y-49515324D01*
X121561765Y-49519047D01*
X121561767Y-49519049D01*
X121662744Y-49604835D01*
X121690755Y-49628632D01*
X121770337Y-49669269D01*
X121841492Y-49705603D01*
X121841495Y-49705604D01*
X121846616Y-49708219D01*
X121852201Y-49709586D01*
X121852202Y-49709586D01*
X122012326Y-49748768D01*
X122012329Y-49748768D01*
X122016606Y-49749815D01*
X122021004Y-49750088D01*
X122021005Y-49750088D01*
X122026132Y-49750406D01*
X122026133Y-49750406D01*
X122027648Y-49750500D01*
X122153822Y-49750500D01*
X122159698Y-49749815D01*
X122168678Y-49748768D01*
X122283828Y-49735343D01*
X122289234Y-49733381D01*
X122289237Y-49733380D01*
X122442923Y-49677594D01*
X122448331Y-49675631D01*
X122453140Y-49672478D01*
X122453144Y-49672476D01*
X122589877Y-49582829D01*
X122594685Y-49579677D01*
X122598634Y-49575508D01*
X122598638Y-49575505D01*
X122711084Y-49456804D01*
X122715040Y-49452628D01*
X122729182Y-49428282D01*
X122800050Y-49306272D01*
X122800050Y-49306271D01*
X122802939Y-49301298D01*
X122819598Y-49246294D01*
X122854561Y-49196082D01*
X122912360Y-49176010D01*
X122970919Y-49193745D01*
X122999001Y-49224309D01*
X123000464Y-49227841D01*
X123096718Y-49353282D01*
X123222159Y-49449536D01*
X123368238Y-49510044D01*
X123525000Y-49530682D01*
X123681762Y-49510044D01*
X123827841Y-49449536D01*
X123953282Y-49353282D01*
X124049536Y-49227841D01*
X124110044Y-49081762D01*
X124120808Y-49000000D01*
X126519318Y-49000000D01*
X126539956Y-49156762D01*
X126600464Y-49302841D01*
X126696718Y-49428282D01*
X126822159Y-49524536D01*
X126968238Y-49585044D01*
X127125000Y-49605682D01*
X127281762Y-49585044D01*
X127427841Y-49524536D01*
X127553282Y-49428282D01*
X127558959Y-49420883D01*
X127560630Y-49419735D01*
X127561820Y-49418545D01*
X127562041Y-49418766D01*
X127609383Y-49386229D01*
X127670548Y-49387831D01*
X127713030Y-49418695D01*
X127713180Y-49418545D01*
X127714130Y-49419495D01*
X127716040Y-49420883D01*
X127721718Y-49428282D01*
X127847159Y-49524536D01*
X127993238Y-49585044D01*
X128150000Y-49605682D01*
X128306762Y-49585044D01*
X128452841Y-49524536D01*
X128578282Y-49428282D01*
X128674536Y-49302841D01*
X128735044Y-49156762D01*
X128755682Y-49000000D01*
X128735044Y-48843238D01*
X128674536Y-48697159D01*
X128578282Y-48571718D01*
X128452841Y-48475464D01*
X128306762Y-48414956D01*
X128150000Y-48394318D01*
X127993238Y-48414956D01*
X127847159Y-48475464D01*
X127721718Y-48571718D01*
X127716041Y-48579117D01*
X127714370Y-48580265D01*
X127713180Y-48581455D01*
X127712959Y-48581234D01*
X127665617Y-48613771D01*
X127604452Y-48612169D01*
X127561970Y-48581305D01*
X127561820Y-48581455D01*
X127560870Y-48580505D01*
X127558960Y-48579117D01*
X127553282Y-48571718D01*
X127427841Y-48475464D01*
X127281762Y-48414956D01*
X127125000Y-48394318D01*
X126968238Y-48414956D01*
X126822159Y-48475464D01*
X126696718Y-48571718D01*
X126600464Y-48697159D01*
X126539956Y-48843238D01*
X126519318Y-49000000D01*
X124120808Y-49000000D01*
X124130682Y-48925000D01*
X124110044Y-48768238D01*
X124049536Y-48622159D01*
X123953282Y-48496718D01*
X123827841Y-48400464D01*
X123681762Y-48339956D01*
X123525000Y-48319318D01*
X123368238Y-48339956D01*
X123222159Y-48400464D01*
X123096718Y-48496718D01*
X123000464Y-48622159D01*
X122997981Y-48628154D01*
X122997980Y-48628156D01*
X122974488Y-48684871D01*
X122934752Y-48731397D01*
X122875257Y-48745681D01*
X122818729Y-48722267D01*
X122791928Y-48685748D01*
X122768597Y-48630917D01*
X122768597Y-48630916D01*
X122766346Y-48625627D01*
X122662617Y-48484676D01*
X122658235Y-48480953D01*
X122658233Y-48480951D01*
X122533631Y-48375094D01*
X122533630Y-48375093D01*
X122529245Y-48371368D01*
X122443382Y-48327524D01*
X122378508Y-48294397D01*
X122378505Y-48294396D01*
X122373384Y-48291781D01*
X122367799Y-48290414D01*
X122367798Y-48290414D01*
X122207674Y-48251232D01*
X122207671Y-48251232D01*
X122203394Y-48250185D01*
X122198996Y-48249912D01*
X122198995Y-48249912D01*
X122193868Y-48249594D01*
X122193867Y-48249594D01*
X122192352Y-48249500D01*
X122066178Y-48249500D01*
X122063331Y-48249832D01*
X122063330Y-48249832D01*
X122052662Y-48251076D01*
X121936172Y-48264657D01*
X121930766Y-48266619D01*
X121930763Y-48266620D01*
X121854240Y-48294397D01*
X121771669Y-48324369D01*
X121766860Y-48327522D01*
X121766856Y-48327524D01*
X121689438Y-48378282D01*
X121625315Y-48420323D01*
X121621366Y-48424492D01*
X121621362Y-48424495D01*
X121518992Y-48532560D01*
X121504960Y-48547372D01*
X121502073Y-48552342D01*
X121502071Y-48552345D01*
X121464511Y-48617010D01*
X121417061Y-48698702D01*
X121397817Y-48762241D01*
X121375102Y-48837241D01*
X121366333Y-48866193D01*
X121355497Y-49040862D01*
X103820000Y-49040862D01*
X103820000Y-48020000D01*
X115484318Y-48020000D01*
X115504956Y-48176762D01*
X115565464Y-48322841D01*
X115661718Y-48448282D01*
X115787159Y-48544536D01*
X115933238Y-48605044D01*
X116090000Y-48625682D01*
X116246762Y-48605044D01*
X116392841Y-48544536D01*
X116518282Y-48448282D01*
X116614536Y-48322841D01*
X116675044Y-48176762D01*
X116695682Y-48020000D01*
X116686466Y-47950000D01*
X117419318Y-47950000D01*
X117439956Y-48106762D01*
X117500464Y-48252841D01*
X117596718Y-48378282D01*
X117722159Y-48474536D01*
X117868238Y-48535044D01*
X118025000Y-48555682D01*
X118181762Y-48535044D01*
X118327841Y-48474536D01*
X118453282Y-48378282D01*
X118549536Y-48252841D01*
X118610044Y-48106762D01*
X118614347Y-48074077D01*
X118640688Y-48018852D01*
X118694459Y-47989657D01*
X118755120Y-47997643D01*
X118799503Y-48039760D01*
X118810653Y-48074077D01*
X118814956Y-48106762D01*
X118875464Y-48252841D01*
X118971718Y-48378282D01*
X119097159Y-48474536D01*
X119243238Y-48535044D01*
X119400000Y-48555682D01*
X119556762Y-48535044D01*
X119702841Y-48474536D01*
X119828282Y-48378282D01*
X119924536Y-48252841D01*
X119985044Y-48106762D01*
X120005682Y-47950000D01*
X120003681Y-47934797D01*
X119996713Y-47881877D01*
X119985044Y-47793238D01*
X119924536Y-47647159D01*
X119828282Y-47521718D01*
X119702841Y-47425464D01*
X119556762Y-47364956D01*
X119400000Y-47344318D01*
X119243238Y-47364956D01*
X119097159Y-47425464D01*
X118971718Y-47521718D01*
X118875464Y-47647159D01*
X118814956Y-47793238D01*
X118814109Y-47799674D01*
X118810653Y-47825923D01*
X118784312Y-47881148D01*
X118730541Y-47910343D01*
X118669880Y-47902357D01*
X118625497Y-47860240D01*
X118614347Y-47825923D01*
X118610891Y-47799674D01*
X118610044Y-47793238D01*
X118549536Y-47647159D01*
X118453282Y-47521718D01*
X118327841Y-47425464D01*
X118181762Y-47364956D01*
X118025000Y-47344318D01*
X117868238Y-47364956D01*
X117722159Y-47425464D01*
X117596718Y-47521718D01*
X117500464Y-47647159D01*
X117439956Y-47793238D01*
X117428287Y-47881877D01*
X117421320Y-47934797D01*
X117419318Y-47950000D01*
X116686466Y-47950000D01*
X116675044Y-47863238D01*
X116614536Y-47717159D01*
X116518282Y-47591718D01*
X116392841Y-47495464D01*
X116246762Y-47434956D01*
X116090000Y-47414318D01*
X115933238Y-47434956D01*
X115787159Y-47495464D01*
X115661718Y-47591718D01*
X115565464Y-47717159D01*
X115504956Y-47863238D01*
X115484318Y-48020000D01*
X103820000Y-48020000D01*
X103820000Y-47125000D01*
X126494318Y-47125000D01*
X126514956Y-47281762D01*
X126575464Y-47427841D01*
X126671718Y-47553282D01*
X126797159Y-47649536D01*
X126943238Y-47710044D01*
X127100000Y-47730682D01*
X127256762Y-47710044D01*
X127402841Y-47649536D01*
X127528282Y-47553282D01*
X127532237Y-47548128D01*
X127546459Y-47529594D01*
X127596883Y-47494939D01*
X127658048Y-47496541D01*
X127703541Y-47529594D01*
X127717763Y-47548128D01*
X127721718Y-47553282D01*
X127847159Y-47649536D01*
X127993238Y-47710044D01*
X128150000Y-47730682D01*
X128306762Y-47710044D01*
X128452841Y-47649536D01*
X128578282Y-47553282D01*
X128664890Y-47440412D01*
X134320773Y-47440412D01*
X134330696Y-47598138D01*
X134379533Y-47748441D01*
X134382871Y-47753701D01*
X134382872Y-47753703D01*
X134450483Y-47860240D01*
X134464214Y-47881877D01*
X134579418Y-47990062D01*
X134584881Y-47993065D01*
X134584882Y-47993066D01*
X134712450Y-48063197D01*
X134712454Y-48063198D01*
X134717908Y-48066197D01*
X134723934Y-48067744D01*
X134723936Y-48067745D01*
X134864946Y-48103951D01*
X134864950Y-48103952D01*
X134870981Y-48105500D01*
X135989350Y-48105500D01*
X136106792Y-48090664D01*
X136253732Y-48032486D01*
X136358409Y-47956434D01*
X136376551Y-47943253D01*
X136376552Y-47943252D01*
X136381587Y-47939594D01*
X136385553Y-47934800D01*
X136385556Y-47934797D01*
X136478354Y-47822622D01*
X136482324Y-47817823D01*
X136549614Y-47674826D01*
X136554439Y-47649536D01*
X136572045Y-47557236D01*
X136579227Y-47519588D01*
X136569304Y-47361862D01*
X136520467Y-47211559D01*
X136480012Y-47147811D01*
X136439123Y-47083381D01*
X136439122Y-47083380D01*
X136435786Y-47078123D01*
X136320582Y-46969938D01*
X136252002Y-46932236D01*
X136187550Y-46896803D01*
X136187546Y-46896802D01*
X136182092Y-46893803D01*
X136176066Y-46892256D01*
X136176064Y-46892255D01*
X136035054Y-46856049D01*
X136035050Y-46856048D01*
X136029019Y-46854500D01*
X134910650Y-46854500D01*
X134793208Y-46869336D01*
X134646268Y-46927514D01*
X134518413Y-47020406D01*
X134514447Y-47025200D01*
X134514444Y-47025203D01*
X134431886Y-47125000D01*
X134417676Y-47142177D01*
X134350386Y-47285174D01*
X134320773Y-47440412D01*
X128664890Y-47440412D01*
X128674536Y-47427841D01*
X128735044Y-47281762D01*
X128755682Y-47125000D01*
X128735044Y-46968238D01*
X128674536Y-46822159D01*
X128578282Y-46696718D01*
X128452841Y-46600464D01*
X128306762Y-46539956D01*
X128150000Y-46519318D01*
X127993238Y-46539956D01*
X127847159Y-46600464D01*
X127721718Y-46696718D01*
X127717764Y-46701871D01*
X127717763Y-46701872D01*
X127703541Y-46720406D01*
X127653117Y-46755061D01*
X127591952Y-46753459D01*
X127546459Y-46720406D01*
X127532237Y-46701872D01*
X127532236Y-46701871D01*
X127528282Y-46696718D01*
X127402841Y-46600464D01*
X127256762Y-46539956D01*
X127100000Y-46519318D01*
X126943238Y-46539956D01*
X126797159Y-46600464D01*
X126671718Y-46696718D01*
X126575464Y-46822159D01*
X126514956Y-46968238D01*
X126494318Y-47125000D01*
X103820000Y-47125000D01*
X103820000Y-46500000D01*
X117369318Y-46500000D01*
X117389956Y-46656762D01*
X117450464Y-46802841D01*
X117546718Y-46928282D01*
X117672159Y-47024536D01*
X117818238Y-47085044D01*
X117975000Y-47105682D01*
X118131762Y-47085044D01*
X118277841Y-47024536D01*
X118403282Y-46928282D01*
X118499536Y-46802841D01*
X118560044Y-46656762D01*
X118580682Y-46500000D01*
X118574099Y-46450000D01*
X118794318Y-46450000D01*
X118814956Y-46606762D01*
X118875464Y-46752841D01*
X118971718Y-46878282D01*
X119097159Y-46974536D01*
X119243238Y-47035044D01*
X119400000Y-47055682D01*
X119556762Y-47035044D01*
X119702841Y-46974536D01*
X119828282Y-46878282D01*
X119924536Y-46752841D01*
X119985044Y-46606762D01*
X120005682Y-46450000D01*
X119985044Y-46293238D01*
X119924536Y-46147159D01*
X119828282Y-46021718D01*
X119702841Y-45925464D01*
X119556762Y-45864956D01*
X119400000Y-45844318D01*
X119243238Y-45864956D01*
X119097159Y-45925464D01*
X118971718Y-46021718D01*
X118875464Y-46147159D01*
X118814956Y-46293238D01*
X118794318Y-46450000D01*
X118574099Y-46450000D01*
X118560044Y-46343238D01*
X118499536Y-46197159D01*
X118403282Y-46071718D01*
X118277841Y-45975464D01*
X118131762Y-45914956D01*
X117975000Y-45894318D01*
X117818238Y-45914956D01*
X117672159Y-45975464D01*
X117546718Y-46071718D01*
X117450464Y-46197159D01*
X117389956Y-46343238D01*
X117369318Y-46500000D01*
X103820000Y-46500000D01*
X103820000Y-45480000D01*
X129919318Y-45480000D01*
X129939956Y-45636762D01*
X130000464Y-45782841D01*
X130096718Y-45908282D01*
X130222159Y-46004536D01*
X130368238Y-46065044D01*
X130525000Y-46085682D01*
X130681762Y-46065044D01*
X130827841Y-46004536D01*
X130953282Y-45908282D01*
X131049536Y-45782841D01*
X131086025Y-45694748D01*
X136674500Y-45694748D01*
X136686133Y-45753231D01*
X136730448Y-45819552D01*
X136796769Y-45863867D01*
X136806332Y-45865769D01*
X136806334Y-45865770D01*
X136829005Y-45870279D01*
X136855252Y-45875500D01*
X138244748Y-45875500D01*
X138270995Y-45870279D01*
X138293666Y-45865770D01*
X138293668Y-45865769D01*
X138303231Y-45863867D01*
X138369552Y-45819552D01*
X138413867Y-45753231D01*
X138425500Y-45694748D01*
X138425500Y-44305252D01*
X138413867Y-44246769D01*
X138369552Y-44180448D01*
X138303231Y-44136133D01*
X138293668Y-44134231D01*
X138293666Y-44134230D01*
X138270995Y-44129721D01*
X138244748Y-44124500D01*
X136855252Y-44124500D01*
X136829005Y-44129721D01*
X136806334Y-44134230D01*
X136806332Y-44134231D01*
X136796769Y-44136133D01*
X136730448Y-44180448D01*
X136686133Y-44246769D01*
X136674500Y-44305252D01*
X136674500Y-45694748D01*
X131086025Y-45694748D01*
X131110044Y-45636762D01*
X131130682Y-45480000D01*
X131110044Y-45323238D01*
X131049536Y-45177159D01*
X130953282Y-45051718D01*
X130827841Y-44955464D01*
X130681762Y-44894956D01*
X130525000Y-44874318D01*
X130368238Y-44894956D01*
X130222159Y-44955464D01*
X130096718Y-45051718D01*
X130000464Y-45177159D01*
X129939956Y-45323238D01*
X129919318Y-45480000D01*
X103820000Y-45480000D01*
X103820000Y-43120000D01*
X109484318Y-43120000D01*
X109504956Y-43276762D01*
X109565464Y-43422841D01*
X109661718Y-43548282D01*
X109787159Y-43644536D01*
X109933238Y-43705044D01*
X110090000Y-43725682D01*
X110246762Y-43705044D01*
X110392841Y-43644536D01*
X110518282Y-43548282D01*
X110614536Y-43422841D01*
X110675044Y-43276762D01*
X110695682Y-43120000D01*
X113484318Y-43120000D01*
X113504956Y-43276762D01*
X113565464Y-43422841D01*
X113661718Y-43548282D01*
X113787159Y-43644536D01*
X113933238Y-43705044D01*
X114090000Y-43725682D01*
X114246762Y-43705044D01*
X114392841Y-43644536D01*
X114518282Y-43548282D01*
X114614536Y-43422841D01*
X114675044Y-43276762D01*
X114695682Y-43120000D01*
X114693049Y-43100000D01*
X119519318Y-43100000D01*
X119539956Y-43256762D01*
X119600464Y-43402841D01*
X119696718Y-43528282D01*
X119822159Y-43624536D01*
X119968238Y-43685044D01*
X120125000Y-43705682D01*
X120281762Y-43685044D01*
X120427841Y-43624536D01*
X120553282Y-43528282D01*
X120649536Y-43402841D01*
X120710044Y-43256762D01*
X120730682Y-43100000D01*
X120713567Y-42970000D01*
X129944318Y-42970000D01*
X129964956Y-43126762D01*
X130025464Y-43272841D01*
X130121718Y-43398282D01*
X130247159Y-43494536D01*
X130393238Y-43555044D01*
X130550000Y-43575682D01*
X130706762Y-43555044D01*
X130852841Y-43494536D01*
X130978282Y-43398282D01*
X131074536Y-43272841D01*
X131135044Y-43126762D01*
X131151732Y-43000000D01*
X136669678Y-43000000D01*
X136688915Y-43183029D01*
X136690516Y-43187956D01*
X136690517Y-43187961D01*
X136710781Y-43250326D01*
X136745786Y-43358059D01*
X136748378Y-43362548D01*
X136748380Y-43362553D01*
X136783188Y-43422841D01*
X136837805Y-43517440D01*
X136841273Y-43521292D01*
X136841277Y-43521297D01*
X136957480Y-43650354D01*
X136957484Y-43650358D01*
X136960950Y-43654207D01*
X137109839Y-43762381D01*
X137114571Y-43764488D01*
X137114573Y-43764489D01*
X137273226Y-43835126D01*
X137273229Y-43835127D01*
X137277966Y-43837236D01*
X137457981Y-43875500D01*
X137642019Y-43875500D01*
X137822034Y-43837236D01*
X137826771Y-43835127D01*
X137826774Y-43835126D01*
X137985427Y-43764489D01*
X137985429Y-43764488D01*
X137990161Y-43762381D01*
X138139050Y-43654207D01*
X138142516Y-43650358D01*
X138142520Y-43650354D01*
X138258723Y-43521297D01*
X138258727Y-43521292D01*
X138262195Y-43517440D01*
X138316812Y-43422841D01*
X138351620Y-43362553D01*
X138351622Y-43362548D01*
X138354214Y-43358059D01*
X138389219Y-43250326D01*
X138409483Y-43187961D01*
X138409484Y-43187956D01*
X138411085Y-43183029D01*
X138430322Y-43000000D01*
X138411085Y-42816971D01*
X138409484Y-42812044D01*
X138409483Y-42812039D01*
X138369103Y-42687764D01*
X138354214Y-42641941D01*
X138351622Y-42637452D01*
X138351620Y-42637447D01*
X138280410Y-42514109D01*
X138262195Y-42482560D01*
X138258727Y-42478708D01*
X138258723Y-42478703D01*
X138142520Y-42349646D01*
X138142516Y-42349642D01*
X138139050Y-42345793D01*
X137990161Y-42237619D01*
X137985429Y-42235512D01*
X137985427Y-42235511D01*
X137826774Y-42164874D01*
X137826771Y-42164873D01*
X137822034Y-42162764D01*
X137642019Y-42124500D01*
X137457981Y-42124500D01*
X137277966Y-42162764D01*
X137273229Y-42164873D01*
X137273226Y-42164874D01*
X137114573Y-42235511D01*
X137114571Y-42235512D01*
X137109839Y-42237619D01*
X136960950Y-42345793D01*
X136957484Y-42349642D01*
X136957480Y-42349646D01*
X136841277Y-42478703D01*
X136841273Y-42478708D01*
X136837805Y-42482560D01*
X136819590Y-42514109D01*
X136748380Y-42637447D01*
X136748378Y-42637452D01*
X136745786Y-42641941D01*
X136730897Y-42687764D01*
X136690517Y-42812039D01*
X136690516Y-42812044D01*
X136688915Y-42816971D01*
X136669678Y-43000000D01*
X131151732Y-43000000D01*
X131155682Y-42970000D01*
X131135044Y-42813238D01*
X131074536Y-42667159D01*
X130978282Y-42541718D01*
X130852841Y-42445464D01*
X130706762Y-42384956D01*
X130550000Y-42364318D01*
X130393238Y-42384956D01*
X130247159Y-42445464D01*
X130121718Y-42541718D01*
X130025464Y-42667159D01*
X129964956Y-42813238D01*
X129944318Y-42970000D01*
X120713567Y-42970000D01*
X120710044Y-42943238D01*
X120649536Y-42797159D01*
X120553282Y-42671718D01*
X120427841Y-42575464D01*
X120281762Y-42514956D01*
X120125000Y-42494318D01*
X119968238Y-42514956D01*
X119822159Y-42575464D01*
X119696718Y-42671718D01*
X119600464Y-42797159D01*
X119539956Y-42943238D01*
X119519318Y-43100000D01*
X114693049Y-43100000D01*
X114675044Y-42963238D01*
X114614536Y-42817159D01*
X114518282Y-42691718D01*
X114392841Y-42595464D01*
X114246762Y-42534956D01*
X114090000Y-42514318D01*
X113933238Y-42534956D01*
X113787159Y-42595464D01*
X113661718Y-42691718D01*
X113565464Y-42817159D01*
X113504956Y-42963238D01*
X113484318Y-43120000D01*
X110695682Y-43120000D01*
X110675044Y-42963238D01*
X110614536Y-42817159D01*
X110518282Y-42691718D01*
X110392841Y-42595464D01*
X110246762Y-42534956D01*
X110090000Y-42514318D01*
X109933238Y-42534956D01*
X109787159Y-42595464D01*
X109661718Y-42691718D01*
X109565464Y-42817159D01*
X109504956Y-42963238D01*
X109484318Y-43120000D01*
X103820000Y-43120000D01*
X103820000Y-41000000D01*
X136669678Y-41000000D01*
X136688915Y-41183029D01*
X136690516Y-41187956D01*
X136690517Y-41187961D01*
X136729803Y-41308868D01*
X136745786Y-41358059D01*
X136748378Y-41362548D01*
X136748380Y-41362553D01*
X136814157Y-41476480D01*
X136837805Y-41517440D01*
X136841273Y-41521292D01*
X136841277Y-41521297D01*
X136957480Y-41650354D01*
X136957484Y-41650358D01*
X136960950Y-41654207D01*
X137109839Y-41762381D01*
X137114571Y-41764488D01*
X137114573Y-41764489D01*
X137273226Y-41835126D01*
X137273229Y-41835127D01*
X137277966Y-41837236D01*
X137457981Y-41875500D01*
X137642019Y-41875500D01*
X137822034Y-41837236D01*
X137826771Y-41835127D01*
X137826774Y-41835126D01*
X137985427Y-41764489D01*
X137985429Y-41764488D01*
X137990161Y-41762381D01*
X138139050Y-41654207D01*
X138142516Y-41650358D01*
X138142520Y-41650354D01*
X138258723Y-41521297D01*
X138258727Y-41521292D01*
X138262195Y-41517440D01*
X138285843Y-41476480D01*
X138351620Y-41362553D01*
X138351622Y-41362548D01*
X138354214Y-41358059D01*
X138370197Y-41308868D01*
X138409483Y-41187961D01*
X138409484Y-41187956D01*
X138411085Y-41183029D01*
X138430322Y-41000000D01*
X138411085Y-40816971D01*
X138409484Y-40812044D01*
X138409483Y-40812039D01*
X138355816Y-40646872D01*
X138354214Y-40641941D01*
X138351622Y-40637452D01*
X138351620Y-40637447D01*
X138264790Y-40487055D01*
X138262195Y-40482560D01*
X138258727Y-40478708D01*
X138258723Y-40478703D01*
X138142520Y-40349646D01*
X138142516Y-40349642D01*
X138139050Y-40345793D01*
X137990161Y-40237619D01*
X137985429Y-40235512D01*
X137985427Y-40235511D01*
X137826774Y-40164874D01*
X137826771Y-40164873D01*
X137822034Y-40162764D01*
X137642019Y-40124500D01*
X137457981Y-40124500D01*
X137277966Y-40162764D01*
X137273229Y-40164873D01*
X137273226Y-40164874D01*
X137114573Y-40235511D01*
X137114571Y-40235512D01*
X137109839Y-40237619D01*
X136960950Y-40345793D01*
X136957484Y-40349642D01*
X136957480Y-40349646D01*
X136841277Y-40478703D01*
X136841273Y-40478708D01*
X136837805Y-40482560D01*
X136835210Y-40487055D01*
X136748380Y-40637447D01*
X136748378Y-40637452D01*
X136745786Y-40641941D01*
X136744184Y-40646872D01*
X136690517Y-40812039D01*
X136690516Y-40812044D01*
X136688915Y-40816971D01*
X136669678Y-41000000D01*
X103820000Y-41000000D01*
X103820000Y-40380000D01*
X97919000Y-40380000D01*
X97860809Y-40361093D01*
X97824845Y-40311593D01*
X97820000Y-40281000D01*
X97820000Y-39930000D01*
X126834318Y-39930000D01*
X126854956Y-40086762D01*
X126915464Y-40232841D01*
X127011718Y-40358282D01*
X127137159Y-40454536D01*
X127283238Y-40515044D01*
X127440000Y-40535682D01*
X127596762Y-40515044D01*
X127742841Y-40454536D01*
X127868282Y-40358282D01*
X127964536Y-40232841D01*
X128025044Y-40086762D01*
X128045682Y-39930000D01*
X128025044Y-39773238D01*
X127964536Y-39627159D01*
X127868282Y-39501718D01*
X127742841Y-39405464D01*
X127596762Y-39344956D01*
X127440000Y-39324318D01*
X127283238Y-39344956D01*
X127137159Y-39405464D01*
X127011718Y-39501718D01*
X126915464Y-39627159D01*
X126854956Y-39773238D01*
X126834318Y-39930000D01*
X97820000Y-39930000D01*
X97820000Y-39070000D01*
X110814318Y-39070000D01*
X110834956Y-39226762D01*
X110895464Y-39372841D01*
X110991718Y-39498282D01*
X111117159Y-39594536D01*
X111263238Y-39655044D01*
X111420000Y-39675682D01*
X111576762Y-39655044D01*
X111722841Y-39594536D01*
X111848282Y-39498282D01*
X111944536Y-39372841D01*
X112005044Y-39226762D01*
X112025682Y-39070000D01*
X112016466Y-39000000D01*
X136669678Y-39000000D01*
X136688915Y-39183029D01*
X136690516Y-39187956D01*
X136690517Y-39187961D01*
X136705073Y-39232759D01*
X136745786Y-39358059D01*
X136748378Y-39362548D01*
X136748380Y-39362553D01*
X136814157Y-39476480D01*
X136837805Y-39517440D01*
X136841273Y-39521292D01*
X136841277Y-39521297D01*
X136957480Y-39650354D01*
X136957484Y-39650358D01*
X136960950Y-39654207D01*
X137109839Y-39762381D01*
X137114571Y-39764488D01*
X137114573Y-39764489D01*
X137273226Y-39835126D01*
X137273229Y-39835127D01*
X137277966Y-39837236D01*
X137457981Y-39875500D01*
X137642019Y-39875500D01*
X137822034Y-39837236D01*
X137826771Y-39835127D01*
X137826774Y-39835126D01*
X137985427Y-39764489D01*
X137985429Y-39764488D01*
X137990161Y-39762381D01*
X138139050Y-39654207D01*
X138142516Y-39650358D01*
X138142520Y-39650354D01*
X138258723Y-39521297D01*
X138258727Y-39521292D01*
X138262195Y-39517440D01*
X138285843Y-39476480D01*
X138351620Y-39362553D01*
X138351622Y-39362548D01*
X138354214Y-39358059D01*
X138394927Y-39232759D01*
X138409483Y-39187961D01*
X138409484Y-39187956D01*
X138411085Y-39183029D01*
X138430322Y-39000000D01*
X138411085Y-38816971D01*
X138409484Y-38812044D01*
X138409483Y-38812039D01*
X138355816Y-38646872D01*
X138355816Y-38646871D01*
X138354214Y-38641941D01*
X138351622Y-38637452D01*
X138351620Y-38637447D01*
X138285843Y-38523520D01*
X138262195Y-38482560D01*
X138258727Y-38478708D01*
X138258723Y-38478703D01*
X138142520Y-38349646D01*
X138142516Y-38349642D01*
X138139050Y-38345793D01*
X137990161Y-38237619D01*
X137985429Y-38235512D01*
X137985427Y-38235511D01*
X137826774Y-38164874D01*
X137826771Y-38164873D01*
X137822034Y-38162764D01*
X137642019Y-38124500D01*
X137457981Y-38124500D01*
X137277966Y-38162764D01*
X137273229Y-38164873D01*
X137273226Y-38164874D01*
X137114573Y-38235511D01*
X137114571Y-38235512D01*
X137109839Y-38237619D01*
X136960950Y-38345793D01*
X136957484Y-38349642D01*
X136957480Y-38349646D01*
X136841277Y-38478703D01*
X136841273Y-38478708D01*
X136837805Y-38482560D01*
X136814157Y-38523520D01*
X136748380Y-38637447D01*
X136748378Y-38637452D01*
X136745786Y-38641941D01*
X136744184Y-38646871D01*
X136744184Y-38646872D01*
X136690517Y-38812039D01*
X136690516Y-38812044D01*
X136688915Y-38816971D01*
X136669678Y-39000000D01*
X112016466Y-39000000D01*
X112005044Y-38913238D01*
X111944536Y-38767159D01*
X111848282Y-38641718D01*
X111722841Y-38545464D01*
X111576762Y-38484956D01*
X111420000Y-38464318D01*
X111263238Y-38484956D01*
X111117159Y-38545464D01*
X110991718Y-38641718D01*
X110895464Y-38767159D01*
X110834956Y-38913238D01*
X110814318Y-39070000D01*
X97820000Y-39070000D01*
X97820000Y-38300000D01*
X98744318Y-38300000D01*
X98764956Y-38456762D01*
X98825464Y-38602841D01*
X98921718Y-38728282D01*
X99047159Y-38824536D01*
X99193238Y-38885044D01*
X99350000Y-38905682D01*
X99506762Y-38885044D01*
X99652841Y-38824536D01*
X99778282Y-38728282D01*
X99874536Y-38602841D01*
X99935044Y-38456762D01*
X99952391Y-38325000D01*
X102894318Y-38325000D01*
X102914956Y-38481762D01*
X102975464Y-38627841D01*
X103071718Y-38753282D01*
X103197159Y-38849536D01*
X103343238Y-38910044D01*
X103500000Y-38930682D01*
X103656762Y-38910044D01*
X103802841Y-38849536D01*
X103928282Y-38753282D01*
X104024536Y-38627841D01*
X104085044Y-38481762D01*
X104105682Y-38325000D01*
X104085044Y-38168238D01*
X104024536Y-38022159D01*
X103928282Y-37896718D01*
X103867398Y-37850000D01*
X116869318Y-37850000D01*
X116889956Y-38006762D01*
X116950464Y-38152841D01*
X117046718Y-38278282D01*
X117172159Y-38374536D01*
X117318238Y-38435044D01*
X117475000Y-38455682D01*
X117631762Y-38435044D01*
X117777841Y-38374536D01*
X117903282Y-38278282D01*
X117999536Y-38152841D01*
X118060044Y-38006762D01*
X118080682Y-37850000D01*
X118060044Y-37693238D01*
X117999536Y-37547159D01*
X117903282Y-37421718D01*
X117777841Y-37325464D01*
X117631762Y-37264956D01*
X117475000Y-37244318D01*
X117318238Y-37264956D01*
X117172159Y-37325464D01*
X117046718Y-37421718D01*
X116950464Y-37547159D01*
X116889956Y-37693238D01*
X116869318Y-37850000D01*
X103867398Y-37850000D01*
X103802841Y-37800464D01*
X103656762Y-37739956D01*
X103500000Y-37719318D01*
X103343238Y-37739956D01*
X103197159Y-37800464D01*
X103071718Y-37896718D01*
X102975464Y-38022159D01*
X102914956Y-38168238D01*
X102894318Y-38325000D01*
X99952391Y-38325000D01*
X99955682Y-38300000D01*
X99935044Y-38143238D01*
X99874536Y-37997159D01*
X99778282Y-37871718D01*
X99652841Y-37775464D01*
X99506762Y-37714956D01*
X99350000Y-37694318D01*
X99193238Y-37714956D01*
X99047159Y-37775464D01*
X98921718Y-37871718D01*
X98825464Y-37997159D01*
X98764956Y-38143238D01*
X98744318Y-38300000D01*
X97820000Y-38300000D01*
X97820000Y-36278760D01*
X97838907Y-36220569D01*
X97888407Y-36184605D01*
X97918759Y-36179760D01*
X137015473Y-36084634D01*
X137073710Y-36103400D01*
X137109794Y-36152812D01*
X137109943Y-36213998D01*
X137073904Y-36263727D01*
X136965147Y-36342743D01*
X136965143Y-36342747D01*
X136960950Y-36345793D01*
X136957484Y-36349642D01*
X136957480Y-36349646D01*
X136841277Y-36478703D01*
X136841273Y-36478708D01*
X136837805Y-36482560D01*
X136835210Y-36487055D01*
X136748380Y-36637447D01*
X136748378Y-36637452D01*
X136745786Y-36641941D01*
X136744184Y-36646872D01*
X136690517Y-36812039D01*
X136690516Y-36812044D01*
X136688915Y-36816971D01*
X136669678Y-37000000D01*
X136688915Y-37183029D01*
X136690516Y-37187956D01*
X136690517Y-37187961D01*
X136715535Y-37264956D01*
X136745786Y-37358059D01*
X136748378Y-37362548D01*
X136748380Y-37362553D01*
X136785515Y-37426871D01*
X136837805Y-37517440D01*
X136841273Y-37521292D01*
X136841277Y-37521297D01*
X136957480Y-37650354D01*
X136957484Y-37650358D01*
X136960950Y-37654207D01*
X137109839Y-37762381D01*
X137114571Y-37764488D01*
X137114573Y-37764489D01*
X137273226Y-37835126D01*
X137273229Y-37835127D01*
X137277966Y-37837236D01*
X137283039Y-37838314D01*
X137283038Y-37838314D01*
X137421587Y-37867764D01*
X137457981Y-37875500D01*
X137642019Y-37875500D01*
X137678414Y-37867764D01*
X137816962Y-37838314D01*
X137816961Y-37838314D01*
X137822034Y-37837236D01*
X137826771Y-37835127D01*
X137826774Y-37835126D01*
X137985427Y-37764489D01*
X137985429Y-37764488D01*
X137990161Y-37762381D01*
X138139050Y-37654207D01*
X138142516Y-37650358D01*
X138142520Y-37650354D01*
X138258723Y-37521297D01*
X138258727Y-37521292D01*
X138262195Y-37517440D01*
X138314485Y-37426871D01*
X138351620Y-37362553D01*
X138351622Y-37362548D01*
X138354214Y-37358059D01*
X138384465Y-37264956D01*
X138409483Y-37187961D01*
X138409484Y-37187956D01*
X138411085Y-37183029D01*
X138430322Y-37000000D01*
X138411085Y-36816971D01*
X138409484Y-36812044D01*
X138409483Y-36812039D01*
X138355816Y-36646872D01*
X138354214Y-36641941D01*
X138351622Y-36637452D01*
X138351620Y-36637447D01*
X138264790Y-36487055D01*
X138262195Y-36482560D01*
X138258727Y-36478708D01*
X138258723Y-36478703D01*
X138142520Y-36349646D01*
X138142516Y-36349642D01*
X138139050Y-36345793D01*
X138022529Y-36261135D01*
X137986565Y-36211636D01*
X137986565Y-36150451D01*
X138022529Y-36100950D01*
X138080479Y-36082043D01*
X138409492Y-36081242D01*
X138820760Y-36080241D01*
X138878996Y-36099007D01*
G37*
%TD.AperFunction*%
%TD*%
M02*
