%TF.GenerationSoftware,KiCad,Pcbnew,(6.0.0)*%
%TF.CreationDate,2022-02-11T23:14:06+08:00*%
%TF.ProjectId,esp8266,65737038-3236-4362-9e6b-696361645f70,rev?*%
%TF.SameCoordinates,Original*%
%TF.FileFunction,Soldermask,Top*%
%TF.FilePolarity,Negative*%
%FSLAX46Y46*%
G04 Gerber Fmt 4.6, Leading zero omitted, Abs format (unit mm)*
G04 Created by KiCad (PCBNEW (6.0.0)) date 2022-02-11 23:14:06*
%MOMM*%
%LPD*%
G01*
G04 APERTURE LIST*
G04 Aperture macros list*
%AMRoundRect*
0 Rectangle with rounded corners*
0 $1 Rounding radius*
0 $2 $3 $4 $5 $6 $7 $8 $9 X,Y pos of 4 corners*
0 Add a 4 corners polygon primitive as box body*
4,1,4,$2,$3,$4,$5,$6,$7,$8,$9,$2,$3,0*
0 Add four circle primitives for the rounded corners*
1,1,$1+$1,$2,$3*
1,1,$1+$1,$4,$5*
1,1,$1+$1,$6,$7*
1,1,$1+$1,$8,$9*
0 Add four rect primitives between the rounded corners*
20,1,$1+$1,$2,$3,$4,$5,0*
20,1,$1+$1,$4,$5,$6,$7,0*
20,1,$1+$1,$6,$7,$8,$9,0*
20,1,$1+$1,$8,$9,$2,$3,0*%
G04 Aperture macros list end*
%ADD10R,1.000000X1.000000*%
%ADD11O,1.000000X1.000000*%
%ADD12O,0.700000X1.800000*%
%ADD13R,1.700000X1.700000*%
%ADD14O,1.700000X1.700000*%
%ADD15RoundRect,0.062500X-0.062500X0.375000X-0.062500X-0.375000X0.062500X-0.375000X0.062500X0.375000X0*%
%ADD16RoundRect,0.062500X-0.375000X0.062500X-0.375000X-0.062500X0.375000X-0.062500X0.375000X0.062500X0*%
%ADD17R,3.450000X3.450000*%
%ADD18RoundRect,0.135000X-0.185000X0.135000X-0.185000X-0.135000X0.185000X-0.135000X0.185000X0.135000X0*%
%ADD19RoundRect,0.147500X-0.147500X-0.172500X0.147500X-0.172500X0.147500X0.172500X-0.147500X0.172500X0*%
%ADD20RoundRect,0.147500X-0.172500X0.147500X-0.172500X-0.147500X0.172500X-0.147500X0.172500X0.147500X0*%
%ADD21RoundRect,0.140000X-0.170000X0.140000X-0.170000X-0.140000X0.170000X-0.140000X0.170000X0.140000X0*%
%ADD22RoundRect,0.140000X0.140000X0.170000X-0.140000X0.170000X-0.140000X-0.170000X0.140000X-0.170000X0*%
%ADD23RoundRect,0.135000X-0.135000X-0.185000X0.135000X-0.185000X0.135000X0.185000X-0.135000X0.185000X0*%
%ADD24R,0.497840X0.497840*%
%ADD25R,0.899160X0.497840*%
%ADD26RoundRect,0.135000X0.135000X0.185000X-0.135000X0.185000X-0.135000X-0.185000X0.135000X-0.185000X0*%
%ADD27R,1.800000X1.350000*%
%ADD28R,2.600000X1.800000*%
%ADD29RoundRect,0.140000X-0.140000X-0.170000X0.140000X-0.170000X0.140000X0.170000X-0.140000X0.170000X0*%
%ADD30RoundRect,0.140000X-0.219203X-0.021213X-0.021213X-0.219203X0.219203X0.021213X0.021213X0.219203X0*%
%ADD31RoundRect,0.140000X-0.021213X0.219203X-0.219203X0.021213X0.021213X-0.219203X0.219203X-0.021213X0*%
%ADD32RoundRect,0.135000X0.185000X-0.135000X0.185000X0.135000X-0.185000X0.135000X-0.185000X-0.135000X0*%
%ADD33R,1.150000X1.400000*%
G04 APERTURE END LIST*
D10*
%TO.C,J2*%
X129032000Y-151180000D03*
D11*
X127762000Y-151180000D03*
X126492000Y-151180000D03*
X125222000Y-151180000D03*
X123952000Y-151180000D03*
X122682000Y-151180000D03*
%TD*%
D12*
%TO.C,U2*%
X122590000Y-121230000D03*
X123860000Y-121230000D03*
X125130000Y-121230000D03*
X126400000Y-121230000D03*
X126400000Y-116030000D03*
X125130000Y-116030000D03*
X123860000Y-116030000D03*
X122590000Y-116030000D03*
%TD*%
D13*
%TO.C,J4*%
X118872000Y-115380000D03*
D14*
X118872000Y-117920000D03*
X118872000Y-120460000D03*
X118872000Y-123000000D03*
X118872000Y-125540000D03*
X118872000Y-128080000D03*
X118872000Y-130620000D03*
X118872000Y-133160000D03*
X118872000Y-135700000D03*
X118872000Y-138240000D03*
X118872000Y-140780000D03*
X118872000Y-143320000D03*
X118872000Y-145860000D03*
X118872000Y-148400000D03*
X118872000Y-150940000D03*
%TD*%
D13*
%TO.C,J1*%
X135290666Y-150930000D03*
D14*
X132750666Y-150930000D03*
%TD*%
D13*
%TO.C,J3*%
X139700000Y-115380000D03*
D14*
X139700000Y-117920000D03*
X139700000Y-120460000D03*
X139700000Y-123000000D03*
X139700000Y-125540000D03*
X139700000Y-128080000D03*
X139700000Y-130620000D03*
X139700000Y-133160000D03*
X139700000Y-135700000D03*
X139700000Y-138240000D03*
X139700000Y-140780000D03*
X139700000Y-143320000D03*
X139700000Y-145860000D03*
X139700000Y-148400000D03*
X139700000Y-150940000D03*
%TD*%
D15*
%TO.C,U1*%
X132120000Y-116452500D03*
X131620000Y-116452500D03*
X131120000Y-116452500D03*
X130620000Y-116452500D03*
X130120000Y-116452500D03*
X129620000Y-116452500D03*
X129120000Y-116452500D03*
X128620000Y-116452500D03*
D16*
X127932500Y-117140000D03*
X127932500Y-117640000D03*
X127932500Y-118140000D03*
X127932500Y-118640000D03*
X127932500Y-119140000D03*
X127932500Y-119640000D03*
X127932500Y-120140000D03*
X127932500Y-120640000D03*
D15*
X128620000Y-121327500D03*
X129120000Y-121327500D03*
X129620000Y-121327500D03*
X130120000Y-121327500D03*
X130620000Y-121327500D03*
X131120000Y-121327500D03*
X131620000Y-121327500D03*
X132120000Y-121327500D03*
D16*
X132807500Y-120640000D03*
X132807500Y-120140000D03*
X132807500Y-119640000D03*
X132807500Y-119140000D03*
X132807500Y-118640000D03*
X132807500Y-118140000D03*
X132807500Y-117640000D03*
X132807500Y-117140000D03*
D17*
X130370000Y-118890000D03*
%TD*%
D18*
%TO.C,R9*%
X135211499Y-125377793D03*
X135211499Y-126397793D03*
%TD*%
D19*
%TO.C,L1*%
X131615000Y-115250000D03*
X132585000Y-115250000D03*
%TD*%
D18*
%TO.C,R8*%
X129850000Y-125390000D03*
X129850000Y-126410000D03*
%TD*%
D20*
%TO.C,D2*%
X133025109Y-125422793D03*
X133025109Y-126392793D03*
%TD*%
D18*
%TO.C,R5*%
X134096719Y-125397793D03*
X134096719Y-126417793D03*
%TD*%
D21*
%TO.C,C2*%
X129744006Y-113800000D03*
X129744006Y-114760000D03*
%TD*%
D22*
%TO.C,C7*%
X137030000Y-115635000D03*
X136070000Y-115635000D03*
%TD*%
D23*
%TO.C,R11*%
X136020000Y-116640000D03*
X137040000Y-116640000D03*
%TD*%
D24*
%TO.C,E1*%
X128740000Y-111228920D03*
D25*
X126641960Y-111228920D03*
%TD*%
D26*
%TO.C,R14*%
X125224000Y-122750000D03*
X124204000Y-122750000D03*
%TD*%
D27*
%TO.C,SW2*%
X125029000Y-130259000D03*
X125029000Y-134409000D03*
%TD*%
D26*
%TO.C,R13*%
X123800000Y-114400000D03*
X122780000Y-114400000D03*
%TD*%
D22*
%TO.C,C3*%
X134980000Y-117670000D03*
X134020000Y-117670000D03*
%TD*%
D26*
%TO.C,R3*%
X134010000Y-116665000D03*
X135030000Y-116665000D03*
%TD*%
D28*
%TO.C,C1*%
X129794000Y-131496500D03*
X129794000Y-134496500D03*
%TD*%
D22*
%TO.C,C9*%
X137030000Y-117645000D03*
X136070000Y-117645000D03*
%TD*%
D20*
%TO.C,D3*%
X131953499Y-125422793D03*
X131953499Y-126392793D03*
%TD*%
D29*
%TO.C,C8*%
X135050000Y-123000000D03*
X136010000Y-123000000D03*
%TD*%
D20*
%TO.C,D1*%
X128693223Y-125415000D03*
X128693223Y-126385000D03*
%TD*%
D18*
%TO.C,R4*%
X124066115Y-125390000D03*
X124066115Y-126410000D03*
%TD*%
%TO.C,R15*%
X127624006Y-114810000D03*
X127624006Y-113790000D03*
%TD*%
D30*
%TO.C,C5*%
X130750589Y-113190589D03*
X131429411Y-113869411D03*
%TD*%
D27*
%TO.C,SW1*%
X134559000Y-130259000D03*
X134559000Y-134409000D03*
%TD*%
D22*
%TO.C,C4*%
X134980000Y-115660000D03*
X134020000Y-115660000D03*
%TD*%
D18*
%TO.C,R10*%
X126379669Y-125390000D03*
X126379669Y-126410000D03*
%TD*%
D31*
%TO.C,C6*%
X130749411Y-111860589D03*
X130070589Y-112539411D03*
%TD*%
D18*
%TO.C,R12*%
X122909338Y-125390000D03*
X122909338Y-126410000D03*
%TD*%
%TO.C,R2*%
X127536446Y-125390000D03*
X127536446Y-126410000D03*
%TD*%
%TO.C,R6*%
X130923499Y-125397793D03*
X130923499Y-126417793D03*
%TD*%
%TO.C,R1*%
X125222892Y-125390000D03*
X125222892Y-126410000D03*
%TD*%
D32*
%TO.C,R7*%
X128689006Y-114810000D03*
X128689006Y-113790000D03*
%TD*%
D33*
%TO.C,Y1*%
X134730000Y-119220000D03*
X134730000Y-121420000D03*
X136330000Y-121420000D03*
X136330000Y-119220000D03*
%TD*%
M02*
