M48
; DRILL file {KiCad (6.0.0)} date Fri Feb 11 23:14:14 2022
; FORMAT={-:-/ absolute / metric / decimal}
; #@! TF.CreationDate,2022-02-11T23:14:14+08:00
; #@! TF.GenerationSoftware,Kicad,Pcbnew,(6.0.0)
; #@! TF.FileFunction,Plated,1,4,PTH
FMAT,2
METRIC
; #@! TA.AperFunction,Plated,PTH,ViaDrill
T1C0.200
; #@! TA.AperFunction,Plated,PTH,ViaDrill
T2C0.400
; #@! TA.AperFunction,Plated,PTH,ComponentDrill
T3C0.650
; #@! TA.AperFunction,Plated,PTH,ComponentDrill
T4C1.000
%
G90
G05
T1
X117.602Y-111.76
X117.602Y-112.36
X117.602Y-112.96
X118.202Y-111.76
X118.202Y-112.36
X118.202Y-112.96
X118.802Y-111.76
X118.802Y-112.36
X118.802Y-112.96
X119.402Y-111.76
X119.402Y-112.36
X119.402Y-112.96
X120.002Y-111.76
X120.002Y-112.36
X120.002Y-112.96
X120.602Y-111.76
X120.602Y-112.36
X120.602Y-112.96
X120.65Y-118.872
X120.904Y-119.888
X121.202Y-111.76
X121.202Y-112.36
X121.202Y-112.96
X121.802Y-111.76
X121.802Y-112.36
X121.802Y-112.96
X122.402Y-111.76
X122.402Y-112.36
X122.402Y-112.96
X123.002Y-111.76
X123.002Y-112.36
X123.002Y-112.96
X123.602Y-111.76
X123.602Y-112.36
X123.602Y-112.96
X123.698Y-124.714
X124.202Y-111.76
X124.202Y-112.36
X124.202Y-112.96
X124.206Y-119.634
X124.802Y-111.76
X124.802Y-112.36
X124.802Y-112.96
X125.222Y-124.714
X125.25Y-119.73
X125.378Y-112.357
X125.407Y-112.966
X125.87Y-119.72
X125.95Y-112.394
X126.031Y-112.937
X126.47Y-119.72
X126.641Y-112.959
X127.186Y-116.766
X127.19Y-117.39
X127.508Y-121.158
X127.93Y-116.44
X128.72Y-124.36
X129.19Y-117.72
X129.19Y-118.32
X129.19Y-118.92
X129.19Y-119.52
X129.19Y-120.12
X129.286Y-122.936
X129.621Y-122.236
X129.79Y-117.72
X129.79Y-118.32
X129.79Y-118.92
X129.79Y-119.52
X129.79Y-120.12
X129.794Y-115.57
X130.131Y-123.19
X130.39Y-117.72
X130.39Y-118.32
X130.39Y-118.92
X130.39Y-119.52
X130.39Y-120.12
X130.629Y-123.927
X130.99Y-117.72
X130.99Y-118.32
X130.99Y-118.92
X130.99Y-119.52
X130.99Y-120.12
X131.093Y-123.494
X131.59Y-117.72
X131.59Y-118.32
X131.59Y-118.92
X131.59Y-119.52
X131.59Y-120.12
X131.631Y-123.264
X131.826Y-111.76
X131.826Y-112.36
X131.826Y-112.96
X132.261Y-127.45
X132.426Y-111.76
X132.426Y-112.36
X132.426Y-112.96
X132.842Y-127.425
X133.026Y-111.76
X133.026Y-112.36
X133.026Y-112.96
X133.3Y-116.7
X133.626Y-111.76
X133.626Y-112.36
X133.626Y-112.96
X133.799Y-120.549
X133.814Y-121.103
X133.829Y-121.653
X133.858Y-119.634
X133.873Y-118.917
X133.903Y-122.193
X134.012Y-122.718
X134.226Y-111.76
X134.226Y-112.36
X134.226Y-112.96
X134.319Y-118.263
X134.334Y-123.104
X134.826Y-111.76
X134.826Y-112.36
X134.826Y-112.96
X134.854Y-118.249
X135.426Y-111.76
X135.426Y-112.36
X135.426Y-112.96
X135.695Y-116.156
X135.894Y-118.253
X136.026Y-111.76
X136.026Y-112.36
X136.026Y-112.96
X136.369Y-118.268
X136.626Y-111.76
X136.626Y-112.36
X136.626Y-112.96
X136.652Y-130.556
X136.77Y-123.165
X136.874Y-118.263
X137.101Y-122.831
X137.226Y-111.76
X137.226Y-112.36
X137.226Y-112.96
X137.413Y-118.282
X137.414Y-118.872
X137.414Y-119.38
X137.414Y-119.888
X137.414Y-120.396
X137.414Y-120.904
X137.414Y-121.412
X137.414Y-121.92
X137.414Y-122.428
X137.826Y-111.76
X137.826Y-112.36
X137.826Y-112.96
X137.922Y-117.856
X138.426Y-111.76
X138.426Y-112.36
X138.426Y-112.96
X138.43Y-113.538
X139.026Y-111.76
X139.026Y-112.36
X139.026Y-112.96
X139.626Y-111.76
X139.626Y-112.36
X139.626Y-112.96
X140.226Y-111.76
X140.226Y-112.36
X140.226Y-112.96
X140.826Y-111.76
X140.826Y-112.36
X140.826Y-112.96
T2
X121.7Y-114.3
X124.194Y-123.64
X124.65Y-127.36
X125.476Y-111.506
X126.647Y-112.06
X127.02Y-118.14
X127.54Y-124.45
X127.762Y-111.506
X128.024Y-112.8
X128.524Y-122.22
X128.524Y-129.794
X129.794Y-124.46
X129.794Y-129.032
X130.81Y-129.794
X130.82Y-115.611
X132.73Y-116.17
X133.57Y-118.31
X134.0Y-114.7
X134.112Y-124.46
X137.9Y-116.6
T3
X122.682Y-151.18
X123.952Y-151.18
X125.222Y-151.18
X126.492Y-151.18
X127.762Y-151.18
X129.032Y-151.18
T4
X118.872Y-115.38
X118.872Y-117.92
X118.872Y-120.46
X118.872Y-123.0
X118.872Y-125.54
X118.872Y-128.08
X118.872Y-130.62
X118.872Y-133.16
X118.872Y-135.7
X118.872Y-138.24
X118.872Y-140.78
X118.872Y-143.32
X118.872Y-145.86
X118.872Y-148.4
X118.872Y-150.94
X132.751Y-150.93
X135.291Y-150.93
X139.7Y-115.38
X139.7Y-117.92
X139.7Y-120.46
X139.7Y-123.0
X139.7Y-125.54
X139.7Y-128.08
X139.7Y-130.62
X139.7Y-133.16
X139.7Y-135.7
X139.7Y-138.24
X139.7Y-140.78
X139.7Y-143.32
X139.7Y-145.86
X139.7Y-148.4
X139.7Y-150.94
T0
M30
