%TF.GenerationSoftware,KiCad,Pcbnew,(6.0.0)*%
%TF.CreationDate,2022-02-11T23:14:06+08:00*%
%TF.ProjectId,esp8266,65737038-3236-4362-9e6b-696361645f70,rev?*%
%TF.SameCoordinates,Original*%
%TF.FileFunction,Copper,L1,Top*%
%TF.FilePolarity,Positive*%
%FSLAX46Y46*%
G04 Gerber Fmt 4.6, Leading zero omitted, Abs format (unit mm)*
G04 Created by KiCad (PCBNEW (6.0.0)) date 2022-02-11 23:14:06*
%MOMM*%
%LPD*%
G01*
G04 APERTURE LIST*
G04 Aperture macros list*
%AMRoundRect*
0 Rectangle with rounded corners*
0 $1 Rounding radius*
0 $2 $3 $4 $5 $6 $7 $8 $9 X,Y pos of 4 corners*
0 Add a 4 corners polygon primitive as box body*
4,1,4,$2,$3,$4,$5,$6,$7,$8,$9,$2,$3,0*
0 Add four circle primitives for the rounded corners*
1,1,$1+$1,$2,$3*
1,1,$1+$1,$4,$5*
1,1,$1+$1,$6,$7*
1,1,$1+$1,$8,$9*
0 Add four rect primitives between the rounded corners*
20,1,$1+$1,$2,$3,$4,$5,0*
20,1,$1+$1,$4,$5,$6,$7,0*
20,1,$1+$1,$6,$7,$8,$9,0*
20,1,$1+$1,$8,$9,$2,$3,0*%
G04 Aperture macros list end*
%TA.AperFunction,NonConductor*%
%ADD10C,0.020000*%
%TD*%
%TA.AperFunction,EtchedComponent*%
%ADD11C,0.002540*%
%TD*%
%TA.AperFunction,EtchedComponent*%
%ADD12C,0.200000*%
%TD*%
%TA.AperFunction,ComponentPad*%
%ADD13R,1.000000X1.000000*%
%TD*%
%TA.AperFunction,ComponentPad*%
%ADD14O,1.000000X1.000000*%
%TD*%
%TA.AperFunction,SMDPad,CuDef*%
%ADD15O,0.700000X1.800000*%
%TD*%
%TA.AperFunction,ComponentPad*%
%ADD16R,1.700000X1.700000*%
%TD*%
%TA.AperFunction,ComponentPad*%
%ADD17O,1.700000X1.700000*%
%TD*%
%TA.AperFunction,SMDPad,CuDef*%
%ADD18RoundRect,0.062500X-0.062500X0.375000X-0.062500X-0.375000X0.062500X-0.375000X0.062500X0.375000X0*%
%TD*%
%TA.AperFunction,SMDPad,CuDef*%
%ADD19RoundRect,0.062500X-0.375000X0.062500X-0.375000X-0.062500X0.375000X-0.062500X0.375000X0.062500X0*%
%TD*%
%TA.AperFunction,SMDPad,CuDef*%
%ADD20R,3.450000X3.450000*%
%TD*%
%TA.AperFunction,SMDPad,CuDef*%
%ADD21RoundRect,0.135000X-0.185000X0.135000X-0.185000X-0.135000X0.185000X-0.135000X0.185000X0.135000X0*%
%TD*%
%TA.AperFunction,SMDPad,CuDef*%
%ADD22RoundRect,0.147500X-0.147500X-0.172500X0.147500X-0.172500X0.147500X0.172500X-0.147500X0.172500X0*%
%TD*%
%TA.AperFunction,SMDPad,CuDef*%
%ADD23RoundRect,0.147500X-0.172500X0.147500X-0.172500X-0.147500X0.172500X-0.147500X0.172500X0.147500X0*%
%TD*%
%TA.AperFunction,SMDPad,CuDef*%
%ADD24RoundRect,0.140000X-0.170000X0.140000X-0.170000X-0.140000X0.170000X-0.140000X0.170000X0.140000X0*%
%TD*%
%TA.AperFunction,SMDPad,CuDef*%
%ADD25RoundRect,0.140000X0.140000X0.170000X-0.140000X0.170000X-0.140000X-0.170000X0.140000X-0.170000X0*%
%TD*%
%TA.AperFunction,SMDPad,CuDef*%
%ADD26RoundRect,0.135000X-0.135000X-0.185000X0.135000X-0.185000X0.135000X0.185000X-0.135000X0.185000X0*%
%TD*%
%TA.AperFunction,SMDPad,CuDef*%
%ADD27R,0.497840X0.497840*%
%TD*%
%TA.AperFunction,SMDPad,CuDef*%
%ADD28R,0.899160X0.497840*%
%TD*%
%TA.AperFunction,SMDPad,CuDef*%
%ADD29RoundRect,0.135000X0.135000X0.185000X-0.135000X0.185000X-0.135000X-0.185000X0.135000X-0.185000X0*%
%TD*%
%TA.AperFunction,BGAPad,CuDef*%
%ADD30R,1.800000X1.350000*%
%TD*%
%TA.AperFunction,SMDPad,CuDef*%
%ADD31R,2.600000X1.800000*%
%TD*%
%TA.AperFunction,SMDPad,CuDef*%
%ADD32RoundRect,0.140000X-0.140000X-0.170000X0.140000X-0.170000X0.140000X0.170000X-0.140000X0.170000X0*%
%TD*%
%TA.AperFunction,SMDPad,CuDef*%
%ADD33RoundRect,0.140000X-0.219203X-0.021213X-0.021213X-0.219203X0.219203X0.021213X0.021213X0.219203X0*%
%TD*%
%TA.AperFunction,SMDPad,CuDef*%
%ADD34RoundRect,0.140000X-0.021213X0.219203X-0.219203X0.021213X0.021213X-0.219203X0.219203X-0.021213X0*%
%TD*%
%TA.AperFunction,SMDPad,CuDef*%
%ADD35RoundRect,0.135000X0.185000X-0.135000X0.185000X0.135000X-0.185000X0.135000X-0.185000X-0.135000X0*%
%TD*%
%TA.AperFunction,SMDPad,CuDef*%
%ADD36R,1.150000X1.400000*%
%TD*%
%TA.AperFunction,ViaPad*%
%ADD37C,0.400000*%
%TD*%
%TA.AperFunction,ViaPad*%
%ADD38C,0.800000*%
%TD*%
%TA.AperFunction,Conductor*%
%ADD39C,0.400000*%
%TD*%
%TA.AperFunction,Conductor*%
%ADD40C,0.100000*%
%TD*%
%TA.AperFunction,Conductor*%
%ADD41C,0.200000*%
%TD*%
%TA.AperFunction,Conductor*%
%ADD42C,0.250000*%
%TD*%
G04 APERTURE END LIST*
D10*
X130880551Y-115398616D02*
X130953931Y-115460254D01*
X130953931Y-115460254D02*
X131003829Y-115532166D01*
X131003829Y-115532166D02*
X131209290Y-116063431D01*
X131209290Y-116063431D02*
X131209290Y-116841251D01*
X131209290Y-116841251D02*
X130556000Y-116840000D01*
X130556000Y-116840000D02*
X130563553Y-116064899D01*
X130563553Y-116064899D02*
X130606113Y-115712679D01*
X130606113Y-115712679D02*
X130598775Y-115639299D01*
X130598775Y-115639299D02*
X130606113Y-115545374D01*
X130606113Y-115545374D02*
X130647205Y-115455851D01*
X130647205Y-115455851D02*
X130752872Y-115394213D01*
X130752872Y-115394213D02*
X130880551Y-115398616D01*
G36*
X130880551Y-115398616D02*
G01*
X130953931Y-115460254D01*
X131003829Y-115532166D01*
X131209290Y-116063431D01*
X131209290Y-116841251D01*
X130556000Y-116840000D01*
X130563553Y-116064899D01*
X130606113Y-115712679D01*
X130598775Y-115639299D01*
X130606113Y-115545374D01*
X130647205Y-115455851D01*
X130752872Y-115394213D01*
X130880551Y-115398616D01*
G37*
X130880551Y-115398616D02*
X130953931Y-115460254D01*
X131003829Y-115532166D01*
X131209290Y-116063431D01*
X131209290Y-116841251D01*
X130556000Y-116840000D01*
X130563553Y-116064899D01*
X130606113Y-115712679D01*
X130598775Y-115639299D01*
X130606113Y-115545374D01*
X130647205Y-115455851D01*
X130752872Y-115394213D01*
X130880551Y-115398616D01*
X133670000Y-118160000D02*
X133770000Y-118260000D01*
X133770000Y-118260000D02*
X133721731Y-118468706D01*
X133721731Y-118468706D02*
X132442209Y-118722969D01*
X132442209Y-118722969D02*
X132430694Y-118103748D01*
X132430694Y-118103748D02*
X133570000Y-118110000D01*
X133570000Y-118110000D02*
X133670000Y-118160000D01*
G36*
X133570000Y-118110000D02*
G01*
X133670000Y-118160000D01*
X133770000Y-118260000D01*
X133721731Y-118468706D01*
X132442209Y-118722969D01*
X132430694Y-118103748D01*
X133570000Y-118110000D01*
G37*
X133570000Y-118110000D02*
X133670000Y-118160000D01*
X133770000Y-118260000D01*
X133721731Y-118468706D01*
X132442209Y-118722969D01*
X132430694Y-118103748D01*
X133570000Y-118110000D01*
D11*
%TO.C,E1*%
X131188560Y-108721940D02*
X133187540Y-108721940D01*
X135887560Y-106080340D02*
X135887560Y-108721940D01*
X130688180Y-109222320D02*
X130688180Y-106580720D01*
X135887560Y-108721940D02*
X137889080Y-108721940D01*
X138389460Y-109222320D02*
X135389720Y-109222320D01*
X126192380Y-106080340D02*
X131188560Y-106080340D01*
X128491080Y-106580720D02*
X127091540Y-106580720D01*
X130688180Y-106580720D02*
X128988920Y-106580720D01*
X137889080Y-108721940D02*
X137889080Y-106080340D01*
X140088720Y-110520260D02*
X140088720Y-106580720D01*
X133187540Y-108721940D02*
X133187540Y-106080340D01*
X138389460Y-106580720D02*
X138389460Y-109222320D01*
X131188560Y-106080340D02*
X131188560Y-108721940D01*
X140088720Y-106580720D02*
X138389460Y-106580720D01*
X135389720Y-109222320D02*
X135389720Y-106580720D01*
X140589100Y-106080340D02*
X140589100Y-110520260D01*
X135389720Y-106580720D02*
X133687920Y-106580720D01*
X133187540Y-106080340D02*
X135887560Y-106080340D01*
X133687920Y-106580720D02*
X133687920Y-109222320D01*
X140589100Y-110520260D02*
X140088720Y-110520260D01*
X133687920Y-109222320D02*
X130688180Y-109222320D01*
X137889080Y-106080340D02*
X140589100Y-106080340D01*
D12*
X131198051Y-108725912D02*
X133197031Y-108725912D01*
X133197031Y-108725912D02*
X133197031Y-106084312D01*
X133197031Y-106084312D02*
X135897051Y-106084312D01*
X135897051Y-106084312D02*
X135897051Y-108725912D01*
X135897051Y-108725912D02*
X137898571Y-108725912D01*
X137898571Y-108725912D02*
X137898571Y-106084312D01*
X137898571Y-106084312D02*
X140598591Y-106084312D01*
X140598591Y-106084312D02*
X140598591Y-110524232D01*
X140598591Y-110524232D02*
X140098211Y-110524232D01*
X140098211Y-110524232D02*
X140098211Y-106584692D01*
X140098211Y-106584692D02*
X138398951Y-106584692D01*
X138398951Y-106584692D02*
X138398951Y-109226292D01*
X138398951Y-109226292D02*
X135399211Y-109226292D01*
X135399211Y-109226292D02*
X135399211Y-106584692D01*
X135399211Y-106584692D02*
X133697411Y-106584692D01*
X133697411Y-106584692D02*
X133697411Y-109226292D01*
X133697411Y-109226292D02*
X130697671Y-109226292D01*
X130697671Y-109226292D02*
X130697671Y-106583972D01*
X130697671Y-106583972D02*
X128998411Y-106584692D01*
X128998411Y-106584692D02*
X128998411Y-111481812D01*
X128998411Y-111481812D02*
X128500571Y-111481812D01*
X128500571Y-111481812D02*
X128500571Y-106584692D01*
X128500571Y-106584692D02*
X127101031Y-106584692D01*
X127101031Y-106584692D02*
X127101031Y-111481812D01*
X127101031Y-111481812D02*
X126201871Y-111481812D01*
X126201871Y-111481812D02*
X126201871Y-106084312D01*
X126201871Y-106084312D02*
X131198051Y-106084312D01*
X131198051Y-106084312D02*
X131198051Y-108725912D01*
G36*
X131198051Y-108725912D02*
G01*
X133197031Y-108725912D01*
X133197031Y-106084312D01*
X135897051Y-106084312D01*
X135897051Y-108725912D01*
X137898571Y-108725912D01*
X137898571Y-106084312D01*
X140598591Y-106084312D01*
X140598591Y-110524232D01*
X140098211Y-110524232D01*
X140098211Y-106584692D01*
X138398951Y-106584692D01*
X138398951Y-109226292D01*
X135399211Y-109226292D01*
X135399211Y-106584692D01*
X133697411Y-106584692D01*
X133697411Y-109226292D01*
X130697671Y-109226292D01*
X130697671Y-106583972D01*
X128998411Y-106584692D01*
X128998411Y-111481812D01*
X128500571Y-111481812D01*
X128500571Y-106584692D01*
X127101031Y-106584692D01*
X127101031Y-111481812D01*
X126201871Y-111481812D01*
X126201871Y-106084312D01*
X131198051Y-106084312D01*
X131198051Y-108725912D01*
G37*
X131198051Y-108725912D02*
X133197031Y-108725912D01*
X133197031Y-106084312D01*
X135897051Y-106084312D01*
X135897051Y-108725912D01*
X137898571Y-108725912D01*
X137898571Y-106084312D01*
X140598591Y-106084312D01*
X140598591Y-110524232D01*
X140098211Y-110524232D01*
X140098211Y-106584692D01*
X138398951Y-106584692D01*
X138398951Y-109226292D01*
X135399211Y-109226292D01*
X135399211Y-106584692D01*
X133697411Y-106584692D01*
X133697411Y-109226292D01*
X130697671Y-109226292D01*
X130697671Y-106583972D01*
X128998411Y-106584692D01*
X128998411Y-111481812D01*
X128500571Y-111481812D01*
X128500571Y-106584692D01*
X127101031Y-106584692D01*
X127101031Y-111481812D01*
X126201871Y-111481812D01*
X126201871Y-106084312D01*
X131198051Y-106084312D01*
X131198051Y-108725912D01*
%TD*%
D13*
%TO.P,J2,1,Pin_1*%
%TO.N,+3V3*%
X129032000Y-151180000D03*
D14*
%TO.P,J2,2,Pin_2*%
%TO.N,GND*%
X127762000Y-151180000D03*
%TO.P,J2,3,Pin_3*%
%TO.N,/RST*%
X126492000Y-151180000D03*
%TO.P,J2,4,Pin_4*%
%TO.N,/GPIO0*%
X125222000Y-151180000D03*
%TO.P,J2,5,Pin_5*%
%TO.N,/TXD*%
X123952000Y-151180000D03*
%TO.P,J2,6,Pin_6*%
%TO.N,/RXD*%
X122682000Y-151180000D03*
%TD*%
D15*
%TO.P,U2,1,CS*%
%TO.N,/MTDO*%
X122590000Y-121230000D03*
%TO.P,U2,2,SO*%
%TO.N,/MTDI*%
X123860000Y-121230000D03*
%TO.P,U2,3,WP*%
%TO.N,Net-(R14-Pad1)*%
X125130000Y-121230000D03*
%TO.P,U2,4,GND*%
%TO.N,GND*%
X126400000Y-121230000D03*
%TO.P,U2,5,SI*%
%TO.N,/MTCK*%
X126400000Y-116030000D03*
%TO.P,U2,6,CLK*%
%TO.N,Net-(R15-Pad1)*%
X125130000Y-116030000D03*
%TO.P,U2,7,HOLD*%
%TO.N,Net-(R13-Pad1)*%
X123860000Y-116030000D03*
%TO.P,U2,8,VCC*%
%TO.N,+3V3*%
X122590000Y-116030000D03*
%TD*%
D16*
%TO.P,J4,1,Pin_1*%
%TO.N,/GPIO16*%
X118872000Y-115380000D03*
D17*
%TO.P,J4,2,Pin_2*%
%TO.N,unconnected-(J4-Pad2)*%
X118872000Y-117920000D03*
%TO.P,J4,3,Pin_3*%
%TO.N,/GPIO4*%
X118872000Y-120460000D03*
%TO.P,J4,4,Pin_4*%
%TO.N,/GPIO0*%
X118872000Y-123000000D03*
%TO.P,J4,5,Pin_5*%
%TO.N,/GPIO2*%
X118872000Y-125540000D03*
%TO.P,J4,6,Pin_6*%
%TO.N,GND*%
X118872000Y-128080000D03*
%TO.P,J4,7,Pin_7*%
%TO.N,+3V3*%
X118872000Y-130620000D03*
%TO.P,J4,8,Pin_8*%
%TO.N,/MTMS*%
X118872000Y-133160000D03*
%TO.P,J4,9,Pin_9*%
%TO.N,/MTDI*%
X118872000Y-135700000D03*
%TO.P,J4,10,Pin_10*%
%TO.N,/MTCK*%
X118872000Y-138240000D03*
%TO.P,J4,11,Pin_11*%
%TO.N,/MTDO*%
X118872000Y-140780000D03*
%TO.P,J4,12,Pin_12*%
%TO.N,/RXD*%
X118872000Y-143320000D03*
%TO.P,J4,13,Pin_13*%
%TO.N,/TXD*%
X118872000Y-145860000D03*
%TO.P,J4,14,Pin_14*%
%TO.N,GND*%
X118872000Y-148400000D03*
%TO.P,J4,15,Pin_15*%
%TO.N,+3V3*%
X118872000Y-150940000D03*
%TD*%
D16*
%TO.P,J1,1,Pin_1*%
%TO.N,+3V3*%
X135290666Y-150930000D03*
D17*
%TO.P,J1,2,Pin_2*%
%TO.N,GND*%
X132750666Y-150930000D03*
%TD*%
D16*
%TO.P,J3,1,Pin_1*%
%TO.N,/ADC_IN*%
X139700000Y-115380000D03*
D17*
%TO.P,J3,2,Pin_2*%
%TO.N,unconnected-(J3-Pad2)*%
X139700000Y-117920000D03*
%TO.P,J3,3,Pin_3*%
%TO.N,unconnected-(J3-Pad3)*%
X139700000Y-120460000D03*
%TO.P,J3,4,Pin_4*%
%TO.N,/SD3{slash}CS*%
X139700000Y-123000000D03*
%TO.P,J3,5,Pin_5*%
%TO.N,/SD2{slash}GPIO9*%
X139700000Y-125540000D03*
%TO.P,J3,6,Pin_6*%
%TO.N,/SD1{slash}INT*%
X139700000Y-128080000D03*
%TO.P,J3,7,Pin_7*%
%TO.N,/CMD{slash}MOSI*%
X139700000Y-130620000D03*
%TO.P,J3,8,Pin_8*%
%TO.N,/SD0{slash}MISO*%
X139700000Y-133160000D03*
%TO.P,J3,9,Pin_9*%
%TO.N,/SCLK*%
X139700000Y-135700000D03*
%TO.P,J3,10,Pin_10*%
%TO.N,GND*%
X139700000Y-138240000D03*
%TO.P,J3,11,Pin_11*%
%TO.N,+3V3*%
X139700000Y-140780000D03*
%TO.P,J3,12,Pin_12*%
%TO.N,unconnected-(J3-Pad12)*%
X139700000Y-143320000D03*
%TO.P,J3,13,Pin_13*%
%TO.N,/RST*%
X139700000Y-145860000D03*
%TO.P,J3,14,Pin_14*%
%TO.N,GND*%
X139700000Y-148400000D03*
%TO.P,J3,15,Pin_15*%
%TO.N,+3V3*%
X139700000Y-150940000D03*
%TD*%
D18*
%TO.P,U1,1,VDDA*%
%TO.N,+3V3*%
X132120000Y-116452500D03*
%TO.P,U1,2,LNA*%
%TO.N,Net-(C5-Pad2)*%
X131620000Y-116452500D03*
%TO.P,U1,3,VDD3P3*%
%TO.N,+3V3*%
X131120000Y-116452500D03*
%TO.P,U1,4,VDD3P3*%
X130620000Y-116452500D03*
%TO.P,U1,5,VDD_RTC*%
%TO.N,unconnected-(U1-Pad5)*%
X130120000Y-116452500D03*
%TO.P,U1,6,TOUT*%
%TO.N,/ADC_IN*%
X129620000Y-116452500D03*
%TO.P,U1,7,CHIP_PU*%
%TO.N,/CHIP_PU*%
X129120000Y-116452500D03*
%TO.P,U1,8,XPD_DCDC*%
%TO.N,/GPIO16*%
X128620000Y-116452500D03*
D19*
%TO.P,U1,9,MTMS*%
%TO.N,/MTMS*%
X127932500Y-117140000D03*
%TO.P,U1,10,MTDI*%
%TO.N,/MTDI*%
X127932500Y-117640000D03*
%TO.P,U1,11,VDDPST*%
%TO.N,+3V3*%
X127932500Y-118140000D03*
%TO.P,U1,12,MTCK*%
%TO.N,/MTCK*%
X127932500Y-118640000D03*
%TO.P,U1,13,MTDO*%
%TO.N,/MTDO*%
X127932500Y-119140000D03*
%TO.P,U1,14,GPIO2*%
%TO.N,/GPIO2*%
X127932500Y-119640000D03*
%TO.P,U1,15,GPIO0*%
%TO.N,/GPIO0*%
X127932500Y-120140000D03*
%TO.P,U1,16,GPIO4*%
%TO.N,/GPIO4*%
X127932500Y-120640000D03*
D18*
%TO.P,U1,17,VDDPST*%
%TO.N,+3V3*%
X128620000Y-121327500D03*
%TO.P,U1,18,SDIO_DATA_2*%
%TO.N,/SD2{slash}GPIO9*%
X129120000Y-121327500D03*
%TO.P,U1,19,SDIO_DATA_3*%
%TO.N,/SD3{slash}CS*%
X129620000Y-121327500D03*
%TO.P,U1,20,SDIO_CMD*%
%TO.N,/CMD{slash}MOSI*%
X130120000Y-121327500D03*
%TO.P,U1,21,SDIO_CLK*%
%TO.N,/SCLK*%
X130620000Y-121327500D03*
%TO.P,U1,22,SDIO_DATA_0*%
%TO.N,/SD0{slash}MISO*%
X131120000Y-121327500D03*
%TO.P,U1,23,SDIO_DATA_1*%
%TO.N,/SD1{slash}INT*%
X131620000Y-121327500D03*
%TO.P,U1,24,GPIO5*%
%TO.N,/GPIO5*%
X132120000Y-121327500D03*
D19*
%TO.P,U1,25,U0RXD*%
%TO.N,/RXD*%
X132807500Y-120640000D03*
%TO.P,U1,26,U0TXD*%
%TO.N,/TXD*%
X132807500Y-120140000D03*
%TO.P,U1,27,XTAL_OUT*%
%TO.N,Net-(C8-Pad2)*%
X132807500Y-119640000D03*
%TO.P,U1,28,XTAL_IN*%
%TO.N,Net-(C9-Pad2)*%
X132807500Y-119140000D03*
%TO.P,U1,29,VDDD*%
%TO.N,+3V3*%
X132807500Y-118640000D03*
%TO.P,U1,30,VDDA*%
X132807500Y-118140000D03*
%TO.P,U1,31,RES12K*%
%TO.N,Net-(R3-Pad2)*%
X132807500Y-117640000D03*
%TO.P,U1,32,~{EXT_RSTB}*%
%TO.N,/RST*%
X132807500Y-117140000D03*
D20*
%TO.P,U1,33,GND*%
%TO.N,GND*%
X130370000Y-118890000D03*
%TD*%
D21*
%TO.P,R9,1*%
%TO.N,/RST*%
X135211499Y-125377793D03*
%TO.P,R9,2*%
%TO.N,Net-(R8-Pad2)*%
X135211499Y-126397793D03*
%TD*%
D22*
%TO.P,L1,1,1*%
%TO.N,Net-(C5-Pad2)*%
X131615000Y-115250000D03*
%TO.P,L1,2,2*%
%TO.N,GND*%
X132585000Y-115250000D03*
%TD*%
D21*
%TO.P,R8,1*%
%TO.N,/GPIO16*%
X129850000Y-125390000D03*
%TO.P,R8,2*%
%TO.N,Net-(R8-Pad2)*%
X129850000Y-126410000D03*
%TD*%
D23*
%TO.P,D2,1,K*%
%TO.N,/TXD*%
X133025109Y-125422793D03*
%TO.P,D2,2,A*%
%TO.N,Net-(D2-Pad2)*%
X133025109Y-126392793D03*
%TD*%
D21*
%TO.P,R5,1*%
%TO.N,+3V3*%
X134096719Y-125397793D03*
%TO.P,R5,2*%
%TO.N,Net-(D2-Pad2)*%
X134096719Y-126417793D03*
%TD*%
D24*
%TO.P,C2,1*%
%TO.N,GND*%
X129744006Y-113800000D03*
%TO.P,C2,2*%
%TO.N,+3V3*%
X129744006Y-114760000D03*
%TD*%
D25*
%TO.P,C7,1*%
%TO.N,GND*%
X137030000Y-115635000D03*
%TO.P,C7,2*%
%TO.N,/RST*%
X136070000Y-115635000D03*
%TD*%
D26*
%TO.P,R11,1*%
%TO.N,/RST*%
X136020000Y-116640000D03*
%TO.P,R11,2*%
%TO.N,+3V3*%
X137040000Y-116640000D03*
%TD*%
D27*
%TO.P,E1,ANT,SIGNAL*%
%TO.N,Net-(C5-Pad1)*%
X128740000Y-111228920D03*
D28*
%TO.P,E1,GND,GND*%
%TO.N,GND*%
X126641960Y-111228920D03*
%TD*%
D29*
%TO.P,R14,1*%
%TO.N,Net-(R14-Pad1)*%
X125224000Y-122750000D03*
%TO.P,R14,2*%
%TO.N,+3V3*%
X124204000Y-122750000D03*
%TD*%
D30*
%TO.P,SW2,1,1*%
%TO.N,Net-(R10-Pad2)*%
X125029000Y-130259000D03*
%TO.P,SW2,2,2*%
%TO.N,GND*%
X125029000Y-134409000D03*
%TD*%
D29*
%TO.P,R13,1*%
%TO.N,Net-(R13-Pad1)*%
X123800000Y-114400000D03*
%TO.P,R13,2*%
%TO.N,+3V3*%
X122780000Y-114400000D03*
%TD*%
D25*
%TO.P,C3,1*%
%TO.N,GND*%
X134980000Y-117670000D03*
%TO.P,C3,2*%
%TO.N,+3V3*%
X134020000Y-117670000D03*
%TD*%
D29*
%TO.P,R3,2*%
%TO.N,Net-(R3-Pad2)*%
X134010000Y-116665000D03*
%TO.P,R3,1*%
%TO.N,GND*%
X135030000Y-116665000D03*
%TD*%
D31*
%TO.P,C1,1*%
%TO.N,+3V3*%
X129794000Y-131496500D03*
%TO.P,C1,2*%
%TO.N,GND*%
X129794000Y-134496500D03*
%TD*%
D25*
%TO.P,C9,1*%
%TO.N,GND*%
X137030000Y-117645000D03*
%TO.P,C9,2*%
%TO.N,Net-(C9-Pad2)*%
X136070000Y-117645000D03*
%TD*%
D23*
%TO.P,D3,1,K*%
%TO.N,/RXD*%
X131953499Y-125422793D03*
%TO.P,D3,2,A*%
%TO.N,Net-(D3-Pad2)*%
X131953499Y-126392793D03*
%TD*%
D32*
%TO.P,C8,1*%
%TO.N,GND*%
X135050000Y-123000000D03*
%TO.P,C8,2*%
%TO.N,Net-(C8-Pad2)*%
X136010000Y-123000000D03*
%TD*%
D23*
%TO.P,D1,1,K*%
%TO.N,/GPIO16*%
X128693223Y-125415000D03*
%TO.P,D1,2,A*%
%TO.N,Net-(D1-Pad2)*%
X128693223Y-126385000D03*
%TD*%
D21*
%TO.P,R4,1*%
%TO.N,/GPIO2*%
X124066115Y-125390000D03*
%TO.P,R4,2*%
%TO.N,+3V3*%
X124066115Y-126410000D03*
%TD*%
%TO.P,R15,2*%
%TO.N,/MTMS*%
X127624006Y-114810000D03*
%TO.P,R15,1*%
%TO.N,Net-(R15-Pad1)*%
X127624006Y-113790000D03*
%TD*%
D33*
%TO.P,C5,1*%
%TO.N,Net-(C5-Pad1)*%
X130750589Y-113190589D03*
%TO.P,C5,2*%
%TO.N,Net-(C5-Pad2)*%
X131429411Y-113869411D03*
%TD*%
D30*
%TO.P,SW1,1,1*%
%TO.N,Net-(R8-Pad2)*%
X134559000Y-130259000D03*
%TO.P,SW1,2,2*%
%TO.N,GND*%
X134559000Y-134409000D03*
%TD*%
D25*
%TO.P,C4,1*%
%TO.N,GND*%
X134980000Y-115660000D03*
%TO.P,C4,2*%
%TO.N,+3V3*%
X134020000Y-115660000D03*
%TD*%
D21*
%TO.P,R10,1*%
%TO.N,/GPIO0*%
X126379669Y-125390000D03*
%TO.P,R10,2*%
%TO.N,Net-(R10-Pad2)*%
X126379669Y-126410000D03*
%TD*%
D34*
%TO.P,C6,1*%
%TO.N,GND*%
X130749411Y-111860589D03*
%TO.P,C6,2*%
%TO.N,Net-(C5-Pad1)*%
X130070589Y-112539411D03*
%TD*%
D21*
%TO.P,R12,1*%
%TO.N,/MTDO*%
X122909338Y-125390000D03*
%TO.P,R12,2*%
%TO.N,GND*%
X122909338Y-126410000D03*
%TD*%
%TO.P,R2,1*%
%TO.N,+3V3*%
X127536446Y-125390000D03*
%TO.P,R2,2*%
%TO.N,Net-(D1-Pad2)*%
X127536446Y-126410000D03*
%TD*%
%TO.P,R6,1*%
%TO.N,+3V3*%
X130923499Y-125397793D03*
%TO.P,R6,2*%
%TO.N,Net-(D3-Pad2)*%
X130923499Y-126417793D03*
%TD*%
%TO.P,R1,1*%
%TO.N,/GPIO0*%
X125222892Y-125390000D03*
%TO.P,R1,2*%
%TO.N,+3V3*%
X125222892Y-126410000D03*
%TD*%
D35*
%TO.P,R7,1*%
%TO.N,/CHIP_PU*%
X128689006Y-114810000D03*
%TO.P,R7,2*%
%TO.N,+3V3*%
X128689006Y-113790000D03*
%TD*%
D36*
%TO.P,Y1,1,1*%
%TO.N,Net-(C9-Pad2)*%
X134730000Y-119220000D03*
%TO.P,Y1,2,2*%
%TO.N,GND*%
X134730000Y-121420000D03*
%TO.P,Y1,3,3*%
%TO.N,Net-(C8-Pad2)*%
X136330000Y-121420000D03*
%TO.P,Y1,4,4*%
%TO.N,GND*%
X136330000Y-119220000D03*
%TD*%
D37*
%TO.N,GND*%
X140826000Y-112960000D03*
X140226000Y-112960000D03*
X139626000Y-112960000D03*
X139026000Y-112960000D03*
X138426000Y-112960000D03*
X137826000Y-112960000D03*
X137226000Y-112960000D03*
X136626000Y-112960000D03*
X136026000Y-112960000D03*
X135426000Y-112960000D03*
X134826000Y-112960000D03*
X134226000Y-112960000D03*
X133626000Y-112960000D03*
X133026000Y-112960000D03*
X132426000Y-112960000D03*
X131826000Y-112960000D03*
X140826000Y-112360000D03*
X140226000Y-112360000D03*
X139626000Y-112360000D03*
X139026000Y-112360000D03*
X138426000Y-112360000D03*
X137826000Y-112360000D03*
X137226000Y-112360000D03*
X136626000Y-112360000D03*
X136026000Y-112360000D03*
X135426000Y-112360000D03*
X134826000Y-112360000D03*
X134226000Y-112360000D03*
X133626000Y-112360000D03*
X133026000Y-112360000D03*
X132426000Y-112360000D03*
X131826000Y-112360000D03*
X140826000Y-111760000D03*
X140226000Y-111760000D03*
X139626000Y-111760000D03*
X139026000Y-111760000D03*
X138426000Y-111760000D03*
X137826000Y-111760000D03*
X137226000Y-111760000D03*
X136626000Y-111760000D03*
X136026000Y-111760000D03*
X135426000Y-111760000D03*
X134826000Y-111760000D03*
X134226000Y-111760000D03*
X133626000Y-111760000D03*
X133026000Y-111760000D03*
X132426000Y-111760000D03*
X131826000Y-111760000D03*
X126640592Y-112958957D03*
X125949635Y-112394304D03*
X126031361Y-112936668D03*
X125407271Y-112966386D03*
X125377552Y-112357155D03*
X124802000Y-112960000D03*
X124202000Y-112960000D03*
X123602000Y-112960000D03*
X123002000Y-112960000D03*
X122402000Y-112960000D03*
X121802000Y-112960000D03*
X121202000Y-112960000D03*
X120602000Y-112960000D03*
X120002000Y-112960000D03*
X119402000Y-112960000D03*
X118802000Y-112960000D03*
X118202000Y-112960000D03*
X117602000Y-112960000D03*
X124802000Y-112360000D03*
X124202000Y-112360000D03*
X123602000Y-112360000D03*
X123002000Y-112360000D03*
X122402000Y-112360000D03*
X121802000Y-112360000D03*
X121202000Y-112360000D03*
X120602000Y-112360000D03*
X120002000Y-112360000D03*
X119402000Y-112360000D03*
X118802000Y-112360000D03*
X118202000Y-112360000D03*
X117602000Y-112360000D03*
X124802000Y-111760000D03*
X124202000Y-111760000D03*
X123602000Y-111760000D03*
X123002000Y-111760000D03*
X122402000Y-111760000D03*
X121802000Y-111760000D03*
X121202000Y-111760000D03*
X120602000Y-111760000D03*
X120002000Y-111760000D03*
X119402000Y-111760000D03*
X118802000Y-111760000D03*
X118202000Y-111760000D03*
X117602000Y-111760000D03*
%TO.N,/RXD*%
X132261095Y-127450117D03*
%TO.N,/TXD*%
X132842000Y-127424736D03*
%TO.N,GND*%
X135893723Y-118253477D03*
X136369221Y-118268336D03*
X136874437Y-118263383D03*
X134853572Y-118248524D03*
X134318638Y-118263383D03*
X133872859Y-118917192D03*
X133858000Y-119634000D03*
X133799177Y-120548606D03*
X133814036Y-121103353D03*
X133828896Y-121653147D03*
X133903192Y-122193035D03*
X134012160Y-122718063D03*
X134334112Y-123104405D03*
X136770356Y-123164619D03*
X137100562Y-122831111D03*
X137414000Y-122428000D03*
X137414000Y-121920000D03*
X137414000Y-121412000D03*
X137414000Y-120904000D03*
X137414000Y-120396000D03*
X137414000Y-119888000D03*
X137414000Y-119380000D03*
X137414000Y-118872000D03*
X137412532Y-118281815D03*
%TO.N,/RST*%
X137922000Y-117856000D03*
D38*
%TO.N,+3V3*%
X134112000Y-124460000D03*
X129794000Y-124460000D03*
X128524000Y-129794000D03*
X130810000Y-129794000D03*
X129794000Y-129032000D03*
D37*
%TO.N,/CMD{slash}MOSI*%
X136652000Y-130556000D03*
%TO.N,/SD2{slash}GPIO9*%
X129286000Y-122936000D03*
%TO.N,/SD1{slash}INT*%
X131631112Y-123264004D03*
%TO.N,/SD0{slash}MISO*%
X131092523Y-123493530D03*
%TO.N,/SCLK*%
X130628935Y-123927051D03*
%TO.N,/CMD{slash}MOSI*%
X130131424Y-123190000D03*
%TO.N,/SD3{slash}CS*%
X129620641Y-122236221D03*
%TO.N,/ADC_IN*%
X138430000Y-113538000D03*
X129794000Y-115570000D03*
D38*
%TO.N,GND*%
X127762000Y-111506000D03*
X126646938Y-112060487D03*
X125476000Y-111506000D03*
D37*
%TO.N,/GPIO2*%
X123698000Y-124714000D03*
%TO.N,/MTDI*%
X120904000Y-119888000D03*
%TO.N,/MTMS*%
X127185695Y-116765722D03*
X120650000Y-118872000D03*
%TO.N,/GPIO0*%
X125222000Y-124714000D03*
%TO.N,/GPIO4*%
X127508000Y-121158000D03*
D38*
%TO.N,+3V3*%
X124194000Y-123640000D03*
D37*
%TO.N,GND*%
X126470000Y-119720000D03*
X125870000Y-119720000D03*
X125250000Y-119730000D03*
%TO.N,/GPIO16*%
X128720000Y-124360000D03*
%TO.N,GND*%
X131590000Y-120120000D03*
X130990000Y-120120000D03*
X130390000Y-120120000D03*
X129790000Y-120120000D03*
X129190000Y-120120000D03*
X131590000Y-119520000D03*
X130990000Y-119520000D03*
X130390000Y-119520000D03*
X129790000Y-119520000D03*
X129190000Y-119520000D03*
X131590000Y-118920000D03*
X130990000Y-118920000D03*
X130390000Y-118920000D03*
X129790000Y-118920000D03*
X129190000Y-118920000D03*
X131590000Y-118320000D03*
X130990000Y-118320000D03*
X130390000Y-118320000D03*
X129790000Y-118320000D03*
X129190000Y-118320000D03*
X131590000Y-117720000D03*
X130990000Y-117720000D03*
X130390000Y-117720000D03*
X129790000Y-117720000D03*
X129190000Y-117720000D03*
D38*
%TO.N,+3V3*%
X127540000Y-124450000D03*
X124650000Y-127360000D03*
D37*
%TO.N,/GPIO16*%
X127930000Y-116440000D03*
D38*
%TO.N,+3V3*%
X137900000Y-116600000D03*
X133570000Y-118310000D03*
X134000000Y-114700000D03*
X127020000Y-118140500D03*
X130820000Y-115610500D03*
X121700000Y-114300000D03*
X132730378Y-116170378D03*
X128524000Y-122220000D03*
X128024006Y-112800000D03*
D37*
%TO.N,/RST*%
X133300000Y-116700000D03*
X135695027Y-116155676D03*
%TO.N,/MTDI*%
X124206000Y-119634000D03*
X127190000Y-117390000D03*
%TD*%
D39*
%TO.N,+3V3*%
X132807500Y-118640000D02*
X132807500Y-118140000D01*
X130620000Y-115810500D02*
X130820000Y-115610500D01*
X130620000Y-116452500D02*
X130620000Y-115810500D01*
X130620000Y-116452500D02*
X131120000Y-116452500D01*
D40*
%TO.N,/RXD*%
X132987501Y-120820001D02*
X132987501Y-124388791D01*
X132807500Y-120640000D02*
X132987501Y-120820001D01*
X132987501Y-124388791D02*
X131953499Y-125422793D01*
%TO.N,/RST*%
X140970000Y-127376594D02*
X140970000Y-144590000D01*
X140339406Y-126746000D02*
X140970000Y-127376594D01*
X136906000Y-126746000D02*
X140339406Y-126746000D01*
X135537793Y-125377793D02*
X136906000Y-126746000D01*
X140970000Y-144590000D02*
X139700000Y-145860000D01*
X135537793Y-125377793D02*
X136242207Y-125377793D01*
X135211499Y-125377793D02*
X135537793Y-125377793D01*
X131812000Y-145860000D02*
X139700000Y-145860000D01*
X126492000Y-151180000D02*
X131812000Y-145860000D01*
%TO.N,/GPIO0*%
X126799189Y-149602811D02*
X126799189Y-125809520D01*
X125222000Y-151180000D02*
X126799189Y-149602811D01*
X126799189Y-125809520D02*
X126379669Y-125390000D01*
%TO.N,/RXD*%
X122682000Y-150472894D02*
X122682000Y-151180000D01*
X119275106Y-147066000D02*
X122682000Y-150472894D01*
X118295594Y-147066000D02*
X119275106Y-147066000D01*
X117856000Y-144336000D02*
X117856000Y-146626406D01*
X118872000Y-143320000D02*
X117856000Y-144336000D01*
X117856000Y-146626406D02*
X118295594Y-147066000D01*
%TO.N,/TXD*%
X123952000Y-150940000D02*
X123952000Y-151180000D01*
X118872000Y-145860000D02*
X123952000Y-150940000D01*
%TO.N,/RXD*%
X132373019Y-127338193D02*
X132261095Y-127450117D01*
X132373019Y-125842313D02*
X132373019Y-127338193D01*
X131953499Y-125422793D02*
X132373019Y-125842313D01*
%TO.N,/TXD*%
X132605589Y-127188325D02*
X132842000Y-127424736D01*
X132605589Y-125842313D02*
X132605589Y-127188325D01*
X133025109Y-125422793D02*
X132605589Y-125842313D01*
%TO.N,Net-(R8-Pad2)*%
X133593292Y-128016000D02*
X135211499Y-126397793D01*
X131456000Y-128016000D02*
X133593292Y-128016000D01*
X129850000Y-126410000D02*
X131456000Y-128016000D01*
D39*
%TO.N,GND*%
X137030000Y-117899283D02*
X137412532Y-118281815D01*
X137030000Y-117645000D02*
X137030000Y-117899283D01*
D40*
%TO.N,/TXD*%
X133051440Y-120140000D02*
X132807500Y-120140000D01*
X133350000Y-120438560D02*
X133051440Y-120140000D01*
X133025109Y-125422793D02*
X133350000Y-125097902D01*
X133350000Y-125097902D02*
X133350000Y-120438560D01*
%TO.N,/RST*%
X138176000Y-123444000D02*
X138176000Y-118110000D01*
X136242207Y-125377793D02*
X138176000Y-123444000D01*
X138176000Y-118110000D02*
X137922000Y-117856000D01*
D39*
%TO.N,+3V3*%
X134096719Y-124475281D02*
X134112000Y-124460000D01*
X134096719Y-125397793D02*
X134096719Y-124475281D01*
X130731793Y-125397793D02*
X129794000Y-124460000D01*
X130923499Y-125397793D02*
X130731793Y-125397793D01*
D40*
%TO.N,Net-(D3-Pad2)*%
X131928499Y-126417793D02*
X131953499Y-126392793D01*
X130923499Y-126417793D02*
X131928499Y-126417793D01*
%TO.N,Net-(D2-Pad2)*%
X134071719Y-126392793D02*
X134096719Y-126417793D01*
X133025109Y-126392793D02*
X134071719Y-126392793D01*
%TO.N,Net-(R8-Pad2)*%
X134559000Y-127050292D02*
X134559000Y-130259000D01*
X135211499Y-126397793D02*
X134559000Y-127050292D01*
D39*
%TO.N,+3V3*%
X129794000Y-131496500D02*
X129794000Y-131064000D01*
X129794000Y-131064000D02*
X128524000Y-129794000D01*
X129794000Y-130810000D02*
X130810000Y-129794000D01*
X129794000Y-131496500D02*
X129794000Y-130810000D01*
X129794000Y-131496500D02*
X129794000Y-129032000D01*
D40*
%TO.N,Net-(R10-Pad2)*%
X126379669Y-127620331D02*
X126379669Y-126410000D01*
X125029000Y-128971000D02*
X126379669Y-127620331D01*
X125029000Y-130259000D02*
X125029000Y-128971000D01*
%TO.N,Net-(R15-Pad1)*%
X125130000Y-114646000D02*
X125130000Y-116030000D01*
X125986000Y-113790000D02*
X125130000Y-114646000D01*
X127624006Y-113790000D02*
X125986000Y-113790000D01*
%TO.N,/CMD{slash}MOSI*%
X130120000Y-123178576D02*
X130131424Y-123190000D01*
X130120000Y-121327500D02*
X130120000Y-123178576D01*
X139700000Y-130620000D02*
X136716000Y-130620000D01*
X136716000Y-130620000D02*
X136652000Y-130556000D01*
%TO.N,/SD0{slash}MISO*%
X131120000Y-121327500D02*
X131120000Y-123466053D01*
X131120000Y-123466053D02*
X131092523Y-123493530D01*
%TO.N,/SCLK*%
X130620000Y-123918116D02*
X130628935Y-123927051D01*
X130620000Y-121327500D02*
X130620000Y-123918116D01*
%TO.N,/SD1{slash}INT*%
X131620000Y-121327500D02*
X131620000Y-123252892D01*
X131620000Y-123252892D02*
X131631112Y-123264004D01*
%TO.N,/SD2{slash}GPIO9*%
X129120000Y-121327500D02*
X129120000Y-122770000D01*
X129120000Y-122770000D02*
X129286000Y-122936000D01*
D39*
%TO.N,+3V3*%
X128620000Y-122124000D02*
X128524000Y-122220000D01*
X128620000Y-121327500D02*
X128620000Y-122124000D01*
D40*
%TO.N,/SD3{slash}CS*%
X129620000Y-122235580D02*
X129620641Y-122236221D01*
X129620000Y-121327500D02*
X129620000Y-122235580D01*
D39*
%TO.N,+3V3*%
X129744006Y-114760000D02*
X129969500Y-114760000D01*
X129969500Y-114760000D02*
X130820000Y-115610500D01*
D40*
%TO.N,/ADC_IN*%
X139700000Y-114808000D02*
X139700000Y-115380000D01*
X138430000Y-113538000D02*
X139700000Y-114808000D01*
%TO.N,/CHIP_PU*%
X128689006Y-115481006D02*
X129120000Y-115912000D01*
X129120000Y-115912000D02*
X129120000Y-116452500D01*
X128689006Y-114810000D02*
X128689006Y-115481006D01*
%TO.N,/MTMS*%
X127508000Y-116715500D02*
X127932500Y-117140000D01*
X127508000Y-114926006D02*
X127508000Y-116715500D01*
X127624006Y-114810000D02*
X127508000Y-114926006D01*
X127697250Y-116904750D02*
X127932500Y-117140000D01*
X127558222Y-116765722D02*
X127697250Y-116904750D01*
%TO.N,/ADC_IN*%
X129620000Y-115744000D02*
X129794000Y-115570000D01*
X129620000Y-116452500D02*
X129620000Y-115744000D01*
D39*
%TO.N,GND*%
X127484920Y-111228920D02*
X127762000Y-111506000D01*
X126641960Y-111228920D02*
X127484920Y-111228920D01*
X126641960Y-112055509D02*
X126646938Y-112060487D01*
X126641960Y-111228920D02*
X126641960Y-112055509D01*
X125753080Y-111228920D02*
X125476000Y-111506000D01*
X126641960Y-111228920D02*
X125753080Y-111228920D01*
D40*
%TO.N,/GPIO2*%
X124066115Y-125082115D02*
X124066115Y-125390000D01*
X123698000Y-124714000D02*
X124066115Y-125082115D01*
%TO.N,/MTDO*%
X121307520Y-122512480D02*
X122590000Y-121230000D01*
X121307520Y-138344480D02*
X121307520Y-122512480D01*
X118872000Y-140780000D02*
X121307520Y-138344480D01*
D39*
%TO.N,+3V3*%
X127932500Y-118140000D02*
X127020500Y-118140000D01*
D40*
%TO.N,/MTCK*%
X121158000Y-120650000D02*
X123168000Y-118640000D01*
D39*
%TO.N,+3V3*%
X127020500Y-118140000D02*
X127020000Y-118140500D01*
D40*
%TO.N,/MTCK*%
X121158000Y-135954000D02*
X121158000Y-120650000D01*
X123168000Y-118640000D02*
X127932500Y-118640000D01*
X118872000Y-138240000D02*
X121158000Y-135954000D01*
%TO.N,/MTDI*%
X123860000Y-119980000D02*
X124206000Y-119634000D01*
X123860000Y-121230000D02*
X123860000Y-119980000D01*
X120904000Y-133668000D02*
X120904000Y-119888000D01*
X118872000Y-135700000D02*
X120904000Y-133668000D01*
%TO.N,/MTMS*%
X120504499Y-119017501D02*
X120650000Y-118872000D01*
X120504499Y-131527501D02*
X120504499Y-119017501D01*
X118872000Y-133160000D02*
X120504499Y-131527501D01*
X127185695Y-116765722D02*
X127558222Y-116765722D01*
%TO.N,/GPIO0*%
X125222000Y-125389108D02*
X125222892Y-125390000D01*
X125222000Y-124714000D02*
X125222000Y-125389108D01*
%TO.N,/GPIO4*%
X127508000Y-121064500D02*
X127932500Y-120640000D01*
X127508000Y-121158000D02*
X127508000Y-121064500D01*
%TO.N,/GPIO2*%
X126958989Y-122251011D02*
X126958989Y-120051011D01*
X124066115Y-125143885D02*
X126958989Y-122251011D01*
X124066115Y-125390000D02*
X124066115Y-125143885D01*
%TO.N,/GPIO0*%
X127440000Y-120140000D02*
X127932500Y-120140000D01*
X127108499Y-120471501D02*
X127440000Y-120140000D01*
%TO.N,/GPIO2*%
X126958989Y-120051011D02*
X127370000Y-119640000D01*
%TO.N,/GPIO0*%
X126379669Y-123050331D02*
X127108499Y-122321501D01*
X126379669Y-125390000D02*
X126379669Y-123050331D01*
X127108499Y-122321501D02*
X127108499Y-120471501D01*
%TO.N,/GPIO2*%
X127370000Y-119640000D02*
X127932500Y-119640000D01*
D39*
%TO.N,+3V3*%
X124204000Y-122750000D02*
X124204000Y-123630000D01*
D40*
%TO.N,/GPIO16*%
X128720000Y-124360000D02*
X128693223Y-124386777D01*
X128693223Y-124386777D02*
X128693223Y-125415000D01*
D39*
%TO.N,GND*%
X134730000Y-122680000D02*
X135050000Y-123000000D01*
X134730000Y-121420000D02*
X134730000Y-122680000D01*
D41*
%TO.N,Net-(C5-Pad1)*%
X128760098Y-111228920D02*
X130070589Y-112539411D01*
X128740000Y-111228920D02*
X128760098Y-111228920D01*
D40*
%TO.N,/GPIO16*%
X128718223Y-125390000D02*
X129850000Y-125390000D01*
D39*
%TO.N,+3V3*%
X127536446Y-124453554D02*
X127540000Y-124450000D01*
X127536446Y-125390000D02*
X127536446Y-124453554D01*
D40*
%TO.N,/MTDO*%
X122590000Y-125070662D02*
X122590000Y-121230000D01*
X122909338Y-125390000D02*
X122590000Y-125070662D01*
D39*
%TO.N,+3V3*%
X124650000Y-126410000D02*
X124650000Y-127360000D01*
X124650000Y-126410000D02*
X125222892Y-126410000D01*
X124066115Y-126410000D02*
X124650000Y-126410000D01*
D40*
%TO.N,/GPIO0*%
X125222892Y-125390000D02*
X126379669Y-125390000D01*
%TO.N,/GPIO16*%
X127942500Y-116452500D02*
X127930000Y-116440000D01*
X128620000Y-116452500D02*
X127942500Y-116452500D01*
D39*
%TO.N,+3V3*%
X132969142Y-116170378D02*
X132730378Y-116170378D01*
X122590000Y-116030000D02*
X122590000Y-114590000D01*
X134020000Y-115660000D02*
X134020000Y-114720000D01*
X137860000Y-116640000D02*
X137900000Y-116600000D01*
X122780000Y-114400000D02*
X121800000Y-114400000D01*
X134020000Y-114720000D02*
X134000000Y-114700000D01*
X132402122Y-116170378D02*
X132730378Y-116170378D01*
X133479520Y-115660000D02*
X132969142Y-116170378D01*
X122590000Y-114590000D02*
X122780000Y-114400000D01*
X128689006Y-113465000D02*
X128689006Y-113790000D01*
X134020000Y-117670000D02*
X134020000Y-117860000D01*
X132144520Y-116427980D02*
X132402122Y-116170378D01*
X121800000Y-114400000D02*
X121700000Y-114300000D01*
X137040000Y-116640000D02*
X137860000Y-116640000D01*
X128024006Y-112800000D02*
X128689006Y-113465000D01*
X134020000Y-115660000D02*
X133479520Y-115660000D01*
X134020000Y-117860000D02*
X133570000Y-118310000D01*
%TO.N,GND*%
X135030000Y-115710000D02*
X134980000Y-115660000D01*
X135030000Y-116665000D02*
X135030000Y-115710000D01*
X134980000Y-116715000D02*
X135030000Y-116665000D01*
X134980000Y-117670000D02*
X134980000Y-116715000D01*
D41*
%TO.N,Net-(C5-Pad1)*%
X130750589Y-113190589D02*
X130721767Y-113190589D01*
X130721767Y-113190589D02*
X130070589Y-112539411D01*
%TO.N,Net-(C5-Pad2)*%
X131615000Y-114055000D02*
X131429411Y-113869411D01*
D42*
X131620000Y-116452500D02*
X131620000Y-115255000D01*
D41*
X131615000Y-115250000D02*
X131615000Y-114055000D01*
D40*
%TO.N,/RST*%
X132807500Y-117140000D02*
X133247500Y-116700000D01*
X135695027Y-116009973D02*
X136070000Y-115635000D01*
X133247500Y-116700000D02*
X133300000Y-116700000D01*
X135695027Y-116155676D02*
X135695027Y-116009973D01*
X135695027Y-116315027D02*
X136020000Y-116640000D01*
X135695027Y-116155676D02*
X135695027Y-116315027D01*
%TO.N,Net-(C8-Pad2)*%
X134130000Y-120420000D02*
X135460000Y-120420000D01*
X132807500Y-119640000D02*
X133350000Y-119640000D01*
X133350000Y-119640000D02*
X134130000Y-120420000D01*
X136330000Y-122680000D02*
X136330000Y-121420000D01*
X136330000Y-121290000D02*
X136330000Y-121420000D01*
X135460000Y-120420000D02*
X136330000Y-121290000D01*
X136010000Y-123000000D02*
X136330000Y-122680000D01*
%TO.N,Net-(C9-Pad2)*%
X134730000Y-119220000D02*
X134730000Y-118985000D01*
X132807500Y-119140000D02*
X132887500Y-119220000D01*
X134730000Y-118985000D02*
X136070000Y-117645000D01*
X132887500Y-119220000D02*
X134730000Y-119220000D01*
%TO.N,/MTDI*%
X127440000Y-117640000D02*
X127190000Y-117390000D01*
X127932500Y-117640000D02*
X127440000Y-117640000D01*
%TO.N,/MTCK*%
X127932500Y-118640000D02*
X127922999Y-118649501D01*
X127922999Y-118649501D02*
X126793099Y-118649501D01*
X126400000Y-118256402D02*
X126400000Y-116030000D01*
X126793099Y-118649501D02*
X126400000Y-118256402D01*
%TO.N,/MTDO*%
X123840000Y-119140000D02*
X122590000Y-120390000D01*
X122590000Y-120390000D02*
X122590000Y-121230000D01*
X127932500Y-119140000D02*
X123840000Y-119140000D01*
%TO.N,Net-(R3-Pad2)*%
X133035000Y-117640000D02*
X134010000Y-116665000D01*
X132807500Y-117640000D02*
X133035000Y-117640000D01*
D41*
X132807500Y-117640000D02*
X133118425Y-117640000D01*
D42*
%TO.N,Net-(R13-Pad1)*%
X123860000Y-116030000D02*
X123860000Y-114460000D01*
X123860000Y-114460000D02*
X123800000Y-114400000D01*
%TD*%
%TA.AperFunction,Conductor*%
%TO.N,GND*%
G36*
X125861062Y-111118907D02*
G01*
X125897026Y-111168407D01*
X125901871Y-111199000D01*
X125901871Y-111341932D01*
X125894823Y-111363626D01*
X125896006Y-111363813D01*
X125892380Y-111386709D01*
X125892380Y-111519479D01*
X125892726Y-111525325D01*
X125894614Y-111541193D01*
X125898508Y-111555359D01*
X125937148Y-111642350D01*
X125947329Y-111657164D01*
X125973379Y-111683168D01*
X125973664Y-111683386D01*
X125975780Y-111686819D01*
X125983053Y-111692349D01*
X125984690Y-111694155D01*
X125984938Y-111694707D01*
X126013484Y-111723203D01*
X126028317Y-111733359D01*
X126033069Y-111735460D01*
X126035560Y-111736789D01*
X126038788Y-111739783D01*
X126047281Y-111743172D01*
X126052236Y-111746304D01*
X126057464Y-111748933D01*
X126064740Y-111754466D01*
X126073518Y-111757008D01*
X126073520Y-111757009D01*
X126091153Y-111762115D01*
X126103648Y-111766662D01*
X126115369Y-111771844D01*
X126121872Y-111773617D01*
X126132509Y-111777176D01*
X126136096Y-111778607D01*
X126136104Y-111778609D01*
X126142591Y-111781197D01*
X126148864Y-111781812D01*
X126149802Y-111781812D01*
X126154171Y-111782544D01*
X126154213Y-111782118D01*
X126163312Y-111783010D01*
X126172089Y-111785552D01*
X126181190Y-111784764D01*
X126181192Y-111784764D01*
X126211012Y-111782181D01*
X126219554Y-111781812D01*
X127045414Y-111781812D01*
X127055076Y-111782285D01*
X127062472Y-111783010D01*
X127071249Y-111785552D01*
X127080350Y-111784764D01*
X127080352Y-111784764D01*
X127110172Y-111782181D01*
X127118714Y-111781812D01*
X127128936Y-111781812D01*
X127133414Y-111780978D01*
X127133425Y-111780977D01*
X127136785Y-111780351D01*
X127146367Y-111779046D01*
X127153169Y-111778457D01*
X127173485Y-111776698D01*
X127173487Y-111776697D01*
X127182591Y-111775909D01*
X127190802Y-111771895D01*
X127196456Y-111770327D01*
X127201915Y-111768220D01*
X127210901Y-111766547D01*
X127241868Y-111747459D01*
X127250337Y-111742794D01*
X127251289Y-111742329D01*
X127269639Y-111733359D01*
X127274784Y-111730844D01*
X127274785Y-111730843D01*
X127282997Y-111726829D01*
X127289211Y-111720130D01*
X127293914Y-111716637D01*
X127298258Y-111712698D01*
X127306038Y-111707903D01*
X127328050Y-111678956D01*
X127334273Y-111671553D01*
X127352787Y-111651595D01*
X127352787Y-111651594D01*
X127359002Y-111644895D01*
X127362389Y-111636406D01*
X127365519Y-111631455D01*
X127368152Y-111626220D01*
X127373685Y-111618943D01*
X127383797Y-111584023D01*
X127386938Y-111574874D01*
X127397828Y-111547579D01*
X127397828Y-111547578D01*
X127400416Y-111541092D01*
X127401031Y-111534819D01*
X127401031Y-111533881D01*
X127401763Y-111529512D01*
X127401337Y-111529470D01*
X127402229Y-111520371D01*
X127404771Y-111511594D01*
X127403353Y-111495214D01*
X127401400Y-111472671D01*
X127401031Y-111464129D01*
X127401031Y-111199000D01*
X127419938Y-111140809D01*
X127469438Y-111104845D01*
X127500031Y-111100000D01*
X128101571Y-111100000D01*
X128159762Y-111118907D01*
X128195726Y-111168407D01*
X128200571Y-111199000D01*
X128200571Y-111426195D01*
X128200098Y-111435857D01*
X128199373Y-111443253D01*
X128196831Y-111452030D01*
X128197619Y-111461131D01*
X128197619Y-111461133D01*
X128200202Y-111490953D01*
X128200571Y-111499495D01*
X128200571Y-111509717D01*
X128201405Y-111514195D01*
X128201406Y-111514206D01*
X128202032Y-111517566D01*
X128203337Y-111527148D01*
X128203926Y-111533950D01*
X128205005Y-111546406D01*
X128206474Y-111563372D01*
X128210488Y-111571583D01*
X128212056Y-111577237D01*
X128214163Y-111582696D01*
X128215836Y-111591682D01*
X128220633Y-111599464D01*
X128234923Y-111622647D01*
X128239588Y-111631116D01*
X128244092Y-111640330D01*
X128249599Y-111651595D01*
X128255554Y-111663778D01*
X128262253Y-111669992D01*
X128265746Y-111674695D01*
X128269685Y-111679039D01*
X128274480Y-111686819D01*
X128294267Y-111701865D01*
X128303426Y-111708830D01*
X128310830Y-111715054D01*
X128337488Y-111739783D01*
X128345977Y-111743170D01*
X128350928Y-111746300D01*
X128356163Y-111748933D01*
X128363440Y-111754466D01*
X128398360Y-111764578D01*
X128407509Y-111767719D01*
X128431213Y-111777176D01*
X128441291Y-111781197D01*
X128447564Y-111781812D01*
X128448502Y-111781812D01*
X128452871Y-111782544D01*
X128452913Y-111782118D01*
X128462012Y-111783010D01*
X128470789Y-111785552D01*
X128479890Y-111784764D01*
X128479892Y-111784764D01*
X128509712Y-111782181D01*
X128518254Y-111781812D01*
X128847011Y-111781812D01*
X128905202Y-111800719D01*
X128917015Y-111810808D01*
X129483759Y-112377552D01*
X129511536Y-112432069D01*
X129511320Y-112456968D01*
X129510886Y-112458159D01*
X129510886Y-112578237D01*
X129513846Y-112586371D01*
X129513847Y-112586374D01*
X129538880Y-112655151D01*
X129551955Y-112691075D01*
X129556563Y-112697080D01*
X129556564Y-112697082D01*
X129562402Y-112704689D01*
X129582402Y-112730753D01*
X129879247Y-113027597D01*
X129881821Y-113029572D01*
X129915172Y-113055165D01*
X129949826Y-113105590D01*
X129948222Y-113166755D01*
X129910974Y-113215295D01*
X129899192Y-113221105D01*
X129894006Y-113228243D01*
X129894006Y-113634320D01*
X129898128Y-113647005D01*
X129902249Y-113650000D01*
X130338325Y-113650000D01*
X130370754Y-113639463D01*
X130388307Y-113626710D01*
X130449492Y-113626709D01*
X130488905Y-113650860D01*
X130516820Y-113678775D01*
X130556499Y-113709223D01*
X130579919Y-113717747D01*
X130661200Y-113747331D01*
X130661203Y-113747332D01*
X130669337Y-113750292D01*
X130770708Y-113750292D01*
X130828899Y-113769199D01*
X130864863Y-113818699D01*
X130869708Y-113849292D01*
X130869708Y-113950663D01*
X130872668Y-113958797D01*
X130872669Y-113958800D01*
X130902405Y-114040500D01*
X130910777Y-114063501D01*
X130915387Y-114069508D01*
X130915387Y-114069509D01*
X130939252Y-114100611D01*
X130939258Y-114100618D01*
X130941224Y-114103180D01*
X131195642Y-114357597D01*
X131235321Y-114388045D01*
X131242440Y-114390636D01*
X131249358Y-114393154D01*
X131297573Y-114430822D01*
X131314500Y-114486184D01*
X131314500Y-114703901D01*
X131295593Y-114762092D01*
X131273130Y-114784398D01*
X131269465Y-114787022D01*
X131262120Y-114790628D01*
X131256339Y-114796419D01*
X131186050Y-114866830D01*
X131186048Y-114866833D01*
X131180270Y-114872621D01*
X131129392Y-114976706D01*
X131129110Y-114976568D01*
X131096651Y-115022626D01*
X131038738Y-115042370D01*
X130999428Y-115034845D01*
X130976762Y-115025456D01*
X130820000Y-115004818D01*
X130819971Y-115004822D01*
X130764375Y-114986758D01*
X130752562Y-114976669D01*
X130230409Y-114454516D01*
X130230405Y-114454513D01*
X130207842Y-114431950D01*
X130207654Y-114431854D01*
X130197447Y-114421467D01*
X130197230Y-114421684D01*
X130195813Y-114420267D01*
X130195323Y-114419306D01*
X130189780Y-114413665D01*
X130186137Y-114408462D01*
X130188836Y-114406573D01*
X130168036Y-114365750D01*
X130177607Y-114305318D01*
X130207000Y-114270629D01*
X130222692Y-114259039D01*
X130233047Y-114248684D01*
X130302859Y-114154167D01*
X130309706Y-114141234D01*
X130349094Y-114029073D01*
X130351662Y-114017371D01*
X130353788Y-113994886D01*
X130354006Y-113990250D01*
X130354006Y-113965680D01*
X130349884Y-113952995D01*
X130345763Y-113950000D01*
X129693006Y-113950000D01*
X129634815Y-113931093D01*
X129598851Y-113881593D01*
X129594006Y-113851000D01*
X129594006Y-113235681D01*
X129589884Y-113222996D01*
X129585763Y-113220001D01*
X129523759Y-113220001D01*
X129519116Y-113220220D01*
X129496632Y-113222345D01*
X129484936Y-113224910D01*
X129372772Y-113264300D01*
X129359839Y-113271147D01*
X129265322Y-113340959D01*
X129254965Y-113351316D01*
X129245796Y-113363730D01*
X129196015Y-113399304D01*
X129134832Y-113398823D01*
X129085616Y-113362472D01*
X129074894Y-113341224D01*
X129074652Y-113339696D01*
X129063701Y-113318203D01*
X129057758Y-113303857D01*
X129052710Y-113288321D01*
X129050302Y-113280910D01*
X129036122Y-113261393D01*
X129028008Y-113248154D01*
X129017056Y-113226658D01*
X128994493Y-113204095D01*
X128994490Y-113204091D01*
X128657837Y-112867438D01*
X128630060Y-112812921D01*
X128629284Y-112803066D01*
X128629688Y-112800000D01*
X128609050Y-112643238D01*
X128548542Y-112497159D01*
X128452288Y-112371718D01*
X128326847Y-112275464D01*
X128180768Y-112214956D01*
X128024006Y-112194318D01*
X127867244Y-112214956D01*
X127721165Y-112275464D01*
X127595724Y-112371718D01*
X127499470Y-112497159D01*
X127438962Y-112643238D01*
X127418324Y-112800000D01*
X127438962Y-112956762D01*
X127499470Y-113102841D01*
X127503421Y-113107990D01*
X127543508Y-113160233D01*
X127563932Y-113217909D01*
X127546554Y-113276575D01*
X127498012Y-113313822D01*
X127464966Y-113319500D01*
X127399690Y-113319500D01*
X127350833Y-113325932D01*
X127343965Y-113329135D01*
X127343964Y-113329135D01*
X127251452Y-113372274D01*
X127251450Y-113372275D01*
X127243602Y-113375935D01*
X127159941Y-113459596D01*
X127149335Y-113482340D01*
X127107609Y-113527087D01*
X127059612Y-113539500D01*
X126020431Y-113539500D01*
X126001116Y-113537597D01*
X125995568Y-113536493D01*
X125995562Y-113536493D01*
X125986000Y-113534591D01*
X125888260Y-113554034D01*
X125869114Y-113566827D01*
X125805399Y-113609399D01*
X125799981Y-113617508D01*
X125799980Y-113617509D01*
X125796841Y-113622207D01*
X125784529Y-113637210D01*
X124977213Y-114444527D01*
X124962210Y-114456839D01*
X124949399Y-114465399D01*
X124919430Y-114510252D01*
X124894034Y-114548259D01*
X124892132Y-114557822D01*
X124892131Y-114557824D01*
X124886362Y-114586827D01*
X124874592Y-114646000D01*
X124876494Y-114655562D01*
X124877598Y-114661112D01*
X124879500Y-114680426D01*
X124879500Y-114929089D01*
X124860593Y-114987280D01*
X124825446Y-115017298D01*
X124818879Y-115020644D01*
X124818877Y-115020645D01*
X124812868Y-115023707D01*
X124807907Y-115028269D01*
X124807904Y-115028271D01*
X124747959Y-115083394D01*
X124701844Y-115125799D01*
X124698284Y-115131541D01*
X124629828Y-115241950D01*
X124622365Y-115253986D01*
X124595136Y-115347710D01*
X124590806Y-115362613D01*
X124556415Y-115413218D01*
X124498847Y-115433944D01*
X124440091Y-115416874D01*
X124402590Y-115368528D01*
X124397653Y-115348431D01*
X124396121Y-115337250D01*
X124395206Y-115330568D01*
X124392529Y-115324382D01*
X124392528Y-115324378D01*
X124337986Y-115198339D01*
X124337984Y-115198335D01*
X124335305Y-115192145D01*
X124240386Y-115074930D01*
X124227149Y-115065523D01*
X124190670Y-115016402D01*
X124185500Y-114984827D01*
X124185500Y-114849792D01*
X124203403Y-114793010D01*
X124207943Y-114786526D01*
X124214065Y-114780404D01*
X124241876Y-114720764D01*
X124260865Y-114680042D01*
X124260865Y-114680041D01*
X124264068Y-114673173D01*
X124266387Y-114655562D01*
X124270077Y-114627529D01*
X124270500Y-114624316D01*
X124270500Y-114175684D01*
X124264068Y-114126827D01*
X124259691Y-114117440D01*
X124217726Y-114027446D01*
X124217724Y-114027443D01*
X124214065Y-114019596D01*
X124130404Y-113935935D01*
X124122556Y-113932275D01*
X124122554Y-113932274D01*
X124030042Y-113889135D01*
X124030041Y-113889135D01*
X124023173Y-113885932D01*
X123974316Y-113879500D01*
X123625684Y-113879500D01*
X123576827Y-113885932D01*
X123569959Y-113889135D01*
X123569958Y-113889135D01*
X123477446Y-113932274D01*
X123477444Y-113932275D01*
X123469596Y-113935935D01*
X123385935Y-114019596D01*
X123379723Y-114032919D01*
X123337995Y-114077664D01*
X123277933Y-114089338D01*
X123222481Y-114063479D01*
X123200278Y-114032920D01*
X123194065Y-114019596D01*
X123110404Y-113935935D01*
X123102556Y-113932275D01*
X123102554Y-113932274D01*
X123010042Y-113889135D01*
X123010041Y-113889135D01*
X123003173Y-113885932D01*
X122954316Y-113879500D01*
X122605684Y-113879500D01*
X122556827Y-113885932D01*
X122549959Y-113889135D01*
X122549958Y-113889135D01*
X122457446Y-113932274D01*
X122457444Y-113932275D01*
X122449596Y-113935935D01*
X122415027Y-113970504D01*
X122360510Y-113998281D01*
X122345023Y-113999500D01*
X122275154Y-113999500D01*
X122216963Y-113980593D01*
X122196612Y-113960768D01*
X122188858Y-113950663D01*
X122128282Y-113871718D01*
X122002841Y-113775464D01*
X121856762Y-113714956D01*
X121700000Y-113694318D01*
X121543238Y-113714956D01*
X121397159Y-113775464D01*
X121271718Y-113871718D01*
X121175464Y-113997159D01*
X121114956Y-114143238D01*
X121094318Y-114300000D01*
X121114956Y-114456762D01*
X121175464Y-114602841D01*
X121271718Y-114728282D01*
X121397159Y-114824536D01*
X121543238Y-114885044D01*
X121700000Y-114905682D01*
X121856762Y-114885044D01*
X122002841Y-114824536D01*
X122007987Y-114820587D01*
X122013610Y-114817341D01*
X122014356Y-114818633D01*
X122067772Y-114800500D01*
X122090500Y-114800500D01*
X122148691Y-114819407D01*
X122184655Y-114868907D01*
X122189500Y-114899500D01*
X122189500Y-115058163D01*
X122166788Y-115121253D01*
X122161844Y-115125799D01*
X122158287Y-115131536D01*
X122158286Y-115131537D01*
X122089828Y-115241950D01*
X122082365Y-115253986D01*
X122040285Y-115398825D01*
X122039500Y-115409515D01*
X122039500Y-116617785D01*
X122039958Y-116621128D01*
X122039958Y-116621129D01*
X122053878Y-116722749D01*
X122053879Y-116722753D01*
X122054794Y-116729432D01*
X122057471Y-116735618D01*
X122057472Y-116735622D01*
X122112014Y-116861661D01*
X122112016Y-116861665D01*
X122114695Y-116867855D01*
X122209614Y-116985070D01*
X122215113Y-116988978D01*
X122318414Y-117062390D01*
X122332558Y-117072442D01*
X122338903Y-117074726D01*
X122338906Y-117074728D01*
X122468120Y-117121248D01*
X122468123Y-117121249D01*
X122474468Y-117123533D01*
X122518414Y-117126760D01*
X122618158Y-117134086D01*
X122618161Y-117134086D01*
X122624891Y-117134580D01*
X122631506Y-117133246D01*
X122631508Y-117133246D01*
X122699910Y-117119453D01*
X122772743Y-117104767D01*
X122907132Y-117036293D01*
X122912095Y-117031730D01*
X122912097Y-117031728D01*
X123013186Y-116938771D01*
X123018156Y-116934201D01*
X123061094Y-116864949D01*
X123094077Y-116811753D01*
X123094078Y-116811751D01*
X123097635Y-116806014D01*
X123129195Y-116697386D01*
X123163585Y-116646782D01*
X123221153Y-116626056D01*
X123279909Y-116643126D01*
X123317410Y-116691472D01*
X123322347Y-116711569D01*
X123324794Y-116729432D01*
X123327471Y-116735618D01*
X123327472Y-116735622D01*
X123382014Y-116861661D01*
X123382016Y-116861665D01*
X123384695Y-116867855D01*
X123479614Y-116985070D01*
X123485113Y-116988978D01*
X123588414Y-117062390D01*
X123602558Y-117072442D01*
X123608903Y-117074726D01*
X123608906Y-117074728D01*
X123738120Y-117121248D01*
X123738123Y-117121249D01*
X123744468Y-117123533D01*
X123788414Y-117126760D01*
X123888158Y-117134086D01*
X123888161Y-117134086D01*
X123894891Y-117134580D01*
X123901506Y-117133246D01*
X123901508Y-117133246D01*
X123969910Y-117119453D01*
X124042743Y-117104767D01*
X124177132Y-117036293D01*
X124182095Y-117031730D01*
X124182097Y-117031728D01*
X124283186Y-116938771D01*
X124288156Y-116934201D01*
X124331094Y-116864949D01*
X124364077Y-116811753D01*
X124364078Y-116811751D01*
X124367635Y-116806014D01*
X124399195Y-116697386D01*
X124433585Y-116646782D01*
X124491153Y-116626056D01*
X124549909Y-116643126D01*
X124587410Y-116691472D01*
X124592347Y-116711569D01*
X124594794Y-116729432D01*
X124597471Y-116735618D01*
X124597472Y-116735622D01*
X124652014Y-116861661D01*
X124652016Y-116861665D01*
X124654695Y-116867855D01*
X124749614Y-116985070D01*
X124755113Y-116988978D01*
X124858414Y-117062390D01*
X124872558Y-117072442D01*
X124878903Y-117074726D01*
X124878906Y-117074728D01*
X125008120Y-117121248D01*
X125008123Y-117121249D01*
X125014468Y-117123533D01*
X125058414Y-117126760D01*
X125158158Y-117134086D01*
X125158161Y-117134086D01*
X125164891Y-117134580D01*
X125171506Y-117133246D01*
X125171508Y-117133246D01*
X125239910Y-117119453D01*
X125312743Y-117104767D01*
X125447132Y-117036293D01*
X125452095Y-117031730D01*
X125452097Y-117031728D01*
X125553186Y-116938771D01*
X125558156Y-116934201D01*
X125601094Y-116864949D01*
X125634077Y-116811753D01*
X125634078Y-116811751D01*
X125637635Y-116806014D01*
X125669195Y-116697386D01*
X125703585Y-116646782D01*
X125761153Y-116626056D01*
X125819909Y-116643126D01*
X125857410Y-116691472D01*
X125862347Y-116711569D01*
X125864794Y-116729432D01*
X125867471Y-116735618D01*
X125867472Y-116735622D01*
X125922014Y-116861661D01*
X125922016Y-116861665D01*
X125924695Y-116867855D01*
X126019614Y-116985070D01*
X126025111Y-116988977D01*
X126025118Y-116988983D01*
X126107849Y-117047777D01*
X126144329Y-117096897D01*
X126149500Y-117128474D01*
X126149500Y-118221976D01*
X126147598Y-118241290D01*
X126144592Y-118256402D01*
X126146494Y-118265964D01*
X126146494Y-118265966D01*
X126147532Y-118271184D01*
X126140342Y-118331946D01*
X126098810Y-118376876D01*
X126050435Y-118389500D01*
X123202426Y-118389500D01*
X123183112Y-118387598D01*
X123177562Y-118386494D01*
X123168000Y-118384592D01*
X123070259Y-118404034D01*
X123057495Y-118412563D01*
X123052224Y-118416085D01*
X123052222Y-118416086D01*
X123012723Y-118442478D01*
X122987399Y-118459399D01*
X122981981Y-118467508D01*
X122981980Y-118467509D01*
X122978839Y-118472210D01*
X122966527Y-118487213D01*
X121476718Y-119977022D01*
X121422201Y-120004799D01*
X121361769Y-119995228D01*
X121318504Y-119951963D01*
X121310825Y-119903487D01*
X121308273Y-119903487D01*
X121308273Y-119895697D01*
X121309492Y-119888000D01*
X121308245Y-119880126D01*
X121290865Y-119770391D01*
X121290865Y-119770390D01*
X121289646Y-119762696D01*
X121232050Y-119649658D01*
X121142342Y-119559950D01*
X121135405Y-119556415D01*
X121135403Y-119556414D01*
X121036244Y-119505890D01*
X121036243Y-119505890D01*
X121029304Y-119502354D01*
X121021610Y-119501135D01*
X121021609Y-119501135D01*
X120911697Y-119483727D01*
X120904000Y-119482508D01*
X120896303Y-119483727D01*
X120896302Y-119483727D01*
X120869485Y-119487974D01*
X120809053Y-119478402D01*
X120765789Y-119435137D01*
X120754999Y-119390193D01*
X120754999Y-119328659D01*
X120773906Y-119270468D01*
X120809053Y-119240450D01*
X120847465Y-119220878D01*
X120881403Y-119203586D01*
X120881405Y-119203585D01*
X120888342Y-119200050D01*
X120978050Y-119110342D01*
X120998606Y-119070000D01*
X121032110Y-119004244D01*
X121032110Y-119004243D01*
X121035646Y-118997304D01*
X121041568Y-118959917D01*
X121054273Y-118879697D01*
X121055492Y-118872000D01*
X121042371Y-118789154D01*
X121036865Y-118754391D01*
X121036865Y-118754390D01*
X121035646Y-118746696D01*
X121003917Y-118684424D01*
X120981586Y-118640597D01*
X120981585Y-118640595D01*
X120978050Y-118633658D01*
X120888342Y-118543950D01*
X120881405Y-118540415D01*
X120881403Y-118540414D01*
X120782244Y-118489890D01*
X120782243Y-118489890D01*
X120775304Y-118486354D01*
X120767610Y-118485135D01*
X120767609Y-118485135D01*
X120657697Y-118467727D01*
X120650000Y-118466508D01*
X120642303Y-118467727D01*
X120532391Y-118485135D01*
X120532390Y-118485135D01*
X120524696Y-118486354D01*
X120517757Y-118489890D01*
X120517756Y-118489890D01*
X120418597Y-118540414D01*
X120418595Y-118540415D01*
X120411658Y-118543950D01*
X120321950Y-118633658D01*
X120318415Y-118640595D01*
X120318414Y-118640597D01*
X120296083Y-118684424D01*
X120264354Y-118746696D01*
X120263135Y-118754390D01*
X120263135Y-118754391D01*
X120257629Y-118789154D01*
X120244508Y-118872000D01*
X120245727Y-118879697D01*
X120256603Y-118948367D01*
X120255920Y-118983167D01*
X120249091Y-119017501D01*
X120250993Y-119027063D01*
X120252097Y-119032613D01*
X120253999Y-119051927D01*
X120253999Y-131382733D01*
X120235092Y-131440924D01*
X120225003Y-131452737D01*
X119469398Y-132208342D01*
X119414881Y-132236119D01*
X119352307Y-132225423D01*
X119285309Y-132189197D01*
X119285308Y-132189197D01*
X119281055Y-132186897D01*
X119217855Y-132167333D01*
X119088875Y-132127407D01*
X119088871Y-132127406D01*
X119084254Y-132125977D01*
X119079446Y-132125472D01*
X119079443Y-132125471D01*
X118884185Y-132104949D01*
X118884183Y-132104949D01*
X118879369Y-132104443D01*
X118819354Y-132109905D01*
X118679022Y-132122675D01*
X118679017Y-132122676D01*
X118674203Y-132123114D01*
X118476572Y-132181280D01*
X118472288Y-132183519D01*
X118472287Y-132183520D01*
X118404528Y-132218944D01*
X118294002Y-132276726D01*
X118290231Y-132279758D01*
X118137220Y-132402781D01*
X118137217Y-132402783D01*
X118133447Y-132405815D01*
X118130333Y-132409526D01*
X118130332Y-132409527D01*
X118079734Y-132469828D01*
X118001024Y-132563630D01*
X117998689Y-132567878D01*
X117998688Y-132567879D01*
X117992053Y-132579948D01*
X117901776Y-132744162D01*
X117839484Y-132940532D01*
X117838944Y-132945344D01*
X117838944Y-132945345D01*
X117837865Y-132954970D01*
X117816520Y-133145262D01*
X117816925Y-133150082D01*
X117830537Y-133312180D01*
X117833759Y-133350553D01*
X117835092Y-133355201D01*
X117835092Y-133355202D01*
X117873443Y-133488946D01*
X117890544Y-133548586D01*
X117984712Y-133731818D01*
X118112677Y-133893270D01*
X118116357Y-133896402D01*
X118116359Y-133896404D01*
X118229017Y-133992283D01*
X118269564Y-134026791D01*
X118273787Y-134029151D01*
X118273791Y-134029154D01*
X118313342Y-134051258D01*
X118449398Y-134127297D01*
X118453996Y-134128791D01*
X118640724Y-134189463D01*
X118640726Y-134189464D01*
X118645329Y-134190959D01*
X118849894Y-134215351D01*
X118854716Y-134214980D01*
X118854719Y-134214980D01*
X118922541Y-134209761D01*
X119055300Y-134199546D01*
X119253725Y-134144145D01*
X119258038Y-134141966D01*
X119258044Y-134141964D01*
X119433289Y-134053441D01*
X119433291Y-134053440D01*
X119437610Y-134051258D01*
X119479206Y-134018760D01*
X119596135Y-133927406D01*
X119596139Y-133927402D01*
X119599951Y-133924424D01*
X119734564Y-133768472D01*
X119753231Y-133735613D01*
X119833934Y-133593550D01*
X119833935Y-133593547D01*
X119836323Y-133589344D01*
X119849882Y-133548586D01*
X119899824Y-133398454D01*
X119899824Y-133398452D01*
X119901351Y-133393863D01*
X119906710Y-133351446D01*
X119926823Y-133192228D01*
X119927171Y-133189474D01*
X119927583Y-133160000D01*
X119907480Y-132954970D01*
X119847935Y-132757749D01*
X119806156Y-132679174D01*
X119795532Y-132618921D01*
X119823565Y-132562695D01*
X120484496Y-131901764D01*
X120539013Y-131873987D01*
X120599445Y-131883558D01*
X120642710Y-131926823D01*
X120653500Y-131971768D01*
X120653500Y-133523232D01*
X120634593Y-133581423D01*
X120624504Y-133593236D01*
X119469398Y-134748342D01*
X119414881Y-134776119D01*
X119352307Y-134765423D01*
X119285309Y-134729197D01*
X119285308Y-134729197D01*
X119281055Y-134726897D01*
X119217855Y-134707333D01*
X119088875Y-134667407D01*
X119088871Y-134667406D01*
X119084254Y-134665977D01*
X119079446Y-134665472D01*
X119079443Y-134665471D01*
X118884185Y-134644949D01*
X118884183Y-134644949D01*
X118879369Y-134644443D01*
X118823855Y-134649495D01*
X118679022Y-134662675D01*
X118679017Y-134662676D01*
X118674203Y-134663114D01*
X118476572Y-134721280D01*
X118472288Y-134723519D01*
X118472287Y-134723520D01*
X118404528Y-134758944D01*
X118294002Y-134816726D01*
X118290231Y-134819758D01*
X118137220Y-134942781D01*
X118137217Y-134942783D01*
X118133447Y-134945815D01*
X118130333Y-134949526D01*
X118130332Y-134949527D01*
X118079734Y-135009828D01*
X118001024Y-135103630D01*
X117998689Y-135107878D01*
X117998688Y-135107879D01*
X117985746Y-135131420D01*
X117901776Y-135284162D01*
X117900313Y-135288775D01*
X117900311Y-135288779D01*
X117852932Y-135438139D01*
X117839484Y-135480532D01*
X117838944Y-135485344D01*
X117838944Y-135485345D01*
X117821423Y-135641554D01*
X117816520Y-135685262D01*
X117816925Y-135690082D01*
X117832809Y-135879236D01*
X117833759Y-135890553D01*
X117890544Y-136088586D01*
X117984712Y-136271818D01*
X118112677Y-136433270D01*
X118116357Y-136436402D01*
X118116359Y-136436404D01*
X118229017Y-136532283D01*
X118269564Y-136566791D01*
X118273787Y-136569151D01*
X118273791Y-136569154D01*
X118313342Y-136591258D01*
X118449398Y-136667297D01*
X118453996Y-136668791D01*
X118640724Y-136729463D01*
X118640726Y-136729464D01*
X118645329Y-136730959D01*
X118849894Y-136755351D01*
X118854716Y-136754980D01*
X118854719Y-136754980D01*
X118922541Y-136749761D01*
X119055300Y-136739546D01*
X119253725Y-136684145D01*
X119258038Y-136681966D01*
X119258044Y-136681964D01*
X119433289Y-136593441D01*
X119433291Y-136593440D01*
X119437610Y-136591258D01*
X119477570Y-136560038D01*
X119596135Y-136467406D01*
X119596139Y-136467402D01*
X119599951Y-136464424D01*
X119734564Y-136308472D01*
X119753231Y-136275613D01*
X119833934Y-136133550D01*
X119833935Y-136133547D01*
X119836323Y-136129344D01*
X119849882Y-136088586D01*
X119899824Y-135938454D01*
X119899824Y-135938452D01*
X119901351Y-135933863D01*
X119927171Y-135729474D01*
X119927583Y-135700000D01*
X119927240Y-135696500D01*
X119907952Y-135499780D01*
X119907951Y-135499776D01*
X119907480Y-135494970D01*
X119901155Y-135474019D01*
X119857481Y-135329367D01*
X119847935Y-135297749D01*
X119806156Y-135219174D01*
X119795532Y-135158921D01*
X119823565Y-135102695D01*
X120738496Y-134187764D01*
X120793013Y-134159987D01*
X120853445Y-134169558D01*
X120896710Y-134212823D01*
X120907500Y-134257768D01*
X120907500Y-135809232D01*
X120888593Y-135867423D01*
X120878504Y-135879236D01*
X119469398Y-137288342D01*
X119414881Y-137316119D01*
X119352307Y-137305423D01*
X119285309Y-137269197D01*
X119285308Y-137269197D01*
X119281055Y-137266897D01*
X119217855Y-137247333D01*
X119088875Y-137207407D01*
X119088871Y-137207406D01*
X119084254Y-137205977D01*
X119079446Y-137205472D01*
X119079443Y-137205471D01*
X118884185Y-137184949D01*
X118884183Y-137184949D01*
X118879369Y-137184443D01*
X118819354Y-137189905D01*
X118679022Y-137202675D01*
X118679017Y-137202676D01*
X118674203Y-137203114D01*
X118476572Y-137261280D01*
X118472288Y-137263519D01*
X118472287Y-137263520D01*
X118404528Y-137298944D01*
X118294002Y-137356726D01*
X118290231Y-137359758D01*
X118137220Y-137482781D01*
X118137217Y-137482783D01*
X118133447Y-137485815D01*
X118001024Y-137643630D01*
X117901776Y-137824162D01*
X117839484Y-138020532D01*
X117838944Y-138025344D01*
X117838944Y-138025345D01*
X117832617Y-138081757D01*
X117816520Y-138225262D01*
X117816925Y-138230082D01*
X117830940Y-138396978D01*
X117833759Y-138430553D01*
X117835092Y-138435201D01*
X117835092Y-138435202D01*
X117864873Y-138539059D01*
X117890544Y-138628586D01*
X117984712Y-138811818D01*
X118112677Y-138973270D01*
X118116357Y-138976402D01*
X118116359Y-138976404D01*
X118171482Y-139023317D01*
X118269564Y-139106791D01*
X118273787Y-139109151D01*
X118273791Y-139109154D01*
X118313342Y-139131258D01*
X118449398Y-139207297D01*
X118453996Y-139208791D01*
X118640724Y-139269463D01*
X118640726Y-139269464D01*
X118645329Y-139270959D01*
X118849894Y-139295351D01*
X118854716Y-139294980D01*
X118854719Y-139294980D01*
X118922541Y-139289761D01*
X119055300Y-139279546D01*
X119253725Y-139224145D01*
X119258038Y-139221966D01*
X119258044Y-139221964D01*
X119433289Y-139133441D01*
X119433291Y-139133440D01*
X119437610Y-139131258D01*
X119562358Y-139033795D01*
X119596135Y-139007406D01*
X119596139Y-139007402D01*
X119599951Y-139004424D01*
X119608371Y-138994670D01*
X119659313Y-138935651D01*
X119734564Y-138848472D01*
X119736957Y-138844260D01*
X119833934Y-138673550D01*
X119833935Y-138673547D01*
X119836323Y-138669344D01*
X119849882Y-138628586D01*
X119899824Y-138478454D01*
X119899824Y-138478452D01*
X119901351Y-138473863D01*
X119905349Y-138442220D01*
X119926823Y-138272228D01*
X119927171Y-138269474D01*
X119927583Y-138240000D01*
X119912876Y-138090000D01*
X119907952Y-138039780D01*
X119907951Y-138039776D01*
X119907480Y-138034970D01*
X119847935Y-137837749D01*
X119806156Y-137759174D01*
X119795532Y-137698921D01*
X119823565Y-137642695D01*
X120888016Y-136578244D01*
X120942533Y-136550467D01*
X121002965Y-136560038D01*
X121046230Y-136603303D01*
X121057020Y-136648248D01*
X121057020Y-138199712D01*
X121038113Y-138257903D01*
X121028024Y-138269716D01*
X119469398Y-139828342D01*
X119414881Y-139856119D01*
X119352307Y-139845423D01*
X119285309Y-139809197D01*
X119285308Y-139809197D01*
X119281055Y-139806897D01*
X119217855Y-139787333D01*
X119088875Y-139747407D01*
X119088871Y-139747406D01*
X119084254Y-139745977D01*
X119079446Y-139745472D01*
X119079443Y-139745471D01*
X118884185Y-139724949D01*
X118884183Y-139724949D01*
X118879369Y-139724443D01*
X118819354Y-139729905D01*
X118679022Y-139742675D01*
X118679017Y-139742676D01*
X118674203Y-139743114D01*
X118476572Y-139801280D01*
X118472288Y-139803519D01*
X118472287Y-139803520D01*
X118404528Y-139838944D01*
X118294002Y-139896726D01*
X118290231Y-139899758D01*
X118137220Y-140022781D01*
X118137217Y-140022783D01*
X118133447Y-140025815D01*
X118130333Y-140029526D01*
X118130332Y-140029527D01*
X118079734Y-140089828D01*
X118001024Y-140183630D01*
X117998689Y-140187878D01*
X117998688Y-140187879D01*
X117973061Y-140234494D01*
X117901776Y-140364162D01*
X117839484Y-140560532D01*
X117838944Y-140565344D01*
X117838944Y-140565345D01*
X117837865Y-140574970D01*
X117816520Y-140765262D01*
X117833759Y-140970553D01*
X117890544Y-141168586D01*
X117984712Y-141351818D01*
X118112677Y-141513270D01*
X118116357Y-141516402D01*
X118116359Y-141516404D01*
X118229017Y-141612283D01*
X118269564Y-141646791D01*
X118273787Y-141649151D01*
X118273791Y-141649154D01*
X118313342Y-141671258D01*
X118449398Y-141747297D01*
X118453996Y-141748791D01*
X118640724Y-141809463D01*
X118640726Y-141809464D01*
X118645329Y-141810959D01*
X118849894Y-141835351D01*
X118854716Y-141834980D01*
X118854719Y-141834980D01*
X118922541Y-141829761D01*
X119055300Y-141819546D01*
X119253725Y-141764145D01*
X119258038Y-141761966D01*
X119258044Y-141761964D01*
X119433289Y-141673441D01*
X119433291Y-141673440D01*
X119437610Y-141671258D01*
X119472943Y-141643653D01*
X119596135Y-141547406D01*
X119596139Y-141547402D01*
X119599951Y-141544424D01*
X119734564Y-141388472D01*
X119753231Y-141355613D01*
X119833934Y-141213550D01*
X119833935Y-141213547D01*
X119836323Y-141209344D01*
X119849882Y-141168586D01*
X119899824Y-141018454D01*
X119899824Y-141018452D01*
X119901351Y-141013863D01*
X119927171Y-140809474D01*
X119927583Y-140780000D01*
X119907480Y-140574970D01*
X119847935Y-140377749D01*
X119806156Y-140299174D01*
X119795532Y-140238921D01*
X119823565Y-140182695D01*
X121460307Y-138545953D01*
X121475310Y-138533641D01*
X121480011Y-138530500D01*
X121480012Y-138530499D01*
X121488121Y-138525081D01*
X121543486Y-138442220D01*
X121558020Y-138369154D01*
X121558020Y-138369153D01*
X121562928Y-138344480D01*
X121561026Y-138334918D01*
X121561026Y-138334914D01*
X121559923Y-138329369D01*
X121558020Y-138310054D01*
X121558020Y-135125639D01*
X123829000Y-135125639D01*
X123829346Y-135131485D01*
X123831234Y-135147353D01*
X123835128Y-135161519D01*
X123873770Y-135248514D01*
X123883946Y-135263321D01*
X123950108Y-135329367D01*
X123964931Y-135339517D01*
X124051980Y-135378000D01*
X124066185Y-135381873D01*
X124081580Y-135383668D01*
X124087292Y-135384000D01*
X124863320Y-135384000D01*
X124876005Y-135379878D01*
X124879000Y-135375757D01*
X124879000Y-135368320D01*
X125179000Y-135368320D01*
X125183122Y-135381005D01*
X125187243Y-135384000D01*
X125970639Y-135384000D01*
X125976485Y-135383654D01*
X125992353Y-135381766D01*
X126006519Y-135377872D01*
X126093514Y-135339230D01*
X126108321Y-135329054D01*
X126174367Y-135262892D01*
X126184517Y-135248069D01*
X126223000Y-135161020D01*
X126226873Y-135146815D01*
X126228668Y-135131420D01*
X126229000Y-135125708D01*
X126229000Y-134574680D01*
X126224878Y-134561995D01*
X126220757Y-134559000D01*
X125194680Y-134559000D01*
X125181995Y-134563122D01*
X125179000Y-134567243D01*
X125179000Y-135368320D01*
X124879000Y-135368320D01*
X124879000Y-134574680D01*
X124874878Y-134561995D01*
X124870757Y-134559000D01*
X123844680Y-134559000D01*
X123831995Y-134563122D01*
X123829000Y-134567243D01*
X123829000Y-135125639D01*
X121558020Y-135125639D01*
X121558020Y-134243320D01*
X123829000Y-134243320D01*
X123833122Y-134256005D01*
X123837243Y-134259000D01*
X124863320Y-134259000D01*
X124876005Y-134254878D01*
X124879000Y-134250757D01*
X124879000Y-134243320D01*
X125179000Y-134243320D01*
X125183122Y-134256005D01*
X125187243Y-134259000D01*
X126213320Y-134259000D01*
X126226005Y-134254878D01*
X126229000Y-134250757D01*
X126229000Y-133692361D01*
X126228654Y-133686515D01*
X126226766Y-133670647D01*
X126222872Y-133656481D01*
X126184230Y-133569486D01*
X126174054Y-133554679D01*
X126107892Y-133488633D01*
X126093069Y-133478483D01*
X126006020Y-133440000D01*
X125991815Y-133436127D01*
X125976420Y-133434332D01*
X125970708Y-133434000D01*
X125194680Y-133434000D01*
X125181995Y-133438122D01*
X125179000Y-133442243D01*
X125179000Y-134243320D01*
X124879000Y-134243320D01*
X124879000Y-133449680D01*
X124874878Y-133436995D01*
X124870757Y-133434000D01*
X124087361Y-133434000D01*
X124081515Y-133434346D01*
X124065647Y-133436234D01*
X124051481Y-133440128D01*
X123964486Y-133478770D01*
X123949679Y-133488946D01*
X123883633Y-133555108D01*
X123873483Y-133569931D01*
X123835000Y-133656980D01*
X123831127Y-133671185D01*
X123829332Y-133686580D01*
X123829000Y-133692292D01*
X123829000Y-134243320D01*
X121558020Y-134243320D01*
X121558020Y-126594649D01*
X122289338Y-126594649D01*
X122289556Y-126599285D01*
X122291649Y-126621423D01*
X122294217Y-126633125D01*
X122333107Y-126743867D01*
X122339954Y-126756800D01*
X122408873Y-126850108D01*
X122419230Y-126860465D01*
X122512538Y-126929384D01*
X122525471Y-126936231D01*
X122636213Y-126975121D01*
X122647915Y-126977689D01*
X122670053Y-126979782D01*
X122674689Y-126980000D01*
X122743658Y-126980000D01*
X122756343Y-126975878D01*
X122759338Y-126971757D01*
X122759338Y-126575680D01*
X122755216Y-126562995D01*
X122751095Y-126560000D01*
X122305018Y-126560000D01*
X122292333Y-126564122D01*
X122289338Y-126568243D01*
X122289338Y-126594649D01*
X121558020Y-126594649D01*
X121558020Y-122657248D01*
X121576927Y-122599057D01*
X121587016Y-122587244D01*
X122033239Y-122141021D01*
X122087756Y-122113244D01*
X122148188Y-122122815D01*
X122180180Y-122148722D01*
X122209614Y-122185070D01*
X122215111Y-122188977D01*
X122215118Y-122188983D01*
X122297849Y-122247777D01*
X122334329Y-122296897D01*
X122339500Y-122328474D01*
X122339500Y-125036236D01*
X122337598Y-125055550D01*
X122334592Y-125070662D01*
X122354034Y-125168403D01*
X122372153Y-125195519D01*
X122388838Y-125250520D01*
X122388838Y-125564316D01*
X122389261Y-125567529D01*
X122392942Y-125595486D01*
X122395270Y-125613173D01*
X122398473Y-125620041D01*
X122398473Y-125620042D01*
X122441252Y-125711780D01*
X122445273Y-125720404D01*
X122490436Y-125765567D01*
X122518213Y-125820084D01*
X122508642Y-125880516D01*
X122479250Y-125915204D01*
X122419230Y-125959535D01*
X122408873Y-125969892D01*
X122339954Y-126063200D01*
X122333107Y-126076133D01*
X122294217Y-126186875D01*
X122291649Y-126198577D01*
X122289556Y-126220715D01*
X122289338Y-126225351D01*
X122289338Y-126244320D01*
X122293460Y-126257005D01*
X122297581Y-126260000D01*
X122960338Y-126260000D01*
X123018529Y-126278907D01*
X123054493Y-126328407D01*
X123059338Y-126359000D01*
X123059338Y-126964320D01*
X123063460Y-126977005D01*
X123067581Y-126980000D01*
X123143987Y-126980000D01*
X123148623Y-126979782D01*
X123170761Y-126977689D01*
X123182463Y-126975121D01*
X123293205Y-126936231D01*
X123306138Y-126929384D01*
X123399446Y-126860465D01*
X123409803Y-126850108D01*
X123469758Y-126768935D01*
X123519539Y-126733361D01*
X123580722Y-126733842D01*
X123619395Y-126757749D01*
X123685711Y-126824065D01*
X123693558Y-126827724D01*
X123693561Y-126827726D01*
X123785142Y-126870431D01*
X123792942Y-126874068D01*
X123841799Y-126880500D01*
X124060267Y-126880500D01*
X124118458Y-126899407D01*
X124154422Y-126948907D01*
X124154422Y-127010093D01*
X124138810Y-127039766D01*
X124131517Y-127049271D01*
X124125464Y-127057159D01*
X124064956Y-127203238D01*
X124044318Y-127360000D01*
X124064956Y-127516762D01*
X124125464Y-127662841D01*
X124221718Y-127788282D01*
X124347159Y-127884536D01*
X124493238Y-127945044D01*
X124650000Y-127965682D01*
X124806762Y-127945044D01*
X124952841Y-127884536D01*
X125078282Y-127788282D01*
X125174536Y-127662841D01*
X125235044Y-127516762D01*
X125255682Y-127360000D01*
X125235044Y-127203238D01*
X125174536Y-127057159D01*
X125168484Y-127049271D01*
X125161190Y-127039766D01*
X125140767Y-126982090D01*
X125158145Y-126923425D01*
X125206687Y-126886178D01*
X125239733Y-126880500D01*
X125447208Y-126880500D01*
X125496065Y-126874068D01*
X125503865Y-126870431D01*
X125595446Y-126827726D01*
X125595449Y-126827724D01*
X125603296Y-126824065D01*
X125686957Y-126740404D01*
X125709649Y-126691741D01*
X125711557Y-126687650D01*
X125753286Y-126642902D01*
X125813347Y-126631228D01*
X125868800Y-126657087D01*
X125891002Y-126687646D01*
X125915604Y-126740404D01*
X125999265Y-126824065D01*
X126072010Y-126857987D01*
X126116757Y-126899714D01*
X126129169Y-126947710D01*
X126129169Y-127475563D01*
X126110262Y-127533754D01*
X126100173Y-127545567D01*
X124876213Y-128769527D01*
X124861210Y-128781839D01*
X124848399Y-128790399D01*
X124824369Y-128826363D01*
X124812945Y-128843461D01*
X124812942Y-128843463D01*
X124812943Y-128843464D01*
X124793034Y-128873259D01*
X124773592Y-128971000D01*
X124775494Y-128980562D01*
X124776598Y-128986112D01*
X124778500Y-129005426D01*
X124778500Y-129284500D01*
X124759593Y-129342691D01*
X124710093Y-129378655D01*
X124679500Y-129383500D01*
X124109252Y-129383500D01*
X124083005Y-129388721D01*
X124060334Y-129393230D01*
X124060332Y-129393231D01*
X124050769Y-129395133D01*
X123984448Y-129439448D01*
X123940133Y-129505769D01*
X123928500Y-129564252D01*
X123928500Y-130953748D01*
X123940133Y-131012231D01*
X123984448Y-131078552D01*
X124050769Y-131122867D01*
X124060332Y-131124769D01*
X124060334Y-131124770D01*
X124083005Y-131129279D01*
X124109252Y-131134500D01*
X125948748Y-131134500D01*
X125974995Y-131129279D01*
X125997666Y-131124770D01*
X125997668Y-131124769D01*
X126007231Y-131122867D01*
X126073552Y-131078552D01*
X126117867Y-131012231D01*
X126129500Y-130953748D01*
X126129500Y-129564252D01*
X126117867Y-129505769D01*
X126073552Y-129439448D01*
X126007231Y-129395133D01*
X125997668Y-129393231D01*
X125997666Y-129393230D01*
X125974995Y-129388721D01*
X125948748Y-129383500D01*
X125378500Y-129383500D01*
X125320309Y-129364593D01*
X125284345Y-129315093D01*
X125279500Y-129284500D01*
X125279500Y-129115768D01*
X125298407Y-129057577D01*
X125308496Y-129045764D01*
X126379685Y-127974575D01*
X126434202Y-127946798D01*
X126494634Y-127956369D01*
X126537899Y-127999634D01*
X126548689Y-128044579D01*
X126548689Y-149458043D01*
X126529782Y-149516234D01*
X126519693Y-149528047D01*
X125555836Y-150491904D01*
X125501319Y-150519681D01*
X125461716Y-150517917D01*
X125376659Y-150496552D01*
X125316231Y-150481373D01*
X125316228Y-150481373D01*
X125310441Y-150479919D01*
X125224841Y-150479471D01*
X125146861Y-150479062D01*
X125146859Y-150479062D01*
X125140895Y-150479031D01*
X125135099Y-150480423D01*
X125135095Y-150480423D01*
X125054879Y-150499682D01*
X124976032Y-150518612D01*
X124927700Y-150543558D01*
X124830675Y-150593636D01*
X124830673Y-150593638D01*
X124825369Y-150596375D01*
X124697604Y-150707831D01*
X124694174Y-150712712D01*
X124694170Y-150712716D01*
X124668236Y-150749616D01*
X124619307Y-150786353D01*
X124558129Y-150787313D01*
X124505653Y-150748766D01*
X124481312Y-150713349D01*
X124354721Y-150600560D01*
X124348098Y-150597053D01*
X124288776Y-150565644D01*
X124204881Y-150521224D01*
X124106659Y-150496552D01*
X124046231Y-150481373D01*
X124046228Y-150481373D01*
X124040441Y-150479919D01*
X123974630Y-150479574D01*
X123885859Y-150479109D01*
X123827768Y-150459897D01*
X123816374Y-150450114D01*
X119824181Y-146457921D01*
X119796404Y-146403404D01*
X119808105Y-146339017D01*
X119833934Y-146293550D01*
X119833935Y-146293547D01*
X119836323Y-146289344D01*
X119849882Y-146248586D01*
X119899824Y-146098454D01*
X119899824Y-146098452D01*
X119901351Y-146093863D01*
X119927171Y-145889474D01*
X119927583Y-145860000D01*
X119927313Y-145857244D01*
X119907952Y-145659780D01*
X119907951Y-145659776D01*
X119907480Y-145654970D01*
X119904152Y-145643945D01*
X119849333Y-145462380D01*
X119847935Y-145457749D01*
X119751218Y-145275849D01*
X119621011Y-145116200D01*
X119504404Y-145019734D01*
X119466002Y-144987965D01*
X119466000Y-144987964D01*
X119462275Y-144984882D01*
X119281055Y-144886897D01*
X119217855Y-144867333D01*
X119088875Y-144827407D01*
X119088871Y-144827406D01*
X119084254Y-144825977D01*
X119079446Y-144825472D01*
X119079443Y-144825471D01*
X118884185Y-144804949D01*
X118884183Y-144804949D01*
X118879369Y-144804443D01*
X118819354Y-144809905D01*
X118679022Y-144822675D01*
X118679017Y-144822676D01*
X118674203Y-144823114D01*
X118476572Y-144881280D01*
X118472288Y-144883519D01*
X118472287Y-144883520D01*
X118404528Y-144918944D01*
X118294002Y-144976726D01*
X118290231Y-144979758D01*
X118290225Y-144979762D01*
X118267534Y-144998006D01*
X118210337Y-145019734D01*
X118151292Y-145003692D01*
X118112952Y-144956008D01*
X118106500Y-144920852D01*
X118106500Y-144480768D01*
X118125407Y-144422577D01*
X118135496Y-144410764D01*
X118274294Y-144271966D01*
X118328811Y-144244189D01*
X118392595Y-144255551D01*
X118449398Y-144287297D01*
X118453996Y-144288791D01*
X118640724Y-144349463D01*
X118640726Y-144349464D01*
X118645329Y-144350959D01*
X118849894Y-144375351D01*
X118854716Y-144374980D01*
X118854719Y-144374980D01*
X118922541Y-144369761D01*
X119055300Y-144359546D01*
X119253725Y-144304145D01*
X119258038Y-144301966D01*
X119258044Y-144301964D01*
X119433289Y-144213441D01*
X119433291Y-144213440D01*
X119437610Y-144211258D01*
X119516043Y-144149980D01*
X119596135Y-144087406D01*
X119596139Y-144087402D01*
X119599951Y-144084424D01*
X119734564Y-143928472D01*
X119753231Y-143895613D01*
X119833934Y-143753550D01*
X119833935Y-143753547D01*
X119836323Y-143749344D01*
X119848448Y-143712897D01*
X119899824Y-143558454D01*
X119899824Y-143558452D01*
X119901351Y-143553863D01*
X119927171Y-143349474D01*
X119927583Y-143320000D01*
X119907480Y-143114970D01*
X119847935Y-142917749D01*
X119751218Y-142735849D01*
X119621011Y-142576200D01*
X119462275Y-142444882D01*
X119281055Y-142346897D01*
X119217855Y-142327333D01*
X119088875Y-142287407D01*
X119088871Y-142287406D01*
X119084254Y-142285977D01*
X119079446Y-142285472D01*
X119079443Y-142285471D01*
X118884185Y-142264949D01*
X118884183Y-142264949D01*
X118879369Y-142264443D01*
X118819354Y-142269905D01*
X118679022Y-142282675D01*
X118679017Y-142282676D01*
X118674203Y-142283114D01*
X118476572Y-142341280D01*
X118472288Y-142343519D01*
X118472287Y-142343520D01*
X118461428Y-142349197D01*
X118294002Y-142436726D01*
X118290231Y-142439758D01*
X118137220Y-142562781D01*
X118137217Y-142562783D01*
X118133447Y-142565815D01*
X118130333Y-142569526D01*
X118130332Y-142569527D01*
X118079734Y-142629828D01*
X118001024Y-142723630D01*
X117998689Y-142727878D01*
X117998688Y-142727879D01*
X117991955Y-142740126D01*
X117901776Y-142904162D01*
X117839484Y-143100532D01*
X117838944Y-143105344D01*
X117838944Y-143105345D01*
X117837865Y-143114970D01*
X117816520Y-143305262D01*
X117833759Y-143510553D01*
X117890544Y-143708586D01*
X117892760Y-143712897D01*
X117938545Y-143801987D01*
X117948328Y-143862385D01*
X117920497Y-143917243D01*
X117703213Y-144134527D01*
X117688210Y-144146839D01*
X117675399Y-144155399D01*
X117669981Y-144163508D01*
X117669979Y-144163510D01*
X117654425Y-144186789D01*
X117654424Y-144186791D01*
X117620034Y-144238259D01*
X117618132Y-144247822D01*
X117618131Y-144247824D01*
X117602494Y-144326438D01*
X117600592Y-144336000D01*
X117602494Y-144345562D01*
X117603598Y-144351112D01*
X117605500Y-144370426D01*
X117605500Y-146591980D01*
X117603598Y-146611294D01*
X117600592Y-146626406D01*
X117620034Y-146724147D01*
X117621801Y-146726791D01*
X117675399Y-146807007D01*
X117683508Y-146812425D01*
X117683509Y-146812426D01*
X117688213Y-146815569D01*
X117703216Y-146827882D01*
X118094122Y-147218789D01*
X118106432Y-147233788D01*
X118114993Y-147246601D01*
X118135910Y-147260577D01*
X118135911Y-147260578D01*
X118136829Y-147261191D01*
X118195020Y-147300073D01*
X118232901Y-147348122D01*
X118235303Y-147409260D01*
X118198207Y-147462484D01*
X118189742Y-147468633D01*
X118037657Y-147602010D01*
X118031434Y-147608568D01*
X117906209Y-147767415D01*
X117901284Y-147774998D01*
X117807097Y-147954018D01*
X117803643Y-147962358D01*
X117743658Y-148155538D01*
X117741777Y-148164389D01*
X117733487Y-148234428D01*
X117736090Y-148247511D01*
X117737663Y-148248965D01*
X117742378Y-148250000D01*
X119997462Y-148250000D01*
X120020813Y-148242413D01*
X120081999Y-148242413D01*
X120121409Y-148266564D01*
X122300010Y-150445165D01*
X122327787Y-150499682D01*
X122318216Y-150560114D01*
X122286978Y-150595545D01*
X122285369Y-150596375D01*
X122157604Y-150707831D01*
X122154173Y-150712713D01*
X122154172Y-150712714D01*
X122109780Y-150775878D01*
X122060113Y-150846547D01*
X122057945Y-150852108D01*
X122011112Y-150972228D01*
X121998524Y-151004513D01*
X121976394Y-151172611D01*
X121977049Y-151178544D01*
X121977049Y-151178548D01*
X121994089Y-151332896D01*
X121994999Y-151341135D01*
X122053266Y-151500356D01*
X122056591Y-151505305D01*
X122056592Y-151505306D01*
X122082768Y-151544260D01*
X122147830Y-151641083D01*
X122273233Y-151755191D01*
X122422235Y-151836092D01*
X122481680Y-151851687D01*
X122580464Y-151877603D01*
X122580468Y-151877604D01*
X122586233Y-151879116D01*
X122592194Y-151879210D01*
X122592197Y-151879210D01*
X122670965Y-151880447D01*
X122755760Y-151881779D01*
X122761575Y-151880447D01*
X122761577Y-151880447D01*
X122915206Y-151845262D01*
X122915209Y-151845261D01*
X122921029Y-151843928D01*
X122936610Y-151836092D01*
X123018530Y-151794890D01*
X123072498Y-151767747D01*
X123077035Y-151763872D01*
X123077038Y-151763870D01*
X123196888Y-151661508D01*
X123196891Y-151661505D01*
X123201423Y-151657634D01*
X123213316Y-151641083D01*
X123235879Y-151609684D01*
X123285189Y-151573461D01*
X123346374Y-151573140D01*
X123398446Y-151612237D01*
X123417830Y-151641083D01*
X123543233Y-151755191D01*
X123692235Y-151836092D01*
X123751680Y-151851687D01*
X123850464Y-151877603D01*
X123850468Y-151877604D01*
X123856233Y-151879116D01*
X123862194Y-151879210D01*
X123862197Y-151879210D01*
X123940965Y-151880447D01*
X124025760Y-151881779D01*
X124031575Y-151880447D01*
X124031577Y-151880447D01*
X124185206Y-151845262D01*
X124185209Y-151845261D01*
X124191029Y-151843928D01*
X124206610Y-151836092D01*
X124288530Y-151794890D01*
X124342498Y-151767747D01*
X124347035Y-151763872D01*
X124347038Y-151763870D01*
X124466888Y-151661508D01*
X124466891Y-151661505D01*
X124471423Y-151657634D01*
X124483316Y-151641083D01*
X124505879Y-151609684D01*
X124555189Y-151573461D01*
X124616374Y-151573140D01*
X124668446Y-151612237D01*
X124687830Y-151641083D01*
X124813233Y-151755191D01*
X124962235Y-151836092D01*
X125021680Y-151851687D01*
X125120464Y-151877603D01*
X125120468Y-151877604D01*
X125126233Y-151879116D01*
X125132194Y-151879210D01*
X125132197Y-151879210D01*
X125210965Y-151880447D01*
X125295760Y-151881779D01*
X125301575Y-151880447D01*
X125301577Y-151880447D01*
X125455206Y-151845262D01*
X125455209Y-151845261D01*
X125461029Y-151843928D01*
X125476610Y-151836092D01*
X125558530Y-151794890D01*
X125612498Y-151767747D01*
X125617035Y-151763872D01*
X125617038Y-151763870D01*
X125736888Y-151661508D01*
X125736891Y-151661505D01*
X125741423Y-151657634D01*
X125753316Y-151641083D01*
X125775879Y-151609684D01*
X125825189Y-151573461D01*
X125886374Y-151573140D01*
X125938446Y-151612237D01*
X125957830Y-151641083D01*
X126083233Y-151755191D01*
X126232235Y-151836092D01*
X126291680Y-151851687D01*
X126390464Y-151877603D01*
X126390468Y-151877604D01*
X126396233Y-151879116D01*
X126402194Y-151879210D01*
X126402197Y-151879210D01*
X126480965Y-151880447D01*
X126565760Y-151881779D01*
X126571575Y-151880447D01*
X126571577Y-151880447D01*
X126725206Y-151845262D01*
X126725209Y-151845261D01*
X126731029Y-151843928D01*
X126746610Y-151836092D01*
X126828530Y-151794890D01*
X126882498Y-151767747D01*
X126887035Y-151763872D01*
X126887038Y-151763870D01*
X126989494Y-151676363D01*
X126995205Y-151671486D01*
X127051732Y-151648071D01*
X127111227Y-151662354D01*
X127130715Y-151677995D01*
X127244990Y-151796330D01*
X127253463Y-151803340D01*
X127394390Y-151895560D01*
X127404198Y-151900514D01*
X127562051Y-151959219D01*
X127572727Y-151961880D01*
X127596456Y-151965046D01*
X127609576Y-151962638D01*
X127610783Y-151961371D01*
X127612000Y-151956015D01*
X127612000Y-151129000D01*
X127630907Y-151070809D01*
X127680407Y-151034845D01*
X127711000Y-151030000D01*
X127813000Y-151030000D01*
X127871191Y-151048907D01*
X127907155Y-151098407D01*
X127912000Y-151129000D01*
X127912000Y-151954020D01*
X127916122Y-151966705D01*
X127918437Y-151968388D01*
X127920703Y-151968642D01*
X127929138Y-151966910D01*
X128089310Y-151914868D01*
X128099333Y-151910321D01*
X128243989Y-151824088D01*
X128257157Y-151814093D01*
X128258687Y-151816109D01*
X128304757Y-151794071D01*
X128364930Y-151805154D01*
X128383980Y-151819362D01*
X128387448Y-151824552D01*
X128453769Y-151868867D01*
X128463332Y-151870769D01*
X128463334Y-151870770D01*
X128486005Y-151875279D01*
X128512252Y-151880500D01*
X129551748Y-151880500D01*
X129577995Y-151875279D01*
X129600666Y-151870770D01*
X129600668Y-151870769D01*
X129610231Y-151868867D01*
X129676552Y-151824552D01*
X129720867Y-151758231D01*
X129723866Y-151743157D01*
X129727279Y-151725995D01*
X129732500Y-151699748D01*
X129732500Y-151089405D01*
X131608564Y-151089405D01*
X131609661Y-151106145D01*
X131611074Y-151115064D01*
X131660866Y-151311121D01*
X131663886Y-151319649D01*
X131748570Y-151503341D01*
X131753088Y-151511167D01*
X131869837Y-151676363D01*
X131875701Y-151683229D01*
X132020597Y-151824381D01*
X132027620Y-151830068D01*
X132195804Y-151942446D01*
X132203759Y-151946764D01*
X132389595Y-152026606D01*
X132398206Y-152029404D01*
X132590496Y-152072914D01*
X132597833Y-152070840D01*
X132600453Y-152067514D01*
X132600666Y-152066317D01*
X132600666Y-152054679D01*
X132900666Y-152054679D01*
X132904788Y-152067364D01*
X132905958Y-152068215D01*
X132911938Y-152068725D01*
X133015781Y-152053668D01*
X133024580Y-152051556D01*
X133216116Y-151986538D01*
X133224380Y-151982858D01*
X133400860Y-151884026D01*
X133408318Y-151878900D01*
X133503488Y-151799748D01*
X134240166Y-151799748D01*
X134243487Y-151816442D01*
X134246829Y-151833243D01*
X134251799Y-151858231D01*
X134296114Y-151924552D01*
X134362435Y-151968867D01*
X134371998Y-151970769D01*
X134372000Y-151970770D01*
X134394671Y-151975279D01*
X134420918Y-151980500D01*
X136160414Y-151980500D01*
X136186661Y-151975279D01*
X136209332Y-151970770D01*
X136209334Y-151970769D01*
X136218897Y-151968867D01*
X136285218Y-151924552D01*
X136329533Y-151858231D01*
X136334504Y-151833243D01*
X136337845Y-151816442D01*
X136341166Y-151799748D01*
X136341166Y-150925262D01*
X138644520Y-150925262D01*
X138644925Y-150930082D01*
X138659060Y-151098407D01*
X138661759Y-151130553D01*
X138718544Y-151328586D01*
X138812712Y-151511818D01*
X138940677Y-151673270D01*
X138944357Y-151676402D01*
X138944359Y-151676404D01*
X139036934Y-151755191D01*
X139097564Y-151806791D01*
X139101787Y-151809151D01*
X139101791Y-151809154D01*
X139204114Y-151866340D01*
X139277398Y-151907297D01*
X139281996Y-151908791D01*
X139468724Y-151969463D01*
X139468726Y-151969464D01*
X139473329Y-151970959D01*
X139677894Y-151995351D01*
X139682716Y-151994980D01*
X139682719Y-151994980D01*
X139750541Y-151989761D01*
X139883300Y-151979546D01*
X140081725Y-151924145D01*
X140086038Y-151921966D01*
X140086044Y-151921964D01*
X140261289Y-151833441D01*
X140261291Y-151833440D01*
X140265610Y-151831258D01*
X140269427Y-151828276D01*
X140424135Y-151707406D01*
X140424139Y-151707402D01*
X140427951Y-151704424D01*
X140431988Y-151699748D01*
X140507524Y-151612237D01*
X140562564Y-151548472D01*
X140564957Y-151544260D01*
X140661934Y-151373550D01*
X140661935Y-151373547D01*
X140664323Y-151369344D01*
X140666556Y-151362634D01*
X140727824Y-151178454D01*
X140727824Y-151178452D01*
X140729351Y-151173863D01*
X140735019Y-151129000D01*
X140754823Y-150972228D01*
X140755171Y-150969474D01*
X140755583Y-150940000D01*
X140749643Y-150879416D01*
X140735952Y-150739780D01*
X140735951Y-150739776D01*
X140735480Y-150734970D01*
X140732183Y-150724048D01*
X140677333Y-150542380D01*
X140675935Y-150537749D01*
X140579218Y-150355849D01*
X140449011Y-150196200D01*
X140406268Y-150160840D01*
X140294002Y-150067965D01*
X140294000Y-150067964D01*
X140290275Y-150064882D01*
X140109055Y-149966897D01*
X139989954Y-149930029D01*
X139916875Y-149907407D01*
X139916871Y-149907406D01*
X139912254Y-149905977D01*
X139907446Y-149905472D01*
X139907443Y-149905471D01*
X139712185Y-149884949D01*
X139712183Y-149884949D01*
X139707369Y-149884443D01*
X139654767Y-149889230D01*
X139507022Y-149902675D01*
X139507017Y-149902676D01*
X139502203Y-149903114D01*
X139304572Y-149961280D01*
X139300288Y-149963519D01*
X139300287Y-149963520D01*
X139289428Y-149969197D01*
X139122002Y-150056726D01*
X139118231Y-150059758D01*
X138965220Y-150182781D01*
X138965217Y-150182783D01*
X138961447Y-150185815D01*
X138958333Y-150189526D01*
X138958332Y-150189527D01*
X138854549Y-150313211D01*
X138829024Y-150343630D01*
X138826689Y-150347878D01*
X138826688Y-150347879D01*
X138819955Y-150360126D01*
X138729776Y-150524162D01*
X138728313Y-150528775D01*
X138728311Y-150528779D01*
X138688117Y-150655488D01*
X138667484Y-150720532D01*
X138666944Y-150725344D01*
X138666944Y-150725345D01*
X138660814Y-150780000D01*
X138644520Y-150925262D01*
X136341166Y-150925262D01*
X136341166Y-150060252D01*
X136329533Y-150001769D01*
X136285218Y-149935448D01*
X136218897Y-149891133D01*
X136209334Y-149889231D01*
X136209332Y-149889230D01*
X136185264Y-149884443D01*
X136160414Y-149879500D01*
X134420918Y-149879500D01*
X134396068Y-149884443D01*
X134372000Y-149889230D01*
X134371998Y-149889231D01*
X134362435Y-149891133D01*
X134296114Y-149935448D01*
X134251799Y-150001769D01*
X134240166Y-150060252D01*
X134240166Y-151799748D01*
X133503488Y-151799748D01*
X133563823Y-151749568D01*
X133570234Y-151743157D01*
X133699566Y-151587652D01*
X133704692Y-151580194D01*
X133803524Y-151403714D01*
X133807204Y-151395450D01*
X133872222Y-151203914D01*
X133874334Y-151195115D01*
X133888775Y-151095518D01*
X133886516Y-151082372D01*
X133885481Y-151081363D01*
X133879634Y-151080000D01*
X132916346Y-151080000D01*
X132903661Y-151084122D01*
X132900666Y-151088243D01*
X132900666Y-152054679D01*
X132600666Y-152054679D01*
X132600666Y-151095680D01*
X132596544Y-151082995D01*
X132592423Y-151080000D01*
X131623628Y-151080000D01*
X131610943Y-151084122D01*
X131608868Y-151086978D01*
X131608564Y-151089405D01*
X129732500Y-151089405D01*
X129732500Y-150764428D01*
X131612153Y-150764428D01*
X131614756Y-150777511D01*
X131616329Y-150778965D01*
X131621044Y-150780000D01*
X132584986Y-150780000D01*
X132597671Y-150775878D01*
X132600666Y-150771757D01*
X132600666Y-150764320D01*
X132900666Y-150764320D01*
X132904788Y-150777005D01*
X132908909Y-150780000D01*
X133876130Y-150780000D01*
X133888815Y-150775878D01*
X133890484Y-150773582D01*
X133890888Y-150769966D01*
X133886669Y-150724048D01*
X133885022Y-150715164D01*
X133830115Y-150520481D01*
X133826874Y-150512037D01*
X133737411Y-150330624D01*
X133732686Y-150322914D01*
X133611660Y-150160840D01*
X133605611Y-150154122D01*
X133457071Y-150016814D01*
X133449906Y-150011315D01*
X133278829Y-149903374D01*
X133270776Y-149899271D01*
X133082895Y-149824314D01*
X133074237Y-149821749D01*
X132916045Y-149790283D01*
X132902798Y-149791851D01*
X132902766Y-149791881D01*
X132900666Y-149799928D01*
X132900666Y-150764320D01*
X132600666Y-150764320D01*
X132600666Y-149804517D01*
X132596544Y-149791832D01*
X132595940Y-149791393D01*
X132588793Y-149790877D01*
X132456225Y-149813657D01*
X132447489Y-149815998D01*
X132257716Y-149886009D01*
X132249553Y-149889902D01*
X132075713Y-149993326D01*
X132068411Y-149998631D01*
X131916323Y-150132010D01*
X131910100Y-150138568D01*
X131784875Y-150297415D01*
X131779950Y-150304998D01*
X131685763Y-150484018D01*
X131682309Y-150492358D01*
X131622324Y-150685538D01*
X131620443Y-150694389D01*
X131612153Y-150764428D01*
X129732500Y-150764428D01*
X129732500Y-150660252D01*
X129720867Y-150601769D01*
X129676552Y-150535448D01*
X129610231Y-150491133D01*
X129600668Y-150489231D01*
X129600666Y-150489230D01*
X129577995Y-150484721D01*
X129551748Y-150479500D01*
X128512252Y-150479500D01*
X128486005Y-150484721D01*
X128463334Y-150489230D01*
X128463332Y-150489231D01*
X128453769Y-150491133D01*
X128387448Y-150535448D01*
X128384857Y-150539326D01*
X128333203Y-150565644D01*
X128272771Y-150556073D01*
X128264669Y-150551452D01*
X128119584Y-150459378D01*
X128109704Y-150454559D01*
X127951046Y-150398064D01*
X127940347Y-150395554D01*
X127866144Y-150386706D01*
X127810601Y-150361041D01*
X127780751Y-150307631D01*
X127787996Y-150246876D01*
X127807862Y-150218398D01*
X129466855Y-148559405D01*
X138557898Y-148559405D01*
X138558995Y-148576145D01*
X138560408Y-148585064D01*
X138610200Y-148781121D01*
X138613220Y-148789649D01*
X138697904Y-148973341D01*
X138702422Y-148981167D01*
X138819171Y-149146363D01*
X138825035Y-149153229D01*
X138969931Y-149294381D01*
X138976954Y-149300068D01*
X139145138Y-149412446D01*
X139153093Y-149416764D01*
X139338929Y-149496606D01*
X139347540Y-149499404D01*
X139539830Y-149542914D01*
X139547167Y-149540840D01*
X139549787Y-149537514D01*
X139550000Y-149536317D01*
X139550000Y-149524679D01*
X139850000Y-149524679D01*
X139854122Y-149537364D01*
X139855292Y-149538215D01*
X139861272Y-149538725D01*
X139965115Y-149523668D01*
X139973914Y-149521556D01*
X140165450Y-149456538D01*
X140173714Y-149452858D01*
X140350194Y-149354026D01*
X140357652Y-149348900D01*
X140513157Y-149219568D01*
X140519568Y-149213157D01*
X140648900Y-149057652D01*
X140654026Y-149050194D01*
X140752858Y-148873714D01*
X140756538Y-148865450D01*
X140821556Y-148673914D01*
X140823668Y-148665115D01*
X140838109Y-148565518D01*
X140835850Y-148552372D01*
X140834815Y-148551363D01*
X140828968Y-148550000D01*
X139865680Y-148550000D01*
X139852995Y-148554122D01*
X139850000Y-148558243D01*
X139850000Y-149524679D01*
X139550000Y-149524679D01*
X139550000Y-148565680D01*
X139545878Y-148552995D01*
X139541757Y-148550000D01*
X138572962Y-148550000D01*
X138560277Y-148554122D01*
X138558202Y-148556978D01*
X138557898Y-148559405D01*
X129466855Y-148559405D01*
X129791832Y-148234428D01*
X138561487Y-148234428D01*
X138564090Y-148247511D01*
X138565663Y-148248965D01*
X138570378Y-148250000D01*
X139534320Y-148250000D01*
X139547005Y-148245878D01*
X139550000Y-148241757D01*
X139550000Y-148234320D01*
X139850000Y-148234320D01*
X139854122Y-148247005D01*
X139858243Y-148250000D01*
X140825464Y-148250000D01*
X140838149Y-148245878D01*
X140839818Y-148243582D01*
X140840222Y-148239966D01*
X140836003Y-148194048D01*
X140834356Y-148185164D01*
X140779449Y-147990481D01*
X140776208Y-147982037D01*
X140686745Y-147800624D01*
X140682020Y-147792914D01*
X140560994Y-147630840D01*
X140554945Y-147624122D01*
X140406405Y-147486814D01*
X140399240Y-147481315D01*
X140228163Y-147373374D01*
X140220110Y-147369271D01*
X140032229Y-147294314D01*
X140023571Y-147291749D01*
X139865379Y-147260283D01*
X139852132Y-147261851D01*
X139852100Y-147261881D01*
X139850000Y-147269928D01*
X139850000Y-148234320D01*
X139550000Y-148234320D01*
X139550000Y-147274517D01*
X139545878Y-147261832D01*
X139545274Y-147261393D01*
X139538127Y-147260877D01*
X139405559Y-147283657D01*
X139396823Y-147285998D01*
X139207050Y-147356009D01*
X139198887Y-147359902D01*
X139025047Y-147463326D01*
X139017745Y-147468631D01*
X138865657Y-147602010D01*
X138859434Y-147608568D01*
X138734209Y-147767415D01*
X138729284Y-147774998D01*
X138635097Y-147954018D01*
X138631643Y-147962358D01*
X138571658Y-148155538D01*
X138569777Y-148164389D01*
X138561487Y-148234428D01*
X129791832Y-148234428D01*
X131886764Y-146139496D01*
X131941281Y-146111719D01*
X131956768Y-146110500D01*
X138604347Y-146110500D01*
X138662538Y-146129407D01*
X138699512Y-146182212D01*
X138718544Y-146248586D01*
X138812712Y-146431818D01*
X138940677Y-146593270D01*
X138944357Y-146596402D01*
X138944359Y-146596404D01*
X138990847Y-146635968D01*
X139097564Y-146726791D01*
X139101787Y-146729151D01*
X139101791Y-146729154D01*
X139218702Y-146794493D01*
X139277398Y-146827297D01*
X139281996Y-146828791D01*
X139468724Y-146889463D01*
X139468726Y-146889464D01*
X139473329Y-146890959D01*
X139677894Y-146915351D01*
X139682716Y-146914980D01*
X139682719Y-146914980D01*
X139750541Y-146909761D01*
X139883300Y-146899546D01*
X140081725Y-146844145D01*
X140086038Y-146841966D01*
X140086044Y-146841964D01*
X140261289Y-146753441D01*
X140261291Y-146753440D01*
X140265610Y-146751258D01*
X140300943Y-146723653D01*
X140424135Y-146627406D01*
X140424139Y-146627402D01*
X140427951Y-146624424D01*
X140439285Y-146611294D01*
X140487313Y-146555651D01*
X140562564Y-146468472D01*
X140581231Y-146435613D01*
X140661934Y-146293550D01*
X140661935Y-146293547D01*
X140664323Y-146289344D01*
X140677882Y-146248586D01*
X140727824Y-146098454D01*
X140727824Y-146098452D01*
X140729351Y-146093863D01*
X140755171Y-145889474D01*
X140755583Y-145860000D01*
X140755313Y-145857244D01*
X140735952Y-145659780D01*
X140735951Y-145659776D01*
X140735480Y-145654970D01*
X140732152Y-145643945D01*
X140677333Y-145462380D01*
X140675935Y-145457749D01*
X140634156Y-145379174D01*
X140623532Y-145318921D01*
X140651565Y-145262695D01*
X141122787Y-144791473D01*
X141137790Y-144779161D01*
X141142494Y-144776018D01*
X141142495Y-144776017D01*
X141150601Y-144770601D01*
X141186055Y-144717539D01*
X141186058Y-144717537D01*
X141186057Y-144717536D01*
X141205966Y-144687741D01*
X141225408Y-144590000D01*
X141222402Y-144574888D01*
X141220500Y-144555574D01*
X141220500Y-127411025D01*
X141222403Y-127391710D01*
X141223507Y-127386162D01*
X141223507Y-127386156D01*
X141225409Y-127376594D01*
X141210992Y-127304122D01*
X141207869Y-127288420D01*
X141205966Y-127278854D01*
X141164578Y-127216911D01*
X141164577Y-127216910D01*
X141150601Y-127195993D01*
X141137793Y-127187435D01*
X141122790Y-127175123D01*
X140540879Y-126593213D01*
X140528567Y-126578210D01*
X140525426Y-126573509D01*
X140525425Y-126573508D01*
X140520007Y-126565399D01*
X140511897Y-126559980D01*
X140458267Y-126524146D01*
X140458265Y-126524145D01*
X140455001Y-126521964D01*
X140437147Y-126510034D01*
X140427584Y-126508132D01*
X140418575Y-126504400D01*
X140419539Y-126502072D01*
X140378504Y-126479090D01*
X140352889Y-126423524D01*
X140364827Y-126363515D01*
X140390251Y-126333879D01*
X140427951Y-126304424D01*
X140449977Y-126278907D01*
X140527778Y-126188772D01*
X140562564Y-126148472D01*
X140581231Y-126115613D01*
X140661934Y-125973550D01*
X140661935Y-125973547D01*
X140664323Y-125969344D01*
X140668833Y-125955788D01*
X140727824Y-125778454D01*
X140727824Y-125778452D01*
X140729351Y-125773863D01*
X140734347Y-125734320D01*
X140751885Y-125595486D01*
X140755171Y-125569474D01*
X140755289Y-125561075D01*
X140755544Y-125542776D01*
X140755583Y-125540000D01*
X140755313Y-125537244D01*
X140735952Y-125339780D01*
X140735951Y-125339776D01*
X140735480Y-125334970D01*
X140675935Y-125137749D01*
X140579218Y-124955849D01*
X140449011Y-124796200D01*
X140396599Y-124752841D01*
X140294002Y-124667965D01*
X140294000Y-124667964D01*
X140290275Y-124664882D01*
X140169747Y-124599713D01*
X140113309Y-124569197D01*
X140113308Y-124569197D01*
X140109055Y-124566897D01*
X140045855Y-124547333D01*
X139916875Y-124507407D01*
X139916871Y-124507406D01*
X139912254Y-124505977D01*
X139907446Y-124505472D01*
X139907443Y-124505471D01*
X139712185Y-124484949D01*
X139712183Y-124484949D01*
X139707369Y-124484443D01*
X139647354Y-124489905D01*
X139507022Y-124502675D01*
X139507017Y-124502676D01*
X139502203Y-124503114D01*
X139304572Y-124561280D01*
X139300288Y-124563519D01*
X139300287Y-124563520D01*
X139289428Y-124569197D01*
X139122002Y-124656726D01*
X139118231Y-124659758D01*
X138965220Y-124782781D01*
X138965217Y-124782783D01*
X138961447Y-124785815D01*
X138958333Y-124789526D01*
X138958332Y-124789527D01*
X138834648Y-124936928D01*
X138829024Y-124943630D01*
X138826689Y-124947878D01*
X138826688Y-124947879D01*
X138808684Y-124980628D01*
X138729776Y-125124162D01*
X138728313Y-125128775D01*
X138728311Y-125128779D01*
X138694770Y-125234514D01*
X138667484Y-125320532D01*
X138666944Y-125325344D01*
X138666944Y-125325345D01*
X138665865Y-125334970D01*
X138644520Y-125525262D01*
X138647302Y-125558394D01*
X138661288Y-125724942D01*
X138661759Y-125730553D01*
X138663092Y-125735201D01*
X138663092Y-125735202D01*
X138717058Y-125923402D01*
X138718544Y-125928586D01*
X138812712Y-126111818D01*
X138940677Y-126273270D01*
X138996889Y-126321110D01*
X139028947Y-126373220D01*
X139024253Y-126434226D01*
X138984598Y-126480821D01*
X138932723Y-126495500D01*
X137050768Y-126495500D01*
X136992577Y-126476593D01*
X136980764Y-126466504D01*
X136293404Y-125779144D01*
X136265627Y-125724627D01*
X136275198Y-125664195D01*
X136318463Y-125620930D01*
X136325521Y-125617676D01*
X136330385Y-125615661D01*
X136339948Y-125613759D01*
X136359094Y-125600966D01*
X136369743Y-125593850D01*
X136369743Y-125593851D01*
X136369746Y-125593848D01*
X136402103Y-125572228D01*
X136422808Y-125558394D01*
X136431368Y-125545583D01*
X136443680Y-125530580D01*
X138328787Y-123645473D01*
X138343790Y-123633161D01*
X138348491Y-123630020D01*
X138348492Y-123630019D01*
X138356601Y-123624601D01*
X138409222Y-123545847D01*
X138411966Y-123541741D01*
X138431408Y-123444000D01*
X138428402Y-123428888D01*
X138426500Y-123409574D01*
X138426500Y-122985262D01*
X138644520Y-122985262D01*
X138647073Y-123015661D01*
X138660398Y-123174342D01*
X138661759Y-123190553D01*
X138663092Y-123195201D01*
X138663092Y-123195202D01*
X138716545Y-123381613D01*
X138718544Y-123388586D01*
X138812712Y-123571818D01*
X138940677Y-123733270D01*
X138944357Y-123736402D01*
X138944359Y-123736404D01*
X139007718Y-123790326D01*
X139097564Y-123866791D01*
X139101787Y-123869151D01*
X139101791Y-123869154D01*
X139202547Y-123925464D01*
X139277398Y-123967297D01*
X139281996Y-123968791D01*
X139468724Y-124029463D01*
X139468726Y-124029464D01*
X139473329Y-124030959D01*
X139677894Y-124055351D01*
X139682716Y-124054980D01*
X139682719Y-124054980D01*
X139750541Y-124049761D01*
X139883300Y-124039546D01*
X140081725Y-123984145D01*
X140086038Y-123981966D01*
X140086044Y-123981964D01*
X140261289Y-123893441D01*
X140261291Y-123893440D01*
X140265610Y-123891258D01*
X140279514Y-123880395D01*
X140424135Y-123767406D01*
X140424139Y-123767402D01*
X140427951Y-123764424D01*
X140451297Y-123737378D01*
X140510942Y-123668277D01*
X140562564Y-123608472D01*
X140575019Y-123586548D01*
X140661934Y-123433550D01*
X140661935Y-123433547D01*
X140664323Y-123429344D01*
X140677642Y-123389308D01*
X140727824Y-123238454D01*
X140727824Y-123238452D01*
X140729351Y-123233863D01*
X140730443Y-123225223D01*
X140754823Y-123032228D01*
X140755171Y-123029474D01*
X140755583Y-123000000D01*
X140750843Y-122951658D01*
X140735952Y-122799780D01*
X140735951Y-122799776D01*
X140735480Y-122794970D01*
X140734010Y-122790099D01*
X140683585Y-122623086D01*
X140675935Y-122597749D01*
X140579218Y-122415849D01*
X140449011Y-122256200D01*
X140413030Y-122226434D01*
X140294002Y-122127965D01*
X140294000Y-122127964D01*
X140290275Y-122124882D01*
X140159342Y-122054087D01*
X140113309Y-122029197D01*
X140113308Y-122029197D01*
X140109055Y-122026897D01*
X140008907Y-121995896D01*
X139916875Y-121967407D01*
X139916871Y-121967406D01*
X139912254Y-121965977D01*
X139907446Y-121965472D01*
X139907443Y-121965471D01*
X139712185Y-121944949D01*
X139712183Y-121944949D01*
X139707369Y-121944443D01*
X139647354Y-121949905D01*
X139507022Y-121962675D01*
X139507017Y-121962676D01*
X139502203Y-121963114D01*
X139304572Y-122021280D01*
X139300288Y-122023519D01*
X139300287Y-122023520D01*
X139289428Y-122029197D01*
X139122002Y-122116726D01*
X139118231Y-122119758D01*
X138965220Y-122242781D01*
X138965217Y-122242783D01*
X138961447Y-122245815D01*
X138958333Y-122249526D01*
X138958332Y-122249527D01*
X138850998Y-122377443D01*
X138829024Y-122403630D01*
X138826689Y-122407878D01*
X138826688Y-122407879D01*
X138815811Y-122427664D01*
X138729776Y-122584162D01*
X138728313Y-122588775D01*
X138728311Y-122588779D01*
X138696341Y-122689562D01*
X138667484Y-122780532D01*
X138666944Y-122785344D01*
X138666944Y-122785345D01*
X138645748Y-122974316D01*
X138644520Y-122985262D01*
X138426500Y-122985262D01*
X138426500Y-120445262D01*
X138644520Y-120445262D01*
X138647401Y-120479568D01*
X138658315Y-120609536D01*
X138661759Y-120650553D01*
X138663092Y-120655201D01*
X138663092Y-120655202D01*
X138683039Y-120724764D01*
X138718544Y-120848586D01*
X138812712Y-121031818D01*
X138940677Y-121193270D01*
X138944357Y-121196402D01*
X138944359Y-121196404D01*
X139030835Y-121270000D01*
X139097564Y-121326791D01*
X139101787Y-121329151D01*
X139101791Y-121329154D01*
X139141342Y-121351258D01*
X139277398Y-121427297D01*
X139281996Y-121428791D01*
X139468724Y-121489463D01*
X139468726Y-121489464D01*
X139473329Y-121490959D01*
X139677894Y-121515351D01*
X139682716Y-121514980D01*
X139682719Y-121514980D01*
X139750541Y-121509761D01*
X139883300Y-121499546D01*
X140081725Y-121444145D01*
X140086038Y-121441966D01*
X140086044Y-121441964D01*
X140261289Y-121353441D01*
X140261291Y-121353440D01*
X140265610Y-121351258D01*
X140300943Y-121323653D01*
X140424135Y-121227406D01*
X140424139Y-121227402D01*
X140427951Y-121224424D01*
X140440496Y-121209891D01*
X140544708Y-121089158D01*
X140562564Y-121068472D01*
X140582200Y-121033907D01*
X140661934Y-120893550D01*
X140661935Y-120893547D01*
X140664323Y-120889344D01*
X140671171Y-120868760D01*
X140727824Y-120698454D01*
X140727824Y-120698452D01*
X140729351Y-120693863D01*
X140732303Y-120670500D01*
X140754823Y-120492228D01*
X140755171Y-120489474D01*
X140755310Y-120479568D01*
X140755544Y-120462776D01*
X140755583Y-120460000D01*
X140755313Y-120457244D01*
X140735952Y-120259780D01*
X140735951Y-120259776D01*
X140735480Y-120254970D01*
X140727459Y-120228401D01*
X140694163Y-120118123D01*
X140675935Y-120057749D01*
X140579218Y-119875849D01*
X140449011Y-119716200D01*
X140403110Y-119678227D01*
X140294002Y-119587965D01*
X140294000Y-119587964D01*
X140290275Y-119584882D01*
X140109055Y-119486897D01*
X140018624Y-119458904D01*
X139916875Y-119427407D01*
X139916871Y-119427406D01*
X139912254Y-119425977D01*
X139907446Y-119425472D01*
X139907443Y-119425471D01*
X139712185Y-119404949D01*
X139712183Y-119404949D01*
X139707369Y-119404443D01*
X139652833Y-119409406D01*
X139507022Y-119422675D01*
X139507017Y-119422676D01*
X139502203Y-119423114D01*
X139304572Y-119481280D01*
X139300288Y-119483519D01*
X139300287Y-119483520D01*
X139266593Y-119501135D01*
X139122002Y-119576726D01*
X139118231Y-119579758D01*
X138965220Y-119702781D01*
X138965217Y-119702783D01*
X138961447Y-119705815D01*
X138958333Y-119709526D01*
X138958332Y-119709527D01*
X138840849Y-119849538D01*
X138829024Y-119863630D01*
X138826689Y-119867878D01*
X138826688Y-119867879D01*
X138814527Y-119890000D01*
X138729776Y-120044162D01*
X138728313Y-120048775D01*
X138728311Y-120048779D01*
X138685406Y-120184034D01*
X138667484Y-120240532D01*
X138666944Y-120245344D01*
X138666944Y-120245345D01*
X138645272Y-120438560D01*
X138644520Y-120445262D01*
X138426500Y-120445262D01*
X138426500Y-118144426D01*
X138428402Y-118125112D01*
X138429506Y-118119562D01*
X138431408Y-118110000D01*
X138428231Y-118094030D01*
X138413869Y-118021824D01*
X138413868Y-118021822D01*
X138411966Y-118012259D01*
X138388760Y-117977529D01*
X138356601Y-117929399D01*
X138353532Y-117927348D01*
X138342279Y-117905262D01*
X138644520Y-117905262D01*
X138644925Y-117910082D01*
X138660910Y-118100438D01*
X138661759Y-118110553D01*
X138663092Y-118115201D01*
X138663092Y-118115202D01*
X138706174Y-118265445D01*
X138718544Y-118308586D01*
X138812712Y-118491818D01*
X138940677Y-118653270D01*
X138944357Y-118656402D01*
X138944359Y-118656404D01*
X139028955Y-118728400D01*
X139097564Y-118786791D01*
X139101787Y-118789151D01*
X139101791Y-118789154D01*
X139141342Y-118811258D01*
X139277398Y-118887297D01*
X139281996Y-118888791D01*
X139468724Y-118949463D01*
X139468726Y-118949464D01*
X139473329Y-118950959D01*
X139677894Y-118975351D01*
X139682716Y-118974980D01*
X139682719Y-118974980D01*
X139753935Y-118969500D01*
X139883300Y-118959546D01*
X140081725Y-118904145D01*
X140086038Y-118901966D01*
X140086044Y-118901964D01*
X140261289Y-118813441D01*
X140261291Y-118813440D01*
X140265610Y-118811258D01*
X140338397Y-118754391D01*
X140424135Y-118687406D01*
X140424139Y-118687402D01*
X140427951Y-118684424D01*
X140562564Y-118528472D01*
X140581231Y-118495613D01*
X140661934Y-118353550D01*
X140661935Y-118353547D01*
X140664323Y-118349344D01*
X140671012Y-118329238D01*
X140727824Y-118158454D01*
X140727824Y-118158452D01*
X140729351Y-118153863D01*
X140731988Y-118132994D01*
X140754823Y-117952228D01*
X140755171Y-117949474D01*
X140755583Y-117920000D01*
X140753667Y-117900454D01*
X140735952Y-117719780D01*
X140735951Y-117719776D01*
X140735480Y-117714970D01*
X140675935Y-117517749D01*
X140579218Y-117335849D01*
X140449011Y-117176200D01*
X140439920Y-117168679D01*
X140294002Y-117047965D01*
X140294000Y-117047964D01*
X140290275Y-117044882D01*
X140109055Y-116946897D01*
X140045855Y-116927333D01*
X139916875Y-116887407D01*
X139916871Y-116887406D01*
X139912254Y-116885977D01*
X139907446Y-116885472D01*
X139907443Y-116885471D01*
X139712185Y-116864949D01*
X139712183Y-116864949D01*
X139707369Y-116864443D01*
X139647354Y-116869905D01*
X139507022Y-116882675D01*
X139507017Y-116882676D01*
X139502203Y-116883114D01*
X139304572Y-116941280D01*
X139300288Y-116943519D01*
X139300287Y-116943520D01*
X139289428Y-116949197D01*
X139122002Y-117036726D01*
X139111209Y-117045404D01*
X138965220Y-117162781D01*
X138965217Y-117162783D01*
X138961447Y-117165815D01*
X138958333Y-117169526D01*
X138958332Y-117169527D01*
X138845787Y-117303653D01*
X138829024Y-117323630D01*
X138826689Y-117327878D01*
X138826688Y-117327879D01*
X138819955Y-117340126D01*
X138729776Y-117504162D01*
X138728313Y-117508775D01*
X138728311Y-117508779D01*
X138722230Y-117527950D01*
X138667484Y-117700532D01*
X138666944Y-117705344D01*
X138666944Y-117705345D01*
X138645085Y-117900227D01*
X138644520Y-117905262D01*
X138342279Y-117905262D01*
X138327492Y-117876241D01*
X138326428Y-117862720D01*
X138327492Y-117856000D01*
X138315327Y-117779191D01*
X138308865Y-117738391D01*
X138308865Y-117738390D01*
X138307646Y-117730696D01*
X138297275Y-117710342D01*
X138253586Y-117624597D01*
X138253585Y-117624595D01*
X138250050Y-117617658D01*
X138160342Y-117527950D01*
X138153405Y-117524415D01*
X138153403Y-117524414D01*
X138054244Y-117473890D01*
X138054243Y-117473890D01*
X138047304Y-117470354D01*
X138039610Y-117469135D01*
X138039609Y-117469135D01*
X137929697Y-117451727D01*
X137922000Y-117450508D01*
X137914303Y-117451727D01*
X137804391Y-117469135D01*
X137804390Y-117469135D01*
X137796696Y-117470354D01*
X137789757Y-117473890D01*
X137789753Y-117473891D01*
X137752698Y-117492772D01*
X137692266Y-117502344D01*
X137637749Y-117474567D01*
X137609971Y-117420051D01*
X137609191Y-117413876D01*
X137607656Y-117397626D01*
X137605090Y-117385930D01*
X137572436Y-117292945D01*
X137570995Y-117231777D01*
X137605783Y-117181443D01*
X137663512Y-117161170D01*
X137703729Y-117168679D01*
X137743238Y-117185044D01*
X137900000Y-117205682D01*
X138056762Y-117185044D01*
X138202841Y-117124536D01*
X138328282Y-117028282D01*
X138424536Y-116902841D01*
X138473329Y-116785046D01*
X138482560Y-116762759D01*
X138485044Y-116756762D01*
X138505682Y-116600000D01*
X138485044Y-116443238D01*
X138482075Y-116436069D01*
X138427019Y-116303154D01*
X138424536Y-116297159D01*
X138328282Y-116171718D01*
X138202841Y-116075464D01*
X138056762Y-116014956D01*
X137900000Y-115994318D01*
X137743238Y-116014956D01*
X137737240Y-116017440D01*
X137737238Y-116017441D01*
X137736605Y-116017703D01*
X137736116Y-116017741D01*
X137730975Y-116019119D01*
X137730720Y-116018166D01*
X137675608Y-116022503D01*
X137623439Y-115990534D01*
X137600025Y-115934006D01*
X137604443Y-115900105D01*
X137603796Y-115899963D01*
X137607656Y-115882371D01*
X137609782Y-115859886D01*
X137610000Y-115855250D01*
X137610000Y-115800680D01*
X137605878Y-115787995D01*
X137601757Y-115785000D01*
X136979000Y-115785000D01*
X136920809Y-115766093D01*
X136884845Y-115716593D01*
X136880000Y-115686000D01*
X136880000Y-115469320D01*
X137180000Y-115469320D01*
X137184122Y-115482005D01*
X137188243Y-115485000D01*
X137594319Y-115485000D01*
X137607004Y-115480878D01*
X137609999Y-115476757D01*
X137609999Y-115414753D01*
X137609780Y-115410110D01*
X137607655Y-115387626D01*
X137605090Y-115375930D01*
X137565700Y-115263766D01*
X137558853Y-115250833D01*
X137489041Y-115156316D01*
X137478684Y-115145959D01*
X137384167Y-115076147D01*
X137371234Y-115069300D01*
X137259073Y-115029912D01*
X137247371Y-115027344D01*
X137224886Y-115025218D01*
X137220250Y-115025000D01*
X137195680Y-115025000D01*
X137182995Y-115029122D01*
X137180000Y-115033243D01*
X137180000Y-115469320D01*
X136880000Y-115469320D01*
X136880000Y-115040681D01*
X136875878Y-115027996D01*
X136871757Y-115025001D01*
X136839753Y-115025001D01*
X136835110Y-115025220D01*
X136812626Y-115027345D01*
X136800930Y-115029910D01*
X136688766Y-115069300D01*
X136675833Y-115076147D01*
X136581316Y-115145959D01*
X136570961Y-115156314D01*
X136559371Y-115172006D01*
X136509591Y-115207581D01*
X136448407Y-115207101D01*
X136422701Y-115191210D01*
X136421539Y-115192870D01*
X136414438Y-115187898D01*
X136408316Y-115181776D01*
X136400468Y-115178116D01*
X136400466Y-115178115D01*
X136306356Y-115134231D01*
X136299487Y-115131028D01*
X136249901Y-115124500D01*
X136070028Y-115124500D01*
X135890100Y-115124501D01*
X135886890Y-115124924D01*
X135886883Y-115124924D01*
X135848025Y-115130039D01*
X135848024Y-115130039D01*
X135840513Y-115131028D01*
X135791208Y-115154020D01*
X135739534Y-115178115D01*
X135739532Y-115178116D01*
X135731684Y-115181776D01*
X135646776Y-115266684D01*
X135644622Y-115264530D01*
X135607396Y-115292584D01*
X135546220Y-115293653D01*
X135495530Y-115257796D01*
X135439041Y-115181316D01*
X135428684Y-115170959D01*
X135334167Y-115101147D01*
X135321234Y-115094300D01*
X135209073Y-115054912D01*
X135197371Y-115052344D01*
X135174886Y-115050218D01*
X135170250Y-115050000D01*
X135145680Y-115050000D01*
X135132995Y-115054122D01*
X135130000Y-115058243D01*
X135130000Y-115989320D01*
X135134122Y-116002006D01*
X135139190Y-116005688D01*
X135175154Y-116055188D01*
X135180000Y-116085781D01*
X135180000Y-117241921D01*
X135161093Y-117300112D01*
X135146222Y-117310916D01*
X135130000Y-117333243D01*
X135130000Y-117721000D01*
X135111093Y-117779191D01*
X135061593Y-117815155D01*
X135031000Y-117820000D01*
X134929000Y-117820000D01*
X134870809Y-117801093D01*
X134834845Y-117751593D01*
X134830000Y-117721000D01*
X134830000Y-117103079D01*
X134848907Y-117044888D01*
X134863778Y-117034084D01*
X134880000Y-117011757D01*
X134880000Y-116325680D01*
X134875878Y-116312994D01*
X134870810Y-116309312D01*
X134834846Y-116259812D01*
X134830000Y-116229219D01*
X134830000Y-115065681D01*
X134825878Y-115052996D01*
X134821757Y-115050001D01*
X134789753Y-115050001D01*
X134785110Y-115050220D01*
X134762626Y-115052345D01*
X134750930Y-115054910D01*
X134669820Y-115083394D01*
X134608652Y-115084835D01*
X134558318Y-115050047D01*
X134538045Y-114992318D01*
X134545554Y-114952101D01*
X134582559Y-114862762D01*
X134582560Y-114862759D01*
X134585044Y-114856762D01*
X134605682Y-114700000D01*
X134603055Y-114680042D01*
X134597641Y-114638925D01*
X134585044Y-114543238D01*
X134524536Y-114397159D01*
X134428282Y-114271718D01*
X134302841Y-114175464D01*
X134156762Y-114114956D01*
X134000000Y-114094318D01*
X133843238Y-114114956D01*
X133697159Y-114175464D01*
X133571718Y-114271718D01*
X133475464Y-114397159D01*
X133414956Y-114543238D01*
X133402359Y-114638925D01*
X133396946Y-114680042D01*
X133394318Y-114700000D01*
X133414956Y-114856762D01*
X133417440Y-114862759D01*
X133421525Y-114872621D01*
X133475464Y-115002841D01*
X133479415Y-115007990D01*
X133550195Y-115100233D01*
X133570619Y-115157909D01*
X133553241Y-115216574D01*
X133504700Y-115253822D01*
X133471653Y-115259500D01*
X133448001Y-115259500D01*
X133447997Y-115259501D01*
X133416087Y-115259501D01*
X133408680Y-115261907D01*
X133408677Y-115261908D01*
X133393147Y-115266954D01*
X133378045Y-115270580D01*
X133354216Y-115274354D01*
X133333827Y-115284743D01*
X133332726Y-115285304D01*
X133318376Y-115291249D01*
X133295430Y-115298704D01*
X133275906Y-115312889D01*
X133262676Y-115320996D01*
X133241178Y-115331950D01*
X133202124Y-115371004D01*
X133147607Y-115398781D01*
X133132120Y-115400000D01*
X132534000Y-115400000D01*
X132475809Y-115381093D01*
X132439845Y-115331593D01*
X132435000Y-115301000D01*
X132435000Y-115084320D01*
X132735000Y-115084320D01*
X132739122Y-115097005D01*
X132743243Y-115100000D01*
X133164320Y-115100000D01*
X133177005Y-115095878D01*
X133180000Y-115091757D01*
X133180000Y-115026347D01*
X133179782Y-115021713D01*
X133177607Y-114998708D01*
X133175039Y-114987005D01*
X133134904Y-114872717D01*
X133128057Y-114859784D01*
X133056905Y-114763452D01*
X133046548Y-114753095D01*
X132950216Y-114681943D01*
X132937283Y-114675096D01*
X132822995Y-114634961D01*
X132811292Y-114632393D01*
X132788287Y-114630218D01*
X132783651Y-114630000D01*
X132750680Y-114630000D01*
X132737995Y-114634122D01*
X132735000Y-114638243D01*
X132735000Y-115084320D01*
X132435000Y-115084320D01*
X132435000Y-114645680D01*
X132430878Y-114632995D01*
X132426757Y-114630000D01*
X132386349Y-114630000D01*
X132381713Y-114630218D01*
X132358708Y-114632393D01*
X132347005Y-114634961D01*
X132232717Y-114675096D01*
X132219784Y-114681943D01*
X132123452Y-114753095D01*
X132113096Y-114763451D01*
X132106893Y-114771849D01*
X132057111Y-114807422D01*
X131995928Y-114806940D01*
X131971750Y-114794633D01*
X131967379Y-114790270D01*
X131960030Y-114786678D01*
X131957012Y-114784525D01*
X131920617Y-114735342D01*
X131915500Y-114703927D01*
X131915500Y-114108507D01*
X131915803Y-114104383D01*
X131917425Y-114099658D01*
X131917082Y-114090525D01*
X131918417Y-114081483D01*
X131922041Y-114082018D01*
X131934107Y-114039566D01*
X131937769Y-114034466D01*
X131938958Y-114032917D01*
X131948045Y-114021075D01*
X131972824Y-113952995D01*
X131986153Y-113916374D01*
X131986154Y-113916371D01*
X131989114Y-113908237D01*
X131989114Y-113788159D01*
X131986154Y-113780025D01*
X131986153Y-113780022D01*
X131950635Y-113682437D01*
X131948045Y-113675321D01*
X131938824Y-113663304D01*
X131919570Y-113638211D01*
X131919564Y-113638204D01*
X131917598Y-113635642D01*
X131819956Y-113538000D01*
X138024508Y-113538000D01*
X138025727Y-113545697D01*
X138041773Y-113647005D01*
X138044354Y-113663304D01*
X138047890Y-113670243D01*
X138047890Y-113670244D01*
X138088677Y-113750292D01*
X138101950Y-113776342D01*
X138191658Y-113866050D01*
X138198595Y-113869585D01*
X138198597Y-113869586D01*
X138257458Y-113899577D01*
X138304696Y-113923646D01*
X138312390Y-113924865D01*
X138312391Y-113924865D01*
X138420946Y-113942058D01*
X138430000Y-113943492D01*
X138437696Y-113942273D01*
X138439005Y-113942273D01*
X138497196Y-113961180D01*
X138509009Y-113971269D01*
X138750674Y-114212934D01*
X138778451Y-114267451D01*
X138768880Y-114327883D01*
X138735673Y-114365252D01*
X138705448Y-114385448D01*
X138661133Y-114451769D01*
X138659231Y-114461332D01*
X138659230Y-114461334D01*
X138657168Y-114471702D01*
X138649500Y-114510252D01*
X138649500Y-116249748D01*
X138651502Y-116259812D01*
X138658931Y-116297159D01*
X138661133Y-116308231D01*
X138705448Y-116374552D01*
X138771769Y-116418867D01*
X138781332Y-116420769D01*
X138781334Y-116420770D01*
X138804005Y-116425279D01*
X138830252Y-116430500D01*
X140569748Y-116430500D01*
X140595995Y-116425279D01*
X140618666Y-116420770D01*
X140618668Y-116420769D01*
X140628231Y-116418867D01*
X140694552Y-116374552D01*
X140738867Y-116308231D01*
X140741070Y-116297159D01*
X140748498Y-116259812D01*
X140750500Y-116249748D01*
X140750500Y-114510252D01*
X140742832Y-114471702D01*
X140740770Y-114461334D01*
X140740769Y-114461332D01*
X140738867Y-114451769D01*
X140694552Y-114385448D01*
X140628231Y-114341133D01*
X140618668Y-114339231D01*
X140618666Y-114339230D01*
X140595995Y-114334721D01*
X140569748Y-114329500D01*
X139616768Y-114329500D01*
X139558577Y-114310593D01*
X139546764Y-114300504D01*
X138863269Y-113617009D01*
X138835492Y-113562492D01*
X138834273Y-113547005D01*
X138834273Y-113545696D01*
X138835492Y-113538000D01*
X138823074Y-113459596D01*
X138816865Y-113420391D01*
X138816865Y-113420390D01*
X138815646Y-113412696D01*
X138812110Y-113405756D01*
X138761586Y-113306597D01*
X138761585Y-113306595D01*
X138758050Y-113299658D01*
X138668342Y-113209950D01*
X138661405Y-113206415D01*
X138661403Y-113206414D01*
X138562244Y-113155890D01*
X138562243Y-113155890D01*
X138555304Y-113152354D01*
X138547610Y-113151135D01*
X138547609Y-113151135D01*
X138437697Y-113133727D01*
X138430000Y-113132508D01*
X138422303Y-113133727D01*
X138312391Y-113151135D01*
X138312390Y-113151135D01*
X138304696Y-113152354D01*
X138297757Y-113155890D01*
X138297756Y-113155890D01*
X138198597Y-113206414D01*
X138198595Y-113206415D01*
X138191658Y-113209950D01*
X138101950Y-113299658D01*
X138098415Y-113306595D01*
X138098414Y-113306597D01*
X138047890Y-113405756D01*
X138044354Y-113412696D01*
X138043135Y-113420390D01*
X138043135Y-113420391D01*
X138036926Y-113459596D01*
X138024508Y-113538000D01*
X131819956Y-113538000D01*
X131663180Y-113381225D01*
X131623501Y-113350777D01*
X131573988Y-113332756D01*
X131518800Y-113312669D01*
X131518797Y-113312668D01*
X131510663Y-113309708D01*
X131409292Y-113309708D01*
X131351101Y-113290801D01*
X131315137Y-113241301D01*
X131310292Y-113210708D01*
X131310292Y-113109337D01*
X131307332Y-113101203D01*
X131307331Y-113101200D01*
X131271813Y-113003615D01*
X131269223Y-112996499D01*
X131264613Y-112990491D01*
X131240748Y-112959389D01*
X131240742Y-112959382D01*
X131238776Y-112956820D01*
X130984358Y-112702403D01*
X130944679Y-112671955D01*
X130937565Y-112669366D01*
X130930920Y-112665720D01*
X130932460Y-112662912D01*
X130895258Y-112633852D01*
X130878387Y-112575038D01*
X130899308Y-112517541D01*
X130934473Y-112489240D01*
X131015298Y-112450428D01*
X131025379Y-112443975D01*
X131042775Y-112429584D01*
X131046224Y-112426446D01*
X131063594Y-112409076D01*
X131069648Y-112397193D01*
X131068852Y-112392162D01*
X130538076Y-111861386D01*
X130966575Y-111861386D01*
X130967371Y-111866417D01*
X131275726Y-112174772D01*
X131287609Y-112180826D01*
X131292640Y-112180030D01*
X131315274Y-112157396D01*
X131318397Y-112153963D01*
X131332794Y-112136561D01*
X131339252Y-112126473D01*
X131390709Y-112019313D01*
X131395013Y-112005324D01*
X131412484Y-111889119D01*
X131412484Y-111874485D01*
X131395013Y-111758280D01*
X131390709Y-111744291D01*
X131339250Y-111637128D01*
X131332797Y-111627047D01*
X131318406Y-111609651D01*
X131315268Y-111606202D01*
X131276685Y-111567619D01*
X131264802Y-111561565D01*
X131259771Y-111562361D01*
X130972629Y-111849503D01*
X130966575Y-111861386D01*
X130538076Y-111861386D01*
X130223096Y-111546406D01*
X130211213Y-111540352D01*
X130206182Y-111541148D01*
X130183548Y-111563782D01*
X130180425Y-111567215D01*
X130166028Y-111584617D01*
X130159570Y-111594705D01*
X130108113Y-111701865D01*
X130103809Y-111715854D01*
X130086338Y-111832059D01*
X130086338Y-111846694D01*
X130089239Y-111865990D01*
X130079193Y-111926345D01*
X130035590Y-111969268D01*
X130006171Y-111976209D01*
X130006523Y-111978205D01*
X129997996Y-111979708D01*
X129993316Y-111979708D01*
X129992078Y-111979534D01*
X129991339Y-111979708D01*
X129989337Y-111979708D01*
X129989337Y-111979148D01*
X129935330Y-111971555D01*
X129908730Y-111952581D01*
X129327407Y-111371258D01*
X129299630Y-111316741D01*
X129298411Y-111301254D01*
X129298411Y-111199000D01*
X129317318Y-111140809D01*
X129366818Y-111104845D01*
X129397411Y-111100000D01*
X130412661Y-111100000D01*
X130470852Y-111118907D01*
X130506816Y-111168407D01*
X130506816Y-111229593D01*
X130475766Y-111275281D01*
X130456047Y-111291594D01*
X130452598Y-111294732D01*
X130435228Y-111312102D01*
X130429174Y-111323985D01*
X130429970Y-111329016D01*
X130738325Y-111637371D01*
X130750208Y-111643425D01*
X130755239Y-111642629D01*
X131042381Y-111355487D01*
X131048435Y-111343604D01*
X131047639Y-111338573D01*
X131003802Y-111294737D01*
X131000357Y-111291603D01*
X130980627Y-111275279D01*
X130947844Y-111223617D01*
X130951688Y-111162552D01*
X130990691Y-111115410D01*
X131043735Y-111100000D01*
X141501114Y-111100000D01*
X141559305Y-111118907D01*
X141595269Y-111168407D01*
X141600114Y-111198885D01*
X141649886Y-154450886D01*
X141631046Y-154509099D01*
X141581587Y-154545119D01*
X141550886Y-154550000D01*
X116899000Y-154550000D01*
X116840809Y-154531093D01*
X116804845Y-154481593D01*
X116800000Y-154451000D01*
X116800000Y-150925262D01*
X117816520Y-150925262D01*
X117816925Y-150930082D01*
X117831060Y-151098407D01*
X117833759Y-151130553D01*
X117890544Y-151328586D01*
X117984712Y-151511818D01*
X118112677Y-151673270D01*
X118116357Y-151676402D01*
X118116359Y-151676404D01*
X118208934Y-151755191D01*
X118269564Y-151806791D01*
X118273787Y-151809151D01*
X118273791Y-151809154D01*
X118376114Y-151866340D01*
X118449398Y-151907297D01*
X118453996Y-151908791D01*
X118640724Y-151969463D01*
X118640726Y-151969464D01*
X118645329Y-151970959D01*
X118849894Y-151995351D01*
X118854716Y-151994980D01*
X118854719Y-151994980D01*
X118922541Y-151989761D01*
X119055300Y-151979546D01*
X119253725Y-151924145D01*
X119258038Y-151921966D01*
X119258044Y-151921964D01*
X119433289Y-151833441D01*
X119433291Y-151833440D01*
X119437610Y-151831258D01*
X119441427Y-151828276D01*
X119596135Y-151707406D01*
X119596139Y-151707402D01*
X119599951Y-151704424D01*
X119603988Y-151699748D01*
X119679524Y-151612237D01*
X119734564Y-151548472D01*
X119736957Y-151544260D01*
X119833934Y-151373550D01*
X119833935Y-151373547D01*
X119836323Y-151369344D01*
X119838556Y-151362634D01*
X119899824Y-151178454D01*
X119899824Y-151178452D01*
X119901351Y-151173863D01*
X119907019Y-151129000D01*
X119926823Y-150972228D01*
X119927171Y-150969474D01*
X119927583Y-150940000D01*
X119921643Y-150879416D01*
X119907952Y-150739780D01*
X119907951Y-150739776D01*
X119907480Y-150734970D01*
X119904183Y-150724048D01*
X119849333Y-150542380D01*
X119847935Y-150537749D01*
X119751218Y-150355849D01*
X119621011Y-150196200D01*
X119578268Y-150160840D01*
X119466002Y-150067965D01*
X119466000Y-150067964D01*
X119462275Y-150064882D01*
X119281055Y-149966897D01*
X119161954Y-149930029D01*
X119088875Y-149907407D01*
X119088871Y-149907406D01*
X119084254Y-149905977D01*
X119079446Y-149905472D01*
X119079443Y-149905471D01*
X118884185Y-149884949D01*
X118884183Y-149884949D01*
X118879369Y-149884443D01*
X118826767Y-149889230D01*
X118679022Y-149902675D01*
X118679017Y-149902676D01*
X118674203Y-149903114D01*
X118476572Y-149961280D01*
X118472288Y-149963519D01*
X118472287Y-149963520D01*
X118461428Y-149969197D01*
X118294002Y-150056726D01*
X118290231Y-150059758D01*
X118137220Y-150182781D01*
X118137217Y-150182783D01*
X118133447Y-150185815D01*
X118130333Y-150189526D01*
X118130332Y-150189527D01*
X118026549Y-150313211D01*
X118001024Y-150343630D01*
X117998689Y-150347878D01*
X117998688Y-150347879D01*
X117991955Y-150360126D01*
X117901776Y-150524162D01*
X117900313Y-150528775D01*
X117900311Y-150528779D01*
X117860117Y-150655488D01*
X117839484Y-150720532D01*
X117838944Y-150725344D01*
X117838944Y-150725345D01*
X117832814Y-150780000D01*
X117816520Y-150925262D01*
X116800000Y-150925262D01*
X116800000Y-148559405D01*
X117729898Y-148559405D01*
X117730995Y-148576145D01*
X117732408Y-148585064D01*
X117782200Y-148781121D01*
X117785220Y-148789649D01*
X117869904Y-148973341D01*
X117874422Y-148981167D01*
X117991171Y-149146363D01*
X117997035Y-149153229D01*
X118141931Y-149294381D01*
X118148954Y-149300068D01*
X118317138Y-149412446D01*
X118325093Y-149416764D01*
X118510929Y-149496606D01*
X118519540Y-149499404D01*
X118711830Y-149542914D01*
X118719167Y-149540840D01*
X118721787Y-149537514D01*
X118722000Y-149536317D01*
X118722000Y-149524679D01*
X119022000Y-149524679D01*
X119026122Y-149537364D01*
X119027292Y-149538215D01*
X119033272Y-149538725D01*
X119137115Y-149523668D01*
X119145914Y-149521556D01*
X119337450Y-149456538D01*
X119345714Y-149452858D01*
X119522194Y-149354026D01*
X119529652Y-149348900D01*
X119685157Y-149219568D01*
X119691568Y-149213157D01*
X119820900Y-149057652D01*
X119826026Y-149050194D01*
X119924858Y-148873714D01*
X119928538Y-148865450D01*
X119993556Y-148673914D01*
X119995668Y-148665115D01*
X120010109Y-148565518D01*
X120007850Y-148552372D01*
X120006815Y-148551363D01*
X120000968Y-148550000D01*
X119037680Y-148550000D01*
X119024995Y-148554122D01*
X119022000Y-148558243D01*
X119022000Y-149524679D01*
X118722000Y-149524679D01*
X118722000Y-148565680D01*
X118717878Y-148552995D01*
X118713757Y-148550000D01*
X117744962Y-148550000D01*
X117732277Y-148554122D01*
X117730202Y-148556978D01*
X117729898Y-148559405D01*
X116800000Y-148559405D01*
X116800000Y-130605262D01*
X117816520Y-130605262D01*
X117816925Y-130610082D01*
X117832398Y-130794342D01*
X117833759Y-130810553D01*
X117835092Y-130815201D01*
X117835092Y-130815202D01*
X117876186Y-130958512D01*
X117890544Y-131008586D01*
X117984712Y-131191818D01*
X118112677Y-131353270D01*
X118116357Y-131356402D01*
X118116359Y-131356404D01*
X118195480Y-131423741D01*
X118269564Y-131486791D01*
X118273787Y-131489151D01*
X118273791Y-131489154D01*
X118313342Y-131511258D01*
X118449398Y-131587297D01*
X118453996Y-131588791D01*
X118640724Y-131649463D01*
X118640726Y-131649464D01*
X118645329Y-131650959D01*
X118849894Y-131675351D01*
X118854716Y-131674980D01*
X118854719Y-131674980D01*
X118922541Y-131669761D01*
X119055300Y-131659546D01*
X119253725Y-131604145D01*
X119258038Y-131601966D01*
X119258044Y-131601964D01*
X119433289Y-131513441D01*
X119433291Y-131513440D01*
X119437610Y-131511258D01*
X119527634Y-131440924D01*
X119596135Y-131387406D01*
X119596139Y-131387402D01*
X119599951Y-131384424D01*
X119734564Y-131228472D01*
X119753231Y-131195613D01*
X119833934Y-131053550D01*
X119833935Y-131053547D01*
X119836323Y-131049344D01*
X119845972Y-131020340D01*
X119899824Y-130858454D01*
X119899824Y-130858452D01*
X119901351Y-130853863D01*
X119927171Y-130649474D01*
X119927583Y-130620000D01*
X119923343Y-130576752D01*
X119907952Y-130419780D01*
X119907951Y-130419776D01*
X119907480Y-130414970D01*
X119876547Y-130312514D01*
X119849333Y-130222380D01*
X119847935Y-130217749D01*
X119751218Y-130035849D01*
X119621011Y-129876200D01*
X119599133Y-129858101D01*
X119466002Y-129747965D01*
X119466000Y-129747964D01*
X119462275Y-129744882D01*
X119281055Y-129646897D01*
X119217855Y-129627333D01*
X119088875Y-129587407D01*
X119088871Y-129587406D01*
X119084254Y-129585977D01*
X119079446Y-129585472D01*
X119079443Y-129585471D01*
X118884185Y-129564949D01*
X118884183Y-129564949D01*
X118879369Y-129564443D01*
X118828086Y-129569110D01*
X118679022Y-129582675D01*
X118679017Y-129582676D01*
X118674203Y-129583114D01*
X118476572Y-129641280D01*
X118472288Y-129643519D01*
X118472287Y-129643520D01*
X118461428Y-129649197D01*
X118294002Y-129736726D01*
X118290231Y-129739758D01*
X118137220Y-129862781D01*
X118137217Y-129862783D01*
X118133447Y-129865815D01*
X118130333Y-129869526D01*
X118130332Y-129869527D01*
X118057136Y-129956759D01*
X118001024Y-130023630D01*
X117998689Y-130027878D01*
X117998688Y-130027879D01*
X117991955Y-130040126D01*
X117901776Y-130204162D01*
X117900313Y-130208774D01*
X117900311Y-130208779D01*
X117851694Y-130362042D01*
X117839484Y-130400532D01*
X117838944Y-130405344D01*
X117838944Y-130405345D01*
X117822046Y-130556000D01*
X117816520Y-130605262D01*
X116800000Y-130605262D01*
X116800000Y-128239405D01*
X117729898Y-128239405D01*
X117730995Y-128256145D01*
X117732408Y-128265064D01*
X117782200Y-128461121D01*
X117785220Y-128469649D01*
X117869904Y-128653341D01*
X117874422Y-128661167D01*
X117991171Y-128826363D01*
X117997035Y-128833229D01*
X118141931Y-128974381D01*
X118148954Y-128980068D01*
X118317138Y-129092446D01*
X118325093Y-129096764D01*
X118510929Y-129176606D01*
X118519540Y-129179404D01*
X118711830Y-129222914D01*
X118719167Y-129220840D01*
X118721787Y-129217514D01*
X118722000Y-129216317D01*
X118722000Y-129204679D01*
X119022000Y-129204679D01*
X119026122Y-129217364D01*
X119027292Y-129218215D01*
X119033272Y-129218725D01*
X119137115Y-129203668D01*
X119145914Y-129201556D01*
X119337450Y-129136538D01*
X119345714Y-129132858D01*
X119522194Y-129034026D01*
X119529652Y-129028900D01*
X119685157Y-128899568D01*
X119691568Y-128893157D01*
X119820900Y-128737652D01*
X119826026Y-128730194D01*
X119924858Y-128553714D01*
X119928538Y-128545450D01*
X119993556Y-128353914D01*
X119995668Y-128345115D01*
X120010109Y-128245518D01*
X120007850Y-128232372D01*
X120006815Y-128231363D01*
X120000968Y-128230000D01*
X119037680Y-128230000D01*
X119024995Y-128234122D01*
X119022000Y-128238243D01*
X119022000Y-129204679D01*
X118722000Y-129204679D01*
X118722000Y-128245680D01*
X118717878Y-128232995D01*
X118713757Y-128230000D01*
X117744962Y-128230000D01*
X117732277Y-128234122D01*
X117730202Y-128236978D01*
X117729898Y-128239405D01*
X116800000Y-128239405D01*
X116800000Y-127914428D01*
X117733487Y-127914428D01*
X117736090Y-127927511D01*
X117737663Y-127928965D01*
X117742378Y-127930000D01*
X118706320Y-127930000D01*
X118719005Y-127925878D01*
X118722000Y-127921757D01*
X118722000Y-127914320D01*
X119022000Y-127914320D01*
X119026122Y-127927005D01*
X119030243Y-127930000D01*
X119997464Y-127930000D01*
X120010149Y-127925878D01*
X120011818Y-127923582D01*
X120012222Y-127919966D01*
X120008003Y-127874048D01*
X120006356Y-127865164D01*
X119951449Y-127670481D01*
X119948208Y-127662037D01*
X119858745Y-127480624D01*
X119854020Y-127472914D01*
X119732994Y-127310840D01*
X119726945Y-127304122D01*
X119578405Y-127166814D01*
X119571240Y-127161315D01*
X119400163Y-127053374D01*
X119392110Y-127049271D01*
X119204229Y-126974314D01*
X119195571Y-126971749D01*
X119037379Y-126940283D01*
X119024132Y-126941851D01*
X119024100Y-126941881D01*
X119022000Y-126949928D01*
X119022000Y-127914320D01*
X118722000Y-127914320D01*
X118722000Y-126954517D01*
X118717878Y-126941832D01*
X118717274Y-126941393D01*
X118710127Y-126940877D01*
X118577559Y-126963657D01*
X118568823Y-126965998D01*
X118379050Y-127036009D01*
X118370887Y-127039902D01*
X118197047Y-127143326D01*
X118189745Y-127148631D01*
X118037657Y-127282010D01*
X118031434Y-127288568D01*
X117906209Y-127447415D01*
X117901284Y-127454998D01*
X117807097Y-127634018D01*
X117803643Y-127642358D01*
X117743658Y-127835538D01*
X117741777Y-127844389D01*
X117733487Y-127914428D01*
X116800000Y-127914428D01*
X116800000Y-125525262D01*
X117816520Y-125525262D01*
X117819302Y-125558394D01*
X117833288Y-125724942D01*
X117833759Y-125730553D01*
X117835092Y-125735201D01*
X117835092Y-125735202D01*
X117889058Y-125923402D01*
X117890544Y-125928586D01*
X117984712Y-126111818D01*
X118112677Y-126273270D01*
X118116357Y-126276402D01*
X118116359Y-126276404D01*
X118168885Y-126321107D01*
X118269564Y-126406791D01*
X118273787Y-126409151D01*
X118273791Y-126409154D01*
X118376408Y-126466504D01*
X118449398Y-126507297D01*
X118453996Y-126508791D01*
X118640724Y-126569463D01*
X118640726Y-126569464D01*
X118645329Y-126570959D01*
X118849894Y-126595351D01*
X118854716Y-126594980D01*
X118854719Y-126594980D01*
X118922541Y-126589761D01*
X119055300Y-126579546D01*
X119253725Y-126524145D01*
X119258038Y-126521966D01*
X119258044Y-126521964D01*
X119433289Y-126433441D01*
X119433291Y-126433440D01*
X119437610Y-126431258D01*
X119562253Y-126333877D01*
X119596135Y-126307406D01*
X119596139Y-126307402D01*
X119599951Y-126304424D01*
X119621977Y-126278907D01*
X119699778Y-126188772D01*
X119734564Y-126148472D01*
X119753231Y-126115613D01*
X119833934Y-125973550D01*
X119833935Y-125973547D01*
X119836323Y-125969344D01*
X119840833Y-125955788D01*
X119899824Y-125778454D01*
X119899824Y-125778452D01*
X119901351Y-125773863D01*
X119906347Y-125734320D01*
X119923885Y-125595486D01*
X119927171Y-125569474D01*
X119927289Y-125561075D01*
X119927544Y-125542776D01*
X119927583Y-125540000D01*
X119927313Y-125537244D01*
X119907952Y-125339780D01*
X119907951Y-125339776D01*
X119907480Y-125334970D01*
X119847935Y-125137749D01*
X119751218Y-124955849D01*
X119621011Y-124796200D01*
X119568599Y-124752841D01*
X119466002Y-124667965D01*
X119466000Y-124667964D01*
X119462275Y-124664882D01*
X119341747Y-124599713D01*
X119285309Y-124569197D01*
X119285308Y-124569197D01*
X119281055Y-124566897D01*
X119217855Y-124547333D01*
X119088875Y-124507407D01*
X119088871Y-124507406D01*
X119084254Y-124505977D01*
X119079446Y-124505472D01*
X119079443Y-124505471D01*
X118884185Y-124484949D01*
X118884183Y-124484949D01*
X118879369Y-124484443D01*
X118819354Y-124489905D01*
X118679022Y-124502675D01*
X118679017Y-124502676D01*
X118674203Y-124503114D01*
X118476572Y-124561280D01*
X118472288Y-124563519D01*
X118472287Y-124563520D01*
X118461428Y-124569197D01*
X118294002Y-124656726D01*
X118290231Y-124659758D01*
X118137220Y-124782781D01*
X118137217Y-124782783D01*
X118133447Y-124785815D01*
X118130333Y-124789526D01*
X118130332Y-124789527D01*
X118006648Y-124936928D01*
X118001024Y-124943630D01*
X117998689Y-124947878D01*
X117998688Y-124947879D01*
X117980684Y-124980628D01*
X117901776Y-125124162D01*
X117900313Y-125128775D01*
X117900311Y-125128779D01*
X117866770Y-125234514D01*
X117839484Y-125320532D01*
X117838944Y-125325344D01*
X117838944Y-125325345D01*
X117837865Y-125334970D01*
X117816520Y-125525262D01*
X116800000Y-125525262D01*
X116800000Y-122985262D01*
X117816520Y-122985262D01*
X117819073Y-123015661D01*
X117832398Y-123174342D01*
X117833759Y-123190553D01*
X117835092Y-123195201D01*
X117835092Y-123195202D01*
X117888545Y-123381613D01*
X117890544Y-123388586D01*
X117984712Y-123571818D01*
X118112677Y-123733270D01*
X118116357Y-123736402D01*
X118116359Y-123736404D01*
X118179718Y-123790326D01*
X118269564Y-123866791D01*
X118273787Y-123869151D01*
X118273791Y-123869154D01*
X118374547Y-123925464D01*
X118449398Y-123967297D01*
X118453996Y-123968791D01*
X118640724Y-124029463D01*
X118640726Y-124029464D01*
X118645329Y-124030959D01*
X118849894Y-124055351D01*
X118854716Y-124054980D01*
X118854719Y-124054980D01*
X118922541Y-124049761D01*
X119055300Y-124039546D01*
X119253725Y-123984145D01*
X119258038Y-123981966D01*
X119258044Y-123981964D01*
X119433289Y-123893441D01*
X119433291Y-123893440D01*
X119437610Y-123891258D01*
X119451514Y-123880395D01*
X119596135Y-123767406D01*
X119596139Y-123767402D01*
X119599951Y-123764424D01*
X119623297Y-123737378D01*
X119682942Y-123668277D01*
X119734564Y-123608472D01*
X119747019Y-123586548D01*
X119833934Y-123433550D01*
X119833935Y-123433547D01*
X119836323Y-123429344D01*
X119849642Y-123389308D01*
X119899824Y-123238454D01*
X119899824Y-123238452D01*
X119901351Y-123233863D01*
X119902443Y-123225223D01*
X119926823Y-123032228D01*
X119927171Y-123029474D01*
X119927583Y-123000000D01*
X119922843Y-122951658D01*
X119907952Y-122799780D01*
X119907951Y-122799776D01*
X119907480Y-122794970D01*
X119906010Y-122790099D01*
X119855585Y-122623086D01*
X119847935Y-122597749D01*
X119751218Y-122415849D01*
X119621011Y-122256200D01*
X119585030Y-122226434D01*
X119466002Y-122127965D01*
X119466000Y-122127964D01*
X119462275Y-122124882D01*
X119331342Y-122054087D01*
X119285309Y-122029197D01*
X119285308Y-122029197D01*
X119281055Y-122026897D01*
X119180907Y-121995896D01*
X119088875Y-121967407D01*
X119088871Y-121967406D01*
X119084254Y-121965977D01*
X119079446Y-121965472D01*
X119079443Y-121965471D01*
X118884185Y-121944949D01*
X118884183Y-121944949D01*
X118879369Y-121944443D01*
X118819354Y-121949905D01*
X118679022Y-121962675D01*
X118679017Y-121962676D01*
X118674203Y-121963114D01*
X118476572Y-122021280D01*
X118472288Y-122023519D01*
X118472287Y-122023520D01*
X118461428Y-122029197D01*
X118294002Y-122116726D01*
X118290231Y-122119758D01*
X118137220Y-122242781D01*
X118137217Y-122242783D01*
X118133447Y-122245815D01*
X118130333Y-122249526D01*
X118130332Y-122249527D01*
X118022998Y-122377443D01*
X118001024Y-122403630D01*
X117998689Y-122407878D01*
X117998688Y-122407879D01*
X117987811Y-122427664D01*
X117901776Y-122584162D01*
X117900313Y-122588775D01*
X117900311Y-122588779D01*
X117868341Y-122689562D01*
X117839484Y-122780532D01*
X117838944Y-122785344D01*
X117838944Y-122785345D01*
X117817748Y-122974316D01*
X117816520Y-122985262D01*
X116800000Y-122985262D01*
X116800000Y-120445262D01*
X117816520Y-120445262D01*
X117819401Y-120479568D01*
X117830315Y-120609536D01*
X117833759Y-120650553D01*
X117835092Y-120655201D01*
X117835092Y-120655202D01*
X117855039Y-120724764D01*
X117890544Y-120848586D01*
X117984712Y-121031818D01*
X118112677Y-121193270D01*
X118116357Y-121196402D01*
X118116359Y-121196404D01*
X118202835Y-121270000D01*
X118269564Y-121326791D01*
X118273787Y-121329151D01*
X118273791Y-121329154D01*
X118313342Y-121351258D01*
X118449398Y-121427297D01*
X118453996Y-121428791D01*
X118640724Y-121489463D01*
X118640726Y-121489464D01*
X118645329Y-121490959D01*
X118849894Y-121515351D01*
X118854716Y-121514980D01*
X118854719Y-121514980D01*
X118922541Y-121509761D01*
X119055300Y-121499546D01*
X119253725Y-121444145D01*
X119258038Y-121441966D01*
X119258044Y-121441964D01*
X119433289Y-121353441D01*
X119433291Y-121353440D01*
X119437610Y-121351258D01*
X119472943Y-121323653D01*
X119596135Y-121227406D01*
X119596139Y-121227402D01*
X119599951Y-121224424D01*
X119612496Y-121209891D01*
X119716708Y-121089158D01*
X119734564Y-121068472D01*
X119754200Y-121033907D01*
X119833934Y-120893550D01*
X119833935Y-120893547D01*
X119836323Y-120889344D01*
X119843171Y-120868760D01*
X119899824Y-120698454D01*
X119899824Y-120698452D01*
X119901351Y-120693863D01*
X119904303Y-120670500D01*
X119926823Y-120492228D01*
X119927171Y-120489474D01*
X119927310Y-120479568D01*
X119927544Y-120462776D01*
X119927583Y-120460000D01*
X119927313Y-120457244D01*
X119907952Y-120259780D01*
X119907951Y-120259776D01*
X119907480Y-120254970D01*
X119899459Y-120228401D01*
X119866163Y-120118123D01*
X119847935Y-120057749D01*
X119751218Y-119875849D01*
X119621011Y-119716200D01*
X119575110Y-119678227D01*
X119466002Y-119587965D01*
X119466000Y-119587964D01*
X119462275Y-119584882D01*
X119281055Y-119486897D01*
X119190624Y-119458904D01*
X119088875Y-119427407D01*
X119088871Y-119427406D01*
X119084254Y-119425977D01*
X119079446Y-119425472D01*
X119079443Y-119425471D01*
X118884185Y-119404949D01*
X118884183Y-119404949D01*
X118879369Y-119404443D01*
X118824833Y-119409406D01*
X118679022Y-119422675D01*
X118679017Y-119422676D01*
X118674203Y-119423114D01*
X118476572Y-119481280D01*
X118472288Y-119483519D01*
X118472287Y-119483520D01*
X118438593Y-119501135D01*
X118294002Y-119576726D01*
X118290231Y-119579758D01*
X118137220Y-119702781D01*
X118137217Y-119702783D01*
X118133447Y-119705815D01*
X118130333Y-119709526D01*
X118130332Y-119709527D01*
X118012849Y-119849538D01*
X118001024Y-119863630D01*
X117998689Y-119867878D01*
X117998688Y-119867879D01*
X117986527Y-119890000D01*
X117901776Y-120044162D01*
X117900313Y-120048775D01*
X117900311Y-120048779D01*
X117857406Y-120184034D01*
X117839484Y-120240532D01*
X117838944Y-120245344D01*
X117838944Y-120245345D01*
X117817272Y-120438560D01*
X117816520Y-120445262D01*
X116800000Y-120445262D01*
X116800000Y-117905262D01*
X117816520Y-117905262D01*
X117816925Y-117910082D01*
X117832910Y-118100438D01*
X117833759Y-118110553D01*
X117835092Y-118115201D01*
X117835092Y-118115202D01*
X117878174Y-118265445D01*
X117890544Y-118308586D01*
X117984712Y-118491818D01*
X118112677Y-118653270D01*
X118116357Y-118656402D01*
X118116359Y-118656404D01*
X118200955Y-118728400D01*
X118269564Y-118786791D01*
X118273787Y-118789151D01*
X118273791Y-118789154D01*
X118313342Y-118811258D01*
X118449398Y-118887297D01*
X118453996Y-118888791D01*
X118640724Y-118949463D01*
X118640726Y-118949464D01*
X118645329Y-118950959D01*
X118849894Y-118975351D01*
X118854716Y-118974980D01*
X118854719Y-118974980D01*
X118925935Y-118969500D01*
X119055300Y-118959546D01*
X119253725Y-118904145D01*
X119258038Y-118901966D01*
X119258044Y-118901964D01*
X119433289Y-118813441D01*
X119433291Y-118813440D01*
X119437610Y-118811258D01*
X119510397Y-118754391D01*
X119596135Y-118687406D01*
X119596139Y-118687402D01*
X119599951Y-118684424D01*
X119734564Y-118528472D01*
X119753231Y-118495613D01*
X119833934Y-118353550D01*
X119833935Y-118353547D01*
X119836323Y-118349344D01*
X119843012Y-118329238D01*
X119899824Y-118158454D01*
X119899824Y-118158452D01*
X119901351Y-118153863D01*
X119903988Y-118132994D01*
X119926823Y-117952228D01*
X119927171Y-117949474D01*
X119927583Y-117920000D01*
X119925667Y-117900454D01*
X119907952Y-117719780D01*
X119907951Y-117719776D01*
X119907480Y-117714970D01*
X119847935Y-117517749D01*
X119751218Y-117335849D01*
X119621011Y-117176200D01*
X119611920Y-117168679D01*
X119466002Y-117047965D01*
X119466000Y-117047964D01*
X119462275Y-117044882D01*
X119281055Y-116946897D01*
X119217855Y-116927333D01*
X119088875Y-116887407D01*
X119088871Y-116887406D01*
X119084254Y-116885977D01*
X119079446Y-116885472D01*
X119079443Y-116885471D01*
X118884185Y-116864949D01*
X118884183Y-116864949D01*
X118879369Y-116864443D01*
X118819354Y-116869905D01*
X118679022Y-116882675D01*
X118679017Y-116882676D01*
X118674203Y-116883114D01*
X118476572Y-116941280D01*
X118472288Y-116943519D01*
X118472287Y-116943520D01*
X118461428Y-116949197D01*
X118294002Y-117036726D01*
X118283209Y-117045404D01*
X118137220Y-117162781D01*
X118137217Y-117162783D01*
X118133447Y-117165815D01*
X118130333Y-117169526D01*
X118130332Y-117169527D01*
X118017787Y-117303653D01*
X118001024Y-117323630D01*
X117998689Y-117327878D01*
X117998688Y-117327879D01*
X117991955Y-117340126D01*
X117901776Y-117504162D01*
X117900313Y-117508775D01*
X117900311Y-117508779D01*
X117894230Y-117527950D01*
X117839484Y-117700532D01*
X117838944Y-117705344D01*
X117838944Y-117705345D01*
X117817085Y-117900227D01*
X117816520Y-117905262D01*
X116800000Y-117905262D01*
X116800000Y-116249748D01*
X117821500Y-116249748D01*
X117823502Y-116259812D01*
X117830931Y-116297159D01*
X117833133Y-116308231D01*
X117877448Y-116374552D01*
X117943769Y-116418867D01*
X117953332Y-116420769D01*
X117953334Y-116420770D01*
X117976005Y-116425279D01*
X118002252Y-116430500D01*
X119741748Y-116430500D01*
X119767995Y-116425279D01*
X119790666Y-116420770D01*
X119790668Y-116420769D01*
X119800231Y-116418867D01*
X119866552Y-116374552D01*
X119910867Y-116308231D01*
X119913070Y-116297159D01*
X119920498Y-116259812D01*
X119922500Y-116249748D01*
X119922500Y-114510252D01*
X119914832Y-114471702D01*
X119912770Y-114461334D01*
X119912769Y-114461332D01*
X119910867Y-114451769D01*
X119866552Y-114385448D01*
X119800231Y-114341133D01*
X119790668Y-114339231D01*
X119790666Y-114339230D01*
X119767995Y-114334721D01*
X119741748Y-114329500D01*
X118002252Y-114329500D01*
X117976005Y-114334721D01*
X117953334Y-114339230D01*
X117953332Y-114339231D01*
X117943769Y-114341133D01*
X117877448Y-114385448D01*
X117833133Y-114451769D01*
X117831231Y-114461332D01*
X117831230Y-114461334D01*
X117829168Y-114471702D01*
X117821500Y-114510252D01*
X117821500Y-116249748D01*
X116800000Y-116249748D01*
X116800000Y-111199000D01*
X116818907Y-111140809D01*
X116868407Y-111104845D01*
X116899000Y-111100000D01*
X125802871Y-111100000D01*
X125861062Y-111118907D01*
G37*
%TD.AperFunction*%
%TA.AperFunction,Conductor*%
G36*
X135882806Y-126078185D02*
G01*
X135892198Y-126086458D01*
X136704527Y-126898787D01*
X136716839Y-126913790D01*
X136725399Y-126926601D01*
X136733509Y-126932020D01*
X136748966Y-126942348D01*
X136808260Y-126981966D01*
X136906000Y-127001408D01*
X136921112Y-126998402D01*
X136940426Y-126996500D01*
X139101943Y-126996500D01*
X139160134Y-127015407D01*
X139196098Y-127064907D01*
X139196098Y-127126093D01*
X139160134Y-127175593D01*
X139147809Y-127183234D01*
X139126295Y-127194481D01*
X139126290Y-127194484D01*
X139122002Y-127196726D01*
X139118231Y-127199758D01*
X138965220Y-127322781D01*
X138965217Y-127322783D01*
X138961447Y-127325815D01*
X138958333Y-127329526D01*
X138958332Y-127329527D01*
X138871984Y-127432433D01*
X138829024Y-127483630D01*
X138826689Y-127487878D01*
X138826688Y-127487879D01*
X138814348Y-127510326D01*
X138729776Y-127664162D01*
X138728313Y-127668775D01*
X138728311Y-127668779D01*
X138681956Y-127814910D01*
X138667484Y-127860532D01*
X138666944Y-127865344D01*
X138666944Y-127865345D01*
X138655690Y-127965682D01*
X138644520Y-128065262D01*
X138644925Y-128070082D01*
X138659657Y-128245518D01*
X138661759Y-128270553D01*
X138663092Y-128275201D01*
X138663092Y-128275202D01*
X138712342Y-128446956D01*
X138718544Y-128468586D01*
X138812712Y-128651818D01*
X138940677Y-128813270D01*
X138944357Y-128816402D01*
X138944359Y-128816404D01*
X139034544Y-128893157D01*
X139097564Y-128946791D01*
X139101787Y-128949151D01*
X139101791Y-128949154D01*
X139202479Y-129005426D01*
X139277398Y-129047297D01*
X139281996Y-129048791D01*
X139468724Y-129109463D01*
X139468726Y-129109464D01*
X139473329Y-129110959D01*
X139677894Y-129135351D01*
X139682716Y-129134980D01*
X139682719Y-129134980D01*
X139750541Y-129129761D01*
X139883300Y-129119546D01*
X140081725Y-129064145D01*
X140086038Y-129061966D01*
X140086044Y-129061964D01*
X140261289Y-128973441D01*
X140261291Y-128973440D01*
X140265610Y-128971258D01*
X140357370Y-128899568D01*
X140424135Y-128847406D01*
X140424139Y-128847402D01*
X140427951Y-128844424D01*
X140437615Y-128833229D01*
X140545557Y-128708175D01*
X140597893Y-128676479D01*
X140658864Y-128681598D01*
X140705181Y-128721578D01*
X140719500Y-128772863D01*
X140719500Y-129929828D01*
X140700593Y-129988019D01*
X140651093Y-130023983D01*
X140589907Y-130023983D01*
X140543781Y-129992399D01*
X140452071Y-129879952D01*
X140449011Y-129876200D01*
X140427133Y-129858101D01*
X140294002Y-129747965D01*
X140294000Y-129747964D01*
X140290275Y-129744882D01*
X140109055Y-129646897D01*
X140045855Y-129627333D01*
X139916875Y-129587407D01*
X139916871Y-129587406D01*
X139912254Y-129585977D01*
X139907446Y-129585472D01*
X139907443Y-129585471D01*
X139712185Y-129564949D01*
X139712183Y-129564949D01*
X139707369Y-129564443D01*
X139656086Y-129569110D01*
X139507022Y-129582675D01*
X139507017Y-129582676D01*
X139502203Y-129583114D01*
X139304572Y-129641280D01*
X139300288Y-129643519D01*
X139300287Y-129643520D01*
X139289428Y-129649197D01*
X139122002Y-129736726D01*
X139118231Y-129739758D01*
X138965220Y-129862781D01*
X138965217Y-129862783D01*
X138961447Y-129865815D01*
X138958333Y-129869526D01*
X138958332Y-129869527D01*
X138885136Y-129956759D01*
X138829024Y-130023630D01*
X138826689Y-130027878D01*
X138826688Y-130027879D01*
X138819955Y-130040126D01*
X138729776Y-130204162D01*
X138728313Y-130208774D01*
X138699237Y-130300434D01*
X138663620Y-130350184D01*
X138604871Y-130369500D01*
X137066652Y-130369500D01*
X137008461Y-130350593D01*
X136986558Y-130328689D01*
X136983587Y-130324599D01*
X136980050Y-130317658D01*
X136890342Y-130227950D01*
X136883405Y-130224415D01*
X136883403Y-130224414D01*
X136784244Y-130173890D01*
X136784243Y-130173890D01*
X136777304Y-130170354D01*
X136769610Y-130169135D01*
X136769609Y-130169135D01*
X136659697Y-130151727D01*
X136652000Y-130150508D01*
X136644303Y-130151727D01*
X136534391Y-130169135D01*
X136534390Y-130169135D01*
X136526696Y-130170354D01*
X136519757Y-130173890D01*
X136519756Y-130173890D01*
X136420597Y-130224414D01*
X136420595Y-130224415D01*
X136413658Y-130227950D01*
X136323950Y-130317658D01*
X136320415Y-130324595D01*
X136320414Y-130324597D01*
X136281723Y-130400532D01*
X136266354Y-130430696D01*
X136265135Y-130438390D01*
X136265135Y-130438391D01*
X136257060Y-130489377D01*
X136246508Y-130556000D01*
X136247727Y-130563697D01*
X136261313Y-130649474D01*
X136266354Y-130681304D01*
X136323950Y-130794342D01*
X136413658Y-130884050D01*
X136420595Y-130887585D01*
X136420597Y-130887586D01*
X136519756Y-130938110D01*
X136526696Y-130941646D01*
X136534390Y-130942865D01*
X136534391Y-130942865D01*
X136644303Y-130960273D01*
X136652000Y-130961492D01*
X136659697Y-130960273D01*
X136769609Y-130942865D01*
X136769610Y-130942865D01*
X136777304Y-130941646D01*
X136890342Y-130884050D01*
X136891342Y-130886012D01*
X136939086Y-130870500D01*
X138604347Y-130870500D01*
X138662538Y-130889407D01*
X138699512Y-130942212D01*
X138718544Y-131008586D01*
X138812712Y-131191818D01*
X138940677Y-131353270D01*
X138944357Y-131356402D01*
X138944359Y-131356404D01*
X139023480Y-131423741D01*
X139097564Y-131486791D01*
X139101787Y-131489151D01*
X139101791Y-131489154D01*
X139141342Y-131511258D01*
X139277398Y-131587297D01*
X139281996Y-131588791D01*
X139468724Y-131649463D01*
X139468726Y-131649464D01*
X139473329Y-131650959D01*
X139677894Y-131675351D01*
X139682716Y-131674980D01*
X139682719Y-131674980D01*
X139750541Y-131669761D01*
X139883300Y-131659546D01*
X140081725Y-131604145D01*
X140086038Y-131601966D01*
X140086044Y-131601964D01*
X140261289Y-131513441D01*
X140261291Y-131513440D01*
X140265610Y-131511258D01*
X140355634Y-131440924D01*
X140424135Y-131387406D01*
X140424139Y-131387402D01*
X140427951Y-131384424D01*
X140454843Y-131353270D01*
X140545557Y-131248175D01*
X140597893Y-131216479D01*
X140658864Y-131221598D01*
X140705181Y-131261578D01*
X140719500Y-131312863D01*
X140719500Y-132469828D01*
X140700593Y-132528019D01*
X140651093Y-132563983D01*
X140589907Y-132563983D01*
X140543781Y-132532399D01*
X140452071Y-132419952D01*
X140449011Y-132416200D01*
X140290275Y-132284882D01*
X140109055Y-132186897D01*
X140045855Y-132167333D01*
X139916875Y-132127407D01*
X139916871Y-132127406D01*
X139912254Y-132125977D01*
X139907446Y-132125472D01*
X139907443Y-132125471D01*
X139712185Y-132104949D01*
X139712183Y-132104949D01*
X139707369Y-132104443D01*
X139647354Y-132109905D01*
X139507022Y-132122675D01*
X139507017Y-132122676D01*
X139502203Y-132123114D01*
X139304572Y-132181280D01*
X139300288Y-132183519D01*
X139300287Y-132183520D01*
X139232528Y-132218944D01*
X139122002Y-132276726D01*
X139118231Y-132279758D01*
X138965220Y-132402781D01*
X138965217Y-132402783D01*
X138961447Y-132405815D01*
X138958333Y-132409526D01*
X138958332Y-132409527D01*
X138907734Y-132469828D01*
X138829024Y-132563630D01*
X138826689Y-132567878D01*
X138826688Y-132567879D01*
X138820053Y-132579948D01*
X138729776Y-132744162D01*
X138667484Y-132940532D01*
X138666944Y-132945344D01*
X138666944Y-132945345D01*
X138665865Y-132954970D01*
X138644520Y-133145262D01*
X138644925Y-133150082D01*
X138658537Y-133312180D01*
X138661759Y-133350553D01*
X138663092Y-133355201D01*
X138663092Y-133355202D01*
X138701443Y-133488946D01*
X138718544Y-133548586D01*
X138812712Y-133731818D01*
X138940677Y-133893270D01*
X138944357Y-133896402D01*
X138944359Y-133896404D01*
X139057017Y-133992283D01*
X139097564Y-134026791D01*
X139101787Y-134029151D01*
X139101791Y-134029154D01*
X139141342Y-134051258D01*
X139277398Y-134127297D01*
X139281996Y-134128791D01*
X139468724Y-134189463D01*
X139468726Y-134189464D01*
X139473329Y-134190959D01*
X139677894Y-134215351D01*
X139682716Y-134214980D01*
X139682719Y-134214980D01*
X139750541Y-134209761D01*
X139883300Y-134199546D01*
X140081725Y-134144145D01*
X140086038Y-134141966D01*
X140086044Y-134141964D01*
X140261289Y-134053441D01*
X140261291Y-134053440D01*
X140265610Y-134051258D01*
X140307206Y-134018760D01*
X140424135Y-133927406D01*
X140424139Y-133927402D01*
X140427951Y-133924424D01*
X140454843Y-133893270D01*
X140545557Y-133788175D01*
X140597893Y-133756479D01*
X140658864Y-133761598D01*
X140705181Y-133801578D01*
X140719500Y-133852863D01*
X140719500Y-135009828D01*
X140700593Y-135068019D01*
X140651093Y-135103983D01*
X140589907Y-135103983D01*
X140543781Y-135072399D01*
X140452071Y-134959952D01*
X140449011Y-134956200D01*
X140290275Y-134824882D01*
X140109055Y-134726897D01*
X140045855Y-134707333D01*
X139916875Y-134667407D01*
X139916871Y-134667406D01*
X139912254Y-134665977D01*
X139907446Y-134665472D01*
X139907443Y-134665471D01*
X139712185Y-134644949D01*
X139712183Y-134644949D01*
X139707369Y-134644443D01*
X139651855Y-134649495D01*
X139507022Y-134662675D01*
X139507017Y-134662676D01*
X139502203Y-134663114D01*
X139304572Y-134721280D01*
X139300288Y-134723519D01*
X139300287Y-134723520D01*
X139232528Y-134758944D01*
X139122002Y-134816726D01*
X139118231Y-134819758D01*
X138965220Y-134942781D01*
X138965217Y-134942783D01*
X138961447Y-134945815D01*
X138958333Y-134949526D01*
X138958332Y-134949527D01*
X138907734Y-135009828D01*
X138829024Y-135103630D01*
X138826689Y-135107878D01*
X138826688Y-135107879D01*
X138813746Y-135131420D01*
X138729776Y-135284162D01*
X138728313Y-135288775D01*
X138728311Y-135288779D01*
X138680932Y-135438139D01*
X138667484Y-135480532D01*
X138666944Y-135485344D01*
X138666944Y-135485345D01*
X138649423Y-135641554D01*
X138644520Y-135685262D01*
X138644925Y-135690082D01*
X138660809Y-135879236D01*
X138661759Y-135890553D01*
X138718544Y-136088586D01*
X138812712Y-136271818D01*
X138940677Y-136433270D01*
X138944357Y-136436402D01*
X138944359Y-136436404D01*
X139057017Y-136532283D01*
X139097564Y-136566791D01*
X139101787Y-136569151D01*
X139101791Y-136569154D01*
X139141342Y-136591258D01*
X139277398Y-136667297D01*
X139281996Y-136668791D01*
X139468724Y-136729463D01*
X139468726Y-136729464D01*
X139473329Y-136730959D01*
X139677894Y-136755351D01*
X139682716Y-136754980D01*
X139682719Y-136754980D01*
X139750541Y-136749761D01*
X139883300Y-136739546D01*
X140081725Y-136684145D01*
X140086038Y-136681966D01*
X140086044Y-136681964D01*
X140261289Y-136593441D01*
X140261291Y-136593440D01*
X140265610Y-136591258D01*
X140305570Y-136560038D01*
X140424135Y-136467406D01*
X140424139Y-136467402D01*
X140427951Y-136464424D01*
X140454843Y-136433270D01*
X140545557Y-136328175D01*
X140597893Y-136296479D01*
X140658864Y-136301598D01*
X140705181Y-136341578D01*
X140719500Y-136392863D01*
X140719500Y-137389902D01*
X140700593Y-137448093D01*
X140651093Y-137484057D01*
X140589907Y-137484057D01*
X140553299Y-137462600D01*
X140406405Y-137326814D01*
X140399240Y-137321315D01*
X140228163Y-137213374D01*
X140220110Y-137209271D01*
X140032229Y-137134314D01*
X140023571Y-137131749D01*
X139865379Y-137100283D01*
X139852132Y-137101851D01*
X139852100Y-137101881D01*
X139850000Y-137109928D01*
X139850000Y-139364679D01*
X139854122Y-139377364D01*
X139855292Y-139378215D01*
X139861272Y-139378725D01*
X139965115Y-139363668D01*
X139973914Y-139361556D01*
X140165450Y-139296538D01*
X140173714Y-139292858D01*
X140350194Y-139194026D01*
X140357652Y-139188900D01*
X140513157Y-139059568D01*
X140519563Y-139053162D01*
X140544385Y-139023317D01*
X140596131Y-138990668D01*
X140657186Y-138994670D01*
X140704227Y-139033795D01*
X140719500Y-139086622D01*
X140719500Y-140089828D01*
X140700593Y-140148019D01*
X140651093Y-140183983D01*
X140589907Y-140183983D01*
X140543781Y-140152399D01*
X140452071Y-140039952D01*
X140449011Y-140036200D01*
X140290275Y-139904882D01*
X140109055Y-139806897D01*
X140045855Y-139787333D01*
X139916875Y-139747407D01*
X139916871Y-139747406D01*
X139912254Y-139745977D01*
X139907446Y-139745472D01*
X139907443Y-139745471D01*
X139712185Y-139724949D01*
X139712183Y-139724949D01*
X139707369Y-139724443D01*
X139647354Y-139729905D01*
X139507022Y-139742675D01*
X139507017Y-139742676D01*
X139502203Y-139743114D01*
X139304572Y-139801280D01*
X139300288Y-139803519D01*
X139300287Y-139803520D01*
X139232528Y-139838944D01*
X139122002Y-139896726D01*
X139118231Y-139899758D01*
X138965220Y-140022781D01*
X138965217Y-140022783D01*
X138961447Y-140025815D01*
X138958333Y-140029526D01*
X138958332Y-140029527D01*
X138907734Y-140089828D01*
X138829024Y-140183630D01*
X138826689Y-140187878D01*
X138826688Y-140187879D01*
X138801061Y-140234494D01*
X138729776Y-140364162D01*
X138667484Y-140560532D01*
X138666944Y-140565344D01*
X138666944Y-140565345D01*
X138665865Y-140574970D01*
X138644520Y-140765262D01*
X138661759Y-140970553D01*
X138718544Y-141168586D01*
X138812712Y-141351818D01*
X138940677Y-141513270D01*
X138944357Y-141516402D01*
X138944359Y-141516404D01*
X139057017Y-141612283D01*
X139097564Y-141646791D01*
X139101787Y-141649151D01*
X139101791Y-141649154D01*
X139141342Y-141671258D01*
X139277398Y-141747297D01*
X139281996Y-141748791D01*
X139468724Y-141809463D01*
X139468726Y-141809464D01*
X139473329Y-141810959D01*
X139677894Y-141835351D01*
X139682716Y-141834980D01*
X139682719Y-141834980D01*
X139750541Y-141829761D01*
X139883300Y-141819546D01*
X140081725Y-141764145D01*
X140086038Y-141761966D01*
X140086044Y-141761964D01*
X140261289Y-141673441D01*
X140261291Y-141673440D01*
X140265610Y-141671258D01*
X140300943Y-141643653D01*
X140424135Y-141547406D01*
X140424139Y-141547402D01*
X140427951Y-141544424D01*
X140454843Y-141513270D01*
X140545557Y-141408175D01*
X140597893Y-141376479D01*
X140658864Y-141381598D01*
X140705181Y-141421578D01*
X140719500Y-141472863D01*
X140719500Y-142629828D01*
X140700593Y-142688019D01*
X140651093Y-142723983D01*
X140589907Y-142723983D01*
X140543781Y-142692399D01*
X140452071Y-142579952D01*
X140449011Y-142576200D01*
X140290275Y-142444882D01*
X140109055Y-142346897D01*
X140045855Y-142327333D01*
X139916875Y-142287407D01*
X139916871Y-142287406D01*
X139912254Y-142285977D01*
X139907446Y-142285472D01*
X139907443Y-142285471D01*
X139712185Y-142264949D01*
X139712183Y-142264949D01*
X139707369Y-142264443D01*
X139647354Y-142269905D01*
X139507022Y-142282675D01*
X139507017Y-142282676D01*
X139502203Y-142283114D01*
X139304572Y-142341280D01*
X139300288Y-142343519D01*
X139300287Y-142343520D01*
X139289428Y-142349197D01*
X139122002Y-142436726D01*
X139118231Y-142439758D01*
X138965220Y-142562781D01*
X138965217Y-142562783D01*
X138961447Y-142565815D01*
X138958333Y-142569526D01*
X138958332Y-142569527D01*
X138907734Y-142629828D01*
X138829024Y-142723630D01*
X138826689Y-142727878D01*
X138826688Y-142727879D01*
X138819955Y-142740126D01*
X138729776Y-142904162D01*
X138667484Y-143100532D01*
X138666944Y-143105344D01*
X138666944Y-143105345D01*
X138665865Y-143114970D01*
X138644520Y-143305262D01*
X138661759Y-143510553D01*
X138663092Y-143515201D01*
X138663092Y-143515202D01*
X138717208Y-143703928D01*
X138717209Y-143703931D01*
X138718544Y-143708586D01*
X138812712Y-143891818D01*
X138940677Y-144053270D01*
X138944357Y-144056402D01*
X138944359Y-144056404D01*
X139036154Y-144134527D01*
X139097564Y-144186791D01*
X139101787Y-144189151D01*
X139101791Y-144189154D01*
X139218702Y-144254493D01*
X139277398Y-144287297D01*
X139281996Y-144288791D01*
X139468724Y-144349463D01*
X139468726Y-144349464D01*
X139473329Y-144350959D01*
X139677894Y-144375351D01*
X139682716Y-144374980D01*
X139682719Y-144374980D01*
X139750541Y-144369761D01*
X139883300Y-144359546D01*
X140081725Y-144304145D01*
X140086038Y-144301966D01*
X140086044Y-144301964D01*
X140261289Y-144213441D01*
X140261291Y-144213440D01*
X140265610Y-144211258D01*
X140344043Y-144149980D01*
X140424135Y-144087406D01*
X140424139Y-144087402D01*
X140427951Y-144084424D01*
X140454843Y-144053270D01*
X140545557Y-143948175D01*
X140597893Y-143916479D01*
X140658864Y-143921598D01*
X140705181Y-143961578D01*
X140719500Y-144012863D01*
X140719500Y-144445232D01*
X140700593Y-144503423D01*
X140690504Y-144515236D01*
X140297398Y-144908342D01*
X140242881Y-144936119D01*
X140180307Y-144925423D01*
X140113309Y-144889197D01*
X140113308Y-144889197D01*
X140109055Y-144886897D01*
X140045855Y-144867333D01*
X139916875Y-144827407D01*
X139916871Y-144827406D01*
X139912254Y-144825977D01*
X139907446Y-144825472D01*
X139907443Y-144825471D01*
X139712185Y-144804949D01*
X139712183Y-144804949D01*
X139707369Y-144804443D01*
X139647354Y-144809905D01*
X139507022Y-144822675D01*
X139507017Y-144822676D01*
X139502203Y-144823114D01*
X139304572Y-144881280D01*
X139300288Y-144883519D01*
X139300287Y-144883520D01*
X139232528Y-144918944D01*
X139122002Y-144976726D01*
X139118231Y-144979758D01*
X138965220Y-145102781D01*
X138965217Y-145102783D01*
X138961447Y-145105815D01*
X138958333Y-145109526D01*
X138958332Y-145109527D01*
X138949585Y-145119952D01*
X138829024Y-145263630D01*
X138826689Y-145267878D01*
X138826688Y-145267879D01*
X138819955Y-145280126D01*
X138729776Y-145444162D01*
X138728313Y-145448774D01*
X138699237Y-145540434D01*
X138663620Y-145590184D01*
X138604871Y-145609500D01*
X131846426Y-145609500D01*
X131827112Y-145607598D01*
X131821562Y-145606494D01*
X131812000Y-145604592D01*
X131714259Y-145624034D01*
X131684464Y-145643943D01*
X131684464Y-145643942D01*
X131684461Y-145643945D01*
X131631399Y-145679399D01*
X131625983Y-145687505D01*
X131625982Y-145687506D01*
X131622839Y-145692210D01*
X131610527Y-145707213D01*
X126825836Y-150491904D01*
X126771319Y-150519681D01*
X126731716Y-150517917D01*
X126646659Y-150496552D01*
X126586231Y-150481373D01*
X126586228Y-150481373D01*
X126580441Y-150479919D01*
X126537032Y-150479692D01*
X126515171Y-150479577D01*
X126457080Y-150460365D01*
X126421376Y-150410677D01*
X126421697Y-150349492D01*
X126445686Y-150310574D01*
X126951976Y-149804284D01*
X126966979Y-149791972D01*
X126971683Y-149788829D01*
X126971684Y-149788828D01*
X126979790Y-149783412D01*
X127015244Y-149730350D01*
X127015247Y-149730348D01*
X127015246Y-149730347D01*
X127035155Y-149700552D01*
X127054597Y-149602811D01*
X127051591Y-149587699D01*
X127049689Y-149568385D01*
X127049689Y-138399405D01*
X138557898Y-138399405D01*
X138558995Y-138416145D01*
X138560408Y-138425064D01*
X138610200Y-138621121D01*
X138613220Y-138629649D01*
X138697904Y-138813341D01*
X138702422Y-138821167D01*
X138819171Y-138986363D01*
X138825035Y-138993229D01*
X138969931Y-139134381D01*
X138976954Y-139140068D01*
X139145138Y-139252446D01*
X139153093Y-139256764D01*
X139338929Y-139336606D01*
X139347540Y-139339404D01*
X139539830Y-139382914D01*
X139547167Y-139380840D01*
X139549787Y-139377514D01*
X139550000Y-139376317D01*
X139550000Y-138405680D01*
X139545878Y-138392995D01*
X139541757Y-138390000D01*
X138572962Y-138390000D01*
X138560277Y-138394122D01*
X138558202Y-138396978D01*
X138557898Y-138399405D01*
X127049689Y-138399405D01*
X127049689Y-138074428D01*
X138561487Y-138074428D01*
X138564090Y-138087511D01*
X138565663Y-138088965D01*
X138570378Y-138090000D01*
X139534320Y-138090000D01*
X139547005Y-138085878D01*
X139550000Y-138081757D01*
X139550000Y-137114517D01*
X139545878Y-137101832D01*
X139545274Y-137101393D01*
X139538127Y-137100877D01*
X139405559Y-137123657D01*
X139396823Y-137125998D01*
X139207050Y-137196009D01*
X139198887Y-137199902D01*
X139025047Y-137303326D01*
X139017745Y-137308631D01*
X138865657Y-137442010D01*
X138859434Y-137448568D01*
X138734209Y-137607415D01*
X138729284Y-137614998D01*
X138635097Y-137794018D01*
X138631643Y-137802358D01*
X138571658Y-137995538D01*
X138569777Y-138004389D01*
X138561487Y-138074428D01*
X127049689Y-138074428D01*
X127049689Y-135438139D01*
X128194000Y-135438139D01*
X128194346Y-135443985D01*
X128196234Y-135459853D01*
X128200128Y-135474019D01*
X128238770Y-135561014D01*
X128248946Y-135575821D01*
X128315108Y-135641867D01*
X128329931Y-135652017D01*
X128416980Y-135690500D01*
X128431185Y-135694373D01*
X128446580Y-135696168D01*
X128452292Y-135696500D01*
X129628320Y-135696500D01*
X129641005Y-135692378D01*
X129644000Y-135688257D01*
X129644000Y-135680820D01*
X129944000Y-135680820D01*
X129948122Y-135693505D01*
X129952243Y-135696500D01*
X131135639Y-135696500D01*
X131141485Y-135696154D01*
X131157353Y-135694266D01*
X131171519Y-135690372D01*
X131258514Y-135651730D01*
X131273321Y-135641554D01*
X131339367Y-135575392D01*
X131349517Y-135560569D01*
X131388000Y-135473520D01*
X131391873Y-135459315D01*
X131393668Y-135443920D01*
X131394000Y-135438208D01*
X131394000Y-135125639D01*
X133359000Y-135125639D01*
X133359346Y-135131485D01*
X133361234Y-135147353D01*
X133365128Y-135161519D01*
X133403770Y-135248514D01*
X133413946Y-135263321D01*
X133480108Y-135329367D01*
X133494931Y-135339517D01*
X133581980Y-135378000D01*
X133596185Y-135381873D01*
X133611580Y-135383668D01*
X133617292Y-135384000D01*
X134393320Y-135384000D01*
X134406005Y-135379878D01*
X134409000Y-135375757D01*
X134409000Y-135368320D01*
X134709000Y-135368320D01*
X134713122Y-135381005D01*
X134717243Y-135384000D01*
X135500639Y-135384000D01*
X135506485Y-135383654D01*
X135522353Y-135381766D01*
X135536519Y-135377872D01*
X135623514Y-135339230D01*
X135638321Y-135329054D01*
X135704367Y-135262892D01*
X135714517Y-135248069D01*
X135753000Y-135161020D01*
X135756873Y-135146815D01*
X135758668Y-135131420D01*
X135759000Y-135125708D01*
X135759000Y-134574680D01*
X135754878Y-134561995D01*
X135750757Y-134559000D01*
X134724680Y-134559000D01*
X134711995Y-134563122D01*
X134709000Y-134567243D01*
X134709000Y-135368320D01*
X134409000Y-135368320D01*
X134409000Y-134574680D01*
X134404878Y-134561995D01*
X134400757Y-134559000D01*
X133374680Y-134559000D01*
X133361995Y-134563122D01*
X133359000Y-134567243D01*
X133359000Y-135125639D01*
X131394000Y-135125639D01*
X131394000Y-134662180D01*
X131389878Y-134649495D01*
X131385757Y-134646500D01*
X129959680Y-134646500D01*
X129946995Y-134650622D01*
X129944000Y-134654743D01*
X129944000Y-135680820D01*
X129644000Y-135680820D01*
X129644000Y-134662180D01*
X129639878Y-134649495D01*
X129635757Y-134646500D01*
X128209680Y-134646500D01*
X128196995Y-134650622D01*
X128194000Y-134654743D01*
X128194000Y-135438139D01*
X127049689Y-135438139D01*
X127049689Y-134330820D01*
X128194000Y-134330820D01*
X128198122Y-134343505D01*
X128202243Y-134346500D01*
X129628320Y-134346500D01*
X129641005Y-134342378D01*
X129644000Y-134338257D01*
X129644000Y-134330820D01*
X129944000Y-134330820D01*
X129948122Y-134343505D01*
X129952243Y-134346500D01*
X131378320Y-134346500D01*
X131391005Y-134342378D01*
X131394000Y-134338257D01*
X131394000Y-134243320D01*
X133359000Y-134243320D01*
X133363122Y-134256005D01*
X133367243Y-134259000D01*
X134393320Y-134259000D01*
X134406005Y-134254878D01*
X134409000Y-134250757D01*
X134409000Y-134243320D01*
X134709000Y-134243320D01*
X134713122Y-134256005D01*
X134717243Y-134259000D01*
X135743320Y-134259000D01*
X135756005Y-134254878D01*
X135759000Y-134250757D01*
X135759000Y-133692361D01*
X135758654Y-133686515D01*
X135756766Y-133670647D01*
X135752872Y-133656481D01*
X135714230Y-133569486D01*
X135704054Y-133554679D01*
X135637892Y-133488633D01*
X135623069Y-133478483D01*
X135536020Y-133440000D01*
X135521815Y-133436127D01*
X135506420Y-133434332D01*
X135500708Y-133434000D01*
X134724680Y-133434000D01*
X134711995Y-133438122D01*
X134709000Y-133442243D01*
X134709000Y-134243320D01*
X134409000Y-134243320D01*
X134409000Y-133449680D01*
X134404878Y-133436995D01*
X134400757Y-133434000D01*
X133617361Y-133434000D01*
X133611515Y-133434346D01*
X133595647Y-133436234D01*
X133581481Y-133440128D01*
X133494486Y-133478770D01*
X133479679Y-133488946D01*
X133413633Y-133555108D01*
X133403483Y-133569931D01*
X133365000Y-133656980D01*
X133361127Y-133671185D01*
X133359332Y-133686580D01*
X133359000Y-133692292D01*
X133359000Y-134243320D01*
X131394000Y-134243320D01*
X131394000Y-133554861D01*
X131393654Y-133549015D01*
X131391766Y-133533147D01*
X131387872Y-133518981D01*
X131349230Y-133431986D01*
X131339054Y-133417179D01*
X131272892Y-133351133D01*
X131258069Y-133340983D01*
X131171020Y-133302500D01*
X131156815Y-133298627D01*
X131141420Y-133296832D01*
X131135708Y-133296500D01*
X129959680Y-133296500D01*
X129946995Y-133300622D01*
X129944000Y-133304743D01*
X129944000Y-134330820D01*
X129644000Y-134330820D01*
X129644000Y-133312180D01*
X129639878Y-133299495D01*
X129635757Y-133296500D01*
X128452361Y-133296500D01*
X128446515Y-133296846D01*
X128430647Y-133298734D01*
X128416481Y-133302628D01*
X128329486Y-133341270D01*
X128314679Y-133351446D01*
X128248633Y-133417608D01*
X128238483Y-133432431D01*
X128200000Y-133519480D01*
X128196127Y-133533685D01*
X128194332Y-133549080D01*
X128194000Y-133554792D01*
X128194000Y-134330820D01*
X127049689Y-134330820D01*
X127049689Y-129794000D01*
X127918318Y-129794000D01*
X127938956Y-129950762D01*
X127999464Y-130096841D01*
X128095718Y-130222282D01*
X128221159Y-130318536D01*
X128280008Y-130342912D01*
X128326533Y-130382649D01*
X128340817Y-130442143D01*
X128324438Y-130489377D01*
X128305133Y-130518269D01*
X128293500Y-130576752D01*
X128293500Y-132416248D01*
X128305133Y-132474731D01*
X128349448Y-132541052D01*
X128415769Y-132585367D01*
X128425332Y-132587269D01*
X128425334Y-132587270D01*
X128448005Y-132591779D01*
X128474252Y-132597000D01*
X131113748Y-132597000D01*
X131139995Y-132591779D01*
X131162666Y-132587270D01*
X131162668Y-132587269D01*
X131172231Y-132585367D01*
X131238552Y-132541052D01*
X131282867Y-132474731D01*
X131294500Y-132416248D01*
X131294500Y-130576752D01*
X131282867Y-130518269D01*
X131238552Y-130451948D01*
X131230441Y-130446528D01*
X131193288Y-130421702D01*
X131155409Y-130373652D01*
X131153008Y-130312514D01*
X131188024Y-130260846D01*
X131233129Y-130226236D01*
X131238282Y-130222282D01*
X131334536Y-130096841D01*
X131395044Y-129950762D01*
X131415682Y-129794000D01*
X131395044Y-129637238D01*
X131334536Y-129491159D01*
X131238282Y-129365718D01*
X131112841Y-129269464D01*
X130966762Y-129208956D01*
X130810000Y-129188318D01*
X130653238Y-129208956D01*
X130647240Y-129211440D01*
X130647238Y-129211441D01*
X130518837Y-129264626D01*
X130457841Y-129269427D01*
X130405672Y-129237457D01*
X130382257Y-129180929D01*
X130382799Y-129160240D01*
X130398835Y-129038434D01*
X130399682Y-129032000D01*
X130379044Y-128875238D01*
X130318536Y-128729159D01*
X130222282Y-128603718D01*
X130096841Y-128507464D01*
X129950762Y-128446956D01*
X129794000Y-128426318D01*
X129637238Y-128446956D01*
X129491159Y-128507464D01*
X129365718Y-128603718D01*
X129269464Y-128729159D01*
X129208956Y-128875238D01*
X129188318Y-129032000D01*
X129208956Y-129188762D01*
X129269464Y-129334841D01*
X129365718Y-129460282D01*
X129365743Y-129460301D01*
X129392281Y-129512386D01*
X129393500Y-129527873D01*
X129393500Y-129858101D01*
X129374593Y-129916292D01*
X129325093Y-129952256D01*
X129263907Y-129952256D01*
X129224500Y-129928107D01*
X129157830Y-129861438D01*
X129130054Y-129806923D01*
X129129278Y-129797067D01*
X129129682Y-129794000D01*
X129109044Y-129637238D01*
X129048536Y-129491159D01*
X128952282Y-129365718D01*
X128826841Y-129269464D01*
X128680762Y-129208956D01*
X128524000Y-129188318D01*
X128367238Y-129208956D01*
X128221159Y-129269464D01*
X128095718Y-129365718D01*
X127999464Y-129491159D01*
X127938956Y-129637238D01*
X127918318Y-129794000D01*
X127049689Y-129794000D01*
X127049689Y-126929870D01*
X127068596Y-126871679D01*
X127118096Y-126835715D01*
X127179282Y-126835715D01*
X127190520Y-126840142D01*
X127263273Y-126874068D01*
X127312130Y-126880500D01*
X127760762Y-126880500D01*
X127809619Y-126874068D01*
X127817419Y-126870431D01*
X127909000Y-126827726D01*
X127909003Y-126827724D01*
X127916850Y-126824065D01*
X128000511Y-126740404D01*
X128027357Y-126682833D01*
X128069082Y-126638088D01*
X128129144Y-126626413D01*
X128184596Y-126652271D01*
X128205946Y-126681044D01*
X128209190Y-126687651D01*
X128233851Y-126737880D01*
X128239642Y-126743661D01*
X128310053Y-126813950D01*
X128310056Y-126813952D01*
X128315844Y-126819730D01*
X128419929Y-126870608D01*
X128469452Y-126877833D01*
X128484192Y-126879983D01*
X128484194Y-126879983D01*
X128487737Y-126880500D01*
X128898709Y-126880500D01*
X128902292Y-126879972D01*
X128902299Y-126879972D01*
X128959494Y-126871552D01*
X128959496Y-126871551D01*
X128967107Y-126870431D01*
X129008501Y-126850108D01*
X129047183Y-126831116D01*
X129071103Y-126819372D01*
X129084716Y-126805735D01*
X129147173Y-126743170D01*
X129147175Y-126743167D01*
X129152953Y-126737379D01*
X129180419Y-126681190D01*
X129222961Y-126637214D01*
X129283226Y-126626642D01*
X129338195Y-126653511D01*
X129359085Y-126682825D01*
X129385935Y-126740404D01*
X129469596Y-126824065D01*
X129477443Y-126827724D01*
X129477446Y-126827726D01*
X129569027Y-126870431D01*
X129576827Y-126874068D01*
X129625684Y-126880500D01*
X129925232Y-126880500D01*
X129983423Y-126899407D01*
X129995236Y-126909496D01*
X131254527Y-128168787D01*
X131266839Y-128183790D01*
X131275399Y-128196601D01*
X131283508Y-128202019D01*
X131328461Y-128232055D01*
X131328463Y-128232058D01*
X131328464Y-128232057D01*
X131358259Y-128251966D01*
X131456000Y-128271408D01*
X131471112Y-128268402D01*
X131490426Y-128266500D01*
X133558866Y-128266500D01*
X133578180Y-128268402D01*
X133593292Y-128271408D01*
X133691033Y-128251966D01*
X133720828Y-128232057D01*
X133720828Y-128232058D01*
X133720831Y-128232055D01*
X133765784Y-128202019D01*
X133773893Y-128196601D01*
X133782453Y-128183790D01*
X133794765Y-128168787D01*
X134139496Y-127824056D01*
X134194013Y-127796279D01*
X134254445Y-127805850D01*
X134297710Y-127849115D01*
X134308500Y-127894060D01*
X134308500Y-129284500D01*
X134289593Y-129342691D01*
X134240093Y-129378655D01*
X134209500Y-129383500D01*
X133639252Y-129383500D01*
X133613005Y-129388721D01*
X133590334Y-129393230D01*
X133590332Y-129393231D01*
X133580769Y-129395133D01*
X133514448Y-129439448D01*
X133470133Y-129505769D01*
X133458500Y-129564252D01*
X133458500Y-130953748D01*
X133470133Y-131012231D01*
X133514448Y-131078552D01*
X133580769Y-131122867D01*
X133590332Y-131124769D01*
X133590334Y-131124770D01*
X133613005Y-131129279D01*
X133639252Y-131134500D01*
X135478748Y-131134500D01*
X135504995Y-131129279D01*
X135527666Y-131124770D01*
X135527668Y-131124769D01*
X135537231Y-131122867D01*
X135603552Y-131078552D01*
X135647867Y-131012231D01*
X135659500Y-130953748D01*
X135659500Y-129564252D01*
X135647867Y-129505769D01*
X135603552Y-129439448D01*
X135537231Y-129395133D01*
X135527668Y-129393231D01*
X135527666Y-129393230D01*
X135504995Y-129388721D01*
X135478748Y-129383500D01*
X134908500Y-129383500D01*
X134850309Y-129364593D01*
X134814345Y-129315093D01*
X134809500Y-129284500D01*
X134809500Y-127195060D01*
X134828407Y-127136869D01*
X134838496Y-127125056D01*
X135066263Y-126897289D01*
X135120780Y-126869512D01*
X135136267Y-126868293D01*
X135435815Y-126868293D01*
X135484672Y-126861861D01*
X135492982Y-126857986D01*
X135584053Y-126815519D01*
X135584055Y-126815518D01*
X135591903Y-126811858D01*
X135675564Y-126728197D01*
X135696717Y-126682836D01*
X135722364Y-126627835D01*
X135722364Y-126627834D01*
X135725567Y-126620966D01*
X135731999Y-126572109D01*
X135731999Y-126223477D01*
X135725567Y-126174620D01*
X135727447Y-126174372D01*
X135729018Y-126123006D01*
X135766479Y-126074628D01*
X135825220Y-126057508D01*
X135882806Y-126078185D01*
G37*
%TD.AperFunction*%
%TA.AperFunction,Conductor*%
G36*
X137601116Y-118108359D02*
G01*
X137626171Y-118126563D01*
X137683658Y-118184050D01*
X137690595Y-118187585D01*
X137690597Y-118187586D01*
X137770699Y-118228400D01*
X137796696Y-118241646D01*
X137804390Y-118242865D01*
X137804391Y-118242865D01*
X137827242Y-118246484D01*
X137841986Y-118248819D01*
X137896503Y-118276596D01*
X137924281Y-118331112D01*
X137925500Y-118346600D01*
X137925500Y-123299232D01*
X137906593Y-123357423D01*
X137896504Y-123369236D01*
X136167443Y-125098297D01*
X136112926Y-125126074D01*
X136097439Y-125127293D01*
X135775893Y-125127293D01*
X135717702Y-125108386D01*
X135686170Y-125070133D01*
X135675564Y-125047389D01*
X135591903Y-124963728D01*
X135584055Y-124960068D01*
X135584053Y-124960067D01*
X135491541Y-124916928D01*
X135491540Y-124916928D01*
X135484672Y-124913725D01*
X135435815Y-124907293D01*
X134987183Y-124907293D01*
X134938326Y-124913725D01*
X134931458Y-124916928D01*
X134931457Y-124916928D01*
X134838945Y-124960067D01*
X134838943Y-124960068D01*
X134831095Y-124963728D01*
X134747434Y-125047389D01*
X134743774Y-125055237D01*
X134743773Y-125055239D01*
X134738957Y-125065568D01*
X134697229Y-125110316D01*
X134637168Y-125121991D01*
X134581715Y-125096133D01*
X134568135Y-125080510D01*
X134564445Y-125075240D01*
X134560784Y-125067389D01*
X134530363Y-125036968D01*
X134502586Y-124982451D01*
X134512157Y-124922019D01*
X134531935Y-124898210D01*
X134530545Y-124896820D01*
X134535129Y-124892236D01*
X134540282Y-124888282D01*
X134636536Y-124762841D01*
X134697044Y-124616762D01*
X134715981Y-124472921D01*
X134716835Y-124466434D01*
X134717682Y-124460000D01*
X134716366Y-124450000D01*
X134707468Y-124382414D01*
X134697044Y-124303238D01*
X134636536Y-124157159D01*
X134540282Y-124031718D01*
X134414841Y-123935464D01*
X134268762Y-123874956D01*
X134112000Y-123854318D01*
X133955238Y-123874956D01*
X133809159Y-123935464D01*
X133759765Y-123973365D01*
X133702092Y-123993788D01*
X133643426Y-123976411D01*
X133606179Y-123927869D01*
X133600500Y-123894822D01*
X133600500Y-123220247D01*
X134470001Y-123220247D01*
X134470220Y-123224890D01*
X134472345Y-123247374D01*
X134474910Y-123259070D01*
X134514300Y-123371234D01*
X134521147Y-123384167D01*
X134590959Y-123478684D01*
X134601316Y-123489041D01*
X134695833Y-123558853D01*
X134708766Y-123565700D01*
X134820927Y-123605088D01*
X134832629Y-123607656D01*
X134855114Y-123609782D01*
X134859750Y-123610000D01*
X134884320Y-123610000D01*
X134897005Y-123605878D01*
X134900000Y-123601757D01*
X134900000Y-123165680D01*
X134895878Y-123152995D01*
X134891757Y-123150000D01*
X134485681Y-123150000D01*
X134472996Y-123154122D01*
X134470001Y-123158243D01*
X134470001Y-123220247D01*
X133600500Y-123220247D01*
X133600500Y-120483769D01*
X133619407Y-120425578D01*
X133668907Y-120389614D01*
X133730093Y-120389614D01*
X133769504Y-120413765D01*
X133855242Y-120499503D01*
X133883019Y-120554020D01*
X133875785Y-120609536D01*
X133860999Y-120642982D01*
X133857127Y-120657185D01*
X133855332Y-120672580D01*
X133855000Y-120678292D01*
X133855000Y-121254320D01*
X133859122Y-121267005D01*
X133863243Y-121270000D01*
X134781000Y-121270000D01*
X134839191Y-121288907D01*
X134875155Y-121338407D01*
X134880000Y-121369000D01*
X134880000Y-121471000D01*
X134861093Y-121529191D01*
X134811593Y-121565155D01*
X134781000Y-121570000D01*
X133870680Y-121570000D01*
X133857995Y-121574122D01*
X133855000Y-121578243D01*
X133855000Y-122161639D01*
X133855346Y-122167485D01*
X133857234Y-122183353D01*
X133861128Y-122197519D01*
X133899770Y-122284514D01*
X133909946Y-122299321D01*
X133976108Y-122365367D01*
X133990931Y-122375517D01*
X134077980Y-122414000D01*
X134092185Y-122417873D01*
X134107580Y-122419668D01*
X134113292Y-122420000D01*
X134469593Y-122420000D01*
X134527784Y-122438907D01*
X134563748Y-122488407D01*
X134563748Y-122549593D01*
X134549226Y-122577819D01*
X134521145Y-122615837D01*
X134514300Y-122628766D01*
X134474912Y-122740927D01*
X134472344Y-122752629D01*
X134470218Y-122775114D01*
X134470000Y-122779750D01*
X134470000Y-122834320D01*
X134474122Y-122847005D01*
X134478243Y-122850000D01*
X135101000Y-122850000D01*
X135159191Y-122868907D01*
X135195155Y-122918407D01*
X135200000Y-122949000D01*
X135200000Y-123594319D01*
X135204122Y-123607004D01*
X135208243Y-123609999D01*
X135240247Y-123609999D01*
X135244890Y-123609780D01*
X135267374Y-123607655D01*
X135279070Y-123605090D01*
X135391234Y-123565700D01*
X135404167Y-123558853D01*
X135498684Y-123489041D01*
X135509039Y-123478686D01*
X135520629Y-123462994D01*
X135570409Y-123427419D01*
X135631593Y-123427899D01*
X135657299Y-123443790D01*
X135658461Y-123442130D01*
X135665561Y-123447101D01*
X135671684Y-123453224D01*
X135679532Y-123456884D01*
X135679534Y-123456885D01*
X135748493Y-123489041D01*
X135780513Y-123503972D01*
X135830099Y-123510500D01*
X136009972Y-123510500D01*
X136189900Y-123510499D01*
X136193110Y-123510076D01*
X136193117Y-123510076D01*
X136231975Y-123504961D01*
X136231976Y-123504961D01*
X136239487Y-123503972D01*
X136296812Y-123477241D01*
X136340466Y-123456885D01*
X136340468Y-123456884D01*
X136348316Y-123453224D01*
X136433224Y-123368316D01*
X136444958Y-123343154D01*
X136480769Y-123266356D01*
X136483972Y-123259487D01*
X136490500Y-123209901D01*
X136490499Y-122919019D01*
X136509169Y-122861558D01*
X136510601Y-122860601D01*
X136517457Y-122850341D01*
X136548181Y-122804357D01*
X136548183Y-122804354D01*
X136560548Y-122785849D01*
X136565966Y-122777741D01*
X136585408Y-122680000D01*
X136582402Y-122664888D01*
X136580500Y-122645574D01*
X136580500Y-122419500D01*
X136599407Y-122361309D01*
X136648907Y-122325345D01*
X136679500Y-122320500D01*
X136924748Y-122320500D01*
X136950995Y-122315279D01*
X136973666Y-122310770D01*
X136973668Y-122310769D01*
X136983231Y-122308867D01*
X137049552Y-122264552D01*
X137093867Y-122198231D01*
X137096806Y-122183459D01*
X137101146Y-122161639D01*
X137105500Y-122139748D01*
X137105500Y-120700252D01*
X137099582Y-120670500D01*
X137095770Y-120651334D01*
X137095769Y-120651332D01*
X137093867Y-120641769D01*
X137049552Y-120575448D01*
X136983231Y-120531133D01*
X136973668Y-120529231D01*
X136973666Y-120529230D01*
X136949271Y-120524378D01*
X136924748Y-120519500D01*
X135954768Y-120519500D01*
X135896577Y-120500593D01*
X135884764Y-120490504D01*
X135783264Y-120389004D01*
X135755487Y-120334487D01*
X135765058Y-120274055D01*
X135808323Y-120230790D01*
X135853268Y-120220000D01*
X136164320Y-120220000D01*
X136177005Y-120215878D01*
X136180000Y-120211757D01*
X136180000Y-120204320D01*
X136480000Y-120204320D01*
X136484122Y-120217005D01*
X136488243Y-120220000D01*
X136946639Y-120220000D01*
X136952485Y-120219654D01*
X136968353Y-120217766D01*
X136982519Y-120213872D01*
X137069514Y-120175230D01*
X137084321Y-120165054D01*
X137150367Y-120098892D01*
X137160517Y-120084069D01*
X137199000Y-119997020D01*
X137202873Y-119982815D01*
X137204668Y-119967420D01*
X137205000Y-119961708D01*
X137205000Y-119385680D01*
X137200878Y-119372995D01*
X137196757Y-119370000D01*
X136495680Y-119370000D01*
X136482995Y-119374122D01*
X136480000Y-119378243D01*
X136480000Y-120204320D01*
X136180000Y-120204320D01*
X136180000Y-119169000D01*
X136198907Y-119110809D01*
X136248407Y-119074845D01*
X136279000Y-119070000D01*
X137189320Y-119070000D01*
X137202005Y-119065878D01*
X137205000Y-119061757D01*
X137205000Y-118478361D01*
X137204654Y-118472515D01*
X137202766Y-118456647D01*
X137198871Y-118442478D01*
X137175603Y-118390093D01*
X137169261Y-118329238D01*
X137199900Y-118276276D01*
X137244865Y-118253206D01*
X137259068Y-118250090D01*
X137371234Y-118210700D01*
X137384167Y-118203853D01*
X137478690Y-118134037D01*
X137486166Y-118126561D01*
X137540684Y-118098785D01*
X137601116Y-118108359D01*
G37*
%TD.AperFunction*%
%TA.AperFunction,Conductor*%
G36*
X127084423Y-119409407D02*
G01*
X127120387Y-119458907D01*
X127120387Y-119520093D01*
X127096236Y-119559504D01*
X126806202Y-119849538D01*
X126791199Y-119861850D01*
X126778388Y-119870410D01*
X126755922Y-119904034D01*
X126723023Y-119953270D01*
X126721120Y-119962836D01*
X126721119Y-119962839D01*
X126717917Y-119978934D01*
X126688020Y-120032317D01*
X126632454Y-120057932D01*
X126602269Y-120056864D01*
X126565402Y-120049831D01*
X126552170Y-120051503D01*
X126551983Y-120051677D01*
X126550000Y-120059402D01*
X126550000Y-121281000D01*
X126531093Y-121339191D01*
X126481593Y-121375155D01*
X126451000Y-121380000D01*
X126349000Y-121380000D01*
X126290809Y-121361093D01*
X126254845Y-121311593D01*
X126250000Y-121281000D01*
X126250000Y-120060968D01*
X126246479Y-120050133D01*
X126235089Y-120050133D01*
X126126967Y-120085264D01*
X126115787Y-120090524D01*
X125987637Y-120171851D01*
X125978118Y-120179725D01*
X125874226Y-120290360D01*
X125866958Y-120300364D01*
X125795681Y-120430016D01*
X125751079Y-120471900D01*
X125690376Y-120479568D01*
X125636759Y-120450092D01*
X125618070Y-120421641D01*
X125607988Y-120398343D01*
X125607985Y-120398338D01*
X125605305Y-120392145D01*
X125510386Y-120274930D01*
X125482300Y-120254970D01*
X125392940Y-120191465D01*
X125392939Y-120191464D01*
X125387442Y-120187558D01*
X125381097Y-120185274D01*
X125381094Y-120185272D01*
X125251880Y-120138752D01*
X125251877Y-120138751D01*
X125245532Y-120136467D01*
X125201586Y-120133240D01*
X125101842Y-120125914D01*
X125101839Y-120125914D01*
X125095109Y-120125420D01*
X125088494Y-120126754D01*
X125088492Y-120126754D01*
X125042773Y-120135973D01*
X124947257Y-120155233D01*
X124941248Y-120158295D01*
X124941247Y-120158295D01*
X124927982Y-120165054D01*
X124812868Y-120223707D01*
X124807905Y-120228270D01*
X124807903Y-120228272D01*
X124730727Y-120299240D01*
X124701844Y-120325799D01*
X124698284Y-120331541D01*
X124639979Y-120425578D01*
X124622365Y-120453986D01*
X124593303Y-120554020D01*
X124590806Y-120562613D01*
X124556415Y-120613218D01*
X124498847Y-120633944D01*
X124440091Y-120616874D01*
X124402590Y-120568528D01*
X124397653Y-120548431D01*
X124396121Y-120537250D01*
X124395206Y-120530568D01*
X124392529Y-120524382D01*
X124392528Y-120524378D01*
X124337986Y-120398339D01*
X124337984Y-120398335D01*
X124335305Y-120392145D01*
X124240386Y-120274930D01*
X124160237Y-120217971D01*
X124123757Y-120168850D01*
X124123116Y-120107668D01*
X124158560Y-120057794D01*
X124206393Y-120041975D01*
X124206000Y-120039492D01*
X124323609Y-120020865D01*
X124323610Y-120020865D01*
X124331304Y-120019646D01*
X124360688Y-120004674D01*
X124437403Y-119965586D01*
X124437405Y-119965585D01*
X124444342Y-119962050D01*
X124534050Y-119872342D01*
X124545670Y-119849538D01*
X124588110Y-119766244D01*
X124588110Y-119766243D01*
X124591646Y-119759304D01*
X124597676Y-119721236D01*
X124610273Y-119641697D01*
X124611492Y-119634000D01*
X124591646Y-119508696D01*
X124594066Y-119508313D01*
X124594068Y-119458904D01*
X124630034Y-119409406D01*
X124688222Y-119390500D01*
X127026232Y-119390500D01*
X127084423Y-119409407D01*
G37*
%TD.AperFunction*%
%TA.AperFunction,Conductor*%
G36*
X133913691Y-119489407D02*
G01*
X133949655Y-119538907D01*
X133954500Y-119569500D01*
X133954500Y-119651232D01*
X133935593Y-119709423D01*
X133886093Y-119745387D01*
X133824907Y-119745387D01*
X133785497Y-119721236D01*
X133703764Y-119639504D01*
X133675986Y-119584988D01*
X133685557Y-119524555D01*
X133728821Y-119481291D01*
X133773767Y-119470500D01*
X133855500Y-119470500D01*
X133913691Y-119489407D01*
G37*
%TD.AperFunction*%
%TA.AperFunction,Conductor*%
G36*
X134474682Y-118103601D02*
G01*
X134509371Y-118132994D01*
X134520961Y-118148686D01*
X134522771Y-118150496D01*
X134523823Y-118152562D01*
X134525360Y-118154642D01*
X134525014Y-118154898D01*
X134550548Y-118205013D01*
X134540977Y-118265445D01*
X134497712Y-118308710D01*
X134452767Y-118319500D01*
X134383962Y-118319500D01*
X134325771Y-118300593D01*
X134289807Y-118251093D01*
X134289807Y-118189907D01*
X134325771Y-118140407D01*
X134342122Y-118130776D01*
X134350465Y-118126886D01*
X134350469Y-118126883D01*
X134358316Y-118123224D01*
X134364439Y-118117101D01*
X134371537Y-118112131D01*
X134373427Y-118114830D01*
X134414250Y-118094030D01*
X134474682Y-118103601D01*
G37*
%TD.AperFunction*%
%TD*%
M02*
