%TF.GenerationSoftware,KiCad,Pcbnew,(5.1.10)-1*%
%TF.CreationDate,2021-10-08T00:02:28+08:00*%
%TF.ProjectId,Usb-ttl,5573622d-7474-46c2-9e6b-696361645f70,rev?*%
%TF.SameCoordinates,Original*%
%TF.FileFunction,Paste,Top*%
%TF.FilePolarity,Positive*%
%FSLAX46Y46*%
G04 Gerber Fmt 4.6, Leading zero omitted, Abs format (unit mm)*
G04 Created by KiCad (PCBNEW (5.1.10)-1) date 2021-10-08 00:02:28*
%MOMM*%
%LPD*%
G01*
G04 APERTURE LIST*
%ADD10R,2.500000X1.100000*%
G04 APERTURE END LIST*
%TO.C,D2*%
G36*
G01*
X119956250Y-90062500D02*
X119443750Y-90062500D01*
G75*
G02*
X119225000Y-89843750I0J218750D01*
G01*
X119225000Y-89406250D01*
G75*
G02*
X119443750Y-89187500I218750J0D01*
G01*
X119956250Y-89187500D01*
G75*
G02*
X120175000Y-89406250I0J-218750D01*
G01*
X120175000Y-89843750D01*
G75*
G02*
X119956250Y-90062500I-218750J0D01*
G01*
G37*
G36*
G01*
X119956250Y-91637500D02*
X119443750Y-91637500D01*
G75*
G02*
X119225000Y-91418750I0J218750D01*
G01*
X119225000Y-90981250D01*
G75*
G02*
X119443750Y-90762500I218750J0D01*
G01*
X119956250Y-90762500D01*
G75*
G02*
X120175000Y-90981250I0J-218750D01*
G01*
X120175000Y-91418750D01*
G75*
G02*
X119956250Y-91637500I-218750J0D01*
G01*
G37*
%TD*%
%TO.C,D1*%
G36*
G01*
X119443750Y-92300000D02*
X119956250Y-92300000D01*
G75*
G02*
X120175000Y-92518750I0J-218750D01*
G01*
X120175000Y-92956250D01*
G75*
G02*
X119956250Y-93175000I-218750J0D01*
G01*
X119443750Y-93175000D01*
G75*
G02*
X119225000Y-92956250I0J218750D01*
G01*
X119225000Y-92518750D01*
G75*
G02*
X119443750Y-92300000I218750J0D01*
G01*
G37*
G36*
G01*
X119443750Y-93875000D02*
X119956250Y-93875000D01*
G75*
G02*
X120175000Y-94093750I0J-218750D01*
G01*
X120175000Y-94531250D01*
G75*
G02*
X119956250Y-94750000I-218750J0D01*
G01*
X119443750Y-94750000D01*
G75*
G02*
X119225000Y-94531250I0J218750D01*
G01*
X119225000Y-94093750D01*
G75*
G02*
X119443750Y-93875000I218750J0D01*
G01*
G37*
%TD*%
%TO.C,U1*%
G36*
G01*
X109200000Y-90345000D02*
X109200000Y-90045000D01*
G75*
G02*
X109350000Y-89895000I150000J0D01*
G01*
X111000000Y-89895000D01*
G75*
G02*
X111150000Y-90045000I0J-150000D01*
G01*
X111150000Y-90345000D01*
G75*
G02*
X111000000Y-90495000I-150000J0D01*
G01*
X109350000Y-90495000D01*
G75*
G02*
X109200000Y-90345000I0J150000D01*
G01*
G37*
G36*
G01*
X109200000Y-91615000D02*
X109200000Y-91315000D01*
G75*
G02*
X109350000Y-91165000I150000J0D01*
G01*
X111000000Y-91165000D01*
G75*
G02*
X111150000Y-91315000I0J-150000D01*
G01*
X111150000Y-91615000D01*
G75*
G02*
X111000000Y-91765000I-150000J0D01*
G01*
X109350000Y-91765000D01*
G75*
G02*
X109200000Y-91615000I0J150000D01*
G01*
G37*
G36*
G01*
X109200000Y-92885000D02*
X109200000Y-92585000D01*
G75*
G02*
X109350000Y-92435000I150000J0D01*
G01*
X111000000Y-92435000D01*
G75*
G02*
X111150000Y-92585000I0J-150000D01*
G01*
X111150000Y-92885000D01*
G75*
G02*
X111000000Y-93035000I-150000J0D01*
G01*
X109350000Y-93035000D01*
G75*
G02*
X109200000Y-92885000I0J150000D01*
G01*
G37*
G36*
G01*
X109200000Y-94155000D02*
X109200000Y-93855000D01*
G75*
G02*
X109350000Y-93705000I150000J0D01*
G01*
X111000000Y-93705000D01*
G75*
G02*
X111150000Y-93855000I0J-150000D01*
G01*
X111150000Y-94155000D01*
G75*
G02*
X111000000Y-94305000I-150000J0D01*
G01*
X109350000Y-94305000D01*
G75*
G02*
X109200000Y-94155000I0J150000D01*
G01*
G37*
G36*
G01*
X114150000Y-94155000D02*
X114150000Y-93855000D01*
G75*
G02*
X114300000Y-93705000I150000J0D01*
G01*
X115950000Y-93705000D01*
G75*
G02*
X116100000Y-93855000I0J-150000D01*
G01*
X116100000Y-94155000D01*
G75*
G02*
X115950000Y-94305000I-150000J0D01*
G01*
X114300000Y-94305000D01*
G75*
G02*
X114150000Y-94155000I0J150000D01*
G01*
G37*
G36*
G01*
X114150000Y-92885000D02*
X114150000Y-92585000D01*
G75*
G02*
X114300000Y-92435000I150000J0D01*
G01*
X115950000Y-92435000D01*
G75*
G02*
X116100000Y-92585000I0J-150000D01*
G01*
X116100000Y-92885000D01*
G75*
G02*
X115950000Y-93035000I-150000J0D01*
G01*
X114300000Y-93035000D01*
G75*
G02*
X114150000Y-92885000I0J150000D01*
G01*
G37*
G36*
G01*
X114150000Y-91615000D02*
X114150000Y-91315000D01*
G75*
G02*
X114300000Y-91165000I150000J0D01*
G01*
X115950000Y-91165000D01*
G75*
G02*
X116100000Y-91315000I0J-150000D01*
G01*
X116100000Y-91615000D01*
G75*
G02*
X115950000Y-91765000I-150000J0D01*
G01*
X114300000Y-91765000D01*
G75*
G02*
X114150000Y-91615000I0J150000D01*
G01*
G37*
G36*
G01*
X114150000Y-90345000D02*
X114150000Y-90045000D01*
G75*
G02*
X114300000Y-89895000I150000J0D01*
G01*
X115950000Y-89895000D01*
G75*
G02*
X116100000Y-90045000I0J-150000D01*
G01*
X116100000Y-90345000D01*
G75*
G02*
X115950000Y-90495000I-150000J0D01*
G01*
X114300000Y-90495000D01*
G75*
G02*
X114150000Y-90345000I0J150000D01*
G01*
G37*
%TD*%
%TO.C,R2*%
G36*
G01*
X119450000Y-87775000D02*
X120000000Y-87775000D01*
G75*
G02*
X120200000Y-87975000I0J-200000D01*
G01*
X120200000Y-88375000D01*
G75*
G02*
X120000000Y-88575000I-200000J0D01*
G01*
X119450000Y-88575000D01*
G75*
G02*
X119250000Y-88375000I0J200000D01*
G01*
X119250000Y-87975000D01*
G75*
G02*
X119450000Y-87775000I200000J0D01*
G01*
G37*
G36*
G01*
X119450000Y-86125000D02*
X120000000Y-86125000D01*
G75*
G02*
X120200000Y-86325000I0J-200000D01*
G01*
X120200000Y-86725000D01*
G75*
G02*
X120000000Y-86925000I-200000J0D01*
G01*
X119450000Y-86925000D01*
G75*
G02*
X119250000Y-86725000I0J200000D01*
G01*
X119250000Y-86325000D01*
G75*
G02*
X119450000Y-86125000I200000J0D01*
G01*
G37*
%TD*%
%TO.C,R1*%
G36*
G01*
X119975000Y-96200000D02*
X119425000Y-96200000D01*
G75*
G02*
X119225000Y-96000000I0J200000D01*
G01*
X119225000Y-95600000D01*
G75*
G02*
X119425000Y-95400000I200000J0D01*
G01*
X119975000Y-95400000D01*
G75*
G02*
X120175000Y-95600000I0J-200000D01*
G01*
X120175000Y-96000000D01*
G75*
G02*
X119975000Y-96200000I-200000J0D01*
G01*
G37*
G36*
G01*
X119975000Y-97850000D02*
X119425000Y-97850000D01*
G75*
G02*
X119225000Y-97650000I0J200000D01*
G01*
X119225000Y-97250000D01*
G75*
G02*
X119425000Y-97050000I200000J0D01*
G01*
X119975000Y-97050000D01*
G75*
G02*
X120175000Y-97250000I0J-200000D01*
G01*
X120175000Y-97650000D01*
G75*
G02*
X119975000Y-97850000I-200000J0D01*
G01*
G37*
%TD*%
D10*
%TO.C,J1*%
X105650000Y-93000000D03*
X105650000Y-91000000D03*
X105650000Y-95500000D03*
X105650000Y-88500000D03*
%TD*%
%TO.C,C2*%
G36*
G01*
X114625000Y-87925000D02*
X114625000Y-88425000D01*
G75*
G02*
X114400000Y-88650000I-225000J0D01*
G01*
X113950000Y-88650000D01*
G75*
G02*
X113725000Y-88425000I0J225000D01*
G01*
X113725000Y-87925000D01*
G75*
G02*
X113950000Y-87700000I225000J0D01*
G01*
X114400000Y-87700000D01*
G75*
G02*
X114625000Y-87925000I0J-225000D01*
G01*
G37*
G36*
G01*
X116175000Y-87925000D02*
X116175000Y-88425000D01*
G75*
G02*
X115950000Y-88650000I-225000J0D01*
G01*
X115500000Y-88650000D01*
G75*
G02*
X115275000Y-88425000I0J225000D01*
G01*
X115275000Y-87925000D01*
G75*
G02*
X115500000Y-87700000I225000J0D01*
G01*
X115950000Y-87700000D01*
G75*
G02*
X116175000Y-87925000I0J-225000D01*
G01*
G37*
%TD*%
%TO.C,C1*%
G36*
G01*
X114525000Y-95775000D02*
X114525000Y-96275000D01*
G75*
G02*
X114300000Y-96500000I-225000J0D01*
G01*
X113850000Y-96500000D01*
G75*
G02*
X113625000Y-96275000I0J225000D01*
G01*
X113625000Y-95775000D01*
G75*
G02*
X113850000Y-95550000I225000J0D01*
G01*
X114300000Y-95550000D01*
G75*
G02*
X114525000Y-95775000I0J-225000D01*
G01*
G37*
G36*
G01*
X116075000Y-95775000D02*
X116075000Y-96275000D01*
G75*
G02*
X115850000Y-96500000I-225000J0D01*
G01*
X115400000Y-96500000D01*
G75*
G02*
X115175000Y-96275000I0J225000D01*
G01*
X115175000Y-95775000D01*
G75*
G02*
X115400000Y-95550000I225000J0D01*
G01*
X115850000Y-95550000D01*
G75*
G02*
X116075000Y-95775000I0J-225000D01*
G01*
G37*
%TD*%
M02*
