%TF.GenerationSoftware,KiCad,Pcbnew,(5.1.10)-1*%
%TF.CreationDate,2021-10-08T00:02:28+08:00*%
%TF.ProjectId,Usb-ttl,5573622d-7474-46c2-9e6b-696361645f70,rev?*%
%TF.SameCoordinates,Original*%
%TF.FileFunction,Soldermask,Top*%
%TF.FilePolarity,Negative*%
%FSLAX46Y46*%
G04 Gerber Fmt 4.6, Leading zero omitted, Abs format (unit mm)*
G04 Created by KiCad (PCBNEW (5.1.10)-1) date 2021-10-08 00:02:28*
%MOMM*%
%LPD*%
G01*
G04 APERTURE LIST*
%ADD10O,1.800000X1.800000*%
%ADD11O,3.600000X2.000000*%
%ADD12C,1.200000*%
G04 APERTURE END LIST*
%TO.C,D2*%
G36*
G01*
X119981250Y-90112500D02*
X119418750Y-90112500D01*
G75*
G02*
X119175000Y-89868750I0J243750D01*
G01*
X119175000Y-89381250D01*
G75*
G02*
X119418750Y-89137500I243750J0D01*
G01*
X119981250Y-89137500D01*
G75*
G02*
X120225000Y-89381250I0J-243750D01*
G01*
X120225000Y-89868750D01*
G75*
G02*
X119981250Y-90112500I-243750J0D01*
G01*
G37*
G36*
G01*
X119981250Y-91687500D02*
X119418750Y-91687500D01*
G75*
G02*
X119175000Y-91443750I0J243750D01*
G01*
X119175000Y-90956250D01*
G75*
G02*
X119418750Y-90712500I243750J0D01*
G01*
X119981250Y-90712500D01*
G75*
G02*
X120225000Y-90956250I0J-243750D01*
G01*
X120225000Y-91443750D01*
G75*
G02*
X119981250Y-91687500I-243750J0D01*
G01*
G37*
%TD*%
%TO.C,D1*%
G36*
G01*
X119418750Y-92250000D02*
X119981250Y-92250000D01*
G75*
G02*
X120225000Y-92493750I0J-243750D01*
G01*
X120225000Y-92981250D01*
G75*
G02*
X119981250Y-93225000I-243750J0D01*
G01*
X119418750Y-93225000D01*
G75*
G02*
X119175000Y-92981250I0J243750D01*
G01*
X119175000Y-92493750D01*
G75*
G02*
X119418750Y-92250000I243750J0D01*
G01*
G37*
G36*
G01*
X119418750Y-93825000D02*
X119981250Y-93825000D01*
G75*
G02*
X120225000Y-94068750I0J-243750D01*
G01*
X120225000Y-94556250D01*
G75*
G02*
X119981250Y-94800000I-243750J0D01*
G01*
X119418750Y-94800000D01*
G75*
G02*
X119175000Y-94556250I0J243750D01*
G01*
X119175000Y-94068750D01*
G75*
G02*
X119418750Y-93825000I243750J0D01*
G01*
G37*
%TD*%
%TO.C,U1*%
G36*
G01*
X109150000Y-90370000D02*
X109150000Y-90020000D01*
G75*
G02*
X109325000Y-89845000I175000J0D01*
G01*
X111025000Y-89845000D01*
G75*
G02*
X111200000Y-90020000I0J-175000D01*
G01*
X111200000Y-90370000D01*
G75*
G02*
X111025000Y-90545000I-175000J0D01*
G01*
X109325000Y-90545000D01*
G75*
G02*
X109150000Y-90370000I0J175000D01*
G01*
G37*
G36*
G01*
X109150000Y-91640000D02*
X109150000Y-91290000D01*
G75*
G02*
X109325000Y-91115000I175000J0D01*
G01*
X111025000Y-91115000D01*
G75*
G02*
X111200000Y-91290000I0J-175000D01*
G01*
X111200000Y-91640000D01*
G75*
G02*
X111025000Y-91815000I-175000J0D01*
G01*
X109325000Y-91815000D01*
G75*
G02*
X109150000Y-91640000I0J175000D01*
G01*
G37*
G36*
G01*
X109150000Y-92910000D02*
X109150000Y-92560000D01*
G75*
G02*
X109325000Y-92385000I175000J0D01*
G01*
X111025000Y-92385000D01*
G75*
G02*
X111200000Y-92560000I0J-175000D01*
G01*
X111200000Y-92910000D01*
G75*
G02*
X111025000Y-93085000I-175000J0D01*
G01*
X109325000Y-93085000D01*
G75*
G02*
X109150000Y-92910000I0J175000D01*
G01*
G37*
G36*
G01*
X109150000Y-94180000D02*
X109150000Y-93830000D01*
G75*
G02*
X109325000Y-93655000I175000J0D01*
G01*
X111025000Y-93655000D01*
G75*
G02*
X111200000Y-93830000I0J-175000D01*
G01*
X111200000Y-94180000D01*
G75*
G02*
X111025000Y-94355000I-175000J0D01*
G01*
X109325000Y-94355000D01*
G75*
G02*
X109150000Y-94180000I0J175000D01*
G01*
G37*
G36*
G01*
X114100000Y-94180000D02*
X114100000Y-93830000D01*
G75*
G02*
X114275000Y-93655000I175000J0D01*
G01*
X115975000Y-93655000D01*
G75*
G02*
X116150000Y-93830000I0J-175000D01*
G01*
X116150000Y-94180000D01*
G75*
G02*
X115975000Y-94355000I-175000J0D01*
G01*
X114275000Y-94355000D01*
G75*
G02*
X114100000Y-94180000I0J175000D01*
G01*
G37*
G36*
G01*
X114100000Y-92910000D02*
X114100000Y-92560000D01*
G75*
G02*
X114275000Y-92385000I175000J0D01*
G01*
X115975000Y-92385000D01*
G75*
G02*
X116150000Y-92560000I0J-175000D01*
G01*
X116150000Y-92910000D01*
G75*
G02*
X115975000Y-93085000I-175000J0D01*
G01*
X114275000Y-93085000D01*
G75*
G02*
X114100000Y-92910000I0J175000D01*
G01*
G37*
G36*
G01*
X114100000Y-91640000D02*
X114100000Y-91290000D01*
G75*
G02*
X114275000Y-91115000I175000J0D01*
G01*
X115975000Y-91115000D01*
G75*
G02*
X116150000Y-91290000I0J-175000D01*
G01*
X116150000Y-91640000D01*
G75*
G02*
X115975000Y-91815000I-175000J0D01*
G01*
X114275000Y-91815000D01*
G75*
G02*
X114100000Y-91640000I0J175000D01*
G01*
G37*
G36*
G01*
X114100000Y-90370000D02*
X114100000Y-90020000D01*
G75*
G02*
X114275000Y-89845000I175000J0D01*
G01*
X115975000Y-89845000D01*
G75*
G02*
X116150000Y-90020000I0J-175000D01*
G01*
X116150000Y-90370000D01*
G75*
G02*
X115975000Y-90545000I-175000J0D01*
G01*
X114275000Y-90545000D01*
G75*
G02*
X114100000Y-90370000I0J175000D01*
G01*
G37*
%TD*%
%TO.C,R2*%
G36*
G01*
X119425000Y-87725000D02*
X120025000Y-87725000D01*
G75*
G02*
X120250000Y-87950000I0J-225000D01*
G01*
X120250000Y-88400000D01*
G75*
G02*
X120025000Y-88625000I-225000J0D01*
G01*
X119425000Y-88625000D01*
G75*
G02*
X119200000Y-88400000I0J225000D01*
G01*
X119200000Y-87950000D01*
G75*
G02*
X119425000Y-87725000I225000J0D01*
G01*
G37*
G36*
G01*
X119425000Y-86075000D02*
X120025000Y-86075000D01*
G75*
G02*
X120250000Y-86300000I0J-225000D01*
G01*
X120250000Y-86750000D01*
G75*
G02*
X120025000Y-86975000I-225000J0D01*
G01*
X119425000Y-86975000D01*
G75*
G02*
X119200000Y-86750000I0J225000D01*
G01*
X119200000Y-86300000D01*
G75*
G02*
X119425000Y-86075000I225000J0D01*
G01*
G37*
%TD*%
%TO.C,R1*%
G36*
G01*
X120000000Y-96250000D02*
X119400000Y-96250000D01*
G75*
G02*
X119175000Y-96025000I0J225000D01*
G01*
X119175000Y-95575000D01*
G75*
G02*
X119400000Y-95350000I225000J0D01*
G01*
X120000000Y-95350000D01*
G75*
G02*
X120225000Y-95575000I0J-225000D01*
G01*
X120225000Y-96025000D01*
G75*
G02*
X120000000Y-96250000I-225000J0D01*
G01*
G37*
G36*
G01*
X120000000Y-97900000D02*
X119400000Y-97900000D01*
G75*
G02*
X119175000Y-97675000I0J225000D01*
G01*
X119175000Y-97225000D01*
G75*
G02*
X119400000Y-97000000I225000J0D01*
G01*
X120000000Y-97000000D01*
G75*
G02*
X120225000Y-97225000I0J-225000D01*
G01*
X120225000Y-97675000D01*
G75*
G02*
X120000000Y-97900000I-225000J0D01*
G01*
G37*
%TD*%
D10*
%TO.C,J2*%
X123000000Y-97080000D03*
X123000000Y-94540000D03*
X123000000Y-92000000D03*
X123000000Y-89460000D03*
G36*
G01*
X122100000Y-87770000D02*
X122100000Y-86070000D01*
G75*
G02*
X122150000Y-86020000I50000J0D01*
G01*
X123850000Y-86020000D01*
G75*
G02*
X123900000Y-86070000I0J-50000D01*
G01*
X123900000Y-87770000D01*
G75*
G02*
X123850000Y-87820000I-50000J0D01*
G01*
X122150000Y-87820000D01*
G75*
G02*
X122100000Y-87770000I0J50000D01*
G01*
G37*
%TD*%
%TO.C,J1*%
G36*
G01*
X106950000Y-92450000D02*
X106950000Y-93550000D01*
G75*
G02*
X106900000Y-93600000I-50000J0D01*
G01*
X104400000Y-93600000D01*
G75*
G02*
X104350000Y-93550000I0J50000D01*
G01*
X104350000Y-92450000D01*
G75*
G02*
X104400000Y-92400000I50000J0D01*
G01*
X106900000Y-92400000D01*
G75*
G02*
X106950000Y-92450000I0J-50000D01*
G01*
G37*
G36*
G01*
X106950000Y-90450000D02*
X106950000Y-91550000D01*
G75*
G02*
X106900000Y-91600000I-50000J0D01*
G01*
X104400000Y-91600000D01*
G75*
G02*
X104350000Y-91550000I0J50000D01*
G01*
X104350000Y-90450000D01*
G75*
G02*
X104400000Y-90400000I50000J0D01*
G01*
X106900000Y-90400000D01*
G75*
G02*
X106950000Y-90450000I0J-50000D01*
G01*
G37*
G36*
G01*
X106950000Y-94950000D02*
X106950000Y-96050000D01*
G75*
G02*
X106900000Y-96100000I-50000J0D01*
G01*
X104400000Y-96100000D01*
G75*
G02*
X104350000Y-96050000I0J50000D01*
G01*
X104350000Y-94950000D01*
G75*
G02*
X104400000Y-94900000I50000J0D01*
G01*
X106900000Y-94900000D01*
G75*
G02*
X106950000Y-94950000I0J-50000D01*
G01*
G37*
G36*
G01*
X106950000Y-87950000D02*
X106950000Y-89050000D01*
G75*
G02*
X106900000Y-89100000I-50000J0D01*
G01*
X104400000Y-89100000D01*
G75*
G02*
X104350000Y-89050000I0J50000D01*
G01*
X104350000Y-87950000D01*
G75*
G02*
X104400000Y-87900000I50000J0D01*
G01*
X106900000Y-87900000D01*
G75*
G02*
X106950000Y-87950000I0J-50000D01*
G01*
G37*
D11*
X102900000Y-97700000D03*
X102900000Y-86300000D03*
D12*
X102900000Y-94300000D03*
X102900000Y-89700000D03*
%TD*%
%TO.C,C2*%
G36*
G01*
X114675000Y-87900000D02*
X114675000Y-88450000D01*
G75*
G02*
X114425000Y-88700000I-250000J0D01*
G01*
X113925000Y-88700000D01*
G75*
G02*
X113675000Y-88450000I0J250000D01*
G01*
X113675000Y-87900000D01*
G75*
G02*
X113925000Y-87650000I250000J0D01*
G01*
X114425000Y-87650000D01*
G75*
G02*
X114675000Y-87900000I0J-250000D01*
G01*
G37*
G36*
G01*
X116225000Y-87900000D02*
X116225000Y-88450000D01*
G75*
G02*
X115975000Y-88700000I-250000J0D01*
G01*
X115475000Y-88700000D01*
G75*
G02*
X115225000Y-88450000I0J250000D01*
G01*
X115225000Y-87900000D01*
G75*
G02*
X115475000Y-87650000I250000J0D01*
G01*
X115975000Y-87650000D01*
G75*
G02*
X116225000Y-87900000I0J-250000D01*
G01*
G37*
%TD*%
%TO.C,C1*%
G36*
G01*
X114575000Y-95750000D02*
X114575000Y-96300000D01*
G75*
G02*
X114325000Y-96550000I-250000J0D01*
G01*
X113825000Y-96550000D01*
G75*
G02*
X113575000Y-96300000I0J250000D01*
G01*
X113575000Y-95750000D01*
G75*
G02*
X113825000Y-95500000I250000J0D01*
G01*
X114325000Y-95500000D01*
G75*
G02*
X114575000Y-95750000I0J-250000D01*
G01*
G37*
G36*
G01*
X116125000Y-95750000D02*
X116125000Y-96300000D01*
G75*
G02*
X115875000Y-96550000I-250000J0D01*
G01*
X115375000Y-96550000D01*
G75*
G02*
X115125000Y-96300000I0J250000D01*
G01*
X115125000Y-95750000D01*
G75*
G02*
X115375000Y-95500000I250000J0D01*
G01*
X115875000Y-95500000D01*
G75*
G02*
X116125000Y-95750000I0J-250000D01*
G01*
G37*
%TD*%
M02*
