%TF.GenerationSoftware,KiCad,Pcbnew,(5.1.10)-1*%
%TF.CreationDate,2021-10-08T00:02:28+08:00*%
%TF.ProjectId,Usb-ttl,5573622d-7474-46c2-9e6b-696361645f70,rev?*%
%TF.SameCoordinates,Original*%
%TF.FileFunction,Copper,L1,Top*%
%TF.FilePolarity,Positive*%
%FSLAX46Y46*%
G04 Gerber Fmt 4.6, Leading zero omitted, Abs format (unit mm)*
G04 Created by KiCad (PCBNEW (5.1.10)-1) date 2021-10-08 00:02:28*
%MOMM*%
%LPD*%
G01*
G04 APERTURE LIST*
%TA.AperFunction,ComponentPad*%
%ADD10O,1.700000X1.700000*%
%TD*%
%TA.AperFunction,ComponentPad*%
%ADD11R,1.700000X1.700000*%
%TD*%
%TA.AperFunction,SMDPad,CuDef*%
%ADD12R,2.500000X1.100000*%
%TD*%
%TA.AperFunction,ComponentPad*%
%ADD13O,3.500000X1.900000*%
%TD*%
%TA.AperFunction,ViaPad*%
%ADD14C,0.700000*%
%TD*%
%TA.AperFunction,Conductor*%
%ADD15C,0.500000*%
%TD*%
%TA.AperFunction,Conductor*%
%ADD16C,1.000000*%
%TD*%
%TA.AperFunction,Conductor*%
%ADD17C,0.254000*%
%TD*%
%TA.AperFunction,Conductor*%
%ADD18C,0.100000*%
%TD*%
%TA.AperFunction,Conductor*%
%ADD19C,0.025400*%
%TD*%
G04 APERTURE END LIST*
%TO.P,D2,2*%
%TO.N,Net-(D2-Pad2)*%
%TA.AperFunction,SMDPad,CuDef*%
G36*
G01*
X119956250Y-90062500D02*
X119443750Y-90062500D01*
G75*
G02*
X119225000Y-89843750I0J218750D01*
G01*
X119225000Y-89406250D01*
G75*
G02*
X119443750Y-89187500I218750J0D01*
G01*
X119956250Y-89187500D01*
G75*
G02*
X120175000Y-89406250I0J-218750D01*
G01*
X120175000Y-89843750D01*
G75*
G02*
X119956250Y-90062500I-218750J0D01*
G01*
G37*
%TD.AperFunction*%
%TO.P,D2,1*%
%TO.N,/RXD*%
%TA.AperFunction,SMDPad,CuDef*%
G36*
G01*
X119956250Y-91637500D02*
X119443750Y-91637500D01*
G75*
G02*
X119225000Y-91418750I0J218750D01*
G01*
X119225000Y-90981250D01*
G75*
G02*
X119443750Y-90762500I218750J0D01*
G01*
X119956250Y-90762500D01*
G75*
G02*
X120175000Y-90981250I0J-218750D01*
G01*
X120175000Y-91418750D01*
G75*
G02*
X119956250Y-91637500I-218750J0D01*
G01*
G37*
%TD.AperFunction*%
%TD*%
%TO.P,D1,1*%
%TO.N,/TXD*%
%TA.AperFunction,SMDPad,CuDef*%
G36*
G01*
X119443750Y-92300000D02*
X119956250Y-92300000D01*
G75*
G02*
X120175000Y-92518750I0J-218750D01*
G01*
X120175000Y-92956250D01*
G75*
G02*
X119956250Y-93175000I-218750J0D01*
G01*
X119443750Y-93175000D01*
G75*
G02*
X119225000Y-92956250I0J218750D01*
G01*
X119225000Y-92518750D01*
G75*
G02*
X119443750Y-92300000I218750J0D01*
G01*
G37*
%TD.AperFunction*%
%TO.P,D1,2*%
%TO.N,Net-(D1-Pad2)*%
%TA.AperFunction,SMDPad,CuDef*%
G36*
G01*
X119443750Y-93875000D02*
X119956250Y-93875000D01*
G75*
G02*
X120175000Y-94093750I0J-218750D01*
G01*
X120175000Y-94531250D01*
G75*
G02*
X119956250Y-94750000I-218750J0D01*
G01*
X119443750Y-94750000D01*
G75*
G02*
X119225000Y-94531250I0J218750D01*
G01*
X119225000Y-94093750D01*
G75*
G02*
X119443750Y-93875000I218750J0D01*
G01*
G37*
%TD.AperFunction*%
%TD*%
%TO.P,U1,1*%
%TO.N,/D+*%
%TA.AperFunction,SMDPad,CuDef*%
G36*
G01*
X109200000Y-90345000D02*
X109200000Y-90045000D01*
G75*
G02*
X109350000Y-89895000I150000J0D01*
G01*
X111000000Y-89895000D01*
G75*
G02*
X111150000Y-90045000I0J-150000D01*
G01*
X111150000Y-90345000D01*
G75*
G02*
X111000000Y-90495000I-150000J0D01*
G01*
X109350000Y-90495000D01*
G75*
G02*
X109200000Y-90345000I0J150000D01*
G01*
G37*
%TD.AperFunction*%
%TO.P,U1,2*%
%TO.N,/D-*%
%TA.AperFunction,SMDPad,CuDef*%
G36*
G01*
X109200000Y-91615000D02*
X109200000Y-91315000D01*
G75*
G02*
X109350000Y-91165000I150000J0D01*
G01*
X111000000Y-91165000D01*
G75*
G02*
X111150000Y-91315000I0J-150000D01*
G01*
X111150000Y-91615000D01*
G75*
G02*
X111000000Y-91765000I-150000J0D01*
G01*
X109350000Y-91765000D01*
G75*
G02*
X109200000Y-91615000I0J150000D01*
G01*
G37*
%TD.AperFunction*%
%TO.P,U1,3*%
%TO.N,GND*%
%TA.AperFunction,SMDPad,CuDef*%
G36*
G01*
X109200000Y-92885000D02*
X109200000Y-92585000D01*
G75*
G02*
X109350000Y-92435000I150000J0D01*
G01*
X111000000Y-92435000D01*
G75*
G02*
X111150000Y-92585000I0J-150000D01*
G01*
X111150000Y-92885000D01*
G75*
G02*
X111000000Y-93035000I-150000J0D01*
G01*
X109350000Y-93035000D01*
G75*
G02*
X109200000Y-92885000I0J150000D01*
G01*
G37*
%TD.AperFunction*%
%TO.P,U1,4*%
%TO.N,/RTS*%
%TA.AperFunction,SMDPad,CuDef*%
G36*
G01*
X109200000Y-94155000D02*
X109200000Y-93855000D01*
G75*
G02*
X109350000Y-93705000I150000J0D01*
G01*
X111000000Y-93705000D01*
G75*
G02*
X111150000Y-93855000I0J-150000D01*
G01*
X111150000Y-94155000D01*
G75*
G02*
X111000000Y-94305000I-150000J0D01*
G01*
X109350000Y-94305000D01*
G75*
G02*
X109200000Y-94155000I0J150000D01*
G01*
G37*
%TD.AperFunction*%
%TO.P,U1,5*%
%TO.N,+5V*%
%TA.AperFunction,SMDPad,CuDef*%
G36*
G01*
X114150000Y-94155000D02*
X114150000Y-93855000D01*
G75*
G02*
X114300000Y-93705000I150000J0D01*
G01*
X115950000Y-93705000D01*
G75*
G02*
X116100000Y-93855000I0J-150000D01*
G01*
X116100000Y-94155000D01*
G75*
G02*
X115950000Y-94305000I-150000J0D01*
G01*
X114300000Y-94305000D01*
G75*
G02*
X114150000Y-94155000I0J150000D01*
G01*
G37*
%TD.AperFunction*%
%TO.P,U1,6*%
%TO.N,/TXD*%
%TA.AperFunction,SMDPad,CuDef*%
G36*
G01*
X114150000Y-92885000D02*
X114150000Y-92585000D01*
G75*
G02*
X114300000Y-92435000I150000J0D01*
G01*
X115950000Y-92435000D01*
G75*
G02*
X116100000Y-92585000I0J-150000D01*
G01*
X116100000Y-92885000D01*
G75*
G02*
X115950000Y-93035000I-150000J0D01*
G01*
X114300000Y-93035000D01*
G75*
G02*
X114150000Y-92885000I0J150000D01*
G01*
G37*
%TD.AperFunction*%
%TO.P,U1,7*%
%TO.N,/RXD*%
%TA.AperFunction,SMDPad,CuDef*%
G36*
G01*
X114150000Y-91615000D02*
X114150000Y-91315000D01*
G75*
G02*
X114300000Y-91165000I150000J0D01*
G01*
X115950000Y-91165000D01*
G75*
G02*
X116100000Y-91315000I0J-150000D01*
G01*
X116100000Y-91615000D01*
G75*
G02*
X115950000Y-91765000I-150000J0D01*
G01*
X114300000Y-91765000D01*
G75*
G02*
X114150000Y-91615000I0J150000D01*
G01*
G37*
%TD.AperFunction*%
%TO.P,U1,8*%
%TO.N,Net-(C2-Pad1)*%
%TA.AperFunction,SMDPad,CuDef*%
G36*
G01*
X114150000Y-90345000D02*
X114150000Y-90045000D01*
G75*
G02*
X114300000Y-89895000I150000J0D01*
G01*
X115950000Y-89895000D01*
G75*
G02*
X116100000Y-90045000I0J-150000D01*
G01*
X116100000Y-90345000D01*
G75*
G02*
X115950000Y-90495000I-150000J0D01*
G01*
X114300000Y-90495000D01*
G75*
G02*
X114150000Y-90345000I0J150000D01*
G01*
G37*
%TD.AperFunction*%
%TD*%
%TO.P,R2,2*%
%TO.N,Net-(D2-Pad2)*%
%TA.AperFunction,SMDPad,CuDef*%
G36*
G01*
X119450000Y-87775000D02*
X120000000Y-87775000D01*
G75*
G02*
X120200000Y-87975000I0J-200000D01*
G01*
X120200000Y-88375000D01*
G75*
G02*
X120000000Y-88575000I-200000J0D01*
G01*
X119450000Y-88575000D01*
G75*
G02*
X119250000Y-88375000I0J200000D01*
G01*
X119250000Y-87975000D01*
G75*
G02*
X119450000Y-87775000I200000J0D01*
G01*
G37*
%TD.AperFunction*%
%TO.P,R2,1*%
%TO.N,+5V*%
%TA.AperFunction,SMDPad,CuDef*%
G36*
G01*
X119450000Y-86125000D02*
X120000000Y-86125000D01*
G75*
G02*
X120200000Y-86325000I0J-200000D01*
G01*
X120200000Y-86725000D01*
G75*
G02*
X120000000Y-86925000I-200000J0D01*
G01*
X119450000Y-86925000D01*
G75*
G02*
X119250000Y-86725000I0J200000D01*
G01*
X119250000Y-86325000D01*
G75*
G02*
X119450000Y-86125000I200000J0D01*
G01*
G37*
%TD.AperFunction*%
%TD*%
%TO.P,R1,2*%
%TO.N,Net-(D1-Pad2)*%
%TA.AperFunction,SMDPad,CuDef*%
G36*
G01*
X119975000Y-96200000D02*
X119425000Y-96200000D01*
G75*
G02*
X119225000Y-96000000I0J200000D01*
G01*
X119225000Y-95600000D01*
G75*
G02*
X119425000Y-95400000I200000J0D01*
G01*
X119975000Y-95400000D01*
G75*
G02*
X120175000Y-95600000I0J-200000D01*
G01*
X120175000Y-96000000D01*
G75*
G02*
X119975000Y-96200000I-200000J0D01*
G01*
G37*
%TD.AperFunction*%
%TO.P,R1,1*%
%TO.N,+5V*%
%TA.AperFunction,SMDPad,CuDef*%
G36*
G01*
X119975000Y-97850000D02*
X119425000Y-97850000D01*
G75*
G02*
X119225000Y-97650000I0J200000D01*
G01*
X119225000Y-97250000D01*
G75*
G02*
X119425000Y-97050000I200000J0D01*
G01*
X119975000Y-97050000D01*
G75*
G02*
X120175000Y-97250000I0J-200000D01*
G01*
X120175000Y-97650000D01*
G75*
G02*
X119975000Y-97850000I-200000J0D01*
G01*
G37*
%TD.AperFunction*%
%TD*%
D10*
%TO.P,J2,5*%
%TO.N,+5V*%
X123000000Y-97080000D03*
%TO.P,J2,4*%
%TO.N,/TXD*%
X123000000Y-94540000D03*
%TO.P,J2,3*%
%TO.N,/RXD*%
X123000000Y-92000000D03*
%TO.P,J2,2*%
%TO.N,GND*%
X123000000Y-89460000D03*
D11*
%TO.P,J2,1*%
%TO.N,/RTS*%
X123000000Y-86920000D03*
%TD*%
D12*
%TO.P,J1,2*%
%TO.N,/D-*%
X105650000Y-93000000D03*
%TO.P,J1,3*%
%TO.N,/D+*%
X105650000Y-91000000D03*
%TO.P,J1,1*%
%TO.N,+5V*%
X105650000Y-95500000D03*
%TO.P,J1,4*%
%TO.N,GND*%
X105650000Y-88500000D03*
D13*
%TO.P,J1,5*%
X102900000Y-97700000D03*
X102900000Y-86300000D03*
%TD*%
%TO.P,C2,2*%
%TO.N,GND*%
%TA.AperFunction,SMDPad,CuDef*%
G36*
G01*
X114625000Y-87925000D02*
X114625000Y-88425000D01*
G75*
G02*
X114400000Y-88650000I-225000J0D01*
G01*
X113950000Y-88650000D01*
G75*
G02*
X113725000Y-88425000I0J225000D01*
G01*
X113725000Y-87925000D01*
G75*
G02*
X113950000Y-87700000I225000J0D01*
G01*
X114400000Y-87700000D01*
G75*
G02*
X114625000Y-87925000I0J-225000D01*
G01*
G37*
%TD.AperFunction*%
%TO.P,C2,1*%
%TO.N,Net-(C2-Pad1)*%
%TA.AperFunction,SMDPad,CuDef*%
G36*
G01*
X116175000Y-87925000D02*
X116175000Y-88425000D01*
G75*
G02*
X115950000Y-88650000I-225000J0D01*
G01*
X115500000Y-88650000D01*
G75*
G02*
X115275000Y-88425000I0J225000D01*
G01*
X115275000Y-87925000D01*
G75*
G02*
X115500000Y-87700000I225000J0D01*
G01*
X115950000Y-87700000D01*
G75*
G02*
X116175000Y-87925000I0J-225000D01*
G01*
G37*
%TD.AperFunction*%
%TD*%
%TO.P,C1,2*%
%TO.N,GND*%
%TA.AperFunction,SMDPad,CuDef*%
G36*
G01*
X114525000Y-95775000D02*
X114525000Y-96275000D01*
G75*
G02*
X114300000Y-96500000I-225000J0D01*
G01*
X113850000Y-96500000D01*
G75*
G02*
X113625000Y-96275000I0J225000D01*
G01*
X113625000Y-95775000D01*
G75*
G02*
X113850000Y-95550000I225000J0D01*
G01*
X114300000Y-95550000D01*
G75*
G02*
X114525000Y-95775000I0J-225000D01*
G01*
G37*
%TD.AperFunction*%
%TO.P,C1,1*%
%TO.N,+5V*%
%TA.AperFunction,SMDPad,CuDef*%
G36*
G01*
X116075000Y-95775000D02*
X116075000Y-96275000D01*
G75*
G02*
X115850000Y-96500000I-225000J0D01*
G01*
X115400000Y-96500000D01*
G75*
G02*
X115175000Y-96275000I0J225000D01*
G01*
X115175000Y-95775000D01*
G75*
G02*
X115400000Y-95550000I225000J0D01*
G01*
X115850000Y-95550000D01*
G75*
G02*
X116075000Y-95775000I0J-225000D01*
G01*
G37*
%TD.AperFunction*%
%TD*%
D14*
%TO.N,+5V*%
X112557162Y-92507162D03*
X117369662Y-87694662D03*
%TO.N,/RTS*%
X112050000Y-94025000D03*
%TD*%
D15*
%TO.N,GND*%
X114175000Y-88175000D02*
X114175000Y-87925000D01*
D16*
%TO.N,+5V*%
X105650000Y-95500000D02*
X107650000Y-95500000D01*
X107650000Y-95500000D02*
X109600000Y-97450000D01*
X115625000Y-96025000D02*
X115625000Y-97375000D01*
X109600000Y-97450000D02*
X115700000Y-97450000D01*
D15*
X115625000Y-94505000D02*
X115125000Y-94005000D01*
X115625000Y-96025000D02*
X115625000Y-94505000D01*
D16*
X115700000Y-97450000D02*
X115625000Y-97375000D01*
X119700000Y-97450000D02*
X115700000Y-97450000D01*
X122630000Y-97450000D02*
X123000000Y-97080000D01*
X119700000Y-97450000D02*
X122630000Y-97450000D01*
D15*
X118539324Y-86525000D02*
X117369662Y-87694662D01*
X115125000Y-94005000D02*
X114055000Y-94005000D01*
X114055000Y-94005000D02*
X112557162Y-92507162D01*
X119725000Y-86525000D02*
X118539324Y-86525000D01*
%TO.N,Net-(C2-Pad1)*%
X115725000Y-89595000D02*
X115125000Y-90195000D01*
X115725000Y-88175000D02*
X115725000Y-89595000D01*
%TO.N,Net-(D1-Pad2)*%
X119700000Y-95800000D02*
X119700000Y-94312500D01*
%TO.N,/TXD*%
X122760000Y-94300000D02*
X123000000Y-94540000D01*
X119697500Y-92735000D02*
X119700000Y-92737500D01*
X115125000Y-92735000D02*
X119697500Y-92735000D01*
X121197500Y-92737500D02*
X123000000Y-94540000D01*
X119700000Y-92737500D02*
X121197500Y-92737500D01*
%TO.N,Net-(D2-Pad2)*%
X119700000Y-88200000D02*
X119725000Y-88175000D01*
X119700000Y-89625000D02*
X119700000Y-88200000D01*
%TO.N,/RXD*%
X119522500Y-91465000D02*
X119700000Y-91287500D01*
X119435000Y-91465000D02*
X119700000Y-91200000D01*
X115125000Y-91465000D02*
X119435000Y-91465000D01*
X122200000Y-91200000D02*
X123000000Y-92000000D01*
X119700000Y-91200000D02*
X122200000Y-91200000D01*
%TO.N,/RTS*%
X112030000Y-94005000D02*
X112050000Y-94025000D01*
X110175000Y-94005000D02*
X112030000Y-94005000D01*
%TO.N,/D+*%
X105650000Y-91000000D02*
X107675000Y-91000000D01*
X108480000Y-90195000D02*
X110175000Y-90195000D01*
X107675000Y-91000000D02*
X108480000Y-90195000D01*
%TO.N,/D-*%
X105650000Y-93000000D02*
X107525000Y-93000000D01*
X109060000Y-91465000D02*
X110175000Y-91465000D01*
X107525000Y-93000000D02*
X109060000Y-91465000D01*
%TD*%
D17*
%TO.N,GND*%
X124616870Y-84383130D02*
X124698001Y-84481988D01*
X124698000Y-99518013D01*
X124616870Y-99616870D01*
X124518013Y-99698000D01*
X100481987Y-99698000D01*
X100383130Y-99616870D01*
X100302000Y-99518013D01*
X100302000Y-98072588D01*
X100559414Y-98072588D01*
X100587051Y-98189221D01*
X100711564Y-98474983D01*
X100889434Y-98730962D01*
X101113825Y-98947322D01*
X101376114Y-99115748D01*
X101666222Y-99229768D01*
X101973000Y-99285000D01*
X102773000Y-99285000D01*
X102773000Y-97827000D01*
X103027000Y-97827000D01*
X103027000Y-99285000D01*
X103827000Y-99285000D01*
X104133778Y-99229768D01*
X104423886Y-99115748D01*
X104686175Y-98947322D01*
X104910566Y-98730962D01*
X105088436Y-98474983D01*
X105212949Y-98189221D01*
X105240586Y-98072588D01*
X105120584Y-97827000D01*
X103027000Y-97827000D01*
X102773000Y-97827000D01*
X100679416Y-97827000D01*
X100559414Y-98072588D01*
X100302000Y-98072588D01*
X100302000Y-97327412D01*
X100559414Y-97327412D01*
X100679416Y-97573000D01*
X102773000Y-97573000D01*
X102773000Y-96115000D01*
X103027000Y-96115000D01*
X103027000Y-97573000D01*
X105120584Y-97573000D01*
X105240586Y-97327412D01*
X105212949Y-97210779D01*
X105088436Y-96925017D01*
X104910566Y-96669038D01*
X104686175Y-96452678D01*
X104492544Y-96328340D01*
X106900000Y-96328340D01*
X106954301Y-96322992D01*
X107006516Y-96307153D01*
X107054637Y-96281431D01*
X107060036Y-96277000D01*
X107328157Y-96277000D01*
X109023592Y-97972436D01*
X109047920Y-98002080D01*
X109077564Y-98026408D01*
X109077565Y-98026409D01*
X109166233Y-98099177D01*
X109286928Y-98163690D01*
X109301216Y-98171327D01*
X109447681Y-98215757D01*
X109561834Y-98227000D01*
X109561843Y-98227000D01*
X109599999Y-98230758D01*
X109638155Y-98227000D01*
X115661836Y-98227000D01*
X115699999Y-98230759D01*
X115738163Y-98227000D01*
X122591837Y-98227000D01*
X122630000Y-98230759D01*
X122668163Y-98227000D01*
X122668166Y-98227000D01*
X122782319Y-98215757D01*
X122810444Y-98207225D01*
X122826368Y-98207095D01*
X122988981Y-98207000D01*
X123111000Y-98207000D01*
X123328734Y-98163690D01*
X123533835Y-98078734D01*
X123718421Y-97955398D01*
X123875398Y-97798421D01*
X123998734Y-97613835D01*
X124083690Y-97408734D01*
X124127000Y-97191000D01*
X124127000Y-96969000D01*
X124083690Y-96751266D01*
X123998734Y-96546165D01*
X123875398Y-96361579D01*
X123718421Y-96204602D01*
X123533835Y-96081266D01*
X123328734Y-95996310D01*
X123111000Y-95953000D01*
X122889000Y-95953000D01*
X122671266Y-95996310D01*
X122466165Y-96081266D01*
X122281579Y-96204602D01*
X122124602Y-96361579D01*
X122095785Y-96404707D01*
X122056940Y-96450923D01*
X122001550Y-96508119D01*
X121950794Y-96551518D01*
X121901966Y-96584428D01*
X121850496Y-96610406D01*
X121790583Y-96631824D01*
X121716783Y-96649292D01*
X121625172Y-96662324D01*
X121513261Y-96670300D01*
X121377272Y-96673000D01*
X116402000Y-96673000D01*
X116402000Y-95986834D01*
X116390757Y-95872681D01*
X116349597Y-95736994D01*
X116343668Y-95676803D01*
X116315026Y-95582380D01*
X116268512Y-95495359D01*
X116205915Y-95419085D01*
X116164017Y-95384700D01*
X116161219Y-95364422D01*
X116156125Y-95302789D01*
X116153035Y-95226949D01*
X116152000Y-95133469D01*
X116152000Y-94530881D01*
X116152052Y-94530352D01*
X116187973Y-94511152D01*
X116252882Y-94457882D01*
X116306152Y-94392973D01*
X116345735Y-94318919D01*
X116370110Y-94238565D01*
X116378340Y-94155000D01*
X116378340Y-94093750D01*
X118946660Y-94093750D01*
X118946660Y-94531250D01*
X118956211Y-94628227D01*
X118984499Y-94721478D01*
X119030435Y-94807418D01*
X119092254Y-94882746D01*
X119163519Y-94941231D01*
X119165045Y-94953523D01*
X119169502Y-95014623D01*
X119172142Y-95089612D01*
X119172332Y-95109943D01*
X119171272Y-95165477D01*
X119169880Y-95196593D01*
X119159249Y-95202275D01*
X119086763Y-95261763D01*
X119027275Y-95334249D01*
X118983071Y-95416947D01*
X118955851Y-95506680D01*
X118946660Y-95600000D01*
X118946660Y-96000000D01*
X118955851Y-96093320D01*
X118983071Y-96183053D01*
X119027275Y-96265751D01*
X119086763Y-96338237D01*
X119159249Y-96397725D01*
X119241947Y-96441929D01*
X119331680Y-96469149D01*
X119425000Y-96478340D01*
X119975000Y-96478340D01*
X120068320Y-96469149D01*
X120158053Y-96441929D01*
X120240751Y-96397725D01*
X120313237Y-96338237D01*
X120372725Y-96265751D01*
X120416929Y-96183053D01*
X120444149Y-96093320D01*
X120453340Y-96000000D01*
X120453340Y-95600000D01*
X120444149Y-95506680D01*
X120416929Y-95416947D01*
X120372725Y-95334249D01*
X120313237Y-95261763D01*
X120240751Y-95202275D01*
X120230119Y-95196592D01*
X120228727Y-95165477D01*
X120227667Y-95109951D01*
X120227857Y-95089611D01*
X120230497Y-95014623D01*
X120234954Y-94953523D01*
X120236480Y-94941232D01*
X120307746Y-94882746D01*
X120369565Y-94807418D01*
X120415501Y-94721478D01*
X120443789Y-94628227D01*
X120453340Y-94531250D01*
X120453340Y-94093750D01*
X120443789Y-93996773D01*
X120415501Y-93903522D01*
X120369565Y-93817582D01*
X120307746Y-93742254D01*
X120232418Y-93680435D01*
X120146478Y-93634499D01*
X120053227Y-93606211D01*
X119956250Y-93596660D01*
X119443750Y-93596660D01*
X119346773Y-93606211D01*
X119253522Y-93634499D01*
X119167582Y-93680435D01*
X119092254Y-93742254D01*
X119030435Y-93817582D01*
X118984499Y-93903522D01*
X118956211Y-93996773D01*
X118946660Y-94093750D01*
X116378340Y-94093750D01*
X116378340Y-93855000D01*
X116370110Y-93771435D01*
X116345735Y-93691081D01*
X116306152Y-93617027D01*
X116252882Y-93552118D01*
X116187973Y-93498848D01*
X116113919Y-93459265D01*
X116033565Y-93434890D01*
X115950000Y-93426660D01*
X114300000Y-93426660D01*
X114228948Y-93433658D01*
X113380290Y-92585000D01*
X113871660Y-92585000D01*
X113871660Y-92885000D01*
X113879890Y-92968565D01*
X113904265Y-93048919D01*
X113943848Y-93122973D01*
X113997118Y-93187882D01*
X114062027Y-93241152D01*
X114136081Y-93280735D01*
X114216435Y-93305110D01*
X114300000Y-93313340D01*
X115950000Y-93313340D01*
X116033565Y-93305110D01*
X116113919Y-93280735D01*
X116148969Y-93262000D01*
X118828700Y-93262000D01*
X118920498Y-93262857D01*
X118995503Y-93265499D01*
X119056634Y-93269969D01*
X119061778Y-93270610D01*
X119092254Y-93307746D01*
X119167582Y-93369565D01*
X119253522Y-93415501D01*
X119346773Y-93443789D01*
X119443750Y-93453340D01*
X119956250Y-93453340D01*
X120053227Y-93443789D01*
X120146478Y-93415501D01*
X120232418Y-93369565D01*
X120307746Y-93307746D01*
X120336220Y-93273050D01*
X120341023Y-93272454D01*
X120402123Y-93267997D01*
X120477111Y-93265357D01*
X120568806Y-93264500D01*
X120979211Y-93264500D01*
X121428667Y-93713956D01*
X121548880Y-93843511D01*
X121632110Y-93951272D01*
X121689511Y-94045059D01*
X121729619Y-94131956D01*
X121759723Y-94221173D01*
X121785071Y-94321418D01*
X121809985Y-94438043D01*
X121810168Y-94438893D01*
X121838679Y-94570335D01*
X121840900Y-94579773D01*
X121877708Y-94724769D01*
X121881873Y-94739464D01*
X121905747Y-94815628D01*
X121916310Y-94868734D01*
X122001266Y-95073835D01*
X122124602Y-95258421D01*
X122281579Y-95415398D01*
X122466165Y-95538734D01*
X122671266Y-95623690D01*
X122889000Y-95667000D01*
X123111000Y-95667000D01*
X123328734Y-95623690D01*
X123533835Y-95538734D01*
X123718421Y-95415398D01*
X123875398Y-95258421D01*
X123998734Y-95073835D01*
X124083690Y-94868734D01*
X124127000Y-94651000D01*
X124127000Y-94429000D01*
X124083690Y-94211266D01*
X123998734Y-94006165D01*
X123875398Y-93821579D01*
X123718421Y-93664602D01*
X123533835Y-93541266D01*
X123328734Y-93456310D01*
X123275628Y-93445747D01*
X123199464Y-93421873D01*
X123184769Y-93417708D01*
X123039773Y-93380900D01*
X123030335Y-93378679D01*
X122898893Y-93350168D01*
X122898043Y-93349985D01*
X122781418Y-93325071D01*
X122681173Y-93299723D01*
X122591956Y-93269619D01*
X122505059Y-93229511D01*
X122411272Y-93172110D01*
X122303511Y-93088880D01*
X122173956Y-92968667D01*
X121588455Y-92383166D01*
X121571948Y-92363052D01*
X121491702Y-92297196D01*
X121400150Y-92248261D01*
X121300810Y-92218126D01*
X121223381Y-92210500D01*
X121197500Y-92207951D01*
X121171619Y-92210500D01*
X120568811Y-92210500D01*
X120477112Y-92209642D01*
X120402123Y-92207002D01*
X120341023Y-92202545D01*
X120336219Y-92201949D01*
X120307746Y-92167254D01*
X120232418Y-92105435D01*
X120146478Y-92059499D01*
X120053227Y-92031211D01*
X119956250Y-92021660D01*
X119443750Y-92021660D01*
X119346773Y-92031211D01*
X119253522Y-92059499D01*
X119167582Y-92105435D01*
X119092254Y-92167254D01*
X119065969Y-92199283D01*
X119058691Y-92200167D01*
X118996869Y-92204567D01*
X118921178Y-92207161D01*
X118828698Y-92208000D01*
X116148969Y-92208000D01*
X116113919Y-92189265D01*
X116033565Y-92164890D01*
X115950000Y-92156660D01*
X114300000Y-92156660D01*
X114216435Y-92164890D01*
X114136081Y-92189265D01*
X114062027Y-92228848D01*
X113997118Y-92282118D01*
X113943848Y-92347027D01*
X113904265Y-92421081D01*
X113879890Y-92501435D01*
X113871660Y-92585000D01*
X113380290Y-92585000D01*
X113260487Y-92465198D01*
X113241875Y-92445722D01*
X113216532Y-92417225D01*
X113197514Y-92393423D01*
X113183165Y-92372705D01*
X113171452Y-92352565D01*
X113161578Y-92331868D01*
X113160067Y-92324273D01*
X113112802Y-92210166D01*
X113044185Y-92107473D01*
X112956851Y-92020139D01*
X112854158Y-91951522D01*
X112740051Y-91904257D01*
X112618916Y-91880162D01*
X112495408Y-91880162D01*
X112374273Y-91904257D01*
X112260166Y-91951522D01*
X112157473Y-92020139D01*
X112070139Y-92107473D01*
X112001522Y-92210166D01*
X111954257Y-92324273D01*
X111930162Y-92445408D01*
X111930162Y-92568916D01*
X111954257Y-92690051D01*
X112001522Y-92804158D01*
X112070139Y-92906851D01*
X112157473Y-92994185D01*
X112260166Y-93062802D01*
X112374273Y-93110067D01*
X112381868Y-93111578D01*
X112402565Y-93121452D01*
X112422705Y-93133165D01*
X112443423Y-93147514D01*
X112467225Y-93166532D01*
X112495722Y-93191875D01*
X112515198Y-93210487D01*
X113664053Y-94359344D01*
X113680552Y-94379448D01*
X113760798Y-94445304D01*
X113852350Y-94494239D01*
X113951690Y-94524374D01*
X114010600Y-94530176D01*
X114055000Y-94534549D01*
X114080881Y-94532000D01*
X114101031Y-94532000D01*
X114136081Y-94550735D01*
X114216435Y-94575110D01*
X114300000Y-94583340D01*
X114958050Y-94583340D01*
X115098001Y-94723291D01*
X115098001Y-95133413D01*
X115096964Y-95226949D01*
X115095220Y-95269747D01*
X115055537Y-95195506D01*
X114976185Y-95098815D01*
X114879494Y-95019463D01*
X114769180Y-94960498D01*
X114649482Y-94924188D01*
X114525000Y-94911928D01*
X114360750Y-94915000D01*
X114202000Y-95073750D01*
X114202000Y-95898000D01*
X114222000Y-95898000D01*
X114222000Y-96152000D01*
X114202000Y-96152000D01*
X114202000Y-96172000D01*
X113948000Y-96172000D01*
X113948000Y-96152000D01*
X113148750Y-96152000D01*
X112990000Y-96310750D01*
X112986928Y-96500000D01*
X112999188Y-96624482D01*
X113013906Y-96673000D01*
X109921844Y-96673000D01*
X108798844Y-95550000D01*
X112986928Y-95550000D01*
X112990000Y-95739250D01*
X113148750Y-95898000D01*
X113948000Y-95898000D01*
X113948000Y-95073750D01*
X113789250Y-94915000D01*
X113625000Y-94911928D01*
X113500518Y-94924188D01*
X113380820Y-94960498D01*
X113270506Y-95019463D01*
X113173815Y-95098815D01*
X113094463Y-95195506D01*
X113035498Y-95305820D01*
X112999188Y-95425518D01*
X112986928Y-95550000D01*
X108798844Y-95550000D01*
X108226412Y-94977569D01*
X108202080Y-94947920D01*
X108083766Y-94850823D01*
X107948784Y-94778673D01*
X107802319Y-94734243D01*
X107688166Y-94723000D01*
X107688163Y-94723000D01*
X107650000Y-94719241D01*
X107611837Y-94723000D01*
X107060036Y-94723000D01*
X107054637Y-94718569D01*
X107006516Y-94692847D01*
X106954301Y-94677008D01*
X106900000Y-94671660D01*
X104400000Y-94671660D01*
X104345699Y-94677008D01*
X104293484Y-94692847D01*
X104245363Y-94718569D01*
X104203184Y-94753184D01*
X104168569Y-94795363D01*
X104142847Y-94843484D01*
X104127008Y-94895699D01*
X104121660Y-94950000D01*
X104121660Y-96050000D01*
X104127008Y-96104301D01*
X104142847Y-96156516D01*
X104154540Y-96178392D01*
X104133778Y-96170232D01*
X103827000Y-96115000D01*
X103027000Y-96115000D01*
X102773000Y-96115000D01*
X101973000Y-96115000D01*
X101666222Y-96170232D01*
X101376114Y-96284252D01*
X101113825Y-96452678D01*
X100889434Y-96669038D01*
X100711564Y-96925017D01*
X100587051Y-97210779D01*
X100559414Y-97327412D01*
X100302000Y-97327412D01*
X100302000Y-94218548D01*
X102073000Y-94218548D01*
X102073000Y-94381452D01*
X102104782Y-94541227D01*
X102167123Y-94691731D01*
X102257628Y-94827181D01*
X102372819Y-94942372D01*
X102508269Y-95032877D01*
X102658773Y-95095218D01*
X102818548Y-95127000D01*
X102981452Y-95127000D01*
X103141227Y-95095218D01*
X103291731Y-95032877D01*
X103427181Y-94942372D01*
X103542372Y-94827181D01*
X103632877Y-94691731D01*
X103695218Y-94541227D01*
X103727000Y-94381452D01*
X103727000Y-94218548D01*
X103695218Y-94058773D01*
X103632877Y-93908269D01*
X103542372Y-93772819D01*
X103427181Y-93657628D01*
X103291731Y-93567123D01*
X103141227Y-93504782D01*
X102981452Y-93473000D01*
X102818548Y-93473000D01*
X102658773Y-93504782D01*
X102508269Y-93567123D01*
X102372819Y-93657628D01*
X102257628Y-93772819D01*
X102167123Y-93908269D01*
X102104782Y-94058773D01*
X102073000Y-94218548D01*
X100302000Y-94218548D01*
X100302000Y-92450000D01*
X104121660Y-92450000D01*
X104121660Y-93550000D01*
X104127008Y-93604301D01*
X104142847Y-93656516D01*
X104168569Y-93704637D01*
X104203184Y-93746816D01*
X104245363Y-93781431D01*
X104293484Y-93807153D01*
X104345699Y-93822992D01*
X104400000Y-93828340D01*
X106900000Y-93828340D01*
X106954301Y-93822992D01*
X107006516Y-93807153D01*
X107054637Y-93781431D01*
X107096816Y-93746816D01*
X107131431Y-93704637D01*
X107157153Y-93656516D01*
X107172992Y-93604301D01*
X107178340Y-93550000D01*
X107178340Y-93527000D01*
X107499119Y-93527000D01*
X107525000Y-93529549D01*
X107550881Y-93527000D01*
X107628310Y-93519374D01*
X107727650Y-93489239D01*
X107819202Y-93440304D01*
X107899448Y-93374448D01*
X107915955Y-93354334D01*
X108235289Y-93035000D01*
X108561928Y-93035000D01*
X108574188Y-93159482D01*
X108610498Y-93279180D01*
X108669463Y-93389494D01*
X108748815Y-93486185D01*
X108845506Y-93565537D01*
X108955820Y-93624502D01*
X108985104Y-93633385D01*
X108954265Y-93691081D01*
X108929890Y-93771435D01*
X108921660Y-93855000D01*
X108921660Y-94155000D01*
X108929890Y-94238565D01*
X108954265Y-94318919D01*
X108993848Y-94392973D01*
X109047118Y-94457882D01*
X109112027Y-94511152D01*
X109186081Y-94550735D01*
X109266435Y-94575110D01*
X109350000Y-94583340D01*
X111000000Y-94583340D01*
X111083565Y-94575110D01*
X111163919Y-94550735D01*
X111198969Y-94532000D01*
X111515504Y-94532000D01*
X111547364Y-94532326D01*
X111592722Y-94533930D01*
X111628650Y-94536704D01*
X111656474Y-94540532D01*
X111678628Y-94545318D01*
X111698460Y-94551442D01*
X111719654Y-94560116D01*
X111730736Y-94565761D01*
X111753004Y-94580640D01*
X111867111Y-94627905D01*
X111988246Y-94652000D01*
X112111754Y-94652000D01*
X112232889Y-94627905D01*
X112346996Y-94580640D01*
X112449689Y-94512023D01*
X112537023Y-94424689D01*
X112605640Y-94321996D01*
X112652905Y-94207889D01*
X112677000Y-94086754D01*
X112677000Y-93963246D01*
X112652905Y-93842111D01*
X112605640Y-93728004D01*
X112537023Y-93625311D01*
X112449689Y-93537977D01*
X112346996Y-93469360D01*
X112232889Y-93422095D01*
X112111754Y-93398000D01*
X111988246Y-93398000D01*
X111867111Y-93422095D01*
X111813710Y-93444215D01*
X111777763Y-93457775D01*
X111750194Y-93465933D01*
X111723754Y-93471599D01*
X111694795Y-93475640D01*
X111664448Y-93478000D01*
X111607902Y-93478000D01*
X111680537Y-93389494D01*
X111739502Y-93279180D01*
X111775812Y-93159482D01*
X111788072Y-93035000D01*
X111785000Y-93020750D01*
X111626250Y-92862000D01*
X110302000Y-92862000D01*
X110302000Y-92882000D01*
X110048000Y-92882000D01*
X110048000Y-92862000D01*
X108723750Y-92862000D01*
X108565000Y-93020750D01*
X108561928Y-93035000D01*
X108235289Y-93035000D01*
X108693020Y-92577270D01*
X108723750Y-92608000D01*
X110048000Y-92608000D01*
X110048000Y-92588000D01*
X110302000Y-92588000D01*
X110302000Y-92608000D01*
X111626250Y-92608000D01*
X111785000Y-92449250D01*
X111788072Y-92435000D01*
X111775812Y-92310518D01*
X111739502Y-92190820D01*
X111680537Y-92080506D01*
X111601185Y-91983815D01*
X111504494Y-91904463D01*
X111394180Y-91845498D01*
X111364896Y-91836615D01*
X111395735Y-91778919D01*
X111420110Y-91698565D01*
X111428340Y-91615000D01*
X111428340Y-91315000D01*
X113871660Y-91315000D01*
X113871660Y-91615000D01*
X113879890Y-91698565D01*
X113904265Y-91778919D01*
X113943848Y-91852973D01*
X113997118Y-91917882D01*
X114062027Y-91971152D01*
X114136081Y-92010735D01*
X114216435Y-92035110D01*
X114300000Y-92043340D01*
X115950000Y-92043340D01*
X116033565Y-92035110D01*
X116113919Y-92010735D01*
X116148969Y-91992000D01*
X119409119Y-91992000D01*
X119435000Y-91994549D01*
X119460881Y-91992000D01*
X119478750Y-91990240D01*
X119522500Y-91994549D01*
X119625809Y-91984374D01*
X119725149Y-91954239D01*
X119796989Y-91915840D01*
X119956250Y-91915840D01*
X120053227Y-91906289D01*
X120146478Y-91878001D01*
X120232418Y-91832065D01*
X120307746Y-91770246D01*
X120336220Y-91735550D01*
X120341023Y-91734954D01*
X120402123Y-91730497D01*
X120477111Y-91727857D01*
X120568806Y-91727000D01*
X121618754Y-91727000D01*
X121707869Y-91735133D01*
X121743418Y-91747072D01*
X121757263Y-91756734D01*
X121771511Y-91774405D01*
X121791859Y-91815878D01*
X121814426Y-91886019D01*
X121837175Y-91981506D01*
X121861231Y-92094289D01*
X121862490Y-92099905D01*
X121890790Y-92220271D01*
X121895129Y-92236501D01*
X121903534Y-92264506D01*
X121916310Y-92328734D01*
X122001266Y-92533835D01*
X122124602Y-92718421D01*
X122281579Y-92875398D01*
X122466165Y-92998734D01*
X122671266Y-93083690D01*
X122889000Y-93127000D01*
X123111000Y-93127000D01*
X123328734Y-93083690D01*
X123533835Y-92998734D01*
X123718421Y-92875398D01*
X123875398Y-92718421D01*
X123998734Y-92533835D01*
X124083690Y-92328734D01*
X124127000Y-92111000D01*
X124127000Y-91889000D01*
X124083690Y-91671266D01*
X123998734Y-91466165D01*
X123875398Y-91281579D01*
X123718421Y-91124602D01*
X123533835Y-91001266D01*
X123328734Y-90916310D01*
X123127002Y-90876183D01*
X123127002Y-90780815D01*
X123356891Y-90901481D01*
X123631252Y-90804157D01*
X123881355Y-90655178D01*
X124097588Y-90460269D01*
X124271641Y-90226920D01*
X124396825Y-89964099D01*
X124441476Y-89816890D01*
X124320155Y-89587000D01*
X123127000Y-89587000D01*
X123127000Y-89607000D01*
X122873000Y-89607000D01*
X122873000Y-89587000D01*
X121679845Y-89587000D01*
X121558524Y-89816890D01*
X121603175Y-89964099D01*
X121728359Y-90226920D01*
X121902412Y-90460269D01*
X122118645Y-90655178D01*
X122148564Y-90673000D01*
X120568811Y-90673000D01*
X120477112Y-90672142D01*
X120402123Y-90669502D01*
X120341023Y-90665045D01*
X120336219Y-90664449D01*
X120307746Y-90629754D01*
X120232418Y-90567935D01*
X120146478Y-90521999D01*
X120053227Y-90493711D01*
X119956250Y-90484160D01*
X119443750Y-90484160D01*
X119346773Y-90493711D01*
X119253522Y-90521999D01*
X119167582Y-90567935D01*
X119092254Y-90629754D01*
X119030435Y-90705082D01*
X118984499Y-90791022D01*
X118956211Y-90884273D01*
X118951053Y-90936645D01*
X118903564Y-90938000D01*
X116148969Y-90938000D01*
X116113919Y-90919265D01*
X116033565Y-90894890D01*
X115950000Y-90886660D01*
X114300000Y-90886660D01*
X114216435Y-90894890D01*
X114136081Y-90919265D01*
X114062027Y-90958848D01*
X113997118Y-91012118D01*
X113943848Y-91077027D01*
X113904265Y-91151081D01*
X113879890Y-91231435D01*
X113871660Y-91315000D01*
X111428340Y-91315000D01*
X111420110Y-91231435D01*
X111395735Y-91151081D01*
X111356152Y-91077027D01*
X111302882Y-91012118D01*
X111237973Y-90958848D01*
X111163919Y-90919265D01*
X111083565Y-90894890D01*
X111000000Y-90886660D01*
X109350000Y-90886660D01*
X109266435Y-90894890D01*
X109186081Y-90919265D01*
X109151031Y-90938000D01*
X109085881Y-90938000D01*
X109060000Y-90935451D01*
X109034119Y-90938000D01*
X108956690Y-90945626D01*
X108857350Y-90975761D01*
X108765798Y-91024696D01*
X108685552Y-91090552D01*
X108669053Y-91110656D01*
X107306711Y-92473000D01*
X107178340Y-92473000D01*
X107178340Y-92450000D01*
X107172992Y-92395699D01*
X107157153Y-92343484D01*
X107131431Y-92295363D01*
X107096816Y-92253184D01*
X107054637Y-92218569D01*
X107006516Y-92192847D01*
X106954301Y-92177008D01*
X106900000Y-92171660D01*
X104400000Y-92171660D01*
X104345699Y-92177008D01*
X104293484Y-92192847D01*
X104245363Y-92218569D01*
X104203184Y-92253184D01*
X104168569Y-92295363D01*
X104142847Y-92343484D01*
X104127008Y-92395699D01*
X104121660Y-92450000D01*
X100302000Y-92450000D01*
X100302000Y-89618548D01*
X102073000Y-89618548D01*
X102073000Y-89781452D01*
X102104782Y-89941227D01*
X102167123Y-90091731D01*
X102257628Y-90227181D01*
X102372819Y-90342372D01*
X102508269Y-90432877D01*
X102658773Y-90495218D01*
X102818548Y-90527000D01*
X102981452Y-90527000D01*
X103141227Y-90495218D01*
X103250392Y-90450000D01*
X104121660Y-90450000D01*
X104121660Y-91550000D01*
X104127008Y-91604301D01*
X104142847Y-91656516D01*
X104168569Y-91704637D01*
X104203184Y-91746816D01*
X104245363Y-91781431D01*
X104293484Y-91807153D01*
X104345699Y-91822992D01*
X104400000Y-91828340D01*
X106900000Y-91828340D01*
X106954301Y-91822992D01*
X107006516Y-91807153D01*
X107054637Y-91781431D01*
X107096816Y-91746816D01*
X107131431Y-91704637D01*
X107157153Y-91656516D01*
X107172992Y-91604301D01*
X107178340Y-91550000D01*
X107178340Y-91527000D01*
X107649119Y-91527000D01*
X107675000Y-91529549D01*
X107700881Y-91527000D01*
X107778310Y-91519374D01*
X107877650Y-91489239D01*
X107969202Y-91440304D01*
X108049448Y-91374448D01*
X108065955Y-91354334D01*
X108698290Y-90722000D01*
X109151031Y-90722000D01*
X109186081Y-90740735D01*
X109266435Y-90765110D01*
X109350000Y-90773340D01*
X111000000Y-90773340D01*
X111083565Y-90765110D01*
X111163919Y-90740735D01*
X111237973Y-90701152D01*
X111302882Y-90647882D01*
X111356152Y-90582973D01*
X111395735Y-90508919D01*
X111420110Y-90428565D01*
X111428340Y-90345000D01*
X111428340Y-90045000D01*
X113871660Y-90045000D01*
X113871660Y-90345000D01*
X113879890Y-90428565D01*
X113904265Y-90508919D01*
X113943848Y-90582973D01*
X113997118Y-90647882D01*
X114062027Y-90701152D01*
X114136081Y-90740735D01*
X114216435Y-90765110D01*
X114300000Y-90773340D01*
X115950000Y-90773340D01*
X116033565Y-90765110D01*
X116113919Y-90740735D01*
X116187973Y-90701152D01*
X116252882Y-90647882D01*
X116306152Y-90582973D01*
X116345735Y-90508919D01*
X116370110Y-90428565D01*
X116378340Y-90345000D01*
X116378340Y-90045000D01*
X116370110Y-89961435D01*
X116345735Y-89881081D01*
X116306152Y-89807027D01*
X116252882Y-89742118D01*
X116235430Y-89727795D01*
X116244374Y-89698310D01*
X116246835Y-89673322D01*
X116254549Y-89595001D01*
X116252000Y-89569120D01*
X116252000Y-89406250D01*
X118946660Y-89406250D01*
X118946660Y-89843750D01*
X118956211Y-89940727D01*
X118984499Y-90033978D01*
X119030435Y-90119918D01*
X119092254Y-90195246D01*
X119167582Y-90257065D01*
X119253522Y-90303001D01*
X119346773Y-90331289D01*
X119443750Y-90340840D01*
X119956250Y-90340840D01*
X120053227Y-90331289D01*
X120146478Y-90303001D01*
X120232418Y-90257065D01*
X120307746Y-90195246D01*
X120369565Y-90119918D01*
X120415501Y-90033978D01*
X120443789Y-89940727D01*
X120453340Y-89843750D01*
X120453340Y-89406250D01*
X120443789Y-89309273D01*
X120415501Y-89216022D01*
X120369565Y-89130082D01*
X120347431Y-89103110D01*
X121558524Y-89103110D01*
X121679845Y-89333000D01*
X122873000Y-89333000D01*
X122873000Y-89313000D01*
X123127000Y-89313000D01*
X123127000Y-89333000D01*
X124320155Y-89333000D01*
X124441476Y-89103110D01*
X124396825Y-88955901D01*
X124271641Y-88693080D01*
X124097588Y-88459731D01*
X123881355Y-88264822D01*
X123631252Y-88115843D01*
X123440958Y-88048340D01*
X123850000Y-88048340D01*
X123904301Y-88042992D01*
X123956516Y-88027153D01*
X124004637Y-88001431D01*
X124046816Y-87966816D01*
X124081431Y-87924637D01*
X124107153Y-87876516D01*
X124122992Y-87824301D01*
X124128340Y-87770000D01*
X124128340Y-86070000D01*
X124122992Y-86015699D01*
X124107153Y-85963484D01*
X124081431Y-85915363D01*
X124046816Y-85873184D01*
X124004637Y-85838569D01*
X123956516Y-85812847D01*
X123904301Y-85797008D01*
X123850000Y-85791660D01*
X122150000Y-85791660D01*
X122095699Y-85797008D01*
X122043484Y-85812847D01*
X121995363Y-85838569D01*
X121953184Y-85873184D01*
X121918569Y-85915363D01*
X121892847Y-85963484D01*
X121877008Y-86015699D01*
X121871660Y-86070000D01*
X121871660Y-87770000D01*
X121877008Y-87824301D01*
X121892847Y-87876516D01*
X121918569Y-87924637D01*
X121953184Y-87966816D01*
X121995363Y-88001431D01*
X122043484Y-88027153D01*
X122095699Y-88042992D01*
X122150000Y-88048340D01*
X122559042Y-88048340D01*
X122368748Y-88115843D01*
X122118645Y-88264822D01*
X121902412Y-88459731D01*
X121728359Y-88693080D01*
X121603175Y-88955901D01*
X121558524Y-89103110D01*
X120347431Y-89103110D01*
X120307746Y-89054754D01*
X120236480Y-88996268D01*
X120234954Y-88983976D01*
X120230497Y-88922876D01*
X120228253Y-88859134D01*
X120228970Y-88826586D01*
X120230769Y-88791424D01*
X120265751Y-88772725D01*
X120338237Y-88713237D01*
X120397725Y-88640751D01*
X120441929Y-88558053D01*
X120469149Y-88468320D01*
X120478340Y-88375000D01*
X120478340Y-87975000D01*
X120469149Y-87881680D01*
X120441929Y-87791947D01*
X120397725Y-87709249D01*
X120338237Y-87636763D01*
X120265751Y-87577275D01*
X120183053Y-87533071D01*
X120093320Y-87505851D01*
X120000000Y-87496660D01*
X119450000Y-87496660D01*
X119356680Y-87505851D01*
X119266947Y-87533071D01*
X119184249Y-87577275D01*
X119111763Y-87636763D01*
X119052275Y-87709249D01*
X119008071Y-87791947D01*
X118980851Y-87881680D01*
X118971660Y-87975000D01*
X118971660Y-88375000D01*
X118980851Y-88468320D01*
X119008071Y-88558053D01*
X119052275Y-88640751D01*
X119111763Y-88713237D01*
X119170470Y-88761417D01*
X119171978Y-88812457D01*
X119172245Y-88836845D01*
X119172142Y-88847887D01*
X119169502Y-88922876D01*
X119165045Y-88983976D01*
X119163519Y-88996269D01*
X119092254Y-89054754D01*
X119030435Y-89130082D01*
X118984499Y-89216022D01*
X118956211Y-89309273D01*
X118946660Y-89406250D01*
X116252000Y-89406250D01*
X116252000Y-89066531D01*
X116253035Y-88973050D01*
X116256125Y-88897210D01*
X116261219Y-88835577D01*
X116264017Y-88815300D01*
X116305915Y-88780915D01*
X116368512Y-88704641D01*
X116415026Y-88617620D01*
X116443668Y-88523197D01*
X116453340Y-88425000D01*
X116453340Y-87925000D01*
X116443668Y-87826803D01*
X116415026Y-87732380D01*
X116368512Y-87645359D01*
X116358294Y-87632908D01*
X116742662Y-87632908D01*
X116742662Y-87756416D01*
X116766757Y-87877551D01*
X116814022Y-87991658D01*
X116882639Y-88094351D01*
X116969973Y-88181685D01*
X117072666Y-88250302D01*
X117186773Y-88297567D01*
X117307908Y-88321662D01*
X117431416Y-88321662D01*
X117552551Y-88297567D01*
X117666658Y-88250302D01*
X117769351Y-88181685D01*
X117856685Y-88094351D01*
X117925302Y-87991658D01*
X117972567Y-87877551D01*
X117974078Y-87869956D01*
X117983952Y-87849258D01*
X117995665Y-87829118D01*
X118010014Y-87808400D01*
X118029032Y-87784598D01*
X118054375Y-87756101D01*
X118072963Y-87736651D01*
X118757615Y-87052000D01*
X118934486Y-87052000D01*
X119019348Y-87052369D01*
X119090477Y-87053727D01*
X119104472Y-87054353D01*
X119111763Y-87063237D01*
X119184249Y-87122725D01*
X119266947Y-87166929D01*
X119356680Y-87194149D01*
X119450000Y-87203340D01*
X120000000Y-87203340D01*
X120093320Y-87194149D01*
X120183053Y-87166929D01*
X120265751Y-87122725D01*
X120338237Y-87063237D01*
X120397725Y-86990751D01*
X120441929Y-86908053D01*
X120469149Y-86818320D01*
X120478340Y-86725000D01*
X120478340Y-86325000D01*
X120469149Y-86231680D01*
X120441929Y-86141947D01*
X120397725Y-86059249D01*
X120338237Y-85986763D01*
X120265751Y-85927275D01*
X120183053Y-85883071D01*
X120093320Y-85855851D01*
X120000000Y-85846660D01*
X119450000Y-85846660D01*
X119356680Y-85855851D01*
X119266947Y-85883071D01*
X119184249Y-85927275D01*
X119111763Y-85986763D01*
X119104473Y-85995646D01*
X119090477Y-85996272D01*
X119019347Y-85997630D01*
X118934481Y-85998000D01*
X118565205Y-85998000D01*
X118539324Y-85995451D01*
X118513443Y-85998000D01*
X118436014Y-86005626D01*
X118336674Y-86035761D01*
X118245122Y-86084696D01*
X118164876Y-86150552D01*
X118148377Y-86170656D01*
X117327717Y-86991317D01*
X117308222Y-87009948D01*
X117279725Y-87035291D01*
X117255923Y-87054309D01*
X117235205Y-87068658D01*
X117215065Y-87080371D01*
X117194364Y-87090247D01*
X117186773Y-87091757D01*
X117072666Y-87139022D01*
X116969973Y-87207639D01*
X116882639Y-87294973D01*
X116814022Y-87397666D01*
X116766757Y-87511773D01*
X116742662Y-87632908D01*
X116358294Y-87632908D01*
X116305915Y-87569085D01*
X116229641Y-87506488D01*
X116142620Y-87459974D01*
X116048197Y-87431332D01*
X115950000Y-87421660D01*
X115500000Y-87421660D01*
X115401803Y-87431332D01*
X115307380Y-87459974D01*
X115228545Y-87502113D01*
X115214502Y-87455820D01*
X115155537Y-87345506D01*
X115076185Y-87248815D01*
X114979494Y-87169463D01*
X114869180Y-87110498D01*
X114749482Y-87074188D01*
X114625000Y-87061928D01*
X114460750Y-87065000D01*
X114302000Y-87223750D01*
X114302000Y-88048000D01*
X114322000Y-88048000D01*
X114322000Y-88302000D01*
X114302000Y-88302000D01*
X114302000Y-89126250D01*
X114460750Y-89285000D01*
X114625000Y-89288072D01*
X114749482Y-89275812D01*
X114869180Y-89239502D01*
X114979494Y-89180537D01*
X115076185Y-89101185D01*
X115155537Y-89004494D01*
X115195220Y-88930253D01*
X115196964Y-88973050D01*
X115198001Y-89066590D01*
X115198001Y-89376709D01*
X114958051Y-89616660D01*
X114300000Y-89616660D01*
X114216435Y-89624890D01*
X114136081Y-89649265D01*
X114062027Y-89688848D01*
X113997118Y-89742118D01*
X113943848Y-89807027D01*
X113904265Y-89881081D01*
X113879890Y-89961435D01*
X113871660Y-90045000D01*
X111428340Y-90045000D01*
X111420110Y-89961435D01*
X111395735Y-89881081D01*
X111356152Y-89807027D01*
X111302882Y-89742118D01*
X111237973Y-89688848D01*
X111163919Y-89649265D01*
X111083565Y-89624890D01*
X111000000Y-89616660D01*
X109350000Y-89616660D01*
X109266435Y-89624890D01*
X109186081Y-89649265D01*
X109151031Y-89668000D01*
X108505881Y-89668000D01*
X108480000Y-89665451D01*
X108454119Y-89668000D01*
X108376690Y-89675626D01*
X108277350Y-89705761D01*
X108185798Y-89754696D01*
X108105552Y-89820552D01*
X108089049Y-89840661D01*
X107456711Y-90473000D01*
X107178340Y-90473000D01*
X107178340Y-90450000D01*
X107172992Y-90395699D01*
X107157153Y-90343484D01*
X107131431Y-90295363D01*
X107096816Y-90253184D01*
X107054637Y-90218569D01*
X107006516Y-90192847D01*
X106954301Y-90177008D01*
X106900000Y-90171660D01*
X104400000Y-90171660D01*
X104345699Y-90177008D01*
X104293484Y-90192847D01*
X104245363Y-90218569D01*
X104203184Y-90253184D01*
X104168569Y-90295363D01*
X104142847Y-90343484D01*
X104127008Y-90395699D01*
X104121660Y-90450000D01*
X103250392Y-90450000D01*
X103291731Y-90432877D01*
X103427181Y-90342372D01*
X103542372Y-90227181D01*
X103632877Y-90091731D01*
X103695218Y-89941227D01*
X103727000Y-89781452D01*
X103727000Y-89618548D01*
X103695218Y-89458773D01*
X103632877Y-89308269D01*
X103542372Y-89172819D01*
X103427181Y-89057628D01*
X103415765Y-89050000D01*
X103761928Y-89050000D01*
X103774188Y-89174482D01*
X103810498Y-89294180D01*
X103869463Y-89404494D01*
X103948815Y-89501185D01*
X104045506Y-89580537D01*
X104155820Y-89639502D01*
X104275518Y-89675812D01*
X104400000Y-89688072D01*
X105364250Y-89685000D01*
X105523000Y-89526250D01*
X105523000Y-88627000D01*
X105777000Y-88627000D01*
X105777000Y-89526250D01*
X105935750Y-89685000D01*
X106900000Y-89688072D01*
X107024482Y-89675812D01*
X107144180Y-89639502D01*
X107254494Y-89580537D01*
X107351185Y-89501185D01*
X107430537Y-89404494D01*
X107489502Y-89294180D01*
X107525812Y-89174482D01*
X107538072Y-89050000D01*
X107535000Y-88785750D01*
X107399250Y-88650000D01*
X113086928Y-88650000D01*
X113099188Y-88774482D01*
X113135498Y-88894180D01*
X113194463Y-89004494D01*
X113273815Y-89101185D01*
X113370506Y-89180537D01*
X113480820Y-89239502D01*
X113600518Y-89275812D01*
X113725000Y-89288072D01*
X113889250Y-89285000D01*
X114048000Y-89126250D01*
X114048000Y-88302000D01*
X113248750Y-88302000D01*
X113090000Y-88460750D01*
X113086928Y-88650000D01*
X107399250Y-88650000D01*
X107376250Y-88627000D01*
X105777000Y-88627000D01*
X105523000Y-88627000D01*
X103923750Y-88627000D01*
X103765000Y-88785750D01*
X103761928Y-89050000D01*
X103415765Y-89050000D01*
X103291731Y-88967123D01*
X103141227Y-88904782D01*
X102981452Y-88873000D01*
X102818548Y-88873000D01*
X102658773Y-88904782D01*
X102508269Y-88967123D01*
X102372819Y-89057628D01*
X102257628Y-89172819D01*
X102167123Y-89308269D01*
X102104782Y-89458773D01*
X102073000Y-89618548D01*
X100302000Y-89618548D01*
X100302000Y-86672588D01*
X100559414Y-86672588D01*
X100587051Y-86789221D01*
X100711564Y-87074983D01*
X100889434Y-87330962D01*
X101113825Y-87547322D01*
X101376114Y-87715748D01*
X101666222Y-87829768D01*
X101973000Y-87885000D01*
X102773000Y-87885000D01*
X102773000Y-86427000D01*
X103027000Y-86427000D01*
X103027000Y-87885000D01*
X103768330Y-87885000D01*
X103761928Y-87950000D01*
X103765000Y-88214250D01*
X103923750Y-88373000D01*
X105523000Y-88373000D01*
X105523000Y-87473750D01*
X105777000Y-87473750D01*
X105777000Y-88373000D01*
X107376250Y-88373000D01*
X107535000Y-88214250D01*
X107538072Y-87950000D01*
X107525812Y-87825518D01*
X107489502Y-87705820D01*
X107486392Y-87700000D01*
X113086928Y-87700000D01*
X113090000Y-87889250D01*
X113248750Y-88048000D01*
X114048000Y-88048000D01*
X114048000Y-87223750D01*
X113889250Y-87065000D01*
X113725000Y-87061928D01*
X113600518Y-87074188D01*
X113480820Y-87110498D01*
X113370506Y-87169463D01*
X113273815Y-87248815D01*
X113194463Y-87345506D01*
X113135498Y-87455820D01*
X113099188Y-87575518D01*
X113086928Y-87700000D01*
X107486392Y-87700000D01*
X107430537Y-87595506D01*
X107351185Y-87498815D01*
X107254494Y-87419463D01*
X107144180Y-87360498D01*
X107024482Y-87324188D01*
X106900000Y-87311928D01*
X105935750Y-87315000D01*
X105777000Y-87473750D01*
X105523000Y-87473750D01*
X105364250Y-87315000D01*
X104922635Y-87313593D01*
X105088436Y-87074983D01*
X105212949Y-86789221D01*
X105240586Y-86672588D01*
X105120584Y-86427000D01*
X103027000Y-86427000D01*
X102773000Y-86427000D01*
X100679416Y-86427000D01*
X100559414Y-86672588D01*
X100302000Y-86672588D01*
X100302000Y-85927412D01*
X100559414Y-85927412D01*
X100679416Y-86173000D01*
X102773000Y-86173000D01*
X102773000Y-84715000D01*
X103027000Y-84715000D01*
X103027000Y-86173000D01*
X105120584Y-86173000D01*
X105240586Y-85927412D01*
X105212949Y-85810779D01*
X105088436Y-85525017D01*
X104910566Y-85269038D01*
X104686175Y-85052678D01*
X104423886Y-84884252D01*
X104133778Y-84770232D01*
X103827000Y-84715000D01*
X103027000Y-84715000D01*
X102773000Y-84715000D01*
X101973000Y-84715000D01*
X101666222Y-84770232D01*
X101376114Y-84884252D01*
X101113825Y-85052678D01*
X100889434Y-85269038D01*
X100711564Y-85525017D01*
X100587051Y-85810779D01*
X100559414Y-85927412D01*
X100302000Y-85927412D01*
X100302000Y-84481987D01*
X100383130Y-84383130D01*
X100481987Y-84302000D01*
X124518013Y-84302000D01*
X124616870Y-84383130D01*
%TA.AperFunction,Conductor*%
D18*
G36*
X124616870Y-84383130D02*
G01*
X124698001Y-84481988D01*
X124698000Y-99518013D01*
X124616870Y-99616870D01*
X124518013Y-99698000D01*
X100481987Y-99698000D01*
X100383130Y-99616870D01*
X100302000Y-99518013D01*
X100302000Y-98072588D01*
X100559414Y-98072588D01*
X100587051Y-98189221D01*
X100711564Y-98474983D01*
X100889434Y-98730962D01*
X101113825Y-98947322D01*
X101376114Y-99115748D01*
X101666222Y-99229768D01*
X101973000Y-99285000D01*
X102773000Y-99285000D01*
X102773000Y-97827000D01*
X103027000Y-97827000D01*
X103027000Y-99285000D01*
X103827000Y-99285000D01*
X104133778Y-99229768D01*
X104423886Y-99115748D01*
X104686175Y-98947322D01*
X104910566Y-98730962D01*
X105088436Y-98474983D01*
X105212949Y-98189221D01*
X105240586Y-98072588D01*
X105120584Y-97827000D01*
X103027000Y-97827000D01*
X102773000Y-97827000D01*
X100679416Y-97827000D01*
X100559414Y-98072588D01*
X100302000Y-98072588D01*
X100302000Y-97327412D01*
X100559414Y-97327412D01*
X100679416Y-97573000D01*
X102773000Y-97573000D01*
X102773000Y-96115000D01*
X103027000Y-96115000D01*
X103027000Y-97573000D01*
X105120584Y-97573000D01*
X105240586Y-97327412D01*
X105212949Y-97210779D01*
X105088436Y-96925017D01*
X104910566Y-96669038D01*
X104686175Y-96452678D01*
X104492544Y-96328340D01*
X106900000Y-96328340D01*
X106954301Y-96322992D01*
X107006516Y-96307153D01*
X107054637Y-96281431D01*
X107060036Y-96277000D01*
X107328157Y-96277000D01*
X109023592Y-97972436D01*
X109047920Y-98002080D01*
X109077564Y-98026408D01*
X109077565Y-98026409D01*
X109166233Y-98099177D01*
X109286928Y-98163690D01*
X109301216Y-98171327D01*
X109447681Y-98215757D01*
X109561834Y-98227000D01*
X109561843Y-98227000D01*
X109599999Y-98230758D01*
X109638155Y-98227000D01*
X115661836Y-98227000D01*
X115699999Y-98230759D01*
X115738163Y-98227000D01*
X122591837Y-98227000D01*
X122630000Y-98230759D01*
X122668163Y-98227000D01*
X122668166Y-98227000D01*
X122782319Y-98215757D01*
X122810444Y-98207225D01*
X122826368Y-98207095D01*
X122988981Y-98207000D01*
X123111000Y-98207000D01*
X123328734Y-98163690D01*
X123533835Y-98078734D01*
X123718421Y-97955398D01*
X123875398Y-97798421D01*
X123998734Y-97613835D01*
X124083690Y-97408734D01*
X124127000Y-97191000D01*
X124127000Y-96969000D01*
X124083690Y-96751266D01*
X123998734Y-96546165D01*
X123875398Y-96361579D01*
X123718421Y-96204602D01*
X123533835Y-96081266D01*
X123328734Y-95996310D01*
X123111000Y-95953000D01*
X122889000Y-95953000D01*
X122671266Y-95996310D01*
X122466165Y-96081266D01*
X122281579Y-96204602D01*
X122124602Y-96361579D01*
X122095785Y-96404707D01*
X122056940Y-96450923D01*
X122001550Y-96508119D01*
X121950794Y-96551518D01*
X121901966Y-96584428D01*
X121850496Y-96610406D01*
X121790583Y-96631824D01*
X121716783Y-96649292D01*
X121625172Y-96662324D01*
X121513261Y-96670300D01*
X121377272Y-96673000D01*
X116402000Y-96673000D01*
X116402000Y-95986834D01*
X116390757Y-95872681D01*
X116349597Y-95736994D01*
X116343668Y-95676803D01*
X116315026Y-95582380D01*
X116268512Y-95495359D01*
X116205915Y-95419085D01*
X116164017Y-95384700D01*
X116161219Y-95364422D01*
X116156125Y-95302789D01*
X116153035Y-95226949D01*
X116152000Y-95133469D01*
X116152000Y-94530881D01*
X116152052Y-94530352D01*
X116187973Y-94511152D01*
X116252882Y-94457882D01*
X116306152Y-94392973D01*
X116345735Y-94318919D01*
X116370110Y-94238565D01*
X116378340Y-94155000D01*
X116378340Y-94093750D01*
X118946660Y-94093750D01*
X118946660Y-94531250D01*
X118956211Y-94628227D01*
X118984499Y-94721478D01*
X119030435Y-94807418D01*
X119092254Y-94882746D01*
X119163519Y-94941231D01*
X119165045Y-94953523D01*
X119169502Y-95014623D01*
X119172142Y-95089612D01*
X119172332Y-95109943D01*
X119171272Y-95165477D01*
X119169880Y-95196593D01*
X119159249Y-95202275D01*
X119086763Y-95261763D01*
X119027275Y-95334249D01*
X118983071Y-95416947D01*
X118955851Y-95506680D01*
X118946660Y-95600000D01*
X118946660Y-96000000D01*
X118955851Y-96093320D01*
X118983071Y-96183053D01*
X119027275Y-96265751D01*
X119086763Y-96338237D01*
X119159249Y-96397725D01*
X119241947Y-96441929D01*
X119331680Y-96469149D01*
X119425000Y-96478340D01*
X119975000Y-96478340D01*
X120068320Y-96469149D01*
X120158053Y-96441929D01*
X120240751Y-96397725D01*
X120313237Y-96338237D01*
X120372725Y-96265751D01*
X120416929Y-96183053D01*
X120444149Y-96093320D01*
X120453340Y-96000000D01*
X120453340Y-95600000D01*
X120444149Y-95506680D01*
X120416929Y-95416947D01*
X120372725Y-95334249D01*
X120313237Y-95261763D01*
X120240751Y-95202275D01*
X120230119Y-95196592D01*
X120228727Y-95165477D01*
X120227667Y-95109951D01*
X120227857Y-95089611D01*
X120230497Y-95014623D01*
X120234954Y-94953523D01*
X120236480Y-94941232D01*
X120307746Y-94882746D01*
X120369565Y-94807418D01*
X120415501Y-94721478D01*
X120443789Y-94628227D01*
X120453340Y-94531250D01*
X120453340Y-94093750D01*
X120443789Y-93996773D01*
X120415501Y-93903522D01*
X120369565Y-93817582D01*
X120307746Y-93742254D01*
X120232418Y-93680435D01*
X120146478Y-93634499D01*
X120053227Y-93606211D01*
X119956250Y-93596660D01*
X119443750Y-93596660D01*
X119346773Y-93606211D01*
X119253522Y-93634499D01*
X119167582Y-93680435D01*
X119092254Y-93742254D01*
X119030435Y-93817582D01*
X118984499Y-93903522D01*
X118956211Y-93996773D01*
X118946660Y-94093750D01*
X116378340Y-94093750D01*
X116378340Y-93855000D01*
X116370110Y-93771435D01*
X116345735Y-93691081D01*
X116306152Y-93617027D01*
X116252882Y-93552118D01*
X116187973Y-93498848D01*
X116113919Y-93459265D01*
X116033565Y-93434890D01*
X115950000Y-93426660D01*
X114300000Y-93426660D01*
X114228948Y-93433658D01*
X113380290Y-92585000D01*
X113871660Y-92585000D01*
X113871660Y-92885000D01*
X113879890Y-92968565D01*
X113904265Y-93048919D01*
X113943848Y-93122973D01*
X113997118Y-93187882D01*
X114062027Y-93241152D01*
X114136081Y-93280735D01*
X114216435Y-93305110D01*
X114300000Y-93313340D01*
X115950000Y-93313340D01*
X116033565Y-93305110D01*
X116113919Y-93280735D01*
X116148969Y-93262000D01*
X118828700Y-93262000D01*
X118920498Y-93262857D01*
X118995503Y-93265499D01*
X119056634Y-93269969D01*
X119061778Y-93270610D01*
X119092254Y-93307746D01*
X119167582Y-93369565D01*
X119253522Y-93415501D01*
X119346773Y-93443789D01*
X119443750Y-93453340D01*
X119956250Y-93453340D01*
X120053227Y-93443789D01*
X120146478Y-93415501D01*
X120232418Y-93369565D01*
X120307746Y-93307746D01*
X120336220Y-93273050D01*
X120341023Y-93272454D01*
X120402123Y-93267997D01*
X120477111Y-93265357D01*
X120568806Y-93264500D01*
X120979211Y-93264500D01*
X121428667Y-93713956D01*
X121548880Y-93843511D01*
X121632110Y-93951272D01*
X121689511Y-94045059D01*
X121729619Y-94131956D01*
X121759723Y-94221173D01*
X121785071Y-94321418D01*
X121809985Y-94438043D01*
X121810168Y-94438893D01*
X121838679Y-94570335D01*
X121840900Y-94579773D01*
X121877708Y-94724769D01*
X121881873Y-94739464D01*
X121905747Y-94815628D01*
X121916310Y-94868734D01*
X122001266Y-95073835D01*
X122124602Y-95258421D01*
X122281579Y-95415398D01*
X122466165Y-95538734D01*
X122671266Y-95623690D01*
X122889000Y-95667000D01*
X123111000Y-95667000D01*
X123328734Y-95623690D01*
X123533835Y-95538734D01*
X123718421Y-95415398D01*
X123875398Y-95258421D01*
X123998734Y-95073835D01*
X124083690Y-94868734D01*
X124127000Y-94651000D01*
X124127000Y-94429000D01*
X124083690Y-94211266D01*
X123998734Y-94006165D01*
X123875398Y-93821579D01*
X123718421Y-93664602D01*
X123533835Y-93541266D01*
X123328734Y-93456310D01*
X123275628Y-93445747D01*
X123199464Y-93421873D01*
X123184769Y-93417708D01*
X123039773Y-93380900D01*
X123030335Y-93378679D01*
X122898893Y-93350168D01*
X122898043Y-93349985D01*
X122781418Y-93325071D01*
X122681173Y-93299723D01*
X122591956Y-93269619D01*
X122505059Y-93229511D01*
X122411272Y-93172110D01*
X122303511Y-93088880D01*
X122173956Y-92968667D01*
X121588455Y-92383166D01*
X121571948Y-92363052D01*
X121491702Y-92297196D01*
X121400150Y-92248261D01*
X121300810Y-92218126D01*
X121223381Y-92210500D01*
X121197500Y-92207951D01*
X121171619Y-92210500D01*
X120568811Y-92210500D01*
X120477112Y-92209642D01*
X120402123Y-92207002D01*
X120341023Y-92202545D01*
X120336219Y-92201949D01*
X120307746Y-92167254D01*
X120232418Y-92105435D01*
X120146478Y-92059499D01*
X120053227Y-92031211D01*
X119956250Y-92021660D01*
X119443750Y-92021660D01*
X119346773Y-92031211D01*
X119253522Y-92059499D01*
X119167582Y-92105435D01*
X119092254Y-92167254D01*
X119065969Y-92199283D01*
X119058691Y-92200167D01*
X118996869Y-92204567D01*
X118921178Y-92207161D01*
X118828698Y-92208000D01*
X116148969Y-92208000D01*
X116113919Y-92189265D01*
X116033565Y-92164890D01*
X115950000Y-92156660D01*
X114300000Y-92156660D01*
X114216435Y-92164890D01*
X114136081Y-92189265D01*
X114062027Y-92228848D01*
X113997118Y-92282118D01*
X113943848Y-92347027D01*
X113904265Y-92421081D01*
X113879890Y-92501435D01*
X113871660Y-92585000D01*
X113380290Y-92585000D01*
X113260487Y-92465198D01*
X113241875Y-92445722D01*
X113216532Y-92417225D01*
X113197514Y-92393423D01*
X113183165Y-92372705D01*
X113171452Y-92352565D01*
X113161578Y-92331868D01*
X113160067Y-92324273D01*
X113112802Y-92210166D01*
X113044185Y-92107473D01*
X112956851Y-92020139D01*
X112854158Y-91951522D01*
X112740051Y-91904257D01*
X112618916Y-91880162D01*
X112495408Y-91880162D01*
X112374273Y-91904257D01*
X112260166Y-91951522D01*
X112157473Y-92020139D01*
X112070139Y-92107473D01*
X112001522Y-92210166D01*
X111954257Y-92324273D01*
X111930162Y-92445408D01*
X111930162Y-92568916D01*
X111954257Y-92690051D01*
X112001522Y-92804158D01*
X112070139Y-92906851D01*
X112157473Y-92994185D01*
X112260166Y-93062802D01*
X112374273Y-93110067D01*
X112381868Y-93111578D01*
X112402565Y-93121452D01*
X112422705Y-93133165D01*
X112443423Y-93147514D01*
X112467225Y-93166532D01*
X112495722Y-93191875D01*
X112515198Y-93210487D01*
X113664053Y-94359344D01*
X113680552Y-94379448D01*
X113760798Y-94445304D01*
X113852350Y-94494239D01*
X113951690Y-94524374D01*
X114010600Y-94530176D01*
X114055000Y-94534549D01*
X114080881Y-94532000D01*
X114101031Y-94532000D01*
X114136081Y-94550735D01*
X114216435Y-94575110D01*
X114300000Y-94583340D01*
X114958050Y-94583340D01*
X115098001Y-94723291D01*
X115098001Y-95133413D01*
X115096964Y-95226949D01*
X115095220Y-95269747D01*
X115055537Y-95195506D01*
X114976185Y-95098815D01*
X114879494Y-95019463D01*
X114769180Y-94960498D01*
X114649482Y-94924188D01*
X114525000Y-94911928D01*
X114360750Y-94915000D01*
X114202000Y-95073750D01*
X114202000Y-95898000D01*
X114222000Y-95898000D01*
X114222000Y-96152000D01*
X114202000Y-96152000D01*
X114202000Y-96172000D01*
X113948000Y-96172000D01*
X113948000Y-96152000D01*
X113148750Y-96152000D01*
X112990000Y-96310750D01*
X112986928Y-96500000D01*
X112999188Y-96624482D01*
X113013906Y-96673000D01*
X109921844Y-96673000D01*
X108798844Y-95550000D01*
X112986928Y-95550000D01*
X112990000Y-95739250D01*
X113148750Y-95898000D01*
X113948000Y-95898000D01*
X113948000Y-95073750D01*
X113789250Y-94915000D01*
X113625000Y-94911928D01*
X113500518Y-94924188D01*
X113380820Y-94960498D01*
X113270506Y-95019463D01*
X113173815Y-95098815D01*
X113094463Y-95195506D01*
X113035498Y-95305820D01*
X112999188Y-95425518D01*
X112986928Y-95550000D01*
X108798844Y-95550000D01*
X108226412Y-94977569D01*
X108202080Y-94947920D01*
X108083766Y-94850823D01*
X107948784Y-94778673D01*
X107802319Y-94734243D01*
X107688166Y-94723000D01*
X107688163Y-94723000D01*
X107650000Y-94719241D01*
X107611837Y-94723000D01*
X107060036Y-94723000D01*
X107054637Y-94718569D01*
X107006516Y-94692847D01*
X106954301Y-94677008D01*
X106900000Y-94671660D01*
X104400000Y-94671660D01*
X104345699Y-94677008D01*
X104293484Y-94692847D01*
X104245363Y-94718569D01*
X104203184Y-94753184D01*
X104168569Y-94795363D01*
X104142847Y-94843484D01*
X104127008Y-94895699D01*
X104121660Y-94950000D01*
X104121660Y-96050000D01*
X104127008Y-96104301D01*
X104142847Y-96156516D01*
X104154540Y-96178392D01*
X104133778Y-96170232D01*
X103827000Y-96115000D01*
X103027000Y-96115000D01*
X102773000Y-96115000D01*
X101973000Y-96115000D01*
X101666222Y-96170232D01*
X101376114Y-96284252D01*
X101113825Y-96452678D01*
X100889434Y-96669038D01*
X100711564Y-96925017D01*
X100587051Y-97210779D01*
X100559414Y-97327412D01*
X100302000Y-97327412D01*
X100302000Y-94218548D01*
X102073000Y-94218548D01*
X102073000Y-94381452D01*
X102104782Y-94541227D01*
X102167123Y-94691731D01*
X102257628Y-94827181D01*
X102372819Y-94942372D01*
X102508269Y-95032877D01*
X102658773Y-95095218D01*
X102818548Y-95127000D01*
X102981452Y-95127000D01*
X103141227Y-95095218D01*
X103291731Y-95032877D01*
X103427181Y-94942372D01*
X103542372Y-94827181D01*
X103632877Y-94691731D01*
X103695218Y-94541227D01*
X103727000Y-94381452D01*
X103727000Y-94218548D01*
X103695218Y-94058773D01*
X103632877Y-93908269D01*
X103542372Y-93772819D01*
X103427181Y-93657628D01*
X103291731Y-93567123D01*
X103141227Y-93504782D01*
X102981452Y-93473000D01*
X102818548Y-93473000D01*
X102658773Y-93504782D01*
X102508269Y-93567123D01*
X102372819Y-93657628D01*
X102257628Y-93772819D01*
X102167123Y-93908269D01*
X102104782Y-94058773D01*
X102073000Y-94218548D01*
X100302000Y-94218548D01*
X100302000Y-92450000D01*
X104121660Y-92450000D01*
X104121660Y-93550000D01*
X104127008Y-93604301D01*
X104142847Y-93656516D01*
X104168569Y-93704637D01*
X104203184Y-93746816D01*
X104245363Y-93781431D01*
X104293484Y-93807153D01*
X104345699Y-93822992D01*
X104400000Y-93828340D01*
X106900000Y-93828340D01*
X106954301Y-93822992D01*
X107006516Y-93807153D01*
X107054637Y-93781431D01*
X107096816Y-93746816D01*
X107131431Y-93704637D01*
X107157153Y-93656516D01*
X107172992Y-93604301D01*
X107178340Y-93550000D01*
X107178340Y-93527000D01*
X107499119Y-93527000D01*
X107525000Y-93529549D01*
X107550881Y-93527000D01*
X107628310Y-93519374D01*
X107727650Y-93489239D01*
X107819202Y-93440304D01*
X107899448Y-93374448D01*
X107915955Y-93354334D01*
X108235289Y-93035000D01*
X108561928Y-93035000D01*
X108574188Y-93159482D01*
X108610498Y-93279180D01*
X108669463Y-93389494D01*
X108748815Y-93486185D01*
X108845506Y-93565537D01*
X108955820Y-93624502D01*
X108985104Y-93633385D01*
X108954265Y-93691081D01*
X108929890Y-93771435D01*
X108921660Y-93855000D01*
X108921660Y-94155000D01*
X108929890Y-94238565D01*
X108954265Y-94318919D01*
X108993848Y-94392973D01*
X109047118Y-94457882D01*
X109112027Y-94511152D01*
X109186081Y-94550735D01*
X109266435Y-94575110D01*
X109350000Y-94583340D01*
X111000000Y-94583340D01*
X111083565Y-94575110D01*
X111163919Y-94550735D01*
X111198969Y-94532000D01*
X111515504Y-94532000D01*
X111547364Y-94532326D01*
X111592722Y-94533930D01*
X111628650Y-94536704D01*
X111656474Y-94540532D01*
X111678628Y-94545318D01*
X111698460Y-94551442D01*
X111719654Y-94560116D01*
X111730736Y-94565761D01*
X111753004Y-94580640D01*
X111867111Y-94627905D01*
X111988246Y-94652000D01*
X112111754Y-94652000D01*
X112232889Y-94627905D01*
X112346996Y-94580640D01*
X112449689Y-94512023D01*
X112537023Y-94424689D01*
X112605640Y-94321996D01*
X112652905Y-94207889D01*
X112677000Y-94086754D01*
X112677000Y-93963246D01*
X112652905Y-93842111D01*
X112605640Y-93728004D01*
X112537023Y-93625311D01*
X112449689Y-93537977D01*
X112346996Y-93469360D01*
X112232889Y-93422095D01*
X112111754Y-93398000D01*
X111988246Y-93398000D01*
X111867111Y-93422095D01*
X111813710Y-93444215D01*
X111777763Y-93457775D01*
X111750194Y-93465933D01*
X111723754Y-93471599D01*
X111694795Y-93475640D01*
X111664448Y-93478000D01*
X111607902Y-93478000D01*
X111680537Y-93389494D01*
X111739502Y-93279180D01*
X111775812Y-93159482D01*
X111788072Y-93035000D01*
X111785000Y-93020750D01*
X111626250Y-92862000D01*
X110302000Y-92862000D01*
X110302000Y-92882000D01*
X110048000Y-92882000D01*
X110048000Y-92862000D01*
X108723750Y-92862000D01*
X108565000Y-93020750D01*
X108561928Y-93035000D01*
X108235289Y-93035000D01*
X108693020Y-92577270D01*
X108723750Y-92608000D01*
X110048000Y-92608000D01*
X110048000Y-92588000D01*
X110302000Y-92588000D01*
X110302000Y-92608000D01*
X111626250Y-92608000D01*
X111785000Y-92449250D01*
X111788072Y-92435000D01*
X111775812Y-92310518D01*
X111739502Y-92190820D01*
X111680537Y-92080506D01*
X111601185Y-91983815D01*
X111504494Y-91904463D01*
X111394180Y-91845498D01*
X111364896Y-91836615D01*
X111395735Y-91778919D01*
X111420110Y-91698565D01*
X111428340Y-91615000D01*
X111428340Y-91315000D01*
X113871660Y-91315000D01*
X113871660Y-91615000D01*
X113879890Y-91698565D01*
X113904265Y-91778919D01*
X113943848Y-91852973D01*
X113997118Y-91917882D01*
X114062027Y-91971152D01*
X114136081Y-92010735D01*
X114216435Y-92035110D01*
X114300000Y-92043340D01*
X115950000Y-92043340D01*
X116033565Y-92035110D01*
X116113919Y-92010735D01*
X116148969Y-91992000D01*
X119409119Y-91992000D01*
X119435000Y-91994549D01*
X119460881Y-91992000D01*
X119478750Y-91990240D01*
X119522500Y-91994549D01*
X119625809Y-91984374D01*
X119725149Y-91954239D01*
X119796989Y-91915840D01*
X119956250Y-91915840D01*
X120053227Y-91906289D01*
X120146478Y-91878001D01*
X120232418Y-91832065D01*
X120307746Y-91770246D01*
X120336220Y-91735550D01*
X120341023Y-91734954D01*
X120402123Y-91730497D01*
X120477111Y-91727857D01*
X120568806Y-91727000D01*
X121618754Y-91727000D01*
X121707869Y-91735133D01*
X121743418Y-91747072D01*
X121757263Y-91756734D01*
X121771511Y-91774405D01*
X121791859Y-91815878D01*
X121814426Y-91886019D01*
X121837175Y-91981506D01*
X121861231Y-92094289D01*
X121862490Y-92099905D01*
X121890790Y-92220271D01*
X121895129Y-92236501D01*
X121903534Y-92264506D01*
X121916310Y-92328734D01*
X122001266Y-92533835D01*
X122124602Y-92718421D01*
X122281579Y-92875398D01*
X122466165Y-92998734D01*
X122671266Y-93083690D01*
X122889000Y-93127000D01*
X123111000Y-93127000D01*
X123328734Y-93083690D01*
X123533835Y-92998734D01*
X123718421Y-92875398D01*
X123875398Y-92718421D01*
X123998734Y-92533835D01*
X124083690Y-92328734D01*
X124127000Y-92111000D01*
X124127000Y-91889000D01*
X124083690Y-91671266D01*
X123998734Y-91466165D01*
X123875398Y-91281579D01*
X123718421Y-91124602D01*
X123533835Y-91001266D01*
X123328734Y-90916310D01*
X123127002Y-90876183D01*
X123127002Y-90780815D01*
X123356891Y-90901481D01*
X123631252Y-90804157D01*
X123881355Y-90655178D01*
X124097588Y-90460269D01*
X124271641Y-90226920D01*
X124396825Y-89964099D01*
X124441476Y-89816890D01*
X124320155Y-89587000D01*
X123127000Y-89587000D01*
X123127000Y-89607000D01*
X122873000Y-89607000D01*
X122873000Y-89587000D01*
X121679845Y-89587000D01*
X121558524Y-89816890D01*
X121603175Y-89964099D01*
X121728359Y-90226920D01*
X121902412Y-90460269D01*
X122118645Y-90655178D01*
X122148564Y-90673000D01*
X120568811Y-90673000D01*
X120477112Y-90672142D01*
X120402123Y-90669502D01*
X120341023Y-90665045D01*
X120336219Y-90664449D01*
X120307746Y-90629754D01*
X120232418Y-90567935D01*
X120146478Y-90521999D01*
X120053227Y-90493711D01*
X119956250Y-90484160D01*
X119443750Y-90484160D01*
X119346773Y-90493711D01*
X119253522Y-90521999D01*
X119167582Y-90567935D01*
X119092254Y-90629754D01*
X119030435Y-90705082D01*
X118984499Y-90791022D01*
X118956211Y-90884273D01*
X118951053Y-90936645D01*
X118903564Y-90938000D01*
X116148969Y-90938000D01*
X116113919Y-90919265D01*
X116033565Y-90894890D01*
X115950000Y-90886660D01*
X114300000Y-90886660D01*
X114216435Y-90894890D01*
X114136081Y-90919265D01*
X114062027Y-90958848D01*
X113997118Y-91012118D01*
X113943848Y-91077027D01*
X113904265Y-91151081D01*
X113879890Y-91231435D01*
X113871660Y-91315000D01*
X111428340Y-91315000D01*
X111420110Y-91231435D01*
X111395735Y-91151081D01*
X111356152Y-91077027D01*
X111302882Y-91012118D01*
X111237973Y-90958848D01*
X111163919Y-90919265D01*
X111083565Y-90894890D01*
X111000000Y-90886660D01*
X109350000Y-90886660D01*
X109266435Y-90894890D01*
X109186081Y-90919265D01*
X109151031Y-90938000D01*
X109085881Y-90938000D01*
X109060000Y-90935451D01*
X109034119Y-90938000D01*
X108956690Y-90945626D01*
X108857350Y-90975761D01*
X108765798Y-91024696D01*
X108685552Y-91090552D01*
X108669053Y-91110656D01*
X107306711Y-92473000D01*
X107178340Y-92473000D01*
X107178340Y-92450000D01*
X107172992Y-92395699D01*
X107157153Y-92343484D01*
X107131431Y-92295363D01*
X107096816Y-92253184D01*
X107054637Y-92218569D01*
X107006516Y-92192847D01*
X106954301Y-92177008D01*
X106900000Y-92171660D01*
X104400000Y-92171660D01*
X104345699Y-92177008D01*
X104293484Y-92192847D01*
X104245363Y-92218569D01*
X104203184Y-92253184D01*
X104168569Y-92295363D01*
X104142847Y-92343484D01*
X104127008Y-92395699D01*
X104121660Y-92450000D01*
X100302000Y-92450000D01*
X100302000Y-89618548D01*
X102073000Y-89618548D01*
X102073000Y-89781452D01*
X102104782Y-89941227D01*
X102167123Y-90091731D01*
X102257628Y-90227181D01*
X102372819Y-90342372D01*
X102508269Y-90432877D01*
X102658773Y-90495218D01*
X102818548Y-90527000D01*
X102981452Y-90527000D01*
X103141227Y-90495218D01*
X103250392Y-90450000D01*
X104121660Y-90450000D01*
X104121660Y-91550000D01*
X104127008Y-91604301D01*
X104142847Y-91656516D01*
X104168569Y-91704637D01*
X104203184Y-91746816D01*
X104245363Y-91781431D01*
X104293484Y-91807153D01*
X104345699Y-91822992D01*
X104400000Y-91828340D01*
X106900000Y-91828340D01*
X106954301Y-91822992D01*
X107006516Y-91807153D01*
X107054637Y-91781431D01*
X107096816Y-91746816D01*
X107131431Y-91704637D01*
X107157153Y-91656516D01*
X107172992Y-91604301D01*
X107178340Y-91550000D01*
X107178340Y-91527000D01*
X107649119Y-91527000D01*
X107675000Y-91529549D01*
X107700881Y-91527000D01*
X107778310Y-91519374D01*
X107877650Y-91489239D01*
X107969202Y-91440304D01*
X108049448Y-91374448D01*
X108065955Y-91354334D01*
X108698290Y-90722000D01*
X109151031Y-90722000D01*
X109186081Y-90740735D01*
X109266435Y-90765110D01*
X109350000Y-90773340D01*
X111000000Y-90773340D01*
X111083565Y-90765110D01*
X111163919Y-90740735D01*
X111237973Y-90701152D01*
X111302882Y-90647882D01*
X111356152Y-90582973D01*
X111395735Y-90508919D01*
X111420110Y-90428565D01*
X111428340Y-90345000D01*
X111428340Y-90045000D01*
X113871660Y-90045000D01*
X113871660Y-90345000D01*
X113879890Y-90428565D01*
X113904265Y-90508919D01*
X113943848Y-90582973D01*
X113997118Y-90647882D01*
X114062027Y-90701152D01*
X114136081Y-90740735D01*
X114216435Y-90765110D01*
X114300000Y-90773340D01*
X115950000Y-90773340D01*
X116033565Y-90765110D01*
X116113919Y-90740735D01*
X116187973Y-90701152D01*
X116252882Y-90647882D01*
X116306152Y-90582973D01*
X116345735Y-90508919D01*
X116370110Y-90428565D01*
X116378340Y-90345000D01*
X116378340Y-90045000D01*
X116370110Y-89961435D01*
X116345735Y-89881081D01*
X116306152Y-89807027D01*
X116252882Y-89742118D01*
X116235430Y-89727795D01*
X116244374Y-89698310D01*
X116246835Y-89673322D01*
X116254549Y-89595001D01*
X116252000Y-89569120D01*
X116252000Y-89406250D01*
X118946660Y-89406250D01*
X118946660Y-89843750D01*
X118956211Y-89940727D01*
X118984499Y-90033978D01*
X119030435Y-90119918D01*
X119092254Y-90195246D01*
X119167582Y-90257065D01*
X119253522Y-90303001D01*
X119346773Y-90331289D01*
X119443750Y-90340840D01*
X119956250Y-90340840D01*
X120053227Y-90331289D01*
X120146478Y-90303001D01*
X120232418Y-90257065D01*
X120307746Y-90195246D01*
X120369565Y-90119918D01*
X120415501Y-90033978D01*
X120443789Y-89940727D01*
X120453340Y-89843750D01*
X120453340Y-89406250D01*
X120443789Y-89309273D01*
X120415501Y-89216022D01*
X120369565Y-89130082D01*
X120347431Y-89103110D01*
X121558524Y-89103110D01*
X121679845Y-89333000D01*
X122873000Y-89333000D01*
X122873000Y-89313000D01*
X123127000Y-89313000D01*
X123127000Y-89333000D01*
X124320155Y-89333000D01*
X124441476Y-89103110D01*
X124396825Y-88955901D01*
X124271641Y-88693080D01*
X124097588Y-88459731D01*
X123881355Y-88264822D01*
X123631252Y-88115843D01*
X123440958Y-88048340D01*
X123850000Y-88048340D01*
X123904301Y-88042992D01*
X123956516Y-88027153D01*
X124004637Y-88001431D01*
X124046816Y-87966816D01*
X124081431Y-87924637D01*
X124107153Y-87876516D01*
X124122992Y-87824301D01*
X124128340Y-87770000D01*
X124128340Y-86070000D01*
X124122992Y-86015699D01*
X124107153Y-85963484D01*
X124081431Y-85915363D01*
X124046816Y-85873184D01*
X124004637Y-85838569D01*
X123956516Y-85812847D01*
X123904301Y-85797008D01*
X123850000Y-85791660D01*
X122150000Y-85791660D01*
X122095699Y-85797008D01*
X122043484Y-85812847D01*
X121995363Y-85838569D01*
X121953184Y-85873184D01*
X121918569Y-85915363D01*
X121892847Y-85963484D01*
X121877008Y-86015699D01*
X121871660Y-86070000D01*
X121871660Y-87770000D01*
X121877008Y-87824301D01*
X121892847Y-87876516D01*
X121918569Y-87924637D01*
X121953184Y-87966816D01*
X121995363Y-88001431D01*
X122043484Y-88027153D01*
X122095699Y-88042992D01*
X122150000Y-88048340D01*
X122559042Y-88048340D01*
X122368748Y-88115843D01*
X122118645Y-88264822D01*
X121902412Y-88459731D01*
X121728359Y-88693080D01*
X121603175Y-88955901D01*
X121558524Y-89103110D01*
X120347431Y-89103110D01*
X120307746Y-89054754D01*
X120236480Y-88996268D01*
X120234954Y-88983976D01*
X120230497Y-88922876D01*
X120228253Y-88859134D01*
X120228970Y-88826586D01*
X120230769Y-88791424D01*
X120265751Y-88772725D01*
X120338237Y-88713237D01*
X120397725Y-88640751D01*
X120441929Y-88558053D01*
X120469149Y-88468320D01*
X120478340Y-88375000D01*
X120478340Y-87975000D01*
X120469149Y-87881680D01*
X120441929Y-87791947D01*
X120397725Y-87709249D01*
X120338237Y-87636763D01*
X120265751Y-87577275D01*
X120183053Y-87533071D01*
X120093320Y-87505851D01*
X120000000Y-87496660D01*
X119450000Y-87496660D01*
X119356680Y-87505851D01*
X119266947Y-87533071D01*
X119184249Y-87577275D01*
X119111763Y-87636763D01*
X119052275Y-87709249D01*
X119008071Y-87791947D01*
X118980851Y-87881680D01*
X118971660Y-87975000D01*
X118971660Y-88375000D01*
X118980851Y-88468320D01*
X119008071Y-88558053D01*
X119052275Y-88640751D01*
X119111763Y-88713237D01*
X119170470Y-88761417D01*
X119171978Y-88812457D01*
X119172245Y-88836845D01*
X119172142Y-88847887D01*
X119169502Y-88922876D01*
X119165045Y-88983976D01*
X119163519Y-88996269D01*
X119092254Y-89054754D01*
X119030435Y-89130082D01*
X118984499Y-89216022D01*
X118956211Y-89309273D01*
X118946660Y-89406250D01*
X116252000Y-89406250D01*
X116252000Y-89066531D01*
X116253035Y-88973050D01*
X116256125Y-88897210D01*
X116261219Y-88835577D01*
X116264017Y-88815300D01*
X116305915Y-88780915D01*
X116368512Y-88704641D01*
X116415026Y-88617620D01*
X116443668Y-88523197D01*
X116453340Y-88425000D01*
X116453340Y-87925000D01*
X116443668Y-87826803D01*
X116415026Y-87732380D01*
X116368512Y-87645359D01*
X116358294Y-87632908D01*
X116742662Y-87632908D01*
X116742662Y-87756416D01*
X116766757Y-87877551D01*
X116814022Y-87991658D01*
X116882639Y-88094351D01*
X116969973Y-88181685D01*
X117072666Y-88250302D01*
X117186773Y-88297567D01*
X117307908Y-88321662D01*
X117431416Y-88321662D01*
X117552551Y-88297567D01*
X117666658Y-88250302D01*
X117769351Y-88181685D01*
X117856685Y-88094351D01*
X117925302Y-87991658D01*
X117972567Y-87877551D01*
X117974078Y-87869956D01*
X117983952Y-87849258D01*
X117995665Y-87829118D01*
X118010014Y-87808400D01*
X118029032Y-87784598D01*
X118054375Y-87756101D01*
X118072963Y-87736651D01*
X118757615Y-87052000D01*
X118934486Y-87052000D01*
X119019348Y-87052369D01*
X119090477Y-87053727D01*
X119104472Y-87054353D01*
X119111763Y-87063237D01*
X119184249Y-87122725D01*
X119266947Y-87166929D01*
X119356680Y-87194149D01*
X119450000Y-87203340D01*
X120000000Y-87203340D01*
X120093320Y-87194149D01*
X120183053Y-87166929D01*
X120265751Y-87122725D01*
X120338237Y-87063237D01*
X120397725Y-86990751D01*
X120441929Y-86908053D01*
X120469149Y-86818320D01*
X120478340Y-86725000D01*
X120478340Y-86325000D01*
X120469149Y-86231680D01*
X120441929Y-86141947D01*
X120397725Y-86059249D01*
X120338237Y-85986763D01*
X120265751Y-85927275D01*
X120183053Y-85883071D01*
X120093320Y-85855851D01*
X120000000Y-85846660D01*
X119450000Y-85846660D01*
X119356680Y-85855851D01*
X119266947Y-85883071D01*
X119184249Y-85927275D01*
X119111763Y-85986763D01*
X119104473Y-85995646D01*
X119090477Y-85996272D01*
X119019347Y-85997630D01*
X118934481Y-85998000D01*
X118565205Y-85998000D01*
X118539324Y-85995451D01*
X118513443Y-85998000D01*
X118436014Y-86005626D01*
X118336674Y-86035761D01*
X118245122Y-86084696D01*
X118164876Y-86150552D01*
X118148377Y-86170656D01*
X117327717Y-86991317D01*
X117308222Y-87009948D01*
X117279725Y-87035291D01*
X117255923Y-87054309D01*
X117235205Y-87068658D01*
X117215065Y-87080371D01*
X117194364Y-87090247D01*
X117186773Y-87091757D01*
X117072666Y-87139022D01*
X116969973Y-87207639D01*
X116882639Y-87294973D01*
X116814022Y-87397666D01*
X116766757Y-87511773D01*
X116742662Y-87632908D01*
X116358294Y-87632908D01*
X116305915Y-87569085D01*
X116229641Y-87506488D01*
X116142620Y-87459974D01*
X116048197Y-87431332D01*
X115950000Y-87421660D01*
X115500000Y-87421660D01*
X115401803Y-87431332D01*
X115307380Y-87459974D01*
X115228545Y-87502113D01*
X115214502Y-87455820D01*
X115155537Y-87345506D01*
X115076185Y-87248815D01*
X114979494Y-87169463D01*
X114869180Y-87110498D01*
X114749482Y-87074188D01*
X114625000Y-87061928D01*
X114460750Y-87065000D01*
X114302000Y-87223750D01*
X114302000Y-88048000D01*
X114322000Y-88048000D01*
X114322000Y-88302000D01*
X114302000Y-88302000D01*
X114302000Y-89126250D01*
X114460750Y-89285000D01*
X114625000Y-89288072D01*
X114749482Y-89275812D01*
X114869180Y-89239502D01*
X114979494Y-89180537D01*
X115076185Y-89101185D01*
X115155537Y-89004494D01*
X115195220Y-88930253D01*
X115196964Y-88973050D01*
X115198001Y-89066590D01*
X115198001Y-89376709D01*
X114958051Y-89616660D01*
X114300000Y-89616660D01*
X114216435Y-89624890D01*
X114136081Y-89649265D01*
X114062027Y-89688848D01*
X113997118Y-89742118D01*
X113943848Y-89807027D01*
X113904265Y-89881081D01*
X113879890Y-89961435D01*
X113871660Y-90045000D01*
X111428340Y-90045000D01*
X111420110Y-89961435D01*
X111395735Y-89881081D01*
X111356152Y-89807027D01*
X111302882Y-89742118D01*
X111237973Y-89688848D01*
X111163919Y-89649265D01*
X111083565Y-89624890D01*
X111000000Y-89616660D01*
X109350000Y-89616660D01*
X109266435Y-89624890D01*
X109186081Y-89649265D01*
X109151031Y-89668000D01*
X108505881Y-89668000D01*
X108480000Y-89665451D01*
X108454119Y-89668000D01*
X108376690Y-89675626D01*
X108277350Y-89705761D01*
X108185798Y-89754696D01*
X108105552Y-89820552D01*
X108089049Y-89840661D01*
X107456711Y-90473000D01*
X107178340Y-90473000D01*
X107178340Y-90450000D01*
X107172992Y-90395699D01*
X107157153Y-90343484D01*
X107131431Y-90295363D01*
X107096816Y-90253184D01*
X107054637Y-90218569D01*
X107006516Y-90192847D01*
X106954301Y-90177008D01*
X106900000Y-90171660D01*
X104400000Y-90171660D01*
X104345699Y-90177008D01*
X104293484Y-90192847D01*
X104245363Y-90218569D01*
X104203184Y-90253184D01*
X104168569Y-90295363D01*
X104142847Y-90343484D01*
X104127008Y-90395699D01*
X104121660Y-90450000D01*
X103250392Y-90450000D01*
X103291731Y-90432877D01*
X103427181Y-90342372D01*
X103542372Y-90227181D01*
X103632877Y-90091731D01*
X103695218Y-89941227D01*
X103727000Y-89781452D01*
X103727000Y-89618548D01*
X103695218Y-89458773D01*
X103632877Y-89308269D01*
X103542372Y-89172819D01*
X103427181Y-89057628D01*
X103415765Y-89050000D01*
X103761928Y-89050000D01*
X103774188Y-89174482D01*
X103810498Y-89294180D01*
X103869463Y-89404494D01*
X103948815Y-89501185D01*
X104045506Y-89580537D01*
X104155820Y-89639502D01*
X104275518Y-89675812D01*
X104400000Y-89688072D01*
X105364250Y-89685000D01*
X105523000Y-89526250D01*
X105523000Y-88627000D01*
X105777000Y-88627000D01*
X105777000Y-89526250D01*
X105935750Y-89685000D01*
X106900000Y-89688072D01*
X107024482Y-89675812D01*
X107144180Y-89639502D01*
X107254494Y-89580537D01*
X107351185Y-89501185D01*
X107430537Y-89404494D01*
X107489502Y-89294180D01*
X107525812Y-89174482D01*
X107538072Y-89050000D01*
X107535000Y-88785750D01*
X107399250Y-88650000D01*
X113086928Y-88650000D01*
X113099188Y-88774482D01*
X113135498Y-88894180D01*
X113194463Y-89004494D01*
X113273815Y-89101185D01*
X113370506Y-89180537D01*
X113480820Y-89239502D01*
X113600518Y-89275812D01*
X113725000Y-89288072D01*
X113889250Y-89285000D01*
X114048000Y-89126250D01*
X114048000Y-88302000D01*
X113248750Y-88302000D01*
X113090000Y-88460750D01*
X113086928Y-88650000D01*
X107399250Y-88650000D01*
X107376250Y-88627000D01*
X105777000Y-88627000D01*
X105523000Y-88627000D01*
X103923750Y-88627000D01*
X103765000Y-88785750D01*
X103761928Y-89050000D01*
X103415765Y-89050000D01*
X103291731Y-88967123D01*
X103141227Y-88904782D01*
X102981452Y-88873000D01*
X102818548Y-88873000D01*
X102658773Y-88904782D01*
X102508269Y-88967123D01*
X102372819Y-89057628D01*
X102257628Y-89172819D01*
X102167123Y-89308269D01*
X102104782Y-89458773D01*
X102073000Y-89618548D01*
X100302000Y-89618548D01*
X100302000Y-86672588D01*
X100559414Y-86672588D01*
X100587051Y-86789221D01*
X100711564Y-87074983D01*
X100889434Y-87330962D01*
X101113825Y-87547322D01*
X101376114Y-87715748D01*
X101666222Y-87829768D01*
X101973000Y-87885000D01*
X102773000Y-87885000D01*
X102773000Y-86427000D01*
X103027000Y-86427000D01*
X103027000Y-87885000D01*
X103768330Y-87885000D01*
X103761928Y-87950000D01*
X103765000Y-88214250D01*
X103923750Y-88373000D01*
X105523000Y-88373000D01*
X105523000Y-87473750D01*
X105777000Y-87473750D01*
X105777000Y-88373000D01*
X107376250Y-88373000D01*
X107535000Y-88214250D01*
X107538072Y-87950000D01*
X107525812Y-87825518D01*
X107489502Y-87705820D01*
X107486392Y-87700000D01*
X113086928Y-87700000D01*
X113090000Y-87889250D01*
X113248750Y-88048000D01*
X114048000Y-88048000D01*
X114048000Y-87223750D01*
X113889250Y-87065000D01*
X113725000Y-87061928D01*
X113600518Y-87074188D01*
X113480820Y-87110498D01*
X113370506Y-87169463D01*
X113273815Y-87248815D01*
X113194463Y-87345506D01*
X113135498Y-87455820D01*
X113099188Y-87575518D01*
X113086928Y-87700000D01*
X107486392Y-87700000D01*
X107430537Y-87595506D01*
X107351185Y-87498815D01*
X107254494Y-87419463D01*
X107144180Y-87360498D01*
X107024482Y-87324188D01*
X106900000Y-87311928D01*
X105935750Y-87315000D01*
X105777000Y-87473750D01*
X105523000Y-87473750D01*
X105364250Y-87315000D01*
X104922635Y-87313593D01*
X105088436Y-87074983D01*
X105212949Y-86789221D01*
X105240586Y-86672588D01*
X105120584Y-86427000D01*
X103027000Y-86427000D01*
X102773000Y-86427000D01*
X100679416Y-86427000D01*
X100559414Y-86672588D01*
X100302000Y-86672588D01*
X100302000Y-85927412D01*
X100559414Y-85927412D01*
X100679416Y-86173000D01*
X102773000Y-86173000D01*
X102773000Y-84715000D01*
X103027000Y-84715000D01*
X103027000Y-86173000D01*
X105120584Y-86173000D01*
X105240586Y-85927412D01*
X105212949Y-85810779D01*
X105088436Y-85525017D01*
X104910566Y-85269038D01*
X104686175Y-85052678D01*
X104423886Y-84884252D01*
X104133778Y-84770232D01*
X103827000Y-84715000D01*
X103027000Y-84715000D01*
X102773000Y-84715000D01*
X101973000Y-84715000D01*
X101666222Y-84770232D01*
X101376114Y-84884252D01*
X101113825Y-85052678D01*
X100889434Y-85269038D01*
X100711564Y-85525017D01*
X100587051Y-85810779D01*
X100559414Y-85927412D01*
X100302000Y-85927412D01*
X100302000Y-84481987D01*
X100383130Y-84383130D01*
X100481987Y-84302000D01*
X124518013Y-84302000D01*
X124616870Y-84383130D01*
G37*
%TD.AperFunction*%
%TD*%
D19*
%TO.N,+5V*%
X123366555Y-96903864D02*
X122988559Y-97917300D01*
X122825122Y-97917396D01*
X122825025Y-97917396D01*
X122671569Y-97918650D01*
X122671481Y-97918651D01*
X122530645Y-97920784D01*
X122530578Y-97920786D01*
X122396192Y-97923523D01*
X122396160Y-97923523D01*
X122262053Y-97926592D01*
X122122101Y-97929716D01*
X121970059Y-97932623D01*
X121799871Y-97935038D01*
X121605171Y-97936688D01*
X121392700Y-97937265D01*
X121392700Y-96962450D01*
X121526124Y-96959801D01*
X121526775Y-96959772D01*
X121655461Y-96950600D01*
X121656347Y-96950505D01*
X121770090Y-96934325D01*
X121771226Y-96934111D01*
X121872274Y-96910193D01*
X121873624Y-96909793D01*
X121964219Y-96877407D01*
X121965666Y-96876786D01*
X122048054Y-96835203D01*
X122049430Y-96834396D01*
X122125857Y-96782884D01*
X122127012Y-96782006D01*
X122199722Y-96719835D01*
X122200592Y-96719017D01*
X122271829Y-96645458D01*
X122272428Y-96644794D01*
X122338910Y-96565696D01*
X123366555Y-96903864D01*
%TA.AperFunction,Conductor*%
D18*
G36*
X123366555Y-96903864D02*
G01*
X122988559Y-97917300D01*
X122825122Y-97917396D01*
X122825025Y-97917396D01*
X122671569Y-97918650D01*
X122671481Y-97918651D01*
X122530645Y-97920784D01*
X122530578Y-97920786D01*
X122396192Y-97923523D01*
X122396160Y-97923523D01*
X122262053Y-97926592D01*
X122122101Y-97929716D01*
X121970059Y-97932623D01*
X121799871Y-97935038D01*
X121605171Y-97936688D01*
X121392700Y-97937265D01*
X121392700Y-96962450D01*
X121526124Y-96959801D01*
X121526775Y-96959772D01*
X121655461Y-96950600D01*
X121656347Y-96950505D01*
X121770090Y-96934325D01*
X121771226Y-96934111D01*
X121872274Y-96910193D01*
X121873624Y-96909793D01*
X121964219Y-96877407D01*
X121965666Y-96876786D01*
X122048054Y-96835203D01*
X122049430Y-96834396D01*
X122125857Y-96782884D01*
X122127012Y-96782006D01*
X122199722Y-96719835D01*
X122200592Y-96719017D01*
X122271829Y-96645458D01*
X122272428Y-96644794D01*
X122338910Y-96565696D01*
X123366555Y-96903864D01*
G37*
%TD.AperFunction*%
%TD*%
D19*
%TO.N,+5V*%
X118016352Y-87383506D02*
X117971086Y-87428475D01*
X117922711Y-87476354D01*
X117922643Y-87476422D01*
X117879688Y-87519586D01*
X117879508Y-87519770D01*
X117841514Y-87559528D01*
X117841206Y-87559862D01*
X117807697Y-87597540D01*
X117807265Y-87598053D01*
X117777766Y-87634974D01*
X117777248Y-87635670D01*
X117751283Y-87673160D01*
X117750745Y-87674006D01*
X117727839Y-87713390D01*
X117727355Y-87714307D01*
X117707031Y-87756909D01*
X117706647Y-87757800D01*
X117691504Y-87796992D01*
X117258875Y-87805449D01*
X117267332Y-87372819D01*
X117306523Y-87357676D01*
X117307414Y-87357292D01*
X117350016Y-87336968D01*
X117350933Y-87336484D01*
X117390317Y-87313578D01*
X117391163Y-87313040D01*
X117428653Y-87287075D01*
X117429349Y-87286557D01*
X117466270Y-87257058D01*
X117466783Y-87256626D01*
X117504461Y-87223117D01*
X117504795Y-87222809D01*
X117544553Y-87184815D01*
X117544737Y-87184635D01*
X117587901Y-87141680D01*
X117587969Y-87141612D01*
X117635848Y-87093237D01*
X117680818Y-87047972D01*
X118016352Y-87383506D01*
%TA.AperFunction,Conductor*%
D18*
G36*
X118016352Y-87383506D02*
G01*
X117971086Y-87428475D01*
X117922711Y-87476354D01*
X117922643Y-87476422D01*
X117879688Y-87519586D01*
X117879508Y-87519770D01*
X117841514Y-87559528D01*
X117841206Y-87559862D01*
X117807697Y-87597540D01*
X117807265Y-87598053D01*
X117777766Y-87634974D01*
X117777248Y-87635670D01*
X117751283Y-87673160D01*
X117750745Y-87674006D01*
X117727839Y-87713390D01*
X117727355Y-87714307D01*
X117707031Y-87756909D01*
X117706647Y-87757800D01*
X117691504Y-87796992D01*
X117258875Y-87805449D01*
X117267332Y-87372819D01*
X117306523Y-87357676D01*
X117307414Y-87357292D01*
X117350016Y-87336968D01*
X117350933Y-87336484D01*
X117390317Y-87313578D01*
X117391163Y-87313040D01*
X117428653Y-87287075D01*
X117429349Y-87286557D01*
X117466270Y-87257058D01*
X117466783Y-87256626D01*
X117504461Y-87223117D01*
X117504795Y-87222809D01*
X117544553Y-87184815D01*
X117544737Y-87184635D01*
X117587901Y-87141680D01*
X117587969Y-87141612D01*
X117635848Y-87093237D01*
X117680818Y-87047972D01*
X118016352Y-87383506D01*
G37*
%TD.AperFunction*%
%TD*%
D19*
%TO.N,+5V*%
X112879004Y-92404832D02*
X112894147Y-92444023D01*
X112894531Y-92444914D01*
X112914855Y-92487516D01*
X112915339Y-92488433D01*
X112938245Y-92527817D01*
X112938783Y-92528663D01*
X112964748Y-92566153D01*
X112965266Y-92566849D01*
X112994765Y-92603770D01*
X112995197Y-92604283D01*
X113028706Y-92641961D01*
X113029014Y-92642295D01*
X113067008Y-92682053D01*
X113067188Y-92682237D01*
X113110143Y-92725401D01*
X113110211Y-92725469D01*
X113158586Y-92773348D01*
X113203852Y-92818318D01*
X112868318Y-93153852D01*
X112823348Y-93108586D01*
X112775469Y-93060211D01*
X112775401Y-93060143D01*
X112732237Y-93017188D01*
X112732053Y-93017008D01*
X112692295Y-92979014D01*
X112691961Y-92978706D01*
X112654283Y-92945197D01*
X112653770Y-92944765D01*
X112616849Y-92915266D01*
X112616153Y-92914748D01*
X112578663Y-92888783D01*
X112577817Y-92888245D01*
X112538433Y-92865339D01*
X112537516Y-92864855D01*
X112494914Y-92844531D01*
X112494023Y-92844147D01*
X112454832Y-92829004D01*
X112446375Y-92396375D01*
X112879004Y-92404832D01*
%TA.AperFunction,Conductor*%
D18*
G36*
X112879004Y-92404832D02*
G01*
X112894147Y-92444023D01*
X112894531Y-92444914D01*
X112914855Y-92487516D01*
X112915339Y-92488433D01*
X112938245Y-92527817D01*
X112938783Y-92528663D01*
X112964748Y-92566153D01*
X112965266Y-92566849D01*
X112994765Y-92603770D01*
X112995197Y-92604283D01*
X113028706Y-92641961D01*
X113029014Y-92642295D01*
X113067008Y-92682053D01*
X113067188Y-92682237D01*
X113110143Y-92725401D01*
X113110211Y-92725469D01*
X113158586Y-92773348D01*
X113203852Y-92818318D01*
X112868318Y-93153852D01*
X112823348Y-93108586D01*
X112775469Y-93060211D01*
X112775401Y-93060143D01*
X112732237Y-93017188D01*
X112732053Y-93017008D01*
X112692295Y-92979014D01*
X112691961Y-92978706D01*
X112654283Y-92945197D01*
X112653770Y-92944765D01*
X112616849Y-92915266D01*
X112616153Y-92914748D01*
X112578663Y-92888783D01*
X112577817Y-92888245D01*
X112538433Y-92865339D01*
X112537516Y-92864855D01*
X112494914Y-92844531D01*
X112494023Y-92844147D01*
X112454832Y-92829004D01*
X112446375Y-92396375D01*
X112879004Y-92404832D01*
G37*
%TD.AperFunction*%
%TD*%
D19*
%TO.N,/TXD*%
X122115636Y-93309756D02*
X122116511Y-93310497D01*
X122246087Y-93410576D01*
X122247220Y-93411357D01*
X122367647Y-93485062D01*
X122368955Y-93485761D01*
X122484017Y-93538869D01*
X122485279Y-93539371D01*
X122598760Y-93577662D01*
X122599707Y-93577941D01*
X122715391Y-93607193D01*
X122715851Y-93607301D01*
X122837522Y-93633293D01*
X122837522Y-93633292D01*
X122968684Y-93661743D01*
X123113148Y-93698416D01*
X123266430Y-93746462D01*
X123287564Y-94827564D01*
X122206462Y-94806430D01*
X122158416Y-94653148D01*
X122121743Y-94508684D01*
X122093292Y-94377522D01*
X122093293Y-94377522D01*
X122067301Y-94255851D01*
X122067193Y-94255391D01*
X122037941Y-94139707D01*
X122037662Y-94138760D01*
X121999371Y-94025279D01*
X121998869Y-94024017D01*
X121945761Y-93908955D01*
X121945062Y-93907647D01*
X121871357Y-93787220D01*
X121870576Y-93786087D01*
X121770497Y-93656511D01*
X121769756Y-93655636D01*
X121645845Y-93522096D01*
X121982096Y-93185845D01*
X122115636Y-93309756D01*
%TA.AperFunction,Conductor*%
D18*
G36*
X122115636Y-93309756D02*
G01*
X122116511Y-93310497D01*
X122246087Y-93410576D01*
X122247220Y-93411357D01*
X122367647Y-93485062D01*
X122368955Y-93485761D01*
X122484017Y-93538869D01*
X122485279Y-93539371D01*
X122598760Y-93577662D01*
X122599707Y-93577941D01*
X122715391Y-93607193D01*
X122715851Y-93607301D01*
X122837522Y-93633293D01*
X122837522Y-93633292D01*
X122968684Y-93661743D01*
X123113148Y-93698416D01*
X123266430Y-93746462D01*
X123287564Y-94827564D01*
X122206462Y-94806430D01*
X122158416Y-94653148D01*
X122121743Y-94508684D01*
X122093292Y-94377522D01*
X122093293Y-94377522D01*
X122067301Y-94255851D01*
X122067193Y-94255391D01*
X122037941Y-94139707D01*
X122037662Y-94138760D01*
X121999371Y-94025279D01*
X121998869Y-94024017D01*
X121945761Y-93908955D01*
X121945062Y-93907647D01*
X121871357Y-93787220D01*
X121870576Y-93786087D01*
X121770497Y-93656511D01*
X121769756Y-93655636D01*
X121645845Y-93522096D01*
X121982096Y-93185845D01*
X122115636Y-93309756D01*
G37*
%TD.AperFunction*%
%TD*%
D19*
%TO.N,/RXD*%
X121820947Y-90968283D02*
X121980657Y-90983402D01*
X122117389Y-91005676D01*
X122237890Y-91032733D01*
X122349116Y-91062262D01*
X122457638Y-91091853D01*
X122457990Y-91091943D01*
X122570314Y-91119142D01*
X122571024Y-91119293D01*
X122693829Y-91141694D01*
X122694737Y-91141826D01*
X122834733Y-91157026D01*
X122835670Y-91157093D01*
X122990105Y-91162370D01*
X123283991Y-92287494D01*
X122206579Y-92266432D01*
X122172712Y-92153592D01*
X122144532Y-92033736D01*
X122119809Y-91917825D01*
X122119742Y-91917531D01*
X122093756Y-91808456D01*
X122093492Y-91807509D01*
X122061480Y-91708015D01*
X122060792Y-91706311D01*
X122017967Y-91619023D01*
X122016451Y-91616645D01*
X121958024Y-91544186D01*
X121955406Y-91541743D01*
X121876590Y-91486738D01*
X121873366Y-91485114D01*
X121769373Y-91450186D01*
X121766483Y-91449578D01*
X121644071Y-91438407D01*
X121644071Y-90963080D01*
X121820947Y-90968283D01*
%TA.AperFunction,Conductor*%
D18*
G36*
X121820947Y-90968283D02*
G01*
X121980657Y-90983402D01*
X122117389Y-91005676D01*
X122237890Y-91032733D01*
X122349116Y-91062262D01*
X122457638Y-91091853D01*
X122457990Y-91091943D01*
X122570314Y-91119142D01*
X122571024Y-91119293D01*
X122693829Y-91141694D01*
X122694737Y-91141826D01*
X122834733Y-91157026D01*
X122835670Y-91157093D01*
X122990105Y-91162370D01*
X123283991Y-92287494D01*
X122206579Y-92266432D01*
X122172712Y-92153592D01*
X122144532Y-92033736D01*
X122119809Y-91917825D01*
X122119742Y-91917531D01*
X122093756Y-91808456D01*
X122093492Y-91807509D01*
X122061480Y-91708015D01*
X122060792Y-91706311D01*
X122017967Y-91619023D01*
X122016451Y-91616645D01*
X121958024Y-91544186D01*
X121955406Y-91541743D01*
X121876590Y-91486738D01*
X121873366Y-91485114D01*
X121769373Y-91450186D01*
X121766483Y-91449578D01*
X121644071Y-91438407D01*
X121644071Y-90963080D01*
X121820947Y-90968283D01*
G37*
%TD.AperFunction*%
%TD*%
D19*
%TO.N,/RTS*%
X112206422Y-94033938D02*
X111877905Y-94315608D01*
X111840951Y-94296784D01*
X111839998Y-94296346D01*
X111796777Y-94278656D01*
X111795713Y-94278275D01*
X111752607Y-94264965D01*
X111751542Y-94264686D01*
X111707356Y-94255141D01*
X111706405Y-94254974D01*
X111659945Y-94248581D01*
X111659192Y-94248500D01*
X111609263Y-94244645D01*
X111608734Y-94244615D01*
X111554143Y-94242685D01*
X111553824Y-94242678D01*
X111493375Y-94242059D01*
X111493230Y-94242058D01*
X111425730Y-94242137D01*
X111425718Y-94242137D01*
X111362700Y-94242273D01*
X111362700Y-93767767D01*
X111430198Y-93768124D01*
X111501394Y-93768971D01*
X111501419Y-93768971D01*
X111565108Y-93769605D01*
X111565282Y-93769606D01*
X111622775Y-93769389D01*
X111623138Y-93769382D01*
X111675829Y-93767676D01*
X111676403Y-93767645D01*
X111725687Y-93763812D01*
X111726457Y-93763728D01*
X111773728Y-93757132D01*
X111774634Y-93756972D01*
X111821287Y-93746975D01*
X111822230Y-93746735D01*
X111869660Y-93732699D01*
X111870538Y-93732404D01*
X111912153Y-93716706D01*
X112206422Y-94033938D01*
%TA.AperFunction,Conductor*%
D18*
G36*
X112206422Y-94033938D02*
G01*
X111877905Y-94315608D01*
X111840951Y-94296784D01*
X111839998Y-94296346D01*
X111796777Y-94278656D01*
X111795713Y-94278275D01*
X111752607Y-94264965D01*
X111751542Y-94264686D01*
X111707356Y-94255141D01*
X111706405Y-94254974D01*
X111659945Y-94248581D01*
X111659192Y-94248500D01*
X111609263Y-94244645D01*
X111608734Y-94244615D01*
X111554143Y-94242685D01*
X111553824Y-94242678D01*
X111493375Y-94242059D01*
X111493230Y-94242058D01*
X111425730Y-94242137D01*
X111425718Y-94242137D01*
X111362700Y-94242273D01*
X111362700Y-93767767D01*
X111430198Y-93768124D01*
X111501394Y-93768971D01*
X111501419Y-93768971D01*
X111565108Y-93769605D01*
X111565282Y-93769606D01*
X111622775Y-93769389D01*
X111623138Y-93769382D01*
X111675829Y-93767676D01*
X111676403Y-93767645D01*
X111725687Y-93763812D01*
X111726457Y-93763728D01*
X111773728Y-93757132D01*
X111774634Y-93756972D01*
X111821287Y-93746975D01*
X111822230Y-93746735D01*
X111869660Y-93732699D01*
X111870538Y-93732404D01*
X111912153Y-93716706D01*
X112206422Y-94033938D01*
G37*
%TD.AperFunction*%
%TD*%
D19*
%TO.N,+5V*%
X115400059Y-93919088D02*
X115408418Y-93937906D01*
X115409237Y-93939453D01*
X115425882Y-93966238D01*
X115426605Y-93967282D01*
X115447996Y-93995071D01*
X115448553Y-93995745D01*
X115474431Y-94024961D01*
X115474819Y-94025379D01*
X115504927Y-94056442D01*
X115505165Y-94056682D01*
X115539243Y-94090016D01*
X115539361Y-94090129D01*
X115577151Y-94126155D01*
X115577172Y-94126175D01*
X115618360Y-94165263D01*
X115662797Y-94207939D01*
X115700937Y-94245486D01*
X115365486Y-94580937D01*
X115327929Y-94542786D01*
X115285263Y-94498360D01*
X115246175Y-94457172D01*
X115246155Y-94457151D01*
X115210129Y-94419361D01*
X115210016Y-94419243D01*
X115176682Y-94385165D01*
X115176442Y-94384927D01*
X115145379Y-94354819D01*
X115144961Y-94354431D01*
X115115745Y-94328553D01*
X115115071Y-94327996D01*
X115087282Y-94306605D01*
X115086238Y-94305882D01*
X115059453Y-94289237D01*
X115057906Y-94288418D01*
X115039088Y-94280059D01*
X115031890Y-93911890D01*
X115400059Y-93919088D01*
%TA.AperFunction,Conductor*%
D18*
G36*
X115400059Y-93919088D02*
G01*
X115408418Y-93937906D01*
X115409237Y-93939453D01*
X115425882Y-93966238D01*
X115426605Y-93967282D01*
X115447996Y-93995071D01*
X115448553Y-93995745D01*
X115474431Y-94024961D01*
X115474819Y-94025379D01*
X115504927Y-94056442D01*
X115505165Y-94056682D01*
X115539243Y-94090016D01*
X115539361Y-94090129D01*
X115577151Y-94126155D01*
X115577172Y-94126175D01*
X115618360Y-94165263D01*
X115662797Y-94207939D01*
X115700937Y-94245486D01*
X115365486Y-94580937D01*
X115327929Y-94542786D01*
X115285263Y-94498360D01*
X115246175Y-94457172D01*
X115246155Y-94457151D01*
X115210129Y-94419361D01*
X115210016Y-94419243D01*
X115176682Y-94385165D01*
X115176442Y-94384927D01*
X115145379Y-94354819D01*
X115144961Y-94354431D01*
X115115745Y-94328553D01*
X115115071Y-94327996D01*
X115087282Y-94306605D01*
X115086238Y-94305882D01*
X115059453Y-94289237D01*
X115057906Y-94288418D01*
X115039088Y-94280059D01*
X115031890Y-93911890D01*
X115400059Y-93919088D01*
G37*
%TD.AperFunction*%
%TD*%
D19*
%TO.N,+5V*%
X115863398Y-95234254D02*
X115863408Y-95234630D01*
X115866902Y-95320377D01*
X115866934Y-95320906D01*
X115873126Y-95395821D01*
X115873202Y-95396511D01*
X115882394Y-95463128D01*
X115882534Y-95463946D01*
X115895027Y-95524803D01*
X115895236Y-95525665D01*
X115911331Y-95583295D01*
X115911581Y-95584088D01*
X115931580Y-95641028D01*
X115931819Y-95641654D01*
X115956024Y-95700439D01*
X115956205Y-95700859D01*
X115984917Y-95764024D01*
X115985022Y-95764249D01*
X116014746Y-95826391D01*
X115625000Y-96231678D01*
X115235254Y-95826391D01*
X115264977Y-95764249D01*
X115265082Y-95764024D01*
X115293794Y-95700859D01*
X115293975Y-95700439D01*
X115318180Y-95641654D01*
X115318419Y-95641028D01*
X115338418Y-95584088D01*
X115338668Y-95583295D01*
X115354763Y-95525665D01*
X115354972Y-95524803D01*
X115367465Y-95463946D01*
X115367605Y-95463128D01*
X115376797Y-95396511D01*
X115376873Y-95395821D01*
X115383065Y-95320906D01*
X115383097Y-95320377D01*
X115386591Y-95234630D01*
X115386601Y-95234254D01*
X115387560Y-95147700D01*
X115862440Y-95147700D01*
X115863398Y-95234254D01*
%TA.AperFunction,Conductor*%
D18*
G36*
X115863398Y-95234254D02*
G01*
X115863408Y-95234630D01*
X115866902Y-95320377D01*
X115866934Y-95320906D01*
X115873126Y-95395821D01*
X115873202Y-95396511D01*
X115882394Y-95463128D01*
X115882534Y-95463946D01*
X115895027Y-95524803D01*
X115895236Y-95525665D01*
X115911331Y-95583295D01*
X115911581Y-95584088D01*
X115931580Y-95641028D01*
X115931819Y-95641654D01*
X115956024Y-95700439D01*
X115956205Y-95700859D01*
X115984917Y-95764024D01*
X115985022Y-95764249D01*
X116014746Y-95826391D01*
X115625000Y-96231678D01*
X115235254Y-95826391D01*
X115264977Y-95764249D01*
X115265082Y-95764024D01*
X115293794Y-95700859D01*
X115293975Y-95700439D01*
X115318180Y-95641654D01*
X115318419Y-95641028D01*
X115338418Y-95584088D01*
X115338668Y-95583295D01*
X115354763Y-95525665D01*
X115354972Y-95524803D01*
X115367465Y-95463946D01*
X115367605Y-95463128D01*
X115376797Y-95396511D01*
X115376873Y-95395821D01*
X115383065Y-95320906D01*
X115383097Y-95320377D01*
X115386591Y-95234630D01*
X115386601Y-95234254D01*
X115387560Y-95147700D01*
X115862440Y-95147700D01*
X115863398Y-95234254D01*
G37*
%TD.AperFunction*%
%TD*%
D19*
%TO.N,+5V*%
X115256678Y-94005000D02*
X114991255Y-94260245D01*
X114972036Y-94252849D01*
X114970362Y-94252335D01*
X114939652Y-94245165D01*
X114938404Y-94244938D01*
X114903628Y-94240413D01*
X114902757Y-94240330D01*
X114863800Y-94237971D01*
X114863230Y-94237950D01*
X114819975Y-94237274D01*
X114819637Y-94237273D01*
X114771969Y-94237800D01*
X114771806Y-94237803D01*
X114719610Y-94239050D01*
X114719581Y-94239050D01*
X114662741Y-94240537D01*
X114662741Y-94240538D01*
X114601360Y-94241778D01*
X114547700Y-94242199D01*
X114547700Y-93767800D01*
X114601360Y-93768221D01*
X114662741Y-93769461D01*
X114662741Y-93769462D01*
X114719581Y-93770949D01*
X114719610Y-93770949D01*
X114771806Y-93772196D01*
X114771969Y-93772199D01*
X114819637Y-93772726D01*
X114819975Y-93772725D01*
X114863230Y-93772049D01*
X114863800Y-93772028D01*
X114902757Y-93769669D01*
X114903628Y-93769586D01*
X114938404Y-93765061D01*
X114939652Y-93764834D01*
X114970362Y-93757664D01*
X114972036Y-93757150D01*
X114991255Y-93749755D01*
X115256678Y-94005000D01*
%TA.AperFunction,Conductor*%
D18*
G36*
X115256678Y-94005000D02*
G01*
X114991255Y-94260245D01*
X114972036Y-94252849D01*
X114970362Y-94252335D01*
X114939652Y-94245165D01*
X114938404Y-94244938D01*
X114903628Y-94240413D01*
X114902757Y-94240330D01*
X114863800Y-94237971D01*
X114863230Y-94237950D01*
X114819975Y-94237274D01*
X114819637Y-94237273D01*
X114771969Y-94237800D01*
X114771806Y-94237803D01*
X114719610Y-94239050D01*
X114719581Y-94239050D01*
X114662741Y-94240537D01*
X114662741Y-94240538D01*
X114601360Y-94241778D01*
X114547700Y-94242199D01*
X114547700Y-93767800D01*
X114601360Y-93768221D01*
X114662741Y-93769461D01*
X114662741Y-93769462D01*
X114719581Y-93770949D01*
X114719610Y-93770949D01*
X114771806Y-93772196D01*
X114771969Y-93772199D01*
X114819637Y-93772726D01*
X114819975Y-93772725D01*
X114863230Y-93772049D01*
X114863800Y-93772028D01*
X114902757Y-93769669D01*
X114903628Y-93769586D01*
X114938404Y-93765061D01*
X114939652Y-93764834D01*
X114970362Y-93757664D01*
X114972036Y-93757150D01*
X114991255Y-93749755D01*
X115256678Y-94005000D01*
G37*
%TD.AperFunction*%
%TD*%
D19*
%TO.N,+5V*%
X119906678Y-86525000D02*
X119548108Y-86869820D01*
X119497047Y-86846112D01*
X119496551Y-86845894D01*
X119442238Y-86823440D01*
X119441570Y-86823186D01*
X119389935Y-86805169D01*
X119389132Y-86804918D01*
X119338219Y-86790857D01*
X119337364Y-86790653D01*
X119285217Y-86780071D01*
X119284415Y-86779935D01*
X119229078Y-86772351D01*
X119228414Y-86772277D01*
X119167933Y-86767212D01*
X119167441Y-86767181D01*
X119099858Y-86764157D01*
X119099532Y-86764146D01*
X119022893Y-86762683D01*
X119022706Y-86762681D01*
X118947700Y-86762355D01*
X118947700Y-86287645D01*
X119022706Y-86287318D01*
X119022893Y-86287316D01*
X119099532Y-86285853D01*
X119099858Y-86285842D01*
X119167441Y-86282818D01*
X119167933Y-86282787D01*
X119228414Y-86277722D01*
X119229078Y-86277648D01*
X119284415Y-86270064D01*
X119285217Y-86269928D01*
X119337364Y-86259346D01*
X119338219Y-86259142D01*
X119389132Y-86245081D01*
X119389935Y-86244830D01*
X119441570Y-86226813D01*
X119442238Y-86226559D01*
X119496551Y-86204105D01*
X119497047Y-86203887D01*
X119548108Y-86180180D01*
X119906678Y-86525000D01*
%TA.AperFunction,Conductor*%
D18*
G36*
X119906678Y-86525000D02*
G01*
X119548108Y-86869820D01*
X119497047Y-86846112D01*
X119496551Y-86845894D01*
X119442238Y-86823440D01*
X119441570Y-86823186D01*
X119389935Y-86805169D01*
X119389132Y-86804918D01*
X119338219Y-86790857D01*
X119337364Y-86790653D01*
X119285217Y-86780071D01*
X119284415Y-86779935D01*
X119229078Y-86772351D01*
X119228414Y-86772277D01*
X119167933Y-86767212D01*
X119167441Y-86767181D01*
X119099858Y-86764157D01*
X119099532Y-86764146D01*
X119022893Y-86762683D01*
X119022706Y-86762681D01*
X118947700Y-86762355D01*
X118947700Y-86287645D01*
X119022706Y-86287318D01*
X119022893Y-86287316D01*
X119099532Y-86285853D01*
X119099858Y-86285842D01*
X119167441Y-86282818D01*
X119167933Y-86282787D01*
X119228414Y-86277722D01*
X119229078Y-86277648D01*
X119284415Y-86270064D01*
X119285217Y-86269928D01*
X119337364Y-86259346D01*
X119338219Y-86259142D01*
X119389132Y-86245081D01*
X119389935Y-86244830D01*
X119441570Y-86226813D01*
X119442238Y-86226559D01*
X119496551Y-86204105D01*
X119497047Y-86203887D01*
X119548108Y-86180180D01*
X119906678Y-86525000D01*
G37*
%TD.AperFunction*%
%TD*%
D19*
%TO.N,Net-(C2-Pad1)*%
X115700937Y-89954514D02*
X115662745Y-89992110D01*
X115618360Y-90034736D01*
X115577172Y-90073824D01*
X115577151Y-90073844D01*
X115539361Y-90109870D01*
X115539243Y-90109983D01*
X115505165Y-90143317D01*
X115504927Y-90143557D01*
X115474819Y-90174620D01*
X115474431Y-90175038D01*
X115448553Y-90204254D01*
X115447996Y-90204928D01*
X115426605Y-90232717D01*
X115425882Y-90233761D01*
X115409237Y-90260546D01*
X115408417Y-90262094D01*
X115400058Y-90280912D01*
X115031890Y-90288110D01*
X115039088Y-89919941D01*
X115057906Y-89911581D01*
X115059453Y-89910762D01*
X115086238Y-89894117D01*
X115087282Y-89893394D01*
X115115071Y-89872003D01*
X115115745Y-89871446D01*
X115144961Y-89845568D01*
X115145379Y-89845180D01*
X115176442Y-89815072D01*
X115176682Y-89814834D01*
X115210016Y-89780756D01*
X115210129Y-89780638D01*
X115246155Y-89742848D01*
X115246175Y-89742827D01*
X115285263Y-89701639D01*
X115327889Y-89657254D01*
X115365486Y-89619063D01*
X115700937Y-89954514D01*
%TA.AperFunction,Conductor*%
D18*
G36*
X115700937Y-89954514D02*
G01*
X115662745Y-89992110D01*
X115618360Y-90034736D01*
X115577172Y-90073824D01*
X115577151Y-90073844D01*
X115539361Y-90109870D01*
X115539243Y-90109983D01*
X115505165Y-90143317D01*
X115504927Y-90143557D01*
X115474819Y-90174620D01*
X115474431Y-90175038D01*
X115448553Y-90204254D01*
X115447996Y-90204928D01*
X115426605Y-90232717D01*
X115425882Y-90233761D01*
X115409237Y-90260546D01*
X115408417Y-90262094D01*
X115400058Y-90280912D01*
X115031890Y-90288110D01*
X115039088Y-89919941D01*
X115057906Y-89911581D01*
X115059453Y-89910762D01*
X115086238Y-89894117D01*
X115087282Y-89893394D01*
X115115071Y-89872003D01*
X115115745Y-89871446D01*
X115144961Y-89845568D01*
X115145379Y-89845180D01*
X115176442Y-89815072D01*
X115176682Y-89814834D01*
X115210016Y-89780756D01*
X115210129Y-89780638D01*
X115246155Y-89742848D01*
X115246175Y-89742827D01*
X115285263Y-89701639D01*
X115327889Y-89657254D01*
X115365486Y-89619063D01*
X115700937Y-89954514D01*
G37*
%TD.AperFunction*%
%TD*%
D19*
%TO.N,Net-(C2-Pad1)*%
X116114745Y-88373609D02*
X116085022Y-88435750D01*
X116084917Y-88435975D01*
X116056205Y-88499140D01*
X116056024Y-88499560D01*
X116031819Y-88558345D01*
X116031580Y-88558971D01*
X116011581Y-88615911D01*
X116011331Y-88616704D01*
X115995236Y-88674334D01*
X115995027Y-88675196D01*
X115982534Y-88736053D01*
X115982394Y-88736871D01*
X115973202Y-88803488D01*
X115973126Y-88804178D01*
X115966934Y-88879093D01*
X115966902Y-88879622D01*
X115963408Y-88965369D01*
X115963398Y-88965745D01*
X115962440Y-89052300D01*
X115487560Y-89052300D01*
X115486601Y-88965745D01*
X115486591Y-88965369D01*
X115483097Y-88879622D01*
X115483065Y-88879093D01*
X115476873Y-88804178D01*
X115476797Y-88803488D01*
X115467605Y-88736871D01*
X115467465Y-88736053D01*
X115454972Y-88675196D01*
X115454763Y-88674334D01*
X115438668Y-88616704D01*
X115438418Y-88615911D01*
X115418419Y-88558971D01*
X115418180Y-88558345D01*
X115393975Y-88499560D01*
X115393794Y-88499140D01*
X115365082Y-88435975D01*
X115364977Y-88435750D01*
X115335254Y-88373609D01*
X115725000Y-87968322D01*
X116114745Y-88373609D01*
%TA.AperFunction,Conductor*%
D18*
G36*
X116114745Y-88373609D02*
G01*
X116085022Y-88435750D01*
X116084917Y-88435975D01*
X116056205Y-88499140D01*
X116056024Y-88499560D01*
X116031819Y-88558345D01*
X116031580Y-88558971D01*
X116011581Y-88615911D01*
X116011331Y-88616704D01*
X115995236Y-88674334D01*
X115995027Y-88675196D01*
X115982534Y-88736053D01*
X115982394Y-88736871D01*
X115973202Y-88803488D01*
X115973126Y-88804178D01*
X115966934Y-88879093D01*
X115966902Y-88879622D01*
X115963408Y-88965369D01*
X115963398Y-88965745D01*
X115962440Y-89052300D01*
X115487560Y-89052300D01*
X115486601Y-88965745D01*
X115486591Y-88965369D01*
X115483097Y-88879622D01*
X115483065Y-88879093D01*
X115476873Y-88804178D01*
X115476797Y-88803488D01*
X115467605Y-88736871D01*
X115467465Y-88736053D01*
X115454972Y-88675196D01*
X115454763Y-88674334D01*
X115438668Y-88616704D01*
X115438418Y-88615911D01*
X115418419Y-88558971D01*
X115418180Y-88558345D01*
X115393975Y-88499560D01*
X115393794Y-88499140D01*
X115365082Y-88435975D01*
X115364977Y-88435750D01*
X115335254Y-88373609D01*
X115725000Y-87968322D01*
X116114745Y-88373609D01*
G37*
%TD.AperFunction*%
%TD*%
D19*
%TO.N,Net-(D1-Pad2)*%
X120078513Y-94505679D02*
X120050160Y-94565366D01*
X120050027Y-94565655D01*
X120022802Y-94626879D01*
X120022600Y-94627359D01*
X119999910Y-94684593D01*
X119999665Y-94685265D01*
X119981155Y-94740913D01*
X119980915Y-94741724D01*
X119966230Y-94798187D01*
X119966040Y-94799038D01*
X119954823Y-94858717D01*
X119954701Y-94859499D01*
X119946596Y-94924799D01*
X119946533Y-94925439D01*
X119941185Y-94998760D01*
X119941159Y-94999237D01*
X119938211Y-95082982D01*
X119938204Y-95083310D01*
X119937419Y-95167300D01*
X119462581Y-95167300D01*
X119461795Y-95083310D01*
X119461788Y-95082982D01*
X119458840Y-94999237D01*
X119458814Y-94998760D01*
X119453466Y-94925439D01*
X119453403Y-94924799D01*
X119445298Y-94859499D01*
X119445176Y-94858717D01*
X119433959Y-94799038D01*
X119433769Y-94798187D01*
X119419084Y-94741724D01*
X119418844Y-94740913D01*
X119400334Y-94685265D01*
X119400089Y-94684593D01*
X119377399Y-94627359D01*
X119377197Y-94626879D01*
X119349972Y-94565655D01*
X119349840Y-94565366D01*
X119321487Y-94505678D01*
X119700000Y-94112072D01*
X120078513Y-94505679D01*
%TA.AperFunction,Conductor*%
D18*
G36*
X120078513Y-94505679D02*
G01*
X120050160Y-94565366D01*
X120050027Y-94565655D01*
X120022802Y-94626879D01*
X120022600Y-94627359D01*
X119999910Y-94684593D01*
X119999665Y-94685265D01*
X119981155Y-94740913D01*
X119980915Y-94741724D01*
X119966230Y-94798187D01*
X119966040Y-94799038D01*
X119954823Y-94858717D01*
X119954701Y-94859499D01*
X119946596Y-94924799D01*
X119946533Y-94925439D01*
X119941185Y-94998760D01*
X119941159Y-94999237D01*
X119938211Y-95082982D01*
X119938204Y-95083310D01*
X119937419Y-95167300D01*
X119462581Y-95167300D01*
X119461795Y-95083310D01*
X119461788Y-95082982D01*
X119458840Y-94999237D01*
X119458814Y-94998760D01*
X119453466Y-94925439D01*
X119453403Y-94924799D01*
X119445298Y-94859499D01*
X119445176Y-94858717D01*
X119433959Y-94799038D01*
X119433769Y-94798187D01*
X119419084Y-94741724D01*
X119418844Y-94740913D01*
X119400334Y-94685265D01*
X119400089Y-94684593D01*
X119377399Y-94627359D01*
X119377197Y-94626879D01*
X119349972Y-94565655D01*
X119349840Y-94565366D01*
X119321487Y-94505678D01*
X119700000Y-94112072D01*
X120078513Y-94505679D01*
G37*
%TD.AperFunction*%
%TD*%
D19*
%TO.N,Net-(D1-Pad2)*%
X119937681Y-95097706D02*
X119937683Y-95097893D01*
X119939146Y-95174532D01*
X119939157Y-95174858D01*
X119942181Y-95242441D01*
X119942212Y-95242933D01*
X119947277Y-95303414D01*
X119947351Y-95304078D01*
X119954935Y-95359415D01*
X119955071Y-95360217D01*
X119965653Y-95412364D01*
X119965857Y-95413219D01*
X119979918Y-95464132D01*
X119980169Y-95464935D01*
X119998186Y-95516570D01*
X119998440Y-95517238D01*
X120020894Y-95571551D01*
X120021112Y-95572047D01*
X120044820Y-95623108D01*
X119700000Y-95981678D01*
X119355180Y-95623108D01*
X119378887Y-95572047D01*
X119379105Y-95571551D01*
X119401559Y-95517238D01*
X119401813Y-95516570D01*
X119419830Y-95464935D01*
X119420081Y-95464132D01*
X119434142Y-95413219D01*
X119434346Y-95412364D01*
X119444928Y-95360217D01*
X119445064Y-95359415D01*
X119452648Y-95304078D01*
X119452722Y-95303414D01*
X119457787Y-95242933D01*
X119457818Y-95242441D01*
X119460842Y-95174858D01*
X119460853Y-95174532D01*
X119462316Y-95097893D01*
X119462318Y-95097706D01*
X119462645Y-95022700D01*
X119937355Y-95022700D01*
X119937681Y-95097706D01*
%TA.AperFunction,Conductor*%
D18*
G36*
X119937681Y-95097706D02*
G01*
X119937683Y-95097893D01*
X119939146Y-95174532D01*
X119939157Y-95174858D01*
X119942181Y-95242441D01*
X119942212Y-95242933D01*
X119947277Y-95303414D01*
X119947351Y-95304078D01*
X119954935Y-95359415D01*
X119955071Y-95360217D01*
X119965653Y-95412364D01*
X119965857Y-95413219D01*
X119979918Y-95464132D01*
X119980169Y-95464935D01*
X119998186Y-95516570D01*
X119998440Y-95517238D01*
X120020894Y-95571551D01*
X120021112Y-95572047D01*
X120044820Y-95623108D01*
X119700000Y-95981678D01*
X119355180Y-95623108D01*
X119378887Y-95572047D01*
X119379105Y-95571551D01*
X119401559Y-95517238D01*
X119401813Y-95516570D01*
X119419830Y-95464935D01*
X119420081Y-95464132D01*
X119434142Y-95413219D01*
X119434346Y-95412364D01*
X119444928Y-95360217D01*
X119445064Y-95359415D01*
X119452648Y-95304078D01*
X119452722Y-95303414D01*
X119457787Y-95242933D01*
X119457818Y-95242441D01*
X119460842Y-95174858D01*
X119460853Y-95174532D01*
X119462316Y-95097893D01*
X119462318Y-95097706D01*
X119462645Y-95022700D01*
X119937355Y-95022700D01*
X119937681Y-95097706D01*
G37*
%TD.AperFunction*%
%TD*%
D19*
%TO.N,/TXD*%
X119900424Y-92738658D02*
X119504634Y-93114892D01*
X119445044Y-93086186D01*
X119444747Y-93086048D01*
X119383593Y-93058509D01*
X119383103Y-93058301D01*
X119325896Y-93035372D01*
X119325213Y-93035120D01*
X119269555Y-93016435D01*
X119268733Y-93016190D01*
X119212231Y-93001382D01*
X119211370Y-93001188D01*
X119151628Y-92989893D01*
X119150840Y-92989770D01*
X119085463Y-92981621D01*
X119084818Y-92981557D01*
X119011411Y-92976189D01*
X119010932Y-92976163D01*
X118927099Y-92973210D01*
X118926771Y-92973203D01*
X118842700Y-92972418D01*
X118842700Y-92497585D01*
X118927293Y-92496817D01*
X118927613Y-92496811D01*
X119011880Y-92493924D01*
X119012347Y-92493899D01*
X119086125Y-92488647D01*
X119086754Y-92488586D01*
X119152468Y-92480607D01*
X119153238Y-92480490D01*
X119213310Y-92469424D01*
X119214151Y-92469239D01*
X119271006Y-92454724D01*
X119271810Y-92454491D01*
X119327871Y-92436167D01*
X119328539Y-92435927D01*
X119386229Y-92413432D01*
X119386708Y-92413234D01*
X119448451Y-92386207D01*
X119448740Y-92386076D01*
X119509012Y-92357877D01*
X119900424Y-92738658D01*
%TA.AperFunction,Conductor*%
D18*
G36*
X119900424Y-92738658D02*
G01*
X119504634Y-93114892D01*
X119445044Y-93086186D01*
X119444747Y-93086048D01*
X119383593Y-93058509D01*
X119383103Y-93058301D01*
X119325896Y-93035372D01*
X119325213Y-93035120D01*
X119269555Y-93016435D01*
X119268733Y-93016190D01*
X119212231Y-93001382D01*
X119211370Y-93001188D01*
X119151628Y-92989893D01*
X119150840Y-92989770D01*
X119085463Y-92981621D01*
X119084818Y-92981557D01*
X119011411Y-92976189D01*
X119010932Y-92976163D01*
X118927099Y-92973210D01*
X118926771Y-92973203D01*
X118842700Y-92972418D01*
X118842700Y-92497585D01*
X118927293Y-92496817D01*
X118927613Y-92496811D01*
X119011880Y-92493924D01*
X119012347Y-92493899D01*
X119086125Y-92488647D01*
X119086754Y-92488586D01*
X119152468Y-92480607D01*
X119153238Y-92480490D01*
X119213310Y-92469424D01*
X119214151Y-92469239D01*
X119271006Y-92454724D01*
X119271810Y-92454491D01*
X119327871Y-92436167D01*
X119328539Y-92435927D01*
X119386229Y-92413432D01*
X119386708Y-92413234D01*
X119448451Y-92386207D01*
X119448740Y-92386076D01*
X119509012Y-92357877D01*
X119900424Y-92738658D01*
G37*
%TD.AperFunction*%
%TD*%
D19*
%TO.N,/TXD*%
X115277963Y-92487150D02*
X115279637Y-92487664D01*
X115310347Y-92494834D01*
X115311595Y-92495061D01*
X115346371Y-92499586D01*
X115347242Y-92499669D01*
X115386199Y-92502028D01*
X115386769Y-92502049D01*
X115430024Y-92502725D01*
X115430362Y-92502726D01*
X115478030Y-92502199D01*
X115478193Y-92502196D01*
X115530389Y-92500949D01*
X115530418Y-92500949D01*
X115587258Y-92499462D01*
X115587258Y-92499461D01*
X115648639Y-92498221D01*
X115702300Y-92497800D01*
X115702300Y-92972199D01*
X115648639Y-92971778D01*
X115587258Y-92970538D01*
X115587258Y-92970537D01*
X115530418Y-92969050D01*
X115530389Y-92969050D01*
X115478193Y-92967803D01*
X115478030Y-92967800D01*
X115430362Y-92967273D01*
X115430024Y-92967274D01*
X115386769Y-92967950D01*
X115386199Y-92967971D01*
X115347242Y-92970330D01*
X115346371Y-92970413D01*
X115311595Y-92974938D01*
X115310347Y-92975165D01*
X115279637Y-92982335D01*
X115277962Y-92982849D01*
X115258745Y-92990245D01*
X114993322Y-92735000D01*
X115258745Y-92479755D01*
X115277963Y-92487150D01*
%TA.AperFunction,Conductor*%
D18*
G36*
X115277963Y-92487150D02*
G01*
X115279637Y-92487664D01*
X115310347Y-92494834D01*
X115311595Y-92495061D01*
X115346371Y-92499586D01*
X115347242Y-92499669D01*
X115386199Y-92502028D01*
X115386769Y-92502049D01*
X115430024Y-92502725D01*
X115430362Y-92502726D01*
X115478030Y-92502199D01*
X115478193Y-92502196D01*
X115530389Y-92500949D01*
X115530418Y-92500949D01*
X115587258Y-92499462D01*
X115587258Y-92499461D01*
X115648639Y-92498221D01*
X115702300Y-92497800D01*
X115702300Y-92972199D01*
X115648639Y-92971778D01*
X115587258Y-92970538D01*
X115587258Y-92970537D01*
X115530418Y-92969050D01*
X115530389Y-92969050D01*
X115478193Y-92967803D01*
X115478030Y-92967800D01*
X115430362Y-92967273D01*
X115430024Y-92967274D01*
X115386769Y-92967950D01*
X115386199Y-92967971D01*
X115347242Y-92970330D01*
X115346371Y-92970413D01*
X115311595Y-92974938D01*
X115310347Y-92975165D01*
X115279637Y-92982335D01*
X115277962Y-92982849D01*
X115258745Y-92990245D01*
X114993322Y-92735000D01*
X115258745Y-92479755D01*
X115277963Y-92487150D01*
G37*
%TD.AperFunction*%
%TD*%
D19*
%TO.N,/TXD*%
X119952866Y-92387340D02*
X119953155Y-92387472D01*
X120014379Y-92414697D01*
X120014859Y-92414899D01*
X120072093Y-92437589D01*
X120072765Y-92437834D01*
X120128413Y-92456344D01*
X120129224Y-92456584D01*
X120185687Y-92471269D01*
X120186538Y-92471459D01*
X120246217Y-92482676D01*
X120246999Y-92482798D01*
X120312299Y-92490903D01*
X120312939Y-92490966D01*
X120386260Y-92496314D01*
X120386737Y-92496340D01*
X120470482Y-92499288D01*
X120470810Y-92499295D01*
X120554800Y-92500081D01*
X120554800Y-92974919D01*
X120470810Y-92975704D01*
X120470482Y-92975711D01*
X120386737Y-92978659D01*
X120386260Y-92978685D01*
X120312939Y-92984033D01*
X120312299Y-92984096D01*
X120246999Y-92992201D01*
X120246217Y-92992323D01*
X120186538Y-93003540D01*
X120185687Y-93003730D01*
X120129224Y-93018415D01*
X120128413Y-93018655D01*
X120072765Y-93037165D01*
X120072093Y-93037410D01*
X120014859Y-93060100D01*
X120014379Y-93060302D01*
X119953155Y-93087527D01*
X119952866Y-93087660D01*
X119893179Y-93116013D01*
X119499572Y-92737500D01*
X119893178Y-92358987D01*
X119952866Y-92387340D01*
%TA.AperFunction,Conductor*%
D18*
G36*
X119952866Y-92387340D02*
G01*
X119953155Y-92387472D01*
X120014379Y-92414697D01*
X120014859Y-92414899D01*
X120072093Y-92437589D01*
X120072765Y-92437834D01*
X120128413Y-92456344D01*
X120129224Y-92456584D01*
X120185687Y-92471269D01*
X120186538Y-92471459D01*
X120246217Y-92482676D01*
X120246999Y-92482798D01*
X120312299Y-92490903D01*
X120312939Y-92490966D01*
X120386260Y-92496314D01*
X120386737Y-92496340D01*
X120470482Y-92499288D01*
X120470810Y-92499295D01*
X120554800Y-92500081D01*
X120554800Y-92974919D01*
X120470810Y-92975704D01*
X120470482Y-92975711D01*
X120386737Y-92978659D01*
X120386260Y-92978685D01*
X120312939Y-92984033D01*
X120312299Y-92984096D01*
X120246999Y-92992201D01*
X120246217Y-92992323D01*
X120186538Y-93003540D01*
X120185687Y-93003730D01*
X120129224Y-93018415D01*
X120128413Y-93018655D01*
X120072765Y-93037165D01*
X120072093Y-93037410D01*
X120014859Y-93060100D01*
X120014379Y-93060302D01*
X119953155Y-93087527D01*
X119952866Y-93087660D01*
X119893179Y-93116013D01*
X119499572Y-92737500D01*
X119893178Y-92358987D01*
X119952866Y-92387340D01*
G37*
%TD.AperFunction*%
%TD*%
D19*
%TO.N,Net-(D2-Pad2)*%
X119938204Y-88854189D02*
X119938211Y-88854517D01*
X119941159Y-88938262D01*
X119941185Y-88938739D01*
X119946533Y-89012060D01*
X119946596Y-89012700D01*
X119954701Y-89078000D01*
X119954823Y-89078782D01*
X119966040Y-89138461D01*
X119966230Y-89139312D01*
X119980915Y-89195775D01*
X119981155Y-89196586D01*
X119999665Y-89252234D01*
X119999910Y-89252906D01*
X120022600Y-89310140D01*
X120022802Y-89310620D01*
X120050027Y-89371844D01*
X120050159Y-89372133D01*
X120078513Y-89431822D01*
X119700000Y-89825428D01*
X119321487Y-89431822D01*
X119349840Y-89372133D01*
X119349972Y-89371844D01*
X119377197Y-89310620D01*
X119377399Y-89310140D01*
X119400089Y-89252906D01*
X119400334Y-89252234D01*
X119418844Y-89196586D01*
X119419084Y-89195775D01*
X119433769Y-89139312D01*
X119433959Y-89138461D01*
X119445176Y-89078782D01*
X119445298Y-89078000D01*
X119453403Y-89012700D01*
X119453466Y-89012060D01*
X119458814Y-88938739D01*
X119458840Y-88938262D01*
X119461788Y-88854517D01*
X119461795Y-88854189D01*
X119462581Y-88770200D01*
X119937419Y-88770200D01*
X119938204Y-88854189D01*
%TA.AperFunction,Conductor*%
D18*
G36*
X119938204Y-88854189D02*
G01*
X119938211Y-88854517D01*
X119941159Y-88938262D01*
X119941185Y-88938739D01*
X119946533Y-89012060D01*
X119946596Y-89012700D01*
X119954701Y-89078000D01*
X119954823Y-89078782D01*
X119966040Y-89138461D01*
X119966230Y-89139312D01*
X119980915Y-89195775D01*
X119981155Y-89196586D01*
X119999665Y-89252234D01*
X119999910Y-89252906D01*
X120022600Y-89310140D01*
X120022802Y-89310620D01*
X120050027Y-89371844D01*
X120050159Y-89372133D01*
X120078513Y-89431822D01*
X119700000Y-89825428D01*
X119321487Y-89431822D01*
X119349840Y-89372133D01*
X119349972Y-89371844D01*
X119377197Y-89310620D01*
X119377399Y-89310140D01*
X119400089Y-89252906D01*
X119400334Y-89252234D01*
X119418844Y-89196586D01*
X119419084Y-89195775D01*
X119433769Y-89139312D01*
X119433959Y-89138461D01*
X119445176Y-89078782D01*
X119445298Y-89078000D01*
X119453403Y-89012700D01*
X119453466Y-89012060D01*
X119458814Y-88938739D01*
X119458840Y-88938262D01*
X119461788Y-88854517D01*
X119461795Y-88854189D01*
X119462581Y-88770200D01*
X119937419Y-88770200D01*
X119938204Y-88854189D01*
G37*
%TD.AperFunction*%
%TD*%
D19*
%TO.N,Net-(D2-Pad2)*%
X120058282Y-88372820D02*
X120031779Y-88422080D01*
X120031496Y-88422638D01*
X120006351Y-88475462D01*
X120006023Y-88476212D01*
X119985814Y-88526825D01*
X119985494Y-88527725D01*
X119969694Y-88577985D01*
X119969433Y-88578944D01*
X119957512Y-88630709D01*
X119957339Y-88631609D01*
X119948771Y-88686738D01*
X119948677Y-88687484D01*
X119942932Y-88747834D01*
X119942892Y-88748389D01*
X119939442Y-88815819D01*
X119939428Y-88816188D01*
X119937746Y-88892555D01*
X119937743Y-88892770D01*
X119937364Y-88967300D01*
X119462675Y-88967300D01*
X119462518Y-88887537D01*
X119462517Y-88887423D01*
X119461632Y-88806699D01*
X119461627Y-88806463D01*
X119459525Y-88735321D01*
X119459508Y-88734933D01*
X119455675Y-88671240D01*
X119455630Y-88670688D01*
X119449554Y-88612311D01*
X119449462Y-88611619D01*
X119440630Y-88556426D01*
X119440484Y-88555663D01*
X119428383Y-88501521D01*
X119428194Y-88500781D01*
X119412311Y-88445557D01*
X119412111Y-88444922D01*
X119391933Y-88386483D01*
X119391753Y-88385996D01*
X119369939Y-88330309D01*
X119736193Y-87993667D01*
X120058282Y-88372820D01*
%TA.AperFunction,Conductor*%
D18*
G36*
X120058282Y-88372820D02*
G01*
X120031779Y-88422080D01*
X120031496Y-88422638D01*
X120006351Y-88475462D01*
X120006023Y-88476212D01*
X119985814Y-88526825D01*
X119985494Y-88527725D01*
X119969694Y-88577985D01*
X119969433Y-88578944D01*
X119957512Y-88630709D01*
X119957339Y-88631609D01*
X119948771Y-88686738D01*
X119948677Y-88687484D01*
X119942932Y-88747834D01*
X119942892Y-88748389D01*
X119939442Y-88815819D01*
X119939428Y-88816188D01*
X119937746Y-88892555D01*
X119937743Y-88892770D01*
X119937364Y-88967300D01*
X119462675Y-88967300D01*
X119462518Y-88887537D01*
X119462517Y-88887423D01*
X119461632Y-88806699D01*
X119461627Y-88806463D01*
X119459525Y-88735321D01*
X119459508Y-88734933D01*
X119455675Y-88671240D01*
X119455630Y-88670688D01*
X119449554Y-88612311D01*
X119449462Y-88611619D01*
X119440630Y-88556426D01*
X119440484Y-88555663D01*
X119428383Y-88501521D01*
X119428194Y-88500781D01*
X119412311Y-88445557D01*
X119412111Y-88444922D01*
X119391933Y-88386483D01*
X119391753Y-88385996D01*
X119369939Y-88330309D01*
X119736193Y-87993667D01*
X120058282Y-88372820D01*
G37*
%TD.AperFunction*%
%TD*%
D19*
%TO.N,/RXD*%
X119858698Y-91079867D02*
X119690554Y-91625035D01*
X119614064Y-91626974D01*
X119613402Y-91627008D01*
X119537604Y-91632898D01*
X119537006Y-91632959D01*
X119467875Y-91641639D01*
X119467443Y-91641701D01*
X119401826Y-91652241D01*
X119401641Y-91652272D01*
X119336411Y-91663738D01*
X119268605Y-91675169D01*
X119195009Y-91685653D01*
X119112459Y-91694280D01*
X119017686Y-91700137D01*
X118920200Y-91702048D01*
X118920200Y-91227343D01*
X118972695Y-91225846D01*
X118973584Y-91225789D01*
X119031037Y-91220102D01*
X119032176Y-91219937D01*
X119082980Y-91210202D01*
X119084370Y-91209854D01*
X119129259Y-91195861D01*
X119130834Y-91195252D01*
X119170540Y-91176788D01*
X119172154Y-91175889D01*
X119207412Y-91152746D01*
X119208880Y-91151621D01*
X119240421Y-91123587D01*
X119241604Y-91122386D01*
X119270163Y-91089251D01*
X119271024Y-91088132D01*
X119297332Y-91049685D01*
X119297914Y-91048751D01*
X119318520Y-91012205D01*
X119858698Y-91079867D01*
%TA.AperFunction,Conductor*%
D18*
G36*
X119858698Y-91079867D02*
G01*
X119690554Y-91625035D01*
X119614064Y-91626974D01*
X119613402Y-91627008D01*
X119537604Y-91632898D01*
X119537006Y-91632959D01*
X119467875Y-91641639D01*
X119467443Y-91641701D01*
X119401826Y-91652241D01*
X119401641Y-91652272D01*
X119336411Y-91663738D01*
X119268605Y-91675169D01*
X119195009Y-91685653D01*
X119112459Y-91694280D01*
X119017686Y-91700137D01*
X118920200Y-91702048D01*
X118920200Y-91227343D01*
X118972695Y-91225846D01*
X118973584Y-91225789D01*
X119031037Y-91220102D01*
X119032176Y-91219937D01*
X119082980Y-91210202D01*
X119084370Y-91209854D01*
X119129259Y-91195861D01*
X119130834Y-91195252D01*
X119170540Y-91176788D01*
X119172154Y-91175889D01*
X119207412Y-91152746D01*
X119208880Y-91151621D01*
X119240421Y-91123587D01*
X119241604Y-91122386D01*
X119270163Y-91089251D01*
X119271024Y-91088132D01*
X119297332Y-91049685D01*
X119297914Y-91048751D01*
X119318520Y-91012205D01*
X119858698Y-91079867D01*
G37*
%TD.AperFunction*%
%TD*%
D19*
%TO.N,/RXD*%
X115277963Y-91217150D02*
X115279637Y-91217664D01*
X115310347Y-91224834D01*
X115311595Y-91225061D01*
X115346371Y-91229586D01*
X115347242Y-91229669D01*
X115386199Y-91232028D01*
X115386769Y-91232049D01*
X115430024Y-91232725D01*
X115430362Y-91232726D01*
X115478030Y-91232199D01*
X115478193Y-91232196D01*
X115530389Y-91230949D01*
X115530418Y-91230949D01*
X115587258Y-91229462D01*
X115587258Y-91229461D01*
X115648639Y-91228221D01*
X115702300Y-91227800D01*
X115702300Y-91702199D01*
X115648639Y-91701778D01*
X115587258Y-91700538D01*
X115587258Y-91700537D01*
X115530418Y-91699050D01*
X115530389Y-91699050D01*
X115478193Y-91697803D01*
X115478030Y-91697800D01*
X115430362Y-91697273D01*
X115430024Y-91697274D01*
X115386769Y-91697950D01*
X115386199Y-91697971D01*
X115347242Y-91700330D01*
X115346371Y-91700413D01*
X115311595Y-91704938D01*
X115310347Y-91705165D01*
X115279637Y-91712335D01*
X115277962Y-91712849D01*
X115258745Y-91720245D01*
X114993322Y-91465000D01*
X115258745Y-91209755D01*
X115277963Y-91217150D01*
%TA.AperFunction,Conductor*%
D18*
G36*
X115277963Y-91217150D02*
G01*
X115279637Y-91217664D01*
X115310347Y-91224834D01*
X115311595Y-91225061D01*
X115346371Y-91229586D01*
X115347242Y-91229669D01*
X115386199Y-91232028D01*
X115386769Y-91232049D01*
X115430024Y-91232725D01*
X115430362Y-91232726D01*
X115478030Y-91232199D01*
X115478193Y-91232196D01*
X115530389Y-91230949D01*
X115530418Y-91230949D01*
X115587258Y-91229462D01*
X115587258Y-91229461D01*
X115648639Y-91228221D01*
X115702300Y-91227800D01*
X115702300Y-91702199D01*
X115648639Y-91701778D01*
X115587258Y-91700538D01*
X115587258Y-91700537D01*
X115530418Y-91699050D01*
X115530389Y-91699050D01*
X115478193Y-91697803D01*
X115478030Y-91697800D01*
X115430362Y-91697273D01*
X115430024Y-91697274D01*
X115386769Y-91697950D01*
X115386199Y-91697971D01*
X115347242Y-91700330D01*
X115346371Y-91700413D01*
X115311595Y-91704938D01*
X115310347Y-91705165D01*
X115279637Y-91712335D01*
X115277962Y-91712849D01*
X115258745Y-91720245D01*
X114993322Y-91465000D01*
X115258745Y-91209755D01*
X115277963Y-91217150D01*
G37*
%TD.AperFunction*%
%TD*%
D19*
%TO.N,/RXD*%
X119952866Y-90849840D02*
X119953155Y-90849972D01*
X120014379Y-90877197D01*
X120014859Y-90877399D01*
X120072093Y-90900089D01*
X120072765Y-90900334D01*
X120128413Y-90918844D01*
X120129224Y-90919084D01*
X120185687Y-90933769D01*
X120186538Y-90933959D01*
X120246217Y-90945176D01*
X120246999Y-90945298D01*
X120312299Y-90953403D01*
X120312939Y-90953466D01*
X120386260Y-90958814D01*
X120386737Y-90958840D01*
X120470482Y-90961788D01*
X120470810Y-90961795D01*
X120554800Y-90962581D01*
X120554800Y-91437419D01*
X120470810Y-91438204D01*
X120470482Y-91438211D01*
X120386737Y-91441159D01*
X120386260Y-91441185D01*
X120312939Y-91446533D01*
X120312299Y-91446596D01*
X120246999Y-91454701D01*
X120246217Y-91454823D01*
X120186538Y-91466040D01*
X120185687Y-91466230D01*
X120129224Y-91480915D01*
X120128413Y-91481155D01*
X120072765Y-91499665D01*
X120072093Y-91499910D01*
X120014859Y-91522600D01*
X120014379Y-91522802D01*
X119953155Y-91550027D01*
X119952866Y-91550160D01*
X119893179Y-91578513D01*
X119499572Y-91200000D01*
X119893178Y-90821487D01*
X119952866Y-90849840D01*
%TA.AperFunction,Conductor*%
D18*
G36*
X119952866Y-90849840D02*
G01*
X119953155Y-90849972D01*
X120014379Y-90877197D01*
X120014859Y-90877399D01*
X120072093Y-90900089D01*
X120072765Y-90900334D01*
X120128413Y-90918844D01*
X120129224Y-90919084D01*
X120185687Y-90933769D01*
X120186538Y-90933959D01*
X120246217Y-90945176D01*
X120246999Y-90945298D01*
X120312299Y-90953403D01*
X120312939Y-90953466D01*
X120386260Y-90958814D01*
X120386737Y-90958840D01*
X120470482Y-90961788D01*
X120470810Y-90961795D01*
X120554800Y-90962581D01*
X120554800Y-91437419D01*
X120470810Y-91438204D01*
X120470482Y-91438211D01*
X120386737Y-91441159D01*
X120386260Y-91441185D01*
X120312939Y-91446533D01*
X120312299Y-91446596D01*
X120246999Y-91454701D01*
X120246217Y-91454823D01*
X120186538Y-91466040D01*
X120185687Y-91466230D01*
X120129224Y-91480915D01*
X120128413Y-91481155D01*
X120072765Y-91499665D01*
X120072093Y-91499910D01*
X120014859Y-91522600D01*
X120014379Y-91522802D01*
X119953155Y-91550027D01*
X119952866Y-91550160D01*
X119893179Y-91578513D01*
X119499572Y-91200000D01*
X119893178Y-90821487D01*
X119952866Y-90849840D01*
G37*
%TD.AperFunction*%
%TD*%
D19*
%TO.N,/RTS*%
X110327963Y-93757150D02*
X110329637Y-93757664D01*
X110360347Y-93764834D01*
X110361595Y-93765061D01*
X110396371Y-93769586D01*
X110397242Y-93769669D01*
X110436199Y-93772028D01*
X110436769Y-93772049D01*
X110480024Y-93772725D01*
X110480362Y-93772726D01*
X110528030Y-93772199D01*
X110528193Y-93772196D01*
X110580389Y-93770949D01*
X110580418Y-93770949D01*
X110637258Y-93769462D01*
X110637258Y-93769461D01*
X110698639Y-93768221D01*
X110752300Y-93767800D01*
X110752300Y-94242199D01*
X110698639Y-94241778D01*
X110637258Y-94240538D01*
X110637258Y-94240537D01*
X110580418Y-94239050D01*
X110580389Y-94239050D01*
X110528193Y-94237803D01*
X110528030Y-94237800D01*
X110480362Y-94237273D01*
X110480024Y-94237274D01*
X110436769Y-94237950D01*
X110436199Y-94237971D01*
X110397242Y-94240330D01*
X110396371Y-94240413D01*
X110361595Y-94244938D01*
X110360347Y-94245165D01*
X110329637Y-94252335D01*
X110327962Y-94252849D01*
X110308745Y-94260245D01*
X110043322Y-94005000D01*
X110308745Y-93749755D01*
X110327963Y-93757150D01*
%TA.AperFunction,Conductor*%
D18*
G36*
X110327963Y-93757150D02*
G01*
X110329637Y-93757664D01*
X110360347Y-93764834D01*
X110361595Y-93765061D01*
X110396371Y-93769586D01*
X110397242Y-93769669D01*
X110436199Y-93772028D01*
X110436769Y-93772049D01*
X110480024Y-93772725D01*
X110480362Y-93772726D01*
X110528030Y-93772199D01*
X110528193Y-93772196D01*
X110580389Y-93770949D01*
X110580418Y-93770949D01*
X110637258Y-93769462D01*
X110637258Y-93769461D01*
X110698639Y-93768221D01*
X110752300Y-93767800D01*
X110752300Y-94242199D01*
X110698639Y-94241778D01*
X110637258Y-94240538D01*
X110637258Y-94240537D01*
X110580418Y-94239050D01*
X110580389Y-94239050D01*
X110528193Y-94237803D01*
X110528030Y-94237800D01*
X110480362Y-94237273D01*
X110480024Y-94237274D01*
X110436769Y-94237950D01*
X110436199Y-94237971D01*
X110397242Y-94240330D01*
X110396371Y-94240413D01*
X110361595Y-94244938D01*
X110360347Y-94245165D01*
X110329637Y-94252335D01*
X110327962Y-94252849D01*
X110308745Y-94260245D01*
X110043322Y-94005000D01*
X110308745Y-93749755D01*
X110327963Y-93757150D01*
G37*
%TD.AperFunction*%
%TD*%
D19*
%TO.N,/D+*%
X105974971Y-90561505D02*
X106054787Y-90602267D01*
X106054870Y-90602309D01*
X106127489Y-90638726D01*
X106127846Y-90638899D01*
X106196755Y-90670802D01*
X106197410Y-90671083D01*
X106266222Y-90698366D01*
X106267122Y-90698684D01*
X106339451Y-90721242D01*
X106340467Y-90721513D01*
X106419927Y-90739241D01*
X106420909Y-90739420D01*
X106511115Y-90752213D01*
X106511959Y-90752304D01*
X106616523Y-90760057D01*
X106617192Y-90760089D01*
X106727300Y-90762432D01*
X106727300Y-91237567D01*
X106617192Y-91239910D01*
X106616523Y-91239942D01*
X106511959Y-91247695D01*
X106511115Y-91247786D01*
X106420909Y-91260579D01*
X106419927Y-91260758D01*
X106340467Y-91278486D01*
X106339451Y-91278757D01*
X106267122Y-91301315D01*
X106266222Y-91301633D01*
X106197410Y-91328916D01*
X106196755Y-91329197D01*
X106127846Y-91361100D01*
X106127489Y-91361273D01*
X106054870Y-91397690D01*
X106054787Y-91397732D01*
X105974971Y-91438494D01*
X105892097Y-91479649D01*
X105393322Y-91000000D01*
X105892097Y-90520351D01*
X105974971Y-90561505D01*
%TA.AperFunction,Conductor*%
D18*
G36*
X105974971Y-90561505D02*
G01*
X106054787Y-90602267D01*
X106054870Y-90602309D01*
X106127489Y-90638726D01*
X106127846Y-90638899D01*
X106196755Y-90670802D01*
X106197410Y-90671083D01*
X106266222Y-90698366D01*
X106267122Y-90698684D01*
X106339451Y-90721242D01*
X106340467Y-90721513D01*
X106419927Y-90739241D01*
X106420909Y-90739420D01*
X106511115Y-90752213D01*
X106511959Y-90752304D01*
X106616523Y-90760057D01*
X106617192Y-90760089D01*
X106727300Y-90762432D01*
X106727300Y-91237567D01*
X106617192Y-91239910D01*
X106616523Y-91239942D01*
X106511959Y-91247695D01*
X106511115Y-91247786D01*
X106420909Y-91260579D01*
X106419927Y-91260758D01*
X106340467Y-91278486D01*
X106339451Y-91278757D01*
X106267122Y-91301315D01*
X106266222Y-91301633D01*
X106197410Y-91328916D01*
X106196755Y-91329197D01*
X106127846Y-91361100D01*
X106127489Y-91361273D01*
X106054870Y-91397690D01*
X106054787Y-91397732D01*
X105974971Y-91438494D01*
X105892097Y-91479649D01*
X105393322Y-91000000D01*
X105892097Y-90520351D01*
X105974971Y-90561505D01*
G37*
%TD.AperFunction*%
%TD*%
D19*
%TO.N,/D+*%
X110306678Y-90195000D02*
X110041255Y-90450245D01*
X110022036Y-90442849D01*
X110020362Y-90442335D01*
X109989652Y-90435165D01*
X109988404Y-90434938D01*
X109953628Y-90430413D01*
X109952757Y-90430330D01*
X109913800Y-90427971D01*
X109913230Y-90427950D01*
X109869975Y-90427274D01*
X109869637Y-90427273D01*
X109821969Y-90427800D01*
X109821806Y-90427803D01*
X109769610Y-90429050D01*
X109769581Y-90429050D01*
X109712741Y-90430537D01*
X109712741Y-90430538D01*
X109651360Y-90431778D01*
X109597700Y-90432199D01*
X109597700Y-89957800D01*
X109651360Y-89958221D01*
X109712741Y-89959461D01*
X109712741Y-89959462D01*
X109769581Y-89960949D01*
X109769610Y-89960949D01*
X109821806Y-89962196D01*
X109821969Y-89962199D01*
X109869637Y-89962726D01*
X109869975Y-89962725D01*
X109913230Y-89962049D01*
X109913800Y-89962028D01*
X109952757Y-89959669D01*
X109953628Y-89959586D01*
X109988404Y-89955061D01*
X109989652Y-89954834D01*
X110020362Y-89947664D01*
X110022036Y-89947150D01*
X110041255Y-89939755D01*
X110306678Y-90195000D01*
%TA.AperFunction,Conductor*%
D18*
G36*
X110306678Y-90195000D02*
G01*
X110041255Y-90450245D01*
X110022036Y-90442849D01*
X110020362Y-90442335D01*
X109989652Y-90435165D01*
X109988404Y-90434938D01*
X109953628Y-90430413D01*
X109952757Y-90430330D01*
X109913800Y-90427971D01*
X109913230Y-90427950D01*
X109869975Y-90427274D01*
X109869637Y-90427273D01*
X109821969Y-90427800D01*
X109821806Y-90427803D01*
X109769610Y-90429050D01*
X109769581Y-90429050D01*
X109712741Y-90430537D01*
X109712741Y-90430538D01*
X109651360Y-90431778D01*
X109597700Y-90432199D01*
X109597700Y-89957800D01*
X109651360Y-89958221D01*
X109712741Y-89959461D01*
X109712741Y-89959462D01*
X109769581Y-89960949D01*
X109769610Y-89960949D01*
X109821806Y-89962196D01*
X109821969Y-89962199D01*
X109869637Y-89962726D01*
X109869975Y-89962725D01*
X109913230Y-89962049D01*
X109913800Y-89962028D01*
X109952757Y-89959669D01*
X109953628Y-89959586D01*
X109988404Y-89955061D01*
X109989652Y-89954834D01*
X110020362Y-89947664D01*
X110022036Y-89947150D01*
X110041255Y-89939755D01*
X110306678Y-90195000D01*
G37*
%TD.AperFunction*%
%TD*%
D19*
%TO.N,/D-*%
X105974971Y-92561505D02*
X106054787Y-92602267D01*
X106054870Y-92602309D01*
X106127489Y-92638726D01*
X106127846Y-92638899D01*
X106196755Y-92670802D01*
X106197410Y-92671083D01*
X106266222Y-92698366D01*
X106267122Y-92698684D01*
X106339451Y-92721242D01*
X106340467Y-92721513D01*
X106419927Y-92739241D01*
X106420909Y-92739420D01*
X106511115Y-92752213D01*
X106511959Y-92752304D01*
X106616523Y-92760057D01*
X106617192Y-92760089D01*
X106727300Y-92762432D01*
X106727300Y-93237567D01*
X106617192Y-93239910D01*
X106616523Y-93239942D01*
X106511959Y-93247695D01*
X106511115Y-93247786D01*
X106420909Y-93260579D01*
X106419927Y-93260758D01*
X106340467Y-93278486D01*
X106339451Y-93278757D01*
X106267122Y-93301315D01*
X106266222Y-93301633D01*
X106197410Y-93328916D01*
X106196755Y-93329197D01*
X106127846Y-93361100D01*
X106127489Y-93361273D01*
X106054870Y-93397690D01*
X106054787Y-93397732D01*
X105974971Y-93438494D01*
X105892097Y-93479649D01*
X105393322Y-93000000D01*
X105892097Y-92520351D01*
X105974971Y-92561505D01*
%TA.AperFunction,Conductor*%
D18*
G36*
X105974971Y-92561505D02*
G01*
X106054787Y-92602267D01*
X106054870Y-92602309D01*
X106127489Y-92638726D01*
X106127846Y-92638899D01*
X106196755Y-92670802D01*
X106197410Y-92671083D01*
X106266222Y-92698366D01*
X106267122Y-92698684D01*
X106339451Y-92721242D01*
X106340467Y-92721513D01*
X106419927Y-92739241D01*
X106420909Y-92739420D01*
X106511115Y-92752213D01*
X106511959Y-92752304D01*
X106616523Y-92760057D01*
X106617192Y-92760089D01*
X106727300Y-92762432D01*
X106727300Y-93237567D01*
X106617192Y-93239910D01*
X106616523Y-93239942D01*
X106511959Y-93247695D01*
X106511115Y-93247786D01*
X106420909Y-93260579D01*
X106419927Y-93260758D01*
X106340467Y-93278486D01*
X106339451Y-93278757D01*
X106267122Y-93301315D01*
X106266222Y-93301633D01*
X106197410Y-93328916D01*
X106196755Y-93329197D01*
X106127846Y-93361100D01*
X106127489Y-93361273D01*
X106054870Y-93397690D01*
X106054787Y-93397732D01*
X105974971Y-93438494D01*
X105892097Y-93479649D01*
X105393322Y-93000000D01*
X105892097Y-92520351D01*
X105974971Y-92561505D01*
G37*
%TD.AperFunction*%
%TD*%
D19*
%TO.N,/D-*%
X110306678Y-91465000D02*
X110041255Y-91720245D01*
X110022036Y-91712849D01*
X110020362Y-91712335D01*
X109989652Y-91705165D01*
X109988404Y-91704938D01*
X109953628Y-91700413D01*
X109952757Y-91700330D01*
X109913800Y-91697971D01*
X109913230Y-91697950D01*
X109869975Y-91697274D01*
X109869637Y-91697273D01*
X109821969Y-91697800D01*
X109821806Y-91697803D01*
X109769610Y-91699050D01*
X109769581Y-91699050D01*
X109712741Y-91700537D01*
X109712741Y-91700538D01*
X109651360Y-91701778D01*
X109597700Y-91702199D01*
X109597700Y-91227800D01*
X109651360Y-91228221D01*
X109712741Y-91229461D01*
X109712741Y-91229462D01*
X109769581Y-91230949D01*
X109769610Y-91230949D01*
X109821806Y-91232196D01*
X109821969Y-91232199D01*
X109869637Y-91232726D01*
X109869975Y-91232725D01*
X109913230Y-91232049D01*
X109913800Y-91232028D01*
X109952757Y-91229669D01*
X109953628Y-91229586D01*
X109988404Y-91225061D01*
X109989652Y-91224834D01*
X110020362Y-91217664D01*
X110022036Y-91217150D01*
X110041255Y-91209755D01*
X110306678Y-91465000D01*
%TA.AperFunction,Conductor*%
D18*
G36*
X110306678Y-91465000D02*
G01*
X110041255Y-91720245D01*
X110022036Y-91712849D01*
X110020362Y-91712335D01*
X109989652Y-91705165D01*
X109988404Y-91704938D01*
X109953628Y-91700413D01*
X109952757Y-91700330D01*
X109913800Y-91697971D01*
X109913230Y-91697950D01*
X109869975Y-91697274D01*
X109869637Y-91697273D01*
X109821969Y-91697800D01*
X109821806Y-91697803D01*
X109769610Y-91699050D01*
X109769581Y-91699050D01*
X109712741Y-91700537D01*
X109712741Y-91700538D01*
X109651360Y-91701778D01*
X109597700Y-91702199D01*
X109597700Y-91227800D01*
X109651360Y-91228221D01*
X109712741Y-91229461D01*
X109712741Y-91229462D01*
X109769581Y-91230949D01*
X109769610Y-91230949D01*
X109821806Y-91232196D01*
X109821969Y-91232199D01*
X109869637Y-91232726D01*
X109869975Y-91232725D01*
X109913230Y-91232049D01*
X109913800Y-91232028D01*
X109952757Y-91229669D01*
X109953628Y-91229586D01*
X109988404Y-91225061D01*
X109989652Y-91224834D01*
X110020362Y-91217664D01*
X110022036Y-91217150D01*
X110041255Y-91209755D01*
X110306678Y-91465000D01*
G37*
%TD.AperFunction*%
%TD*%
M02*
