%TF.GenerationSoftware,KiCad,Pcbnew,(5.1.10)-1*%
%TF.CreationDate,2021-10-08T00:02:28+08:00*%
%TF.ProjectId,Usb-ttl,5573622d-7474-46c2-9e6b-696361645f70,rev?*%
%TF.SameCoordinates,Original*%
%TF.FileFunction,Copper,L2,Bot*%
%TF.FilePolarity,Positive*%
%FSLAX46Y46*%
G04 Gerber Fmt 4.6, Leading zero omitted, Abs format (unit mm)*
G04 Created by KiCad (PCBNEW (5.1.10)-1) date 2021-10-08 00:02:28*
%MOMM*%
%LPD*%
G01*
G04 APERTURE LIST*
%TA.AperFunction,ComponentPad*%
%ADD10O,1.700000X1.700000*%
%TD*%
%TA.AperFunction,ComponentPad*%
%ADD11R,1.700000X1.700000*%
%TD*%
%TA.AperFunction,ComponentPad*%
%ADD12O,3.500000X1.900000*%
%TD*%
%TA.AperFunction,ViaPad*%
%ADD13C,0.700000*%
%TD*%
%TA.AperFunction,Conductor*%
%ADD14C,0.500000*%
%TD*%
%TA.AperFunction,Conductor*%
%ADD15C,0.254000*%
%TD*%
%TA.AperFunction,Conductor*%
%ADD16C,0.100000*%
%TD*%
%TA.AperFunction,Conductor*%
%ADD17C,0.025400*%
%TD*%
G04 APERTURE END LIST*
D10*
%TO.P,J2,5*%
%TO.N,+5V*%
X123000000Y-97080000D03*
%TO.P,J2,4*%
%TO.N,/TXD*%
X123000000Y-94540000D03*
%TO.P,J2,3*%
%TO.N,/RXD*%
X123000000Y-92000000D03*
%TO.P,J2,2*%
%TO.N,GND*%
X123000000Y-89460000D03*
D11*
%TO.P,J2,1*%
%TO.N,/RTS*%
X123000000Y-86920000D03*
%TD*%
D12*
%TO.P,J1,5*%
%TO.N,GND*%
X102900000Y-97700000D03*
X102900000Y-86300000D03*
%TD*%
D13*
%TO.N,+5V*%
X112557162Y-92507162D03*
X117369662Y-87694662D03*
%TO.N,/RTS*%
X112050000Y-94025000D03*
%TD*%
D14*
%TO.N,+5V*%
X112557162Y-92507162D02*
X112907161Y-92157163D01*
X112907161Y-92157163D02*
X117369662Y-87694662D01*
%TO.N,/RTS*%
X112100000Y-94025000D02*
X119205000Y-86920000D01*
X112050000Y-94025000D02*
X112100000Y-94025000D01*
X119205000Y-86920000D02*
X123000000Y-86920000D01*
%TD*%
D15*
%TO.N,GND*%
X124616870Y-84383130D02*
X124698001Y-84481988D01*
X124698000Y-99518013D01*
X124616870Y-99616870D01*
X124518013Y-99698000D01*
X100481987Y-99698000D01*
X100383130Y-99616870D01*
X100302000Y-99518013D01*
X100302000Y-98072588D01*
X100559414Y-98072588D01*
X100587051Y-98189221D01*
X100711564Y-98474983D01*
X100889434Y-98730962D01*
X101113825Y-98947322D01*
X101376114Y-99115748D01*
X101666222Y-99229768D01*
X101973000Y-99285000D01*
X102773000Y-99285000D01*
X102773000Y-97827000D01*
X103027000Y-97827000D01*
X103027000Y-99285000D01*
X103827000Y-99285000D01*
X104133778Y-99229768D01*
X104423886Y-99115748D01*
X104686175Y-98947322D01*
X104910566Y-98730962D01*
X105088436Y-98474983D01*
X105212949Y-98189221D01*
X105240586Y-98072588D01*
X105120584Y-97827000D01*
X103027000Y-97827000D01*
X102773000Y-97827000D01*
X100679416Y-97827000D01*
X100559414Y-98072588D01*
X100302000Y-98072588D01*
X100302000Y-97327412D01*
X100559414Y-97327412D01*
X100679416Y-97573000D01*
X102773000Y-97573000D01*
X102773000Y-96115000D01*
X103027000Y-96115000D01*
X103027000Y-97573000D01*
X105120584Y-97573000D01*
X105240586Y-97327412D01*
X105212949Y-97210779D01*
X105107601Y-96969000D01*
X121873000Y-96969000D01*
X121873000Y-97191000D01*
X121916310Y-97408734D01*
X122001266Y-97613835D01*
X122124602Y-97798421D01*
X122281579Y-97955398D01*
X122466165Y-98078734D01*
X122671266Y-98163690D01*
X122889000Y-98207000D01*
X123111000Y-98207000D01*
X123328734Y-98163690D01*
X123533835Y-98078734D01*
X123718421Y-97955398D01*
X123875398Y-97798421D01*
X123998734Y-97613835D01*
X124083690Y-97408734D01*
X124127000Y-97191000D01*
X124127000Y-96969000D01*
X124083690Y-96751266D01*
X123998734Y-96546165D01*
X123875398Y-96361579D01*
X123718421Y-96204602D01*
X123533835Y-96081266D01*
X123328734Y-95996310D01*
X123111000Y-95953000D01*
X122889000Y-95953000D01*
X122671266Y-95996310D01*
X122466165Y-96081266D01*
X122281579Y-96204602D01*
X122124602Y-96361579D01*
X122001266Y-96546165D01*
X121916310Y-96751266D01*
X121873000Y-96969000D01*
X105107601Y-96969000D01*
X105088436Y-96925017D01*
X104910566Y-96669038D01*
X104686175Y-96452678D01*
X104423886Y-96284252D01*
X104133778Y-96170232D01*
X103827000Y-96115000D01*
X103027000Y-96115000D01*
X102773000Y-96115000D01*
X101973000Y-96115000D01*
X101666222Y-96170232D01*
X101376114Y-96284252D01*
X101113825Y-96452678D01*
X100889434Y-96669038D01*
X100711564Y-96925017D01*
X100587051Y-97210779D01*
X100559414Y-97327412D01*
X100302000Y-97327412D01*
X100302000Y-94218548D01*
X102073000Y-94218548D01*
X102073000Y-94381452D01*
X102104782Y-94541227D01*
X102167123Y-94691731D01*
X102257628Y-94827181D01*
X102372819Y-94942372D01*
X102508269Y-95032877D01*
X102658773Y-95095218D01*
X102818548Y-95127000D01*
X102981452Y-95127000D01*
X103141227Y-95095218D01*
X103291731Y-95032877D01*
X103427181Y-94942372D01*
X103542372Y-94827181D01*
X103632877Y-94691731D01*
X103695218Y-94541227D01*
X103727000Y-94381452D01*
X103727000Y-94218548D01*
X103695218Y-94058773D01*
X103655650Y-93963246D01*
X111423000Y-93963246D01*
X111423000Y-94086754D01*
X111447095Y-94207889D01*
X111494360Y-94321996D01*
X111562977Y-94424689D01*
X111650311Y-94512023D01*
X111753004Y-94580640D01*
X111867111Y-94627905D01*
X111988246Y-94652000D01*
X112111754Y-94652000D01*
X112232889Y-94627905D01*
X112346996Y-94580640D01*
X112449689Y-94512023D01*
X112532712Y-94429000D01*
X121873000Y-94429000D01*
X121873000Y-94651000D01*
X121916310Y-94868734D01*
X122001266Y-95073835D01*
X122124602Y-95258421D01*
X122281579Y-95415398D01*
X122466165Y-95538734D01*
X122671266Y-95623690D01*
X122889000Y-95667000D01*
X123111000Y-95667000D01*
X123328734Y-95623690D01*
X123533835Y-95538734D01*
X123718421Y-95415398D01*
X123875398Y-95258421D01*
X123998734Y-95073835D01*
X124083690Y-94868734D01*
X124127000Y-94651000D01*
X124127000Y-94429000D01*
X124083690Y-94211266D01*
X123998734Y-94006165D01*
X123875398Y-93821579D01*
X123718421Y-93664602D01*
X123533835Y-93541266D01*
X123328734Y-93456310D01*
X123111000Y-93413000D01*
X122889000Y-93413000D01*
X122671266Y-93456310D01*
X122466165Y-93541266D01*
X122281579Y-93664602D01*
X122124602Y-93821579D01*
X122001266Y-94006165D01*
X121916310Y-94211266D01*
X121873000Y-94429000D01*
X112532712Y-94429000D01*
X112537023Y-94424689D01*
X112605640Y-94321996D01*
X112621438Y-94283857D01*
X112635241Y-94256417D01*
X112651122Y-94229735D01*
X112668120Y-94205416D01*
X112681514Y-94188775D01*
X117053399Y-89816890D01*
X121558524Y-89816890D01*
X121603175Y-89964099D01*
X121728359Y-90226920D01*
X121902412Y-90460269D01*
X122118645Y-90655178D01*
X122368748Y-90804157D01*
X122643109Y-90901481D01*
X122872998Y-90780815D01*
X122872998Y-90876183D01*
X122671266Y-90916310D01*
X122466165Y-91001266D01*
X122281579Y-91124602D01*
X122124602Y-91281579D01*
X122001266Y-91466165D01*
X121916310Y-91671266D01*
X121873000Y-91889000D01*
X121873000Y-92111000D01*
X121916310Y-92328734D01*
X122001266Y-92533835D01*
X122124602Y-92718421D01*
X122281579Y-92875398D01*
X122466165Y-92998734D01*
X122671266Y-93083690D01*
X122889000Y-93127000D01*
X123111000Y-93127000D01*
X123328734Y-93083690D01*
X123533835Y-92998734D01*
X123718421Y-92875398D01*
X123875398Y-92718421D01*
X123998734Y-92533835D01*
X124083690Y-92328734D01*
X124127000Y-92111000D01*
X124127000Y-91889000D01*
X124083690Y-91671266D01*
X123998734Y-91466165D01*
X123875398Y-91281579D01*
X123718421Y-91124602D01*
X123533835Y-91001266D01*
X123328734Y-90916310D01*
X123127002Y-90876183D01*
X123127002Y-90780815D01*
X123356891Y-90901481D01*
X123631252Y-90804157D01*
X123881355Y-90655178D01*
X124097588Y-90460269D01*
X124271641Y-90226920D01*
X124396825Y-89964099D01*
X124441476Y-89816890D01*
X124320155Y-89587000D01*
X123127000Y-89587000D01*
X123127000Y-89607000D01*
X122873000Y-89607000D01*
X122873000Y-89587000D01*
X121679845Y-89587000D01*
X121558524Y-89816890D01*
X117053399Y-89816890D01*
X119423290Y-87447000D01*
X121304809Y-87447000D01*
X121481413Y-87453604D01*
X121616460Y-87470949D01*
X121723370Y-87496680D01*
X121813178Y-87529765D01*
X121871660Y-87558738D01*
X121871660Y-87770000D01*
X121877008Y-87824301D01*
X121892847Y-87876516D01*
X121918569Y-87924637D01*
X121953184Y-87966816D01*
X121995363Y-88001431D01*
X122043484Y-88027153D01*
X122095699Y-88042992D01*
X122150000Y-88048340D01*
X122559042Y-88048340D01*
X122368748Y-88115843D01*
X122118645Y-88264822D01*
X121902412Y-88459731D01*
X121728359Y-88693080D01*
X121603175Y-88955901D01*
X121558524Y-89103110D01*
X121679845Y-89333000D01*
X122873000Y-89333000D01*
X122873000Y-89313000D01*
X123127000Y-89313000D01*
X123127000Y-89333000D01*
X124320155Y-89333000D01*
X124441476Y-89103110D01*
X124396825Y-88955901D01*
X124271641Y-88693080D01*
X124097588Y-88459731D01*
X123881355Y-88264822D01*
X123631252Y-88115843D01*
X123440958Y-88048340D01*
X123850000Y-88048340D01*
X123904301Y-88042992D01*
X123956516Y-88027153D01*
X124004637Y-88001431D01*
X124046816Y-87966816D01*
X124081431Y-87924637D01*
X124107153Y-87876516D01*
X124122992Y-87824301D01*
X124128340Y-87770000D01*
X124128340Y-86070000D01*
X124122992Y-86015699D01*
X124107153Y-85963484D01*
X124081431Y-85915363D01*
X124046816Y-85873184D01*
X124004637Y-85838569D01*
X123956516Y-85812847D01*
X123904301Y-85797008D01*
X123850000Y-85791660D01*
X122150000Y-85791660D01*
X122095699Y-85797008D01*
X122043484Y-85812847D01*
X121995363Y-85838569D01*
X121953184Y-85873184D01*
X121918569Y-85915363D01*
X121892847Y-85963484D01*
X121877008Y-86015699D01*
X121871660Y-86070000D01*
X121871660Y-86281261D01*
X121813178Y-86310234D01*
X121723370Y-86343319D01*
X121616460Y-86369050D01*
X121481401Y-86386396D01*
X121304834Y-86393000D01*
X119230877Y-86393000D01*
X119204999Y-86390451D01*
X119179121Y-86393000D01*
X119179119Y-86393000D01*
X119101690Y-86400626D01*
X119002350Y-86430761D01*
X118910798Y-86479696D01*
X118830552Y-86545552D01*
X118814049Y-86565661D01*
X117941921Y-87437789D01*
X117925302Y-87397666D01*
X117856685Y-87294973D01*
X117769351Y-87207639D01*
X117666658Y-87139022D01*
X117552551Y-87091757D01*
X117431416Y-87067662D01*
X117307908Y-87067662D01*
X117186773Y-87091757D01*
X117072666Y-87139022D01*
X116969973Y-87207639D01*
X116882639Y-87294973D01*
X116814022Y-87397666D01*
X116766757Y-87511773D01*
X116765247Y-87519364D01*
X116755371Y-87540065D01*
X116743658Y-87560205D01*
X116729309Y-87580923D01*
X116710291Y-87604725D01*
X116684948Y-87633222D01*
X116666324Y-87652710D01*
X112552817Y-91766218D01*
X112507695Y-91811340D01*
X112499040Y-91819659D01*
X112469831Y-91845818D01*
X112445417Y-91865471D01*
X112424173Y-91880294D01*
X112403553Y-91892367D01*
X112381922Y-91902736D01*
X112374273Y-91904257D01*
X112260166Y-91951522D01*
X112157473Y-92020139D01*
X112070139Y-92107473D01*
X112001522Y-92210166D01*
X111954257Y-92324273D01*
X111930162Y-92445408D01*
X111930162Y-92568916D01*
X111954257Y-92690051D01*
X112001522Y-92804158D01*
X112070139Y-92906851D01*
X112157473Y-92994185D01*
X112260166Y-93062802D01*
X112300289Y-93079422D01*
X112200908Y-93178803D01*
X112200897Y-93178812D01*
X112200029Y-93179682D01*
X112124208Y-93255503D01*
X112102665Y-93276943D01*
X112063890Y-93314429D01*
X112031526Y-93343955D01*
X112005131Y-93365889D01*
X111983908Y-93381317D01*
X111966200Y-93392103D01*
X111949260Y-93400389D01*
X111929476Y-93407854D01*
X111907129Y-93414135D01*
X111867111Y-93422095D01*
X111753004Y-93469360D01*
X111650311Y-93537977D01*
X111562977Y-93625311D01*
X111494360Y-93728004D01*
X111447095Y-93842111D01*
X111423000Y-93963246D01*
X103655650Y-93963246D01*
X103632877Y-93908269D01*
X103542372Y-93772819D01*
X103427181Y-93657628D01*
X103291731Y-93567123D01*
X103141227Y-93504782D01*
X102981452Y-93473000D01*
X102818548Y-93473000D01*
X102658773Y-93504782D01*
X102508269Y-93567123D01*
X102372819Y-93657628D01*
X102257628Y-93772819D01*
X102167123Y-93908269D01*
X102104782Y-94058773D01*
X102073000Y-94218548D01*
X100302000Y-94218548D01*
X100302000Y-89618548D01*
X102073000Y-89618548D01*
X102073000Y-89781452D01*
X102104782Y-89941227D01*
X102167123Y-90091731D01*
X102257628Y-90227181D01*
X102372819Y-90342372D01*
X102508269Y-90432877D01*
X102658773Y-90495218D01*
X102818548Y-90527000D01*
X102981452Y-90527000D01*
X103141227Y-90495218D01*
X103291731Y-90432877D01*
X103427181Y-90342372D01*
X103542372Y-90227181D01*
X103632877Y-90091731D01*
X103695218Y-89941227D01*
X103727000Y-89781452D01*
X103727000Y-89618548D01*
X103695218Y-89458773D01*
X103632877Y-89308269D01*
X103542372Y-89172819D01*
X103427181Y-89057628D01*
X103291731Y-88967123D01*
X103141227Y-88904782D01*
X102981452Y-88873000D01*
X102818548Y-88873000D01*
X102658773Y-88904782D01*
X102508269Y-88967123D01*
X102372819Y-89057628D01*
X102257628Y-89172819D01*
X102167123Y-89308269D01*
X102104782Y-89458773D01*
X102073000Y-89618548D01*
X100302000Y-89618548D01*
X100302000Y-86672588D01*
X100559414Y-86672588D01*
X100587051Y-86789221D01*
X100711564Y-87074983D01*
X100889434Y-87330962D01*
X101113825Y-87547322D01*
X101376114Y-87715748D01*
X101666222Y-87829768D01*
X101973000Y-87885000D01*
X102773000Y-87885000D01*
X102773000Y-86427000D01*
X103027000Y-86427000D01*
X103027000Y-87885000D01*
X103827000Y-87885000D01*
X104133778Y-87829768D01*
X104423886Y-87715748D01*
X104686175Y-87547322D01*
X104910566Y-87330962D01*
X105088436Y-87074983D01*
X105212949Y-86789221D01*
X105240586Y-86672588D01*
X105120584Y-86427000D01*
X103027000Y-86427000D01*
X102773000Y-86427000D01*
X100679416Y-86427000D01*
X100559414Y-86672588D01*
X100302000Y-86672588D01*
X100302000Y-85927412D01*
X100559414Y-85927412D01*
X100679416Y-86173000D01*
X102773000Y-86173000D01*
X102773000Y-84715000D01*
X103027000Y-84715000D01*
X103027000Y-86173000D01*
X105120584Y-86173000D01*
X105240586Y-85927412D01*
X105212949Y-85810779D01*
X105088436Y-85525017D01*
X104910566Y-85269038D01*
X104686175Y-85052678D01*
X104423886Y-84884252D01*
X104133778Y-84770232D01*
X103827000Y-84715000D01*
X103027000Y-84715000D01*
X102773000Y-84715000D01*
X101973000Y-84715000D01*
X101666222Y-84770232D01*
X101376114Y-84884252D01*
X101113825Y-85052678D01*
X100889434Y-85269038D01*
X100711564Y-85525017D01*
X100587051Y-85810779D01*
X100559414Y-85927412D01*
X100302000Y-85927412D01*
X100302000Y-84481987D01*
X100383130Y-84383130D01*
X100481987Y-84302000D01*
X124518013Y-84302000D01*
X124616870Y-84383130D01*
%TA.AperFunction,Conductor*%
D16*
G36*
X124616870Y-84383130D02*
G01*
X124698001Y-84481988D01*
X124698000Y-99518013D01*
X124616870Y-99616870D01*
X124518013Y-99698000D01*
X100481987Y-99698000D01*
X100383130Y-99616870D01*
X100302000Y-99518013D01*
X100302000Y-98072588D01*
X100559414Y-98072588D01*
X100587051Y-98189221D01*
X100711564Y-98474983D01*
X100889434Y-98730962D01*
X101113825Y-98947322D01*
X101376114Y-99115748D01*
X101666222Y-99229768D01*
X101973000Y-99285000D01*
X102773000Y-99285000D01*
X102773000Y-97827000D01*
X103027000Y-97827000D01*
X103027000Y-99285000D01*
X103827000Y-99285000D01*
X104133778Y-99229768D01*
X104423886Y-99115748D01*
X104686175Y-98947322D01*
X104910566Y-98730962D01*
X105088436Y-98474983D01*
X105212949Y-98189221D01*
X105240586Y-98072588D01*
X105120584Y-97827000D01*
X103027000Y-97827000D01*
X102773000Y-97827000D01*
X100679416Y-97827000D01*
X100559414Y-98072588D01*
X100302000Y-98072588D01*
X100302000Y-97327412D01*
X100559414Y-97327412D01*
X100679416Y-97573000D01*
X102773000Y-97573000D01*
X102773000Y-96115000D01*
X103027000Y-96115000D01*
X103027000Y-97573000D01*
X105120584Y-97573000D01*
X105240586Y-97327412D01*
X105212949Y-97210779D01*
X105107601Y-96969000D01*
X121873000Y-96969000D01*
X121873000Y-97191000D01*
X121916310Y-97408734D01*
X122001266Y-97613835D01*
X122124602Y-97798421D01*
X122281579Y-97955398D01*
X122466165Y-98078734D01*
X122671266Y-98163690D01*
X122889000Y-98207000D01*
X123111000Y-98207000D01*
X123328734Y-98163690D01*
X123533835Y-98078734D01*
X123718421Y-97955398D01*
X123875398Y-97798421D01*
X123998734Y-97613835D01*
X124083690Y-97408734D01*
X124127000Y-97191000D01*
X124127000Y-96969000D01*
X124083690Y-96751266D01*
X123998734Y-96546165D01*
X123875398Y-96361579D01*
X123718421Y-96204602D01*
X123533835Y-96081266D01*
X123328734Y-95996310D01*
X123111000Y-95953000D01*
X122889000Y-95953000D01*
X122671266Y-95996310D01*
X122466165Y-96081266D01*
X122281579Y-96204602D01*
X122124602Y-96361579D01*
X122001266Y-96546165D01*
X121916310Y-96751266D01*
X121873000Y-96969000D01*
X105107601Y-96969000D01*
X105088436Y-96925017D01*
X104910566Y-96669038D01*
X104686175Y-96452678D01*
X104423886Y-96284252D01*
X104133778Y-96170232D01*
X103827000Y-96115000D01*
X103027000Y-96115000D01*
X102773000Y-96115000D01*
X101973000Y-96115000D01*
X101666222Y-96170232D01*
X101376114Y-96284252D01*
X101113825Y-96452678D01*
X100889434Y-96669038D01*
X100711564Y-96925017D01*
X100587051Y-97210779D01*
X100559414Y-97327412D01*
X100302000Y-97327412D01*
X100302000Y-94218548D01*
X102073000Y-94218548D01*
X102073000Y-94381452D01*
X102104782Y-94541227D01*
X102167123Y-94691731D01*
X102257628Y-94827181D01*
X102372819Y-94942372D01*
X102508269Y-95032877D01*
X102658773Y-95095218D01*
X102818548Y-95127000D01*
X102981452Y-95127000D01*
X103141227Y-95095218D01*
X103291731Y-95032877D01*
X103427181Y-94942372D01*
X103542372Y-94827181D01*
X103632877Y-94691731D01*
X103695218Y-94541227D01*
X103727000Y-94381452D01*
X103727000Y-94218548D01*
X103695218Y-94058773D01*
X103655650Y-93963246D01*
X111423000Y-93963246D01*
X111423000Y-94086754D01*
X111447095Y-94207889D01*
X111494360Y-94321996D01*
X111562977Y-94424689D01*
X111650311Y-94512023D01*
X111753004Y-94580640D01*
X111867111Y-94627905D01*
X111988246Y-94652000D01*
X112111754Y-94652000D01*
X112232889Y-94627905D01*
X112346996Y-94580640D01*
X112449689Y-94512023D01*
X112532712Y-94429000D01*
X121873000Y-94429000D01*
X121873000Y-94651000D01*
X121916310Y-94868734D01*
X122001266Y-95073835D01*
X122124602Y-95258421D01*
X122281579Y-95415398D01*
X122466165Y-95538734D01*
X122671266Y-95623690D01*
X122889000Y-95667000D01*
X123111000Y-95667000D01*
X123328734Y-95623690D01*
X123533835Y-95538734D01*
X123718421Y-95415398D01*
X123875398Y-95258421D01*
X123998734Y-95073835D01*
X124083690Y-94868734D01*
X124127000Y-94651000D01*
X124127000Y-94429000D01*
X124083690Y-94211266D01*
X123998734Y-94006165D01*
X123875398Y-93821579D01*
X123718421Y-93664602D01*
X123533835Y-93541266D01*
X123328734Y-93456310D01*
X123111000Y-93413000D01*
X122889000Y-93413000D01*
X122671266Y-93456310D01*
X122466165Y-93541266D01*
X122281579Y-93664602D01*
X122124602Y-93821579D01*
X122001266Y-94006165D01*
X121916310Y-94211266D01*
X121873000Y-94429000D01*
X112532712Y-94429000D01*
X112537023Y-94424689D01*
X112605640Y-94321996D01*
X112621438Y-94283857D01*
X112635241Y-94256417D01*
X112651122Y-94229735D01*
X112668120Y-94205416D01*
X112681514Y-94188775D01*
X117053399Y-89816890D01*
X121558524Y-89816890D01*
X121603175Y-89964099D01*
X121728359Y-90226920D01*
X121902412Y-90460269D01*
X122118645Y-90655178D01*
X122368748Y-90804157D01*
X122643109Y-90901481D01*
X122872998Y-90780815D01*
X122872998Y-90876183D01*
X122671266Y-90916310D01*
X122466165Y-91001266D01*
X122281579Y-91124602D01*
X122124602Y-91281579D01*
X122001266Y-91466165D01*
X121916310Y-91671266D01*
X121873000Y-91889000D01*
X121873000Y-92111000D01*
X121916310Y-92328734D01*
X122001266Y-92533835D01*
X122124602Y-92718421D01*
X122281579Y-92875398D01*
X122466165Y-92998734D01*
X122671266Y-93083690D01*
X122889000Y-93127000D01*
X123111000Y-93127000D01*
X123328734Y-93083690D01*
X123533835Y-92998734D01*
X123718421Y-92875398D01*
X123875398Y-92718421D01*
X123998734Y-92533835D01*
X124083690Y-92328734D01*
X124127000Y-92111000D01*
X124127000Y-91889000D01*
X124083690Y-91671266D01*
X123998734Y-91466165D01*
X123875398Y-91281579D01*
X123718421Y-91124602D01*
X123533835Y-91001266D01*
X123328734Y-90916310D01*
X123127002Y-90876183D01*
X123127002Y-90780815D01*
X123356891Y-90901481D01*
X123631252Y-90804157D01*
X123881355Y-90655178D01*
X124097588Y-90460269D01*
X124271641Y-90226920D01*
X124396825Y-89964099D01*
X124441476Y-89816890D01*
X124320155Y-89587000D01*
X123127000Y-89587000D01*
X123127000Y-89607000D01*
X122873000Y-89607000D01*
X122873000Y-89587000D01*
X121679845Y-89587000D01*
X121558524Y-89816890D01*
X117053399Y-89816890D01*
X119423290Y-87447000D01*
X121304809Y-87447000D01*
X121481413Y-87453604D01*
X121616460Y-87470949D01*
X121723370Y-87496680D01*
X121813178Y-87529765D01*
X121871660Y-87558738D01*
X121871660Y-87770000D01*
X121877008Y-87824301D01*
X121892847Y-87876516D01*
X121918569Y-87924637D01*
X121953184Y-87966816D01*
X121995363Y-88001431D01*
X122043484Y-88027153D01*
X122095699Y-88042992D01*
X122150000Y-88048340D01*
X122559042Y-88048340D01*
X122368748Y-88115843D01*
X122118645Y-88264822D01*
X121902412Y-88459731D01*
X121728359Y-88693080D01*
X121603175Y-88955901D01*
X121558524Y-89103110D01*
X121679845Y-89333000D01*
X122873000Y-89333000D01*
X122873000Y-89313000D01*
X123127000Y-89313000D01*
X123127000Y-89333000D01*
X124320155Y-89333000D01*
X124441476Y-89103110D01*
X124396825Y-88955901D01*
X124271641Y-88693080D01*
X124097588Y-88459731D01*
X123881355Y-88264822D01*
X123631252Y-88115843D01*
X123440958Y-88048340D01*
X123850000Y-88048340D01*
X123904301Y-88042992D01*
X123956516Y-88027153D01*
X124004637Y-88001431D01*
X124046816Y-87966816D01*
X124081431Y-87924637D01*
X124107153Y-87876516D01*
X124122992Y-87824301D01*
X124128340Y-87770000D01*
X124128340Y-86070000D01*
X124122992Y-86015699D01*
X124107153Y-85963484D01*
X124081431Y-85915363D01*
X124046816Y-85873184D01*
X124004637Y-85838569D01*
X123956516Y-85812847D01*
X123904301Y-85797008D01*
X123850000Y-85791660D01*
X122150000Y-85791660D01*
X122095699Y-85797008D01*
X122043484Y-85812847D01*
X121995363Y-85838569D01*
X121953184Y-85873184D01*
X121918569Y-85915363D01*
X121892847Y-85963484D01*
X121877008Y-86015699D01*
X121871660Y-86070000D01*
X121871660Y-86281261D01*
X121813178Y-86310234D01*
X121723370Y-86343319D01*
X121616460Y-86369050D01*
X121481401Y-86386396D01*
X121304834Y-86393000D01*
X119230877Y-86393000D01*
X119204999Y-86390451D01*
X119179121Y-86393000D01*
X119179119Y-86393000D01*
X119101690Y-86400626D01*
X119002350Y-86430761D01*
X118910798Y-86479696D01*
X118830552Y-86545552D01*
X118814049Y-86565661D01*
X117941921Y-87437789D01*
X117925302Y-87397666D01*
X117856685Y-87294973D01*
X117769351Y-87207639D01*
X117666658Y-87139022D01*
X117552551Y-87091757D01*
X117431416Y-87067662D01*
X117307908Y-87067662D01*
X117186773Y-87091757D01*
X117072666Y-87139022D01*
X116969973Y-87207639D01*
X116882639Y-87294973D01*
X116814022Y-87397666D01*
X116766757Y-87511773D01*
X116765247Y-87519364D01*
X116755371Y-87540065D01*
X116743658Y-87560205D01*
X116729309Y-87580923D01*
X116710291Y-87604725D01*
X116684948Y-87633222D01*
X116666324Y-87652710D01*
X112552817Y-91766218D01*
X112507695Y-91811340D01*
X112499040Y-91819659D01*
X112469831Y-91845818D01*
X112445417Y-91865471D01*
X112424173Y-91880294D01*
X112403553Y-91892367D01*
X112381922Y-91902736D01*
X112374273Y-91904257D01*
X112260166Y-91951522D01*
X112157473Y-92020139D01*
X112070139Y-92107473D01*
X112001522Y-92210166D01*
X111954257Y-92324273D01*
X111930162Y-92445408D01*
X111930162Y-92568916D01*
X111954257Y-92690051D01*
X112001522Y-92804158D01*
X112070139Y-92906851D01*
X112157473Y-92994185D01*
X112260166Y-93062802D01*
X112300289Y-93079422D01*
X112200908Y-93178803D01*
X112200897Y-93178812D01*
X112200029Y-93179682D01*
X112124208Y-93255503D01*
X112102665Y-93276943D01*
X112063890Y-93314429D01*
X112031526Y-93343955D01*
X112005131Y-93365889D01*
X111983908Y-93381317D01*
X111966200Y-93392103D01*
X111949260Y-93400389D01*
X111929476Y-93407854D01*
X111907129Y-93414135D01*
X111867111Y-93422095D01*
X111753004Y-93469360D01*
X111650311Y-93537977D01*
X111562977Y-93625311D01*
X111494360Y-93728004D01*
X111447095Y-93842111D01*
X111423000Y-93963246D01*
X103655650Y-93963246D01*
X103632877Y-93908269D01*
X103542372Y-93772819D01*
X103427181Y-93657628D01*
X103291731Y-93567123D01*
X103141227Y-93504782D01*
X102981452Y-93473000D01*
X102818548Y-93473000D01*
X102658773Y-93504782D01*
X102508269Y-93567123D01*
X102372819Y-93657628D01*
X102257628Y-93772819D01*
X102167123Y-93908269D01*
X102104782Y-94058773D01*
X102073000Y-94218548D01*
X100302000Y-94218548D01*
X100302000Y-89618548D01*
X102073000Y-89618548D01*
X102073000Y-89781452D01*
X102104782Y-89941227D01*
X102167123Y-90091731D01*
X102257628Y-90227181D01*
X102372819Y-90342372D01*
X102508269Y-90432877D01*
X102658773Y-90495218D01*
X102818548Y-90527000D01*
X102981452Y-90527000D01*
X103141227Y-90495218D01*
X103291731Y-90432877D01*
X103427181Y-90342372D01*
X103542372Y-90227181D01*
X103632877Y-90091731D01*
X103695218Y-89941227D01*
X103727000Y-89781452D01*
X103727000Y-89618548D01*
X103695218Y-89458773D01*
X103632877Y-89308269D01*
X103542372Y-89172819D01*
X103427181Y-89057628D01*
X103291731Y-88967123D01*
X103141227Y-88904782D01*
X102981452Y-88873000D01*
X102818548Y-88873000D01*
X102658773Y-88904782D01*
X102508269Y-88967123D01*
X102372819Y-89057628D01*
X102257628Y-89172819D01*
X102167123Y-89308269D01*
X102104782Y-89458773D01*
X102073000Y-89618548D01*
X100302000Y-89618548D01*
X100302000Y-86672588D01*
X100559414Y-86672588D01*
X100587051Y-86789221D01*
X100711564Y-87074983D01*
X100889434Y-87330962D01*
X101113825Y-87547322D01*
X101376114Y-87715748D01*
X101666222Y-87829768D01*
X101973000Y-87885000D01*
X102773000Y-87885000D01*
X102773000Y-86427000D01*
X103027000Y-86427000D01*
X103027000Y-87885000D01*
X103827000Y-87885000D01*
X104133778Y-87829768D01*
X104423886Y-87715748D01*
X104686175Y-87547322D01*
X104910566Y-87330962D01*
X105088436Y-87074983D01*
X105212949Y-86789221D01*
X105240586Y-86672588D01*
X105120584Y-86427000D01*
X103027000Y-86427000D01*
X102773000Y-86427000D01*
X100679416Y-86427000D01*
X100559414Y-86672588D01*
X100302000Y-86672588D01*
X100302000Y-85927412D01*
X100559414Y-85927412D01*
X100679416Y-86173000D01*
X102773000Y-86173000D01*
X102773000Y-84715000D01*
X103027000Y-84715000D01*
X103027000Y-86173000D01*
X105120584Y-86173000D01*
X105240586Y-85927412D01*
X105212949Y-85810779D01*
X105088436Y-85525017D01*
X104910566Y-85269038D01*
X104686175Y-85052678D01*
X104423886Y-84884252D01*
X104133778Y-84770232D01*
X103827000Y-84715000D01*
X103027000Y-84715000D01*
X102773000Y-84715000D01*
X101973000Y-84715000D01*
X101666222Y-84770232D01*
X101376114Y-84884252D01*
X101113825Y-85052678D01*
X100889434Y-85269038D01*
X100711564Y-85525017D01*
X100587051Y-85810779D01*
X100559414Y-85927412D01*
X100302000Y-85927412D01*
X100302000Y-84481987D01*
X100383130Y-84383130D01*
X100481987Y-84302000D01*
X124518013Y-84302000D01*
X124616870Y-84383130D01*
G37*
%TD.AperFunction*%
%TD*%
D17*
%TO.N,+5V*%
X113210919Y-92188929D02*
X113164638Y-92234867D01*
X113115312Y-92283560D01*
X113115251Y-92283620D01*
X113071402Y-92327493D01*
X113071229Y-92327670D01*
X113032410Y-92368057D01*
X113032105Y-92368385D01*
X112997842Y-92406644D01*
X112997410Y-92407153D01*
X112967231Y-92444642D01*
X112966709Y-92445338D01*
X112940139Y-92483415D01*
X112939594Y-92484266D01*
X112916162Y-92524289D01*
X112915670Y-92525217D01*
X112894902Y-92568544D01*
X112894510Y-92569448D01*
X112879009Y-92609492D01*
X112446375Y-92617949D01*
X112454832Y-92185314D01*
X112494875Y-92169812D01*
X112495779Y-92169421D01*
X112539106Y-92148653D01*
X112540034Y-92148161D01*
X112580057Y-92124729D01*
X112580908Y-92124184D01*
X112618985Y-92097614D01*
X112619681Y-92097092D01*
X112657170Y-92066913D01*
X112657679Y-92066481D01*
X112695938Y-92032218D01*
X112696266Y-92031913D01*
X112736653Y-91993094D01*
X112736830Y-91992921D01*
X112780703Y-91949072D01*
X112780763Y-91949011D01*
X112829455Y-91899685D01*
X112875394Y-91853404D01*
X113210919Y-92188929D01*
%TA.AperFunction,Conductor*%
D16*
G36*
X113210919Y-92188929D02*
G01*
X113164638Y-92234867D01*
X113115312Y-92283560D01*
X113115251Y-92283620D01*
X113071402Y-92327493D01*
X113071229Y-92327670D01*
X113032410Y-92368057D01*
X113032105Y-92368385D01*
X112997842Y-92406644D01*
X112997410Y-92407153D01*
X112967231Y-92444642D01*
X112966709Y-92445338D01*
X112940139Y-92483415D01*
X112939594Y-92484266D01*
X112916162Y-92524289D01*
X112915670Y-92525217D01*
X112894902Y-92568544D01*
X112894510Y-92569448D01*
X112879009Y-92609492D01*
X112446375Y-92617949D01*
X112454832Y-92185314D01*
X112494875Y-92169812D01*
X112495779Y-92169421D01*
X112539106Y-92148653D01*
X112540034Y-92148161D01*
X112580057Y-92124729D01*
X112580908Y-92124184D01*
X112618985Y-92097614D01*
X112619681Y-92097092D01*
X112657170Y-92066913D01*
X112657679Y-92066481D01*
X112695938Y-92032218D01*
X112696266Y-92031913D01*
X112736653Y-91993094D01*
X112736830Y-91992921D01*
X112780703Y-91949072D01*
X112780763Y-91949011D01*
X112829455Y-91899685D01*
X112875394Y-91853404D01*
X113210919Y-92188929D01*
G37*
%TD.AperFunction*%
%TD*%
D17*
%TO.N,+5V*%
X117471992Y-88016504D02*
X117432800Y-88031647D01*
X117431909Y-88032031D01*
X117389307Y-88052355D01*
X117388390Y-88052839D01*
X117349006Y-88075745D01*
X117348160Y-88076283D01*
X117310670Y-88102248D01*
X117309974Y-88102766D01*
X117273053Y-88132265D01*
X117272540Y-88132697D01*
X117234862Y-88166206D01*
X117234528Y-88166514D01*
X117194770Y-88204508D01*
X117194586Y-88204688D01*
X117151422Y-88247643D01*
X117151354Y-88247711D01*
X117103475Y-88296086D01*
X117058506Y-88341352D01*
X116722972Y-88005818D01*
X116768237Y-87960848D01*
X116816612Y-87912969D01*
X116816680Y-87912901D01*
X116859635Y-87869737D01*
X116859815Y-87869553D01*
X116897809Y-87829795D01*
X116898117Y-87829461D01*
X116931626Y-87791783D01*
X116932058Y-87791270D01*
X116961557Y-87754349D01*
X116962075Y-87753653D01*
X116988040Y-87716163D01*
X116988578Y-87715317D01*
X117011484Y-87675933D01*
X117011968Y-87675016D01*
X117032292Y-87632414D01*
X117032676Y-87631523D01*
X117047819Y-87592332D01*
X117480449Y-87583875D01*
X117471992Y-88016504D01*
%TA.AperFunction,Conductor*%
D16*
G36*
X117471992Y-88016504D02*
G01*
X117432800Y-88031647D01*
X117431909Y-88032031D01*
X117389307Y-88052355D01*
X117388390Y-88052839D01*
X117349006Y-88075745D01*
X117348160Y-88076283D01*
X117310670Y-88102248D01*
X117309974Y-88102766D01*
X117273053Y-88132265D01*
X117272540Y-88132697D01*
X117234862Y-88166206D01*
X117234528Y-88166514D01*
X117194770Y-88204508D01*
X117194586Y-88204688D01*
X117151422Y-88247643D01*
X117151354Y-88247711D01*
X117103475Y-88296086D01*
X117058506Y-88341352D01*
X116722972Y-88005818D01*
X116768237Y-87960848D01*
X116816612Y-87912969D01*
X116816680Y-87912901D01*
X116859635Y-87869737D01*
X116859815Y-87869553D01*
X116897809Y-87829795D01*
X116898117Y-87829461D01*
X116931626Y-87791783D01*
X116932058Y-87791270D01*
X116961557Y-87754349D01*
X116962075Y-87753653D01*
X116988040Y-87716163D01*
X116988578Y-87715317D01*
X117011484Y-87675933D01*
X117011968Y-87675016D01*
X117032292Y-87632414D01*
X117032676Y-87631523D01*
X117047819Y-87592332D01*
X117480449Y-87583875D01*
X117471992Y-88016504D01*
G37*
%TD.AperFunction*%
%TD*%
D17*
%TO.N,/RTS*%
X112732516Y-93727954D02*
X112682741Y-93777056D01*
X112629992Y-93828042D01*
X112582734Y-93873505D01*
X112582654Y-93873582D01*
X112540367Y-93914983D01*
X112540160Y-93915191D01*
X112502268Y-93954044D01*
X112501924Y-93954411D01*
X112467850Y-93992234D01*
X112467393Y-93992771D01*
X112436559Y-94031078D01*
X112436043Y-94031765D01*
X112407871Y-94072072D01*
X112407367Y-94072852D01*
X112381282Y-94116676D01*
X112380850Y-94117465D01*
X112360113Y-94158690D01*
X111928789Y-94124274D01*
X111980042Y-93694567D01*
X112019450Y-93683491D01*
X112020498Y-93683147D01*
X112063737Y-93666830D01*
X112064833Y-93666357D01*
X112104966Y-93646728D01*
X112105993Y-93646165D01*
X112144254Y-93622859D01*
X112145115Y-93622286D01*
X112182738Y-93594936D01*
X112183387Y-93594431D01*
X112221605Y-93562672D01*
X112222047Y-93562286D01*
X112262093Y-93525752D01*
X112262361Y-93525501D01*
X112305470Y-93483826D01*
X112305602Y-93483697D01*
X112353008Y-93436517D01*
X112353039Y-93436485D01*
X112396994Y-93392432D01*
X112732516Y-93727954D01*
%TA.AperFunction,Conductor*%
D16*
G36*
X112732516Y-93727954D02*
G01*
X112682741Y-93777056D01*
X112629992Y-93828042D01*
X112582734Y-93873505D01*
X112582654Y-93873582D01*
X112540367Y-93914983D01*
X112540160Y-93915191D01*
X112502268Y-93954044D01*
X112501924Y-93954411D01*
X112467850Y-93992234D01*
X112467393Y-93992771D01*
X112436559Y-94031078D01*
X112436043Y-94031765D01*
X112407871Y-94072072D01*
X112407367Y-94072852D01*
X112381282Y-94116676D01*
X112380850Y-94117465D01*
X112360113Y-94158690D01*
X111928789Y-94124274D01*
X111980042Y-93694567D01*
X112019450Y-93683491D01*
X112020498Y-93683147D01*
X112063737Y-93666830D01*
X112064833Y-93666357D01*
X112104966Y-93646728D01*
X112105993Y-93646165D01*
X112144254Y-93622859D01*
X112145115Y-93622286D01*
X112182738Y-93594936D01*
X112183387Y-93594431D01*
X112221605Y-93562672D01*
X112222047Y-93562286D01*
X112262093Y-93525752D01*
X112262361Y-93525501D01*
X112305470Y-93483826D01*
X112305602Y-93483697D01*
X112353008Y-93436517D01*
X112353039Y-93436485D01*
X112396994Y-93392432D01*
X112732516Y-93727954D01*
G37*
%TD.AperFunction*%
%TD*%
D17*
%TO.N,/RTS*%
X123406678Y-86920000D02*
X122627278Y-87669512D01*
X122484928Y-87595103D01*
X122356855Y-87518890D01*
X122243939Y-87446227D01*
X122139558Y-87378594D01*
X122139157Y-87378344D01*
X122036671Y-87317227D01*
X122035804Y-87316755D01*
X121928485Y-87263588D01*
X121927237Y-87263051D01*
X121808323Y-87219243D01*
X121806905Y-87218813D01*
X121669633Y-87185775D01*
X121668279Y-87185525D01*
X121505889Y-87164668D01*
X121504746Y-87164574D01*
X121322700Y-87157766D01*
X121322700Y-86682234D01*
X121504746Y-86675425D01*
X121505889Y-86675331D01*
X121668279Y-86654474D01*
X121669633Y-86654224D01*
X121806905Y-86621186D01*
X121808323Y-86620756D01*
X121927237Y-86576948D01*
X121928485Y-86576411D01*
X122035804Y-86523244D01*
X122036671Y-86522772D01*
X122139157Y-86461655D01*
X122139558Y-86461405D01*
X122243939Y-86393772D01*
X122356855Y-86321109D01*
X122484928Y-86244896D01*
X122627278Y-86170488D01*
X123406678Y-86920000D01*
%TA.AperFunction,Conductor*%
D16*
G36*
X123406678Y-86920000D02*
G01*
X122627278Y-87669512D01*
X122484928Y-87595103D01*
X122356855Y-87518890D01*
X122243939Y-87446227D01*
X122139558Y-87378594D01*
X122139157Y-87378344D01*
X122036671Y-87317227D01*
X122035804Y-87316755D01*
X121928485Y-87263588D01*
X121927237Y-87263051D01*
X121808323Y-87219243D01*
X121806905Y-87218813D01*
X121669633Y-87185775D01*
X121668279Y-87185525D01*
X121505889Y-87164668D01*
X121504746Y-87164574D01*
X121322700Y-87157766D01*
X121322700Y-86682234D01*
X121504746Y-86675425D01*
X121505889Y-86675331D01*
X121668279Y-86654474D01*
X121669633Y-86654224D01*
X121806905Y-86621186D01*
X121808323Y-86620756D01*
X121927237Y-86576948D01*
X121928485Y-86576411D01*
X122035804Y-86523244D01*
X122036671Y-86522772D01*
X122139157Y-86461655D01*
X122139558Y-86461405D01*
X122243939Y-86393772D01*
X122356855Y-86321109D01*
X122484928Y-86244896D01*
X122627278Y-86170488D01*
X123406678Y-86920000D01*
G37*
%TD.AperFunction*%
%TD*%
M02*
