%TF.GenerationSoftware,KiCad,Pcbnew,(6.0.0)*%
%TF.CreationDate,2022-02-11T23:14:06+08:00*%
%TF.ProjectId,esp8266,65737038-3236-4362-9e6b-696361645f70,rev?*%
%TF.SameCoordinates,Original*%
%TF.FileFunction,Copper,L2,Inr*%
%TF.FilePolarity,Positive*%
%FSLAX46Y46*%
G04 Gerber Fmt 4.6, Leading zero omitted, Abs format (unit mm)*
G04 Created by KiCad (PCBNEW (6.0.0)) date 2022-02-11 23:14:06*
%MOMM*%
%LPD*%
G01*
G04 APERTURE LIST*
%TA.AperFunction,ComponentPad*%
%ADD10R,1.000000X1.000000*%
%TD*%
%TA.AperFunction,ComponentPad*%
%ADD11O,1.000000X1.000000*%
%TD*%
%TA.AperFunction,ComponentPad*%
%ADD12R,1.700000X1.700000*%
%TD*%
%TA.AperFunction,ComponentPad*%
%ADD13O,1.700000X1.700000*%
%TD*%
%TA.AperFunction,ViaPad*%
%ADD14C,0.400000*%
%TD*%
%TA.AperFunction,ViaPad*%
%ADD15C,0.800000*%
%TD*%
G04 APERTURE END LIST*
D10*
%TO.N,+3V3*%
%TO.C,J2*%
X129032000Y-151180000D03*
D11*
%TO.N,GND*%
X127762000Y-151180000D03*
%TO.N,/RST*%
X126492000Y-151180000D03*
%TO.N,/GPIO0*%
X125222000Y-151180000D03*
%TO.N,/TXD*%
X123952000Y-151180000D03*
%TO.N,/RXD*%
X122682000Y-151180000D03*
%TD*%
D12*
%TO.N,/GPIO16*%
%TO.C,J4*%
X118872000Y-115380000D03*
D13*
%TO.N,unconnected-(J4-Pad2)*%
X118872000Y-117920000D03*
%TO.N,/GPIO4*%
X118872000Y-120460000D03*
%TO.N,/GPIO0*%
X118872000Y-123000000D03*
%TO.N,/GPIO2*%
X118872000Y-125540000D03*
%TO.N,GND*%
X118872000Y-128080000D03*
%TO.N,+3V3*%
X118872000Y-130620000D03*
%TO.N,/MTMS*%
X118872000Y-133160000D03*
%TO.N,/MTDI*%
X118872000Y-135700000D03*
%TO.N,/MTCK*%
X118872000Y-138240000D03*
%TO.N,/MTDO*%
X118872000Y-140780000D03*
%TO.N,/RXD*%
X118872000Y-143320000D03*
%TO.N,/TXD*%
X118872000Y-145860000D03*
%TO.N,GND*%
X118872000Y-148400000D03*
%TO.N,+3V3*%
X118872000Y-150940000D03*
%TD*%
D12*
%TO.N,+3V3*%
%TO.C,J1*%
X135290666Y-150930000D03*
D13*
%TO.N,GND*%
X132750666Y-150930000D03*
%TD*%
D12*
%TO.N,/ADC_IN*%
%TO.C,J3*%
X139700000Y-115380000D03*
D13*
%TO.N,unconnected-(J3-Pad2)*%
X139700000Y-117920000D03*
%TO.N,unconnected-(J3-Pad3)*%
X139700000Y-120460000D03*
%TO.N,/SD3{slash}CS*%
X139700000Y-123000000D03*
%TO.N,/SD2{slash}GPIO9*%
X139700000Y-125540000D03*
%TO.N,/SD1{slash}INT*%
X139700000Y-128080000D03*
%TO.N,/CMD{slash}MOSI*%
X139700000Y-130620000D03*
%TO.N,/SD0{slash}MISO*%
X139700000Y-133160000D03*
%TO.N,/SCLK*%
X139700000Y-135700000D03*
%TO.N,GND*%
X139700000Y-138240000D03*
%TO.N,+3V3*%
X139700000Y-140780000D03*
%TO.N,unconnected-(J3-Pad12)*%
X139700000Y-143320000D03*
%TO.N,/RST*%
X139700000Y-145860000D03*
%TO.N,GND*%
X139700000Y-148400000D03*
%TO.N,+3V3*%
X139700000Y-150940000D03*
%TD*%
D14*
%TO.N,GND*%
X140826000Y-112960000D03*
X140226000Y-112960000D03*
X139626000Y-112960000D03*
X139026000Y-112960000D03*
X138426000Y-112960000D03*
X137826000Y-112960000D03*
X137226000Y-112960000D03*
X136626000Y-112960000D03*
X136026000Y-112960000D03*
X135426000Y-112960000D03*
X134826000Y-112960000D03*
X134226000Y-112960000D03*
X133626000Y-112960000D03*
X133026000Y-112960000D03*
X132426000Y-112960000D03*
X131826000Y-112960000D03*
X140826000Y-112360000D03*
X140226000Y-112360000D03*
X139626000Y-112360000D03*
X139026000Y-112360000D03*
X138426000Y-112360000D03*
X137826000Y-112360000D03*
X137226000Y-112360000D03*
X136626000Y-112360000D03*
X136026000Y-112360000D03*
X135426000Y-112360000D03*
X134826000Y-112360000D03*
X134226000Y-112360000D03*
X133626000Y-112360000D03*
X133026000Y-112360000D03*
X132426000Y-112360000D03*
X131826000Y-112360000D03*
X140826000Y-111760000D03*
X140226000Y-111760000D03*
X139626000Y-111760000D03*
X139026000Y-111760000D03*
X138426000Y-111760000D03*
X137826000Y-111760000D03*
X137226000Y-111760000D03*
X136626000Y-111760000D03*
X136026000Y-111760000D03*
X135426000Y-111760000D03*
X134826000Y-111760000D03*
X134226000Y-111760000D03*
X133626000Y-111760000D03*
X133026000Y-111760000D03*
X132426000Y-111760000D03*
X131826000Y-111760000D03*
X126640592Y-112958957D03*
X125949635Y-112394304D03*
X126031361Y-112936668D03*
X125407271Y-112966386D03*
X125377552Y-112357155D03*
X124802000Y-112960000D03*
X124202000Y-112960000D03*
X123602000Y-112960000D03*
X123002000Y-112960000D03*
X122402000Y-112960000D03*
X121802000Y-112960000D03*
X121202000Y-112960000D03*
X120602000Y-112960000D03*
X120002000Y-112960000D03*
X119402000Y-112960000D03*
X118802000Y-112960000D03*
X118202000Y-112960000D03*
X117602000Y-112960000D03*
X124802000Y-112360000D03*
X124202000Y-112360000D03*
X123602000Y-112360000D03*
X123002000Y-112360000D03*
X122402000Y-112360000D03*
X121802000Y-112360000D03*
X121202000Y-112360000D03*
X120602000Y-112360000D03*
X120002000Y-112360000D03*
X119402000Y-112360000D03*
X118802000Y-112360000D03*
X118202000Y-112360000D03*
X117602000Y-112360000D03*
X124802000Y-111760000D03*
X124202000Y-111760000D03*
X123602000Y-111760000D03*
X123002000Y-111760000D03*
X122402000Y-111760000D03*
X121802000Y-111760000D03*
X121202000Y-111760000D03*
X120602000Y-111760000D03*
X120002000Y-111760000D03*
X119402000Y-111760000D03*
X118802000Y-111760000D03*
X118202000Y-111760000D03*
X117602000Y-111760000D03*
%TO.N,/RXD*%
X132261095Y-127450117D03*
%TO.N,/TXD*%
X132842000Y-127424736D03*
%TO.N,GND*%
X135893723Y-118253477D03*
X136369221Y-118268336D03*
X136874437Y-118263383D03*
X134853572Y-118248524D03*
X134318638Y-118263383D03*
X133872859Y-118917192D03*
X133858000Y-119634000D03*
X133799177Y-120548606D03*
X133814036Y-121103353D03*
X133828896Y-121653147D03*
X133903192Y-122193035D03*
X134012160Y-122718063D03*
X134334112Y-123104405D03*
X136770356Y-123164619D03*
X137100562Y-122831111D03*
X137414000Y-122428000D03*
X137414000Y-121920000D03*
X137414000Y-121412000D03*
X137414000Y-120904000D03*
X137414000Y-120396000D03*
X137414000Y-119888000D03*
X137414000Y-119380000D03*
X137414000Y-118872000D03*
X137412532Y-118281815D03*
%TO.N,/RST*%
X137922000Y-117856000D03*
D15*
%TO.N,+3V3*%
X134112000Y-124460000D03*
X129794000Y-124460000D03*
X128524000Y-129794000D03*
X130810000Y-129794000D03*
X129794000Y-129032000D03*
D14*
%TO.N,/CMD{slash}MOSI*%
X136652000Y-130556000D03*
%TO.N,/SD2{slash}GPIO9*%
X129286000Y-122936000D03*
%TO.N,/SD1{slash}INT*%
X131631112Y-123264004D03*
%TO.N,/SD0{slash}MISO*%
X131092523Y-123493530D03*
%TO.N,/SCLK*%
X130628935Y-123927051D03*
%TO.N,/CMD{slash}MOSI*%
X130131424Y-123190000D03*
%TO.N,/SD3{slash}CS*%
X129620641Y-122236221D03*
%TO.N,/ADC_IN*%
X138430000Y-113538000D03*
X129794000Y-115570000D03*
D15*
%TO.N,GND*%
X127762000Y-111506000D03*
X126646938Y-112060487D03*
X125476000Y-111506000D03*
D14*
%TO.N,/GPIO2*%
X123698000Y-124714000D03*
%TO.N,/MTDI*%
X120904000Y-119888000D03*
%TO.N,/MTMS*%
X127185695Y-116765722D03*
X120650000Y-118872000D03*
%TO.N,/GPIO0*%
X125222000Y-124714000D03*
%TO.N,/GPIO4*%
X127508000Y-121158000D03*
D15*
%TO.N,+3V3*%
X124194000Y-123640000D03*
D14*
%TO.N,GND*%
X126470000Y-119720000D03*
X125870000Y-119720000D03*
X125250000Y-119730000D03*
%TO.N,/GPIO16*%
X128720000Y-124360000D03*
%TO.N,GND*%
X131590000Y-120120000D03*
X130990000Y-120120000D03*
X130390000Y-120120000D03*
X129790000Y-120120000D03*
X129190000Y-120120000D03*
X131590000Y-119520000D03*
X130990000Y-119520000D03*
X130390000Y-119520000D03*
X129790000Y-119520000D03*
X129190000Y-119520000D03*
X131590000Y-118920000D03*
X130990000Y-118920000D03*
X130390000Y-118920000D03*
X129790000Y-118920000D03*
X129190000Y-118920000D03*
X131590000Y-118320000D03*
X130990000Y-118320000D03*
X130390000Y-118320000D03*
X129790000Y-118320000D03*
X129190000Y-118320000D03*
X131590000Y-117720000D03*
X130990000Y-117720000D03*
X130390000Y-117720000D03*
X129790000Y-117720000D03*
X129190000Y-117720000D03*
D15*
%TO.N,+3V3*%
X127540000Y-124450000D03*
X124650000Y-127360000D03*
D14*
%TO.N,/GPIO16*%
X127930000Y-116440000D03*
D15*
%TO.N,+3V3*%
X137900000Y-116600000D03*
X133570000Y-118310000D03*
X134000000Y-114700000D03*
X127020000Y-118140500D03*
X130820000Y-115610500D03*
X121700000Y-114300000D03*
X132730378Y-116170378D03*
X128524000Y-122220000D03*
X128024006Y-112800000D03*
D14*
%TO.N,/RST*%
X133300000Y-116700000D03*
X135695027Y-116155676D03*
%TO.N,/MTDI*%
X124206000Y-119634000D03*
X127190000Y-117390000D03*
%TD*%
%TA.AperFunction,Conductor*%
%TO.N,GND*%
G36*
X141559305Y-111118907D02*
G01*
X141595269Y-111168407D01*
X141600114Y-111198885D01*
X141649886Y-154450886D01*
X141631046Y-154509099D01*
X141581587Y-154545119D01*
X141550886Y-154550000D01*
X116899000Y-154550000D01*
X116840809Y-154531093D01*
X116804845Y-154481593D01*
X116800000Y-154451000D01*
X116800000Y-150925262D01*
X117816520Y-150925262D01*
X117816925Y-150930082D01*
X117830831Y-151095680D01*
X117833759Y-151130553D01*
X117890544Y-151328586D01*
X117984712Y-151511818D01*
X118112677Y-151673270D01*
X118116357Y-151676402D01*
X118116359Y-151676404D01*
X118208934Y-151755191D01*
X118269564Y-151806791D01*
X118273787Y-151809151D01*
X118273791Y-151809154D01*
X118376114Y-151866340D01*
X118449398Y-151907297D01*
X118453996Y-151908791D01*
X118640724Y-151969463D01*
X118640726Y-151969464D01*
X118645329Y-151970959D01*
X118849894Y-151995351D01*
X118854716Y-151994980D01*
X118854719Y-151994980D01*
X118922541Y-151989761D01*
X119055300Y-151979546D01*
X119253725Y-151924145D01*
X119258038Y-151921966D01*
X119258044Y-151921964D01*
X119433289Y-151833441D01*
X119433291Y-151833440D01*
X119437610Y-151831258D01*
X119441427Y-151828276D01*
X119596135Y-151707406D01*
X119596139Y-151707402D01*
X119599951Y-151704424D01*
X119603988Y-151699748D01*
X119679524Y-151612237D01*
X119734564Y-151548472D01*
X119736957Y-151544260D01*
X119833934Y-151373550D01*
X119833935Y-151373547D01*
X119836323Y-151369344D01*
X119838556Y-151362634D01*
X119899824Y-151178454D01*
X119899824Y-151178452D01*
X119901351Y-151173863D01*
X119901509Y-151172611D01*
X121976394Y-151172611D01*
X121977049Y-151178544D01*
X121977049Y-151178548D01*
X121994089Y-151332896D01*
X121994999Y-151341135D01*
X122053266Y-151500356D01*
X122056591Y-151505305D01*
X122056592Y-151505306D01*
X122082768Y-151544260D01*
X122147830Y-151641083D01*
X122273233Y-151755191D01*
X122422235Y-151836092D01*
X122481680Y-151851687D01*
X122580464Y-151877603D01*
X122580468Y-151877604D01*
X122586233Y-151879116D01*
X122592194Y-151879210D01*
X122592197Y-151879210D01*
X122670965Y-151880447D01*
X122755760Y-151881779D01*
X122761575Y-151880447D01*
X122761577Y-151880447D01*
X122915206Y-151845262D01*
X122915209Y-151845261D01*
X122921029Y-151843928D01*
X122936610Y-151836092D01*
X123018530Y-151794890D01*
X123072498Y-151767747D01*
X123077035Y-151763872D01*
X123077038Y-151763870D01*
X123196888Y-151661508D01*
X123196891Y-151661505D01*
X123201423Y-151657634D01*
X123213316Y-151641083D01*
X123235879Y-151609684D01*
X123285189Y-151573461D01*
X123346374Y-151573140D01*
X123398446Y-151612237D01*
X123417830Y-151641083D01*
X123543233Y-151755191D01*
X123692235Y-151836092D01*
X123751680Y-151851687D01*
X123850464Y-151877603D01*
X123850468Y-151877604D01*
X123856233Y-151879116D01*
X123862194Y-151879210D01*
X123862197Y-151879210D01*
X123940965Y-151880447D01*
X124025760Y-151881779D01*
X124031575Y-151880447D01*
X124031577Y-151880447D01*
X124185206Y-151845262D01*
X124185209Y-151845261D01*
X124191029Y-151843928D01*
X124206610Y-151836092D01*
X124288530Y-151794890D01*
X124342498Y-151767747D01*
X124347035Y-151763872D01*
X124347038Y-151763870D01*
X124466888Y-151661508D01*
X124466891Y-151661505D01*
X124471423Y-151657634D01*
X124483316Y-151641083D01*
X124505879Y-151609684D01*
X124555189Y-151573461D01*
X124616374Y-151573140D01*
X124668446Y-151612237D01*
X124687830Y-151641083D01*
X124813233Y-151755191D01*
X124962235Y-151836092D01*
X125021680Y-151851687D01*
X125120464Y-151877603D01*
X125120468Y-151877604D01*
X125126233Y-151879116D01*
X125132194Y-151879210D01*
X125132197Y-151879210D01*
X125210965Y-151880447D01*
X125295760Y-151881779D01*
X125301575Y-151880447D01*
X125301577Y-151880447D01*
X125455206Y-151845262D01*
X125455209Y-151845261D01*
X125461029Y-151843928D01*
X125476610Y-151836092D01*
X125558530Y-151794890D01*
X125612498Y-151767747D01*
X125617035Y-151763872D01*
X125617038Y-151763870D01*
X125736888Y-151661508D01*
X125736891Y-151661505D01*
X125741423Y-151657634D01*
X125753316Y-151641083D01*
X125775879Y-151609684D01*
X125825189Y-151573461D01*
X125886374Y-151573140D01*
X125938446Y-151612237D01*
X125957830Y-151641083D01*
X126083233Y-151755191D01*
X126232235Y-151836092D01*
X126291680Y-151851687D01*
X126390464Y-151877603D01*
X126390468Y-151877604D01*
X126396233Y-151879116D01*
X126402194Y-151879210D01*
X126402197Y-151879210D01*
X126480965Y-151880447D01*
X126565760Y-151881779D01*
X126571575Y-151880447D01*
X126571577Y-151880447D01*
X126725206Y-151845262D01*
X126725209Y-151845261D01*
X126731029Y-151843928D01*
X126746610Y-151836092D01*
X126828530Y-151794890D01*
X126882498Y-151767747D01*
X126887035Y-151763872D01*
X126887038Y-151763870D01*
X126989494Y-151676363D01*
X126995205Y-151671486D01*
X127051732Y-151648071D01*
X127111227Y-151662354D01*
X127130715Y-151677995D01*
X127244990Y-151796330D01*
X127253463Y-151803340D01*
X127394390Y-151895560D01*
X127404198Y-151900514D01*
X127562051Y-151959219D01*
X127572727Y-151961880D01*
X127596456Y-151965046D01*
X127609576Y-151962638D01*
X127610783Y-151961371D01*
X127612000Y-151956015D01*
X127612000Y-151954020D01*
X127912000Y-151954020D01*
X127916122Y-151966705D01*
X127918437Y-151968388D01*
X127920703Y-151968642D01*
X127929138Y-151966910D01*
X128089310Y-151914868D01*
X128099333Y-151910321D01*
X128243989Y-151824088D01*
X128257157Y-151814093D01*
X128258687Y-151816109D01*
X128304757Y-151794071D01*
X128364930Y-151805154D01*
X128383980Y-151819362D01*
X128387448Y-151824552D01*
X128453769Y-151868867D01*
X128463332Y-151870769D01*
X128463334Y-151870770D01*
X128486005Y-151875279D01*
X128512252Y-151880500D01*
X129551748Y-151880500D01*
X129577995Y-151875279D01*
X129600666Y-151870770D01*
X129600668Y-151870769D01*
X129610231Y-151868867D01*
X129676552Y-151824552D01*
X129720867Y-151758231D01*
X129723866Y-151743157D01*
X129727279Y-151725995D01*
X129732500Y-151699748D01*
X129732500Y-151089405D01*
X131608564Y-151089405D01*
X131609661Y-151106145D01*
X131611074Y-151115064D01*
X131660866Y-151311121D01*
X131663886Y-151319649D01*
X131748570Y-151503341D01*
X131753088Y-151511167D01*
X131869837Y-151676363D01*
X131875701Y-151683229D01*
X132020597Y-151824381D01*
X132027620Y-151830068D01*
X132195804Y-151942446D01*
X132203759Y-151946764D01*
X132389595Y-152026606D01*
X132398206Y-152029404D01*
X132590496Y-152072914D01*
X132597833Y-152070840D01*
X132600453Y-152067514D01*
X132600666Y-152066317D01*
X132600666Y-152054679D01*
X132900666Y-152054679D01*
X132904788Y-152067364D01*
X132905958Y-152068215D01*
X132911938Y-152068725D01*
X133015781Y-152053668D01*
X133024580Y-152051556D01*
X133216116Y-151986538D01*
X133224380Y-151982858D01*
X133400860Y-151884026D01*
X133408318Y-151878900D01*
X133503488Y-151799748D01*
X134240166Y-151799748D01*
X134243487Y-151816442D01*
X134246829Y-151833243D01*
X134251799Y-151858231D01*
X134296114Y-151924552D01*
X134362435Y-151968867D01*
X134371998Y-151970769D01*
X134372000Y-151970770D01*
X134394671Y-151975279D01*
X134420918Y-151980500D01*
X136160414Y-151980500D01*
X136186661Y-151975279D01*
X136209332Y-151970770D01*
X136209334Y-151970769D01*
X136218897Y-151968867D01*
X136285218Y-151924552D01*
X136329533Y-151858231D01*
X136334504Y-151833243D01*
X136337845Y-151816442D01*
X136341166Y-151799748D01*
X136341166Y-150925262D01*
X138644520Y-150925262D01*
X138644925Y-150930082D01*
X138658831Y-151095680D01*
X138661759Y-151130553D01*
X138718544Y-151328586D01*
X138812712Y-151511818D01*
X138940677Y-151673270D01*
X138944357Y-151676402D01*
X138944359Y-151676404D01*
X139036934Y-151755191D01*
X139097564Y-151806791D01*
X139101787Y-151809151D01*
X139101791Y-151809154D01*
X139204114Y-151866340D01*
X139277398Y-151907297D01*
X139281996Y-151908791D01*
X139468724Y-151969463D01*
X139468726Y-151969464D01*
X139473329Y-151970959D01*
X139677894Y-151995351D01*
X139682716Y-151994980D01*
X139682719Y-151994980D01*
X139750541Y-151989761D01*
X139883300Y-151979546D01*
X140081725Y-151924145D01*
X140086038Y-151921966D01*
X140086044Y-151921964D01*
X140261289Y-151833441D01*
X140261291Y-151833440D01*
X140265610Y-151831258D01*
X140269427Y-151828276D01*
X140424135Y-151707406D01*
X140424139Y-151707402D01*
X140427951Y-151704424D01*
X140431988Y-151699748D01*
X140507524Y-151612237D01*
X140562564Y-151548472D01*
X140564957Y-151544260D01*
X140661934Y-151373550D01*
X140661935Y-151373547D01*
X140664323Y-151369344D01*
X140666556Y-151362634D01*
X140727824Y-151178454D01*
X140727824Y-151178452D01*
X140729351Y-151173863D01*
X140755171Y-150969474D01*
X140755583Y-150940000D01*
X140749643Y-150879416D01*
X140735952Y-150739780D01*
X140735951Y-150739776D01*
X140735480Y-150734970D01*
X140732183Y-150724048D01*
X140677333Y-150542380D01*
X140675935Y-150537749D01*
X140579218Y-150355849D01*
X140449011Y-150196200D01*
X140406268Y-150160840D01*
X140294002Y-150067965D01*
X140294000Y-150067964D01*
X140290275Y-150064882D01*
X140109055Y-149966897D01*
X139989954Y-149930029D01*
X139916875Y-149907407D01*
X139916871Y-149907406D01*
X139912254Y-149905977D01*
X139907446Y-149905472D01*
X139907443Y-149905471D01*
X139712185Y-149884949D01*
X139712183Y-149884949D01*
X139707369Y-149884443D01*
X139654767Y-149889230D01*
X139507022Y-149902675D01*
X139507017Y-149902676D01*
X139502203Y-149903114D01*
X139304572Y-149961280D01*
X139300288Y-149963519D01*
X139300287Y-149963520D01*
X139289428Y-149969197D01*
X139122002Y-150056726D01*
X139118231Y-150059758D01*
X138965220Y-150182781D01*
X138965217Y-150182783D01*
X138961447Y-150185815D01*
X138958333Y-150189526D01*
X138958332Y-150189527D01*
X138949585Y-150199952D01*
X138829024Y-150343630D01*
X138826689Y-150347878D01*
X138826688Y-150347879D01*
X138819955Y-150360126D01*
X138729776Y-150524162D01*
X138728313Y-150528775D01*
X138728311Y-150528779D01*
X138688117Y-150655488D01*
X138667484Y-150720532D01*
X138666944Y-150725344D01*
X138666944Y-150725345D01*
X138660814Y-150780000D01*
X138644520Y-150925262D01*
X136341166Y-150925262D01*
X136341166Y-150060252D01*
X136329533Y-150001769D01*
X136285218Y-149935448D01*
X136218897Y-149891133D01*
X136209334Y-149889231D01*
X136209332Y-149889230D01*
X136185264Y-149884443D01*
X136160414Y-149879500D01*
X134420918Y-149879500D01*
X134396068Y-149884443D01*
X134372000Y-149889230D01*
X134371998Y-149889231D01*
X134362435Y-149891133D01*
X134296114Y-149935448D01*
X134251799Y-150001769D01*
X134240166Y-150060252D01*
X134240166Y-151799748D01*
X133503488Y-151799748D01*
X133563823Y-151749568D01*
X133570234Y-151743157D01*
X133699566Y-151587652D01*
X133704692Y-151580194D01*
X133803524Y-151403714D01*
X133807204Y-151395450D01*
X133872222Y-151203914D01*
X133874334Y-151195115D01*
X133888775Y-151095518D01*
X133886516Y-151082372D01*
X133885481Y-151081363D01*
X133879634Y-151080000D01*
X132916346Y-151080000D01*
X132903661Y-151084122D01*
X132900666Y-151088243D01*
X132900666Y-152054679D01*
X132600666Y-152054679D01*
X132600666Y-151095680D01*
X132596544Y-151082995D01*
X132592423Y-151080000D01*
X131623628Y-151080000D01*
X131610943Y-151084122D01*
X131608868Y-151086978D01*
X131608564Y-151089405D01*
X129732500Y-151089405D01*
X129732500Y-150764428D01*
X131612153Y-150764428D01*
X131614756Y-150777511D01*
X131616329Y-150778965D01*
X131621044Y-150780000D01*
X132584986Y-150780000D01*
X132597671Y-150775878D01*
X132600666Y-150771757D01*
X132600666Y-150764320D01*
X132900666Y-150764320D01*
X132904788Y-150777005D01*
X132908909Y-150780000D01*
X133876130Y-150780000D01*
X133888815Y-150775878D01*
X133890484Y-150773582D01*
X133890888Y-150769966D01*
X133886669Y-150724048D01*
X133885022Y-150715164D01*
X133830115Y-150520481D01*
X133826874Y-150512037D01*
X133737411Y-150330624D01*
X133732686Y-150322914D01*
X133611660Y-150160840D01*
X133605611Y-150154122D01*
X133457071Y-150016814D01*
X133449906Y-150011315D01*
X133278829Y-149903374D01*
X133270776Y-149899271D01*
X133082895Y-149824314D01*
X133074237Y-149821749D01*
X132916045Y-149790283D01*
X132902798Y-149791851D01*
X132902766Y-149791881D01*
X132900666Y-149799928D01*
X132900666Y-150764320D01*
X132600666Y-150764320D01*
X132600666Y-149804517D01*
X132596544Y-149791832D01*
X132595940Y-149791393D01*
X132588793Y-149790877D01*
X132456225Y-149813657D01*
X132447489Y-149815998D01*
X132257716Y-149886009D01*
X132249553Y-149889902D01*
X132075713Y-149993326D01*
X132068411Y-149998631D01*
X131916323Y-150132010D01*
X131910100Y-150138568D01*
X131784875Y-150297415D01*
X131779950Y-150304998D01*
X131685763Y-150484018D01*
X131682309Y-150492358D01*
X131622324Y-150685538D01*
X131620443Y-150694389D01*
X131612153Y-150764428D01*
X129732500Y-150764428D01*
X129732500Y-150660252D01*
X129720867Y-150601769D01*
X129676552Y-150535448D01*
X129610231Y-150491133D01*
X129600668Y-150489231D01*
X129600666Y-150489230D01*
X129577995Y-150484721D01*
X129551748Y-150479500D01*
X128512252Y-150479500D01*
X128486005Y-150484721D01*
X128463334Y-150489230D01*
X128463332Y-150489231D01*
X128453769Y-150491133D01*
X128387448Y-150535448D01*
X128384857Y-150539326D01*
X128333203Y-150565644D01*
X128272771Y-150556073D01*
X128264669Y-150551452D01*
X128119584Y-150459378D01*
X128109704Y-150454559D01*
X127951048Y-150398064D01*
X127940346Y-150395554D01*
X127927569Y-150394031D01*
X127914484Y-150396621D01*
X127913046Y-150398175D01*
X127912000Y-150402931D01*
X127912000Y-151954020D01*
X127612000Y-151954020D01*
X127612000Y-150406994D01*
X127607878Y-150394309D01*
X127605863Y-150392844D01*
X127601652Y-150392402D01*
X127594627Y-150393140D01*
X127583886Y-150395502D01*
X127424464Y-150449773D01*
X127414504Y-150454460D01*
X127271069Y-150542701D01*
X127262401Y-150549473D01*
X127142075Y-150667306D01*
X127134868Y-150676143D01*
X127083439Y-150709289D01*
X127022349Y-150705875D01*
X126992291Y-150687492D01*
X126894721Y-150600560D01*
X126744881Y-150521224D01*
X126646659Y-150496552D01*
X126586231Y-150481373D01*
X126586228Y-150481373D01*
X126580441Y-150479919D01*
X126494841Y-150479471D01*
X126416861Y-150479062D01*
X126416859Y-150479062D01*
X126410895Y-150479031D01*
X126405099Y-150480423D01*
X126405095Y-150480423D01*
X126337916Y-150496552D01*
X126246032Y-150518612D01*
X126197700Y-150543558D01*
X126100675Y-150593636D01*
X126100673Y-150593638D01*
X126095369Y-150596375D01*
X125967604Y-150707831D01*
X125964174Y-150712712D01*
X125964170Y-150712716D01*
X125938236Y-150749616D01*
X125889307Y-150786353D01*
X125828129Y-150787313D01*
X125775653Y-150748766D01*
X125751312Y-150713349D01*
X125624721Y-150600560D01*
X125474881Y-150521224D01*
X125376659Y-150496552D01*
X125316231Y-150481373D01*
X125316228Y-150481373D01*
X125310441Y-150479919D01*
X125224841Y-150479471D01*
X125146861Y-150479062D01*
X125146859Y-150479062D01*
X125140895Y-150479031D01*
X125135099Y-150480423D01*
X125135095Y-150480423D01*
X125067916Y-150496552D01*
X124976032Y-150518612D01*
X124927700Y-150543558D01*
X124830675Y-150593636D01*
X124830673Y-150593638D01*
X124825369Y-150596375D01*
X124697604Y-150707831D01*
X124694174Y-150712712D01*
X124694170Y-150712716D01*
X124668236Y-150749616D01*
X124619307Y-150786353D01*
X124558129Y-150787313D01*
X124505653Y-150748766D01*
X124481312Y-150713349D01*
X124354721Y-150600560D01*
X124204881Y-150521224D01*
X124106659Y-150496552D01*
X124046231Y-150481373D01*
X124046228Y-150481373D01*
X124040441Y-150479919D01*
X123954841Y-150479471D01*
X123876861Y-150479062D01*
X123876859Y-150479062D01*
X123870895Y-150479031D01*
X123865099Y-150480423D01*
X123865095Y-150480423D01*
X123797916Y-150496552D01*
X123706032Y-150518612D01*
X123657700Y-150543558D01*
X123560675Y-150593636D01*
X123560673Y-150593638D01*
X123555369Y-150596375D01*
X123427604Y-150707831D01*
X123424174Y-150712712D01*
X123424170Y-150712716D01*
X123398236Y-150749616D01*
X123349307Y-150786353D01*
X123288129Y-150787313D01*
X123235653Y-150748766D01*
X123211312Y-150713349D01*
X123084721Y-150600560D01*
X122934881Y-150521224D01*
X122836659Y-150496552D01*
X122776231Y-150481373D01*
X122776228Y-150481373D01*
X122770441Y-150479919D01*
X122684841Y-150479471D01*
X122606861Y-150479062D01*
X122606859Y-150479062D01*
X122600895Y-150479031D01*
X122595099Y-150480423D01*
X122595095Y-150480423D01*
X122527916Y-150496552D01*
X122436032Y-150518612D01*
X122387700Y-150543558D01*
X122290675Y-150593636D01*
X122290673Y-150593638D01*
X122285369Y-150596375D01*
X122157604Y-150707831D01*
X122154173Y-150712713D01*
X122154172Y-150712714D01*
X122109780Y-150775878D01*
X122060113Y-150846547D01*
X122057945Y-150852108D01*
X122011112Y-150972228D01*
X121998524Y-151004513D01*
X121976394Y-151172611D01*
X119901509Y-151172611D01*
X119927171Y-150969474D01*
X119927583Y-150940000D01*
X119921643Y-150879416D01*
X119907952Y-150739780D01*
X119907951Y-150739776D01*
X119907480Y-150734970D01*
X119904183Y-150724048D01*
X119849333Y-150542380D01*
X119847935Y-150537749D01*
X119751218Y-150355849D01*
X119621011Y-150196200D01*
X119578268Y-150160840D01*
X119466002Y-150067965D01*
X119466000Y-150067964D01*
X119462275Y-150064882D01*
X119281055Y-149966897D01*
X119161954Y-149930029D01*
X119088875Y-149907407D01*
X119088871Y-149907406D01*
X119084254Y-149905977D01*
X119079446Y-149905472D01*
X119079443Y-149905471D01*
X118884185Y-149884949D01*
X118884183Y-149884949D01*
X118879369Y-149884443D01*
X118826767Y-149889230D01*
X118679022Y-149902675D01*
X118679017Y-149902676D01*
X118674203Y-149903114D01*
X118476572Y-149961280D01*
X118472288Y-149963519D01*
X118472287Y-149963520D01*
X118461428Y-149969197D01*
X118294002Y-150056726D01*
X118290231Y-150059758D01*
X118137220Y-150182781D01*
X118137217Y-150182783D01*
X118133447Y-150185815D01*
X118130333Y-150189526D01*
X118130332Y-150189527D01*
X118121585Y-150199952D01*
X118001024Y-150343630D01*
X117998689Y-150347878D01*
X117998688Y-150347879D01*
X117991955Y-150360126D01*
X117901776Y-150524162D01*
X117900313Y-150528775D01*
X117900311Y-150528779D01*
X117860117Y-150655488D01*
X117839484Y-150720532D01*
X117838944Y-150725344D01*
X117838944Y-150725345D01*
X117832814Y-150780000D01*
X117816520Y-150925262D01*
X116800000Y-150925262D01*
X116800000Y-148559405D01*
X117729898Y-148559405D01*
X117730995Y-148576145D01*
X117732408Y-148585064D01*
X117782200Y-148781121D01*
X117785220Y-148789649D01*
X117869904Y-148973341D01*
X117874422Y-148981167D01*
X117991171Y-149146363D01*
X117997035Y-149153229D01*
X118141931Y-149294381D01*
X118148954Y-149300068D01*
X118317138Y-149412446D01*
X118325093Y-149416764D01*
X118510929Y-149496606D01*
X118519540Y-149499404D01*
X118711830Y-149542914D01*
X118719167Y-149540840D01*
X118721787Y-149537514D01*
X118722000Y-149536317D01*
X118722000Y-149524679D01*
X119022000Y-149524679D01*
X119026122Y-149537364D01*
X119027292Y-149538215D01*
X119033272Y-149538725D01*
X119137115Y-149523668D01*
X119145914Y-149521556D01*
X119337450Y-149456538D01*
X119345714Y-149452858D01*
X119522194Y-149354026D01*
X119529652Y-149348900D01*
X119685157Y-149219568D01*
X119691568Y-149213157D01*
X119820900Y-149057652D01*
X119826026Y-149050194D01*
X119924858Y-148873714D01*
X119928538Y-148865450D01*
X119993556Y-148673914D01*
X119995668Y-148665115D01*
X120010109Y-148565518D01*
X120009059Y-148559405D01*
X138557898Y-148559405D01*
X138558995Y-148576145D01*
X138560408Y-148585064D01*
X138610200Y-148781121D01*
X138613220Y-148789649D01*
X138697904Y-148973341D01*
X138702422Y-148981167D01*
X138819171Y-149146363D01*
X138825035Y-149153229D01*
X138969931Y-149294381D01*
X138976954Y-149300068D01*
X139145138Y-149412446D01*
X139153093Y-149416764D01*
X139338929Y-149496606D01*
X139347540Y-149499404D01*
X139539830Y-149542914D01*
X139547167Y-149540840D01*
X139549787Y-149537514D01*
X139550000Y-149536317D01*
X139550000Y-149524679D01*
X139850000Y-149524679D01*
X139854122Y-149537364D01*
X139855292Y-149538215D01*
X139861272Y-149538725D01*
X139965115Y-149523668D01*
X139973914Y-149521556D01*
X140165450Y-149456538D01*
X140173714Y-149452858D01*
X140350194Y-149354026D01*
X140357652Y-149348900D01*
X140513157Y-149219568D01*
X140519568Y-149213157D01*
X140648900Y-149057652D01*
X140654026Y-149050194D01*
X140752858Y-148873714D01*
X140756538Y-148865450D01*
X140821556Y-148673914D01*
X140823668Y-148665115D01*
X140838109Y-148565518D01*
X140835850Y-148552372D01*
X140834815Y-148551363D01*
X140828968Y-148550000D01*
X139865680Y-148550000D01*
X139852995Y-148554122D01*
X139850000Y-148558243D01*
X139850000Y-149524679D01*
X139550000Y-149524679D01*
X139550000Y-148565680D01*
X139545878Y-148552995D01*
X139541757Y-148550000D01*
X138572962Y-148550000D01*
X138560277Y-148554122D01*
X138558202Y-148556978D01*
X138557898Y-148559405D01*
X120009059Y-148559405D01*
X120007850Y-148552372D01*
X120006815Y-148551363D01*
X120000968Y-148550000D01*
X119037680Y-148550000D01*
X119024995Y-148554122D01*
X119022000Y-148558243D01*
X119022000Y-149524679D01*
X118722000Y-149524679D01*
X118722000Y-148565680D01*
X118717878Y-148552995D01*
X118713757Y-148550000D01*
X117744962Y-148550000D01*
X117732277Y-148554122D01*
X117730202Y-148556978D01*
X117729898Y-148559405D01*
X116800000Y-148559405D01*
X116800000Y-148234428D01*
X117733487Y-148234428D01*
X117736090Y-148247511D01*
X117737663Y-148248965D01*
X117742378Y-148250000D01*
X118706320Y-148250000D01*
X118719005Y-148245878D01*
X118722000Y-148241757D01*
X118722000Y-148234320D01*
X119022000Y-148234320D01*
X119026122Y-148247005D01*
X119030243Y-148250000D01*
X119997464Y-148250000D01*
X120010149Y-148245878D01*
X120011818Y-148243582D01*
X120012222Y-148239966D01*
X120011713Y-148234428D01*
X138561487Y-148234428D01*
X138564090Y-148247511D01*
X138565663Y-148248965D01*
X138570378Y-148250000D01*
X139534320Y-148250000D01*
X139547005Y-148245878D01*
X139550000Y-148241757D01*
X139550000Y-148234320D01*
X139850000Y-148234320D01*
X139854122Y-148247005D01*
X139858243Y-148250000D01*
X140825464Y-148250000D01*
X140838149Y-148245878D01*
X140839818Y-148243582D01*
X140840222Y-148239966D01*
X140836003Y-148194048D01*
X140834356Y-148185164D01*
X140779449Y-147990481D01*
X140776208Y-147982037D01*
X140686745Y-147800624D01*
X140682020Y-147792914D01*
X140560994Y-147630840D01*
X140554945Y-147624122D01*
X140406405Y-147486814D01*
X140399240Y-147481315D01*
X140228163Y-147373374D01*
X140220110Y-147369271D01*
X140032229Y-147294314D01*
X140023571Y-147291749D01*
X139865379Y-147260283D01*
X139852132Y-147261851D01*
X139852100Y-147261881D01*
X139850000Y-147269928D01*
X139850000Y-148234320D01*
X139550000Y-148234320D01*
X139550000Y-147274517D01*
X139545878Y-147261832D01*
X139545274Y-147261393D01*
X139538127Y-147260877D01*
X139405559Y-147283657D01*
X139396823Y-147285998D01*
X139207050Y-147356009D01*
X139198887Y-147359902D01*
X139025047Y-147463326D01*
X139017745Y-147468631D01*
X138865657Y-147602010D01*
X138859434Y-147608568D01*
X138734209Y-147767415D01*
X138729284Y-147774998D01*
X138635097Y-147954018D01*
X138631643Y-147962358D01*
X138571658Y-148155538D01*
X138569777Y-148164389D01*
X138561487Y-148234428D01*
X120011713Y-148234428D01*
X120008003Y-148194048D01*
X120006356Y-148185164D01*
X119951449Y-147990481D01*
X119948208Y-147982037D01*
X119858745Y-147800624D01*
X119854020Y-147792914D01*
X119732994Y-147630840D01*
X119726945Y-147624122D01*
X119578405Y-147486814D01*
X119571240Y-147481315D01*
X119400163Y-147373374D01*
X119392110Y-147369271D01*
X119204229Y-147294314D01*
X119195571Y-147291749D01*
X119037379Y-147260283D01*
X119024132Y-147261851D01*
X119024100Y-147261881D01*
X119022000Y-147269928D01*
X119022000Y-148234320D01*
X118722000Y-148234320D01*
X118722000Y-147274517D01*
X118717878Y-147261832D01*
X118717274Y-147261393D01*
X118710127Y-147260877D01*
X118577559Y-147283657D01*
X118568823Y-147285998D01*
X118379050Y-147356009D01*
X118370887Y-147359902D01*
X118197047Y-147463326D01*
X118189745Y-147468631D01*
X118037657Y-147602010D01*
X118031434Y-147608568D01*
X117906209Y-147767415D01*
X117901284Y-147774998D01*
X117807097Y-147954018D01*
X117803643Y-147962358D01*
X117743658Y-148155538D01*
X117741777Y-148164389D01*
X117733487Y-148234428D01*
X116800000Y-148234428D01*
X116800000Y-145845262D01*
X117816520Y-145845262D01*
X117833759Y-146050553D01*
X117890544Y-146248586D01*
X117984712Y-146431818D01*
X118112677Y-146593270D01*
X118116357Y-146596402D01*
X118116359Y-146596404D01*
X118229017Y-146692283D01*
X118269564Y-146726791D01*
X118273787Y-146729151D01*
X118273791Y-146729154D01*
X118313342Y-146751258D01*
X118449398Y-146827297D01*
X118453996Y-146828791D01*
X118640724Y-146889463D01*
X118640726Y-146889464D01*
X118645329Y-146890959D01*
X118849894Y-146915351D01*
X118854716Y-146914980D01*
X118854719Y-146914980D01*
X118922541Y-146909761D01*
X119055300Y-146899546D01*
X119253725Y-146844145D01*
X119258038Y-146841966D01*
X119258044Y-146841964D01*
X119433289Y-146753441D01*
X119433291Y-146753440D01*
X119437610Y-146751258D01*
X119472943Y-146723653D01*
X119596135Y-146627406D01*
X119596139Y-146627402D01*
X119599951Y-146624424D01*
X119734564Y-146468472D01*
X119753231Y-146435613D01*
X119833934Y-146293550D01*
X119833935Y-146293547D01*
X119836323Y-146289344D01*
X119849882Y-146248586D01*
X119899824Y-146098454D01*
X119899824Y-146098452D01*
X119901351Y-146093863D01*
X119927171Y-145889474D01*
X119927583Y-145860000D01*
X119926138Y-145845262D01*
X138644520Y-145845262D01*
X138661759Y-146050553D01*
X138718544Y-146248586D01*
X138812712Y-146431818D01*
X138940677Y-146593270D01*
X138944357Y-146596402D01*
X138944359Y-146596404D01*
X139057017Y-146692283D01*
X139097564Y-146726791D01*
X139101787Y-146729151D01*
X139101791Y-146729154D01*
X139141342Y-146751258D01*
X139277398Y-146827297D01*
X139281996Y-146828791D01*
X139468724Y-146889463D01*
X139468726Y-146889464D01*
X139473329Y-146890959D01*
X139677894Y-146915351D01*
X139682716Y-146914980D01*
X139682719Y-146914980D01*
X139750541Y-146909761D01*
X139883300Y-146899546D01*
X140081725Y-146844145D01*
X140086038Y-146841966D01*
X140086044Y-146841964D01*
X140261289Y-146753441D01*
X140261291Y-146753440D01*
X140265610Y-146751258D01*
X140300943Y-146723653D01*
X140424135Y-146627406D01*
X140424139Y-146627402D01*
X140427951Y-146624424D01*
X140562564Y-146468472D01*
X140581231Y-146435613D01*
X140661934Y-146293550D01*
X140661935Y-146293547D01*
X140664323Y-146289344D01*
X140677882Y-146248586D01*
X140727824Y-146098454D01*
X140727824Y-146098452D01*
X140729351Y-146093863D01*
X140755171Y-145889474D01*
X140755583Y-145860000D01*
X140735480Y-145654970D01*
X140675935Y-145457749D01*
X140579218Y-145275849D01*
X140449011Y-145116200D01*
X140290275Y-144984882D01*
X140109055Y-144886897D01*
X140045855Y-144867333D01*
X139916875Y-144827407D01*
X139916871Y-144827406D01*
X139912254Y-144825977D01*
X139907446Y-144825472D01*
X139907443Y-144825471D01*
X139712185Y-144804949D01*
X139712183Y-144804949D01*
X139707369Y-144804443D01*
X139647354Y-144809905D01*
X139507022Y-144822675D01*
X139507017Y-144822676D01*
X139502203Y-144823114D01*
X139304572Y-144881280D01*
X139300288Y-144883519D01*
X139300287Y-144883520D01*
X139289428Y-144889197D01*
X139122002Y-144976726D01*
X139118231Y-144979758D01*
X138965220Y-145102781D01*
X138965217Y-145102783D01*
X138961447Y-145105815D01*
X138958333Y-145109526D01*
X138958332Y-145109527D01*
X138949585Y-145119952D01*
X138829024Y-145263630D01*
X138826689Y-145267878D01*
X138826688Y-145267879D01*
X138819955Y-145280126D01*
X138729776Y-145444162D01*
X138667484Y-145640532D01*
X138666944Y-145645344D01*
X138666944Y-145645345D01*
X138665865Y-145654970D01*
X138644520Y-145845262D01*
X119926138Y-145845262D01*
X119907480Y-145654970D01*
X119847935Y-145457749D01*
X119751218Y-145275849D01*
X119621011Y-145116200D01*
X119462275Y-144984882D01*
X119281055Y-144886897D01*
X119217855Y-144867333D01*
X119088875Y-144827407D01*
X119088871Y-144827406D01*
X119084254Y-144825977D01*
X119079446Y-144825472D01*
X119079443Y-144825471D01*
X118884185Y-144804949D01*
X118884183Y-144804949D01*
X118879369Y-144804443D01*
X118819354Y-144809905D01*
X118679022Y-144822675D01*
X118679017Y-144822676D01*
X118674203Y-144823114D01*
X118476572Y-144881280D01*
X118472288Y-144883519D01*
X118472287Y-144883520D01*
X118461428Y-144889197D01*
X118294002Y-144976726D01*
X118290231Y-144979758D01*
X118137220Y-145102781D01*
X118137217Y-145102783D01*
X118133447Y-145105815D01*
X118130333Y-145109526D01*
X118130332Y-145109527D01*
X118121585Y-145119952D01*
X118001024Y-145263630D01*
X117998689Y-145267878D01*
X117998688Y-145267879D01*
X117991955Y-145280126D01*
X117901776Y-145444162D01*
X117839484Y-145640532D01*
X117838944Y-145645344D01*
X117838944Y-145645345D01*
X117837865Y-145654970D01*
X117816520Y-145845262D01*
X116800000Y-145845262D01*
X116800000Y-143305262D01*
X117816520Y-143305262D01*
X117833759Y-143510553D01*
X117890544Y-143708586D01*
X117984712Y-143891818D01*
X118112677Y-144053270D01*
X118116357Y-144056402D01*
X118116359Y-144056404D01*
X118229017Y-144152283D01*
X118269564Y-144186791D01*
X118273787Y-144189151D01*
X118273791Y-144189154D01*
X118313342Y-144211258D01*
X118449398Y-144287297D01*
X118453996Y-144288791D01*
X118640724Y-144349463D01*
X118640726Y-144349464D01*
X118645329Y-144350959D01*
X118849894Y-144375351D01*
X118854716Y-144374980D01*
X118854719Y-144374980D01*
X118922541Y-144369761D01*
X119055300Y-144359546D01*
X119253725Y-144304145D01*
X119258038Y-144301966D01*
X119258044Y-144301964D01*
X119433289Y-144213441D01*
X119433291Y-144213440D01*
X119437610Y-144211258D01*
X119472943Y-144183653D01*
X119596135Y-144087406D01*
X119596139Y-144087402D01*
X119599951Y-144084424D01*
X119734564Y-143928472D01*
X119753231Y-143895613D01*
X119833934Y-143753550D01*
X119833935Y-143753547D01*
X119836323Y-143749344D01*
X119849882Y-143708586D01*
X119899824Y-143558454D01*
X119899824Y-143558452D01*
X119901351Y-143553863D01*
X119927171Y-143349474D01*
X119927583Y-143320000D01*
X119926138Y-143305262D01*
X138644520Y-143305262D01*
X138661759Y-143510553D01*
X138718544Y-143708586D01*
X138812712Y-143891818D01*
X138940677Y-144053270D01*
X138944357Y-144056402D01*
X138944359Y-144056404D01*
X139057017Y-144152283D01*
X139097564Y-144186791D01*
X139101787Y-144189151D01*
X139101791Y-144189154D01*
X139141342Y-144211258D01*
X139277398Y-144287297D01*
X139281996Y-144288791D01*
X139468724Y-144349463D01*
X139468726Y-144349464D01*
X139473329Y-144350959D01*
X139677894Y-144375351D01*
X139682716Y-144374980D01*
X139682719Y-144374980D01*
X139750541Y-144369761D01*
X139883300Y-144359546D01*
X140081725Y-144304145D01*
X140086038Y-144301966D01*
X140086044Y-144301964D01*
X140261289Y-144213441D01*
X140261291Y-144213440D01*
X140265610Y-144211258D01*
X140300943Y-144183653D01*
X140424135Y-144087406D01*
X140424139Y-144087402D01*
X140427951Y-144084424D01*
X140562564Y-143928472D01*
X140581231Y-143895613D01*
X140661934Y-143753550D01*
X140661935Y-143753547D01*
X140664323Y-143749344D01*
X140677882Y-143708586D01*
X140727824Y-143558454D01*
X140727824Y-143558452D01*
X140729351Y-143553863D01*
X140755171Y-143349474D01*
X140755583Y-143320000D01*
X140735480Y-143114970D01*
X140675935Y-142917749D01*
X140579218Y-142735849D01*
X140449011Y-142576200D01*
X140290275Y-142444882D01*
X140109055Y-142346897D01*
X140045855Y-142327333D01*
X139916875Y-142287407D01*
X139916871Y-142287406D01*
X139912254Y-142285977D01*
X139907446Y-142285472D01*
X139907443Y-142285471D01*
X139712185Y-142264949D01*
X139712183Y-142264949D01*
X139707369Y-142264443D01*
X139647354Y-142269905D01*
X139507022Y-142282675D01*
X139507017Y-142282676D01*
X139502203Y-142283114D01*
X139304572Y-142341280D01*
X139300288Y-142343519D01*
X139300287Y-142343520D01*
X139289428Y-142349197D01*
X139122002Y-142436726D01*
X139118231Y-142439758D01*
X138965220Y-142562781D01*
X138965217Y-142562783D01*
X138961447Y-142565815D01*
X138958333Y-142569526D01*
X138958332Y-142569527D01*
X138949585Y-142579952D01*
X138829024Y-142723630D01*
X138826689Y-142727878D01*
X138826688Y-142727879D01*
X138819955Y-142740126D01*
X138729776Y-142904162D01*
X138667484Y-143100532D01*
X138666944Y-143105344D01*
X138666944Y-143105345D01*
X138665865Y-143114970D01*
X138644520Y-143305262D01*
X119926138Y-143305262D01*
X119907480Y-143114970D01*
X119847935Y-142917749D01*
X119751218Y-142735849D01*
X119621011Y-142576200D01*
X119462275Y-142444882D01*
X119281055Y-142346897D01*
X119217855Y-142327333D01*
X119088875Y-142287407D01*
X119088871Y-142287406D01*
X119084254Y-142285977D01*
X119079446Y-142285472D01*
X119079443Y-142285471D01*
X118884185Y-142264949D01*
X118884183Y-142264949D01*
X118879369Y-142264443D01*
X118819354Y-142269905D01*
X118679022Y-142282675D01*
X118679017Y-142282676D01*
X118674203Y-142283114D01*
X118476572Y-142341280D01*
X118472288Y-142343519D01*
X118472287Y-142343520D01*
X118461428Y-142349197D01*
X118294002Y-142436726D01*
X118290231Y-142439758D01*
X118137220Y-142562781D01*
X118137217Y-142562783D01*
X118133447Y-142565815D01*
X118130333Y-142569526D01*
X118130332Y-142569527D01*
X118121585Y-142579952D01*
X118001024Y-142723630D01*
X117998689Y-142727878D01*
X117998688Y-142727879D01*
X117991955Y-142740126D01*
X117901776Y-142904162D01*
X117839484Y-143100532D01*
X117838944Y-143105344D01*
X117838944Y-143105345D01*
X117837865Y-143114970D01*
X117816520Y-143305262D01*
X116800000Y-143305262D01*
X116800000Y-140765262D01*
X117816520Y-140765262D01*
X117833759Y-140970553D01*
X117890544Y-141168586D01*
X117984712Y-141351818D01*
X118112677Y-141513270D01*
X118116357Y-141516402D01*
X118116359Y-141516404D01*
X118229017Y-141612283D01*
X118269564Y-141646791D01*
X118273787Y-141649151D01*
X118273791Y-141649154D01*
X118313342Y-141671258D01*
X118449398Y-141747297D01*
X118453996Y-141748791D01*
X118640724Y-141809463D01*
X118640726Y-141809464D01*
X118645329Y-141810959D01*
X118849894Y-141835351D01*
X118854716Y-141834980D01*
X118854719Y-141834980D01*
X118922541Y-141829761D01*
X119055300Y-141819546D01*
X119253725Y-141764145D01*
X119258038Y-141761966D01*
X119258044Y-141761964D01*
X119433289Y-141673441D01*
X119433291Y-141673440D01*
X119437610Y-141671258D01*
X119472943Y-141643653D01*
X119596135Y-141547406D01*
X119596139Y-141547402D01*
X119599951Y-141544424D01*
X119734564Y-141388472D01*
X119753231Y-141355613D01*
X119833934Y-141213550D01*
X119833935Y-141213547D01*
X119836323Y-141209344D01*
X119849882Y-141168586D01*
X119899824Y-141018454D01*
X119899824Y-141018452D01*
X119901351Y-141013863D01*
X119927171Y-140809474D01*
X119927583Y-140780000D01*
X119926138Y-140765262D01*
X138644520Y-140765262D01*
X138661759Y-140970553D01*
X138718544Y-141168586D01*
X138812712Y-141351818D01*
X138940677Y-141513270D01*
X138944357Y-141516402D01*
X138944359Y-141516404D01*
X139057017Y-141612283D01*
X139097564Y-141646791D01*
X139101787Y-141649151D01*
X139101791Y-141649154D01*
X139141342Y-141671258D01*
X139277398Y-141747297D01*
X139281996Y-141748791D01*
X139468724Y-141809463D01*
X139468726Y-141809464D01*
X139473329Y-141810959D01*
X139677894Y-141835351D01*
X139682716Y-141834980D01*
X139682719Y-141834980D01*
X139750541Y-141829761D01*
X139883300Y-141819546D01*
X140081725Y-141764145D01*
X140086038Y-141761966D01*
X140086044Y-141761964D01*
X140261289Y-141673441D01*
X140261291Y-141673440D01*
X140265610Y-141671258D01*
X140300943Y-141643653D01*
X140424135Y-141547406D01*
X140424139Y-141547402D01*
X140427951Y-141544424D01*
X140562564Y-141388472D01*
X140581231Y-141355613D01*
X140661934Y-141213550D01*
X140661935Y-141213547D01*
X140664323Y-141209344D01*
X140677882Y-141168586D01*
X140727824Y-141018454D01*
X140727824Y-141018452D01*
X140729351Y-141013863D01*
X140755171Y-140809474D01*
X140755583Y-140780000D01*
X140735480Y-140574970D01*
X140675935Y-140377749D01*
X140579218Y-140195849D01*
X140449011Y-140036200D01*
X140290275Y-139904882D01*
X140109055Y-139806897D01*
X140045855Y-139787333D01*
X139916875Y-139747407D01*
X139916871Y-139747406D01*
X139912254Y-139745977D01*
X139907446Y-139745472D01*
X139907443Y-139745471D01*
X139712185Y-139724949D01*
X139712183Y-139724949D01*
X139707369Y-139724443D01*
X139647354Y-139729905D01*
X139507022Y-139742675D01*
X139507017Y-139742676D01*
X139502203Y-139743114D01*
X139304572Y-139801280D01*
X139300288Y-139803519D01*
X139300287Y-139803520D01*
X139289428Y-139809197D01*
X139122002Y-139896726D01*
X139118231Y-139899758D01*
X138965220Y-140022781D01*
X138965217Y-140022783D01*
X138961447Y-140025815D01*
X138958333Y-140029526D01*
X138958332Y-140029527D01*
X138949585Y-140039952D01*
X138829024Y-140183630D01*
X138826689Y-140187878D01*
X138826688Y-140187879D01*
X138819955Y-140200126D01*
X138729776Y-140364162D01*
X138667484Y-140560532D01*
X138666944Y-140565344D01*
X138666944Y-140565345D01*
X138665865Y-140574970D01*
X138644520Y-140765262D01*
X119926138Y-140765262D01*
X119907480Y-140574970D01*
X119847935Y-140377749D01*
X119751218Y-140195849D01*
X119621011Y-140036200D01*
X119462275Y-139904882D01*
X119281055Y-139806897D01*
X119217855Y-139787333D01*
X119088875Y-139747407D01*
X119088871Y-139747406D01*
X119084254Y-139745977D01*
X119079446Y-139745472D01*
X119079443Y-139745471D01*
X118884185Y-139724949D01*
X118884183Y-139724949D01*
X118879369Y-139724443D01*
X118819354Y-139729905D01*
X118679022Y-139742675D01*
X118679017Y-139742676D01*
X118674203Y-139743114D01*
X118476572Y-139801280D01*
X118472288Y-139803519D01*
X118472287Y-139803520D01*
X118461428Y-139809197D01*
X118294002Y-139896726D01*
X118290231Y-139899758D01*
X118137220Y-140022781D01*
X118137217Y-140022783D01*
X118133447Y-140025815D01*
X118130333Y-140029526D01*
X118130332Y-140029527D01*
X118121585Y-140039952D01*
X118001024Y-140183630D01*
X117998689Y-140187878D01*
X117998688Y-140187879D01*
X117991955Y-140200126D01*
X117901776Y-140364162D01*
X117839484Y-140560532D01*
X117838944Y-140565344D01*
X117838944Y-140565345D01*
X117837865Y-140574970D01*
X117816520Y-140765262D01*
X116800000Y-140765262D01*
X116800000Y-138225262D01*
X117816520Y-138225262D01*
X117816925Y-138230082D01*
X117831657Y-138405518D01*
X117833759Y-138430553D01*
X117890544Y-138628586D01*
X117984712Y-138811818D01*
X118112677Y-138973270D01*
X118116357Y-138976402D01*
X118116359Y-138976404D01*
X118206544Y-139053157D01*
X118269564Y-139106791D01*
X118273787Y-139109151D01*
X118273791Y-139109154D01*
X118313342Y-139131258D01*
X118449398Y-139207297D01*
X118453996Y-139208791D01*
X118640724Y-139269463D01*
X118640726Y-139269464D01*
X118645329Y-139270959D01*
X118849894Y-139295351D01*
X118854716Y-139294980D01*
X118854719Y-139294980D01*
X118922541Y-139289761D01*
X119055300Y-139279546D01*
X119253725Y-139224145D01*
X119258038Y-139221966D01*
X119258044Y-139221964D01*
X119433289Y-139133441D01*
X119433291Y-139133440D01*
X119437610Y-139131258D01*
X119529370Y-139059568D01*
X119596135Y-139007406D01*
X119596139Y-139007402D01*
X119599951Y-139004424D01*
X119609615Y-138993229D01*
X119698551Y-138890194D01*
X119734564Y-138848472D01*
X119736957Y-138844260D01*
X119833934Y-138673550D01*
X119833935Y-138673547D01*
X119836323Y-138669344D01*
X119849882Y-138628586D01*
X119899824Y-138478454D01*
X119899824Y-138478452D01*
X119901351Y-138473863D01*
X119908643Y-138416145D01*
X119910758Y-138399405D01*
X138557898Y-138399405D01*
X138558995Y-138416145D01*
X138560408Y-138425064D01*
X138610200Y-138621121D01*
X138613220Y-138629649D01*
X138697904Y-138813341D01*
X138702422Y-138821167D01*
X138819171Y-138986363D01*
X138825035Y-138993229D01*
X138969931Y-139134381D01*
X138976954Y-139140068D01*
X139145138Y-139252446D01*
X139153093Y-139256764D01*
X139338929Y-139336606D01*
X139347540Y-139339404D01*
X139539830Y-139382914D01*
X139547167Y-139380840D01*
X139549787Y-139377514D01*
X139550000Y-139376317D01*
X139550000Y-139364679D01*
X139850000Y-139364679D01*
X139854122Y-139377364D01*
X139855292Y-139378215D01*
X139861272Y-139378725D01*
X139965115Y-139363668D01*
X139973914Y-139361556D01*
X140165450Y-139296538D01*
X140173714Y-139292858D01*
X140350194Y-139194026D01*
X140357652Y-139188900D01*
X140513157Y-139059568D01*
X140519568Y-139053157D01*
X140648900Y-138897652D01*
X140654026Y-138890194D01*
X140752858Y-138713714D01*
X140756538Y-138705450D01*
X140821556Y-138513914D01*
X140823668Y-138505115D01*
X140838109Y-138405518D01*
X140835850Y-138392372D01*
X140834815Y-138391363D01*
X140828968Y-138390000D01*
X139865680Y-138390000D01*
X139852995Y-138394122D01*
X139850000Y-138398243D01*
X139850000Y-139364679D01*
X139550000Y-139364679D01*
X139550000Y-138405680D01*
X139545878Y-138392995D01*
X139541757Y-138390000D01*
X138572962Y-138390000D01*
X138560277Y-138394122D01*
X138558202Y-138396978D01*
X138557898Y-138399405D01*
X119910758Y-138399405D01*
X119926823Y-138272228D01*
X119927171Y-138269474D01*
X119927583Y-138240000D01*
X119912876Y-138090000D01*
X119911349Y-138074428D01*
X138561487Y-138074428D01*
X138564090Y-138087511D01*
X138565663Y-138088965D01*
X138570378Y-138090000D01*
X139534320Y-138090000D01*
X139547005Y-138085878D01*
X139550000Y-138081757D01*
X139550000Y-138074320D01*
X139850000Y-138074320D01*
X139854122Y-138087005D01*
X139858243Y-138090000D01*
X140825464Y-138090000D01*
X140838149Y-138085878D01*
X140839818Y-138083582D01*
X140840222Y-138079966D01*
X140836003Y-138034048D01*
X140834356Y-138025164D01*
X140779449Y-137830481D01*
X140776208Y-137822037D01*
X140686745Y-137640624D01*
X140682020Y-137632914D01*
X140560994Y-137470840D01*
X140554945Y-137464122D01*
X140406405Y-137326814D01*
X140399240Y-137321315D01*
X140228163Y-137213374D01*
X140220110Y-137209271D01*
X140032229Y-137134314D01*
X140023571Y-137131749D01*
X139865379Y-137100283D01*
X139852132Y-137101851D01*
X139852100Y-137101881D01*
X139850000Y-137109928D01*
X139850000Y-138074320D01*
X139550000Y-138074320D01*
X139550000Y-137114517D01*
X139545878Y-137101832D01*
X139545274Y-137101393D01*
X139538127Y-137100877D01*
X139405559Y-137123657D01*
X139396823Y-137125998D01*
X139207050Y-137196009D01*
X139198887Y-137199902D01*
X139025047Y-137303326D01*
X139017745Y-137308631D01*
X138865657Y-137442010D01*
X138859434Y-137448568D01*
X138734209Y-137607415D01*
X138729284Y-137614998D01*
X138635097Y-137794018D01*
X138631643Y-137802358D01*
X138571658Y-137995538D01*
X138569777Y-138004389D01*
X138561487Y-138074428D01*
X119911349Y-138074428D01*
X119907952Y-138039780D01*
X119907951Y-138039776D01*
X119907480Y-138034970D01*
X119904520Y-138025164D01*
X119849333Y-137842380D01*
X119847935Y-137837749D01*
X119751218Y-137655849D01*
X119621011Y-137496200D01*
X119590356Y-137470840D01*
X119466002Y-137367965D01*
X119466000Y-137367964D01*
X119462275Y-137364882D01*
X119281055Y-137266897D01*
X119217855Y-137247333D01*
X119088875Y-137207407D01*
X119088871Y-137207406D01*
X119084254Y-137205977D01*
X119079446Y-137205472D01*
X119079443Y-137205471D01*
X118884185Y-137184949D01*
X118884183Y-137184949D01*
X118879369Y-137184443D01*
X118819354Y-137189905D01*
X118679022Y-137202675D01*
X118679017Y-137202676D01*
X118674203Y-137203114D01*
X118476572Y-137261280D01*
X118472288Y-137263519D01*
X118472287Y-137263520D01*
X118461428Y-137269197D01*
X118294002Y-137356726D01*
X118290231Y-137359758D01*
X118137220Y-137482781D01*
X118137217Y-137482783D01*
X118133447Y-137485815D01*
X118130333Y-137489526D01*
X118130332Y-137489527D01*
X118121585Y-137499952D01*
X118001024Y-137643630D01*
X117998689Y-137647878D01*
X117998688Y-137647879D01*
X117991955Y-137660126D01*
X117901776Y-137824162D01*
X117900313Y-137828775D01*
X117900311Y-137828779D01*
X117898821Y-137833476D01*
X117839484Y-138020532D01*
X117838944Y-138025344D01*
X117838944Y-138025345D01*
X117832617Y-138081757D01*
X117816520Y-138225262D01*
X116800000Y-138225262D01*
X116800000Y-135685262D01*
X117816520Y-135685262D01*
X117833759Y-135890553D01*
X117890544Y-136088586D01*
X117984712Y-136271818D01*
X118112677Y-136433270D01*
X118116357Y-136436402D01*
X118116359Y-136436404D01*
X118229017Y-136532283D01*
X118269564Y-136566791D01*
X118273787Y-136569151D01*
X118273791Y-136569154D01*
X118313342Y-136591258D01*
X118449398Y-136667297D01*
X118453996Y-136668791D01*
X118640724Y-136729463D01*
X118640726Y-136729464D01*
X118645329Y-136730959D01*
X118849894Y-136755351D01*
X118854716Y-136754980D01*
X118854719Y-136754980D01*
X118922541Y-136749761D01*
X119055300Y-136739546D01*
X119253725Y-136684145D01*
X119258038Y-136681966D01*
X119258044Y-136681964D01*
X119433289Y-136593441D01*
X119433291Y-136593440D01*
X119437610Y-136591258D01*
X119472943Y-136563653D01*
X119596135Y-136467406D01*
X119596139Y-136467402D01*
X119599951Y-136464424D01*
X119734564Y-136308472D01*
X119753231Y-136275613D01*
X119833934Y-136133550D01*
X119833935Y-136133547D01*
X119836323Y-136129344D01*
X119849882Y-136088586D01*
X119899824Y-135938454D01*
X119899824Y-135938452D01*
X119901351Y-135933863D01*
X119927171Y-135729474D01*
X119927583Y-135700000D01*
X119926138Y-135685262D01*
X138644520Y-135685262D01*
X138661759Y-135890553D01*
X138718544Y-136088586D01*
X138812712Y-136271818D01*
X138940677Y-136433270D01*
X138944357Y-136436402D01*
X138944359Y-136436404D01*
X139057017Y-136532283D01*
X139097564Y-136566791D01*
X139101787Y-136569151D01*
X139101791Y-136569154D01*
X139141342Y-136591258D01*
X139277398Y-136667297D01*
X139281996Y-136668791D01*
X139468724Y-136729463D01*
X139468726Y-136729464D01*
X139473329Y-136730959D01*
X139677894Y-136755351D01*
X139682716Y-136754980D01*
X139682719Y-136754980D01*
X139750541Y-136749761D01*
X139883300Y-136739546D01*
X140081725Y-136684145D01*
X140086038Y-136681966D01*
X140086044Y-136681964D01*
X140261289Y-136593441D01*
X140261291Y-136593440D01*
X140265610Y-136591258D01*
X140300943Y-136563653D01*
X140424135Y-136467406D01*
X140424139Y-136467402D01*
X140427951Y-136464424D01*
X140562564Y-136308472D01*
X140581231Y-136275613D01*
X140661934Y-136133550D01*
X140661935Y-136133547D01*
X140664323Y-136129344D01*
X140677882Y-136088586D01*
X140727824Y-135938454D01*
X140727824Y-135938452D01*
X140729351Y-135933863D01*
X140755171Y-135729474D01*
X140755583Y-135700000D01*
X140735480Y-135494970D01*
X140675935Y-135297749D01*
X140579218Y-135115849D01*
X140449011Y-134956200D01*
X140290275Y-134824882D01*
X140109055Y-134726897D01*
X140045855Y-134707333D01*
X139916875Y-134667407D01*
X139916871Y-134667406D01*
X139912254Y-134665977D01*
X139907446Y-134665472D01*
X139907443Y-134665471D01*
X139712185Y-134644949D01*
X139712183Y-134644949D01*
X139707369Y-134644443D01*
X139647354Y-134649905D01*
X139507022Y-134662675D01*
X139507017Y-134662676D01*
X139502203Y-134663114D01*
X139304572Y-134721280D01*
X139300288Y-134723519D01*
X139300287Y-134723520D01*
X139289428Y-134729197D01*
X139122002Y-134816726D01*
X139118231Y-134819758D01*
X138965220Y-134942781D01*
X138965217Y-134942783D01*
X138961447Y-134945815D01*
X138958333Y-134949526D01*
X138958332Y-134949527D01*
X138949585Y-134959952D01*
X138829024Y-135103630D01*
X138826689Y-135107878D01*
X138826688Y-135107879D01*
X138819955Y-135120126D01*
X138729776Y-135284162D01*
X138667484Y-135480532D01*
X138666944Y-135485344D01*
X138666944Y-135485345D01*
X138665865Y-135494970D01*
X138644520Y-135685262D01*
X119926138Y-135685262D01*
X119907480Y-135494970D01*
X119847935Y-135297749D01*
X119751218Y-135115849D01*
X119621011Y-134956200D01*
X119462275Y-134824882D01*
X119281055Y-134726897D01*
X119217855Y-134707333D01*
X119088875Y-134667407D01*
X119088871Y-134667406D01*
X119084254Y-134665977D01*
X119079446Y-134665472D01*
X119079443Y-134665471D01*
X118884185Y-134644949D01*
X118884183Y-134644949D01*
X118879369Y-134644443D01*
X118819354Y-134649905D01*
X118679022Y-134662675D01*
X118679017Y-134662676D01*
X118674203Y-134663114D01*
X118476572Y-134721280D01*
X118472288Y-134723519D01*
X118472287Y-134723520D01*
X118461428Y-134729197D01*
X118294002Y-134816726D01*
X118290231Y-134819758D01*
X118137220Y-134942781D01*
X118137217Y-134942783D01*
X118133447Y-134945815D01*
X118130333Y-134949526D01*
X118130332Y-134949527D01*
X118121585Y-134959952D01*
X118001024Y-135103630D01*
X117998689Y-135107878D01*
X117998688Y-135107879D01*
X117991955Y-135120126D01*
X117901776Y-135284162D01*
X117839484Y-135480532D01*
X117838944Y-135485344D01*
X117838944Y-135485345D01*
X117837865Y-135494970D01*
X117816520Y-135685262D01*
X116800000Y-135685262D01*
X116800000Y-133145262D01*
X117816520Y-133145262D01*
X117833759Y-133350553D01*
X117890544Y-133548586D01*
X117984712Y-133731818D01*
X118112677Y-133893270D01*
X118116357Y-133896402D01*
X118116359Y-133896404D01*
X118229017Y-133992283D01*
X118269564Y-134026791D01*
X118273787Y-134029151D01*
X118273791Y-134029154D01*
X118313342Y-134051258D01*
X118449398Y-134127297D01*
X118453996Y-134128791D01*
X118640724Y-134189463D01*
X118640726Y-134189464D01*
X118645329Y-134190959D01*
X118849894Y-134215351D01*
X118854716Y-134214980D01*
X118854719Y-134214980D01*
X118922541Y-134209761D01*
X119055300Y-134199546D01*
X119253725Y-134144145D01*
X119258038Y-134141966D01*
X119258044Y-134141964D01*
X119433289Y-134053441D01*
X119433291Y-134053440D01*
X119437610Y-134051258D01*
X119472943Y-134023653D01*
X119596135Y-133927406D01*
X119596139Y-133927402D01*
X119599951Y-133924424D01*
X119734564Y-133768472D01*
X119753231Y-133735613D01*
X119833934Y-133593550D01*
X119833935Y-133593547D01*
X119836323Y-133589344D01*
X119849882Y-133548586D01*
X119899824Y-133398454D01*
X119899824Y-133398452D01*
X119901351Y-133393863D01*
X119927171Y-133189474D01*
X119927583Y-133160000D01*
X119926138Y-133145262D01*
X138644520Y-133145262D01*
X138661759Y-133350553D01*
X138718544Y-133548586D01*
X138812712Y-133731818D01*
X138940677Y-133893270D01*
X138944357Y-133896402D01*
X138944359Y-133896404D01*
X139057017Y-133992283D01*
X139097564Y-134026791D01*
X139101787Y-134029151D01*
X139101791Y-134029154D01*
X139141342Y-134051258D01*
X139277398Y-134127297D01*
X139281996Y-134128791D01*
X139468724Y-134189463D01*
X139468726Y-134189464D01*
X139473329Y-134190959D01*
X139677894Y-134215351D01*
X139682716Y-134214980D01*
X139682719Y-134214980D01*
X139750541Y-134209761D01*
X139883300Y-134199546D01*
X140081725Y-134144145D01*
X140086038Y-134141966D01*
X140086044Y-134141964D01*
X140261289Y-134053441D01*
X140261291Y-134053440D01*
X140265610Y-134051258D01*
X140300943Y-134023653D01*
X140424135Y-133927406D01*
X140424139Y-133927402D01*
X140427951Y-133924424D01*
X140562564Y-133768472D01*
X140581231Y-133735613D01*
X140661934Y-133593550D01*
X140661935Y-133593547D01*
X140664323Y-133589344D01*
X140677882Y-133548586D01*
X140727824Y-133398454D01*
X140727824Y-133398452D01*
X140729351Y-133393863D01*
X140755171Y-133189474D01*
X140755583Y-133160000D01*
X140735480Y-132954970D01*
X140675935Y-132757749D01*
X140579218Y-132575849D01*
X140449011Y-132416200D01*
X140290275Y-132284882D01*
X140109055Y-132186897D01*
X140045855Y-132167333D01*
X139916875Y-132127407D01*
X139916871Y-132127406D01*
X139912254Y-132125977D01*
X139907446Y-132125472D01*
X139907443Y-132125471D01*
X139712185Y-132104949D01*
X139712183Y-132104949D01*
X139707369Y-132104443D01*
X139647354Y-132109905D01*
X139507022Y-132122675D01*
X139507017Y-132122676D01*
X139502203Y-132123114D01*
X139304572Y-132181280D01*
X139300288Y-132183519D01*
X139300287Y-132183520D01*
X139289428Y-132189197D01*
X139122002Y-132276726D01*
X139118231Y-132279758D01*
X138965220Y-132402781D01*
X138965217Y-132402783D01*
X138961447Y-132405815D01*
X138958333Y-132409526D01*
X138958332Y-132409527D01*
X138949585Y-132419952D01*
X138829024Y-132563630D01*
X138826689Y-132567878D01*
X138826688Y-132567879D01*
X138819955Y-132580126D01*
X138729776Y-132744162D01*
X138667484Y-132940532D01*
X138666944Y-132945344D01*
X138666944Y-132945345D01*
X138665865Y-132954970D01*
X138644520Y-133145262D01*
X119926138Y-133145262D01*
X119907480Y-132954970D01*
X119847935Y-132757749D01*
X119751218Y-132575849D01*
X119621011Y-132416200D01*
X119462275Y-132284882D01*
X119281055Y-132186897D01*
X119217855Y-132167333D01*
X119088875Y-132127407D01*
X119088871Y-132127406D01*
X119084254Y-132125977D01*
X119079446Y-132125472D01*
X119079443Y-132125471D01*
X118884185Y-132104949D01*
X118884183Y-132104949D01*
X118879369Y-132104443D01*
X118819354Y-132109905D01*
X118679022Y-132122675D01*
X118679017Y-132122676D01*
X118674203Y-132123114D01*
X118476572Y-132181280D01*
X118472288Y-132183519D01*
X118472287Y-132183520D01*
X118461428Y-132189197D01*
X118294002Y-132276726D01*
X118290231Y-132279758D01*
X118137220Y-132402781D01*
X118137217Y-132402783D01*
X118133447Y-132405815D01*
X118130333Y-132409526D01*
X118130332Y-132409527D01*
X118121585Y-132419952D01*
X118001024Y-132563630D01*
X117998689Y-132567878D01*
X117998688Y-132567879D01*
X117991955Y-132580126D01*
X117901776Y-132744162D01*
X117839484Y-132940532D01*
X117838944Y-132945344D01*
X117838944Y-132945345D01*
X117837865Y-132954970D01*
X117816520Y-133145262D01*
X116800000Y-133145262D01*
X116800000Y-130605262D01*
X117816520Y-130605262D01*
X117816925Y-130610082D01*
X117832398Y-130794342D01*
X117833759Y-130810553D01*
X117890544Y-131008586D01*
X117984712Y-131191818D01*
X118112677Y-131353270D01*
X118116357Y-131356402D01*
X118116359Y-131356404D01*
X118229017Y-131452283D01*
X118269564Y-131486791D01*
X118273787Y-131489151D01*
X118273791Y-131489154D01*
X118313342Y-131511258D01*
X118449398Y-131587297D01*
X118453996Y-131588791D01*
X118640724Y-131649463D01*
X118640726Y-131649464D01*
X118645329Y-131650959D01*
X118849894Y-131675351D01*
X118854716Y-131674980D01*
X118854719Y-131674980D01*
X118922541Y-131669761D01*
X119055300Y-131659546D01*
X119253725Y-131604145D01*
X119258038Y-131601966D01*
X119258044Y-131601964D01*
X119433289Y-131513441D01*
X119433291Y-131513440D01*
X119437610Y-131511258D01*
X119472943Y-131483653D01*
X119596135Y-131387406D01*
X119596139Y-131387402D01*
X119599951Y-131384424D01*
X119734564Y-131228472D01*
X119753231Y-131195613D01*
X119833934Y-131053550D01*
X119833935Y-131053547D01*
X119836323Y-131049344D01*
X119849882Y-131008586D01*
X119899824Y-130858454D01*
X119899824Y-130858452D01*
X119901351Y-130853863D01*
X119927171Y-130649474D01*
X119927583Y-130620000D01*
X119921308Y-130556000D01*
X136246508Y-130556000D01*
X136247727Y-130563697D01*
X136261313Y-130649474D01*
X136266354Y-130681304D01*
X136323950Y-130794342D01*
X136413658Y-130884050D01*
X136420595Y-130887585D01*
X136420597Y-130887586D01*
X136519756Y-130938110D01*
X136526696Y-130941646D01*
X136534390Y-130942865D01*
X136534391Y-130942865D01*
X136644303Y-130960273D01*
X136652000Y-130961492D01*
X136659697Y-130960273D01*
X136769609Y-130942865D01*
X136769610Y-130942865D01*
X136777304Y-130941646D01*
X136784244Y-130938110D01*
X136883403Y-130887586D01*
X136883405Y-130887585D01*
X136890342Y-130884050D01*
X136980050Y-130794342D01*
X137037646Y-130681304D01*
X137042688Y-130649474D01*
X137049690Y-130605262D01*
X138644520Y-130605262D01*
X138644925Y-130610082D01*
X138660398Y-130794342D01*
X138661759Y-130810553D01*
X138718544Y-131008586D01*
X138812712Y-131191818D01*
X138940677Y-131353270D01*
X138944357Y-131356402D01*
X138944359Y-131356404D01*
X139057017Y-131452283D01*
X139097564Y-131486791D01*
X139101787Y-131489151D01*
X139101791Y-131489154D01*
X139141342Y-131511258D01*
X139277398Y-131587297D01*
X139281996Y-131588791D01*
X139468724Y-131649463D01*
X139468726Y-131649464D01*
X139473329Y-131650959D01*
X139677894Y-131675351D01*
X139682716Y-131674980D01*
X139682719Y-131674980D01*
X139750541Y-131669761D01*
X139883300Y-131659546D01*
X140081725Y-131604145D01*
X140086038Y-131601966D01*
X140086044Y-131601964D01*
X140261289Y-131513441D01*
X140261291Y-131513440D01*
X140265610Y-131511258D01*
X140300943Y-131483653D01*
X140424135Y-131387406D01*
X140424139Y-131387402D01*
X140427951Y-131384424D01*
X140562564Y-131228472D01*
X140581231Y-131195613D01*
X140661934Y-131053550D01*
X140661935Y-131053547D01*
X140664323Y-131049344D01*
X140677882Y-131008586D01*
X140727824Y-130858454D01*
X140727824Y-130858452D01*
X140729351Y-130853863D01*
X140755171Y-130649474D01*
X140755583Y-130620000D01*
X140748553Y-130548303D01*
X140735952Y-130419780D01*
X140735951Y-130419776D01*
X140735480Y-130414970D01*
X140730865Y-130399682D01*
X140677333Y-130222380D01*
X140675935Y-130217749D01*
X140579218Y-130035849D01*
X140449011Y-129876200D01*
X140357426Y-129800434D01*
X140294002Y-129747965D01*
X140294000Y-129747964D01*
X140290275Y-129744882D01*
X140178123Y-129684242D01*
X140113309Y-129649197D01*
X140113308Y-129649197D01*
X140109055Y-129646897D01*
X140015352Y-129617891D01*
X139916875Y-129587407D01*
X139916871Y-129587406D01*
X139912254Y-129585977D01*
X139907446Y-129585472D01*
X139907443Y-129585471D01*
X139712185Y-129564949D01*
X139712183Y-129564949D01*
X139707369Y-129564443D01*
X139647354Y-129569905D01*
X139507022Y-129582675D01*
X139507017Y-129582676D01*
X139502203Y-129583114D01*
X139304572Y-129641280D01*
X139300288Y-129643519D01*
X139300287Y-129643520D01*
X139289428Y-129649197D01*
X139122002Y-129736726D01*
X139118231Y-129739758D01*
X138965220Y-129862781D01*
X138965217Y-129862783D01*
X138961447Y-129865815D01*
X138958333Y-129869526D01*
X138958332Y-129869527D01*
X138885136Y-129956759D01*
X138829024Y-130023630D01*
X138826689Y-130027878D01*
X138826688Y-130027879D01*
X138819955Y-130040126D01*
X138729776Y-130204162D01*
X138728313Y-130208775D01*
X138728311Y-130208779D01*
X138692707Y-130321019D01*
X138667484Y-130400532D01*
X138666944Y-130405344D01*
X138666944Y-130405345D01*
X138650046Y-130556000D01*
X138644520Y-130605262D01*
X137049690Y-130605262D01*
X137056273Y-130563697D01*
X137057492Y-130556000D01*
X137037646Y-130430696D01*
X137019925Y-130395917D01*
X136983586Y-130324597D01*
X136983585Y-130324595D01*
X136980050Y-130317658D01*
X136890342Y-130227950D01*
X136883405Y-130224415D01*
X136883403Y-130224414D01*
X136784244Y-130173890D01*
X136784243Y-130173890D01*
X136777304Y-130170354D01*
X136769610Y-130169135D01*
X136769609Y-130169135D01*
X136659697Y-130151727D01*
X136652000Y-130150508D01*
X136644303Y-130151727D01*
X136534391Y-130169135D01*
X136534390Y-130169135D01*
X136526696Y-130170354D01*
X136519757Y-130173890D01*
X136519756Y-130173890D01*
X136420597Y-130224414D01*
X136420595Y-130224415D01*
X136413658Y-130227950D01*
X136323950Y-130317658D01*
X136320415Y-130324595D01*
X136320414Y-130324597D01*
X136284075Y-130395917D01*
X136266354Y-130430696D01*
X136246508Y-130556000D01*
X119921308Y-130556000D01*
X119920553Y-130548303D01*
X119907952Y-130419780D01*
X119907951Y-130419776D01*
X119907480Y-130414970D01*
X119902865Y-130399682D01*
X119849333Y-130222380D01*
X119847935Y-130217749D01*
X119751218Y-130035849D01*
X119621011Y-129876200D01*
X119529426Y-129800434D01*
X119521649Y-129794000D01*
X127918318Y-129794000D01*
X127938956Y-129950762D01*
X127999464Y-130096841D01*
X128095718Y-130222282D01*
X128221159Y-130318536D01*
X128367238Y-130379044D01*
X128524000Y-130399682D01*
X128680762Y-130379044D01*
X128826841Y-130318536D01*
X128952282Y-130222282D01*
X129048536Y-130096841D01*
X129109044Y-129950762D01*
X129129682Y-129794000D01*
X129109044Y-129637238D01*
X129048536Y-129491159D01*
X128952282Y-129365718D01*
X128826841Y-129269464D01*
X128680762Y-129208956D01*
X128524000Y-129188318D01*
X128367238Y-129208956D01*
X128221159Y-129269464D01*
X128095718Y-129365718D01*
X127999464Y-129491159D01*
X127938956Y-129637238D01*
X127918318Y-129794000D01*
X119521649Y-129794000D01*
X119466002Y-129747965D01*
X119466000Y-129747964D01*
X119462275Y-129744882D01*
X119350123Y-129684242D01*
X119285309Y-129649197D01*
X119285308Y-129649197D01*
X119281055Y-129646897D01*
X119187352Y-129617891D01*
X119088875Y-129587407D01*
X119088871Y-129587406D01*
X119084254Y-129585977D01*
X119079446Y-129585472D01*
X119079443Y-129585471D01*
X118884185Y-129564949D01*
X118884183Y-129564949D01*
X118879369Y-129564443D01*
X118819354Y-129569905D01*
X118679022Y-129582675D01*
X118679017Y-129582676D01*
X118674203Y-129583114D01*
X118476572Y-129641280D01*
X118472288Y-129643519D01*
X118472287Y-129643520D01*
X118461428Y-129649197D01*
X118294002Y-129736726D01*
X118290231Y-129739758D01*
X118137220Y-129862781D01*
X118137217Y-129862783D01*
X118133447Y-129865815D01*
X118130333Y-129869526D01*
X118130332Y-129869527D01*
X118057136Y-129956759D01*
X118001024Y-130023630D01*
X117998689Y-130027878D01*
X117998688Y-130027879D01*
X117991955Y-130040126D01*
X117901776Y-130204162D01*
X117900313Y-130208775D01*
X117900311Y-130208779D01*
X117864707Y-130321019D01*
X117839484Y-130400532D01*
X117838944Y-130405344D01*
X117838944Y-130405345D01*
X117822046Y-130556000D01*
X117816520Y-130605262D01*
X116800000Y-130605262D01*
X116800000Y-128239405D01*
X117729898Y-128239405D01*
X117730995Y-128256145D01*
X117732408Y-128265064D01*
X117782200Y-128461121D01*
X117785220Y-128469649D01*
X117869904Y-128653341D01*
X117874422Y-128661167D01*
X117991171Y-128826363D01*
X117997035Y-128833229D01*
X118141931Y-128974381D01*
X118148954Y-128980068D01*
X118317138Y-129092446D01*
X118325093Y-129096764D01*
X118510929Y-129176606D01*
X118519540Y-129179404D01*
X118711830Y-129222914D01*
X118719167Y-129220840D01*
X118721787Y-129217514D01*
X118722000Y-129216317D01*
X118722000Y-129204679D01*
X119022000Y-129204679D01*
X119026122Y-129217364D01*
X119027292Y-129218215D01*
X119033272Y-129218725D01*
X119137115Y-129203668D01*
X119145914Y-129201556D01*
X119337450Y-129136538D01*
X119345714Y-129132858D01*
X119522194Y-129034026D01*
X119525142Y-129032000D01*
X129188318Y-129032000D01*
X129208956Y-129188762D01*
X129269464Y-129334841D01*
X129365718Y-129460282D01*
X129491159Y-129556536D01*
X129637238Y-129617044D01*
X129794000Y-129637682D01*
X129950762Y-129617044D01*
X129956760Y-129614560D01*
X129956762Y-129614559D01*
X130085163Y-129561374D01*
X130146159Y-129556573D01*
X130198328Y-129588543D01*
X130221743Y-129645071D01*
X130221201Y-129665760D01*
X130204318Y-129794000D01*
X130224956Y-129950762D01*
X130285464Y-130096841D01*
X130381718Y-130222282D01*
X130507159Y-130318536D01*
X130653238Y-130379044D01*
X130810000Y-130399682D01*
X130966762Y-130379044D01*
X131112841Y-130318536D01*
X131238282Y-130222282D01*
X131334536Y-130096841D01*
X131395044Y-129950762D01*
X131415682Y-129794000D01*
X131395044Y-129637238D01*
X131334536Y-129491159D01*
X131238282Y-129365718D01*
X131112841Y-129269464D01*
X130966762Y-129208956D01*
X130810000Y-129188318D01*
X130653238Y-129208956D01*
X130647240Y-129211440D01*
X130647238Y-129211441D01*
X130518837Y-129264626D01*
X130457841Y-129269427D01*
X130405672Y-129237457D01*
X130382257Y-129180929D01*
X130382799Y-129160240D01*
X130398835Y-129038434D01*
X130399682Y-129032000D01*
X130379044Y-128875238D01*
X130318536Y-128729159D01*
X130222282Y-128603718D01*
X130096841Y-128507464D01*
X129950762Y-128446956D01*
X129794000Y-128426318D01*
X129637238Y-128446956D01*
X129491159Y-128507464D01*
X129365718Y-128603718D01*
X129269464Y-128729159D01*
X129208956Y-128875238D01*
X129188318Y-129032000D01*
X119525142Y-129032000D01*
X119529652Y-129028900D01*
X119685157Y-128899568D01*
X119691568Y-128893157D01*
X119820900Y-128737652D01*
X119826026Y-128730194D01*
X119924858Y-128553714D01*
X119928538Y-128545450D01*
X119993556Y-128353914D01*
X119995668Y-128345115D01*
X120010109Y-128245518D01*
X120007850Y-128232372D01*
X120006815Y-128231363D01*
X120000968Y-128230000D01*
X119037680Y-128230000D01*
X119024995Y-128234122D01*
X119022000Y-128238243D01*
X119022000Y-129204679D01*
X118722000Y-129204679D01*
X118722000Y-128245680D01*
X118717878Y-128232995D01*
X118713757Y-128230000D01*
X117744962Y-128230000D01*
X117732277Y-128234122D01*
X117730202Y-128236978D01*
X117729898Y-128239405D01*
X116800000Y-128239405D01*
X116800000Y-128065262D01*
X138644520Y-128065262D01*
X138644925Y-128070082D01*
X138659657Y-128245518D01*
X138661759Y-128270553D01*
X138663092Y-128275201D01*
X138663092Y-128275202D01*
X138712342Y-128446956D01*
X138718544Y-128468586D01*
X138812712Y-128651818D01*
X138940677Y-128813270D01*
X138944357Y-128816402D01*
X138944359Y-128816404D01*
X139034544Y-128893157D01*
X139097564Y-128946791D01*
X139101787Y-128949151D01*
X139101791Y-128949154D01*
X139141342Y-128971258D01*
X139277398Y-129047297D01*
X139281996Y-129048791D01*
X139468724Y-129109463D01*
X139468726Y-129109464D01*
X139473329Y-129110959D01*
X139677894Y-129135351D01*
X139682716Y-129134980D01*
X139682719Y-129134980D01*
X139750541Y-129129761D01*
X139883300Y-129119546D01*
X140081725Y-129064145D01*
X140086038Y-129061966D01*
X140086044Y-129061964D01*
X140261289Y-128973441D01*
X140261291Y-128973440D01*
X140265610Y-128971258D01*
X140357370Y-128899568D01*
X140424135Y-128847406D01*
X140424139Y-128847402D01*
X140427951Y-128844424D01*
X140437615Y-128833229D01*
X140520113Y-128737652D01*
X140562564Y-128688472D01*
X140564957Y-128684260D01*
X140661934Y-128513550D01*
X140661935Y-128513547D01*
X140664323Y-128509344D01*
X140677882Y-128468586D01*
X140727824Y-128318454D01*
X140727824Y-128318452D01*
X140729351Y-128313863D01*
X140736643Y-128256145D01*
X140754823Y-128112228D01*
X140755171Y-128109474D01*
X140755583Y-128080000D01*
X140753667Y-128060454D01*
X140735952Y-127879780D01*
X140735951Y-127879776D01*
X140735480Y-127874970D01*
X140732520Y-127865164D01*
X140680831Y-127693965D01*
X140675935Y-127677749D01*
X140579218Y-127495849D01*
X140449011Y-127336200D01*
X140436458Y-127325815D01*
X140294002Y-127207965D01*
X140294000Y-127207964D01*
X140290275Y-127204882D01*
X140143636Y-127125595D01*
X140113309Y-127109197D01*
X140113308Y-127109197D01*
X140109055Y-127106897D01*
X139968061Y-127063252D01*
X139916875Y-127047407D01*
X139916871Y-127047406D01*
X139912254Y-127045977D01*
X139907446Y-127045472D01*
X139907443Y-127045471D01*
X139712185Y-127024949D01*
X139712183Y-127024949D01*
X139707369Y-127024443D01*
X139647354Y-127029905D01*
X139507022Y-127042675D01*
X139507017Y-127042676D01*
X139502203Y-127043114D01*
X139304572Y-127101280D01*
X139300288Y-127103519D01*
X139300287Y-127103520D01*
X139232528Y-127138944D01*
X139122002Y-127196726D01*
X139118231Y-127199758D01*
X138965220Y-127322781D01*
X138965217Y-127322783D01*
X138961447Y-127325815D01*
X138958333Y-127329526D01*
X138958332Y-127329527D01*
X138871984Y-127432433D01*
X138829024Y-127483630D01*
X138826689Y-127487878D01*
X138826688Y-127487879D01*
X138819955Y-127500126D01*
X138729776Y-127664162D01*
X138728313Y-127668775D01*
X138728311Y-127668779D01*
X138690403Y-127788282D01*
X138667484Y-127860532D01*
X138666944Y-127865344D01*
X138666944Y-127865345D01*
X138655690Y-127965682D01*
X138644520Y-128065262D01*
X116800000Y-128065262D01*
X116800000Y-127914428D01*
X117733487Y-127914428D01*
X117736090Y-127927511D01*
X117737663Y-127928965D01*
X117742378Y-127930000D01*
X118706320Y-127930000D01*
X118719005Y-127925878D01*
X118722000Y-127921757D01*
X118722000Y-127914320D01*
X119022000Y-127914320D01*
X119026122Y-127927005D01*
X119030243Y-127930000D01*
X119997464Y-127930000D01*
X120010149Y-127925878D01*
X120011818Y-127923582D01*
X120012222Y-127919966D01*
X120008003Y-127874048D01*
X120006356Y-127865164D01*
X119951449Y-127670481D01*
X119948208Y-127662037D01*
X119858745Y-127480624D01*
X119854020Y-127472914D01*
X119769703Y-127360000D01*
X124044318Y-127360000D01*
X124064956Y-127516762D01*
X124125464Y-127662841D01*
X124221718Y-127788282D01*
X124347159Y-127884536D01*
X124493238Y-127945044D01*
X124650000Y-127965682D01*
X124806762Y-127945044D01*
X124952841Y-127884536D01*
X125078282Y-127788282D01*
X125174536Y-127662841D01*
X125235044Y-127516762D01*
X125243818Y-127450117D01*
X131855603Y-127450117D01*
X131856822Y-127457814D01*
X131863524Y-127500126D01*
X131875449Y-127575421D01*
X131878985Y-127582360D01*
X131878985Y-127582361D01*
X131925411Y-127673476D01*
X131933045Y-127688459D01*
X132022753Y-127778167D01*
X132029690Y-127781702D01*
X132029692Y-127781703D01*
X132124928Y-127830228D01*
X132135791Y-127835763D01*
X132143485Y-127836982D01*
X132143486Y-127836982D01*
X132253398Y-127854390D01*
X132261095Y-127855609D01*
X132268792Y-127854390D01*
X132378704Y-127836982D01*
X132378705Y-127836982D01*
X132386399Y-127835763D01*
X132397262Y-127830228D01*
X132492498Y-127781703D01*
X132492500Y-127781702D01*
X132499437Y-127778167D01*
X132504943Y-127772661D01*
X132511251Y-127768078D01*
X132513115Y-127770643D01*
X132555086Y-127749258D01*
X132615518Y-127758829D01*
X132681083Y-127792236D01*
X132716696Y-127810382D01*
X132724390Y-127811601D01*
X132724391Y-127811601D01*
X132834303Y-127829009D01*
X132842000Y-127830228D01*
X132849697Y-127829009D01*
X132959609Y-127811601D01*
X132959610Y-127811601D01*
X132967304Y-127810382D01*
X132974244Y-127806846D01*
X133073403Y-127756322D01*
X133073405Y-127756321D01*
X133080342Y-127752786D01*
X133170050Y-127663078D01*
X133180608Y-127642358D01*
X133224110Y-127556980D01*
X133224110Y-127556979D01*
X133227646Y-127550040D01*
X133236824Y-127492095D01*
X133246273Y-127432433D01*
X133247492Y-127424736D01*
X133234064Y-127339952D01*
X133228865Y-127307127D01*
X133228865Y-127307126D01*
X133227646Y-127299432D01*
X133224110Y-127292492D01*
X133173586Y-127193333D01*
X133173585Y-127193331D01*
X133170050Y-127186394D01*
X133080342Y-127096686D01*
X133073405Y-127093151D01*
X133073403Y-127093150D01*
X132974244Y-127042626D01*
X132974243Y-127042626D01*
X132967304Y-127039090D01*
X132959610Y-127037871D01*
X132959609Y-127037871D01*
X132849697Y-127020463D01*
X132842000Y-127019244D01*
X132834303Y-127020463D01*
X132724391Y-127037871D01*
X132724390Y-127037871D01*
X132716696Y-127039090D01*
X132709757Y-127042626D01*
X132709756Y-127042626D01*
X132610597Y-127093150D01*
X132610595Y-127093151D01*
X132603658Y-127096686D01*
X132598152Y-127102192D01*
X132591844Y-127106775D01*
X132589980Y-127104210D01*
X132548009Y-127125595D01*
X132487577Y-127116024D01*
X132393339Y-127068007D01*
X132393338Y-127068007D01*
X132386399Y-127064471D01*
X132378705Y-127063252D01*
X132378704Y-127063252D01*
X132268792Y-127045844D01*
X132261095Y-127044625D01*
X132253398Y-127045844D01*
X132143486Y-127063252D01*
X132143485Y-127063252D01*
X132135791Y-127064471D01*
X132128852Y-127068007D01*
X132128851Y-127068007D01*
X132029692Y-127118531D01*
X132029690Y-127118532D01*
X132022753Y-127122067D01*
X131933045Y-127211775D01*
X131929510Y-127218712D01*
X131929509Y-127218714D01*
X131878985Y-127317873D01*
X131875449Y-127324813D01*
X131855603Y-127450117D01*
X125243818Y-127450117D01*
X125255682Y-127360000D01*
X125235044Y-127203238D01*
X125174536Y-127057159D01*
X125078282Y-126931718D01*
X124952841Y-126835464D01*
X124806762Y-126774956D01*
X124650000Y-126754318D01*
X124493238Y-126774956D01*
X124347159Y-126835464D01*
X124221718Y-126931718D01*
X124125464Y-127057159D01*
X124064956Y-127203238D01*
X124044318Y-127360000D01*
X119769703Y-127360000D01*
X119732994Y-127310840D01*
X119726945Y-127304122D01*
X119578405Y-127166814D01*
X119571240Y-127161315D01*
X119400163Y-127053374D01*
X119392110Y-127049271D01*
X119204229Y-126974314D01*
X119195571Y-126971749D01*
X119037379Y-126940283D01*
X119024132Y-126941851D01*
X119024100Y-126941881D01*
X119022000Y-126949928D01*
X119022000Y-127914320D01*
X118722000Y-127914320D01*
X118722000Y-126954517D01*
X118717878Y-126941832D01*
X118717274Y-126941393D01*
X118710127Y-126940877D01*
X118577559Y-126963657D01*
X118568823Y-126965998D01*
X118379050Y-127036009D01*
X118370887Y-127039902D01*
X118197047Y-127143326D01*
X118189745Y-127148631D01*
X118037657Y-127282010D01*
X118031434Y-127288568D01*
X117906209Y-127447415D01*
X117901284Y-127454998D01*
X117807097Y-127634018D01*
X117803643Y-127642358D01*
X117743658Y-127835538D01*
X117741777Y-127844389D01*
X117733487Y-127914428D01*
X116800000Y-127914428D01*
X116800000Y-125525262D01*
X117816520Y-125525262D01*
X117833759Y-125730553D01*
X117890544Y-125928586D01*
X117984712Y-126111818D01*
X118112677Y-126273270D01*
X118116357Y-126276402D01*
X118116359Y-126276404D01*
X118229017Y-126372283D01*
X118269564Y-126406791D01*
X118273787Y-126409151D01*
X118273791Y-126409154D01*
X118313342Y-126431258D01*
X118449398Y-126507297D01*
X118453996Y-126508791D01*
X118640724Y-126569463D01*
X118640726Y-126569464D01*
X118645329Y-126570959D01*
X118849894Y-126595351D01*
X118854716Y-126594980D01*
X118854719Y-126594980D01*
X118922541Y-126589761D01*
X119055300Y-126579546D01*
X119253725Y-126524145D01*
X119258038Y-126521966D01*
X119258044Y-126521964D01*
X119433289Y-126433441D01*
X119433291Y-126433440D01*
X119437610Y-126431258D01*
X119472943Y-126403653D01*
X119596135Y-126307406D01*
X119596139Y-126307402D01*
X119599951Y-126304424D01*
X119734564Y-126148472D01*
X119753231Y-126115613D01*
X119833934Y-125973550D01*
X119833935Y-125973547D01*
X119836323Y-125969344D01*
X119849882Y-125928586D01*
X119899824Y-125778454D01*
X119899824Y-125778452D01*
X119901351Y-125773863D01*
X119927171Y-125569474D01*
X119927583Y-125540000D01*
X119926138Y-125525262D01*
X138644520Y-125525262D01*
X138661759Y-125730553D01*
X138718544Y-125928586D01*
X138812712Y-126111818D01*
X138940677Y-126273270D01*
X138944357Y-126276402D01*
X138944359Y-126276404D01*
X139057017Y-126372283D01*
X139097564Y-126406791D01*
X139101787Y-126409151D01*
X139101791Y-126409154D01*
X139141342Y-126431258D01*
X139277398Y-126507297D01*
X139281996Y-126508791D01*
X139468724Y-126569463D01*
X139468726Y-126569464D01*
X139473329Y-126570959D01*
X139677894Y-126595351D01*
X139682716Y-126594980D01*
X139682719Y-126594980D01*
X139750541Y-126589761D01*
X139883300Y-126579546D01*
X140081725Y-126524145D01*
X140086038Y-126521966D01*
X140086044Y-126521964D01*
X140261289Y-126433441D01*
X140261291Y-126433440D01*
X140265610Y-126431258D01*
X140300943Y-126403653D01*
X140424135Y-126307406D01*
X140424139Y-126307402D01*
X140427951Y-126304424D01*
X140562564Y-126148472D01*
X140581231Y-126115613D01*
X140661934Y-125973550D01*
X140661935Y-125973547D01*
X140664323Y-125969344D01*
X140677882Y-125928586D01*
X140727824Y-125778454D01*
X140727824Y-125778452D01*
X140729351Y-125773863D01*
X140755171Y-125569474D01*
X140755583Y-125540000D01*
X140735480Y-125334970D01*
X140675935Y-125137749D01*
X140579218Y-124955849D01*
X140449011Y-124796200D01*
X140414911Y-124767990D01*
X140294002Y-124667965D01*
X140294000Y-124667964D01*
X140290275Y-124664882D01*
X140169747Y-124599713D01*
X140113309Y-124569197D01*
X140113308Y-124569197D01*
X140109055Y-124566897D01*
X140045855Y-124547333D01*
X139916875Y-124507407D01*
X139916871Y-124507406D01*
X139912254Y-124505977D01*
X139907446Y-124505472D01*
X139907443Y-124505471D01*
X139712185Y-124484949D01*
X139712183Y-124484949D01*
X139707369Y-124484443D01*
X139647354Y-124489905D01*
X139507022Y-124502675D01*
X139507017Y-124502676D01*
X139502203Y-124503114D01*
X139304572Y-124561280D01*
X139300288Y-124563519D01*
X139300287Y-124563520D01*
X139289428Y-124569197D01*
X139122002Y-124656726D01*
X139118231Y-124659758D01*
X138965220Y-124782781D01*
X138965217Y-124782783D01*
X138961447Y-124785815D01*
X138958333Y-124789526D01*
X138958332Y-124789527D01*
X138875467Y-124888282D01*
X138829024Y-124943630D01*
X138826689Y-124947878D01*
X138826688Y-124947879D01*
X138821208Y-124957848D01*
X138729776Y-125124162D01*
X138667484Y-125320532D01*
X138666944Y-125325344D01*
X138666944Y-125325345D01*
X138665865Y-125334970D01*
X138644520Y-125525262D01*
X119926138Y-125525262D01*
X119907480Y-125334970D01*
X119847935Y-125137749D01*
X119751218Y-124955849D01*
X119621011Y-124796200D01*
X119586911Y-124767990D01*
X119521649Y-124714000D01*
X123292508Y-124714000D01*
X123293727Y-124721697D01*
X123300244Y-124762841D01*
X123312354Y-124839304D01*
X123315890Y-124846243D01*
X123315890Y-124846244D01*
X123337310Y-124888282D01*
X123369950Y-124952342D01*
X123459658Y-125042050D01*
X123466595Y-125045585D01*
X123466597Y-125045586D01*
X123506038Y-125065682D01*
X123572696Y-125099646D01*
X123580390Y-125100865D01*
X123580391Y-125100865D01*
X123690303Y-125118273D01*
X123698000Y-125119492D01*
X123705697Y-125118273D01*
X123815609Y-125100865D01*
X123815610Y-125100865D01*
X123823304Y-125099646D01*
X123889962Y-125065682D01*
X123929403Y-125045586D01*
X123929405Y-125045585D01*
X123936342Y-125042050D01*
X124026050Y-124952342D01*
X124058691Y-124888282D01*
X124080110Y-124846244D01*
X124080110Y-124846243D01*
X124083646Y-124839304D01*
X124095757Y-124762841D01*
X124102273Y-124721697D01*
X124103492Y-124714000D01*
X124816508Y-124714000D01*
X124817727Y-124721697D01*
X124824244Y-124762841D01*
X124836354Y-124839304D01*
X124839890Y-124846243D01*
X124839890Y-124846244D01*
X124861310Y-124888282D01*
X124893950Y-124952342D01*
X124983658Y-125042050D01*
X124990595Y-125045585D01*
X124990597Y-125045586D01*
X125030038Y-125065682D01*
X125096696Y-125099646D01*
X125104390Y-125100865D01*
X125104391Y-125100865D01*
X125214303Y-125118273D01*
X125222000Y-125119492D01*
X125229697Y-125118273D01*
X125339609Y-125100865D01*
X125339610Y-125100865D01*
X125347304Y-125099646D01*
X125413962Y-125065682D01*
X125453403Y-125045586D01*
X125453405Y-125045585D01*
X125460342Y-125042050D01*
X125550050Y-124952342D01*
X125582691Y-124888282D01*
X125604110Y-124846244D01*
X125604110Y-124846243D01*
X125607646Y-124839304D01*
X125619757Y-124762841D01*
X125626273Y-124721697D01*
X125627492Y-124714000D01*
X125611072Y-124610326D01*
X125608865Y-124596391D01*
X125608865Y-124596390D01*
X125607646Y-124588696D01*
X125566227Y-124507407D01*
X125553586Y-124482597D01*
X125553585Y-124482595D01*
X125550050Y-124475658D01*
X125524392Y-124450000D01*
X126934318Y-124450000D01*
X126935165Y-124456434D01*
X126936482Y-124466434D01*
X126954956Y-124606762D01*
X127015464Y-124752841D01*
X127111718Y-124878282D01*
X127237159Y-124974536D01*
X127383238Y-125035044D01*
X127540000Y-125055682D01*
X127696762Y-125035044D01*
X127842841Y-124974536D01*
X127968282Y-124878282D01*
X128064536Y-124752841D01*
X128125044Y-124606762D01*
X128140040Y-124492855D01*
X128166381Y-124437630D01*
X128220152Y-124408435D01*
X128280813Y-124416421D01*
X128325196Y-124458538D01*
X128332348Y-124475186D01*
X128333135Y-124477609D01*
X128334354Y-124485304D01*
X128337890Y-124492243D01*
X128337890Y-124492244D01*
X128377361Y-124569709D01*
X128391950Y-124598342D01*
X128481658Y-124688050D01*
X128488595Y-124691585D01*
X128488597Y-124691586D01*
X128587756Y-124742110D01*
X128594696Y-124745646D01*
X128602390Y-124746865D01*
X128602391Y-124746865D01*
X128712303Y-124764273D01*
X128720000Y-124765492D01*
X128727697Y-124764273D01*
X128837609Y-124746865D01*
X128837610Y-124746865D01*
X128845304Y-124745646D01*
X128852244Y-124742110D01*
X128951403Y-124691586D01*
X128951405Y-124691585D01*
X128958342Y-124688050D01*
X129048050Y-124598342D01*
X129049421Y-124599713D01*
X129090722Y-124569709D01*
X129151908Y-124569712D01*
X129201406Y-124605679D01*
X129212773Y-124625978D01*
X129269464Y-124762841D01*
X129365718Y-124888282D01*
X129491159Y-124984536D01*
X129637238Y-125045044D01*
X129794000Y-125065682D01*
X129950762Y-125045044D01*
X130096841Y-124984536D01*
X130222282Y-124888282D01*
X130318536Y-124762841D01*
X130379044Y-124616762D01*
X130397683Y-124475186D01*
X130398835Y-124466434D01*
X130399682Y-124460000D01*
X133506318Y-124460000D01*
X133507165Y-124466434D01*
X133508317Y-124475186D01*
X133526956Y-124616762D01*
X133587464Y-124762841D01*
X133683718Y-124888282D01*
X133809159Y-124984536D01*
X133955238Y-125045044D01*
X134112000Y-125065682D01*
X134268762Y-125045044D01*
X134414841Y-124984536D01*
X134540282Y-124888282D01*
X134636536Y-124762841D01*
X134697044Y-124616762D01*
X134715683Y-124475186D01*
X134716835Y-124466434D01*
X134717682Y-124460000D01*
X134716366Y-124450000D01*
X134707468Y-124382414D01*
X134697044Y-124303238D01*
X134636536Y-124157159D01*
X134540282Y-124031718D01*
X134414841Y-123935464D01*
X134268762Y-123874956D01*
X134112000Y-123854318D01*
X133955238Y-123874956D01*
X133809159Y-123935464D01*
X133683718Y-124031718D01*
X133587464Y-124157159D01*
X133526956Y-124303238D01*
X133516532Y-124382414D01*
X133507635Y-124450000D01*
X133506318Y-124460000D01*
X130399682Y-124460000D01*
X130394967Y-124424188D01*
X130406117Y-124364028D01*
X130450499Y-124321910D01*
X130508607Y-124313485D01*
X130628935Y-124332543D01*
X130636632Y-124331324D01*
X130746544Y-124313916D01*
X130746545Y-124313916D01*
X130754239Y-124312697D01*
X130762374Y-124308552D01*
X130860338Y-124258637D01*
X130860340Y-124258636D01*
X130867277Y-124255101D01*
X130956985Y-124165393D01*
X130961181Y-124157159D01*
X131011045Y-124059295D01*
X131011045Y-124059294D01*
X131014581Y-124052355D01*
X131017034Y-124036871D01*
X131026234Y-123978781D01*
X131054011Y-123924264D01*
X131108528Y-123896487D01*
X131134315Y-123892403D01*
X131210132Y-123880395D01*
X131210133Y-123880395D01*
X131217827Y-123879176D01*
X131227772Y-123874109D01*
X131323926Y-123825116D01*
X131323928Y-123825115D01*
X131330865Y-123821580D01*
X131420573Y-123731872D01*
X131433049Y-123707387D01*
X131476313Y-123664122D01*
X131536746Y-123654550D01*
X131597182Y-123664122D01*
X131631112Y-123669496D01*
X131638809Y-123668277D01*
X131748721Y-123650869D01*
X131748722Y-123650869D01*
X131756416Y-123649650D01*
X131763356Y-123646114D01*
X131862515Y-123595590D01*
X131862517Y-123595589D01*
X131869454Y-123592054D01*
X131959162Y-123502346D01*
X131972736Y-123475707D01*
X132013222Y-123396248D01*
X132013222Y-123396247D01*
X132016758Y-123389308D01*
X132018879Y-123375921D01*
X132035385Y-123271701D01*
X132036604Y-123264004D01*
X132031830Y-123233863D01*
X132017977Y-123146395D01*
X132017977Y-123146394D01*
X132016758Y-123138700D01*
X132013222Y-123131760D01*
X131962698Y-123032601D01*
X131962697Y-123032599D01*
X131959162Y-123025662D01*
X131918762Y-122985262D01*
X138644520Y-122985262D01*
X138650581Y-123057440D01*
X138660398Y-123174342D01*
X138661759Y-123190553D01*
X138663092Y-123195201D01*
X138663092Y-123195202D01*
X138716545Y-123381613D01*
X138718544Y-123388586D01*
X138812712Y-123571818D01*
X138940677Y-123733270D01*
X138944357Y-123736402D01*
X138944359Y-123736404D01*
X139007718Y-123790326D01*
X139097564Y-123866791D01*
X139101787Y-123869151D01*
X139101791Y-123869154D01*
X139202547Y-123925464D01*
X139277398Y-123967297D01*
X139281996Y-123968791D01*
X139468724Y-124029463D01*
X139468726Y-124029464D01*
X139473329Y-124030959D01*
X139677894Y-124055351D01*
X139682716Y-124054980D01*
X139682719Y-124054980D01*
X139750541Y-124049761D01*
X139883300Y-124039546D01*
X140081725Y-123984145D01*
X140086038Y-123981966D01*
X140086044Y-123981964D01*
X140261289Y-123893441D01*
X140261291Y-123893440D01*
X140265610Y-123891258D01*
X140279514Y-123880395D01*
X140424135Y-123767406D01*
X140424139Y-123767402D01*
X140427951Y-123764424D01*
X140451297Y-123737378D01*
X140510942Y-123668277D01*
X140562564Y-123608472D01*
X140564957Y-123604260D01*
X140661934Y-123433550D01*
X140661935Y-123433547D01*
X140664323Y-123429344D01*
X140669004Y-123415274D01*
X140727824Y-123238454D01*
X140727824Y-123238452D01*
X140729351Y-123233863D01*
X140735865Y-123182303D01*
X140754823Y-123032228D01*
X140755171Y-123029474D01*
X140755583Y-123000000D01*
X140753667Y-122980454D01*
X140735952Y-122799780D01*
X140735951Y-122799776D01*
X140735480Y-122794970D01*
X140732690Y-122785727D01*
X140677333Y-122602380D01*
X140675935Y-122597749D01*
X140579218Y-122415849D01*
X140449011Y-122256200D01*
X140405253Y-122220000D01*
X140294002Y-122127965D01*
X140294000Y-122127964D01*
X140290275Y-122124882D01*
X140109055Y-122026897D01*
X139997526Y-121992373D01*
X139916875Y-121967407D01*
X139916871Y-121967406D01*
X139912254Y-121965977D01*
X139907446Y-121965472D01*
X139907443Y-121965471D01*
X139712185Y-121944949D01*
X139712183Y-121944949D01*
X139707369Y-121944443D01*
X139647354Y-121949905D01*
X139507022Y-121962675D01*
X139507017Y-121962676D01*
X139502203Y-121963114D01*
X139304572Y-122021280D01*
X139300288Y-122023519D01*
X139300287Y-122023520D01*
X139235785Y-122057241D01*
X139122002Y-122116726D01*
X139118231Y-122119758D01*
X138965220Y-122242781D01*
X138965217Y-122242783D01*
X138961447Y-122245815D01*
X138958333Y-122249526D01*
X138958332Y-122249527D01*
X138949585Y-122259952D01*
X138829024Y-122403630D01*
X138826689Y-122407878D01*
X138826688Y-122407879D01*
X138819955Y-122420126D01*
X138729776Y-122584162D01*
X138728313Y-122588775D01*
X138728311Y-122588779D01*
X138707838Y-122653319D01*
X138667484Y-122780532D01*
X138666944Y-122785344D01*
X138666944Y-122785345D01*
X138649991Y-122936489D01*
X138644520Y-122985262D01*
X131918762Y-122985262D01*
X131869454Y-122935954D01*
X131862517Y-122932419D01*
X131862515Y-122932418D01*
X131763356Y-122881894D01*
X131763355Y-122881894D01*
X131756416Y-122878358D01*
X131748722Y-122877139D01*
X131748721Y-122877139D01*
X131638809Y-122859731D01*
X131631112Y-122858512D01*
X131623415Y-122859731D01*
X131513503Y-122877139D01*
X131513502Y-122877139D01*
X131505808Y-122878358D01*
X131498869Y-122881894D01*
X131498868Y-122881894D01*
X131399709Y-122932418D01*
X131399707Y-122932419D01*
X131392770Y-122935954D01*
X131303062Y-123025662D01*
X131299526Y-123032601D01*
X131299525Y-123032603D01*
X131290586Y-123050147D01*
X131247322Y-123093412D01*
X131186889Y-123102984D01*
X131100220Y-123089257D01*
X131092523Y-123088038D01*
X131084826Y-123089257D01*
X130974914Y-123106665D01*
X130974913Y-123106665D01*
X130967219Y-123107884D01*
X130960280Y-123111420D01*
X130960279Y-123111420D01*
X130861120Y-123161944D01*
X130861118Y-123161945D01*
X130854181Y-123165480D01*
X130764473Y-123255188D01*
X130760938Y-123262125D01*
X130760937Y-123262127D01*
X130725330Y-123332010D01*
X130706877Y-123368226D01*
X130705658Y-123375920D01*
X130705658Y-123375921D01*
X130695224Y-123441800D01*
X130667447Y-123496317D01*
X130612929Y-123524094D01*
X130584838Y-123528543D01*
X130524406Y-123518971D01*
X130481142Y-123475707D01*
X130471571Y-123415274D01*
X130481142Y-123385817D01*
X130513534Y-123322244D01*
X130513534Y-123322243D01*
X130517070Y-123315304D01*
X130523960Y-123271806D01*
X130535697Y-123197697D01*
X130536916Y-123190000D01*
X130533337Y-123167403D01*
X130518289Y-123072391D01*
X130518289Y-123072390D01*
X130517070Y-123064696D01*
X130500527Y-123032228D01*
X130463010Y-122958597D01*
X130463009Y-122958595D01*
X130459474Y-122951658D01*
X130369766Y-122861950D01*
X130362829Y-122858415D01*
X130362827Y-122858414D01*
X130263668Y-122807890D01*
X130263667Y-122807890D01*
X130256728Y-122804354D01*
X130249034Y-122803135D01*
X130249033Y-122803135D01*
X130139121Y-122785727D01*
X130131424Y-122784508D01*
X130123727Y-122785727D01*
X130013815Y-122803135D01*
X130013814Y-122803135D01*
X130006120Y-122804354D01*
X129999181Y-122807890D01*
X129999180Y-122807890D01*
X129900021Y-122858414D01*
X129900019Y-122858415D01*
X129893082Y-122861950D01*
X129846320Y-122908712D01*
X129791803Y-122936489D01*
X129731371Y-122926918D01*
X129688106Y-122883653D01*
X129678535Y-122854194D01*
X129672865Y-122818391D01*
X129672865Y-122818390D01*
X129671646Y-122810696D01*
X129668110Y-122803757D01*
X129668109Y-122803753D01*
X129650028Y-122768268D01*
X129640456Y-122707836D01*
X129668233Y-122653319D01*
X129722749Y-122625541D01*
X129738251Y-122623086D01*
X129738253Y-122623085D01*
X129745945Y-122621867D01*
X129773259Y-122607950D01*
X129852044Y-122567807D01*
X129852046Y-122567806D01*
X129858983Y-122564271D01*
X129948691Y-122474563D01*
X129978608Y-122415849D01*
X130002751Y-122368465D01*
X130002751Y-122368464D01*
X130006287Y-122361525D01*
X130022375Y-122259952D01*
X130024914Y-122243918D01*
X130026133Y-122236221D01*
X130008499Y-122124882D01*
X130007506Y-122118612D01*
X130007506Y-122118611D01*
X130006287Y-122110917D01*
X129978938Y-122057241D01*
X129952227Y-122004818D01*
X129952226Y-122004816D01*
X129948691Y-121997879D01*
X129858983Y-121908171D01*
X129852046Y-121904636D01*
X129852044Y-121904635D01*
X129752885Y-121854111D01*
X129752884Y-121854111D01*
X129745945Y-121850575D01*
X129738251Y-121849356D01*
X129738250Y-121849356D01*
X129628338Y-121831948D01*
X129620641Y-121830729D01*
X129612944Y-121831948D01*
X129503032Y-121849356D01*
X129503031Y-121849356D01*
X129495337Y-121850575D01*
X129488398Y-121854111D01*
X129488397Y-121854111D01*
X129389238Y-121904635D01*
X129389236Y-121904636D01*
X129382299Y-121908171D01*
X129292591Y-121997879D01*
X129277506Y-122027486D01*
X129273909Y-122034545D01*
X129230645Y-122077809D01*
X129170213Y-122087381D01*
X129115696Y-122059604D01*
X129094235Y-122027486D01*
X129068757Y-121965977D01*
X129048536Y-121917159D01*
X128952282Y-121791718D01*
X128826841Y-121695464D01*
X128680762Y-121634956D01*
X128524000Y-121614318D01*
X128367238Y-121634956D01*
X128221159Y-121695464D01*
X128095718Y-121791718D01*
X127999464Y-121917159D01*
X127938956Y-122063238D01*
X127918318Y-122220000D01*
X127938956Y-122376762D01*
X127999464Y-122522841D01*
X128095718Y-122648282D01*
X128221159Y-122744536D01*
X128367238Y-122805044D01*
X128524000Y-122825682D01*
X128680762Y-122805044D01*
X128686760Y-122802560D01*
X128686762Y-122802559D01*
X128753410Y-122774953D01*
X128814407Y-122770152D01*
X128866575Y-122802122D01*
X128889990Y-122858650D01*
X128889076Y-122881903D01*
X128880508Y-122936000D01*
X128881727Y-122943697D01*
X128895313Y-123029474D01*
X128900354Y-123061304D01*
X128903890Y-123068243D01*
X128903890Y-123068244D01*
X128953435Y-123165480D01*
X128957950Y-123174342D01*
X129047658Y-123264050D01*
X129054595Y-123267585D01*
X129054597Y-123267586D01*
X129133147Y-123307609D01*
X129160696Y-123321646D01*
X129168390Y-123322865D01*
X129168391Y-123322865D01*
X129278303Y-123340273D01*
X129286000Y-123341492D01*
X129293697Y-123340273D01*
X129403609Y-123322865D01*
X129403610Y-123322865D01*
X129411304Y-123321646D01*
X129438853Y-123307609D01*
X129517403Y-123267586D01*
X129517405Y-123267585D01*
X129524342Y-123264050D01*
X129571104Y-123217288D01*
X129625621Y-123189511D01*
X129686053Y-123199082D01*
X129729318Y-123242347D01*
X129738888Y-123271804D01*
X129745778Y-123315304D01*
X129749314Y-123322243D01*
X129749314Y-123322244D01*
X129759122Y-123341492D01*
X129803374Y-123428342D01*
X129893082Y-123518050D01*
X129900019Y-123521585D01*
X129900021Y-123521586D01*
X129990148Y-123567508D01*
X130006120Y-123575646D01*
X130013814Y-123576865D01*
X130013815Y-123576865D01*
X130123727Y-123594273D01*
X130131424Y-123595492D01*
X130175520Y-123588508D01*
X130235952Y-123598079D01*
X130279217Y-123641344D01*
X130288788Y-123701776D01*
X130279217Y-123731234D01*
X130249108Y-123790326D01*
X130243289Y-123801747D01*
X130242070Y-123809441D01*
X130242070Y-123809442D01*
X130234007Y-123860352D01*
X130206230Y-123914868D01*
X130151713Y-123942646D01*
X130097988Y-123932695D01*
X130096841Y-123935464D01*
X129956759Y-123877440D01*
X129950762Y-123874956D01*
X129794000Y-123854318D01*
X129637238Y-123874956D01*
X129491159Y-123935464D01*
X129365718Y-124031718D01*
X129269464Y-124157159D01*
X129266982Y-124163151D01*
X129266978Y-124163158D01*
X129260470Y-124178870D01*
X129220733Y-124225395D01*
X129161238Y-124239678D01*
X129104710Y-124216262D01*
X129080797Y-124185928D01*
X129069898Y-124164536D01*
X129063515Y-124152010D01*
X129051586Y-124128597D01*
X129051585Y-124128595D01*
X129048050Y-124121658D01*
X128958342Y-124031950D01*
X128951405Y-124028415D01*
X128951403Y-124028414D01*
X128852244Y-123977890D01*
X128852243Y-123977890D01*
X128845304Y-123974354D01*
X128837610Y-123973135D01*
X128837609Y-123973135D01*
X128727697Y-123955727D01*
X128720000Y-123954508D01*
X128712303Y-123955727D01*
X128602391Y-123973135D01*
X128602390Y-123973135D01*
X128594696Y-123974354D01*
X128587757Y-123977890D01*
X128587756Y-123977890D01*
X128488597Y-124028414D01*
X128488595Y-124028415D01*
X128481658Y-124031950D01*
X128391950Y-124121658D01*
X128388415Y-124128595D01*
X128388414Y-124128597D01*
X128339984Y-124223647D01*
X128334354Y-124234696D01*
X128333135Y-124242390D01*
X128333135Y-124242391D01*
X128322656Y-124308552D01*
X128294878Y-124363069D01*
X128240362Y-124390846D01*
X128179930Y-124381274D01*
X128136665Y-124338010D01*
X128126722Y-124305984D01*
X128125892Y-124299675D01*
X128125891Y-124299671D01*
X128125044Y-124293238D01*
X128064536Y-124147159D01*
X127968282Y-124021718D01*
X127842841Y-123925464D01*
X127696762Y-123864956D01*
X127540000Y-123844318D01*
X127383238Y-123864956D01*
X127237159Y-123925464D01*
X127111718Y-124021718D01*
X127015464Y-124147159D01*
X126954956Y-124293238D01*
X126939790Y-124408435D01*
X126935947Y-124437630D01*
X126934318Y-124450000D01*
X125524392Y-124450000D01*
X125460342Y-124385950D01*
X125453405Y-124382415D01*
X125453403Y-124382414D01*
X125354244Y-124331890D01*
X125354243Y-124331890D01*
X125347304Y-124328354D01*
X125339610Y-124327135D01*
X125339609Y-124327135D01*
X125229697Y-124309727D01*
X125222000Y-124308508D01*
X125214303Y-124309727D01*
X125104391Y-124327135D01*
X125104390Y-124327135D01*
X125096696Y-124328354D01*
X125089757Y-124331890D01*
X125089756Y-124331890D01*
X124990597Y-124382414D01*
X124990595Y-124382415D01*
X124983658Y-124385950D01*
X124893950Y-124475658D01*
X124890415Y-124482595D01*
X124890414Y-124482597D01*
X124877773Y-124507407D01*
X124836354Y-124588696D01*
X124835135Y-124596390D01*
X124835135Y-124596391D01*
X124832928Y-124610326D01*
X124816508Y-124714000D01*
X124103492Y-124714000D01*
X124087072Y-124610326D01*
X124084865Y-124596391D01*
X124084865Y-124596390D01*
X124083646Y-124588696D01*
X124042227Y-124507407D01*
X124029586Y-124482597D01*
X124029585Y-124482595D01*
X124026050Y-124475658D01*
X123939670Y-124389278D01*
X123911893Y-124334761D01*
X123921464Y-124274329D01*
X123964729Y-124231064D01*
X124025161Y-124221493D01*
X124032358Y-124223023D01*
X124037238Y-124225044D01*
X124043666Y-124225890D01*
X124043669Y-124225891D01*
X124187566Y-124244835D01*
X124194000Y-124245682D01*
X124350762Y-124225044D01*
X124496841Y-124164536D01*
X124622282Y-124068282D01*
X124718536Y-123942841D01*
X124779044Y-123796762D01*
X124799682Y-123640000D01*
X124779044Y-123483238D01*
X124718536Y-123337159D01*
X124622282Y-123211718D01*
X124496841Y-123115464D01*
X124350762Y-123054956D01*
X124194000Y-123034318D01*
X124037238Y-123054956D01*
X123891159Y-123115464D01*
X123765718Y-123211718D01*
X123669464Y-123337159D01*
X123608956Y-123483238D01*
X123588318Y-123640000D01*
X123608956Y-123796762D01*
X123669464Y-123942841D01*
X123765718Y-124068282D01*
X123861803Y-124142010D01*
X123868569Y-124147202D01*
X123903225Y-124197626D01*
X123901624Y-124258791D01*
X123864376Y-124307332D01*
X123805711Y-124324710D01*
X123792815Y-124323525D01*
X123705697Y-124309727D01*
X123698000Y-124308508D01*
X123690303Y-124309727D01*
X123580391Y-124327135D01*
X123580390Y-124327135D01*
X123572696Y-124328354D01*
X123565757Y-124331890D01*
X123565756Y-124331890D01*
X123466597Y-124382414D01*
X123466595Y-124382415D01*
X123459658Y-124385950D01*
X123369950Y-124475658D01*
X123366415Y-124482595D01*
X123366414Y-124482597D01*
X123353773Y-124507407D01*
X123312354Y-124588696D01*
X123311135Y-124596390D01*
X123311135Y-124596391D01*
X123308928Y-124610326D01*
X123292508Y-124714000D01*
X119521649Y-124714000D01*
X119466002Y-124667965D01*
X119466000Y-124667964D01*
X119462275Y-124664882D01*
X119341747Y-124599713D01*
X119285309Y-124569197D01*
X119285308Y-124569197D01*
X119281055Y-124566897D01*
X119217855Y-124547333D01*
X119088875Y-124507407D01*
X119088871Y-124507406D01*
X119084254Y-124505977D01*
X119079446Y-124505472D01*
X119079443Y-124505471D01*
X118884185Y-124484949D01*
X118884183Y-124484949D01*
X118879369Y-124484443D01*
X118819354Y-124489905D01*
X118679022Y-124502675D01*
X118679017Y-124502676D01*
X118674203Y-124503114D01*
X118476572Y-124561280D01*
X118472288Y-124563519D01*
X118472287Y-124563520D01*
X118461428Y-124569197D01*
X118294002Y-124656726D01*
X118290231Y-124659758D01*
X118137220Y-124782781D01*
X118137217Y-124782783D01*
X118133447Y-124785815D01*
X118130333Y-124789526D01*
X118130332Y-124789527D01*
X118047467Y-124888282D01*
X118001024Y-124943630D01*
X117998689Y-124947878D01*
X117998688Y-124947879D01*
X117993208Y-124957848D01*
X117901776Y-125124162D01*
X117839484Y-125320532D01*
X117838944Y-125325344D01*
X117838944Y-125325345D01*
X117837865Y-125334970D01*
X117816520Y-125525262D01*
X116800000Y-125525262D01*
X116800000Y-122985262D01*
X117816520Y-122985262D01*
X117822581Y-123057440D01*
X117832398Y-123174342D01*
X117833759Y-123190553D01*
X117835092Y-123195201D01*
X117835092Y-123195202D01*
X117888545Y-123381613D01*
X117890544Y-123388586D01*
X117984712Y-123571818D01*
X118112677Y-123733270D01*
X118116357Y-123736402D01*
X118116359Y-123736404D01*
X118179718Y-123790326D01*
X118269564Y-123866791D01*
X118273787Y-123869151D01*
X118273791Y-123869154D01*
X118374547Y-123925464D01*
X118449398Y-123967297D01*
X118453996Y-123968791D01*
X118640724Y-124029463D01*
X118640726Y-124029464D01*
X118645329Y-124030959D01*
X118849894Y-124055351D01*
X118854716Y-124054980D01*
X118854719Y-124054980D01*
X118922541Y-124049761D01*
X119055300Y-124039546D01*
X119253725Y-123984145D01*
X119258038Y-123981966D01*
X119258044Y-123981964D01*
X119433289Y-123893441D01*
X119433291Y-123893440D01*
X119437610Y-123891258D01*
X119451514Y-123880395D01*
X119596135Y-123767406D01*
X119596139Y-123767402D01*
X119599951Y-123764424D01*
X119623297Y-123737378D01*
X119682942Y-123668277D01*
X119734564Y-123608472D01*
X119736957Y-123604260D01*
X119833934Y-123433550D01*
X119833935Y-123433547D01*
X119836323Y-123429344D01*
X119841004Y-123415274D01*
X119899824Y-123238454D01*
X119899824Y-123238452D01*
X119901351Y-123233863D01*
X119907865Y-123182303D01*
X119926823Y-123032228D01*
X119927171Y-123029474D01*
X119927583Y-123000000D01*
X119925667Y-122980454D01*
X119907952Y-122799780D01*
X119907951Y-122799776D01*
X119907480Y-122794970D01*
X119904690Y-122785727D01*
X119849333Y-122602380D01*
X119847935Y-122597749D01*
X119751218Y-122415849D01*
X119621011Y-122256200D01*
X119577253Y-122220000D01*
X119466002Y-122127965D01*
X119466000Y-122127964D01*
X119462275Y-122124882D01*
X119281055Y-122026897D01*
X119169526Y-121992373D01*
X119088875Y-121967407D01*
X119088871Y-121967406D01*
X119084254Y-121965977D01*
X119079446Y-121965472D01*
X119079443Y-121965471D01*
X118884185Y-121944949D01*
X118884183Y-121944949D01*
X118879369Y-121944443D01*
X118819354Y-121949905D01*
X118679022Y-121962675D01*
X118679017Y-121962676D01*
X118674203Y-121963114D01*
X118476572Y-122021280D01*
X118472288Y-122023519D01*
X118472287Y-122023520D01*
X118407785Y-122057241D01*
X118294002Y-122116726D01*
X118290231Y-122119758D01*
X118137220Y-122242781D01*
X118137217Y-122242783D01*
X118133447Y-122245815D01*
X118130333Y-122249526D01*
X118130332Y-122249527D01*
X118121585Y-122259952D01*
X118001024Y-122403630D01*
X117998689Y-122407878D01*
X117998688Y-122407879D01*
X117991955Y-122420126D01*
X117901776Y-122584162D01*
X117900313Y-122588775D01*
X117900311Y-122588779D01*
X117879838Y-122653319D01*
X117839484Y-122780532D01*
X117838944Y-122785344D01*
X117838944Y-122785345D01*
X117821991Y-122936489D01*
X117816520Y-122985262D01*
X116800000Y-122985262D01*
X116800000Y-120445262D01*
X117816520Y-120445262D01*
X117833759Y-120650553D01*
X117835092Y-120655201D01*
X117835092Y-120655202D01*
X117863344Y-120753727D01*
X117890544Y-120848586D01*
X117984712Y-121031818D01*
X118112677Y-121193270D01*
X118116357Y-121196402D01*
X118116359Y-121196404D01*
X118209425Y-121275609D01*
X118269564Y-121326791D01*
X118273787Y-121329151D01*
X118273791Y-121329154D01*
X118313342Y-121351258D01*
X118449398Y-121427297D01*
X118453996Y-121428791D01*
X118640724Y-121489463D01*
X118640726Y-121489464D01*
X118645329Y-121490959D01*
X118849894Y-121515351D01*
X118854716Y-121514980D01*
X118854719Y-121514980D01*
X118922541Y-121509761D01*
X119055300Y-121499546D01*
X119253725Y-121444145D01*
X119258038Y-121441966D01*
X119258044Y-121441964D01*
X119433289Y-121353441D01*
X119433291Y-121353440D01*
X119437610Y-121351258D01*
X119534437Y-121275609D01*
X119596135Y-121227406D01*
X119596139Y-121227402D01*
X119599951Y-121224424D01*
X119657286Y-121158000D01*
X127102508Y-121158000D01*
X127103727Y-121165697D01*
X127108591Y-121196404D01*
X127122354Y-121283304D01*
X127125890Y-121290243D01*
X127125890Y-121290244D01*
X127158091Y-121353441D01*
X127179950Y-121396342D01*
X127269658Y-121486050D01*
X127276595Y-121489585D01*
X127276597Y-121489586D01*
X127326436Y-121514980D01*
X127382696Y-121543646D01*
X127390390Y-121544865D01*
X127390391Y-121544865D01*
X127500303Y-121562273D01*
X127508000Y-121563492D01*
X127515697Y-121562273D01*
X127625609Y-121544865D01*
X127625610Y-121544865D01*
X127633304Y-121543646D01*
X127689564Y-121514980D01*
X127739403Y-121489586D01*
X127739405Y-121489585D01*
X127746342Y-121486050D01*
X127836050Y-121396342D01*
X127857910Y-121353441D01*
X127890110Y-121290244D01*
X127890110Y-121290243D01*
X127893646Y-121283304D01*
X127907410Y-121196404D01*
X127912273Y-121165697D01*
X127913492Y-121158000D01*
X127899893Y-121072138D01*
X127894865Y-121040391D01*
X127894865Y-121040390D01*
X127893646Y-121032696D01*
X127836050Y-120919658D01*
X127746342Y-120829950D01*
X127739405Y-120826415D01*
X127739403Y-120826414D01*
X127640244Y-120775890D01*
X127640243Y-120775890D01*
X127633304Y-120772354D01*
X127625610Y-120771135D01*
X127625609Y-120771135D01*
X127515697Y-120753727D01*
X127508000Y-120752508D01*
X127500303Y-120753727D01*
X127390391Y-120771135D01*
X127390390Y-120771135D01*
X127382696Y-120772354D01*
X127375757Y-120775890D01*
X127375756Y-120775890D01*
X127276597Y-120826414D01*
X127276595Y-120826415D01*
X127269658Y-120829950D01*
X127179950Y-120919658D01*
X127122354Y-121032696D01*
X127121135Y-121040390D01*
X127121135Y-121040391D01*
X127116107Y-121072138D01*
X127102508Y-121158000D01*
X119657286Y-121158000D01*
X119734564Y-121068472D01*
X119736957Y-121064260D01*
X119833934Y-120893550D01*
X119833935Y-120893547D01*
X119836323Y-120889344D01*
X119849882Y-120848586D01*
X119899824Y-120698454D01*
X119899824Y-120698452D01*
X119901351Y-120693863D01*
X119927171Y-120489474D01*
X119927583Y-120460000D01*
X119926138Y-120445262D01*
X138644520Y-120445262D01*
X138661759Y-120650553D01*
X138663092Y-120655201D01*
X138663092Y-120655202D01*
X138691344Y-120753727D01*
X138718544Y-120848586D01*
X138812712Y-121031818D01*
X138940677Y-121193270D01*
X138944357Y-121196402D01*
X138944359Y-121196404D01*
X139037425Y-121275609D01*
X139097564Y-121326791D01*
X139101787Y-121329151D01*
X139101791Y-121329154D01*
X139141342Y-121351258D01*
X139277398Y-121427297D01*
X139281996Y-121428791D01*
X139468724Y-121489463D01*
X139468726Y-121489464D01*
X139473329Y-121490959D01*
X139677894Y-121515351D01*
X139682716Y-121514980D01*
X139682719Y-121514980D01*
X139750541Y-121509761D01*
X139883300Y-121499546D01*
X140081725Y-121444145D01*
X140086038Y-121441966D01*
X140086044Y-121441964D01*
X140261289Y-121353441D01*
X140261291Y-121353440D01*
X140265610Y-121351258D01*
X140362437Y-121275609D01*
X140424135Y-121227406D01*
X140424139Y-121227402D01*
X140427951Y-121224424D01*
X140562564Y-121068472D01*
X140564957Y-121064260D01*
X140661934Y-120893550D01*
X140661935Y-120893547D01*
X140664323Y-120889344D01*
X140677882Y-120848586D01*
X140727824Y-120698454D01*
X140727824Y-120698452D01*
X140729351Y-120693863D01*
X140755171Y-120489474D01*
X140755583Y-120460000D01*
X140737431Y-120274865D01*
X140735952Y-120259780D01*
X140735951Y-120259776D01*
X140735480Y-120254970D01*
X140675935Y-120057749D01*
X140579218Y-119875849D01*
X140449011Y-119716200D01*
X140432790Y-119702781D01*
X140294002Y-119587965D01*
X140294000Y-119587964D01*
X140290275Y-119584882D01*
X140109055Y-119486897D01*
X140045855Y-119467333D01*
X139916875Y-119427407D01*
X139916871Y-119427406D01*
X139912254Y-119425977D01*
X139907446Y-119425472D01*
X139907443Y-119425471D01*
X139712185Y-119404949D01*
X139712183Y-119404949D01*
X139707369Y-119404443D01*
X139647354Y-119409905D01*
X139507022Y-119422675D01*
X139507017Y-119422676D01*
X139502203Y-119423114D01*
X139304572Y-119481280D01*
X139300288Y-119483519D01*
X139300287Y-119483520D01*
X139289428Y-119489197D01*
X139122002Y-119576726D01*
X139118231Y-119579758D01*
X138965220Y-119702781D01*
X138965217Y-119702783D01*
X138961447Y-119705815D01*
X138958333Y-119709526D01*
X138958332Y-119709527D01*
X138949585Y-119719952D01*
X138829024Y-119863630D01*
X138826689Y-119867878D01*
X138826688Y-119867879D01*
X138811395Y-119895697D01*
X138729776Y-120044162D01*
X138667484Y-120240532D01*
X138666944Y-120245344D01*
X138666944Y-120245345D01*
X138661544Y-120293492D01*
X138644520Y-120445262D01*
X119926138Y-120445262D01*
X119909431Y-120274865D01*
X119907952Y-120259780D01*
X119907951Y-120259776D01*
X119907480Y-120254970D01*
X119847935Y-120057749D01*
X119757679Y-119888000D01*
X120498508Y-119888000D01*
X120518354Y-120013304D01*
X120521890Y-120020243D01*
X120521890Y-120020244D01*
X120543360Y-120062380D01*
X120575950Y-120126342D01*
X120665658Y-120216050D01*
X120672595Y-120219585D01*
X120672597Y-120219586D01*
X120771756Y-120270110D01*
X120778696Y-120273646D01*
X120786390Y-120274865D01*
X120786391Y-120274865D01*
X120896303Y-120292273D01*
X120904000Y-120293492D01*
X120911697Y-120292273D01*
X121021609Y-120274865D01*
X121021610Y-120274865D01*
X121029304Y-120273646D01*
X121036244Y-120270110D01*
X121135403Y-120219586D01*
X121135405Y-120219585D01*
X121142342Y-120216050D01*
X121232050Y-120126342D01*
X121264641Y-120062380D01*
X121286110Y-120020244D01*
X121286110Y-120020243D01*
X121289646Y-120013304D01*
X121309492Y-119888000D01*
X121307884Y-119877848D01*
X121290865Y-119770391D01*
X121290865Y-119770390D01*
X121289646Y-119762696D01*
X121232050Y-119649658D01*
X121216392Y-119634000D01*
X123800508Y-119634000D01*
X123820354Y-119759304D01*
X123877950Y-119872342D01*
X123967658Y-119962050D01*
X123974595Y-119965585D01*
X123974597Y-119965586D01*
X124053147Y-120005609D01*
X124080696Y-120019646D01*
X124088390Y-120020865D01*
X124088391Y-120020865D01*
X124198303Y-120038273D01*
X124206000Y-120039492D01*
X124213697Y-120038273D01*
X124323609Y-120020865D01*
X124323610Y-120020865D01*
X124331304Y-120019646D01*
X124358853Y-120005609D01*
X124437403Y-119965586D01*
X124437405Y-119965585D01*
X124444342Y-119962050D01*
X124534050Y-119872342D01*
X124591646Y-119759304D01*
X124611492Y-119634000D01*
X124591646Y-119508696D01*
X124588110Y-119501756D01*
X124537586Y-119402597D01*
X124537585Y-119402595D01*
X124534050Y-119395658D01*
X124444342Y-119305950D01*
X124437405Y-119302415D01*
X124437403Y-119302414D01*
X124338244Y-119251890D01*
X124338243Y-119251890D01*
X124331304Y-119248354D01*
X124323610Y-119247135D01*
X124323609Y-119247135D01*
X124213697Y-119229727D01*
X124206000Y-119228508D01*
X124198303Y-119229727D01*
X124088391Y-119247135D01*
X124088390Y-119247135D01*
X124080696Y-119248354D01*
X124073757Y-119251890D01*
X124073756Y-119251890D01*
X123974597Y-119302414D01*
X123974595Y-119302415D01*
X123967658Y-119305950D01*
X123877950Y-119395658D01*
X123874415Y-119402595D01*
X123874414Y-119402597D01*
X123823890Y-119501756D01*
X123820354Y-119508696D01*
X123800508Y-119634000D01*
X121216392Y-119634000D01*
X121142342Y-119559950D01*
X121135405Y-119556415D01*
X121135403Y-119556414D01*
X121036244Y-119505890D01*
X121036243Y-119505890D01*
X121029304Y-119502354D01*
X121021610Y-119501135D01*
X121021609Y-119501135D01*
X120911697Y-119483727D01*
X120904000Y-119482508D01*
X120896303Y-119483727D01*
X120786391Y-119501135D01*
X120786390Y-119501135D01*
X120778696Y-119502354D01*
X120771757Y-119505890D01*
X120771756Y-119505890D01*
X120672597Y-119556414D01*
X120672595Y-119556415D01*
X120665658Y-119559950D01*
X120575950Y-119649658D01*
X120518354Y-119762696D01*
X120517135Y-119770390D01*
X120517135Y-119770391D01*
X120500116Y-119877848D01*
X120498508Y-119888000D01*
X119757679Y-119888000D01*
X119751218Y-119875849D01*
X119621011Y-119716200D01*
X119604790Y-119702781D01*
X119466002Y-119587965D01*
X119466000Y-119587964D01*
X119462275Y-119584882D01*
X119281055Y-119486897D01*
X119217855Y-119467333D01*
X119088875Y-119427407D01*
X119088871Y-119427406D01*
X119084254Y-119425977D01*
X119079446Y-119425472D01*
X119079443Y-119425471D01*
X118884185Y-119404949D01*
X118884183Y-119404949D01*
X118879369Y-119404443D01*
X118819354Y-119409905D01*
X118679022Y-119422675D01*
X118679017Y-119422676D01*
X118674203Y-119423114D01*
X118476572Y-119481280D01*
X118472288Y-119483519D01*
X118472287Y-119483520D01*
X118461428Y-119489197D01*
X118294002Y-119576726D01*
X118290231Y-119579758D01*
X118137220Y-119702781D01*
X118137217Y-119702783D01*
X118133447Y-119705815D01*
X118130333Y-119709526D01*
X118130332Y-119709527D01*
X118121585Y-119719952D01*
X118001024Y-119863630D01*
X117998689Y-119867878D01*
X117998688Y-119867879D01*
X117983395Y-119895697D01*
X117901776Y-120044162D01*
X117839484Y-120240532D01*
X117838944Y-120245344D01*
X117838944Y-120245345D01*
X117833544Y-120293492D01*
X117816520Y-120445262D01*
X116800000Y-120445262D01*
X116800000Y-117905262D01*
X117816520Y-117905262D01*
X117816925Y-117910082D01*
X117832398Y-118094342D01*
X117833759Y-118110553D01*
X117835092Y-118115201D01*
X117835092Y-118115202D01*
X117889105Y-118303566D01*
X117890544Y-118308586D01*
X117984712Y-118491818D01*
X118112677Y-118653270D01*
X118116357Y-118656402D01*
X118116359Y-118656404D01*
X118194680Y-118723060D01*
X118269564Y-118786791D01*
X118273787Y-118789151D01*
X118273791Y-118789154D01*
X118313342Y-118811258D01*
X118449398Y-118887297D01*
X118453996Y-118888791D01*
X118640724Y-118949463D01*
X118640726Y-118949464D01*
X118645329Y-118950959D01*
X118849894Y-118975351D01*
X118854716Y-118974980D01*
X118854719Y-118974980D01*
X118922541Y-118969761D01*
X119055300Y-118959546D01*
X119253725Y-118904145D01*
X119258038Y-118901966D01*
X119258044Y-118901964D01*
X119317362Y-118872000D01*
X120244508Y-118872000D01*
X120245727Y-118879697D01*
X120258433Y-118959917D01*
X120264354Y-118997304D01*
X120321950Y-119110342D01*
X120411658Y-119200050D01*
X120418595Y-119203585D01*
X120418597Y-119203586D01*
X120513399Y-119251890D01*
X120524696Y-119257646D01*
X120532390Y-119258865D01*
X120532391Y-119258865D01*
X120642303Y-119276273D01*
X120650000Y-119277492D01*
X120657697Y-119276273D01*
X120767609Y-119258865D01*
X120767610Y-119258865D01*
X120775304Y-119257646D01*
X120786601Y-119251890D01*
X120881403Y-119203586D01*
X120881405Y-119203585D01*
X120888342Y-119200050D01*
X120978050Y-119110342D01*
X121035646Y-118997304D01*
X121041568Y-118959917D01*
X121054273Y-118879697D01*
X121055492Y-118872000D01*
X121042371Y-118789154D01*
X121036865Y-118754391D01*
X121036865Y-118754390D01*
X121035646Y-118746696D01*
X121025300Y-118726391D01*
X120981586Y-118640597D01*
X120981585Y-118640595D01*
X120978050Y-118633658D01*
X120888342Y-118543950D01*
X120881405Y-118540415D01*
X120881403Y-118540414D01*
X120782244Y-118489890D01*
X120782243Y-118489890D01*
X120775304Y-118486354D01*
X120767610Y-118485135D01*
X120767609Y-118485135D01*
X120657697Y-118467727D01*
X120650000Y-118466508D01*
X120642303Y-118467727D01*
X120532391Y-118485135D01*
X120532390Y-118485135D01*
X120524696Y-118486354D01*
X120517757Y-118489890D01*
X120517756Y-118489890D01*
X120418597Y-118540414D01*
X120418595Y-118540415D01*
X120411658Y-118543950D01*
X120321950Y-118633658D01*
X120318415Y-118640595D01*
X120318414Y-118640597D01*
X120274700Y-118726391D01*
X120264354Y-118746696D01*
X120263135Y-118754390D01*
X120263135Y-118754391D01*
X120257629Y-118789154D01*
X120244508Y-118872000D01*
X119317362Y-118872000D01*
X119433289Y-118813441D01*
X119433291Y-118813440D01*
X119437610Y-118811258D01*
X119510397Y-118754391D01*
X119596135Y-118687406D01*
X119596139Y-118687402D01*
X119599951Y-118684424D01*
X119734564Y-118528472D01*
X119753231Y-118495613D01*
X119833934Y-118353550D01*
X119833935Y-118353547D01*
X119836323Y-118349344D01*
X119849882Y-118308586D01*
X119899824Y-118158454D01*
X119899824Y-118158452D01*
X119901351Y-118153863D01*
X119902227Y-118146934D01*
X119903040Y-118140500D01*
X126414318Y-118140500D01*
X126434956Y-118297262D01*
X126495464Y-118443341D01*
X126591718Y-118568782D01*
X126717159Y-118665036D01*
X126863238Y-118725544D01*
X127020000Y-118746182D01*
X127176762Y-118725544D01*
X127322841Y-118665036D01*
X127448282Y-118568782D01*
X127544536Y-118443341D01*
X127599768Y-118310000D01*
X132964318Y-118310000D01*
X132984956Y-118466762D01*
X133045464Y-118612841D01*
X133141718Y-118738282D01*
X133267159Y-118834536D01*
X133413238Y-118895044D01*
X133570000Y-118915682D01*
X133726762Y-118895044D01*
X133872841Y-118834536D01*
X133998282Y-118738282D01*
X134094536Y-118612841D01*
X134155044Y-118466762D01*
X134175682Y-118310000D01*
X134155044Y-118153238D01*
X134094536Y-118007159D01*
X133998282Y-117881718D01*
X133964766Y-117856000D01*
X137516508Y-117856000D01*
X137517727Y-117863697D01*
X137531313Y-117949474D01*
X137536354Y-117981304D01*
X137539890Y-117988243D01*
X137539890Y-117988244D01*
X137540874Y-117990174D01*
X137593950Y-118094342D01*
X137683658Y-118184050D01*
X137690595Y-118187585D01*
X137690597Y-118187586D01*
X137789756Y-118238110D01*
X137796696Y-118241646D01*
X137804390Y-118242865D01*
X137804391Y-118242865D01*
X137914303Y-118260273D01*
X137922000Y-118261492D01*
X137929697Y-118260273D01*
X138039609Y-118242865D01*
X138039610Y-118242865D01*
X138047304Y-118241646D01*
X138054244Y-118238110D01*
X138153403Y-118187586D01*
X138153405Y-118187585D01*
X138160342Y-118184050D01*
X138250050Y-118094342D01*
X138303127Y-117990174D01*
X138304110Y-117988244D01*
X138304110Y-117988243D01*
X138307646Y-117981304D01*
X138312688Y-117949474D01*
X138319690Y-117905262D01*
X138644520Y-117905262D01*
X138644925Y-117910082D01*
X138660398Y-118094342D01*
X138661759Y-118110553D01*
X138663092Y-118115201D01*
X138663092Y-118115202D01*
X138717105Y-118303566D01*
X138718544Y-118308586D01*
X138812712Y-118491818D01*
X138940677Y-118653270D01*
X138944357Y-118656402D01*
X138944359Y-118656404D01*
X139022680Y-118723060D01*
X139097564Y-118786791D01*
X139101787Y-118789151D01*
X139101791Y-118789154D01*
X139141342Y-118811258D01*
X139277398Y-118887297D01*
X139281996Y-118888791D01*
X139468724Y-118949463D01*
X139468726Y-118949464D01*
X139473329Y-118950959D01*
X139677894Y-118975351D01*
X139682716Y-118974980D01*
X139682719Y-118974980D01*
X139750541Y-118969761D01*
X139883300Y-118959546D01*
X140081725Y-118904145D01*
X140086038Y-118901966D01*
X140086044Y-118901964D01*
X140261289Y-118813441D01*
X140261291Y-118813440D01*
X140265610Y-118811258D01*
X140338397Y-118754391D01*
X140424135Y-118687406D01*
X140424139Y-118687402D01*
X140427951Y-118684424D01*
X140562564Y-118528472D01*
X140581231Y-118495613D01*
X140661934Y-118353550D01*
X140661935Y-118353547D01*
X140664323Y-118349344D01*
X140677882Y-118308586D01*
X140727824Y-118158454D01*
X140727824Y-118158452D01*
X140729351Y-118153863D01*
X140730227Y-118146934D01*
X140750273Y-117988244D01*
X140755171Y-117949474D01*
X140755583Y-117920000D01*
X140752335Y-117886871D01*
X140735952Y-117719780D01*
X140735951Y-117719776D01*
X140735480Y-117714970D01*
X140733456Y-117708264D01*
X140677333Y-117522380D01*
X140675935Y-117517749D01*
X140579218Y-117335849D01*
X140449011Y-117176200D01*
X140432790Y-117162781D01*
X140294002Y-117047965D01*
X140294000Y-117047964D01*
X140290275Y-117044882D01*
X140109055Y-116946897D01*
X139983367Y-116907990D01*
X139916875Y-116887407D01*
X139916871Y-116887406D01*
X139912254Y-116885977D01*
X139907446Y-116885472D01*
X139907443Y-116885471D01*
X139712185Y-116864949D01*
X139712183Y-116864949D01*
X139707369Y-116864443D01*
X139647354Y-116869905D01*
X139507022Y-116882675D01*
X139507017Y-116882676D01*
X139502203Y-116883114D01*
X139304572Y-116941280D01*
X139300288Y-116943519D01*
X139300287Y-116943520D01*
X139289428Y-116949197D01*
X139122002Y-117036726D01*
X139118231Y-117039758D01*
X138965220Y-117162781D01*
X138965217Y-117162783D01*
X138961447Y-117165815D01*
X138958333Y-117169526D01*
X138958332Y-117169527D01*
X138878476Y-117264696D01*
X138829024Y-117323630D01*
X138826689Y-117327878D01*
X138826688Y-117327879D01*
X138819955Y-117340126D01*
X138729776Y-117504162D01*
X138728313Y-117508775D01*
X138728311Y-117508779D01*
X138722230Y-117527950D01*
X138667484Y-117700532D01*
X138666944Y-117705344D01*
X138666944Y-117705345D01*
X138650046Y-117856000D01*
X138644520Y-117905262D01*
X138319690Y-117905262D01*
X138326273Y-117863697D01*
X138327492Y-117856000D01*
X138315927Y-117782981D01*
X138308865Y-117738391D01*
X138308865Y-117738390D01*
X138307646Y-117730696D01*
X138262883Y-117642844D01*
X138253586Y-117624597D01*
X138253585Y-117624595D01*
X138250050Y-117617658D01*
X138160342Y-117527950D01*
X138153405Y-117524415D01*
X138153403Y-117524414D01*
X138054244Y-117473890D01*
X138054243Y-117473890D01*
X138047304Y-117470354D01*
X138039610Y-117469135D01*
X138039609Y-117469135D01*
X137929697Y-117451727D01*
X137922000Y-117450508D01*
X137914303Y-117451727D01*
X137804391Y-117469135D01*
X137804390Y-117469135D01*
X137796696Y-117470354D01*
X137789757Y-117473890D01*
X137789756Y-117473890D01*
X137690597Y-117524414D01*
X137690595Y-117524415D01*
X137683658Y-117527950D01*
X137593950Y-117617658D01*
X137590415Y-117624595D01*
X137590414Y-117624597D01*
X137581117Y-117642844D01*
X137536354Y-117730696D01*
X137535135Y-117738390D01*
X137535135Y-117738391D01*
X137528073Y-117782981D01*
X137516508Y-117856000D01*
X133964766Y-117856000D01*
X133872841Y-117785464D01*
X133726762Y-117724956D01*
X133570000Y-117704318D01*
X133413238Y-117724956D01*
X133267159Y-117785464D01*
X133141718Y-117881718D01*
X133045464Y-118007159D01*
X132984956Y-118153238D01*
X132964318Y-118310000D01*
X127599768Y-118310000D01*
X127605044Y-118297262D01*
X127625682Y-118140500D01*
X127605044Y-117983738D01*
X127544536Y-117837659D01*
X127507517Y-117789415D01*
X127495010Y-117773115D01*
X127474586Y-117715439D01*
X127491964Y-117656774D01*
X127503548Y-117642844D01*
X127518050Y-117628342D01*
X127526300Y-117612152D01*
X127572110Y-117522244D01*
X127572110Y-117522243D01*
X127575646Y-117515304D01*
X127578084Y-117499915D01*
X127594273Y-117397697D01*
X127595492Y-117390000D01*
X127587593Y-117340126D01*
X127576865Y-117272391D01*
X127576865Y-117272390D01*
X127575646Y-117264696D01*
X127535061Y-117185044D01*
X127521586Y-117158597D01*
X127521585Y-117158595D01*
X127518050Y-117151658D01*
X127512104Y-117145712D01*
X127511822Y-117145158D01*
X127507961Y-117139844D01*
X127508803Y-117139233D01*
X127484327Y-117091195D01*
X127493898Y-117030763D01*
X127504349Y-117016379D01*
X127503657Y-117015876D01*
X127508239Y-117009570D01*
X127513745Y-117004064D01*
X127541702Y-116949197D01*
X127567805Y-116897966D01*
X127567805Y-116897965D01*
X127571341Y-116891026D01*
X127577032Y-116855091D01*
X127604808Y-116800575D01*
X127659325Y-116772797D01*
X127719758Y-116782368D01*
X127795519Y-116820970D01*
X127804696Y-116825646D01*
X127812390Y-116826865D01*
X127812391Y-116826865D01*
X127922303Y-116844273D01*
X127930000Y-116845492D01*
X127937697Y-116844273D01*
X128047609Y-116826865D01*
X128047610Y-116826865D01*
X128055304Y-116825646D01*
X128064481Y-116820970D01*
X128161403Y-116771586D01*
X128161405Y-116771585D01*
X128168342Y-116768050D01*
X128258050Y-116678342D01*
X128277374Y-116640418D01*
X128312110Y-116572244D01*
X128312110Y-116572243D01*
X128315646Y-116565304D01*
X128319445Y-116541322D01*
X128334273Y-116447697D01*
X128335492Y-116440000D01*
X128326001Y-116380076D01*
X128316865Y-116322391D01*
X128316865Y-116322390D01*
X128315646Y-116314696D01*
X128306918Y-116297567D01*
X128261586Y-116208597D01*
X128261585Y-116208595D01*
X128258050Y-116201658D01*
X128168342Y-116111950D01*
X128161405Y-116108415D01*
X128161403Y-116108414D01*
X128062244Y-116057890D01*
X128062243Y-116057890D01*
X128055304Y-116054354D01*
X128047610Y-116053135D01*
X128047609Y-116053135D01*
X127937697Y-116035727D01*
X127930000Y-116034508D01*
X127922303Y-116035727D01*
X127812391Y-116053135D01*
X127812390Y-116053135D01*
X127804696Y-116054354D01*
X127797757Y-116057890D01*
X127797756Y-116057890D01*
X127698597Y-116108414D01*
X127698595Y-116108415D01*
X127691658Y-116111950D01*
X127601950Y-116201658D01*
X127598415Y-116208595D01*
X127598414Y-116208597D01*
X127553082Y-116297567D01*
X127544354Y-116314696D01*
X127543135Y-116322390D01*
X127543135Y-116322391D01*
X127538663Y-116350630D01*
X127510887Y-116405147D01*
X127456370Y-116432925D01*
X127395937Y-116423354D01*
X127317939Y-116383612D01*
X127317938Y-116383612D01*
X127310999Y-116380076D01*
X127303305Y-116378857D01*
X127303304Y-116378857D01*
X127193392Y-116361449D01*
X127185695Y-116360230D01*
X127177998Y-116361449D01*
X127068086Y-116378857D01*
X127068085Y-116378857D01*
X127060391Y-116380076D01*
X127053452Y-116383612D01*
X127053451Y-116383612D01*
X126954292Y-116434136D01*
X126954290Y-116434137D01*
X126947353Y-116437672D01*
X126857645Y-116527380D01*
X126854110Y-116534317D01*
X126854109Y-116534319D01*
X126833536Y-116574696D01*
X126800049Y-116640418D01*
X126798830Y-116648112D01*
X126798830Y-116648113D01*
X126790612Y-116700000D01*
X126780203Y-116765722D01*
X126781422Y-116773419D01*
X126795839Y-116864443D01*
X126800049Y-116891026D01*
X126803585Y-116897965D01*
X126803585Y-116897966D01*
X126829689Y-116949197D01*
X126857645Y-117004064D01*
X126863591Y-117010010D01*
X126863873Y-117010564D01*
X126867734Y-117015878D01*
X126866892Y-117016489D01*
X126891368Y-117064527D01*
X126881797Y-117124959D01*
X126871347Y-117139343D01*
X126872039Y-117139846D01*
X126867461Y-117146147D01*
X126861950Y-117151658D01*
X126804354Y-117264696D01*
X126803135Y-117272390D01*
X126803135Y-117272391D01*
X126792407Y-117340126D01*
X126784508Y-117390000D01*
X126785727Y-117397697D01*
X126801738Y-117498789D01*
X126792166Y-117559221D01*
X126748902Y-117602486D01*
X126741851Y-117605736D01*
X126717159Y-117615964D01*
X126591718Y-117712218D01*
X126495464Y-117837659D01*
X126434956Y-117983738D01*
X126414318Y-118140500D01*
X119903040Y-118140500D01*
X119922273Y-117988244D01*
X119927171Y-117949474D01*
X119927583Y-117920000D01*
X119924335Y-117886871D01*
X119907952Y-117719780D01*
X119907951Y-117719776D01*
X119907480Y-117714970D01*
X119905456Y-117708264D01*
X119849333Y-117522380D01*
X119847935Y-117517749D01*
X119751218Y-117335849D01*
X119621011Y-117176200D01*
X119604790Y-117162781D01*
X119466002Y-117047965D01*
X119466000Y-117047964D01*
X119462275Y-117044882D01*
X119281055Y-116946897D01*
X119155367Y-116907990D01*
X119088875Y-116887407D01*
X119088871Y-116887406D01*
X119084254Y-116885977D01*
X119079446Y-116885472D01*
X119079443Y-116885471D01*
X118884185Y-116864949D01*
X118884183Y-116864949D01*
X118879369Y-116864443D01*
X118819354Y-116869905D01*
X118679022Y-116882675D01*
X118679017Y-116882676D01*
X118674203Y-116883114D01*
X118476572Y-116941280D01*
X118472288Y-116943519D01*
X118472287Y-116943520D01*
X118461428Y-116949197D01*
X118294002Y-117036726D01*
X118290231Y-117039758D01*
X118137220Y-117162781D01*
X118137217Y-117162783D01*
X118133447Y-117165815D01*
X118130333Y-117169526D01*
X118130332Y-117169527D01*
X118050476Y-117264696D01*
X118001024Y-117323630D01*
X117998689Y-117327878D01*
X117998688Y-117327879D01*
X117991955Y-117340126D01*
X117901776Y-117504162D01*
X117900313Y-117508775D01*
X117900311Y-117508779D01*
X117894230Y-117527950D01*
X117839484Y-117700532D01*
X117838944Y-117705344D01*
X117838944Y-117705345D01*
X117822046Y-117856000D01*
X117816520Y-117905262D01*
X116800000Y-117905262D01*
X116800000Y-116249748D01*
X117821500Y-116249748D01*
X117822448Y-116254512D01*
X117831012Y-116297567D01*
X117833133Y-116308231D01*
X117877448Y-116374552D01*
X117943769Y-116418867D01*
X117953332Y-116420769D01*
X117953334Y-116420770D01*
X117976005Y-116425279D01*
X118002252Y-116430500D01*
X119741748Y-116430500D01*
X119767995Y-116425279D01*
X119790666Y-116420770D01*
X119790668Y-116420769D01*
X119800231Y-116418867D01*
X119866552Y-116374552D01*
X119910867Y-116308231D01*
X119912989Y-116297567D01*
X119921552Y-116254512D01*
X119922500Y-116249748D01*
X119922500Y-115570000D01*
X129388508Y-115570000D01*
X129389727Y-115577697D01*
X129395942Y-115616934D01*
X129408354Y-115695304D01*
X129411890Y-115702243D01*
X129411890Y-115702244D01*
X129448231Y-115773566D01*
X129465950Y-115808342D01*
X129555658Y-115898050D01*
X129562595Y-115901585D01*
X129562597Y-115901586D01*
X129607123Y-115924273D01*
X129668696Y-115955646D01*
X129676390Y-115956865D01*
X129676391Y-115956865D01*
X129786303Y-115974273D01*
X129794000Y-115975492D01*
X129801697Y-115974273D01*
X129911609Y-115956865D01*
X129911610Y-115956865D01*
X129919304Y-115955646D01*
X129980877Y-115924273D01*
X130025403Y-115901586D01*
X130025405Y-115901585D01*
X130032342Y-115898050D01*
X130109151Y-115821241D01*
X130163668Y-115793464D01*
X130224100Y-115803035D01*
X130267365Y-115846300D01*
X130270619Y-115853360D01*
X130292979Y-115907344D01*
X130292982Y-115907350D01*
X130295464Y-115913341D01*
X130391718Y-116038782D01*
X130517159Y-116135036D01*
X130663238Y-116195544D01*
X130820000Y-116216182D01*
X130976762Y-116195544D01*
X131037518Y-116170378D01*
X132124696Y-116170378D01*
X132145334Y-116327140D01*
X132205842Y-116473219D01*
X132302096Y-116598660D01*
X132427537Y-116694914D01*
X132573616Y-116755422D01*
X132704809Y-116772694D01*
X132710318Y-116773419D01*
X132730378Y-116776060D01*
X132750439Y-116773419D01*
X132755163Y-116772797D01*
X132811060Y-116765438D01*
X132871220Y-116776588D01*
X132913337Y-116820970D01*
X132913885Y-116822344D01*
X132914354Y-116825304D01*
X132917633Y-116831739D01*
X132917634Y-116831742D01*
X132956485Y-116907990D01*
X132971950Y-116938342D01*
X133061658Y-117028050D01*
X133068595Y-117031585D01*
X133068597Y-117031586D01*
X133167756Y-117082110D01*
X133174696Y-117085646D01*
X133182390Y-117086865D01*
X133182391Y-117086865D01*
X133292303Y-117104273D01*
X133300000Y-117105492D01*
X133307697Y-117104273D01*
X133417609Y-117086865D01*
X133417610Y-117086865D01*
X133425304Y-117085646D01*
X133432244Y-117082110D01*
X133531403Y-117031586D01*
X133531405Y-117031585D01*
X133538342Y-117028050D01*
X133628050Y-116938342D01*
X133643516Y-116907990D01*
X133682110Y-116832244D01*
X133682110Y-116832243D01*
X133685646Y-116825304D01*
X133692447Y-116782368D01*
X133704273Y-116707697D01*
X133705492Y-116700000D01*
X133689654Y-116600000D01*
X137294318Y-116600000D01*
X137314956Y-116756762D01*
X137317440Y-116762759D01*
X137323168Y-116776588D01*
X137375464Y-116902841D01*
X137471718Y-117028282D01*
X137597159Y-117124536D01*
X137743238Y-117185044D01*
X137900000Y-117205682D01*
X138056762Y-117185044D01*
X138202841Y-117124536D01*
X138328282Y-117028282D01*
X138424536Y-116902841D01*
X138476832Y-116776588D01*
X138482560Y-116762759D01*
X138485044Y-116756762D01*
X138505682Y-116600000D01*
X138485044Y-116443238D01*
X138424536Y-116297159D01*
X138388156Y-116249748D01*
X138649500Y-116249748D01*
X138650448Y-116254512D01*
X138659012Y-116297567D01*
X138661133Y-116308231D01*
X138705448Y-116374552D01*
X138771769Y-116418867D01*
X138781332Y-116420769D01*
X138781334Y-116420770D01*
X138804005Y-116425279D01*
X138830252Y-116430500D01*
X140569748Y-116430500D01*
X140595995Y-116425279D01*
X140618666Y-116420770D01*
X140618668Y-116420769D01*
X140628231Y-116418867D01*
X140694552Y-116374552D01*
X140738867Y-116308231D01*
X140740989Y-116297567D01*
X140749552Y-116254512D01*
X140750500Y-116249748D01*
X140750500Y-114510252D01*
X140738867Y-114451769D01*
X140694552Y-114385448D01*
X140628231Y-114341133D01*
X140618668Y-114339231D01*
X140618666Y-114339230D01*
X140595995Y-114334721D01*
X140569748Y-114329500D01*
X138830252Y-114329500D01*
X138804005Y-114334721D01*
X138781334Y-114339230D01*
X138781332Y-114339231D01*
X138771769Y-114341133D01*
X138705448Y-114385448D01*
X138661133Y-114451769D01*
X138649500Y-114510252D01*
X138649500Y-116249748D01*
X138388156Y-116249748D01*
X138328282Y-116171718D01*
X138202841Y-116075464D01*
X138056762Y-116014956D01*
X137900000Y-115994318D01*
X137743238Y-116014956D01*
X137597159Y-116075464D01*
X137471718Y-116171718D01*
X137375464Y-116297159D01*
X137314956Y-116443238D01*
X137294318Y-116600000D01*
X133689654Y-116600000D01*
X133686865Y-116582391D01*
X133686865Y-116582390D01*
X133685646Y-116574696D01*
X133668641Y-116541322D01*
X133631586Y-116468597D01*
X133631585Y-116468595D01*
X133628050Y-116461658D01*
X133538342Y-116371950D01*
X133531405Y-116368415D01*
X133531403Y-116368414D01*
X133432244Y-116317890D01*
X133432243Y-116317890D01*
X133425304Y-116314354D01*
X133414568Y-116312654D01*
X133411825Y-116311256D01*
X133410200Y-116310728D01*
X133410284Y-116310471D01*
X133360054Y-116284878D01*
X133332275Y-116230362D01*
X133331903Y-116201950D01*
X133331942Y-116201658D01*
X133336060Y-116170378D01*
X133334124Y-116155676D01*
X135289535Y-116155676D01*
X135290754Y-116163373D01*
X135295984Y-116196391D01*
X135309381Y-116280980D01*
X135312917Y-116287919D01*
X135312917Y-116287920D01*
X135361675Y-116383612D01*
X135366977Y-116394018D01*
X135456685Y-116483726D01*
X135463622Y-116487261D01*
X135463624Y-116487262D01*
X135531554Y-116521874D01*
X135569723Y-116541322D01*
X135577417Y-116542541D01*
X135577418Y-116542541D01*
X135687330Y-116559949D01*
X135695027Y-116561168D01*
X135702724Y-116559949D01*
X135812636Y-116542541D01*
X135812637Y-116542541D01*
X135820331Y-116541322D01*
X135858500Y-116521874D01*
X135926430Y-116487262D01*
X135926432Y-116487261D01*
X135933369Y-116483726D01*
X136023077Y-116394018D01*
X136028380Y-116383612D01*
X136077137Y-116287920D01*
X136077137Y-116287919D01*
X136080673Y-116280980D01*
X136094071Y-116196391D01*
X136099300Y-116163373D01*
X136100519Y-116155676D01*
X136087422Y-116072981D01*
X136081892Y-116038067D01*
X136081892Y-116038066D01*
X136080673Y-116030372D01*
X136072387Y-116014109D01*
X136026613Y-115924273D01*
X136026612Y-115924271D01*
X136023077Y-115917334D01*
X135933369Y-115827626D01*
X135926432Y-115824091D01*
X135926430Y-115824090D01*
X135827271Y-115773566D01*
X135827270Y-115773566D01*
X135820331Y-115770030D01*
X135812637Y-115768811D01*
X135812636Y-115768811D01*
X135702724Y-115751403D01*
X135695027Y-115750184D01*
X135687330Y-115751403D01*
X135577418Y-115768811D01*
X135577417Y-115768811D01*
X135569723Y-115770030D01*
X135562784Y-115773566D01*
X135562783Y-115773566D01*
X135463624Y-115824090D01*
X135463622Y-115824091D01*
X135456685Y-115827626D01*
X135366977Y-115917334D01*
X135363442Y-115924271D01*
X135363441Y-115924273D01*
X135317667Y-116014109D01*
X135309381Y-116030372D01*
X135308162Y-116038066D01*
X135308162Y-116038067D01*
X135302632Y-116072981D01*
X135289535Y-116155676D01*
X133334124Y-116155676D01*
X133315422Y-116013616D01*
X133307429Y-115994318D01*
X133276019Y-115918490D01*
X133254914Y-115867537D01*
X133158660Y-115742096D01*
X133033219Y-115645842D01*
X132887140Y-115585334D01*
X132730378Y-115564696D01*
X132573616Y-115585334D01*
X132427537Y-115645842D01*
X132302096Y-115742096D01*
X132205842Y-115867537D01*
X132184737Y-115918490D01*
X132153328Y-115994318D01*
X132145334Y-116013616D01*
X132124696Y-116170378D01*
X131037518Y-116170378D01*
X131122841Y-116135036D01*
X131248282Y-116038782D01*
X131344536Y-115913341D01*
X131405044Y-115767262D01*
X131425682Y-115610500D01*
X131405044Y-115453738D01*
X131344536Y-115307659D01*
X131248282Y-115182218D01*
X131122841Y-115085964D01*
X130976762Y-115025456D01*
X130820000Y-115004818D01*
X130663238Y-115025456D01*
X130517159Y-115085964D01*
X130391718Y-115182218D01*
X130295464Y-115307659D01*
X130292981Y-115313654D01*
X130289736Y-115319274D01*
X130288491Y-115318555D01*
X130253528Y-115359487D01*
X130194033Y-115373768D01*
X130137506Y-115350352D01*
X130124290Y-115336054D01*
X130122050Y-115331658D01*
X130032342Y-115241950D01*
X130025405Y-115238415D01*
X130025403Y-115238414D01*
X129926244Y-115187890D01*
X129926243Y-115187890D01*
X129919304Y-115184354D01*
X129911610Y-115183135D01*
X129911609Y-115183135D01*
X129801697Y-115165727D01*
X129794000Y-115164508D01*
X129786303Y-115165727D01*
X129676391Y-115183135D01*
X129676390Y-115183135D01*
X129668696Y-115184354D01*
X129661757Y-115187890D01*
X129661756Y-115187890D01*
X129562597Y-115238414D01*
X129562595Y-115238415D01*
X129555658Y-115241950D01*
X129465950Y-115331658D01*
X129462415Y-115338595D01*
X129462414Y-115338597D01*
X129411890Y-115437756D01*
X129408354Y-115444696D01*
X129407135Y-115452390D01*
X129407135Y-115452391D01*
X129389727Y-115562303D01*
X129388508Y-115570000D01*
X119922500Y-115570000D01*
X119922500Y-114510252D01*
X119910867Y-114451769D01*
X119866552Y-114385448D01*
X119800231Y-114341133D01*
X119790668Y-114339231D01*
X119790666Y-114339230D01*
X119767995Y-114334721D01*
X119741748Y-114329500D01*
X118002252Y-114329500D01*
X117976005Y-114334721D01*
X117953334Y-114339230D01*
X117953332Y-114339231D01*
X117943769Y-114341133D01*
X117877448Y-114385448D01*
X117833133Y-114451769D01*
X117821500Y-114510252D01*
X117821500Y-116249748D01*
X116800000Y-116249748D01*
X116800000Y-114300000D01*
X121094318Y-114300000D01*
X121114956Y-114456762D01*
X121175464Y-114602841D01*
X121271718Y-114728282D01*
X121397159Y-114824536D01*
X121543238Y-114885044D01*
X121700000Y-114905682D01*
X121856762Y-114885044D01*
X122002841Y-114824536D01*
X122128282Y-114728282D01*
X122149983Y-114700000D01*
X133394318Y-114700000D01*
X133414956Y-114856762D01*
X133475464Y-115002841D01*
X133571718Y-115128282D01*
X133697159Y-115224536D01*
X133843238Y-115285044D01*
X134000000Y-115305682D01*
X134156762Y-115285044D01*
X134302841Y-115224536D01*
X134428282Y-115128282D01*
X134524536Y-115002841D01*
X134585044Y-114856762D01*
X134605682Y-114700000D01*
X134585044Y-114543238D01*
X134524536Y-114397159D01*
X134428282Y-114271718D01*
X134302841Y-114175464D01*
X134156762Y-114114956D01*
X134000000Y-114094318D01*
X133843238Y-114114956D01*
X133697159Y-114175464D01*
X133571718Y-114271718D01*
X133475464Y-114397159D01*
X133414956Y-114543238D01*
X133394318Y-114700000D01*
X122149983Y-114700000D01*
X122224536Y-114602841D01*
X122285044Y-114456762D01*
X122305682Y-114300000D01*
X122285044Y-114143238D01*
X122224536Y-113997159D01*
X122128282Y-113871718D01*
X122002841Y-113775464D01*
X121856762Y-113714956D01*
X121700000Y-113694318D01*
X121543238Y-113714956D01*
X121397159Y-113775464D01*
X121271718Y-113871718D01*
X121175464Y-113997159D01*
X121114956Y-114143238D01*
X121094318Y-114300000D01*
X116800000Y-114300000D01*
X116800000Y-113538000D01*
X138024508Y-113538000D01*
X138044354Y-113663304D01*
X138047890Y-113670243D01*
X138047890Y-113670244D01*
X138070241Y-113714109D01*
X138101950Y-113776342D01*
X138191658Y-113866050D01*
X138198595Y-113869585D01*
X138198597Y-113869586D01*
X138212895Y-113876871D01*
X138304696Y-113923646D01*
X138312390Y-113924865D01*
X138312391Y-113924865D01*
X138422303Y-113942273D01*
X138430000Y-113943492D01*
X138437697Y-113942273D01*
X138547609Y-113924865D01*
X138547610Y-113924865D01*
X138555304Y-113923646D01*
X138647105Y-113876871D01*
X138661403Y-113869586D01*
X138661405Y-113869585D01*
X138668342Y-113866050D01*
X138758050Y-113776342D01*
X138789760Y-113714109D01*
X138812110Y-113670244D01*
X138812110Y-113670243D01*
X138815646Y-113663304D01*
X138835492Y-113538000D01*
X138815646Y-113412696D01*
X138800291Y-113382560D01*
X138761586Y-113306597D01*
X138761585Y-113306595D01*
X138758050Y-113299658D01*
X138668342Y-113209950D01*
X138661405Y-113206415D01*
X138661403Y-113206414D01*
X138562244Y-113155890D01*
X138562243Y-113155890D01*
X138555304Y-113152354D01*
X138547610Y-113151135D01*
X138547609Y-113151135D01*
X138437697Y-113133727D01*
X138430000Y-113132508D01*
X138422303Y-113133727D01*
X138312391Y-113151135D01*
X138312390Y-113151135D01*
X138304696Y-113152354D01*
X138297757Y-113155890D01*
X138297756Y-113155890D01*
X138198597Y-113206414D01*
X138198595Y-113206415D01*
X138191658Y-113209950D01*
X138101950Y-113299658D01*
X138098415Y-113306595D01*
X138098414Y-113306597D01*
X138059709Y-113382560D01*
X138044354Y-113412696D01*
X138024508Y-113538000D01*
X116800000Y-113538000D01*
X116800000Y-112800000D01*
X127418324Y-112800000D01*
X127438962Y-112956762D01*
X127499470Y-113102841D01*
X127595724Y-113228282D01*
X127721165Y-113324536D01*
X127867244Y-113385044D01*
X128024006Y-113405682D01*
X128180768Y-113385044D01*
X128326847Y-113324536D01*
X128452288Y-113228282D01*
X128548542Y-113102841D01*
X128609050Y-112956762D01*
X128629688Y-112800000D01*
X128609050Y-112643238D01*
X128548542Y-112497159D01*
X128452288Y-112371718D01*
X128326847Y-112275464D01*
X128180768Y-112214956D01*
X128024006Y-112194318D01*
X127867244Y-112214956D01*
X127721165Y-112275464D01*
X127595724Y-112371718D01*
X127499470Y-112497159D01*
X127438962Y-112643238D01*
X127418324Y-112800000D01*
X116800000Y-112800000D01*
X116800000Y-111199000D01*
X116818907Y-111140809D01*
X116868407Y-111104845D01*
X116899000Y-111100000D01*
X141501114Y-111100000D01*
X141559305Y-111118907D01*
G37*
%TD.AperFunction*%
%TD*%
M02*
