%TF.GenerationSoftware,KiCad,Pcbnew,(6.0.0)*%
%TF.CreationDate,2022-02-11T23:14:06+08:00*%
%TF.ProjectId,esp8266,65737038-3236-4362-9e6b-696361645f70,rev?*%
%TF.SameCoordinates,Original*%
%TF.FileFunction,Legend,Top*%
%TF.FilePolarity,Positive*%
%FSLAX46Y46*%
G04 Gerber Fmt 4.6, Leading zero omitted, Abs format (unit mm)*
G04 Created by KiCad (PCBNEW (6.0.0)) date 2022-02-11 23:14:06*
%MOMM*%
%LPD*%
G01*
G04 APERTURE LIST*
%ADD10C,0.100000*%
%ADD11C,0.150000*%
%ADD12C,0.127000*%
%ADD13C,0.120000*%
%ADD14C,0.254000*%
%ADD15C,0.300000*%
%ADD16C,0.400000*%
%ADD17C,0.203200*%
G04 APERTURE END LIST*
D10*
X137229904Y-151968095D02*
X137229904Y-151472857D01*
X137534666Y-151739523D01*
X137534666Y-151625238D01*
X137572761Y-151549047D01*
X137610857Y-151510952D01*
X137687047Y-151472857D01*
X137877523Y-151472857D01*
X137953714Y-151510952D01*
X137991809Y-151549047D01*
X138029904Y-151625238D01*
X138029904Y-151853809D01*
X137991809Y-151930000D01*
X137953714Y-151968095D01*
X137953714Y-151130000D02*
X137991809Y-151091904D01*
X138029904Y-151130000D01*
X137991809Y-151168095D01*
X137953714Y-151130000D01*
X138029904Y-151130000D01*
X137229904Y-150825238D02*
X137229904Y-150330000D01*
X137534666Y-150596666D01*
X137534666Y-150482380D01*
X137572761Y-150406190D01*
X137610857Y-150368095D01*
X137687047Y-150330000D01*
X137877523Y-150330000D01*
X137953714Y-150368095D01*
X137991809Y-150406190D01*
X138029904Y-150482380D01*
X138029904Y-150710952D01*
X137991809Y-150787142D01*
X137953714Y-150825238D01*
X137268000Y-149199523D02*
X137229904Y-149275714D01*
X137229904Y-149390000D01*
X137268000Y-149504285D01*
X137344190Y-149580476D01*
X137420380Y-149618571D01*
X137572761Y-149656666D01*
X137687047Y-149656666D01*
X137839428Y-149618571D01*
X137915619Y-149580476D01*
X137991809Y-149504285D01*
X138029904Y-149390000D01*
X138029904Y-149313809D01*
X137991809Y-149199523D01*
X137953714Y-149161428D01*
X137687047Y-149161428D01*
X137687047Y-149313809D01*
X138029904Y-148818571D02*
X137229904Y-148818571D01*
X138029904Y-148361428D01*
X137229904Y-148361428D01*
X138029904Y-147980476D02*
X137229904Y-147980476D01*
X137229904Y-147790000D01*
X137268000Y-147675714D01*
X137344190Y-147599523D01*
X137420380Y-147561428D01*
X137572761Y-147523333D01*
X137687047Y-147523333D01*
X137839428Y-147561428D01*
X137915619Y-147599523D01*
X137991809Y-147675714D01*
X138029904Y-147790000D01*
X138029904Y-147980476D01*
X138029904Y-146234095D02*
X137648952Y-146500761D01*
X138029904Y-146691238D02*
X137229904Y-146691238D01*
X137229904Y-146386476D01*
X137268000Y-146310285D01*
X137306095Y-146272190D01*
X137382285Y-146234095D01*
X137496571Y-146234095D01*
X137572761Y-146272190D01*
X137610857Y-146310285D01*
X137648952Y-146386476D01*
X137648952Y-146691238D01*
X137991809Y-145929333D02*
X138029904Y-145815047D01*
X138029904Y-145624571D01*
X137991809Y-145548380D01*
X137953714Y-145510285D01*
X137877523Y-145472190D01*
X137801333Y-145472190D01*
X137725142Y-145510285D01*
X137687047Y-145548380D01*
X137648952Y-145624571D01*
X137610857Y-145776952D01*
X137572761Y-145853142D01*
X137534666Y-145891238D01*
X137458476Y-145929333D01*
X137382285Y-145929333D01*
X137306095Y-145891238D01*
X137268000Y-145853142D01*
X137229904Y-145776952D01*
X137229904Y-145586476D01*
X137268000Y-145472190D01*
X137229904Y-145243619D02*
X137229904Y-144786476D01*
X138029904Y-145015047D02*
X137229904Y-145015047D01*
X137737904Y-141808095D02*
X137737904Y-141312857D01*
X138042666Y-141579523D01*
X138042666Y-141465238D01*
X138080761Y-141389047D01*
X138118857Y-141350952D01*
X138195047Y-141312857D01*
X138385523Y-141312857D01*
X138461714Y-141350952D01*
X138499809Y-141389047D01*
X138537904Y-141465238D01*
X138537904Y-141693809D01*
X138499809Y-141770000D01*
X138461714Y-141808095D01*
X138461714Y-140970000D02*
X138499809Y-140931904D01*
X138537904Y-140970000D01*
X138499809Y-141008095D01*
X138461714Y-140970000D01*
X138537904Y-140970000D01*
X137737904Y-140665238D02*
X137737904Y-140170000D01*
X138042666Y-140436666D01*
X138042666Y-140322380D01*
X138080761Y-140246190D01*
X138118857Y-140208095D01*
X138195047Y-140170000D01*
X138385523Y-140170000D01*
X138461714Y-140208095D01*
X138499809Y-140246190D01*
X138537904Y-140322380D01*
X138537904Y-140550952D01*
X138499809Y-140627142D01*
X138461714Y-140665238D01*
X136550476Y-138030000D02*
X136474285Y-137991904D01*
X136360000Y-137991904D01*
X136245714Y-138030000D01*
X136169523Y-138106190D01*
X136131428Y-138182380D01*
X136093333Y-138334761D01*
X136093333Y-138449047D01*
X136131428Y-138601428D01*
X136169523Y-138677619D01*
X136245714Y-138753809D01*
X136360000Y-138791904D01*
X136436190Y-138791904D01*
X136550476Y-138753809D01*
X136588571Y-138715714D01*
X136588571Y-138449047D01*
X136436190Y-138449047D01*
X136931428Y-138791904D02*
X136931428Y-137991904D01*
X137388571Y-138791904D01*
X137388571Y-137991904D01*
X137769523Y-138791904D02*
X137769523Y-137991904D01*
X137960000Y-137991904D01*
X138074285Y-138030000D01*
X138150476Y-138106190D01*
X138188571Y-138182380D01*
X138226666Y-138334761D01*
X138226666Y-138449047D01*
X138188571Y-138601428D01*
X138150476Y-138677619D01*
X138074285Y-138753809D01*
X137960000Y-138791904D01*
X137769523Y-138791904D01*
X135553619Y-135959809D02*
X135667904Y-135997904D01*
X135858380Y-135997904D01*
X135934571Y-135959809D01*
X135972666Y-135921714D01*
X136010761Y-135845523D01*
X136010761Y-135769333D01*
X135972666Y-135693142D01*
X135934571Y-135655047D01*
X135858380Y-135616952D01*
X135706000Y-135578857D01*
X135629809Y-135540761D01*
X135591714Y-135502666D01*
X135553619Y-135426476D01*
X135553619Y-135350285D01*
X135591714Y-135274095D01*
X135629809Y-135236000D01*
X135706000Y-135197904D01*
X135896476Y-135197904D01*
X136010761Y-135236000D01*
X136810761Y-135921714D02*
X136772666Y-135959809D01*
X136658380Y-135997904D01*
X136582190Y-135997904D01*
X136467904Y-135959809D01*
X136391714Y-135883619D01*
X136353619Y-135807428D01*
X136315523Y-135655047D01*
X136315523Y-135540761D01*
X136353619Y-135388380D01*
X136391714Y-135312190D01*
X136467904Y-135236000D01*
X136582190Y-135197904D01*
X136658380Y-135197904D01*
X136772666Y-135236000D01*
X136810761Y-135274095D01*
X137534571Y-135997904D02*
X137153619Y-135997904D01*
X137153619Y-135197904D01*
X137801238Y-135997904D02*
X137801238Y-135197904D01*
X138258380Y-135997904D02*
X137915523Y-135540761D01*
X138258380Y-135197904D02*
X137801238Y-135655047D01*
X136404476Y-133419809D02*
X136518761Y-133457904D01*
X136709238Y-133457904D01*
X136785428Y-133419809D01*
X136823523Y-133381714D01*
X136861619Y-133305523D01*
X136861619Y-133229333D01*
X136823523Y-133153142D01*
X136785428Y-133115047D01*
X136709238Y-133076952D01*
X136556857Y-133038857D01*
X136480666Y-133000761D01*
X136442571Y-132962666D01*
X136404476Y-132886476D01*
X136404476Y-132810285D01*
X136442571Y-132734095D01*
X136480666Y-132696000D01*
X136556857Y-132657904D01*
X136747333Y-132657904D01*
X136861619Y-132696000D01*
X137204476Y-133457904D02*
X137204476Y-132657904D01*
X137394952Y-132657904D01*
X137509238Y-132696000D01*
X137585428Y-132772190D01*
X137623523Y-132848380D01*
X137661619Y-133000761D01*
X137661619Y-133115047D01*
X137623523Y-133267428D01*
X137585428Y-133343619D01*
X137509238Y-133419809D01*
X137394952Y-133457904D01*
X137204476Y-133457904D01*
X138156857Y-132657904D02*
X138233047Y-132657904D01*
X138309238Y-132696000D01*
X138347333Y-132734095D01*
X138385428Y-132810285D01*
X138423523Y-132962666D01*
X138423523Y-133153142D01*
X138385428Y-133305523D01*
X138347333Y-133381714D01*
X138309238Y-133419809D01*
X138233047Y-133457904D01*
X138156857Y-133457904D01*
X138080666Y-133419809D01*
X138042571Y-133381714D01*
X138004476Y-133305523D01*
X137966380Y-133153142D01*
X137966380Y-132962666D01*
X138004476Y-132810285D01*
X138042571Y-132734095D01*
X138080666Y-132696000D01*
X138156857Y-132657904D01*
X136550476Y-131095714D02*
X136512380Y-131133809D01*
X136398095Y-131171904D01*
X136321904Y-131171904D01*
X136207619Y-131133809D01*
X136131428Y-131057619D01*
X136093333Y-130981428D01*
X136055238Y-130829047D01*
X136055238Y-130714761D01*
X136093333Y-130562380D01*
X136131428Y-130486190D01*
X136207619Y-130410000D01*
X136321904Y-130371904D01*
X136398095Y-130371904D01*
X136512380Y-130410000D01*
X136550476Y-130448095D01*
X136893333Y-131171904D02*
X136893333Y-130371904D01*
X137160000Y-130943333D01*
X137426666Y-130371904D01*
X137426666Y-131171904D01*
X137807619Y-131171904D02*
X137807619Y-130371904D01*
X137998095Y-130371904D01*
X138112380Y-130410000D01*
X138188571Y-130486190D01*
X138226666Y-130562380D01*
X138264761Y-130714761D01*
X138264761Y-130829047D01*
X138226666Y-130981428D01*
X138188571Y-131057619D01*
X138112380Y-131133809D01*
X137998095Y-131171904D01*
X137807619Y-131171904D01*
X136404476Y-128593809D02*
X136518761Y-128631904D01*
X136709238Y-128631904D01*
X136785428Y-128593809D01*
X136823523Y-128555714D01*
X136861619Y-128479523D01*
X136861619Y-128403333D01*
X136823523Y-128327142D01*
X136785428Y-128289047D01*
X136709238Y-128250952D01*
X136556857Y-128212857D01*
X136480666Y-128174761D01*
X136442571Y-128136666D01*
X136404476Y-128060476D01*
X136404476Y-127984285D01*
X136442571Y-127908095D01*
X136480666Y-127870000D01*
X136556857Y-127831904D01*
X136747333Y-127831904D01*
X136861619Y-127870000D01*
X137204476Y-128631904D02*
X137204476Y-127831904D01*
X137394952Y-127831904D01*
X137509238Y-127870000D01*
X137585428Y-127946190D01*
X137623523Y-128022380D01*
X137661619Y-128174761D01*
X137661619Y-128289047D01*
X137623523Y-128441428D01*
X137585428Y-128517619D01*
X137509238Y-128593809D01*
X137394952Y-128631904D01*
X137204476Y-128631904D01*
X138423523Y-128631904D02*
X137966380Y-128631904D01*
X138194952Y-128631904D02*
X138194952Y-127831904D01*
X138118761Y-127946190D01*
X138042571Y-128022380D01*
X137966380Y-128060476D01*
X138283904Y-126530000D02*
X137483904Y-126530000D01*
X137483904Y-125996666D02*
X137483904Y-125844285D01*
X137522000Y-125768095D01*
X137598190Y-125691904D01*
X137750571Y-125653809D01*
X138017238Y-125653809D01*
X138169619Y-125691904D01*
X138245809Y-125768095D01*
X138283904Y-125844285D01*
X138283904Y-125996666D01*
X138245809Y-126072857D01*
X138169619Y-126149047D01*
X138017238Y-126187142D01*
X137750571Y-126187142D01*
X137598190Y-126149047D01*
X137522000Y-126072857D01*
X137483904Y-125996666D01*
X138283904Y-125272857D02*
X138283904Y-125120476D01*
X138245809Y-125044285D01*
X138207714Y-125006190D01*
X138093428Y-124930000D01*
X137941047Y-124891904D01*
X137636285Y-124891904D01*
X137560095Y-124930000D01*
X137522000Y-124968095D01*
X137483904Y-125044285D01*
X137483904Y-125196666D01*
X137522000Y-125272857D01*
X137560095Y-125310952D01*
X137636285Y-125349047D01*
X137826761Y-125349047D01*
X137902952Y-125310952D01*
X137941047Y-125272857D01*
X137979142Y-125196666D01*
X137979142Y-125044285D01*
X137941047Y-124968095D01*
X137902952Y-124930000D01*
X137826761Y-124891904D01*
X137991809Y-124199523D02*
X138029904Y-124085238D01*
X138029904Y-123894761D01*
X137991809Y-123818571D01*
X137953714Y-123780476D01*
X137877523Y-123742380D01*
X137801333Y-123742380D01*
X137725142Y-123780476D01*
X137687047Y-123818571D01*
X137648952Y-123894761D01*
X137610857Y-124047142D01*
X137572761Y-124123333D01*
X137534666Y-124161428D01*
X137458476Y-124199523D01*
X137382285Y-124199523D01*
X137306095Y-124161428D01*
X137268000Y-124123333D01*
X137229904Y-124047142D01*
X137229904Y-123856666D01*
X137268000Y-123742380D01*
X138029904Y-123399523D02*
X137229904Y-123399523D01*
X137229904Y-123209047D01*
X137268000Y-123094761D01*
X137344190Y-123018571D01*
X137420380Y-122980476D01*
X137572761Y-122942380D01*
X137687047Y-122942380D01*
X137839428Y-122980476D01*
X137915619Y-123018571D01*
X137991809Y-123094761D01*
X138029904Y-123209047D01*
X138029904Y-123399523D01*
X137229904Y-122675714D02*
X137229904Y-122180476D01*
X137534666Y-122447142D01*
X137534666Y-122332857D01*
X137572761Y-122256666D01*
X137610857Y-122218571D01*
X137687047Y-122180476D01*
X137877523Y-122180476D01*
X137953714Y-122218571D01*
X137991809Y-122256666D01*
X138029904Y-122332857D01*
X138029904Y-122561428D01*
X137991809Y-122637619D01*
X137953714Y-122675714D01*
X138537904Y-116789047D02*
X137737904Y-116789047D01*
X137737904Y-116598571D01*
X137776000Y-116484285D01*
X137852190Y-116408095D01*
X137928380Y-116370000D01*
X138080761Y-116331904D01*
X138195047Y-116331904D01*
X138347428Y-116370000D01*
X138423619Y-116408095D01*
X138499809Y-116484285D01*
X138537904Y-116598571D01*
X138537904Y-116789047D01*
X138461714Y-115531904D02*
X138499809Y-115570000D01*
X138537904Y-115684285D01*
X138537904Y-115760476D01*
X138499809Y-115874761D01*
X138423619Y-115950952D01*
X138347428Y-115989047D01*
X138195047Y-116027142D01*
X138080761Y-116027142D01*
X137928380Y-115989047D01*
X137852190Y-115950952D01*
X137776000Y-115874761D01*
X137737904Y-115760476D01*
X137737904Y-115684285D01*
X137776000Y-115570000D01*
X137814095Y-115531904D01*
X138537904Y-115189047D02*
X137737904Y-115189047D01*
X138537904Y-114808095D02*
X137737904Y-114808095D01*
X138537904Y-114350952D01*
X137737904Y-114350952D01*
X121773904Y-116496952D02*
X120973904Y-116496952D01*
X120973904Y-115963619D02*
X120973904Y-115811238D01*
X121012000Y-115735047D01*
X121088190Y-115658857D01*
X121240571Y-115620761D01*
X121507238Y-115620761D01*
X121659619Y-115658857D01*
X121735809Y-115735047D01*
X121773904Y-115811238D01*
X121773904Y-115963619D01*
X121735809Y-116039809D01*
X121659619Y-116116000D01*
X121507238Y-116154095D01*
X121240571Y-116154095D01*
X121088190Y-116116000D01*
X121012000Y-116039809D01*
X120973904Y-115963619D01*
X121773904Y-114858857D02*
X121773904Y-115316000D01*
X121773904Y-115087428D02*
X120973904Y-115087428D01*
X121088190Y-115163619D01*
X121164380Y-115239809D01*
X121202476Y-115316000D01*
X120973904Y-114173142D02*
X120973904Y-114325523D01*
X121012000Y-114401714D01*
X121050095Y-114439809D01*
X121164380Y-114516000D01*
X121316761Y-114554095D01*
X121621523Y-114554095D01*
X121697714Y-114516000D01*
X121735809Y-114477904D01*
X121773904Y-114401714D01*
X121773904Y-114249333D01*
X121735809Y-114173142D01*
X121697714Y-114135047D01*
X121621523Y-114096952D01*
X121431047Y-114096952D01*
X121354857Y-114135047D01*
X121316761Y-114173142D01*
X121278666Y-114249333D01*
X121278666Y-114401714D01*
X121316761Y-114477904D01*
X121354857Y-114516000D01*
X121431047Y-114554095D01*
X121773904Y-118256000D02*
X121392952Y-118522666D01*
X121773904Y-118713142D02*
X120973904Y-118713142D01*
X120973904Y-118408380D01*
X121012000Y-118332190D01*
X121050095Y-118294095D01*
X121126285Y-118256000D01*
X121240571Y-118256000D01*
X121316761Y-118294095D01*
X121354857Y-118332190D01*
X121392952Y-118408380D01*
X121392952Y-118713142D01*
X121735809Y-117608380D02*
X121773904Y-117684571D01*
X121773904Y-117836952D01*
X121735809Y-117913142D01*
X121659619Y-117951238D01*
X121354857Y-117951238D01*
X121278666Y-117913142D01*
X121240571Y-117836952D01*
X121240571Y-117684571D01*
X121278666Y-117608380D01*
X121354857Y-117570285D01*
X121431047Y-117570285D01*
X121507238Y-117951238D01*
X121240571Y-117303619D02*
X121773904Y-117113142D01*
X121240571Y-116922666D01*
X121773904Y-121196000D02*
X120973904Y-121196000D01*
X120973904Y-120662666D02*
X120973904Y-120510285D01*
X121012000Y-120434095D01*
X121088190Y-120357904D01*
X121240571Y-120319809D01*
X121507238Y-120319809D01*
X121659619Y-120357904D01*
X121735809Y-120434095D01*
X121773904Y-120510285D01*
X121773904Y-120662666D01*
X121735809Y-120738857D01*
X121659619Y-120815047D01*
X121507238Y-120853142D01*
X121240571Y-120853142D01*
X121088190Y-120815047D01*
X121012000Y-120738857D01*
X120973904Y-120662666D01*
X121240571Y-119634095D02*
X121773904Y-119634095D01*
X120935809Y-119824571D02*
X121507238Y-120015047D01*
X121507238Y-119519809D01*
X121773904Y-123736000D02*
X120973904Y-123736000D01*
X120973904Y-123202666D02*
X120973904Y-123050285D01*
X121012000Y-122974095D01*
X121088190Y-122897904D01*
X121240571Y-122859809D01*
X121507238Y-122859809D01*
X121659619Y-122897904D01*
X121735809Y-122974095D01*
X121773904Y-123050285D01*
X121773904Y-123202666D01*
X121735809Y-123278857D01*
X121659619Y-123355047D01*
X121507238Y-123393142D01*
X121240571Y-123393142D01*
X121088190Y-123355047D01*
X121012000Y-123278857D01*
X120973904Y-123202666D01*
X120973904Y-122364571D02*
X120973904Y-122288380D01*
X121012000Y-122212190D01*
X121050095Y-122174095D01*
X121126285Y-122136000D01*
X121278666Y-122097904D01*
X121469142Y-122097904D01*
X121621523Y-122136000D01*
X121697714Y-122174095D01*
X121735809Y-122212190D01*
X121773904Y-122288380D01*
X121773904Y-122364571D01*
X121735809Y-122440761D01*
X121697714Y-122478857D01*
X121621523Y-122516952D01*
X121469142Y-122555047D01*
X121278666Y-122555047D01*
X121126285Y-122516952D01*
X121050095Y-122478857D01*
X121012000Y-122440761D01*
X120973904Y-122364571D01*
X121773904Y-126276000D02*
X120973904Y-126276000D01*
X120973904Y-125742666D02*
X120973904Y-125590285D01*
X121012000Y-125514095D01*
X121088190Y-125437904D01*
X121240571Y-125399809D01*
X121507238Y-125399809D01*
X121659619Y-125437904D01*
X121735809Y-125514095D01*
X121773904Y-125590285D01*
X121773904Y-125742666D01*
X121735809Y-125818857D01*
X121659619Y-125895047D01*
X121507238Y-125933142D01*
X121240571Y-125933142D01*
X121088190Y-125895047D01*
X121012000Y-125818857D01*
X120973904Y-125742666D01*
X121050095Y-125095047D02*
X121012000Y-125056952D01*
X120973904Y-124980761D01*
X120973904Y-124790285D01*
X121012000Y-124714095D01*
X121050095Y-124676000D01*
X121126285Y-124637904D01*
X121202476Y-124637904D01*
X121316761Y-124676000D01*
X121773904Y-125133142D01*
X121773904Y-124637904D01*
X121012000Y-128625523D02*
X120973904Y-128701714D01*
X120973904Y-128816000D01*
X121012000Y-128930285D01*
X121088190Y-129006476D01*
X121164380Y-129044571D01*
X121316761Y-129082666D01*
X121431047Y-129082666D01*
X121583428Y-129044571D01*
X121659619Y-129006476D01*
X121735809Y-128930285D01*
X121773904Y-128816000D01*
X121773904Y-128739809D01*
X121735809Y-128625523D01*
X121697714Y-128587428D01*
X121431047Y-128587428D01*
X121431047Y-128739809D01*
X121773904Y-128244571D02*
X120973904Y-128244571D01*
X121773904Y-127787428D01*
X120973904Y-127787428D01*
X121773904Y-127406476D02*
X120973904Y-127406476D01*
X120973904Y-127216000D01*
X121012000Y-127101714D01*
X121088190Y-127025523D01*
X121164380Y-126987428D01*
X121316761Y-126949333D01*
X121431047Y-126949333D01*
X121583428Y-126987428D01*
X121659619Y-127025523D01*
X121735809Y-127101714D01*
X121773904Y-127216000D01*
X121773904Y-127406476D01*
X120973904Y-131394095D02*
X120973904Y-130898857D01*
X121278666Y-131165523D01*
X121278666Y-131051238D01*
X121316761Y-130975047D01*
X121354857Y-130936952D01*
X121431047Y-130898857D01*
X121621523Y-130898857D01*
X121697714Y-130936952D01*
X121735809Y-130975047D01*
X121773904Y-131051238D01*
X121773904Y-131279809D01*
X121735809Y-131356000D01*
X121697714Y-131394095D01*
X121697714Y-130556000D02*
X121735809Y-130517904D01*
X121773904Y-130556000D01*
X121735809Y-130594095D01*
X121697714Y-130556000D01*
X121773904Y-130556000D01*
X120973904Y-130251238D02*
X120973904Y-129756000D01*
X121278666Y-130022666D01*
X121278666Y-129908380D01*
X121316761Y-129832190D01*
X121354857Y-129794095D01*
X121431047Y-129756000D01*
X121621523Y-129756000D01*
X121697714Y-129794095D01*
X121735809Y-129832190D01*
X121773904Y-129908380D01*
X121773904Y-130136952D01*
X121735809Y-130213142D01*
X121697714Y-130251238D01*
X121050095Y-131686476D02*
X121850095Y-131686476D01*
X121278666Y-131953142D01*
X121850095Y-132219809D01*
X121050095Y-132219809D01*
X121850095Y-132486476D02*
X121850095Y-132943619D01*
X121050095Y-132715047D02*
X121850095Y-132715047D01*
X121050095Y-133210285D02*
X121850095Y-133210285D01*
X121278666Y-133476952D01*
X121850095Y-133743619D01*
X121050095Y-133743619D01*
X121088190Y-134086476D02*
X121050095Y-134200761D01*
X121050095Y-134391238D01*
X121088190Y-134467428D01*
X121126285Y-134505523D01*
X121202476Y-134543619D01*
X121278666Y-134543619D01*
X121354857Y-134505523D01*
X121392952Y-134467428D01*
X121431047Y-134391238D01*
X121469142Y-134238857D01*
X121507238Y-134162666D01*
X121545333Y-134124571D01*
X121621523Y-134086476D01*
X121697714Y-134086476D01*
X121773904Y-134124571D01*
X121812000Y-134162666D01*
X121850095Y-134238857D01*
X121850095Y-134429333D01*
X121812000Y-134543619D01*
X120758095Y-135997904D02*
X120758095Y-135197904D01*
X121024761Y-135769333D01*
X121291428Y-135197904D01*
X121291428Y-135997904D01*
X121558095Y-135197904D02*
X122015238Y-135197904D01*
X121786666Y-135997904D02*
X121786666Y-135197904D01*
X122281904Y-135997904D02*
X122281904Y-135197904D01*
X122472380Y-135197904D01*
X122586666Y-135236000D01*
X122662857Y-135312190D01*
X122700952Y-135388380D01*
X122739047Y-135540761D01*
X122739047Y-135655047D01*
X122700952Y-135807428D01*
X122662857Y-135883619D01*
X122586666Y-135959809D01*
X122472380Y-135997904D01*
X122281904Y-135997904D01*
X123081904Y-135997904D02*
X123081904Y-135197904D01*
X120548571Y-138791904D02*
X120548571Y-137991904D01*
X120815238Y-138563333D01*
X121081904Y-137991904D01*
X121081904Y-138791904D01*
X121348571Y-137991904D02*
X121805714Y-137991904D01*
X121577142Y-138791904D02*
X121577142Y-137991904D01*
X122529523Y-138715714D02*
X122491428Y-138753809D01*
X122377142Y-138791904D01*
X122300952Y-138791904D01*
X122186666Y-138753809D01*
X122110476Y-138677619D01*
X122072380Y-138601428D01*
X122034285Y-138449047D01*
X122034285Y-138334761D01*
X122072380Y-138182380D01*
X122110476Y-138106190D01*
X122186666Y-138030000D01*
X122300952Y-137991904D01*
X122377142Y-137991904D01*
X122491428Y-138030000D01*
X122529523Y-138068095D01*
X122872380Y-138791904D02*
X122872380Y-137991904D01*
X123329523Y-138791904D02*
X122986666Y-138334761D01*
X123329523Y-137991904D02*
X122872380Y-138449047D01*
X120529523Y-141077904D02*
X120529523Y-140277904D01*
X120796190Y-140849333D01*
X121062857Y-140277904D01*
X121062857Y-141077904D01*
X121329523Y-140277904D02*
X121786666Y-140277904D01*
X121558095Y-141077904D02*
X121558095Y-140277904D01*
X122053333Y-141077904D02*
X122053333Y-140277904D01*
X122243809Y-140277904D01*
X122358095Y-140316000D01*
X122434285Y-140392190D01*
X122472380Y-140468380D01*
X122510476Y-140620761D01*
X122510476Y-140735047D01*
X122472380Y-140887428D01*
X122434285Y-140963619D01*
X122358095Y-141039809D01*
X122243809Y-141077904D01*
X122053333Y-141077904D01*
X123005714Y-140277904D02*
X123158095Y-140277904D01*
X123234285Y-140316000D01*
X123310476Y-140392190D01*
X123348571Y-140544571D01*
X123348571Y-140811238D01*
X123310476Y-140963619D01*
X123234285Y-141039809D01*
X123158095Y-141077904D01*
X123005714Y-141077904D01*
X122929523Y-141039809D01*
X122853333Y-140963619D01*
X122815238Y-140811238D01*
X122815238Y-140544571D01*
X122853333Y-140392190D01*
X122929523Y-140316000D01*
X123005714Y-140277904D01*
X121519904Y-143789333D02*
X121138952Y-144056000D01*
X121519904Y-144246476D02*
X120719904Y-144246476D01*
X120719904Y-143941714D01*
X120758000Y-143865523D01*
X120796095Y-143827428D01*
X120872285Y-143789333D01*
X120986571Y-143789333D01*
X121062761Y-143827428D01*
X121100857Y-143865523D01*
X121138952Y-143941714D01*
X121138952Y-144246476D01*
X120719904Y-143522666D02*
X121519904Y-142989333D01*
X120719904Y-142989333D02*
X121519904Y-143522666D01*
X121519904Y-142684571D02*
X120719904Y-142684571D01*
X120719904Y-142494095D01*
X120758000Y-142379809D01*
X120834190Y-142303619D01*
X120910380Y-142265523D01*
X121062761Y-142227428D01*
X121177047Y-142227428D01*
X121329428Y-142265523D01*
X121405619Y-142303619D01*
X121481809Y-142379809D01*
X121519904Y-142494095D01*
X121519904Y-142684571D01*
X120719904Y-146805523D02*
X120719904Y-146348380D01*
X121519904Y-146576952D02*
X120719904Y-146576952D01*
X120719904Y-146157904D02*
X121519904Y-145624571D01*
X120719904Y-145624571D02*
X121519904Y-146157904D01*
X121519904Y-145319809D02*
X120719904Y-145319809D01*
X120719904Y-145129333D01*
X120758000Y-145015047D01*
X120834190Y-144938857D01*
X120910380Y-144900761D01*
X121062761Y-144862666D01*
X121177047Y-144862666D01*
X121329428Y-144900761D01*
X121405619Y-144938857D01*
X121481809Y-145015047D01*
X121519904Y-145129333D01*
X121519904Y-145319809D01*
X120758000Y-148945523D02*
X120719904Y-149021714D01*
X120719904Y-149136000D01*
X120758000Y-149250285D01*
X120834190Y-149326476D01*
X120910380Y-149364571D01*
X121062761Y-149402666D01*
X121177047Y-149402666D01*
X121329428Y-149364571D01*
X121405619Y-149326476D01*
X121481809Y-149250285D01*
X121519904Y-149136000D01*
X121519904Y-149059809D01*
X121481809Y-148945523D01*
X121443714Y-148907428D01*
X121177047Y-148907428D01*
X121177047Y-149059809D01*
X121519904Y-148564571D02*
X120719904Y-148564571D01*
X121519904Y-148107428D01*
X120719904Y-148107428D01*
X121519904Y-147726476D02*
X120719904Y-147726476D01*
X120719904Y-147536000D01*
X120758000Y-147421714D01*
X120834190Y-147345523D01*
X120910380Y-147307428D01*
X121062761Y-147269333D01*
X121177047Y-147269333D01*
X121329428Y-147307428D01*
X121405619Y-147345523D01*
X121481809Y-147421714D01*
X121519904Y-147536000D01*
X121519904Y-147726476D01*
X120719904Y-151968095D02*
X120719904Y-151472857D01*
X121024666Y-151739523D01*
X121024666Y-151625238D01*
X121062761Y-151549047D01*
X121100857Y-151510952D01*
X121177047Y-151472857D01*
X121367523Y-151472857D01*
X121443714Y-151510952D01*
X121481809Y-151549047D01*
X121519904Y-151625238D01*
X121519904Y-151853809D01*
X121481809Y-151930000D01*
X121443714Y-151968095D01*
X121443714Y-151130000D02*
X121481809Y-151091904D01*
X121519904Y-151130000D01*
X121481809Y-151168095D01*
X121443714Y-151130000D01*
X121519904Y-151130000D01*
X120719904Y-150825238D02*
X120719904Y-150330000D01*
X121024666Y-150596666D01*
X121024666Y-150482380D01*
X121062761Y-150406190D01*
X121100857Y-150368095D01*
X121177047Y-150330000D01*
X121367523Y-150330000D01*
X121443714Y-150368095D01*
X121481809Y-150406190D01*
X121519904Y-150482380D01*
X121519904Y-150710952D01*
X121481809Y-150787142D01*
X121443714Y-150825238D01*
D11*
X122894317Y-148917712D02*
X122418127Y-149251046D01*
X122894317Y-149489141D02*
X121894317Y-149489141D01*
X121894317Y-149108188D01*
X121941937Y-149012950D01*
X121989556Y-148965331D01*
X122084794Y-148917712D01*
X122227651Y-148917712D01*
X122322889Y-148965331D01*
X122370508Y-149012950D01*
X122418127Y-149108188D01*
X122418127Y-149489141D01*
X121894317Y-148584379D02*
X122894317Y-147917712D01*
X121894317Y-147917712D02*
X122894317Y-148584379D01*
X122894317Y-147536760D02*
X121894317Y-147536760D01*
X121894317Y-147298665D01*
X121941937Y-147155807D01*
X122037175Y-147060569D01*
X122132413Y-147012950D01*
X122322889Y-146965331D01*
X122465746Y-146965331D01*
X122656222Y-147012950D01*
X122751460Y-147060569D01*
X122846698Y-147155807D01*
X122894317Y-147298665D01*
X122894317Y-147536760D01*
X123404380Y-149597904D02*
X123404380Y-149026476D01*
X124404380Y-149312190D02*
X123404380Y-149312190D01*
X123404380Y-148788380D02*
X124404380Y-148121714D01*
X123404380Y-148121714D02*
X124404380Y-148788380D01*
X124404380Y-147740761D02*
X123404380Y-147740761D01*
X123404380Y-147502666D01*
X123452000Y-147359809D01*
X123547238Y-147264571D01*
X123642476Y-147216952D01*
X123832952Y-147169333D01*
X123975809Y-147169333D01*
X124166285Y-147216952D01*
X124261523Y-147264571D01*
X124356761Y-147359809D01*
X124404380Y-147502666D01*
X124404380Y-147740761D01*
X124722000Y-148931238D02*
X124674380Y-149026476D01*
X124674380Y-149169333D01*
X124722000Y-149312190D01*
X124817238Y-149407428D01*
X124912476Y-149455048D01*
X125102952Y-149502667D01*
X125245809Y-149502667D01*
X125436285Y-149455048D01*
X125531523Y-149407428D01*
X125626761Y-149312190D01*
X125674380Y-149169333D01*
X125674380Y-149074095D01*
X125626761Y-148931238D01*
X125579142Y-148883619D01*
X125245809Y-148883619D01*
X125245809Y-149074095D01*
X125674380Y-148455048D02*
X124674380Y-148455048D01*
X124674380Y-148074095D01*
X124722000Y-147978857D01*
X124769619Y-147931238D01*
X124864857Y-147883619D01*
X125007714Y-147883619D01*
X125102952Y-147931238D01*
X125150571Y-147978857D01*
X125198190Y-148074095D01*
X125198190Y-148455048D01*
X125674380Y-147455048D02*
X124674380Y-147455048D01*
X124674380Y-146788381D02*
X124674380Y-146597905D01*
X124722000Y-146502667D01*
X124817238Y-146407428D01*
X125007714Y-146359809D01*
X125341047Y-146359809D01*
X125531523Y-146407428D01*
X125626761Y-146502667D01*
X125674380Y-146597905D01*
X125674380Y-146788381D01*
X125626761Y-146883619D01*
X125531523Y-146978857D01*
X125341047Y-147026476D01*
X125007714Y-147026476D01*
X124817238Y-146978857D01*
X124722000Y-146883619D01*
X124674380Y-146788381D01*
X124674380Y-145740762D02*
X124674380Y-145645524D01*
X124722000Y-145550286D01*
X124769619Y-145502667D01*
X124864857Y-145455048D01*
X125055333Y-145407428D01*
X125293428Y-145407428D01*
X125483904Y-145455048D01*
X125579142Y-145502667D01*
X125626761Y-145550286D01*
X125674380Y-145645524D01*
X125674380Y-145740762D01*
X125626761Y-145836000D01*
X125579142Y-145883619D01*
X125483904Y-145931238D01*
X125293428Y-145978857D01*
X125055333Y-145978857D01*
X124864857Y-145931238D01*
X124769619Y-145883619D01*
X124722000Y-145836000D01*
X124674380Y-145740762D01*
X126944380Y-148883619D02*
X126468190Y-149216952D01*
X126944380Y-149455047D02*
X125944380Y-149455047D01*
X125944380Y-149074095D01*
X125992000Y-148978857D01*
X126039619Y-148931238D01*
X126134857Y-148883619D01*
X126277714Y-148883619D01*
X126372952Y-148931238D01*
X126420571Y-148978857D01*
X126468190Y-149074095D01*
X126468190Y-149455047D01*
X126896761Y-148502666D02*
X126944380Y-148359809D01*
X126944380Y-148121714D01*
X126896761Y-148026476D01*
X126849142Y-147978857D01*
X126753904Y-147931238D01*
X126658666Y-147931238D01*
X126563428Y-147978857D01*
X126515809Y-148026476D01*
X126468190Y-148121714D01*
X126420571Y-148312190D01*
X126372952Y-148407428D01*
X126325333Y-148455047D01*
X126230095Y-148502666D01*
X126134857Y-148502666D01*
X126039619Y-148455047D01*
X125992000Y-148407428D01*
X125944380Y-148312190D01*
X125944380Y-148074095D01*
X125992000Y-147931238D01*
X125944380Y-147645523D02*
X125944380Y-147074095D01*
X126944380Y-147359809D02*
X125944380Y-147359809D01*
X127262000Y-148931238D02*
X127214380Y-149026476D01*
X127214380Y-149169334D01*
X127262000Y-149312191D01*
X127357238Y-149407429D01*
X127452476Y-149455048D01*
X127642952Y-149502667D01*
X127785809Y-149502667D01*
X127976285Y-149455048D01*
X128071523Y-149407429D01*
X128166761Y-149312191D01*
X128214380Y-149169334D01*
X128214380Y-149074095D01*
X128166761Y-148931238D01*
X128119142Y-148883619D01*
X127785809Y-148883619D01*
X127785809Y-149074095D01*
X128214380Y-148455048D02*
X127214380Y-148455048D01*
X128214380Y-147883619D01*
X127214380Y-147883619D01*
X128214380Y-147407429D02*
X127214380Y-147407429D01*
X127214380Y-147169334D01*
X127262000Y-147026476D01*
X127357238Y-146931238D01*
X127452476Y-146883619D01*
X127642952Y-146836000D01*
X127785809Y-146836000D01*
X127976285Y-146883619D01*
X128071523Y-146931238D01*
X128166761Y-147026476D01*
X128214380Y-147169334D01*
X128214380Y-147407429D01*
X128484380Y-149550286D02*
X128484380Y-148931238D01*
X128865333Y-149264571D01*
X128865333Y-149121714D01*
X128912952Y-149026476D01*
X128960571Y-148978857D01*
X129055809Y-148931238D01*
X129293904Y-148931238D01*
X129389142Y-148978857D01*
X129436761Y-149026476D01*
X129484380Y-149121714D01*
X129484380Y-149407428D01*
X129436761Y-149502667D01*
X129389142Y-149550286D01*
X129389142Y-148502667D02*
X129436761Y-148455047D01*
X129484380Y-148502667D01*
X129436761Y-148550286D01*
X129389142Y-148502667D01*
X129484380Y-148502667D01*
X128484380Y-148121714D02*
X128484380Y-147502667D01*
X128865333Y-147836000D01*
X128865333Y-147693143D01*
X128912952Y-147597905D01*
X128960571Y-147550286D01*
X129055809Y-147502667D01*
X129293904Y-147502667D01*
X129389142Y-147550286D01*
X129436761Y-147597905D01*
X129484380Y-147693143D01*
X129484380Y-147978857D01*
X129436761Y-148074095D01*
X129389142Y-148121714D01*
X132339713Y-148915428D02*
X133101618Y-148915428D01*
X135001047Y-148915428D02*
X135762952Y-148915428D01*
X135382000Y-149296380D02*
X135382000Y-148534476D01*
%TO.C,U2*%
X123698095Y-117816380D02*
X123698095Y-118625904D01*
X123745714Y-118721142D01*
X123793333Y-118768761D01*
X123888571Y-118816380D01*
X124079047Y-118816380D01*
X124174285Y-118768761D01*
X124221904Y-118721142D01*
X124269523Y-118625904D01*
X124269523Y-117816380D01*
X124698095Y-117911619D02*
X124745714Y-117864000D01*
X124840952Y-117816380D01*
X125079047Y-117816380D01*
X125174285Y-117864000D01*
X125221904Y-117911619D01*
X125269523Y-118006857D01*
X125269523Y-118102095D01*
X125221904Y-118244952D01*
X124650476Y-118816380D01*
X125269523Y-118816380D01*
%TO.C,J3*%
X139366666Y-112502380D02*
X139366666Y-113216666D01*
X139319047Y-113359523D01*
X139223809Y-113454761D01*
X139080952Y-113502380D01*
X138985714Y-113502380D01*
X139747619Y-112502380D02*
X140366666Y-112502380D01*
X140033333Y-112883333D01*
X140176190Y-112883333D01*
X140271428Y-112930952D01*
X140319047Y-112978571D01*
X140366666Y-113073809D01*
X140366666Y-113311904D01*
X140319047Y-113407142D01*
X140271428Y-113454761D01*
X140176190Y-113502380D01*
X139890476Y-113502380D01*
X139795238Y-113454761D01*
X139747619Y-113407142D01*
%TO.C,U1*%
X130302095Y-121880380D02*
X130302095Y-122689904D01*
X130349714Y-122785142D01*
X130397333Y-122832761D01*
X130492571Y-122880380D01*
X130683047Y-122880380D01*
X130778285Y-122832761D01*
X130825904Y-122785142D01*
X130873523Y-122689904D01*
X130873523Y-121880380D01*
X131873523Y-122880380D02*
X131302095Y-122880380D01*
X131587809Y-122880380D02*
X131587809Y-121880380D01*
X131492571Y-122023238D01*
X131397333Y-122118476D01*
X131302095Y-122166095D01*
%TO.C,R9*%
X136850380Y-126054459D02*
X136374190Y-126387793D01*
X136850380Y-126625888D02*
X135850380Y-126625888D01*
X135850380Y-126244935D01*
X135898000Y-126149697D01*
X135945619Y-126102078D01*
X136040857Y-126054459D01*
X136183714Y-126054459D01*
X136278952Y-126102078D01*
X136326571Y-126149697D01*
X136374190Y-126244935D01*
X136374190Y-126625888D01*
X136850380Y-125578269D02*
X136850380Y-125387793D01*
X136802761Y-125292554D01*
X136755142Y-125244935D01*
X136612285Y-125149697D01*
X136421809Y-125102078D01*
X136040857Y-125102078D01*
X135945619Y-125149697D01*
X135898000Y-125197316D01*
X135850380Y-125292554D01*
X135850380Y-125483031D01*
X135898000Y-125578269D01*
X135945619Y-125625888D01*
X136040857Y-125673507D01*
X136278952Y-125673507D01*
X136374190Y-125625888D01*
X136421809Y-125578269D01*
X136469428Y-125483031D01*
X136469428Y-125292554D01*
X136421809Y-125197316D01*
X136374190Y-125149697D01*
X136278952Y-125102078D01*
%TO.C,L1*%
X132675333Y-114532380D02*
X132199142Y-114532380D01*
X132199142Y-113532380D01*
X133532476Y-114532380D02*
X132961047Y-114532380D01*
X133246761Y-114532380D02*
X133246761Y-113532380D01*
X133151523Y-113675238D01*
X133056285Y-113770476D01*
X132961047Y-113818095D01*
%TO.C,R8*%
X130500380Y-127928666D02*
X130024190Y-128262000D01*
X130500380Y-128500095D02*
X129500380Y-128500095D01*
X129500380Y-128119142D01*
X129548000Y-128023904D01*
X129595619Y-127976285D01*
X129690857Y-127928666D01*
X129833714Y-127928666D01*
X129928952Y-127976285D01*
X129976571Y-128023904D01*
X130024190Y-128119142D01*
X130024190Y-128500095D01*
X129928952Y-127357238D02*
X129881333Y-127452476D01*
X129833714Y-127500095D01*
X129738476Y-127547714D01*
X129690857Y-127547714D01*
X129595619Y-127500095D01*
X129548000Y-127452476D01*
X129500380Y-127357238D01*
X129500380Y-127166761D01*
X129548000Y-127071523D01*
X129595619Y-127023904D01*
X129690857Y-126976285D01*
X129738476Y-126976285D01*
X129833714Y-127023904D01*
X129881333Y-127071523D01*
X129928952Y-127166761D01*
X129928952Y-127357238D01*
X129976571Y-127452476D01*
X130024190Y-127500095D01*
X130119428Y-127547714D01*
X130309904Y-127547714D01*
X130405142Y-127500095D01*
X130452761Y-127452476D01*
X130500380Y-127357238D01*
X130500380Y-127166761D01*
X130452761Y-127071523D01*
X130405142Y-127023904D01*
X130309904Y-126976285D01*
X130119428Y-126976285D01*
X130024190Y-127023904D01*
X129976571Y-127071523D01*
X129928952Y-127166761D01*
%TO.C,D2*%
X133548380Y-128500095D02*
X132548380Y-128500095D01*
X132548380Y-128262000D01*
X132596000Y-128119142D01*
X132691238Y-128023904D01*
X132786476Y-127976285D01*
X132976952Y-127928666D01*
X133119809Y-127928666D01*
X133310285Y-127976285D01*
X133405523Y-128023904D01*
X133500761Y-128119142D01*
X133548380Y-128262000D01*
X133548380Y-128500095D01*
X132643619Y-127547714D02*
X132596000Y-127500095D01*
X132548380Y-127404857D01*
X132548380Y-127166761D01*
X132596000Y-127071523D01*
X132643619Y-127023904D01*
X132738857Y-126976285D01*
X132834095Y-126976285D01*
X132976952Y-127023904D01*
X133548380Y-127595333D01*
X133548380Y-126976285D01*
%TO.C,R5*%
X134696980Y-127919537D02*
X134220790Y-128252871D01*
X134696980Y-128490966D02*
X133696980Y-128490966D01*
X133696980Y-128110013D01*
X133744600Y-128014775D01*
X133792219Y-127967156D01*
X133887457Y-127919537D01*
X134030314Y-127919537D01*
X134125552Y-127967156D01*
X134173171Y-128014775D01*
X134220790Y-128110013D01*
X134220790Y-128490966D01*
X133696980Y-127014775D02*
X133696980Y-127490966D01*
X134173171Y-127538585D01*
X134125552Y-127490966D01*
X134077933Y-127395728D01*
X134077933Y-127157632D01*
X134125552Y-127062394D01*
X134173171Y-127014775D01*
X134268409Y-126967156D01*
X134506504Y-126967156D01*
X134601742Y-127014775D01*
X134649361Y-127062394D01*
X134696980Y-127157632D01*
X134696980Y-127395728D01*
X134649361Y-127490966D01*
X134601742Y-127538585D01*
%TO.C,C2*%
X131167142Y-114720666D02*
X131214761Y-114768285D01*
X131262380Y-114911142D01*
X131262380Y-115006380D01*
X131214761Y-115149238D01*
X131119523Y-115244476D01*
X131024285Y-115292095D01*
X130833809Y-115339714D01*
X130690952Y-115339714D01*
X130500476Y-115292095D01*
X130405238Y-115244476D01*
X130310000Y-115149238D01*
X130262380Y-115006380D01*
X130262380Y-114911142D01*
X130310000Y-114768285D01*
X130357619Y-114720666D01*
X130357619Y-114339714D02*
X130310000Y-114292095D01*
X130262380Y-114196857D01*
X130262380Y-113958761D01*
X130310000Y-113863523D01*
X130357619Y-113815904D01*
X130452857Y-113768285D01*
X130548095Y-113768285D01*
X130690952Y-113815904D01*
X131262380Y-114387333D01*
X131262380Y-113768285D01*
%TO.C,C7*%
X136485333Y-112371142D02*
X136437714Y-112418761D01*
X136294857Y-112466380D01*
X136199619Y-112466380D01*
X136056761Y-112418761D01*
X135961523Y-112323523D01*
X135913904Y-112228285D01*
X135866285Y-112037809D01*
X135866285Y-111894952D01*
X135913904Y-111704476D01*
X135961523Y-111609238D01*
X136056761Y-111514000D01*
X136199619Y-111466380D01*
X136294857Y-111466380D01*
X136437714Y-111514000D01*
X136485333Y-111561619D01*
X136818666Y-111466380D02*
X137485333Y-111466380D01*
X137056761Y-112466380D01*
%TO.C,R11*%
X136263142Y-113736380D02*
X135929809Y-113260190D01*
X135691714Y-113736380D02*
X135691714Y-112736380D01*
X136072666Y-112736380D01*
X136167904Y-112784000D01*
X136215523Y-112831619D01*
X136263142Y-112926857D01*
X136263142Y-113069714D01*
X136215523Y-113164952D01*
X136167904Y-113212571D01*
X136072666Y-113260190D01*
X135691714Y-113260190D01*
X137215523Y-113736380D02*
X136644095Y-113736380D01*
X136929809Y-113736380D02*
X136929809Y-112736380D01*
X136834571Y-112879238D01*
X136739333Y-112974476D01*
X136644095Y-113022095D01*
X138167904Y-113736380D02*
X137596476Y-113736380D01*
X137882190Y-113736380D02*
X137882190Y-112736380D01*
X137786952Y-112879238D01*
X137691714Y-112974476D01*
X137596476Y-113022095D01*
D12*
%TO.C,E1*%
X138479085Y-111571457D02*
X138682285Y-111571457D01*
X138769371Y-111890771D02*
X138479085Y-111890771D01*
X138479085Y-111281171D01*
X138769371Y-111281171D01*
X139349942Y-111890771D02*
X139001600Y-111890771D01*
X139175771Y-111890771D02*
X139175771Y-111281171D01*
X139117714Y-111368257D01*
X139059657Y-111426314D01*
X139001600Y-111455342D01*
D11*
%TO.C,R14*%
X124071142Y-124372380D02*
X123737809Y-123896190D01*
X123499714Y-124372380D02*
X123499714Y-123372380D01*
X123880666Y-123372380D01*
X123975904Y-123420000D01*
X124023523Y-123467619D01*
X124071142Y-123562857D01*
X124071142Y-123705714D01*
X124023523Y-123800952D01*
X123975904Y-123848571D01*
X123880666Y-123896190D01*
X123499714Y-123896190D01*
X125023523Y-124372380D02*
X124452095Y-124372380D01*
X124737809Y-124372380D02*
X124737809Y-123372380D01*
X124642571Y-123515238D01*
X124547333Y-123610476D01*
X124452095Y-123658095D01*
X125880666Y-123705714D02*
X125880666Y-124372380D01*
X125642571Y-123324761D02*
X125404476Y-124039047D01*
X126023523Y-124039047D01*
%TO.C,SW2*%
X122610571Y-133762571D02*
X122610571Y-134095904D01*
X123134380Y-134095904D02*
X122134380Y-134095904D01*
X122134380Y-133619714D01*
X123134380Y-133095904D02*
X123086761Y-133191142D01*
X122991523Y-133238761D01*
X122134380Y-133238761D01*
X123134380Y-132286380D02*
X122610571Y-132286380D01*
X122515333Y-132334000D01*
X122467714Y-132429238D01*
X122467714Y-132619714D01*
X122515333Y-132714952D01*
X123086761Y-132286380D02*
X123134380Y-132381619D01*
X123134380Y-132619714D01*
X123086761Y-132714952D01*
X122991523Y-132762571D01*
X122896285Y-132762571D01*
X122801047Y-132714952D01*
X122753428Y-132619714D01*
X122753428Y-132381619D01*
X122705809Y-132286380D01*
X123086761Y-131857809D02*
X123134380Y-131762571D01*
X123134380Y-131572095D01*
X123086761Y-131476857D01*
X122991523Y-131429238D01*
X122943904Y-131429238D01*
X122848666Y-131476857D01*
X122801047Y-131572095D01*
X122801047Y-131714952D01*
X122753428Y-131810190D01*
X122658190Y-131857809D01*
X122610571Y-131857809D01*
X122515333Y-131810190D01*
X122467714Y-131714952D01*
X122467714Y-131572095D01*
X122515333Y-131476857D01*
X123134380Y-131000666D02*
X122134380Y-131000666D01*
X123134380Y-130572095D02*
X122610571Y-130572095D01*
X122515333Y-130619714D01*
X122467714Y-130714952D01*
X122467714Y-130857809D01*
X122515333Y-130953047D01*
X122562952Y-131000666D01*
%TO.C,R13*%
X122801142Y-113736380D02*
X122467809Y-113260190D01*
X122229714Y-113736380D02*
X122229714Y-112736380D01*
X122610666Y-112736380D01*
X122705904Y-112784000D01*
X122753523Y-112831619D01*
X122801142Y-112926857D01*
X122801142Y-113069714D01*
X122753523Y-113164952D01*
X122705904Y-113212571D01*
X122610666Y-113260190D01*
X122229714Y-113260190D01*
X123753523Y-113736380D02*
X123182095Y-113736380D01*
X123467809Y-113736380D02*
X123467809Y-112736380D01*
X123372571Y-112879238D01*
X123277333Y-112974476D01*
X123182095Y-113022095D01*
X124086857Y-112736380D02*
X124705904Y-112736380D01*
X124372571Y-113117333D01*
X124515428Y-113117333D01*
X124610666Y-113164952D01*
X124658285Y-113212571D01*
X124705904Y-113307809D01*
X124705904Y-113545904D01*
X124658285Y-113641142D01*
X124610666Y-113688761D01*
X124515428Y-113736380D01*
X124229714Y-113736380D01*
X124134476Y-113688761D01*
X124086857Y-113641142D01*
%TO.C,C3*%
X134453333Y-114911142D02*
X134405714Y-114958761D01*
X134262857Y-115006380D01*
X134167619Y-115006380D01*
X134024761Y-114958761D01*
X133929523Y-114863523D01*
X133881904Y-114768285D01*
X133834285Y-114577809D01*
X133834285Y-114434952D01*
X133881904Y-114244476D01*
X133929523Y-114149238D01*
X134024761Y-114054000D01*
X134167619Y-114006380D01*
X134262857Y-114006380D01*
X134405714Y-114054000D01*
X134453333Y-114101619D01*
X134786666Y-114006380D02*
X135405714Y-114006380D01*
X135072380Y-114387333D01*
X135215238Y-114387333D01*
X135310476Y-114434952D01*
X135358095Y-114482571D01*
X135405714Y-114577809D01*
X135405714Y-114815904D01*
X135358095Y-114911142D01*
X135310476Y-114958761D01*
X135215238Y-115006380D01*
X134929523Y-115006380D01*
X134834285Y-114958761D01*
X134786666Y-114911142D01*
%TO.C,R3*%
X134453333Y-113736380D02*
X134120000Y-113260190D01*
X133881904Y-113736380D02*
X133881904Y-112736380D01*
X134262857Y-112736380D01*
X134358095Y-112784000D01*
X134405714Y-112831619D01*
X134453333Y-112926857D01*
X134453333Y-113069714D01*
X134405714Y-113164952D01*
X134358095Y-113212571D01*
X134262857Y-113260190D01*
X133881904Y-113260190D01*
X134786666Y-112736380D02*
X135405714Y-112736380D01*
X135072380Y-113117333D01*
X135215238Y-113117333D01*
X135310476Y-113164952D01*
X135358095Y-113212571D01*
X135405714Y-113307809D01*
X135405714Y-113545904D01*
X135358095Y-113641142D01*
X135310476Y-113688761D01*
X135215238Y-113736380D01*
X134929523Y-113736380D01*
X134834285Y-113688761D01*
X134786666Y-113641142D01*
%TO.C,C1*%
X129627333Y-133453142D02*
X129579714Y-133500761D01*
X129436857Y-133548380D01*
X129341619Y-133548380D01*
X129198761Y-133500761D01*
X129103523Y-133405523D01*
X129055904Y-133310285D01*
X129008285Y-133119809D01*
X129008285Y-132976952D01*
X129055904Y-132786476D01*
X129103523Y-132691238D01*
X129198761Y-132596000D01*
X129341619Y-132548380D01*
X129436857Y-132548380D01*
X129579714Y-132596000D01*
X129627333Y-132643619D01*
X130579714Y-133548380D02*
X130008285Y-133548380D01*
X130294000Y-133548380D02*
X130294000Y-132548380D01*
X130198761Y-132691238D01*
X130103523Y-132786476D01*
X130008285Y-132834095D01*
%TO.C,C9*%
X136485333Y-114911142D02*
X136437714Y-114958761D01*
X136294857Y-115006380D01*
X136199619Y-115006380D01*
X136056761Y-114958761D01*
X135961523Y-114863523D01*
X135913904Y-114768285D01*
X135866285Y-114577809D01*
X135866285Y-114434952D01*
X135913904Y-114244476D01*
X135961523Y-114149238D01*
X136056761Y-114054000D01*
X136199619Y-114006380D01*
X136294857Y-114006380D01*
X136437714Y-114054000D01*
X136485333Y-114101619D01*
X136961523Y-115006380D02*
X137152000Y-115006380D01*
X137247238Y-114958761D01*
X137294857Y-114911142D01*
X137390095Y-114768285D01*
X137437714Y-114577809D01*
X137437714Y-114196857D01*
X137390095Y-114101619D01*
X137342476Y-114054000D01*
X137247238Y-114006380D01*
X137056761Y-114006380D01*
X136961523Y-114054000D01*
X136913904Y-114101619D01*
X136866285Y-114196857D01*
X136866285Y-114434952D01*
X136913904Y-114530190D01*
X136961523Y-114577809D01*
X137056761Y-114625428D01*
X137247238Y-114625428D01*
X137342476Y-114577809D01*
X137390095Y-114530190D01*
X137437714Y-114434952D01*
%TO.C,D3*%
X132532380Y-128500095D02*
X131532380Y-128500095D01*
X131532380Y-128262000D01*
X131580000Y-128119142D01*
X131675238Y-128023904D01*
X131770476Y-127976285D01*
X131960952Y-127928666D01*
X132103809Y-127928666D01*
X132294285Y-127976285D01*
X132389523Y-128023904D01*
X132484761Y-128119142D01*
X132532380Y-128262000D01*
X132532380Y-128500095D01*
X131532380Y-127595333D02*
X131532380Y-126976285D01*
X131913333Y-127309619D01*
X131913333Y-127166761D01*
X131960952Y-127071523D01*
X132008571Y-127023904D01*
X132103809Y-126976285D01*
X132341904Y-126976285D01*
X132437142Y-127023904D01*
X132484761Y-127071523D01*
X132532380Y-127166761D01*
X132532380Y-127452476D01*
X132484761Y-127547714D01*
X132437142Y-127595333D01*
%TO.C,C8*%
X135469333Y-124563142D02*
X135421714Y-124610761D01*
X135278857Y-124658380D01*
X135183619Y-124658380D01*
X135040761Y-124610761D01*
X134945523Y-124515523D01*
X134897904Y-124420285D01*
X134850285Y-124229809D01*
X134850285Y-124086952D01*
X134897904Y-123896476D01*
X134945523Y-123801238D01*
X135040761Y-123706000D01*
X135183619Y-123658380D01*
X135278857Y-123658380D01*
X135421714Y-123706000D01*
X135469333Y-123753619D01*
X136040761Y-124086952D02*
X135945523Y-124039333D01*
X135897904Y-123991714D01*
X135850285Y-123896476D01*
X135850285Y-123848857D01*
X135897904Y-123753619D01*
X135945523Y-123706000D01*
X136040761Y-123658380D01*
X136231238Y-123658380D01*
X136326476Y-123706000D01*
X136374095Y-123753619D01*
X136421714Y-123848857D01*
X136421714Y-123896476D01*
X136374095Y-123991714D01*
X136326476Y-124039333D01*
X136231238Y-124086952D01*
X136040761Y-124086952D01*
X135945523Y-124134571D01*
X135897904Y-124182190D01*
X135850285Y-124277428D01*
X135850285Y-124467904D01*
X135897904Y-124563142D01*
X135945523Y-124610761D01*
X136040761Y-124658380D01*
X136231238Y-124658380D01*
X136326476Y-124610761D01*
X136374095Y-124563142D01*
X136421714Y-124467904D01*
X136421714Y-124277428D01*
X136374095Y-124182190D01*
X136326476Y-124134571D01*
X136231238Y-124086952D01*
%TO.C,D1*%
X129230380Y-128500095D02*
X128230380Y-128500095D01*
X128230380Y-128262000D01*
X128278000Y-128119142D01*
X128373238Y-128023904D01*
X128468476Y-127976285D01*
X128658952Y-127928666D01*
X128801809Y-127928666D01*
X128992285Y-127976285D01*
X129087523Y-128023904D01*
X129182761Y-128119142D01*
X129230380Y-128262000D01*
X129230380Y-128500095D01*
X129230380Y-126976285D02*
X129230380Y-127547714D01*
X129230380Y-127262000D02*
X128230380Y-127262000D01*
X128373238Y-127357238D01*
X128468476Y-127452476D01*
X128516095Y-127547714D01*
%TO.C,R4*%
X124658380Y-128182666D02*
X124182190Y-128516000D01*
X124658380Y-128754095D02*
X123658380Y-128754095D01*
X123658380Y-128373142D01*
X123706000Y-128277904D01*
X123753619Y-128230285D01*
X123848857Y-128182666D01*
X123991714Y-128182666D01*
X124086952Y-128230285D01*
X124134571Y-128277904D01*
X124182190Y-128373142D01*
X124182190Y-128754095D01*
X123991714Y-127325523D02*
X124658380Y-127325523D01*
X123610761Y-127563619D02*
X124325047Y-127801714D01*
X124325047Y-127182666D01*
%TO.C,R15*%
X126944380Y-114688857D02*
X126468190Y-115022190D01*
X126944380Y-115260285D02*
X125944380Y-115260285D01*
X125944380Y-114879333D01*
X125992000Y-114784095D01*
X126039619Y-114736476D01*
X126134857Y-114688857D01*
X126277714Y-114688857D01*
X126372952Y-114736476D01*
X126420571Y-114784095D01*
X126468190Y-114879333D01*
X126468190Y-115260285D01*
X126944380Y-113736476D02*
X126944380Y-114307904D01*
X126944380Y-114022190D02*
X125944380Y-114022190D01*
X126087238Y-114117428D01*
X126182476Y-114212666D01*
X126230095Y-114307904D01*
X125944380Y-112831714D02*
X125944380Y-113307904D01*
X126420571Y-113355523D01*
X126372952Y-113307904D01*
X126325333Y-113212666D01*
X126325333Y-112974571D01*
X126372952Y-112879333D01*
X126420571Y-112831714D01*
X126515809Y-112784095D01*
X126753904Y-112784095D01*
X126849142Y-112831714D01*
X126896761Y-112879333D01*
X126944380Y-112974571D01*
X126944380Y-113212666D01*
X126896761Y-113307904D01*
X126849142Y-113355523D01*
%TO.C,C5*%
X132280633Y-112641312D02*
X132347976Y-112641312D01*
X132482663Y-112708656D01*
X132550007Y-112776000D01*
X132617350Y-112910687D01*
X132617350Y-113045374D01*
X132583679Y-113146389D01*
X132482663Y-113314748D01*
X132381648Y-113415763D01*
X132213289Y-113516778D01*
X132112274Y-113550450D01*
X131977587Y-113550450D01*
X131842900Y-113483106D01*
X131775556Y-113415763D01*
X131708213Y-113281076D01*
X131708213Y-113213732D01*
X131001106Y-112641312D02*
X131337824Y-112978030D01*
X131708213Y-112674984D01*
X131640869Y-112674984D01*
X131539854Y-112641312D01*
X131371495Y-112472954D01*
X131337824Y-112371938D01*
X131337824Y-112304595D01*
X131371495Y-112203580D01*
X131539854Y-112035221D01*
X131640869Y-112001549D01*
X131708213Y-112001549D01*
X131809228Y-112035221D01*
X131977587Y-112203580D01*
X132011259Y-112304595D01*
X132011259Y-112371938D01*
%TO.C,SW1*%
X139154238Y-131000666D02*
X139106619Y-131143523D01*
X139106619Y-131381619D01*
X139154238Y-131476857D01*
X139201857Y-131524476D01*
X139297095Y-131572095D01*
X139392333Y-131572095D01*
X139487571Y-131524476D01*
X139535190Y-131476857D01*
X139582809Y-131381619D01*
X139630428Y-131191142D01*
X139678047Y-131095904D01*
X139725666Y-131048285D01*
X139820904Y-131000666D01*
X139916142Y-131000666D01*
X140011380Y-131048285D01*
X140059000Y-131095904D01*
X140106619Y-131191142D01*
X140106619Y-131429238D01*
X140059000Y-131572095D01*
X140106619Y-131905428D02*
X139106619Y-132143523D01*
X139820904Y-132334000D01*
X139106619Y-132524476D01*
X140106619Y-132762571D01*
X139106619Y-133667333D02*
X139106619Y-133095904D01*
X139106619Y-133381619D02*
X140106619Y-133381619D01*
X139963761Y-133286380D01*
X139868523Y-133191142D01*
X139820904Y-133095904D01*
X136453619Y-131786380D02*
X136929809Y-131453047D01*
X136453619Y-131214952D02*
X137453619Y-131214952D01*
X137453619Y-131595904D01*
X137406000Y-131691142D01*
X137358380Y-131738761D01*
X137263142Y-131786380D01*
X137120285Y-131786380D01*
X137025047Y-131738761D01*
X136977428Y-131691142D01*
X136929809Y-131595904D01*
X136929809Y-131214952D01*
X136501238Y-132167333D02*
X136453619Y-132310190D01*
X136453619Y-132548285D01*
X136501238Y-132643523D01*
X136548857Y-132691142D01*
X136644095Y-132738761D01*
X136739333Y-132738761D01*
X136834571Y-132691142D01*
X136882190Y-132643523D01*
X136929809Y-132548285D01*
X136977428Y-132357809D01*
X137025047Y-132262571D01*
X137072666Y-132214952D01*
X137167904Y-132167333D01*
X137263142Y-132167333D01*
X137358380Y-132214952D01*
X137406000Y-132262571D01*
X137453619Y-132357809D01*
X137453619Y-132595904D01*
X137406000Y-132738761D01*
X137453619Y-133024476D02*
X137453619Y-133595904D01*
X136453619Y-133310190D02*
X137453619Y-133310190D01*
%TO.C,C4*%
X134453333Y-112371142D02*
X134405714Y-112418761D01*
X134262857Y-112466380D01*
X134167619Y-112466380D01*
X134024761Y-112418761D01*
X133929523Y-112323523D01*
X133881904Y-112228285D01*
X133834285Y-112037809D01*
X133834285Y-111894952D01*
X133881904Y-111704476D01*
X133929523Y-111609238D01*
X134024761Y-111514000D01*
X134167619Y-111466380D01*
X134262857Y-111466380D01*
X134405714Y-111514000D01*
X134453333Y-111561619D01*
X135310476Y-111799714D02*
X135310476Y-112466380D01*
X135072380Y-111418761D02*
X134834285Y-112133047D01*
X135453333Y-112133047D01*
%TO.C,R10*%
X126944380Y-128912857D02*
X126468190Y-129246190D01*
X126944380Y-129484285D02*
X125944380Y-129484285D01*
X125944380Y-129103333D01*
X125992000Y-129008095D01*
X126039619Y-128960476D01*
X126134857Y-128912857D01*
X126277714Y-128912857D01*
X126372952Y-128960476D01*
X126420571Y-129008095D01*
X126468190Y-129103333D01*
X126468190Y-129484285D01*
X126944380Y-127960476D02*
X126944380Y-128531904D01*
X126944380Y-128246190D02*
X125944380Y-128246190D01*
X126087238Y-128341428D01*
X126182476Y-128436666D01*
X126230095Y-128531904D01*
X125944380Y-127341428D02*
X125944380Y-127246190D01*
X125992000Y-127150952D01*
X126039619Y-127103333D01*
X126134857Y-127055714D01*
X126325333Y-127008095D01*
X126563428Y-127008095D01*
X126753904Y-127055714D01*
X126849142Y-127103333D01*
X126896761Y-127150952D01*
X126944380Y-127246190D01*
X126944380Y-127341428D01*
X126896761Y-127436666D01*
X126849142Y-127484285D01*
X126753904Y-127531904D01*
X126563428Y-127579523D01*
X126325333Y-127579523D01*
X126134857Y-127531904D01*
X126039619Y-127484285D01*
X125992000Y-127436666D01*
X125944380Y-127341428D01*
%TO.C,C6*%
X129928687Y-111622389D02*
X129928687Y-111689732D01*
X129861343Y-111824419D01*
X129794000Y-111891763D01*
X129659312Y-111959106D01*
X129524625Y-111959106D01*
X129423610Y-111925435D01*
X129255251Y-111824419D01*
X129154236Y-111723404D01*
X129053221Y-111555045D01*
X129019549Y-111454030D01*
X129019549Y-111319343D01*
X129086893Y-111184656D01*
X129154236Y-111117312D01*
X129288923Y-111049969D01*
X129356267Y-111049969D01*
X129895015Y-110376534D02*
X129760328Y-110511221D01*
X129726656Y-110612236D01*
X129726656Y-110679580D01*
X129760328Y-110847938D01*
X129861343Y-111016297D01*
X130130717Y-111285671D01*
X130231732Y-111319343D01*
X130299076Y-111319343D01*
X130400091Y-111285671D01*
X130534778Y-111150984D01*
X130568450Y-111049969D01*
X130568450Y-110982625D01*
X130534778Y-110881610D01*
X130366419Y-110713251D01*
X130265404Y-110679580D01*
X130198061Y-110679580D01*
X130097045Y-110713251D01*
X129962358Y-110847938D01*
X129928687Y-110948954D01*
X129928687Y-111016297D01*
X129962358Y-111117312D01*
%TO.C,R12*%
X123896380Y-128912857D02*
X123420190Y-129246190D01*
X123896380Y-129484285D02*
X122896380Y-129484285D01*
X122896380Y-129103333D01*
X122944000Y-129008095D01*
X122991619Y-128960476D01*
X123086857Y-128912857D01*
X123229714Y-128912857D01*
X123324952Y-128960476D01*
X123372571Y-129008095D01*
X123420190Y-129103333D01*
X123420190Y-129484285D01*
X123896380Y-127960476D02*
X123896380Y-128531904D01*
X123896380Y-128246190D02*
X122896380Y-128246190D01*
X123039238Y-128341428D01*
X123134476Y-128436666D01*
X123182095Y-128531904D01*
X122991619Y-127579523D02*
X122944000Y-127531904D01*
X122896380Y-127436666D01*
X122896380Y-127198571D01*
X122944000Y-127103333D01*
X122991619Y-127055714D01*
X123086857Y-127008095D01*
X123182095Y-127008095D01*
X123324952Y-127055714D01*
X123896380Y-127627142D01*
X123896380Y-127008095D01*
%TO.C,R2*%
X128055103Y-127943525D02*
X127578913Y-128276859D01*
X128055103Y-128514954D02*
X127055103Y-128514954D01*
X127055103Y-128134001D01*
X127102723Y-128038763D01*
X127150342Y-127991144D01*
X127245580Y-127943525D01*
X127388437Y-127943525D01*
X127483675Y-127991144D01*
X127531294Y-128038763D01*
X127578913Y-128134001D01*
X127578913Y-128514954D01*
X127150342Y-127562573D02*
X127102723Y-127514954D01*
X127055103Y-127419716D01*
X127055103Y-127181620D01*
X127102723Y-127086382D01*
X127150342Y-127038763D01*
X127245580Y-126991144D01*
X127340818Y-126991144D01*
X127483675Y-127038763D01*
X128055103Y-127610192D01*
X128055103Y-126991144D01*
%TO.C,R6*%
X131516380Y-127928666D02*
X131040190Y-128262000D01*
X131516380Y-128500095D02*
X130516380Y-128500095D01*
X130516380Y-128119142D01*
X130564000Y-128023904D01*
X130611619Y-127976285D01*
X130706857Y-127928666D01*
X130849714Y-127928666D01*
X130944952Y-127976285D01*
X130992571Y-128023904D01*
X131040190Y-128119142D01*
X131040190Y-128500095D01*
X130516380Y-127071523D02*
X130516380Y-127262000D01*
X130564000Y-127357238D01*
X130611619Y-127404857D01*
X130754476Y-127500095D01*
X130944952Y-127547714D01*
X131325904Y-127547714D01*
X131421142Y-127500095D01*
X131468761Y-127452476D01*
X131516380Y-127357238D01*
X131516380Y-127166761D01*
X131468761Y-127071523D01*
X131421142Y-127023904D01*
X131325904Y-126976285D01*
X131087809Y-126976285D01*
X130992571Y-127023904D01*
X130944952Y-127071523D01*
X130897333Y-127166761D01*
X130897333Y-127357238D01*
X130944952Y-127452476D01*
X130992571Y-127500095D01*
X131087809Y-127547714D01*
%TO.C,R1*%
X125674380Y-128182666D02*
X125198190Y-128516000D01*
X125674380Y-128754095D02*
X124674380Y-128754095D01*
X124674380Y-128373142D01*
X124722000Y-128277904D01*
X124769619Y-128230285D01*
X124864857Y-128182666D01*
X125007714Y-128182666D01*
X125102952Y-128230285D01*
X125150571Y-128277904D01*
X125198190Y-128373142D01*
X125198190Y-128754095D01*
X125674380Y-127230285D02*
X125674380Y-127801714D01*
X125674380Y-127516000D02*
X124674380Y-127516000D01*
X124817238Y-127611238D01*
X124912476Y-127706476D01*
X124960095Y-127801714D01*
%TO.C,R7*%
X128611333Y-113228380D02*
X128278000Y-112752190D01*
X128039904Y-113228380D02*
X128039904Y-112228380D01*
X128420857Y-112228380D01*
X128516095Y-112276000D01*
X128563714Y-112323619D01*
X128611333Y-112418857D01*
X128611333Y-112561714D01*
X128563714Y-112656952D01*
X128516095Y-112704571D01*
X128420857Y-112752190D01*
X128039904Y-112752190D01*
X128944666Y-112228380D02*
X129611333Y-112228380D01*
X129182761Y-113228380D01*
%TO.C,Y1*%
X137898190Y-120618190D02*
X138374380Y-120618190D01*
X137374380Y-120951523D02*
X137898190Y-120618190D01*
X137374380Y-120284857D01*
X138374380Y-119427714D02*
X138374380Y-119999142D01*
X138374380Y-119713428D02*
X137374380Y-119713428D01*
X137517238Y-119808666D01*
X137612476Y-119903904D01*
X137660095Y-119999142D01*
D13*
%TO.C,J2*%
X128272000Y-150070000D02*
X128272000Y-150616529D01*
X121987000Y-151487530D02*
X121987000Y-152290000D01*
X128272000Y-151743471D02*
X128272000Y-152290000D01*
X128272000Y-150070000D02*
X121987000Y-150070000D01*
X121987000Y-150070000D02*
X121987000Y-150872470D01*
X129032000Y-150070000D02*
X129792000Y-150070000D01*
X128272000Y-152290000D02*
X121987000Y-152290000D01*
X129792000Y-150070000D02*
X129792000Y-151180000D01*
D14*
%TO.C,U2*%
X122095000Y-120030000D02*
X122095000Y-117230000D01*
X122095000Y-117230000D02*
X126895000Y-117230000D01*
X126895000Y-120030000D02*
X126895000Y-117230000D01*
X122095000Y-120030000D02*
X126895000Y-120030000D01*
D15*
X121895000Y-121555000D02*
G75*
G03*
X121895000Y-121555000I-150000J0D01*
G01*
D16*
X122995000Y-119330000D02*
G75*
G03*
X122995000Y-119330000I-200000J0D01*
G01*
D13*
%TO.C,J4*%
X117542000Y-115380000D02*
X117542000Y-114050000D01*
X117542000Y-152270000D02*
X120202000Y-152270000D01*
X117542000Y-116650000D02*
X120202000Y-116650000D01*
X117542000Y-116650000D02*
X117542000Y-152270000D01*
X117542000Y-114050000D02*
X118872000Y-114050000D01*
X120202000Y-116650000D02*
X120202000Y-152270000D01*
%TO.C,J1*%
X135290666Y-149600000D02*
X136620666Y-149600000D01*
X131420666Y-149600000D02*
X131420666Y-152260000D01*
X136620666Y-149600000D02*
X136620666Y-150930000D01*
X134020666Y-152260000D02*
X131420666Y-152260000D01*
X134020666Y-149600000D02*
X134020666Y-152260000D01*
X134020666Y-149600000D02*
X131420666Y-149600000D01*
%TO.C,J3*%
X138370000Y-152270000D02*
X141030000Y-152270000D01*
X138370000Y-116650000D02*
X141030000Y-116650000D01*
X138370000Y-114050000D02*
X139700000Y-114050000D01*
X141030000Y-116650000D02*
X141030000Y-152270000D01*
X138370000Y-116650000D02*
X138370000Y-152270000D01*
X138370000Y-115380000D02*
X138370000Y-114050000D01*
%TO.C,U1*%
X127760000Y-121500000D02*
X128235000Y-121500000D01*
X132980000Y-121025000D02*
X132980000Y-121500000D01*
X132980000Y-116755000D02*
X132980000Y-116280000D01*
X132980000Y-121500000D02*
X132505000Y-121500000D01*
X127760000Y-121025000D02*
X127760000Y-121500000D01*
X127760000Y-116280000D02*
X128235000Y-116280000D01*
X127760000Y-116755000D02*
X127760000Y-116280000D01*
%TO.C,R9*%
X134831499Y-125734152D02*
X134831499Y-126041434D01*
X135591499Y-125734152D02*
X135591499Y-126041434D01*
%TO.C,R8*%
X129470000Y-125746359D02*
X129470000Y-126053641D01*
X130230000Y-125746359D02*
X130230000Y-126053641D01*
D10*
%TO.C,D2*%
X133075109Y-124817793D02*
G75*
G03*
X133075109Y-124817793I-50000J0D01*
G01*
D13*
%TO.C,R5*%
X133716719Y-125754152D02*
X133716719Y-126061434D01*
X134476719Y-125754152D02*
X134476719Y-126061434D01*
%TO.C,C2*%
X130104006Y-114172164D02*
X130104006Y-114387836D01*
X129384006Y-114172164D02*
X129384006Y-114387836D01*
%TO.C,C7*%
X136657836Y-115275000D02*
X136442164Y-115275000D01*
X136657836Y-115995000D02*
X136442164Y-115995000D01*
%TO.C,R11*%
X136376359Y-116260000D02*
X136683641Y-116260000D01*
X136376359Y-117020000D02*
X136683641Y-117020000D01*
%TO.C,R14*%
X124867641Y-122370000D02*
X124560359Y-122370000D01*
X124867641Y-123130000D02*
X124560359Y-123130000D01*
%TO.C,SW2*%
X124029000Y-134334000D02*
X123579000Y-134334000D01*
X126029000Y-130334000D02*
X126479000Y-130334000D01*
X123579000Y-134334000D02*
X123579000Y-130334000D01*
X126479000Y-134334000D02*
X126029000Y-134334000D01*
X126479000Y-130334000D02*
X126479000Y-134334000D01*
X123579000Y-130334000D02*
X124029000Y-130334000D01*
%TO.C,R13*%
X123443641Y-114020000D02*
X123136359Y-114020000D01*
X123443641Y-114780000D02*
X123136359Y-114780000D01*
%TO.C,C3*%
X134607836Y-117310000D02*
X134392164Y-117310000D01*
X134607836Y-118030000D02*
X134392164Y-118030000D01*
%TO.C,R3*%
X134673641Y-117045000D02*
X134366359Y-117045000D01*
X134673641Y-116285000D02*
X134366359Y-116285000D01*
D14*
%TO.C,C1*%
X131444000Y-135723500D02*
X131444000Y-133796500D01*
X128144000Y-135723500D02*
X128144000Y-133796500D01*
X131444000Y-130269500D02*
X130994000Y-129833500D01*
X131444000Y-135723500D02*
X128144000Y-135723500D01*
X128144000Y-132196500D02*
X128144000Y-130269500D01*
X131444000Y-130269500D02*
X128144000Y-130269500D01*
X128144000Y-130269500D02*
X128594000Y-129833500D01*
X131444000Y-132196500D02*
X131444000Y-130269500D01*
X130994000Y-129833500D02*
X128594000Y-129833500D01*
D13*
%TO.C,C9*%
X136657836Y-117285000D02*
X136442164Y-117285000D01*
X136657836Y-118005000D02*
X136442164Y-118005000D01*
D10*
%TO.C,D3*%
X132003499Y-124817793D02*
G75*
G03*
X132003499Y-124817793I-50000J0D01*
G01*
D13*
%TO.C,C8*%
X135422164Y-122640000D02*
X135637836Y-122640000D01*
X135422164Y-123360000D02*
X135637836Y-123360000D01*
D10*
%TO.C,D1*%
X128743223Y-124810000D02*
G75*
G03*
X128743223Y-124810000I-50000J0D01*
G01*
D13*
%TO.C,R4*%
X123686115Y-125746359D02*
X123686115Y-126053641D01*
X124446115Y-125746359D02*
X124446115Y-126053641D01*
%TO.C,R15*%
X128004006Y-114146359D02*
X128004006Y-114453641D01*
X127244006Y-114146359D02*
X127244006Y-114453641D01*
%TO.C,C5*%
X131268307Y-113199190D02*
X131420810Y-113351693D01*
X130759190Y-113708307D02*
X130911693Y-113860810D01*
%TO.C,SW1*%
X136009000Y-130334000D02*
X136009000Y-134334000D01*
X136009000Y-134334000D02*
X135559000Y-134334000D01*
X133109000Y-134334000D02*
X133109000Y-130334000D01*
X135559000Y-130334000D02*
X136009000Y-130334000D01*
X133559000Y-134334000D02*
X133109000Y-134334000D01*
X133109000Y-130334000D02*
X133559000Y-130334000D01*
%TO.C,C4*%
X134607836Y-115300000D02*
X134392164Y-115300000D01*
X134607836Y-116020000D02*
X134392164Y-116020000D01*
%TO.C,R10*%
X126759669Y-125746359D02*
X126759669Y-126053641D01*
X125999669Y-125746359D02*
X125999669Y-126053641D01*
%TO.C,C6*%
X130231693Y-111869190D02*
X130079190Y-112021693D01*
X130740810Y-112378307D02*
X130588307Y-112530810D01*
%TO.C,R12*%
X122529338Y-125746359D02*
X122529338Y-126053641D01*
X123289338Y-125746359D02*
X123289338Y-126053641D01*
%TO.C,R2*%
X127916446Y-125746359D02*
X127916446Y-126053641D01*
X127156446Y-125746359D02*
X127156446Y-126053641D01*
%TO.C,R6*%
X130543499Y-125754152D02*
X130543499Y-126061434D01*
X131303499Y-125754152D02*
X131303499Y-126061434D01*
%TO.C,R1*%
X125602892Y-125746359D02*
X125602892Y-126053641D01*
X124842892Y-125746359D02*
X124842892Y-126053641D01*
%TO.C,R7*%
X129069006Y-114453641D02*
X129069006Y-114146359D01*
X128309006Y-114453641D02*
X128309006Y-114146359D01*
D17*
%TO.C,Y1*%
X133830000Y-122420000D02*
X137230000Y-122420000D01*
X133830000Y-118220000D02*
X133830000Y-122420000D01*
X137230000Y-118220000D02*
X137230000Y-122420000D01*
X133830000Y-118220000D02*
X137230000Y-118220000D01*
D15*
X133480000Y-118420000D02*
G75*
G03*
X133480000Y-118420000I-150000J0D01*
G01*
%TD*%
M02*
