%TF.GenerationSoftware,KiCad,Pcbnew,(6.0.0)*%
%TF.CreationDate,2022-02-02T23:07:07+08:00*%
%TF.ProjectId,screen,73637265-656e-42e6-9b69-6361645f7063,rev?*%
%TF.SameCoordinates,Original*%
%TF.FileFunction,Copper,L1,Top*%
%TF.FilePolarity,Positive*%
%FSLAX46Y46*%
G04 Gerber Fmt 4.6, Leading zero omitted, Abs format (unit mm)*
G04 Created by KiCad (PCBNEW (6.0.0)) date 2022-02-02 23:07:07*
%MOMM*%
%LPD*%
G01*
G04 APERTURE LIST*
G04 Aperture macros list*
%AMRoundRect*
0 Rectangle with rounded corners*
0 $1 Rounding radius*
0 $2 $3 $4 $5 $6 $7 $8 $9 X,Y pos of 4 corners*
0 Add a 4 corners polygon primitive as box body*
4,1,4,$2,$3,$4,$5,$6,$7,$8,$9,$2,$3,0*
0 Add four circle primitives for the rounded corners*
1,1,$1+$1,$2,$3*
1,1,$1+$1,$4,$5*
1,1,$1+$1,$6,$7*
1,1,$1+$1,$8,$9*
0 Add four rect primitives between the rounded corners*
20,1,$1+$1,$2,$3,$4,$5,0*
20,1,$1+$1,$4,$5,$6,$7,0*
20,1,$1+$1,$6,$7,$8,$9,0*
20,1,$1+$1,$8,$9,$2,$3,0*%
G04 Aperture macros list end*
%TA.AperFunction,SMDPad,CuDef*%
%ADD10RoundRect,0.140000X0.170000X-0.140000X0.170000X0.140000X-0.170000X0.140000X-0.170000X-0.140000X0*%
%TD*%
%TA.AperFunction,SMDPad,CuDef*%
%ADD11RoundRect,0.135000X0.185000X-0.135000X0.185000X0.135000X-0.185000X0.135000X-0.185000X-0.135000X0*%
%TD*%
%TA.AperFunction,SMDPad,CuDef*%
%ADD12R,4.000000X2.900000*%
%TD*%
%TA.AperFunction,SMDPad,CuDef*%
%ADD13O,0.600000X1.600000*%
%TD*%
%TA.AperFunction,SMDPad,CuDef*%
%ADD14RoundRect,0.135000X-0.185000X0.135000X-0.185000X-0.135000X0.185000X-0.135000X0.185000X0.135000X0*%
%TD*%
%TA.AperFunction,SMDPad,CuDef*%
%ADD15R,1.150000X0.270000*%
%TD*%
%TA.AperFunction,ComponentPad*%
%ADD16O,1.200000X1.700000*%
%TD*%
%TA.AperFunction,ComponentPad*%
%ADD17R,1.000000X1.000000*%
%TD*%
%TA.AperFunction,ComponentPad*%
%ADD18O,1.000000X1.000000*%
%TD*%
%TA.AperFunction,SMDPad,CuDef*%
%ADD19RoundRect,0.147500X0.172500X-0.147500X0.172500X0.147500X-0.172500X0.147500X-0.172500X-0.147500X0*%
%TD*%
%TA.AperFunction,SMDPad,CuDef*%
%ADD20R,1.800000X2.600000*%
%TD*%
%TA.AperFunction,SMDPad,CuDef*%
%ADD21R,1.000000X0.800000*%
%TD*%
%TA.AperFunction,SMDPad,CuDef*%
%ADD22R,0.700000X1.500000*%
%TD*%
%TA.AperFunction,ComponentPad*%
%ADD23R,1.700000X1.700000*%
%TD*%
%TA.AperFunction,ComponentPad*%
%ADD24O,1.700000X1.700000*%
%TD*%
%TA.AperFunction,BGAPad,CuDef*%
%ADD25R,1.350000X1.800000*%
%TD*%
%TA.AperFunction,SMDPad,CuDef*%
%ADD26R,1.000000X2.500000*%
%TD*%
%TA.AperFunction,SMDPad,CuDef*%
%ADD27R,1.800000X1.000000*%
%TD*%
%TA.AperFunction,SMDPad,CuDef*%
%ADD28RoundRect,0.150000X0.512500X0.150000X-0.512500X0.150000X-0.512500X-0.150000X0.512500X-0.150000X0*%
%TD*%
%TA.AperFunction,SMDPad,CuDef*%
%ADD29RoundRect,0.147500X-0.172500X0.147500X-0.172500X-0.147500X0.172500X-0.147500X0.172500X0.147500X0*%
%TD*%
%TA.AperFunction,ViaPad*%
%ADD30C,0.800000*%
%TD*%
%TA.AperFunction,Conductor*%
%ADD31C,0.400000*%
%TD*%
%TA.AperFunction,Conductor*%
%ADD32C,0.200000*%
%TD*%
%TA.AperFunction,Conductor*%
%ADD33C,0.600000*%
%TD*%
G04 APERTURE END LIST*
D10*
%TO.P,C7,1*%
%TO.N,+3V3*%
X141080000Y-102380000D03*
%TO.P,C7,2*%
%TO.N,GND*%
X141080000Y-101420000D03*
%TD*%
D11*
%TO.P,R14,1*%
%TO.N,Net-(D3-Pad2)*%
X139855000Y-92090000D03*
%TO.P,R14,2*%
%TO.N,Net-(C2-Pad2)*%
X139855000Y-91070000D03*
%TD*%
D12*
%TO.P,U2,0*%
%TO.N,N/C*%
X140100000Y-97100000D03*
D13*
%TO.P,U2,1,TEMP*%
%TO.N,GND*%
X138195000Y-99700000D03*
%TO.P,U2,2,PROG*%
%TO.N,Net-(R3-Pad1)*%
X139465000Y-99700000D03*
%TO.P,U2,3,GND*%
%TO.N,GND*%
X140735000Y-99700000D03*
%TO.P,U2,4,VCC*%
%TO.N,Net-(C2-Pad2)*%
X142005000Y-99700000D03*
%TO.P,U2,5,BAT*%
%TO.N,+BATT*%
X142005000Y-94500000D03*
%TO.P,U2,6,~{STDBY}*%
%TO.N,Net-(D3-Pad1)*%
X140735000Y-94500000D03*
%TO.P,U2,7,~{CHRG}*%
%TO.N,Net-(D1-Pad1)*%
X139465000Y-94500000D03*
%TO.P,U2,8,CE*%
%TO.N,Net-(C2-Pad2)*%
X138195000Y-94500000D03*
%TD*%
D14*
%TO.P,R7,1*%
%TO.N,/nRST*%
X117675000Y-110090000D03*
%TO.P,R7,2*%
%TO.N,+3V3*%
X117675000Y-111110000D03*
%TD*%
D15*
%TO.P,J1,A1,GND*%
%TO.N,GND*%
X149445000Y-98050000D03*
%TO.P,J1,A2*%
%TO.N,N/C*%
X149445000Y-98550000D03*
%TO.P,J1,A3*%
X149445000Y-99050000D03*
%TO.P,J1,A4,VBUS*%
%TO.N,Net-(C2-Pad2)*%
X149445000Y-99550000D03*
%TO.P,J1,A5,CC1*%
%TO.N,unconnected-(J1-PadA5)*%
X149445000Y-100050000D03*
%TO.P,J1,A6,D+*%
%TO.N,unconnected-(J1-PadA6)*%
X149445000Y-100550000D03*
%TO.P,J1,A7,D-*%
%TO.N,unconnected-(J1-PadA7)*%
X149445000Y-101050000D03*
%TO.P,J1,A8,SBU1*%
%TO.N,unconnected-(J1-PadA8)*%
X149445000Y-101550000D03*
%TO.P,J1,A9,VBUS*%
%TO.N,Net-(C2-Pad2)*%
X149445000Y-102050000D03*
%TO.P,J1,A10*%
%TO.N,N/C*%
X149445000Y-102550000D03*
%TO.P,J1,A11*%
X149445000Y-103050000D03*
%TO.P,J1,A12,GND*%
%TO.N,GND*%
X149445000Y-103550000D03*
%TO.P,J1,B1,GND*%
X145945000Y-103550000D03*
%TO.P,J1,B2*%
%TO.N,N/C*%
X145945000Y-103050000D03*
%TO.P,J1,B3*%
X145945000Y-102550000D03*
%TO.P,J1,B4,VBUS*%
%TO.N,Net-(C2-Pad2)*%
X145945000Y-102050000D03*
%TO.P,J1,B5,CC2*%
%TO.N,unconnected-(J1-PadB5)*%
X145945000Y-101550000D03*
%TO.P,J1,B6,D+*%
%TO.N,unconnected-(J1-PadB6)*%
X145945000Y-101050000D03*
%TO.P,J1,B7,D-*%
%TO.N,unconnected-(J1-PadB7)*%
X145945000Y-100550000D03*
%TO.P,J1,B8,SBU2*%
%TO.N,unconnected-(J1-PadB8)*%
X145945000Y-100050000D03*
%TO.P,J1,B9,VBUS*%
%TO.N,Net-(C2-Pad2)*%
X145945000Y-99550000D03*
%TO.P,J1,B10*%
%TO.N,N/C*%
X145945000Y-99050000D03*
%TO.P,J1,B11*%
X145945000Y-98550000D03*
%TO.P,J1,B12,GND*%
%TO.N,GND*%
X145945000Y-98050000D03*
D16*
%TO.P,J1,SH*%
%TO.N,N/C*%
X146150000Y-104899999D03*
X146150000Y-96700000D03*
X149090000Y-96700000D03*
X149090000Y-104899999D03*
%TD*%
D17*
%TO.P,J2,1,Pin_1*%
%TO.N,+3V3*%
X148900000Y-92760000D03*
D18*
%TO.P,J2,2,Pin_2*%
%TO.N,GND*%
X148900000Y-91490000D03*
%TO.P,J2,3,Pin_3*%
%TO.N,/nRST*%
X148900000Y-90220000D03*
%TO.P,J2,4,Pin_4*%
%TO.N,/GPIO0*%
X148900000Y-88950000D03*
%TO.P,J2,5,Pin_5*%
%TO.N,/TXD*%
X148900000Y-87680000D03*
%TO.P,J2,6,Pin_6*%
%TO.N,/RXD*%
X148900000Y-86410000D03*
%TD*%
D19*
%TO.P,D2,1,K*%
%TO.N,Net-(D3-Pad1)*%
X146250000Y-113885000D03*
%TO.P,D2,2,A*%
%TO.N,Net-(D3-Pad2)*%
X146250000Y-112915000D03*
%TD*%
D10*
%TO.P,C6,1*%
%TO.N,+BATT*%
X142000000Y-92060000D03*
%TO.P,C6,2*%
%TO.N,GND*%
X142000000Y-91100000D03*
%TD*%
%TO.P,C2,1*%
%TO.N,Net-(C8-Pad1)*%
X137700000Y-102380000D03*
%TO.P,C2,2*%
%TO.N,GND*%
X137700000Y-101420000D03*
%TD*%
D19*
%TO.P,D3,1,K*%
%TO.N,Net-(D1-Pad1)*%
X144875000Y-113885000D03*
%TO.P,D3,2,A*%
%TO.N,Net-(D1-Pad2)*%
X144875000Y-112915000D03*
%TD*%
D10*
%TO.P,C5,1*%
%TO.N,GND*%
X142200000Y-102380000D03*
%TO.P,C5,2*%
%TO.N,Net-(C2-Pad2)*%
X142200000Y-101420000D03*
%TD*%
D11*
%TO.P,R4,1*%
%TO.N,/GPIO0*%
X122900000Y-89110000D03*
%TO.P,R4,2*%
%TO.N,Net-(R15-Pad2)*%
X122900000Y-88090000D03*
%TD*%
%TO.P,R9,1*%
%TO.N,Net-(D1-Pad2)*%
X137700000Y-92090000D03*
%TO.P,R9,2*%
%TO.N,Net-(C2-Pad2)*%
X137700000Y-91070000D03*
%TD*%
%TO.P,R10,1*%
%TO.N,+3V3*%
X122730000Y-111110000D03*
%TO.P,R10,2*%
%TO.N,Net-(D2-Pad2)*%
X122730000Y-110090000D03*
%TD*%
%TO.P,R2,1*%
%TO.N,/GPIO0*%
X125400000Y-89110000D03*
%TO.P,R2,2*%
%TO.N,+3V3*%
X125400000Y-88090000D03*
%TD*%
D20*
%TO.P,C3,1*%
%TO.N,+3V3*%
X131200000Y-110600000D03*
%TO.P,C3,2*%
%TO.N,GND*%
X128200000Y-110600000D03*
%TD*%
D11*
%TO.P,R5,1*%
%TO.N,Net-(R3-Pad1)*%
X138830000Y-102410000D03*
%TO.P,R5,2*%
%TO.N,GND*%
X138830000Y-101390000D03*
%TD*%
D21*
%TO.P,SW3,*%
%TO.N,*%
X142950000Y-112530000D03*
X142950000Y-110320000D03*
X135650000Y-112530000D03*
X135650000Y-110320000D03*
D22*
%TO.P,SW3,1,A*%
%TO.N,+BATT*%
X137050000Y-109670000D03*
%TO.P,SW3,2,B*%
%TO.N,Net-(C7-Pad1)*%
X140050000Y-109670000D03*
%TO.P,SW3,3,C*%
%TO.N,unconnected-(SW1-Pad3)*%
X141550000Y-109670000D03*
%TD*%
D14*
%TO.P,R12,1*%
%TO.N,/EN*%
X121715000Y-110090000D03*
%TO.P,R12,2*%
%TO.N,+3V3*%
X121715000Y-111110000D03*
%TD*%
D23*
%TO.P,J3,1,Pin_1*%
%TO.N,+BATT*%
X148650000Y-111900000D03*
D24*
%TO.P,J3,2,Pin_2*%
%TO.N,GND*%
X148650000Y-109360000D03*
%TD*%
D25*
%TO.P,SW1,1,1*%
%TO.N,Net-(R15-Pad2)*%
X114975000Y-87300000D03*
%TO.P,SW1,2,2*%
%TO.N,GND*%
X110825000Y-87300000D03*
%TD*%
D26*
%TO.P,U1,1,~{RST}*%
%TO.N,/nRST*%
X117650000Y-107300000D03*
%TO.P,U1,2,ADC*%
%TO.N,/ADC*%
X119650000Y-107300000D03*
%TO.P,U1,3,EN*%
%TO.N,/EN*%
X121650000Y-107300000D03*
%TO.P,U1,4,GPIO16*%
%TO.N,/GPIO16*%
X123650000Y-107300000D03*
%TO.P,U1,5,GPIO14*%
%TO.N,/GPIO14*%
X125650000Y-107300000D03*
%TO.P,U1,6,GPIO12*%
%TO.N,/GPIO12*%
X127650000Y-107300000D03*
%TO.P,U1,7,GPIO13*%
%TO.N,/GPIO13*%
X129650000Y-107300000D03*
%TO.P,U1,8,VCC*%
%TO.N,+3V3*%
X131650000Y-107300000D03*
D27*
%TO.P,U1,9,CS0*%
%TO.N,unconnected-(U4-Pad9)*%
X133150000Y-104700000D03*
%TO.P,U1,10,MISO*%
%TO.N,unconnected-(U4-Pad10)*%
X133150000Y-102700000D03*
%TO.P,U1,11,GPIO9*%
%TO.N,unconnected-(U4-Pad11)*%
X133150000Y-100700000D03*
%TO.P,U1,12,GPIO10*%
%TO.N,unconnected-(U4-Pad12)*%
X133150000Y-98700000D03*
%TO.P,U1,13,MOSI*%
%TO.N,unconnected-(U4-Pad13)*%
X133150000Y-96700000D03*
%TO.P,U1,14,SCLK*%
%TO.N,unconnected-(U4-Pad14)*%
X133150000Y-94700000D03*
D26*
%TO.P,U1,15,GND*%
%TO.N,GND*%
X131650000Y-92100000D03*
%TO.P,U1,16,GPIO15*%
%TO.N,/GPIO15*%
X129650000Y-92100000D03*
%TO.P,U1,17,GPIO2*%
%TO.N,/GPIO2*%
X127650000Y-92100000D03*
%TO.P,U1,18,GPIO0*%
%TO.N,/GPIO0*%
X125650000Y-92100000D03*
%TO.P,U1,19,GPIO4*%
%TO.N,/GPIO4*%
X123650000Y-92100000D03*
%TO.P,U1,20,GPIO5*%
%TO.N,/GPIO5*%
X121650000Y-92100000D03*
%TO.P,U1,21,GPIO3/RXD*%
%TO.N,/RXD*%
X119650000Y-92100000D03*
%TO.P,U1,22,GPIO1/TXD*%
%TO.N,/TXD*%
X117650000Y-92100000D03*
%TD*%
D11*
%TO.P,R3,1*%
%TO.N,/GPIO2*%
X127900000Y-89110000D03*
%TO.P,R3,2*%
%TO.N,+3V3*%
X127900000Y-88090000D03*
%TD*%
D14*
%TO.P,R13,1*%
%TO.N,/ADC*%
X120700000Y-110090000D03*
%TO.P,R13,2*%
%TO.N,+BATT*%
X120700000Y-111110000D03*
%TD*%
D25*
%TO.P,SW2,1,1*%
%TO.N,Net-(R13-Pad2)*%
X114975000Y-112200000D03*
%TO.P,SW2,2,2*%
%TO.N,GND*%
X110825000Y-112200000D03*
%TD*%
D11*
%TO.P,R1,1*%
%TO.N,/GPIO15*%
X130400000Y-89110000D03*
%TO.P,R1,2*%
%TO.N,GND*%
X130400000Y-88090000D03*
%TD*%
D28*
%TO.P,U3,1,IN*%
%TO.N,+BATT*%
X141237500Y-106150000D03*
%TO.P,U3,2,GND*%
%TO.N,GND*%
X141237500Y-105200000D03*
%TO.P,U3,3,EN*%
%TO.N,Net-(C7-Pad1)*%
X141237500Y-104250000D03*
%TO.P,U3,4,BP*%
%TO.N,Net-(C8-Pad1)*%
X138962500Y-104250000D03*
%TO.P,U3,5,OUT*%
%TO.N,+3V3*%
X138962500Y-106150000D03*
%TD*%
D10*
%TO.P,C4,1*%
%TO.N,Net-(C7-Pad1)*%
X139960000Y-102380000D03*
%TO.P,C4,2*%
%TO.N,GND*%
X139960000Y-101420000D03*
%TD*%
D14*
%TO.P,R6,1*%
%TO.N,/GPIO16*%
X124760000Y-110090000D03*
%TO.P,R6,2*%
%TO.N,Net-(R13-Pad2)*%
X124760000Y-111110000D03*
%TD*%
D29*
%TO.P,D1,1,K*%
%TO.N,/GPIO16*%
X123745000Y-110115000D03*
%TO.P,D1,2,A*%
%TO.N,Net-(D2-Pad2)*%
X123745000Y-111085000D03*
%TD*%
D10*
%TO.P,C1,1*%
%TO.N,GND*%
X118680000Y-111100000D03*
%TO.P,C1,2*%
%TO.N,/nRST*%
X118680000Y-110140000D03*
%TD*%
D11*
%TO.P,R8,1*%
%TO.N,GND*%
X119685000Y-111110000D03*
%TO.P,R8,2*%
%TO.N,/ADC*%
X119685000Y-110090000D03*
%TD*%
D14*
%TO.P,R11,1*%
%TO.N,/nRST*%
X116660000Y-110090000D03*
%TO.P,R11,2*%
%TO.N,Net-(R13-Pad2)*%
X116660000Y-111110000D03*
%TD*%
D30*
%TO.N,+3V3*%
X137500000Y-106100000D03*
X126610000Y-88090000D03*
X117650000Y-111950000D03*
X122200000Y-112100000D03*
X142300000Y-103350000D03*
X128124463Y-104964780D03*
%TO.N,GND*%
X131783792Y-97379311D03*
X133050000Y-92100000D03*
X135200000Y-87725000D03*
X133650000Y-87725000D03*
X127225000Y-112975000D03*
X144300000Y-103550000D03*
X140100000Y-100700000D03*
X119200000Y-111950000D03*
X137200000Y-98800000D03*
X147700000Y-98050000D03*
X143000000Y-91250000D03*
X125900000Y-112875000D03*
X128775000Y-113000000D03*
X126625000Y-105475000D03*
X132025000Y-87750000D03*
%TO.N,/nRST*%
X127750000Y-99350000D03*
X146750000Y-89950000D03*
%TO.N,/GPIO0*%
X125950000Y-90150000D03*
X131250000Y-90150000D03*
X127881079Y-101904136D03*
%TO.N,/GPIO14*%
X127925000Y-100950000D03*
%TO.N,/GPIO13*%
X127742808Y-102792948D03*
%TO.N,Net-(R15-Pad2)*%
X116350000Y-87300000D03*
X124100000Y-87700000D03*
%TO.N,+BATT*%
X136050000Y-108200000D03*
X143100000Y-106300000D03*
X120400000Y-112050000D03*
X143100000Y-92300000D03*
%TO.N,Net-(D1-Pad1)*%
X143375000Y-113850000D03*
X138600000Y-93100000D03*
%TO.N,Net-(D1-Pad2)*%
X143975000Y-112625000D03*
X140000000Y-93000000D03*
%TO.N,Net-(D3-Pad1)*%
X140900000Y-93000000D03*
X144800000Y-111700000D03*
%TO.N,Net-(D3-Pad2)*%
X141000000Y-91900000D03*
X145000000Y-110800000D03*
%TO.N,Net-(C7-Pad1)*%
X139000000Y-108700000D03*
X140100000Y-103400000D03*
%TD*%
D31*
%TO.N,+3V3*%
X117675000Y-111925000D02*
X117650000Y-111950000D01*
X131200000Y-109450000D02*
X131700000Y-108950000D01*
X131650000Y-107300000D02*
X132850000Y-106100000D01*
X132850000Y-106100000D02*
X137500000Y-106100000D01*
X122190000Y-111110000D02*
X122730000Y-111110000D01*
X117675000Y-111110000D02*
X117675000Y-111925000D01*
X122190000Y-111110000D02*
X122200000Y-111120000D01*
X131200000Y-110600000D02*
X131200000Y-109450000D01*
X125400000Y-88090000D02*
X126610000Y-88090000D01*
X138962500Y-106150000D02*
X137550000Y-106150000D01*
X137550000Y-106150000D02*
X137500000Y-106100000D01*
X131700000Y-108950000D02*
X131700000Y-107350000D01*
X142050000Y-103350000D02*
X142300000Y-103350000D01*
X131700000Y-107350000D02*
X131650000Y-107300000D01*
X122200000Y-111120000D02*
X122200000Y-112100000D01*
X121715000Y-111110000D02*
X122190000Y-111110000D01*
X141080000Y-102380000D02*
X142050000Y-103350000D01*
X126610000Y-88090000D02*
X127900000Y-88090000D01*
%TO.N,GND*%
X141900000Y-105200000D02*
X143550000Y-103550000D01*
X138195000Y-100795000D02*
X138195000Y-99700000D01*
X138100000Y-99700000D02*
X137200000Y-98800000D01*
X140735000Y-99700000D02*
X140735000Y-100065000D01*
X139960000Y-101420000D02*
X141080000Y-101420000D01*
X142000000Y-91100000D02*
X142850000Y-91100000D01*
X141237500Y-105200000D02*
X141900000Y-105200000D01*
X119190000Y-111110000D02*
X119190000Y-111940000D01*
X144300000Y-103550000D02*
X145945000Y-103550000D01*
X138830000Y-101390000D02*
X137730000Y-101390000D01*
X145945000Y-103550000D02*
X149445000Y-103550000D01*
X147700000Y-98050000D02*
X149445000Y-98050000D01*
X141100000Y-101400000D02*
X141080000Y-101420000D01*
X143550000Y-103550000D02*
X144300000Y-103550000D01*
X119685000Y-111110000D02*
X119190000Y-111110000D01*
X137700000Y-101420000D02*
X137700000Y-101300000D01*
X119190000Y-111110000D02*
X118690000Y-111110000D01*
X138195000Y-99700000D02*
X138100000Y-99700000D01*
X138200000Y-100800000D02*
X138195000Y-100795000D01*
X118690000Y-111110000D02*
X118680000Y-111100000D01*
X142850000Y-91100000D02*
X143000000Y-91250000D01*
X140735000Y-100535000D02*
X141100000Y-100900000D01*
X140735000Y-100065000D02*
X140100000Y-100700000D01*
X141100000Y-100900000D02*
X141100000Y-101400000D01*
X140735000Y-99700000D02*
X140735000Y-100535000D01*
X145945000Y-98050000D02*
X147700000Y-98050000D01*
X137700000Y-101300000D02*
X138200000Y-100800000D01*
X131650000Y-92100000D02*
X133050000Y-92100000D01*
X142380000Y-102380000D02*
X143550000Y-103550000D01*
X119190000Y-111940000D02*
X119200000Y-111950000D01*
X137730000Y-101390000D02*
X137700000Y-101420000D01*
D32*
%TO.N,Net-(C8-Pad1)*%
X137700000Y-102987500D02*
X137700000Y-102380000D01*
X138962500Y-104250000D02*
X137700000Y-102987500D01*
%TO.N,/nRST*%
X117650000Y-110065000D02*
X117650000Y-107300000D01*
X117650000Y-107300000D02*
X117650000Y-106550000D01*
X118680000Y-110140000D02*
X117725000Y-110140000D01*
X124850000Y-99350000D02*
X127750000Y-99350000D01*
X146750000Y-89950000D02*
X147020000Y-90220000D01*
X147020000Y-90220000D02*
X148900000Y-90220000D01*
X117725000Y-110140000D02*
X117675000Y-110090000D01*
X117675000Y-110090000D02*
X117650000Y-110065000D01*
X117675000Y-110090000D02*
X116660000Y-110090000D01*
X117650000Y-106550000D02*
X124850000Y-99350000D01*
%TO.N,/GPIO16*%
X124735000Y-110115000D02*
X124760000Y-110090000D01*
X123745000Y-110115000D02*
X123650000Y-110020000D01*
X123745000Y-110115000D02*
X124735000Y-110115000D01*
X123650000Y-110020000D02*
X123650000Y-107300000D01*
%TO.N,/GPIO0*%
X130700000Y-90700000D02*
X130700000Y-99085215D01*
X132450000Y-88950000D02*
X131250000Y-90150000D01*
X125650000Y-90250000D02*
X125650000Y-92100000D01*
X125650000Y-90450000D02*
X125650000Y-92100000D01*
X125400000Y-89110000D02*
X125400000Y-90000000D01*
X130700000Y-99085215D02*
X127881079Y-101904136D01*
X122900000Y-89110000D02*
X125400000Y-89110000D01*
X125950000Y-90150000D02*
X125650000Y-90450000D01*
X148900000Y-88950000D02*
X132450000Y-88950000D01*
X125400000Y-90000000D02*
X125650000Y-90250000D01*
X131250000Y-90150000D02*
X130700000Y-90700000D01*
%TO.N,/GPIO2*%
X127900000Y-89900000D02*
X127650000Y-90150000D01*
X127900000Y-89110000D02*
X127900000Y-89900000D01*
X127650000Y-90150000D02*
X127650000Y-92100000D01*
%TO.N,/EN*%
X121650000Y-107300000D02*
X121650000Y-109400000D01*
X121650000Y-109400000D02*
X121715000Y-109465000D01*
X121715000Y-109465000D02*
X121715000Y-110090000D01*
%TO.N,/GPIO15*%
X130400000Y-89600000D02*
X129650000Y-90350000D01*
X130400000Y-89110000D02*
X130400000Y-89600000D01*
X129650000Y-90350000D02*
X129650000Y-92100000D01*
%TO.N,/ADC*%
X119650000Y-110055000D02*
X119650000Y-107300000D01*
X119685000Y-110090000D02*
X120700000Y-110090000D01*
X119685000Y-110090000D02*
X119650000Y-110055000D01*
%TO.N,/GPIO14*%
X125650000Y-107300000D02*
X125650000Y-103225000D01*
X125650000Y-103225000D02*
X127925000Y-100950000D01*
%TO.N,/GPIO13*%
X129650000Y-107300000D02*
X129650000Y-104700140D01*
X129650000Y-104700140D02*
X127742808Y-102792948D01*
%TO.N,/RXD*%
X137150000Y-87100000D02*
X137150000Y-86700000D01*
X139200000Y-86400000D02*
X139605906Y-86400000D01*
X119650000Y-90374550D02*
X123624550Y-86400000D01*
X119650000Y-92100000D02*
X119650000Y-90374550D01*
X138350000Y-86400000D02*
X138350000Y-86150000D01*
X137150000Y-86700000D02*
X137150000Y-86150000D01*
X137400000Y-85900000D02*
X137500000Y-85900000D01*
X137750000Y-86150000D02*
X137750000Y-86400000D01*
X138600000Y-85900000D02*
X138700000Y-85900000D01*
X138350000Y-87100000D02*
X138350000Y-86400000D01*
X139605906Y-86400000D02*
X148890000Y-86400000D01*
X148890000Y-86400000D02*
X148900000Y-86410000D01*
X137750000Y-86400000D02*
X137750000Y-87100000D01*
X123624550Y-86400000D02*
X136250000Y-86400000D01*
X136550000Y-86700000D02*
X136550000Y-87100000D01*
X137150000Y-87100000D02*
G75*
G02*
X136850000Y-87400000I-300000J0D01*
G01*
X138950000Y-86150000D02*
G75*
G03*
X138700000Y-85900000I-249999J1D01*
G01*
X136550000Y-86700000D02*
G75*
G03*
X136250000Y-86400000I-300000J0D01*
G01*
X137400000Y-85900000D02*
G75*
G03*
X137150000Y-86150000I-1J-249999D01*
G01*
X136850000Y-87400000D02*
G75*
G02*
X136550000Y-87100000I0J300000D01*
G01*
X137750000Y-86150000D02*
G75*
G03*
X137500000Y-85900000I-249999J1D01*
G01*
X138600000Y-85900000D02*
G75*
G03*
X138350000Y-86150000I-1J-249999D01*
G01*
X138350000Y-87100000D02*
G75*
G02*
X138050000Y-87400000I-300000J0D01*
G01*
X139200000Y-86400000D02*
G75*
G02*
X138950000Y-86150000I-1J249999D01*
G01*
X138050000Y-87400000D02*
G75*
G02*
X137750000Y-87100000I0J300000D01*
G01*
%TO.N,/TXD*%
X149599511Y-86980489D02*
X149599511Y-86120252D01*
X123399510Y-85600490D02*
X117650000Y-91350000D01*
X148900000Y-87680000D02*
X149599511Y-86980489D01*
X117650000Y-91350000D02*
X117650000Y-92100000D01*
X149599511Y-86120252D02*
X149079749Y-85600490D01*
X149079749Y-85600490D02*
X123399510Y-85600490D01*
%TO.N,Net-(R13-Pad2)*%
X116600000Y-112100000D02*
X117350000Y-112850000D01*
X123650000Y-112850000D02*
X124760000Y-111740000D01*
X116600000Y-111170000D02*
X116600000Y-112100000D01*
X114975000Y-112200000D02*
X115570000Y-112200000D01*
X117350000Y-112850000D02*
X123650000Y-112850000D01*
X124760000Y-111740000D02*
X124760000Y-111110000D01*
X116660000Y-111110000D02*
X116600000Y-111170000D01*
X115570000Y-112200000D02*
X116660000Y-111110000D01*
%TO.N,Net-(R15-Pad2)*%
X114975000Y-87300000D02*
X116350000Y-87300000D01*
X124100000Y-87700000D02*
X123290000Y-87700000D01*
X123290000Y-87700000D02*
X122900000Y-88090000D01*
D33*
%TO.N,+BATT*%
X142000000Y-94495000D02*
X142005000Y-94500000D01*
X143100000Y-92300000D02*
X142240000Y-92300000D01*
X136050000Y-108200000D02*
X136100000Y-108250000D01*
X146000000Y-107800000D02*
X146800000Y-108600000D01*
X142240000Y-92300000D02*
X142000000Y-92060000D01*
X120700000Y-111750000D02*
X120400000Y-112050000D01*
X143100000Y-106300000D02*
X143100000Y-107700000D01*
X143100000Y-107700000D02*
X143200000Y-107800000D01*
X146800000Y-110050000D02*
X148650000Y-111900000D01*
X120700000Y-111110000D02*
X120700000Y-111750000D01*
X143200000Y-107800000D02*
X146000000Y-107800000D01*
X141200000Y-107800000D02*
X141237500Y-107762500D01*
X137050000Y-109670000D02*
X137050000Y-108250000D01*
X137050000Y-108250000D02*
X137500000Y-107800000D01*
X142000000Y-92060000D02*
X142000000Y-94495000D01*
X146800000Y-108600000D02*
X146800000Y-110050000D01*
X141237500Y-107762500D02*
X141237500Y-106150000D01*
X136100000Y-108250000D02*
X137050000Y-108250000D01*
X141200000Y-107800000D02*
X143200000Y-107800000D01*
X137500000Y-107800000D02*
X141200000Y-107800000D01*
D32*
%TO.N,Net-(D1-Pad1)*%
X139465000Y-93965000D02*
X139465000Y-94500000D01*
X138600000Y-93100000D02*
X139465000Y-93965000D01*
X144875000Y-113885000D02*
X143410000Y-113885000D01*
X143410000Y-113885000D02*
X143375000Y-113850000D01*
%TO.N,Net-(D1-Pad2)*%
X139035480Y-92090000D02*
X139945480Y-93000000D01*
X137700000Y-92090000D02*
X139035480Y-92090000D01*
X144265000Y-112915000D02*
X143975000Y-112625000D01*
X139945480Y-93000000D02*
X140000000Y-93000000D01*
X144875000Y-112915000D02*
X144265000Y-112915000D01*
%TO.N,Net-(D3-Pad1)*%
X145719521Y-113354521D02*
X145719521Y-112019521D01*
X140735000Y-94500000D02*
X140735000Y-93165000D01*
X145400000Y-111700000D02*
X144800000Y-111700000D01*
X140735000Y-93165000D02*
X140900000Y-93000000D01*
X145719521Y-112019521D02*
X145400000Y-111700000D01*
X146250000Y-113885000D02*
X145719521Y-113354521D01*
%TO.N,Net-(D3-Pad2)*%
X146250000Y-112915000D02*
X146100000Y-112765000D01*
X139855000Y-92090000D02*
X140810000Y-92090000D01*
X146100000Y-112765000D02*
X146100000Y-111900000D01*
X146100000Y-111900000D02*
X145000000Y-110800000D01*
X140810000Y-92090000D02*
X141000000Y-91900000D01*
%TO.N,Net-(R3-Pad1)*%
X139349520Y-101890480D02*
X139349520Y-99815480D01*
X139349520Y-99815480D02*
X139465000Y-99700000D01*
X138830000Y-102410000D02*
X139349520Y-101890480D01*
D31*
%TO.N,Net-(C2-Pad2)*%
X142005000Y-99100000D02*
X143900000Y-97205000D01*
X137700000Y-91070000D02*
X137080480Y-91689520D01*
D32*
X148350000Y-99550000D02*
X149445000Y-99550000D01*
D31*
X137700000Y-91070000D02*
X139855000Y-91070000D01*
X143900000Y-90400000D02*
X140525000Y-90400000D01*
X142830000Y-102050000D02*
X145945000Y-102050000D01*
D32*
X147250000Y-102050000D02*
X148350000Y-102050000D01*
X148350000Y-99550000D02*
X148350000Y-102050000D01*
D31*
X143900000Y-97205000D02*
X143900000Y-90400000D01*
D32*
X148350000Y-102050000D02*
X149445000Y-102050000D01*
D31*
X142155000Y-99550000D02*
X145945000Y-99550000D01*
X142005000Y-99700000D02*
X142155000Y-99550000D01*
D32*
X145945000Y-99550000D02*
X147250000Y-99550000D01*
D31*
X142005000Y-99700000D02*
X142005000Y-101225000D01*
D32*
X147250000Y-99550000D02*
X148350000Y-99550000D01*
D31*
X140525000Y-90400000D02*
X139855000Y-91070000D01*
D32*
X145945000Y-102050000D02*
X147250000Y-102050000D01*
X147250000Y-99550000D02*
X147250000Y-102050000D01*
D31*
X142200000Y-101420000D02*
X142830000Y-102050000D01*
X142005000Y-99700000D02*
X142005000Y-99100000D01*
X137080480Y-91689520D02*
X137080480Y-93385480D01*
X137080480Y-93385480D02*
X138195000Y-94500000D01*
D32*
%TO.N,Net-(C7-Pad1)*%
X140050000Y-109670000D02*
X139970000Y-109670000D01*
X140100000Y-103400000D02*
X140387500Y-103400000D01*
X139970000Y-109670000D02*
X139000000Y-108700000D01*
X140100000Y-102520000D02*
X139960000Y-102380000D01*
X140387500Y-103400000D02*
X141237500Y-104250000D01*
X140100000Y-103400000D02*
X140100000Y-102520000D01*
%TD*%
%TA.AperFunction,Conductor*%
%TO.N,GND*%
G36*
X140155179Y-89578502D02*
G01*
X140201672Y-89632158D01*
X140211776Y-89702432D01*
X140182282Y-89767012D01*
X140160998Y-89784774D01*
X140161696Y-89785684D01*
X140153259Y-89792158D01*
X140110998Y-89824587D01*
X140105668Y-89828459D01*
X140059280Y-89860339D01*
X140059275Y-89860344D01*
X140053019Y-89864643D01*
X140047968Y-89870313D01*
X140047966Y-89870314D01*
X140011565Y-89911170D01*
X140006584Y-89916446D01*
X139666664Y-90256366D01*
X139604352Y-90290392D01*
X139587452Y-90292883D01*
X139568534Y-90294371D01*
X139504895Y-90312860D01*
X139420017Y-90337519D01*
X139420015Y-90337520D01*
X139412404Y-90339731D01*
X139405577Y-90343769D01*
X139405576Y-90343769D01*
X139405264Y-90343953D01*
X139404953Y-90344038D01*
X139398305Y-90346915D01*
X139397896Y-90345969D01*
X139341125Y-90361500D01*
X138213875Y-90361500D01*
X138157104Y-90345969D01*
X138156695Y-90346915D01*
X138150047Y-90344038D01*
X138149736Y-90343953D01*
X138149424Y-90343769D01*
X138149423Y-90343769D01*
X138142596Y-90339731D01*
X138134985Y-90337520D01*
X138134983Y-90337519D01*
X137992644Y-90296166D01*
X137992645Y-90296166D01*
X137986466Y-90294371D01*
X137980059Y-90293867D01*
X137980055Y-90293866D01*
X137952444Y-90291693D01*
X137952438Y-90291693D01*
X137949989Y-90291500D01*
X137700152Y-90291500D01*
X137450012Y-90291501D01*
X137413534Y-90294371D01*
X137349895Y-90312860D01*
X137265017Y-90337519D01*
X137265015Y-90337520D01*
X137257404Y-90339731D01*
X137250582Y-90343766D01*
X137250581Y-90343766D01*
X137124280Y-90418460D01*
X137117459Y-90422494D01*
X137002494Y-90537459D01*
X136998460Y-90544280D01*
X136951341Y-90623955D01*
X136919731Y-90677404D01*
X136917520Y-90685015D01*
X136917519Y-90685017D01*
X136903754Y-90732396D01*
X136874371Y-90833534D01*
X136873867Y-90839943D01*
X136873866Y-90839946D01*
X136872882Y-90852453D01*
X136847597Y-90918795D01*
X136836366Y-90931663D01*
X136599945Y-91168085D01*
X136593678Y-91173939D01*
X136555820Y-91206964D01*
X136555817Y-91206967D01*
X136550095Y-91211959D01*
X136545728Y-91218173D01*
X136513352Y-91264239D01*
X136509419Y-91269534D01*
X136470004Y-91319802D01*
X136466881Y-91326718D01*
X136465497Y-91329004D01*
X136457123Y-91343685D01*
X136455858Y-91346045D01*
X136451490Y-91352259D01*
X136448730Y-91359338D01*
X136448729Y-91359340D01*
X136428278Y-91411795D01*
X136425727Y-91417864D01*
X136399435Y-91476093D01*
X136398051Y-91483560D01*
X136397250Y-91486115D01*
X136392621Y-91502368D01*
X136391958Y-91504948D01*
X136389198Y-91512029D01*
X136388207Y-91519560D01*
X136388206Y-91519562D01*
X136380859Y-91575372D01*
X136379828Y-91581879D01*
X136368184Y-91644706D01*
X136368621Y-91652286D01*
X136368621Y-91652287D01*
X136371771Y-91706912D01*
X136371980Y-91714166D01*
X136371980Y-93356568D01*
X136371688Y-93365138D01*
X136369439Y-93398134D01*
X136367755Y-93422832D01*
X136369060Y-93430309D01*
X136369060Y-93430310D01*
X136378741Y-93485779D01*
X136379703Y-93492301D01*
X136387378Y-93555722D01*
X136390061Y-93562823D01*
X136390702Y-93565432D01*
X136395165Y-93581742D01*
X136395930Y-93584278D01*
X136397237Y-93591764D01*
X136402561Y-93603891D01*
X136422922Y-93650275D01*
X136425415Y-93656384D01*
X136444194Y-93706081D01*
X136447993Y-93716136D01*
X136452297Y-93722399D01*
X136453534Y-93724765D01*
X136461779Y-93739577D01*
X136463112Y-93741831D01*
X136466165Y-93748785D01*
X136501804Y-93795229D01*
X136505059Y-93799471D01*
X136508939Y-93804812D01*
X136540819Y-93851200D01*
X136540824Y-93851205D01*
X136545123Y-93857461D01*
X136550793Y-93862512D01*
X136550794Y-93862514D01*
X136591641Y-93898907D01*
X136596918Y-93903888D01*
X137349596Y-94656567D01*
X137383621Y-94718879D01*
X137386500Y-94745662D01*
X137386500Y-95045610D01*
X137401603Y-95180255D01*
X137403920Y-95186908D01*
X137403920Y-95186909D01*
X137456462Y-95337787D01*
X137461255Y-95351552D01*
X137557374Y-95505376D01*
X137562341Y-95510378D01*
X137564795Y-95513474D01*
X137591432Y-95579284D01*
X137591863Y-95598522D01*
X137591500Y-95601866D01*
X137591500Y-98598134D01*
X137591869Y-98601532D01*
X137591910Y-98602287D01*
X137575621Y-98671389D01*
X137563735Y-98688739D01*
X137561067Y-98692010D01*
X137470503Y-98832537D01*
X137464274Y-98845086D01*
X137407096Y-99002180D01*
X137403803Y-99015795D01*
X137387497Y-99144869D01*
X137387000Y-99152759D01*
X137387000Y-99427885D01*
X137391475Y-99443124D01*
X137392865Y-99444329D01*
X137400548Y-99446000D01*
X138323000Y-99446000D01*
X138391121Y-99466002D01*
X138437614Y-99519658D01*
X138449000Y-99572000D01*
X138449000Y-99828000D01*
X138428998Y-99896121D01*
X138375342Y-99942614D01*
X138323000Y-99954000D01*
X137405115Y-99954000D01*
X137389876Y-99958475D01*
X137388671Y-99959865D01*
X137387000Y-99967548D01*
X137387000Y-100242060D01*
X137387393Y-100249084D01*
X137401308Y-100373145D01*
X137404410Y-100386798D01*
X137441353Y-100492884D01*
X137444867Y-100563794D01*
X137409485Y-100625346D01*
X137357516Y-100655318D01*
X137278214Y-100678358D01*
X137263780Y-100684604D01*
X137136501Y-100759876D01*
X137124074Y-100769516D01*
X137019516Y-100874074D01*
X137009876Y-100886501D01*
X136934604Y-101013780D01*
X136928357Y-101028216D01*
X136893381Y-101148605D01*
X136893421Y-101162705D01*
X136900691Y-101166000D01*
X137943885Y-101166000D01*
X137981929Y-101154829D01*
X138003284Y-101141105D01*
X138038784Y-101136000D01*
X138615020Y-101136000D01*
X138683141Y-101156002D01*
X138729634Y-101209658D01*
X138741020Y-101262000D01*
X138741020Y-101505501D01*
X138721018Y-101573622D01*
X138667362Y-101620115D01*
X138615020Y-101631501D01*
X138580012Y-101631501D01*
X138543534Y-101634371D01*
X138487622Y-101650615D01*
X138424350Y-101668997D01*
X138389197Y-101674000D01*
X138221379Y-101674000D01*
X138157240Y-101656454D01*
X138136420Y-101644141D01*
X138136419Y-101644141D01*
X138129597Y-101640106D01*
X138121986Y-101637895D01*
X138121984Y-101637894D01*
X138060787Y-101620115D01*
X137972254Y-101594394D01*
X137965849Y-101593890D01*
X137965844Y-101593889D01*
X137937940Y-101591693D01*
X137937932Y-101591693D01*
X137935484Y-101591500D01*
X137464516Y-101591500D01*
X137462068Y-101591693D01*
X137462060Y-101591693D01*
X137434156Y-101593889D01*
X137434151Y-101593890D01*
X137427746Y-101594394D01*
X137339213Y-101620115D01*
X137278016Y-101637894D01*
X137278014Y-101637895D01*
X137270403Y-101640106D01*
X137263581Y-101644141D01*
X137263580Y-101644141D01*
X137242760Y-101656454D01*
X137178621Y-101674000D01*
X136906442Y-101674000D01*
X136892911Y-101677973D01*
X136891776Y-101685871D01*
X136928357Y-101811784D01*
X136934605Y-101826222D01*
X136940016Y-101835372D01*
X136957474Y-101904188D01*
X136940015Y-101963647D01*
X136930106Y-101980403D01*
X136884394Y-102137746D01*
X136883890Y-102144151D01*
X136883889Y-102144156D01*
X136881693Y-102172060D01*
X136881500Y-102174516D01*
X136881500Y-102585484D01*
X136881693Y-102587932D01*
X136881693Y-102587940D01*
X136883397Y-102609583D01*
X136884394Y-102622254D01*
X136908529Y-102705329D01*
X136927769Y-102771552D01*
X136930106Y-102779597D01*
X136934141Y-102786419D01*
X136934141Y-102786420D01*
X136990737Y-102882118D01*
X137013512Y-102920629D01*
X137056894Y-102964011D01*
X137090920Y-103026323D01*
X137092721Y-103036658D01*
X137101037Y-103099824D01*
X137107162Y-103146351D01*
X137168476Y-103294376D01*
X137173503Y-103300927D01*
X137173504Y-103300929D01*
X137241520Y-103389569D01*
X137241526Y-103389575D01*
X137266013Y-103421487D01*
X137272568Y-103426517D01*
X137291379Y-103440952D01*
X137303770Y-103451819D01*
X137757280Y-103905329D01*
X137791306Y-103967641D01*
X137793797Y-104004309D01*
X137791693Y-104031039D01*
X137791692Y-104031053D01*
X137791500Y-104033498D01*
X137791500Y-104466502D01*
X137794438Y-104503831D01*
X137840855Y-104663601D01*
X137844892Y-104670427D01*
X137921509Y-104799980D01*
X137921511Y-104799983D01*
X137925547Y-104806807D01*
X138043193Y-104924453D01*
X138050017Y-104928489D01*
X138050020Y-104928491D01*
X138100281Y-104958215D01*
X138186399Y-105009145D01*
X138194010Y-105011356D01*
X138194012Y-105011357D01*
X138246231Y-105026528D01*
X138346169Y-105055562D01*
X138352574Y-105056066D01*
X138352579Y-105056067D01*
X138381042Y-105058307D01*
X138381050Y-105058307D01*
X138383498Y-105058500D01*
X139541502Y-105058500D01*
X139543950Y-105058307D01*
X139543958Y-105058307D01*
X139572421Y-105056067D01*
X139572426Y-105056066D01*
X139578831Y-105055562D01*
X139678769Y-105026528D01*
X139730988Y-105011357D01*
X139730990Y-105011356D01*
X139738601Y-105009145D01*
X139881807Y-104924453D01*
X139887416Y-104918844D01*
X139892886Y-104914601D01*
X139958971Y-104888654D01*
X140028594Y-104902555D01*
X140070116Y-104940446D01*
X140082370Y-104946000D01*
X140320158Y-104946000D01*
X140384297Y-104963547D01*
X140461399Y-105009145D01*
X140469010Y-105011356D01*
X140469012Y-105011357D01*
X140521231Y-105026528D01*
X140621169Y-105055562D01*
X140627574Y-105056066D01*
X140627579Y-105056067D01*
X140656042Y-105058307D01*
X140656050Y-105058307D01*
X140658498Y-105058500D01*
X141816502Y-105058500D01*
X141818950Y-105058307D01*
X141818958Y-105058307D01*
X141847421Y-105056067D01*
X141847426Y-105056066D01*
X141853831Y-105055562D01*
X141953769Y-105026528D01*
X142005988Y-105011357D01*
X142005990Y-105011356D01*
X142013601Y-105009145D01*
X142090703Y-104963547D01*
X142154842Y-104946000D01*
X142386878Y-104946000D01*
X142400409Y-104942027D01*
X142401544Y-104934129D01*
X142360893Y-104794210D01*
X142352872Y-104775674D01*
X142344176Y-104705212D01*
X142352872Y-104675596D01*
X142355111Y-104670423D01*
X142359145Y-104663601D01*
X142405562Y-104503831D01*
X142408500Y-104466502D01*
X142408500Y-104357767D01*
X142428502Y-104289646D01*
X142482158Y-104243153D01*
X142508303Y-104234520D01*
X142582288Y-104218794D01*
X142683657Y-104173662D01*
X142750722Y-104143803D01*
X142750724Y-104143802D01*
X142756752Y-104141118D01*
X142911253Y-104028866D01*
X142933364Y-104004309D01*
X143034621Y-103891852D01*
X143034622Y-103891851D01*
X143039040Y-103886944D01*
X143134527Y-103721556D01*
X143193542Y-103539928D01*
X143194666Y-103529239D01*
X143212814Y-103356565D01*
X143213504Y-103350000D01*
X143208507Y-103302460D01*
X143194232Y-103166635D01*
X143194232Y-103166633D01*
X143193542Y-103160072D01*
X143134527Y-102978444D01*
X143116662Y-102947501D01*
X143099923Y-102878506D01*
X143123143Y-102811414D01*
X143178949Y-102767526D01*
X143225780Y-102758500D01*
X144735500Y-102758500D01*
X144803621Y-102778502D01*
X144850114Y-102832158D01*
X144861500Y-102884500D01*
X144861500Y-103233134D01*
X144861869Y-103236531D01*
X144867538Y-103288716D01*
X144867538Y-103315932D01*
X144862369Y-103363514D01*
X144862000Y-103370328D01*
X144862000Y-103396885D01*
X144866475Y-103412124D01*
X144868669Y-103414026D01*
X144929397Y-103447185D01*
X144941126Y-103460713D01*
X144958812Y-103484312D01*
X144958997Y-103484559D01*
X144983845Y-103551066D01*
X144968792Y-103620448D01*
X144918618Y-103670678D01*
X144893670Y-103681020D01*
X144864877Y-103689475D01*
X144863672Y-103690865D01*
X144862001Y-103698548D01*
X144862001Y-103729669D01*
X144862371Y-103736490D01*
X144867895Y-103787352D01*
X144871521Y-103802604D01*
X144916676Y-103923054D01*
X144925214Y-103938649D01*
X145001715Y-104040724D01*
X145014276Y-104053285D01*
X145075831Y-104099418D01*
X145118346Y-104156277D01*
X145123372Y-104227096D01*
X145117135Y-104247334D01*
X145082314Y-104333736D01*
X145041772Y-104541336D01*
X145041500Y-104546898D01*
X145041500Y-105202845D01*
X145056548Y-105360565D01*
X145116092Y-105563533D01*
X145118836Y-105568860D01*
X145118836Y-105568861D01*
X145205124Y-105736399D01*
X145212942Y-105751579D01*
X145343604Y-105917919D01*
X145348135Y-105921851D01*
X145348138Y-105921854D01*
X145440344Y-106001866D01*
X145503363Y-106056551D01*
X145508549Y-106059551D01*
X145508553Y-106059554D01*
X145622179Y-106125288D01*
X145686454Y-106162472D01*
X145886271Y-106231860D01*
X145892206Y-106232721D01*
X145892208Y-106232721D01*
X146089664Y-106261351D01*
X146089667Y-106261351D01*
X146095604Y-106262212D01*
X146306899Y-106252432D01*
X146438077Y-106220818D01*
X146506701Y-106204280D01*
X146506703Y-106204279D01*
X146512534Y-106202874D01*
X146517992Y-106200392D01*
X146517996Y-106200391D01*
X146643331Y-106143404D01*
X146705087Y-106115325D01*
X146869824Y-105998469D01*
X146872725Y-105996411D01*
X146872726Y-105996410D01*
X146877611Y-105992945D01*
X147023881Y-105840149D01*
X147138620Y-105662451D01*
X147184642Y-105548255D01*
X147215442Y-105471831D01*
X147215443Y-105471828D01*
X147217686Y-105466262D01*
X147258228Y-105258662D01*
X147258500Y-105253100D01*
X147258500Y-104597153D01*
X147243452Y-104439433D01*
X147183908Y-104236465D01*
X147179083Y-104227096D01*
X147089804Y-104053750D01*
X147089802Y-104053747D01*
X147087058Y-104048419D01*
X147022020Y-103965621D01*
X146995671Y-103899699D01*
X147003125Y-103843562D01*
X147018478Y-103802609D01*
X147022105Y-103787351D01*
X147027631Y-103736486D01*
X147028000Y-103729672D01*
X147028000Y-103703115D01*
X147023525Y-103687876D01*
X147022135Y-103686671D01*
X147005235Y-103682995D01*
X146942922Y-103648970D01*
X146908897Y-103586658D01*
X146913961Y-103515843D01*
X146931189Y-103484312D01*
X146950458Y-103458600D01*
X147007316Y-103416083D01*
X147015789Y-103413266D01*
X147025123Y-103410525D01*
X147026328Y-103409135D01*
X147027999Y-103401452D01*
X147027999Y-103370331D01*
X147027629Y-103363509D01*
X147022462Y-103315931D01*
X147022462Y-103288719D01*
X147028131Y-103236533D01*
X147028131Y-103236529D01*
X147028500Y-103233134D01*
X147028500Y-102866866D01*
X147022714Y-102813604D01*
X147022714Y-102786396D01*
X147024398Y-102770890D01*
X147051641Y-102705329D01*
X147110004Y-102664903D01*
X147149661Y-102658500D01*
X147201857Y-102658500D01*
X147218303Y-102659578D01*
X147250000Y-102663751D01*
X147258188Y-102662673D01*
X147281697Y-102659578D01*
X147298143Y-102658500D01*
X148240339Y-102658500D01*
X148308460Y-102678502D01*
X148354953Y-102732158D01*
X148365601Y-102770889D01*
X148367286Y-102786396D01*
X148367286Y-102813604D01*
X148361500Y-102866866D01*
X148361500Y-103233134D01*
X148361869Y-103236531D01*
X148367538Y-103288716D01*
X148367538Y-103315932D01*
X148362369Y-103363514D01*
X148362000Y-103370328D01*
X148362000Y-103396885D01*
X148366475Y-103412124D01*
X148368669Y-103414026D01*
X148429397Y-103447185D01*
X148441126Y-103460713D01*
X148458812Y-103484312D01*
X148458997Y-103484559D01*
X148483845Y-103551066D01*
X148468792Y-103620448D01*
X148418618Y-103670678D01*
X148393670Y-103681020D01*
X148364877Y-103689475D01*
X148363672Y-103690865D01*
X148362001Y-103698548D01*
X148362001Y-103729669D01*
X148362370Y-103736478D01*
X148362919Y-103741532D01*
X148350392Y-103811415D01*
X148328676Y-103842270D01*
X148216119Y-103959849D01*
X148101380Y-104137547D01*
X148099137Y-104143113D01*
X148036690Y-104298065D01*
X148022314Y-104333736D01*
X147981772Y-104541336D01*
X147981500Y-104546898D01*
X147981500Y-105202845D01*
X147996548Y-105360565D01*
X148056092Y-105563533D01*
X148058836Y-105568860D01*
X148058836Y-105568861D01*
X148145124Y-105736399D01*
X148152942Y-105751579D01*
X148156644Y-105756292D01*
X148156646Y-105756294D01*
X148183887Y-105790973D01*
X148184988Y-105792375D01*
X148211339Y-105858301D01*
X148197865Y-105928007D01*
X148192621Y-105937142D01*
X148192503Y-105937384D01*
X148188727Y-105943334D01*
X148186362Y-105949976D01*
X148130243Y-106107575D01*
X148130242Y-106107580D01*
X148127881Y-106114210D01*
X148127048Y-106121198D01*
X148127047Y-106121201D01*
X148113852Y-106231860D01*
X148106404Y-106294320D01*
X148125364Y-106474712D01*
X148183818Y-106646421D01*
X148278862Y-106800912D01*
X148283793Y-106805947D01*
X148283795Y-106805950D01*
X148393368Y-106917842D01*
X148405771Y-106930507D01*
X148558238Y-107028765D01*
X148564858Y-107031174D01*
X148564861Y-107031176D01*
X148685761Y-107075180D01*
X148728685Y-107090803D01*
X148868769Y-107108500D01*
X148965610Y-107108500D01*
X149100255Y-107093397D01*
X149114622Y-107088394D01*
X149264894Y-107036064D01*
X149264897Y-107036062D01*
X149271552Y-107033745D01*
X149285491Y-107025035D01*
X149419402Y-106941359D01*
X149425376Y-106937626D01*
X149453667Y-106909532D01*
X149549085Y-106814778D01*
X149549088Y-106814774D01*
X149554082Y-106809815D01*
X149651273Y-106656666D01*
X149703845Y-106509027D01*
X149709757Y-106492425D01*
X149709758Y-106492420D01*
X149712119Y-106485790D01*
X149733596Y-106305680D01*
X149725631Y-106229893D01*
X149716540Y-106143404D01*
X149729312Y-106073565D01*
X149768950Y-106027464D01*
X149812718Y-105996417D01*
X149812726Y-105996410D01*
X149817611Y-105992945D01*
X149963881Y-105840149D01*
X150078620Y-105662451D01*
X150124134Y-105549516D01*
X150168149Y-105493810D01*
X150235294Y-105470743D01*
X150304251Y-105487640D01*
X150353126Y-105539135D01*
X150367000Y-105596614D01*
X150367000Y-114066000D01*
X150346998Y-114134121D01*
X150293342Y-114180614D01*
X150241000Y-114192000D01*
X147204500Y-114192000D01*
X147136379Y-114171998D01*
X147089886Y-114118342D01*
X147078500Y-114066000D01*
X147078499Y-113673726D01*
X147078499Y-113671254D01*
X147075573Y-113634063D01*
X147029332Y-113474900D01*
X147022968Y-113464140D01*
X147005508Y-113395326D01*
X147022968Y-113335861D01*
X147029332Y-113325100D01*
X147033531Y-113310649D01*
X147050548Y-113252074D01*
X147075573Y-113165937D01*
X147076077Y-113159532D01*
X147076078Y-113159527D01*
X147078307Y-113131203D01*
X147078307Y-113131195D01*
X147078500Y-113128747D01*
X147078500Y-112969170D01*
X147098502Y-112901049D01*
X147152158Y-112854556D01*
X147222432Y-112844452D01*
X147287012Y-112873946D01*
X147322482Y-112924941D01*
X147343697Y-112981531D01*
X147349385Y-112996705D01*
X147436739Y-113113261D01*
X147553295Y-113200615D01*
X147689684Y-113251745D01*
X147751866Y-113258500D01*
X149548134Y-113258500D01*
X149610316Y-113251745D01*
X149746705Y-113200615D01*
X149863261Y-113113261D01*
X149950615Y-112996705D01*
X150001745Y-112860316D01*
X150008500Y-112798134D01*
X150008500Y-111001866D01*
X150001745Y-110939684D01*
X149950615Y-110803295D01*
X149863261Y-110686739D01*
X149746705Y-110599385D01*
X149627687Y-110554767D01*
X149570923Y-110512125D01*
X149546223Y-110445564D01*
X149561430Y-110376215D01*
X149582977Y-110347535D01*
X149684052Y-110246812D01*
X149690730Y-110238965D01*
X149815003Y-110066020D01*
X149820313Y-110057183D01*
X149914670Y-109866267D01*
X149918469Y-109856672D01*
X149980377Y-109652910D01*
X149982555Y-109642837D01*
X149983986Y-109631962D01*
X149981775Y-109617778D01*
X149968617Y-109614000D01*
X148522000Y-109614000D01*
X148453879Y-109593998D01*
X148407386Y-109540342D01*
X148396000Y-109488000D01*
X148396000Y-109087885D01*
X148904000Y-109087885D01*
X148908475Y-109103124D01*
X148909865Y-109104329D01*
X148917548Y-109106000D01*
X149968344Y-109106000D01*
X149981875Y-109102027D01*
X149983180Y-109092947D01*
X149941214Y-108925875D01*
X149937894Y-108916124D01*
X149852972Y-108720814D01*
X149848105Y-108711739D01*
X149732426Y-108532926D01*
X149726136Y-108524757D01*
X149582806Y-108367240D01*
X149575273Y-108360215D01*
X149408139Y-108228222D01*
X149399552Y-108222517D01*
X149213117Y-108119599D01*
X149203705Y-108115369D01*
X149002959Y-108044280D01*
X148992988Y-108041646D01*
X148921837Y-108028972D01*
X148908540Y-108030432D01*
X148904000Y-108044989D01*
X148904000Y-109087885D01*
X148396000Y-109087885D01*
X148396000Y-108043102D01*
X148392082Y-108029758D01*
X148377806Y-108027771D01*
X148339324Y-108033660D01*
X148329288Y-108036051D01*
X148126868Y-108102212D01*
X148117359Y-108106209D01*
X147928463Y-108204542D01*
X147919738Y-108210036D01*
X147749433Y-108337905D01*
X147749225Y-108338090D01*
X147749123Y-108338138D01*
X147745298Y-108341010D01*
X147744705Y-108340220D01*
X147685004Y-108368359D01*
X147614614Y-108359103D01*
X147560402Y-108313260D01*
X147546580Y-108285304D01*
X147536063Y-108255104D01*
X147536063Y-108255103D01*
X147533745Y-108248448D01*
X147530010Y-108242470D01*
X147515973Y-108220005D01*
X147508634Y-108206488D01*
X147497441Y-108182486D01*
X147497440Y-108182485D01*
X147494462Y-108176098D01*
X147467894Y-108141847D01*
X147460598Y-108131388D01*
X147441358Y-108100596D01*
X147441356Y-108100593D01*
X147437626Y-108094624D01*
X147409024Y-108065821D01*
X147408439Y-108065196D01*
X147407922Y-108064530D01*
X147381932Y-108038540D01*
X147309815Y-107965918D01*
X147308778Y-107965260D01*
X147307549Y-107964157D01*
X146578234Y-107234842D01*
X146577306Y-107233905D01*
X146519157Y-107174525D01*
X146519156Y-107174524D01*
X146514229Y-107169493D01*
X146477779Y-107146002D01*
X146467454Y-107138583D01*
X146433557Y-107111524D01*
X146426489Y-107108107D01*
X146403363Y-107096928D01*
X146389945Y-107089398D01*
X146388387Y-107088394D01*
X146361762Y-107071235D01*
X146355145Y-107068827D01*
X146355140Y-107068824D01*
X146321027Y-107056408D01*
X146309284Y-107051447D01*
X146276597Y-107035646D01*
X146276592Y-107035644D01*
X146270251Y-107032579D01*
X146263393Y-107030996D01*
X146263391Y-107030995D01*
X146237574Y-107025035D01*
X146222831Y-107020668D01*
X146191315Y-107009197D01*
X146184325Y-107008314D01*
X146184317Y-107008312D01*
X146148299Y-107003762D01*
X146135747Y-107001526D01*
X146100386Y-106993362D01*
X146100383Y-106993362D01*
X146093515Y-106991776D01*
X146086469Y-106991751D01*
X146086466Y-106991751D01*
X146052944Y-106991634D01*
X146052062Y-106991605D01*
X146051231Y-106991500D01*
X146014581Y-106991500D01*
X146014141Y-106991499D01*
X145915657Y-106991155D01*
X145915652Y-106991155D01*
X145912130Y-106991143D01*
X145910930Y-106991411D01*
X145909293Y-106991500D01*
X144034500Y-106991500D01*
X143966379Y-106971498D01*
X143919886Y-106917842D01*
X143908500Y-106865500D01*
X143908500Y-106750397D01*
X143925380Y-106687398D01*
X143934527Y-106671556D01*
X143993542Y-106489928D01*
X144013504Y-106300000D01*
X144008534Y-106252709D01*
X143994232Y-106116635D01*
X143994232Y-106116633D01*
X143993542Y-106110072D01*
X143934527Y-105928444D01*
X143928451Y-105917919D01*
X143842341Y-105768774D01*
X143839040Y-105763056D01*
X143832953Y-105756295D01*
X143715675Y-105626045D01*
X143715674Y-105626044D01*
X143711253Y-105621134D01*
X143583571Y-105528367D01*
X143562094Y-105512763D01*
X143562093Y-105512762D01*
X143556752Y-105508882D01*
X143550724Y-105506198D01*
X143550722Y-105506197D01*
X143388319Y-105433891D01*
X143388318Y-105433891D01*
X143382288Y-105431206D01*
X143288888Y-105411353D01*
X143201944Y-105392872D01*
X143201939Y-105392872D01*
X143195487Y-105391500D01*
X143004513Y-105391500D01*
X142998061Y-105392872D01*
X142998056Y-105392872D01*
X142911113Y-105411353D01*
X142817712Y-105431206D01*
X142811682Y-105433891D01*
X142811681Y-105433891D01*
X142649278Y-105506197D01*
X142649276Y-105506198D01*
X142643248Y-105508882D01*
X142637907Y-105512762D01*
X142637906Y-105512763D01*
X142616429Y-105528367D01*
X142601609Y-105539135D01*
X142599906Y-105540372D01*
X142533039Y-105564230D01*
X142463887Y-105548150D01*
X142414407Y-105497236D01*
X142406592Y-105465873D01*
X142401520Y-105458029D01*
X142392630Y-105454000D01*
X142154842Y-105454000D01*
X142090703Y-105436453D01*
X142020427Y-105394892D01*
X142020428Y-105394892D01*
X142013601Y-105390855D01*
X142005990Y-105388644D01*
X142005988Y-105388643D01*
X141929157Y-105366322D01*
X141853831Y-105344438D01*
X141847426Y-105343934D01*
X141847421Y-105343933D01*
X141818958Y-105341693D01*
X141818950Y-105341693D01*
X141816502Y-105341500D01*
X141293405Y-105341500D01*
X141278486Y-105340614D01*
X141274826Y-105340178D01*
X141243180Y-105336404D01*
X141236177Y-105337140D01*
X141236176Y-105337140D01*
X141201260Y-105340810D01*
X141188089Y-105341500D01*
X140658498Y-105341500D01*
X140656050Y-105341693D01*
X140656042Y-105341693D01*
X140627579Y-105343933D01*
X140627574Y-105343934D01*
X140621169Y-105344438D01*
X140545843Y-105366322D01*
X140469012Y-105388643D01*
X140469010Y-105388644D01*
X140461399Y-105390855D01*
X140454572Y-105394892D01*
X140454573Y-105394892D01*
X140384297Y-105436453D01*
X140320158Y-105454000D01*
X140088122Y-105454000D01*
X140072884Y-105458474D01*
X140064732Y-105467882D01*
X140005006Y-105506266D01*
X139934010Y-105506266D01*
X139892280Y-105484929D01*
X139887415Y-105481155D01*
X139881807Y-105475547D01*
X139874983Y-105471511D01*
X139874980Y-105471509D01*
X139745427Y-105394892D01*
X139745428Y-105394892D01*
X139738601Y-105390855D01*
X139730990Y-105388644D01*
X139730988Y-105388643D01*
X139654157Y-105366322D01*
X139578831Y-105344438D01*
X139572426Y-105343934D01*
X139572421Y-105343933D01*
X139543958Y-105341693D01*
X139543950Y-105341693D01*
X139541502Y-105341500D01*
X138383498Y-105341500D01*
X138381050Y-105341693D01*
X138381042Y-105341693D01*
X138352579Y-105343933D01*
X138352574Y-105343934D01*
X138346169Y-105344438D01*
X138270843Y-105366322D01*
X138194012Y-105388643D01*
X138194010Y-105388644D01*
X138186399Y-105390855D01*
X138179906Y-105394695D01*
X138109613Y-105403370D01*
X138055975Y-105380972D01*
X137962094Y-105312763D01*
X137962093Y-105312762D01*
X137956752Y-105308882D01*
X137950724Y-105306198D01*
X137950722Y-105306197D01*
X137788319Y-105233891D01*
X137788318Y-105233891D01*
X137782288Y-105231206D01*
X137688888Y-105211353D01*
X137601944Y-105192872D01*
X137601939Y-105192872D01*
X137595487Y-105191500D01*
X137404513Y-105191500D01*
X137398061Y-105192872D01*
X137398056Y-105192872D01*
X137311113Y-105211353D01*
X137217712Y-105231206D01*
X137211682Y-105233891D01*
X137211681Y-105233891D01*
X137049278Y-105306197D01*
X137049276Y-105306198D01*
X137043248Y-105308882D01*
X137037907Y-105312762D01*
X137037906Y-105312763D01*
X136962656Y-105367436D01*
X136895789Y-105391294D01*
X136888595Y-105391500D01*
X134683355Y-105391500D01*
X134615234Y-105371498D01*
X134568741Y-105317842D01*
X134558586Y-105254963D01*
X134557947Y-105254928D01*
X134558106Y-105251993D01*
X134558091Y-105251900D01*
X134558131Y-105251533D01*
X134558131Y-105251529D01*
X134558500Y-105248134D01*
X134558500Y-104151866D01*
X134551745Y-104089684D01*
X134500615Y-103953295D01*
X134413261Y-103836739D01*
X134365340Y-103800824D01*
X134322827Y-103743967D01*
X134317801Y-103673149D01*
X134351861Y-103610855D01*
X134365330Y-103599183D01*
X134413261Y-103563261D01*
X134500615Y-103446705D01*
X134551745Y-103310316D01*
X134558500Y-103248134D01*
X134558500Y-102151866D01*
X134551745Y-102089684D01*
X134500615Y-101953295D01*
X134413261Y-101836739D01*
X134365340Y-101800824D01*
X134322827Y-101743967D01*
X134317801Y-101673149D01*
X134351861Y-101610855D01*
X134365330Y-101599183D01*
X134413261Y-101563261D01*
X134500615Y-101446705D01*
X134551745Y-101310316D01*
X134558500Y-101248134D01*
X134558500Y-100151866D01*
X134551745Y-100089684D01*
X134500615Y-99953295D01*
X134413261Y-99836739D01*
X134365340Y-99800824D01*
X134322827Y-99743967D01*
X134317801Y-99673149D01*
X134351861Y-99610855D01*
X134365330Y-99599183D01*
X134413261Y-99563261D01*
X134500615Y-99446705D01*
X134551745Y-99310316D01*
X134558500Y-99248134D01*
X134558500Y-98151866D01*
X134551745Y-98089684D01*
X134500615Y-97953295D01*
X134413261Y-97836739D01*
X134365340Y-97800824D01*
X134322827Y-97743967D01*
X134317801Y-97673149D01*
X134351861Y-97610855D01*
X134365330Y-97599183D01*
X134413261Y-97563261D01*
X134500615Y-97446705D01*
X134551745Y-97310316D01*
X134558500Y-97248134D01*
X134558500Y-96151866D01*
X134551745Y-96089684D01*
X134500615Y-95953295D01*
X134413261Y-95836739D01*
X134365340Y-95800824D01*
X134322827Y-95743967D01*
X134317801Y-95673149D01*
X134351861Y-95610855D01*
X134365330Y-95599183D01*
X134413261Y-95563261D01*
X134500615Y-95446705D01*
X134551745Y-95310316D01*
X134558500Y-95248134D01*
X134558500Y-94151866D01*
X134551745Y-94089684D01*
X134500615Y-93953295D01*
X134413261Y-93836739D01*
X134296705Y-93749385D01*
X134160316Y-93698255D01*
X134098134Y-93691500D01*
X132746342Y-93691500D01*
X132678221Y-93671498D01*
X132631728Y-93617842D01*
X132621624Y-93547568D01*
X132628360Y-93521270D01*
X132648478Y-93467605D01*
X132652105Y-93452351D01*
X132657631Y-93401486D01*
X132658000Y-93394672D01*
X132658000Y-92372115D01*
X132653525Y-92356876D01*
X132652135Y-92355671D01*
X132644452Y-92354000D01*
X131922115Y-92354000D01*
X131906876Y-92358475D01*
X131905671Y-92359865D01*
X131904000Y-92367548D01*
X131904000Y-93771732D01*
X131883998Y-93839853D01*
X131878826Y-93847297D01*
X131870430Y-93858500D01*
X131799385Y-93953295D01*
X131748255Y-94089684D01*
X131741500Y-94151866D01*
X131741500Y-95248134D01*
X131748255Y-95310316D01*
X131799385Y-95446705D01*
X131886739Y-95563261D01*
X131934660Y-95599176D01*
X131977173Y-95656033D01*
X131982199Y-95726851D01*
X131948139Y-95789145D01*
X131934670Y-95800817D01*
X131886739Y-95836739D01*
X131799385Y-95953295D01*
X131748255Y-96089684D01*
X131741500Y-96151866D01*
X131741500Y-97248134D01*
X131748255Y-97310316D01*
X131799385Y-97446705D01*
X131886739Y-97563261D01*
X131934660Y-97599176D01*
X131977173Y-97656033D01*
X131982199Y-97726851D01*
X131948139Y-97789145D01*
X131934670Y-97800817D01*
X131886739Y-97836739D01*
X131799385Y-97953295D01*
X131748255Y-98089684D01*
X131741500Y-98151866D01*
X131741500Y-99248134D01*
X131748255Y-99310316D01*
X131799385Y-99446705D01*
X131886739Y-99563261D01*
X131934660Y-99599176D01*
X131977173Y-99656033D01*
X131982199Y-99726851D01*
X131948139Y-99789145D01*
X131934670Y-99800817D01*
X131886739Y-99836739D01*
X131799385Y-99953295D01*
X131748255Y-100089684D01*
X131741500Y-100151866D01*
X131741500Y-101248134D01*
X131748255Y-101310316D01*
X131799385Y-101446705D01*
X131886739Y-101563261D01*
X131934660Y-101599176D01*
X131977173Y-101656033D01*
X131982199Y-101726851D01*
X131948139Y-101789145D01*
X131934670Y-101800817D01*
X131886739Y-101836739D01*
X131799385Y-101953295D01*
X131748255Y-102089684D01*
X131741500Y-102151866D01*
X131741500Y-103248134D01*
X131748255Y-103310316D01*
X131799385Y-103446705D01*
X131886739Y-103563261D01*
X131934660Y-103599176D01*
X131977173Y-103656033D01*
X131982199Y-103726851D01*
X131948139Y-103789145D01*
X131934670Y-103800817D01*
X131886739Y-103836739D01*
X131799385Y-103953295D01*
X131748255Y-104089684D01*
X131741500Y-104151866D01*
X131741500Y-105248134D01*
X131748255Y-105310316D01*
X131771106Y-105371270D01*
X131776289Y-105442077D01*
X131742369Y-105504446D01*
X131680113Y-105538575D01*
X131653124Y-105541500D01*
X131101866Y-105541500D01*
X131039684Y-105548255D01*
X130903295Y-105599385D01*
X130786739Y-105686739D01*
X130750824Y-105734660D01*
X130693967Y-105777173D01*
X130623149Y-105782199D01*
X130560855Y-105748139D01*
X130549183Y-105734670D01*
X130513261Y-105686739D01*
X130396705Y-105599385D01*
X130380188Y-105593193D01*
X130340270Y-105578228D01*
X130283505Y-105535586D01*
X130258806Y-105469024D01*
X130258500Y-105460246D01*
X130258500Y-104748276D01*
X130259578Y-104731830D01*
X130262672Y-104708328D01*
X130263750Y-104700140D01*
X130258500Y-104660260D01*
X130258500Y-104660255D01*
X130242838Y-104541290D01*
X130226329Y-104501433D01*
X130181524Y-104393264D01*
X130108478Y-104298069D01*
X130108474Y-104298065D01*
X130102014Y-104289646D01*
X130089016Y-104272706D01*
X130089013Y-104272703D01*
X130083987Y-104266153D01*
X130070409Y-104255734D01*
X130058621Y-104246688D01*
X130046230Y-104235821D01*
X128692527Y-102882118D01*
X128658501Y-102819806D01*
X128655967Y-102796232D01*
X128656312Y-102792948D01*
X128647103Y-102705329D01*
X128637040Y-102609583D01*
X128637040Y-102609581D01*
X128636350Y-102603020D01*
X128614171Y-102534760D01*
X128612143Y-102463794D01*
X128624885Y-102432825D01*
X128712302Y-102281415D01*
X128712303Y-102281414D01*
X128715606Y-102275692D01*
X128774621Y-102094064D01*
X128794583Y-101904136D01*
X128794395Y-101902350D01*
X128813895Y-101835940D01*
X128830798Y-101814966D01*
X131096234Y-99549530D01*
X131108625Y-99538663D01*
X131127437Y-99524228D01*
X131133987Y-99519202D01*
X131158474Y-99487290D01*
X131158477Y-99487287D01*
X131220467Y-99406500D01*
X131231524Y-99392090D01*
X131292838Y-99244065D01*
X131308500Y-99125100D01*
X131308500Y-99125093D01*
X131313750Y-99085215D01*
X131309578Y-99053522D01*
X131308500Y-99037079D01*
X131308500Y-93972695D01*
X131328502Y-93904574D01*
X131382158Y-93858081D01*
X131392528Y-93854213D01*
X131394329Y-93852135D01*
X131396000Y-93844452D01*
X131396000Y-91972000D01*
X131416002Y-91903879D01*
X131469658Y-91857386D01*
X131522000Y-91846000D01*
X132639884Y-91846000D01*
X132655123Y-91841525D01*
X132656328Y-91840135D01*
X132657999Y-91832452D01*
X132657999Y-90805331D01*
X132657629Y-90798510D01*
X132652105Y-90747648D01*
X132648479Y-90732396D01*
X132603324Y-90611946D01*
X132594786Y-90596351D01*
X132518285Y-90494276D01*
X132505724Y-90481715D01*
X132403649Y-90405214D01*
X132388054Y-90396676D01*
X132267606Y-90351522D01*
X132253118Y-90348077D01*
X132191472Y-90312860D01*
X132158651Y-90249904D01*
X132156954Y-90212324D01*
X132162814Y-90156565D01*
X132163504Y-90150000D01*
X132163316Y-90148214D01*
X132182816Y-90081804D01*
X132199719Y-90060830D01*
X132665144Y-89595405D01*
X132727456Y-89561379D01*
X132754239Y-89558500D01*
X140087058Y-89558500D01*
X140155179Y-89578502D01*
G37*
%TD.AperFunction*%
%TA.AperFunction,Conductor*%
G36*
X122695382Y-85228002D02*
G01*
X122741875Y-85281658D01*
X122751979Y-85351932D01*
X122722485Y-85416512D01*
X122716356Y-85423095D01*
X117834856Y-90304595D01*
X117772544Y-90338621D01*
X117745761Y-90341500D01*
X117101866Y-90341500D01*
X117039684Y-90348255D01*
X116903295Y-90399385D01*
X116786739Y-90486739D01*
X116699385Y-90603295D01*
X116648255Y-90739684D01*
X116641500Y-90801866D01*
X116641500Y-93398134D01*
X116648255Y-93460316D01*
X116699385Y-93596705D01*
X116786739Y-93713261D01*
X116903295Y-93800615D01*
X117039684Y-93851745D01*
X117101866Y-93858500D01*
X118198134Y-93858500D01*
X118260316Y-93851745D01*
X118396705Y-93800615D01*
X118513261Y-93713261D01*
X118549176Y-93665340D01*
X118606033Y-93622827D01*
X118676851Y-93617801D01*
X118739145Y-93651861D01*
X118750817Y-93665330D01*
X118786739Y-93713261D01*
X118903295Y-93800615D01*
X119039684Y-93851745D01*
X119101866Y-93858500D01*
X120198134Y-93858500D01*
X120260316Y-93851745D01*
X120396705Y-93800615D01*
X120513261Y-93713261D01*
X120549176Y-93665340D01*
X120606033Y-93622827D01*
X120676851Y-93617801D01*
X120739145Y-93651861D01*
X120750817Y-93665330D01*
X120786739Y-93713261D01*
X120903295Y-93800615D01*
X121039684Y-93851745D01*
X121101866Y-93858500D01*
X122198134Y-93858500D01*
X122260316Y-93851745D01*
X122396705Y-93800615D01*
X122513261Y-93713261D01*
X122549176Y-93665340D01*
X122606033Y-93622827D01*
X122676851Y-93617801D01*
X122739145Y-93651861D01*
X122750817Y-93665330D01*
X122786739Y-93713261D01*
X122903295Y-93800615D01*
X123039684Y-93851745D01*
X123101866Y-93858500D01*
X124198134Y-93858500D01*
X124260316Y-93851745D01*
X124396705Y-93800615D01*
X124513261Y-93713261D01*
X124549176Y-93665340D01*
X124606033Y-93622827D01*
X124676851Y-93617801D01*
X124739145Y-93651861D01*
X124750817Y-93665330D01*
X124786739Y-93713261D01*
X124903295Y-93800615D01*
X125039684Y-93851745D01*
X125101866Y-93858500D01*
X126198134Y-93858500D01*
X126260316Y-93851745D01*
X126396705Y-93800615D01*
X126513261Y-93713261D01*
X126549176Y-93665340D01*
X126606033Y-93622827D01*
X126676851Y-93617801D01*
X126739145Y-93651861D01*
X126750817Y-93665330D01*
X126786739Y-93713261D01*
X126903295Y-93800615D01*
X127039684Y-93851745D01*
X127101866Y-93858500D01*
X128198134Y-93858500D01*
X128260316Y-93851745D01*
X128396705Y-93800615D01*
X128513261Y-93713261D01*
X128549176Y-93665340D01*
X128606033Y-93622827D01*
X128676851Y-93617801D01*
X128739145Y-93651861D01*
X128750817Y-93665330D01*
X128786739Y-93713261D01*
X128903295Y-93800615D01*
X129039684Y-93851745D01*
X129101866Y-93858500D01*
X129965500Y-93858500D01*
X130033621Y-93878502D01*
X130080114Y-93932158D01*
X130091500Y-93984500D01*
X130091500Y-98780976D01*
X130071498Y-98849097D01*
X130054595Y-98870071D01*
X128680275Y-100244391D01*
X128617963Y-100278417D01*
X128547148Y-100273352D01*
X128517120Y-100257232D01*
X128411801Y-100180714D01*
X128368446Y-100124492D01*
X128362370Y-100053756D01*
X128392225Y-99994468D01*
X128484621Y-99891852D01*
X128484622Y-99891851D01*
X128489040Y-99886944D01*
X128584527Y-99721556D01*
X128643542Y-99539928D01*
X128645673Y-99519658D01*
X128662814Y-99356565D01*
X128663504Y-99350000D01*
X128652798Y-99248134D01*
X128644232Y-99166635D01*
X128644232Y-99166633D01*
X128643542Y-99160072D01*
X128584527Y-98978444D01*
X128570282Y-98953770D01*
X128547314Y-98913990D01*
X128489040Y-98813056D01*
X128477285Y-98800000D01*
X128365675Y-98676045D01*
X128365674Y-98676044D01*
X128361253Y-98671134D01*
X128206752Y-98558882D01*
X128200724Y-98556198D01*
X128200722Y-98556197D01*
X128038319Y-98483891D01*
X128038318Y-98483891D01*
X128032288Y-98481206D01*
X127938888Y-98461353D01*
X127851944Y-98442872D01*
X127851939Y-98442872D01*
X127845487Y-98441500D01*
X127654513Y-98441500D01*
X127648061Y-98442872D01*
X127648056Y-98442872D01*
X127561112Y-98461353D01*
X127467712Y-98481206D01*
X127461682Y-98483891D01*
X127461681Y-98483891D01*
X127299278Y-98556197D01*
X127299276Y-98556198D01*
X127293248Y-98558882D01*
X127287907Y-98562762D01*
X127287906Y-98562763D01*
X127239222Y-98598134D01*
X127138747Y-98671134D01*
X127134334Y-98676036D01*
X127134332Y-98676037D01*
X127112926Y-98699811D01*
X127052480Y-98737050D01*
X127019290Y-98741500D01*
X124898144Y-98741500D01*
X124881698Y-98740422D01*
X124858188Y-98737327D01*
X124850000Y-98736249D01*
X124691149Y-98757162D01*
X124543124Y-98818476D01*
X124503218Y-98849097D01*
X124447937Y-98891515D01*
X124447921Y-98891529D01*
X124422566Y-98910984D01*
X124422563Y-98910987D01*
X124416013Y-98916013D01*
X124410983Y-98922568D01*
X124396548Y-98941379D01*
X124385681Y-98953770D01*
X117834856Y-105504595D01*
X117772544Y-105538621D01*
X117745761Y-105541500D01*
X117101866Y-105541500D01*
X117039684Y-105548255D01*
X116903295Y-105599385D01*
X116786739Y-105686739D01*
X116699385Y-105803295D01*
X116648255Y-105939684D01*
X116641500Y-106001866D01*
X116641500Y-108598134D01*
X116648255Y-108660316D01*
X116699385Y-108796705D01*
X116786739Y-108913261D01*
X116903295Y-109000615D01*
X116911703Y-109003767D01*
X116959730Y-109021772D01*
X117016495Y-109064414D01*
X117041194Y-109130976D01*
X117041500Y-109139754D01*
X117041500Y-109185716D01*
X117021498Y-109253837D01*
X116967842Y-109300330D01*
X116910832Y-109311566D01*
X116909989Y-109311500D01*
X116660609Y-109311500D01*
X116410012Y-109311501D01*
X116373534Y-109314371D01*
X116284923Y-109340115D01*
X116225017Y-109357519D01*
X116225015Y-109357520D01*
X116217404Y-109359731D01*
X116210582Y-109363766D01*
X116210581Y-109363766D01*
X116163689Y-109391498D01*
X116077459Y-109442494D01*
X115962494Y-109557459D01*
X115958460Y-109564280D01*
X115889017Y-109681703D01*
X115879731Y-109697404D01*
X115877520Y-109705015D01*
X115877519Y-109705017D01*
X115867107Y-109740856D01*
X115834371Y-109853534D01*
X115833867Y-109859941D01*
X115833866Y-109859945D01*
X115831693Y-109887556D01*
X115831500Y-109890011D01*
X115831501Y-110289988D01*
X115834371Y-110326466D01*
X115849835Y-110379694D01*
X115876653Y-110472000D01*
X115879731Y-110482596D01*
X115883767Y-110489421D01*
X115883769Y-110489425D01*
X115911231Y-110535861D01*
X115928691Y-110604677D01*
X115911231Y-110664139D01*
X115883770Y-110710573D01*
X115883768Y-110710578D01*
X115879731Y-110717404D01*
X115878193Y-110722697D01*
X115833472Y-110776445D01*
X115765766Y-110797807D01*
X115749640Y-110797095D01*
X115698134Y-110791500D01*
X114251866Y-110791500D01*
X114189684Y-110798255D01*
X114053295Y-110849385D01*
X113936739Y-110936739D01*
X113849385Y-111053295D01*
X113798255Y-111189684D01*
X113791500Y-111251866D01*
X113791500Y-113148134D01*
X113798255Y-113210316D01*
X113849385Y-113346705D01*
X113936739Y-113463261D01*
X114053295Y-113550615D01*
X114189684Y-113601745D01*
X114251866Y-113608500D01*
X115698134Y-113608500D01*
X115760316Y-113601745D01*
X115896705Y-113550615D01*
X116013261Y-113463261D01*
X116100615Y-113346705D01*
X116151745Y-113210316D01*
X116158500Y-113148134D01*
X116158500Y-112823239D01*
X116178502Y-112755118D01*
X116232158Y-112708625D01*
X116302432Y-112698521D01*
X116367012Y-112728015D01*
X116373595Y-112734144D01*
X116885685Y-113246234D01*
X116896552Y-113258625D01*
X116916013Y-113283987D01*
X116922563Y-113289013D01*
X116947925Y-113308474D01*
X116947928Y-113308477D01*
X117024517Y-113367246D01*
X117043124Y-113381524D01*
X117087729Y-113400000D01*
X117104438Y-113406921D01*
X117183520Y-113439678D01*
X117183523Y-113439679D01*
X117191150Y-113442838D01*
X117310115Y-113458500D01*
X117310120Y-113458500D01*
X117310129Y-113458501D01*
X117341812Y-113462672D01*
X117350000Y-113463750D01*
X117381693Y-113459578D01*
X117398136Y-113458500D01*
X123601864Y-113458500D01*
X123618307Y-113459578D01*
X123650000Y-113463750D01*
X123658189Y-113462672D01*
X123689874Y-113458501D01*
X123689884Y-113458500D01*
X123689885Y-113458500D01*
X123689901Y-113458498D01*
X123789457Y-113445391D01*
X123800664Y-113443916D01*
X123800666Y-113443915D01*
X123808851Y-113442838D01*
X123956876Y-113381524D01*
X123975484Y-113367246D01*
X124052072Y-113308477D01*
X124052075Y-113308474D01*
X124077434Y-113289015D01*
X124083987Y-113283987D01*
X124089017Y-113277432D01*
X124103452Y-113258621D01*
X124114319Y-113246230D01*
X124382415Y-112978134D01*
X134641500Y-112978134D01*
X134648255Y-113040316D01*
X134699385Y-113176705D01*
X134786739Y-113293261D01*
X134903295Y-113380615D01*
X135039684Y-113431745D01*
X135101866Y-113438500D01*
X136198134Y-113438500D01*
X136260316Y-113431745D01*
X136396705Y-113380615D01*
X136513261Y-113293261D01*
X136600615Y-113176705D01*
X136651745Y-113040316D01*
X136658500Y-112978134D01*
X136658500Y-112081866D01*
X136651745Y-112019684D01*
X136600615Y-111883295D01*
X136513261Y-111766739D01*
X136396705Y-111679385D01*
X136260316Y-111628255D01*
X136198134Y-111621500D01*
X135101866Y-111621500D01*
X135039684Y-111628255D01*
X134903295Y-111679385D01*
X134786739Y-111766739D01*
X134699385Y-111883295D01*
X134648255Y-112019684D01*
X134641500Y-112081866D01*
X134641500Y-112978134D01*
X124382415Y-112978134D01*
X125156234Y-112204315D01*
X125168625Y-112193448D01*
X125187437Y-112179013D01*
X125193987Y-112173987D01*
X125218474Y-112142075D01*
X125218480Y-112142069D01*
X125286496Y-112053429D01*
X125286497Y-112053427D01*
X125291524Y-112046876D01*
X125333859Y-111944669D01*
X126792001Y-111944669D01*
X126792371Y-111951490D01*
X126797895Y-112002352D01*
X126801521Y-112017604D01*
X126846676Y-112138054D01*
X126855214Y-112153649D01*
X126931715Y-112255724D01*
X126944276Y-112268285D01*
X127046351Y-112344786D01*
X127061946Y-112353324D01*
X127182394Y-112398478D01*
X127197649Y-112402105D01*
X127248514Y-112407631D01*
X127255328Y-112408000D01*
X127927885Y-112408000D01*
X127943124Y-112403525D01*
X127944329Y-112402135D01*
X127946000Y-112394452D01*
X127946000Y-110872115D01*
X127941525Y-110856876D01*
X127940135Y-110855671D01*
X127932452Y-110854000D01*
X126810116Y-110854000D01*
X126794877Y-110858475D01*
X126793672Y-110859865D01*
X126792001Y-110867548D01*
X126792001Y-111944669D01*
X125333859Y-111944669D01*
X125348190Y-111910072D01*
X125349679Y-111906478D01*
X125349679Y-111906477D01*
X125352838Y-111898851D01*
X125357864Y-111860670D01*
X125368500Y-111779885D01*
X125368500Y-111779880D01*
X125370245Y-111766624D01*
X125398967Y-111701697D01*
X125406072Y-111693975D01*
X125457506Y-111642541D01*
X125540269Y-111502596D01*
X125550898Y-111466013D01*
X125583834Y-111352644D01*
X125585629Y-111346466D01*
X125587048Y-111328444D01*
X125588307Y-111312444D01*
X125588307Y-111312438D01*
X125588500Y-111309989D01*
X125588499Y-110910012D01*
X125585629Y-110873534D01*
X125540269Y-110717404D01*
X125536233Y-110710579D01*
X125536231Y-110710575D01*
X125508769Y-110664139D01*
X125491309Y-110595323D01*
X125508769Y-110535861D01*
X125536231Y-110489425D01*
X125536233Y-110489421D01*
X125540269Y-110482596D01*
X125543348Y-110472000D01*
X125576495Y-110357905D01*
X125585629Y-110326466D01*
X125586135Y-110320047D01*
X125588307Y-110292444D01*
X125588307Y-110292438D01*
X125588500Y-110289989D01*
X125588499Y-109890012D01*
X125585629Y-109853534D01*
X125545423Y-109715144D01*
X125542481Y-109705017D01*
X125542480Y-109705015D01*
X125540269Y-109697404D01*
X125530984Y-109681703D01*
X125461540Y-109564280D01*
X125457506Y-109557459D01*
X125342541Y-109442494D01*
X125256311Y-109391498D01*
X125209419Y-109363766D01*
X125209418Y-109363766D01*
X125202596Y-109359731D01*
X125194985Y-109357520D01*
X125194983Y-109357519D01*
X125056172Y-109317191D01*
X125046466Y-109314371D01*
X125040059Y-109313867D01*
X125040055Y-109313866D01*
X125012444Y-109311693D01*
X125012438Y-109311693D01*
X125009989Y-109311500D01*
X124760152Y-109311500D01*
X124510012Y-109311501D01*
X124473534Y-109314371D01*
X124419653Y-109330025D01*
X124348657Y-109329822D01*
X124289040Y-109291268D01*
X124259732Y-109226604D01*
X124258500Y-109209028D01*
X124258500Y-109139754D01*
X124278502Y-109071633D01*
X124332158Y-109025140D01*
X124340270Y-109021772D01*
X124388297Y-109003767D01*
X124396705Y-109000615D01*
X124513261Y-108913261D01*
X124549176Y-108865340D01*
X124606033Y-108822827D01*
X124676851Y-108817801D01*
X124739145Y-108851861D01*
X124750817Y-108865330D01*
X124786739Y-108913261D01*
X124903295Y-109000615D01*
X125039684Y-109051745D01*
X125101866Y-109058500D01*
X126198134Y-109058500D01*
X126260316Y-109051745D01*
X126396705Y-109000615D01*
X126513261Y-108913261D01*
X126549176Y-108865340D01*
X126606033Y-108822827D01*
X126676851Y-108817801D01*
X126739145Y-108851861D01*
X126750817Y-108865330D01*
X126786739Y-108913261D01*
X126793919Y-108918642D01*
X126793920Y-108918643D01*
X126801481Y-108924310D01*
X126843995Y-108981171D01*
X126849018Y-109051990D01*
X126843895Y-109069364D01*
X126801522Y-109182394D01*
X126797895Y-109197649D01*
X126792369Y-109248514D01*
X126792000Y-109255328D01*
X126792000Y-110327885D01*
X126796475Y-110343124D01*
X126797865Y-110344329D01*
X126805548Y-110346000D01*
X128328000Y-110346000D01*
X128396121Y-110366002D01*
X128442614Y-110419658D01*
X128454000Y-110472000D01*
X128454000Y-112389884D01*
X128458475Y-112405123D01*
X128459865Y-112406328D01*
X128467548Y-112407999D01*
X129144669Y-112407999D01*
X129151490Y-112407629D01*
X129202352Y-112402105D01*
X129217604Y-112398479D01*
X129338054Y-112353324D01*
X129353649Y-112344786D01*
X129455724Y-112268285D01*
X129468285Y-112255724D01*
X129544786Y-112153649D01*
X129553324Y-112138054D01*
X129581751Y-112062226D01*
X129624393Y-112005462D01*
X129690954Y-111980762D01*
X129760303Y-111995970D01*
X129810421Y-112046256D01*
X129817715Y-112062226D01*
X129832865Y-112102637D01*
X129849385Y-112146705D01*
X129936739Y-112263261D01*
X130053295Y-112350615D01*
X130189684Y-112401745D01*
X130251866Y-112408500D01*
X132148134Y-112408500D01*
X132210316Y-112401745D01*
X132346705Y-112350615D01*
X132463261Y-112263261D01*
X132550615Y-112146705D01*
X132601745Y-112010316D01*
X132608500Y-111948134D01*
X132608500Y-109251866D01*
X132601745Y-109189684D01*
X132550615Y-109053295D01*
X132536095Y-109033921D01*
X132511248Y-108967415D01*
X132526301Y-108898032D01*
X132536096Y-108882792D01*
X132600615Y-108796705D01*
X132651745Y-108660316D01*
X132658500Y-108598134D01*
X132658500Y-108357401D01*
X132678502Y-108289280D01*
X132732158Y-108242787D01*
X132802432Y-108232683D01*
X132867012Y-108262177D01*
X132900441Y-108308068D01*
X132922157Y-108359103D01*
X132928654Y-108374373D01*
X133032383Y-108515324D01*
X133037961Y-108520063D01*
X133037964Y-108520066D01*
X133160176Y-108623893D01*
X133160180Y-108623896D01*
X133165755Y-108628632D01*
X133198603Y-108645405D01*
X133262687Y-108678128D01*
X133321616Y-108708219D01*
X133328721Y-108709958D01*
X133328725Y-108709959D01*
X133409858Y-108729811D01*
X133491606Y-108749815D01*
X133497206Y-108750162D01*
X133497210Y-108750163D01*
X133500709Y-108750380D01*
X133500718Y-108750380D01*
X133502648Y-108750500D01*
X133628822Y-108750500D01*
X133720369Y-108739827D01*
X133751556Y-108736191D01*
X133751558Y-108736191D01*
X133758828Y-108735343D01*
X133765705Y-108732847D01*
X133765708Y-108732846D01*
X133916452Y-108678128D01*
X133923331Y-108675631D01*
X134069685Y-108579677D01*
X134190040Y-108452628D01*
X134277939Y-108301298D01*
X134328667Y-108133807D01*
X134339503Y-107959138D01*
X134316063Y-107822721D01*
X134311106Y-107793875D01*
X134311105Y-107793873D01*
X134309866Y-107786660D01*
X134241346Y-107625627D01*
X134137617Y-107484676D01*
X134132039Y-107479937D01*
X134132036Y-107479934D01*
X134009824Y-107376107D01*
X134009820Y-107376104D01*
X134004245Y-107371368D01*
X133920062Y-107328382D01*
X133854900Y-107295108D01*
X133854898Y-107295107D01*
X133848384Y-107291781D01*
X133841279Y-107290042D01*
X133841275Y-107290041D01*
X133747741Y-107267154D01*
X133678394Y-107250185D01*
X133672794Y-107249838D01*
X133672790Y-107249837D01*
X133669291Y-107249620D01*
X133669282Y-107249620D01*
X133667352Y-107249500D01*
X133541178Y-107249500D01*
X133449631Y-107260173D01*
X133418444Y-107263809D01*
X133418442Y-107263809D01*
X133411172Y-107264657D01*
X133404295Y-107267153D01*
X133404292Y-107267154D01*
X133327281Y-107295108D01*
X133246669Y-107324369D01*
X133100315Y-107420323D01*
X132979960Y-107547372D01*
X132906457Y-107673918D01*
X132893454Y-107696304D01*
X132841943Y-107745163D01*
X132772195Y-107758417D01*
X132706353Y-107731858D01*
X132665323Y-107673918D01*
X132658500Y-107633019D01*
X132658500Y-107345661D01*
X132678502Y-107277540D01*
X132695405Y-107256565D01*
X133106567Y-106845404D01*
X133168879Y-106811379D01*
X133195662Y-106808500D01*
X136888595Y-106808500D01*
X136956716Y-106828502D01*
X136962656Y-106832564D01*
X136998354Y-106858500D01*
X137043248Y-106891118D01*
X137049278Y-106893803D01*
X137055001Y-106897107D01*
X137054103Y-106898662D01*
X137101503Y-106938944D01*
X137122158Y-107006870D01*
X137102811Y-107075180D01*
X137073391Y-107107638D01*
X137068381Y-107111524D01*
X137041846Y-107132107D01*
X137031388Y-107139402D01*
X137000596Y-107158642D01*
X137000593Y-107158644D01*
X136994624Y-107162374D01*
X136989629Y-107167334D01*
X136989628Y-107167335D01*
X136965821Y-107190976D01*
X136965196Y-107191561D01*
X136964530Y-107192078D01*
X136938540Y-107218068D01*
X136865918Y-107290185D01*
X136865260Y-107291222D01*
X136864157Y-107292451D01*
X136752013Y-107404595D01*
X136689701Y-107438621D01*
X136662918Y-107441500D01*
X136592587Y-107441500D01*
X136518528Y-107417437D01*
X136512098Y-107412765D01*
X136512091Y-107412761D01*
X136506752Y-107408882D01*
X136500724Y-107406198D01*
X136500722Y-107406197D01*
X136338319Y-107333891D01*
X136338318Y-107333891D01*
X136332288Y-107331206D01*
X136238888Y-107311353D01*
X136151944Y-107292872D01*
X136151939Y-107292872D01*
X136145487Y-107291500D01*
X135954513Y-107291500D01*
X135948061Y-107292872D01*
X135948056Y-107292872D01*
X135861112Y-107311353D01*
X135767712Y-107331206D01*
X135761682Y-107333891D01*
X135761681Y-107333891D01*
X135599278Y-107406197D01*
X135599276Y-107406198D01*
X135593248Y-107408882D01*
X135587907Y-107412762D01*
X135587906Y-107412763D01*
X135552316Y-107438621D01*
X135438747Y-107521134D01*
X135310960Y-107663056D01*
X135307659Y-107668774D01*
X135243486Y-107779925D01*
X135215473Y-107828444D01*
X135156458Y-108010072D01*
X135155768Y-108016633D01*
X135155768Y-108016635D01*
X135148096Y-108089628D01*
X135136496Y-108200000D01*
X135137186Y-108206565D01*
X135151317Y-108341010D01*
X135156458Y-108389928D01*
X135215473Y-108571556D01*
X135218776Y-108577278D01*
X135218777Y-108577279D01*
X135222478Y-108583689D01*
X135310960Y-108736944D01*
X135315378Y-108741851D01*
X135315379Y-108741852D01*
X135432444Y-108871866D01*
X135438747Y-108878866D01*
X135593248Y-108991118D01*
X135599276Y-108993802D01*
X135599278Y-108993803D01*
X135743762Y-109058131D01*
X135767712Y-109068794D01*
X135857528Y-109087885D01*
X135948056Y-109107128D01*
X135948061Y-109107128D01*
X135954513Y-109108500D01*
X136065500Y-109108500D01*
X136133621Y-109128502D01*
X136180114Y-109182158D01*
X136191500Y-109234500D01*
X136191500Y-109285500D01*
X136171498Y-109353621D01*
X136117842Y-109400114D01*
X136065500Y-109411500D01*
X135101866Y-109411500D01*
X135039684Y-109418255D01*
X134903295Y-109469385D01*
X134786739Y-109556739D01*
X134699385Y-109673295D01*
X134648255Y-109809684D01*
X134641500Y-109871866D01*
X134641500Y-110768134D01*
X134648255Y-110830316D01*
X134699385Y-110966705D01*
X134786739Y-111083261D01*
X134903295Y-111170615D01*
X135039684Y-111221745D01*
X135101866Y-111228500D01*
X136198134Y-111228500D01*
X136260316Y-111221745D01*
X136396705Y-111170615D01*
X136513261Y-111083261D01*
X136591449Y-110978935D01*
X136648308Y-110936420D01*
X136692275Y-110928500D01*
X136777992Y-110928500D01*
X136846113Y-110948502D01*
X136892606Y-111002158D01*
X136902710Y-111072432D01*
X136897378Y-111093366D01*
X136896982Y-111094171D01*
X136895375Y-111100341D01*
X136895373Y-111100346D01*
X136855905Y-111251866D01*
X136847898Y-111282607D01*
X136844887Y-111340055D01*
X136839570Y-111441522D01*
X136837707Y-111477064D01*
X136855259Y-111593124D01*
X136863557Y-111647987D01*
X136866825Y-111669599D01*
X136869028Y-111675585D01*
X136869029Y-111675591D01*
X136931860Y-111846360D01*
X136931862Y-111846365D01*
X136934063Y-111852346D01*
X136963610Y-111900000D01*
X137013685Y-111980762D01*
X137036674Y-112017840D01*
X137041055Y-112022473D01*
X137041056Y-112022474D01*
X137150354Y-112138054D01*
X137170466Y-112159322D01*
X137175696Y-112162984D01*
X137175697Y-112162985D01*
X137263155Y-112224223D01*
X137329975Y-112271011D01*
X137335838Y-112273548D01*
X137502825Y-112345810D01*
X137502829Y-112345811D01*
X137508684Y-112348345D01*
X137514931Y-112349650D01*
X137514934Y-112349651D01*
X137694557Y-112387176D01*
X137694562Y-112387177D01*
X137699293Y-112388165D01*
X137705685Y-112388500D01*
X137848663Y-112388500D01*
X137917951Y-112381462D01*
X137987378Y-112374410D01*
X137987379Y-112374410D01*
X137993727Y-112373765D01*
X138058955Y-112353324D01*
X138173451Y-112317444D01*
X138173456Y-112317442D01*
X138179541Y-112315535D01*
X138296606Y-112250644D01*
X138344271Y-112224223D01*
X138344274Y-112224221D01*
X138349850Y-112221130D01*
X138354691Y-112216981D01*
X138354695Y-112216978D01*
X138492855Y-112098560D01*
X138497698Y-112094409D01*
X138507428Y-112081866D01*
X138613131Y-111945594D01*
X138617046Y-111940547D01*
X138621030Y-111932452D01*
X138700200Y-111771556D01*
X138703018Y-111765829D01*
X138707315Y-111749333D01*
X138750492Y-111583575D01*
X138750492Y-111583572D01*
X138752102Y-111577393D01*
X138757939Y-111466013D01*
X138761959Y-111389317D01*
X138761959Y-111389313D01*
X138762293Y-111382936D01*
X138733175Y-111190401D01*
X138730972Y-111184415D01*
X138730971Y-111184409D01*
X138668140Y-111013640D01*
X138668138Y-111013635D01*
X138665937Y-111007654D01*
X138578191Y-110866134D01*
X138566688Y-110847582D01*
X138566687Y-110847581D01*
X138563326Y-110842160D01*
X138534525Y-110811703D01*
X138433919Y-110705315D01*
X138429534Y-110700678D01*
X138408348Y-110685843D01*
X138284872Y-110599385D01*
X138270025Y-110588989D01*
X138192350Y-110555376D01*
X138097175Y-110514190D01*
X138097171Y-110514189D01*
X138091316Y-110511655D01*
X138085069Y-110510350D01*
X138085066Y-110510349D01*
X138008734Y-110494403D01*
X137946143Y-110460894D01*
X137911605Y-110398865D01*
X137908500Y-110371066D01*
X137908500Y-109076207D01*
X137928502Y-109008086D01*
X137982158Y-108961593D01*
X138052432Y-108951489D01*
X138117012Y-108980983D01*
X138154332Y-109037269D01*
X138165473Y-109071556D01*
X138168776Y-109077278D01*
X138168777Y-109077279D01*
X138245516Y-109210194D01*
X138260960Y-109236944D01*
X138265378Y-109241851D01*
X138265379Y-109241852D01*
X138364280Y-109351693D01*
X138388747Y-109378866D01*
X138433664Y-109411500D01*
X138534452Y-109484727D01*
X138543248Y-109491118D01*
X138549276Y-109493802D01*
X138549278Y-109493803D01*
X138707573Y-109564280D01*
X138717712Y-109568794D01*
X138811113Y-109588647D01*
X138898056Y-109607128D01*
X138898061Y-109607128D01*
X138904513Y-109608500D01*
X138995761Y-109608500D01*
X139063882Y-109628502D01*
X139084856Y-109645405D01*
X139154595Y-109715144D01*
X139188621Y-109777456D01*
X139191500Y-109804239D01*
X139191500Y-110468134D01*
X139198255Y-110530316D01*
X139249385Y-110666705D01*
X139336739Y-110783261D01*
X139453295Y-110870615D01*
X139589684Y-110921745D01*
X139651866Y-110928500D01*
X139777992Y-110928500D01*
X139846113Y-110948502D01*
X139892606Y-111002158D01*
X139902710Y-111072432D01*
X139897378Y-111093366D01*
X139896982Y-111094171D01*
X139895375Y-111100341D01*
X139895373Y-111100346D01*
X139855905Y-111251866D01*
X139847898Y-111282607D01*
X139844887Y-111340055D01*
X139839570Y-111441522D01*
X139837707Y-111477064D01*
X139855259Y-111593124D01*
X139863557Y-111647987D01*
X139866825Y-111669599D01*
X139869028Y-111675585D01*
X139869029Y-111675591D01*
X139931860Y-111846360D01*
X139931862Y-111846365D01*
X139934063Y-111852346D01*
X139963610Y-111900000D01*
X140013685Y-111980762D01*
X140036674Y-112017840D01*
X140041055Y-112022473D01*
X140041056Y-112022474D01*
X140150354Y-112138054D01*
X140170466Y-112159322D01*
X140175696Y-112162984D01*
X140175697Y-112162985D01*
X140263155Y-112224223D01*
X140329975Y-112271011D01*
X140335838Y-112273548D01*
X140502825Y-112345810D01*
X140502829Y-112345811D01*
X140508684Y-112348345D01*
X140514931Y-112349650D01*
X140514934Y-112349651D01*
X140694557Y-112387176D01*
X140694562Y-112387177D01*
X140699293Y-112388165D01*
X140705685Y-112388500D01*
X140848663Y-112388500D01*
X140917951Y-112381462D01*
X140987378Y-112374410D01*
X140987379Y-112374410D01*
X140993727Y-112373765D01*
X141058955Y-112353324D01*
X141173451Y-112317444D01*
X141173456Y-112317442D01*
X141179541Y-112315535D01*
X141296606Y-112250644D01*
X141344271Y-112224223D01*
X141344274Y-112224221D01*
X141349850Y-112221130D01*
X141354691Y-112216981D01*
X141354695Y-112216978D01*
X141492855Y-112098560D01*
X141497698Y-112094409D01*
X141507428Y-112081866D01*
X141613131Y-111945594D01*
X141617046Y-111940547D01*
X141621030Y-111932452D01*
X141700200Y-111771556D01*
X141703018Y-111765829D01*
X141707315Y-111749333D01*
X141750492Y-111583575D01*
X141750492Y-111583572D01*
X141752102Y-111577393D01*
X141757939Y-111466013D01*
X141761959Y-111389317D01*
X141761959Y-111389313D01*
X141762293Y-111382936D01*
X141733175Y-111190401D01*
X141730972Y-111184415D01*
X141730971Y-111184409D01*
X141699181Y-111098008D01*
X141694431Y-111027170D01*
X141728732Y-110965010D01*
X141791195Y-110931262D01*
X141817431Y-110928500D01*
X141907725Y-110928500D01*
X141975846Y-110948502D01*
X142008551Y-110978935D01*
X142086739Y-111083261D01*
X142203295Y-111170615D01*
X142339684Y-111221745D01*
X142401866Y-111228500D01*
X143498134Y-111228500D01*
X143560316Y-111221745D01*
X143696705Y-111170615D01*
X143813261Y-111083261D01*
X143829910Y-111061046D01*
X143886769Y-111018533D01*
X143957588Y-111013508D01*
X144019881Y-111047568D01*
X144053871Y-111109899D01*
X144048766Y-111180712D01*
X144039855Y-111199611D01*
X144027076Y-111221745D01*
X143974711Y-111312444D01*
X143965473Y-111328444D01*
X143906458Y-111510072D01*
X143905769Y-111516631D01*
X143905768Y-111516634D01*
X143897854Y-111591935D01*
X143870841Y-111657591D01*
X143812619Y-111698221D01*
X143741674Y-111700924D01*
X143712810Y-111687161D01*
X143711760Y-111689079D01*
X143703892Y-111684771D01*
X143696705Y-111679385D01*
X143560316Y-111628255D01*
X143498134Y-111621500D01*
X142401866Y-111621500D01*
X142339684Y-111628255D01*
X142203295Y-111679385D01*
X142086739Y-111766739D01*
X141999385Y-111883295D01*
X141948255Y-112019684D01*
X141941500Y-112081866D01*
X141941500Y-112978134D01*
X141948255Y-113040316D01*
X141999385Y-113176705D01*
X142086739Y-113293261D01*
X142203295Y-113380615D01*
X142339684Y-113431745D01*
X142394147Y-113437661D01*
X142459708Y-113464902D01*
X142500135Y-113523265D01*
X142502591Y-113594219D01*
X142500372Y-113601860D01*
X142498215Y-113608500D01*
X142481458Y-113660072D01*
X142480768Y-113666633D01*
X142480768Y-113666635D01*
X142480283Y-113671254D01*
X142461496Y-113850000D01*
X142462186Y-113856565D01*
X142480768Y-114033368D01*
X142480769Y-114033373D01*
X142481458Y-114039928D01*
X142482000Y-114041597D01*
X142476733Y-114110597D01*
X142433915Y-114167229D01*
X142367277Y-114191721D01*
X142358890Y-114192000D01*
X109609000Y-114192000D01*
X109540879Y-114171998D01*
X109494386Y-114118342D01*
X109483000Y-114066000D01*
X109483000Y-113435367D01*
X109503002Y-113367246D01*
X109556658Y-113320753D01*
X109626932Y-113310649D01*
X109691512Y-113340143D01*
X109709827Y-113359802D01*
X109781719Y-113455728D01*
X109794276Y-113468285D01*
X109896351Y-113544786D01*
X109911946Y-113553324D01*
X110032394Y-113598478D01*
X110047649Y-113602105D01*
X110098514Y-113607631D01*
X110105328Y-113608000D01*
X110552885Y-113608000D01*
X110568124Y-113603525D01*
X110569329Y-113602135D01*
X110571000Y-113594452D01*
X110571000Y-113589884D01*
X111079000Y-113589884D01*
X111083475Y-113605123D01*
X111084865Y-113606328D01*
X111092548Y-113607999D01*
X111544669Y-113607999D01*
X111551490Y-113607629D01*
X111602352Y-113602105D01*
X111617604Y-113598479D01*
X111738054Y-113553324D01*
X111753649Y-113544786D01*
X111855724Y-113468285D01*
X111868285Y-113455724D01*
X111944786Y-113353649D01*
X111953324Y-113338054D01*
X111998478Y-113217606D01*
X112002105Y-113202351D01*
X112007631Y-113151486D01*
X112008000Y-113144672D01*
X112008000Y-112472115D01*
X112003525Y-112456876D01*
X112002135Y-112455671D01*
X111994452Y-112454000D01*
X111097115Y-112454000D01*
X111081876Y-112458475D01*
X111080671Y-112459865D01*
X111079000Y-112467548D01*
X111079000Y-113589884D01*
X110571000Y-113589884D01*
X110571000Y-111927885D01*
X111079000Y-111927885D01*
X111083475Y-111943124D01*
X111084865Y-111944329D01*
X111092548Y-111946000D01*
X111989884Y-111946000D01*
X112005123Y-111941525D01*
X112006328Y-111940135D01*
X112007999Y-111932452D01*
X112007999Y-111255331D01*
X112007629Y-111248510D01*
X112002105Y-111197648D01*
X111998479Y-111182396D01*
X111953324Y-111061946D01*
X111944786Y-111046351D01*
X111868285Y-110944276D01*
X111855724Y-110931715D01*
X111753649Y-110855214D01*
X111738054Y-110846676D01*
X111617606Y-110801522D01*
X111602351Y-110797895D01*
X111551486Y-110792369D01*
X111544672Y-110792000D01*
X111097115Y-110792000D01*
X111081876Y-110796475D01*
X111080671Y-110797865D01*
X111079000Y-110805548D01*
X111079000Y-111927885D01*
X110571000Y-111927885D01*
X110571000Y-110810116D01*
X110566525Y-110794877D01*
X110565135Y-110793672D01*
X110557452Y-110792001D01*
X110105331Y-110792001D01*
X110098510Y-110792371D01*
X110047648Y-110797895D01*
X110032396Y-110801521D01*
X109911946Y-110846676D01*
X109896351Y-110855214D01*
X109794276Y-110931715D01*
X109781719Y-110944272D01*
X109709827Y-111040198D01*
X109652967Y-111082713D01*
X109582149Y-111087739D01*
X109519855Y-111053679D01*
X109485865Y-110991348D01*
X109483000Y-110964633D01*
X109483000Y-110334000D01*
X109503002Y-110265879D01*
X109556658Y-110219386D01*
X109609000Y-110208000D01*
X114966298Y-110208000D01*
X114967069Y-110208002D01*
X115044652Y-110208476D01*
X115053281Y-110206010D01*
X115053286Y-110206009D01*
X115073048Y-110200361D01*
X115089809Y-110196783D01*
X115110152Y-110193870D01*
X115110162Y-110193867D01*
X115119045Y-110192595D01*
X115142395Y-110181979D01*
X115159907Y-110175536D01*
X115175937Y-110170954D01*
X115184565Y-110168488D01*
X115209548Y-110152726D01*
X115224614Y-110144596D01*
X115251510Y-110132367D01*
X115270939Y-110115626D01*
X115285947Y-110104521D01*
X115300039Y-110095630D01*
X115307631Y-110090840D01*
X115327182Y-110068703D01*
X115339374Y-110056659D01*
X115354949Y-110043239D01*
X115354950Y-110043237D01*
X115361747Y-110037381D01*
X115366626Y-110029853D01*
X115366629Y-110029850D01*
X115375696Y-110015861D01*
X115386986Y-110000987D01*
X115398012Y-109988502D01*
X115403956Y-109981772D01*
X115416510Y-109955034D01*
X115424824Y-109940065D01*
X115440893Y-109915273D01*
X115448239Y-109890709D01*
X115454901Y-109873264D01*
X115461983Y-109858179D01*
X115465799Y-109850052D01*
X115470343Y-109820870D01*
X115474126Y-109804151D01*
X115480014Y-109784464D01*
X115480015Y-109784461D01*
X115482587Y-109775859D01*
X115482797Y-109741444D01*
X115482830Y-109740672D01*
X115483000Y-109739577D01*
X115483000Y-109708702D01*
X115483002Y-109707932D01*
X115483452Y-109634284D01*
X115483452Y-109634283D01*
X115483476Y-109630348D01*
X115483092Y-109629004D01*
X115483000Y-109627659D01*
X115483000Y-89708702D01*
X115483002Y-89707932D01*
X115483367Y-89648147D01*
X115483476Y-89630348D01*
X115481010Y-89621719D01*
X115481009Y-89621714D01*
X115475361Y-89601952D01*
X115471783Y-89585191D01*
X115468870Y-89564848D01*
X115468867Y-89564838D01*
X115467595Y-89555955D01*
X115456979Y-89532605D01*
X115450536Y-89515093D01*
X115445954Y-89499063D01*
X115443488Y-89490435D01*
X115427726Y-89465452D01*
X115419596Y-89450386D01*
X115407367Y-89423490D01*
X115390626Y-89404061D01*
X115379521Y-89389053D01*
X115370630Y-89374961D01*
X115365840Y-89367369D01*
X115343703Y-89347818D01*
X115331659Y-89335626D01*
X115318239Y-89320051D01*
X115318237Y-89320050D01*
X115312381Y-89313253D01*
X115304853Y-89308374D01*
X115304850Y-89308371D01*
X115290861Y-89299304D01*
X115275987Y-89288014D01*
X115263502Y-89276988D01*
X115256772Y-89271044D01*
X115248646Y-89267229D01*
X115248645Y-89267228D01*
X115242979Y-89264568D01*
X115230034Y-89258490D01*
X115215065Y-89250176D01*
X115190273Y-89234107D01*
X115165709Y-89226761D01*
X115148264Y-89220099D01*
X115125052Y-89209201D01*
X115095870Y-89204657D01*
X115079151Y-89200874D01*
X115059464Y-89194986D01*
X115059461Y-89194985D01*
X115050859Y-89192413D01*
X115041884Y-89192358D01*
X115041883Y-89192358D01*
X115035190Y-89192317D01*
X115016444Y-89192203D01*
X115015672Y-89192170D01*
X115014577Y-89192000D01*
X114983702Y-89192000D01*
X114982932Y-89191998D01*
X114909284Y-89191548D01*
X114909283Y-89191548D01*
X114905348Y-89191524D01*
X114904004Y-89191908D01*
X114902659Y-89192000D01*
X109609000Y-89192000D01*
X109540879Y-89171998D01*
X109494386Y-89118342D01*
X109483000Y-89066000D01*
X109483000Y-88535367D01*
X109503002Y-88467246D01*
X109556658Y-88420753D01*
X109626932Y-88410649D01*
X109691512Y-88440143D01*
X109709827Y-88459802D01*
X109781719Y-88555728D01*
X109794276Y-88568285D01*
X109896351Y-88644786D01*
X109911946Y-88653324D01*
X110032394Y-88698478D01*
X110047649Y-88702105D01*
X110098514Y-88707631D01*
X110105328Y-88708000D01*
X110552885Y-88708000D01*
X110568124Y-88703525D01*
X110569329Y-88702135D01*
X110571000Y-88694452D01*
X110571000Y-88689884D01*
X111079000Y-88689884D01*
X111083475Y-88705123D01*
X111084865Y-88706328D01*
X111092548Y-88707999D01*
X111544669Y-88707999D01*
X111551490Y-88707629D01*
X111602352Y-88702105D01*
X111617604Y-88698479D01*
X111738054Y-88653324D01*
X111753649Y-88644786D01*
X111855724Y-88568285D01*
X111868285Y-88555724D01*
X111944786Y-88453649D01*
X111953324Y-88438054D01*
X111998478Y-88317606D01*
X112002105Y-88302351D01*
X112007631Y-88251486D01*
X112007813Y-88248134D01*
X113791500Y-88248134D01*
X113798255Y-88310316D01*
X113849385Y-88446705D01*
X113936739Y-88563261D01*
X114053295Y-88650615D01*
X114189684Y-88701745D01*
X114251866Y-88708500D01*
X115698134Y-88708500D01*
X115760316Y-88701745D01*
X115896705Y-88650615D01*
X116013261Y-88563261D01*
X116100615Y-88446705D01*
X116122171Y-88389204D01*
X116148972Y-88317714D01*
X116148973Y-88317711D01*
X116151745Y-88310316D01*
X116152372Y-88304547D01*
X116187126Y-88243709D01*
X116250081Y-88210887D01*
X116274493Y-88208500D01*
X116445487Y-88208500D01*
X116451939Y-88207128D01*
X116451944Y-88207128D01*
X116538888Y-88188647D01*
X116632288Y-88168794D01*
X116638319Y-88166109D01*
X116800722Y-88093803D01*
X116800724Y-88093802D01*
X116806752Y-88091118D01*
X116961253Y-87978866D01*
X117039032Y-87892484D01*
X117084621Y-87841852D01*
X117084622Y-87841851D01*
X117089040Y-87836944D01*
X117184527Y-87671556D01*
X117243542Y-87489928D01*
X117245067Y-87475425D01*
X117262814Y-87306565D01*
X117263504Y-87300000D01*
X117246236Y-87135700D01*
X117244232Y-87116635D01*
X117244232Y-87116633D01*
X117243542Y-87110072D01*
X117184527Y-86928444D01*
X117089040Y-86763056D01*
X116961253Y-86621134D01*
X116806752Y-86508882D01*
X116800724Y-86506198D01*
X116800722Y-86506197D01*
X116638319Y-86433891D01*
X116638318Y-86433891D01*
X116632288Y-86431206D01*
X116538887Y-86411353D01*
X116451944Y-86392872D01*
X116451939Y-86392872D01*
X116445487Y-86391500D01*
X116274493Y-86391500D01*
X116206372Y-86371498D01*
X116159879Y-86317842D01*
X116152457Y-86296237D01*
X116151745Y-86289684D01*
X116148972Y-86282285D01*
X116103767Y-86161703D01*
X116100615Y-86153295D01*
X116013261Y-86036739D01*
X115896705Y-85949385D01*
X115760316Y-85898255D01*
X115698134Y-85891500D01*
X114251866Y-85891500D01*
X114189684Y-85898255D01*
X114053295Y-85949385D01*
X113936739Y-86036739D01*
X113849385Y-86153295D01*
X113798255Y-86289684D01*
X113791500Y-86351866D01*
X113791500Y-88248134D01*
X112007813Y-88248134D01*
X112008000Y-88244672D01*
X112008000Y-87572115D01*
X112003525Y-87556876D01*
X112002135Y-87555671D01*
X111994452Y-87554000D01*
X111097115Y-87554000D01*
X111081876Y-87558475D01*
X111080671Y-87559865D01*
X111079000Y-87567548D01*
X111079000Y-88689884D01*
X110571000Y-88689884D01*
X110571000Y-87027885D01*
X111079000Y-87027885D01*
X111083475Y-87043124D01*
X111084865Y-87044329D01*
X111092548Y-87046000D01*
X111989884Y-87046000D01*
X112005123Y-87041525D01*
X112006328Y-87040135D01*
X112007999Y-87032452D01*
X112007999Y-86355331D01*
X112007629Y-86348510D01*
X112002105Y-86297648D01*
X111998479Y-86282396D01*
X111953324Y-86161946D01*
X111944786Y-86146351D01*
X111868285Y-86044276D01*
X111855724Y-86031715D01*
X111753649Y-85955214D01*
X111738054Y-85946676D01*
X111617606Y-85901522D01*
X111602351Y-85897895D01*
X111551486Y-85892369D01*
X111544672Y-85892000D01*
X111097115Y-85892000D01*
X111081876Y-85896475D01*
X111080671Y-85897865D01*
X111079000Y-85905548D01*
X111079000Y-87027885D01*
X110571000Y-87027885D01*
X110571000Y-85910116D01*
X110566525Y-85894877D01*
X110565135Y-85893672D01*
X110557452Y-85892001D01*
X110105331Y-85892001D01*
X110098510Y-85892371D01*
X110047648Y-85897895D01*
X110032396Y-85901521D01*
X109911946Y-85946676D01*
X109896351Y-85955214D01*
X109794276Y-86031715D01*
X109781719Y-86044272D01*
X109709827Y-86140198D01*
X109652967Y-86182713D01*
X109582149Y-86187739D01*
X109519855Y-86153679D01*
X109485865Y-86091348D01*
X109483000Y-86064633D01*
X109483000Y-85334000D01*
X109503002Y-85265879D01*
X109556658Y-85219386D01*
X109609000Y-85208000D01*
X122627261Y-85208000D01*
X122695382Y-85228002D01*
G37*
%TD.AperFunction*%
%TA.AperFunction,Conductor*%
G36*
X119348191Y-110851003D02*
G01*
X119398534Y-110865629D01*
X119404941Y-110866133D01*
X119404945Y-110866134D01*
X119432556Y-110868307D01*
X119432562Y-110868307D01*
X119435011Y-110868500D01*
X119443207Y-110868500D01*
X119745501Y-110868499D01*
X119813620Y-110888501D01*
X119860113Y-110942156D01*
X119871500Y-110994498D01*
X119871501Y-111237999D01*
X119851499Y-111306120D01*
X119797844Y-111352613D01*
X119745501Y-111364000D01*
X118952115Y-111364000D01*
X118936876Y-111368475D01*
X118935671Y-111369865D01*
X118934000Y-111377548D01*
X118934000Y-111868424D01*
X118938344Y-111883219D01*
X118948775Y-111885063D01*
X118958359Y-111883312D01*
X119101784Y-111841643D01*
X119123497Y-111832247D01*
X119124621Y-111834845D01*
X119180348Y-111820701D01*
X119227658Y-111834589D01*
X119228508Y-111832624D01*
X119250217Y-111842019D01*
X119398613Y-111885132D01*
X119397842Y-111887784D01*
X119450474Y-111914287D01*
X119486555Y-111975431D01*
X119489705Y-112019470D01*
X119486496Y-112050000D01*
X119487186Y-112056565D01*
X119491996Y-112102330D01*
X119479224Y-112172168D01*
X119430722Y-112224015D01*
X119366686Y-112241500D01*
X118672804Y-112241500D01*
X118604683Y-112221498D01*
X118558190Y-112167842D01*
X118547494Y-112102330D01*
X118562814Y-111956565D01*
X118563504Y-111950000D01*
X118556965Y-111887784D01*
X118544232Y-111766635D01*
X118544232Y-111766633D01*
X118543542Y-111760072D01*
X118484527Y-111578444D01*
X118481226Y-111572726D01*
X118477276Y-111565884D01*
X118460538Y-111496889D01*
X118465398Y-111467731D01*
X118473013Y-111441522D01*
X118500629Y-111346466D01*
X118502048Y-111328444D01*
X118503307Y-111312444D01*
X118503307Y-111312438D01*
X118503500Y-111309989D01*
X118503499Y-111054499D01*
X118523501Y-110986380D01*
X118577156Y-110939887D01*
X118629499Y-110928500D01*
X118915484Y-110928500D01*
X118917932Y-110928307D01*
X118917940Y-110928307D01*
X118945844Y-110926111D01*
X118945849Y-110926110D01*
X118952254Y-110925606D01*
X119077672Y-110889169D01*
X119101984Y-110882106D01*
X119101986Y-110882105D01*
X119109597Y-110879894D01*
X119137240Y-110863546D01*
X119201379Y-110846000D01*
X119313038Y-110846000D01*
X119348191Y-110851003D01*
G37*
%TD.AperFunction*%
%TA.AperFunction,Conductor*%
G36*
X126813315Y-103026400D02*
G01*
X126870151Y-103068947D01*
X126889115Y-103105519D01*
X126908281Y-103164504D01*
X126911584Y-103170226D01*
X126911585Y-103170227D01*
X126943208Y-103225000D01*
X127003768Y-103329892D01*
X127008186Y-103334799D01*
X127008187Y-103334800D01*
X127086240Y-103421487D01*
X127131555Y-103471814D01*
X127286056Y-103584066D01*
X127292084Y-103586750D01*
X127292086Y-103586751D01*
X127410844Y-103639625D01*
X127460520Y-103661742D01*
X127551215Y-103681020D01*
X127640864Y-103700076D01*
X127640869Y-103700076D01*
X127647321Y-103701448D01*
X127738569Y-103701448D01*
X127806690Y-103721450D01*
X127827664Y-103738353D01*
X127961055Y-103871744D01*
X127995081Y-103934056D01*
X127990016Y-104004871D01*
X127947469Y-104061707D01*
X127898158Y-104084085D01*
X127848639Y-104094611D01*
X127848630Y-104094614D01*
X127842175Y-104095986D01*
X127836145Y-104098671D01*
X127836144Y-104098671D01*
X127673741Y-104170977D01*
X127673739Y-104170978D01*
X127667711Y-104173662D01*
X127513210Y-104285914D01*
X127508789Y-104290824D01*
X127508788Y-104290825D01*
X127464848Y-104339626D01*
X127385423Y-104427836D01*
X127289936Y-104593224D01*
X127230921Y-104774852D01*
X127230231Y-104781413D01*
X127230231Y-104781415D01*
X127213517Y-104940446D01*
X127210959Y-104964780D01*
X127211649Y-104971345D01*
X127220554Y-105056067D01*
X127230921Y-105154708D01*
X127289936Y-105336336D01*
X127294614Y-105344438D01*
X127299269Y-105352501D01*
X127316006Y-105421497D01*
X127292785Y-105488589D01*
X127236977Y-105532475D01*
X127190149Y-105541500D01*
X127101866Y-105541500D01*
X127039684Y-105548255D01*
X126903295Y-105599385D01*
X126786739Y-105686739D01*
X126750824Y-105734660D01*
X126693967Y-105777173D01*
X126623149Y-105782199D01*
X126560855Y-105748139D01*
X126549183Y-105734670D01*
X126513261Y-105686739D01*
X126396705Y-105599385D01*
X126380188Y-105593193D01*
X126340270Y-105578228D01*
X126283505Y-105535586D01*
X126258806Y-105469024D01*
X126258500Y-105460246D01*
X126258500Y-103529239D01*
X126278502Y-103461118D01*
X126295405Y-103440144D01*
X126680188Y-103055361D01*
X126742500Y-103021335D01*
X126813315Y-103026400D01*
G37*
%TD.AperFunction*%
%TA.AperFunction,Conductor*%
G36*
X141240606Y-101186002D02*
G01*
X141287099Y-101239658D01*
X141297572Y-101276862D01*
X141301621Y-101310316D01*
X141311898Y-101395242D01*
X141314584Y-101402350D01*
X141321617Y-101420963D01*
X141326985Y-101491756D01*
X141293227Y-101554213D01*
X141231061Y-101588505D01*
X141203751Y-101591500D01*
X140844516Y-101591500D01*
X140842068Y-101591693D01*
X140842060Y-101591693D01*
X140814156Y-101593889D01*
X140814151Y-101593890D01*
X140807746Y-101594394D01*
X140719213Y-101620115D01*
X140658016Y-101637894D01*
X140658014Y-101637895D01*
X140650403Y-101640106D01*
X140643581Y-101644141D01*
X140643580Y-101644141D01*
X140622760Y-101656454D01*
X140558621Y-101674000D01*
X140481379Y-101674000D01*
X140417240Y-101656454D01*
X140396420Y-101644141D01*
X140396419Y-101644141D01*
X140389597Y-101640106D01*
X140381986Y-101637895D01*
X140381984Y-101637894D01*
X140320787Y-101620115D01*
X140232254Y-101594394D01*
X140225849Y-101593890D01*
X140225844Y-101593889D01*
X140197940Y-101591693D01*
X140197932Y-101591693D01*
X140195484Y-101591500D01*
X140084020Y-101591500D01*
X140015899Y-101571498D01*
X139969406Y-101517842D01*
X139958020Y-101465500D01*
X139958020Y-101292000D01*
X139978022Y-101223879D01*
X140031678Y-101177386D01*
X140084020Y-101166000D01*
X141172485Y-101166000D01*
X141240606Y-101186002D01*
G37*
%TD.AperFunction*%
%TA.AperFunction,Conductor*%
G36*
X150318887Y-87247701D02*
G01*
X150360070Y-87305533D01*
X150367000Y-87346744D01*
X150367000Y-95991464D01*
X150346998Y-96059585D01*
X150293342Y-96106078D01*
X150223068Y-96116182D01*
X150158488Y-96086688D01*
X150124730Y-96039267D01*
X150123908Y-96036466D01*
X150121164Y-96031138D01*
X150121163Y-96031135D01*
X150029804Y-95853751D01*
X150029802Y-95853748D01*
X150027058Y-95848420D01*
X149896396Y-95682080D01*
X149758627Y-95562530D01*
X149720288Y-95502779D01*
X149716095Y-95452448D01*
X149732762Y-95312673D01*
X149733596Y-95305680D01*
X149727189Y-95244717D01*
X149715372Y-95132288D01*
X149715371Y-95132286D01*
X149714636Y-95125288D01*
X149656182Y-94953579D01*
X149561138Y-94799088D01*
X149556207Y-94794053D01*
X149556205Y-94794050D01*
X149439157Y-94674525D01*
X149439156Y-94674524D01*
X149434229Y-94669493D01*
X149281762Y-94571235D01*
X149275142Y-94568826D01*
X149275139Y-94568824D01*
X149117934Y-94511606D01*
X149117933Y-94511606D01*
X149111315Y-94509197D01*
X148971231Y-94491500D01*
X148874390Y-94491500D01*
X148739745Y-94506603D01*
X148733092Y-94508920D01*
X148733091Y-94508920D01*
X148575106Y-94563936D01*
X148575103Y-94563938D01*
X148568448Y-94566255D01*
X148562469Y-94569991D01*
X148554367Y-94575054D01*
X148414624Y-94662374D01*
X148409628Y-94667335D01*
X148409627Y-94667336D01*
X148290915Y-94785222D01*
X148290912Y-94785226D01*
X148285918Y-94790185D01*
X148188727Y-94943334D01*
X148186362Y-94949976D01*
X148130243Y-95107575D01*
X148130242Y-95107580D01*
X148127881Y-95114210D01*
X148127048Y-95121198D01*
X148127047Y-95121201D01*
X148119520Y-95184325D01*
X148106404Y-95294320D01*
X148107140Y-95301323D01*
X148107140Y-95301324D01*
X148123176Y-95453891D01*
X148125364Y-95474712D01*
X148149587Y-95545867D01*
X148171890Y-95611381D01*
X148183818Y-95646421D01*
X148193696Y-95662477D01*
X148212354Y-95730978D01*
X148192230Y-95796847D01*
X148101380Y-95937548D01*
X148099137Y-95943114D01*
X148036902Y-96097540D01*
X148022314Y-96133737D01*
X147981772Y-96341337D01*
X147981500Y-96346899D01*
X147981500Y-97002846D01*
X147996548Y-97160566D01*
X148056092Y-97363534D01*
X148058836Y-97368861D01*
X148058836Y-97368862D01*
X148120965Y-97489492D01*
X148152942Y-97551580D01*
X148190327Y-97599173D01*
X148279898Y-97713203D01*
X148279902Y-97713207D01*
X148283604Y-97717920D01*
X148288134Y-97721851D01*
X148288135Y-97721852D01*
X148320234Y-97749706D01*
X148358574Y-97809459D01*
X148362916Y-97858479D01*
X148362369Y-97863514D01*
X148362000Y-97870328D01*
X148362000Y-97896885D01*
X148366475Y-97912124D01*
X148367865Y-97913329D01*
X148384765Y-97917005D01*
X148447078Y-97951030D01*
X148481103Y-98013342D01*
X148476039Y-98084157D01*
X148458811Y-98115688D01*
X148439542Y-98141400D01*
X148382684Y-98183917D01*
X148374211Y-98186734D01*
X148364877Y-98189475D01*
X148363672Y-98190865D01*
X148362001Y-98198548D01*
X148362001Y-98229669D01*
X148362371Y-98236491D01*
X148367538Y-98284069D01*
X148367538Y-98311281D01*
X148361500Y-98366866D01*
X148361500Y-98733134D01*
X148367286Y-98786396D01*
X148367286Y-98813604D01*
X148365602Y-98829109D01*
X148338359Y-98894671D01*
X148279996Y-98935097D01*
X148240339Y-98941500D01*
X147298143Y-98941500D01*
X147281697Y-98940422D01*
X147258188Y-98937327D01*
X147250000Y-98936249D01*
X147241812Y-98937327D01*
X147218303Y-98940422D01*
X147201857Y-98941500D01*
X147149661Y-98941500D01*
X147081540Y-98921498D01*
X147035047Y-98867842D01*
X147024398Y-98829109D01*
X147022714Y-98813604D01*
X147022714Y-98786396D01*
X147028500Y-98733134D01*
X147028500Y-98366866D01*
X147022462Y-98311281D01*
X147022462Y-98284068D01*
X147027631Y-98236486D01*
X147028000Y-98229672D01*
X147028000Y-98203115D01*
X147023525Y-98187876D01*
X147021331Y-98185974D01*
X146960603Y-98152815D01*
X146948873Y-98139285D01*
X146931003Y-98115441D01*
X146906155Y-98048934D01*
X146921208Y-97979552D01*
X146971382Y-97929322D01*
X146996330Y-97918980D01*
X147025123Y-97910525D01*
X147026328Y-97909135D01*
X147027999Y-97901452D01*
X147027999Y-97870331D01*
X147027629Y-97863510D01*
X147022105Y-97812650D01*
X147018478Y-97797393D01*
X147004958Y-97761328D01*
X146999775Y-97690521D01*
X147023169Y-97640893D01*
X147023881Y-97640150D01*
X147031989Y-97627594D01*
X147081564Y-97550815D01*
X147138620Y-97462452D01*
X147196373Y-97319147D01*
X147215442Y-97271832D01*
X147215443Y-97271829D01*
X147217686Y-97266263D01*
X147258228Y-97058663D01*
X147258500Y-97053101D01*
X147258500Y-96397154D01*
X147243452Y-96239434D01*
X147183908Y-96036466D01*
X147181162Y-96031135D01*
X147089804Y-95853751D01*
X147089802Y-95853748D01*
X147087058Y-95848420D01*
X146956396Y-95682080D01*
X146951865Y-95678148D01*
X146951862Y-95678145D01*
X146801167Y-95547379D01*
X146796637Y-95543448D01*
X146791451Y-95540448D01*
X146791447Y-95540445D01*
X146618742Y-95440533D01*
X146613546Y-95437527D01*
X146413729Y-95368139D01*
X146407794Y-95367278D01*
X146407792Y-95367278D01*
X146210336Y-95338648D01*
X146210333Y-95338648D01*
X146204396Y-95337787D01*
X145993101Y-95347567D01*
X145861923Y-95379181D01*
X145793299Y-95395719D01*
X145793297Y-95395720D01*
X145787466Y-95397125D01*
X145782008Y-95399607D01*
X145782004Y-95399608D01*
X145678421Y-95446705D01*
X145594913Y-95484674D01*
X145422389Y-95607054D01*
X145276119Y-95759850D01*
X145161380Y-95937548D01*
X145159137Y-95943114D01*
X145096902Y-96097540D01*
X145082314Y-96133737D01*
X145041772Y-96341337D01*
X145041500Y-96346899D01*
X145041500Y-97002846D01*
X145056548Y-97160566D01*
X145087556Y-97266263D01*
X145116092Y-97363534D01*
X145114371Y-97364039D01*
X145120305Y-97426399D01*
X145087751Y-97489492D01*
X145072155Y-97503337D01*
X145014276Y-97546715D01*
X145001715Y-97559276D01*
X144925214Y-97661351D01*
X144916676Y-97676946D01*
X144871522Y-97797394D01*
X144867895Y-97812649D01*
X144862369Y-97863514D01*
X144862000Y-97870328D01*
X144862000Y-97896885D01*
X144866475Y-97912124D01*
X144867865Y-97913329D01*
X144884765Y-97917005D01*
X144947078Y-97951030D01*
X144981103Y-98013342D01*
X144976039Y-98084157D01*
X144958811Y-98115688D01*
X144939542Y-98141400D01*
X144882684Y-98183917D01*
X144874211Y-98186734D01*
X144864877Y-98189475D01*
X144863672Y-98190865D01*
X144862001Y-98198548D01*
X144862001Y-98229669D01*
X144862371Y-98236491D01*
X144867538Y-98284069D01*
X144867538Y-98311281D01*
X144861500Y-98366866D01*
X144861500Y-98715500D01*
X144841498Y-98783621D01*
X144787842Y-98830114D01*
X144735500Y-98841500D01*
X143569660Y-98841500D01*
X143501539Y-98821498D01*
X143455046Y-98767842D01*
X143444942Y-98697568D01*
X143474436Y-98632988D01*
X143480565Y-98626405D01*
X144380520Y-97726450D01*
X144386785Y-97720596D01*
X144424660Y-97687555D01*
X144430385Y-97682561D01*
X144467114Y-97630300D01*
X144471046Y-97625005D01*
X144505791Y-97580694D01*
X144510477Y-97574718D01*
X144513602Y-97567796D01*
X144514964Y-97565548D01*
X144523368Y-97550815D01*
X144524622Y-97548476D01*
X144528990Y-97542261D01*
X144531749Y-97535185D01*
X144531751Y-97535181D01*
X144552200Y-97482731D01*
X144554749Y-97476666D01*
X144581045Y-97418427D01*
X144582429Y-97410962D01*
X144583226Y-97408418D01*
X144587859Y-97392152D01*
X144588521Y-97389572D01*
X144591282Y-97382491D01*
X144599622Y-97319143D01*
X144600653Y-97312629D01*
X144606806Y-97279435D01*
X144612296Y-97249813D01*
X144608709Y-97187602D01*
X144608500Y-97180349D01*
X144608500Y-93308134D01*
X147891500Y-93308134D01*
X147898255Y-93370316D01*
X147949385Y-93506705D01*
X148036739Y-93623261D01*
X148153295Y-93710615D01*
X148289684Y-93761745D01*
X148351866Y-93768500D01*
X149448134Y-93768500D01*
X149510316Y-93761745D01*
X149646705Y-93710615D01*
X149763261Y-93623261D01*
X149850615Y-93506705D01*
X149901745Y-93370316D01*
X149908500Y-93308134D01*
X149908500Y-92211866D01*
X149901745Y-92149684D01*
X149850615Y-92013295D01*
X149845229Y-92006108D01*
X149840921Y-91998240D01*
X149842789Y-91997217D01*
X149822139Y-91941945D01*
X149828255Y-91893117D01*
X149872142Y-91761189D01*
X149872643Y-91747097D01*
X149866454Y-91744000D01*
X147942282Y-91744000D01*
X147928751Y-91747973D01*
X147927601Y-91755975D01*
X147956552Y-91856941D01*
X147961068Y-91868346D01*
X147964480Y-91874985D01*
X147977831Y-91944715D01*
X147957432Y-91997338D01*
X147959079Y-91998240D01*
X147954771Y-92006108D01*
X147949385Y-92013295D01*
X147898255Y-92149684D01*
X147891500Y-92211866D01*
X147891500Y-93308134D01*
X144608500Y-93308134D01*
X144608500Y-90408762D01*
X144608502Y-90408102D01*
X144608838Y-90343953D01*
X144608974Y-90317969D01*
X144600190Y-90281379D01*
X144597622Y-90267105D01*
X144594015Y-90237300D01*
X144594015Y-90237298D01*
X144593102Y-90229758D01*
X144589415Y-90220000D01*
X144581355Y-90198670D01*
X144576701Y-90183543D01*
X144570715Y-90158606D01*
X144570713Y-90158602D01*
X144568942Y-90151223D01*
X144551682Y-90117781D01*
X144545786Y-90104539D01*
X144535173Y-90076451D01*
X144535171Y-90076448D01*
X144532487Y-90069344D01*
X144513655Y-90041944D01*
X144505541Y-90028387D01*
X144490291Y-89998839D01*
X144485300Y-89993118D01*
X144485296Y-89993112D01*
X144465558Y-89970487D01*
X144456664Y-89959021D01*
X144439661Y-89934280D01*
X144439656Y-89934275D01*
X144435357Y-89928019D01*
X144410537Y-89905905D01*
X144399412Y-89894662D01*
X144382557Y-89875341D01*
X144382553Y-89875338D01*
X144377561Y-89869615D01*
X144371347Y-89865247D01*
X144371344Y-89865245D01*
X144346778Y-89847979D01*
X144335414Y-89838972D01*
X144323614Y-89828459D01*
X144307321Y-89813943D01*
X144300612Y-89810391D01*
X144300608Y-89810388D01*
X144277946Y-89798389D01*
X144264466Y-89790129D01*
X144260857Y-89787593D01*
X144216621Y-89732062D01*
X144209429Y-89661431D01*
X144241565Y-89598124D01*
X144302826Y-89562240D01*
X144333299Y-89558500D01*
X145748529Y-89558500D01*
X145816650Y-89578502D01*
X145863143Y-89632158D01*
X145873247Y-89702432D01*
X145868363Y-89723432D01*
X145856458Y-89760072D01*
X145855768Y-89766633D01*
X145855768Y-89766635D01*
X145841130Y-89905906D01*
X145836496Y-89950000D01*
X145837186Y-89956565D01*
X145853325Y-90110115D01*
X145856458Y-90139928D01*
X145915473Y-90321556D01*
X145918776Y-90327278D01*
X145918777Y-90327279D01*
X145940690Y-90365233D01*
X146010960Y-90486944D01*
X146015378Y-90491851D01*
X146015379Y-90491852D01*
X146066060Y-90548139D01*
X146138747Y-90628866D01*
X146293248Y-90741118D01*
X146299276Y-90743802D01*
X146299278Y-90743803D01*
X146437473Y-90805331D01*
X146467712Y-90818794D01*
X146537044Y-90833531D01*
X146648056Y-90857128D01*
X146648061Y-90857128D01*
X146654513Y-90858500D01*
X146845487Y-90858500D01*
X146851942Y-90857128D01*
X146851951Y-90857127D01*
X146962957Y-90833531D01*
X147005601Y-90831855D01*
X147020000Y-90833751D01*
X147051699Y-90829578D01*
X147068144Y-90828500D01*
X147900278Y-90828500D01*
X147968399Y-90848502D01*
X148014892Y-90902158D01*
X148024996Y-90972432D01*
X148010692Y-91015201D01*
X147971998Y-91085585D01*
X147967166Y-91096858D01*
X147928506Y-91218731D01*
X147928202Y-91232831D01*
X147934763Y-91236000D01*
X149858183Y-91236000D01*
X149871714Y-91232027D01*
X149872806Y-91224433D01*
X149838231Y-91109919D01*
X149833560Y-91098586D01*
X149746537Y-90934918D01*
X149739435Y-90924228D01*
X149718398Y-90856420D01*
X149734827Y-90792264D01*
X149822723Y-90637542D01*
X149822725Y-90637537D01*
X149825769Y-90632179D01*
X149888197Y-90444513D01*
X149912985Y-90248295D01*
X149913380Y-90220000D01*
X149894080Y-90023167D01*
X149888000Y-90003027D01*
X149857085Y-89900634D01*
X149836916Y-89833831D01*
X149744066Y-89659204D01*
X149740167Y-89654424D01*
X149739715Y-89653743D01*
X149718676Y-89585935D01*
X149735105Y-89521775D01*
X149822723Y-89367542D01*
X149822725Y-89367537D01*
X149825769Y-89362179D01*
X149888197Y-89174513D01*
X149912985Y-88978295D01*
X149913380Y-88950000D01*
X149894080Y-88753167D01*
X149883283Y-88717404D01*
X149863118Y-88650615D01*
X149836916Y-88563831D01*
X149744066Y-88389204D01*
X149740167Y-88384424D01*
X149739715Y-88383743D01*
X149718676Y-88315935D01*
X149735105Y-88251775D01*
X149737174Y-88248134D01*
X149760468Y-88207128D01*
X149822723Y-88097542D01*
X149822725Y-88097537D01*
X149825769Y-88092179D01*
X149888197Y-87904513D01*
X149912985Y-87708295D01*
X149913380Y-87680000D01*
X149911392Y-87659726D01*
X149905545Y-87600091D01*
X149918805Y-87530344D01*
X149941848Y-87498701D01*
X149995740Y-87444808D01*
X150008132Y-87433940D01*
X150026947Y-87419503D01*
X150026948Y-87419502D01*
X150033498Y-87414476D01*
X150110312Y-87314371D01*
X150131035Y-87287365D01*
X150132962Y-87282714D01*
X150183263Y-87234751D01*
X150252976Y-87221314D01*
X150318887Y-87247701D01*
G37*
%TD.AperFunction*%
%TA.AperFunction,Conductor*%
G36*
X143133621Y-91128502D02*
G01*
X143180114Y-91182158D01*
X143191500Y-91234500D01*
X143191500Y-91265500D01*
X143171498Y-91333621D01*
X143117842Y-91380114D01*
X143065500Y-91391500D01*
X143004513Y-91391500D01*
X142998061Y-91392872D01*
X142998056Y-91392872D01*
X142970197Y-91398794D01*
X142899406Y-91393392D01*
X142842773Y-91350575D01*
X142818280Y-91283937D01*
X142818000Y-91275547D01*
X142818000Y-91234500D01*
X142838002Y-91166379D01*
X142891658Y-91119886D01*
X142944000Y-91108500D01*
X143065500Y-91108500D01*
X143133621Y-91128502D01*
G37*
%TD.AperFunction*%
%TA.AperFunction,Conductor*%
G36*
X139148262Y-87007558D02*
G01*
X139164867Y-87009194D01*
X139168960Y-87009665D01*
X139191812Y-87012673D01*
X139191813Y-87012673D01*
X139200002Y-87013751D01*
X139231697Y-87009578D01*
X139248144Y-87008500D01*
X147905203Y-87008500D01*
X147973324Y-87028502D01*
X148019817Y-87082158D01*
X148029921Y-87152432D01*
X148015618Y-87195201D01*
X147968567Y-87280787D01*
X147966706Y-87286654D01*
X147966705Y-87286656D01*
X147919984Y-87433940D01*
X147908765Y-87469306D01*
X147886719Y-87665851D01*
X147889987Y-87704771D01*
X147902612Y-87855118D01*
X147903268Y-87862934D01*
X147957783Y-88053050D01*
X147980649Y-88097542D01*
X148011672Y-88157905D01*
X148025020Y-88227635D01*
X147998550Y-88293513D01*
X147940666Y-88334622D01*
X147899606Y-88341500D01*
X132498136Y-88341500D01*
X132481690Y-88340422D01*
X132458188Y-88337328D01*
X132450000Y-88336250D01*
X132441812Y-88337328D01*
X132410129Y-88341499D01*
X132410120Y-88341500D01*
X132410115Y-88341500D01*
X132291150Y-88357162D01*
X132143125Y-88418476D01*
X132143123Y-88418477D01*
X132143124Y-88418477D01*
X132047928Y-88491523D01*
X132047925Y-88491526D01*
X132016013Y-88516013D01*
X132010983Y-88522568D01*
X131996548Y-88541379D01*
X131985681Y-88553770D01*
X131443594Y-89095857D01*
X131381282Y-89129883D01*
X131310467Y-89124818D01*
X131253631Y-89082271D01*
X131228820Y-89015751D01*
X131228499Y-89006762D01*
X131228499Y-88910012D01*
X131225629Y-88873534D01*
X131180269Y-88717404D01*
X131148477Y-88663647D01*
X131131018Y-88594834D01*
X131148478Y-88535370D01*
X131175771Y-88489220D01*
X131182019Y-88474783D01*
X131214961Y-88361395D01*
X131214921Y-88347295D01*
X131207651Y-88344000D01*
X130737542Y-88344000D01*
X130702390Y-88338997D01*
X130692647Y-88336166D01*
X130692640Y-88336165D01*
X130686466Y-88334371D01*
X130680059Y-88333867D01*
X130680055Y-88333866D01*
X130652444Y-88331693D01*
X130652438Y-88331693D01*
X130649989Y-88331500D01*
X130400152Y-88331500D01*
X130150012Y-88331501D01*
X130113534Y-88334371D01*
X130107352Y-88336167D01*
X130107347Y-88336168D01*
X130097610Y-88338997D01*
X130062458Y-88344000D01*
X129598100Y-88344000D01*
X129584569Y-88347973D01*
X129583434Y-88355871D01*
X129617981Y-88474783D01*
X129624229Y-88489220D01*
X129651522Y-88535370D01*
X129668982Y-88604187D01*
X129651523Y-88663646D01*
X129619731Y-88717404D01*
X129574371Y-88873534D01*
X129573867Y-88879941D01*
X129573866Y-88879945D01*
X129571693Y-88907556D01*
X129571500Y-88910011D01*
X129571501Y-89309988D01*
X129574371Y-89346466D01*
X129602797Y-89444308D01*
X129602594Y-89515304D01*
X129570895Y-89568556D01*
X129253766Y-89885685D01*
X129241375Y-89896552D01*
X129216013Y-89916013D01*
X129191526Y-89947925D01*
X129191523Y-89947928D01*
X129191517Y-89947936D01*
X129124387Y-90035421D01*
X129118476Y-90043124D01*
X129065728Y-90170470D01*
X129057162Y-90191150D01*
X129056084Y-90199338D01*
X129046184Y-90274534D01*
X129017461Y-90339461D01*
X128965491Y-90376069D01*
X128903295Y-90399385D01*
X128896116Y-90404765D01*
X128896113Y-90404767D01*
X128827699Y-90456041D01*
X128786739Y-90486739D01*
X128750824Y-90534660D01*
X128693967Y-90577173D01*
X128623149Y-90582199D01*
X128560855Y-90548139D01*
X128549183Y-90534670D01*
X128513261Y-90486739D01*
X128464728Y-90450365D01*
X128427003Y-90422092D01*
X128384488Y-90365233D01*
X128379462Y-90294414D01*
X128402606Y-90244561D01*
X128413965Y-90229758D01*
X128426498Y-90213425D01*
X128431524Y-90206875D01*
X128441189Y-90183543D01*
X128489678Y-90066479D01*
X128492838Y-90058850D01*
X128495923Y-90035421D01*
X128508500Y-89939885D01*
X128508500Y-89939878D01*
X128512672Y-89908188D01*
X128513750Y-89900000D01*
X128509578Y-89868307D01*
X128508500Y-89851864D01*
X128508500Y-89783737D01*
X128528502Y-89715616D01*
X128545405Y-89694642D01*
X128597506Y-89642541D01*
X128601540Y-89635720D01*
X128676234Y-89509419D01*
X128676234Y-89509418D01*
X128680269Y-89502596D01*
X128691058Y-89465462D01*
X128723834Y-89352644D01*
X128725629Y-89346466D01*
X128726135Y-89340047D01*
X128728307Y-89312444D01*
X128728307Y-89312438D01*
X128728500Y-89309989D01*
X128728499Y-88910012D01*
X128725629Y-88873534D01*
X128680269Y-88717404D01*
X128676233Y-88710579D01*
X128676231Y-88710575D01*
X128648769Y-88664139D01*
X128631309Y-88595323D01*
X128648769Y-88535861D01*
X128676231Y-88489425D01*
X128676233Y-88489421D01*
X128680269Y-88482596D01*
X128725629Y-88326466D01*
X128726327Y-88317606D01*
X128728307Y-88292444D01*
X128728307Y-88292438D01*
X128728500Y-88289989D01*
X128728499Y-87890012D01*
X128725629Y-87853534D01*
X128715481Y-87818605D01*
X129585039Y-87818605D01*
X129585079Y-87832705D01*
X129592349Y-87836000D01*
X130127885Y-87836000D01*
X130143124Y-87831525D01*
X130144329Y-87830135D01*
X130146000Y-87822452D01*
X130146000Y-87817885D01*
X130654000Y-87817885D01*
X130658475Y-87833124D01*
X130659865Y-87834329D01*
X130667548Y-87836000D01*
X131201900Y-87836000D01*
X131215431Y-87832027D01*
X131216566Y-87824129D01*
X131182019Y-87705217D01*
X131175770Y-87690778D01*
X131101146Y-87564595D01*
X131091499Y-87552159D01*
X130987841Y-87448501D01*
X130975405Y-87438854D01*
X130849222Y-87364230D01*
X130834783Y-87357981D01*
X130692564Y-87316662D01*
X130679977Y-87314363D01*
X130672057Y-87313740D01*
X130656970Y-87316910D01*
X130654000Y-87328374D01*
X130654000Y-87817885D01*
X130146000Y-87817885D01*
X130146000Y-87330434D01*
X130141656Y-87315639D01*
X130129997Y-87313579D01*
X130120023Y-87314363D01*
X130107436Y-87316662D01*
X129965217Y-87357981D01*
X129950778Y-87364230D01*
X129824595Y-87438854D01*
X129812159Y-87448501D01*
X129708501Y-87552159D01*
X129698854Y-87564595D01*
X129624230Y-87690778D01*
X129617981Y-87705217D01*
X129585039Y-87818605D01*
X128715481Y-87818605D01*
X128680269Y-87697404D01*
X128629743Y-87611968D01*
X128601540Y-87564280D01*
X128597506Y-87557459D01*
X128482541Y-87442494D01*
X128424090Y-87407926D01*
X128349419Y-87363766D01*
X128349418Y-87363766D01*
X128342596Y-87359731D01*
X128334985Y-87357520D01*
X128334983Y-87357519D01*
X128241755Y-87330434D01*
X128186466Y-87314371D01*
X128180059Y-87313867D01*
X128180055Y-87313866D01*
X128152444Y-87311693D01*
X128152438Y-87311693D01*
X128149989Y-87311500D01*
X127900152Y-87311500D01*
X127650012Y-87311501D01*
X127613534Y-87314371D01*
X127516730Y-87342495D01*
X127465017Y-87357519D01*
X127465015Y-87357520D01*
X127457404Y-87359731D01*
X127450577Y-87363769D01*
X127450576Y-87363769D01*
X127450264Y-87363953D01*
X127449953Y-87364038D01*
X127443305Y-87366915D01*
X127442896Y-87365969D01*
X127386125Y-87381500D01*
X127221405Y-87381500D01*
X127153284Y-87361498D01*
X127147344Y-87357436D01*
X127072094Y-87302763D01*
X127072093Y-87302762D01*
X127066752Y-87298882D01*
X127060724Y-87296198D01*
X127060722Y-87296197D01*
X126956078Y-87249607D01*
X126901982Y-87203627D01*
X126881333Y-87135700D01*
X126900685Y-87067392D01*
X126953896Y-87020390D01*
X127007327Y-87008500D01*
X135813704Y-87008500D01*
X135881825Y-87028502D01*
X135928318Y-87082158D01*
X135938626Y-87118055D01*
X135939374Y-87123737D01*
X135939844Y-87127821D01*
X135954645Y-87278097D01*
X136006594Y-87449350D01*
X136009510Y-87454805D01*
X136009511Y-87454808D01*
X136049886Y-87530344D01*
X136090955Y-87607178D01*
X136094886Y-87611968D01*
X136143789Y-87671556D01*
X136204485Y-87745515D01*
X136209270Y-87749442D01*
X136315892Y-87836944D01*
X136342822Y-87859045D01*
X136348285Y-87861965D01*
X136495192Y-87940489D01*
X136495195Y-87940490D01*
X136500650Y-87943406D01*
X136671903Y-87995355D01*
X136822179Y-88010156D01*
X136826243Y-88010624D01*
X136850000Y-88013751D01*
X136873757Y-88010624D01*
X136877821Y-88010156D01*
X137028097Y-87995355D01*
X137199350Y-87943406D01*
X137204805Y-87940490D01*
X137204808Y-87940489D01*
X137351719Y-87861963D01*
X137351720Y-87861963D01*
X137357178Y-87859045D01*
X137370066Y-87848468D01*
X137435413Y-87820714D01*
X137505391Y-87832696D01*
X137529933Y-87848468D01*
X137542822Y-87859045D01*
X137548280Y-87861963D01*
X137548281Y-87861963D01*
X137695192Y-87940489D01*
X137695195Y-87940490D01*
X137700650Y-87943406D01*
X137871903Y-87995355D01*
X138022179Y-88010156D01*
X138026243Y-88010624D01*
X138050000Y-88013751D01*
X138073757Y-88010624D01*
X138077821Y-88010156D01*
X138228097Y-87995355D01*
X138399350Y-87943406D01*
X138404805Y-87940490D01*
X138404808Y-87940489D01*
X138551715Y-87861965D01*
X138557178Y-87859045D01*
X138584108Y-87836944D01*
X138690730Y-87749442D01*
X138695515Y-87745515D01*
X138756212Y-87671556D01*
X138805114Y-87611968D01*
X138809045Y-87607178D01*
X138850114Y-87530344D01*
X138890489Y-87454808D01*
X138890490Y-87454805D01*
X138893406Y-87449350D01*
X138945355Y-87278097D01*
X138960156Y-87127821D01*
X138960619Y-87123796D01*
X138962211Y-87111701D01*
X138990930Y-87046777D01*
X139050193Y-87007683D01*
X139099482Y-87002754D01*
X139148262Y-87007558D01*
G37*
%TD.AperFunction*%
%TD*%
M02*
