%TF.GenerationSoftware,KiCad,Pcbnew,(6.0.0)*%
%TF.CreationDate,2022-02-02T23:07:07+08:00*%
%TF.ProjectId,screen,73637265-656e-42e6-9b69-6361645f7063,rev?*%
%TF.SameCoordinates,Original*%
%TF.FileFunction,Soldermask,Top*%
%TF.FilePolarity,Negative*%
%FSLAX46Y46*%
G04 Gerber Fmt 4.6, Leading zero omitted, Abs format (unit mm)*
G04 Created by KiCad (PCBNEW (6.0.0)) date 2022-02-02 23:07:07*
%MOMM*%
%LPD*%
G01*
G04 APERTURE LIST*
G04 Aperture macros list*
%AMRoundRect*
0 Rectangle with rounded corners*
0 $1 Rounding radius*
0 $2 $3 $4 $5 $6 $7 $8 $9 X,Y pos of 4 corners*
0 Add a 4 corners polygon primitive as box body*
4,1,4,$2,$3,$4,$5,$6,$7,$8,$9,$2,$3,0*
0 Add four circle primitives for the rounded corners*
1,1,$1+$1,$2,$3*
1,1,$1+$1,$4,$5*
1,1,$1+$1,$6,$7*
1,1,$1+$1,$8,$9*
0 Add four rect primitives between the rounded corners*
20,1,$1+$1,$2,$3,$4,$5,0*
20,1,$1+$1,$4,$5,$6,$7,0*
20,1,$1+$1,$6,$7,$8,$9,0*
20,1,$1+$1,$8,$9,$2,$3,0*%
G04 Aperture macros list end*
%ADD10RoundRect,0.140000X0.170000X-0.140000X0.170000X0.140000X-0.170000X0.140000X-0.170000X-0.140000X0*%
%ADD11RoundRect,0.135000X0.185000X-0.135000X0.185000X0.135000X-0.185000X0.135000X-0.185000X-0.135000X0*%
%ADD12R,4.000000X2.900000*%
%ADD13O,0.600000X1.600000*%
%ADD14RoundRect,0.135000X-0.185000X0.135000X-0.185000X-0.135000X0.185000X-0.135000X0.185000X0.135000X0*%
%ADD15C,0.600000*%
%ADD16R,1.150000X0.270000*%
%ADD17O,1.200000X1.700000*%
%ADD18R,1.000000X1.000000*%
%ADD19O,1.000000X1.000000*%
%ADD20RoundRect,0.147500X0.172500X-0.147500X0.172500X0.147500X-0.172500X0.147500X-0.172500X-0.147500X0*%
%ADD21R,1.800000X2.600000*%
%ADD22R,1.000000X0.800000*%
%ADD23C,0.900000*%
%ADD24R,0.700000X1.500000*%
%ADD25R,1.700000X1.700000*%
%ADD26O,1.700000X1.700000*%
%ADD27R,1.350000X1.800000*%
%ADD28R,1.000000X2.500000*%
%ADD29R,1.800000X1.000000*%
%ADD30RoundRect,0.150000X0.512500X0.150000X-0.512500X0.150000X-0.512500X-0.150000X0.512500X-0.150000X0*%
%ADD31RoundRect,0.147500X-0.172500X0.147500X-0.172500X-0.147500X0.172500X-0.147500X0.172500X0.147500X0*%
%ADD32C,1.000000*%
G04 APERTURE END LIST*
D10*
%TO.C,C7*%
X141080000Y-102380000D03*
X141080000Y-101420000D03*
%TD*%
D11*
%TO.C,R14*%
X139855000Y-92090000D03*
X139855000Y-91070000D03*
%TD*%
D12*
%TO.C,U2*%
X140100000Y-97100000D03*
D13*
X138195000Y-99700000D03*
X139465000Y-99700000D03*
X140735000Y-99700000D03*
X142005000Y-99700000D03*
X142005000Y-94500000D03*
X140735000Y-94500000D03*
X139465000Y-94500000D03*
X138195000Y-94500000D03*
%TD*%
D14*
%TO.C,R7*%
X117675000Y-110090000D03*
X117675000Y-111110000D03*
%TD*%
D15*
%TO.C,J1*%
X148920000Y-95300000D03*
X148920000Y-106300000D03*
D16*
X149445000Y-98050000D03*
X149445000Y-98550000D03*
X149445000Y-99050000D03*
X149445000Y-99550000D03*
X149445000Y-100050000D03*
X149445000Y-100550000D03*
X149445000Y-101050000D03*
X149445000Y-101550000D03*
X149445000Y-102050000D03*
X149445000Y-102550000D03*
X149445000Y-103050000D03*
X149445000Y-103550000D03*
X145945000Y-103550000D03*
X145945000Y-103050000D03*
X145945000Y-102550000D03*
X145945000Y-102050000D03*
X145945000Y-101550000D03*
X145945000Y-101050000D03*
X145945000Y-100550000D03*
X145945000Y-100050000D03*
X145945000Y-99550000D03*
X145945000Y-99050000D03*
X145945000Y-98550000D03*
X145945000Y-98050000D03*
D17*
X146150000Y-104899999D03*
X146150000Y-96700000D03*
X149090000Y-96700000D03*
X149090000Y-104899999D03*
%TD*%
D18*
%TO.C,J2*%
X148900000Y-92760000D03*
D19*
X148900000Y-91490000D03*
X148900000Y-90220000D03*
X148900000Y-88950000D03*
X148900000Y-87680000D03*
X148900000Y-86410000D03*
%TD*%
D20*
%TO.C,D2*%
X146250000Y-113885000D03*
X146250000Y-112915000D03*
%TD*%
D10*
%TO.C,C6*%
X142000000Y-92060000D03*
X142000000Y-91100000D03*
%TD*%
%TO.C,C2*%
X137700000Y-102380000D03*
X137700000Y-101420000D03*
%TD*%
D20*
%TO.C,D3*%
X144875000Y-113885000D03*
X144875000Y-112915000D03*
%TD*%
D10*
%TO.C,C5*%
X142200000Y-102380000D03*
X142200000Y-101420000D03*
%TD*%
D11*
%TO.C,R4*%
X122900000Y-89110000D03*
X122900000Y-88090000D03*
%TD*%
%TO.C,R9*%
X137700000Y-92090000D03*
X137700000Y-91070000D03*
%TD*%
%TO.C,R10*%
X122730000Y-111110000D03*
X122730000Y-110090000D03*
%TD*%
%TO.C,R2*%
X125400000Y-89110000D03*
X125400000Y-88090000D03*
%TD*%
D21*
%TO.C,C3*%
X131200000Y-110600000D03*
X128200000Y-110600000D03*
%TD*%
D11*
%TO.C,R5*%
X138830000Y-102410000D03*
X138830000Y-101390000D03*
%TD*%
D22*
%TO.C,SW3*%
X142950000Y-112530000D03*
D23*
X137800000Y-111430000D03*
D22*
X142950000Y-110320000D03*
X135650000Y-112530000D03*
D23*
X140800000Y-111430000D03*
D22*
X135650000Y-110320000D03*
D24*
X137050000Y-109670000D03*
X140050000Y-109670000D03*
X141550000Y-109670000D03*
%TD*%
D14*
%TO.C,R12*%
X121715000Y-110090000D03*
X121715000Y-111110000D03*
%TD*%
D25*
%TO.C,J3*%
X148650000Y-111900000D03*
D26*
X148650000Y-109360000D03*
%TD*%
D27*
%TO.C,SW1*%
X114975000Y-87300000D03*
X110825000Y-87300000D03*
%TD*%
D28*
%TO.C,U1*%
X117650000Y-107300000D03*
X119650000Y-107300000D03*
X121650000Y-107300000D03*
X123650000Y-107300000D03*
X125650000Y-107300000D03*
X127650000Y-107300000D03*
X129650000Y-107300000D03*
X131650000Y-107300000D03*
D29*
X133150000Y-104700000D03*
X133150000Y-102700000D03*
X133150000Y-100700000D03*
X133150000Y-98700000D03*
X133150000Y-96700000D03*
X133150000Y-94700000D03*
D28*
X131650000Y-92100000D03*
X129650000Y-92100000D03*
X127650000Y-92100000D03*
X125650000Y-92100000D03*
X123650000Y-92100000D03*
X121650000Y-92100000D03*
X119650000Y-92100000D03*
X117650000Y-92100000D03*
%TD*%
D11*
%TO.C,R3*%
X127900000Y-89110000D03*
X127900000Y-88090000D03*
%TD*%
D14*
%TO.C,R13*%
X120700000Y-110090000D03*
X120700000Y-111110000D03*
%TD*%
D27*
%TO.C,SW2*%
X114975000Y-112200000D03*
X110825000Y-112200000D03*
%TD*%
D11*
%TO.C,R1*%
X130400000Y-89110000D03*
X130400000Y-88090000D03*
%TD*%
D30*
%TO.C,U3*%
X141237500Y-106150000D03*
X141237500Y-105200000D03*
X141237500Y-104250000D03*
X138962500Y-104250000D03*
X138962500Y-106150000D03*
%TD*%
D10*
%TO.C,C4*%
X139960000Y-102380000D03*
X139960000Y-101420000D03*
%TD*%
D14*
%TO.C,R6*%
X124760000Y-110090000D03*
X124760000Y-111110000D03*
%TD*%
D31*
%TO.C,D1*%
X123745000Y-110115000D03*
X123745000Y-111085000D03*
%TD*%
D10*
%TO.C,C1*%
X118680000Y-111100000D03*
X118680000Y-110140000D03*
%TD*%
D11*
%TO.C,R8*%
X119685000Y-111110000D03*
X119685000Y-110090000D03*
%TD*%
D14*
%TO.C,R11*%
X116660000Y-110090000D03*
X116660000Y-111110000D03*
%TD*%
D32*
%TO.C,J4*%
X133585000Y-98000000D03*
X133585000Y-108000000D03*
%TD*%
M02*
