M48
; DRILL file {KiCad (6.0.0)} date Fri Feb  4 16:42:36 2022
; FORMAT={-:-/ absolute / metric / decimal}
; #@! TF.CreationDate,2022-02-04T16:42:36+08:00
; #@! TF.GenerationSoftware,Kicad,Pcbnew,(6.0.0)
; #@! TF.FileFunction,Plated,1,4,PTH
FMAT,2
METRIC
; #@! TA.AperFunction,Plated,PTH,ViaDrill
T1C0.400
; #@! TA.AperFunction,Plated,PTH,ComponentDrill
T2C0.650
; #@! TA.AperFunction,Plated,PTH,ComponentDrill
T3C0.800
; #@! TA.AperFunction,Plated,PTH,ComponentDrill
T4C1.000
%
G90
G05
T1
X116.35Y-87.3
X117.65Y-111.95
X117.77Y-96.68
X117.81Y-98.22
X119.16Y-96.63
X119.2Y-111.95
X119.26Y-98.17
X120.4Y-112.05
X122.2Y-112.1
X124.1Y-87.7
X125.9Y-112.875
X125.95Y-90.15
X126.61Y-88.09
X126.625Y-105.475
X127.225Y-112.975
X127.743Y-102.793
X127.75Y-99.35
X127.881Y-101.904
X127.925Y-100.95
X128.124Y-104.965
X128.775Y-113.0
X131.25Y-90.15
X131.784Y-97.379
X132.025Y-87.75
X133.05Y-92.1
X133.65Y-87.725
X135.2Y-87.725
X136.05Y-108.2
X137.2Y-98.8
X137.5Y-106.1
X138.6Y-93.1
X139.0Y-108.7
X140.0Y-93.0
X140.1Y-100.7
X140.1Y-103.4
X140.9Y-93.0
X141.0Y-91.9
X142.3Y-103.35
X143.0Y-91.25
X143.1Y-92.3
X143.1Y-106.3
X143.375Y-113.85
X143.975Y-112.625
X144.3Y-103.55
X144.8Y-111.7
X145.0Y-110.8
X146.75Y-89.95
X147.7Y-98.05
T2
X148.9Y-86.41
X148.9Y-87.68
X148.9Y-88.95
X148.9Y-90.22
X148.9Y-91.49
X148.9Y-92.76
T4
X148.65Y-109.36
X148.65Y-111.9
T3
G00X146.15Y-96.45
M15
G01X146.15Y-96.95
M16
G05
G00X146.15Y-104.65
M15
G01X146.15Y-105.15
M16
G05
G00X149.09Y-96.45
M15
G01X149.09Y-96.95
M16
G05
G00X149.09Y-104.65
M15
G01X149.09Y-105.15
M16
G05
T0
M30
