%TF.GenerationSoftware,KiCad,Pcbnew,(6.0.0)*%
%TF.CreationDate,2022-02-02T23:07:07+08:00*%
%TF.ProjectId,screen,73637265-656e-42e6-9b69-6361645f7063,rev?*%
%TF.SameCoordinates,Original*%
%TF.FileFunction,Copper,L3,Inr*%
%TF.FilePolarity,Positive*%
%FSLAX46Y46*%
G04 Gerber Fmt 4.6, Leading zero omitted, Abs format (unit mm)*
G04 Created by KiCad (PCBNEW (6.0.0)) date 2022-02-02 23:07:07*
%MOMM*%
%LPD*%
G01*
G04 APERTURE LIST*
%TA.AperFunction,ComponentPad*%
%ADD10O,1.200000X1.700000*%
%TD*%
%TA.AperFunction,ComponentPad*%
%ADD11R,1.000000X1.000000*%
%TD*%
%TA.AperFunction,ComponentPad*%
%ADD12O,1.000000X1.000000*%
%TD*%
%TA.AperFunction,ComponentPad*%
%ADD13R,1.700000X1.700000*%
%TD*%
%TA.AperFunction,ComponentPad*%
%ADD14O,1.700000X1.700000*%
%TD*%
%TA.AperFunction,ViaPad*%
%ADD15C,0.800000*%
%TD*%
G04 APERTURE END LIST*
D10*
%TO.N,N/C*%
%TO.C,J1*%
X146150000Y-104899999D03*
X146150000Y-96700000D03*
X149090000Y-96700000D03*
X149090000Y-104899999D03*
%TD*%
D11*
%TO.N,+3V3*%
%TO.C,J2*%
X148900000Y-92760000D03*
D12*
%TO.N,GND*%
X148900000Y-91490000D03*
%TO.N,/nRST*%
X148900000Y-90220000D03*
%TO.N,/GPIO0*%
X148900000Y-88950000D03*
%TO.N,/TXD*%
X148900000Y-87680000D03*
%TO.N,/RXD*%
X148900000Y-86410000D03*
%TD*%
D13*
%TO.N,+BATT*%
%TO.C,J3*%
X148650000Y-111900000D03*
D14*
%TO.N,GND*%
X148650000Y-109360000D03*
%TD*%
D15*
%TO.N,+3V3*%
X137500000Y-106100000D03*
X126610000Y-88090000D03*
X117650000Y-111950000D03*
X122200000Y-112100000D03*
X142300000Y-103350000D03*
X128124463Y-104964780D03*
%TO.N,GND*%
X131783792Y-97379311D03*
X133050000Y-92100000D03*
X135200000Y-87725000D03*
X133650000Y-87725000D03*
X127225000Y-112975000D03*
X144300000Y-103550000D03*
X140100000Y-100700000D03*
X119200000Y-111950000D03*
X137200000Y-98800000D03*
X147700000Y-98050000D03*
X143000000Y-91250000D03*
X125900000Y-112875000D03*
X128775000Y-113000000D03*
X126625000Y-105475000D03*
X132025000Y-87750000D03*
%TO.N,/nRST*%
X127750000Y-99350000D03*
X146750000Y-89950000D03*
%TO.N,/GPIO0*%
X125950000Y-90150000D03*
X131250000Y-90150000D03*
X127881079Y-101904136D03*
%TO.N,/GPIO14*%
X127925000Y-100950000D03*
%TO.N,/GPIO13*%
X127742808Y-102792948D03*
%TO.N,Net-(R15-Pad2)*%
X116350000Y-87300000D03*
X124100000Y-87700000D03*
%TO.N,+BATT*%
X136050000Y-108200000D03*
X143100000Y-106300000D03*
X120400000Y-112050000D03*
X143100000Y-92300000D03*
%TO.N,Net-(D1-Pad1)*%
X143375000Y-113850000D03*
X138600000Y-93100000D03*
%TO.N,Net-(D1-Pad2)*%
X143975000Y-112625000D03*
X140000000Y-93000000D03*
%TO.N,Net-(D3-Pad1)*%
X140900000Y-93000000D03*
X144800000Y-111700000D03*
%TO.N,Net-(D3-Pad2)*%
X141000000Y-91900000D03*
X145000000Y-110800000D03*
%TO.N,Net-(C7-Pad1)*%
X139000000Y-108700000D03*
X140100000Y-103400000D03*
%TD*%
%TA.AperFunction,Conductor*%
%TO.N,+3V3*%
G36*
X148605715Y-85228002D02*
G01*
X148652208Y-85281658D01*
X148662312Y-85351932D01*
X148632818Y-85416512D01*
X148573168Y-85454874D01*
X148547120Y-85462540D01*
X148520381Y-85470410D01*
X148514923Y-85473263D01*
X148514919Y-85473265D01*
X148424147Y-85520720D01*
X148345110Y-85562040D01*
X148190975Y-85685968D01*
X148063846Y-85837474D01*
X148060879Y-85842872D01*
X148060875Y-85842877D01*
X148057397Y-85849204D01*
X147968567Y-86010787D01*
X147966706Y-86016654D01*
X147966705Y-86016656D01*
X147910627Y-86193436D01*
X147908765Y-86199306D01*
X147886719Y-86395851D01*
X147903268Y-86592934D01*
X147913436Y-86628393D01*
X147952050Y-86763056D01*
X147957783Y-86783050D01*
X147960602Y-86788535D01*
X148035301Y-86933882D01*
X148048187Y-86958956D01*
X148052016Y-86963787D01*
X148053839Y-86966088D01*
X148054414Y-86967509D01*
X148055353Y-86968966D01*
X148055076Y-86969144D01*
X148080474Y-87031898D01*
X148067301Y-87101662D01*
X148063846Y-87107474D01*
X147968567Y-87280787D01*
X147966706Y-87286654D01*
X147966705Y-87286656D01*
X147910627Y-87463436D01*
X147908765Y-87469306D01*
X147886719Y-87665851D01*
X147889987Y-87704771D01*
X147901498Y-87841852D01*
X147903268Y-87862934D01*
X147957783Y-88053050D01*
X148048187Y-88228956D01*
X148052016Y-88233787D01*
X148053839Y-88236088D01*
X148054414Y-88237509D01*
X148055353Y-88238966D01*
X148055076Y-88239144D01*
X148080474Y-88301898D01*
X148067301Y-88371662D01*
X148063846Y-88377474D01*
X147968567Y-88550787D01*
X147966706Y-88556654D01*
X147966705Y-88556656D01*
X147934398Y-88658500D01*
X147908765Y-88739306D01*
X147886719Y-88935851D01*
X147887235Y-88941995D01*
X147902043Y-89118342D01*
X147903268Y-89132934D01*
X147923835Y-89204658D01*
X147954974Y-89313253D01*
X147957783Y-89323050D01*
X147960602Y-89328535D01*
X148027239Y-89458195D01*
X148048187Y-89498956D01*
X148052016Y-89503787D01*
X148053839Y-89506088D01*
X148054414Y-89507509D01*
X148055353Y-89508966D01*
X148055076Y-89509144D01*
X148080474Y-89571898D01*
X148067301Y-89641662D01*
X148063846Y-89647474D01*
X147968567Y-89820787D01*
X147966706Y-89826654D01*
X147966705Y-89826656D01*
X147925495Y-89956568D01*
X147908765Y-90009306D01*
X147907767Y-90008989D01*
X147876813Y-90066330D01*
X147839326Y-90087034D01*
X147870635Y-90115769D01*
X147888684Y-90184434D01*
X147887949Y-90194885D01*
X147886719Y-90205851D01*
X147887235Y-90211995D01*
X147901444Y-90381206D01*
X147903268Y-90402934D01*
X147904967Y-90408858D01*
X147952907Y-90576045D01*
X147957783Y-90593050D01*
X147960602Y-90598535D01*
X148031886Y-90737237D01*
X148048187Y-90768956D01*
X148052016Y-90773787D01*
X148053839Y-90776088D01*
X148054414Y-90777509D01*
X148055353Y-90778966D01*
X148055076Y-90779144D01*
X148080474Y-90841898D01*
X148067301Y-90911662D01*
X148063846Y-90917474D01*
X147968567Y-91090787D01*
X147966706Y-91096654D01*
X147966705Y-91096656D01*
X147920144Y-91243435D01*
X147908765Y-91279306D01*
X147886719Y-91475851D01*
X147887235Y-91481995D01*
X147899941Y-91633307D01*
X147903268Y-91672934D01*
X147925906Y-91751881D01*
X147952688Y-91845281D01*
X147957783Y-91863050D01*
X147960602Y-91868535D01*
X147964402Y-91875929D01*
X147977750Y-91945660D01*
X147957667Y-91997468D01*
X147959521Y-91998483D01*
X147946677Y-92021942D01*
X147901522Y-92142394D01*
X147897895Y-92157649D01*
X147892369Y-92208514D01*
X147892000Y-92215328D01*
X147892000Y-92487885D01*
X147896475Y-92503124D01*
X147897865Y-92504329D01*
X147905548Y-92506000D01*
X149889884Y-92506000D01*
X149905123Y-92501525D01*
X149906328Y-92500135D01*
X149907999Y-92492452D01*
X149907999Y-92215331D01*
X149907629Y-92208510D01*
X149902105Y-92157648D01*
X149898479Y-92142396D01*
X149853324Y-92021946D01*
X149840478Y-91998483D01*
X149842602Y-91997320D01*
X149822313Y-91943007D01*
X149828429Y-91894183D01*
X149864346Y-91786212D01*
X149888197Y-91714513D01*
X149912985Y-91518295D01*
X149913380Y-91490000D01*
X149894080Y-91293167D01*
X149876184Y-91233891D01*
X149863385Y-91191500D01*
X149836916Y-91103831D01*
X149744066Y-90929204D01*
X149740167Y-90924424D01*
X149739715Y-90923743D01*
X149718676Y-90855935D01*
X149735105Y-90791775D01*
X149822723Y-90637542D01*
X149822725Y-90637537D01*
X149825769Y-90632179D01*
X149888197Y-90444513D01*
X149912985Y-90248295D01*
X149913380Y-90220000D01*
X149894080Y-90023167D01*
X149889800Y-90008989D01*
X149849621Y-89875911D01*
X149836916Y-89833831D01*
X149744066Y-89659204D01*
X149740167Y-89654424D01*
X149739715Y-89653743D01*
X149718676Y-89585935D01*
X149735105Y-89521775D01*
X149822723Y-89367542D01*
X149822725Y-89367537D01*
X149825769Y-89362179D01*
X149888197Y-89174513D01*
X149912985Y-88978295D01*
X149913380Y-88950000D01*
X149894080Y-88753167D01*
X149836916Y-88563831D01*
X149744066Y-88389204D01*
X149740167Y-88384424D01*
X149739715Y-88383743D01*
X149718676Y-88315935D01*
X149735105Y-88251775D01*
X149822723Y-88097542D01*
X149822725Y-88097537D01*
X149825769Y-88092179D01*
X149888197Y-87904513D01*
X149912985Y-87708295D01*
X149913380Y-87680000D01*
X149894080Y-87483167D01*
X149836916Y-87293831D01*
X149744066Y-87119204D01*
X149740167Y-87114424D01*
X149739715Y-87113743D01*
X149718676Y-87045935D01*
X149735105Y-86981775D01*
X149745906Y-86962763D01*
X149774310Y-86912763D01*
X149822723Y-86827542D01*
X149822725Y-86827537D01*
X149825769Y-86822179D01*
X149888197Y-86634513D01*
X149912985Y-86438295D01*
X149913380Y-86410000D01*
X149894080Y-86213167D01*
X149836916Y-86023831D01*
X149744066Y-85849204D01*
X149673709Y-85762938D01*
X149622960Y-85700713D01*
X149622957Y-85700710D01*
X149619065Y-85695938D01*
X149612724Y-85690692D01*
X149471425Y-85573799D01*
X149471421Y-85573797D01*
X149466675Y-85569870D01*
X149292701Y-85475802D01*
X149223449Y-85454365D01*
X149164289Y-85415114D01*
X149135742Y-85350109D01*
X149146871Y-85279990D01*
X149194142Y-85227019D01*
X149260708Y-85208000D01*
X150241000Y-85208000D01*
X150309121Y-85228002D01*
X150355614Y-85281658D01*
X150367000Y-85334000D01*
X150367000Y-95991464D01*
X150346998Y-96059585D01*
X150293342Y-96106078D01*
X150223068Y-96116182D01*
X150158488Y-96086688D01*
X150124730Y-96039267D01*
X150123908Y-96036466D01*
X150121164Y-96031138D01*
X150121163Y-96031135D01*
X150029804Y-95853751D01*
X150029802Y-95853748D01*
X150027058Y-95848420D01*
X149896396Y-95682080D01*
X149758627Y-95562530D01*
X149720288Y-95502779D01*
X149716095Y-95452448D01*
X149732762Y-95312673D01*
X149733596Y-95305680D01*
X149714636Y-95125288D01*
X149656182Y-94953579D01*
X149561138Y-94799088D01*
X149556207Y-94794053D01*
X149556205Y-94794050D01*
X149439157Y-94674525D01*
X149439156Y-94674524D01*
X149434229Y-94669493D01*
X149281762Y-94571235D01*
X149275142Y-94568826D01*
X149275139Y-94568824D01*
X149117934Y-94511606D01*
X149117933Y-94511606D01*
X149111315Y-94509197D01*
X148971231Y-94491500D01*
X148874390Y-94491500D01*
X148739745Y-94506603D01*
X148733092Y-94508920D01*
X148733091Y-94508920D01*
X148575106Y-94563936D01*
X148575103Y-94563938D01*
X148568448Y-94566255D01*
X148562469Y-94569991D01*
X148554367Y-94575054D01*
X148414624Y-94662374D01*
X148409628Y-94667335D01*
X148409627Y-94667336D01*
X148290915Y-94785222D01*
X148290912Y-94785226D01*
X148285918Y-94790185D01*
X148188727Y-94943334D01*
X148186362Y-94949976D01*
X148130243Y-95107575D01*
X148130242Y-95107580D01*
X148127881Y-95114210D01*
X148106404Y-95294320D01*
X148107140Y-95301323D01*
X148107140Y-95301324D01*
X148121772Y-95440533D01*
X148125364Y-95474712D01*
X148150102Y-95547379D01*
X148171890Y-95611381D01*
X148183818Y-95646421D01*
X148193696Y-95662477D01*
X148212354Y-95730978D01*
X148192230Y-95796847D01*
X148101380Y-95937548D01*
X148099137Y-95943114D01*
X148060793Y-96038259D01*
X148022314Y-96133737D01*
X147981772Y-96341337D01*
X147981500Y-96346899D01*
X147981500Y-97002846D01*
X147981784Y-97005820D01*
X147981784Y-97005825D01*
X147982547Y-97013816D01*
X147969107Y-97083529D01*
X147920110Y-97134908D01*
X147851114Y-97151642D01*
X147830919Y-97149031D01*
X147801950Y-97142873D01*
X147801943Y-97142872D01*
X147795487Y-97141500D01*
X147604513Y-97141500D01*
X147598061Y-97142872D01*
X147598056Y-97142872D01*
X147487731Y-97166323D01*
X147422676Y-97180151D01*
X147422674Y-97180151D01*
X147417712Y-97181206D01*
X147417519Y-97180299D01*
X147352273Y-97182166D01*
X147291474Y-97145506D01*
X147260145Y-97081796D01*
X147258571Y-97056189D01*
X147258387Y-97056185D01*
X147258425Y-97054643D01*
X147258500Y-97053101D01*
X147258500Y-96397154D01*
X147243452Y-96239434D01*
X147183908Y-96036466D01*
X147181162Y-96031135D01*
X147089804Y-95853751D01*
X147089802Y-95853748D01*
X147087058Y-95848420D01*
X146956396Y-95682080D01*
X146951865Y-95678148D01*
X146951862Y-95678145D01*
X146801167Y-95547379D01*
X146796637Y-95543448D01*
X146791451Y-95540448D01*
X146791447Y-95540445D01*
X146618742Y-95440533D01*
X146613546Y-95437527D01*
X146413729Y-95368139D01*
X146407794Y-95367278D01*
X146407792Y-95367278D01*
X146210336Y-95338648D01*
X146210333Y-95338648D01*
X146204396Y-95337787D01*
X145993101Y-95347567D01*
X145861923Y-95379181D01*
X145793299Y-95395719D01*
X145793297Y-95395720D01*
X145787466Y-95397125D01*
X145782008Y-95399607D01*
X145782004Y-95399608D01*
X145666959Y-95451916D01*
X145594913Y-95484674D01*
X145422389Y-95607054D01*
X145276119Y-95759850D01*
X145161380Y-95937548D01*
X145159137Y-95943114D01*
X145120793Y-96038259D01*
X145082314Y-96133737D01*
X145041772Y-96341337D01*
X145041500Y-96346899D01*
X145041500Y-97002846D01*
X145056548Y-97160566D01*
X145116092Y-97363534D01*
X145118836Y-97368861D01*
X145118836Y-97368862D01*
X145122568Y-97376107D01*
X145212942Y-97551580D01*
X145343604Y-97717920D01*
X145348135Y-97721852D01*
X145348138Y-97721855D01*
X145431134Y-97793875D01*
X145503363Y-97856552D01*
X145508549Y-97859552D01*
X145508553Y-97859555D01*
X145604957Y-97915326D01*
X145686454Y-97962473D01*
X145886271Y-98031861D01*
X145892206Y-98032722D01*
X145892208Y-98032722D01*
X146089664Y-98061352D01*
X146089667Y-98061352D01*
X146095604Y-98062213D01*
X146306899Y-98052433D01*
X146487609Y-98008882D01*
X146506701Y-98004281D01*
X146506703Y-98004280D01*
X146512534Y-98002875D01*
X146517998Y-98000391D01*
X146518000Y-98000390D01*
X146610090Y-97958519D01*
X146680381Y-97948531D01*
X146744913Y-97978132D01*
X146783197Y-98037922D01*
X146787552Y-98060048D01*
X146803664Y-98213340D01*
X146806458Y-98239928D01*
X146865473Y-98421556D01*
X146868776Y-98427278D01*
X146868777Y-98427279D01*
X146899120Y-98479834D01*
X146960960Y-98586944D01*
X146965378Y-98591851D01*
X146965379Y-98591852D01*
X147033269Y-98667251D01*
X147088747Y-98728866D01*
X147243248Y-98841118D01*
X147249276Y-98843802D01*
X147249278Y-98843803D01*
X147411681Y-98916109D01*
X147417712Y-98918794D01*
X147511113Y-98938647D01*
X147598056Y-98957128D01*
X147598061Y-98957128D01*
X147604513Y-98958500D01*
X147795487Y-98958500D01*
X147801939Y-98957128D01*
X147801944Y-98957128D01*
X147888887Y-98938647D01*
X147982288Y-98918794D01*
X147988319Y-98916109D01*
X148150722Y-98843803D01*
X148150724Y-98843802D01*
X148156752Y-98841118D01*
X148311253Y-98728866D01*
X148366731Y-98667251D01*
X148434621Y-98591852D01*
X148434622Y-98591851D01*
X148439040Y-98586944D01*
X148500880Y-98479834D01*
X148531223Y-98427279D01*
X148531224Y-98427278D01*
X148534527Y-98421556D01*
X148593542Y-98239928D01*
X148596337Y-98213340D01*
X148600564Y-98173114D01*
X148606233Y-98119176D01*
X148633246Y-98053520D01*
X148691467Y-98012890D01*
X148762413Y-98010187D01*
X148772877Y-98013320D01*
X148820600Y-98029892D01*
X148820603Y-98029893D01*
X148826271Y-98031861D01*
X148832206Y-98032722D01*
X148832208Y-98032722D01*
X149029664Y-98061352D01*
X149029667Y-98061352D01*
X149035604Y-98062213D01*
X149246899Y-98052433D01*
X149427609Y-98008882D01*
X149446701Y-98004281D01*
X149446703Y-98004280D01*
X149452534Y-98002875D01*
X149457992Y-98000393D01*
X149457996Y-98000392D01*
X149573041Y-97948084D01*
X149645087Y-97915326D01*
X149817611Y-97792946D01*
X149963881Y-97640150D01*
X150078620Y-97462452D01*
X150124134Y-97349517D01*
X150168149Y-97293811D01*
X150235294Y-97270744D01*
X150304251Y-97287641D01*
X150353126Y-97339136D01*
X150367000Y-97396615D01*
X150367000Y-104191463D01*
X150346998Y-104259584D01*
X150293342Y-104306077D01*
X150223068Y-104316181D01*
X150158488Y-104286687D01*
X150124730Y-104239266D01*
X150123908Y-104236465D01*
X150121164Y-104231137D01*
X150121163Y-104231134D01*
X150029804Y-104053750D01*
X150029802Y-104053747D01*
X150027058Y-104048419D01*
X149896396Y-103882079D01*
X149891865Y-103878147D01*
X149891862Y-103878144D01*
X149741167Y-103747378D01*
X149736637Y-103743447D01*
X149731451Y-103740447D01*
X149731447Y-103740444D01*
X149558742Y-103640532D01*
X149553546Y-103637526D01*
X149353729Y-103568138D01*
X149347794Y-103567277D01*
X149347792Y-103567277D01*
X149150336Y-103538647D01*
X149150333Y-103538647D01*
X149144396Y-103537786D01*
X148933101Y-103547566D01*
X148801923Y-103579180D01*
X148733299Y-103595718D01*
X148733297Y-103595719D01*
X148727466Y-103597124D01*
X148722008Y-103599606D01*
X148722004Y-103599607D01*
X148606959Y-103651915D01*
X148534913Y-103684673D01*
X148362389Y-103807053D01*
X148216119Y-103959849D01*
X148101380Y-104137547D01*
X148099137Y-104143113D01*
X148060793Y-104238258D01*
X148022314Y-104333736D01*
X147981772Y-104541336D01*
X147981500Y-104546898D01*
X147981500Y-105202845D01*
X147996548Y-105360565D01*
X148056092Y-105563533D01*
X148058836Y-105568860D01*
X148058836Y-105568861D01*
X148104934Y-105658365D01*
X148152942Y-105751579D01*
X148156644Y-105756292D01*
X148156646Y-105756295D01*
X148184988Y-105792375D01*
X148211339Y-105858301D01*
X148197865Y-105928007D01*
X148192621Y-105937142D01*
X148192503Y-105937384D01*
X148188727Y-105943334D01*
X148186362Y-105949976D01*
X148130243Y-106107575D01*
X148130242Y-106107580D01*
X148127881Y-106114210D01*
X148127048Y-106121198D01*
X148127047Y-106121201D01*
X148113852Y-106231860D01*
X148106404Y-106294320D01*
X148125364Y-106474712D01*
X148183818Y-106646421D01*
X148278862Y-106800912D01*
X148283793Y-106805947D01*
X148283795Y-106805950D01*
X148314147Y-106836944D01*
X148405771Y-106930507D01*
X148558238Y-107028765D01*
X148564858Y-107031174D01*
X148564861Y-107031176D01*
X148722066Y-107088394D01*
X148728685Y-107090803D01*
X148868769Y-107108500D01*
X148965610Y-107108500D01*
X149100255Y-107093397D01*
X149114622Y-107088394D01*
X149264894Y-107036064D01*
X149264897Y-107036062D01*
X149271552Y-107033745D01*
X149279522Y-107028765D01*
X149419402Y-106941359D01*
X149425376Y-106937626D01*
X149521821Y-106841852D01*
X149549085Y-106814778D01*
X149549088Y-106814774D01*
X149554082Y-106809815D01*
X149651273Y-106656666D01*
X149661672Y-106627463D01*
X149709757Y-106492425D01*
X149709758Y-106492420D01*
X149712119Y-106485790D01*
X149724317Y-106383500D01*
X149732762Y-106312673D01*
X149733596Y-106305680D01*
X149725631Y-106229893D01*
X149717640Y-106153866D01*
X149716540Y-106143404D01*
X149729312Y-106073565D01*
X149768950Y-106027464D01*
X149812718Y-105996417D01*
X149812726Y-105996410D01*
X149817611Y-105992945D01*
X149963881Y-105840149D01*
X150078620Y-105662451D01*
X150124134Y-105549516D01*
X150168149Y-105493810D01*
X150235294Y-105470743D01*
X150304251Y-105487640D01*
X150353126Y-105539135D01*
X150367000Y-105596614D01*
X150367000Y-114066000D01*
X150346998Y-114134121D01*
X150293342Y-114180614D01*
X150241000Y-114192000D01*
X144391110Y-114192000D01*
X144322989Y-114171998D01*
X144276496Y-114118342D01*
X144266392Y-114048068D01*
X144266992Y-114044698D01*
X144268542Y-114039928D01*
X144269231Y-114033373D01*
X144269232Y-114033368D01*
X144287814Y-113856565D01*
X144288504Y-113850000D01*
X144281515Y-113783500D01*
X144269232Y-113666635D01*
X144269232Y-113666633D01*
X144268542Y-113660072D01*
X144254979Y-113618329D01*
X144252951Y-113547363D01*
X144289614Y-113486565D01*
X144323563Y-113464287D01*
X144425722Y-113418803D01*
X144425724Y-113418802D01*
X144431752Y-113416118D01*
X144586253Y-113303866D01*
X144643514Y-113240271D01*
X144709621Y-113166852D01*
X144709622Y-113166851D01*
X144714040Y-113161944D01*
X144775093Y-113056197D01*
X144806223Y-113002279D01*
X144806224Y-113002278D01*
X144809527Y-112996556D01*
X144868542Y-112814928D01*
X144880549Y-112700684D01*
X144907562Y-112635028D01*
X144965783Y-112594398D01*
X144979662Y-112590608D01*
X144996899Y-112586944D01*
X145082288Y-112568794D01*
X145088319Y-112566109D01*
X145250722Y-112493803D01*
X145250724Y-112493802D01*
X145256752Y-112491118D01*
X145411253Y-112378866D01*
X145442850Y-112343774D01*
X145534621Y-112241852D01*
X145534622Y-112241851D01*
X145539040Y-112236944D01*
X145621333Y-112094409D01*
X145631223Y-112077279D01*
X145631224Y-112077278D01*
X145634527Y-112071556D01*
X145693542Y-111889928D01*
X145706501Y-111766635D01*
X145712814Y-111706565D01*
X145713504Y-111700000D01*
X145701389Y-111584729D01*
X145694233Y-111516642D01*
X145694232Y-111516635D01*
X145693542Y-111510072D01*
X145690489Y-111500677D01*
X145686750Y-111489167D01*
X145684724Y-111418199D01*
X145712948Y-111365922D01*
X145734621Y-111341852D01*
X145734622Y-111341851D01*
X145739040Y-111336944D01*
X145774200Y-111276045D01*
X145831223Y-111177279D01*
X145831224Y-111177278D01*
X145834527Y-111171556D01*
X145893542Y-110989928D01*
X145899601Y-110932285D01*
X145912814Y-110806565D01*
X145913504Y-110800000D01*
X145901600Y-110686739D01*
X145894232Y-110616635D01*
X145894232Y-110616633D01*
X145893542Y-110610072D01*
X145834527Y-110428444D01*
X145739040Y-110263056D01*
X145724707Y-110247137D01*
X145615675Y-110126045D01*
X145615674Y-110126044D01*
X145611253Y-110121134D01*
X145456752Y-110008882D01*
X145450724Y-110006198D01*
X145450722Y-110006197D01*
X145288319Y-109933891D01*
X145288318Y-109933891D01*
X145282288Y-109931206D01*
X145188888Y-109911353D01*
X145101944Y-109892872D01*
X145101939Y-109892872D01*
X145095487Y-109891500D01*
X144904513Y-109891500D01*
X144898061Y-109892872D01*
X144898056Y-109892872D01*
X144811113Y-109911353D01*
X144717712Y-109931206D01*
X144711682Y-109933891D01*
X144711681Y-109933891D01*
X144549278Y-110006197D01*
X144549276Y-110006198D01*
X144543248Y-110008882D01*
X144388747Y-110121134D01*
X144384326Y-110126044D01*
X144384325Y-110126045D01*
X144275294Y-110247137D01*
X144260960Y-110263056D01*
X144165473Y-110428444D01*
X144106458Y-110610072D01*
X144105768Y-110616633D01*
X144105768Y-110616635D01*
X144098400Y-110686739D01*
X144086496Y-110800000D01*
X144087186Y-110806565D01*
X144100400Y-110932285D01*
X144106458Y-110989928D01*
X144108500Y-110996212D01*
X144113250Y-111010833D01*
X144115276Y-111081801D01*
X144087052Y-111134078D01*
X144060960Y-111163056D01*
X144057657Y-111168777D01*
X143969366Y-111321702D01*
X143965473Y-111328444D01*
X143906458Y-111510072D01*
X143905768Y-111516633D01*
X143905768Y-111516635D01*
X143894451Y-111624315D01*
X143867438Y-111689972D01*
X143809217Y-111730602D01*
X143795337Y-111734392D01*
X143692712Y-111756206D01*
X143686682Y-111758891D01*
X143686681Y-111758891D01*
X143524278Y-111831197D01*
X143524276Y-111831198D01*
X143518248Y-111833882D01*
X143512907Y-111837762D01*
X143512906Y-111837763D01*
X143462843Y-111874136D01*
X143363747Y-111946134D01*
X143359326Y-111951044D01*
X143359325Y-111951045D01*
X143245664Y-112077279D01*
X143235960Y-112088056D01*
X143192700Y-112162985D01*
X143147166Y-112241852D01*
X143140473Y-112253444D01*
X143081458Y-112435072D01*
X143080768Y-112441633D01*
X143080768Y-112441635D01*
X143078517Y-112463056D01*
X143061496Y-112625000D01*
X143062186Y-112631565D01*
X143073983Y-112743803D01*
X143081458Y-112814928D01*
X143083497Y-112821203D01*
X143095021Y-112856669D01*
X143097049Y-112927637D01*
X143060386Y-112988435D01*
X143026437Y-113010713D01*
X142924278Y-113056197D01*
X142924276Y-113056198D01*
X142918248Y-113058882D01*
X142912907Y-113062762D01*
X142912906Y-113062763D01*
X142862843Y-113099136D01*
X142763747Y-113171134D01*
X142759326Y-113176044D01*
X142759325Y-113176045D01*
X142648657Y-113298955D01*
X142635960Y-113313056D01*
X142632659Y-113318774D01*
X142548647Y-113464287D01*
X142540473Y-113478444D01*
X142481458Y-113660072D01*
X142480768Y-113666633D01*
X142480768Y-113666635D01*
X142468485Y-113783500D01*
X142461496Y-113850000D01*
X142462186Y-113856565D01*
X142480768Y-114033368D01*
X142480769Y-114033373D01*
X142481458Y-114039928D01*
X142482000Y-114041597D01*
X142476733Y-114110597D01*
X142433915Y-114167229D01*
X142367277Y-114191721D01*
X142358890Y-114192000D01*
X109609000Y-114192000D01*
X109540879Y-114171998D01*
X109494386Y-114118342D01*
X109483000Y-114066000D01*
X109483000Y-111950000D01*
X118286496Y-111950000D01*
X118287186Y-111956565D01*
X118302770Y-112104834D01*
X118306458Y-112139928D01*
X118365473Y-112321556D01*
X118368776Y-112327278D01*
X118368777Y-112327279D01*
X118379476Y-112345810D01*
X118460960Y-112486944D01*
X118465378Y-112491851D01*
X118465379Y-112491852D01*
X118481476Y-112509729D01*
X118588747Y-112628866D01*
X118656784Y-112678298D01*
X118726385Y-112728866D01*
X118743248Y-112741118D01*
X118749276Y-112743802D01*
X118749278Y-112743803D01*
X118911681Y-112816109D01*
X118917712Y-112818794D01*
X119004479Y-112837237D01*
X119098056Y-112857128D01*
X119098061Y-112857128D01*
X119104513Y-112858500D01*
X119295487Y-112858500D01*
X119301939Y-112857128D01*
X119301944Y-112857128D01*
X119395521Y-112837237D01*
X119482288Y-112818794D01*
X119488319Y-112816109D01*
X119650722Y-112743803D01*
X119650724Y-112743802D01*
X119656752Y-112741118D01*
X119662093Y-112737237D01*
X119667811Y-112733936D01*
X119669308Y-112736528D01*
X119723846Y-112717000D01*
X119793016Y-112733002D01*
X119805238Y-112740847D01*
X119809306Y-112743803D01*
X119915842Y-112821206D01*
X119943248Y-112841118D01*
X119949276Y-112843802D01*
X119949278Y-112843803D01*
X120111681Y-112916109D01*
X120117712Y-112918794D01*
X120211113Y-112938647D01*
X120298056Y-112957128D01*
X120298061Y-112957128D01*
X120304513Y-112958500D01*
X120495487Y-112958500D01*
X120501939Y-112957128D01*
X120501944Y-112957128D01*
X120588887Y-112938647D01*
X120682288Y-112918794D01*
X120688319Y-112916109D01*
X120780652Y-112875000D01*
X124986496Y-112875000D01*
X124987186Y-112881565D01*
X124999288Y-112996705D01*
X125006458Y-113064928D01*
X125065473Y-113246556D01*
X125160960Y-113411944D01*
X125165378Y-113416851D01*
X125165379Y-113416852D01*
X125282520Y-113546950D01*
X125288747Y-113553866D01*
X125373002Y-113615081D01*
X125426385Y-113653866D01*
X125443248Y-113666118D01*
X125449276Y-113668802D01*
X125449278Y-113668803D01*
X125611681Y-113741109D01*
X125617712Y-113743794D01*
X125704479Y-113762237D01*
X125798056Y-113782128D01*
X125798061Y-113782128D01*
X125804513Y-113783500D01*
X125995487Y-113783500D01*
X126001939Y-113782128D01*
X126001944Y-113782128D01*
X126095521Y-113762237D01*
X126182288Y-113743794D01*
X126188319Y-113741109D01*
X126350722Y-113668803D01*
X126350724Y-113668802D01*
X126356752Y-113666118D01*
X126373616Y-113653866D01*
X126426998Y-113615081D01*
X126493865Y-113591223D01*
X126563017Y-113607303D01*
X126594695Y-113632706D01*
X126613747Y-113653866D01*
X126619089Y-113657747D01*
X126619091Y-113657749D01*
X126739410Y-113745166D01*
X126768248Y-113766118D01*
X126774276Y-113768802D01*
X126774278Y-113768803D01*
X126936681Y-113841109D01*
X126942712Y-113843794D01*
X127036113Y-113863647D01*
X127123056Y-113882128D01*
X127123061Y-113882128D01*
X127129513Y-113883500D01*
X127320487Y-113883500D01*
X127326939Y-113882128D01*
X127326944Y-113882128D01*
X127413887Y-113863647D01*
X127507288Y-113843794D01*
X127513319Y-113841109D01*
X127675722Y-113768803D01*
X127675724Y-113768802D01*
X127681752Y-113766118D01*
X127836253Y-113653866D01*
X127895110Y-113588498D01*
X127955555Y-113551260D01*
X128026539Y-113552612D01*
X128082379Y-113588498D01*
X128163747Y-113678866D01*
X128249417Y-113741109D01*
X128283839Y-113766118D01*
X128318248Y-113791118D01*
X128324276Y-113793802D01*
X128324278Y-113793803D01*
X128465245Y-113856565D01*
X128492712Y-113868794D01*
X128586112Y-113888647D01*
X128673056Y-113907128D01*
X128673061Y-113907128D01*
X128679513Y-113908500D01*
X128870487Y-113908500D01*
X128876939Y-113907128D01*
X128876944Y-113907128D01*
X128963888Y-113888647D01*
X129057288Y-113868794D01*
X129084755Y-113856565D01*
X129225722Y-113793803D01*
X129225724Y-113793802D01*
X129231752Y-113791118D01*
X129266162Y-113766118D01*
X129300583Y-113741109D01*
X129386253Y-113678866D01*
X129495307Y-113557749D01*
X129509621Y-113541852D01*
X129509622Y-113541851D01*
X129514040Y-113536944D01*
X129538953Y-113493794D01*
X129606223Y-113377279D01*
X129606224Y-113377278D01*
X129609527Y-113371556D01*
X129668542Y-113189928D01*
X129670518Y-113171134D01*
X129687814Y-113006565D01*
X129688504Y-113000000D01*
X129683998Y-112957128D01*
X129669232Y-112816635D01*
X129669232Y-112816633D01*
X129668542Y-112810072D01*
X129609527Y-112628444D01*
X129589871Y-112594398D01*
X129530665Y-112491852D01*
X129514040Y-112463056D01*
X129494753Y-112441635D01*
X129390675Y-112326045D01*
X129390671Y-112326041D01*
X129386253Y-112321134D01*
X129248610Y-112221130D01*
X129237094Y-112212763D01*
X129237093Y-112212762D01*
X129231752Y-112208882D01*
X129225724Y-112206198D01*
X129225722Y-112206197D01*
X129063319Y-112133891D01*
X129063318Y-112133891D01*
X129057288Y-112131206D01*
X128952305Y-112108891D01*
X128876944Y-112092872D01*
X128876939Y-112092872D01*
X128870487Y-112091500D01*
X128679513Y-112091500D01*
X128673061Y-112092872D01*
X128673056Y-112092872D01*
X128597695Y-112108891D01*
X128492712Y-112131206D01*
X128486682Y-112133891D01*
X128486681Y-112133891D01*
X128324278Y-112206197D01*
X128324276Y-112206198D01*
X128318248Y-112208882D01*
X128312907Y-112212762D01*
X128312906Y-112212763D01*
X128301390Y-112221130D01*
X128163747Y-112321134D01*
X128104890Y-112386502D01*
X128044445Y-112423740D01*
X127973461Y-112422388D01*
X127917621Y-112386502D01*
X127836253Y-112296134D01*
X127721503Y-112212763D01*
X127687094Y-112187763D01*
X127687093Y-112187762D01*
X127681752Y-112183882D01*
X127675724Y-112181198D01*
X127675722Y-112181197D01*
X127513319Y-112108891D01*
X127513318Y-112108891D01*
X127507288Y-112106206D01*
X127413888Y-112086353D01*
X127326944Y-112067872D01*
X127326939Y-112067872D01*
X127320487Y-112066500D01*
X127129513Y-112066500D01*
X127123061Y-112067872D01*
X127123056Y-112067872D01*
X127036112Y-112086353D01*
X126942712Y-112106206D01*
X126936682Y-112108891D01*
X126936681Y-112108891D01*
X126774278Y-112181197D01*
X126774276Y-112181198D01*
X126768248Y-112183882D01*
X126762907Y-112187762D01*
X126762906Y-112187763D01*
X126698002Y-112234919D01*
X126631135Y-112258777D01*
X126561983Y-112242697D01*
X126530305Y-112217294D01*
X126511253Y-112196134D01*
X126499732Y-112187763D01*
X126362094Y-112087763D01*
X126362093Y-112087762D01*
X126356752Y-112083882D01*
X126350724Y-112081198D01*
X126350722Y-112081197D01*
X126188319Y-112008891D01*
X126188318Y-112008891D01*
X126182288Y-112006206D01*
X126088888Y-111986353D01*
X126001944Y-111967872D01*
X126001939Y-111967872D01*
X125995487Y-111966500D01*
X125804513Y-111966500D01*
X125798061Y-111967872D01*
X125798056Y-111967872D01*
X125711113Y-111986353D01*
X125617712Y-112006206D01*
X125611682Y-112008891D01*
X125611681Y-112008891D01*
X125449278Y-112081197D01*
X125449276Y-112081198D01*
X125443248Y-112083882D01*
X125437907Y-112087762D01*
X125437906Y-112087763D01*
X125414410Y-112104834D01*
X125288747Y-112196134D01*
X125284329Y-112201041D01*
X125284325Y-112201045D01*
X125170664Y-112327279D01*
X125160960Y-112338056D01*
X125132023Y-112388177D01*
X125072166Y-112491852D01*
X125065473Y-112503444D01*
X125006458Y-112685072D01*
X125005768Y-112691633D01*
X125005768Y-112691635D01*
X124993320Y-112810072D01*
X124986496Y-112875000D01*
X120780652Y-112875000D01*
X120850722Y-112843803D01*
X120850724Y-112843802D01*
X120856752Y-112841118D01*
X120884159Y-112821206D01*
X120990694Y-112743803D01*
X121011253Y-112728866D01*
X121106826Y-112622721D01*
X121134621Y-112591852D01*
X121134622Y-112591851D01*
X121139040Y-112586944D01*
X121234527Y-112421556D01*
X121293542Y-112239928D01*
X121303393Y-112146206D01*
X121312814Y-112056565D01*
X121313504Y-112050000D01*
X121293542Y-111860072D01*
X121234527Y-111678444D01*
X121139040Y-111513056D01*
X121130701Y-111503794D01*
X121106633Y-111477064D01*
X136837707Y-111477064D01*
X136866825Y-111669599D01*
X136869028Y-111675585D01*
X136869029Y-111675591D01*
X136931860Y-111846360D01*
X136931862Y-111846365D01*
X136934063Y-111852346D01*
X136985200Y-111934821D01*
X137029461Y-112006206D01*
X137036674Y-112017840D01*
X137041055Y-112022473D01*
X137041056Y-112022474D01*
X137104312Y-112089366D01*
X137170466Y-112159322D01*
X137175696Y-112162984D01*
X137175697Y-112162985D01*
X137223039Y-112196134D01*
X137329975Y-112271011D01*
X137335838Y-112273548D01*
X137502825Y-112345810D01*
X137502829Y-112345811D01*
X137508684Y-112348345D01*
X137514931Y-112349650D01*
X137514934Y-112349651D01*
X137694557Y-112387176D01*
X137694562Y-112387177D01*
X137699293Y-112388165D01*
X137705685Y-112388500D01*
X137848663Y-112388500D01*
X137917951Y-112381462D01*
X137987378Y-112374410D01*
X137987379Y-112374410D01*
X137993727Y-112373765D01*
X138074843Y-112348345D01*
X138173451Y-112317444D01*
X138173456Y-112317442D01*
X138179541Y-112315535D01*
X138266475Y-112267346D01*
X138344271Y-112224223D01*
X138344274Y-112224221D01*
X138349850Y-112221130D01*
X138354691Y-112216981D01*
X138354695Y-112216978D01*
X138492855Y-112098560D01*
X138497698Y-112094409D01*
X138507947Y-112081197D01*
X138613131Y-111945594D01*
X138617046Y-111940547D01*
X138638865Y-111896206D01*
X138700200Y-111771556D01*
X138703018Y-111765829D01*
X138712194Y-111730602D01*
X138750492Y-111583575D01*
X138750492Y-111583572D01*
X138752102Y-111577393D01*
X138757360Y-111477064D01*
X139837707Y-111477064D01*
X139866825Y-111669599D01*
X139869028Y-111675585D01*
X139869029Y-111675591D01*
X139931860Y-111846360D01*
X139931862Y-111846365D01*
X139934063Y-111852346D01*
X139985200Y-111934821D01*
X140029461Y-112006206D01*
X140036674Y-112017840D01*
X140041055Y-112022473D01*
X140041056Y-112022474D01*
X140104312Y-112089366D01*
X140170466Y-112159322D01*
X140175696Y-112162984D01*
X140175697Y-112162985D01*
X140223039Y-112196134D01*
X140329975Y-112271011D01*
X140335838Y-112273548D01*
X140502825Y-112345810D01*
X140502829Y-112345811D01*
X140508684Y-112348345D01*
X140514931Y-112349650D01*
X140514934Y-112349651D01*
X140694557Y-112387176D01*
X140694562Y-112387177D01*
X140699293Y-112388165D01*
X140705685Y-112388500D01*
X140848663Y-112388500D01*
X140917951Y-112381462D01*
X140987378Y-112374410D01*
X140987379Y-112374410D01*
X140993727Y-112373765D01*
X141074843Y-112348345D01*
X141173451Y-112317444D01*
X141173456Y-112317442D01*
X141179541Y-112315535D01*
X141266475Y-112267346D01*
X141344271Y-112224223D01*
X141344274Y-112224221D01*
X141349850Y-112221130D01*
X141354691Y-112216981D01*
X141354695Y-112216978D01*
X141492855Y-112098560D01*
X141497698Y-112094409D01*
X141507947Y-112081197D01*
X141613131Y-111945594D01*
X141617046Y-111940547D01*
X141638865Y-111896206D01*
X141700200Y-111771556D01*
X141703018Y-111765829D01*
X141712194Y-111730602D01*
X141750492Y-111583575D01*
X141750492Y-111583572D01*
X141752102Y-111577393D01*
X141757694Y-111470683D01*
X141761959Y-111389317D01*
X141761959Y-111389313D01*
X141762293Y-111382936D01*
X141733175Y-111190401D01*
X141730972Y-111184415D01*
X141730971Y-111184409D01*
X141668140Y-111013640D01*
X141668138Y-111013635D01*
X141665937Y-111007654D01*
X141563326Y-110842160D01*
X141534525Y-110811703D01*
X141433919Y-110705315D01*
X141429534Y-110700678D01*
X141270025Y-110588989D01*
X141222013Y-110568212D01*
X141097175Y-110514190D01*
X141097171Y-110514189D01*
X141091316Y-110511655D01*
X141085069Y-110510350D01*
X141085066Y-110510349D01*
X140905443Y-110472824D01*
X140905438Y-110472823D01*
X140900707Y-110471835D01*
X140894315Y-110471500D01*
X140751337Y-110471500D01*
X140700813Y-110476632D01*
X140612622Y-110485590D01*
X140612621Y-110485590D01*
X140606273Y-110486235D01*
X140549939Y-110503889D01*
X140426549Y-110542556D01*
X140426544Y-110542558D01*
X140420459Y-110544465D01*
X140401526Y-110554960D01*
X140255729Y-110635777D01*
X140255726Y-110635779D01*
X140250150Y-110638870D01*
X140245309Y-110643019D01*
X140245305Y-110643022D01*
X140200578Y-110681358D01*
X140102302Y-110765591D01*
X140098391Y-110770633D01*
X140098390Y-110770634D01*
X140073056Y-110803295D01*
X139982954Y-110919453D01*
X139980138Y-110925176D01*
X139980136Y-110925179D01*
X139937989Y-111010833D01*
X139896982Y-111094171D01*
X139895373Y-111100349D01*
X139895372Y-111100351D01*
X139873477Y-111184409D01*
X139847898Y-111282607D01*
X139837707Y-111477064D01*
X138757360Y-111477064D01*
X138757694Y-111470683D01*
X138761959Y-111389317D01*
X138761959Y-111389313D01*
X138762293Y-111382936D01*
X138733175Y-111190401D01*
X138730972Y-111184415D01*
X138730971Y-111184409D01*
X138668140Y-111013640D01*
X138668138Y-111013635D01*
X138665937Y-111007654D01*
X138563326Y-110842160D01*
X138534525Y-110811703D01*
X138433919Y-110705315D01*
X138429534Y-110700678D01*
X138270025Y-110588989D01*
X138222013Y-110568212D01*
X138097175Y-110514190D01*
X138097171Y-110514189D01*
X138091316Y-110511655D01*
X138085069Y-110510350D01*
X138085066Y-110510349D01*
X137905443Y-110472824D01*
X137905438Y-110472823D01*
X137900707Y-110471835D01*
X137894315Y-110471500D01*
X137751337Y-110471500D01*
X137700813Y-110476632D01*
X137612622Y-110485590D01*
X137612621Y-110485590D01*
X137606273Y-110486235D01*
X137549939Y-110503889D01*
X137426549Y-110542556D01*
X137426544Y-110542558D01*
X137420459Y-110544465D01*
X137401526Y-110554960D01*
X137255729Y-110635777D01*
X137255726Y-110635779D01*
X137250150Y-110638870D01*
X137245309Y-110643019D01*
X137245305Y-110643022D01*
X137200578Y-110681358D01*
X137102302Y-110765591D01*
X137098391Y-110770633D01*
X137098390Y-110770634D01*
X137073056Y-110803295D01*
X136982954Y-110919453D01*
X136980138Y-110925176D01*
X136980136Y-110925179D01*
X136937989Y-111010833D01*
X136896982Y-111094171D01*
X136895373Y-111100349D01*
X136895372Y-111100351D01*
X136873477Y-111184409D01*
X136847898Y-111282607D01*
X136837707Y-111477064D01*
X121106633Y-111477064D01*
X121015675Y-111376045D01*
X121015674Y-111376044D01*
X121011253Y-111371134D01*
X120912157Y-111299136D01*
X120862094Y-111262763D01*
X120862093Y-111262762D01*
X120856752Y-111258882D01*
X120850724Y-111256198D01*
X120850722Y-111256197D01*
X120688319Y-111183891D01*
X120688318Y-111183891D01*
X120682288Y-111181206D01*
X120588887Y-111161353D01*
X120501944Y-111142872D01*
X120501939Y-111142872D01*
X120495487Y-111141500D01*
X120304513Y-111141500D01*
X120298061Y-111142872D01*
X120298056Y-111142872D01*
X120211112Y-111161353D01*
X120117712Y-111181206D01*
X120111682Y-111183891D01*
X120111681Y-111183891D01*
X119949278Y-111256197D01*
X119949276Y-111256198D01*
X119943248Y-111258882D01*
X119937907Y-111262763D01*
X119932189Y-111266064D01*
X119930692Y-111263472D01*
X119876154Y-111283000D01*
X119806984Y-111266998D01*
X119794762Y-111259153D01*
X119656752Y-111158882D01*
X119650724Y-111156198D01*
X119650722Y-111156197D01*
X119488319Y-111083891D01*
X119488318Y-111083891D01*
X119482288Y-111081206D01*
X119388887Y-111061353D01*
X119301944Y-111042872D01*
X119301939Y-111042872D01*
X119295487Y-111041500D01*
X119104513Y-111041500D01*
X119098061Y-111042872D01*
X119098056Y-111042872D01*
X119011113Y-111061353D01*
X118917712Y-111081206D01*
X118911682Y-111083891D01*
X118911681Y-111083891D01*
X118749278Y-111156197D01*
X118749276Y-111156198D01*
X118743248Y-111158882D01*
X118588747Y-111271134D01*
X118584326Y-111276044D01*
X118584325Y-111276045D01*
X118482335Y-111389317D01*
X118460960Y-111413056D01*
X118365473Y-111578444D01*
X118306458Y-111760072D01*
X118305768Y-111766633D01*
X118305768Y-111766635D01*
X118292810Y-111889928D01*
X118286496Y-111950000D01*
X109483000Y-111950000D01*
X109483000Y-110334000D01*
X109503002Y-110265879D01*
X109556658Y-110219386D01*
X109609000Y-110208000D01*
X114966298Y-110208000D01*
X114967069Y-110208002D01*
X115044652Y-110208476D01*
X115053281Y-110206010D01*
X115053286Y-110206009D01*
X115073048Y-110200361D01*
X115089809Y-110196783D01*
X115110152Y-110193870D01*
X115110162Y-110193867D01*
X115119045Y-110192595D01*
X115142395Y-110181979D01*
X115159907Y-110175536D01*
X115175937Y-110170954D01*
X115184565Y-110168488D01*
X115209548Y-110152726D01*
X115224614Y-110144596D01*
X115251510Y-110132367D01*
X115270939Y-110115626D01*
X115285947Y-110104521D01*
X115300039Y-110095630D01*
X115307631Y-110090840D01*
X115327182Y-110068703D01*
X115339374Y-110056659D01*
X115354949Y-110043239D01*
X115354950Y-110043237D01*
X115361747Y-110037381D01*
X115366626Y-110029853D01*
X115366629Y-110029850D01*
X115375696Y-110015861D01*
X115386986Y-110000987D01*
X115398012Y-109988502D01*
X115403956Y-109981772D01*
X115416510Y-109955034D01*
X115424824Y-109940065D01*
X115440893Y-109915273D01*
X115448239Y-109890709D01*
X115454901Y-109873264D01*
X115461983Y-109858179D01*
X115465799Y-109850052D01*
X115470343Y-109820870D01*
X115474126Y-109804151D01*
X115480014Y-109784464D01*
X115480015Y-109784461D01*
X115482587Y-109775859D01*
X115482797Y-109741444D01*
X115482830Y-109740672D01*
X115483000Y-109739577D01*
X115483000Y-109708702D01*
X115483002Y-109707932D01*
X115483452Y-109634284D01*
X115483452Y-109634283D01*
X115483476Y-109630348D01*
X115483092Y-109629004D01*
X115483000Y-109627659D01*
X115483000Y-108040862D01*
X132830497Y-108040862D01*
X132831737Y-108048078D01*
X132831737Y-108048080D01*
X132857842Y-108200000D01*
X132860134Y-108213340D01*
X132897560Y-108301298D01*
X132922474Y-108359848D01*
X132928654Y-108374373D01*
X133032383Y-108515324D01*
X133037961Y-108520063D01*
X133037964Y-108520066D01*
X133160176Y-108623893D01*
X133160180Y-108623896D01*
X133165755Y-108628632D01*
X133246572Y-108669899D01*
X133279435Y-108686680D01*
X133321616Y-108708219D01*
X133328721Y-108709958D01*
X133328725Y-108709959D01*
X133372172Y-108720590D01*
X133491606Y-108749815D01*
X133497206Y-108750162D01*
X133497210Y-108750163D01*
X133500709Y-108750380D01*
X133500718Y-108750380D01*
X133502648Y-108750500D01*
X133628822Y-108750500D01*
X133720369Y-108739827D01*
X133751556Y-108736191D01*
X133751558Y-108736191D01*
X133758828Y-108735343D01*
X133765705Y-108732847D01*
X133765708Y-108732846D01*
X133916452Y-108678128D01*
X133923331Y-108675631D01*
X134069685Y-108579677D01*
X134190040Y-108452628D01*
X134277939Y-108301298D01*
X134308619Y-108200000D01*
X135136496Y-108200000D01*
X135137186Y-108206565D01*
X135154035Y-108366870D01*
X135156458Y-108389928D01*
X135215473Y-108571556D01*
X135218776Y-108577278D01*
X135218777Y-108577279D01*
X135222478Y-108583689D01*
X135310960Y-108736944D01*
X135438747Y-108878866D01*
X135593248Y-108991118D01*
X135599276Y-108993802D01*
X135599278Y-108993803D01*
X135759799Y-109065271D01*
X135767712Y-109068794D01*
X135861112Y-109088647D01*
X135948056Y-109107128D01*
X135948061Y-109107128D01*
X135954513Y-109108500D01*
X136145487Y-109108500D01*
X136151939Y-109107128D01*
X136151944Y-109107128D01*
X136238887Y-109088647D01*
X136332288Y-109068794D01*
X136340201Y-109065271D01*
X136500722Y-108993803D01*
X136500724Y-108993802D01*
X136506752Y-108991118D01*
X136661253Y-108878866D01*
X136789040Y-108736944D01*
X136810370Y-108700000D01*
X138086496Y-108700000D01*
X138106458Y-108889928D01*
X138165473Y-109071556D01*
X138168776Y-109077278D01*
X138168777Y-109077279D01*
X138200568Y-109132342D01*
X138260960Y-109236944D01*
X138265378Y-109241851D01*
X138265379Y-109241852D01*
X138368740Y-109356646D01*
X138388747Y-109378866D01*
X138454433Y-109426590D01*
X138534452Y-109484727D01*
X138543248Y-109491118D01*
X138549276Y-109493802D01*
X138549278Y-109493803D01*
X138711681Y-109566109D01*
X138717712Y-109568794D01*
X138811113Y-109588647D01*
X138898056Y-109607128D01*
X138898061Y-109607128D01*
X138904513Y-109608500D01*
X139095487Y-109608500D01*
X139101939Y-109607128D01*
X139101944Y-109607128D01*
X139188888Y-109588647D01*
X139282288Y-109568794D01*
X139288319Y-109566109D01*
X139450722Y-109493803D01*
X139450724Y-109493802D01*
X139456752Y-109491118D01*
X139465549Y-109484727D01*
X139545567Y-109426590D01*
X139611253Y-109378866D01*
X139631260Y-109356646D01*
X139658228Y-109326695D01*
X147287251Y-109326695D01*
X147287548Y-109331848D01*
X147287548Y-109331851D01*
X147293011Y-109426590D01*
X147300110Y-109549715D01*
X147301247Y-109554761D01*
X147301248Y-109554767D01*
X147313358Y-109608500D01*
X147349222Y-109767639D01*
X147410673Y-109918976D01*
X147422160Y-109947264D01*
X147433266Y-109974616D01*
X147458541Y-110015861D01*
X147542415Y-110152731D01*
X147549987Y-110165088D01*
X147696250Y-110333938D01*
X147700230Y-110337242D01*
X147704981Y-110341187D01*
X147744616Y-110400090D01*
X147746113Y-110471071D01*
X147708997Y-110531593D01*
X147668724Y-110556112D01*
X147553295Y-110599385D01*
X147436739Y-110686739D01*
X147349385Y-110803295D01*
X147298255Y-110939684D01*
X147291500Y-111001866D01*
X147291500Y-112798134D01*
X147298255Y-112860316D01*
X147349385Y-112996705D01*
X147436739Y-113113261D01*
X147553295Y-113200615D01*
X147689684Y-113251745D01*
X147751866Y-113258500D01*
X149548134Y-113258500D01*
X149610316Y-113251745D01*
X149746705Y-113200615D01*
X149863261Y-113113261D01*
X149950615Y-112996705D01*
X150001745Y-112860316D01*
X150008500Y-112798134D01*
X150008500Y-111001866D01*
X150001745Y-110939684D01*
X149950615Y-110803295D01*
X149863261Y-110686739D01*
X149746705Y-110599385D01*
X149718974Y-110588989D01*
X149628203Y-110554960D01*
X149571439Y-110512318D01*
X149546739Y-110445756D01*
X149561947Y-110376408D01*
X149583493Y-110347727D01*
X149662722Y-110268774D01*
X149688096Y-110243489D01*
X149719087Y-110200361D01*
X149815435Y-110066277D01*
X149818453Y-110062077D01*
X149827764Y-110043239D01*
X149915136Y-109866453D01*
X149915137Y-109866451D01*
X149917430Y-109861811D01*
X149954568Y-109739577D01*
X149980865Y-109653023D01*
X149980865Y-109653021D01*
X149982370Y-109648069D01*
X150011529Y-109426590D01*
X150013156Y-109360000D01*
X149994852Y-109137361D01*
X149940431Y-108920702D01*
X149851354Y-108715840D01*
X149759830Y-108574365D01*
X149732822Y-108532617D01*
X149732820Y-108532614D01*
X149730014Y-108528277D01*
X149579670Y-108363051D01*
X149575619Y-108359852D01*
X149575615Y-108359848D01*
X149408414Y-108227800D01*
X149408410Y-108227798D01*
X149404359Y-108224598D01*
X149208789Y-108116638D01*
X149203920Y-108114914D01*
X149203916Y-108114912D01*
X149003087Y-108043795D01*
X149003083Y-108043794D01*
X148998212Y-108042069D01*
X148993119Y-108041162D01*
X148993116Y-108041161D01*
X148783373Y-108003800D01*
X148783367Y-108003799D01*
X148778284Y-108002894D01*
X148704452Y-108001992D01*
X148560081Y-108000228D01*
X148560079Y-108000228D01*
X148554911Y-108000165D01*
X148334091Y-108033955D01*
X148121756Y-108103357D01*
X147923607Y-108206507D01*
X147919474Y-108209610D01*
X147919471Y-108209612D01*
X147752831Y-108334729D01*
X147744965Y-108340635D01*
X147590629Y-108502138D01*
X147464743Y-108686680D01*
X147439133Y-108741852D01*
X147375534Y-108878866D01*
X147370688Y-108889305D01*
X147310989Y-109104570D01*
X147287251Y-109326695D01*
X139658228Y-109326695D01*
X139734621Y-109241852D01*
X139734622Y-109241851D01*
X139739040Y-109236944D01*
X139799432Y-109132342D01*
X139831223Y-109077279D01*
X139831224Y-109077278D01*
X139834527Y-109071556D01*
X139893542Y-108889928D01*
X139913504Y-108700000D01*
X139900606Y-108577279D01*
X139894232Y-108516635D01*
X139894232Y-108516633D01*
X139893542Y-108510072D01*
X139834527Y-108328444D01*
X139739040Y-108163056D01*
X139719013Y-108140813D01*
X139615675Y-108026045D01*
X139615674Y-108026044D01*
X139611253Y-108021134D01*
X139456752Y-107908882D01*
X139450724Y-107906198D01*
X139450722Y-107906197D01*
X139288319Y-107833891D01*
X139288318Y-107833891D01*
X139282288Y-107831206D01*
X139188887Y-107811353D01*
X139101944Y-107792872D01*
X139101939Y-107792872D01*
X139095487Y-107791500D01*
X138904513Y-107791500D01*
X138898061Y-107792872D01*
X138898056Y-107792872D01*
X138811113Y-107811353D01*
X138717712Y-107831206D01*
X138711682Y-107833891D01*
X138711681Y-107833891D01*
X138549278Y-107906197D01*
X138549276Y-107906198D01*
X138543248Y-107908882D01*
X138388747Y-108021134D01*
X138384326Y-108026044D01*
X138384325Y-108026045D01*
X138280988Y-108140813D01*
X138260960Y-108163056D01*
X138165473Y-108328444D01*
X138106458Y-108510072D01*
X138105768Y-108516633D01*
X138105768Y-108516635D01*
X138099394Y-108577279D01*
X138086496Y-108700000D01*
X136810370Y-108700000D01*
X136877522Y-108583689D01*
X136881223Y-108577279D01*
X136881224Y-108577278D01*
X136884527Y-108571556D01*
X136943542Y-108389928D01*
X136945966Y-108366870D01*
X136962814Y-108206565D01*
X136963504Y-108200000D01*
X136947537Y-108048080D01*
X136944232Y-108016635D01*
X136944232Y-108016633D01*
X136943542Y-108010072D01*
X136884527Y-107828444D01*
X136863990Y-107792872D01*
X136809620Y-107698702D01*
X136789040Y-107663056D01*
X136661253Y-107521134D01*
X136562157Y-107449136D01*
X136512094Y-107412763D01*
X136512093Y-107412762D01*
X136506752Y-107408882D01*
X136500724Y-107406198D01*
X136500722Y-107406197D01*
X136338319Y-107333891D01*
X136338318Y-107333891D01*
X136332288Y-107331206D01*
X136238888Y-107311353D01*
X136151944Y-107292872D01*
X136151939Y-107292872D01*
X136145487Y-107291500D01*
X135954513Y-107291500D01*
X135948061Y-107292872D01*
X135948056Y-107292872D01*
X135861112Y-107311353D01*
X135767712Y-107331206D01*
X135761682Y-107333891D01*
X135761681Y-107333891D01*
X135599278Y-107406197D01*
X135599276Y-107406198D01*
X135593248Y-107408882D01*
X135587907Y-107412762D01*
X135587906Y-107412763D01*
X135537843Y-107449136D01*
X135438747Y-107521134D01*
X135310960Y-107663056D01*
X135290380Y-107698702D01*
X135236011Y-107792872D01*
X135215473Y-107828444D01*
X135156458Y-108010072D01*
X135155768Y-108016633D01*
X135155768Y-108016635D01*
X135152463Y-108048080D01*
X135136496Y-108200000D01*
X134308619Y-108200000D01*
X134328667Y-108133807D01*
X134339503Y-107959138D01*
X134331535Y-107912763D01*
X134311106Y-107793875D01*
X134311105Y-107793873D01*
X134309866Y-107786660D01*
X134241346Y-107625627D01*
X134137617Y-107484676D01*
X134132039Y-107479937D01*
X134132036Y-107479934D01*
X134009824Y-107376107D01*
X134009820Y-107376104D01*
X134004245Y-107371368D01*
X133920062Y-107328382D01*
X133854900Y-107295108D01*
X133854898Y-107295107D01*
X133848384Y-107291781D01*
X133841279Y-107290042D01*
X133841275Y-107290041D01*
X133747741Y-107267154D01*
X133678394Y-107250185D01*
X133672794Y-107249838D01*
X133672790Y-107249837D01*
X133669291Y-107249620D01*
X133669282Y-107249620D01*
X133667352Y-107249500D01*
X133541178Y-107249500D01*
X133449631Y-107260173D01*
X133418444Y-107263809D01*
X133418442Y-107263809D01*
X133411172Y-107264657D01*
X133404295Y-107267153D01*
X133404292Y-107267154D01*
X133333441Y-107292872D01*
X133246669Y-107324369D01*
X133100315Y-107420323D01*
X132979960Y-107547372D01*
X132892061Y-107698702D01*
X132841333Y-107866193D01*
X132830497Y-108040862D01*
X115483000Y-108040862D01*
X115483000Y-105475000D01*
X125711496Y-105475000D01*
X125712186Y-105481565D01*
X125730613Y-105656885D01*
X125731458Y-105664928D01*
X125790473Y-105846556D01*
X125885960Y-106011944D01*
X125890378Y-106016851D01*
X125890379Y-106016852D01*
X125984335Y-106121201D01*
X126013747Y-106153866D01*
X126168248Y-106266118D01*
X126174276Y-106268802D01*
X126174278Y-106268803D01*
X126336681Y-106341109D01*
X126342712Y-106343794D01*
X126436112Y-106363647D01*
X126523056Y-106382128D01*
X126523061Y-106382128D01*
X126529513Y-106383500D01*
X126720487Y-106383500D01*
X126726939Y-106382128D01*
X126726944Y-106382128D01*
X126813888Y-106363647D01*
X126907288Y-106343794D01*
X126913319Y-106341109D01*
X127005652Y-106300000D01*
X142186496Y-106300000D01*
X142206458Y-106489928D01*
X142265473Y-106671556D01*
X142360960Y-106836944D01*
X142365378Y-106841851D01*
X142365379Y-106841852D01*
X142484325Y-106973955D01*
X142488747Y-106978866D01*
X142643248Y-107091118D01*
X142649276Y-107093802D01*
X142649278Y-107093803D01*
X142811681Y-107166109D01*
X142817712Y-107168794D01*
X142911113Y-107188647D01*
X142998056Y-107207128D01*
X142998061Y-107207128D01*
X143004513Y-107208500D01*
X143195487Y-107208500D01*
X143201939Y-107207128D01*
X143201944Y-107207128D01*
X143288888Y-107188647D01*
X143382288Y-107168794D01*
X143388319Y-107166109D01*
X143550722Y-107093803D01*
X143550724Y-107093802D01*
X143556752Y-107091118D01*
X143711253Y-106978866D01*
X143715675Y-106973955D01*
X143834621Y-106841852D01*
X143834622Y-106841851D01*
X143839040Y-106836944D01*
X143934527Y-106671556D01*
X143993542Y-106489928D01*
X144013504Y-106300000D01*
X144008534Y-106252709D01*
X143994232Y-106116635D01*
X143994232Y-106116633D01*
X143993542Y-106110072D01*
X143934527Y-105928444D01*
X143928451Y-105917919D01*
X143842341Y-105768774D01*
X143839040Y-105763056D01*
X143832953Y-105756295D01*
X143715675Y-105626045D01*
X143715674Y-105626044D01*
X143711253Y-105621134D01*
X143556752Y-105508882D01*
X143550724Y-105506198D01*
X143550722Y-105506197D01*
X143388319Y-105433891D01*
X143388318Y-105433891D01*
X143382288Y-105431206D01*
X143288888Y-105411353D01*
X143201944Y-105392872D01*
X143201939Y-105392872D01*
X143195487Y-105391500D01*
X143004513Y-105391500D01*
X142998061Y-105392872D01*
X142998056Y-105392872D01*
X142911113Y-105411353D01*
X142817712Y-105431206D01*
X142811682Y-105433891D01*
X142811681Y-105433891D01*
X142649278Y-105506197D01*
X142649276Y-105506198D01*
X142643248Y-105508882D01*
X142488747Y-105621134D01*
X142484326Y-105626044D01*
X142484325Y-105626045D01*
X142367048Y-105756295D01*
X142360960Y-105763056D01*
X142357659Y-105768774D01*
X142271550Y-105917919D01*
X142265473Y-105928444D01*
X142206458Y-106110072D01*
X142205768Y-106116633D01*
X142205768Y-106116635D01*
X142191466Y-106252709D01*
X142186496Y-106300000D01*
X127005652Y-106300000D01*
X127075722Y-106268803D01*
X127075724Y-106268802D01*
X127081752Y-106266118D01*
X127236253Y-106153866D01*
X127265665Y-106121201D01*
X127359621Y-106016852D01*
X127359622Y-106016851D01*
X127364040Y-106011944D01*
X127459527Y-105846556D01*
X127518542Y-105664928D01*
X127519388Y-105656885D01*
X127537814Y-105481565D01*
X127538504Y-105475000D01*
X127518542Y-105285072D01*
X127459527Y-105103444D01*
X127364040Y-104938056D01*
X127236253Y-104796134D01*
X127081752Y-104683882D01*
X127075724Y-104681198D01*
X127075722Y-104681197D01*
X126913319Y-104608891D01*
X126913318Y-104608891D01*
X126907288Y-104606206D01*
X126813887Y-104586353D01*
X126726944Y-104567872D01*
X126726939Y-104567872D01*
X126720487Y-104566500D01*
X126529513Y-104566500D01*
X126523061Y-104567872D01*
X126523056Y-104567872D01*
X126436113Y-104586353D01*
X126342712Y-104606206D01*
X126336682Y-104608891D01*
X126336681Y-104608891D01*
X126174278Y-104681197D01*
X126174276Y-104681198D01*
X126168248Y-104683882D01*
X126013747Y-104796134D01*
X125885960Y-104938056D01*
X125790473Y-105103444D01*
X125731458Y-105285072D01*
X125711496Y-105475000D01*
X115483000Y-105475000D01*
X115483000Y-102792948D01*
X126829304Y-102792948D01*
X126829994Y-102799513D01*
X126837522Y-102871134D01*
X126849266Y-102982876D01*
X126908281Y-103164504D01*
X127003768Y-103329892D01*
X127008186Y-103334799D01*
X127008187Y-103334800D01*
X127127133Y-103466903D01*
X127131555Y-103471814D01*
X127286056Y-103584066D01*
X127292084Y-103586750D01*
X127292086Y-103586751D01*
X127412881Y-103640532D01*
X127460520Y-103661742D01*
X127553920Y-103681595D01*
X127640864Y-103700076D01*
X127640869Y-103700076D01*
X127647321Y-103701448D01*
X127838295Y-103701448D01*
X127844747Y-103700076D01*
X127844752Y-103700076D01*
X127931696Y-103681595D01*
X128025096Y-103661742D01*
X128072735Y-103640532D01*
X128193530Y-103586751D01*
X128193532Y-103586750D01*
X128199560Y-103584066D01*
X128354061Y-103471814D01*
X128358483Y-103466903D01*
X128418723Y-103400000D01*
X139186496Y-103400000D01*
X139187186Y-103406565D01*
X139204375Y-103570105D01*
X139206458Y-103589928D01*
X139265473Y-103771556D01*
X139268776Y-103777278D01*
X139268777Y-103777279D01*
X139288465Y-103811380D01*
X139360960Y-103936944D01*
X139488747Y-104078866D01*
X139643248Y-104191118D01*
X139649276Y-104193802D01*
X139649278Y-104193803D01*
X139797026Y-104259584D01*
X139817712Y-104268794D01*
X139911112Y-104288647D01*
X139998056Y-104307128D01*
X139998061Y-104307128D01*
X140004513Y-104308500D01*
X140195487Y-104308500D01*
X140201939Y-104307128D01*
X140201944Y-104307128D01*
X140288888Y-104288647D01*
X140382288Y-104268794D01*
X140402974Y-104259584D01*
X140550722Y-104193803D01*
X140550724Y-104193802D01*
X140556752Y-104191118D01*
X140711253Y-104078866D01*
X140839040Y-103936944D01*
X140911535Y-103811380D01*
X140931223Y-103777279D01*
X140931224Y-103777278D01*
X140934527Y-103771556D01*
X140993542Y-103589928D01*
X140995626Y-103570105D01*
X140997739Y-103550000D01*
X143386496Y-103550000D01*
X143387186Y-103556565D01*
X143402414Y-103701448D01*
X143406458Y-103739928D01*
X143465473Y-103921556D01*
X143468776Y-103927278D01*
X143468777Y-103927279D01*
X143490488Y-103964884D01*
X143560960Y-104086944D01*
X143565378Y-104091851D01*
X143565379Y-104091852D01*
X143655069Y-104191463D01*
X143688747Y-104228866D01*
X143784020Y-104298086D01*
X143833088Y-104333736D01*
X143843248Y-104341118D01*
X143849276Y-104343802D01*
X143849278Y-104343803D01*
X144011681Y-104416109D01*
X144017712Y-104418794D01*
X144111112Y-104438647D01*
X144198056Y-104457128D01*
X144198061Y-104457128D01*
X144204513Y-104458500D01*
X144395487Y-104458500D01*
X144401939Y-104457128D01*
X144401944Y-104457128D01*
X144488888Y-104438647D01*
X144582288Y-104418794D01*
X144588319Y-104416109D01*
X144750722Y-104343803D01*
X144750724Y-104343802D01*
X144756752Y-104341118D01*
X144762094Y-104337237D01*
X144875352Y-104254950D01*
X144942220Y-104231091D01*
X145011371Y-104247172D01*
X145060852Y-104298086D01*
X145074951Y-104367668D01*
X145073077Y-104381033D01*
X145041772Y-104541336D01*
X145041500Y-104546898D01*
X145041500Y-105202845D01*
X145056548Y-105360565D01*
X145116092Y-105563533D01*
X145118836Y-105568860D01*
X145118836Y-105568861D01*
X145164934Y-105658365D01*
X145212942Y-105751579D01*
X145343604Y-105917919D01*
X145348135Y-105921851D01*
X145348138Y-105921854D01*
X145451958Y-106011944D01*
X145503363Y-106056551D01*
X145508549Y-106059551D01*
X145508553Y-106059554D01*
X145622179Y-106125288D01*
X145686454Y-106162472D01*
X145886271Y-106231860D01*
X145892206Y-106232721D01*
X145892208Y-106232721D01*
X146089664Y-106261351D01*
X146089667Y-106261351D01*
X146095604Y-106262212D01*
X146306899Y-106252432D01*
X146438077Y-106220818D01*
X146506701Y-106204280D01*
X146506703Y-106204279D01*
X146512534Y-106202874D01*
X146517992Y-106200392D01*
X146517996Y-106200391D01*
X146643331Y-106143404D01*
X146705087Y-106115325D01*
X146858888Y-106006226D01*
X146872725Y-105996411D01*
X146872726Y-105996410D01*
X146877611Y-105992945D01*
X147023881Y-105840149D01*
X147138620Y-105662451D01*
X147206584Y-105493810D01*
X147215442Y-105471831D01*
X147215443Y-105471828D01*
X147217686Y-105466262D01*
X147258228Y-105258662D01*
X147258500Y-105253100D01*
X147258500Y-104597153D01*
X147243452Y-104439433D01*
X147183908Y-104236465D01*
X147161936Y-104193803D01*
X147089804Y-104053750D01*
X147089802Y-104053747D01*
X147087058Y-104048419D01*
X146956396Y-103882079D01*
X146951865Y-103878147D01*
X146951862Y-103878144D01*
X146801167Y-103747378D01*
X146796637Y-103743447D01*
X146791451Y-103740447D01*
X146791447Y-103740444D01*
X146618742Y-103640532D01*
X146613546Y-103637526D01*
X146413729Y-103568138D01*
X146407794Y-103567277D01*
X146407792Y-103567277D01*
X146210336Y-103538647D01*
X146210333Y-103538647D01*
X146204396Y-103537786D01*
X145993101Y-103547566D01*
X145861923Y-103579180D01*
X145793299Y-103595718D01*
X145793297Y-103595719D01*
X145787466Y-103597124D01*
X145782008Y-103599606D01*
X145782004Y-103599607D01*
X145666959Y-103651915D01*
X145594913Y-103684673D01*
X145422389Y-103807053D01*
X145418248Y-103811379D01*
X145418242Y-103811384D01*
X145412244Y-103817650D01*
X145350690Y-103853027D01*
X145279780Y-103849510D01*
X145222029Y-103808214D01*
X145195772Y-103742251D01*
X145195915Y-103717351D01*
X145212814Y-103556565D01*
X145213504Y-103550000D01*
X145205695Y-103475697D01*
X145194232Y-103366635D01*
X145194232Y-103366633D01*
X145193542Y-103360072D01*
X145134527Y-103178444D01*
X145039040Y-103013056D01*
X145005957Y-102976313D01*
X144915675Y-102876045D01*
X144915674Y-102876044D01*
X144911253Y-102871134D01*
X144756752Y-102758882D01*
X144750724Y-102756198D01*
X144750722Y-102756197D01*
X144588319Y-102683891D01*
X144588318Y-102683891D01*
X144582288Y-102681206D01*
X144488888Y-102661353D01*
X144401944Y-102642872D01*
X144401939Y-102642872D01*
X144395487Y-102641500D01*
X144204513Y-102641500D01*
X144198061Y-102642872D01*
X144198056Y-102642872D01*
X144111112Y-102661353D01*
X144017712Y-102681206D01*
X144011682Y-102683891D01*
X144011681Y-102683891D01*
X143849278Y-102756197D01*
X143849276Y-102756198D01*
X143843248Y-102758882D01*
X143688747Y-102871134D01*
X143684326Y-102876044D01*
X143684325Y-102876045D01*
X143594044Y-102976313D01*
X143560960Y-103013056D01*
X143465473Y-103178444D01*
X143406458Y-103360072D01*
X143405768Y-103366633D01*
X143405768Y-103366635D01*
X143394305Y-103475697D01*
X143386496Y-103550000D01*
X140997739Y-103550000D01*
X141012814Y-103406565D01*
X141013504Y-103400000D01*
X141006651Y-103334800D01*
X140994232Y-103216635D01*
X140994232Y-103216633D01*
X140993542Y-103210072D01*
X140934527Y-103028444D01*
X140839040Y-102863056D01*
X140770004Y-102786383D01*
X140715675Y-102726045D01*
X140715674Y-102726044D01*
X140711253Y-102721134D01*
X140556752Y-102608882D01*
X140550724Y-102606198D01*
X140550722Y-102606197D01*
X140388319Y-102533891D01*
X140388318Y-102533891D01*
X140382288Y-102531206D01*
X140288887Y-102511353D01*
X140201944Y-102492872D01*
X140201939Y-102492872D01*
X140195487Y-102491500D01*
X140004513Y-102491500D01*
X139998061Y-102492872D01*
X139998056Y-102492872D01*
X139911112Y-102511353D01*
X139817712Y-102531206D01*
X139811682Y-102533891D01*
X139811681Y-102533891D01*
X139649278Y-102606197D01*
X139649276Y-102606198D01*
X139643248Y-102608882D01*
X139488747Y-102721134D01*
X139484326Y-102726044D01*
X139484325Y-102726045D01*
X139429997Y-102786383D01*
X139360960Y-102863056D01*
X139265473Y-103028444D01*
X139206458Y-103210072D01*
X139205768Y-103216633D01*
X139205768Y-103216635D01*
X139193349Y-103334800D01*
X139186496Y-103400000D01*
X128418723Y-103400000D01*
X128477429Y-103334800D01*
X128477430Y-103334799D01*
X128481848Y-103329892D01*
X128577335Y-103164504D01*
X128636350Y-102982876D01*
X128648095Y-102871134D01*
X128655622Y-102799513D01*
X128656312Y-102792948D01*
X128644568Y-102681206D01*
X128637040Y-102609583D01*
X128637040Y-102609581D01*
X128636350Y-102603020D01*
X128614171Y-102534760D01*
X128612143Y-102463794D01*
X128624885Y-102432825D01*
X128712302Y-102281415D01*
X128712303Y-102281414D01*
X128715606Y-102275692D01*
X128774621Y-102094064D01*
X128794583Y-101904136D01*
X128774621Y-101714208D01*
X128715606Y-101532580D01*
X128712302Y-101526857D01*
X128709618Y-101520829D01*
X128711099Y-101520170D01*
X128696283Y-101459117D01*
X128713022Y-101402105D01*
X128756223Y-101327279D01*
X128756224Y-101327278D01*
X128759527Y-101321556D01*
X128818542Y-101139928D01*
X128838504Y-100950000D01*
X128832190Y-100889928D01*
X128819232Y-100766635D01*
X128819232Y-100766633D01*
X128818542Y-100760072D01*
X128799023Y-100700000D01*
X139186496Y-100700000D01*
X139187186Y-100706565D01*
X139193500Y-100766635D01*
X139206458Y-100889928D01*
X139265473Y-101071556D01*
X139360960Y-101236944D01*
X139365378Y-101241851D01*
X139365379Y-101241852D01*
X139448319Y-101333966D01*
X139488747Y-101378866D01*
X139643248Y-101491118D01*
X139649276Y-101493802D01*
X139649278Y-101493803D01*
X139750490Y-101538865D01*
X139817712Y-101568794D01*
X139911112Y-101588647D01*
X139998056Y-101607128D01*
X139998061Y-101607128D01*
X140004513Y-101608500D01*
X140195487Y-101608500D01*
X140201939Y-101607128D01*
X140201944Y-101607128D01*
X140288887Y-101588647D01*
X140382288Y-101568794D01*
X140449510Y-101538865D01*
X140550722Y-101493803D01*
X140550724Y-101493802D01*
X140556752Y-101491118D01*
X140711253Y-101378866D01*
X140751681Y-101333966D01*
X140834621Y-101241852D01*
X140834622Y-101241851D01*
X140839040Y-101236944D01*
X140934527Y-101071556D01*
X140993542Y-100889928D01*
X141006501Y-100766635D01*
X141012814Y-100706565D01*
X141013504Y-100700000D01*
X140993542Y-100510072D01*
X140934527Y-100328444D01*
X140839040Y-100163056D01*
X140799630Y-100119286D01*
X140715675Y-100026045D01*
X140715674Y-100026044D01*
X140711253Y-100021134D01*
X140556752Y-99908882D01*
X140550724Y-99906198D01*
X140550722Y-99906197D01*
X140388319Y-99833891D01*
X140388318Y-99833891D01*
X140382288Y-99831206D01*
X140288888Y-99811353D01*
X140201944Y-99792872D01*
X140201939Y-99792872D01*
X140195487Y-99791500D01*
X140004513Y-99791500D01*
X139998061Y-99792872D01*
X139998056Y-99792872D01*
X139911112Y-99811353D01*
X139817712Y-99831206D01*
X139811682Y-99833891D01*
X139811681Y-99833891D01*
X139649278Y-99906197D01*
X139649276Y-99906198D01*
X139643248Y-99908882D01*
X139488747Y-100021134D01*
X139484326Y-100026044D01*
X139484325Y-100026045D01*
X139400371Y-100119286D01*
X139360960Y-100163056D01*
X139265473Y-100328444D01*
X139206458Y-100510072D01*
X139186496Y-100700000D01*
X128799023Y-100700000D01*
X128759527Y-100578444D01*
X128664040Y-100413056D01*
X128536253Y-100271134D01*
X128411799Y-100180712D01*
X128368446Y-100124492D01*
X128362371Y-100053756D01*
X128392225Y-99994468D01*
X128484621Y-99891852D01*
X128484622Y-99891851D01*
X128489040Y-99886944D01*
X128584527Y-99721556D01*
X128643542Y-99539928D01*
X128663504Y-99350000D01*
X128643542Y-99160072D01*
X128584527Y-98978444D01*
X128489040Y-98813056D01*
X128483196Y-98806565D01*
X128477285Y-98800000D01*
X136286496Y-98800000D01*
X136287186Y-98806565D01*
X136303011Y-98957128D01*
X136306458Y-98989928D01*
X136365473Y-99171556D01*
X136460960Y-99336944D01*
X136465378Y-99341851D01*
X136465379Y-99341852D01*
X136478627Y-99356565D01*
X136588747Y-99478866D01*
X136743248Y-99591118D01*
X136749276Y-99593802D01*
X136749278Y-99593803D01*
X136911681Y-99666109D01*
X136917712Y-99668794D01*
X137011112Y-99688647D01*
X137098056Y-99707128D01*
X137098061Y-99707128D01*
X137104513Y-99708500D01*
X137295487Y-99708500D01*
X137301939Y-99707128D01*
X137301944Y-99707128D01*
X137388888Y-99688647D01*
X137482288Y-99668794D01*
X137488319Y-99666109D01*
X137650722Y-99593803D01*
X137650724Y-99593802D01*
X137656752Y-99591118D01*
X137811253Y-99478866D01*
X137921373Y-99356565D01*
X137934621Y-99341852D01*
X137934622Y-99341851D01*
X137939040Y-99336944D01*
X138034527Y-99171556D01*
X138093542Y-98989928D01*
X138096990Y-98957128D01*
X138112814Y-98806565D01*
X138113504Y-98800000D01*
X138108089Y-98748480D01*
X138094232Y-98616635D01*
X138094232Y-98616633D01*
X138093542Y-98610072D01*
X138034527Y-98428444D01*
X137939040Y-98263056D01*
X137926814Y-98249477D01*
X137815675Y-98126045D01*
X137815674Y-98126044D01*
X137811253Y-98121134D01*
X137688380Y-98031861D01*
X137662094Y-98012763D01*
X137662093Y-98012762D01*
X137656752Y-98008882D01*
X137650724Y-98006198D01*
X137650722Y-98006197D01*
X137488319Y-97933891D01*
X137488318Y-97933891D01*
X137482288Y-97931206D01*
X137385049Y-97910537D01*
X137301944Y-97892872D01*
X137301939Y-97892872D01*
X137295487Y-97891500D01*
X137104513Y-97891500D01*
X137098061Y-97892872D01*
X137098056Y-97892872D01*
X137014951Y-97910537D01*
X136917712Y-97931206D01*
X136911682Y-97933891D01*
X136911681Y-97933891D01*
X136749278Y-98006197D01*
X136749276Y-98006198D01*
X136743248Y-98008882D01*
X136737907Y-98012762D01*
X136737906Y-98012763D01*
X136711620Y-98031861D01*
X136588747Y-98121134D01*
X136584326Y-98126044D01*
X136584325Y-98126045D01*
X136473187Y-98249477D01*
X136460960Y-98263056D01*
X136365473Y-98428444D01*
X136306458Y-98610072D01*
X136305768Y-98616633D01*
X136305768Y-98616635D01*
X136291911Y-98748480D01*
X136286496Y-98800000D01*
X128477285Y-98800000D01*
X128365675Y-98676045D01*
X128365674Y-98676044D01*
X128361253Y-98671134D01*
X128235374Y-98579677D01*
X128212094Y-98562763D01*
X128212093Y-98562762D01*
X128206752Y-98558882D01*
X128200724Y-98556198D01*
X128200722Y-98556197D01*
X128038319Y-98483891D01*
X128038318Y-98483891D01*
X128032288Y-98481206D01*
X127938888Y-98461353D01*
X127851944Y-98442872D01*
X127851939Y-98442872D01*
X127845487Y-98441500D01*
X127654513Y-98441500D01*
X127648061Y-98442872D01*
X127648056Y-98442872D01*
X127561112Y-98461353D01*
X127467712Y-98481206D01*
X127461682Y-98483891D01*
X127461681Y-98483891D01*
X127299278Y-98556197D01*
X127299276Y-98556198D01*
X127293248Y-98558882D01*
X127287907Y-98562762D01*
X127287906Y-98562763D01*
X127264626Y-98579677D01*
X127138747Y-98671134D01*
X127134326Y-98676044D01*
X127134325Y-98676045D01*
X127016805Y-98806565D01*
X127010960Y-98813056D01*
X126915473Y-98978444D01*
X126856458Y-99160072D01*
X126836496Y-99350000D01*
X126856458Y-99539928D01*
X126915473Y-99721556D01*
X127010960Y-99886944D01*
X127015378Y-99891851D01*
X127015379Y-99891852D01*
X127107775Y-99994468D01*
X127138747Y-100028866D01*
X127263201Y-100119288D01*
X127306554Y-100175508D01*
X127312629Y-100246244D01*
X127282775Y-100305532D01*
X127185960Y-100413056D01*
X127090473Y-100578444D01*
X127031458Y-100760072D01*
X127030768Y-100766633D01*
X127030768Y-100766635D01*
X127017810Y-100889928D01*
X127011496Y-100950000D01*
X127031458Y-101139928D01*
X127090473Y-101321556D01*
X127093777Y-101327279D01*
X127096461Y-101333307D01*
X127094980Y-101333966D01*
X127109796Y-101395019D01*
X127093057Y-101452031D01*
X127046552Y-101532580D01*
X126987537Y-101714208D01*
X126967575Y-101904136D01*
X126987537Y-102094064D01*
X126989576Y-102100339D01*
X127009716Y-102162322D01*
X127011744Y-102233290D01*
X126999002Y-102264259D01*
X126908281Y-102421392D01*
X126849266Y-102603020D01*
X126848576Y-102609581D01*
X126848576Y-102609583D01*
X126841048Y-102681206D01*
X126829304Y-102792948D01*
X115483000Y-102792948D01*
X115483000Y-97379311D01*
X130870288Y-97379311D01*
X130870978Y-97385876D01*
X130888890Y-97556295D01*
X130890250Y-97569239D01*
X130949265Y-97750867D01*
X131044752Y-97916255D01*
X131049170Y-97921162D01*
X131049171Y-97921163D01*
X131163448Y-98048080D01*
X131172539Y-98058177D01*
X131327040Y-98170429D01*
X131333068Y-98173113D01*
X131333070Y-98173114D01*
X131483138Y-98239928D01*
X131501504Y-98248105D01*
X131571843Y-98263056D01*
X131681848Y-98286439D01*
X131681853Y-98286439D01*
X131688305Y-98287811D01*
X131879279Y-98287811D01*
X131885731Y-98286439D01*
X131885736Y-98286439D01*
X131995741Y-98263056D01*
X132066080Y-98248105D01*
X132084446Y-98239928D01*
X132234514Y-98173114D01*
X132234516Y-98173113D01*
X132240544Y-98170429D01*
X132395045Y-98058177D01*
X132404136Y-98048080D01*
X132518413Y-97921163D01*
X132518414Y-97921162D01*
X132522832Y-97916255D01*
X132614304Y-97757821D01*
X132638125Y-97735108D01*
X132810803Y-97735108D01*
X132842493Y-97779610D01*
X132843906Y-97851832D01*
X132844751Y-97851984D01*
X132843992Y-97856204D01*
X132844014Y-97857341D01*
X132841333Y-97866193D01*
X132830497Y-98040862D01*
X132831737Y-98048078D01*
X132831737Y-98048080D01*
X132853222Y-98173114D01*
X132860134Y-98213340D01*
X132928654Y-98374373D01*
X133032383Y-98515324D01*
X133037961Y-98520063D01*
X133037964Y-98520066D01*
X133160176Y-98623893D01*
X133160180Y-98623896D01*
X133165755Y-98628632D01*
X133241385Y-98667251D01*
X133262687Y-98678128D01*
X133321616Y-98708219D01*
X133328721Y-98709958D01*
X133328725Y-98709959D01*
X133385924Y-98723955D01*
X133491606Y-98749815D01*
X133497206Y-98750162D01*
X133497210Y-98750163D01*
X133500709Y-98750380D01*
X133500718Y-98750380D01*
X133502648Y-98750500D01*
X133628822Y-98750500D01*
X133720369Y-98739827D01*
X133751556Y-98736191D01*
X133751558Y-98736191D01*
X133758828Y-98735343D01*
X133765705Y-98732847D01*
X133765708Y-98732846D01*
X133916452Y-98678128D01*
X133923331Y-98675631D01*
X134069685Y-98579677D01*
X134190040Y-98452628D01*
X134277939Y-98301298D01*
X134328667Y-98133807D01*
X134339503Y-97959138D01*
X134337681Y-97948531D01*
X134311106Y-97793875D01*
X134311105Y-97793873D01*
X134309866Y-97786660D01*
X134261329Y-97672591D01*
X134244211Y-97632360D01*
X134244211Y-97632359D01*
X134241346Y-97625627D01*
X134137617Y-97484676D01*
X134132039Y-97479937D01*
X134132036Y-97479934D01*
X134009824Y-97376107D01*
X134009820Y-97376104D01*
X134004245Y-97371368D01*
X133920062Y-97328382D01*
X133854900Y-97295108D01*
X133854898Y-97295107D01*
X133848384Y-97291781D01*
X133841279Y-97290042D01*
X133841275Y-97290041D01*
X133747741Y-97267154D01*
X133678394Y-97250185D01*
X133672794Y-97249838D01*
X133672790Y-97249837D01*
X133669291Y-97249620D01*
X133669282Y-97249620D01*
X133667352Y-97249500D01*
X133541178Y-97249500D01*
X133460706Y-97258882D01*
X133418444Y-97263809D01*
X133418442Y-97263809D01*
X133411172Y-97264657D01*
X133404295Y-97267153D01*
X133404292Y-97267154D01*
X133330854Y-97293811D01*
X133246669Y-97324369D01*
X133100315Y-97420323D01*
X132979960Y-97547372D01*
X132976285Y-97553699D01*
X132976282Y-97553703D01*
X132903882Y-97678350D01*
X132852371Y-97727209D01*
X132810803Y-97735108D01*
X132638125Y-97735108D01*
X132665687Y-97708828D01*
X132707482Y-97700773D01*
X132675750Y-97655964D01*
X132672558Y-97585039D01*
X132675090Y-97576147D01*
X132677334Y-97569239D01*
X132678695Y-97556295D01*
X132696606Y-97385876D01*
X132697296Y-97379311D01*
X132694165Y-97349517D01*
X132678024Y-97195946D01*
X132678024Y-97195944D01*
X132677334Y-97189383D01*
X132618319Y-97007755D01*
X132522832Y-96842367D01*
X132395045Y-96700445D01*
X132240544Y-96588193D01*
X132234516Y-96585509D01*
X132234514Y-96585508D01*
X132072111Y-96513202D01*
X132072110Y-96513202D01*
X132066080Y-96510517D01*
X131972679Y-96490664D01*
X131885736Y-96472183D01*
X131885731Y-96472183D01*
X131879279Y-96470811D01*
X131688305Y-96470811D01*
X131681853Y-96472183D01*
X131681848Y-96472183D01*
X131594904Y-96490664D01*
X131501504Y-96510517D01*
X131495474Y-96513202D01*
X131495473Y-96513202D01*
X131333070Y-96585508D01*
X131333068Y-96585509D01*
X131327040Y-96588193D01*
X131172539Y-96700445D01*
X131044752Y-96842367D01*
X130949265Y-97007755D01*
X130890250Y-97189383D01*
X130889560Y-97195944D01*
X130889560Y-97195946D01*
X130873419Y-97349517D01*
X130870288Y-97379311D01*
X115483000Y-97379311D01*
X115483000Y-93100000D01*
X137686496Y-93100000D01*
X137687186Y-93106565D01*
X137696608Y-93196206D01*
X137706458Y-93289928D01*
X137765473Y-93471556D01*
X137860960Y-93636944D01*
X137865378Y-93641851D01*
X137865379Y-93641852D01*
X137970390Y-93758479D01*
X137988747Y-93778866D01*
X138143248Y-93891118D01*
X138149276Y-93893802D01*
X138149278Y-93893803D01*
X138311681Y-93966109D01*
X138317712Y-93968794D01*
X138411113Y-93988647D01*
X138498056Y-94007128D01*
X138498061Y-94007128D01*
X138504513Y-94008500D01*
X138695487Y-94008500D01*
X138701939Y-94007128D01*
X138701944Y-94007128D01*
X138788887Y-93988647D01*
X138882288Y-93968794D01*
X138888319Y-93966109D01*
X139050722Y-93893803D01*
X139050724Y-93893802D01*
X139056752Y-93891118D01*
X139211253Y-93778866D01*
X139259967Y-93724764D01*
X139320411Y-93687526D01*
X139391395Y-93688878D01*
X139427662Y-93707140D01*
X139531729Y-93782749D01*
X139543248Y-93791118D01*
X139549276Y-93793802D01*
X139549278Y-93793803D01*
X139711681Y-93866109D01*
X139717712Y-93868794D01*
X139804479Y-93887237D01*
X139898056Y-93907128D01*
X139898061Y-93907128D01*
X139904513Y-93908500D01*
X140095487Y-93908500D01*
X140101939Y-93907128D01*
X140101944Y-93907128D01*
X140195521Y-93887237D01*
X140282288Y-93868794D01*
X140398752Y-93816941D01*
X140469118Y-93807507D01*
X140501246Y-93816940D01*
X140617712Y-93868794D01*
X140704479Y-93887237D01*
X140798056Y-93907128D01*
X140798061Y-93907128D01*
X140804513Y-93908500D01*
X140995487Y-93908500D01*
X141001939Y-93907128D01*
X141001944Y-93907128D01*
X141095521Y-93887237D01*
X141182288Y-93868794D01*
X141188319Y-93866109D01*
X141350722Y-93793803D01*
X141350724Y-93793802D01*
X141356752Y-93791118D01*
X141373616Y-93778866D01*
X141412157Y-93750864D01*
X141511253Y-93678866D01*
X141639040Y-93536944D01*
X141734527Y-93371556D01*
X141756260Y-93304669D01*
X147892001Y-93304669D01*
X147892371Y-93311490D01*
X147897895Y-93362352D01*
X147901521Y-93377604D01*
X147946676Y-93498054D01*
X147955214Y-93513649D01*
X148031715Y-93615724D01*
X148044276Y-93628285D01*
X148146351Y-93704786D01*
X148161946Y-93713324D01*
X148282394Y-93758478D01*
X148297649Y-93762105D01*
X148348514Y-93767631D01*
X148355328Y-93768000D01*
X148627885Y-93768000D01*
X148643124Y-93763525D01*
X148644329Y-93762135D01*
X148646000Y-93754452D01*
X148646000Y-93749884D01*
X149154000Y-93749884D01*
X149158475Y-93765123D01*
X149159865Y-93766328D01*
X149167548Y-93767999D01*
X149444669Y-93767999D01*
X149451490Y-93767629D01*
X149502352Y-93762105D01*
X149517604Y-93758479D01*
X149638054Y-93713324D01*
X149653649Y-93704786D01*
X149755724Y-93628285D01*
X149768285Y-93615724D01*
X149844786Y-93513649D01*
X149853324Y-93498054D01*
X149898478Y-93377606D01*
X149902105Y-93362351D01*
X149907631Y-93311486D01*
X149908000Y-93304672D01*
X149908000Y-93032115D01*
X149903525Y-93016876D01*
X149902135Y-93015671D01*
X149894452Y-93014000D01*
X149172115Y-93014000D01*
X149156876Y-93018475D01*
X149155671Y-93019865D01*
X149154000Y-93027548D01*
X149154000Y-93749884D01*
X148646000Y-93749884D01*
X148646000Y-93032115D01*
X148641525Y-93016876D01*
X148640135Y-93015671D01*
X148632452Y-93014000D01*
X147910116Y-93014000D01*
X147894877Y-93018475D01*
X147893672Y-93019865D01*
X147892001Y-93027548D01*
X147892001Y-93304669D01*
X141756260Y-93304669D01*
X141793542Y-93189928D01*
X141796046Y-93166109D01*
X141812814Y-93006565D01*
X141813504Y-93000000D01*
X141804052Y-92910072D01*
X141794232Y-92816635D01*
X141794232Y-92816633D01*
X141793542Y-92810072D01*
X141734527Y-92628444D01*
X141714695Y-92594094D01*
X141697958Y-92525099D01*
X141721179Y-92458007D01*
X141730170Y-92446795D01*
X141739040Y-92436944D01*
X141834527Y-92271556D01*
X141893542Y-92089928D01*
X141913504Y-91900000D01*
X141909620Y-91863050D01*
X141894232Y-91716635D01*
X141894232Y-91716633D01*
X141893542Y-91710072D01*
X141834527Y-91528444D01*
X141830691Y-91521799D01*
X141772571Y-91421134D01*
X141739040Y-91363056D01*
X141637245Y-91250000D01*
X142086496Y-91250000D01*
X142087186Y-91256565D01*
X142104483Y-91421134D01*
X142106458Y-91439928D01*
X142165473Y-91621556D01*
X142260960Y-91786944D01*
X142261924Y-91788015D01*
X142285137Y-91853080D01*
X142270160Y-91916114D01*
X142271461Y-91916693D01*
X142268777Y-91922721D01*
X142265473Y-91928444D01*
X142206458Y-92110072D01*
X142205768Y-92116633D01*
X142205768Y-92116635D01*
X142197900Y-92191500D01*
X142186496Y-92300000D01*
X142187186Y-92306565D01*
X142205129Y-92477279D01*
X142206458Y-92489928D01*
X142265473Y-92671556D01*
X142360960Y-92836944D01*
X142365378Y-92841851D01*
X142365379Y-92841852D01*
X142479678Y-92968794D01*
X142488747Y-92978866D01*
X142643248Y-93091118D01*
X142649276Y-93093802D01*
X142649278Y-93093803D01*
X142811681Y-93166109D01*
X142817712Y-93168794D01*
X142886263Y-93183365D01*
X142998056Y-93207128D01*
X142998061Y-93207128D01*
X143004513Y-93208500D01*
X143195487Y-93208500D01*
X143201939Y-93207128D01*
X143201944Y-93207128D01*
X143313737Y-93183365D01*
X143382288Y-93168794D01*
X143388319Y-93166109D01*
X143550722Y-93093803D01*
X143550724Y-93093802D01*
X143556752Y-93091118D01*
X143711253Y-92978866D01*
X143720322Y-92968794D01*
X143834621Y-92841852D01*
X143834622Y-92841851D01*
X143839040Y-92836944D01*
X143934527Y-92671556D01*
X143993542Y-92489928D01*
X143994872Y-92477279D01*
X144012814Y-92306565D01*
X144013504Y-92300000D01*
X144002100Y-92191500D01*
X143994232Y-92116635D01*
X143994232Y-92116633D01*
X143993542Y-92110072D01*
X143934527Y-91928444D01*
X143839040Y-91763056D01*
X143838076Y-91761985D01*
X143814863Y-91696920D01*
X143829840Y-91633886D01*
X143828539Y-91633307D01*
X143831223Y-91627279D01*
X143834527Y-91621556D01*
X143893542Y-91439928D01*
X143895518Y-91421134D01*
X143912814Y-91256565D01*
X143913504Y-91250000D01*
X143911529Y-91231206D01*
X143894232Y-91066635D01*
X143894232Y-91066633D01*
X143893542Y-91060072D01*
X143834527Y-90878444D01*
X143821532Y-90855935D01*
X143791630Y-90804145D01*
X143739040Y-90713056D01*
X143611253Y-90571134D01*
X143456752Y-90458882D01*
X143450724Y-90456198D01*
X143450722Y-90456197D01*
X143288319Y-90383891D01*
X143288318Y-90383891D01*
X143282288Y-90381206D01*
X143188888Y-90361353D01*
X143101944Y-90342872D01*
X143101939Y-90342872D01*
X143095487Y-90341500D01*
X142904513Y-90341500D01*
X142898061Y-90342872D01*
X142898056Y-90342872D01*
X142811113Y-90361353D01*
X142717712Y-90381206D01*
X142711682Y-90383891D01*
X142711681Y-90383891D01*
X142549278Y-90456197D01*
X142549276Y-90456198D01*
X142543248Y-90458882D01*
X142388747Y-90571134D01*
X142260960Y-90713056D01*
X142208370Y-90804145D01*
X142178469Y-90855935D01*
X142165473Y-90878444D01*
X142106458Y-91060072D01*
X142105768Y-91066633D01*
X142105768Y-91066635D01*
X142088471Y-91231206D01*
X142086496Y-91250000D01*
X141637245Y-91250000D01*
X141622740Y-91233891D01*
X141615675Y-91226045D01*
X141615674Y-91226044D01*
X141611253Y-91221134D01*
X141456752Y-91108882D01*
X141450724Y-91106198D01*
X141450722Y-91106197D01*
X141288319Y-91033891D01*
X141288318Y-91033891D01*
X141282288Y-91031206D01*
X141188888Y-91011353D01*
X141101944Y-90992872D01*
X141101939Y-90992872D01*
X141095487Y-90991500D01*
X140904513Y-90991500D01*
X140898061Y-90992872D01*
X140898056Y-90992872D01*
X140811113Y-91011353D01*
X140717712Y-91031206D01*
X140711682Y-91033891D01*
X140711681Y-91033891D01*
X140549278Y-91106197D01*
X140549276Y-91106198D01*
X140543248Y-91108882D01*
X140388747Y-91221134D01*
X140384326Y-91226044D01*
X140384325Y-91226045D01*
X140377261Y-91233891D01*
X140260960Y-91363056D01*
X140227429Y-91421134D01*
X140169310Y-91521799D01*
X140165473Y-91528444D01*
X140106458Y-91710072D01*
X140105768Y-91716633D01*
X140105768Y-91716635D01*
X140090380Y-91863050D01*
X140086496Y-91900000D01*
X140087186Y-91906565D01*
X140091996Y-91952330D01*
X140079224Y-92022168D01*
X140030722Y-92074015D01*
X139966686Y-92091500D01*
X139904513Y-92091500D01*
X139898061Y-92092872D01*
X139898056Y-92092872D01*
X139833638Y-92106565D01*
X139717712Y-92131206D01*
X139711682Y-92133891D01*
X139711681Y-92133891D01*
X139549278Y-92206197D01*
X139549276Y-92206198D01*
X139543248Y-92208882D01*
X139537907Y-92212762D01*
X139537906Y-92212763D01*
X139522631Y-92223861D01*
X139388747Y-92321134D01*
X139340033Y-92375236D01*
X139279589Y-92412474D01*
X139208605Y-92411122D01*
X139172338Y-92392860D01*
X139062094Y-92312763D01*
X139062093Y-92312762D01*
X139056752Y-92308882D01*
X139050724Y-92306198D01*
X139050722Y-92306197D01*
X138888319Y-92233891D01*
X138888318Y-92233891D01*
X138882288Y-92231206D01*
X138788888Y-92211353D01*
X138701944Y-92192872D01*
X138701939Y-92192872D01*
X138695487Y-92191500D01*
X138504513Y-92191500D01*
X138498061Y-92192872D01*
X138498056Y-92192872D01*
X138411112Y-92211353D01*
X138317712Y-92231206D01*
X138311682Y-92233891D01*
X138311681Y-92233891D01*
X138149278Y-92306197D01*
X138149276Y-92306198D01*
X138143248Y-92308882D01*
X138137907Y-92312762D01*
X138137906Y-92312763D01*
X138119631Y-92326041D01*
X137988747Y-92421134D01*
X137984326Y-92426044D01*
X137984325Y-92426045D01*
X137895137Y-92525099D01*
X137860960Y-92563056D01*
X137765473Y-92728444D01*
X137706458Y-92910072D01*
X137705768Y-92916633D01*
X137705768Y-92916635D01*
X137694918Y-93019865D01*
X137686496Y-93100000D01*
X115483000Y-93100000D01*
X115483000Y-92100000D01*
X132136496Y-92100000D01*
X132137186Y-92106565D01*
X132155129Y-92277279D01*
X132156458Y-92289928D01*
X132215473Y-92471556D01*
X132218776Y-92477278D01*
X132218777Y-92477279D01*
X132235359Y-92506000D01*
X132310960Y-92636944D01*
X132438747Y-92778866D01*
X132593248Y-92891118D01*
X132599276Y-92893802D01*
X132599278Y-92893803D01*
X132650560Y-92916635D01*
X132767712Y-92968794D01*
X132833365Y-92982749D01*
X132948056Y-93007128D01*
X132948061Y-93007128D01*
X132954513Y-93008500D01*
X133145487Y-93008500D01*
X133151939Y-93007128D01*
X133151944Y-93007128D01*
X133266635Y-92982749D01*
X133332288Y-92968794D01*
X133449440Y-92916635D01*
X133500722Y-92893803D01*
X133500724Y-92893802D01*
X133506752Y-92891118D01*
X133661253Y-92778866D01*
X133789040Y-92636944D01*
X133864641Y-92506000D01*
X133881223Y-92477279D01*
X133881224Y-92477278D01*
X133884527Y-92471556D01*
X133943542Y-92289928D01*
X133944872Y-92277279D01*
X133962814Y-92106565D01*
X133963504Y-92100000D01*
X133952712Y-91997320D01*
X133944232Y-91916635D01*
X133944232Y-91916633D01*
X133943542Y-91910072D01*
X133884527Y-91728444D01*
X133789040Y-91563056D01*
X133716053Y-91481995D01*
X133665675Y-91426045D01*
X133665674Y-91426044D01*
X133661253Y-91421134D01*
X133506752Y-91308882D01*
X133500724Y-91306198D01*
X133500722Y-91306197D01*
X133338319Y-91233891D01*
X133338318Y-91233891D01*
X133332288Y-91231206D01*
X133238888Y-91211353D01*
X133151944Y-91192872D01*
X133151939Y-91192872D01*
X133145487Y-91191500D01*
X132954513Y-91191500D01*
X132948061Y-91192872D01*
X132948056Y-91192872D01*
X132861112Y-91211353D01*
X132767712Y-91231206D01*
X132761682Y-91233891D01*
X132761681Y-91233891D01*
X132599278Y-91306197D01*
X132599276Y-91306198D01*
X132593248Y-91308882D01*
X132438747Y-91421134D01*
X132434326Y-91426044D01*
X132434325Y-91426045D01*
X132383948Y-91481995D01*
X132310960Y-91563056D01*
X132215473Y-91728444D01*
X132156458Y-91910072D01*
X132155768Y-91916633D01*
X132155768Y-91916635D01*
X132147288Y-91997320D01*
X132136496Y-92100000D01*
X115483000Y-92100000D01*
X115483000Y-90150000D01*
X125036496Y-90150000D01*
X125037186Y-90156565D01*
X125055129Y-90327279D01*
X125056458Y-90339928D01*
X125115473Y-90521556D01*
X125210960Y-90686944D01*
X125215378Y-90691851D01*
X125215379Y-90691852D01*
X125329678Y-90818794D01*
X125338747Y-90828866D01*
X125493248Y-90941118D01*
X125499276Y-90943802D01*
X125499278Y-90943803D01*
X125606408Y-90991500D01*
X125667712Y-91018794D01*
X125761112Y-91038647D01*
X125848056Y-91057128D01*
X125848061Y-91057128D01*
X125854513Y-91058500D01*
X126045487Y-91058500D01*
X126051939Y-91057128D01*
X126051944Y-91057128D01*
X126138888Y-91038647D01*
X126232288Y-91018794D01*
X126293592Y-90991500D01*
X126400722Y-90943803D01*
X126400724Y-90943802D01*
X126406752Y-90941118D01*
X126561253Y-90828866D01*
X126570322Y-90818794D01*
X126684621Y-90691852D01*
X126684622Y-90691851D01*
X126689040Y-90686944D01*
X126784527Y-90521556D01*
X126843542Y-90339928D01*
X126844872Y-90327279D01*
X126862814Y-90156565D01*
X126863504Y-90150000D01*
X130336496Y-90150000D01*
X130337186Y-90156565D01*
X130355129Y-90327279D01*
X130356458Y-90339928D01*
X130415473Y-90521556D01*
X130510960Y-90686944D01*
X130515378Y-90691851D01*
X130515379Y-90691852D01*
X130629678Y-90818794D01*
X130638747Y-90828866D01*
X130793248Y-90941118D01*
X130799276Y-90943802D01*
X130799278Y-90943803D01*
X130906408Y-90991500D01*
X130967712Y-91018794D01*
X131061112Y-91038647D01*
X131148056Y-91057128D01*
X131148061Y-91057128D01*
X131154513Y-91058500D01*
X131345487Y-91058500D01*
X131351939Y-91057128D01*
X131351944Y-91057128D01*
X131438888Y-91038647D01*
X131532288Y-91018794D01*
X131593592Y-90991500D01*
X131700722Y-90943803D01*
X131700724Y-90943802D01*
X131706752Y-90941118D01*
X131861253Y-90828866D01*
X131870322Y-90818794D01*
X131984621Y-90691852D01*
X131984622Y-90691851D01*
X131989040Y-90686944D01*
X132084527Y-90521556D01*
X132143542Y-90339928D01*
X132144872Y-90327279D01*
X132162814Y-90156565D01*
X132163504Y-90150000D01*
X132150818Y-90029301D01*
X132144232Y-89966635D01*
X132144232Y-89966633D01*
X132143542Y-89960072D01*
X132140269Y-89950000D01*
X145836496Y-89950000D01*
X145837186Y-89956565D01*
X145852870Y-90105786D01*
X145856458Y-90139928D01*
X145915473Y-90321556D01*
X146010960Y-90486944D01*
X146138747Y-90628866D01*
X146293248Y-90741118D01*
X146299276Y-90743802D01*
X146299278Y-90743803D01*
X146461681Y-90816109D01*
X146467712Y-90818794D01*
X146533365Y-90832749D01*
X146648056Y-90857128D01*
X146648061Y-90857128D01*
X146654513Y-90858500D01*
X146845487Y-90858500D01*
X146851939Y-90857128D01*
X146851944Y-90857128D01*
X146966635Y-90832749D01*
X147032288Y-90818794D01*
X147038319Y-90816109D01*
X147200722Y-90743803D01*
X147200724Y-90743802D01*
X147206752Y-90741118D01*
X147361253Y-90628866D01*
X147489040Y-90486944D01*
X147584527Y-90321556D01*
X147641843Y-90145158D01*
X147642902Y-90141898D01*
X147682976Y-90083293D01*
X147710870Y-90071505D01*
X147686786Y-90053655D01*
X147661657Y-89987255D01*
X147661981Y-89964495D01*
X147662814Y-89956568D01*
X147662814Y-89956565D01*
X147663504Y-89950000D01*
X147652368Y-89844045D01*
X147644232Y-89766635D01*
X147644232Y-89766633D01*
X147643542Y-89760072D01*
X147584527Y-89578444D01*
X147489040Y-89413056D01*
X147430301Y-89347819D01*
X147365675Y-89276045D01*
X147365674Y-89276044D01*
X147361253Y-89271134D01*
X147206752Y-89158882D01*
X147200724Y-89156198D01*
X147200722Y-89156197D01*
X147038319Y-89083891D01*
X147038318Y-89083891D01*
X147032288Y-89081206D01*
X146938887Y-89061353D01*
X146851944Y-89042872D01*
X146851939Y-89042872D01*
X146845487Y-89041500D01*
X146654513Y-89041500D01*
X146648061Y-89042872D01*
X146648056Y-89042872D01*
X146561113Y-89061353D01*
X146467712Y-89081206D01*
X146461682Y-89083891D01*
X146461681Y-89083891D01*
X146299278Y-89156197D01*
X146299276Y-89156198D01*
X146293248Y-89158882D01*
X146138747Y-89271134D01*
X146134326Y-89276044D01*
X146134325Y-89276045D01*
X146069700Y-89347819D01*
X146010960Y-89413056D01*
X145915473Y-89578444D01*
X145856458Y-89760072D01*
X145855768Y-89766633D01*
X145855768Y-89766635D01*
X145847632Y-89844045D01*
X145836496Y-89950000D01*
X132140269Y-89950000D01*
X132084527Y-89778444D01*
X131989040Y-89613056D01*
X131963715Y-89584929D01*
X131865675Y-89476045D01*
X131865674Y-89476044D01*
X131861253Y-89471134D01*
X131728883Y-89374961D01*
X131712094Y-89362763D01*
X131712093Y-89362762D01*
X131706752Y-89358882D01*
X131700724Y-89356198D01*
X131700722Y-89356197D01*
X131538319Y-89283891D01*
X131538318Y-89283891D01*
X131532288Y-89281206D01*
X131425437Y-89258494D01*
X131351944Y-89242872D01*
X131351939Y-89242872D01*
X131345487Y-89241500D01*
X131154513Y-89241500D01*
X131148061Y-89242872D01*
X131148056Y-89242872D01*
X131074563Y-89258494D01*
X130967712Y-89281206D01*
X130961682Y-89283891D01*
X130961681Y-89283891D01*
X130799278Y-89356197D01*
X130799276Y-89356198D01*
X130793248Y-89358882D01*
X130787907Y-89362762D01*
X130787906Y-89362763D01*
X130771117Y-89374961D01*
X130638747Y-89471134D01*
X130634326Y-89476044D01*
X130634325Y-89476045D01*
X130536286Y-89584929D01*
X130510960Y-89613056D01*
X130415473Y-89778444D01*
X130356458Y-89960072D01*
X130355768Y-89966633D01*
X130355768Y-89966635D01*
X130349182Y-90029301D01*
X130336496Y-90150000D01*
X126863504Y-90150000D01*
X126850818Y-90029301D01*
X126844232Y-89966635D01*
X126844232Y-89966633D01*
X126843542Y-89960072D01*
X126784527Y-89778444D01*
X126689040Y-89613056D01*
X126663715Y-89584929D01*
X126565675Y-89476045D01*
X126565674Y-89476044D01*
X126561253Y-89471134D01*
X126428883Y-89374961D01*
X126412094Y-89362763D01*
X126412093Y-89362762D01*
X126406752Y-89358882D01*
X126400724Y-89356198D01*
X126400722Y-89356197D01*
X126238319Y-89283891D01*
X126238318Y-89283891D01*
X126232288Y-89281206D01*
X126125437Y-89258494D01*
X126051944Y-89242872D01*
X126051939Y-89242872D01*
X126045487Y-89241500D01*
X125854513Y-89241500D01*
X125848061Y-89242872D01*
X125848056Y-89242872D01*
X125774563Y-89258494D01*
X125667712Y-89281206D01*
X125661682Y-89283891D01*
X125661681Y-89283891D01*
X125499278Y-89356197D01*
X125499276Y-89356198D01*
X125493248Y-89358882D01*
X125487907Y-89362762D01*
X125487906Y-89362763D01*
X125471117Y-89374961D01*
X125338747Y-89471134D01*
X125334326Y-89476044D01*
X125334325Y-89476045D01*
X125236286Y-89584929D01*
X125210960Y-89613056D01*
X125115473Y-89778444D01*
X125056458Y-89960072D01*
X125055768Y-89966633D01*
X125055768Y-89966635D01*
X125049182Y-90029301D01*
X125036496Y-90150000D01*
X115483000Y-90150000D01*
X115483000Y-89708702D01*
X115483002Y-89707932D01*
X115483421Y-89639322D01*
X115483476Y-89630348D01*
X115481010Y-89621719D01*
X115481009Y-89621714D01*
X115475361Y-89601952D01*
X115471783Y-89585191D01*
X115468870Y-89564848D01*
X115468867Y-89564838D01*
X115467595Y-89555955D01*
X115456979Y-89532605D01*
X115450536Y-89515093D01*
X115445954Y-89499063D01*
X115443488Y-89490435D01*
X115427726Y-89465452D01*
X115419596Y-89450386D01*
X115407367Y-89423490D01*
X115390626Y-89404061D01*
X115379521Y-89389053D01*
X115370630Y-89374961D01*
X115365840Y-89367369D01*
X115343703Y-89347818D01*
X115331659Y-89335626D01*
X115318239Y-89320051D01*
X115318237Y-89320050D01*
X115312381Y-89313253D01*
X115304853Y-89308374D01*
X115304850Y-89308371D01*
X115290861Y-89299304D01*
X115275987Y-89288014D01*
X115263502Y-89276988D01*
X115256772Y-89271044D01*
X115248646Y-89267229D01*
X115248645Y-89267228D01*
X115242979Y-89264568D01*
X115230034Y-89258490D01*
X115215065Y-89250176D01*
X115190273Y-89234107D01*
X115165709Y-89226761D01*
X115148264Y-89220099D01*
X115125052Y-89209201D01*
X115095870Y-89204657D01*
X115079151Y-89200874D01*
X115059464Y-89194986D01*
X115059461Y-89194985D01*
X115050859Y-89192413D01*
X115041884Y-89192358D01*
X115041883Y-89192358D01*
X115035190Y-89192317D01*
X115016444Y-89192203D01*
X115015672Y-89192170D01*
X115014577Y-89192000D01*
X114983702Y-89192000D01*
X114982932Y-89191998D01*
X114909284Y-89191548D01*
X114909283Y-89191548D01*
X114905348Y-89191524D01*
X114904004Y-89191908D01*
X114902659Y-89192000D01*
X109609000Y-89192000D01*
X109540879Y-89171998D01*
X109494386Y-89118342D01*
X109483000Y-89066000D01*
X109483000Y-87300000D01*
X115436496Y-87300000D01*
X115437186Y-87306565D01*
X115454934Y-87475425D01*
X115456458Y-87489928D01*
X115515473Y-87671556D01*
X115610960Y-87836944D01*
X115615378Y-87841851D01*
X115615379Y-87841852D01*
X115658667Y-87889928D01*
X115738747Y-87978866D01*
X115832694Y-88047123D01*
X115848402Y-88058535D01*
X115893248Y-88091118D01*
X115899276Y-88093802D01*
X115899278Y-88093803D01*
X116061681Y-88166109D01*
X116067712Y-88168794D01*
X116161112Y-88188647D01*
X116248056Y-88207128D01*
X116248061Y-88207128D01*
X116254513Y-88208500D01*
X116445487Y-88208500D01*
X116451939Y-88207128D01*
X116451944Y-88207128D01*
X116538888Y-88188647D01*
X116632288Y-88168794D01*
X116638319Y-88166109D01*
X116800722Y-88093803D01*
X116800724Y-88093802D01*
X116806752Y-88091118D01*
X116851599Y-88058535D01*
X116867306Y-88047123D01*
X116961253Y-87978866D01*
X117041333Y-87889928D01*
X117084621Y-87841852D01*
X117084622Y-87841851D01*
X117089040Y-87836944D01*
X117168105Y-87700000D01*
X123186496Y-87700000D01*
X123206458Y-87889928D01*
X123265473Y-88071556D01*
X123360960Y-88236944D01*
X123365378Y-88241851D01*
X123365379Y-88241852D01*
X123410399Y-88291852D01*
X123488747Y-88378866D01*
X123643248Y-88491118D01*
X123649276Y-88493802D01*
X123649278Y-88493803D01*
X123811681Y-88566109D01*
X123817712Y-88568794D01*
X123911112Y-88588647D01*
X123998056Y-88607128D01*
X123998061Y-88607128D01*
X124004513Y-88608500D01*
X124195487Y-88608500D01*
X124201939Y-88607128D01*
X124201944Y-88607128D01*
X124288888Y-88588647D01*
X124382288Y-88568794D01*
X124388319Y-88566109D01*
X124550722Y-88493803D01*
X124550724Y-88493802D01*
X124556752Y-88491118D01*
X124711253Y-88378866D01*
X124789601Y-88291852D01*
X124834621Y-88241852D01*
X124834622Y-88241851D01*
X124839040Y-88236944D01*
X124934527Y-88071556D01*
X124993542Y-87889928D01*
X125008249Y-87750000D01*
X131111496Y-87750000D01*
X131112186Y-87756565D01*
X131128141Y-87908365D01*
X131131458Y-87939928D01*
X131190473Y-88121556D01*
X131285960Y-88286944D01*
X131290378Y-88291851D01*
X131290379Y-88291852D01*
X131321125Y-88325999D01*
X131413747Y-88428866D01*
X131499429Y-88491118D01*
X131533839Y-88516118D01*
X131568248Y-88541118D01*
X131574276Y-88543802D01*
X131574278Y-88543803D01*
X131719591Y-88608500D01*
X131742712Y-88618794D01*
X131836113Y-88638647D01*
X131923056Y-88657128D01*
X131923061Y-88657128D01*
X131929513Y-88658500D01*
X132120487Y-88658500D01*
X132126939Y-88657128D01*
X132126944Y-88657128D01*
X132213888Y-88638647D01*
X132307288Y-88618794D01*
X132330409Y-88608500D01*
X132475722Y-88543803D01*
X132475724Y-88543802D01*
X132481752Y-88541118D01*
X132516162Y-88516118D01*
X132550571Y-88491118D01*
X132636253Y-88428866D01*
X132728875Y-88325999D01*
X132755119Y-88296852D01*
X132815565Y-88259612D01*
X132886549Y-88260964D01*
X132942390Y-88296850D01*
X133038747Y-88403866D01*
X133078501Y-88432749D01*
X133158839Y-88491118D01*
X133193248Y-88516118D01*
X133199276Y-88518802D01*
X133199278Y-88518803D01*
X133313665Y-88569731D01*
X133367712Y-88593794D01*
X133461113Y-88613647D01*
X133548056Y-88632128D01*
X133548061Y-88632128D01*
X133554513Y-88633500D01*
X133745487Y-88633500D01*
X133751939Y-88632128D01*
X133751944Y-88632128D01*
X133838887Y-88613647D01*
X133932288Y-88593794D01*
X133986335Y-88569731D01*
X134100722Y-88518803D01*
X134100724Y-88518802D01*
X134106752Y-88516118D01*
X134141162Y-88491118D01*
X134221499Y-88432749D01*
X134261253Y-88403866D01*
X134331366Y-88325998D01*
X134391810Y-88288760D01*
X134462794Y-88290112D01*
X134518634Y-88325998D01*
X134588747Y-88403866D01*
X134628501Y-88432749D01*
X134708839Y-88491118D01*
X134743248Y-88516118D01*
X134749276Y-88518802D01*
X134749278Y-88518803D01*
X134863665Y-88569731D01*
X134917712Y-88593794D01*
X135011113Y-88613647D01*
X135098056Y-88632128D01*
X135098061Y-88632128D01*
X135104513Y-88633500D01*
X135295487Y-88633500D01*
X135301939Y-88632128D01*
X135301944Y-88632128D01*
X135388887Y-88613647D01*
X135482288Y-88593794D01*
X135536335Y-88569731D01*
X135650722Y-88518803D01*
X135650724Y-88518802D01*
X135656752Y-88516118D01*
X135691162Y-88491118D01*
X135771499Y-88432749D01*
X135811253Y-88403866D01*
X135833763Y-88378866D01*
X135934621Y-88266852D01*
X135934622Y-88266851D01*
X135939040Y-88261944D01*
X136034527Y-88096556D01*
X136093542Y-87914928D01*
X136096860Y-87883365D01*
X136112814Y-87731565D01*
X136113504Y-87725000D01*
X136106644Y-87659726D01*
X136094232Y-87541635D01*
X136094232Y-87541633D01*
X136093542Y-87535072D01*
X136034527Y-87353444D01*
X135939040Y-87188056D01*
X135921679Y-87168774D01*
X135815675Y-87051045D01*
X135815671Y-87051041D01*
X135811253Y-87046134D01*
X135691263Y-86958956D01*
X135662094Y-86937763D01*
X135662093Y-86937762D01*
X135656752Y-86933882D01*
X135650724Y-86931198D01*
X135650722Y-86931197D01*
X135488319Y-86858891D01*
X135488318Y-86858891D01*
X135482288Y-86856206D01*
X135377305Y-86833891D01*
X135301944Y-86817872D01*
X135301939Y-86817872D01*
X135295487Y-86816500D01*
X135104513Y-86816500D01*
X135098061Y-86817872D01*
X135098056Y-86817872D01*
X135022695Y-86833891D01*
X134917712Y-86856206D01*
X134911682Y-86858891D01*
X134911681Y-86858891D01*
X134749278Y-86931197D01*
X134749276Y-86931198D01*
X134743248Y-86933882D01*
X134737907Y-86937762D01*
X134737906Y-86937763D01*
X134708737Y-86958956D01*
X134588747Y-87046134D01*
X134518634Y-87124002D01*
X134458190Y-87161240D01*
X134387206Y-87159888D01*
X134331366Y-87124002D01*
X134261253Y-87046134D01*
X134141263Y-86958956D01*
X134112094Y-86937763D01*
X134112093Y-86937762D01*
X134106752Y-86933882D01*
X134100724Y-86931198D01*
X134100722Y-86931197D01*
X133938319Y-86858891D01*
X133938318Y-86858891D01*
X133932288Y-86856206D01*
X133827305Y-86833891D01*
X133751944Y-86817872D01*
X133751939Y-86817872D01*
X133745487Y-86816500D01*
X133554513Y-86816500D01*
X133548061Y-86817872D01*
X133548056Y-86817872D01*
X133472695Y-86833891D01*
X133367712Y-86856206D01*
X133361682Y-86858891D01*
X133361681Y-86858891D01*
X133199278Y-86931197D01*
X133199276Y-86931198D01*
X133193248Y-86933882D01*
X133187907Y-86937762D01*
X133187906Y-86937763D01*
X133158737Y-86958956D01*
X133038747Y-87046134D01*
X133034329Y-87051041D01*
X133034325Y-87051045D01*
X132919881Y-87178148D01*
X132859435Y-87215388D01*
X132788451Y-87214036D01*
X132732610Y-87178150D01*
X132636253Y-87071134D01*
X132530287Y-86994145D01*
X132487094Y-86962763D01*
X132487093Y-86962762D01*
X132481752Y-86958882D01*
X132475724Y-86956198D01*
X132475722Y-86956197D01*
X132313319Y-86883891D01*
X132313318Y-86883891D01*
X132307288Y-86881206D01*
X132202305Y-86858891D01*
X132126944Y-86842872D01*
X132126939Y-86842872D01*
X132120487Y-86841500D01*
X131929513Y-86841500D01*
X131923061Y-86842872D01*
X131923056Y-86842872D01*
X131847695Y-86858891D01*
X131742712Y-86881206D01*
X131736682Y-86883891D01*
X131736681Y-86883891D01*
X131574278Y-86956197D01*
X131574276Y-86956198D01*
X131568248Y-86958882D01*
X131562907Y-86962762D01*
X131562906Y-86962763D01*
X131519713Y-86994145D01*
X131413747Y-87071134D01*
X131409329Y-87076041D01*
X131409325Y-87076045D01*
X131303322Y-87193774D01*
X131285960Y-87213056D01*
X131190473Y-87378444D01*
X131131458Y-87560072D01*
X131130768Y-87566633D01*
X131130768Y-87566635D01*
X131119222Y-87676495D01*
X131111496Y-87750000D01*
X125008249Y-87750000D01*
X125013504Y-87700000D01*
X124998137Y-87553794D01*
X124994232Y-87516635D01*
X124994232Y-87516633D01*
X124993542Y-87510072D01*
X124934527Y-87328444D01*
X124839040Y-87163056D01*
X124804457Y-87124647D01*
X124715675Y-87026045D01*
X124715674Y-87026044D01*
X124711253Y-87021134D01*
X124592327Y-86934729D01*
X124562094Y-86912763D01*
X124562093Y-86912762D01*
X124556752Y-86908882D01*
X124550724Y-86906198D01*
X124550722Y-86906197D01*
X124388319Y-86833891D01*
X124388318Y-86833891D01*
X124382288Y-86831206D01*
X124288887Y-86811353D01*
X124201944Y-86792872D01*
X124201939Y-86792872D01*
X124195487Y-86791500D01*
X124004513Y-86791500D01*
X123998061Y-86792872D01*
X123998056Y-86792872D01*
X123911113Y-86811353D01*
X123817712Y-86831206D01*
X123811682Y-86833891D01*
X123811681Y-86833891D01*
X123649278Y-86906197D01*
X123649276Y-86906198D01*
X123643248Y-86908882D01*
X123637907Y-86912762D01*
X123637906Y-86912763D01*
X123607673Y-86934729D01*
X123488747Y-87021134D01*
X123484326Y-87026044D01*
X123484325Y-87026045D01*
X123395544Y-87124647D01*
X123360960Y-87163056D01*
X123265473Y-87328444D01*
X123206458Y-87510072D01*
X123205768Y-87516633D01*
X123205768Y-87516635D01*
X123201863Y-87553794D01*
X123186496Y-87700000D01*
X117168105Y-87700000D01*
X117184527Y-87671556D01*
X117243542Y-87489928D01*
X117245067Y-87475425D01*
X117262814Y-87306565D01*
X117263504Y-87300000D01*
X117243542Y-87110072D01*
X117184527Y-86928444D01*
X117089040Y-86763056D01*
X116973300Y-86634513D01*
X116965675Y-86626045D01*
X116965674Y-86626044D01*
X116961253Y-86621134D01*
X116806752Y-86508882D01*
X116800724Y-86506198D01*
X116800722Y-86506197D01*
X116638319Y-86433891D01*
X116638318Y-86433891D01*
X116632288Y-86431206D01*
X116516033Y-86406495D01*
X116451944Y-86392872D01*
X116451939Y-86392872D01*
X116445487Y-86391500D01*
X116254513Y-86391500D01*
X116248061Y-86392872D01*
X116248056Y-86392872D01*
X116183967Y-86406495D01*
X116067712Y-86431206D01*
X116061682Y-86433891D01*
X116061681Y-86433891D01*
X115899278Y-86506197D01*
X115899276Y-86506198D01*
X115893248Y-86508882D01*
X115738747Y-86621134D01*
X115734326Y-86626044D01*
X115734325Y-86626045D01*
X115726701Y-86634513D01*
X115610960Y-86763056D01*
X115515473Y-86928444D01*
X115456458Y-87110072D01*
X115436496Y-87300000D01*
X109483000Y-87300000D01*
X109483000Y-85334000D01*
X109503002Y-85265879D01*
X109556658Y-85219386D01*
X109609000Y-85208000D01*
X148537594Y-85208000D01*
X148605715Y-85228002D01*
G37*
%TD.AperFunction*%
%TD*%
%TA.AperFunction,Conductor*%
%TO.N,+3V3*%
G36*
X148605715Y-85228002D02*
G01*
X148652208Y-85281658D01*
X148662312Y-85351932D01*
X148632818Y-85416512D01*
X148573168Y-85454874D01*
X148547120Y-85462540D01*
X148520381Y-85470410D01*
X148514923Y-85473263D01*
X148514919Y-85473265D01*
X148424147Y-85520720D01*
X148345110Y-85562040D01*
X148190975Y-85685968D01*
X148063846Y-85837474D01*
X148060879Y-85842872D01*
X148060875Y-85842877D01*
X148057397Y-85849204D01*
X147968567Y-86010787D01*
X147966706Y-86016654D01*
X147966705Y-86016656D01*
X147910627Y-86193436D01*
X147908765Y-86199306D01*
X147886719Y-86395851D01*
X147903268Y-86592934D01*
X147913436Y-86628393D01*
X147952050Y-86763056D01*
X147957783Y-86783050D01*
X147960602Y-86788535D01*
X148035301Y-86933882D01*
X148048187Y-86958956D01*
X148052016Y-86963787D01*
X148053839Y-86966088D01*
X148054414Y-86967509D01*
X148055353Y-86968966D01*
X148055076Y-86969144D01*
X148080474Y-87031898D01*
X148067301Y-87101662D01*
X148063846Y-87107474D01*
X147968567Y-87280787D01*
X147966706Y-87286654D01*
X147966705Y-87286656D01*
X147910627Y-87463436D01*
X147908765Y-87469306D01*
X147886719Y-87665851D01*
X147889987Y-87704771D01*
X147901498Y-87841852D01*
X147903268Y-87862934D01*
X147957783Y-88053050D01*
X148048187Y-88228956D01*
X148052016Y-88233787D01*
X148053839Y-88236088D01*
X148054414Y-88237509D01*
X148055353Y-88238966D01*
X148055076Y-88239144D01*
X148080474Y-88301898D01*
X148067301Y-88371662D01*
X148063846Y-88377474D01*
X147968567Y-88550787D01*
X147966706Y-88556654D01*
X147966705Y-88556656D01*
X147934398Y-88658500D01*
X147908765Y-88739306D01*
X147886719Y-88935851D01*
X147887235Y-88941995D01*
X147902043Y-89118342D01*
X147903268Y-89132934D01*
X147923835Y-89204658D01*
X147954974Y-89313253D01*
X147957783Y-89323050D01*
X147960602Y-89328535D01*
X148027239Y-89458195D01*
X148048187Y-89498956D01*
X148052016Y-89503787D01*
X148053839Y-89506088D01*
X148054414Y-89507509D01*
X148055353Y-89508966D01*
X148055076Y-89509144D01*
X148080474Y-89571898D01*
X148067301Y-89641662D01*
X148063846Y-89647474D01*
X147968567Y-89820787D01*
X147966706Y-89826654D01*
X147966705Y-89826656D01*
X147925495Y-89956568D01*
X147908765Y-90009306D01*
X147907767Y-90008989D01*
X147876813Y-90066330D01*
X147839326Y-90087034D01*
X147870635Y-90115769D01*
X147888684Y-90184434D01*
X147887949Y-90194885D01*
X147886719Y-90205851D01*
X147887235Y-90211995D01*
X147901444Y-90381206D01*
X147903268Y-90402934D01*
X147904967Y-90408858D01*
X147952907Y-90576045D01*
X147957783Y-90593050D01*
X147960602Y-90598535D01*
X148031886Y-90737237D01*
X148048187Y-90768956D01*
X148052016Y-90773787D01*
X148053839Y-90776088D01*
X148054414Y-90777509D01*
X148055353Y-90778966D01*
X148055076Y-90779144D01*
X148080474Y-90841898D01*
X148067301Y-90911662D01*
X148063846Y-90917474D01*
X147968567Y-91090787D01*
X147966706Y-91096654D01*
X147966705Y-91096656D01*
X147920144Y-91243435D01*
X147908765Y-91279306D01*
X147886719Y-91475851D01*
X147887235Y-91481995D01*
X147899941Y-91633307D01*
X147903268Y-91672934D01*
X147925906Y-91751881D01*
X147952688Y-91845281D01*
X147957783Y-91863050D01*
X147960602Y-91868535D01*
X147964402Y-91875929D01*
X147977750Y-91945660D01*
X147957667Y-91997468D01*
X147959521Y-91998483D01*
X147946677Y-92021942D01*
X147901522Y-92142394D01*
X147897895Y-92157649D01*
X147892369Y-92208514D01*
X147892000Y-92215328D01*
X147892000Y-92487885D01*
X147896475Y-92503124D01*
X147897865Y-92504329D01*
X147905548Y-92506000D01*
X149889884Y-92506000D01*
X149905123Y-92501525D01*
X149906328Y-92500135D01*
X149907999Y-92492452D01*
X149907999Y-92215331D01*
X149907629Y-92208510D01*
X149902105Y-92157648D01*
X149898479Y-92142396D01*
X149853324Y-92021946D01*
X149840478Y-91998483D01*
X149842602Y-91997320D01*
X149822313Y-91943007D01*
X149828429Y-91894183D01*
X149864346Y-91786212D01*
X149888197Y-91714513D01*
X149912985Y-91518295D01*
X149913380Y-91490000D01*
X149894080Y-91293167D01*
X149876184Y-91233891D01*
X149863385Y-91191500D01*
X149836916Y-91103831D01*
X149744066Y-90929204D01*
X149740167Y-90924424D01*
X149739715Y-90923743D01*
X149718676Y-90855935D01*
X149735105Y-90791775D01*
X149822723Y-90637542D01*
X149822725Y-90637537D01*
X149825769Y-90632179D01*
X149888197Y-90444513D01*
X149912985Y-90248295D01*
X149913380Y-90220000D01*
X149894080Y-90023167D01*
X149889800Y-90008989D01*
X149849621Y-89875911D01*
X149836916Y-89833831D01*
X149744066Y-89659204D01*
X149740167Y-89654424D01*
X149739715Y-89653743D01*
X149718676Y-89585935D01*
X149735105Y-89521775D01*
X149822723Y-89367542D01*
X149822725Y-89367537D01*
X149825769Y-89362179D01*
X149888197Y-89174513D01*
X149912985Y-88978295D01*
X149913380Y-88950000D01*
X149894080Y-88753167D01*
X149836916Y-88563831D01*
X149744066Y-88389204D01*
X149740167Y-88384424D01*
X149739715Y-88383743D01*
X149718676Y-88315935D01*
X149735105Y-88251775D01*
X149822723Y-88097542D01*
X149822725Y-88097537D01*
X149825769Y-88092179D01*
X149888197Y-87904513D01*
X149912985Y-87708295D01*
X149913380Y-87680000D01*
X149894080Y-87483167D01*
X149836916Y-87293831D01*
X149744066Y-87119204D01*
X149740167Y-87114424D01*
X149739715Y-87113743D01*
X149718676Y-87045935D01*
X149735105Y-86981775D01*
X149745906Y-86962763D01*
X149774310Y-86912763D01*
X149822723Y-86827542D01*
X149822725Y-86827537D01*
X149825769Y-86822179D01*
X149888197Y-86634513D01*
X149912985Y-86438295D01*
X149913380Y-86410000D01*
X149894080Y-86213167D01*
X149836916Y-86023831D01*
X149744066Y-85849204D01*
X149673709Y-85762938D01*
X149622960Y-85700713D01*
X149622957Y-85700710D01*
X149619065Y-85695938D01*
X149612724Y-85690692D01*
X149471425Y-85573799D01*
X149471421Y-85573797D01*
X149466675Y-85569870D01*
X149292701Y-85475802D01*
X149223449Y-85454365D01*
X149164289Y-85415114D01*
X149135742Y-85350109D01*
X149146871Y-85279990D01*
X149194142Y-85227019D01*
X149260708Y-85208000D01*
X150241000Y-85208000D01*
X150309121Y-85228002D01*
X150355614Y-85281658D01*
X150367000Y-85334000D01*
X150367000Y-95991464D01*
X150346998Y-96059585D01*
X150293342Y-96106078D01*
X150223068Y-96116182D01*
X150158488Y-96086688D01*
X150124730Y-96039267D01*
X150123908Y-96036466D01*
X150121164Y-96031138D01*
X150121163Y-96031135D01*
X150029804Y-95853751D01*
X150029802Y-95853748D01*
X150027058Y-95848420D01*
X149896396Y-95682080D01*
X149758627Y-95562530D01*
X149720288Y-95502779D01*
X149716095Y-95452448D01*
X149732762Y-95312673D01*
X149733596Y-95305680D01*
X149714636Y-95125288D01*
X149656182Y-94953579D01*
X149561138Y-94799088D01*
X149556207Y-94794053D01*
X149556205Y-94794050D01*
X149439157Y-94674525D01*
X149439156Y-94674524D01*
X149434229Y-94669493D01*
X149281762Y-94571235D01*
X149275142Y-94568826D01*
X149275139Y-94568824D01*
X149117934Y-94511606D01*
X149117933Y-94511606D01*
X149111315Y-94509197D01*
X148971231Y-94491500D01*
X148874390Y-94491500D01*
X148739745Y-94506603D01*
X148733092Y-94508920D01*
X148733091Y-94508920D01*
X148575106Y-94563936D01*
X148575103Y-94563938D01*
X148568448Y-94566255D01*
X148562469Y-94569991D01*
X148554367Y-94575054D01*
X148414624Y-94662374D01*
X148409628Y-94667335D01*
X148409627Y-94667336D01*
X148290915Y-94785222D01*
X148290912Y-94785226D01*
X148285918Y-94790185D01*
X148188727Y-94943334D01*
X148186362Y-94949976D01*
X148130243Y-95107575D01*
X148130242Y-95107580D01*
X148127881Y-95114210D01*
X148106404Y-95294320D01*
X148107140Y-95301323D01*
X148107140Y-95301324D01*
X148121772Y-95440533D01*
X148125364Y-95474712D01*
X148150102Y-95547379D01*
X148171890Y-95611381D01*
X148183818Y-95646421D01*
X148193696Y-95662477D01*
X148212354Y-95730978D01*
X148192230Y-95796847D01*
X148101380Y-95937548D01*
X148099137Y-95943114D01*
X148060793Y-96038259D01*
X148022314Y-96133737D01*
X147981772Y-96341337D01*
X147981500Y-96346899D01*
X147981500Y-97002846D01*
X147981784Y-97005820D01*
X147981784Y-97005825D01*
X147982547Y-97013816D01*
X147969107Y-97083529D01*
X147920110Y-97134908D01*
X147851114Y-97151642D01*
X147830919Y-97149031D01*
X147801950Y-97142873D01*
X147801943Y-97142872D01*
X147795487Y-97141500D01*
X147604513Y-97141500D01*
X147598061Y-97142872D01*
X147598056Y-97142872D01*
X147487731Y-97166323D01*
X147422676Y-97180151D01*
X147422674Y-97180151D01*
X147417712Y-97181206D01*
X147417519Y-97180299D01*
X147352273Y-97182166D01*
X147291474Y-97145506D01*
X147260145Y-97081796D01*
X147258571Y-97056189D01*
X147258387Y-97056185D01*
X147258425Y-97054643D01*
X147258500Y-97053101D01*
X147258500Y-96397154D01*
X147243452Y-96239434D01*
X147183908Y-96036466D01*
X147181162Y-96031135D01*
X147089804Y-95853751D01*
X147089802Y-95853748D01*
X147087058Y-95848420D01*
X146956396Y-95682080D01*
X146951865Y-95678148D01*
X146951862Y-95678145D01*
X146801167Y-95547379D01*
X146796637Y-95543448D01*
X146791451Y-95540448D01*
X146791447Y-95540445D01*
X146618742Y-95440533D01*
X146613546Y-95437527D01*
X146413729Y-95368139D01*
X146407794Y-95367278D01*
X146407792Y-95367278D01*
X146210336Y-95338648D01*
X146210333Y-95338648D01*
X146204396Y-95337787D01*
X145993101Y-95347567D01*
X145861923Y-95379181D01*
X145793299Y-95395719D01*
X145793297Y-95395720D01*
X145787466Y-95397125D01*
X145782008Y-95399607D01*
X145782004Y-95399608D01*
X145666959Y-95451916D01*
X145594913Y-95484674D01*
X145422389Y-95607054D01*
X145276119Y-95759850D01*
X145161380Y-95937548D01*
X145159137Y-95943114D01*
X145120793Y-96038259D01*
X145082314Y-96133737D01*
X145041772Y-96341337D01*
X145041500Y-96346899D01*
X145041500Y-97002846D01*
X145056548Y-97160566D01*
X145116092Y-97363534D01*
X145118836Y-97368861D01*
X145118836Y-97368862D01*
X145122568Y-97376107D01*
X145212942Y-97551580D01*
X145343604Y-97717920D01*
X145348135Y-97721852D01*
X145348138Y-97721855D01*
X145431134Y-97793875D01*
X145503363Y-97856552D01*
X145508549Y-97859552D01*
X145508553Y-97859555D01*
X145604957Y-97915326D01*
X145686454Y-97962473D01*
X145886271Y-98031861D01*
X145892206Y-98032722D01*
X145892208Y-98032722D01*
X146089664Y-98061352D01*
X146089667Y-98061352D01*
X146095604Y-98062213D01*
X146306899Y-98052433D01*
X146487609Y-98008882D01*
X146506701Y-98004281D01*
X146506703Y-98004280D01*
X146512534Y-98002875D01*
X146517998Y-98000391D01*
X146518000Y-98000390D01*
X146610090Y-97958519D01*
X146680381Y-97948531D01*
X146744913Y-97978132D01*
X146783197Y-98037922D01*
X146787552Y-98060048D01*
X146803664Y-98213340D01*
X146806458Y-98239928D01*
X146865473Y-98421556D01*
X146868776Y-98427278D01*
X146868777Y-98427279D01*
X146899120Y-98479834D01*
X146960960Y-98586944D01*
X146965378Y-98591851D01*
X146965379Y-98591852D01*
X147033269Y-98667251D01*
X147088747Y-98728866D01*
X147243248Y-98841118D01*
X147249276Y-98843802D01*
X147249278Y-98843803D01*
X147411681Y-98916109D01*
X147417712Y-98918794D01*
X147511113Y-98938647D01*
X147598056Y-98957128D01*
X147598061Y-98957128D01*
X147604513Y-98958500D01*
X147795487Y-98958500D01*
X147801939Y-98957128D01*
X147801944Y-98957128D01*
X147888887Y-98938647D01*
X147982288Y-98918794D01*
X147988319Y-98916109D01*
X148150722Y-98843803D01*
X148150724Y-98843802D01*
X148156752Y-98841118D01*
X148311253Y-98728866D01*
X148366731Y-98667251D01*
X148434621Y-98591852D01*
X148434622Y-98591851D01*
X148439040Y-98586944D01*
X148500880Y-98479834D01*
X148531223Y-98427279D01*
X148531224Y-98427278D01*
X148534527Y-98421556D01*
X148593542Y-98239928D01*
X148596337Y-98213340D01*
X148600564Y-98173114D01*
X148606233Y-98119176D01*
X148633246Y-98053520D01*
X148691467Y-98012890D01*
X148762413Y-98010187D01*
X148772877Y-98013320D01*
X148820600Y-98029892D01*
X148820603Y-98029893D01*
X148826271Y-98031861D01*
X148832206Y-98032722D01*
X148832208Y-98032722D01*
X149029664Y-98061352D01*
X149029667Y-98061352D01*
X149035604Y-98062213D01*
X149246899Y-98052433D01*
X149427609Y-98008882D01*
X149446701Y-98004281D01*
X149446703Y-98004280D01*
X149452534Y-98002875D01*
X149457992Y-98000393D01*
X149457996Y-98000392D01*
X149573041Y-97948084D01*
X149645087Y-97915326D01*
X149817611Y-97792946D01*
X149963881Y-97640150D01*
X150078620Y-97462452D01*
X150124134Y-97349517D01*
X150168149Y-97293811D01*
X150235294Y-97270744D01*
X150304251Y-97287641D01*
X150353126Y-97339136D01*
X150367000Y-97396615D01*
X150367000Y-104191463D01*
X150346998Y-104259584D01*
X150293342Y-104306077D01*
X150223068Y-104316181D01*
X150158488Y-104286687D01*
X150124730Y-104239266D01*
X150123908Y-104236465D01*
X150121164Y-104231137D01*
X150121163Y-104231134D01*
X150029804Y-104053750D01*
X150029802Y-104053747D01*
X150027058Y-104048419D01*
X149896396Y-103882079D01*
X149891865Y-103878147D01*
X149891862Y-103878144D01*
X149741167Y-103747378D01*
X149736637Y-103743447D01*
X149731451Y-103740447D01*
X149731447Y-103740444D01*
X149558742Y-103640532D01*
X149553546Y-103637526D01*
X149353729Y-103568138D01*
X149347794Y-103567277D01*
X149347792Y-103567277D01*
X149150336Y-103538647D01*
X149150333Y-103538647D01*
X149144396Y-103537786D01*
X148933101Y-103547566D01*
X148801923Y-103579180D01*
X148733299Y-103595718D01*
X148733297Y-103595719D01*
X148727466Y-103597124D01*
X148722008Y-103599606D01*
X148722004Y-103599607D01*
X148606959Y-103651915D01*
X148534913Y-103684673D01*
X148362389Y-103807053D01*
X148216119Y-103959849D01*
X148101380Y-104137547D01*
X148099137Y-104143113D01*
X148060793Y-104238258D01*
X148022314Y-104333736D01*
X147981772Y-104541336D01*
X147981500Y-104546898D01*
X147981500Y-105202845D01*
X147996548Y-105360565D01*
X148056092Y-105563533D01*
X148058836Y-105568860D01*
X148058836Y-105568861D01*
X148104934Y-105658365D01*
X148152942Y-105751579D01*
X148156644Y-105756292D01*
X148156646Y-105756295D01*
X148184988Y-105792375D01*
X148211339Y-105858301D01*
X148197865Y-105928007D01*
X148192621Y-105937142D01*
X148192503Y-105937384D01*
X148188727Y-105943334D01*
X148186362Y-105949976D01*
X148130243Y-106107575D01*
X148130242Y-106107580D01*
X148127881Y-106114210D01*
X148127048Y-106121198D01*
X148127047Y-106121201D01*
X148113852Y-106231860D01*
X148106404Y-106294320D01*
X148125364Y-106474712D01*
X148183818Y-106646421D01*
X148278862Y-106800912D01*
X148283793Y-106805947D01*
X148283795Y-106805950D01*
X148314147Y-106836944D01*
X148405771Y-106930507D01*
X148558238Y-107028765D01*
X148564858Y-107031174D01*
X148564861Y-107031176D01*
X148722066Y-107088394D01*
X148728685Y-107090803D01*
X148868769Y-107108500D01*
X148965610Y-107108500D01*
X149100255Y-107093397D01*
X149114622Y-107088394D01*
X149264894Y-107036064D01*
X149264897Y-107036062D01*
X149271552Y-107033745D01*
X149279522Y-107028765D01*
X149419402Y-106941359D01*
X149425376Y-106937626D01*
X149521821Y-106841852D01*
X149549085Y-106814778D01*
X149549088Y-106814774D01*
X149554082Y-106809815D01*
X149651273Y-106656666D01*
X149661672Y-106627463D01*
X149709757Y-106492425D01*
X149709758Y-106492420D01*
X149712119Y-106485790D01*
X149724317Y-106383500D01*
X149732762Y-106312673D01*
X149733596Y-106305680D01*
X149725631Y-106229893D01*
X149717640Y-106153866D01*
X149716540Y-106143404D01*
X149729312Y-106073565D01*
X149768950Y-106027464D01*
X149812718Y-105996417D01*
X149812726Y-105996410D01*
X149817611Y-105992945D01*
X149963881Y-105840149D01*
X150078620Y-105662451D01*
X150124134Y-105549516D01*
X150168149Y-105493810D01*
X150235294Y-105470743D01*
X150304251Y-105487640D01*
X150353126Y-105539135D01*
X150367000Y-105596614D01*
X150367000Y-114066000D01*
X150346998Y-114134121D01*
X150293342Y-114180614D01*
X150241000Y-114192000D01*
X144391110Y-114192000D01*
X144322989Y-114171998D01*
X144276496Y-114118342D01*
X144266392Y-114048068D01*
X144266992Y-114044698D01*
X144268542Y-114039928D01*
X144269231Y-114033373D01*
X144269232Y-114033368D01*
X144287814Y-113856565D01*
X144288504Y-113850000D01*
X144281515Y-113783500D01*
X144269232Y-113666635D01*
X144269232Y-113666633D01*
X144268542Y-113660072D01*
X144254979Y-113618329D01*
X144252951Y-113547363D01*
X144289614Y-113486565D01*
X144323563Y-113464287D01*
X144425722Y-113418803D01*
X144425724Y-113418802D01*
X144431752Y-113416118D01*
X144586253Y-113303866D01*
X144643514Y-113240271D01*
X144709621Y-113166852D01*
X144709622Y-113166851D01*
X144714040Y-113161944D01*
X144775093Y-113056197D01*
X144806223Y-113002279D01*
X144806224Y-113002278D01*
X144809527Y-112996556D01*
X144868542Y-112814928D01*
X144880549Y-112700684D01*
X144907562Y-112635028D01*
X144965783Y-112594398D01*
X144979662Y-112590608D01*
X144996899Y-112586944D01*
X145082288Y-112568794D01*
X145088319Y-112566109D01*
X145250722Y-112493803D01*
X145250724Y-112493802D01*
X145256752Y-112491118D01*
X145411253Y-112378866D01*
X145442850Y-112343774D01*
X145534621Y-112241852D01*
X145534622Y-112241851D01*
X145539040Y-112236944D01*
X145621333Y-112094409D01*
X145631223Y-112077279D01*
X145631224Y-112077278D01*
X145634527Y-112071556D01*
X145693542Y-111889928D01*
X145706501Y-111766635D01*
X145712814Y-111706565D01*
X145713504Y-111700000D01*
X145701389Y-111584729D01*
X145694233Y-111516642D01*
X145694232Y-111516635D01*
X145693542Y-111510072D01*
X145690489Y-111500677D01*
X145686750Y-111489167D01*
X145684724Y-111418199D01*
X145712948Y-111365922D01*
X145734621Y-111341852D01*
X145734622Y-111341851D01*
X145739040Y-111336944D01*
X145774200Y-111276045D01*
X145831223Y-111177279D01*
X145831224Y-111177278D01*
X145834527Y-111171556D01*
X145893542Y-110989928D01*
X145899601Y-110932285D01*
X145912814Y-110806565D01*
X145913504Y-110800000D01*
X145901600Y-110686739D01*
X145894232Y-110616635D01*
X145894232Y-110616633D01*
X145893542Y-110610072D01*
X145834527Y-110428444D01*
X145739040Y-110263056D01*
X145724707Y-110247137D01*
X145615675Y-110126045D01*
X145615674Y-110126044D01*
X145611253Y-110121134D01*
X145456752Y-110008882D01*
X145450724Y-110006198D01*
X145450722Y-110006197D01*
X145288319Y-109933891D01*
X145288318Y-109933891D01*
X145282288Y-109931206D01*
X145188888Y-109911353D01*
X145101944Y-109892872D01*
X145101939Y-109892872D01*
X145095487Y-109891500D01*
X144904513Y-109891500D01*
X144898061Y-109892872D01*
X144898056Y-109892872D01*
X144811113Y-109911353D01*
X144717712Y-109931206D01*
X144711682Y-109933891D01*
X144711681Y-109933891D01*
X144549278Y-110006197D01*
X144549276Y-110006198D01*
X144543248Y-110008882D01*
X144388747Y-110121134D01*
X144384326Y-110126044D01*
X144384325Y-110126045D01*
X144275294Y-110247137D01*
X144260960Y-110263056D01*
X144165473Y-110428444D01*
X144106458Y-110610072D01*
X144105768Y-110616633D01*
X144105768Y-110616635D01*
X144098400Y-110686739D01*
X144086496Y-110800000D01*
X144087186Y-110806565D01*
X144100400Y-110932285D01*
X144106458Y-110989928D01*
X144108500Y-110996212D01*
X144113250Y-111010833D01*
X144115276Y-111081801D01*
X144087052Y-111134078D01*
X144060960Y-111163056D01*
X144057657Y-111168777D01*
X143969366Y-111321702D01*
X143965473Y-111328444D01*
X143906458Y-111510072D01*
X143905768Y-111516633D01*
X143905768Y-111516635D01*
X143894451Y-111624315D01*
X143867438Y-111689972D01*
X143809217Y-111730602D01*
X143795337Y-111734392D01*
X143692712Y-111756206D01*
X143686682Y-111758891D01*
X143686681Y-111758891D01*
X143524278Y-111831197D01*
X143524276Y-111831198D01*
X143518248Y-111833882D01*
X143512907Y-111837762D01*
X143512906Y-111837763D01*
X143462843Y-111874136D01*
X143363747Y-111946134D01*
X143359326Y-111951044D01*
X143359325Y-111951045D01*
X143245664Y-112077279D01*
X143235960Y-112088056D01*
X143192700Y-112162985D01*
X143147166Y-112241852D01*
X143140473Y-112253444D01*
X143081458Y-112435072D01*
X143080768Y-112441633D01*
X143080768Y-112441635D01*
X143078517Y-112463056D01*
X143061496Y-112625000D01*
X143062186Y-112631565D01*
X143073983Y-112743803D01*
X143081458Y-112814928D01*
X143083497Y-112821203D01*
X143095021Y-112856669D01*
X143097049Y-112927637D01*
X143060386Y-112988435D01*
X143026437Y-113010713D01*
X142924278Y-113056197D01*
X142924276Y-113056198D01*
X142918248Y-113058882D01*
X142912907Y-113062762D01*
X142912906Y-113062763D01*
X142862843Y-113099136D01*
X142763747Y-113171134D01*
X142759326Y-113176044D01*
X142759325Y-113176045D01*
X142648657Y-113298955D01*
X142635960Y-113313056D01*
X142632659Y-113318774D01*
X142548647Y-113464287D01*
X142540473Y-113478444D01*
X142481458Y-113660072D01*
X142480768Y-113666633D01*
X142480768Y-113666635D01*
X142468485Y-113783500D01*
X142461496Y-113850000D01*
X142462186Y-113856565D01*
X142480768Y-114033368D01*
X142480769Y-114033373D01*
X142481458Y-114039928D01*
X142482000Y-114041597D01*
X142476733Y-114110597D01*
X142433915Y-114167229D01*
X142367277Y-114191721D01*
X142358890Y-114192000D01*
X109609000Y-114192000D01*
X109540879Y-114171998D01*
X109494386Y-114118342D01*
X109483000Y-114066000D01*
X109483000Y-111950000D01*
X118286496Y-111950000D01*
X118287186Y-111956565D01*
X118302770Y-112104834D01*
X118306458Y-112139928D01*
X118365473Y-112321556D01*
X118368776Y-112327278D01*
X118368777Y-112327279D01*
X118379476Y-112345810D01*
X118460960Y-112486944D01*
X118465378Y-112491851D01*
X118465379Y-112491852D01*
X118481476Y-112509729D01*
X118588747Y-112628866D01*
X118656784Y-112678298D01*
X118726385Y-112728866D01*
X118743248Y-112741118D01*
X118749276Y-112743802D01*
X118749278Y-112743803D01*
X118911681Y-112816109D01*
X118917712Y-112818794D01*
X119004479Y-112837237D01*
X119098056Y-112857128D01*
X119098061Y-112857128D01*
X119104513Y-112858500D01*
X119295487Y-112858500D01*
X119301939Y-112857128D01*
X119301944Y-112857128D01*
X119395521Y-112837237D01*
X119482288Y-112818794D01*
X119488319Y-112816109D01*
X119650722Y-112743803D01*
X119650724Y-112743802D01*
X119656752Y-112741118D01*
X119662093Y-112737237D01*
X119667811Y-112733936D01*
X119669308Y-112736528D01*
X119723846Y-112717000D01*
X119793016Y-112733002D01*
X119805238Y-112740847D01*
X119809306Y-112743803D01*
X119915842Y-112821206D01*
X119943248Y-112841118D01*
X119949276Y-112843802D01*
X119949278Y-112843803D01*
X120111681Y-112916109D01*
X120117712Y-112918794D01*
X120211113Y-112938647D01*
X120298056Y-112957128D01*
X120298061Y-112957128D01*
X120304513Y-112958500D01*
X120495487Y-112958500D01*
X120501939Y-112957128D01*
X120501944Y-112957128D01*
X120588887Y-112938647D01*
X120682288Y-112918794D01*
X120688319Y-112916109D01*
X120780652Y-112875000D01*
X124986496Y-112875000D01*
X124987186Y-112881565D01*
X124999288Y-112996705D01*
X125006458Y-113064928D01*
X125065473Y-113246556D01*
X125160960Y-113411944D01*
X125165378Y-113416851D01*
X125165379Y-113416852D01*
X125282520Y-113546950D01*
X125288747Y-113553866D01*
X125373002Y-113615081D01*
X125426385Y-113653866D01*
X125443248Y-113666118D01*
X125449276Y-113668802D01*
X125449278Y-113668803D01*
X125611681Y-113741109D01*
X125617712Y-113743794D01*
X125704479Y-113762237D01*
X125798056Y-113782128D01*
X125798061Y-113782128D01*
X125804513Y-113783500D01*
X125995487Y-113783500D01*
X126001939Y-113782128D01*
X126001944Y-113782128D01*
X126095521Y-113762237D01*
X126182288Y-113743794D01*
X126188319Y-113741109D01*
X126350722Y-113668803D01*
X126350724Y-113668802D01*
X126356752Y-113666118D01*
X126373616Y-113653866D01*
X126426998Y-113615081D01*
X126493865Y-113591223D01*
X126563017Y-113607303D01*
X126594695Y-113632706D01*
X126613747Y-113653866D01*
X126619089Y-113657747D01*
X126619091Y-113657749D01*
X126739410Y-113745166D01*
X126768248Y-113766118D01*
X126774276Y-113768802D01*
X126774278Y-113768803D01*
X126936681Y-113841109D01*
X126942712Y-113843794D01*
X127036113Y-113863647D01*
X127123056Y-113882128D01*
X127123061Y-113882128D01*
X127129513Y-113883500D01*
X127320487Y-113883500D01*
X127326939Y-113882128D01*
X127326944Y-113882128D01*
X127413887Y-113863647D01*
X127507288Y-113843794D01*
X127513319Y-113841109D01*
X127675722Y-113768803D01*
X127675724Y-113768802D01*
X127681752Y-113766118D01*
X127836253Y-113653866D01*
X127895110Y-113588498D01*
X127955555Y-113551260D01*
X128026539Y-113552612D01*
X128082379Y-113588498D01*
X128163747Y-113678866D01*
X128249417Y-113741109D01*
X128283839Y-113766118D01*
X128318248Y-113791118D01*
X128324276Y-113793802D01*
X128324278Y-113793803D01*
X128465245Y-113856565D01*
X128492712Y-113868794D01*
X128586112Y-113888647D01*
X128673056Y-113907128D01*
X128673061Y-113907128D01*
X128679513Y-113908500D01*
X128870487Y-113908500D01*
X128876939Y-113907128D01*
X128876944Y-113907128D01*
X128963888Y-113888647D01*
X129057288Y-113868794D01*
X129084755Y-113856565D01*
X129225722Y-113793803D01*
X129225724Y-113793802D01*
X129231752Y-113791118D01*
X129266162Y-113766118D01*
X129300583Y-113741109D01*
X129386253Y-113678866D01*
X129495307Y-113557749D01*
X129509621Y-113541852D01*
X129509622Y-113541851D01*
X129514040Y-113536944D01*
X129538953Y-113493794D01*
X129606223Y-113377279D01*
X129606224Y-113377278D01*
X129609527Y-113371556D01*
X129668542Y-113189928D01*
X129670518Y-113171134D01*
X129687814Y-113006565D01*
X129688504Y-113000000D01*
X129683998Y-112957128D01*
X129669232Y-112816635D01*
X129669232Y-112816633D01*
X129668542Y-112810072D01*
X129609527Y-112628444D01*
X129589871Y-112594398D01*
X129530665Y-112491852D01*
X129514040Y-112463056D01*
X129494753Y-112441635D01*
X129390675Y-112326045D01*
X129390671Y-112326041D01*
X129386253Y-112321134D01*
X129248610Y-112221130D01*
X129237094Y-112212763D01*
X129237093Y-112212762D01*
X129231752Y-112208882D01*
X129225724Y-112206198D01*
X129225722Y-112206197D01*
X129063319Y-112133891D01*
X129063318Y-112133891D01*
X129057288Y-112131206D01*
X128952305Y-112108891D01*
X128876944Y-112092872D01*
X128876939Y-112092872D01*
X128870487Y-112091500D01*
X128679513Y-112091500D01*
X128673061Y-112092872D01*
X128673056Y-112092872D01*
X128597695Y-112108891D01*
X128492712Y-112131206D01*
X128486682Y-112133891D01*
X128486681Y-112133891D01*
X128324278Y-112206197D01*
X128324276Y-112206198D01*
X128318248Y-112208882D01*
X128312907Y-112212762D01*
X128312906Y-112212763D01*
X128301390Y-112221130D01*
X128163747Y-112321134D01*
X128104890Y-112386502D01*
X128044445Y-112423740D01*
X127973461Y-112422388D01*
X127917621Y-112386502D01*
X127836253Y-112296134D01*
X127721503Y-112212763D01*
X127687094Y-112187763D01*
X127687093Y-112187762D01*
X127681752Y-112183882D01*
X127675724Y-112181198D01*
X127675722Y-112181197D01*
X127513319Y-112108891D01*
X127513318Y-112108891D01*
X127507288Y-112106206D01*
X127413888Y-112086353D01*
X127326944Y-112067872D01*
X127326939Y-112067872D01*
X127320487Y-112066500D01*
X127129513Y-112066500D01*
X127123061Y-112067872D01*
X127123056Y-112067872D01*
X127036112Y-112086353D01*
X126942712Y-112106206D01*
X126936682Y-112108891D01*
X126936681Y-112108891D01*
X126774278Y-112181197D01*
X126774276Y-112181198D01*
X126768248Y-112183882D01*
X126762907Y-112187762D01*
X126762906Y-112187763D01*
X126698002Y-112234919D01*
X126631135Y-112258777D01*
X126561983Y-112242697D01*
X126530305Y-112217294D01*
X126511253Y-112196134D01*
X126499732Y-112187763D01*
X126362094Y-112087763D01*
X126362093Y-112087762D01*
X126356752Y-112083882D01*
X126350724Y-112081198D01*
X126350722Y-112081197D01*
X126188319Y-112008891D01*
X126188318Y-112008891D01*
X126182288Y-112006206D01*
X126088888Y-111986353D01*
X126001944Y-111967872D01*
X126001939Y-111967872D01*
X125995487Y-111966500D01*
X125804513Y-111966500D01*
X125798061Y-111967872D01*
X125798056Y-111967872D01*
X125711113Y-111986353D01*
X125617712Y-112006206D01*
X125611682Y-112008891D01*
X125611681Y-112008891D01*
X125449278Y-112081197D01*
X125449276Y-112081198D01*
X125443248Y-112083882D01*
X125437907Y-112087762D01*
X125437906Y-112087763D01*
X125414410Y-112104834D01*
X125288747Y-112196134D01*
X125284329Y-112201041D01*
X125284325Y-112201045D01*
X125170664Y-112327279D01*
X125160960Y-112338056D01*
X125132023Y-112388177D01*
X125072166Y-112491852D01*
X125065473Y-112503444D01*
X125006458Y-112685072D01*
X125005768Y-112691633D01*
X125005768Y-112691635D01*
X124993320Y-112810072D01*
X124986496Y-112875000D01*
X120780652Y-112875000D01*
X120850722Y-112843803D01*
X120850724Y-112843802D01*
X120856752Y-112841118D01*
X120884159Y-112821206D01*
X120990694Y-112743803D01*
X121011253Y-112728866D01*
X121106826Y-112622721D01*
X121134621Y-112591852D01*
X121134622Y-112591851D01*
X121139040Y-112586944D01*
X121234527Y-112421556D01*
X121293542Y-112239928D01*
X121303393Y-112146206D01*
X121312814Y-112056565D01*
X121313504Y-112050000D01*
X121293542Y-111860072D01*
X121234527Y-111678444D01*
X121139040Y-111513056D01*
X121130701Y-111503794D01*
X121106633Y-111477064D01*
X136837707Y-111477064D01*
X136866825Y-111669599D01*
X136869028Y-111675585D01*
X136869029Y-111675591D01*
X136931860Y-111846360D01*
X136931862Y-111846365D01*
X136934063Y-111852346D01*
X136985200Y-111934821D01*
X137029461Y-112006206D01*
X137036674Y-112017840D01*
X137041055Y-112022473D01*
X137041056Y-112022474D01*
X137104312Y-112089366D01*
X137170466Y-112159322D01*
X137175696Y-112162984D01*
X137175697Y-112162985D01*
X137223039Y-112196134D01*
X137329975Y-112271011D01*
X137335838Y-112273548D01*
X137502825Y-112345810D01*
X137502829Y-112345811D01*
X137508684Y-112348345D01*
X137514931Y-112349650D01*
X137514934Y-112349651D01*
X137694557Y-112387176D01*
X137694562Y-112387177D01*
X137699293Y-112388165D01*
X137705685Y-112388500D01*
X137848663Y-112388500D01*
X137917951Y-112381462D01*
X137987378Y-112374410D01*
X137987379Y-112374410D01*
X137993727Y-112373765D01*
X138074843Y-112348345D01*
X138173451Y-112317444D01*
X138173456Y-112317442D01*
X138179541Y-112315535D01*
X138266475Y-112267346D01*
X138344271Y-112224223D01*
X138344274Y-112224221D01*
X138349850Y-112221130D01*
X138354691Y-112216981D01*
X138354695Y-112216978D01*
X138492855Y-112098560D01*
X138497698Y-112094409D01*
X138507947Y-112081197D01*
X138613131Y-111945594D01*
X138617046Y-111940547D01*
X138638865Y-111896206D01*
X138700200Y-111771556D01*
X138703018Y-111765829D01*
X138712194Y-111730602D01*
X138750492Y-111583575D01*
X138750492Y-111583572D01*
X138752102Y-111577393D01*
X138757360Y-111477064D01*
X139837707Y-111477064D01*
X139866825Y-111669599D01*
X139869028Y-111675585D01*
X139869029Y-111675591D01*
X139931860Y-111846360D01*
X139931862Y-111846365D01*
X139934063Y-111852346D01*
X139985200Y-111934821D01*
X140029461Y-112006206D01*
X140036674Y-112017840D01*
X140041055Y-112022473D01*
X140041056Y-112022474D01*
X140104312Y-112089366D01*
X140170466Y-112159322D01*
X140175696Y-112162984D01*
X140175697Y-112162985D01*
X140223039Y-112196134D01*
X140329975Y-112271011D01*
X140335838Y-112273548D01*
X140502825Y-112345810D01*
X140502829Y-112345811D01*
X140508684Y-112348345D01*
X140514931Y-112349650D01*
X140514934Y-112349651D01*
X140694557Y-112387176D01*
X140694562Y-112387177D01*
X140699293Y-112388165D01*
X140705685Y-112388500D01*
X140848663Y-112388500D01*
X140917951Y-112381462D01*
X140987378Y-112374410D01*
X140987379Y-112374410D01*
X140993727Y-112373765D01*
X141074843Y-112348345D01*
X141173451Y-112317444D01*
X141173456Y-112317442D01*
X141179541Y-112315535D01*
X141266475Y-112267346D01*
X141344271Y-112224223D01*
X141344274Y-112224221D01*
X141349850Y-112221130D01*
X141354691Y-112216981D01*
X141354695Y-112216978D01*
X141492855Y-112098560D01*
X141497698Y-112094409D01*
X141507947Y-112081197D01*
X141613131Y-111945594D01*
X141617046Y-111940547D01*
X141638865Y-111896206D01*
X141700200Y-111771556D01*
X141703018Y-111765829D01*
X141712194Y-111730602D01*
X141750492Y-111583575D01*
X141750492Y-111583572D01*
X141752102Y-111577393D01*
X141757694Y-111470683D01*
X141761959Y-111389317D01*
X141761959Y-111389313D01*
X141762293Y-111382936D01*
X141733175Y-111190401D01*
X141730972Y-111184415D01*
X141730971Y-111184409D01*
X141668140Y-111013640D01*
X141668138Y-111013635D01*
X141665937Y-111007654D01*
X141563326Y-110842160D01*
X141534525Y-110811703D01*
X141433919Y-110705315D01*
X141429534Y-110700678D01*
X141270025Y-110588989D01*
X141222013Y-110568212D01*
X141097175Y-110514190D01*
X141097171Y-110514189D01*
X141091316Y-110511655D01*
X141085069Y-110510350D01*
X141085066Y-110510349D01*
X140905443Y-110472824D01*
X140905438Y-110472823D01*
X140900707Y-110471835D01*
X140894315Y-110471500D01*
X140751337Y-110471500D01*
X140700813Y-110476632D01*
X140612622Y-110485590D01*
X140612621Y-110485590D01*
X140606273Y-110486235D01*
X140549939Y-110503889D01*
X140426549Y-110542556D01*
X140426544Y-110542558D01*
X140420459Y-110544465D01*
X140401526Y-110554960D01*
X140255729Y-110635777D01*
X140255726Y-110635779D01*
X140250150Y-110638870D01*
X140245309Y-110643019D01*
X140245305Y-110643022D01*
X140200578Y-110681358D01*
X140102302Y-110765591D01*
X140098391Y-110770633D01*
X140098390Y-110770634D01*
X140073056Y-110803295D01*
X139982954Y-110919453D01*
X139980138Y-110925176D01*
X139980136Y-110925179D01*
X139937989Y-111010833D01*
X139896982Y-111094171D01*
X139895373Y-111100349D01*
X139895372Y-111100351D01*
X139873477Y-111184409D01*
X139847898Y-111282607D01*
X139837707Y-111477064D01*
X138757360Y-111477064D01*
X138757694Y-111470683D01*
X138761959Y-111389317D01*
X138761959Y-111389313D01*
X138762293Y-111382936D01*
X138733175Y-111190401D01*
X138730972Y-111184415D01*
X138730971Y-111184409D01*
X138668140Y-111013640D01*
X138668138Y-111013635D01*
X138665937Y-111007654D01*
X138563326Y-110842160D01*
X138534525Y-110811703D01*
X138433919Y-110705315D01*
X138429534Y-110700678D01*
X138270025Y-110588989D01*
X138222013Y-110568212D01*
X138097175Y-110514190D01*
X138097171Y-110514189D01*
X138091316Y-110511655D01*
X138085069Y-110510350D01*
X138085066Y-110510349D01*
X137905443Y-110472824D01*
X137905438Y-110472823D01*
X137900707Y-110471835D01*
X137894315Y-110471500D01*
X137751337Y-110471500D01*
X137700813Y-110476632D01*
X137612622Y-110485590D01*
X137612621Y-110485590D01*
X137606273Y-110486235D01*
X137549939Y-110503889D01*
X137426549Y-110542556D01*
X137426544Y-110542558D01*
X137420459Y-110544465D01*
X137401526Y-110554960D01*
X137255729Y-110635777D01*
X137255726Y-110635779D01*
X137250150Y-110638870D01*
X137245309Y-110643019D01*
X137245305Y-110643022D01*
X137200578Y-110681358D01*
X137102302Y-110765591D01*
X137098391Y-110770633D01*
X137098390Y-110770634D01*
X137073056Y-110803295D01*
X136982954Y-110919453D01*
X136980138Y-110925176D01*
X136980136Y-110925179D01*
X136937989Y-111010833D01*
X136896982Y-111094171D01*
X136895373Y-111100349D01*
X136895372Y-111100351D01*
X136873477Y-111184409D01*
X136847898Y-111282607D01*
X136837707Y-111477064D01*
X121106633Y-111477064D01*
X121015675Y-111376045D01*
X121015674Y-111376044D01*
X121011253Y-111371134D01*
X120912157Y-111299136D01*
X120862094Y-111262763D01*
X120862093Y-111262762D01*
X120856752Y-111258882D01*
X120850724Y-111256198D01*
X120850722Y-111256197D01*
X120688319Y-111183891D01*
X120688318Y-111183891D01*
X120682288Y-111181206D01*
X120588887Y-111161353D01*
X120501944Y-111142872D01*
X120501939Y-111142872D01*
X120495487Y-111141500D01*
X120304513Y-111141500D01*
X120298061Y-111142872D01*
X120298056Y-111142872D01*
X120211112Y-111161353D01*
X120117712Y-111181206D01*
X120111682Y-111183891D01*
X120111681Y-111183891D01*
X119949278Y-111256197D01*
X119949276Y-111256198D01*
X119943248Y-111258882D01*
X119937907Y-111262763D01*
X119932189Y-111266064D01*
X119930692Y-111263472D01*
X119876154Y-111283000D01*
X119806984Y-111266998D01*
X119794762Y-111259153D01*
X119656752Y-111158882D01*
X119650724Y-111156198D01*
X119650722Y-111156197D01*
X119488319Y-111083891D01*
X119488318Y-111083891D01*
X119482288Y-111081206D01*
X119388887Y-111061353D01*
X119301944Y-111042872D01*
X119301939Y-111042872D01*
X119295487Y-111041500D01*
X119104513Y-111041500D01*
X119098061Y-111042872D01*
X119098056Y-111042872D01*
X119011113Y-111061353D01*
X118917712Y-111081206D01*
X118911682Y-111083891D01*
X118911681Y-111083891D01*
X118749278Y-111156197D01*
X118749276Y-111156198D01*
X118743248Y-111158882D01*
X118588747Y-111271134D01*
X118584326Y-111276044D01*
X118584325Y-111276045D01*
X118482335Y-111389317D01*
X118460960Y-111413056D01*
X118365473Y-111578444D01*
X118306458Y-111760072D01*
X118305768Y-111766633D01*
X118305768Y-111766635D01*
X118292810Y-111889928D01*
X118286496Y-111950000D01*
X109483000Y-111950000D01*
X109483000Y-110334000D01*
X109503002Y-110265879D01*
X109556658Y-110219386D01*
X109609000Y-110208000D01*
X114966298Y-110208000D01*
X114967069Y-110208002D01*
X115044652Y-110208476D01*
X115053281Y-110206010D01*
X115053286Y-110206009D01*
X115073048Y-110200361D01*
X115089809Y-110196783D01*
X115110152Y-110193870D01*
X115110162Y-110193867D01*
X115119045Y-110192595D01*
X115142395Y-110181979D01*
X115159907Y-110175536D01*
X115175937Y-110170954D01*
X115184565Y-110168488D01*
X115209548Y-110152726D01*
X115224614Y-110144596D01*
X115251510Y-110132367D01*
X115270939Y-110115626D01*
X115285947Y-110104521D01*
X115293113Y-110100000D01*
X115300000Y-110100000D01*
X115300000Y-110095655D01*
X115300039Y-110095630D01*
X115307631Y-110090840D01*
X115327182Y-110068703D01*
X115339374Y-110056659D01*
X115354949Y-110043239D01*
X115354950Y-110043237D01*
X115361747Y-110037381D01*
X115366626Y-110029853D01*
X115366629Y-110029850D01*
X115375696Y-110015861D01*
X115386986Y-110000987D01*
X115398012Y-109988502D01*
X115403956Y-109981772D01*
X115416510Y-109955034D01*
X115424824Y-109940065D01*
X115440893Y-109915273D01*
X115448239Y-109890709D01*
X115454901Y-109873264D01*
X115461983Y-109858179D01*
X115465799Y-109850052D01*
X115470343Y-109820870D01*
X115474126Y-109804151D01*
X115480014Y-109784464D01*
X115480015Y-109784461D01*
X115482587Y-109775859D01*
X115482797Y-109741444D01*
X115482830Y-109740672D01*
X115483000Y-109739577D01*
X115483000Y-109708702D01*
X115483002Y-109707932D01*
X115483452Y-109634284D01*
X115483452Y-109634283D01*
X115483476Y-109630348D01*
X115483092Y-109629004D01*
X115483000Y-109627659D01*
X115483000Y-108040862D01*
X132830497Y-108040862D01*
X132831737Y-108048078D01*
X132831737Y-108048080D01*
X132857842Y-108200000D01*
X132860134Y-108213340D01*
X132897560Y-108301298D01*
X132922474Y-108359848D01*
X132928654Y-108374373D01*
X133032383Y-108515324D01*
X133037961Y-108520063D01*
X133037964Y-108520066D01*
X133160176Y-108623893D01*
X133160180Y-108623896D01*
X133165755Y-108628632D01*
X133246572Y-108669899D01*
X133279435Y-108686680D01*
X133321616Y-108708219D01*
X133328721Y-108709958D01*
X133328725Y-108709959D01*
X133372172Y-108720590D01*
X133491606Y-108749815D01*
X133497206Y-108750162D01*
X133497210Y-108750163D01*
X133500709Y-108750380D01*
X133500718Y-108750380D01*
X133502648Y-108750500D01*
X133628822Y-108750500D01*
X133720369Y-108739827D01*
X133751556Y-108736191D01*
X133751558Y-108736191D01*
X133758828Y-108735343D01*
X133765705Y-108732847D01*
X133765708Y-108732846D01*
X133916452Y-108678128D01*
X133923331Y-108675631D01*
X134069685Y-108579677D01*
X134190040Y-108452628D01*
X134277939Y-108301298D01*
X134308619Y-108200000D01*
X135136496Y-108200000D01*
X135137186Y-108206565D01*
X135154035Y-108366870D01*
X135156458Y-108389928D01*
X135215473Y-108571556D01*
X135218776Y-108577278D01*
X135218777Y-108577279D01*
X135222478Y-108583689D01*
X135310960Y-108736944D01*
X135438747Y-108878866D01*
X135593248Y-108991118D01*
X135599276Y-108993802D01*
X135599278Y-108993803D01*
X135759799Y-109065271D01*
X135767712Y-109068794D01*
X135861112Y-109088647D01*
X135948056Y-109107128D01*
X135948061Y-109107128D01*
X135954513Y-109108500D01*
X136145487Y-109108500D01*
X136151939Y-109107128D01*
X136151944Y-109107128D01*
X136238887Y-109088647D01*
X136332288Y-109068794D01*
X136340201Y-109065271D01*
X136500722Y-108993803D01*
X136500724Y-108993802D01*
X136506752Y-108991118D01*
X136661253Y-108878866D01*
X136789040Y-108736944D01*
X136810370Y-108700000D01*
X138086496Y-108700000D01*
X138106458Y-108889928D01*
X138165473Y-109071556D01*
X138168776Y-109077278D01*
X138168777Y-109077279D01*
X138200568Y-109132342D01*
X138260960Y-109236944D01*
X138265378Y-109241851D01*
X138265379Y-109241852D01*
X138368740Y-109356646D01*
X138388747Y-109378866D01*
X138454433Y-109426590D01*
X138534452Y-109484727D01*
X138543248Y-109491118D01*
X138549276Y-109493802D01*
X138549278Y-109493803D01*
X138711681Y-109566109D01*
X138717712Y-109568794D01*
X138811113Y-109588647D01*
X138898056Y-109607128D01*
X138898061Y-109607128D01*
X138904513Y-109608500D01*
X139095487Y-109608500D01*
X139101939Y-109607128D01*
X139101944Y-109607128D01*
X139188888Y-109588647D01*
X139282288Y-109568794D01*
X139288319Y-109566109D01*
X139450722Y-109493803D01*
X139450724Y-109493802D01*
X139456752Y-109491118D01*
X139465549Y-109484727D01*
X139545567Y-109426590D01*
X139611253Y-109378866D01*
X139631260Y-109356646D01*
X139658228Y-109326695D01*
X147287251Y-109326695D01*
X147287548Y-109331848D01*
X147287548Y-109331851D01*
X147293011Y-109426590D01*
X147300110Y-109549715D01*
X147301247Y-109554761D01*
X147301248Y-109554767D01*
X147313358Y-109608500D01*
X147349222Y-109767639D01*
X147410673Y-109918976D01*
X147422160Y-109947264D01*
X147433266Y-109974616D01*
X147458541Y-110015861D01*
X147542415Y-110152731D01*
X147549987Y-110165088D01*
X147696250Y-110333938D01*
X147700230Y-110337242D01*
X147704981Y-110341187D01*
X147744616Y-110400090D01*
X147746113Y-110471071D01*
X147708997Y-110531593D01*
X147668724Y-110556112D01*
X147553295Y-110599385D01*
X147436739Y-110686739D01*
X147349385Y-110803295D01*
X147298255Y-110939684D01*
X147291500Y-111001866D01*
X147291500Y-112798134D01*
X147298255Y-112860316D01*
X147349385Y-112996705D01*
X147436739Y-113113261D01*
X147553295Y-113200615D01*
X147689684Y-113251745D01*
X147751866Y-113258500D01*
X149548134Y-113258500D01*
X149610316Y-113251745D01*
X149746705Y-113200615D01*
X149863261Y-113113261D01*
X149950615Y-112996705D01*
X150001745Y-112860316D01*
X150008500Y-112798134D01*
X150008500Y-111001866D01*
X150001745Y-110939684D01*
X149950615Y-110803295D01*
X149863261Y-110686739D01*
X149746705Y-110599385D01*
X149718974Y-110588989D01*
X149628203Y-110554960D01*
X149571439Y-110512318D01*
X149546739Y-110445756D01*
X149561947Y-110376408D01*
X149583493Y-110347727D01*
X149662722Y-110268774D01*
X149688096Y-110243489D01*
X149719087Y-110200361D01*
X149815435Y-110066277D01*
X149818453Y-110062077D01*
X149827764Y-110043239D01*
X149915136Y-109866453D01*
X149915137Y-109866451D01*
X149917430Y-109861811D01*
X149954568Y-109739577D01*
X149980865Y-109653023D01*
X149980865Y-109653021D01*
X149982370Y-109648069D01*
X150011529Y-109426590D01*
X150013156Y-109360000D01*
X149994852Y-109137361D01*
X149940431Y-108920702D01*
X149851354Y-108715840D01*
X149759830Y-108574365D01*
X149732822Y-108532617D01*
X149732820Y-108532614D01*
X149730014Y-108528277D01*
X149579670Y-108363051D01*
X149575619Y-108359852D01*
X149575615Y-108359848D01*
X149408414Y-108227800D01*
X149408410Y-108227798D01*
X149404359Y-108224598D01*
X149208789Y-108116638D01*
X149203920Y-108114914D01*
X149203916Y-108114912D01*
X149003087Y-108043795D01*
X149003083Y-108043794D01*
X148998212Y-108042069D01*
X148993119Y-108041162D01*
X148993116Y-108041161D01*
X148783373Y-108003800D01*
X148783367Y-108003799D01*
X148778284Y-108002894D01*
X148704452Y-108001992D01*
X148560081Y-108000228D01*
X148560079Y-108000228D01*
X148554911Y-108000165D01*
X148334091Y-108033955D01*
X148121756Y-108103357D01*
X147923607Y-108206507D01*
X147919474Y-108209610D01*
X147919471Y-108209612D01*
X147752831Y-108334729D01*
X147744965Y-108340635D01*
X147590629Y-108502138D01*
X147464743Y-108686680D01*
X147439133Y-108741852D01*
X147375534Y-108878866D01*
X147370688Y-108889305D01*
X147310989Y-109104570D01*
X147287251Y-109326695D01*
X139658228Y-109326695D01*
X139734621Y-109241852D01*
X139734622Y-109241851D01*
X139739040Y-109236944D01*
X139799432Y-109132342D01*
X139831223Y-109077279D01*
X139831224Y-109077278D01*
X139834527Y-109071556D01*
X139893542Y-108889928D01*
X139913504Y-108700000D01*
X139900606Y-108577279D01*
X139894232Y-108516635D01*
X139894232Y-108516633D01*
X139893542Y-108510072D01*
X139834527Y-108328444D01*
X139739040Y-108163056D01*
X139719013Y-108140813D01*
X139615675Y-108026045D01*
X139615674Y-108026044D01*
X139611253Y-108021134D01*
X139456752Y-107908882D01*
X139450724Y-107906198D01*
X139450722Y-107906197D01*
X139288319Y-107833891D01*
X139288318Y-107833891D01*
X139282288Y-107831206D01*
X139188887Y-107811353D01*
X139101944Y-107792872D01*
X139101939Y-107792872D01*
X139095487Y-107791500D01*
X138904513Y-107791500D01*
X138898061Y-107792872D01*
X138898056Y-107792872D01*
X138811113Y-107811353D01*
X138717712Y-107831206D01*
X138711682Y-107833891D01*
X138711681Y-107833891D01*
X138549278Y-107906197D01*
X138549276Y-107906198D01*
X138543248Y-107908882D01*
X138388747Y-108021134D01*
X138384326Y-108026044D01*
X138384325Y-108026045D01*
X138280988Y-108140813D01*
X138260960Y-108163056D01*
X138165473Y-108328444D01*
X138106458Y-108510072D01*
X138105768Y-108516633D01*
X138105768Y-108516635D01*
X138099394Y-108577279D01*
X138086496Y-108700000D01*
X136810370Y-108700000D01*
X136877522Y-108583689D01*
X136881223Y-108577279D01*
X136881224Y-108577278D01*
X136884527Y-108571556D01*
X136943542Y-108389928D01*
X136945966Y-108366870D01*
X136962814Y-108206565D01*
X136963504Y-108200000D01*
X136947537Y-108048080D01*
X136944232Y-108016635D01*
X136944232Y-108016633D01*
X136943542Y-108010072D01*
X136884527Y-107828444D01*
X136863990Y-107792872D01*
X136809620Y-107698702D01*
X136789040Y-107663056D01*
X136661253Y-107521134D01*
X136562157Y-107449136D01*
X136512094Y-107412763D01*
X136512093Y-107412762D01*
X136506752Y-107408882D01*
X136500724Y-107406198D01*
X136500722Y-107406197D01*
X136338319Y-107333891D01*
X136338318Y-107333891D01*
X136332288Y-107331206D01*
X136238888Y-107311353D01*
X136151944Y-107292872D01*
X136151939Y-107292872D01*
X136145487Y-107291500D01*
X135954513Y-107291500D01*
X135948061Y-107292872D01*
X135948056Y-107292872D01*
X135861112Y-107311353D01*
X135767712Y-107331206D01*
X135761682Y-107333891D01*
X135761681Y-107333891D01*
X135599278Y-107406197D01*
X135599276Y-107406198D01*
X135593248Y-107408882D01*
X135587907Y-107412762D01*
X135587906Y-107412763D01*
X135537843Y-107449136D01*
X135438747Y-107521134D01*
X135310960Y-107663056D01*
X135290380Y-107698702D01*
X135236011Y-107792872D01*
X135215473Y-107828444D01*
X135156458Y-108010072D01*
X135155768Y-108016633D01*
X135155768Y-108016635D01*
X135152463Y-108048080D01*
X135136496Y-108200000D01*
X134308619Y-108200000D01*
X134328667Y-108133807D01*
X134339503Y-107959138D01*
X134331535Y-107912763D01*
X134311106Y-107793875D01*
X134311105Y-107793873D01*
X134309866Y-107786660D01*
X134241346Y-107625627D01*
X134137617Y-107484676D01*
X134132039Y-107479937D01*
X134132036Y-107479934D01*
X134009824Y-107376107D01*
X134009820Y-107376104D01*
X134004245Y-107371368D01*
X133920062Y-107328382D01*
X133854900Y-107295108D01*
X133854898Y-107295107D01*
X133848384Y-107291781D01*
X133841279Y-107290042D01*
X133841275Y-107290041D01*
X133747741Y-107267154D01*
X133678394Y-107250185D01*
X133672794Y-107249838D01*
X133672790Y-107249837D01*
X133669291Y-107249620D01*
X133669282Y-107249620D01*
X133667352Y-107249500D01*
X133541178Y-107249500D01*
X133449631Y-107260173D01*
X133418444Y-107263809D01*
X133418442Y-107263809D01*
X133411172Y-107264657D01*
X133404295Y-107267153D01*
X133404292Y-107267154D01*
X133333441Y-107292872D01*
X133246669Y-107324369D01*
X133100315Y-107420323D01*
X132979960Y-107547372D01*
X132892061Y-107698702D01*
X132841333Y-107866193D01*
X132830497Y-108040862D01*
X115483000Y-108040862D01*
X115483000Y-105475000D01*
X125711496Y-105475000D01*
X125712186Y-105481565D01*
X125730613Y-105656885D01*
X125731458Y-105664928D01*
X125790473Y-105846556D01*
X125885960Y-106011944D01*
X125890378Y-106016851D01*
X125890379Y-106016852D01*
X125984335Y-106121201D01*
X126013747Y-106153866D01*
X126168248Y-106266118D01*
X126174276Y-106268802D01*
X126174278Y-106268803D01*
X126336681Y-106341109D01*
X126342712Y-106343794D01*
X126436112Y-106363647D01*
X126523056Y-106382128D01*
X126523061Y-106382128D01*
X126529513Y-106383500D01*
X126720487Y-106383500D01*
X126726939Y-106382128D01*
X126726944Y-106382128D01*
X126813888Y-106363647D01*
X126907288Y-106343794D01*
X126913319Y-106341109D01*
X127005652Y-106300000D01*
X142186496Y-106300000D01*
X142206458Y-106489928D01*
X142265473Y-106671556D01*
X142360960Y-106836944D01*
X142365378Y-106841851D01*
X142365379Y-106841852D01*
X142484325Y-106973955D01*
X142488747Y-106978866D01*
X142643248Y-107091118D01*
X142649276Y-107093802D01*
X142649278Y-107093803D01*
X142811681Y-107166109D01*
X142817712Y-107168794D01*
X142911113Y-107188647D01*
X142998056Y-107207128D01*
X142998061Y-107207128D01*
X143004513Y-107208500D01*
X143195487Y-107208500D01*
X143201939Y-107207128D01*
X143201944Y-107207128D01*
X143288888Y-107188647D01*
X143382288Y-107168794D01*
X143388319Y-107166109D01*
X143550722Y-107093803D01*
X143550724Y-107093802D01*
X143556752Y-107091118D01*
X143711253Y-106978866D01*
X143715675Y-106973955D01*
X143834621Y-106841852D01*
X143834622Y-106841851D01*
X143839040Y-106836944D01*
X143934527Y-106671556D01*
X143993542Y-106489928D01*
X144013504Y-106300000D01*
X144008534Y-106252709D01*
X143994232Y-106116635D01*
X143994232Y-106116633D01*
X143993542Y-106110072D01*
X143934527Y-105928444D01*
X143928451Y-105917919D01*
X143842341Y-105768774D01*
X143839040Y-105763056D01*
X143832953Y-105756295D01*
X143715675Y-105626045D01*
X143715674Y-105626044D01*
X143711253Y-105621134D01*
X143556752Y-105508882D01*
X143550724Y-105506198D01*
X143550722Y-105506197D01*
X143388319Y-105433891D01*
X143388318Y-105433891D01*
X143382288Y-105431206D01*
X143288888Y-105411353D01*
X143201944Y-105392872D01*
X143201939Y-105392872D01*
X143195487Y-105391500D01*
X143004513Y-105391500D01*
X142998061Y-105392872D01*
X142998056Y-105392872D01*
X142911113Y-105411353D01*
X142817712Y-105431206D01*
X142811682Y-105433891D01*
X142811681Y-105433891D01*
X142649278Y-105506197D01*
X142649276Y-105506198D01*
X142643248Y-105508882D01*
X142488747Y-105621134D01*
X142484326Y-105626044D01*
X142484325Y-105626045D01*
X142367048Y-105756295D01*
X142360960Y-105763056D01*
X142357659Y-105768774D01*
X142271550Y-105917919D01*
X142265473Y-105928444D01*
X142206458Y-106110072D01*
X142205768Y-106116633D01*
X142205768Y-106116635D01*
X142191466Y-106252709D01*
X142186496Y-106300000D01*
X127005652Y-106300000D01*
X127075722Y-106268803D01*
X127075724Y-106268802D01*
X127081752Y-106266118D01*
X127236253Y-106153866D01*
X127265665Y-106121201D01*
X127359621Y-106016852D01*
X127359622Y-106016851D01*
X127364040Y-106011944D01*
X127459527Y-105846556D01*
X127518542Y-105664928D01*
X127519388Y-105656885D01*
X127537814Y-105481565D01*
X127538504Y-105475000D01*
X127518542Y-105285072D01*
X127459527Y-105103444D01*
X127364040Y-104938056D01*
X127236253Y-104796134D01*
X127081752Y-104683882D01*
X127075724Y-104681198D01*
X127075722Y-104681197D01*
X126913319Y-104608891D01*
X126913318Y-104608891D01*
X126907288Y-104606206D01*
X126813887Y-104586353D01*
X126726944Y-104567872D01*
X126726939Y-104567872D01*
X126720487Y-104566500D01*
X126529513Y-104566500D01*
X126523061Y-104567872D01*
X126523056Y-104567872D01*
X126436113Y-104586353D01*
X126342712Y-104606206D01*
X126336682Y-104608891D01*
X126336681Y-104608891D01*
X126174278Y-104681197D01*
X126174276Y-104681198D01*
X126168248Y-104683882D01*
X126013747Y-104796134D01*
X125885960Y-104938056D01*
X125790473Y-105103444D01*
X125731458Y-105285072D01*
X125711496Y-105475000D01*
X115483000Y-105475000D01*
X115483000Y-102792948D01*
X126829304Y-102792948D01*
X126829994Y-102799513D01*
X126837522Y-102871134D01*
X126849266Y-102982876D01*
X126908281Y-103164504D01*
X127003768Y-103329892D01*
X127008186Y-103334799D01*
X127008187Y-103334800D01*
X127127133Y-103466903D01*
X127131555Y-103471814D01*
X127286056Y-103584066D01*
X127292084Y-103586750D01*
X127292086Y-103586751D01*
X127412881Y-103640532D01*
X127460520Y-103661742D01*
X127553920Y-103681595D01*
X127640864Y-103700076D01*
X127640869Y-103700076D01*
X127647321Y-103701448D01*
X127838295Y-103701448D01*
X127844747Y-103700076D01*
X127844752Y-103700076D01*
X127931696Y-103681595D01*
X128025096Y-103661742D01*
X128072735Y-103640532D01*
X128193530Y-103586751D01*
X128193532Y-103586750D01*
X128199560Y-103584066D01*
X128354061Y-103471814D01*
X128358483Y-103466903D01*
X128418723Y-103400000D01*
X139186496Y-103400000D01*
X139187186Y-103406565D01*
X139204375Y-103570105D01*
X139206458Y-103589928D01*
X139265473Y-103771556D01*
X139268776Y-103777278D01*
X139268777Y-103777279D01*
X139288465Y-103811380D01*
X139360960Y-103936944D01*
X139488747Y-104078866D01*
X139643248Y-104191118D01*
X139649276Y-104193802D01*
X139649278Y-104193803D01*
X139797026Y-104259584D01*
X139817712Y-104268794D01*
X139911112Y-104288647D01*
X139998056Y-104307128D01*
X139998061Y-104307128D01*
X140004513Y-104308500D01*
X140195487Y-104308500D01*
X140201939Y-104307128D01*
X140201944Y-104307128D01*
X140288888Y-104288647D01*
X140382288Y-104268794D01*
X140402974Y-104259584D01*
X140550722Y-104193803D01*
X140550724Y-104193802D01*
X140556752Y-104191118D01*
X140711253Y-104078866D01*
X140839040Y-103936944D01*
X140911535Y-103811380D01*
X140931223Y-103777279D01*
X140931224Y-103777278D01*
X140934527Y-103771556D01*
X140993542Y-103589928D01*
X140995626Y-103570105D01*
X140997739Y-103550000D01*
X143386496Y-103550000D01*
X143387186Y-103556565D01*
X143402414Y-103701448D01*
X143406458Y-103739928D01*
X143465473Y-103921556D01*
X143468776Y-103927278D01*
X143468777Y-103927279D01*
X143490488Y-103964884D01*
X143560960Y-104086944D01*
X143565378Y-104091851D01*
X143565379Y-104091852D01*
X143655069Y-104191463D01*
X143688747Y-104228866D01*
X143784020Y-104298086D01*
X143833088Y-104333736D01*
X143843248Y-104341118D01*
X143849276Y-104343802D01*
X143849278Y-104343803D01*
X144011681Y-104416109D01*
X144017712Y-104418794D01*
X144111112Y-104438647D01*
X144198056Y-104457128D01*
X144198061Y-104457128D01*
X144204513Y-104458500D01*
X144395487Y-104458500D01*
X144401939Y-104457128D01*
X144401944Y-104457128D01*
X144488888Y-104438647D01*
X144582288Y-104418794D01*
X144588319Y-104416109D01*
X144750722Y-104343803D01*
X144750724Y-104343802D01*
X144756752Y-104341118D01*
X144762094Y-104337237D01*
X144875352Y-104254950D01*
X144942220Y-104231091D01*
X145011371Y-104247172D01*
X145060852Y-104298086D01*
X145074951Y-104367668D01*
X145073077Y-104381033D01*
X145041772Y-104541336D01*
X145041500Y-104546898D01*
X145041500Y-105202845D01*
X145056548Y-105360565D01*
X145116092Y-105563533D01*
X145118836Y-105568860D01*
X145118836Y-105568861D01*
X145164934Y-105658365D01*
X145212942Y-105751579D01*
X145343604Y-105917919D01*
X145348135Y-105921851D01*
X145348138Y-105921854D01*
X145451958Y-106011944D01*
X145503363Y-106056551D01*
X145508549Y-106059551D01*
X145508553Y-106059554D01*
X145622179Y-106125288D01*
X145686454Y-106162472D01*
X145886271Y-106231860D01*
X145892206Y-106232721D01*
X145892208Y-106232721D01*
X146089664Y-106261351D01*
X146089667Y-106261351D01*
X146095604Y-106262212D01*
X146306899Y-106252432D01*
X146438077Y-106220818D01*
X146506701Y-106204280D01*
X146506703Y-106204279D01*
X146512534Y-106202874D01*
X146517992Y-106200392D01*
X146517996Y-106200391D01*
X146643331Y-106143404D01*
X146705087Y-106115325D01*
X146858888Y-106006226D01*
X146872725Y-105996411D01*
X146872726Y-105996410D01*
X146877611Y-105992945D01*
X147023881Y-105840149D01*
X147138620Y-105662451D01*
X147206584Y-105493810D01*
X147215442Y-105471831D01*
X147215443Y-105471828D01*
X147217686Y-105466262D01*
X147258228Y-105258662D01*
X147258500Y-105253100D01*
X147258500Y-104597153D01*
X147243452Y-104439433D01*
X147183908Y-104236465D01*
X147161936Y-104193803D01*
X147089804Y-104053750D01*
X147089802Y-104053747D01*
X147087058Y-104048419D01*
X146956396Y-103882079D01*
X146951865Y-103878147D01*
X146951862Y-103878144D01*
X146801167Y-103747378D01*
X146796637Y-103743447D01*
X146791451Y-103740447D01*
X146791447Y-103740444D01*
X146618742Y-103640532D01*
X146613546Y-103637526D01*
X146413729Y-103568138D01*
X146407794Y-103567277D01*
X146407792Y-103567277D01*
X146210336Y-103538647D01*
X146210333Y-103538647D01*
X146204396Y-103537786D01*
X145993101Y-103547566D01*
X145861923Y-103579180D01*
X145793299Y-103595718D01*
X145793297Y-103595719D01*
X145787466Y-103597124D01*
X145782008Y-103599606D01*
X145782004Y-103599607D01*
X145666959Y-103651915D01*
X145594913Y-103684673D01*
X145422389Y-103807053D01*
X145418248Y-103811379D01*
X145418242Y-103811384D01*
X145412244Y-103817650D01*
X145350690Y-103853027D01*
X145279780Y-103849510D01*
X145222029Y-103808214D01*
X145195772Y-103742251D01*
X145195915Y-103717351D01*
X145212814Y-103556565D01*
X145213504Y-103550000D01*
X145205695Y-103475697D01*
X145194232Y-103366635D01*
X145194232Y-103366633D01*
X145193542Y-103360072D01*
X145134527Y-103178444D01*
X145039040Y-103013056D01*
X145005957Y-102976313D01*
X144915675Y-102876045D01*
X144915674Y-102876044D01*
X144911253Y-102871134D01*
X144756752Y-102758882D01*
X144750724Y-102756198D01*
X144750722Y-102756197D01*
X144588319Y-102683891D01*
X144588318Y-102683891D01*
X144582288Y-102681206D01*
X144488888Y-102661353D01*
X144401944Y-102642872D01*
X144401939Y-102642872D01*
X144395487Y-102641500D01*
X144204513Y-102641500D01*
X144198061Y-102642872D01*
X144198056Y-102642872D01*
X144111112Y-102661353D01*
X144017712Y-102681206D01*
X144011682Y-102683891D01*
X144011681Y-102683891D01*
X143849278Y-102756197D01*
X143849276Y-102756198D01*
X143843248Y-102758882D01*
X143688747Y-102871134D01*
X143684326Y-102876044D01*
X143684325Y-102876045D01*
X143594044Y-102976313D01*
X143560960Y-103013056D01*
X143465473Y-103178444D01*
X143406458Y-103360072D01*
X143405768Y-103366633D01*
X143405768Y-103366635D01*
X143394305Y-103475697D01*
X143386496Y-103550000D01*
X140997739Y-103550000D01*
X141012814Y-103406565D01*
X141013504Y-103400000D01*
X141006651Y-103334800D01*
X140994232Y-103216635D01*
X140994232Y-103216633D01*
X140993542Y-103210072D01*
X140934527Y-103028444D01*
X140839040Y-102863056D01*
X140770004Y-102786383D01*
X140715675Y-102726045D01*
X140715674Y-102726044D01*
X140711253Y-102721134D01*
X140556752Y-102608882D01*
X140550724Y-102606198D01*
X140550722Y-102606197D01*
X140388319Y-102533891D01*
X140388318Y-102533891D01*
X140382288Y-102531206D01*
X140288887Y-102511353D01*
X140201944Y-102492872D01*
X140201939Y-102492872D01*
X140195487Y-102491500D01*
X140004513Y-102491500D01*
X139998061Y-102492872D01*
X139998056Y-102492872D01*
X139911112Y-102511353D01*
X139817712Y-102531206D01*
X139811682Y-102533891D01*
X139811681Y-102533891D01*
X139649278Y-102606197D01*
X139649276Y-102606198D01*
X139643248Y-102608882D01*
X139488747Y-102721134D01*
X139484326Y-102726044D01*
X139484325Y-102726045D01*
X139429997Y-102786383D01*
X139360960Y-102863056D01*
X139265473Y-103028444D01*
X139206458Y-103210072D01*
X139205768Y-103216633D01*
X139205768Y-103216635D01*
X139193349Y-103334800D01*
X139186496Y-103400000D01*
X128418723Y-103400000D01*
X128477429Y-103334800D01*
X128477430Y-103334799D01*
X128481848Y-103329892D01*
X128577335Y-103164504D01*
X128636350Y-102982876D01*
X128648095Y-102871134D01*
X128655622Y-102799513D01*
X128656312Y-102792948D01*
X128644568Y-102681206D01*
X128637040Y-102609583D01*
X128637040Y-102609581D01*
X128636350Y-102603020D01*
X128614171Y-102534760D01*
X128612143Y-102463794D01*
X128624885Y-102432825D01*
X128712302Y-102281415D01*
X128712303Y-102281414D01*
X128715606Y-102275692D01*
X128774621Y-102094064D01*
X128794583Y-101904136D01*
X128774621Y-101714208D01*
X128715606Y-101532580D01*
X128712302Y-101526857D01*
X128709618Y-101520829D01*
X128711099Y-101520170D01*
X128696283Y-101459117D01*
X128713022Y-101402105D01*
X128756223Y-101327279D01*
X128756224Y-101327278D01*
X128759527Y-101321556D01*
X128818542Y-101139928D01*
X128838504Y-100950000D01*
X128832190Y-100889928D01*
X128819232Y-100766635D01*
X128819232Y-100766633D01*
X128818542Y-100760072D01*
X128799023Y-100700000D01*
X139186496Y-100700000D01*
X139187186Y-100706565D01*
X139193500Y-100766635D01*
X139206458Y-100889928D01*
X139265473Y-101071556D01*
X139360960Y-101236944D01*
X139365378Y-101241851D01*
X139365379Y-101241852D01*
X139448319Y-101333966D01*
X139488747Y-101378866D01*
X139643248Y-101491118D01*
X139649276Y-101493802D01*
X139649278Y-101493803D01*
X139750490Y-101538865D01*
X139817712Y-101568794D01*
X139911112Y-101588647D01*
X139998056Y-101607128D01*
X139998061Y-101607128D01*
X140004513Y-101608500D01*
X140195487Y-101608500D01*
X140201939Y-101607128D01*
X140201944Y-101607128D01*
X140288887Y-101588647D01*
X140382288Y-101568794D01*
X140449510Y-101538865D01*
X140550722Y-101493803D01*
X140550724Y-101493802D01*
X140556752Y-101491118D01*
X140711253Y-101378866D01*
X140751681Y-101333966D01*
X140834621Y-101241852D01*
X140834622Y-101241851D01*
X140839040Y-101236944D01*
X140934527Y-101071556D01*
X140993542Y-100889928D01*
X141006501Y-100766635D01*
X141012814Y-100706565D01*
X141013504Y-100700000D01*
X140993542Y-100510072D01*
X140934527Y-100328444D01*
X140839040Y-100163056D01*
X140799630Y-100119286D01*
X140715675Y-100026045D01*
X140715674Y-100026044D01*
X140711253Y-100021134D01*
X140556752Y-99908882D01*
X140550724Y-99906198D01*
X140550722Y-99906197D01*
X140388319Y-99833891D01*
X140388318Y-99833891D01*
X140382288Y-99831206D01*
X140288888Y-99811353D01*
X140201944Y-99792872D01*
X140201939Y-99792872D01*
X140195487Y-99791500D01*
X140004513Y-99791500D01*
X139998061Y-99792872D01*
X139998056Y-99792872D01*
X139911112Y-99811353D01*
X139817712Y-99831206D01*
X139811682Y-99833891D01*
X139811681Y-99833891D01*
X139649278Y-99906197D01*
X139649276Y-99906198D01*
X139643248Y-99908882D01*
X139488747Y-100021134D01*
X139484326Y-100026044D01*
X139484325Y-100026045D01*
X139400371Y-100119286D01*
X139360960Y-100163056D01*
X139265473Y-100328444D01*
X139206458Y-100510072D01*
X139186496Y-100700000D01*
X128799023Y-100700000D01*
X128759527Y-100578444D01*
X128664040Y-100413056D01*
X128536253Y-100271134D01*
X128411799Y-100180712D01*
X128368446Y-100124492D01*
X128362371Y-100053756D01*
X128392225Y-99994468D01*
X128484621Y-99891852D01*
X128484622Y-99891851D01*
X128489040Y-99886944D01*
X128584527Y-99721556D01*
X128643542Y-99539928D01*
X128663504Y-99350000D01*
X128643542Y-99160072D01*
X128584527Y-98978444D01*
X128489040Y-98813056D01*
X128483196Y-98806565D01*
X128477285Y-98800000D01*
X136286496Y-98800000D01*
X136287186Y-98806565D01*
X136303011Y-98957128D01*
X136306458Y-98989928D01*
X136365473Y-99171556D01*
X136460960Y-99336944D01*
X136465378Y-99341851D01*
X136465379Y-99341852D01*
X136478627Y-99356565D01*
X136588747Y-99478866D01*
X136743248Y-99591118D01*
X136749276Y-99593802D01*
X136749278Y-99593803D01*
X136911681Y-99666109D01*
X136917712Y-99668794D01*
X137011112Y-99688647D01*
X137098056Y-99707128D01*
X137098061Y-99707128D01*
X137104513Y-99708500D01*
X137295487Y-99708500D01*
X137301939Y-99707128D01*
X137301944Y-99707128D01*
X137388888Y-99688647D01*
X137482288Y-99668794D01*
X137488319Y-99666109D01*
X137650722Y-99593803D01*
X137650724Y-99593802D01*
X137656752Y-99591118D01*
X137811253Y-99478866D01*
X137921373Y-99356565D01*
X137934621Y-99341852D01*
X137934622Y-99341851D01*
X137939040Y-99336944D01*
X138034527Y-99171556D01*
X138093542Y-98989928D01*
X138096990Y-98957128D01*
X138112814Y-98806565D01*
X138113504Y-98800000D01*
X138108089Y-98748480D01*
X138094232Y-98616635D01*
X138094232Y-98616633D01*
X138093542Y-98610072D01*
X138034527Y-98428444D01*
X137939040Y-98263056D01*
X137926814Y-98249477D01*
X137815675Y-98126045D01*
X137815674Y-98126044D01*
X137811253Y-98121134D01*
X137688380Y-98031861D01*
X137662094Y-98012763D01*
X137662093Y-98012762D01*
X137656752Y-98008882D01*
X137650724Y-98006198D01*
X137650722Y-98006197D01*
X137488319Y-97933891D01*
X137488318Y-97933891D01*
X137482288Y-97931206D01*
X137385049Y-97910537D01*
X137301944Y-97892872D01*
X137301939Y-97892872D01*
X137295487Y-97891500D01*
X137104513Y-97891500D01*
X137098061Y-97892872D01*
X137098056Y-97892872D01*
X137014951Y-97910537D01*
X136917712Y-97931206D01*
X136911682Y-97933891D01*
X136911681Y-97933891D01*
X136749278Y-98006197D01*
X136749276Y-98006198D01*
X136743248Y-98008882D01*
X136737907Y-98012762D01*
X136737906Y-98012763D01*
X136711620Y-98031861D01*
X136588747Y-98121134D01*
X136584326Y-98126044D01*
X136584325Y-98126045D01*
X136473187Y-98249477D01*
X136460960Y-98263056D01*
X136365473Y-98428444D01*
X136306458Y-98610072D01*
X136305768Y-98616633D01*
X136305768Y-98616635D01*
X136291911Y-98748480D01*
X136286496Y-98800000D01*
X128477285Y-98800000D01*
X128365675Y-98676045D01*
X128365674Y-98676044D01*
X128361253Y-98671134D01*
X128235374Y-98579677D01*
X128212094Y-98562763D01*
X128212093Y-98562762D01*
X128206752Y-98558882D01*
X128200724Y-98556198D01*
X128200722Y-98556197D01*
X128038319Y-98483891D01*
X128038318Y-98483891D01*
X128032288Y-98481206D01*
X127938888Y-98461353D01*
X127851944Y-98442872D01*
X127851939Y-98442872D01*
X127845487Y-98441500D01*
X127654513Y-98441500D01*
X127648061Y-98442872D01*
X127648056Y-98442872D01*
X127561112Y-98461353D01*
X127467712Y-98481206D01*
X127461682Y-98483891D01*
X127461681Y-98483891D01*
X127299278Y-98556197D01*
X127299276Y-98556198D01*
X127293248Y-98558882D01*
X127287907Y-98562762D01*
X127287906Y-98562763D01*
X127264626Y-98579677D01*
X127138747Y-98671134D01*
X127134326Y-98676044D01*
X127134325Y-98676045D01*
X127016805Y-98806565D01*
X127010960Y-98813056D01*
X126915473Y-98978444D01*
X126856458Y-99160072D01*
X126836496Y-99350000D01*
X126856458Y-99539928D01*
X126915473Y-99721556D01*
X127010960Y-99886944D01*
X127015378Y-99891851D01*
X127015379Y-99891852D01*
X127107775Y-99994468D01*
X127138747Y-100028866D01*
X127263201Y-100119288D01*
X127306554Y-100175508D01*
X127312629Y-100246244D01*
X127282775Y-100305532D01*
X127185960Y-100413056D01*
X127090473Y-100578444D01*
X127031458Y-100760072D01*
X127030768Y-100766633D01*
X127030768Y-100766635D01*
X127017810Y-100889928D01*
X127011496Y-100950000D01*
X127031458Y-101139928D01*
X127090473Y-101321556D01*
X127093777Y-101327279D01*
X127096461Y-101333307D01*
X127094980Y-101333966D01*
X127109796Y-101395019D01*
X127093057Y-101452031D01*
X127046552Y-101532580D01*
X126987537Y-101714208D01*
X126967575Y-101904136D01*
X126987537Y-102094064D01*
X126989576Y-102100339D01*
X127009716Y-102162322D01*
X127011744Y-102233290D01*
X126999002Y-102264259D01*
X126908281Y-102421392D01*
X126849266Y-102603020D01*
X126848576Y-102609581D01*
X126848576Y-102609583D01*
X126841048Y-102681206D01*
X126829304Y-102792948D01*
X115483000Y-102792948D01*
X115483000Y-97379311D01*
X130870288Y-97379311D01*
X130870978Y-97385876D01*
X130888890Y-97556295D01*
X130890250Y-97569239D01*
X130949265Y-97750867D01*
X131044752Y-97916255D01*
X131049170Y-97921162D01*
X131049171Y-97921163D01*
X131163448Y-98048080D01*
X131172539Y-98058177D01*
X131327040Y-98170429D01*
X131333068Y-98173113D01*
X131333070Y-98173114D01*
X131483138Y-98239928D01*
X131501504Y-98248105D01*
X131571843Y-98263056D01*
X131681848Y-98286439D01*
X131681853Y-98286439D01*
X131688305Y-98287811D01*
X131879279Y-98287811D01*
X131885731Y-98286439D01*
X131885736Y-98286439D01*
X131995741Y-98263056D01*
X132066080Y-98248105D01*
X132084446Y-98239928D01*
X132234514Y-98173114D01*
X132234516Y-98173113D01*
X132240544Y-98170429D01*
X132395045Y-98058177D01*
X132404136Y-98048080D01*
X132518413Y-97921163D01*
X132518414Y-97921162D01*
X132522832Y-97916255D01*
X132614304Y-97757821D01*
X132638125Y-97735108D01*
X132810803Y-97735108D01*
X132842493Y-97779610D01*
X132843906Y-97851832D01*
X132844751Y-97851984D01*
X132843992Y-97856204D01*
X132844014Y-97857341D01*
X132841333Y-97866193D01*
X132830497Y-98040862D01*
X132831737Y-98048078D01*
X132831737Y-98048080D01*
X132853222Y-98173114D01*
X132860134Y-98213340D01*
X132928654Y-98374373D01*
X133032383Y-98515324D01*
X133037961Y-98520063D01*
X133037964Y-98520066D01*
X133160176Y-98623893D01*
X133160180Y-98623896D01*
X133165755Y-98628632D01*
X133241385Y-98667251D01*
X133262687Y-98678128D01*
X133321616Y-98708219D01*
X133328721Y-98709958D01*
X133328725Y-98709959D01*
X133385924Y-98723955D01*
X133491606Y-98749815D01*
X133497206Y-98750162D01*
X133497210Y-98750163D01*
X133500709Y-98750380D01*
X133500718Y-98750380D01*
X133502648Y-98750500D01*
X133628822Y-98750500D01*
X133720369Y-98739827D01*
X133751556Y-98736191D01*
X133751558Y-98736191D01*
X133758828Y-98735343D01*
X133765705Y-98732847D01*
X133765708Y-98732846D01*
X133916452Y-98678128D01*
X133923331Y-98675631D01*
X134069685Y-98579677D01*
X134190040Y-98452628D01*
X134277939Y-98301298D01*
X134328667Y-98133807D01*
X134339503Y-97959138D01*
X134337681Y-97948531D01*
X134311106Y-97793875D01*
X134311105Y-97793873D01*
X134309866Y-97786660D01*
X134261329Y-97672591D01*
X134244211Y-97632360D01*
X134244211Y-97632359D01*
X134241346Y-97625627D01*
X134137617Y-97484676D01*
X134132039Y-97479937D01*
X134132036Y-97479934D01*
X134009824Y-97376107D01*
X134009820Y-97376104D01*
X134004245Y-97371368D01*
X133920062Y-97328382D01*
X133854900Y-97295108D01*
X133854898Y-97295107D01*
X133848384Y-97291781D01*
X133841279Y-97290042D01*
X133841275Y-97290041D01*
X133747741Y-97267154D01*
X133678394Y-97250185D01*
X133672794Y-97249838D01*
X133672790Y-97249837D01*
X133669291Y-97249620D01*
X133669282Y-97249620D01*
X133667352Y-97249500D01*
X133541178Y-97249500D01*
X133460706Y-97258882D01*
X133418444Y-97263809D01*
X133418442Y-97263809D01*
X133411172Y-97264657D01*
X133404295Y-97267153D01*
X133404292Y-97267154D01*
X133330854Y-97293811D01*
X133246669Y-97324369D01*
X133100315Y-97420323D01*
X132979960Y-97547372D01*
X132976285Y-97553699D01*
X132976282Y-97553703D01*
X132903882Y-97678350D01*
X132852371Y-97727209D01*
X132810803Y-97735108D01*
X132638125Y-97735108D01*
X132665687Y-97708828D01*
X132707482Y-97700773D01*
X132675750Y-97655964D01*
X132672558Y-97585039D01*
X132675090Y-97576147D01*
X132677334Y-97569239D01*
X132678695Y-97556295D01*
X132696606Y-97385876D01*
X132697296Y-97379311D01*
X132694165Y-97349517D01*
X132678024Y-97195946D01*
X132678024Y-97195944D01*
X132677334Y-97189383D01*
X132618319Y-97007755D01*
X132522832Y-96842367D01*
X132395045Y-96700445D01*
X132240544Y-96588193D01*
X132234516Y-96585509D01*
X132234514Y-96585508D01*
X132072111Y-96513202D01*
X132072110Y-96513202D01*
X132066080Y-96510517D01*
X131972679Y-96490664D01*
X131885736Y-96472183D01*
X131885731Y-96472183D01*
X131879279Y-96470811D01*
X131688305Y-96470811D01*
X131681853Y-96472183D01*
X131681848Y-96472183D01*
X131594904Y-96490664D01*
X131501504Y-96510517D01*
X131495474Y-96513202D01*
X131495473Y-96513202D01*
X131333070Y-96585508D01*
X131333068Y-96585509D01*
X131327040Y-96588193D01*
X131172539Y-96700445D01*
X131044752Y-96842367D01*
X130949265Y-97007755D01*
X130890250Y-97189383D01*
X130889560Y-97195944D01*
X130889560Y-97195946D01*
X130873419Y-97349517D01*
X130870288Y-97379311D01*
X115483000Y-97379311D01*
X115483000Y-93100000D01*
X137686496Y-93100000D01*
X137687186Y-93106565D01*
X137696608Y-93196206D01*
X137706458Y-93289928D01*
X137765473Y-93471556D01*
X137860960Y-93636944D01*
X137865378Y-93641851D01*
X137865379Y-93641852D01*
X137970390Y-93758479D01*
X137988747Y-93778866D01*
X138143248Y-93891118D01*
X138149276Y-93893802D01*
X138149278Y-93893803D01*
X138311681Y-93966109D01*
X138317712Y-93968794D01*
X138411113Y-93988647D01*
X138498056Y-94007128D01*
X138498061Y-94007128D01*
X138504513Y-94008500D01*
X138695487Y-94008500D01*
X138701939Y-94007128D01*
X138701944Y-94007128D01*
X138788887Y-93988647D01*
X138882288Y-93968794D01*
X138888319Y-93966109D01*
X139050722Y-93893803D01*
X139050724Y-93893802D01*
X139056752Y-93891118D01*
X139211253Y-93778866D01*
X139259967Y-93724764D01*
X139320411Y-93687526D01*
X139391395Y-93688878D01*
X139427662Y-93707140D01*
X139531729Y-93782749D01*
X139543248Y-93791118D01*
X139549276Y-93793802D01*
X139549278Y-93793803D01*
X139711681Y-93866109D01*
X139717712Y-93868794D01*
X139804479Y-93887237D01*
X139898056Y-93907128D01*
X139898061Y-93907128D01*
X139904513Y-93908500D01*
X140095487Y-93908500D01*
X140101939Y-93907128D01*
X140101944Y-93907128D01*
X140195521Y-93887237D01*
X140282288Y-93868794D01*
X140398752Y-93816941D01*
X140469118Y-93807507D01*
X140501246Y-93816940D01*
X140617712Y-93868794D01*
X140704479Y-93887237D01*
X140798056Y-93907128D01*
X140798061Y-93907128D01*
X140804513Y-93908500D01*
X140995487Y-93908500D01*
X141001939Y-93907128D01*
X141001944Y-93907128D01*
X141095521Y-93887237D01*
X141182288Y-93868794D01*
X141188319Y-93866109D01*
X141350722Y-93793803D01*
X141350724Y-93793802D01*
X141356752Y-93791118D01*
X141373616Y-93778866D01*
X141412157Y-93750864D01*
X141511253Y-93678866D01*
X141639040Y-93536944D01*
X141734527Y-93371556D01*
X141756260Y-93304669D01*
X147892001Y-93304669D01*
X147892371Y-93311490D01*
X147897895Y-93362352D01*
X147901521Y-93377604D01*
X147946676Y-93498054D01*
X147955214Y-93513649D01*
X148031715Y-93615724D01*
X148044276Y-93628285D01*
X148146351Y-93704786D01*
X148161946Y-93713324D01*
X148282394Y-93758478D01*
X148297649Y-93762105D01*
X148348514Y-93767631D01*
X148355328Y-93768000D01*
X148627885Y-93768000D01*
X148643124Y-93763525D01*
X148644329Y-93762135D01*
X148646000Y-93754452D01*
X148646000Y-93749884D01*
X149154000Y-93749884D01*
X149158475Y-93765123D01*
X149159865Y-93766328D01*
X149167548Y-93767999D01*
X149444669Y-93767999D01*
X149451490Y-93767629D01*
X149502352Y-93762105D01*
X149517604Y-93758479D01*
X149638054Y-93713324D01*
X149653649Y-93704786D01*
X149755724Y-93628285D01*
X149768285Y-93615724D01*
X149844786Y-93513649D01*
X149853324Y-93498054D01*
X149898478Y-93377606D01*
X149902105Y-93362351D01*
X149907631Y-93311486D01*
X149908000Y-93304672D01*
X149908000Y-93032115D01*
X149903525Y-93016876D01*
X149902135Y-93015671D01*
X149894452Y-93014000D01*
X149172115Y-93014000D01*
X149156876Y-93018475D01*
X149155671Y-93019865D01*
X149154000Y-93027548D01*
X149154000Y-93749884D01*
X148646000Y-93749884D01*
X148646000Y-93032115D01*
X148641525Y-93016876D01*
X148640135Y-93015671D01*
X148632452Y-93014000D01*
X147910116Y-93014000D01*
X147894877Y-93018475D01*
X147893672Y-93019865D01*
X147892001Y-93027548D01*
X147892001Y-93304669D01*
X141756260Y-93304669D01*
X141793542Y-93189928D01*
X141796046Y-93166109D01*
X141812814Y-93006565D01*
X141813504Y-93000000D01*
X141804052Y-92910072D01*
X141794232Y-92816635D01*
X141794232Y-92816633D01*
X141793542Y-92810072D01*
X141734527Y-92628444D01*
X141714695Y-92594094D01*
X141697958Y-92525099D01*
X141721179Y-92458007D01*
X141730170Y-92446795D01*
X141739040Y-92436944D01*
X141834527Y-92271556D01*
X141893542Y-92089928D01*
X141913504Y-91900000D01*
X141909620Y-91863050D01*
X141894232Y-91716635D01*
X141894232Y-91716633D01*
X141893542Y-91710072D01*
X141834527Y-91528444D01*
X141830691Y-91521799D01*
X141772571Y-91421134D01*
X141739040Y-91363056D01*
X141637245Y-91250000D01*
X142086496Y-91250000D01*
X142087186Y-91256565D01*
X142104483Y-91421134D01*
X142106458Y-91439928D01*
X142165473Y-91621556D01*
X142260960Y-91786944D01*
X142261924Y-91788015D01*
X142285137Y-91853080D01*
X142270160Y-91916114D01*
X142271461Y-91916693D01*
X142268777Y-91922721D01*
X142265473Y-91928444D01*
X142206458Y-92110072D01*
X142205768Y-92116633D01*
X142205768Y-92116635D01*
X142197900Y-92191500D01*
X142186496Y-92300000D01*
X142187186Y-92306565D01*
X142205129Y-92477279D01*
X142206458Y-92489928D01*
X142265473Y-92671556D01*
X142360960Y-92836944D01*
X142365378Y-92841851D01*
X142365379Y-92841852D01*
X142479678Y-92968794D01*
X142488747Y-92978866D01*
X142643248Y-93091118D01*
X142649276Y-93093802D01*
X142649278Y-93093803D01*
X142811681Y-93166109D01*
X142817712Y-93168794D01*
X142886263Y-93183365D01*
X142998056Y-93207128D01*
X142998061Y-93207128D01*
X143004513Y-93208500D01*
X143195487Y-93208500D01*
X143201939Y-93207128D01*
X143201944Y-93207128D01*
X143313737Y-93183365D01*
X143382288Y-93168794D01*
X143388319Y-93166109D01*
X143550722Y-93093803D01*
X143550724Y-93093802D01*
X143556752Y-93091118D01*
X143711253Y-92978866D01*
X143720322Y-92968794D01*
X143834621Y-92841852D01*
X143834622Y-92841851D01*
X143839040Y-92836944D01*
X143934527Y-92671556D01*
X143993542Y-92489928D01*
X143994872Y-92477279D01*
X144012814Y-92306565D01*
X144013504Y-92300000D01*
X144002100Y-92191500D01*
X143994232Y-92116635D01*
X143994232Y-92116633D01*
X143993542Y-92110072D01*
X143934527Y-91928444D01*
X143839040Y-91763056D01*
X143838076Y-91761985D01*
X143814863Y-91696920D01*
X143829840Y-91633886D01*
X143828539Y-91633307D01*
X143831223Y-91627279D01*
X143834527Y-91621556D01*
X143893542Y-91439928D01*
X143895518Y-91421134D01*
X143912814Y-91256565D01*
X143913504Y-91250000D01*
X143911529Y-91231206D01*
X143894232Y-91066635D01*
X143894232Y-91066633D01*
X143893542Y-91060072D01*
X143834527Y-90878444D01*
X143821532Y-90855935D01*
X143791630Y-90804145D01*
X143739040Y-90713056D01*
X143611253Y-90571134D01*
X143456752Y-90458882D01*
X143450724Y-90456198D01*
X143450722Y-90456197D01*
X143288319Y-90383891D01*
X143288318Y-90383891D01*
X143282288Y-90381206D01*
X143188888Y-90361353D01*
X143101944Y-90342872D01*
X143101939Y-90342872D01*
X143095487Y-90341500D01*
X142904513Y-90341500D01*
X142898061Y-90342872D01*
X142898056Y-90342872D01*
X142811113Y-90361353D01*
X142717712Y-90381206D01*
X142711682Y-90383891D01*
X142711681Y-90383891D01*
X142549278Y-90456197D01*
X142549276Y-90456198D01*
X142543248Y-90458882D01*
X142388747Y-90571134D01*
X142260960Y-90713056D01*
X142208370Y-90804145D01*
X142178469Y-90855935D01*
X142165473Y-90878444D01*
X142106458Y-91060072D01*
X142105768Y-91066633D01*
X142105768Y-91066635D01*
X142088471Y-91231206D01*
X142086496Y-91250000D01*
X141637245Y-91250000D01*
X141622740Y-91233891D01*
X141615675Y-91226045D01*
X141615674Y-91226044D01*
X141611253Y-91221134D01*
X141456752Y-91108882D01*
X141450724Y-91106198D01*
X141450722Y-91106197D01*
X141288319Y-91033891D01*
X141288318Y-91033891D01*
X141282288Y-91031206D01*
X141188888Y-91011353D01*
X141101944Y-90992872D01*
X141101939Y-90992872D01*
X141095487Y-90991500D01*
X140904513Y-90991500D01*
X140898061Y-90992872D01*
X140898056Y-90992872D01*
X140811113Y-91011353D01*
X140717712Y-91031206D01*
X140711682Y-91033891D01*
X140711681Y-91033891D01*
X140549278Y-91106197D01*
X140549276Y-91106198D01*
X140543248Y-91108882D01*
X140388747Y-91221134D01*
X140384326Y-91226044D01*
X140384325Y-91226045D01*
X140377261Y-91233891D01*
X140260960Y-91363056D01*
X140227429Y-91421134D01*
X140169310Y-91521799D01*
X140165473Y-91528444D01*
X140106458Y-91710072D01*
X140105768Y-91716633D01*
X140105768Y-91716635D01*
X140090380Y-91863050D01*
X140086496Y-91900000D01*
X140087186Y-91906565D01*
X140091996Y-91952330D01*
X140079224Y-92022168D01*
X140030722Y-92074015D01*
X139966686Y-92091500D01*
X139904513Y-92091500D01*
X139898061Y-92092872D01*
X139898056Y-92092872D01*
X139833638Y-92106565D01*
X139717712Y-92131206D01*
X139711682Y-92133891D01*
X139711681Y-92133891D01*
X139549278Y-92206197D01*
X139549276Y-92206198D01*
X139543248Y-92208882D01*
X139537907Y-92212762D01*
X139537906Y-92212763D01*
X139522631Y-92223861D01*
X139388747Y-92321134D01*
X139340033Y-92375236D01*
X139279589Y-92412474D01*
X139208605Y-92411122D01*
X139172338Y-92392860D01*
X139062094Y-92312763D01*
X139062093Y-92312762D01*
X139056752Y-92308882D01*
X139050724Y-92306198D01*
X139050722Y-92306197D01*
X138888319Y-92233891D01*
X138888318Y-92233891D01*
X138882288Y-92231206D01*
X138788888Y-92211353D01*
X138701944Y-92192872D01*
X138701939Y-92192872D01*
X138695487Y-92191500D01*
X138504513Y-92191500D01*
X138498061Y-92192872D01*
X138498056Y-92192872D01*
X138411112Y-92211353D01*
X138317712Y-92231206D01*
X138311682Y-92233891D01*
X138311681Y-92233891D01*
X138149278Y-92306197D01*
X138149276Y-92306198D01*
X138143248Y-92308882D01*
X138137907Y-92312762D01*
X138137906Y-92312763D01*
X138119631Y-92326041D01*
X137988747Y-92421134D01*
X137984326Y-92426044D01*
X137984325Y-92426045D01*
X137895137Y-92525099D01*
X137860960Y-92563056D01*
X137765473Y-92728444D01*
X137706458Y-92910072D01*
X137705768Y-92916633D01*
X137705768Y-92916635D01*
X137694918Y-93019865D01*
X137686496Y-93100000D01*
X115483000Y-93100000D01*
X115483000Y-92100000D01*
X132136496Y-92100000D01*
X132137186Y-92106565D01*
X132155129Y-92277279D01*
X132156458Y-92289928D01*
X132215473Y-92471556D01*
X132218776Y-92477278D01*
X132218777Y-92477279D01*
X132235359Y-92506000D01*
X132310960Y-92636944D01*
X132438747Y-92778866D01*
X132593248Y-92891118D01*
X132599276Y-92893802D01*
X132599278Y-92893803D01*
X132650560Y-92916635D01*
X132767712Y-92968794D01*
X132833365Y-92982749D01*
X132948056Y-93007128D01*
X132948061Y-93007128D01*
X132954513Y-93008500D01*
X133145487Y-93008500D01*
X133151939Y-93007128D01*
X133151944Y-93007128D01*
X133266635Y-92982749D01*
X133332288Y-92968794D01*
X133449440Y-92916635D01*
X133500722Y-92893803D01*
X133500724Y-92893802D01*
X133506752Y-92891118D01*
X133661253Y-92778866D01*
X133789040Y-92636944D01*
X133864641Y-92506000D01*
X133881223Y-92477279D01*
X133881224Y-92477278D01*
X133884527Y-92471556D01*
X133943542Y-92289928D01*
X133944872Y-92277279D01*
X133962814Y-92106565D01*
X133963504Y-92100000D01*
X133952712Y-91997320D01*
X133944232Y-91916635D01*
X133944232Y-91916633D01*
X133943542Y-91910072D01*
X133884527Y-91728444D01*
X133789040Y-91563056D01*
X133716053Y-91481995D01*
X133665675Y-91426045D01*
X133665674Y-91426044D01*
X133661253Y-91421134D01*
X133506752Y-91308882D01*
X133500724Y-91306198D01*
X133500722Y-91306197D01*
X133338319Y-91233891D01*
X133338318Y-91233891D01*
X133332288Y-91231206D01*
X133238888Y-91211353D01*
X133151944Y-91192872D01*
X133151939Y-91192872D01*
X133145487Y-91191500D01*
X132954513Y-91191500D01*
X132948061Y-91192872D01*
X132948056Y-91192872D01*
X132861112Y-91211353D01*
X132767712Y-91231206D01*
X132761682Y-91233891D01*
X132761681Y-91233891D01*
X132599278Y-91306197D01*
X132599276Y-91306198D01*
X132593248Y-91308882D01*
X132438747Y-91421134D01*
X132434326Y-91426044D01*
X132434325Y-91426045D01*
X132383948Y-91481995D01*
X132310960Y-91563056D01*
X132215473Y-91728444D01*
X132156458Y-91910072D01*
X132155768Y-91916633D01*
X132155768Y-91916635D01*
X132147288Y-91997320D01*
X132136496Y-92100000D01*
X115483000Y-92100000D01*
X115483000Y-90150000D01*
X125036496Y-90150000D01*
X125037186Y-90156565D01*
X125055129Y-90327279D01*
X125056458Y-90339928D01*
X125115473Y-90521556D01*
X125210960Y-90686944D01*
X125215378Y-90691851D01*
X125215379Y-90691852D01*
X125329678Y-90818794D01*
X125338747Y-90828866D01*
X125493248Y-90941118D01*
X125499276Y-90943802D01*
X125499278Y-90943803D01*
X125606408Y-90991500D01*
X125667712Y-91018794D01*
X125761112Y-91038647D01*
X125848056Y-91057128D01*
X125848061Y-91057128D01*
X125854513Y-91058500D01*
X126045487Y-91058500D01*
X126051939Y-91057128D01*
X126051944Y-91057128D01*
X126138888Y-91038647D01*
X126232288Y-91018794D01*
X126293592Y-90991500D01*
X126400722Y-90943803D01*
X126400724Y-90943802D01*
X126406752Y-90941118D01*
X126561253Y-90828866D01*
X126570322Y-90818794D01*
X126684621Y-90691852D01*
X126684622Y-90691851D01*
X126689040Y-90686944D01*
X126784527Y-90521556D01*
X126843542Y-90339928D01*
X126844872Y-90327279D01*
X126862814Y-90156565D01*
X126863504Y-90150000D01*
X130336496Y-90150000D01*
X130337186Y-90156565D01*
X130355129Y-90327279D01*
X130356458Y-90339928D01*
X130415473Y-90521556D01*
X130510960Y-90686944D01*
X130515378Y-90691851D01*
X130515379Y-90691852D01*
X130629678Y-90818794D01*
X130638747Y-90828866D01*
X130793248Y-90941118D01*
X130799276Y-90943802D01*
X130799278Y-90943803D01*
X130906408Y-90991500D01*
X130967712Y-91018794D01*
X131061112Y-91038647D01*
X131148056Y-91057128D01*
X131148061Y-91057128D01*
X131154513Y-91058500D01*
X131345487Y-91058500D01*
X131351939Y-91057128D01*
X131351944Y-91057128D01*
X131438888Y-91038647D01*
X131532288Y-91018794D01*
X131593592Y-90991500D01*
X131700722Y-90943803D01*
X131700724Y-90943802D01*
X131706752Y-90941118D01*
X131861253Y-90828866D01*
X131870322Y-90818794D01*
X131984621Y-90691852D01*
X131984622Y-90691851D01*
X131989040Y-90686944D01*
X132084527Y-90521556D01*
X132143542Y-90339928D01*
X132144872Y-90327279D01*
X132162814Y-90156565D01*
X132163504Y-90150000D01*
X132150818Y-90029301D01*
X132144232Y-89966635D01*
X132144232Y-89966633D01*
X132143542Y-89960072D01*
X132140269Y-89950000D01*
X145836496Y-89950000D01*
X145837186Y-89956565D01*
X145852870Y-90105786D01*
X145856458Y-90139928D01*
X145915473Y-90321556D01*
X146010960Y-90486944D01*
X146138747Y-90628866D01*
X146293248Y-90741118D01*
X146299276Y-90743802D01*
X146299278Y-90743803D01*
X146461681Y-90816109D01*
X146467712Y-90818794D01*
X146533365Y-90832749D01*
X146648056Y-90857128D01*
X146648061Y-90857128D01*
X146654513Y-90858500D01*
X146845487Y-90858500D01*
X146851939Y-90857128D01*
X146851944Y-90857128D01*
X146966635Y-90832749D01*
X147032288Y-90818794D01*
X147038319Y-90816109D01*
X147200722Y-90743803D01*
X147200724Y-90743802D01*
X147206752Y-90741118D01*
X147361253Y-90628866D01*
X147489040Y-90486944D01*
X147584527Y-90321556D01*
X147641843Y-90145158D01*
X147642902Y-90141898D01*
X147682976Y-90083293D01*
X147710870Y-90071505D01*
X147686786Y-90053655D01*
X147661657Y-89987255D01*
X147661981Y-89964495D01*
X147662814Y-89956568D01*
X147662814Y-89956565D01*
X147663504Y-89950000D01*
X147652368Y-89844045D01*
X147644232Y-89766635D01*
X147644232Y-89766633D01*
X147643542Y-89760072D01*
X147584527Y-89578444D01*
X147489040Y-89413056D01*
X147430301Y-89347819D01*
X147365675Y-89276045D01*
X147365674Y-89276044D01*
X147361253Y-89271134D01*
X147206752Y-89158882D01*
X147200724Y-89156198D01*
X147200722Y-89156197D01*
X147038319Y-89083891D01*
X147038318Y-89083891D01*
X147032288Y-89081206D01*
X146938887Y-89061353D01*
X146851944Y-89042872D01*
X146851939Y-89042872D01*
X146845487Y-89041500D01*
X146654513Y-89041500D01*
X146648061Y-89042872D01*
X146648056Y-89042872D01*
X146561113Y-89061353D01*
X146467712Y-89081206D01*
X146461682Y-89083891D01*
X146461681Y-89083891D01*
X146299278Y-89156197D01*
X146299276Y-89156198D01*
X146293248Y-89158882D01*
X146138747Y-89271134D01*
X146134326Y-89276044D01*
X146134325Y-89276045D01*
X146069700Y-89347819D01*
X146010960Y-89413056D01*
X145915473Y-89578444D01*
X145856458Y-89760072D01*
X145855768Y-89766633D01*
X145855768Y-89766635D01*
X145847632Y-89844045D01*
X145836496Y-89950000D01*
X132140269Y-89950000D01*
X132084527Y-89778444D01*
X131989040Y-89613056D01*
X131963715Y-89584929D01*
X131865675Y-89476045D01*
X131865674Y-89476044D01*
X131861253Y-89471134D01*
X131728883Y-89374961D01*
X131712094Y-89362763D01*
X131712093Y-89362762D01*
X131706752Y-89358882D01*
X131700724Y-89356198D01*
X131700722Y-89356197D01*
X131538319Y-89283891D01*
X131538318Y-89283891D01*
X131532288Y-89281206D01*
X131425437Y-89258494D01*
X131351944Y-89242872D01*
X131351939Y-89242872D01*
X131345487Y-89241500D01*
X131154513Y-89241500D01*
X131148061Y-89242872D01*
X131148056Y-89242872D01*
X131074563Y-89258494D01*
X130967712Y-89281206D01*
X130961682Y-89283891D01*
X130961681Y-89283891D01*
X130799278Y-89356197D01*
X130799276Y-89356198D01*
X130793248Y-89358882D01*
X130787907Y-89362762D01*
X130787906Y-89362763D01*
X130771117Y-89374961D01*
X130638747Y-89471134D01*
X130634326Y-89476044D01*
X130634325Y-89476045D01*
X130536286Y-89584929D01*
X130510960Y-89613056D01*
X130415473Y-89778444D01*
X130356458Y-89960072D01*
X130355768Y-89966633D01*
X130355768Y-89966635D01*
X130349182Y-90029301D01*
X130336496Y-90150000D01*
X126863504Y-90150000D01*
X126850818Y-90029301D01*
X126844232Y-89966635D01*
X126844232Y-89966633D01*
X126843542Y-89960072D01*
X126784527Y-89778444D01*
X126689040Y-89613056D01*
X126663715Y-89584929D01*
X126565675Y-89476045D01*
X126565674Y-89476044D01*
X126561253Y-89471134D01*
X126428883Y-89374961D01*
X126412094Y-89362763D01*
X126412093Y-89362762D01*
X126406752Y-89358882D01*
X126400724Y-89356198D01*
X126400722Y-89356197D01*
X126238319Y-89283891D01*
X126238318Y-89283891D01*
X126232288Y-89281206D01*
X126125437Y-89258494D01*
X126051944Y-89242872D01*
X126051939Y-89242872D01*
X126045487Y-89241500D01*
X125854513Y-89241500D01*
X125848061Y-89242872D01*
X125848056Y-89242872D01*
X125774563Y-89258494D01*
X125667712Y-89281206D01*
X125661682Y-89283891D01*
X125661681Y-89283891D01*
X125499278Y-89356197D01*
X125499276Y-89356198D01*
X125493248Y-89358882D01*
X125487907Y-89362762D01*
X125487906Y-89362763D01*
X125471117Y-89374961D01*
X125338747Y-89471134D01*
X125334326Y-89476044D01*
X125334325Y-89476045D01*
X125236286Y-89584929D01*
X125210960Y-89613056D01*
X125115473Y-89778444D01*
X125056458Y-89960072D01*
X125055768Y-89966633D01*
X125055768Y-89966635D01*
X125049182Y-90029301D01*
X125036496Y-90150000D01*
X115483000Y-90150000D01*
X115483000Y-89708702D01*
X115483002Y-89707932D01*
X115483421Y-89639322D01*
X115483476Y-89630348D01*
X115481010Y-89621719D01*
X115481009Y-89621714D01*
X115475361Y-89601952D01*
X115471783Y-89585191D01*
X115468870Y-89564848D01*
X115468867Y-89564838D01*
X115467595Y-89555955D01*
X115456979Y-89532605D01*
X115450536Y-89515093D01*
X115445954Y-89499063D01*
X115443488Y-89490435D01*
X115427726Y-89465452D01*
X115419596Y-89450386D01*
X115407367Y-89423490D01*
X115390626Y-89404061D01*
X115379521Y-89389053D01*
X115370630Y-89374961D01*
X115365840Y-89367369D01*
X115343703Y-89347818D01*
X115331659Y-89335626D01*
X115318239Y-89320051D01*
X115318237Y-89320050D01*
X115312381Y-89313253D01*
X115304853Y-89308374D01*
X115304850Y-89308371D01*
X115290861Y-89299304D01*
X115275987Y-89288014D01*
X115263502Y-89276988D01*
X115256772Y-89271044D01*
X115248646Y-89267229D01*
X115248645Y-89267228D01*
X115242979Y-89264568D01*
X115230034Y-89258490D01*
X115215065Y-89250176D01*
X115190273Y-89234107D01*
X115165709Y-89226761D01*
X115148264Y-89220099D01*
X115125052Y-89209201D01*
X115095870Y-89204657D01*
X115079151Y-89200874D01*
X115059464Y-89194986D01*
X115059461Y-89194985D01*
X115050859Y-89192413D01*
X115041884Y-89192358D01*
X115041883Y-89192358D01*
X115035190Y-89192317D01*
X115016444Y-89192203D01*
X115015672Y-89192170D01*
X115014577Y-89192000D01*
X114983702Y-89192000D01*
X114982932Y-89191998D01*
X114909284Y-89191548D01*
X114909283Y-89191548D01*
X114905348Y-89191524D01*
X114904004Y-89191908D01*
X114902659Y-89192000D01*
X109609000Y-89192000D01*
X109540879Y-89171998D01*
X109494386Y-89118342D01*
X109483000Y-89066000D01*
X109483000Y-87300000D01*
X115436496Y-87300000D01*
X115437186Y-87306565D01*
X115454934Y-87475425D01*
X115456458Y-87489928D01*
X115515473Y-87671556D01*
X115610960Y-87836944D01*
X115615378Y-87841851D01*
X115615379Y-87841852D01*
X115658667Y-87889928D01*
X115738747Y-87978866D01*
X115832694Y-88047123D01*
X115848402Y-88058535D01*
X115893248Y-88091118D01*
X115899276Y-88093802D01*
X115899278Y-88093803D01*
X116061681Y-88166109D01*
X116067712Y-88168794D01*
X116161112Y-88188647D01*
X116248056Y-88207128D01*
X116248061Y-88207128D01*
X116254513Y-88208500D01*
X116445487Y-88208500D01*
X116451939Y-88207128D01*
X116451944Y-88207128D01*
X116538888Y-88188647D01*
X116632288Y-88168794D01*
X116638319Y-88166109D01*
X116800722Y-88093803D01*
X116800724Y-88093802D01*
X116806752Y-88091118D01*
X116851599Y-88058535D01*
X116867306Y-88047123D01*
X116961253Y-87978866D01*
X117041333Y-87889928D01*
X117084621Y-87841852D01*
X117084622Y-87841851D01*
X117089040Y-87836944D01*
X117168105Y-87700000D01*
X123186496Y-87700000D01*
X123206458Y-87889928D01*
X123265473Y-88071556D01*
X123360960Y-88236944D01*
X123365378Y-88241851D01*
X123365379Y-88241852D01*
X123410399Y-88291852D01*
X123488747Y-88378866D01*
X123643248Y-88491118D01*
X123649276Y-88493802D01*
X123649278Y-88493803D01*
X123811681Y-88566109D01*
X123817712Y-88568794D01*
X123911112Y-88588647D01*
X123998056Y-88607128D01*
X123998061Y-88607128D01*
X124004513Y-88608500D01*
X124195487Y-88608500D01*
X124201939Y-88607128D01*
X124201944Y-88607128D01*
X124288888Y-88588647D01*
X124382288Y-88568794D01*
X124388319Y-88566109D01*
X124550722Y-88493803D01*
X124550724Y-88493802D01*
X124556752Y-88491118D01*
X124711253Y-88378866D01*
X124789601Y-88291852D01*
X124834621Y-88241852D01*
X124834622Y-88241851D01*
X124839040Y-88236944D01*
X124934527Y-88071556D01*
X124993542Y-87889928D01*
X125008249Y-87750000D01*
X131111496Y-87750000D01*
X131112186Y-87756565D01*
X131128141Y-87908365D01*
X131131458Y-87939928D01*
X131190473Y-88121556D01*
X131285960Y-88286944D01*
X131290378Y-88291851D01*
X131290379Y-88291852D01*
X131321125Y-88325999D01*
X131413747Y-88428866D01*
X131499429Y-88491118D01*
X131533839Y-88516118D01*
X131568248Y-88541118D01*
X131574276Y-88543802D01*
X131574278Y-88543803D01*
X131719591Y-88608500D01*
X131742712Y-88618794D01*
X131836113Y-88638647D01*
X131923056Y-88657128D01*
X131923061Y-88657128D01*
X131929513Y-88658500D01*
X132120487Y-88658500D01*
X132126939Y-88657128D01*
X132126944Y-88657128D01*
X132213888Y-88638647D01*
X132307288Y-88618794D01*
X132330409Y-88608500D01*
X132475722Y-88543803D01*
X132475724Y-88543802D01*
X132481752Y-88541118D01*
X132516162Y-88516118D01*
X132550571Y-88491118D01*
X132636253Y-88428866D01*
X132728875Y-88325999D01*
X132755119Y-88296852D01*
X132815565Y-88259612D01*
X132886549Y-88260964D01*
X132942390Y-88296850D01*
X133038747Y-88403866D01*
X133078501Y-88432749D01*
X133158839Y-88491118D01*
X133193248Y-88516118D01*
X133199276Y-88518802D01*
X133199278Y-88518803D01*
X133313665Y-88569731D01*
X133367712Y-88593794D01*
X133461113Y-88613647D01*
X133548056Y-88632128D01*
X133548061Y-88632128D01*
X133554513Y-88633500D01*
X133745487Y-88633500D01*
X133751939Y-88632128D01*
X133751944Y-88632128D01*
X133838887Y-88613647D01*
X133932288Y-88593794D01*
X133986335Y-88569731D01*
X134100722Y-88518803D01*
X134100724Y-88518802D01*
X134106752Y-88516118D01*
X134141162Y-88491118D01*
X134221499Y-88432749D01*
X134261253Y-88403866D01*
X134331366Y-88325998D01*
X134391810Y-88288760D01*
X134462794Y-88290112D01*
X134518634Y-88325998D01*
X134588747Y-88403866D01*
X134628501Y-88432749D01*
X134708839Y-88491118D01*
X134743248Y-88516118D01*
X134749276Y-88518802D01*
X134749278Y-88518803D01*
X134863665Y-88569731D01*
X134917712Y-88593794D01*
X135011113Y-88613647D01*
X135098056Y-88632128D01*
X135098061Y-88632128D01*
X135104513Y-88633500D01*
X135295487Y-88633500D01*
X135301939Y-88632128D01*
X135301944Y-88632128D01*
X135388887Y-88613647D01*
X135482288Y-88593794D01*
X135536335Y-88569731D01*
X135650722Y-88518803D01*
X135650724Y-88518802D01*
X135656752Y-88516118D01*
X135691162Y-88491118D01*
X135771499Y-88432749D01*
X135811253Y-88403866D01*
X135833763Y-88378866D01*
X135934621Y-88266852D01*
X135934622Y-88266851D01*
X135939040Y-88261944D01*
X136034527Y-88096556D01*
X136093542Y-87914928D01*
X136096860Y-87883365D01*
X136112814Y-87731565D01*
X136113504Y-87725000D01*
X136106644Y-87659726D01*
X136094232Y-87541635D01*
X136094232Y-87541633D01*
X136093542Y-87535072D01*
X136034527Y-87353444D01*
X135939040Y-87188056D01*
X135921679Y-87168774D01*
X135815675Y-87051045D01*
X135815671Y-87051041D01*
X135811253Y-87046134D01*
X135691263Y-86958956D01*
X135662094Y-86937763D01*
X135662093Y-86937762D01*
X135656752Y-86933882D01*
X135650724Y-86931198D01*
X135650722Y-86931197D01*
X135488319Y-86858891D01*
X135488318Y-86858891D01*
X135482288Y-86856206D01*
X135377305Y-86833891D01*
X135301944Y-86817872D01*
X135301939Y-86817872D01*
X135295487Y-86816500D01*
X135104513Y-86816500D01*
X135098061Y-86817872D01*
X135098056Y-86817872D01*
X135022695Y-86833891D01*
X134917712Y-86856206D01*
X134911682Y-86858891D01*
X134911681Y-86858891D01*
X134749278Y-86931197D01*
X134749276Y-86931198D01*
X134743248Y-86933882D01*
X134737907Y-86937762D01*
X134737906Y-86937763D01*
X134708737Y-86958956D01*
X134588747Y-87046134D01*
X134518634Y-87124002D01*
X134458190Y-87161240D01*
X134387206Y-87159888D01*
X134331366Y-87124002D01*
X134261253Y-87046134D01*
X134141263Y-86958956D01*
X134112094Y-86937763D01*
X134112093Y-86937762D01*
X134106752Y-86933882D01*
X134100724Y-86931198D01*
X134100722Y-86931197D01*
X133938319Y-86858891D01*
X133938318Y-86858891D01*
X133932288Y-86856206D01*
X133827305Y-86833891D01*
X133751944Y-86817872D01*
X133751939Y-86817872D01*
X133745487Y-86816500D01*
X133554513Y-86816500D01*
X133548061Y-86817872D01*
X133548056Y-86817872D01*
X133472695Y-86833891D01*
X133367712Y-86856206D01*
X133361682Y-86858891D01*
X133361681Y-86858891D01*
X133199278Y-86931197D01*
X133199276Y-86931198D01*
X133193248Y-86933882D01*
X133187907Y-86937762D01*
X133187906Y-86937763D01*
X133158737Y-86958956D01*
X133038747Y-87046134D01*
X133034329Y-87051041D01*
X133034325Y-87051045D01*
X132919881Y-87178148D01*
X132859435Y-87215388D01*
X132788451Y-87214036D01*
X132732610Y-87178150D01*
X132636253Y-87071134D01*
X132530287Y-86994145D01*
X132487094Y-86962763D01*
X132487093Y-86962762D01*
X132481752Y-86958882D01*
X132475724Y-86956198D01*
X132475722Y-86956197D01*
X132313319Y-86883891D01*
X132313318Y-86883891D01*
X132307288Y-86881206D01*
X132202305Y-86858891D01*
X132126944Y-86842872D01*
X132126939Y-86842872D01*
X132120487Y-86841500D01*
X131929513Y-86841500D01*
X131923061Y-86842872D01*
X131923056Y-86842872D01*
X131847695Y-86858891D01*
X131742712Y-86881206D01*
X131736682Y-86883891D01*
X131736681Y-86883891D01*
X131574278Y-86956197D01*
X131574276Y-86956198D01*
X131568248Y-86958882D01*
X131562907Y-86962762D01*
X131562906Y-86962763D01*
X131519713Y-86994145D01*
X131413747Y-87071134D01*
X131409329Y-87076041D01*
X131409325Y-87076045D01*
X131303322Y-87193774D01*
X131285960Y-87213056D01*
X131190473Y-87378444D01*
X131131458Y-87560072D01*
X131130768Y-87566633D01*
X131130768Y-87566635D01*
X131119222Y-87676495D01*
X131111496Y-87750000D01*
X125008249Y-87750000D01*
X125013504Y-87700000D01*
X124998137Y-87553794D01*
X124994232Y-87516635D01*
X124994232Y-87516633D01*
X124993542Y-87510072D01*
X124934527Y-87328444D01*
X124839040Y-87163056D01*
X124804457Y-87124647D01*
X124715675Y-87026045D01*
X124715674Y-87026044D01*
X124711253Y-87021134D01*
X124592327Y-86934729D01*
X124562094Y-86912763D01*
X124562093Y-86912762D01*
X124556752Y-86908882D01*
X124550724Y-86906198D01*
X124550722Y-86906197D01*
X124388319Y-86833891D01*
X124388318Y-86833891D01*
X124382288Y-86831206D01*
X124288887Y-86811353D01*
X124201944Y-86792872D01*
X124201939Y-86792872D01*
X124195487Y-86791500D01*
X124004513Y-86791500D01*
X123998061Y-86792872D01*
X123998056Y-86792872D01*
X123911113Y-86811353D01*
X123817712Y-86831206D01*
X123811682Y-86833891D01*
X123811681Y-86833891D01*
X123649278Y-86906197D01*
X123649276Y-86906198D01*
X123643248Y-86908882D01*
X123637907Y-86912762D01*
X123637906Y-86912763D01*
X123607673Y-86934729D01*
X123488747Y-87021134D01*
X123484326Y-87026044D01*
X123484325Y-87026045D01*
X123395544Y-87124647D01*
X123360960Y-87163056D01*
X123265473Y-87328444D01*
X123206458Y-87510072D01*
X123205768Y-87516633D01*
X123205768Y-87516635D01*
X123201863Y-87553794D01*
X123186496Y-87700000D01*
X117168105Y-87700000D01*
X117184527Y-87671556D01*
X117243542Y-87489928D01*
X117245067Y-87475425D01*
X117262814Y-87306565D01*
X117263504Y-87300000D01*
X117243542Y-87110072D01*
X117184527Y-86928444D01*
X117089040Y-86763056D01*
X116973300Y-86634513D01*
X116965675Y-86626045D01*
X116965674Y-86626044D01*
X116961253Y-86621134D01*
X116806752Y-86508882D01*
X116800724Y-86506198D01*
X116800722Y-86506197D01*
X116638319Y-86433891D01*
X116638318Y-86433891D01*
X116632288Y-86431206D01*
X116516033Y-86406495D01*
X116451944Y-86392872D01*
X116451939Y-86392872D01*
X116445487Y-86391500D01*
X116254513Y-86391500D01*
X116248061Y-86392872D01*
X116248056Y-86392872D01*
X116183967Y-86406495D01*
X116067712Y-86431206D01*
X116061682Y-86433891D01*
X116061681Y-86433891D01*
X115899278Y-86506197D01*
X115899276Y-86506198D01*
X115893248Y-86508882D01*
X115738747Y-86621134D01*
X115734326Y-86626044D01*
X115734325Y-86626045D01*
X115726701Y-86634513D01*
X115610960Y-86763056D01*
X115515473Y-86928444D01*
X115456458Y-87110072D01*
X115436496Y-87300000D01*
X109483000Y-87300000D01*
X109483000Y-85334000D01*
X109503002Y-85265879D01*
X109556658Y-85219386D01*
X109609000Y-85208000D01*
X148537594Y-85208000D01*
X148605715Y-85228002D01*
G37*
%TD.AperFunction*%
%TD*%
M02*
