%TF.GenerationSoftware,KiCad,Pcbnew,(6.0.0)*%
%TF.CreationDate,2022-02-02T23:07:07+08:00*%
%TF.ProjectId,screen,73637265-656e-42e6-9b69-6361645f7063,rev?*%
%TF.SameCoordinates,Original*%
%TF.FileFunction,Legend,Bot*%
%TF.FilePolarity,Positive*%
%FSLAX46Y46*%
G04 Gerber Fmt 4.6, Leading zero omitted, Abs format (unit mm)*
G04 Created by KiCad (PCBNEW (6.0.0)) date 2022-02-02 23:07:07*
%MOMM*%
%LPD*%
G01*
G04 APERTURE LIST*
%ADD10C,0.150000*%
%ADD11C,0.100000*%
%ADD12C,0.120000*%
G04 APERTURE END LIST*
D10*
X142635000Y-110550000D02*
X144845000Y-110550000D01*
X144845000Y-110550000D02*
X144845000Y-91250000D01*
X144845000Y-91250000D02*
X142635000Y-91250000D01*
X142635000Y-91250000D02*
X142635000Y-110550000D01*
D11*
X144006904Y-92042857D02*
X143625952Y-91876190D01*
X144006904Y-91757142D02*
X143206904Y-91757142D01*
X143206904Y-91947619D01*
X143245000Y-91995238D01*
X143283095Y-92019047D01*
X143359285Y-92042857D01*
X143473571Y-92042857D01*
X143549761Y-92019047D01*
X143587857Y-91995238D01*
X143625952Y-91947619D01*
X143625952Y-91757142D01*
X143968809Y-92447619D02*
X144006904Y-92400000D01*
X144006904Y-92304761D01*
X143968809Y-92257142D01*
X143892619Y-92233333D01*
X143587857Y-92233333D01*
X143511666Y-92257142D01*
X143473571Y-92304761D01*
X143473571Y-92400000D01*
X143511666Y-92447619D01*
X143587857Y-92471428D01*
X143664047Y-92471428D01*
X143740238Y-92233333D01*
X144006904Y-92757142D02*
X143968809Y-92709523D01*
X143892619Y-92685714D01*
X143206904Y-92685714D01*
X143968809Y-93138095D02*
X144006904Y-93090476D01*
X144006904Y-92995238D01*
X143968809Y-92947619D01*
X143892619Y-92923809D01*
X143587857Y-92923809D01*
X143511666Y-92947619D01*
X143473571Y-92995238D01*
X143473571Y-93090476D01*
X143511666Y-93138095D01*
X143587857Y-93161904D01*
X143664047Y-93161904D01*
X143740238Y-92923809D01*
X144006904Y-93590476D02*
X143587857Y-93590476D01*
X143511666Y-93566666D01*
X143473571Y-93519047D01*
X143473571Y-93423809D01*
X143511666Y-93376190D01*
X143968809Y-93590476D02*
X144006904Y-93542857D01*
X144006904Y-93423809D01*
X143968809Y-93376190D01*
X143892619Y-93352380D01*
X143816428Y-93352380D01*
X143740238Y-93376190D01*
X143702142Y-93423809D01*
X143702142Y-93542857D01*
X143664047Y-93590476D01*
X143968809Y-93804761D02*
X144006904Y-93852380D01*
X144006904Y-93947619D01*
X143968809Y-93995238D01*
X143892619Y-94019047D01*
X143854523Y-94019047D01*
X143778333Y-93995238D01*
X143740238Y-93947619D01*
X143740238Y-93876190D01*
X143702142Y-93828571D01*
X143625952Y-93804761D01*
X143587857Y-93804761D01*
X143511666Y-93828571D01*
X143473571Y-93876190D01*
X143473571Y-93947619D01*
X143511666Y-93995238D01*
X143968809Y-94423809D02*
X144006904Y-94376190D01*
X144006904Y-94280952D01*
X143968809Y-94233333D01*
X143892619Y-94209523D01*
X143587857Y-94209523D01*
X143511666Y-94233333D01*
X143473571Y-94280952D01*
X143473571Y-94376190D01*
X143511666Y-94423809D01*
X143587857Y-94447619D01*
X143664047Y-94447619D01*
X143740238Y-94209523D01*
X144006904Y-95042857D02*
X143473571Y-95042857D01*
X143549761Y-95042857D02*
X143511666Y-95066666D01*
X143473571Y-95114285D01*
X143473571Y-95185714D01*
X143511666Y-95233333D01*
X143587857Y-95257142D01*
X144006904Y-95257142D01*
X143587857Y-95257142D02*
X143511666Y-95280952D01*
X143473571Y-95328571D01*
X143473571Y-95400000D01*
X143511666Y-95447619D01*
X143587857Y-95471428D01*
X144006904Y-95471428D01*
X143473571Y-95661904D02*
X144006904Y-95780952D01*
X143473571Y-95900000D02*
X144006904Y-95780952D01*
X144197380Y-95733333D01*
X144235476Y-95709523D01*
X144273571Y-95661904D01*
X143473571Y-96471428D02*
X144273571Y-96471428D01*
X143511666Y-96471428D02*
X143473571Y-96519047D01*
X143473571Y-96614285D01*
X143511666Y-96661904D01*
X143549761Y-96685714D01*
X143625952Y-96709523D01*
X143854523Y-96709523D01*
X143930714Y-96685714D01*
X143968809Y-96661904D01*
X144006904Y-96614285D01*
X144006904Y-96519047D01*
X143968809Y-96471428D01*
X143968809Y-97114285D02*
X144006904Y-97066666D01*
X144006904Y-96971428D01*
X143968809Y-96923809D01*
X143892619Y-96900000D01*
X143587857Y-96900000D01*
X143511666Y-96923809D01*
X143473571Y-96971428D01*
X143473571Y-97066666D01*
X143511666Y-97114285D01*
X143587857Y-97138095D01*
X143664047Y-97138095D01*
X143740238Y-96900000D01*
X144006904Y-97352380D02*
X143473571Y-97352380D01*
X143625952Y-97352380D02*
X143549761Y-97376190D01*
X143511666Y-97400000D01*
X143473571Y-97447619D01*
X143473571Y-97495238D01*
X143968809Y-97638095D02*
X144006904Y-97685714D01*
X144006904Y-97780952D01*
X143968809Y-97828571D01*
X143892619Y-97852380D01*
X143854523Y-97852380D01*
X143778333Y-97828571D01*
X143740238Y-97780952D01*
X143740238Y-97709523D01*
X143702142Y-97661904D01*
X143625952Y-97638095D01*
X143587857Y-97638095D01*
X143511666Y-97661904D01*
X143473571Y-97709523D01*
X143473571Y-97780952D01*
X143511666Y-97828571D01*
X144006904Y-98138095D02*
X143968809Y-98090476D01*
X143930714Y-98066666D01*
X143854523Y-98042857D01*
X143625952Y-98042857D01*
X143549761Y-98066666D01*
X143511666Y-98090476D01*
X143473571Y-98138095D01*
X143473571Y-98209523D01*
X143511666Y-98257142D01*
X143549761Y-98280952D01*
X143625952Y-98304761D01*
X143854523Y-98304761D01*
X143930714Y-98280952D01*
X143968809Y-98257142D01*
X144006904Y-98209523D01*
X144006904Y-98138095D01*
X143473571Y-98519047D02*
X144006904Y-98519047D01*
X143549761Y-98519047D02*
X143511666Y-98542857D01*
X143473571Y-98590476D01*
X143473571Y-98661904D01*
X143511666Y-98709523D01*
X143587857Y-98733333D01*
X144006904Y-98733333D01*
X144006904Y-99185714D02*
X143587857Y-99185714D01*
X143511666Y-99161904D01*
X143473571Y-99114285D01*
X143473571Y-99019047D01*
X143511666Y-98971428D01*
X143968809Y-99185714D02*
X144006904Y-99138095D01*
X144006904Y-99019047D01*
X143968809Y-98971428D01*
X143892619Y-98947619D01*
X143816428Y-98947619D01*
X143740238Y-98971428D01*
X143702142Y-99019047D01*
X143702142Y-99138095D01*
X143664047Y-99185714D01*
X144006904Y-99495238D02*
X143968809Y-99447619D01*
X143892619Y-99423809D01*
X143206904Y-99423809D01*
X144006904Y-99685714D02*
X143473571Y-99685714D01*
X143206904Y-99685714D02*
X143245000Y-99661904D01*
X143283095Y-99685714D01*
X143245000Y-99709523D01*
X143206904Y-99685714D01*
X143283095Y-99685714D01*
X143473571Y-99852380D02*
X143473571Y-100042857D01*
X143206904Y-99923809D02*
X143892619Y-99923809D01*
X143968809Y-99947619D01*
X144006904Y-99995238D01*
X144006904Y-100042857D01*
X143473571Y-100161904D02*
X144006904Y-100280952D01*
X143473571Y-100400000D02*
X144006904Y-100280952D01*
X144197380Y-100233333D01*
X144235476Y-100209523D01*
X144273571Y-100161904D01*
X144006904Y-101185714D02*
X143587857Y-101185714D01*
X143511666Y-101161904D01*
X143473571Y-101114285D01*
X143473571Y-101019047D01*
X143511666Y-100971428D01*
X143968809Y-101185714D02*
X144006904Y-101138095D01*
X144006904Y-101019047D01*
X143968809Y-100971428D01*
X143892619Y-100947619D01*
X143816428Y-100947619D01*
X143740238Y-100971428D01*
X143702142Y-101019047D01*
X143702142Y-101138095D01*
X143664047Y-101185714D01*
X143473571Y-101423809D02*
X144006904Y-101423809D01*
X143549761Y-101423809D02*
X143511666Y-101447619D01*
X143473571Y-101495238D01*
X143473571Y-101566666D01*
X143511666Y-101614285D01*
X143587857Y-101638095D01*
X144006904Y-101638095D01*
X144006904Y-102090476D02*
X143206904Y-102090476D01*
X143968809Y-102090476D02*
X144006904Y-102042857D01*
X144006904Y-101947619D01*
X143968809Y-101900000D01*
X143930714Y-101876190D01*
X143854523Y-101852380D01*
X143625952Y-101852380D01*
X143549761Y-101876190D01*
X143511666Y-101900000D01*
X143473571Y-101947619D01*
X143473571Y-102042857D01*
X143511666Y-102090476D01*
X143473571Y-102709523D02*
X144273571Y-102709523D01*
X143511666Y-102709523D02*
X143473571Y-102757142D01*
X143473571Y-102852380D01*
X143511666Y-102900000D01*
X143549761Y-102923809D01*
X143625952Y-102947619D01*
X143854523Y-102947619D01*
X143930714Y-102923809D01*
X143968809Y-102900000D01*
X144006904Y-102852380D01*
X144006904Y-102757142D01*
X143968809Y-102709523D01*
X143473571Y-103376190D02*
X144006904Y-103376190D01*
X143473571Y-103161904D02*
X143892619Y-103161904D01*
X143968809Y-103185714D01*
X144006904Y-103233333D01*
X144006904Y-103304761D01*
X143968809Y-103352380D01*
X143930714Y-103376190D01*
X144006904Y-103614285D02*
X143473571Y-103614285D01*
X143625952Y-103614285D02*
X143549761Y-103638095D01*
X143511666Y-103661904D01*
X143473571Y-103709523D01*
X143473571Y-103757142D01*
X143968809Y-103900000D02*
X144006904Y-103947619D01*
X144006904Y-104042857D01*
X143968809Y-104090476D01*
X143892619Y-104114285D01*
X143854523Y-104114285D01*
X143778333Y-104090476D01*
X143740238Y-104042857D01*
X143740238Y-103971428D01*
X143702142Y-103923809D01*
X143625952Y-103900000D01*
X143587857Y-103900000D01*
X143511666Y-103923809D01*
X143473571Y-103971428D01*
X143473571Y-104042857D01*
X143511666Y-104090476D01*
X143473571Y-104542857D02*
X144006904Y-104542857D01*
X143473571Y-104328571D02*
X143892619Y-104328571D01*
X143968809Y-104352380D01*
X144006904Y-104400000D01*
X144006904Y-104471428D01*
X143968809Y-104519047D01*
X143930714Y-104542857D01*
X144006904Y-104780952D02*
X143473571Y-104780952D01*
X143206904Y-104780952D02*
X143245000Y-104757142D01*
X143283095Y-104780952D01*
X143245000Y-104804761D01*
X143206904Y-104780952D01*
X143283095Y-104780952D01*
X143473571Y-105019047D02*
X144006904Y-105019047D01*
X143549761Y-105019047D02*
X143511666Y-105042857D01*
X143473571Y-105090476D01*
X143473571Y-105161904D01*
X143511666Y-105209523D01*
X143587857Y-105233333D01*
X144006904Y-105233333D01*
X143473571Y-105685714D02*
X144121190Y-105685714D01*
X144197380Y-105661904D01*
X144235476Y-105638095D01*
X144273571Y-105590476D01*
X144273571Y-105519047D01*
X144235476Y-105471428D01*
X143968809Y-105685714D02*
X144006904Y-105638095D01*
X144006904Y-105542857D01*
X143968809Y-105495238D01*
X143930714Y-105471428D01*
X143854523Y-105447619D01*
X143625952Y-105447619D01*
X143549761Y-105471428D01*
X143511666Y-105495238D01*
X143473571Y-105542857D01*
X143473571Y-105638095D01*
X143511666Y-105685714D01*
X144006904Y-106304761D02*
X143473571Y-106304761D01*
X143549761Y-106304761D02*
X143511666Y-106328571D01*
X143473571Y-106376190D01*
X143473571Y-106447619D01*
X143511666Y-106495238D01*
X143587857Y-106519047D01*
X144006904Y-106519047D01*
X143587857Y-106519047D02*
X143511666Y-106542857D01*
X143473571Y-106590476D01*
X143473571Y-106661904D01*
X143511666Y-106709523D01*
X143587857Y-106733333D01*
X144006904Y-106733333D01*
X143473571Y-106923809D02*
X144006904Y-107042857D01*
X143473571Y-107161904D02*
X144006904Y-107042857D01*
X144197380Y-106995238D01*
X144235476Y-106971428D01*
X144273571Y-106923809D01*
X144006904Y-107947619D02*
X143206904Y-107947619D01*
X143968809Y-107947619D02*
X144006904Y-107900000D01*
X144006904Y-107804761D01*
X143968809Y-107757142D01*
X143930714Y-107733333D01*
X143854523Y-107709523D01*
X143625952Y-107709523D01*
X143549761Y-107733333D01*
X143511666Y-107757142D01*
X143473571Y-107804761D01*
X143473571Y-107900000D01*
X143511666Y-107947619D01*
X144006904Y-108185714D02*
X143473571Y-108185714D01*
X143625952Y-108185714D02*
X143549761Y-108209523D01*
X143511666Y-108233333D01*
X143473571Y-108280952D01*
X143473571Y-108328571D01*
X143968809Y-108685714D02*
X144006904Y-108638095D01*
X144006904Y-108542857D01*
X143968809Y-108495238D01*
X143892619Y-108471428D01*
X143587857Y-108471428D01*
X143511666Y-108495238D01*
X143473571Y-108542857D01*
X143473571Y-108638095D01*
X143511666Y-108685714D01*
X143587857Y-108709523D01*
X143664047Y-108709523D01*
X143740238Y-108471428D01*
X144006904Y-109138095D02*
X143587857Y-109138095D01*
X143511666Y-109114285D01*
X143473571Y-109066666D01*
X143473571Y-108971428D01*
X143511666Y-108923809D01*
X143968809Y-109138095D02*
X144006904Y-109090476D01*
X144006904Y-108971428D01*
X143968809Y-108923809D01*
X143892619Y-108900000D01*
X143816428Y-108900000D01*
X143740238Y-108923809D01*
X143702142Y-108971428D01*
X143702142Y-109090476D01*
X143664047Y-109138095D01*
X144006904Y-109376190D02*
X143473571Y-109376190D01*
X143549761Y-109376190D02*
X143511666Y-109400000D01*
X143473571Y-109447619D01*
X143473571Y-109519047D01*
X143511666Y-109566666D01*
X143587857Y-109590476D01*
X144006904Y-109590476D01*
X143587857Y-109590476D02*
X143511666Y-109614285D01*
X143473571Y-109661904D01*
X143473571Y-109733333D01*
X143511666Y-109780952D01*
X143587857Y-109804761D01*
X144006904Y-109804761D01*
X143930714Y-110042857D02*
X143968809Y-110066666D01*
X144006904Y-110042857D01*
X143968809Y-110019047D01*
X143930714Y-110042857D01*
X144006904Y-110042857D01*
D10*
%TO.C,J4*%
X108537380Y-99366666D02*
X109251666Y-99366666D01*
X109394523Y-99319047D01*
X109489761Y-99223809D01*
X109537380Y-99080952D01*
X109537380Y-98985714D01*
X108870714Y-100271428D02*
X109537380Y-100271428D01*
X108489761Y-100033333D02*
X109204047Y-99795238D01*
X109204047Y-100414285D01*
D12*
X140485000Y-108400000D02*
X136585000Y-105700000D01*
X140485000Y-110200000D02*
X136585000Y-110200000D01*
X131585000Y-97000000D02*
X136585000Y-97000000D01*
X131585000Y-106800000D02*
X131585000Y-108400000D01*
X131585000Y-97000000D02*
X129585000Y-97000000D01*
X131585000Y-97000000D02*
X131585000Y-98200000D01*
X140485000Y-91000000D02*
X136585000Y-97000000D01*
X129585000Y-97000000D02*
X129585000Y-98200000D01*
X131585000Y-108400000D02*
X129585000Y-108400000D01*
X136585000Y-111700000D02*
X140485000Y-111700000D01*
X136585000Y-97000000D02*
X136585000Y-111700000D01*
X129585000Y-108400000D02*
X129585000Y-106800000D01*
X136585000Y-111700000D02*
X131585000Y-108400000D01*
X140485000Y-91000000D02*
X139485000Y-91000000D01*
X139485000Y-91000000D02*
X139485000Y-108400000D01*
X139485000Y-108400000D02*
X140485000Y-108400000D01*
X140485000Y-108400000D02*
X140485000Y-91000000D01*
X111485000Y-86700000D02*
X140485000Y-86700000D01*
X140485000Y-86700000D02*
X140485000Y-112700000D01*
X140485000Y-112700000D02*
X111485000Y-112700000D01*
X111485000Y-112700000D02*
X111485000Y-86700000D01*
X136185000Y-88000000D02*
X112785000Y-88000000D01*
X112785000Y-88000000D02*
X112785000Y-111400000D01*
X112785000Y-111400000D02*
X136185000Y-111400000D01*
X136185000Y-111400000D02*
X136185000Y-88000000D01*
X134185000Y-98000000D02*
G75*
G03*
X134185000Y-98000000I-600000J0D01*
G01*
X134185000Y-108000000D02*
G75*
G03*
X134185000Y-108000000I-600000J0D01*
G01*
%TD*%
M02*
