%TF.GenerationSoftware,KiCad,Pcbnew,(6.0.0)*%
%TF.CreationDate,2022-02-02T23:07:07+08:00*%
%TF.ProjectId,screen,73637265-656e-42e6-9b69-6361645f7063,rev?*%
%TF.SameCoordinates,Original*%
%TF.FileFunction,Copper,L4,Bot*%
%TF.FilePolarity,Positive*%
%FSLAX46Y46*%
G04 Gerber Fmt 4.6, Leading zero omitted, Abs format (unit mm)*
G04 Created by KiCad (PCBNEW (6.0.0)) date 2022-02-02 23:07:07*
%MOMM*%
%LPD*%
G01*
G04 APERTURE LIST*
%TA.AperFunction,ComponentPad*%
%ADD10O,1.200000X1.700000*%
%TD*%
%TA.AperFunction,ComponentPad*%
%ADD11R,1.000000X1.000000*%
%TD*%
%TA.AperFunction,ComponentPad*%
%ADD12O,1.000000X1.000000*%
%TD*%
%TA.AperFunction,ComponentPad*%
%ADD13R,1.700000X1.700000*%
%TD*%
%TA.AperFunction,ComponentPad*%
%ADD14O,1.700000X1.700000*%
%TD*%
%TA.AperFunction,SMDPad,CuDef*%
%ADD15R,3.000000X0.350000*%
%TD*%
%TA.AperFunction,ViaPad*%
%ADD16C,0.800000*%
%TD*%
%TA.AperFunction,Conductor*%
%ADD17C,0.400000*%
%TD*%
%TA.AperFunction,Conductor*%
%ADD18C,0.200000*%
%TD*%
%TA.AperFunction,Conductor*%
%ADD19C,0.600000*%
%TD*%
G04 APERTURE END LIST*
D10*
%TO.P,J1,SH*%
%TO.N,N/C*%
X146150000Y-104899999D03*
X146150000Y-96700000D03*
X149090000Y-96700000D03*
X149090000Y-104899999D03*
%TD*%
D11*
%TO.P,J2,1,Pin_1*%
%TO.N,+3V3*%
X148900000Y-92760000D03*
D12*
%TO.P,J2,2,Pin_2*%
%TO.N,GND*%
X148900000Y-91490000D03*
%TO.P,J2,3,Pin_3*%
%TO.N,/nRST*%
X148900000Y-90220000D03*
%TO.P,J2,4,Pin_4*%
%TO.N,/GPIO0*%
X148900000Y-88950000D03*
%TO.P,J2,5,Pin_5*%
%TO.N,/TXD*%
X148900000Y-87680000D03*
%TO.P,J2,6,Pin_6*%
%TO.N,/RXD*%
X148900000Y-86410000D03*
%TD*%
D13*
%TO.P,J3,1,Pin_1*%
%TO.N,+BATT*%
X148650000Y-111900000D03*
D14*
%TO.P,J3,2,Pin_2*%
%TO.N,GND*%
X148650000Y-109360000D03*
%TD*%
D15*
%TO.P,J4,1,Pin_1*%
%TO.N,GND*%
X130585000Y-106320000D03*
%TO.P,J4,2,Pin_2*%
X130585000Y-105620000D03*
%TO.P,J4,3,Pin_3*%
%TO.N,+3V3*%
X130585000Y-104920000D03*
%TO.P,J4,4,Pin_4*%
X130585000Y-104220000D03*
%TO.P,J4,5,Pin_5*%
%TO.N,GND*%
X130585000Y-103520000D03*
%TO.P,J4,6,Pin_6*%
X130585000Y-102820000D03*
%TO.P,J4,7,Pin_7*%
%TO.N,/GPIO0*%
X130585000Y-102120000D03*
%TO.P,J4,8,Pin_8*%
%TO.N,unconnected-(J3-Pad8)*%
X130585000Y-101420000D03*
%TO.P,J4,9,Pin_9*%
%TO.N,/GPIO14*%
X130585000Y-100720000D03*
%TO.P,J4,10,Pin_10*%
%TO.N,/GPIO13*%
X130585000Y-100020000D03*
%TO.P,J4,11,Pin_11*%
%TO.N,/nRST*%
X130585000Y-99320000D03*
%TO.P,J4,12,Pin_12*%
%TO.N,GND*%
X130585000Y-98620000D03*
%TD*%
D16*
%TO.N,+3V3*%
X137500000Y-106100000D03*
X126610000Y-88090000D03*
X117650000Y-111950000D03*
X122200000Y-112100000D03*
X142300000Y-103350000D03*
X128124463Y-104964780D03*
%TO.N,GND*%
X131783792Y-97379311D03*
X133050000Y-92100000D03*
X135200000Y-87725000D03*
X133650000Y-87725000D03*
X127225000Y-112975000D03*
X144300000Y-103550000D03*
X140100000Y-100700000D03*
X119200000Y-111950000D03*
X137200000Y-98800000D03*
X147700000Y-98050000D03*
X143000000Y-91250000D03*
X125900000Y-112875000D03*
X128775000Y-113000000D03*
X126625000Y-105475000D03*
X132025000Y-87750000D03*
%TO.N,/nRST*%
X127750000Y-99350000D03*
X146750000Y-89950000D03*
%TO.N,/GPIO0*%
X125950000Y-90150000D03*
X131250000Y-90150000D03*
X127881079Y-101904136D03*
%TO.N,/GPIO14*%
X127925000Y-100950000D03*
%TO.N,/GPIO13*%
X127742808Y-102792948D03*
%TO.N,Net-(R15-Pad2)*%
X116350000Y-87300000D03*
X124100000Y-87700000D03*
%TO.N,+BATT*%
X136050000Y-108200000D03*
X143100000Y-106300000D03*
X120400000Y-112050000D03*
X143100000Y-92300000D03*
%TO.N,Net-(D1-Pad1)*%
X143375000Y-113850000D03*
X138600000Y-93100000D03*
%TO.N,Net-(D1-Pad2)*%
X143975000Y-112625000D03*
X140000000Y-93000000D03*
%TO.N,Net-(D3-Pad1)*%
X140900000Y-93000000D03*
X144800000Y-111700000D03*
%TO.N,Net-(D3-Pad2)*%
X141000000Y-91900000D03*
X145000000Y-110800000D03*
%TO.N,Net-(C7-Pad1)*%
X139000000Y-108700000D03*
X140100000Y-103400000D03*
%TD*%
D17*
%TO.N,+3V3*%
X130585000Y-104220000D02*
X128869243Y-104220000D01*
X128169243Y-104920000D02*
X128124463Y-104964780D01*
X128869243Y-104220000D02*
X128124463Y-104964780D01*
X130585000Y-104920000D02*
X128169243Y-104920000D01*
%TO.N,GND*%
X129280000Y-102820000D02*
X126625000Y-105475000D01*
X126814281Y-105664281D02*
X126625000Y-105475000D01*
X130585000Y-98620000D02*
X130585000Y-98578103D01*
X130585000Y-105620000D02*
X130540719Y-105664281D01*
X130585000Y-106320000D02*
X127470000Y-106320000D01*
X130585000Y-103520000D02*
X128580000Y-103520000D01*
X127470000Y-106320000D02*
X126625000Y-105475000D01*
X130585000Y-102820000D02*
X129280000Y-102820000D01*
X130585000Y-98578103D02*
X131783792Y-97379311D01*
X128580000Y-103520000D02*
X126625000Y-105475000D01*
X130540719Y-105664281D02*
X126814281Y-105664281D01*
D18*
%TO.N,/nRST*%
X127780000Y-99320000D02*
X130585000Y-99320000D01*
X127750000Y-99350000D02*
X127780000Y-99320000D01*
X137150000Y-89950000D02*
X146750000Y-89950000D01*
X127750000Y-99350000D02*
X137150000Y-89950000D01*
%TO.N,/GPIO0*%
X131250000Y-90150000D02*
X125950000Y-90150000D01*
X128096943Y-102120000D02*
X127881079Y-101904136D01*
X130585000Y-102120000D02*
X128096943Y-102120000D01*
%TO.N,/GPIO14*%
X128155000Y-100720000D02*
X130585000Y-100720000D01*
X127925000Y-100950000D02*
X128155000Y-100720000D01*
%TO.N,/GPIO13*%
X127100000Y-100375000D02*
X127100000Y-102150140D01*
X130585000Y-100020000D02*
X127455000Y-100020000D01*
X127100000Y-102150140D02*
X127742808Y-102792948D01*
X127455000Y-100020000D02*
X127100000Y-100375000D01*
%TO.N,Net-(R15-Pad2)*%
X123700000Y-87300000D02*
X124100000Y-87700000D01*
X116350000Y-87300000D02*
X123700000Y-87300000D01*
D19*
%TO.N,+BATT*%
X135200479Y-109049521D02*
X136050000Y-108200000D01*
X143199501Y-92399501D02*
X143100000Y-92300000D01*
X123400479Y-109049521D02*
X135200479Y-109049521D01*
X143199501Y-106200499D02*
X143199501Y-92399501D01*
X120400000Y-112050000D02*
X123400479Y-109049521D01*
X143100000Y-106300000D02*
X143199501Y-106200499D01*
D18*
%TO.N,Net-(D1-Pad1)*%
X140700000Y-109900000D02*
X143375000Y-112575000D01*
X143375000Y-112575000D02*
X143375000Y-113850000D01*
X138600000Y-93100000D02*
X140700000Y-95200000D01*
X140700000Y-95200000D02*
X140700000Y-109900000D01*
%TO.N,Net-(D1-Pad2)*%
X143877856Y-112625000D02*
X143975000Y-112625000D01*
X141000490Y-94000490D02*
X141000490Y-109747634D01*
X141000490Y-109747634D02*
X143877856Y-112625000D01*
X140000000Y-93000000D02*
X141000490Y-94000490D01*
%TO.N,Net-(D3-Pad1)*%
X141300000Y-109623572D02*
X143376428Y-111700000D01*
X143376428Y-111700000D02*
X144800000Y-111700000D01*
X140900000Y-93000000D02*
X141300000Y-93400000D01*
X141300000Y-93400000D02*
X141300000Y-109623572D01*
%TO.N,Net-(D3-Pad2)*%
X142900000Y-110800000D02*
X141599510Y-109499510D01*
X145000000Y-110800000D02*
X142900000Y-110800000D01*
X141599510Y-92499510D02*
X141000000Y-91900000D01*
X141599510Y-109499510D02*
X141599510Y-92499510D01*
%TO.N,Net-(C7-Pad1)*%
X139000000Y-108700000D02*
X140100000Y-107600000D01*
X140100000Y-107600000D02*
X140100000Y-103400000D01*
%TD*%
%TA.AperFunction,Conductor*%
%TO.N,GND*%
G36*
X148605715Y-85228002D02*
G01*
X148652208Y-85281658D01*
X148662312Y-85351932D01*
X148632818Y-85416512D01*
X148573168Y-85454874D01*
X148547120Y-85462540D01*
X148520381Y-85470410D01*
X148514923Y-85473263D01*
X148514919Y-85473265D01*
X148424147Y-85520720D01*
X148345110Y-85562040D01*
X148190975Y-85685968D01*
X148063846Y-85837474D01*
X148060879Y-85842872D01*
X148060875Y-85842877D01*
X148057397Y-85849204D01*
X147968567Y-86010787D01*
X147966706Y-86016654D01*
X147966705Y-86016656D01*
X147910627Y-86193436D01*
X147908765Y-86199306D01*
X147886719Y-86395851D01*
X147903268Y-86592934D01*
X147913436Y-86628393D01*
X147955366Y-86774620D01*
X147957783Y-86783050D01*
X148048187Y-86958956D01*
X148052016Y-86963787D01*
X148053839Y-86966088D01*
X148054414Y-86967509D01*
X148055353Y-86968966D01*
X148055076Y-86969144D01*
X148080474Y-87031898D01*
X148067301Y-87101662D01*
X148063846Y-87107474D01*
X147968567Y-87280787D01*
X147966706Y-87286654D01*
X147966705Y-87286656D01*
X147928450Y-87407251D01*
X147908765Y-87469306D01*
X147886719Y-87665851D01*
X147889987Y-87704771D01*
X147901498Y-87841852D01*
X147903268Y-87862934D01*
X147957783Y-88053050D01*
X148048187Y-88228956D01*
X148052016Y-88233787D01*
X148053839Y-88236088D01*
X148054414Y-88237509D01*
X148055353Y-88238966D01*
X148055076Y-88239144D01*
X148080474Y-88301898D01*
X148067301Y-88371662D01*
X148063846Y-88377474D01*
X147968567Y-88550787D01*
X147966706Y-88556654D01*
X147966705Y-88556656D01*
X147910627Y-88733436D01*
X147908765Y-88739306D01*
X147886719Y-88935851D01*
X147887235Y-88941995D01*
X147902043Y-89118342D01*
X147903268Y-89132934D01*
X147923835Y-89204658D01*
X147954974Y-89313253D01*
X147957783Y-89323050D01*
X147960602Y-89328535D01*
X148044375Y-89491538D01*
X148048187Y-89498956D01*
X148052016Y-89503787D01*
X148053839Y-89506088D01*
X148054414Y-89507509D01*
X148055353Y-89508966D01*
X148055076Y-89509144D01*
X148080474Y-89571898D01*
X148067301Y-89641662D01*
X148063846Y-89647474D01*
X147968567Y-89820787D01*
X147966706Y-89826654D01*
X147966705Y-89826656D01*
X147925495Y-89956568D01*
X147908765Y-90009306D01*
X147907767Y-90008989D01*
X147876813Y-90066330D01*
X147839326Y-90087034D01*
X147870635Y-90115769D01*
X147888684Y-90184434D01*
X147887949Y-90194885D01*
X147886719Y-90205851D01*
X147887235Y-90211995D01*
X147898505Y-90346206D01*
X147903268Y-90402934D01*
X147957783Y-90593050D01*
X147960602Y-90598535D01*
X148031886Y-90737237D01*
X148048187Y-90768956D01*
X148054164Y-90776497D01*
X148054843Y-90778174D01*
X148055353Y-90778966D01*
X148055203Y-90779063D01*
X148080802Y-90842304D01*
X148067633Y-90912069D01*
X148064254Y-90917754D01*
X148064262Y-90917758D01*
X147971998Y-91085585D01*
X147967166Y-91096858D01*
X147928506Y-91218731D01*
X147928202Y-91232831D01*
X147934763Y-91236000D01*
X149858183Y-91236000D01*
X149871714Y-91232027D01*
X149872806Y-91224433D01*
X149838231Y-91109919D01*
X149833560Y-91098586D01*
X149746537Y-90934918D01*
X149739435Y-90924228D01*
X149718398Y-90856420D01*
X149734827Y-90792264D01*
X149742327Y-90779063D01*
X149794658Y-90686944D01*
X149822723Y-90637542D01*
X149822725Y-90637537D01*
X149825769Y-90632179D01*
X149888197Y-90444513D01*
X149912985Y-90248295D01*
X149913380Y-90220000D01*
X149894080Y-90023167D01*
X149889800Y-90008989D01*
X149849621Y-89875911D01*
X149836916Y-89833831D01*
X149744066Y-89659204D01*
X149740167Y-89654424D01*
X149739715Y-89653743D01*
X149718676Y-89585935D01*
X149735105Y-89521775D01*
X149735263Y-89521498D01*
X149761088Y-89476037D01*
X149822723Y-89367542D01*
X149822725Y-89367537D01*
X149825769Y-89362179D01*
X149888197Y-89174513D01*
X149912985Y-88978295D01*
X149913380Y-88950000D01*
X149894080Y-88753167D01*
X149836916Y-88563831D01*
X149744066Y-88389204D01*
X149740167Y-88384424D01*
X149739715Y-88383743D01*
X149718676Y-88315935D01*
X149735105Y-88251775D01*
X149822723Y-88097542D01*
X149822725Y-88097537D01*
X149825769Y-88092179D01*
X149888197Y-87904513D01*
X149912985Y-87708295D01*
X149913380Y-87680000D01*
X149894080Y-87483167D01*
X149836916Y-87293831D01*
X149744066Y-87119204D01*
X149740167Y-87114424D01*
X149739715Y-87113743D01*
X149718676Y-87045935D01*
X149735105Y-86981775D01*
X149822723Y-86827542D01*
X149822725Y-86827537D01*
X149825769Y-86822179D01*
X149888197Y-86634513D01*
X149912985Y-86438295D01*
X149913380Y-86410000D01*
X149894080Y-86213167D01*
X149836916Y-86023831D01*
X149744066Y-85849204D01*
X149673709Y-85762938D01*
X149622960Y-85700713D01*
X149622957Y-85700710D01*
X149619065Y-85695938D01*
X149612724Y-85690692D01*
X149471425Y-85573799D01*
X149471421Y-85573797D01*
X149466675Y-85569870D01*
X149292701Y-85475802D01*
X149223449Y-85454365D01*
X149164289Y-85415114D01*
X149135742Y-85350109D01*
X149146871Y-85279990D01*
X149194142Y-85227019D01*
X149260708Y-85208000D01*
X150241000Y-85208000D01*
X150309121Y-85228002D01*
X150355614Y-85281658D01*
X150367000Y-85334000D01*
X150367000Y-95991464D01*
X150346998Y-96059585D01*
X150293342Y-96106078D01*
X150223068Y-96116182D01*
X150158488Y-96086688D01*
X150124730Y-96039267D01*
X150123908Y-96036466D01*
X150121164Y-96031138D01*
X150121163Y-96031135D01*
X150029804Y-95853751D01*
X150029802Y-95853748D01*
X150027058Y-95848420D01*
X149896396Y-95682080D01*
X149758627Y-95562530D01*
X149720288Y-95502779D01*
X149716095Y-95452448D01*
X149732762Y-95312673D01*
X149733596Y-95305680D01*
X149714636Y-95125288D01*
X149656182Y-94953579D01*
X149561138Y-94799088D01*
X149556207Y-94794053D01*
X149556205Y-94794050D01*
X149439157Y-94674525D01*
X149439156Y-94674524D01*
X149434229Y-94669493D01*
X149281762Y-94571235D01*
X149275142Y-94568826D01*
X149275139Y-94568824D01*
X149117934Y-94511606D01*
X149117933Y-94511606D01*
X149111315Y-94509197D01*
X148971231Y-94491500D01*
X148874390Y-94491500D01*
X148739745Y-94506603D01*
X148733092Y-94508920D01*
X148733091Y-94508920D01*
X148575106Y-94563936D01*
X148575103Y-94563938D01*
X148568448Y-94566255D01*
X148562469Y-94569991D01*
X148554367Y-94575054D01*
X148414624Y-94662374D01*
X148409628Y-94667335D01*
X148409627Y-94667336D01*
X148290915Y-94785222D01*
X148290912Y-94785226D01*
X148285918Y-94790185D01*
X148188727Y-94943334D01*
X148186362Y-94949976D01*
X148130243Y-95107575D01*
X148130242Y-95107580D01*
X148127881Y-95114210D01*
X148106404Y-95294320D01*
X148107140Y-95301323D01*
X148107140Y-95301324D01*
X148121772Y-95440533D01*
X148125364Y-95474712D01*
X148150102Y-95547379D01*
X148171890Y-95611381D01*
X148183818Y-95646421D01*
X148193696Y-95662477D01*
X148212354Y-95730978D01*
X148192230Y-95796847D01*
X148101380Y-95937548D01*
X148099137Y-95943114D01*
X148060793Y-96038259D01*
X148022314Y-96133737D01*
X147981772Y-96341337D01*
X147981500Y-96346899D01*
X147981500Y-97002846D01*
X147996548Y-97160566D01*
X148056092Y-97363534D01*
X148058836Y-97368861D01*
X148058836Y-97368862D01*
X148062568Y-97376107D01*
X148152942Y-97551580D01*
X148283604Y-97717920D01*
X148288135Y-97721852D01*
X148288138Y-97721855D01*
X148370205Y-97793069D01*
X148443363Y-97856552D01*
X148448549Y-97859552D01*
X148448553Y-97859555D01*
X148544957Y-97915326D01*
X148626454Y-97962473D01*
X148826271Y-98031861D01*
X148832206Y-98032722D01*
X148832208Y-98032722D01*
X149029664Y-98061352D01*
X149029667Y-98061352D01*
X149035604Y-98062213D01*
X149246899Y-98052433D01*
X149378077Y-98020819D01*
X149446701Y-98004281D01*
X149446703Y-98004280D01*
X149452534Y-98002875D01*
X149457992Y-98000393D01*
X149457996Y-98000392D01*
X149584518Y-97942865D01*
X149645087Y-97915326D01*
X149817611Y-97792946D01*
X149963881Y-97640150D01*
X150078620Y-97462452D01*
X150124134Y-97349517D01*
X150168149Y-97293811D01*
X150235294Y-97270744D01*
X150304251Y-97287641D01*
X150353126Y-97339136D01*
X150367000Y-97396615D01*
X150367000Y-104191463D01*
X150346998Y-104259584D01*
X150293342Y-104306077D01*
X150223068Y-104316181D01*
X150158488Y-104286687D01*
X150124730Y-104239266D01*
X150123908Y-104236465D01*
X150121164Y-104231137D01*
X150121163Y-104231134D01*
X150029804Y-104053750D01*
X150029802Y-104053747D01*
X150027058Y-104048419D01*
X149896396Y-103882079D01*
X149891865Y-103878147D01*
X149891862Y-103878144D01*
X149741167Y-103747378D01*
X149736637Y-103743447D01*
X149731451Y-103740447D01*
X149731447Y-103740444D01*
X149558742Y-103640532D01*
X149553546Y-103637526D01*
X149353729Y-103568138D01*
X149347794Y-103567277D01*
X149347792Y-103567277D01*
X149150336Y-103538647D01*
X149150333Y-103538647D01*
X149144396Y-103537786D01*
X148933101Y-103547566D01*
X148801923Y-103579180D01*
X148733299Y-103595718D01*
X148733297Y-103595719D01*
X148727466Y-103597124D01*
X148722008Y-103599606D01*
X148722004Y-103599607D01*
X148618674Y-103646589D01*
X148534913Y-103684673D01*
X148362389Y-103807053D01*
X148216119Y-103959849D01*
X148101380Y-104137547D01*
X148099137Y-104143113D01*
X148039608Y-104290825D01*
X148022314Y-104333736D01*
X147981772Y-104541336D01*
X147981500Y-104546898D01*
X147981500Y-105202845D01*
X147996548Y-105360565D01*
X148056092Y-105563533D01*
X148058836Y-105568860D01*
X148058836Y-105568861D01*
X148144264Y-105734729D01*
X148152942Y-105751579D01*
X148156644Y-105756292D01*
X148156646Y-105756295D01*
X148184988Y-105792375D01*
X148211339Y-105858301D01*
X148197865Y-105928007D01*
X148192621Y-105937142D01*
X148192503Y-105937384D01*
X148188727Y-105943334D01*
X148186362Y-105949976D01*
X148130243Y-106107575D01*
X148130242Y-106107580D01*
X148127881Y-106114210D01*
X148127048Y-106121198D01*
X148127047Y-106121201D01*
X148113852Y-106231860D01*
X148106404Y-106294320D01*
X148107140Y-106301323D01*
X148107140Y-106301324D01*
X148124372Y-106465271D01*
X148125364Y-106474712D01*
X148183818Y-106646421D01*
X148278862Y-106800912D01*
X148283793Y-106805947D01*
X148283795Y-106805950D01*
X148375986Y-106900092D01*
X148405771Y-106930507D01*
X148558238Y-107028765D01*
X148564858Y-107031174D01*
X148564861Y-107031176D01*
X148722066Y-107088394D01*
X148728685Y-107090803D01*
X148868769Y-107108500D01*
X148965610Y-107108500D01*
X149100255Y-107093397D01*
X149114622Y-107088394D01*
X149264894Y-107036064D01*
X149264897Y-107036062D01*
X149271552Y-107033745D01*
X149279522Y-107028765D01*
X149419402Y-106941359D01*
X149425376Y-106937626D01*
X149437612Y-106925475D01*
X149549085Y-106814778D01*
X149549088Y-106814774D01*
X149554082Y-106809815D01*
X149576840Y-106773955D01*
X149602796Y-106733054D01*
X149651273Y-106656666D01*
X149690505Y-106546490D01*
X149709757Y-106492425D01*
X149709758Y-106492420D01*
X149712119Y-106485790D01*
X149713817Y-106471556D01*
X149732762Y-106312673D01*
X149733596Y-106305680D01*
X149731941Y-106289928D01*
X149716540Y-106143404D01*
X149729312Y-106073565D01*
X149768950Y-106027464D01*
X149812718Y-105996417D01*
X149812726Y-105996410D01*
X149817611Y-105992945D01*
X149963881Y-105840149D01*
X150078620Y-105662451D01*
X150124134Y-105549516D01*
X150168149Y-105493810D01*
X150235294Y-105470743D01*
X150304251Y-105487640D01*
X150353126Y-105539135D01*
X150367000Y-105596614D01*
X150367000Y-114066000D01*
X150346998Y-114134121D01*
X150293342Y-114180614D01*
X150241000Y-114192000D01*
X144391110Y-114192000D01*
X144322989Y-114171998D01*
X144276496Y-114118342D01*
X144266392Y-114048068D01*
X144266992Y-114044698D01*
X144268542Y-114039928D01*
X144269231Y-114033373D01*
X144269232Y-114033368D01*
X144287814Y-113856565D01*
X144288504Y-113850000D01*
X144268542Y-113660072D01*
X144254979Y-113618329D01*
X144252951Y-113547363D01*
X144289614Y-113486565D01*
X144323563Y-113464287D01*
X144425722Y-113418803D01*
X144425724Y-113418802D01*
X144431752Y-113416118D01*
X144586253Y-113303866D01*
X144676155Y-113204020D01*
X144709621Y-113166852D01*
X144709622Y-113166851D01*
X144714040Y-113161944D01*
X144809527Y-112996556D01*
X144868542Y-112814928D01*
X144870307Y-112798134D01*
X147291500Y-112798134D01*
X147298255Y-112860316D01*
X147349385Y-112996705D01*
X147436739Y-113113261D01*
X147553295Y-113200615D01*
X147689684Y-113251745D01*
X147751866Y-113258500D01*
X149548134Y-113258500D01*
X149610316Y-113251745D01*
X149746705Y-113200615D01*
X149863261Y-113113261D01*
X149950615Y-112996705D01*
X150001745Y-112860316D01*
X150008500Y-112798134D01*
X150008500Y-111001866D01*
X150001745Y-110939684D01*
X149950615Y-110803295D01*
X149863261Y-110686739D01*
X149746705Y-110599385D01*
X149627687Y-110554767D01*
X149570923Y-110512125D01*
X149546223Y-110445564D01*
X149561430Y-110376215D01*
X149582977Y-110347535D01*
X149684052Y-110246812D01*
X149690730Y-110238965D01*
X149815003Y-110066020D01*
X149820313Y-110057183D01*
X149914670Y-109866267D01*
X149918469Y-109856672D01*
X149980377Y-109652910D01*
X149982555Y-109642837D01*
X149983986Y-109631962D01*
X149981775Y-109617778D01*
X149968617Y-109614000D01*
X147333225Y-109614000D01*
X147319694Y-109617973D01*
X147318257Y-109627966D01*
X147348565Y-109762446D01*
X147351645Y-109772275D01*
X147431770Y-109969603D01*
X147436413Y-109978794D01*
X147547694Y-110160388D01*
X147553777Y-110168699D01*
X147693213Y-110329667D01*
X147700577Y-110336879D01*
X147705522Y-110340985D01*
X147745156Y-110399889D01*
X147746653Y-110470870D01*
X147709537Y-110531392D01*
X147669264Y-110555910D01*
X147561705Y-110596232D01*
X147561704Y-110596233D01*
X147553295Y-110599385D01*
X147436739Y-110686739D01*
X147349385Y-110803295D01*
X147298255Y-110939684D01*
X147291500Y-111001866D01*
X147291500Y-112798134D01*
X144870307Y-112798134D01*
X144880549Y-112700684D01*
X144907562Y-112635028D01*
X144965783Y-112594398D01*
X144979662Y-112590608D01*
X144996899Y-112586944D01*
X145082288Y-112568794D01*
X145187046Y-112522153D01*
X145250722Y-112493803D01*
X145250724Y-112493802D01*
X145256752Y-112491118D01*
X145411253Y-112378866D01*
X145466558Y-112317444D01*
X145534621Y-112241852D01*
X145534622Y-112241851D01*
X145539040Y-112236944D01*
X145621895Y-112093435D01*
X145631223Y-112077279D01*
X145631224Y-112077278D01*
X145634527Y-112071556D01*
X145693542Y-111889928D01*
X145706501Y-111766635D01*
X145712814Y-111706565D01*
X145713504Y-111700000D01*
X145701389Y-111584729D01*
X145694233Y-111516642D01*
X145694232Y-111516638D01*
X145693542Y-111510072D01*
X145690489Y-111500677D01*
X145686750Y-111489167D01*
X145684724Y-111418199D01*
X145712948Y-111365922D01*
X145734621Y-111341852D01*
X145734622Y-111341851D01*
X145739040Y-111336944D01*
X145774200Y-111276045D01*
X145831223Y-111177279D01*
X145831224Y-111177278D01*
X145834527Y-111171556D01*
X145893542Y-110989928D01*
X145899601Y-110932285D01*
X145912814Y-110806565D01*
X145913504Y-110800000D01*
X145901600Y-110686739D01*
X145894232Y-110616635D01*
X145894232Y-110616633D01*
X145893542Y-110610072D01*
X145834527Y-110428444D01*
X145739040Y-110263056D01*
X145717349Y-110238965D01*
X145615675Y-110126045D01*
X145615674Y-110126044D01*
X145611253Y-110121134D01*
X145456752Y-110008882D01*
X145450724Y-110006198D01*
X145450722Y-110006197D01*
X145288319Y-109933891D01*
X145288318Y-109933891D01*
X145282288Y-109931206D01*
X145188888Y-109911353D01*
X145101944Y-109892872D01*
X145101939Y-109892872D01*
X145095487Y-109891500D01*
X144904513Y-109891500D01*
X144898061Y-109892872D01*
X144898056Y-109892872D01*
X144811113Y-109911353D01*
X144717712Y-109931206D01*
X144711682Y-109933891D01*
X144711681Y-109933891D01*
X144549278Y-110006197D01*
X144549276Y-110006198D01*
X144543248Y-110008882D01*
X144537907Y-110012762D01*
X144537906Y-110012763D01*
X144463971Y-110066480D01*
X144388747Y-110121134D01*
X144384334Y-110126036D01*
X144384332Y-110126037D01*
X144362926Y-110149811D01*
X144302480Y-110187050D01*
X144269290Y-110191500D01*
X143204239Y-110191500D01*
X143136118Y-110171498D01*
X143115144Y-110154595D01*
X142244915Y-109284366D01*
X142210889Y-109222054D01*
X142208010Y-109195271D01*
X142208010Y-109094183D01*
X147314389Y-109094183D01*
X147315912Y-109102607D01*
X147328292Y-109106000D01*
X148377885Y-109106000D01*
X148393124Y-109101525D01*
X148394329Y-109100135D01*
X148396000Y-109092452D01*
X148396000Y-109087885D01*
X148904000Y-109087885D01*
X148908475Y-109103124D01*
X148909865Y-109104329D01*
X148917548Y-109106000D01*
X149968344Y-109106000D01*
X149981875Y-109102027D01*
X149983180Y-109092947D01*
X149941214Y-108925875D01*
X149937894Y-108916124D01*
X149852972Y-108720814D01*
X149848105Y-108711739D01*
X149732426Y-108532926D01*
X149726136Y-108524757D01*
X149582806Y-108367240D01*
X149575273Y-108360215D01*
X149408139Y-108228222D01*
X149399552Y-108222517D01*
X149213117Y-108119599D01*
X149203705Y-108115369D01*
X149002959Y-108044280D01*
X148992988Y-108041646D01*
X148921837Y-108028972D01*
X148908540Y-108030432D01*
X148904000Y-108044989D01*
X148904000Y-109087885D01*
X148396000Y-109087885D01*
X148396000Y-108043102D01*
X148392082Y-108029758D01*
X148377806Y-108027771D01*
X148339324Y-108033660D01*
X148329288Y-108036051D01*
X148126868Y-108102212D01*
X148117359Y-108106209D01*
X147928463Y-108204542D01*
X147919738Y-108210036D01*
X147749433Y-108337905D01*
X147741726Y-108344748D01*
X147594590Y-108498717D01*
X147588104Y-108506727D01*
X147468098Y-108682649D01*
X147463000Y-108691623D01*
X147373338Y-108884783D01*
X147369775Y-108894470D01*
X147314389Y-109094183D01*
X142208010Y-109094183D01*
X142208010Y-106995316D01*
X142228012Y-106927195D01*
X142281668Y-106880702D01*
X142351942Y-106870598D01*
X142416522Y-106900092D01*
X142427635Y-106910995D01*
X142488747Y-106978866D01*
X142643248Y-107091118D01*
X142649276Y-107093802D01*
X142649278Y-107093803D01*
X142811681Y-107166109D01*
X142817712Y-107168794D01*
X142911113Y-107188647D01*
X142998056Y-107207128D01*
X142998061Y-107207128D01*
X143004513Y-107208500D01*
X143195487Y-107208500D01*
X143201939Y-107207128D01*
X143201944Y-107207128D01*
X143288888Y-107188647D01*
X143382288Y-107168794D01*
X143388319Y-107166109D01*
X143550722Y-107093803D01*
X143550724Y-107093802D01*
X143556752Y-107091118D01*
X143711253Y-106978866D01*
X143720322Y-106968794D01*
X143834621Y-106841852D01*
X143834622Y-106841851D01*
X143839040Y-106836944D01*
X143934527Y-106671556D01*
X143993542Y-106489928D01*
X143994872Y-106477279D01*
X144012814Y-106306565D01*
X144013504Y-106300000D01*
X144008691Y-106254207D01*
X144008001Y-106241037D01*
X144008001Y-106215366D01*
X144008002Y-106214926D01*
X144008347Y-106116163D01*
X144008347Y-106116157D01*
X144008359Y-106112629D01*
X144008090Y-106111426D01*
X144008001Y-106109782D01*
X144008001Y-105202845D01*
X145041500Y-105202845D01*
X145056548Y-105360565D01*
X145116092Y-105563533D01*
X145118836Y-105568860D01*
X145118836Y-105568861D01*
X145204264Y-105734729D01*
X145212942Y-105751579D01*
X145343604Y-105917919D01*
X145348135Y-105921851D01*
X145348138Y-105921854D01*
X145469758Y-106027390D01*
X145503363Y-106056551D01*
X145508549Y-106059551D01*
X145508553Y-106059554D01*
X145670665Y-106153338D01*
X145686454Y-106162472D01*
X145886271Y-106231860D01*
X145892206Y-106232721D01*
X145892208Y-106232721D01*
X146089664Y-106261351D01*
X146089667Y-106261351D01*
X146095604Y-106262212D01*
X146306899Y-106252432D01*
X146462526Y-106214926D01*
X146506701Y-106204280D01*
X146506703Y-106204279D01*
X146512534Y-106202874D01*
X146517992Y-106200392D01*
X146517996Y-106200391D01*
X146652720Y-106139135D01*
X146705087Y-106115325D01*
X146872492Y-105996576D01*
X146872725Y-105996411D01*
X146872726Y-105996410D01*
X146877611Y-105992945D01*
X147023881Y-105840149D01*
X147138620Y-105662451D01*
X147201417Y-105506632D01*
X147215442Y-105471831D01*
X147215443Y-105471828D01*
X147217686Y-105466262D01*
X147258228Y-105258662D01*
X147258500Y-105253100D01*
X147258500Y-104597153D01*
X147243452Y-104439433D01*
X147183908Y-104236465D01*
X147160932Y-104191854D01*
X147089804Y-104053750D01*
X147089802Y-104053747D01*
X147087058Y-104048419D01*
X146956396Y-103882079D01*
X146951865Y-103878147D01*
X146951862Y-103878144D01*
X146801167Y-103747378D01*
X146796637Y-103743447D01*
X146791451Y-103740447D01*
X146791447Y-103740444D01*
X146618742Y-103640532D01*
X146613546Y-103637526D01*
X146413729Y-103568138D01*
X146407794Y-103567277D01*
X146407792Y-103567277D01*
X146210336Y-103538647D01*
X146210333Y-103538647D01*
X146204396Y-103537786D01*
X145993101Y-103547566D01*
X145861923Y-103579180D01*
X145793299Y-103595718D01*
X145793297Y-103595719D01*
X145787466Y-103597124D01*
X145782008Y-103599606D01*
X145782004Y-103599607D01*
X145678674Y-103646589D01*
X145594913Y-103684673D01*
X145422389Y-103807053D01*
X145276119Y-103959849D01*
X145161380Y-104137547D01*
X145159137Y-104143113D01*
X145099608Y-104290825D01*
X145082314Y-104333736D01*
X145041772Y-104541336D01*
X145041500Y-104546898D01*
X145041500Y-105202845D01*
X144008001Y-105202845D01*
X144008001Y-97002846D01*
X145041500Y-97002846D01*
X145056548Y-97160566D01*
X145116092Y-97363534D01*
X145118836Y-97368861D01*
X145118836Y-97368862D01*
X145122568Y-97376107D01*
X145212942Y-97551580D01*
X145343604Y-97717920D01*
X145348135Y-97721852D01*
X145348138Y-97721855D01*
X145430205Y-97793069D01*
X145503363Y-97856552D01*
X145508549Y-97859552D01*
X145508553Y-97859555D01*
X145604957Y-97915326D01*
X145686454Y-97962473D01*
X145886271Y-98031861D01*
X145892206Y-98032722D01*
X145892208Y-98032722D01*
X146089664Y-98061352D01*
X146089667Y-98061352D01*
X146095604Y-98062213D01*
X146306899Y-98052433D01*
X146438077Y-98020819D01*
X146506701Y-98004281D01*
X146506703Y-98004280D01*
X146512534Y-98002875D01*
X146517992Y-98000393D01*
X146517996Y-98000392D01*
X146644518Y-97942865D01*
X146705087Y-97915326D01*
X146877611Y-97792946D01*
X147023881Y-97640150D01*
X147138620Y-97462452D01*
X147188318Y-97339136D01*
X147215442Y-97271832D01*
X147215443Y-97271829D01*
X147217686Y-97266263D01*
X147258228Y-97058663D01*
X147258500Y-97053101D01*
X147258500Y-96397154D01*
X147243452Y-96239434D01*
X147183908Y-96036466D01*
X147181162Y-96031135D01*
X147089804Y-95853751D01*
X147089802Y-95853748D01*
X147087058Y-95848420D01*
X146956396Y-95682080D01*
X146951865Y-95678148D01*
X146951862Y-95678145D01*
X146801167Y-95547379D01*
X146796637Y-95543448D01*
X146791451Y-95540448D01*
X146791447Y-95540445D01*
X146618742Y-95440533D01*
X146613546Y-95437527D01*
X146413729Y-95368139D01*
X146407794Y-95367278D01*
X146407792Y-95367278D01*
X146210336Y-95338648D01*
X146210333Y-95338648D01*
X146204396Y-95337787D01*
X145993101Y-95347567D01*
X145861923Y-95379181D01*
X145793299Y-95395719D01*
X145793297Y-95395720D01*
X145787466Y-95397125D01*
X145782008Y-95399607D01*
X145782004Y-95399608D01*
X145666959Y-95451916D01*
X145594913Y-95484674D01*
X145422389Y-95607054D01*
X145276119Y-95759850D01*
X145161380Y-95937548D01*
X145159137Y-95943114D01*
X145120793Y-96038259D01*
X145082314Y-96133737D01*
X145041772Y-96341337D01*
X145041500Y-96346899D01*
X145041500Y-97002846D01*
X144008001Y-97002846D01*
X144008001Y-93308134D01*
X147891500Y-93308134D01*
X147898255Y-93370316D01*
X147949385Y-93506705D01*
X148036739Y-93623261D01*
X148153295Y-93710615D01*
X148289684Y-93761745D01*
X148351866Y-93768500D01*
X149448134Y-93768500D01*
X149510316Y-93761745D01*
X149646705Y-93710615D01*
X149763261Y-93623261D01*
X149850615Y-93506705D01*
X149901745Y-93370316D01*
X149908500Y-93308134D01*
X149908500Y-92211866D01*
X149901745Y-92149684D01*
X149850615Y-92013295D01*
X149845229Y-92006108D01*
X149840921Y-91998240D01*
X149842789Y-91997217D01*
X149822139Y-91941945D01*
X149828255Y-91893117D01*
X149872142Y-91761189D01*
X149872643Y-91747097D01*
X149866454Y-91744000D01*
X147942282Y-91744000D01*
X147928751Y-91747973D01*
X147927601Y-91755975D01*
X147956552Y-91856941D01*
X147961068Y-91868346D01*
X147964480Y-91874985D01*
X147977831Y-91944715D01*
X147957432Y-91997338D01*
X147959079Y-91998240D01*
X147954771Y-92006108D01*
X147949385Y-92013295D01*
X147898255Y-92149684D01*
X147891500Y-92211866D01*
X147891500Y-93308134D01*
X144008001Y-93308134D01*
X144008001Y-92408761D01*
X144008008Y-92407442D01*
X144008587Y-92352136D01*
X144009270Y-92340284D01*
X144012814Y-92306565D01*
X144013504Y-92300000D01*
X143998531Y-92157540D01*
X143994232Y-92116635D01*
X143994232Y-92116633D01*
X143993542Y-92110072D01*
X143934527Y-91928444D01*
X143839040Y-91763056D01*
X143824671Y-91747097D01*
X143715675Y-91626045D01*
X143715674Y-91626044D01*
X143711253Y-91621134D01*
X143556752Y-91508882D01*
X143550724Y-91506198D01*
X143550722Y-91506197D01*
X143388319Y-91433891D01*
X143388318Y-91433891D01*
X143382288Y-91431206D01*
X143288887Y-91411353D01*
X143201944Y-91392872D01*
X143201939Y-91392872D01*
X143195487Y-91391500D01*
X143004513Y-91391500D01*
X142998061Y-91392872D01*
X142998056Y-91392872D01*
X142911113Y-91411353D01*
X142817712Y-91431206D01*
X142811682Y-91433891D01*
X142811681Y-91433891D01*
X142649278Y-91506197D01*
X142649276Y-91506198D01*
X142643248Y-91508882D01*
X142488747Y-91621134D01*
X142484326Y-91626044D01*
X142484325Y-91626045D01*
X142375330Y-91747097D01*
X142360960Y-91763056D01*
X142265473Y-91928444D01*
X142263432Y-91934726D01*
X142238131Y-92012594D01*
X142198057Y-92071199D01*
X142132660Y-92098836D01*
X142062704Y-92086729D01*
X142034011Y-92066193D01*
X142033497Y-92065523D01*
X142026951Y-92060500D01*
X142026948Y-92060497D01*
X142008131Y-92046058D01*
X141995740Y-92035191D01*
X141949719Y-91989170D01*
X141915693Y-91926858D01*
X141913159Y-91903284D01*
X141913504Y-91900000D01*
X141897526Y-91747973D01*
X141894232Y-91716635D01*
X141894232Y-91716633D01*
X141893542Y-91710072D01*
X141834527Y-91528444D01*
X141739040Y-91363056D01*
X141624639Y-91236000D01*
X141615675Y-91226045D01*
X141615674Y-91226044D01*
X141611253Y-91221134D01*
X141456752Y-91108882D01*
X141450724Y-91106198D01*
X141450722Y-91106197D01*
X141288319Y-91033891D01*
X141288318Y-91033891D01*
X141282288Y-91031206D01*
X141188888Y-91011353D01*
X141101944Y-90992872D01*
X141101939Y-90992872D01*
X141095487Y-90991500D01*
X140904513Y-90991500D01*
X140898061Y-90992872D01*
X140898056Y-90992872D01*
X140811113Y-91011353D01*
X140717712Y-91031206D01*
X140711682Y-91033891D01*
X140711681Y-91033891D01*
X140549278Y-91106197D01*
X140549276Y-91106198D01*
X140543248Y-91108882D01*
X140388747Y-91221134D01*
X140384326Y-91226044D01*
X140384325Y-91226045D01*
X140375362Y-91236000D01*
X140260960Y-91363056D01*
X140165473Y-91528444D01*
X140106458Y-91710072D01*
X140105768Y-91716633D01*
X140105768Y-91716635D01*
X140102474Y-91747973D01*
X140086496Y-91900000D01*
X140087186Y-91906565D01*
X140091996Y-91952330D01*
X140079224Y-92022168D01*
X140030722Y-92074015D01*
X139966686Y-92091500D01*
X139904513Y-92091500D01*
X139898061Y-92092872D01*
X139898056Y-92092872D01*
X139817139Y-92110072D01*
X139717712Y-92131206D01*
X139711682Y-92133891D01*
X139711681Y-92133891D01*
X139549278Y-92206197D01*
X139549276Y-92206198D01*
X139543248Y-92208882D01*
X139388747Y-92321134D01*
X139340033Y-92375236D01*
X139279589Y-92412474D01*
X139208605Y-92411122D01*
X139172338Y-92392860D01*
X139062094Y-92312763D01*
X139062093Y-92312762D01*
X139056752Y-92308882D01*
X139050724Y-92306198D01*
X139050722Y-92306197D01*
X138888319Y-92233891D01*
X138888318Y-92233891D01*
X138882288Y-92231206D01*
X138788888Y-92211353D01*
X138701944Y-92192872D01*
X138701939Y-92192872D01*
X138695487Y-92191500D01*
X138504513Y-92191500D01*
X138498061Y-92192872D01*
X138498056Y-92192872D01*
X138411112Y-92211353D01*
X138317712Y-92231206D01*
X138311682Y-92233891D01*
X138311681Y-92233891D01*
X138149278Y-92306197D01*
X138149276Y-92306198D01*
X138143248Y-92308882D01*
X138137907Y-92312762D01*
X138137906Y-92312763D01*
X138119631Y-92326041D01*
X137988747Y-92421134D01*
X137984326Y-92426044D01*
X137984325Y-92426045D01*
X137910903Y-92507589D01*
X137860960Y-92563056D01*
X137765473Y-92728444D01*
X137706458Y-92910072D01*
X137686496Y-93100000D01*
X137706458Y-93289928D01*
X137765473Y-93471556D01*
X137860960Y-93636944D01*
X137865378Y-93641851D01*
X137865379Y-93641852D01*
X137930132Y-93713767D01*
X137988747Y-93778866D01*
X138143248Y-93891118D01*
X138149276Y-93893802D01*
X138149278Y-93893803D01*
X138311681Y-93966109D01*
X138317712Y-93968794D01*
X138411113Y-93988647D01*
X138498056Y-94007128D01*
X138498061Y-94007128D01*
X138504513Y-94008500D01*
X138595761Y-94008500D01*
X138663882Y-94028502D01*
X138684856Y-94045405D01*
X140054595Y-95415144D01*
X140088621Y-95477456D01*
X140091500Y-95504239D01*
X140091500Y-102370977D01*
X140071498Y-102439098D01*
X140017842Y-102485591D01*
X139991697Y-102494224D01*
X139954172Y-102502200D01*
X139817712Y-102531206D01*
X139811682Y-102533891D01*
X139811681Y-102533891D01*
X139649278Y-102606197D01*
X139649276Y-102606198D01*
X139643248Y-102608882D01*
X139488747Y-102721134D01*
X139360960Y-102863056D01*
X139265473Y-103028444D01*
X139206458Y-103210072D01*
X139205768Y-103216633D01*
X139205768Y-103216635D01*
X139193701Y-103331452D01*
X139186496Y-103400000D01*
X139187186Y-103406565D01*
X139204375Y-103570105D01*
X139206458Y-103589928D01*
X139265473Y-103771556D01*
X139360960Y-103936944D01*
X139365378Y-103941851D01*
X139365379Y-103941852D01*
X139459136Y-104045980D01*
X139489854Y-104109987D01*
X139491500Y-104130290D01*
X139491500Y-107295761D01*
X139471498Y-107363882D01*
X139454595Y-107384857D01*
X139084855Y-107754596D01*
X139022543Y-107788621D01*
X138995760Y-107791500D01*
X138904513Y-107791500D01*
X138898061Y-107792872D01*
X138898056Y-107792872D01*
X138811113Y-107811353D01*
X138717712Y-107831206D01*
X138711682Y-107833891D01*
X138711681Y-107833891D01*
X138549278Y-107906197D01*
X138549276Y-107906198D01*
X138543248Y-107908882D01*
X138388747Y-108021134D01*
X138384326Y-108026044D01*
X138384325Y-108026045D01*
X138303898Y-108115369D01*
X138260960Y-108163056D01*
X138165473Y-108328444D01*
X138106458Y-108510072D01*
X138105768Y-108516633D01*
X138105768Y-108516635D01*
X138104056Y-108532926D01*
X138086496Y-108700000D01*
X138106458Y-108889928D01*
X138165473Y-109071556D01*
X138168776Y-109077278D01*
X138168777Y-109077279D01*
X138185359Y-109106000D01*
X138260960Y-109236944D01*
X138265378Y-109241851D01*
X138265379Y-109241852D01*
X138374118Y-109362619D01*
X138388747Y-109378866D01*
X138406815Y-109391993D01*
X138534452Y-109484727D01*
X138543248Y-109491118D01*
X138549276Y-109493802D01*
X138549278Y-109493803D01*
X138702048Y-109561820D01*
X138717712Y-109568794D01*
X138811113Y-109588647D01*
X138898056Y-109607128D01*
X138898061Y-109607128D01*
X138904513Y-109608500D01*
X139095487Y-109608500D01*
X139101939Y-109607128D01*
X139101944Y-109607128D01*
X139188888Y-109588647D01*
X139282288Y-109568794D01*
X139297952Y-109561820D01*
X139450722Y-109493803D01*
X139450724Y-109493802D01*
X139456752Y-109491118D01*
X139465549Y-109484727D01*
X139593185Y-109391993D01*
X139611253Y-109378866D01*
X139625882Y-109362619D01*
X139734621Y-109241852D01*
X139734622Y-109241851D01*
X139739040Y-109236944D01*
X139814641Y-109106000D01*
X139831223Y-109077279D01*
X139831224Y-109077278D01*
X139834527Y-109071556D01*
X139845668Y-109037269D01*
X139885741Y-108978665D01*
X139951138Y-108951028D01*
X140021094Y-108963135D01*
X140073400Y-109011141D01*
X140091500Y-109076207D01*
X140091500Y-109851864D01*
X140090422Y-109868307D01*
X140086250Y-109900000D01*
X140091500Y-109939880D01*
X140091500Y-109939885D01*
X140093496Y-109955041D01*
X140096322Y-109976508D01*
X140096322Y-109976510D01*
X140104336Y-110037381D01*
X140107162Y-110058851D01*
X140168476Y-110206876D01*
X140173503Y-110213427D01*
X140173504Y-110213429D01*
X140241520Y-110302069D01*
X140241526Y-110302075D01*
X140266013Y-110333987D01*
X140272568Y-110339017D01*
X140291379Y-110353452D01*
X140303770Y-110364319D01*
X140343052Y-110403601D01*
X140377078Y-110465913D01*
X140372013Y-110536728D01*
X140329466Y-110593564D01*
X140315044Y-110602898D01*
X140255729Y-110635777D01*
X140255726Y-110635779D01*
X140250150Y-110638870D01*
X140245309Y-110643019D01*
X140245305Y-110643022D01*
X140200578Y-110681358D01*
X140102302Y-110765591D01*
X140098391Y-110770633D01*
X140098390Y-110770634D01*
X140073056Y-110803295D01*
X139982954Y-110919453D01*
X139980138Y-110925176D01*
X139980136Y-110925179D01*
X139904037Y-111079834D01*
X139896982Y-111094171D01*
X139895373Y-111100349D01*
X139895372Y-111100351D01*
X139873445Y-111184532D01*
X139847898Y-111282607D01*
X139847564Y-111288986D01*
X139840842Y-111417251D01*
X139837707Y-111477064D01*
X139866825Y-111669599D01*
X139869028Y-111675585D01*
X139869029Y-111675591D01*
X139931860Y-111846360D01*
X139931862Y-111846365D01*
X139934063Y-111852346D01*
X140036674Y-112017840D01*
X140041055Y-112022473D01*
X140041056Y-112022474D01*
X140145920Y-112133365D01*
X140170466Y-112159322D01*
X140329975Y-112271011D01*
X140335838Y-112273548D01*
X140502825Y-112345810D01*
X140502829Y-112345811D01*
X140508684Y-112348345D01*
X140514931Y-112349650D01*
X140514934Y-112349651D01*
X140694557Y-112387176D01*
X140694562Y-112387177D01*
X140699293Y-112388165D01*
X140705685Y-112388500D01*
X140848663Y-112388500D01*
X140917951Y-112381462D01*
X140987378Y-112374410D01*
X140987379Y-112374410D01*
X140993727Y-112373765D01*
X141074843Y-112348345D01*
X141173451Y-112317444D01*
X141173456Y-112317442D01*
X141179541Y-112315535D01*
X141266475Y-112267346D01*
X141344271Y-112224223D01*
X141344274Y-112224221D01*
X141349850Y-112221130D01*
X141354691Y-112216981D01*
X141354695Y-112216978D01*
X141492855Y-112098560D01*
X141497698Y-112094409D01*
X141510986Y-112077279D01*
X141613131Y-111945594D01*
X141617046Y-111940547D01*
X141626060Y-111922228D01*
X141674082Y-111869936D01*
X141742751Y-111851907D01*
X141810266Y-111873866D01*
X141828211Y-111888760D01*
X142729595Y-112790144D01*
X142763621Y-112852456D01*
X142766500Y-112879239D01*
X142766500Y-113119710D01*
X142746498Y-113187831D01*
X142734136Y-113204020D01*
X142644235Y-113303866D01*
X142635960Y-113313056D01*
X142632659Y-113318774D01*
X142548647Y-113464287D01*
X142540473Y-113478444D01*
X142481458Y-113660072D01*
X142461496Y-113850000D01*
X142462186Y-113856565D01*
X142480768Y-114033368D01*
X142480769Y-114033373D01*
X142481458Y-114039928D01*
X142482000Y-114041597D01*
X142476733Y-114110597D01*
X142433915Y-114167229D01*
X142367277Y-114191721D01*
X142358890Y-114192000D01*
X109609000Y-114192000D01*
X109540879Y-114171998D01*
X109494386Y-114118342D01*
X109483000Y-114066000D01*
X109483000Y-111950000D01*
X116736496Y-111950000D01*
X116756458Y-112139928D01*
X116815473Y-112321556D01*
X116910960Y-112486944D01*
X117038747Y-112628866D01*
X117056621Y-112641852D01*
X117176385Y-112728866D01*
X117193248Y-112741118D01*
X117199276Y-112743802D01*
X117199278Y-112743803D01*
X117361681Y-112816109D01*
X117367712Y-112818794D01*
X117454479Y-112837237D01*
X117548056Y-112857128D01*
X117548061Y-112857128D01*
X117554513Y-112858500D01*
X117745487Y-112858500D01*
X117751939Y-112857128D01*
X117751944Y-112857128D01*
X117845521Y-112837237D01*
X117932288Y-112818794D01*
X117938319Y-112816109D01*
X118100722Y-112743803D01*
X118100724Y-112743802D01*
X118106752Y-112741118D01*
X118123616Y-112728866D01*
X118243379Y-112641852D01*
X118261253Y-112628866D01*
X118389040Y-112486944D01*
X118484527Y-112321556D01*
X118543542Y-112139928D01*
X118552994Y-112050000D01*
X119486496Y-112050000D01*
X119487186Y-112056565D01*
X119496608Y-112146206D01*
X119506458Y-112239928D01*
X119565473Y-112421556D01*
X119660960Y-112586944D01*
X119665378Y-112591851D01*
X119665379Y-112591852D01*
X119702203Y-112632749D01*
X119788747Y-112728866D01*
X119857566Y-112778866D01*
X119915842Y-112821206D01*
X119943248Y-112841118D01*
X119949276Y-112843802D01*
X119949278Y-112843803D01*
X120046833Y-112887237D01*
X120117712Y-112918794D01*
X120211113Y-112938647D01*
X120298056Y-112957128D01*
X120298061Y-112957128D01*
X120304513Y-112958500D01*
X120495487Y-112958500D01*
X120501939Y-112957128D01*
X120501944Y-112957128D01*
X120588887Y-112938647D01*
X120682288Y-112918794D01*
X120753167Y-112887237D01*
X120850722Y-112843803D01*
X120850724Y-112843802D01*
X120856752Y-112841118D01*
X120884159Y-112821206D01*
X120942434Y-112778866D01*
X121011253Y-112728866D01*
X121097797Y-112632749D01*
X121134621Y-112591852D01*
X121134622Y-112591851D01*
X121139040Y-112586944D01*
X121176447Y-112522153D01*
X121227829Y-112473160D01*
X121297543Y-112459724D01*
X121363454Y-112486110D01*
X121394685Y-112522153D01*
X121460960Y-112636944D01*
X121465378Y-112641851D01*
X121465379Y-112641852D01*
X121557176Y-112743803D01*
X121588747Y-112778866D01*
X121743248Y-112891118D01*
X121749276Y-112893802D01*
X121749278Y-112893803D01*
X121894591Y-112958500D01*
X121917712Y-112968794D01*
X122009466Y-112988297D01*
X122098056Y-113007128D01*
X122098061Y-113007128D01*
X122104513Y-113008500D01*
X122295487Y-113008500D01*
X122301939Y-113007128D01*
X122301944Y-113007128D01*
X122390534Y-112988297D01*
X122482288Y-112968794D01*
X122505409Y-112958500D01*
X122650722Y-112893803D01*
X122650724Y-112893802D01*
X122656752Y-112891118D01*
X122811253Y-112778866D01*
X122842824Y-112743803D01*
X122934621Y-112641852D01*
X122934622Y-112641851D01*
X122939040Y-112636944D01*
X123034527Y-112471556D01*
X123093542Y-112289928D01*
X123095916Y-112267346D01*
X123112814Y-112106565D01*
X123113504Y-112100000D01*
X123097739Y-111950000D01*
X123094232Y-111916635D01*
X123094232Y-111916633D01*
X123093542Y-111910072D01*
X123034527Y-111728444D01*
X122939040Y-111563056D01*
X122899169Y-111518774D01*
X122861613Y-111477064D01*
X136837707Y-111477064D01*
X136866825Y-111669599D01*
X136869028Y-111675585D01*
X136869029Y-111675591D01*
X136931860Y-111846360D01*
X136931862Y-111846365D01*
X136934063Y-111852346D01*
X137036674Y-112017840D01*
X137041055Y-112022473D01*
X137041056Y-112022474D01*
X137145920Y-112133365D01*
X137170466Y-112159322D01*
X137329975Y-112271011D01*
X137335838Y-112273548D01*
X137502825Y-112345810D01*
X137502829Y-112345811D01*
X137508684Y-112348345D01*
X137514931Y-112349650D01*
X137514934Y-112349651D01*
X137694557Y-112387176D01*
X137694562Y-112387177D01*
X137699293Y-112388165D01*
X137705685Y-112388500D01*
X137848663Y-112388500D01*
X137917951Y-112381462D01*
X137987378Y-112374410D01*
X137987379Y-112374410D01*
X137993727Y-112373765D01*
X138074843Y-112348345D01*
X138173451Y-112317444D01*
X138173456Y-112317442D01*
X138179541Y-112315535D01*
X138266475Y-112267346D01*
X138344271Y-112224223D01*
X138344274Y-112224221D01*
X138349850Y-112221130D01*
X138354691Y-112216981D01*
X138354695Y-112216978D01*
X138492855Y-112098560D01*
X138497698Y-112094409D01*
X138510986Y-112077279D01*
X138613131Y-111945594D01*
X138617046Y-111940547D01*
X138628813Y-111916635D01*
X138700200Y-111771556D01*
X138703018Y-111765829D01*
X138720165Y-111700000D01*
X138750492Y-111583575D01*
X138750492Y-111583572D01*
X138752102Y-111577393D01*
X138760291Y-111421134D01*
X138761959Y-111389317D01*
X138761959Y-111389313D01*
X138762293Y-111382936D01*
X138733175Y-111190401D01*
X138730972Y-111184415D01*
X138730971Y-111184409D01*
X138668140Y-111013640D01*
X138668138Y-111013635D01*
X138665937Y-111007654D01*
X138563326Y-110842160D01*
X138534525Y-110811703D01*
X138433919Y-110705315D01*
X138429534Y-110700678D01*
X138270025Y-110588989D01*
X138193584Y-110555910D01*
X138097175Y-110514190D01*
X138097171Y-110514189D01*
X138091316Y-110511655D01*
X138085069Y-110510350D01*
X138085066Y-110510349D01*
X137905443Y-110472824D01*
X137905438Y-110472823D01*
X137900707Y-110471835D01*
X137894315Y-110471500D01*
X137751337Y-110471500D01*
X137682049Y-110478538D01*
X137612622Y-110485590D01*
X137612621Y-110485590D01*
X137606273Y-110486235D01*
X137549939Y-110503889D01*
X137426549Y-110542556D01*
X137426544Y-110542558D01*
X137420459Y-110544465D01*
X137344713Y-110586452D01*
X137255729Y-110635777D01*
X137255726Y-110635779D01*
X137250150Y-110638870D01*
X137245309Y-110643019D01*
X137245305Y-110643022D01*
X137200578Y-110681358D01*
X137102302Y-110765591D01*
X137098391Y-110770633D01*
X137098390Y-110770634D01*
X137073056Y-110803295D01*
X136982954Y-110919453D01*
X136980138Y-110925176D01*
X136980136Y-110925179D01*
X136904037Y-111079834D01*
X136896982Y-111094171D01*
X136895373Y-111100349D01*
X136895372Y-111100351D01*
X136873445Y-111184532D01*
X136847898Y-111282607D01*
X136847564Y-111288986D01*
X136840842Y-111417251D01*
X136837707Y-111477064D01*
X122861613Y-111477064D01*
X122815675Y-111426045D01*
X122815674Y-111426044D01*
X122811253Y-111421134D01*
X122656752Y-111308882D01*
X122650726Y-111306199D01*
X122650719Y-111306195D01*
X122571968Y-111271134D01*
X122566666Y-111268774D01*
X122512571Y-111222795D01*
X122491921Y-111154868D01*
X122511273Y-111086559D01*
X122528820Y-111064572D01*
X123698466Y-109894926D01*
X123760778Y-109860900D01*
X123787561Y-109858021D01*
X135191265Y-109858021D01*
X135192585Y-109858028D01*
X135282700Y-109858972D01*
X135325076Y-109849810D01*
X135337642Y-109847752D01*
X135380734Y-109842918D01*
X135387385Y-109840602D01*
X135387389Y-109840601D01*
X135412409Y-109831888D01*
X135427221Y-109827725D01*
X135453098Y-109822130D01*
X135459989Y-109820640D01*
X135499292Y-109802313D01*
X135511068Y-109797531D01*
X135552031Y-109783266D01*
X135558006Y-109779532D01*
X135558009Y-109779531D01*
X135580474Y-109765494D01*
X135593991Y-109758155D01*
X135617993Y-109746962D01*
X135617994Y-109746961D01*
X135624381Y-109743983D01*
X135658632Y-109717415D01*
X135669091Y-109710119D01*
X135699883Y-109690879D01*
X135699886Y-109690877D01*
X135705855Y-109687147D01*
X135734658Y-109658545D01*
X135735283Y-109657960D01*
X135735949Y-109657443D01*
X135761939Y-109631453D01*
X135834561Y-109559336D01*
X135835219Y-109558299D01*
X135836322Y-109557070D01*
X136301912Y-109091480D01*
X136339758Y-109065468D01*
X136340201Y-109065271D01*
X136403092Y-109037270D01*
X136500722Y-108993803D01*
X136500724Y-108993802D01*
X136506752Y-108991118D01*
X136661253Y-108878866D01*
X136789040Y-108736944D01*
X136884527Y-108571556D01*
X136943542Y-108389928D01*
X136944415Y-108381627D01*
X136962814Y-108206565D01*
X136963504Y-108200000D01*
X136954609Y-108115369D01*
X136944232Y-108016635D01*
X136944232Y-108016633D01*
X136943542Y-108010072D01*
X136884527Y-107828444D01*
X136863990Y-107792872D01*
X136809620Y-107698702D01*
X136789040Y-107663056D01*
X136661253Y-107521134D01*
X136562157Y-107449136D01*
X136512094Y-107412763D01*
X136512093Y-107412762D01*
X136506752Y-107408882D01*
X136500724Y-107406198D01*
X136500722Y-107406197D01*
X136338319Y-107333891D01*
X136338318Y-107333891D01*
X136332288Y-107331206D01*
X136238888Y-107311353D01*
X136151944Y-107292872D01*
X136151939Y-107292872D01*
X136145487Y-107291500D01*
X135954513Y-107291500D01*
X135948061Y-107292872D01*
X135948056Y-107292872D01*
X135861112Y-107311353D01*
X135767712Y-107331206D01*
X135761682Y-107333891D01*
X135761681Y-107333891D01*
X135599278Y-107406197D01*
X135599276Y-107406198D01*
X135593248Y-107408882D01*
X135587907Y-107412762D01*
X135587906Y-107412763D01*
X135537843Y-107449136D01*
X135438747Y-107521134D01*
X135310960Y-107663056D01*
X135215473Y-107828444D01*
X135213433Y-107834724D01*
X135213432Y-107834725D01*
X135194646Y-107892542D01*
X135163908Y-107942700D01*
X134902492Y-108204116D01*
X134840180Y-108238142D01*
X134813397Y-108241021D01*
X134456074Y-108241021D01*
X134387953Y-108221019D01*
X134341460Y-108167363D01*
X134330316Y-108107219D01*
X134334732Y-108036051D01*
X134339503Y-107959138D01*
X134336679Y-107942700D01*
X134311106Y-107793875D01*
X134311105Y-107793873D01*
X134309866Y-107786660D01*
X134241346Y-107625627D01*
X134137617Y-107484676D01*
X134132039Y-107479937D01*
X134132036Y-107479934D01*
X134009824Y-107376107D01*
X134009820Y-107376104D01*
X134004245Y-107371368D01*
X133920062Y-107328382D01*
X133854900Y-107295108D01*
X133854898Y-107295107D01*
X133848384Y-107291781D01*
X133841279Y-107290042D01*
X133841275Y-107290041D01*
X133747741Y-107267154D01*
X133678394Y-107250185D01*
X133672794Y-107249838D01*
X133672790Y-107249837D01*
X133669291Y-107249620D01*
X133669282Y-107249620D01*
X133667352Y-107249500D01*
X133541178Y-107249500D01*
X133449631Y-107260173D01*
X133418444Y-107263809D01*
X133418442Y-107263809D01*
X133411172Y-107264657D01*
X133404295Y-107267153D01*
X133404292Y-107267154D01*
X133333441Y-107292872D01*
X133246669Y-107324369D01*
X133100315Y-107420323D01*
X132979960Y-107547372D01*
X132892061Y-107698702D01*
X132841333Y-107866193D01*
X132830497Y-108040862D01*
X132831737Y-108048077D01*
X132831737Y-108048082D01*
X132839573Y-108093684D01*
X132831396Y-108164208D01*
X132786388Y-108219115D01*
X132715393Y-108241021D01*
X123409693Y-108241021D01*
X123408373Y-108241014D01*
X123407298Y-108241003D01*
X123318258Y-108240070D01*
X123275882Y-108249232D01*
X123263316Y-108251290D01*
X123220224Y-108256124D01*
X123213573Y-108258440D01*
X123213569Y-108258441D01*
X123188549Y-108267154D01*
X123173736Y-108271317D01*
X123140969Y-108278402D01*
X123101666Y-108296729D01*
X123089890Y-108301511D01*
X123048927Y-108315776D01*
X123042952Y-108319510D01*
X123042949Y-108319511D01*
X123020484Y-108333548D01*
X123006967Y-108340887D01*
X122982965Y-108352080D01*
X122976577Y-108355059D01*
X122971012Y-108359376D01*
X122971010Y-108359377D01*
X122942326Y-108381627D01*
X122931867Y-108388923D01*
X122901075Y-108408163D01*
X122901072Y-108408165D01*
X122895103Y-108411895D01*
X122890108Y-108416855D01*
X122890107Y-108416856D01*
X122866300Y-108440497D01*
X122865675Y-108441082D01*
X122865009Y-108441599D01*
X122839019Y-108467589D01*
X122766397Y-108539706D01*
X122765739Y-108540743D01*
X122764636Y-108541972D01*
X120148088Y-111158520D01*
X120110242Y-111184532D01*
X119949278Y-111256197D01*
X119949276Y-111256198D01*
X119943248Y-111258882D01*
X119937907Y-111262762D01*
X119937906Y-111262763D01*
X119887843Y-111299136D01*
X119788747Y-111371134D01*
X119784326Y-111376044D01*
X119784325Y-111376045D01*
X119687679Y-111483382D01*
X119660960Y-111513056D01*
X119565473Y-111678444D01*
X119506458Y-111860072D01*
X119486496Y-112050000D01*
X118552994Y-112050000D01*
X118563504Y-111950000D01*
X118557190Y-111889928D01*
X118544232Y-111766635D01*
X118544232Y-111766633D01*
X118543542Y-111760072D01*
X118484527Y-111578444D01*
X118389040Y-111413056D01*
X118367666Y-111389317D01*
X118265675Y-111276045D01*
X118265674Y-111276044D01*
X118261253Y-111271134D01*
X118106752Y-111158882D01*
X118100724Y-111156198D01*
X118100722Y-111156197D01*
X117938319Y-111083891D01*
X117938318Y-111083891D01*
X117932288Y-111081206D01*
X117838887Y-111061353D01*
X117751944Y-111042872D01*
X117751939Y-111042872D01*
X117745487Y-111041500D01*
X117554513Y-111041500D01*
X117548061Y-111042872D01*
X117548056Y-111042872D01*
X117461113Y-111061353D01*
X117367712Y-111081206D01*
X117361682Y-111083891D01*
X117361681Y-111083891D01*
X117199278Y-111156197D01*
X117199276Y-111156198D01*
X117193248Y-111158882D01*
X117038747Y-111271134D01*
X117034326Y-111276044D01*
X117034325Y-111276045D01*
X116932335Y-111389317D01*
X116910960Y-111413056D01*
X116815473Y-111578444D01*
X116756458Y-111760072D01*
X116755768Y-111766633D01*
X116755768Y-111766635D01*
X116742810Y-111889928D01*
X116736496Y-111950000D01*
X109483000Y-111950000D01*
X109483000Y-110334000D01*
X109503002Y-110265879D01*
X109556658Y-110219386D01*
X109609000Y-110208000D01*
X114966298Y-110208000D01*
X114967069Y-110208002D01*
X115044652Y-110208476D01*
X115053281Y-110206010D01*
X115053286Y-110206009D01*
X115073048Y-110200361D01*
X115089809Y-110196783D01*
X115110152Y-110193870D01*
X115110162Y-110193867D01*
X115119045Y-110192595D01*
X115142395Y-110181979D01*
X115159907Y-110175536D01*
X115175937Y-110170954D01*
X115184565Y-110168488D01*
X115209548Y-110152726D01*
X115224614Y-110144596D01*
X115251510Y-110132367D01*
X115270939Y-110115626D01*
X115285947Y-110104521D01*
X115300039Y-110095630D01*
X115307631Y-110090840D01*
X115327182Y-110068703D01*
X115339374Y-110056659D01*
X115354949Y-110043239D01*
X115354950Y-110043237D01*
X115361747Y-110037381D01*
X115366626Y-110029853D01*
X115366629Y-110029850D01*
X115375696Y-110015861D01*
X115386986Y-110000987D01*
X115398012Y-109988502D01*
X115403956Y-109981772D01*
X115416510Y-109955034D01*
X115424824Y-109940065D01*
X115440893Y-109915273D01*
X115448239Y-109890709D01*
X115454901Y-109873264D01*
X115461984Y-109858178D01*
X115461984Y-109858177D01*
X115465799Y-109850052D01*
X115470343Y-109820870D01*
X115474126Y-109804151D01*
X115480014Y-109784464D01*
X115480015Y-109784461D01*
X115482587Y-109775859D01*
X115482797Y-109741444D01*
X115482830Y-109740672D01*
X115483000Y-109739577D01*
X115483000Y-109708702D01*
X115483002Y-109707932D01*
X115483452Y-109634284D01*
X115483452Y-109634283D01*
X115483476Y-109630348D01*
X115483092Y-109629004D01*
X115483000Y-109627659D01*
X115483000Y-106539669D01*
X128577001Y-106539669D01*
X128577371Y-106546490D01*
X128582895Y-106597352D01*
X128586521Y-106612604D01*
X128631676Y-106733054D01*
X128640214Y-106748649D01*
X128716715Y-106850724D01*
X128729276Y-106863285D01*
X128831351Y-106939786D01*
X128846946Y-106948324D01*
X128967394Y-106993478D01*
X128982649Y-106997105D01*
X129033514Y-107002631D01*
X129040328Y-107003000D01*
X130391885Y-107003000D01*
X130407124Y-106998525D01*
X130408329Y-106997135D01*
X130410000Y-106989452D01*
X130410000Y-106984884D01*
X130760000Y-106984884D01*
X130764475Y-107000123D01*
X130765865Y-107001328D01*
X130773548Y-107002999D01*
X132129669Y-107002999D01*
X132136490Y-107002629D01*
X132187352Y-106997105D01*
X132202604Y-106993479D01*
X132323054Y-106948324D01*
X132338649Y-106939786D01*
X132440724Y-106863285D01*
X132453285Y-106850724D01*
X132529786Y-106748649D01*
X132538324Y-106733054D01*
X132583478Y-106612606D01*
X132587105Y-106597351D01*
X132592631Y-106546486D01*
X132593000Y-106539672D01*
X132593000Y-106513115D01*
X132588525Y-106497876D01*
X132587135Y-106496671D01*
X132579452Y-106495000D01*
X130778115Y-106495000D01*
X130762876Y-106499475D01*
X130761671Y-106500865D01*
X130760000Y-106508548D01*
X130760000Y-106984884D01*
X130410000Y-106984884D01*
X130410000Y-106513115D01*
X130405525Y-106497876D01*
X130404135Y-106496671D01*
X130396452Y-106495000D01*
X128595116Y-106495000D01*
X128579877Y-106499475D01*
X128578672Y-106500865D01*
X128577001Y-106508548D01*
X128577001Y-106539669D01*
X115483000Y-106539669D01*
X115483000Y-102150140D01*
X126486250Y-102150140D01*
X126491500Y-102190020D01*
X126491500Y-102190025D01*
X126502778Y-102275692D01*
X126507162Y-102308991D01*
X126568476Y-102457016D01*
X126573503Y-102463567D01*
X126573504Y-102463569D01*
X126641520Y-102552209D01*
X126641526Y-102552215D01*
X126666013Y-102584127D01*
X126672568Y-102589157D01*
X126691379Y-102603592D01*
X126703770Y-102614459D01*
X126793089Y-102703778D01*
X126827115Y-102766090D01*
X126829649Y-102789664D01*
X126829304Y-102792948D01*
X126829994Y-102799513D01*
X126837274Y-102868774D01*
X126849266Y-102982876D01*
X126908281Y-103164504D01*
X127003768Y-103329892D01*
X127008186Y-103334799D01*
X127008187Y-103334800D01*
X127127133Y-103466903D01*
X127131555Y-103471814D01*
X127286056Y-103584066D01*
X127292084Y-103586750D01*
X127292086Y-103586751D01*
X127454489Y-103659057D01*
X127460520Y-103661742D01*
X127553920Y-103681595D01*
X127640864Y-103700076D01*
X127640869Y-103700076D01*
X127647321Y-103701448D01*
X127838295Y-103701448D01*
X127844747Y-103700076D01*
X127844752Y-103700076D01*
X127931696Y-103681595D01*
X128025096Y-103661742D01*
X128059131Y-103646589D01*
X128125838Y-103616889D01*
X128196205Y-103607455D01*
X128260502Y-103637562D01*
X128298316Y-103697650D01*
X128297640Y-103768644D01*
X128266182Y-103821091D01*
X128057930Y-104029343D01*
X127995032Y-104063495D01*
X127842175Y-104095986D01*
X127836145Y-104098671D01*
X127836144Y-104098671D01*
X127673741Y-104170977D01*
X127673739Y-104170978D01*
X127667711Y-104173662D01*
X127513210Y-104285914D01*
X127508789Y-104290824D01*
X127508788Y-104290825D01*
X127464848Y-104339626D01*
X127385423Y-104427836D01*
X127343761Y-104499997D01*
X127295035Y-104584393D01*
X127289936Y-104593224D01*
X127230921Y-104774852D01*
X127210959Y-104964780D01*
X127230921Y-105154708D01*
X127289936Y-105336336D01*
X127385423Y-105501724D01*
X127389841Y-105506631D01*
X127389842Y-105506632D01*
X127441076Y-105563533D01*
X127513210Y-105643646D01*
X127667711Y-105755898D01*
X127673739Y-105758582D01*
X127673741Y-105758583D01*
X127836144Y-105830889D01*
X127842175Y-105833574D01*
X127925075Y-105851195D01*
X128022519Y-105871908D01*
X128022524Y-105871908D01*
X128028976Y-105873280D01*
X128219950Y-105873280D01*
X128226402Y-105871908D01*
X128226407Y-105871908D01*
X128323851Y-105851195D01*
X128406751Y-105833574D01*
X128412784Y-105830888D01*
X128412790Y-105830886D01*
X128413615Y-105830519D01*
X128414135Y-105830449D01*
X128419063Y-105828848D01*
X128419356Y-105829749D01*
X128483982Y-105821086D01*
X128548278Y-105851195D01*
X128581243Y-105906145D01*
X128583747Y-105905206D01*
X128591456Y-105925769D01*
X128596640Y-105996576D01*
X128591456Y-106014231D01*
X128586523Y-106027390D01*
X128582895Y-106042649D01*
X128577369Y-106093514D01*
X128577000Y-106100328D01*
X128577000Y-106126885D01*
X128581475Y-106142124D01*
X128582865Y-106143329D01*
X128590548Y-106145000D01*
X130391885Y-106145000D01*
X130407124Y-106140525D01*
X130408329Y-106139135D01*
X130410000Y-106131452D01*
X130410000Y-105754500D01*
X130430002Y-105686379D01*
X130483658Y-105639886D01*
X130536000Y-105628500D01*
X130628003Y-105628500D01*
X130631768Y-105628044D01*
X130635421Y-105627824D01*
X130704622Y-105643688D01*
X130754261Y-105694447D01*
X130768578Y-105763985D01*
X130766128Y-105780378D01*
X130760000Y-105808548D01*
X130760000Y-106126885D01*
X130764475Y-106142124D01*
X130765865Y-106143329D01*
X130773548Y-106145000D01*
X132574884Y-106145000D01*
X132590123Y-106140525D01*
X132591328Y-106139135D01*
X132592999Y-106131452D01*
X132592999Y-106100331D01*
X132592981Y-106100000D01*
X136586496Y-106100000D01*
X136587186Y-106106565D01*
X136602704Y-106254207D01*
X136606458Y-106289928D01*
X136665473Y-106471556D01*
X136668776Y-106477278D01*
X136668777Y-106477279D01*
X136686830Y-106508548D01*
X136760960Y-106636944D01*
X136765378Y-106641851D01*
X136765379Y-106641852D01*
X136884325Y-106773955D01*
X136888747Y-106778866D01*
X136987651Y-106850724D01*
X137028912Y-106880702D01*
X137043248Y-106891118D01*
X137049276Y-106893802D01*
X137049278Y-106893803D01*
X137171735Y-106948324D01*
X137217712Y-106968794D01*
X137311112Y-106988647D01*
X137398056Y-107007128D01*
X137398061Y-107007128D01*
X137404513Y-107008500D01*
X137595487Y-107008500D01*
X137601939Y-107007128D01*
X137601944Y-107007128D01*
X137688888Y-106988647D01*
X137782288Y-106968794D01*
X137828265Y-106948324D01*
X137950722Y-106893803D01*
X137950724Y-106893802D01*
X137956752Y-106891118D01*
X137971089Y-106880702D01*
X138012349Y-106850724D01*
X138111253Y-106778866D01*
X138115675Y-106773955D01*
X138234621Y-106641852D01*
X138234622Y-106641851D01*
X138239040Y-106636944D01*
X138313170Y-106508548D01*
X138331223Y-106477279D01*
X138331224Y-106477278D01*
X138334527Y-106471556D01*
X138393542Y-106289928D01*
X138397297Y-106254207D01*
X138412814Y-106106565D01*
X138413504Y-106100000D01*
X138405873Y-106027393D01*
X138394232Y-105916635D01*
X138394232Y-105916633D01*
X138393542Y-105910072D01*
X138334527Y-105728444D01*
X138239040Y-105563056D01*
X138233893Y-105557339D01*
X138115675Y-105426045D01*
X138115674Y-105426044D01*
X138111253Y-105421134D01*
X137956752Y-105308882D01*
X137950724Y-105306198D01*
X137950722Y-105306197D01*
X137788319Y-105233891D01*
X137788318Y-105233891D01*
X137782288Y-105231206D01*
X137688888Y-105211353D01*
X137601944Y-105192872D01*
X137601939Y-105192872D01*
X137595487Y-105191500D01*
X137404513Y-105191500D01*
X137398061Y-105192872D01*
X137398056Y-105192872D01*
X137311113Y-105211353D01*
X137217712Y-105231206D01*
X137211682Y-105233891D01*
X137211681Y-105233891D01*
X137049278Y-105306197D01*
X137049276Y-105306198D01*
X137043248Y-105308882D01*
X136888747Y-105421134D01*
X136884326Y-105426044D01*
X136884325Y-105426045D01*
X136766108Y-105557339D01*
X136760960Y-105563056D01*
X136665473Y-105728444D01*
X136606458Y-105910072D01*
X136605768Y-105916633D01*
X136605768Y-105916635D01*
X136594127Y-106027393D01*
X136586496Y-106100000D01*
X132592981Y-106100000D01*
X132592629Y-106093510D01*
X132587105Y-106042648D01*
X132583478Y-106027393D01*
X132578544Y-106014231D01*
X132573360Y-105943424D01*
X132578544Y-105925769D01*
X132583477Y-105912610D01*
X132587105Y-105897351D01*
X132592631Y-105846486D01*
X132593000Y-105839672D01*
X132593000Y-105813115D01*
X132588525Y-105797876D01*
X132587135Y-105796671D01*
X132579452Y-105795000D01*
X130962782Y-105795000D01*
X130894661Y-105774998D01*
X130848168Y-105721342D01*
X130838064Y-105651068D01*
X130867558Y-105586488D01*
X130904406Y-105557339D01*
X130908553Y-105555171D01*
X130915656Y-105552487D01*
X130935083Y-105539135D01*
X131039808Y-105467160D01*
X131111175Y-105445000D01*
X132574884Y-105445000D01*
X132590123Y-105440525D01*
X132591328Y-105439135D01*
X132592999Y-105431452D01*
X132592999Y-105400331D01*
X132592629Y-105393510D01*
X132587105Y-105342648D01*
X132583479Y-105327396D01*
X132538324Y-105206946D01*
X132529786Y-105191351D01*
X132453285Y-105089276D01*
X132440724Y-105076715D01*
X132338646Y-105000212D01*
X132320991Y-104990546D01*
X132270845Y-104940287D01*
X132255500Y-104880027D01*
X132255499Y-104734399D01*
X132255499Y-104728210D01*
X132245607Y-104678474D01*
X132219901Y-104640003D01*
X132198686Y-104572250D01*
X132219901Y-104499997D01*
X132238713Y-104471843D01*
X132245607Y-104461526D01*
X132255500Y-104411791D01*
X132255500Y-104259973D01*
X132275501Y-104191854D01*
X132320991Y-104149453D01*
X132338649Y-104139786D01*
X132440724Y-104063285D01*
X132453285Y-104050724D01*
X132529786Y-103948649D01*
X132538324Y-103933054D01*
X132583478Y-103812606D01*
X132587105Y-103797351D01*
X132592631Y-103746486D01*
X132593000Y-103739672D01*
X132593000Y-103713115D01*
X132588525Y-103697876D01*
X132587135Y-103696671D01*
X132579452Y-103695000D01*
X131110072Y-103695000D01*
X131037621Y-103672087D01*
X131022902Y-103661742D01*
X130922261Y-103591010D01*
X130915180Y-103588249D01*
X130908490Y-103584662D01*
X130909142Y-103583447D01*
X130859347Y-103545011D01*
X130835521Y-103478132D01*
X130851635Y-103408988D01*
X130902573Y-103359533D01*
X130961319Y-103345000D01*
X132574884Y-103345000D01*
X132590123Y-103340525D01*
X132591328Y-103339135D01*
X132592999Y-103331452D01*
X132592999Y-103300331D01*
X132592629Y-103293510D01*
X132587105Y-103242648D01*
X132583478Y-103227393D01*
X132578544Y-103214231D01*
X132573360Y-103143424D01*
X132578544Y-103125769D01*
X132583477Y-103112610D01*
X132587105Y-103097351D01*
X132592631Y-103046486D01*
X132593000Y-103039672D01*
X132593000Y-103013115D01*
X132588525Y-102997876D01*
X132587135Y-102996671D01*
X132579452Y-102995000D01*
X130778115Y-102995000D01*
X130762876Y-102999475D01*
X130761671Y-103000865D01*
X130760000Y-103008548D01*
X130760000Y-103326885D01*
X130767066Y-103350950D01*
X130767066Y-103421947D01*
X130728682Y-103481673D01*
X130664101Y-103511166D01*
X130637929Y-103512178D01*
X130635792Y-103512038D01*
X130631706Y-103511500D01*
X130536000Y-103511500D01*
X130467879Y-103491498D01*
X130421386Y-103437842D01*
X130410000Y-103385500D01*
X130410000Y-102854500D01*
X130430002Y-102786379D01*
X130483658Y-102739886D01*
X130536000Y-102728500D01*
X130624885Y-102728500D01*
X130680836Y-102721134D01*
X130735662Y-102713916D01*
X130743850Y-102712838D01*
X130751477Y-102709679D01*
X130751480Y-102709678D01*
X130884471Y-102654591D01*
X130932689Y-102645000D01*
X132574884Y-102645000D01*
X132590123Y-102640525D01*
X132591328Y-102639135D01*
X132592999Y-102631452D01*
X132592999Y-102600331D01*
X132592629Y-102593510D01*
X132587105Y-102542648D01*
X132583479Y-102527396D01*
X132538324Y-102406946D01*
X132529786Y-102391351D01*
X132453285Y-102289276D01*
X132440724Y-102276715D01*
X132338646Y-102200212D01*
X132320991Y-102190546D01*
X132270845Y-102140287D01*
X132255500Y-102080027D01*
X132255499Y-101934399D01*
X132255499Y-101928210D01*
X132245607Y-101878474D01*
X132219901Y-101840003D01*
X132198686Y-101772250D01*
X132219901Y-101699997D01*
X132238713Y-101671843D01*
X132245607Y-101661526D01*
X132255500Y-101611791D01*
X132255499Y-101228210D01*
X132245607Y-101178474D01*
X132219901Y-101140003D01*
X132198686Y-101072250D01*
X132219901Y-100999997D01*
X132238713Y-100971843D01*
X132245607Y-100961526D01*
X132255500Y-100911791D01*
X132255499Y-100528210D01*
X132245607Y-100478474D01*
X132219901Y-100440003D01*
X132198686Y-100372250D01*
X132219901Y-100299997D01*
X132238713Y-100271843D01*
X132245607Y-100261526D01*
X132255500Y-100211791D01*
X132255499Y-99828210D01*
X132245607Y-99778474D01*
X132219901Y-99740003D01*
X132198686Y-99672250D01*
X132219901Y-99599997D01*
X132238713Y-99571843D01*
X132245607Y-99561526D01*
X132255500Y-99511791D01*
X132255500Y-99359973D01*
X132275501Y-99291854D01*
X132320991Y-99249453D01*
X132338649Y-99239786D01*
X132440724Y-99163285D01*
X132453285Y-99150724D01*
X132529786Y-99048649D01*
X132538324Y-99033054D01*
X132583478Y-98912606D01*
X132587105Y-98897351D01*
X132592631Y-98846486D01*
X132593000Y-98839672D01*
X132593000Y-98813115D01*
X132588525Y-98797876D01*
X132587135Y-98796671D01*
X132579452Y-98795000D01*
X130932689Y-98795000D01*
X130884471Y-98785409D01*
X130751480Y-98730322D01*
X130751477Y-98730321D01*
X130743850Y-98727162D01*
X130624885Y-98711500D01*
X130536000Y-98711500D01*
X130467879Y-98691498D01*
X130421386Y-98637842D01*
X130410000Y-98585500D01*
X130410000Y-98426885D01*
X130760000Y-98426885D01*
X130764475Y-98442124D01*
X130765865Y-98443329D01*
X130773548Y-98445000D01*
X132574884Y-98445000D01*
X132590123Y-98440525D01*
X132591328Y-98439135D01*
X132592999Y-98431452D01*
X132592999Y-98400331D01*
X132592629Y-98393510D01*
X132587105Y-98342648D01*
X132583479Y-98327396D01*
X132538324Y-98206946D01*
X132529786Y-98191351D01*
X132453285Y-98089276D01*
X132440724Y-98076715D01*
X132392885Y-98040862D01*
X132830497Y-98040862D01*
X132831737Y-98048078D01*
X132831737Y-98048080D01*
X132858894Y-98206125D01*
X132860134Y-98213340D01*
X132928654Y-98374373D01*
X133032383Y-98515324D01*
X133037961Y-98520063D01*
X133037964Y-98520066D01*
X133160176Y-98623893D01*
X133160180Y-98623896D01*
X133165755Y-98628632D01*
X133183792Y-98637842D01*
X133262687Y-98678128D01*
X133321616Y-98708219D01*
X133328721Y-98709958D01*
X133328725Y-98709959D01*
X133399030Y-98727162D01*
X133491606Y-98749815D01*
X133497206Y-98750162D01*
X133497210Y-98750163D01*
X133500709Y-98750380D01*
X133500718Y-98750380D01*
X133502648Y-98750500D01*
X133628822Y-98750500D01*
X133720369Y-98739827D01*
X133751556Y-98736191D01*
X133751558Y-98736191D01*
X133758828Y-98735343D01*
X133765705Y-98732847D01*
X133765708Y-98732846D01*
X133916452Y-98678128D01*
X133923331Y-98675631D01*
X134069685Y-98579677D01*
X134190040Y-98452628D01*
X134277939Y-98301298D01*
X134328667Y-98133807D01*
X134339503Y-97959138D01*
X134336194Y-97939877D01*
X134311106Y-97793875D01*
X134311105Y-97793873D01*
X134309866Y-97786660D01*
X134241346Y-97625627D01*
X134137617Y-97484676D01*
X134132039Y-97479937D01*
X134132036Y-97479934D01*
X134009824Y-97376107D01*
X134009820Y-97376104D01*
X134004245Y-97371368D01*
X133920062Y-97328382D01*
X133854900Y-97295108D01*
X133854898Y-97295107D01*
X133848384Y-97291781D01*
X133841279Y-97290042D01*
X133841275Y-97290041D01*
X133747741Y-97267154D01*
X133678394Y-97250185D01*
X133672794Y-97249838D01*
X133672790Y-97249837D01*
X133669291Y-97249620D01*
X133669282Y-97249620D01*
X133667352Y-97249500D01*
X133541178Y-97249500D01*
X133449631Y-97260173D01*
X133418444Y-97263809D01*
X133418442Y-97263809D01*
X133411172Y-97264657D01*
X133404295Y-97267153D01*
X133404292Y-97267154D01*
X133330854Y-97293811D01*
X133246669Y-97324369D01*
X133100315Y-97420323D01*
X132979960Y-97547372D01*
X132892061Y-97698702D01*
X132841333Y-97866193D01*
X132830497Y-98040862D01*
X132392885Y-98040862D01*
X132338649Y-98000214D01*
X132323054Y-97991676D01*
X132202606Y-97946522D01*
X132187351Y-97942895D01*
X132136486Y-97937369D01*
X132129672Y-97937000D01*
X130778115Y-97937000D01*
X130762876Y-97941475D01*
X130761671Y-97942865D01*
X130760000Y-97950548D01*
X130760000Y-98426885D01*
X130410000Y-98426885D01*
X130410000Y-97955116D01*
X130405525Y-97939877D01*
X130404135Y-97938672D01*
X130396452Y-97937001D01*
X130327738Y-97937001D01*
X130259617Y-97916999D01*
X130213124Y-97863343D01*
X130203020Y-97793069D01*
X130232514Y-97728489D01*
X130238643Y-97721906D01*
X137365144Y-90595405D01*
X137427456Y-90561379D01*
X137454239Y-90558500D01*
X146019290Y-90558500D01*
X146087411Y-90578502D01*
X146112926Y-90600189D01*
X146138747Y-90628866D01*
X146293248Y-90741118D01*
X146299276Y-90743802D01*
X146299278Y-90743803D01*
X146461681Y-90816109D01*
X146467712Y-90818794D01*
X146533365Y-90832749D01*
X146648056Y-90857128D01*
X146648061Y-90857128D01*
X146654513Y-90858500D01*
X146845487Y-90858500D01*
X146851939Y-90857128D01*
X146851944Y-90857128D01*
X146966635Y-90832749D01*
X147032288Y-90818794D01*
X147038319Y-90816109D01*
X147200722Y-90743803D01*
X147200724Y-90743802D01*
X147206752Y-90741118D01*
X147361253Y-90628866D01*
X147388563Y-90598535D01*
X147484621Y-90491852D01*
X147484622Y-90491851D01*
X147489040Y-90486944D01*
X147584527Y-90321556D01*
X147641843Y-90145158D01*
X147642902Y-90141898D01*
X147682976Y-90083293D01*
X147710870Y-90071505D01*
X147686786Y-90053655D01*
X147661657Y-89987255D01*
X147661981Y-89964495D01*
X147662814Y-89956568D01*
X147662814Y-89956565D01*
X147663504Y-89950000D01*
X147652368Y-89844045D01*
X147644232Y-89766635D01*
X147644232Y-89766633D01*
X147643542Y-89760072D01*
X147584527Y-89578444D01*
X147570282Y-89553770D01*
X147520332Y-89467255D01*
X147489040Y-89413056D01*
X147430301Y-89347819D01*
X147365675Y-89276045D01*
X147365674Y-89276044D01*
X147361253Y-89271134D01*
X147206752Y-89158882D01*
X147200724Y-89156198D01*
X147200722Y-89156197D01*
X147038319Y-89083891D01*
X147038318Y-89083891D01*
X147032288Y-89081206D01*
X146938887Y-89061353D01*
X146851944Y-89042872D01*
X146851939Y-89042872D01*
X146845487Y-89041500D01*
X146654513Y-89041500D01*
X146648061Y-89042872D01*
X146648056Y-89042872D01*
X146561113Y-89061353D01*
X146467712Y-89081206D01*
X146461682Y-89083891D01*
X146461681Y-89083891D01*
X146299278Y-89156197D01*
X146299276Y-89156198D01*
X146293248Y-89158882D01*
X146287907Y-89162762D01*
X146287906Y-89162763D01*
X146177646Y-89242872D01*
X146138747Y-89271134D01*
X146134334Y-89276036D01*
X146134332Y-89276037D01*
X146112926Y-89299811D01*
X146052480Y-89337050D01*
X146019290Y-89341500D01*
X137198136Y-89341500D01*
X137181690Y-89340422D01*
X137158188Y-89337328D01*
X137150000Y-89336250D01*
X137141812Y-89337328D01*
X137110129Y-89341499D01*
X137110120Y-89341500D01*
X137110115Y-89341500D01*
X136991150Y-89357162D01*
X136843125Y-89418476D01*
X136843123Y-89418477D01*
X136843124Y-89418477D01*
X136747928Y-89491523D01*
X136747925Y-89491526D01*
X136716013Y-89516013D01*
X136710983Y-89522568D01*
X136696548Y-89541379D01*
X136685681Y-89553770D01*
X127834856Y-98404595D01*
X127772544Y-98438621D01*
X127745761Y-98441500D01*
X127654513Y-98441500D01*
X127648061Y-98442872D01*
X127648056Y-98442872D01*
X127561112Y-98461353D01*
X127467712Y-98481206D01*
X127461682Y-98483891D01*
X127461681Y-98483891D01*
X127299278Y-98556197D01*
X127299276Y-98556198D01*
X127293248Y-98558882D01*
X127287907Y-98562762D01*
X127287906Y-98562763D01*
X127264626Y-98579677D01*
X127138747Y-98671134D01*
X127134326Y-98676044D01*
X127134325Y-98676045D01*
X127067286Y-98750500D01*
X127010960Y-98813056D01*
X126915473Y-98978444D01*
X126856458Y-99160072D01*
X126836496Y-99350000D01*
X126837186Y-99356565D01*
X126852851Y-99505605D01*
X126856458Y-99539928D01*
X126858498Y-99546206D01*
X126886076Y-99631082D01*
X126888104Y-99702049D01*
X126855338Y-99759113D01*
X126703766Y-99910685D01*
X126691375Y-99921552D01*
X126666013Y-99941013D01*
X126641526Y-99972925D01*
X126641523Y-99972928D01*
X126568476Y-100068124D01*
X126507162Y-100216149D01*
X126507162Y-100216150D01*
X126491500Y-100335115D01*
X126491500Y-100335120D01*
X126486250Y-100375000D01*
X126487328Y-100383188D01*
X126490422Y-100406690D01*
X126491500Y-100423136D01*
X126491500Y-102102004D01*
X126490422Y-102118447D01*
X126486250Y-102150140D01*
X115483000Y-102150140D01*
X115483000Y-90150000D01*
X125036496Y-90150000D01*
X125037186Y-90156565D01*
X125055129Y-90327279D01*
X125056458Y-90339928D01*
X125115473Y-90521556D01*
X125210960Y-90686944D01*
X125215378Y-90691851D01*
X125215379Y-90691852D01*
X125329678Y-90818794D01*
X125338747Y-90828866D01*
X125493248Y-90941118D01*
X125499276Y-90943802D01*
X125499278Y-90943803D01*
X125521869Y-90953861D01*
X125667712Y-91018794D01*
X125761112Y-91038647D01*
X125848056Y-91057128D01*
X125848061Y-91057128D01*
X125854513Y-91058500D01*
X126045487Y-91058500D01*
X126051939Y-91057128D01*
X126051944Y-91057128D01*
X126138888Y-91038647D01*
X126232288Y-91018794D01*
X126378131Y-90953861D01*
X126400722Y-90943803D01*
X126400724Y-90943802D01*
X126406752Y-90941118D01*
X126446735Y-90912069D01*
X126542757Y-90842304D01*
X126561253Y-90828866D01*
X126572740Y-90816109D01*
X126587074Y-90800189D01*
X126647520Y-90762950D01*
X126680710Y-90758500D01*
X130519290Y-90758500D01*
X130587411Y-90778502D01*
X130612926Y-90800189D01*
X130627261Y-90816109D01*
X130638747Y-90828866D01*
X130657243Y-90842304D01*
X130753266Y-90912069D01*
X130793248Y-90941118D01*
X130799276Y-90943802D01*
X130799278Y-90943803D01*
X130821869Y-90953861D01*
X130967712Y-91018794D01*
X131061112Y-91038647D01*
X131148056Y-91057128D01*
X131148061Y-91057128D01*
X131154513Y-91058500D01*
X131345487Y-91058500D01*
X131351939Y-91057128D01*
X131351944Y-91057128D01*
X131438888Y-91038647D01*
X131532288Y-91018794D01*
X131678131Y-90953861D01*
X131700722Y-90943803D01*
X131700724Y-90943802D01*
X131706752Y-90941118D01*
X131861253Y-90828866D01*
X131870322Y-90818794D01*
X131984621Y-90691852D01*
X131984622Y-90691851D01*
X131989040Y-90686944D01*
X132084527Y-90521556D01*
X132143542Y-90339928D01*
X132144872Y-90327279D01*
X132162814Y-90156565D01*
X132163504Y-90150000D01*
X132150818Y-90029301D01*
X132144232Y-89966635D01*
X132144232Y-89966633D01*
X132143542Y-89960072D01*
X132084527Y-89778444D01*
X131989040Y-89613056D01*
X131963715Y-89584929D01*
X131865675Y-89476045D01*
X131865674Y-89476044D01*
X131861253Y-89471134D01*
X131728883Y-89374961D01*
X131712094Y-89362763D01*
X131712093Y-89362762D01*
X131706752Y-89358882D01*
X131700724Y-89356198D01*
X131700722Y-89356197D01*
X131538319Y-89283891D01*
X131538318Y-89283891D01*
X131532288Y-89281206D01*
X131425437Y-89258494D01*
X131351944Y-89242872D01*
X131351939Y-89242872D01*
X131345487Y-89241500D01*
X131154513Y-89241500D01*
X131148061Y-89242872D01*
X131148056Y-89242872D01*
X131074563Y-89258494D01*
X130967712Y-89281206D01*
X130961682Y-89283891D01*
X130961681Y-89283891D01*
X130799278Y-89356197D01*
X130799276Y-89356198D01*
X130793248Y-89358882D01*
X130787907Y-89362762D01*
X130787906Y-89362763D01*
X130771117Y-89374961D01*
X130638747Y-89471134D01*
X130634334Y-89476036D01*
X130634332Y-89476037D01*
X130612926Y-89499811D01*
X130552480Y-89537050D01*
X130519290Y-89541500D01*
X126680710Y-89541500D01*
X126612589Y-89521498D01*
X126587074Y-89499811D01*
X126565668Y-89476037D01*
X126565666Y-89476036D01*
X126561253Y-89471134D01*
X126428883Y-89374961D01*
X126412094Y-89362763D01*
X126412093Y-89362762D01*
X126406752Y-89358882D01*
X126400724Y-89356198D01*
X126400722Y-89356197D01*
X126238319Y-89283891D01*
X126238318Y-89283891D01*
X126232288Y-89281206D01*
X126125437Y-89258494D01*
X126051944Y-89242872D01*
X126051939Y-89242872D01*
X126045487Y-89241500D01*
X125854513Y-89241500D01*
X125848061Y-89242872D01*
X125848056Y-89242872D01*
X125774563Y-89258494D01*
X125667712Y-89281206D01*
X125661682Y-89283891D01*
X125661681Y-89283891D01*
X125499278Y-89356197D01*
X125499276Y-89356198D01*
X125493248Y-89358882D01*
X125487907Y-89362762D01*
X125487906Y-89362763D01*
X125471117Y-89374961D01*
X125338747Y-89471134D01*
X125334326Y-89476044D01*
X125334325Y-89476045D01*
X125236286Y-89584929D01*
X125210960Y-89613056D01*
X125115473Y-89778444D01*
X125056458Y-89960072D01*
X125055768Y-89966633D01*
X125055768Y-89966635D01*
X125049182Y-90029301D01*
X125036496Y-90150000D01*
X115483000Y-90150000D01*
X115483000Y-89708702D01*
X115483002Y-89707932D01*
X115483421Y-89639322D01*
X115483476Y-89630348D01*
X115481010Y-89621719D01*
X115481009Y-89621714D01*
X115475361Y-89601952D01*
X115471783Y-89585191D01*
X115468870Y-89564848D01*
X115468867Y-89564838D01*
X115467595Y-89555955D01*
X115456979Y-89532605D01*
X115450536Y-89515093D01*
X115445954Y-89499063D01*
X115443488Y-89490435D01*
X115427726Y-89465452D01*
X115419596Y-89450386D01*
X115407367Y-89423490D01*
X115390626Y-89404061D01*
X115379521Y-89389053D01*
X115370630Y-89374961D01*
X115365840Y-89367369D01*
X115343703Y-89347818D01*
X115331659Y-89335626D01*
X115318239Y-89320051D01*
X115318237Y-89320050D01*
X115312381Y-89313253D01*
X115304853Y-89308374D01*
X115304850Y-89308371D01*
X115290861Y-89299304D01*
X115275987Y-89288014D01*
X115263502Y-89276988D01*
X115256772Y-89271044D01*
X115248646Y-89267229D01*
X115248645Y-89267228D01*
X115242979Y-89264568D01*
X115230034Y-89258490D01*
X115215065Y-89250176D01*
X115190273Y-89234107D01*
X115165709Y-89226761D01*
X115148264Y-89220099D01*
X115125052Y-89209201D01*
X115095870Y-89204657D01*
X115079151Y-89200874D01*
X115059464Y-89194986D01*
X115059461Y-89194985D01*
X115050859Y-89192413D01*
X115041884Y-89192358D01*
X115041883Y-89192358D01*
X115035190Y-89192317D01*
X115016444Y-89192203D01*
X115015672Y-89192170D01*
X115014577Y-89192000D01*
X114983702Y-89192000D01*
X114982932Y-89191998D01*
X114909284Y-89191548D01*
X114909283Y-89191548D01*
X114905348Y-89191524D01*
X114904004Y-89191908D01*
X114902659Y-89192000D01*
X109609000Y-89192000D01*
X109540879Y-89171998D01*
X109494386Y-89118342D01*
X109483000Y-89066000D01*
X109483000Y-87300000D01*
X115436496Y-87300000D01*
X115437186Y-87306565D01*
X115454934Y-87475425D01*
X115456458Y-87489928D01*
X115515473Y-87671556D01*
X115518776Y-87677278D01*
X115518777Y-87677279D01*
X115552686Y-87736010D01*
X115610960Y-87836944D01*
X115615378Y-87841851D01*
X115615379Y-87841852D01*
X115671799Y-87904513D01*
X115738747Y-87978866D01*
X115832694Y-88047123D01*
X115874198Y-88077277D01*
X115893248Y-88091118D01*
X115899276Y-88093802D01*
X115899278Y-88093803D01*
X116061681Y-88166109D01*
X116067712Y-88168794D01*
X116161112Y-88188647D01*
X116248056Y-88207128D01*
X116248061Y-88207128D01*
X116254513Y-88208500D01*
X116445487Y-88208500D01*
X116451939Y-88207128D01*
X116451944Y-88207128D01*
X116538888Y-88188647D01*
X116632288Y-88168794D01*
X116638319Y-88166109D01*
X116800722Y-88093803D01*
X116800724Y-88093802D01*
X116806752Y-88091118D01*
X116825803Y-88077277D01*
X116939671Y-87994546D01*
X116961253Y-87978866D01*
X116987074Y-87950189D01*
X117047520Y-87912950D01*
X117080710Y-87908500D01*
X123120948Y-87908500D01*
X123189069Y-87928502D01*
X123235562Y-87982158D01*
X123240781Y-87995562D01*
X123265473Y-88071556D01*
X123360960Y-88236944D01*
X123365378Y-88241851D01*
X123365379Y-88241852D01*
X123419445Y-88301898D01*
X123488747Y-88378866D01*
X123495460Y-88383743D01*
X123610437Y-88467279D01*
X123643248Y-88491118D01*
X123649276Y-88493802D01*
X123649278Y-88493803D01*
X123811681Y-88566109D01*
X123817712Y-88568794D01*
X123911112Y-88588647D01*
X123998056Y-88607128D01*
X123998061Y-88607128D01*
X124004513Y-88608500D01*
X124195487Y-88608500D01*
X124201939Y-88607128D01*
X124201944Y-88607128D01*
X124288888Y-88588647D01*
X124382288Y-88568794D01*
X124388319Y-88566109D01*
X124550722Y-88493803D01*
X124550724Y-88493802D01*
X124556752Y-88491118D01*
X124589564Y-88467279D01*
X124704540Y-88383743D01*
X124711253Y-88378866D01*
X124780555Y-88301898D01*
X124834621Y-88241852D01*
X124834622Y-88241851D01*
X124839040Y-88236944D01*
X124923878Y-88090000D01*
X125696496Y-88090000D01*
X125697186Y-88096565D01*
X125712000Y-88237509D01*
X125716458Y-88279928D01*
X125775473Y-88461556D01*
X125870960Y-88626944D01*
X125875378Y-88631851D01*
X125875379Y-88631852D01*
X125990135Y-88759301D01*
X125998747Y-88768866D01*
X126153248Y-88881118D01*
X126159276Y-88883802D01*
X126159278Y-88883803D01*
X126307960Y-88950000D01*
X126327712Y-88958794D01*
X126421113Y-88978647D01*
X126508056Y-88997128D01*
X126508061Y-88997128D01*
X126514513Y-88998500D01*
X126705487Y-88998500D01*
X126711939Y-88997128D01*
X126711944Y-88997128D01*
X126798888Y-88978647D01*
X126892288Y-88958794D01*
X126912040Y-88950000D01*
X127060722Y-88883803D01*
X127060724Y-88883802D01*
X127066752Y-88881118D01*
X127221253Y-88768866D01*
X127229865Y-88759301D01*
X127344621Y-88631852D01*
X127344622Y-88631851D01*
X127349040Y-88626944D01*
X127444527Y-88461556D01*
X127503542Y-88279928D01*
X127508001Y-88237509D01*
X127522814Y-88096565D01*
X127523504Y-88090000D01*
X127519620Y-88053050D01*
X127504232Y-87906635D01*
X127504232Y-87906633D01*
X127503542Y-87900072D01*
X127444527Y-87718444D01*
X127440691Y-87711799D01*
X127352341Y-87558774D01*
X127349040Y-87553056D01*
X127316247Y-87516635D01*
X127225675Y-87416045D01*
X127225674Y-87416044D01*
X127221253Y-87411134D01*
X127116091Y-87334729D01*
X127072094Y-87302763D01*
X127072093Y-87302762D01*
X127066752Y-87298882D01*
X127060724Y-87296198D01*
X127060722Y-87296197D01*
X126898319Y-87223891D01*
X126898318Y-87223891D01*
X126892288Y-87221206D01*
X126798887Y-87201353D01*
X126711944Y-87182872D01*
X126711939Y-87182872D01*
X126705487Y-87181500D01*
X126514513Y-87181500D01*
X126508061Y-87182872D01*
X126508056Y-87182872D01*
X126421113Y-87201353D01*
X126327712Y-87221206D01*
X126321682Y-87223891D01*
X126321681Y-87223891D01*
X126159278Y-87296197D01*
X126159276Y-87296198D01*
X126153248Y-87298882D01*
X126147907Y-87302762D01*
X126147906Y-87302763D01*
X126103909Y-87334729D01*
X125998747Y-87411134D01*
X125994326Y-87416044D01*
X125994325Y-87416045D01*
X125903754Y-87516635D01*
X125870960Y-87553056D01*
X125867659Y-87558774D01*
X125779310Y-87711799D01*
X125775473Y-87718444D01*
X125716458Y-87900072D01*
X125715768Y-87906633D01*
X125715768Y-87906635D01*
X125700380Y-88053050D01*
X125696496Y-88090000D01*
X124923878Y-88090000D01*
X124934527Y-88071556D01*
X124993542Y-87889928D01*
X125013504Y-87700000D01*
X124993542Y-87510072D01*
X124934527Y-87328444D01*
X124839040Y-87163056D01*
X124804457Y-87124647D01*
X124715675Y-87026045D01*
X124715674Y-87026044D01*
X124711253Y-87021134D01*
X124556752Y-86908882D01*
X124550724Y-86906198D01*
X124550722Y-86906197D01*
X124388319Y-86833891D01*
X124388318Y-86833891D01*
X124382288Y-86831206D01*
X124288887Y-86811353D01*
X124201944Y-86792872D01*
X124201939Y-86792872D01*
X124195487Y-86791500D01*
X124078361Y-86791500D01*
X124015362Y-86774620D01*
X124013427Y-86773503D01*
X124006876Y-86768476D01*
X123858851Y-86707162D01*
X123850664Y-86706084D01*
X123850663Y-86706084D01*
X123839458Y-86704609D01*
X123808262Y-86700502D01*
X123739885Y-86691500D01*
X123739882Y-86691500D01*
X123739874Y-86691499D01*
X123708189Y-86687328D01*
X123700000Y-86686250D01*
X123668307Y-86690422D01*
X123651864Y-86691500D01*
X117080710Y-86691500D01*
X117012589Y-86671498D01*
X116987074Y-86649811D01*
X116965668Y-86626037D01*
X116965666Y-86626036D01*
X116961253Y-86621134D01*
X116806752Y-86508882D01*
X116800724Y-86506198D01*
X116800722Y-86506197D01*
X116638319Y-86433891D01*
X116638318Y-86433891D01*
X116632288Y-86431206D01*
X116516033Y-86406495D01*
X116451944Y-86392872D01*
X116451939Y-86392872D01*
X116445487Y-86391500D01*
X116254513Y-86391500D01*
X116248061Y-86392872D01*
X116248056Y-86392872D01*
X116183967Y-86406495D01*
X116067712Y-86431206D01*
X116061682Y-86433891D01*
X116061681Y-86433891D01*
X115899278Y-86506197D01*
X115899276Y-86506198D01*
X115893248Y-86508882D01*
X115738747Y-86621134D01*
X115734326Y-86626044D01*
X115734325Y-86626045D01*
X115726701Y-86634513D01*
X115610960Y-86763056D01*
X115515473Y-86928444D01*
X115456458Y-87110072D01*
X115455768Y-87116633D01*
X115455768Y-87116635D01*
X115444922Y-87219834D01*
X115436496Y-87300000D01*
X109483000Y-87300000D01*
X109483000Y-85334000D01*
X109503002Y-85265879D01*
X109556658Y-85219386D01*
X109609000Y-85208000D01*
X148537594Y-85208000D01*
X148605715Y-85228002D01*
G37*
%TD.AperFunction*%
%TD*%
M02*
