%TF.GenerationSoftware,KiCad,Pcbnew,(6.0.0)*%
%TF.CreationDate,2022-02-08T22:33:11+08:00*%
%TF.ProjectId,screen,73637265-656e-42e6-9b69-6361645f7063,rev?*%
%TF.SameCoordinates,Original*%
%TF.FileFunction,Copper,L4,Bot*%
%TF.FilePolarity,Positive*%
%FSLAX46Y46*%
G04 Gerber Fmt 4.6, Leading zero omitted, Abs format (unit mm)*
G04 Created by KiCad (PCBNEW (6.0.0)) date 2022-02-08 22:33:11*
%MOMM*%
%LPD*%
G01*
G04 APERTURE LIST*
%TA.AperFunction,ComponentPad*%
%ADD10O,1.850000X0.850000*%
%TD*%
%TA.AperFunction,ComponentPad*%
%ADD11R,1.000000X1.000000*%
%TD*%
%TA.AperFunction,ComponentPad*%
%ADD12O,1.000000X1.000000*%
%TD*%
%TA.AperFunction,ComponentPad*%
%ADD13R,1.700000X1.700000*%
%TD*%
%TA.AperFunction,ComponentPad*%
%ADD14O,1.700000X1.700000*%
%TD*%
%TA.AperFunction,SMDPad,CuDef*%
%ADD15R,3.000000X0.350000*%
%TD*%
%TA.AperFunction,ViaPad*%
%ADD16C,0.800000*%
%TD*%
%TA.AperFunction,Conductor*%
%ADD17C,0.400000*%
%TD*%
%TA.AperFunction,Conductor*%
%ADD18C,0.200000*%
%TD*%
%TA.AperFunction,Conductor*%
%ADD19C,0.600000*%
%TD*%
G04 APERTURE END LIST*
D10*
%TO.P,J1,GND*%
%TO.N,N/C*%
X135450000Y-47130000D03*
X135450000Y-55770000D03*
%TD*%
D11*
%TO.P,J2,1,Pin_1*%
%TO.N,+3V3*%
X137420000Y-43740000D03*
D12*
%TO.P,J2,2,Pin_2*%
%TO.N,GND*%
X137420000Y-42470000D03*
%TO.P,J2,3,Pin_3*%
%TO.N,/nRST*%
X137420000Y-41200000D03*
%TO.P,J2,4,Pin_4*%
%TO.N,/GPIO0*%
X137420000Y-39930000D03*
%TO.P,J2,5,Pin_5*%
%TO.N,/TXD*%
X137420000Y-38660000D03*
%TO.P,J2,6,Pin_6*%
%TO.N,/RXD*%
X137420000Y-37390000D03*
%TD*%
D13*
%TO.P,J3,1,Pin_1*%
%TO.N,+BATT*%
X137170000Y-62880000D03*
D14*
%TO.P,J3,2,Pin_2*%
%TO.N,GND*%
X137170000Y-60340000D03*
%TD*%
D15*
%TO.P,J4,1,Pin_1*%
%TO.N,GND*%
X119105000Y-57300000D03*
%TO.P,J4,2,Pin_2*%
X119105000Y-56600000D03*
%TO.P,J4,3,Pin_3*%
%TO.N,+3V3*%
X119105000Y-55900000D03*
%TO.P,J4,4,Pin_4*%
X119105000Y-55200000D03*
%TO.P,J4,5,Pin_5*%
%TO.N,GND*%
X119105000Y-54500000D03*
%TO.P,J4,6,Pin_6*%
X119105000Y-53800000D03*
%TO.P,J4,7,Pin_7*%
%TO.N,/GPIO0*%
X119105000Y-53100000D03*
%TO.P,J4,8,Pin_8*%
%TO.N,unconnected-(J3-Pad8)*%
X119105000Y-52400000D03*
%TO.P,J4,9,Pin_9*%
%TO.N,/GPIO14*%
X119105000Y-51700000D03*
%TO.P,J4,10,Pin_10*%
%TO.N,/GPIO13*%
X119105000Y-51000000D03*
%TO.P,J4,11,Pin_11*%
%TO.N,/nRST*%
X119105000Y-50300000D03*
%TO.P,J4,12,Pin_12*%
%TO.N,GND*%
X119105000Y-49600000D03*
%TD*%
D16*
%TO.N,+3V3*%
X126020000Y-57080000D03*
X115130000Y-39070000D03*
X106170000Y-62930000D03*
X110720000Y-63080000D03*
X130820000Y-54330000D03*
X116644463Y-55944780D03*
%TO.N,GND*%
X120303792Y-48359311D03*
X121570000Y-43080000D03*
X123720000Y-38705000D03*
X106290000Y-47660000D03*
X107680000Y-47610000D03*
X106330000Y-49200000D03*
X122170000Y-38705000D03*
X115745000Y-63955000D03*
X128620000Y-51680000D03*
X107720000Y-62930000D03*
X125720000Y-49780000D03*
X131520000Y-42230000D03*
X114420000Y-63855000D03*
X117295000Y-63980000D03*
X115145000Y-56455000D03*
X107780000Y-49150000D03*
X120545000Y-38730000D03*
%TO.N,/nRST*%
X116270000Y-50330000D03*
X135270000Y-40930000D03*
%TO.N,/GPIO0*%
X114470000Y-41130000D03*
X119770000Y-41130000D03*
X116401079Y-52884136D03*
%TO.N,/GPIO14*%
X116445000Y-51930000D03*
%TO.N,/GPIO13*%
X116262808Y-53772948D03*
%TO.N,Net-(R15-Pad2)*%
X104870000Y-38280000D03*
X112620000Y-38680000D03*
%TO.N,+BATT*%
X124570000Y-59180000D03*
X131620000Y-57280000D03*
X108920000Y-63030000D03*
X131620000Y-43280000D03*
%TO.N,Net-(D1-Pad1)*%
X131895000Y-64830000D03*
X127120000Y-44080000D03*
%TO.N,Net-(D1-Pad2)*%
X132495000Y-63605000D03*
X128520000Y-43980000D03*
%TO.N,Net-(D3-Pad1)*%
X129420000Y-43980000D03*
X133320000Y-62680000D03*
%TO.N,Net-(D3-Pad2)*%
X129520000Y-42880000D03*
X133520000Y-61780000D03*
%TO.N,Net-(C7-Pad1)*%
X127520000Y-59680000D03*
X128620000Y-54380000D03*
%TD*%
D17*
%TO.N,+3V3*%
X119105000Y-55200000D02*
X117389243Y-55200000D01*
X116689243Y-55900000D02*
X116644463Y-55944780D01*
X117389243Y-55200000D02*
X116644463Y-55944780D01*
X119105000Y-55900000D02*
X116689243Y-55900000D01*
%TO.N,GND*%
X117800000Y-53800000D02*
X115145000Y-56455000D01*
X115334281Y-56644281D02*
X115145000Y-56455000D01*
X119105000Y-49600000D02*
X119105000Y-49558103D01*
X119105000Y-56600000D02*
X119060719Y-56644281D01*
X119105000Y-57300000D02*
X115990000Y-57300000D01*
X119105000Y-54500000D02*
X117100000Y-54500000D01*
X115990000Y-57300000D02*
X115145000Y-56455000D01*
X119105000Y-53800000D02*
X117800000Y-53800000D01*
X119105000Y-49558103D02*
X120303792Y-48359311D01*
X117100000Y-54500000D02*
X115145000Y-56455000D01*
X119060719Y-56644281D02*
X115334281Y-56644281D01*
D18*
%TO.N,/nRST*%
X116300000Y-50300000D02*
X119105000Y-50300000D01*
X116270000Y-50330000D02*
X116300000Y-50300000D01*
X125670000Y-40930000D02*
X135270000Y-40930000D01*
X116270000Y-50330000D02*
X125670000Y-40930000D01*
%TO.N,/GPIO0*%
X119770000Y-41130000D02*
X114470000Y-41130000D01*
X116616943Y-53100000D02*
X116401079Y-52884136D01*
X119105000Y-53100000D02*
X116616943Y-53100000D01*
%TO.N,/GPIO14*%
X116675000Y-51700000D02*
X119105000Y-51700000D01*
X116445000Y-51930000D02*
X116675000Y-51700000D01*
%TO.N,/GPIO13*%
X115620000Y-51355000D02*
X115620000Y-53130140D01*
X119105000Y-51000000D02*
X115975000Y-51000000D01*
X115620000Y-53130140D02*
X116262808Y-53772948D01*
X115975000Y-51000000D02*
X115620000Y-51355000D01*
%TO.N,Net-(R15-Pad2)*%
X112220000Y-38280000D02*
X112620000Y-38680000D01*
X104870000Y-38280000D02*
X112220000Y-38280000D01*
D19*
%TO.N,+BATT*%
X123720479Y-60029521D02*
X124570000Y-59180000D01*
X131719501Y-43379501D02*
X131620000Y-43280000D01*
X111920479Y-60029521D02*
X123720479Y-60029521D01*
X131719501Y-57180499D02*
X131719501Y-43379501D01*
X108920000Y-63030000D02*
X111920479Y-60029521D01*
X131620000Y-57280000D02*
X131719501Y-57180499D01*
D18*
%TO.N,Net-(D1-Pad1)*%
X129220000Y-60880000D02*
X131895000Y-63555000D01*
X131895000Y-63555000D02*
X131895000Y-64830000D01*
X127120000Y-44080000D02*
X129220000Y-46180000D01*
X129220000Y-46180000D02*
X129220000Y-60880000D01*
%TO.N,Net-(D1-Pad2)*%
X132397856Y-63605000D02*
X132495000Y-63605000D01*
X129520490Y-44980490D02*
X129520490Y-60727634D01*
X129520490Y-60727634D02*
X132397856Y-63605000D01*
X128520000Y-43980000D02*
X129520490Y-44980490D01*
%TO.N,Net-(D3-Pad1)*%
X129820000Y-60603572D02*
X131896428Y-62680000D01*
X131896428Y-62680000D02*
X133320000Y-62680000D01*
X129420000Y-43980000D02*
X129820000Y-44380000D01*
X129820000Y-44380000D02*
X129820000Y-60603572D01*
%TO.N,Net-(D3-Pad2)*%
X131420000Y-61780000D02*
X130119510Y-60479510D01*
X133520000Y-61780000D02*
X131420000Y-61780000D01*
X130119510Y-43479510D02*
X129520000Y-42880000D01*
X130119510Y-60479510D02*
X130119510Y-43479510D01*
%TO.N,Net-(C7-Pad1)*%
X127520000Y-59680000D02*
X128620000Y-58580000D01*
X128620000Y-58580000D02*
X128620000Y-54380000D01*
%TD*%
%TA.AperFunction,Conductor*%
%TO.N,GND*%
G36*
X137125715Y-36208002D02*
G01*
X137172208Y-36261658D01*
X137182312Y-36331932D01*
X137152818Y-36396512D01*
X137093168Y-36434874D01*
X137067120Y-36442540D01*
X137040381Y-36450410D01*
X137034923Y-36453263D01*
X137034919Y-36453265D01*
X136944147Y-36500720D01*
X136865110Y-36542040D01*
X136710975Y-36665968D01*
X136583846Y-36817474D01*
X136580879Y-36822872D01*
X136580875Y-36822877D01*
X136577397Y-36829204D01*
X136488567Y-36990787D01*
X136486706Y-36996654D01*
X136486705Y-36996656D01*
X136430627Y-37173436D01*
X136428765Y-37179306D01*
X136406719Y-37375851D01*
X136423268Y-37572934D01*
X136433436Y-37608393D01*
X136475366Y-37754620D01*
X136477783Y-37763050D01*
X136568187Y-37938956D01*
X136572016Y-37943787D01*
X136573839Y-37946088D01*
X136574414Y-37947509D01*
X136575353Y-37948966D01*
X136575076Y-37949144D01*
X136600474Y-38011898D01*
X136587301Y-38081662D01*
X136583846Y-38087474D01*
X136488567Y-38260787D01*
X136486706Y-38266654D01*
X136486705Y-38266656D01*
X136448450Y-38387251D01*
X136428765Y-38449306D01*
X136406719Y-38645851D01*
X136409987Y-38684771D01*
X136421498Y-38821852D01*
X136423268Y-38842934D01*
X136477783Y-39033050D01*
X136568187Y-39208956D01*
X136572016Y-39213787D01*
X136573839Y-39216088D01*
X136574414Y-39217509D01*
X136575353Y-39218966D01*
X136575076Y-39219144D01*
X136600474Y-39281898D01*
X136587301Y-39351662D01*
X136583846Y-39357474D01*
X136488567Y-39530787D01*
X136486706Y-39536654D01*
X136486705Y-39536656D01*
X136430627Y-39713436D01*
X136428765Y-39719306D01*
X136406719Y-39915851D01*
X136407235Y-39921995D01*
X136422043Y-40098342D01*
X136423268Y-40112934D01*
X136443835Y-40184658D01*
X136474974Y-40293253D01*
X136477783Y-40303050D01*
X136480602Y-40308535D01*
X136564375Y-40471538D01*
X136568187Y-40478956D01*
X136572016Y-40483787D01*
X136573839Y-40486088D01*
X136574414Y-40487509D01*
X136575353Y-40488966D01*
X136575076Y-40489144D01*
X136600474Y-40551898D01*
X136587301Y-40621662D01*
X136583846Y-40627474D01*
X136488567Y-40800787D01*
X136486706Y-40806654D01*
X136486705Y-40806656D01*
X136445495Y-40936568D01*
X136428765Y-40989306D01*
X136427767Y-40988989D01*
X136396813Y-41046330D01*
X136359326Y-41067034D01*
X136390635Y-41095769D01*
X136408684Y-41164434D01*
X136407949Y-41174885D01*
X136406719Y-41185851D01*
X136407235Y-41191995D01*
X136418505Y-41326206D01*
X136423268Y-41382934D01*
X136477783Y-41573050D01*
X136480602Y-41578535D01*
X136551886Y-41717237D01*
X136568187Y-41748956D01*
X136574164Y-41756497D01*
X136574843Y-41758174D01*
X136575353Y-41758966D01*
X136575203Y-41759063D01*
X136600802Y-41822304D01*
X136587633Y-41892069D01*
X136584254Y-41897754D01*
X136584262Y-41897758D01*
X136491998Y-42065585D01*
X136487166Y-42076858D01*
X136448506Y-42198731D01*
X136448202Y-42212831D01*
X136454763Y-42216000D01*
X138378183Y-42216000D01*
X138391714Y-42212027D01*
X138392806Y-42204433D01*
X138358231Y-42089919D01*
X138353560Y-42078586D01*
X138266537Y-41914918D01*
X138259435Y-41904228D01*
X138238398Y-41836420D01*
X138254827Y-41772264D01*
X138262327Y-41759063D01*
X138314658Y-41666944D01*
X138342723Y-41617542D01*
X138342725Y-41617537D01*
X138345769Y-41612179D01*
X138408197Y-41424513D01*
X138432985Y-41228295D01*
X138433380Y-41200000D01*
X138414080Y-41003167D01*
X138409800Y-40988989D01*
X138369621Y-40855911D01*
X138356916Y-40813831D01*
X138264066Y-40639204D01*
X138260167Y-40634424D01*
X138259715Y-40633743D01*
X138238676Y-40565935D01*
X138255105Y-40501775D01*
X138255263Y-40501498D01*
X138281088Y-40456037D01*
X138342723Y-40347542D01*
X138342725Y-40347537D01*
X138345769Y-40342179D01*
X138408197Y-40154513D01*
X138432985Y-39958295D01*
X138433380Y-39930000D01*
X138414080Y-39733167D01*
X138356916Y-39543831D01*
X138264066Y-39369204D01*
X138260167Y-39364424D01*
X138259715Y-39363743D01*
X138238676Y-39295935D01*
X138255105Y-39231775D01*
X138342723Y-39077542D01*
X138342725Y-39077537D01*
X138345769Y-39072179D01*
X138408197Y-38884513D01*
X138432985Y-38688295D01*
X138433380Y-38660000D01*
X138414080Y-38463167D01*
X138356916Y-38273831D01*
X138264066Y-38099204D01*
X138260167Y-38094424D01*
X138259715Y-38093743D01*
X138238676Y-38025935D01*
X138255105Y-37961775D01*
X138342723Y-37807542D01*
X138342725Y-37807537D01*
X138345769Y-37802179D01*
X138408197Y-37614513D01*
X138432985Y-37418295D01*
X138433380Y-37390000D01*
X138414080Y-37193167D01*
X138356916Y-37003831D01*
X138264066Y-36829204D01*
X138193709Y-36742938D01*
X138142960Y-36680713D01*
X138142957Y-36680710D01*
X138139065Y-36675938D01*
X138132724Y-36670692D01*
X137991425Y-36553799D01*
X137991421Y-36553797D01*
X137986675Y-36549870D01*
X137812701Y-36455802D01*
X137743449Y-36434365D01*
X137684289Y-36395114D01*
X137655742Y-36330109D01*
X137666871Y-36259990D01*
X137714142Y-36207019D01*
X137780708Y-36188000D01*
X138761000Y-36188000D01*
X138829121Y-36208002D01*
X138875614Y-36261658D01*
X138887000Y-36314000D01*
X138887000Y-65046000D01*
X138866998Y-65114121D01*
X138813342Y-65160614D01*
X138761000Y-65172000D01*
X132911110Y-65172000D01*
X132842989Y-65151998D01*
X132796496Y-65098342D01*
X132786392Y-65028068D01*
X132786992Y-65024698D01*
X132788542Y-65019928D01*
X132789231Y-65013373D01*
X132789232Y-65013368D01*
X132807814Y-64836565D01*
X132808504Y-64830000D01*
X132788542Y-64640072D01*
X132774979Y-64598329D01*
X132772951Y-64527363D01*
X132809614Y-64466565D01*
X132843563Y-64444287D01*
X132945722Y-64398803D01*
X132945724Y-64398802D01*
X132951752Y-64396118D01*
X133106253Y-64283866D01*
X133196155Y-64184020D01*
X133229621Y-64146852D01*
X133229622Y-64146851D01*
X133234040Y-64141944D01*
X133329527Y-63976556D01*
X133388542Y-63794928D01*
X133390307Y-63778134D01*
X135811500Y-63778134D01*
X135818255Y-63840316D01*
X135869385Y-63976705D01*
X135956739Y-64093261D01*
X136073295Y-64180615D01*
X136209684Y-64231745D01*
X136271866Y-64238500D01*
X138068134Y-64238500D01*
X138130316Y-64231745D01*
X138266705Y-64180615D01*
X138383261Y-64093261D01*
X138470615Y-63976705D01*
X138521745Y-63840316D01*
X138528500Y-63778134D01*
X138528500Y-61981866D01*
X138521745Y-61919684D01*
X138470615Y-61783295D01*
X138383261Y-61666739D01*
X138266705Y-61579385D01*
X138147687Y-61534767D01*
X138090923Y-61492125D01*
X138066223Y-61425564D01*
X138081430Y-61356215D01*
X138102977Y-61327535D01*
X138204052Y-61226812D01*
X138210730Y-61218965D01*
X138335003Y-61046020D01*
X138340313Y-61037183D01*
X138434670Y-60846267D01*
X138438469Y-60836672D01*
X138500377Y-60632910D01*
X138502555Y-60622837D01*
X138503986Y-60611962D01*
X138501775Y-60597778D01*
X138488617Y-60594000D01*
X135853225Y-60594000D01*
X135839694Y-60597973D01*
X135838257Y-60607966D01*
X135868565Y-60742446D01*
X135871645Y-60752275D01*
X135951770Y-60949603D01*
X135956413Y-60958794D01*
X136067694Y-61140388D01*
X136073777Y-61148699D01*
X136213213Y-61309667D01*
X136220577Y-61316879D01*
X136225522Y-61320985D01*
X136265156Y-61379889D01*
X136266653Y-61450870D01*
X136229537Y-61511392D01*
X136189264Y-61535910D01*
X136081705Y-61576232D01*
X136081704Y-61576233D01*
X136073295Y-61579385D01*
X135956739Y-61666739D01*
X135869385Y-61783295D01*
X135818255Y-61919684D01*
X135811500Y-61981866D01*
X135811500Y-63778134D01*
X133390307Y-63778134D01*
X133400549Y-63680684D01*
X133427562Y-63615028D01*
X133485783Y-63574398D01*
X133499662Y-63570608D01*
X133516899Y-63566944D01*
X133602288Y-63548794D01*
X133707046Y-63502153D01*
X133770722Y-63473803D01*
X133770724Y-63473802D01*
X133776752Y-63471118D01*
X133931253Y-63358866D01*
X133986558Y-63297444D01*
X134054621Y-63221852D01*
X134054622Y-63221851D01*
X134059040Y-63216944D01*
X134141895Y-63073435D01*
X134151223Y-63057279D01*
X134151224Y-63057278D01*
X134154527Y-63051556D01*
X134213542Y-62869928D01*
X134226501Y-62746635D01*
X134232814Y-62686565D01*
X134233504Y-62680000D01*
X134221389Y-62564729D01*
X134214233Y-62496642D01*
X134214232Y-62496638D01*
X134213542Y-62490072D01*
X134210489Y-62480677D01*
X134206750Y-62469167D01*
X134204724Y-62398199D01*
X134232948Y-62345922D01*
X134254621Y-62321852D01*
X134254622Y-62321851D01*
X134259040Y-62316944D01*
X134294200Y-62256045D01*
X134351223Y-62157279D01*
X134351224Y-62157278D01*
X134354527Y-62151556D01*
X134413542Y-61969928D01*
X134419601Y-61912285D01*
X134432814Y-61786565D01*
X134433504Y-61780000D01*
X134421600Y-61666739D01*
X134414232Y-61596635D01*
X134414232Y-61596633D01*
X134413542Y-61590072D01*
X134354527Y-61408444D01*
X134259040Y-61243056D01*
X134237349Y-61218965D01*
X134135675Y-61106045D01*
X134135674Y-61106044D01*
X134131253Y-61101134D01*
X133976752Y-60988882D01*
X133970724Y-60986198D01*
X133970722Y-60986197D01*
X133808319Y-60913891D01*
X133808318Y-60913891D01*
X133802288Y-60911206D01*
X133708887Y-60891353D01*
X133621944Y-60872872D01*
X133621939Y-60872872D01*
X133615487Y-60871500D01*
X133424513Y-60871500D01*
X133418061Y-60872872D01*
X133418056Y-60872872D01*
X133331113Y-60891353D01*
X133237712Y-60911206D01*
X133231682Y-60913891D01*
X133231681Y-60913891D01*
X133069278Y-60986197D01*
X133069276Y-60986198D01*
X133063248Y-60988882D01*
X133057907Y-60992762D01*
X133057906Y-60992763D01*
X132983971Y-61046480D01*
X132908747Y-61101134D01*
X132904334Y-61106036D01*
X132904332Y-61106037D01*
X132882926Y-61129811D01*
X132822480Y-61167050D01*
X132789290Y-61171500D01*
X131724239Y-61171500D01*
X131656118Y-61151498D01*
X131635144Y-61134595D01*
X130764915Y-60264366D01*
X130730889Y-60202054D01*
X130728010Y-60175271D01*
X130728010Y-60074183D01*
X135834389Y-60074183D01*
X135835912Y-60082607D01*
X135848292Y-60086000D01*
X136897885Y-60086000D01*
X136913124Y-60081525D01*
X136914329Y-60080135D01*
X136916000Y-60072452D01*
X136916000Y-60067885D01*
X137424000Y-60067885D01*
X137428475Y-60083124D01*
X137429865Y-60084329D01*
X137437548Y-60086000D01*
X138488344Y-60086000D01*
X138501875Y-60082027D01*
X138503180Y-60072947D01*
X138461214Y-59905875D01*
X138457894Y-59896124D01*
X138372972Y-59700814D01*
X138368105Y-59691739D01*
X138252426Y-59512926D01*
X138246136Y-59504757D01*
X138102806Y-59347240D01*
X138095273Y-59340215D01*
X137928139Y-59208222D01*
X137919552Y-59202517D01*
X137733117Y-59099599D01*
X137723705Y-59095369D01*
X137522959Y-59024280D01*
X137512988Y-59021646D01*
X137441837Y-59008972D01*
X137428540Y-59010432D01*
X137424000Y-59024989D01*
X137424000Y-60067885D01*
X136916000Y-60067885D01*
X136916000Y-59023102D01*
X136912082Y-59009758D01*
X136897806Y-59007771D01*
X136859324Y-59013660D01*
X136849288Y-59016051D01*
X136646868Y-59082212D01*
X136637359Y-59086209D01*
X136448463Y-59184542D01*
X136439738Y-59190036D01*
X136269433Y-59317905D01*
X136261726Y-59324748D01*
X136114590Y-59478717D01*
X136108104Y-59486727D01*
X135988098Y-59662649D01*
X135983000Y-59671623D01*
X135893338Y-59864783D01*
X135889775Y-59874470D01*
X135834389Y-60074183D01*
X130728010Y-60074183D01*
X130728010Y-57975316D01*
X130748012Y-57907195D01*
X130801668Y-57860702D01*
X130871942Y-57850598D01*
X130936522Y-57880092D01*
X130947635Y-57890995D01*
X131008747Y-57958866D01*
X131163248Y-58071118D01*
X131169276Y-58073802D01*
X131169278Y-58073803D01*
X131331681Y-58146109D01*
X131337712Y-58148794D01*
X131431112Y-58168647D01*
X131518056Y-58187128D01*
X131518061Y-58187128D01*
X131524513Y-58188500D01*
X131715487Y-58188500D01*
X131721939Y-58187128D01*
X131721944Y-58187128D01*
X131808888Y-58168647D01*
X131902288Y-58148794D01*
X131908319Y-58146109D01*
X132070722Y-58073803D01*
X132070724Y-58073802D01*
X132076752Y-58071118D01*
X132231253Y-57958866D01*
X132240322Y-57948794D01*
X132354621Y-57821852D01*
X132354622Y-57821851D01*
X132359040Y-57816944D01*
X132454527Y-57651556D01*
X132513542Y-57469928D01*
X132514872Y-57457279D01*
X132532814Y-57286565D01*
X132533504Y-57280000D01*
X132528691Y-57234207D01*
X132528001Y-57221037D01*
X132528001Y-57195366D01*
X132528002Y-57194926D01*
X132528347Y-57096163D01*
X132528347Y-57096157D01*
X132528359Y-57092629D01*
X132528090Y-57091426D01*
X132528001Y-57089782D01*
X132528001Y-55868115D01*
X134016500Y-55868115D01*
X134017872Y-55874568D01*
X134017872Y-55874572D01*
X134034191Y-55951345D01*
X134057298Y-56060056D01*
X134059983Y-56066086D01*
X134059983Y-56066087D01*
X134123984Y-56209834D01*
X134137112Y-56239321D01*
X134140992Y-56244662D01*
X134140993Y-56244663D01*
X134197653Y-56322648D01*
X134252453Y-56398074D01*
X134257363Y-56402495D01*
X134257364Y-56402496D01*
X134306969Y-56447160D01*
X134398280Y-56529377D01*
X134412071Y-56537339D01*
X134561559Y-56623646D01*
X134568220Y-56627492D01*
X134574506Y-56629534D01*
X134574505Y-56629534D01*
X134748566Y-56686090D01*
X134748567Y-56686090D01*
X134754845Y-56688130D01*
X134761408Y-56688820D01*
X134761409Y-56688820D01*
X134784405Y-56691237D01*
X134901078Y-56703500D01*
X135998922Y-56703500D01*
X136115595Y-56691237D01*
X136138591Y-56688820D01*
X136138592Y-56688820D01*
X136145155Y-56688130D01*
X136151433Y-56686090D01*
X136151434Y-56686090D01*
X136325495Y-56629534D01*
X136325494Y-56629534D01*
X136331780Y-56627492D01*
X136338442Y-56623646D01*
X136487929Y-56537339D01*
X136501720Y-56529377D01*
X136593032Y-56447160D01*
X136642636Y-56402496D01*
X136642637Y-56402495D01*
X136647547Y-56398074D01*
X136702348Y-56322648D01*
X136759007Y-56244663D01*
X136759008Y-56244662D01*
X136762888Y-56239321D01*
X136776017Y-56209834D01*
X136840017Y-56066087D01*
X136840017Y-56066086D01*
X136842702Y-56060056D01*
X136865809Y-55951345D01*
X136882128Y-55874572D01*
X136882128Y-55874568D01*
X136883500Y-55868115D01*
X136883500Y-55671885D01*
X136880650Y-55658474D01*
X136854533Y-55535607D01*
X136842702Y-55479944D01*
X136825597Y-55441526D01*
X136765573Y-55306709D01*
X136765572Y-55306707D01*
X136762888Y-55300679D01*
X136669291Y-55171854D01*
X136651430Y-55147270D01*
X136651428Y-55147268D01*
X136647547Y-55141926D01*
X136557521Y-55060866D01*
X136506628Y-55015042D01*
X136506627Y-55015041D01*
X136501720Y-55010623D01*
X136359737Y-54928649D01*
X136337503Y-54915812D01*
X136337502Y-54915811D01*
X136331780Y-54912508D01*
X136183697Y-54864393D01*
X136151434Y-54853910D01*
X136151433Y-54853910D01*
X136145155Y-54851870D01*
X136138592Y-54851180D01*
X136138591Y-54851180D01*
X136115595Y-54848763D01*
X135998922Y-54836500D01*
X134901078Y-54836500D01*
X134784405Y-54848763D01*
X134761409Y-54851180D01*
X134761408Y-54851180D01*
X134754845Y-54851870D01*
X134748567Y-54853910D01*
X134748566Y-54853910D01*
X134716303Y-54864393D01*
X134568220Y-54912508D01*
X134562498Y-54915811D01*
X134562497Y-54915812D01*
X134540263Y-54928649D01*
X134398280Y-55010623D01*
X134393373Y-55015041D01*
X134393372Y-55015042D01*
X134342479Y-55060866D01*
X134252453Y-55141926D01*
X134248572Y-55147268D01*
X134248570Y-55147270D01*
X134230709Y-55171854D01*
X134137112Y-55300679D01*
X134134428Y-55306707D01*
X134134427Y-55306709D01*
X134074403Y-55441526D01*
X134057298Y-55479944D01*
X134045467Y-55535607D01*
X134019351Y-55658474D01*
X134016500Y-55671885D01*
X134016500Y-55868115D01*
X132528001Y-55868115D01*
X132528001Y-47228115D01*
X134016500Y-47228115D01*
X134057298Y-47420056D01*
X134137112Y-47599321D01*
X134252453Y-47758074D01*
X134398280Y-47889377D01*
X134568220Y-47987492D01*
X134574506Y-47989534D01*
X134574505Y-47989534D01*
X134748566Y-48046090D01*
X134748567Y-48046090D01*
X134754845Y-48048130D01*
X134761408Y-48048820D01*
X134761409Y-48048820D01*
X134784405Y-48051237D01*
X134901078Y-48063500D01*
X135998922Y-48063500D01*
X136115595Y-48051237D01*
X136138591Y-48048820D01*
X136138592Y-48048820D01*
X136145155Y-48048130D01*
X136151433Y-48046090D01*
X136151434Y-48046090D01*
X136325495Y-47989534D01*
X136325494Y-47989534D01*
X136331780Y-47987492D01*
X136501720Y-47889377D01*
X136647547Y-47758074D01*
X136762888Y-47599321D01*
X136842702Y-47420056D01*
X136883500Y-47228115D01*
X136883500Y-47031885D01*
X136842702Y-46839944D01*
X136762888Y-46660679D01*
X136647547Y-46501926D01*
X136569941Y-46432049D01*
X136506628Y-46375042D01*
X136506627Y-46375041D01*
X136501720Y-46370623D01*
X136331780Y-46272508D01*
X136254059Y-46247255D01*
X136151434Y-46213910D01*
X136151433Y-46213910D01*
X136145155Y-46211870D01*
X136138592Y-46211180D01*
X136138591Y-46211180D01*
X136115595Y-46208763D01*
X135998922Y-46196500D01*
X134901078Y-46196500D01*
X134784405Y-46208763D01*
X134761409Y-46211180D01*
X134761408Y-46211180D01*
X134754845Y-46211870D01*
X134748567Y-46213910D01*
X134748566Y-46213910D01*
X134645941Y-46247255D01*
X134568220Y-46272508D01*
X134398280Y-46370623D01*
X134393373Y-46375041D01*
X134393372Y-46375042D01*
X134330059Y-46432049D01*
X134252453Y-46501926D01*
X134137112Y-46660679D01*
X134057298Y-46839944D01*
X134016500Y-47031885D01*
X134016500Y-47228115D01*
X132528001Y-47228115D01*
X132528001Y-44288134D01*
X136411500Y-44288134D01*
X136418255Y-44350316D01*
X136469385Y-44486705D01*
X136556739Y-44603261D01*
X136673295Y-44690615D01*
X136809684Y-44741745D01*
X136871866Y-44748500D01*
X137968134Y-44748500D01*
X138030316Y-44741745D01*
X138166705Y-44690615D01*
X138283261Y-44603261D01*
X138370615Y-44486705D01*
X138421745Y-44350316D01*
X138428500Y-44288134D01*
X138428500Y-43191866D01*
X138421745Y-43129684D01*
X138370615Y-42993295D01*
X138365229Y-42986108D01*
X138360921Y-42978240D01*
X138362789Y-42977217D01*
X138342139Y-42921945D01*
X138348255Y-42873117D01*
X138392142Y-42741189D01*
X138392643Y-42727097D01*
X138386454Y-42724000D01*
X136462282Y-42724000D01*
X136448751Y-42727973D01*
X136447601Y-42735975D01*
X136476552Y-42836941D01*
X136481068Y-42848346D01*
X136484480Y-42854985D01*
X136497831Y-42924715D01*
X136477432Y-42977338D01*
X136479079Y-42978240D01*
X136474771Y-42986108D01*
X136469385Y-42993295D01*
X136418255Y-43129684D01*
X136411500Y-43191866D01*
X136411500Y-44288134D01*
X132528001Y-44288134D01*
X132528001Y-43388761D01*
X132528008Y-43387442D01*
X132528587Y-43332136D01*
X132529270Y-43320284D01*
X132532814Y-43286565D01*
X132533504Y-43280000D01*
X132518531Y-43137540D01*
X132514232Y-43096635D01*
X132514232Y-43096633D01*
X132513542Y-43090072D01*
X132454527Y-42908444D01*
X132359040Y-42743056D01*
X132344671Y-42727097D01*
X132235675Y-42606045D01*
X132235674Y-42606044D01*
X132231253Y-42601134D01*
X132076752Y-42488882D01*
X132070724Y-42486198D01*
X132070722Y-42486197D01*
X131908319Y-42413891D01*
X131908318Y-42413891D01*
X131902288Y-42411206D01*
X131808887Y-42391353D01*
X131721944Y-42372872D01*
X131721939Y-42372872D01*
X131715487Y-42371500D01*
X131524513Y-42371500D01*
X131518061Y-42372872D01*
X131518056Y-42372872D01*
X131431113Y-42391353D01*
X131337712Y-42411206D01*
X131331682Y-42413891D01*
X131331681Y-42413891D01*
X131169278Y-42486197D01*
X131169276Y-42486198D01*
X131163248Y-42488882D01*
X131008747Y-42601134D01*
X131004326Y-42606044D01*
X131004325Y-42606045D01*
X130895330Y-42727097D01*
X130880960Y-42743056D01*
X130785473Y-42908444D01*
X130783432Y-42914726D01*
X130758131Y-42992594D01*
X130718057Y-43051199D01*
X130652660Y-43078836D01*
X130582704Y-43066729D01*
X130554011Y-43046193D01*
X130553497Y-43045523D01*
X130546951Y-43040500D01*
X130546948Y-43040497D01*
X130528131Y-43026058D01*
X130515740Y-43015191D01*
X130469719Y-42969170D01*
X130435693Y-42906858D01*
X130433159Y-42883284D01*
X130433504Y-42880000D01*
X130417526Y-42727973D01*
X130414232Y-42696635D01*
X130414232Y-42696633D01*
X130413542Y-42690072D01*
X130354527Y-42508444D01*
X130259040Y-42343056D01*
X130144639Y-42216000D01*
X130135675Y-42206045D01*
X130135674Y-42206044D01*
X130131253Y-42201134D01*
X129976752Y-42088882D01*
X129970724Y-42086198D01*
X129970722Y-42086197D01*
X129808319Y-42013891D01*
X129808318Y-42013891D01*
X129802288Y-42011206D01*
X129708888Y-41991353D01*
X129621944Y-41972872D01*
X129621939Y-41972872D01*
X129615487Y-41971500D01*
X129424513Y-41971500D01*
X129418061Y-41972872D01*
X129418056Y-41972872D01*
X129331112Y-41991353D01*
X129237712Y-42011206D01*
X129231682Y-42013891D01*
X129231681Y-42013891D01*
X129069278Y-42086197D01*
X129069276Y-42086198D01*
X129063248Y-42088882D01*
X128908747Y-42201134D01*
X128904326Y-42206044D01*
X128904325Y-42206045D01*
X128895362Y-42216000D01*
X128780960Y-42343056D01*
X128685473Y-42508444D01*
X128626458Y-42690072D01*
X128625768Y-42696633D01*
X128625768Y-42696635D01*
X128622474Y-42727973D01*
X128606496Y-42880000D01*
X128607186Y-42886565D01*
X128611996Y-42932330D01*
X128599224Y-43002168D01*
X128550722Y-43054015D01*
X128486686Y-43071500D01*
X128424513Y-43071500D01*
X128418061Y-43072872D01*
X128418056Y-43072872D01*
X128337139Y-43090072D01*
X128237712Y-43111206D01*
X128231682Y-43113891D01*
X128231681Y-43113891D01*
X128069278Y-43186197D01*
X128069276Y-43186198D01*
X128063248Y-43188882D01*
X127908747Y-43301134D01*
X127860033Y-43355236D01*
X127799589Y-43392474D01*
X127728605Y-43391122D01*
X127692338Y-43372860D01*
X127582094Y-43292763D01*
X127582093Y-43292762D01*
X127576752Y-43288882D01*
X127570724Y-43286198D01*
X127570722Y-43286197D01*
X127408319Y-43213891D01*
X127408318Y-43213891D01*
X127402288Y-43211206D01*
X127308887Y-43191353D01*
X127221944Y-43172872D01*
X127221939Y-43172872D01*
X127215487Y-43171500D01*
X127024513Y-43171500D01*
X127018061Y-43172872D01*
X127018056Y-43172872D01*
X126931113Y-43191353D01*
X126837712Y-43211206D01*
X126831682Y-43213891D01*
X126831681Y-43213891D01*
X126669278Y-43286197D01*
X126669276Y-43286198D01*
X126663248Y-43288882D01*
X126657907Y-43292762D01*
X126657906Y-43292763D01*
X126639631Y-43306041D01*
X126508747Y-43401134D01*
X126504326Y-43406044D01*
X126504325Y-43406045D01*
X126430903Y-43487589D01*
X126380960Y-43543056D01*
X126285473Y-43708444D01*
X126226458Y-43890072D01*
X126206496Y-44080000D01*
X126226458Y-44269928D01*
X126285473Y-44451556D01*
X126380960Y-44616944D01*
X126385378Y-44621851D01*
X126385379Y-44621852D01*
X126450132Y-44693767D01*
X126508747Y-44758866D01*
X126663248Y-44871118D01*
X126669276Y-44873802D01*
X126669278Y-44873803D01*
X126831681Y-44946109D01*
X126837712Y-44948794D01*
X126931112Y-44968647D01*
X127018056Y-44987128D01*
X127018061Y-44987128D01*
X127024513Y-44988500D01*
X127115761Y-44988500D01*
X127183882Y-45008502D01*
X127204856Y-45025405D01*
X128574595Y-46395144D01*
X128608621Y-46457456D01*
X128611500Y-46484239D01*
X128611500Y-53350977D01*
X128591498Y-53419098D01*
X128537842Y-53465591D01*
X128511697Y-53474224D01*
X128474172Y-53482200D01*
X128337712Y-53511206D01*
X128331682Y-53513891D01*
X128331681Y-53513891D01*
X128169278Y-53586197D01*
X128169276Y-53586198D01*
X128163248Y-53588882D01*
X128008747Y-53701134D01*
X127880960Y-53843056D01*
X127785473Y-54008444D01*
X127726458Y-54190072D01*
X127725768Y-54196633D01*
X127725768Y-54196635D01*
X127713701Y-54311452D01*
X127706496Y-54380000D01*
X127707186Y-54386565D01*
X127723709Y-54543768D01*
X127726458Y-54569928D01*
X127785473Y-54751556D01*
X127880960Y-54916944D01*
X127885378Y-54921851D01*
X127885379Y-54921852D01*
X127979136Y-55025980D01*
X128009854Y-55089987D01*
X128011500Y-55110290D01*
X128011500Y-58275761D01*
X127991498Y-58343882D01*
X127974595Y-58364857D01*
X127604855Y-58734596D01*
X127542543Y-58768621D01*
X127515760Y-58771500D01*
X127424513Y-58771500D01*
X127418061Y-58772872D01*
X127418056Y-58772872D01*
X127331113Y-58791353D01*
X127237712Y-58811206D01*
X127231682Y-58813891D01*
X127231681Y-58813891D01*
X127069278Y-58886197D01*
X127069276Y-58886198D01*
X127063248Y-58888882D01*
X126908747Y-59001134D01*
X126904326Y-59006044D01*
X126904325Y-59006045D01*
X126823898Y-59095369D01*
X126780960Y-59143056D01*
X126685473Y-59308444D01*
X126626458Y-59490072D01*
X126625768Y-59496633D01*
X126625768Y-59496635D01*
X126624056Y-59512926D01*
X126606496Y-59680000D01*
X126626458Y-59869928D01*
X126685473Y-60051556D01*
X126688776Y-60057278D01*
X126688777Y-60057279D01*
X126705359Y-60086000D01*
X126780960Y-60216944D01*
X126785378Y-60221851D01*
X126785379Y-60221852D01*
X126894118Y-60342619D01*
X126908747Y-60358866D01*
X126926815Y-60371993D01*
X127054452Y-60464727D01*
X127063248Y-60471118D01*
X127069276Y-60473802D01*
X127069278Y-60473803D01*
X127222048Y-60541820D01*
X127237712Y-60548794D01*
X127331112Y-60568647D01*
X127418056Y-60587128D01*
X127418061Y-60587128D01*
X127424513Y-60588500D01*
X127615487Y-60588500D01*
X127621939Y-60587128D01*
X127621944Y-60587128D01*
X127708888Y-60568647D01*
X127802288Y-60548794D01*
X127817952Y-60541820D01*
X127970722Y-60473803D01*
X127970724Y-60473802D01*
X127976752Y-60471118D01*
X127985549Y-60464727D01*
X128113185Y-60371993D01*
X128131253Y-60358866D01*
X128145882Y-60342619D01*
X128254621Y-60221852D01*
X128254622Y-60221851D01*
X128259040Y-60216944D01*
X128334641Y-60086000D01*
X128351223Y-60057279D01*
X128351224Y-60057278D01*
X128354527Y-60051556D01*
X128365668Y-60017269D01*
X128405741Y-59958665D01*
X128471138Y-59931028D01*
X128541094Y-59943135D01*
X128593400Y-59991141D01*
X128611500Y-60056207D01*
X128611500Y-60831864D01*
X128610422Y-60848307D01*
X128606250Y-60880000D01*
X128611500Y-60919880D01*
X128611500Y-60919885D01*
X128613496Y-60935041D01*
X128616322Y-60956508D01*
X128616322Y-60956510D01*
X128624336Y-61017381D01*
X128627162Y-61038851D01*
X128688476Y-61186876D01*
X128693503Y-61193427D01*
X128693504Y-61193429D01*
X128761520Y-61282069D01*
X128761526Y-61282075D01*
X128786013Y-61313987D01*
X128792568Y-61319017D01*
X128811379Y-61333452D01*
X128823770Y-61344319D01*
X128863052Y-61383601D01*
X128897078Y-61445913D01*
X128892013Y-61516728D01*
X128849466Y-61573564D01*
X128835044Y-61582898D01*
X128775729Y-61615777D01*
X128775726Y-61615779D01*
X128770150Y-61618870D01*
X128765309Y-61623019D01*
X128765305Y-61623022D01*
X128720578Y-61661358D01*
X128622302Y-61745591D01*
X128618391Y-61750633D01*
X128618390Y-61750634D01*
X128593056Y-61783295D01*
X128502954Y-61899453D01*
X128500138Y-61905176D01*
X128500136Y-61905179D01*
X128424037Y-62059834D01*
X128416982Y-62074171D01*
X128415373Y-62080349D01*
X128415372Y-62080351D01*
X128393445Y-62164532D01*
X128367898Y-62262607D01*
X128367564Y-62268986D01*
X128360842Y-62397251D01*
X128357707Y-62457064D01*
X128386825Y-62649599D01*
X128389028Y-62655585D01*
X128389029Y-62655591D01*
X128451860Y-62826360D01*
X128451862Y-62826365D01*
X128454063Y-62832346D01*
X128556674Y-62997840D01*
X128561055Y-63002473D01*
X128561056Y-63002474D01*
X128665920Y-63113365D01*
X128690466Y-63139322D01*
X128849975Y-63251011D01*
X128855838Y-63253548D01*
X129022825Y-63325810D01*
X129022829Y-63325811D01*
X129028684Y-63328345D01*
X129034931Y-63329650D01*
X129034934Y-63329651D01*
X129214557Y-63367176D01*
X129214562Y-63367177D01*
X129219293Y-63368165D01*
X129225685Y-63368500D01*
X129368663Y-63368500D01*
X129437951Y-63361462D01*
X129507378Y-63354410D01*
X129507379Y-63354410D01*
X129513727Y-63353765D01*
X129594843Y-63328345D01*
X129693451Y-63297444D01*
X129693456Y-63297442D01*
X129699541Y-63295535D01*
X129786475Y-63247346D01*
X129864271Y-63204223D01*
X129864274Y-63204221D01*
X129869850Y-63201130D01*
X129874691Y-63196981D01*
X129874695Y-63196978D01*
X130012855Y-63078560D01*
X130017698Y-63074409D01*
X130030986Y-63057279D01*
X130133131Y-62925594D01*
X130137046Y-62920547D01*
X130146060Y-62902228D01*
X130194082Y-62849936D01*
X130262751Y-62831907D01*
X130330266Y-62853866D01*
X130348211Y-62868760D01*
X131249595Y-63770144D01*
X131283621Y-63832456D01*
X131286500Y-63859239D01*
X131286500Y-64099710D01*
X131266498Y-64167831D01*
X131254136Y-64184020D01*
X131164235Y-64283866D01*
X131155960Y-64293056D01*
X131152659Y-64298774D01*
X131068647Y-64444287D01*
X131060473Y-64458444D01*
X131001458Y-64640072D01*
X130981496Y-64830000D01*
X130982186Y-64836565D01*
X131000768Y-65013368D01*
X131000769Y-65013373D01*
X131001458Y-65019928D01*
X131002000Y-65021597D01*
X130996733Y-65090597D01*
X130953915Y-65147229D01*
X130887277Y-65171721D01*
X130878890Y-65172000D01*
X98129000Y-65172000D01*
X98060879Y-65151998D01*
X98014386Y-65098342D01*
X98003000Y-65046000D01*
X98003000Y-62930000D01*
X105256496Y-62930000D01*
X105276458Y-63119928D01*
X105335473Y-63301556D01*
X105430960Y-63466944D01*
X105558747Y-63608866D01*
X105576621Y-63621852D01*
X105696385Y-63708866D01*
X105713248Y-63721118D01*
X105719276Y-63723802D01*
X105719278Y-63723803D01*
X105881681Y-63796109D01*
X105887712Y-63798794D01*
X105974479Y-63817237D01*
X106068056Y-63837128D01*
X106068061Y-63837128D01*
X106074513Y-63838500D01*
X106265487Y-63838500D01*
X106271939Y-63837128D01*
X106271944Y-63837128D01*
X106365521Y-63817237D01*
X106452288Y-63798794D01*
X106458319Y-63796109D01*
X106620722Y-63723803D01*
X106620724Y-63723802D01*
X106626752Y-63721118D01*
X106643616Y-63708866D01*
X106763379Y-63621852D01*
X106781253Y-63608866D01*
X106909040Y-63466944D01*
X107004527Y-63301556D01*
X107063542Y-63119928D01*
X107072994Y-63030000D01*
X108006496Y-63030000D01*
X108007186Y-63036565D01*
X108016608Y-63126206D01*
X108026458Y-63219928D01*
X108085473Y-63401556D01*
X108180960Y-63566944D01*
X108185378Y-63571851D01*
X108185379Y-63571852D01*
X108222203Y-63612749D01*
X108308747Y-63708866D01*
X108377566Y-63758866D01*
X108435842Y-63801206D01*
X108463248Y-63821118D01*
X108469276Y-63823802D01*
X108469278Y-63823803D01*
X108566833Y-63867237D01*
X108637712Y-63898794D01*
X108731112Y-63918647D01*
X108818056Y-63937128D01*
X108818061Y-63937128D01*
X108824513Y-63938500D01*
X109015487Y-63938500D01*
X109021939Y-63937128D01*
X109021944Y-63937128D01*
X109108888Y-63918647D01*
X109202288Y-63898794D01*
X109273167Y-63867237D01*
X109370722Y-63823803D01*
X109370724Y-63823802D01*
X109376752Y-63821118D01*
X109404159Y-63801206D01*
X109462434Y-63758866D01*
X109531253Y-63708866D01*
X109617797Y-63612749D01*
X109654621Y-63571852D01*
X109654622Y-63571851D01*
X109659040Y-63566944D01*
X109696447Y-63502153D01*
X109747829Y-63453160D01*
X109817543Y-63439724D01*
X109883454Y-63466110D01*
X109914685Y-63502153D01*
X109980960Y-63616944D01*
X109985378Y-63621851D01*
X109985379Y-63621852D01*
X110077176Y-63723803D01*
X110108747Y-63758866D01*
X110263248Y-63871118D01*
X110269276Y-63873802D01*
X110269278Y-63873803D01*
X110414591Y-63938500D01*
X110437712Y-63948794D01*
X110529466Y-63968297D01*
X110618056Y-63987128D01*
X110618061Y-63987128D01*
X110624513Y-63988500D01*
X110815487Y-63988500D01*
X110821939Y-63987128D01*
X110821944Y-63987128D01*
X110910534Y-63968297D01*
X111002288Y-63948794D01*
X111025409Y-63938500D01*
X111170722Y-63873803D01*
X111170724Y-63873802D01*
X111176752Y-63871118D01*
X111331253Y-63758866D01*
X111362824Y-63723803D01*
X111454621Y-63621852D01*
X111454622Y-63621851D01*
X111459040Y-63616944D01*
X111554527Y-63451556D01*
X111613542Y-63269928D01*
X111615916Y-63247346D01*
X111632814Y-63086565D01*
X111633504Y-63080000D01*
X111617739Y-62930000D01*
X111614232Y-62896635D01*
X111614232Y-62896633D01*
X111613542Y-62890072D01*
X111554527Y-62708444D01*
X111459040Y-62543056D01*
X111419169Y-62498774D01*
X111381613Y-62457064D01*
X125357707Y-62457064D01*
X125386825Y-62649599D01*
X125389028Y-62655585D01*
X125389029Y-62655591D01*
X125451860Y-62826360D01*
X125451862Y-62826365D01*
X125454063Y-62832346D01*
X125556674Y-62997840D01*
X125561055Y-63002473D01*
X125561056Y-63002474D01*
X125665920Y-63113365D01*
X125690466Y-63139322D01*
X125849975Y-63251011D01*
X125855838Y-63253548D01*
X126022825Y-63325810D01*
X126022829Y-63325811D01*
X126028684Y-63328345D01*
X126034931Y-63329650D01*
X126034934Y-63329651D01*
X126214557Y-63367176D01*
X126214562Y-63367177D01*
X126219293Y-63368165D01*
X126225685Y-63368500D01*
X126368663Y-63368500D01*
X126437951Y-63361462D01*
X126507378Y-63354410D01*
X126507379Y-63354410D01*
X126513727Y-63353765D01*
X126594843Y-63328345D01*
X126693451Y-63297444D01*
X126693456Y-63297442D01*
X126699541Y-63295535D01*
X126786475Y-63247346D01*
X126864271Y-63204223D01*
X126864274Y-63204221D01*
X126869850Y-63201130D01*
X126874691Y-63196981D01*
X126874695Y-63196978D01*
X127012855Y-63078560D01*
X127017698Y-63074409D01*
X127030986Y-63057279D01*
X127133131Y-62925594D01*
X127137046Y-62920547D01*
X127148813Y-62896635D01*
X127220200Y-62751556D01*
X127223018Y-62745829D01*
X127240165Y-62680000D01*
X127270492Y-62563575D01*
X127270492Y-62563572D01*
X127272102Y-62557393D01*
X127280291Y-62401134D01*
X127281959Y-62369317D01*
X127281959Y-62369313D01*
X127282293Y-62362936D01*
X127253175Y-62170401D01*
X127250972Y-62164415D01*
X127250971Y-62164409D01*
X127188140Y-61993640D01*
X127188138Y-61993635D01*
X127185937Y-61987654D01*
X127083326Y-61822160D01*
X127054525Y-61791703D01*
X126953919Y-61685315D01*
X126949534Y-61680678D01*
X126790025Y-61568989D01*
X126713584Y-61535910D01*
X126617175Y-61494190D01*
X126617171Y-61494189D01*
X126611316Y-61491655D01*
X126605069Y-61490350D01*
X126605066Y-61490349D01*
X126425443Y-61452824D01*
X126425438Y-61452823D01*
X126420707Y-61451835D01*
X126414315Y-61451500D01*
X126271337Y-61451500D01*
X126202049Y-61458538D01*
X126132622Y-61465590D01*
X126132621Y-61465590D01*
X126126273Y-61466235D01*
X126069939Y-61483889D01*
X125946549Y-61522556D01*
X125946544Y-61522558D01*
X125940459Y-61524465D01*
X125864713Y-61566452D01*
X125775729Y-61615777D01*
X125775726Y-61615779D01*
X125770150Y-61618870D01*
X125765309Y-61623019D01*
X125765305Y-61623022D01*
X125720578Y-61661358D01*
X125622302Y-61745591D01*
X125618391Y-61750633D01*
X125618390Y-61750634D01*
X125593056Y-61783295D01*
X125502954Y-61899453D01*
X125500138Y-61905176D01*
X125500136Y-61905179D01*
X125424037Y-62059834D01*
X125416982Y-62074171D01*
X125415373Y-62080349D01*
X125415372Y-62080351D01*
X125393445Y-62164532D01*
X125367898Y-62262607D01*
X125367564Y-62268986D01*
X125360842Y-62397251D01*
X125357707Y-62457064D01*
X111381613Y-62457064D01*
X111335675Y-62406045D01*
X111335674Y-62406044D01*
X111331253Y-62401134D01*
X111176752Y-62288882D01*
X111170726Y-62286199D01*
X111170719Y-62286195D01*
X111091968Y-62251134D01*
X111086666Y-62248774D01*
X111032571Y-62202795D01*
X111011921Y-62134868D01*
X111031273Y-62066559D01*
X111048820Y-62044572D01*
X112218466Y-60874926D01*
X112280778Y-60840900D01*
X112307561Y-60838021D01*
X123711265Y-60838021D01*
X123712585Y-60838028D01*
X123802700Y-60838972D01*
X123845076Y-60829810D01*
X123857642Y-60827752D01*
X123900734Y-60822918D01*
X123907385Y-60820602D01*
X123907389Y-60820601D01*
X123932409Y-60811888D01*
X123947221Y-60807725D01*
X123973098Y-60802130D01*
X123979989Y-60800640D01*
X124019292Y-60782313D01*
X124031068Y-60777531D01*
X124072031Y-60763266D01*
X124078006Y-60759532D01*
X124078009Y-60759531D01*
X124100474Y-60745494D01*
X124113991Y-60738155D01*
X124137993Y-60726962D01*
X124137994Y-60726961D01*
X124144381Y-60723983D01*
X124178632Y-60697415D01*
X124189091Y-60690119D01*
X124219883Y-60670879D01*
X124219886Y-60670877D01*
X124225855Y-60667147D01*
X124254658Y-60638545D01*
X124255283Y-60637960D01*
X124255949Y-60637443D01*
X124281939Y-60611453D01*
X124354561Y-60539336D01*
X124355219Y-60538299D01*
X124356322Y-60537070D01*
X124821912Y-60071480D01*
X124859758Y-60045468D01*
X124860201Y-60045271D01*
X124923092Y-60017270D01*
X125020722Y-59973803D01*
X125020724Y-59973802D01*
X125026752Y-59971118D01*
X125181253Y-59858866D01*
X125309040Y-59716944D01*
X125404527Y-59551556D01*
X125463542Y-59369928D01*
X125464415Y-59361627D01*
X125482814Y-59186565D01*
X125483504Y-59180000D01*
X125474609Y-59095369D01*
X125464232Y-58996635D01*
X125464232Y-58996633D01*
X125463542Y-58990072D01*
X125404527Y-58808444D01*
X125383990Y-58772872D01*
X125329620Y-58678702D01*
X125309040Y-58643056D01*
X125181253Y-58501134D01*
X125082157Y-58429136D01*
X125032094Y-58392763D01*
X125032093Y-58392762D01*
X125026752Y-58388882D01*
X125020724Y-58386198D01*
X125020722Y-58386197D01*
X124858319Y-58313891D01*
X124858318Y-58313891D01*
X124852288Y-58311206D01*
X124758888Y-58291353D01*
X124671944Y-58272872D01*
X124671939Y-58272872D01*
X124665487Y-58271500D01*
X124474513Y-58271500D01*
X124468061Y-58272872D01*
X124468056Y-58272872D01*
X124381112Y-58291353D01*
X124287712Y-58311206D01*
X124281682Y-58313891D01*
X124281681Y-58313891D01*
X124119278Y-58386197D01*
X124119276Y-58386198D01*
X124113248Y-58388882D01*
X124107907Y-58392762D01*
X124107906Y-58392763D01*
X124057843Y-58429136D01*
X123958747Y-58501134D01*
X123830960Y-58643056D01*
X123735473Y-58808444D01*
X123733433Y-58814724D01*
X123733432Y-58814725D01*
X123714646Y-58872542D01*
X123683908Y-58922700D01*
X123422492Y-59184116D01*
X123360180Y-59218142D01*
X123333397Y-59221021D01*
X122976074Y-59221021D01*
X122907953Y-59201019D01*
X122861460Y-59147363D01*
X122850316Y-59087219D01*
X122854732Y-59016051D01*
X122859503Y-58939138D01*
X122856679Y-58922700D01*
X122831106Y-58773875D01*
X122831105Y-58773873D01*
X122829866Y-58766660D01*
X122761346Y-58605627D01*
X122657617Y-58464676D01*
X122652039Y-58459937D01*
X122652036Y-58459934D01*
X122529824Y-58356107D01*
X122529820Y-58356104D01*
X122524245Y-58351368D01*
X122440062Y-58308382D01*
X122374900Y-58275108D01*
X122374898Y-58275107D01*
X122368384Y-58271781D01*
X122361279Y-58270042D01*
X122361275Y-58270041D01*
X122267741Y-58247154D01*
X122198394Y-58230185D01*
X122192794Y-58229838D01*
X122192790Y-58229837D01*
X122189291Y-58229620D01*
X122189282Y-58229620D01*
X122187352Y-58229500D01*
X122061178Y-58229500D01*
X121969631Y-58240173D01*
X121938444Y-58243809D01*
X121938442Y-58243809D01*
X121931172Y-58244657D01*
X121924295Y-58247153D01*
X121924292Y-58247154D01*
X121853441Y-58272872D01*
X121766669Y-58304369D01*
X121620315Y-58400323D01*
X121499960Y-58527372D01*
X121412061Y-58678702D01*
X121361333Y-58846193D01*
X121350497Y-59020862D01*
X121351737Y-59028077D01*
X121351737Y-59028082D01*
X121359573Y-59073684D01*
X121351396Y-59144208D01*
X121306388Y-59199115D01*
X121235393Y-59221021D01*
X111929693Y-59221021D01*
X111928373Y-59221014D01*
X111927298Y-59221003D01*
X111838258Y-59220070D01*
X111795882Y-59229232D01*
X111783316Y-59231290D01*
X111740224Y-59236124D01*
X111733573Y-59238440D01*
X111733569Y-59238441D01*
X111708549Y-59247154D01*
X111693736Y-59251317D01*
X111660969Y-59258402D01*
X111621666Y-59276729D01*
X111609890Y-59281511D01*
X111568927Y-59295776D01*
X111562952Y-59299510D01*
X111562949Y-59299511D01*
X111540484Y-59313548D01*
X111526967Y-59320887D01*
X111502965Y-59332080D01*
X111496577Y-59335059D01*
X111491012Y-59339376D01*
X111491010Y-59339377D01*
X111462326Y-59361627D01*
X111451867Y-59368923D01*
X111421075Y-59388163D01*
X111421072Y-59388165D01*
X111415103Y-59391895D01*
X111410108Y-59396855D01*
X111410107Y-59396856D01*
X111386300Y-59420497D01*
X111385675Y-59421082D01*
X111385009Y-59421599D01*
X111359019Y-59447589D01*
X111286397Y-59519706D01*
X111285739Y-59520743D01*
X111284636Y-59521972D01*
X108668088Y-62138520D01*
X108630242Y-62164532D01*
X108469278Y-62236197D01*
X108469276Y-62236198D01*
X108463248Y-62238882D01*
X108457907Y-62242762D01*
X108457906Y-62242763D01*
X108407843Y-62279136D01*
X108308747Y-62351134D01*
X108304326Y-62356044D01*
X108304325Y-62356045D01*
X108207679Y-62463382D01*
X108180960Y-62493056D01*
X108085473Y-62658444D01*
X108026458Y-62840072D01*
X108006496Y-63030000D01*
X107072994Y-63030000D01*
X107083504Y-62930000D01*
X107077190Y-62869928D01*
X107064232Y-62746635D01*
X107064232Y-62746633D01*
X107063542Y-62740072D01*
X107004527Y-62558444D01*
X106909040Y-62393056D01*
X106887666Y-62369317D01*
X106785675Y-62256045D01*
X106785674Y-62256044D01*
X106781253Y-62251134D01*
X106626752Y-62138882D01*
X106620724Y-62136198D01*
X106620722Y-62136197D01*
X106458319Y-62063891D01*
X106458318Y-62063891D01*
X106452288Y-62061206D01*
X106358888Y-62041353D01*
X106271944Y-62022872D01*
X106271939Y-62022872D01*
X106265487Y-62021500D01*
X106074513Y-62021500D01*
X106068061Y-62022872D01*
X106068056Y-62022872D01*
X105981112Y-62041353D01*
X105887712Y-62061206D01*
X105881682Y-62063891D01*
X105881681Y-62063891D01*
X105719278Y-62136197D01*
X105719276Y-62136198D01*
X105713248Y-62138882D01*
X105558747Y-62251134D01*
X105554326Y-62256044D01*
X105554325Y-62256045D01*
X105452335Y-62369317D01*
X105430960Y-62393056D01*
X105335473Y-62558444D01*
X105276458Y-62740072D01*
X105275768Y-62746633D01*
X105275768Y-62746635D01*
X105262810Y-62869928D01*
X105256496Y-62930000D01*
X98003000Y-62930000D01*
X98003000Y-61314000D01*
X98023002Y-61245879D01*
X98076658Y-61199386D01*
X98129000Y-61188000D01*
X103486298Y-61188000D01*
X103487069Y-61188002D01*
X103564652Y-61188476D01*
X103573281Y-61186010D01*
X103573286Y-61186009D01*
X103593048Y-61180361D01*
X103609809Y-61176783D01*
X103630152Y-61173870D01*
X103630162Y-61173867D01*
X103639045Y-61172595D01*
X103662395Y-61161979D01*
X103679907Y-61155536D01*
X103695937Y-61150954D01*
X103704565Y-61148488D01*
X103729548Y-61132726D01*
X103744614Y-61124596D01*
X103771510Y-61112367D01*
X103790939Y-61095626D01*
X103805947Y-61084521D01*
X103820039Y-61075630D01*
X103827631Y-61070840D01*
X103847182Y-61048703D01*
X103859374Y-61036659D01*
X103874949Y-61023239D01*
X103874950Y-61023237D01*
X103881747Y-61017381D01*
X103886626Y-61009853D01*
X103886629Y-61009850D01*
X103895696Y-60995861D01*
X103906986Y-60980987D01*
X103918012Y-60968502D01*
X103923956Y-60961772D01*
X103936510Y-60935034D01*
X103944824Y-60920065D01*
X103960893Y-60895273D01*
X103968239Y-60870709D01*
X103974901Y-60853264D01*
X103981984Y-60838178D01*
X103981984Y-60838177D01*
X103985799Y-60830052D01*
X103990343Y-60800870D01*
X103994126Y-60784151D01*
X104000014Y-60764464D01*
X104000015Y-60764461D01*
X104002587Y-60755859D01*
X104002797Y-60721444D01*
X104002830Y-60720672D01*
X104003000Y-60719577D01*
X104003000Y-60688702D01*
X104003002Y-60687932D01*
X104003452Y-60614284D01*
X104003452Y-60614283D01*
X104003476Y-60610348D01*
X104003092Y-60609004D01*
X104003000Y-60607659D01*
X104003000Y-57519669D01*
X117097001Y-57519669D01*
X117097371Y-57526490D01*
X117102895Y-57577352D01*
X117106521Y-57592604D01*
X117151676Y-57713054D01*
X117160214Y-57728649D01*
X117236715Y-57830724D01*
X117249276Y-57843285D01*
X117351351Y-57919786D01*
X117366946Y-57928324D01*
X117487394Y-57973478D01*
X117502649Y-57977105D01*
X117553514Y-57982631D01*
X117560328Y-57983000D01*
X118911885Y-57983000D01*
X118927124Y-57978525D01*
X118928329Y-57977135D01*
X118930000Y-57969452D01*
X118930000Y-57964884D01*
X119280000Y-57964884D01*
X119284475Y-57980123D01*
X119285865Y-57981328D01*
X119293548Y-57982999D01*
X120649669Y-57982999D01*
X120656490Y-57982629D01*
X120707352Y-57977105D01*
X120722604Y-57973479D01*
X120843054Y-57928324D01*
X120858649Y-57919786D01*
X120960724Y-57843285D01*
X120973285Y-57830724D01*
X121049786Y-57728649D01*
X121058324Y-57713054D01*
X121103478Y-57592606D01*
X121107105Y-57577351D01*
X121112631Y-57526486D01*
X121113000Y-57519672D01*
X121113000Y-57493115D01*
X121108525Y-57477876D01*
X121107135Y-57476671D01*
X121099452Y-57475000D01*
X119298115Y-57475000D01*
X119282876Y-57479475D01*
X119281671Y-57480865D01*
X119280000Y-57488548D01*
X119280000Y-57964884D01*
X118930000Y-57964884D01*
X118930000Y-57493115D01*
X118925525Y-57477876D01*
X118924135Y-57476671D01*
X118916452Y-57475000D01*
X117115116Y-57475000D01*
X117099877Y-57479475D01*
X117098672Y-57480865D01*
X117097001Y-57488548D01*
X117097001Y-57519669D01*
X104003000Y-57519669D01*
X104003000Y-53130140D01*
X115006250Y-53130140D01*
X115011500Y-53170020D01*
X115011500Y-53170025D01*
X115022778Y-53255692D01*
X115027162Y-53288991D01*
X115088476Y-53437016D01*
X115093503Y-53443567D01*
X115093504Y-53443569D01*
X115161520Y-53532209D01*
X115161526Y-53532215D01*
X115186013Y-53564127D01*
X115192568Y-53569157D01*
X115211379Y-53583592D01*
X115223770Y-53594459D01*
X115313089Y-53683778D01*
X115347115Y-53746090D01*
X115349649Y-53769664D01*
X115349304Y-53772948D01*
X115349994Y-53779513D01*
X115357274Y-53848774D01*
X115369266Y-53962876D01*
X115428281Y-54144504D01*
X115523768Y-54309892D01*
X115528186Y-54314799D01*
X115528187Y-54314800D01*
X115647133Y-54446903D01*
X115651555Y-54451814D01*
X115806056Y-54564066D01*
X115812084Y-54566750D01*
X115812086Y-54566751D01*
X115974489Y-54639057D01*
X115980520Y-54641742D01*
X116073920Y-54661595D01*
X116160864Y-54680076D01*
X116160869Y-54680076D01*
X116167321Y-54681448D01*
X116358295Y-54681448D01*
X116364747Y-54680076D01*
X116364752Y-54680076D01*
X116451696Y-54661595D01*
X116545096Y-54641742D01*
X116579131Y-54626589D01*
X116645838Y-54596889D01*
X116716205Y-54587455D01*
X116780502Y-54617562D01*
X116818316Y-54677650D01*
X116817640Y-54748644D01*
X116786182Y-54801091D01*
X116577930Y-55009343D01*
X116515032Y-55043495D01*
X116362175Y-55075986D01*
X116356145Y-55078671D01*
X116356144Y-55078671D01*
X116193741Y-55150977D01*
X116193739Y-55150978D01*
X116187711Y-55153662D01*
X116033210Y-55265914D01*
X115905423Y-55407836D01*
X115867273Y-55473913D01*
X115815035Y-55564393D01*
X115809936Y-55573224D01*
X115750921Y-55754852D01*
X115730959Y-55944780D01*
X115750921Y-56134708D01*
X115809936Y-56316336D01*
X115905423Y-56481724D01*
X115909841Y-56486631D01*
X115909842Y-56486632D01*
X115965795Y-56548774D01*
X116033210Y-56623646D01*
X116187711Y-56735898D01*
X116193739Y-56738582D01*
X116193741Y-56738583D01*
X116356144Y-56810889D01*
X116362175Y-56813574D01*
X116445075Y-56831195D01*
X116542519Y-56851908D01*
X116542524Y-56851908D01*
X116548976Y-56853280D01*
X116739950Y-56853280D01*
X116746402Y-56851908D01*
X116746407Y-56851908D01*
X116843851Y-56831195D01*
X116926751Y-56813574D01*
X116932784Y-56810888D01*
X116932790Y-56810886D01*
X116933615Y-56810519D01*
X116934135Y-56810449D01*
X116939063Y-56808848D01*
X116939356Y-56809749D01*
X117003982Y-56801086D01*
X117068278Y-56831195D01*
X117101243Y-56886145D01*
X117103747Y-56885206D01*
X117111456Y-56905769D01*
X117116640Y-56976576D01*
X117111456Y-56994231D01*
X117106523Y-57007390D01*
X117102895Y-57022649D01*
X117097369Y-57073514D01*
X117097000Y-57080328D01*
X117097000Y-57106885D01*
X117101475Y-57122124D01*
X117102865Y-57123329D01*
X117110548Y-57125000D01*
X118911885Y-57125000D01*
X118927124Y-57120525D01*
X118928329Y-57119135D01*
X118930000Y-57111452D01*
X118930000Y-56734500D01*
X118950002Y-56666379D01*
X119003658Y-56619886D01*
X119056000Y-56608500D01*
X119148003Y-56608500D01*
X119151768Y-56608044D01*
X119155421Y-56607824D01*
X119224622Y-56623688D01*
X119274261Y-56674447D01*
X119288578Y-56743985D01*
X119286128Y-56760378D01*
X119280000Y-56788548D01*
X119280000Y-57106885D01*
X119284475Y-57122124D01*
X119285865Y-57123329D01*
X119293548Y-57125000D01*
X121094884Y-57125000D01*
X121110123Y-57120525D01*
X121111328Y-57119135D01*
X121112999Y-57111452D01*
X121112999Y-57080331D01*
X121112981Y-57080000D01*
X125106496Y-57080000D01*
X125107186Y-57086565D01*
X125122704Y-57234207D01*
X125126458Y-57269928D01*
X125185473Y-57451556D01*
X125188776Y-57457278D01*
X125188777Y-57457279D01*
X125206830Y-57488548D01*
X125280960Y-57616944D01*
X125285378Y-57621851D01*
X125285379Y-57621852D01*
X125404325Y-57753955D01*
X125408747Y-57758866D01*
X125507651Y-57830724D01*
X125548912Y-57860702D01*
X125563248Y-57871118D01*
X125569276Y-57873802D01*
X125569278Y-57873803D01*
X125691735Y-57928324D01*
X125737712Y-57948794D01*
X125831112Y-57968647D01*
X125918056Y-57987128D01*
X125918061Y-57987128D01*
X125924513Y-57988500D01*
X126115487Y-57988500D01*
X126121939Y-57987128D01*
X126121944Y-57987128D01*
X126208888Y-57968647D01*
X126302288Y-57948794D01*
X126348265Y-57928324D01*
X126470722Y-57873803D01*
X126470724Y-57873802D01*
X126476752Y-57871118D01*
X126491089Y-57860702D01*
X126532349Y-57830724D01*
X126631253Y-57758866D01*
X126635675Y-57753955D01*
X126754621Y-57621852D01*
X126754622Y-57621851D01*
X126759040Y-57616944D01*
X126833170Y-57488548D01*
X126851223Y-57457279D01*
X126851224Y-57457278D01*
X126854527Y-57451556D01*
X126913542Y-57269928D01*
X126917297Y-57234207D01*
X126932814Y-57086565D01*
X126933504Y-57080000D01*
X126925873Y-57007393D01*
X126914232Y-56896635D01*
X126914232Y-56896633D01*
X126913542Y-56890072D01*
X126854527Y-56708444D01*
X126759040Y-56543056D01*
X126753893Y-56537339D01*
X126635675Y-56406045D01*
X126635674Y-56406044D01*
X126631253Y-56401134D01*
X126476752Y-56288882D01*
X126470724Y-56286198D01*
X126470722Y-56286197D01*
X126308319Y-56213891D01*
X126308318Y-56213891D01*
X126302288Y-56211206D01*
X126208888Y-56191353D01*
X126121944Y-56172872D01*
X126121939Y-56172872D01*
X126115487Y-56171500D01*
X125924513Y-56171500D01*
X125918061Y-56172872D01*
X125918056Y-56172872D01*
X125831113Y-56191353D01*
X125737712Y-56211206D01*
X125731682Y-56213891D01*
X125731681Y-56213891D01*
X125569278Y-56286197D01*
X125569276Y-56286198D01*
X125563248Y-56288882D01*
X125408747Y-56401134D01*
X125404326Y-56406044D01*
X125404325Y-56406045D01*
X125286108Y-56537339D01*
X125280960Y-56543056D01*
X125185473Y-56708444D01*
X125126458Y-56890072D01*
X125125768Y-56896633D01*
X125125768Y-56896635D01*
X125114127Y-57007393D01*
X125106496Y-57080000D01*
X121112981Y-57080000D01*
X121112629Y-57073510D01*
X121107105Y-57022648D01*
X121103478Y-57007393D01*
X121098544Y-56994231D01*
X121093360Y-56923424D01*
X121098544Y-56905769D01*
X121103477Y-56892610D01*
X121107105Y-56877351D01*
X121112631Y-56826486D01*
X121113000Y-56819672D01*
X121113000Y-56793115D01*
X121108525Y-56777876D01*
X121107135Y-56776671D01*
X121099452Y-56775000D01*
X119482782Y-56775000D01*
X119414661Y-56754998D01*
X119368168Y-56701342D01*
X119358064Y-56631068D01*
X119387558Y-56566488D01*
X119424406Y-56537339D01*
X119428553Y-56535171D01*
X119435656Y-56532487D01*
X119446611Y-56524958D01*
X119559808Y-56447160D01*
X119631175Y-56425000D01*
X121094884Y-56425000D01*
X121110123Y-56420525D01*
X121111328Y-56419135D01*
X121112999Y-56411452D01*
X121112999Y-56380331D01*
X121112629Y-56373510D01*
X121107105Y-56322648D01*
X121103479Y-56307396D01*
X121058324Y-56186946D01*
X121049786Y-56171351D01*
X120973285Y-56069276D01*
X120960724Y-56056715D01*
X120858646Y-55980212D01*
X120840991Y-55970546D01*
X120790845Y-55920287D01*
X120775500Y-55860027D01*
X120775499Y-55714399D01*
X120775499Y-55708210D01*
X120765607Y-55658474D01*
X120739901Y-55620003D01*
X120718686Y-55552250D01*
X120739901Y-55479997D01*
X120758713Y-55451843D01*
X120765607Y-55441526D01*
X120775500Y-55391791D01*
X120775500Y-55239973D01*
X120795501Y-55171854D01*
X120840991Y-55129453D01*
X120858649Y-55119786D01*
X120960724Y-55043285D01*
X120973285Y-55030724D01*
X121049786Y-54928649D01*
X121058324Y-54913054D01*
X121103478Y-54792606D01*
X121107105Y-54777351D01*
X121112631Y-54726486D01*
X121113000Y-54719672D01*
X121113000Y-54693115D01*
X121108525Y-54677876D01*
X121107135Y-54676671D01*
X121099452Y-54675000D01*
X119630072Y-54675000D01*
X119557621Y-54652087D01*
X119542902Y-54641742D01*
X119442261Y-54571010D01*
X119435180Y-54568249D01*
X119428490Y-54564662D01*
X119429142Y-54563447D01*
X119379347Y-54525011D01*
X119355521Y-54458132D01*
X119371635Y-54388988D01*
X119422573Y-54339533D01*
X119481319Y-54325000D01*
X121094884Y-54325000D01*
X121110123Y-54320525D01*
X121111328Y-54319135D01*
X121112999Y-54311452D01*
X121112999Y-54280331D01*
X121112629Y-54273510D01*
X121107105Y-54222648D01*
X121103478Y-54207393D01*
X121098544Y-54194231D01*
X121093360Y-54123424D01*
X121098544Y-54105769D01*
X121103477Y-54092610D01*
X121107105Y-54077351D01*
X121112631Y-54026486D01*
X121113000Y-54019672D01*
X121113000Y-53993115D01*
X121108525Y-53977876D01*
X121107135Y-53976671D01*
X121099452Y-53975000D01*
X119298115Y-53975000D01*
X119282876Y-53979475D01*
X119281671Y-53980865D01*
X119280000Y-53988548D01*
X119280000Y-54306885D01*
X119287066Y-54330950D01*
X119287066Y-54401947D01*
X119248682Y-54461673D01*
X119184101Y-54491166D01*
X119157929Y-54492178D01*
X119155792Y-54492038D01*
X119151706Y-54491500D01*
X119056000Y-54491500D01*
X118987879Y-54471498D01*
X118941386Y-54417842D01*
X118930000Y-54365500D01*
X118930000Y-53834500D01*
X118950002Y-53766379D01*
X119003658Y-53719886D01*
X119056000Y-53708500D01*
X119144885Y-53708500D01*
X119200836Y-53701134D01*
X119255662Y-53693916D01*
X119263850Y-53692838D01*
X119271477Y-53689679D01*
X119271480Y-53689678D01*
X119404471Y-53634591D01*
X119452689Y-53625000D01*
X121094884Y-53625000D01*
X121110123Y-53620525D01*
X121111328Y-53619135D01*
X121112999Y-53611452D01*
X121112999Y-53580331D01*
X121112629Y-53573510D01*
X121107105Y-53522648D01*
X121103479Y-53507396D01*
X121058324Y-53386946D01*
X121049786Y-53371351D01*
X120973285Y-53269276D01*
X120960724Y-53256715D01*
X120858646Y-53180212D01*
X120840991Y-53170546D01*
X120790845Y-53120287D01*
X120775500Y-53060027D01*
X120775499Y-52914399D01*
X120775499Y-52908210D01*
X120765607Y-52858474D01*
X120739901Y-52820003D01*
X120718686Y-52752250D01*
X120739901Y-52679997D01*
X120758713Y-52651843D01*
X120765607Y-52641526D01*
X120775500Y-52591791D01*
X120775499Y-52208210D01*
X120765607Y-52158474D01*
X120739901Y-52120003D01*
X120718686Y-52052250D01*
X120739901Y-51979997D01*
X120758713Y-51951843D01*
X120765607Y-51941526D01*
X120775500Y-51891791D01*
X120775499Y-51508210D01*
X120765607Y-51458474D01*
X120739901Y-51420003D01*
X120718686Y-51352250D01*
X120739901Y-51279997D01*
X120758713Y-51251843D01*
X120765607Y-51241526D01*
X120775500Y-51191791D01*
X120775499Y-50808210D01*
X120765607Y-50758474D01*
X120739901Y-50720003D01*
X120718686Y-50652250D01*
X120739901Y-50579997D01*
X120758713Y-50551843D01*
X120765607Y-50541526D01*
X120775500Y-50491791D01*
X120775500Y-50339973D01*
X120795501Y-50271854D01*
X120840991Y-50229453D01*
X120858649Y-50219786D01*
X120960724Y-50143285D01*
X120973285Y-50130724D01*
X121049786Y-50028649D01*
X121058324Y-50013054D01*
X121103478Y-49892606D01*
X121107105Y-49877351D01*
X121112631Y-49826486D01*
X121113000Y-49819672D01*
X121113000Y-49793115D01*
X121108525Y-49777876D01*
X121107135Y-49776671D01*
X121099452Y-49775000D01*
X119452689Y-49775000D01*
X119404471Y-49765409D01*
X119271480Y-49710322D01*
X119271477Y-49710321D01*
X119263850Y-49707162D01*
X119144885Y-49691500D01*
X119056000Y-49691500D01*
X118987879Y-49671498D01*
X118941386Y-49617842D01*
X118930000Y-49565500D01*
X118930000Y-49406885D01*
X119280000Y-49406885D01*
X119284475Y-49422124D01*
X119285865Y-49423329D01*
X119293548Y-49425000D01*
X121094884Y-49425000D01*
X121110123Y-49420525D01*
X121111328Y-49419135D01*
X121112999Y-49411452D01*
X121112999Y-49380331D01*
X121112629Y-49373510D01*
X121107105Y-49322648D01*
X121103479Y-49307396D01*
X121058324Y-49186946D01*
X121049786Y-49171351D01*
X120973285Y-49069276D01*
X120960724Y-49056715D01*
X120912885Y-49020862D01*
X121350497Y-49020862D01*
X121351737Y-49028078D01*
X121351737Y-49028080D01*
X121378894Y-49186125D01*
X121380134Y-49193340D01*
X121448654Y-49354373D01*
X121552383Y-49495324D01*
X121557961Y-49500063D01*
X121557964Y-49500066D01*
X121680176Y-49603893D01*
X121680180Y-49603896D01*
X121685755Y-49608632D01*
X121703792Y-49617842D01*
X121782687Y-49658128D01*
X121841616Y-49688219D01*
X121848721Y-49689958D01*
X121848725Y-49689959D01*
X121919030Y-49707162D01*
X122011606Y-49729815D01*
X122017206Y-49730162D01*
X122017210Y-49730163D01*
X122020709Y-49730380D01*
X122020718Y-49730380D01*
X122022648Y-49730500D01*
X122148822Y-49730500D01*
X122240369Y-49719827D01*
X122271556Y-49716191D01*
X122271558Y-49716191D01*
X122278828Y-49715343D01*
X122285705Y-49712847D01*
X122285708Y-49712846D01*
X122436452Y-49658128D01*
X122443331Y-49655631D01*
X122589685Y-49559677D01*
X122710040Y-49432628D01*
X122797939Y-49281298D01*
X122848667Y-49113807D01*
X122859503Y-48939138D01*
X122856194Y-48919877D01*
X122831106Y-48773875D01*
X122831105Y-48773873D01*
X122829866Y-48766660D01*
X122761346Y-48605627D01*
X122657617Y-48464676D01*
X122652039Y-48459937D01*
X122652036Y-48459934D01*
X122529824Y-48356107D01*
X122529820Y-48356104D01*
X122524245Y-48351368D01*
X122440062Y-48308382D01*
X122374900Y-48275108D01*
X122374898Y-48275107D01*
X122368384Y-48271781D01*
X122361279Y-48270042D01*
X122361275Y-48270041D01*
X122267741Y-48247154D01*
X122198394Y-48230185D01*
X122192794Y-48229838D01*
X122192790Y-48229837D01*
X122189291Y-48229620D01*
X122189282Y-48229620D01*
X122187352Y-48229500D01*
X122061178Y-48229500D01*
X121969631Y-48240173D01*
X121938444Y-48243809D01*
X121938442Y-48243809D01*
X121931172Y-48244657D01*
X121924295Y-48247153D01*
X121924292Y-48247154D01*
X121847281Y-48275108D01*
X121766669Y-48304369D01*
X121620315Y-48400323D01*
X121499960Y-48527372D01*
X121412061Y-48678702D01*
X121361333Y-48846193D01*
X121350497Y-49020862D01*
X120912885Y-49020862D01*
X120858649Y-48980214D01*
X120843054Y-48971676D01*
X120722606Y-48926522D01*
X120707351Y-48922895D01*
X120656486Y-48917369D01*
X120649672Y-48917000D01*
X119298115Y-48917000D01*
X119282876Y-48921475D01*
X119281671Y-48922865D01*
X119280000Y-48930548D01*
X119280000Y-49406885D01*
X118930000Y-49406885D01*
X118930000Y-48935116D01*
X118925525Y-48919877D01*
X118924135Y-48918672D01*
X118916452Y-48917001D01*
X118847738Y-48917001D01*
X118779617Y-48896999D01*
X118733124Y-48843343D01*
X118723020Y-48773069D01*
X118752514Y-48708489D01*
X118758643Y-48701906D01*
X125885144Y-41575405D01*
X125947456Y-41541379D01*
X125974239Y-41538500D01*
X134539290Y-41538500D01*
X134607411Y-41558502D01*
X134632926Y-41580189D01*
X134658747Y-41608866D01*
X134813248Y-41721118D01*
X134819276Y-41723802D01*
X134819278Y-41723803D01*
X134981681Y-41796109D01*
X134987712Y-41798794D01*
X135053365Y-41812749D01*
X135168056Y-41837128D01*
X135168061Y-41837128D01*
X135174513Y-41838500D01*
X135365487Y-41838500D01*
X135371939Y-41837128D01*
X135371944Y-41837128D01*
X135486635Y-41812749D01*
X135552288Y-41798794D01*
X135558319Y-41796109D01*
X135720722Y-41723803D01*
X135720724Y-41723802D01*
X135726752Y-41721118D01*
X135881253Y-41608866D01*
X135908563Y-41578535D01*
X136004621Y-41471852D01*
X136004622Y-41471851D01*
X136009040Y-41466944D01*
X136104527Y-41301556D01*
X136161843Y-41125158D01*
X136162902Y-41121898D01*
X136202976Y-41063293D01*
X136230870Y-41051505D01*
X136206786Y-41033655D01*
X136181657Y-40967255D01*
X136181981Y-40944495D01*
X136182814Y-40936568D01*
X136182814Y-40936565D01*
X136183504Y-40930000D01*
X136172368Y-40824045D01*
X136164232Y-40746635D01*
X136164232Y-40746633D01*
X136163542Y-40740072D01*
X136104527Y-40558444D01*
X136090282Y-40533770D01*
X136040332Y-40447255D01*
X136009040Y-40393056D01*
X135950301Y-40327819D01*
X135885675Y-40256045D01*
X135885674Y-40256044D01*
X135881253Y-40251134D01*
X135726752Y-40138882D01*
X135720724Y-40136198D01*
X135720722Y-40136197D01*
X135558319Y-40063891D01*
X135558318Y-40063891D01*
X135552288Y-40061206D01*
X135458887Y-40041353D01*
X135371944Y-40022872D01*
X135371939Y-40022872D01*
X135365487Y-40021500D01*
X135174513Y-40021500D01*
X135168061Y-40022872D01*
X135168056Y-40022872D01*
X135081112Y-40041353D01*
X134987712Y-40061206D01*
X134981682Y-40063891D01*
X134981681Y-40063891D01*
X134819278Y-40136197D01*
X134819276Y-40136198D01*
X134813248Y-40138882D01*
X134807907Y-40142762D01*
X134807906Y-40142763D01*
X134697646Y-40222872D01*
X134658747Y-40251134D01*
X134654334Y-40256036D01*
X134654332Y-40256037D01*
X134632926Y-40279811D01*
X134572480Y-40317050D01*
X134539290Y-40321500D01*
X125718136Y-40321500D01*
X125701690Y-40320422D01*
X125678188Y-40317328D01*
X125670000Y-40316250D01*
X125661812Y-40317328D01*
X125630129Y-40321499D01*
X125630120Y-40321500D01*
X125630115Y-40321500D01*
X125511150Y-40337162D01*
X125363125Y-40398476D01*
X125363123Y-40398477D01*
X125363124Y-40398477D01*
X125267928Y-40471523D01*
X125267925Y-40471526D01*
X125236013Y-40496013D01*
X125230983Y-40502568D01*
X125216548Y-40521379D01*
X125205681Y-40533770D01*
X116354856Y-49384595D01*
X116292544Y-49418621D01*
X116265761Y-49421500D01*
X116174513Y-49421500D01*
X116168061Y-49422872D01*
X116168056Y-49422872D01*
X116081113Y-49441353D01*
X115987712Y-49461206D01*
X115981682Y-49463891D01*
X115981681Y-49463891D01*
X115819278Y-49536197D01*
X115819276Y-49536198D01*
X115813248Y-49538882D01*
X115807907Y-49542762D01*
X115807906Y-49542763D01*
X115784626Y-49559677D01*
X115658747Y-49651134D01*
X115654326Y-49656044D01*
X115654325Y-49656045D01*
X115587286Y-49730500D01*
X115530960Y-49793056D01*
X115435473Y-49958444D01*
X115376458Y-50140072D01*
X115356496Y-50330000D01*
X115357186Y-50336565D01*
X115372851Y-50485605D01*
X115376458Y-50519928D01*
X115378498Y-50526206D01*
X115406076Y-50611082D01*
X115408104Y-50682049D01*
X115375338Y-50739113D01*
X115223766Y-50890685D01*
X115211375Y-50901552D01*
X115186013Y-50921013D01*
X115161526Y-50952925D01*
X115161523Y-50952928D01*
X115088476Y-51048124D01*
X115027162Y-51196149D01*
X115027162Y-51196150D01*
X115011500Y-51315115D01*
X115011500Y-51315120D01*
X115006250Y-51355000D01*
X115007328Y-51363188D01*
X115010422Y-51386690D01*
X115011500Y-51403136D01*
X115011500Y-53082004D01*
X115010422Y-53098447D01*
X115006250Y-53130140D01*
X104003000Y-53130140D01*
X104003000Y-41130000D01*
X113556496Y-41130000D01*
X113557186Y-41136565D01*
X113575129Y-41307279D01*
X113576458Y-41319928D01*
X113635473Y-41501556D01*
X113730960Y-41666944D01*
X113735378Y-41671851D01*
X113735379Y-41671852D01*
X113849678Y-41798794D01*
X113858747Y-41808866D01*
X114013248Y-41921118D01*
X114019276Y-41923802D01*
X114019278Y-41923803D01*
X114041869Y-41933861D01*
X114187712Y-41998794D01*
X114281112Y-42018647D01*
X114368056Y-42037128D01*
X114368061Y-42037128D01*
X114374513Y-42038500D01*
X114565487Y-42038500D01*
X114571939Y-42037128D01*
X114571944Y-42037128D01*
X114658887Y-42018647D01*
X114752288Y-41998794D01*
X114898131Y-41933861D01*
X114920722Y-41923803D01*
X114920724Y-41923802D01*
X114926752Y-41921118D01*
X114966735Y-41892069D01*
X115062757Y-41822304D01*
X115081253Y-41808866D01*
X115092740Y-41796109D01*
X115107074Y-41780189D01*
X115167520Y-41742950D01*
X115200710Y-41738500D01*
X119039290Y-41738500D01*
X119107411Y-41758502D01*
X119132926Y-41780189D01*
X119147261Y-41796109D01*
X119158747Y-41808866D01*
X119177243Y-41822304D01*
X119273266Y-41892069D01*
X119313248Y-41921118D01*
X119319276Y-41923802D01*
X119319278Y-41923803D01*
X119341869Y-41933861D01*
X119487712Y-41998794D01*
X119581112Y-42018647D01*
X119668056Y-42037128D01*
X119668061Y-42037128D01*
X119674513Y-42038500D01*
X119865487Y-42038500D01*
X119871939Y-42037128D01*
X119871944Y-42037128D01*
X119958887Y-42018647D01*
X120052288Y-41998794D01*
X120198131Y-41933861D01*
X120220722Y-41923803D01*
X120220724Y-41923802D01*
X120226752Y-41921118D01*
X120381253Y-41808866D01*
X120390322Y-41798794D01*
X120504621Y-41671852D01*
X120504622Y-41671851D01*
X120509040Y-41666944D01*
X120604527Y-41501556D01*
X120663542Y-41319928D01*
X120664872Y-41307279D01*
X120682814Y-41136565D01*
X120683504Y-41130000D01*
X120670818Y-41009301D01*
X120664232Y-40946635D01*
X120664232Y-40946633D01*
X120663542Y-40940072D01*
X120604527Y-40758444D01*
X120509040Y-40593056D01*
X120483715Y-40564929D01*
X120385675Y-40456045D01*
X120385674Y-40456044D01*
X120381253Y-40451134D01*
X120248883Y-40354961D01*
X120232094Y-40342763D01*
X120232093Y-40342762D01*
X120226752Y-40338882D01*
X120220724Y-40336198D01*
X120220722Y-40336197D01*
X120058319Y-40263891D01*
X120058318Y-40263891D01*
X120052288Y-40261206D01*
X119945437Y-40238494D01*
X119871944Y-40222872D01*
X119871939Y-40222872D01*
X119865487Y-40221500D01*
X119674513Y-40221500D01*
X119668061Y-40222872D01*
X119668056Y-40222872D01*
X119594563Y-40238494D01*
X119487712Y-40261206D01*
X119481682Y-40263891D01*
X119481681Y-40263891D01*
X119319278Y-40336197D01*
X119319276Y-40336198D01*
X119313248Y-40338882D01*
X119307907Y-40342762D01*
X119307906Y-40342763D01*
X119291117Y-40354961D01*
X119158747Y-40451134D01*
X119154334Y-40456036D01*
X119154332Y-40456037D01*
X119132926Y-40479811D01*
X119072480Y-40517050D01*
X119039290Y-40521500D01*
X115200710Y-40521500D01*
X115132589Y-40501498D01*
X115107074Y-40479811D01*
X115085668Y-40456037D01*
X115085666Y-40456036D01*
X115081253Y-40451134D01*
X114948883Y-40354961D01*
X114932094Y-40342763D01*
X114932093Y-40342762D01*
X114926752Y-40338882D01*
X114920724Y-40336198D01*
X114920722Y-40336197D01*
X114758319Y-40263891D01*
X114758318Y-40263891D01*
X114752288Y-40261206D01*
X114645437Y-40238494D01*
X114571944Y-40222872D01*
X114571939Y-40222872D01*
X114565487Y-40221500D01*
X114374513Y-40221500D01*
X114368061Y-40222872D01*
X114368056Y-40222872D01*
X114294563Y-40238494D01*
X114187712Y-40261206D01*
X114181682Y-40263891D01*
X114181681Y-40263891D01*
X114019278Y-40336197D01*
X114019276Y-40336198D01*
X114013248Y-40338882D01*
X114007907Y-40342762D01*
X114007906Y-40342763D01*
X113991117Y-40354961D01*
X113858747Y-40451134D01*
X113854326Y-40456044D01*
X113854325Y-40456045D01*
X113756286Y-40564929D01*
X113730960Y-40593056D01*
X113635473Y-40758444D01*
X113576458Y-40940072D01*
X113575768Y-40946633D01*
X113575768Y-40946635D01*
X113569182Y-41009301D01*
X113556496Y-41130000D01*
X104003000Y-41130000D01*
X104003000Y-40688702D01*
X104003002Y-40687932D01*
X104003421Y-40619322D01*
X104003476Y-40610348D01*
X104001010Y-40601719D01*
X104001009Y-40601714D01*
X103995361Y-40581952D01*
X103991783Y-40565191D01*
X103988870Y-40544848D01*
X103988867Y-40544838D01*
X103987595Y-40535955D01*
X103976979Y-40512605D01*
X103970536Y-40495093D01*
X103965954Y-40479063D01*
X103963488Y-40470435D01*
X103947726Y-40445452D01*
X103939596Y-40430386D01*
X103927367Y-40403490D01*
X103910626Y-40384061D01*
X103899521Y-40369053D01*
X103890630Y-40354961D01*
X103885840Y-40347369D01*
X103863703Y-40327818D01*
X103851659Y-40315626D01*
X103838239Y-40300051D01*
X103838237Y-40300050D01*
X103832381Y-40293253D01*
X103824853Y-40288374D01*
X103824850Y-40288371D01*
X103810861Y-40279304D01*
X103795987Y-40268014D01*
X103783502Y-40256988D01*
X103776772Y-40251044D01*
X103768646Y-40247229D01*
X103768645Y-40247228D01*
X103762979Y-40244568D01*
X103750034Y-40238490D01*
X103735065Y-40230176D01*
X103710273Y-40214107D01*
X103685709Y-40206761D01*
X103668264Y-40200099D01*
X103645052Y-40189201D01*
X103615870Y-40184657D01*
X103599151Y-40180874D01*
X103579464Y-40174986D01*
X103579461Y-40174985D01*
X103570859Y-40172413D01*
X103561884Y-40172358D01*
X103561883Y-40172358D01*
X103555190Y-40172317D01*
X103536444Y-40172203D01*
X103535672Y-40172170D01*
X103534577Y-40172000D01*
X103503702Y-40172000D01*
X103502932Y-40171998D01*
X103429284Y-40171548D01*
X103429283Y-40171548D01*
X103425348Y-40171524D01*
X103424004Y-40171908D01*
X103422659Y-40172000D01*
X98129000Y-40172000D01*
X98060879Y-40151998D01*
X98014386Y-40098342D01*
X98003000Y-40046000D01*
X98003000Y-38280000D01*
X103956496Y-38280000D01*
X103957186Y-38286565D01*
X103974934Y-38455425D01*
X103976458Y-38469928D01*
X104035473Y-38651556D01*
X104038776Y-38657278D01*
X104038777Y-38657279D01*
X104072686Y-38716010D01*
X104130960Y-38816944D01*
X104135378Y-38821851D01*
X104135379Y-38821852D01*
X104191799Y-38884513D01*
X104258747Y-38958866D01*
X104352694Y-39027123D01*
X104394198Y-39057277D01*
X104413248Y-39071118D01*
X104419276Y-39073802D01*
X104419278Y-39073803D01*
X104581681Y-39146109D01*
X104587712Y-39148794D01*
X104681112Y-39168647D01*
X104768056Y-39187128D01*
X104768061Y-39187128D01*
X104774513Y-39188500D01*
X104965487Y-39188500D01*
X104971939Y-39187128D01*
X104971944Y-39187128D01*
X105058888Y-39168647D01*
X105152288Y-39148794D01*
X105158319Y-39146109D01*
X105320722Y-39073803D01*
X105320724Y-39073802D01*
X105326752Y-39071118D01*
X105345803Y-39057277D01*
X105459671Y-38974546D01*
X105481253Y-38958866D01*
X105507074Y-38930189D01*
X105567520Y-38892950D01*
X105600710Y-38888500D01*
X111640948Y-38888500D01*
X111709069Y-38908502D01*
X111755562Y-38962158D01*
X111760781Y-38975562D01*
X111785473Y-39051556D01*
X111880960Y-39216944D01*
X111885378Y-39221851D01*
X111885379Y-39221852D01*
X111939445Y-39281898D01*
X112008747Y-39358866D01*
X112015460Y-39363743D01*
X112130437Y-39447279D01*
X112163248Y-39471118D01*
X112169276Y-39473802D01*
X112169278Y-39473803D01*
X112331681Y-39546109D01*
X112337712Y-39548794D01*
X112431112Y-39568647D01*
X112518056Y-39587128D01*
X112518061Y-39587128D01*
X112524513Y-39588500D01*
X112715487Y-39588500D01*
X112721939Y-39587128D01*
X112721944Y-39587128D01*
X112808887Y-39568647D01*
X112902288Y-39548794D01*
X112908319Y-39546109D01*
X113070722Y-39473803D01*
X113070724Y-39473802D01*
X113076752Y-39471118D01*
X113109564Y-39447279D01*
X113224540Y-39363743D01*
X113231253Y-39358866D01*
X113300555Y-39281898D01*
X113354621Y-39221852D01*
X113354622Y-39221851D01*
X113359040Y-39216944D01*
X113443878Y-39070000D01*
X114216496Y-39070000D01*
X114217186Y-39076565D01*
X114232000Y-39217509D01*
X114236458Y-39259928D01*
X114295473Y-39441556D01*
X114390960Y-39606944D01*
X114395378Y-39611851D01*
X114395379Y-39611852D01*
X114510135Y-39739301D01*
X114518747Y-39748866D01*
X114673248Y-39861118D01*
X114679276Y-39863802D01*
X114679278Y-39863803D01*
X114827960Y-39930000D01*
X114847712Y-39938794D01*
X114941112Y-39958647D01*
X115028056Y-39977128D01*
X115028061Y-39977128D01*
X115034513Y-39978500D01*
X115225487Y-39978500D01*
X115231939Y-39977128D01*
X115231944Y-39977128D01*
X115318887Y-39958647D01*
X115412288Y-39938794D01*
X115432040Y-39930000D01*
X115580722Y-39863803D01*
X115580724Y-39863802D01*
X115586752Y-39861118D01*
X115741253Y-39748866D01*
X115749865Y-39739301D01*
X115864621Y-39611852D01*
X115864622Y-39611851D01*
X115869040Y-39606944D01*
X115964527Y-39441556D01*
X116023542Y-39259928D01*
X116028001Y-39217509D01*
X116042814Y-39076565D01*
X116043504Y-39070000D01*
X116039620Y-39033050D01*
X116024232Y-38886635D01*
X116024232Y-38886633D01*
X116023542Y-38880072D01*
X115964527Y-38698444D01*
X115960691Y-38691799D01*
X115872341Y-38538774D01*
X115869040Y-38533056D01*
X115836247Y-38496635D01*
X115745675Y-38396045D01*
X115745674Y-38396044D01*
X115741253Y-38391134D01*
X115636091Y-38314729D01*
X115592094Y-38282763D01*
X115592093Y-38282762D01*
X115586752Y-38278882D01*
X115580724Y-38276198D01*
X115580722Y-38276197D01*
X115418319Y-38203891D01*
X115418318Y-38203891D01*
X115412288Y-38201206D01*
X115318887Y-38181353D01*
X115231944Y-38162872D01*
X115231939Y-38162872D01*
X115225487Y-38161500D01*
X115034513Y-38161500D01*
X115028061Y-38162872D01*
X115028056Y-38162872D01*
X114941113Y-38181353D01*
X114847712Y-38201206D01*
X114841682Y-38203891D01*
X114841681Y-38203891D01*
X114679278Y-38276197D01*
X114679276Y-38276198D01*
X114673248Y-38278882D01*
X114667907Y-38282762D01*
X114667906Y-38282763D01*
X114623909Y-38314729D01*
X114518747Y-38391134D01*
X114514326Y-38396044D01*
X114514325Y-38396045D01*
X114423754Y-38496635D01*
X114390960Y-38533056D01*
X114387659Y-38538774D01*
X114299310Y-38691799D01*
X114295473Y-38698444D01*
X114236458Y-38880072D01*
X114235768Y-38886633D01*
X114235768Y-38886635D01*
X114220380Y-39033050D01*
X114216496Y-39070000D01*
X113443878Y-39070000D01*
X113454527Y-39051556D01*
X113513542Y-38869928D01*
X113533504Y-38680000D01*
X113513542Y-38490072D01*
X113454527Y-38308444D01*
X113359040Y-38143056D01*
X113324457Y-38104647D01*
X113235675Y-38006045D01*
X113235674Y-38006044D01*
X113231253Y-38001134D01*
X113076752Y-37888882D01*
X113070724Y-37886198D01*
X113070722Y-37886197D01*
X112908319Y-37813891D01*
X112908318Y-37813891D01*
X112902288Y-37811206D01*
X112808887Y-37791353D01*
X112721944Y-37772872D01*
X112721939Y-37772872D01*
X112715487Y-37771500D01*
X112598361Y-37771500D01*
X112535362Y-37754620D01*
X112533427Y-37753503D01*
X112526876Y-37748476D01*
X112378851Y-37687162D01*
X112370664Y-37686084D01*
X112370663Y-37686084D01*
X112359458Y-37684609D01*
X112328262Y-37680502D01*
X112259885Y-37671500D01*
X112259882Y-37671500D01*
X112259874Y-37671499D01*
X112228189Y-37667328D01*
X112220000Y-37666250D01*
X112188307Y-37670422D01*
X112171864Y-37671500D01*
X105600710Y-37671500D01*
X105532589Y-37651498D01*
X105507074Y-37629811D01*
X105485668Y-37606037D01*
X105485666Y-37606036D01*
X105481253Y-37601134D01*
X105326752Y-37488882D01*
X105320724Y-37486198D01*
X105320722Y-37486197D01*
X105158319Y-37413891D01*
X105158318Y-37413891D01*
X105152288Y-37411206D01*
X105036033Y-37386495D01*
X104971944Y-37372872D01*
X104971939Y-37372872D01*
X104965487Y-37371500D01*
X104774513Y-37371500D01*
X104768061Y-37372872D01*
X104768056Y-37372872D01*
X104703967Y-37386495D01*
X104587712Y-37411206D01*
X104581682Y-37413891D01*
X104581681Y-37413891D01*
X104419278Y-37486197D01*
X104419276Y-37486198D01*
X104413248Y-37488882D01*
X104258747Y-37601134D01*
X104254326Y-37606044D01*
X104254325Y-37606045D01*
X104246701Y-37614513D01*
X104130960Y-37743056D01*
X104035473Y-37908444D01*
X103976458Y-38090072D01*
X103975768Y-38096633D01*
X103975768Y-38096635D01*
X103964922Y-38199834D01*
X103956496Y-38280000D01*
X98003000Y-38280000D01*
X98003000Y-36314000D01*
X98023002Y-36245879D01*
X98076658Y-36199386D01*
X98129000Y-36188000D01*
X137057594Y-36188000D01*
X137125715Y-36208002D01*
G37*
%TD.AperFunction*%
%TD*%
M02*
