M48
; DRILL file {KiCad (6.0.0)} date Tue Feb  8 22:33:15 2022
; FORMAT={-:-/ absolute / metric / decimal}
; #@! TF.CreationDate,2022-02-08T22:33:15+08:00
; #@! TF.GenerationSoftware,Kicad,Pcbnew,(6.0.0)
; #@! TF.FileFunction,Plated,1,4,PTH
FMAT,2
METRIC
; #@! TA.AperFunction,Plated,PTH,ViaDrill
T1C0.400
; #@! TA.AperFunction,Plated,PTH,ComponentDrill
T2C0.550
; #@! TA.AperFunction,Plated,PTH,ComponentDrill
T3C0.650
; #@! TA.AperFunction,Plated,PTH,ComponentDrill
T4C1.000
%
G90
G05
T1
X104.87Y-38.28
X106.17Y-62.93
X106.29Y-47.66
X106.33Y-49.2
X107.68Y-47.61
X107.72Y-62.93
X107.78Y-49.15
X108.92Y-63.03
X110.72Y-63.08
X112.62Y-38.68
X114.42Y-63.855
X114.47Y-41.13
X115.13Y-39.07
X115.145Y-56.455
X115.745Y-63.955
X116.263Y-53.773
X116.27Y-50.33
X116.401Y-52.884
X116.445Y-51.93
X116.644Y-55.945
X117.295Y-63.98
X119.77Y-41.13
X120.304Y-48.359
X120.545Y-38.73
X121.57Y-43.08
X122.17Y-38.705
X123.72Y-38.705
X124.57Y-59.18
X125.72Y-49.78
X126.02Y-57.08
X127.12Y-44.08
X127.52Y-59.68
X128.52Y-43.98
X128.62Y-51.68
X128.62Y-54.38
X129.42Y-43.98
X129.52Y-42.88
X130.82Y-54.33
X131.52Y-42.23
X131.62Y-43.28
X131.62Y-57.28
X131.895Y-64.83
X132.495Y-63.605
X133.32Y-62.68
X133.52Y-61.78
X135.27Y-40.93
T3
X137.42Y-37.39
X137.42Y-38.66
X137.42Y-39.93
X137.42Y-41.2
X137.42Y-42.47
X137.42Y-43.74
T4
X137.17Y-60.34
X137.17Y-62.88
T2
G00X135.925Y-47.13
M15
G01X134.975Y-47.13
M16
G05
G00X135.925Y-55.77
M15
G01X134.975Y-55.77
M16
G05
T0
M30
