M48
; DRILL file {KiCad (6.0.2)} date Tue Feb 22 23:34:24 2022
; FORMAT={-:-/ absolute / metric / decimal}
; #@! TF.CreationDate,2022-02-22T23:34:24+08:00
; #@! TF.GenerationSoftware,Kicad,Pcbnew,(6.0.2)
; #@! TF.FileFunction,Plated,1,4,PTH
FMAT,2
METRIC
; #@! TA.AperFunction,Plated,PTH,ViaDrill
T1C0.400
; #@! TA.AperFunction,Plated,PTH,ComponentDrill
T2C0.550
; #@! TA.AperFunction,Plated,PTH,ComponentDrill
T3C0.650
; #@! TA.AperFunction,Plated,PTH,ComponentDrill
T4C1.000
%
G90
G05
T1
X104.86Y-38.3
X106.12Y-56.45
X106.17Y-62.09
X106.29Y-47.66
X106.33Y-49.2
X107.68Y-47.61
X107.76Y-62.1
X107.78Y-49.15
X109.27Y-62.05
X110.09Y-43.12
X110.72Y-62.11
X112.109Y-38.633
X114.12Y-38.02
X114.45Y-64.07
X114.47Y-41.13
X114.95Y-56.14
X115.13Y-39.07
X115.29Y-51.7
X115.72Y-64.09
X116.09Y-48.02
X116.17Y-52.9
X116.47Y-55.7
X117.21Y-64.12
X117.33Y-51.03
X119.77Y-41.13
X121.57Y-43.08
X124.02Y-39.07
X124.56Y-42.41
X124.57Y-59.18
X125.72Y-49.78
X126.02Y-57.08
X127.12Y-44.08
X127.44Y-39.93
X127.52Y-59.68
X128.52Y-43.98
X128.62Y-51.68
X128.62Y-54.38
X129.42Y-43.98
X129.52Y-42.88
X130.82Y-54.33
X131.52Y-42.23
X131.62Y-43.28
X131.62Y-57.28
X131.895Y-64.83
X132.495Y-63.605
X133.32Y-62.68
X133.52Y-61.78
X135.29Y-41.2
T3
X137.42Y-37.39
X137.42Y-38.66
X137.42Y-39.93
X137.42Y-41.2
X137.42Y-42.47
X137.42Y-43.74
T4
X137.17Y-60.34
X137.17Y-62.88
T2
G00X135.925Y-47.08
M15
G01X134.975Y-47.08
M16
G05
G00X135.925Y-55.72
M15
G01X134.975Y-55.72
M16
G05
T0
M30
