%TF.GenerationSoftware,KiCad,Pcbnew,(6.0.2)*%
%TF.CreationDate,2022-02-22T23:34:33+08:00*%
%TF.ProjectId,screen,73637265-656e-42e6-9b69-6361645f7063,rev?*%
%TF.SameCoordinates,Original*%
%TF.FileFunction,Legend,Bot*%
%TF.FilePolarity,Positive*%
%FSLAX46Y46*%
G04 Gerber Fmt 4.6, Leading zero omitted, Abs format (unit mm)*
G04 Created by KiCad (PCBNEW (6.0.2)) date 2022-02-22 23:34:33*
%MOMM*%
%LPD*%
G01*
G04 APERTURE LIST*
%ADD10C,0.150000*%
%ADD11C,0.100000*%
%ADD12C,0.120000*%
G04 APERTURE END LIST*
D10*
X131155000Y-61530000D02*
X133365000Y-61530000D01*
X133365000Y-61530000D02*
X133365000Y-42230000D01*
X133365000Y-42230000D02*
X131155000Y-42230000D01*
X131155000Y-42230000D02*
X131155000Y-61530000D01*
D11*
X112710000Y-56240000D02*
X109900000Y-56240000D01*
X109900000Y-56240000D02*
X109900000Y-45780000D01*
X109900000Y-45780000D02*
X112710000Y-45780000D01*
X112710000Y-45780000D02*
X112710000Y-56240000D01*
X132526904Y-43022857D02*
X132145952Y-42856190D01*
X132526904Y-42737142D02*
X131726904Y-42737142D01*
X131726904Y-42927619D01*
X131765000Y-42975238D01*
X131803095Y-42999047D01*
X131879285Y-43022857D01*
X131993571Y-43022857D01*
X132069761Y-42999047D01*
X132107857Y-42975238D01*
X132145952Y-42927619D01*
X132145952Y-42737142D01*
X132488809Y-43427619D02*
X132526904Y-43380000D01*
X132526904Y-43284761D01*
X132488809Y-43237142D01*
X132412619Y-43213333D01*
X132107857Y-43213333D01*
X132031666Y-43237142D01*
X131993571Y-43284761D01*
X131993571Y-43380000D01*
X132031666Y-43427619D01*
X132107857Y-43451428D01*
X132184047Y-43451428D01*
X132260238Y-43213333D01*
X132526904Y-43737142D02*
X132488809Y-43689523D01*
X132412619Y-43665714D01*
X131726904Y-43665714D01*
X132488809Y-44118095D02*
X132526904Y-44070476D01*
X132526904Y-43975238D01*
X132488809Y-43927619D01*
X132412619Y-43903809D01*
X132107857Y-43903809D01*
X132031666Y-43927619D01*
X131993571Y-43975238D01*
X131993571Y-44070476D01*
X132031666Y-44118095D01*
X132107857Y-44141904D01*
X132184047Y-44141904D01*
X132260238Y-43903809D01*
X132526904Y-44570476D02*
X132107857Y-44570476D01*
X132031666Y-44546666D01*
X131993571Y-44499047D01*
X131993571Y-44403809D01*
X132031666Y-44356190D01*
X132488809Y-44570476D02*
X132526904Y-44522857D01*
X132526904Y-44403809D01*
X132488809Y-44356190D01*
X132412619Y-44332380D01*
X132336428Y-44332380D01*
X132260238Y-44356190D01*
X132222142Y-44403809D01*
X132222142Y-44522857D01*
X132184047Y-44570476D01*
X132488809Y-44784761D02*
X132526904Y-44832380D01*
X132526904Y-44927619D01*
X132488809Y-44975238D01*
X132412619Y-44999047D01*
X132374523Y-44999047D01*
X132298333Y-44975238D01*
X132260238Y-44927619D01*
X132260238Y-44856190D01*
X132222142Y-44808571D01*
X132145952Y-44784761D01*
X132107857Y-44784761D01*
X132031666Y-44808571D01*
X131993571Y-44856190D01*
X131993571Y-44927619D01*
X132031666Y-44975238D01*
X132488809Y-45403809D02*
X132526904Y-45356190D01*
X132526904Y-45260952D01*
X132488809Y-45213333D01*
X132412619Y-45189523D01*
X132107857Y-45189523D01*
X132031666Y-45213333D01*
X131993571Y-45260952D01*
X131993571Y-45356190D01*
X132031666Y-45403809D01*
X132107857Y-45427619D01*
X132184047Y-45427619D01*
X132260238Y-45189523D01*
X132526904Y-46022857D02*
X131993571Y-46022857D01*
X132069761Y-46022857D02*
X132031666Y-46046666D01*
X131993571Y-46094285D01*
X131993571Y-46165714D01*
X132031666Y-46213333D01*
X132107857Y-46237142D01*
X132526904Y-46237142D01*
X132107857Y-46237142D02*
X132031666Y-46260952D01*
X131993571Y-46308571D01*
X131993571Y-46380000D01*
X132031666Y-46427619D01*
X132107857Y-46451428D01*
X132526904Y-46451428D01*
X131993571Y-46641904D02*
X132526904Y-46760952D01*
X131993571Y-46880000D02*
X132526904Y-46760952D01*
X132717380Y-46713333D01*
X132755476Y-46689523D01*
X132793571Y-46641904D01*
X131993571Y-47451428D02*
X132793571Y-47451428D01*
X132031666Y-47451428D02*
X131993571Y-47499047D01*
X131993571Y-47594285D01*
X132031666Y-47641904D01*
X132069761Y-47665714D01*
X132145952Y-47689523D01*
X132374523Y-47689523D01*
X132450714Y-47665714D01*
X132488809Y-47641904D01*
X132526904Y-47594285D01*
X132526904Y-47499047D01*
X132488809Y-47451428D01*
X132488809Y-48094285D02*
X132526904Y-48046666D01*
X132526904Y-47951428D01*
X132488809Y-47903809D01*
X132412619Y-47880000D01*
X132107857Y-47880000D01*
X132031666Y-47903809D01*
X131993571Y-47951428D01*
X131993571Y-48046666D01*
X132031666Y-48094285D01*
X132107857Y-48118095D01*
X132184047Y-48118095D01*
X132260238Y-47880000D01*
X132526904Y-48332380D02*
X131993571Y-48332380D01*
X132145952Y-48332380D02*
X132069761Y-48356190D01*
X132031666Y-48380000D01*
X131993571Y-48427619D01*
X131993571Y-48475238D01*
X132488809Y-48618095D02*
X132526904Y-48665714D01*
X132526904Y-48760952D01*
X132488809Y-48808571D01*
X132412619Y-48832380D01*
X132374523Y-48832380D01*
X132298333Y-48808571D01*
X132260238Y-48760952D01*
X132260238Y-48689523D01*
X132222142Y-48641904D01*
X132145952Y-48618095D01*
X132107857Y-48618095D01*
X132031666Y-48641904D01*
X131993571Y-48689523D01*
X131993571Y-48760952D01*
X132031666Y-48808571D01*
X132526904Y-49118095D02*
X132488809Y-49070476D01*
X132450714Y-49046666D01*
X132374523Y-49022857D01*
X132145952Y-49022857D01*
X132069761Y-49046666D01*
X132031666Y-49070476D01*
X131993571Y-49118095D01*
X131993571Y-49189523D01*
X132031666Y-49237142D01*
X132069761Y-49260952D01*
X132145952Y-49284761D01*
X132374523Y-49284761D01*
X132450714Y-49260952D01*
X132488809Y-49237142D01*
X132526904Y-49189523D01*
X132526904Y-49118095D01*
X131993571Y-49499047D02*
X132526904Y-49499047D01*
X132069761Y-49499047D02*
X132031666Y-49522857D01*
X131993571Y-49570476D01*
X131993571Y-49641904D01*
X132031666Y-49689523D01*
X132107857Y-49713333D01*
X132526904Y-49713333D01*
X132526904Y-50165714D02*
X132107857Y-50165714D01*
X132031666Y-50141904D01*
X131993571Y-50094285D01*
X131993571Y-49999047D01*
X132031666Y-49951428D01*
X132488809Y-50165714D02*
X132526904Y-50118095D01*
X132526904Y-49999047D01*
X132488809Y-49951428D01*
X132412619Y-49927619D01*
X132336428Y-49927619D01*
X132260238Y-49951428D01*
X132222142Y-49999047D01*
X132222142Y-50118095D01*
X132184047Y-50165714D01*
X132526904Y-50475238D02*
X132488809Y-50427619D01*
X132412619Y-50403809D01*
X131726904Y-50403809D01*
X132526904Y-50665714D02*
X131993571Y-50665714D01*
X131726904Y-50665714D02*
X131765000Y-50641904D01*
X131803095Y-50665714D01*
X131765000Y-50689523D01*
X131726904Y-50665714D01*
X131803095Y-50665714D01*
X131993571Y-50832380D02*
X131993571Y-51022857D01*
X131726904Y-50903809D02*
X132412619Y-50903809D01*
X132488809Y-50927619D01*
X132526904Y-50975238D01*
X132526904Y-51022857D01*
X131993571Y-51141904D02*
X132526904Y-51260952D01*
X131993571Y-51380000D02*
X132526904Y-51260952D01*
X132717380Y-51213333D01*
X132755476Y-51189523D01*
X132793571Y-51141904D01*
X132526904Y-52165714D02*
X132107857Y-52165714D01*
X132031666Y-52141904D01*
X131993571Y-52094285D01*
X131993571Y-51999047D01*
X132031666Y-51951428D01*
X132488809Y-52165714D02*
X132526904Y-52118095D01*
X132526904Y-51999047D01*
X132488809Y-51951428D01*
X132412619Y-51927619D01*
X132336428Y-51927619D01*
X132260238Y-51951428D01*
X132222142Y-51999047D01*
X132222142Y-52118095D01*
X132184047Y-52165714D01*
X131993571Y-52403809D02*
X132526904Y-52403809D01*
X132069761Y-52403809D02*
X132031666Y-52427619D01*
X131993571Y-52475238D01*
X131993571Y-52546666D01*
X132031666Y-52594285D01*
X132107857Y-52618095D01*
X132526904Y-52618095D01*
X132526904Y-53070476D02*
X131726904Y-53070476D01*
X132488809Y-53070476D02*
X132526904Y-53022857D01*
X132526904Y-52927619D01*
X132488809Y-52879999D01*
X132450714Y-52856190D01*
X132374523Y-52832380D01*
X132145952Y-52832380D01*
X132069761Y-52856190D01*
X132031666Y-52879999D01*
X131993571Y-52927619D01*
X131993571Y-53022857D01*
X132031666Y-53070476D01*
X131993571Y-53689523D02*
X132793571Y-53689523D01*
X132031666Y-53689523D02*
X131993571Y-53737142D01*
X131993571Y-53832380D01*
X132031666Y-53879999D01*
X132069761Y-53903809D01*
X132145952Y-53927619D01*
X132374523Y-53927619D01*
X132450714Y-53903809D01*
X132488809Y-53879999D01*
X132526904Y-53832380D01*
X132526904Y-53737142D01*
X132488809Y-53689523D01*
X131993571Y-54356190D02*
X132526904Y-54356190D01*
X131993571Y-54141904D02*
X132412619Y-54141904D01*
X132488809Y-54165714D01*
X132526904Y-54213333D01*
X132526904Y-54284761D01*
X132488809Y-54332380D01*
X132450714Y-54356190D01*
X132526904Y-54594285D02*
X131993571Y-54594285D01*
X132145952Y-54594285D02*
X132069761Y-54618095D01*
X132031666Y-54641904D01*
X131993571Y-54689523D01*
X131993571Y-54737142D01*
X132488809Y-54879999D02*
X132526904Y-54927619D01*
X132526904Y-55022857D01*
X132488809Y-55070476D01*
X132412619Y-55094285D01*
X132374523Y-55094285D01*
X132298333Y-55070476D01*
X132260238Y-55022857D01*
X132260238Y-54951428D01*
X132222142Y-54903809D01*
X132145952Y-54879999D01*
X132107857Y-54879999D01*
X132031666Y-54903809D01*
X131993571Y-54951428D01*
X131993571Y-55022857D01*
X132031666Y-55070476D01*
X131993571Y-55522857D02*
X132526904Y-55522857D01*
X131993571Y-55308571D02*
X132412619Y-55308571D01*
X132488809Y-55332380D01*
X132526904Y-55379999D01*
X132526904Y-55451428D01*
X132488809Y-55499047D01*
X132450714Y-55522857D01*
X132526904Y-55760952D02*
X131993571Y-55760952D01*
X131726904Y-55760952D02*
X131765000Y-55737142D01*
X131803095Y-55760952D01*
X131765000Y-55784761D01*
X131726904Y-55760952D01*
X131803095Y-55760952D01*
X131993571Y-55999047D02*
X132526904Y-55999047D01*
X132069761Y-55999047D02*
X132031666Y-56022857D01*
X131993571Y-56070476D01*
X131993571Y-56141904D01*
X132031666Y-56189523D01*
X132107857Y-56213333D01*
X132526904Y-56213333D01*
X131993571Y-56665714D02*
X132641190Y-56665714D01*
X132717380Y-56641904D01*
X132755476Y-56618095D01*
X132793571Y-56570476D01*
X132793571Y-56499047D01*
X132755476Y-56451428D01*
X132488809Y-56665714D02*
X132526904Y-56618095D01*
X132526904Y-56522857D01*
X132488809Y-56475238D01*
X132450714Y-56451428D01*
X132374523Y-56427619D01*
X132145952Y-56427619D01*
X132069761Y-56451428D01*
X132031666Y-56475238D01*
X131993571Y-56522857D01*
X131993571Y-56618095D01*
X132031666Y-56665714D01*
X132526904Y-57284761D02*
X131993571Y-57284761D01*
X132069761Y-57284761D02*
X132031666Y-57308571D01*
X131993571Y-57356190D01*
X131993571Y-57427619D01*
X132031666Y-57475238D01*
X132107857Y-57499047D01*
X132526904Y-57499047D01*
X132107857Y-57499047D02*
X132031666Y-57522857D01*
X131993571Y-57570476D01*
X131993571Y-57641904D01*
X132031666Y-57689523D01*
X132107857Y-57713333D01*
X132526904Y-57713333D01*
X131993571Y-57903809D02*
X132526904Y-58022857D01*
X131993571Y-58141904D02*
X132526904Y-58022857D01*
X132717380Y-57975238D01*
X132755476Y-57951428D01*
X132793571Y-57903809D01*
X132526904Y-58927619D02*
X131726904Y-58927619D01*
X132488809Y-58927619D02*
X132526904Y-58879999D01*
X132526904Y-58784761D01*
X132488809Y-58737142D01*
X132450714Y-58713333D01*
X132374523Y-58689523D01*
X132145952Y-58689523D01*
X132069761Y-58713333D01*
X132031666Y-58737142D01*
X131993571Y-58784761D01*
X131993571Y-58879999D01*
X132031666Y-58927619D01*
X132526904Y-59165714D02*
X131993571Y-59165714D01*
X132145952Y-59165714D02*
X132069761Y-59189523D01*
X132031666Y-59213333D01*
X131993571Y-59260952D01*
X131993571Y-59308571D01*
X132488809Y-59665714D02*
X132526904Y-59618095D01*
X132526904Y-59522857D01*
X132488809Y-59475238D01*
X132412619Y-59451428D01*
X132107857Y-59451428D01*
X132031666Y-59475238D01*
X131993571Y-59522857D01*
X131993571Y-59618095D01*
X132031666Y-59665714D01*
X132107857Y-59689523D01*
X132184047Y-59689523D01*
X132260238Y-59451428D01*
X132526904Y-60118095D02*
X132107857Y-60118095D01*
X132031666Y-60094285D01*
X131993571Y-60046666D01*
X131993571Y-59951428D01*
X132031666Y-59903809D01*
X132488809Y-60118095D02*
X132526904Y-60070476D01*
X132526904Y-59951428D01*
X132488809Y-59903809D01*
X132412619Y-59879999D01*
X132336428Y-59879999D01*
X132260238Y-59903809D01*
X132222142Y-59951428D01*
X132222142Y-60070476D01*
X132184047Y-60118095D01*
X132526904Y-60356190D02*
X131993571Y-60356190D01*
X132069761Y-60356190D02*
X132031666Y-60379999D01*
X131993571Y-60427619D01*
X131993571Y-60499047D01*
X132031666Y-60546666D01*
X132107857Y-60570476D01*
X132526904Y-60570476D01*
X132107857Y-60570476D02*
X132031666Y-60594285D01*
X131993571Y-60641904D01*
X131993571Y-60713333D01*
X132031666Y-60760952D01*
X132107857Y-60784761D01*
X132526904Y-60784761D01*
X132450714Y-61022857D02*
X132488809Y-61046666D01*
X132526904Y-61022857D01*
X132488809Y-60999047D01*
X132450714Y-61022857D01*
X132526904Y-61022857D01*
X110867904Y-47647619D02*
X110334571Y-47647619D01*
X110410761Y-47647619D02*
X110372666Y-47685714D01*
X110334571Y-47761904D01*
X110334571Y-47876190D01*
X110372666Y-47952380D01*
X110448857Y-47990476D01*
X110867904Y-47990476D01*
X110448857Y-47990476D02*
X110372666Y-48028571D01*
X110334571Y-48104761D01*
X110334571Y-48219047D01*
X110372666Y-48295238D01*
X110448857Y-48333333D01*
X110867904Y-48333333D01*
X110867904Y-48714285D02*
X110334571Y-48714285D01*
X110067904Y-48714285D02*
X110106000Y-48676190D01*
X110144095Y-48714285D01*
X110106000Y-48752380D01*
X110067904Y-48714285D01*
X110144095Y-48714285D01*
X110334571Y-49095238D02*
X110867904Y-49095238D01*
X110410761Y-49095238D02*
X110372666Y-49133333D01*
X110334571Y-49209523D01*
X110334571Y-49323809D01*
X110372666Y-49400000D01*
X110448857Y-49438095D01*
X110867904Y-49438095D01*
X110867904Y-49819047D02*
X110334571Y-49819047D01*
X110067904Y-49819047D02*
X110106000Y-49780952D01*
X110144095Y-49819047D01*
X110106000Y-49857142D01*
X110067904Y-49819047D01*
X110144095Y-49819047D01*
X110829809Y-50771428D02*
X110867904Y-50847619D01*
X110867904Y-51000000D01*
X110829809Y-51076190D01*
X110753619Y-51114285D01*
X110715523Y-51114285D01*
X110639333Y-51076190D01*
X110601238Y-51000000D01*
X110601238Y-50885714D01*
X110563142Y-50809523D01*
X110486952Y-50771428D01*
X110448857Y-50771428D01*
X110372666Y-50809523D01*
X110334571Y-50885714D01*
X110334571Y-51000000D01*
X110372666Y-51076190D01*
X110829809Y-51800000D02*
X110867904Y-51723809D01*
X110867904Y-51571428D01*
X110829809Y-51495238D01*
X110791714Y-51457142D01*
X110715523Y-51419047D01*
X110486952Y-51419047D01*
X110410761Y-51457142D01*
X110372666Y-51495238D01*
X110334571Y-51571428D01*
X110334571Y-51723809D01*
X110372666Y-51800000D01*
X110867904Y-52142857D02*
X110334571Y-52142857D01*
X110486952Y-52142857D02*
X110410761Y-52180952D01*
X110372666Y-52219047D01*
X110334571Y-52295238D01*
X110334571Y-52371428D01*
X110829809Y-52942857D02*
X110867904Y-52866666D01*
X110867904Y-52714285D01*
X110829809Y-52638095D01*
X110753619Y-52600000D01*
X110448857Y-52600000D01*
X110372666Y-52638095D01*
X110334571Y-52714285D01*
X110334571Y-52866666D01*
X110372666Y-52942857D01*
X110448857Y-52980952D01*
X110525047Y-52980952D01*
X110601238Y-52600000D01*
X110829809Y-53628571D02*
X110867904Y-53552380D01*
X110867904Y-53400000D01*
X110829809Y-53323809D01*
X110753619Y-53285714D01*
X110448857Y-53285714D01*
X110372666Y-53323809D01*
X110334571Y-53400000D01*
X110334571Y-53552380D01*
X110372666Y-53628571D01*
X110448857Y-53666666D01*
X110525047Y-53666666D01*
X110601238Y-53285714D01*
X110334571Y-54009523D02*
X110867904Y-54009523D01*
X110410761Y-54009523D02*
X110372666Y-54047619D01*
X110334571Y-54123809D01*
X110334571Y-54238095D01*
X110372666Y-54314285D01*
X110448857Y-54352380D01*
X110867904Y-54352380D01*
X112155904Y-46314285D02*
X111355904Y-46314285D01*
X111355904Y-46504761D01*
X111394000Y-46619047D01*
X111470190Y-46695238D01*
X111546380Y-46733333D01*
X111698761Y-46771428D01*
X111813047Y-46771428D01*
X111965428Y-46733333D01*
X112041619Y-46695238D01*
X112117809Y-46619047D01*
X112155904Y-46504761D01*
X112155904Y-46314285D01*
X112117809Y-47419047D02*
X112155904Y-47342857D01*
X112155904Y-47190476D01*
X112117809Y-47114285D01*
X112041619Y-47076190D01*
X111736857Y-47076190D01*
X111660666Y-47114285D01*
X111622571Y-47190476D01*
X111622571Y-47342857D01*
X111660666Y-47419047D01*
X111736857Y-47457142D01*
X111813047Y-47457142D01*
X111889238Y-47076190D01*
X112117809Y-47761904D02*
X112155904Y-47838095D01*
X112155904Y-47990476D01*
X112117809Y-48066666D01*
X112041619Y-48104761D01*
X112003523Y-48104761D01*
X111927333Y-48066666D01*
X111889238Y-47990476D01*
X111889238Y-47876190D01*
X111851142Y-47800000D01*
X111774952Y-47761904D01*
X111736857Y-47761904D01*
X111660666Y-47800000D01*
X111622571Y-47876190D01*
X111622571Y-47990476D01*
X111660666Y-48066666D01*
X112155904Y-48447619D02*
X111622571Y-48447619D01*
X111355904Y-48447619D02*
X111394000Y-48409523D01*
X111432095Y-48447619D01*
X111394000Y-48485714D01*
X111355904Y-48447619D01*
X111432095Y-48447619D01*
X111622571Y-49171428D02*
X112270190Y-49171428D01*
X112346380Y-49133333D01*
X112384476Y-49095238D01*
X112422571Y-49019047D01*
X112422571Y-48904761D01*
X112384476Y-48828571D01*
X112117809Y-49171428D02*
X112155904Y-49095238D01*
X112155904Y-48942857D01*
X112117809Y-48866666D01*
X112079714Y-48828571D01*
X112003523Y-48790476D01*
X111774952Y-48790476D01*
X111698761Y-48828571D01*
X111660666Y-48866666D01*
X111622571Y-48942857D01*
X111622571Y-49095238D01*
X111660666Y-49171428D01*
X111622571Y-49552380D02*
X112155904Y-49552380D01*
X111698761Y-49552380D02*
X111660666Y-49590476D01*
X111622571Y-49666666D01*
X111622571Y-49780952D01*
X111660666Y-49857142D01*
X111736857Y-49895238D01*
X112155904Y-49895238D01*
X112155904Y-50885714D02*
X111355904Y-50885714D01*
X111660666Y-50885714D02*
X111622571Y-50961904D01*
X111622571Y-51114285D01*
X111660666Y-51190476D01*
X111698761Y-51228571D01*
X111774952Y-51266666D01*
X112003523Y-51266666D01*
X112079714Y-51228571D01*
X112117809Y-51190476D01*
X112155904Y-51114285D01*
X112155904Y-50961904D01*
X112117809Y-50885714D01*
X111622571Y-51533333D02*
X112155904Y-51723809D01*
X111622571Y-51914285D02*
X112155904Y-51723809D01*
X112346380Y-51647619D01*
X112384476Y-51609523D01*
X112422571Y-51533333D01*
X112117809Y-52790476D02*
X112155904Y-52866666D01*
X112155904Y-53019047D01*
X112117809Y-53095238D01*
X112041619Y-53133333D01*
X112003523Y-53133333D01*
X111927333Y-53095238D01*
X111889238Y-53019047D01*
X111889238Y-52904761D01*
X111851142Y-52828571D01*
X111774952Y-52790476D01*
X111736857Y-52790476D01*
X111660666Y-52828571D01*
X111622571Y-52904761D01*
X111622571Y-53019047D01*
X111660666Y-53095238D01*
X111622571Y-53361904D02*
X111622571Y-53666666D01*
X111355904Y-53476190D02*
X112041619Y-53476190D01*
X112117809Y-53514285D01*
X112155904Y-53590476D01*
X112155904Y-53666666D01*
X112155904Y-54047619D02*
X112117809Y-53971428D01*
X112079714Y-53933333D01*
X112003523Y-53895238D01*
X111774952Y-53895238D01*
X111698761Y-53933333D01*
X111660666Y-53971428D01*
X111622571Y-54047619D01*
X111622571Y-54161904D01*
X111660666Y-54238095D01*
X111698761Y-54276190D01*
X111774952Y-54314285D01*
X112003523Y-54314285D01*
X112079714Y-54276190D01*
X112117809Y-54238095D01*
X112155904Y-54161904D01*
X112155904Y-54047619D01*
X111622571Y-54657142D02*
X112155904Y-54657142D01*
X111698761Y-54657142D02*
X111660666Y-54695238D01*
X111622571Y-54771428D01*
X111622571Y-54885714D01*
X111660666Y-54961904D01*
X111736857Y-55000000D01*
X112155904Y-55000000D01*
X112117809Y-55685714D02*
X112155904Y-55609523D01*
X112155904Y-55457142D01*
X112117809Y-55380952D01*
X112041619Y-55342857D01*
X111736857Y-55342857D01*
X111660666Y-55380952D01*
X111622571Y-55457142D01*
X111622571Y-55609523D01*
X111660666Y-55685714D01*
X111736857Y-55723809D01*
X111813047Y-55723809D01*
X111889238Y-55342857D01*
D10*
X115130714Y-27628571D02*
X115130714Y-28161904D01*
X114940238Y-27323809D02*
X114749761Y-27895238D01*
X115245000Y-27895238D01*
X115968809Y-28161904D02*
X115511666Y-28161904D01*
X115740238Y-28161904D02*
X115740238Y-27361904D01*
X115664047Y-27476190D01*
X115587857Y-27552380D01*
X115511666Y-27590476D01*
X116311666Y-28085714D02*
X116349761Y-28123809D01*
X116311666Y-28161904D01*
X116273571Y-28123809D01*
X116311666Y-28085714D01*
X116311666Y-28161904D01*
X116730714Y-28161904D02*
X116883095Y-28161904D01*
X116959285Y-28123809D01*
X116997380Y-28085714D01*
X117073571Y-27971428D01*
X117111666Y-27819047D01*
X117111666Y-27514285D01*
X117073571Y-27438095D01*
X117035476Y-27400000D01*
X116959285Y-27361904D01*
X116806904Y-27361904D01*
X116730714Y-27400000D01*
X116692619Y-27438095D01*
X116654523Y-27514285D01*
X116654523Y-27704761D01*
X116692619Y-27780952D01*
X116730714Y-27819047D01*
X116806904Y-27857142D01*
X116959285Y-27857142D01*
X117035476Y-27819047D01*
X117073571Y-27780952D01*
X117111666Y-27704761D01*
X117606904Y-27361904D02*
X117683095Y-27361904D01*
X117759285Y-27400000D01*
X117797380Y-27438095D01*
X117835476Y-27514285D01*
X117873571Y-27666666D01*
X117873571Y-27857142D01*
X117835476Y-28009523D01*
X117797380Y-28085714D01*
X117759285Y-28123809D01*
X117683095Y-28161904D01*
X117606904Y-28161904D01*
X117530714Y-28123809D01*
X117492619Y-28085714D01*
X117454523Y-28009523D01*
X117416428Y-27857142D01*
X117416428Y-27666666D01*
X117454523Y-27514285D01*
X117492619Y-27438095D01*
X117530714Y-27400000D01*
X117606904Y-27361904D01*
X118368809Y-27361904D02*
X118445000Y-27361904D01*
X118521190Y-27400000D01*
X118559285Y-27438095D01*
X118597380Y-27514285D01*
X118635476Y-27666666D01*
X118635476Y-27857142D01*
X118597380Y-28009523D01*
X118559285Y-28085714D01*
X118521190Y-28123809D01*
X118445000Y-28161904D01*
X118368809Y-28161904D01*
X118292619Y-28123809D01*
X118254523Y-28085714D01*
X118216428Y-28009523D01*
X118178333Y-27857142D01*
X118178333Y-27666666D01*
X118216428Y-27514285D01*
X118254523Y-27438095D01*
X118292619Y-27400000D01*
X118368809Y-27361904D01*
X119130714Y-27361904D02*
X119206904Y-27361904D01*
X119283095Y-27400000D01*
X119321190Y-27438095D01*
X119359285Y-27514285D01*
X119397380Y-27666666D01*
X119397380Y-27857142D01*
X119359285Y-28009523D01*
X119321190Y-28085714D01*
X119283095Y-28123809D01*
X119206904Y-28161904D01*
X119130714Y-28161904D01*
X119054523Y-28123809D01*
X119016428Y-28085714D01*
X118978333Y-28009523D01*
X118940238Y-27857142D01*
X118940238Y-27666666D01*
X118978333Y-27514285D01*
X119016428Y-27438095D01*
X119054523Y-27400000D01*
X119130714Y-27361904D01*
X120349761Y-28161904D02*
X120349761Y-27628571D01*
X120349761Y-27704761D02*
X120387857Y-27666666D01*
X120464047Y-27628571D01*
X120578333Y-27628571D01*
X120654523Y-27666666D01*
X120692619Y-27742857D01*
X120692619Y-28161904D01*
X120692619Y-27742857D02*
X120730714Y-27666666D01*
X120806904Y-27628571D01*
X120921190Y-27628571D01*
X120997380Y-27666666D01*
X121035476Y-27742857D01*
X121035476Y-28161904D01*
X121416428Y-28161904D02*
X121416428Y-27628571D01*
X121416428Y-27704761D02*
X121454523Y-27666666D01*
X121530714Y-27628571D01*
X121645000Y-27628571D01*
X121721190Y-27666666D01*
X121759285Y-27742857D01*
X121759285Y-28161904D01*
X121759285Y-27742857D02*
X121797380Y-27666666D01*
X121873571Y-27628571D01*
X121987857Y-27628571D01*
X122064047Y-27666666D01*
X122102142Y-27742857D01*
X122102142Y-28161904D01*
X97495000Y-35180000D02*
X97495000Y-28163580D01*
X139395000Y-35180000D02*
X139395000Y-28163580D01*
X97495000Y-28750000D02*
X139395000Y-28750000D01*
X97495000Y-28750000D02*
X139395000Y-28750000D01*
X97495000Y-28750000D02*
X98621504Y-29336421D01*
X97495000Y-28750000D02*
X98621504Y-28163579D01*
X139395000Y-28750000D02*
X138268496Y-28163579D01*
X139395000Y-28750000D02*
X138268496Y-29336421D01*
%TO.C,U3*%
X97062380Y-49938095D02*
X97871904Y-49938095D01*
X97967142Y-49985714D01*
X98014761Y-50033333D01*
X98062380Y-50128571D01*
X98062380Y-50319047D01*
X98014761Y-50414285D01*
X97967142Y-50461904D01*
X97871904Y-50509523D01*
X97062380Y-50509523D01*
X97062380Y-50890476D02*
X97062380Y-51509523D01*
X97443333Y-51176190D01*
X97443333Y-51319047D01*
X97490952Y-51414285D01*
X97538571Y-51461904D01*
X97633809Y-51509523D01*
X97871904Y-51509523D01*
X97967142Y-51461904D01*
X98014761Y-51414285D01*
X98062380Y-51319047D01*
X98062380Y-51033333D01*
X98014761Y-50938095D01*
X97967142Y-50890476D01*
D12*
X122710000Y-49000000D02*
G75*
G03*
X122710000Y-49000000I-600000J0D01*
G01*
X122710000Y-59000000D02*
G75*
G03*
X122710000Y-59000000I-600000J0D01*
G01*
X100010000Y-37700000D02*
X129010000Y-37700000D01*
X129010000Y-37700000D02*
X129010000Y-63700000D01*
X129010000Y-63700000D02*
X100010000Y-63700000D01*
X100010000Y-63700000D02*
X100010000Y-37700000D01*
X124710000Y-39000000D02*
X101310000Y-39000000D01*
X101310000Y-39000000D02*
X101310000Y-62400000D01*
X101310000Y-62400000D02*
X124710000Y-62400000D01*
X124710000Y-62400000D02*
X124710000Y-39000000D01*
X129010000Y-42000000D02*
X128010000Y-42000000D01*
X128010000Y-42000000D02*
X128010000Y-59400000D01*
X128010000Y-59400000D02*
X129010000Y-59400000D01*
X129010000Y-59400000D02*
X129010000Y-42000000D01*
X120110000Y-48000000D02*
X118110000Y-48000000D01*
X120110000Y-48000000D02*
X120110000Y-49200000D01*
X129010000Y-61200000D02*
X125110000Y-61200000D01*
X125110000Y-62700000D02*
X129010000Y-62700000D01*
X125110000Y-62700000D02*
X120110000Y-59400000D01*
X118110000Y-59400000D02*
X118110000Y-57800000D01*
X129010000Y-59400000D02*
X125110000Y-56700000D01*
X125110000Y-48000000D02*
X125110000Y-62700000D01*
X120110000Y-59400000D02*
X118110000Y-59400000D01*
X129010000Y-42000000D02*
X125110000Y-48000000D01*
X120110000Y-57800000D02*
X120110000Y-59400000D01*
X118110000Y-48000000D02*
X118110000Y-49200000D01*
X120110000Y-48000000D02*
X125110000Y-48000000D01*
%TD*%
M02*
