%TF.GenerationSoftware,KiCad,Pcbnew,(6.0.2)*%
%TF.CreationDate,2022-02-22T23:34:33+08:00*%
%TF.ProjectId,screen,73637265-656e-42e6-9b69-6361645f7063,rev?*%
%TF.SameCoordinates,Original*%
%TF.FileFunction,Copper,L1,Top*%
%TF.FilePolarity,Positive*%
%FSLAX46Y46*%
G04 Gerber Fmt 4.6, Leading zero omitted, Abs format (unit mm)*
G04 Created by KiCad (PCBNEW (6.0.2)) date 2022-02-22 23:34:33*
%MOMM*%
%LPD*%
G01*
G04 APERTURE LIST*
G04 Aperture macros list*
%AMRoundRect*
0 Rectangle with rounded corners*
0 $1 Rounding radius*
0 $2 $3 $4 $5 $6 $7 $8 $9 X,Y pos of 4 corners*
0 Add a 4 corners polygon primitive as box body*
4,1,4,$2,$3,$4,$5,$6,$7,$8,$9,$2,$3,0*
0 Add four circle primitives for the rounded corners*
1,1,$1+$1,$2,$3*
1,1,$1+$1,$4,$5*
1,1,$1+$1,$6,$7*
1,1,$1+$1,$8,$9*
0 Add four rect primitives between the rounded corners*
20,1,$1+$1,$2,$3,$4,$5,0*
20,1,$1+$1,$4,$5,$6,$7,0*
20,1,$1+$1,$6,$7,$8,$9,0*
20,1,$1+$1,$8,$9,$2,$3,0*%
G04 Aperture macros list end*
%TA.AperFunction,SMDPad,CuDef*%
%ADD10R,1.000000X2.500000*%
%TD*%
%TA.AperFunction,SMDPad,CuDef*%
%ADD11R,1.800000X1.000000*%
%TD*%
%TA.AperFunction,SMDPad,CuDef*%
%ADD12RoundRect,0.150000X0.150000X-0.587500X0.150000X0.587500X-0.150000X0.587500X-0.150000X-0.587500X0*%
%TD*%
%TA.AperFunction,SMDPad,CuDef*%
%ADD13RoundRect,0.135000X-0.185000X0.135000X-0.185000X-0.135000X0.185000X-0.135000X0.185000X0.135000X0*%
%TD*%
%TA.AperFunction,SMDPad,CuDef*%
%ADD14RoundRect,0.140000X0.170000X-0.140000X0.170000X0.140000X-0.170000X0.140000X-0.170000X-0.140000X0*%
%TD*%
%TA.AperFunction,SMDPad,CuDef*%
%ADD15RoundRect,0.135000X0.185000X-0.135000X0.185000X0.135000X-0.185000X0.135000X-0.185000X-0.135000X0*%
%TD*%
%TA.AperFunction,SMDPad,CuDef*%
%ADD16R,4.000000X2.900000*%
%TD*%
%TA.AperFunction,SMDPad,CuDef*%
%ADD17O,0.600000X1.600000*%
%TD*%
%TA.AperFunction,ComponentPad*%
%ADD18R,1.000000X1.000000*%
%TD*%
%TA.AperFunction,ComponentPad*%
%ADD19O,1.000000X1.000000*%
%TD*%
%TA.AperFunction,SMDPad,CuDef*%
%ADD20RoundRect,0.147500X0.172500X-0.147500X0.172500X0.147500X-0.172500X0.147500X-0.172500X-0.147500X0*%
%TD*%
%TA.AperFunction,SMDPad,CuDef*%
%ADD21R,1.550000X0.700000*%
%TD*%
%TA.AperFunction,SMDPad,CuDef*%
%ADD22R,1.550000X0.800000*%
%TD*%
%TA.AperFunction,SMDPad,CuDef*%
%ADD23R,1.550000X0.900000*%
%TD*%
%TA.AperFunction,ComponentPad*%
%ADD24O,1.850000X0.850000*%
%TD*%
%TA.AperFunction,SMDPad,CuDef*%
%ADD25R,1.800000X2.600000*%
%TD*%
%TA.AperFunction,SMDPad,CuDef*%
%ADD26R,1.000000X0.800000*%
%TD*%
%TA.AperFunction,SMDPad,CuDef*%
%ADD27R,0.700000X1.500000*%
%TD*%
%TA.AperFunction,ComponentPad*%
%ADD28R,1.700000X1.700000*%
%TD*%
%TA.AperFunction,ComponentPad*%
%ADD29O,1.700000X1.700000*%
%TD*%
%TA.AperFunction,BGAPad,CuDef*%
%ADD30R,1.350000X1.800000*%
%TD*%
%TA.AperFunction,SMDPad,CuDef*%
%ADD31RoundRect,0.150000X0.512500X0.150000X-0.512500X0.150000X-0.512500X-0.150000X0.512500X-0.150000X0*%
%TD*%
%TA.AperFunction,SMDPad,CuDef*%
%ADD32RoundRect,0.147500X-0.172500X0.147500X-0.172500X-0.147500X0.172500X-0.147500X0.172500X0.147500X0*%
%TD*%
%TA.AperFunction,ViaPad*%
%ADD33C,0.800000*%
%TD*%
%TA.AperFunction,Conductor*%
%ADD34C,0.200000*%
%TD*%
%TA.AperFunction,Conductor*%
%ADD35C,0.400000*%
%TD*%
%TA.AperFunction,Conductor*%
%ADD36C,0.600000*%
%TD*%
G04 APERTURE END LIST*
D10*
%TO.P,U2,1,~{RST}*%
%TO.N,/nRST*%
X106090000Y-58320000D03*
%TO.P,U2,2,ADC*%
%TO.N,/ADC*%
X108090000Y-58320000D03*
%TO.P,U2,3,EN*%
%TO.N,/EN*%
X110090000Y-58320000D03*
%TO.P,U2,4,GPIO16*%
%TO.N,/GPIO16*%
X112090000Y-58320000D03*
%TO.P,U2,5,GPIO14*%
%TO.N,/GPIO14*%
X114090000Y-58320000D03*
%TO.P,U2,6,GPIO12*%
%TO.N,/GPIO12*%
X116090000Y-58320000D03*
%TO.P,U2,7,GPIO13*%
%TO.N,/GPIO13*%
X118090000Y-58320000D03*
%TO.P,U2,8,VCC*%
%TO.N,+3V3*%
X120090000Y-58320000D03*
D11*
%TO.P,U2,9,CS0*%
%TO.N,unconnected-(U2-Pad9)*%
X121590000Y-55720000D03*
%TO.P,U2,10,MISO*%
%TO.N,unconnected-(U2-Pad10)*%
X121590000Y-53720000D03*
%TO.P,U2,11,GPIO9*%
%TO.N,unconnected-(U2-Pad11)*%
X121590000Y-51720000D03*
%TO.P,U2,12,GPIO10*%
%TO.N,unconnected-(U2-Pad12)*%
X121590000Y-49720000D03*
%TO.P,U2,13,MOSI*%
%TO.N,unconnected-(U2-Pad13)*%
X121590000Y-47720000D03*
%TO.P,U2,14,SCLK*%
%TO.N,unconnected-(U2-Pad14)*%
X121590000Y-45720000D03*
D10*
%TO.P,U2,15,GND*%
%TO.N,GND*%
X120090000Y-43120000D03*
%TO.P,U2,16,GPIO15*%
%TO.N,/GPIO15*%
X118090000Y-43120000D03*
%TO.P,U2,17,GPIO2*%
%TO.N,/GPIO2*%
X116090000Y-43120000D03*
%TO.P,U2,18,GPIO0*%
%TO.N,/GPIO0*%
X114090000Y-43120000D03*
%TO.P,U2,19,GPIO4*%
%TO.N,/GPIO4*%
X112090000Y-43120000D03*
%TO.P,U2,20,GPIO5*%
%TO.N,/GPIO5*%
X110090000Y-43120000D03*
%TO.P,U2,21,GPIO3/RXD*%
%TO.N,/RXD*%
X108090000Y-43120000D03*
%TO.P,U2,22,GPIO1/TXD*%
%TO.N,/TXD*%
X106090000Y-43120000D03*
%TD*%
D12*
%TO.P,Q1,1,B*%
%TO.N,Net-(Q1-Pad1)*%
X125500000Y-40007500D03*
%TO.P,Q1,2,E*%
%TO.N,GND*%
X127400000Y-40007500D03*
%TO.P,Q1,3,C*%
%TO.N,Net-(U3-Pad2)*%
X126450000Y-38132500D03*
%TD*%
D13*
%TO.P,R16,2*%
%TO.N,Net-(Q1-Pad1)*%
X123960000Y-40130000D03*
%TO.P,R16,1*%
%TO.N,+3V3*%
X123960000Y-39110000D03*
%TD*%
%TO.P,R15,2*%
%TO.N,Net-(Q1-Pad1)*%
X122220000Y-40130000D03*
%TO.P,R15,1*%
%TO.N,/GPIO5*%
X122220000Y-39110000D03*
%TD*%
D14*
%TO.P,C4,1*%
%TO.N,+3V3*%
X129600000Y-53360000D03*
%TO.P,C4,2*%
%TO.N,GND*%
X129600000Y-52400000D03*
%TD*%
D15*
%TO.P,R12,1*%
%TO.N,Net-(D3-Pad2)*%
X128375000Y-43070000D03*
%TO.P,R12,2*%
%TO.N,Net-(C6-Pad2)*%
X128375000Y-42050000D03*
%TD*%
D16*
%TO.P,U4,0*%
%TO.N,N/C*%
X128620000Y-48080000D03*
D17*
%TO.P,U4,1,TEMP*%
%TO.N,GND*%
X126715000Y-50680000D03*
%TO.P,U4,2,PROG*%
%TO.N,Net-(R11-Pad1)*%
X127985000Y-50680000D03*
%TO.P,U4,3,GND*%
%TO.N,GND*%
X129255000Y-50680000D03*
%TO.P,U4,4,VCC*%
%TO.N,Net-(C6-Pad2)*%
X130525000Y-50680000D03*
%TO.P,U4,5,BAT*%
%TO.N,+BATT*%
X130525000Y-45480000D03*
%TO.P,U4,6,~{STDBY}*%
%TO.N,Net-(D3-Pad1)*%
X129255000Y-45480000D03*
%TO.P,U4,7,~{CHRG}*%
%TO.N,Net-(D2-Pad1)*%
X127985000Y-45480000D03*
%TO.P,U4,8,CE*%
%TO.N,Net-(C6-Pad2)*%
X126715000Y-45480000D03*
%TD*%
D13*
%TO.P,R8,1*%
%TO.N,/nRST*%
X106195000Y-61070000D03*
%TO.P,R8,2*%
%TO.N,+3V3*%
X106195000Y-62090000D03*
%TD*%
D18*
%TO.P,J1,1,Pin_1*%
%TO.N,+3V3*%
X137420000Y-43740000D03*
D19*
%TO.P,J1,2,Pin_2*%
%TO.N,GND*%
X137420000Y-42470000D03*
%TO.P,J1,3,Pin_3*%
%TO.N,/nRST*%
X137420000Y-41200000D03*
%TO.P,J1,4,Pin_4*%
%TO.N,/GPIO0*%
X137420000Y-39930000D03*
%TO.P,J1,5,Pin_5*%
%TO.N,/TXD*%
X137420000Y-38660000D03*
%TO.P,J1,6,Pin_6*%
%TO.N,/RXD*%
X137420000Y-37390000D03*
%TD*%
D20*
%TO.P,D3,1,K*%
%TO.N,Net-(D3-Pad1)*%
X134770000Y-64865000D03*
%TO.P,D3,2,A*%
%TO.N,Net-(D3-Pad2)*%
X134770000Y-63895000D03*
%TD*%
D14*
%TO.P,C7,1*%
%TO.N,+BATT*%
X130520000Y-43040000D03*
%TO.P,C7,2*%
%TO.N,GND*%
X130520000Y-42080000D03*
%TD*%
%TO.P,C3,1*%
%TO.N,Net-(C3-Pad1)*%
X126220000Y-53360000D03*
%TO.P,C3,2*%
%TO.N,GND*%
X126220000Y-52400000D03*
%TD*%
D21*
%TO.P,J2,A5,CC*%
%TO.N,unconnected-(J2-PadA5)*%
X134675000Y-51900000D03*
D22*
%TO.P,J2,A9,VBUS*%
%TO.N,Net-(C6-Pad2)*%
X134675000Y-49880000D03*
D23*
%TO.P,J2,A12,GND*%
%TO.N,GND*%
X134675000Y-48660000D03*
D21*
%TO.P,J2,B5,VCONN*%
%TO.N,unconnected-(J2-PadB5)*%
X134675000Y-50900000D03*
D22*
%TO.P,J2,B9,VBUS*%
%TO.N,Net-(C6-Pad2)*%
X134675000Y-52920000D03*
D23*
%TO.P,J2,B12,GND*%
%TO.N,GND*%
X134675000Y-54140000D03*
D24*
%TO.P,J2,S1,SHIELD*%
X135450000Y-47080000D03*
X135450000Y-55720000D03*
%TD*%
D20*
%TO.P,D2,1,K*%
%TO.N,Net-(D2-Pad1)*%
X133395000Y-64865000D03*
%TO.P,D2,2,A*%
%TO.N,Net-(D2-Pad2)*%
X133395000Y-63895000D03*
%TD*%
D14*
%TO.P,C6,1*%
%TO.N,GND*%
X130720000Y-53360000D03*
%TO.P,C6,2*%
%TO.N,Net-(C6-Pad2)*%
X130720000Y-52400000D03*
%TD*%
D15*
%TO.P,R7,1*%
%TO.N,/GPIO0*%
X111420000Y-40090000D03*
%TO.P,R7,2*%
%TO.N,Net-(R7-Pad2)*%
X111420000Y-39070000D03*
%TD*%
%TO.P,R10,1*%
%TO.N,Net-(D2-Pad2)*%
X126220000Y-43070000D03*
%TO.P,R10,2*%
%TO.N,Net-(C6-Pad2)*%
X126220000Y-42050000D03*
%TD*%
%TO.P,R2,1*%
%TO.N,+3V3*%
X111250000Y-62090000D03*
%TO.P,R2,2*%
%TO.N,Net-(D1-Pad2)*%
X111250000Y-61070000D03*
%TD*%
%TO.P,R1,1*%
%TO.N,/GPIO0*%
X113920000Y-40090000D03*
%TO.P,R1,2*%
%TO.N,+3V3*%
X113920000Y-39070000D03*
%TD*%
D25*
%TO.P,C1,1*%
%TO.N,+3V3*%
X119720000Y-61580000D03*
%TO.P,C1,2*%
%TO.N,GND*%
X116720000Y-61580000D03*
%TD*%
D15*
%TO.P,R11,1*%
%TO.N,Net-(R11-Pad1)*%
X127350000Y-53390000D03*
%TO.P,R11,2*%
%TO.N,GND*%
X127350000Y-52370000D03*
%TD*%
D26*
%TO.P,SW1,*%
%TO.N,*%
X131470000Y-63510000D03*
X131470000Y-61300000D03*
X124170000Y-63510000D03*
X124170000Y-61300000D03*
D27*
%TO.P,SW1,1,A*%
%TO.N,+BATT*%
X125570000Y-60650000D03*
%TO.P,SW1,2,B*%
%TO.N,Net-(C2-Pad1)*%
X128570000Y-60650000D03*
%TO.P,SW1,3,C*%
%TO.N,unconnected-(SW1-Pad3)*%
X130070000Y-60650000D03*
%TD*%
D13*
%TO.P,R4,1*%
%TO.N,/EN*%
X110235000Y-61070000D03*
%TO.P,R4,2*%
%TO.N,+3V3*%
X110235000Y-62090000D03*
%TD*%
D28*
%TO.P,J3,1,Pin_1*%
%TO.N,+BATT*%
X137170000Y-62880000D03*
D29*
%TO.P,J3,2,Pin_2*%
%TO.N,GND*%
X137170000Y-60340000D03*
%TD*%
D30*
%TO.P,SW3,2,2*%
%TO.N,GND*%
X99335000Y-38300000D03*
%TO.P,SW3,1,1*%
%TO.N,Net-(R7-Pad2)*%
X103485000Y-38300000D03*
%TD*%
D15*
%TO.P,R3,1*%
%TO.N,/GPIO2*%
X116420000Y-40090000D03*
%TO.P,R3,2*%
%TO.N,+3V3*%
X116420000Y-39070000D03*
%TD*%
D13*
%TO.P,R13,1*%
%TO.N,/ADC*%
X109220000Y-61070000D03*
%TO.P,R13,2*%
%TO.N,+BATT*%
X109220000Y-62090000D03*
%TD*%
D30*
%TO.P,SW2,1,1*%
%TO.N,Net-(R5-Pad2)*%
X103495000Y-63180000D03*
%TO.P,SW2,2,2*%
%TO.N,GND*%
X99345000Y-63180000D03*
%TD*%
D15*
%TO.P,R9,2*%
%TO.N,GND*%
X118920000Y-39070000D03*
%TO.P,R9,1*%
%TO.N,/GPIO15*%
X118920000Y-40090000D03*
%TD*%
D31*
%TO.P,U1,1,IN*%
%TO.N,+BATT*%
X129757500Y-57130000D03*
%TO.P,U1,2,GND*%
%TO.N,GND*%
X129757500Y-56180000D03*
%TO.P,U1,3,EN*%
%TO.N,Net-(C2-Pad1)*%
X129757500Y-55230000D03*
%TO.P,U1,4,BP*%
%TO.N,Net-(C3-Pad1)*%
X127482500Y-55230000D03*
%TO.P,U1,5,OUT*%
%TO.N,+3V3*%
X127482500Y-57130000D03*
%TD*%
D14*
%TO.P,C2,1*%
%TO.N,Net-(C2-Pad1)*%
X128480000Y-53360000D03*
%TO.P,C2,2*%
%TO.N,GND*%
X128480000Y-52400000D03*
%TD*%
D13*
%TO.P,R5,1*%
%TO.N,/GPIO16*%
X113280000Y-61070000D03*
%TO.P,R5,2*%
%TO.N,Net-(R5-Pad2)*%
X113280000Y-62090000D03*
%TD*%
D32*
%TO.P,D1,1,K*%
%TO.N,/GPIO16*%
X112265000Y-61095000D03*
%TO.P,D1,2,A*%
%TO.N,Net-(D1-Pad2)*%
X112265000Y-62065000D03*
%TD*%
D14*
%TO.P,C5,1*%
%TO.N,GND*%
X107200000Y-62080000D03*
%TO.P,C5,2*%
%TO.N,/nRST*%
X107200000Y-61120000D03*
%TD*%
D15*
%TO.P,R14,1*%
%TO.N,GND*%
X108205000Y-62090000D03*
%TO.P,R14,2*%
%TO.N,/ADC*%
X108205000Y-61070000D03*
%TD*%
D13*
%TO.P,R6,1*%
%TO.N,/nRST*%
X105180000Y-61070000D03*
%TO.P,R6,2*%
%TO.N,Net-(R5-Pad2)*%
X105180000Y-62090000D03*
%TD*%
D33*
%TO.N,GND*%
X114950000Y-56140000D03*
%TO.N,/GPIO13*%
X117330000Y-51030000D03*
%TO.N,/GPIO5*%
X110090000Y-43120000D03*
X114120000Y-38020000D03*
%TO.N,Net-(U3-Pad2)*%
X124560000Y-42410000D03*
%TO.N,GND*%
X127440000Y-39930000D03*
%TO.N,+3V3*%
X124020000Y-39070000D03*
X126020000Y-57080000D03*
X115130000Y-39070000D03*
X106170000Y-62090000D03*
X110720000Y-62110000D03*
X130820000Y-54330000D03*
X116470000Y-55700000D03*
%TO.N,GND*%
X121570000Y-43080000D03*
X106290000Y-47660000D03*
X107680000Y-47610000D03*
X106330000Y-49200000D03*
X115720000Y-64090000D03*
X128620000Y-51680000D03*
X107760000Y-62100000D03*
X125720000Y-49780000D03*
X131520000Y-42230000D03*
X114450000Y-64070000D03*
X117210000Y-64120000D03*
X107780000Y-49150000D03*
%TO.N,/nRST*%
X135290000Y-41200000D03*
X106120000Y-56450000D03*
%TO.N,Net-(D2-Pad2)*%
X132495000Y-63605000D03*
X128520000Y-43980000D03*
%TO.N,Net-(C2-Pad1)*%
X127520000Y-59680000D03*
X128620000Y-54380000D03*
%TO.N,/GPIO0*%
X114470000Y-41130000D03*
X119770000Y-41130000D03*
X116170000Y-52900000D03*
%TO.N,/GPIO2*%
X116090000Y-48020000D03*
%TO.N,/GPIO14*%
X115290000Y-51700000D03*
%TO.N,Net-(D2-Pad1)*%
X131895000Y-64830000D03*
X127120000Y-44080000D03*
%TO.N,Net-(R7-Pad2)*%
X104860000Y-38300000D03*
X112109488Y-38632690D03*
%TO.N,+BATT*%
X124570000Y-59180000D03*
X131620000Y-57280000D03*
X109270000Y-62050000D03*
X131620000Y-43280000D03*
%TO.N,Net-(D3-Pad1)*%
X129420000Y-43980000D03*
X133320000Y-62680000D03*
%TO.N,Net-(D3-Pad2)*%
X129520000Y-42880000D03*
X133520000Y-61780000D03*
%TD*%
D34*
%TO.N,/GPIO0*%
X116170000Y-49530000D02*
X116170000Y-52900000D01*
X119770000Y-41130000D02*
X119220000Y-41680000D01*
X119220000Y-46480000D02*
X116170000Y-49530000D01*
X119220000Y-41680000D02*
X119220000Y-46480000D01*
%TO.N,/GPIO14*%
X114170000Y-58280000D02*
X114170000Y-52820000D01*
X114170000Y-52820000D02*
X115290000Y-51700000D01*
%TO.N,/GPIO13*%
X117320000Y-51040000D02*
X117330000Y-51030000D01*
X117320000Y-57550000D02*
X117320000Y-51040000D01*
X118090000Y-58320000D02*
X117320000Y-57550000D01*
%TO.N,/GPIO2*%
X116090000Y-43120000D02*
X116090000Y-48020000D01*
D35*
%TO.N,+3V3*%
X106195000Y-62090000D02*
X106170000Y-62090000D01*
X110720000Y-62100000D02*
X110720000Y-62110000D01*
X110710000Y-62090000D02*
X110720000Y-62100000D01*
D36*
%TO.N,+BATT*%
X109220000Y-62090000D02*
X109260000Y-62050000D01*
X109260000Y-62050000D02*
X109270000Y-62050000D01*
D35*
%TO.N,GND*%
X107720000Y-62100000D02*
X107760000Y-62100000D01*
X107710000Y-62090000D02*
X107720000Y-62100000D01*
D34*
%TO.N,/RXD*%
X108170000Y-43080000D02*
X108170000Y-41354550D01*
X108170000Y-41354550D02*
X112494550Y-37030000D01*
X112494550Y-37030000D02*
X137060000Y-37030000D01*
X137060000Y-37030000D02*
X137420000Y-37390000D01*
%TO.N,/GPIO5*%
X114270000Y-37870000D02*
X114120000Y-38020000D01*
X120980000Y-37870000D02*
X114270000Y-37870000D01*
X122220000Y-39110000D02*
X120980000Y-37870000D01*
%TO.N,Net-(R7-Pad2)*%
X111857310Y-38632690D02*
X112109488Y-38632690D01*
X111420000Y-39070000D02*
X111857310Y-38632690D01*
%TO.N,Net-(U3-Pad2)*%
X124560000Y-42410000D02*
X126450000Y-40520000D01*
X126450000Y-40520000D02*
X126450000Y-38132500D01*
D35*
%TO.N,GND*%
X127400000Y-40007500D02*
X127400000Y-39970000D01*
X127400000Y-39970000D02*
X127440000Y-39930000D01*
%TO.N,+3V3*%
X123980000Y-39110000D02*
X124020000Y-39070000D01*
X123960000Y-39110000D02*
X123980000Y-39110000D01*
D34*
%TO.N,Net-(Q1-Pad1)*%
X125377500Y-40130000D02*
X125500000Y-40007500D01*
X123960000Y-40130000D02*
X125377500Y-40130000D01*
X122220000Y-40130000D02*
X123960000Y-40130000D01*
%TO.N,/nRST*%
X137420000Y-41200000D02*
X135290000Y-41200000D01*
D35*
%TO.N,+3V3*%
X121370000Y-57080000D02*
X126020000Y-57080000D01*
X120090000Y-58320000D02*
X120090000Y-61210000D01*
X110710000Y-62090000D02*
X111250000Y-62090000D01*
X120090000Y-61210000D02*
X119720000Y-61580000D01*
X113920000Y-39070000D02*
X115130000Y-39070000D01*
X127482500Y-57130000D02*
X126070000Y-57130000D01*
X126070000Y-57130000D02*
X126020000Y-57080000D01*
X130570000Y-54330000D02*
X130820000Y-54330000D01*
X110235000Y-62090000D02*
X110710000Y-62090000D01*
X129600000Y-53360000D02*
X130570000Y-54330000D01*
X115130000Y-39070000D02*
X116420000Y-39070000D01*
X120170000Y-58280000D02*
X121370000Y-57080000D01*
%TO.N,GND*%
X130420000Y-56180000D02*
X132070000Y-54530000D01*
X126715000Y-51775000D02*
X126715000Y-50680000D01*
X126620000Y-50680000D02*
X125720000Y-49780000D01*
X129255000Y-50680000D02*
X129255000Y-51045000D01*
X128480000Y-52400000D02*
X129600000Y-52400000D01*
X130520000Y-42080000D02*
X131370000Y-42080000D01*
X129757500Y-56180000D02*
X130420000Y-56180000D01*
X132070000Y-54530000D02*
X132410000Y-54190000D01*
X127350000Y-52370000D02*
X126250000Y-52370000D01*
X129620000Y-52380000D02*
X129600000Y-52400000D01*
X136200000Y-53219022D02*
X136200000Y-49350000D01*
X108205000Y-62090000D02*
X107710000Y-62090000D01*
X135229022Y-54190000D02*
X136200000Y-53219022D01*
X126220000Y-52400000D02*
X126220000Y-52280000D01*
X132410000Y-54190000D02*
X134675000Y-54190000D01*
X107710000Y-62090000D02*
X107210000Y-62090000D01*
X126715000Y-50680000D02*
X126620000Y-50680000D01*
X126720000Y-51780000D02*
X126715000Y-51775000D01*
X107210000Y-62090000D02*
X107200000Y-62080000D01*
X131370000Y-42080000D02*
X131520000Y-42230000D01*
X129255000Y-51515000D02*
X129620000Y-51880000D01*
X135560000Y-48710000D02*
X134675000Y-48710000D01*
X129255000Y-51045000D02*
X128620000Y-51680000D01*
X129620000Y-51880000D02*
X129620000Y-52380000D01*
X136200000Y-49350000D02*
X135560000Y-48710000D01*
X129255000Y-50680000D02*
X129255000Y-51515000D01*
X134675000Y-54190000D02*
X135229022Y-54190000D01*
X126220000Y-52280000D02*
X126720000Y-51780000D01*
X120170000Y-43080000D02*
X121570000Y-43080000D01*
X130900000Y-53360000D02*
X132070000Y-54530000D01*
X126250000Y-52370000D02*
X126220000Y-52400000D01*
D34*
%TO.N,/nRST*%
X106170000Y-61045000D02*
X106170000Y-58280000D01*
X106120000Y-58290000D02*
X106090000Y-58320000D01*
X107200000Y-61120000D02*
X106245000Y-61120000D01*
X106120000Y-56450000D02*
X106120000Y-58290000D01*
X106245000Y-61120000D02*
X106195000Y-61070000D01*
X106195000Y-61070000D02*
X106170000Y-61045000D01*
X106195000Y-61070000D02*
X105180000Y-61070000D01*
%TO.N,/GPIO16*%
X113255000Y-61095000D02*
X113280000Y-61070000D01*
X112265000Y-61095000D02*
X112170000Y-61000000D01*
X112265000Y-61095000D02*
X113255000Y-61095000D01*
X112170000Y-61000000D02*
X112170000Y-58280000D01*
%TO.N,Net-(D2-Pad2)*%
X127555480Y-43070000D02*
X128465480Y-43980000D01*
X126220000Y-43070000D02*
X127555480Y-43070000D01*
X132785000Y-63895000D02*
X132495000Y-63605000D01*
X128465480Y-43980000D02*
X128520000Y-43980000D01*
X133395000Y-63895000D02*
X132785000Y-63895000D01*
%TO.N,Net-(C2-Pad1)*%
X128570000Y-60650000D02*
X128490000Y-60650000D01*
X128620000Y-54380000D02*
X128907500Y-54380000D01*
X128490000Y-60650000D02*
X127520000Y-59680000D01*
X128620000Y-53500000D02*
X128480000Y-53360000D01*
X128907500Y-54380000D02*
X129757500Y-55230000D01*
X128620000Y-54380000D02*
X128620000Y-53500000D01*
%TO.N,/GPIO0*%
X114170000Y-41230000D02*
X114170000Y-43080000D01*
X114170000Y-41430000D02*
X114170000Y-43080000D01*
X113920000Y-40090000D02*
X113920000Y-40980000D01*
X111420000Y-40090000D02*
X113920000Y-40090000D01*
X114470000Y-41130000D02*
X114170000Y-41430000D01*
X113920000Y-40980000D02*
X114170000Y-41230000D01*
%TO.N,/GPIO2*%
X116420000Y-40880000D02*
X116170000Y-41130000D01*
X116420000Y-40090000D02*
X116420000Y-40880000D01*
X116170000Y-41130000D02*
X116170000Y-43080000D01*
%TO.N,/EN*%
X110170000Y-58280000D02*
X110170000Y-60380000D01*
X110170000Y-60380000D02*
X110235000Y-60445000D01*
X110235000Y-60445000D02*
X110235000Y-61070000D01*
%TO.N,/GPIO15*%
X118920000Y-40580000D02*
X118170000Y-41330000D01*
X118920000Y-40090000D02*
X118920000Y-40580000D01*
X118170000Y-41330000D02*
X118170000Y-43080000D01*
%TO.N,/ADC*%
X108170000Y-61035000D02*
X108170000Y-58280000D01*
X108205000Y-61070000D02*
X109220000Y-61070000D01*
X108205000Y-61070000D02*
X108170000Y-61035000D01*
%TO.N,/TXD*%
X138119511Y-37960489D02*
X138119511Y-37100252D01*
X111919510Y-36580490D02*
X106170000Y-42330000D01*
X137420000Y-38660000D02*
X138119511Y-37960489D01*
X106170000Y-42330000D02*
X106170000Y-43080000D01*
X138119511Y-37100252D02*
X137599749Y-36580490D01*
X137599749Y-36580490D02*
X111919510Y-36580490D01*
%TO.N,Net-(C3-Pad1)*%
X126220000Y-53967500D02*
X126220000Y-53360000D01*
X127482500Y-55230000D02*
X126220000Y-53967500D01*
D35*
%TO.N,Net-(C6-Pad2)*%
X130525000Y-50080000D02*
X132420000Y-48185000D01*
X133970978Y-49930000D02*
X134675000Y-49930000D01*
X126220000Y-42050000D02*
X125600480Y-42669520D01*
X126220000Y-42050000D02*
X128375000Y-42050000D01*
X134675000Y-52970000D02*
X133970978Y-52970000D01*
X132420000Y-41380000D02*
X129045000Y-41380000D01*
X132420000Y-48185000D02*
X132420000Y-41380000D01*
X130525000Y-52205000D02*
X130720000Y-52400000D01*
X133970978Y-52970000D02*
X133250000Y-52249022D01*
X130525000Y-50680000D02*
X130525000Y-52205000D01*
X132420000Y-48185000D02*
X134165000Y-49930000D01*
X133250000Y-52249022D02*
X133250000Y-50650978D01*
X129045000Y-41380000D02*
X128375000Y-42050000D01*
X134165000Y-49930000D02*
X134675000Y-49930000D01*
X130525000Y-50680000D02*
X130525000Y-50080000D01*
X133250000Y-50650978D02*
X133970978Y-49930000D01*
X125600480Y-42669520D02*
X125600480Y-44365480D01*
X125600480Y-44365480D02*
X126715000Y-45480000D01*
D34*
%TO.N,Net-(D2-Pad1)*%
X127985000Y-44945000D02*
X127985000Y-45480000D01*
X127120000Y-44080000D02*
X127985000Y-44945000D01*
X133395000Y-64865000D02*
X131930000Y-64865000D01*
X131930000Y-64865000D02*
X131895000Y-64830000D01*
%TO.N,Net-(R5-Pad2)*%
X105120000Y-63080000D02*
X105870000Y-63830000D01*
X112170000Y-63830000D02*
X113280000Y-62720000D01*
X105120000Y-62150000D02*
X105120000Y-63080000D01*
X103495000Y-63180000D02*
X104090000Y-63180000D01*
X105870000Y-63830000D02*
X112170000Y-63830000D01*
X113280000Y-62720000D02*
X113280000Y-62090000D01*
X105180000Y-62090000D02*
X105120000Y-62150000D01*
X104090000Y-63180000D02*
X105180000Y-62090000D01*
%TO.N,Net-(R7-Pad2)*%
X103495000Y-38280000D02*
X104870000Y-38280000D01*
D36*
%TO.N,+BATT*%
X130520000Y-45475000D02*
X130525000Y-45480000D01*
X131620000Y-43280000D02*
X130760000Y-43280000D01*
X124570000Y-59180000D02*
X124620000Y-59230000D01*
X134520000Y-58780000D02*
X135320000Y-59580000D01*
X130760000Y-43280000D02*
X130520000Y-43040000D01*
X131620000Y-57280000D02*
X131620000Y-58680000D01*
X131620000Y-58680000D02*
X131720000Y-58780000D01*
X135320000Y-61030000D02*
X137170000Y-62880000D01*
X131720000Y-58780000D02*
X134520000Y-58780000D01*
X129720000Y-58780000D02*
X129757500Y-58742500D01*
X125570000Y-60650000D02*
X125570000Y-59230000D01*
X125570000Y-59230000D02*
X126020000Y-58780000D01*
X130520000Y-43040000D02*
X130520000Y-45475000D01*
X135320000Y-59580000D02*
X135320000Y-61030000D01*
X129757500Y-58742500D02*
X129757500Y-57130000D01*
X124620000Y-59230000D02*
X125570000Y-59230000D01*
X129720000Y-58780000D02*
X131720000Y-58780000D01*
X126020000Y-58780000D02*
X129720000Y-58780000D01*
D34*
%TO.N,Net-(R11-Pad1)*%
X127869520Y-52870480D02*
X127869520Y-50795480D01*
X127869520Y-50795480D02*
X127985000Y-50680000D01*
X127350000Y-53390000D02*
X127869520Y-52870480D01*
%TO.N,Net-(D1-Pad2)*%
X111250000Y-61070000D02*
X111250000Y-61140000D01*
X112175000Y-62065000D02*
X112265000Y-62065000D01*
X111250000Y-61140000D02*
X112175000Y-62065000D01*
%TO.N,Net-(D3-Pad1)*%
X134239521Y-64334521D02*
X134239521Y-62999521D01*
X129255000Y-45480000D02*
X129255000Y-44145000D01*
X133920000Y-62680000D02*
X133320000Y-62680000D01*
X129255000Y-44145000D02*
X129420000Y-43980000D01*
X134239521Y-62999521D02*
X133920000Y-62680000D01*
X134770000Y-64865000D02*
X134239521Y-64334521D01*
%TO.N,Net-(D3-Pad2)*%
X134770000Y-63895000D02*
X134620000Y-63745000D01*
X128375000Y-43070000D02*
X129330000Y-43070000D01*
X134620000Y-63745000D02*
X134620000Y-62880000D01*
X134620000Y-62880000D02*
X133520000Y-61780000D01*
X129330000Y-43070000D02*
X129520000Y-42880000D01*
%TD*%
%TA.AperFunction,Conductor*%
%TO.N,GND*%
G36*
X111215382Y-36208002D02*
G01*
X111261875Y-36261658D01*
X111271979Y-36331932D01*
X111242485Y-36396512D01*
X111236356Y-36403095D01*
X106314856Y-41324595D01*
X106252544Y-41358621D01*
X106225761Y-41361500D01*
X105541866Y-41361500D01*
X105479684Y-41368255D01*
X105343295Y-41419385D01*
X105226739Y-41506739D01*
X105139385Y-41623295D01*
X105088255Y-41759684D01*
X105081500Y-41821866D01*
X105081500Y-44418134D01*
X105088255Y-44480316D01*
X105139385Y-44616705D01*
X105226739Y-44733261D01*
X105343295Y-44820615D01*
X105479684Y-44871745D01*
X105541866Y-44878500D01*
X106638134Y-44878500D01*
X106700316Y-44871745D01*
X106836705Y-44820615D01*
X106953261Y-44733261D01*
X106989176Y-44685340D01*
X107046033Y-44642827D01*
X107116851Y-44637801D01*
X107179145Y-44671861D01*
X107190817Y-44685330D01*
X107226739Y-44733261D01*
X107343295Y-44820615D01*
X107479684Y-44871745D01*
X107541866Y-44878500D01*
X108638134Y-44878500D01*
X108700316Y-44871745D01*
X108836705Y-44820615D01*
X108953261Y-44733261D01*
X108989176Y-44685340D01*
X109046033Y-44642827D01*
X109116851Y-44637801D01*
X109179145Y-44671861D01*
X109190817Y-44685330D01*
X109226739Y-44733261D01*
X109343295Y-44820615D01*
X109479684Y-44871745D01*
X109541866Y-44878500D01*
X110638134Y-44878500D01*
X110700316Y-44871745D01*
X110836705Y-44820615D01*
X110953261Y-44733261D01*
X110989176Y-44685340D01*
X111046033Y-44642827D01*
X111116851Y-44637801D01*
X111179145Y-44671861D01*
X111190817Y-44685330D01*
X111226739Y-44733261D01*
X111343295Y-44820615D01*
X111479684Y-44871745D01*
X111541866Y-44878500D01*
X112638134Y-44878500D01*
X112700316Y-44871745D01*
X112836705Y-44820615D01*
X112953261Y-44733261D01*
X112989176Y-44685340D01*
X113046033Y-44642827D01*
X113116851Y-44637801D01*
X113179145Y-44671861D01*
X113190817Y-44685330D01*
X113226739Y-44733261D01*
X113343295Y-44820615D01*
X113479684Y-44871745D01*
X113541866Y-44878500D01*
X114638134Y-44878500D01*
X114700316Y-44871745D01*
X114836705Y-44820615D01*
X114953261Y-44733261D01*
X114989176Y-44685340D01*
X115046033Y-44642827D01*
X115116851Y-44637801D01*
X115179145Y-44671861D01*
X115190817Y-44685330D01*
X115226739Y-44733261D01*
X115343295Y-44820615D01*
X115351703Y-44823767D01*
X115399730Y-44841772D01*
X115456495Y-44884414D01*
X115481194Y-44950976D01*
X115481500Y-44959754D01*
X115481500Y-47289710D01*
X115461498Y-47357831D01*
X115449136Y-47374020D01*
X115355379Y-47478148D01*
X115350960Y-47483056D01*
X115255473Y-47648444D01*
X115196458Y-47830072D01*
X115195768Y-47836633D01*
X115195768Y-47836635D01*
X115177893Y-48006709D01*
X115176496Y-48020000D01*
X115196458Y-48209928D01*
X115255473Y-48391556D01*
X115258776Y-48397278D01*
X115258777Y-48397279D01*
X115263812Y-48406000D01*
X115350960Y-48556944D01*
X115355378Y-48561851D01*
X115355379Y-48561852D01*
X115446712Y-48663288D01*
X115478747Y-48698866D01*
X115575808Y-48769385D01*
X115609517Y-48793876D01*
X115633248Y-48811118D01*
X115639276Y-48813802D01*
X115639278Y-48813803D01*
X115739139Y-48858264D01*
X115793235Y-48904245D01*
X115813884Y-48972172D01*
X115794531Y-49040480D01*
X115776985Y-49062466D01*
X115773766Y-49065685D01*
X115761375Y-49076552D01*
X115736013Y-49096013D01*
X115711526Y-49127925D01*
X115711523Y-49127928D01*
X115711517Y-49127936D01*
X115680415Y-49168469D01*
X115638476Y-49223124D01*
X115577213Y-49371026D01*
X115577162Y-49371150D01*
X115561500Y-49490115D01*
X115561500Y-49490120D01*
X115556250Y-49530000D01*
X115560423Y-49561696D01*
X115561500Y-49578134D01*
X115561500Y-50673315D01*
X115541498Y-50741436D01*
X115487842Y-50787929D01*
X115417568Y-50798033D01*
X115409304Y-50796562D01*
X115391946Y-50792873D01*
X115391947Y-50792873D01*
X115385487Y-50791500D01*
X115194513Y-50791500D01*
X115188061Y-50792872D01*
X115188056Y-50792872D01*
X115116887Y-50808000D01*
X115007712Y-50831206D01*
X115001682Y-50833891D01*
X115001681Y-50833891D01*
X114839278Y-50906197D01*
X114839276Y-50906198D01*
X114833248Y-50908882D01*
X114827907Y-50912762D01*
X114827906Y-50912763D01*
X114798676Y-50934000D01*
X114678747Y-51021134D01*
X114550960Y-51163056D01*
X114492686Y-51263990D01*
X114472973Y-51298134D01*
X114455473Y-51328444D01*
X114396458Y-51510072D01*
X114395768Y-51516633D01*
X114395768Y-51516635D01*
X114389965Y-51571852D01*
X114376496Y-51700000D01*
X114376684Y-51701786D01*
X114357184Y-51768196D01*
X114340281Y-51789170D01*
X113773766Y-52355685D01*
X113761375Y-52366552D01*
X113736013Y-52386013D01*
X113711526Y-52417925D01*
X113711523Y-52417928D01*
X113711517Y-52417936D01*
X113663833Y-52480079D01*
X113638476Y-52513124D01*
X113577162Y-52661149D01*
X113577162Y-52661150D01*
X113575414Y-52674426D01*
X113571585Y-52703512D01*
X113561500Y-52780115D01*
X113561500Y-52780120D01*
X113556250Y-52820000D01*
X113557328Y-52828188D01*
X113560422Y-52851690D01*
X113561500Y-52868136D01*
X113561500Y-56450262D01*
X113541498Y-56518383D01*
X113487842Y-56564876D01*
X113479495Y-56567750D01*
X113479684Y-56568255D01*
X113343295Y-56619385D01*
X113226739Y-56706739D01*
X113190824Y-56754660D01*
X113133967Y-56797173D01*
X113063149Y-56802199D01*
X113000855Y-56768139D01*
X112989183Y-56754670D01*
X112953261Y-56706739D01*
X112836705Y-56619385D01*
X112700316Y-56568255D01*
X112638134Y-56561500D01*
X111541866Y-56561500D01*
X111479684Y-56568255D01*
X111343295Y-56619385D01*
X111226739Y-56706739D01*
X111190824Y-56754660D01*
X111133967Y-56797173D01*
X111063149Y-56802199D01*
X111000855Y-56768139D01*
X110989183Y-56754670D01*
X110953261Y-56706739D01*
X110836705Y-56619385D01*
X110700316Y-56568255D01*
X110638134Y-56561500D01*
X109541866Y-56561500D01*
X109479684Y-56568255D01*
X109343295Y-56619385D01*
X109226739Y-56706739D01*
X109190824Y-56754660D01*
X109133967Y-56797173D01*
X109063149Y-56802199D01*
X109000855Y-56768139D01*
X108989183Y-56754670D01*
X108953261Y-56706739D01*
X108836705Y-56619385D01*
X108700316Y-56568255D01*
X108638134Y-56561500D01*
X107541866Y-56561500D01*
X107479684Y-56568255D01*
X107343295Y-56619385D01*
X107226739Y-56706739D01*
X107226416Y-56706307D01*
X107169730Y-56737261D01*
X107098915Y-56732196D01*
X107042079Y-56689649D01*
X107017268Y-56623129D01*
X107017637Y-56600970D01*
X107032814Y-56456565D01*
X107033504Y-56450000D01*
X107025398Y-56372872D01*
X107014232Y-56266635D01*
X107014232Y-56266633D01*
X107013542Y-56260072D01*
X106954527Y-56078444D01*
X106859040Y-55913056D01*
X106846244Y-55898844D01*
X106735675Y-55776045D01*
X106735674Y-55776044D01*
X106731253Y-55771134D01*
X106576752Y-55658882D01*
X106570724Y-55656198D01*
X106570722Y-55656197D01*
X106408319Y-55583891D01*
X106408318Y-55583891D01*
X106402288Y-55581206D01*
X106308888Y-55561353D01*
X106221944Y-55542872D01*
X106221939Y-55542872D01*
X106215487Y-55541500D01*
X106024513Y-55541500D01*
X106018061Y-55542872D01*
X106018056Y-55542872D01*
X105931112Y-55561353D01*
X105837712Y-55581206D01*
X105831682Y-55583891D01*
X105831681Y-55583891D01*
X105669278Y-55656197D01*
X105669276Y-55656198D01*
X105663248Y-55658882D01*
X105508747Y-55771134D01*
X105504326Y-55776044D01*
X105504325Y-55776045D01*
X105393757Y-55898844D01*
X105380960Y-55913056D01*
X105285473Y-56078444D01*
X105226458Y-56260072D01*
X105225768Y-56266633D01*
X105225768Y-56266635D01*
X105214602Y-56372872D01*
X105206496Y-56450000D01*
X105226137Y-56636875D01*
X105226137Y-56636876D01*
X105226458Y-56639928D01*
X105225900Y-56639987D01*
X105220832Y-56706360D01*
X105203815Y-56737326D01*
X105155196Y-56802199D01*
X105139385Y-56823295D01*
X105088255Y-56959684D01*
X105081500Y-57021866D01*
X105081500Y-59618134D01*
X105088255Y-59680316D01*
X105139385Y-59816705D01*
X105226739Y-59933261D01*
X105343295Y-60020615D01*
X105351704Y-60023767D01*
X105351705Y-60023768D01*
X105415058Y-60047518D01*
X105471823Y-60090159D01*
X105496523Y-60156721D01*
X105481316Y-60226070D01*
X105431030Y-60276188D01*
X105370829Y-60291500D01*
X104950066Y-60291501D01*
X104930012Y-60291501D01*
X104893534Y-60294371D01*
X104804923Y-60320115D01*
X104745017Y-60337519D01*
X104745015Y-60337520D01*
X104737404Y-60339731D01*
X104730582Y-60343766D01*
X104730581Y-60343766D01*
X104683689Y-60371498D01*
X104597459Y-60422494D01*
X104482494Y-60537459D01*
X104478460Y-60544280D01*
X104409017Y-60661703D01*
X104399731Y-60677404D01*
X104397520Y-60685015D01*
X104397519Y-60685017D01*
X104387107Y-60720856D01*
X104354371Y-60833534D01*
X104353867Y-60839941D01*
X104353866Y-60839945D01*
X104351693Y-60867556D01*
X104351500Y-60870011D01*
X104351501Y-61269988D01*
X104354371Y-61306466D01*
X104369835Y-61359694D01*
X104396653Y-61452000D01*
X104399731Y-61462596D01*
X104403767Y-61469421D01*
X104403769Y-61469425D01*
X104431231Y-61515861D01*
X104448691Y-61584677D01*
X104431231Y-61644139D01*
X104403770Y-61690573D01*
X104403768Y-61690578D01*
X104399731Y-61697404D01*
X104398193Y-61702697D01*
X104353472Y-61756445D01*
X104285766Y-61777807D01*
X104269640Y-61777095D01*
X104218134Y-61771500D01*
X102771866Y-61771500D01*
X102709684Y-61778255D01*
X102573295Y-61829385D01*
X102456739Y-61916739D01*
X102369385Y-62033295D01*
X102318255Y-62169684D01*
X102311500Y-62231866D01*
X102311500Y-64128134D01*
X102318255Y-64190316D01*
X102369385Y-64326705D01*
X102456739Y-64443261D01*
X102573295Y-64530615D01*
X102709684Y-64581745D01*
X102771866Y-64588500D01*
X104218134Y-64588500D01*
X104280316Y-64581745D01*
X104416705Y-64530615D01*
X104533261Y-64443261D01*
X104620615Y-64326705D01*
X104671745Y-64190316D01*
X104678500Y-64128134D01*
X104678500Y-63803239D01*
X104698502Y-63735118D01*
X104752158Y-63688625D01*
X104822432Y-63678521D01*
X104887012Y-63708015D01*
X104893595Y-63714144D01*
X105405685Y-64226234D01*
X105416552Y-64238625D01*
X105436013Y-64263987D01*
X105442563Y-64269013D01*
X105467925Y-64288474D01*
X105467928Y-64288477D01*
X105544517Y-64347246D01*
X105563124Y-64361524D01*
X105607729Y-64380000D01*
X105624438Y-64386921D01*
X105703520Y-64419678D01*
X105703523Y-64419679D01*
X105711150Y-64422838D01*
X105830115Y-64438500D01*
X105830120Y-64438500D01*
X105830129Y-64438501D01*
X105861812Y-64442672D01*
X105870000Y-64443750D01*
X105901693Y-64439578D01*
X105918136Y-64438500D01*
X112121864Y-64438500D01*
X112138307Y-64439578D01*
X112170000Y-64443750D01*
X112178189Y-64442672D01*
X112209874Y-64438501D01*
X112209884Y-64438500D01*
X112209885Y-64438500D01*
X112209901Y-64438498D01*
X112309457Y-64425391D01*
X112320664Y-64423916D01*
X112320666Y-64423915D01*
X112328851Y-64422838D01*
X112476876Y-64361524D01*
X112495484Y-64347246D01*
X112572072Y-64288477D01*
X112572075Y-64288474D01*
X112597434Y-64269015D01*
X112603987Y-64263987D01*
X112609017Y-64257432D01*
X112623452Y-64238621D01*
X112634319Y-64226230D01*
X112902415Y-63958134D01*
X123161500Y-63958134D01*
X123168255Y-64020316D01*
X123219385Y-64156705D01*
X123306739Y-64273261D01*
X123423295Y-64360615D01*
X123559684Y-64411745D01*
X123621866Y-64418500D01*
X124718134Y-64418500D01*
X124780316Y-64411745D01*
X124916705Y-64360615D01*
X125033261Y-64273261D01*
X125120615Y-64156705D01*
X125171745Y-64020316D01*
X125178500Y-63958134D01*
X125178500Y-63061866D01*
X125171745Y-62999684D01*
X125120615Y-62863295D01*
X125033261Y-62746739D01*
X124916705Y-62659385D01*
X124780316Y-62608255D01*
X124718134Y-62601500D01*
X123621866Y-62601500D01*
X123559684Y-62608255D01*
X123423295Y-62659385D01*
X123306739Y-62746739D01*
X123219385Y-62863295D01*
X123168255Y-62999684D01*
X123161500Y-63061866D01*
X123161500Y-63958134D01*
X112902415Y-63958134D01*
X113676234Y-63184315D01*
X113688625Y-63173448D01*
X113707437Y-63159013D01*
X113713987Y-63153987D01*
X113738474Y-63122075D01*
X113738480Y-63122069D01*
X113806496Y-63033429D01*
X113806497Y-63033427D01*
X113811524Y-63026876D01*
X113853859Y-62924669D01*
X115312001Y-62924669D01*
X115312371Y-62931490D01*
X115317895Y-62982352D01*
X115321521Y-62997604D01*
X115366676Y-63118054D01*
X115375214Y-63133649D01*
X115451715Y-63235724D01*
X115464276Y-63248285D01*
X115566351Y-63324786D01*
X115581946Y-63333324D01*
X115702394Y-63378478D01*
X115717649Y-63382105D01*
X115768514Y-63387631D01*
X115775328Y-63388000D01*
X116447885Y-63388000D01*
X116463124Y-63383525D01*
X116464329Y-63382135D01*
X116466000Y-63374452D01*
X116466000Y-61852115D01*
X116461525Y-61836876D01*
X116460135Y-61835671D01*
X116452452Y-61834000D01*
X115330116Y-61834000D01*
X115314877Y-61838475D01*
X115313672Y-61839865D01*
X115312001Y-61847548D01*
X115312001Y-62924669D01*
X113853859Y-62924669D01*
X113867158Y-62892563D01*
X113869679Y-62886478D01*
X113869679Y-62886477D01*
X113872838Y-62878851D01*
X113876958Y-62847555D01*
X113877864Y-62840671D01*
X113877864Y-62840670D01*
X113888500Y-62759885D01*
X113888500Y-62759879D01*
X113890245Y-62746624D01*
X113918967Y-62681697D01*
X113926072Y-62673975D01*
X113977506Y-62622541D01*
X114060269Y-62482596D01*
X114070898Y-62446013D01*
X114103834Y-62332644D01*
X114105629Y-62326466D01*
X114106135Y-62320048D01*
X114108307Y-62292444D01*
X114108307Y-62292438D01*
X114108500Y-62289989D01*
X114108499Y-61890012D01*
X114105629Y-61853534D01*
X114060269Y-61697404D01*
X114056233Y-61690579D01*
X114056231Y-61690575D01*
X114028769Y-61644139D01*
X114011309Y-61575323D01*
X114028769Y-61515861D01*
X114056231Y-61469425D01*
X114056233Y-61469421D01*
X114060269Y-61462596D01*
X114063348Y-61452000D01*
X114096495Y-61337905D01*
X114105629Y-61306466D01*
X114106135Y-61300047D01*
X114108307Y-61272444D01*
X114108307Y-61272438D01*
X114108500Y-61269989D01*
X114108499Y-60870012D01*
X114105629Y-60833534D01*
X114065423Y-60695144D01*
X114062481Y-60685017D01*
X114062480Y-60685015D01*
X114060269Y-60677404D01*
X114050984Y-60661703D01*
X113981540Y-60544280D01*
X113977506Y-60537459D01*
X113862541Y-60422494D01*
X113776311Y-60371498D01*
X113729419Y-60343766D01*
X113729418Y-60343766D01*
X113722596Y-60339731D01*
X113714985Y-60337520D01*
X113714983Y-60337519D01*
X113673602Y-60325497D01*
X113613767Y-60287284D01*
X113584089Y-60222788D01*
X113593992Y-60152485D01*
X113640332Y-60098697D01*
X113708755Y-60078500D01*
X114638134Y-60078500D01*
X114700316Y-60071745D01*
X114836705Y-60020615D01*
X114953261Y-59933261D01*
X114989176Y-59885340D01*
X115046033Y-59842827D01*
X115116851Y-59837801D01*
X115179145Y-59871861D01*
X115190817Y-59885330D01*
X115226739Y-59933261D01*
X115280834Y-59973803D01*
X115292225Y-59982340D01*
X115334740Y-60039199D01*
X115339766Y-60110018D01*
X115334642Y-60127396D01*
X115321522Y-60162394D01*
X115317895Y-60177649D01*
X115312369Y-60228514D01*
X115312000Y-60235328D01*
X115312000Y-61307885D01*
X115316475Y-61323124D01*
X115317865Y-61324329D01*
X115325548Y-61326000D01*
X116848000Y-61326000D01*
X116916121Y-61346002D01*
X116962614Y-61399658D01*
X116974000Y-61452000D01*
X116974000Y-63369884D01*
X116978475Y-63385123D01*
X116979865Y-63386328D01*
X116987548Y-63387999D01*
X117664669Y-63387999D01*
X117671490Y-63387629D01*
X117722352Y-63382105D01*
X117737604Y-63378479D01*
X117858054Y-63333324D01*
X117873649Y-63324786D01*
X117975724Y-63248285D01*
X117988285Y-63235724D01*
X118064786Y-63133649D01*
X118073324Y-63118054D01*
X118101751Y-63042226D01*
X118144393Y-62985462D01*
X118210954Y-62960762D01*
X118280303Y-62975970D01*
X118330421Y-63026256D01*
X118337715Y-63042226D01*
X118349780Y-63074409D01*
X118369385Y-63126705D01*
X118456739Y-63243261D01*
X118573295Y-63330615D01*
X118709684Y-63381745D01*
X118771866Y-63388500D01*
X120668134Y-63388500D01*
X120730316Y-63381745D01*
X120866705Y-63330615D01*
X120983261Y-63243261D01*
X121070615Y-63126705D01*
X121121745Y-62990316D01*
X121128500Y-62928134D01*
X121128500Y-60231866D01*
X121121745Y-60169684D01*
X121070615Y-60033295D01*
X121031084Y-59980549D01*
X121006237Y-59914045D01*
X121021289Y-59844663D01*
X121031084Y-59829422D01*
X121035230Y-59823891D01*
X121035232Y-59823888D01*
X121040615Y-59816705D01*
X121091745Y-59680316D01*
X121098500Y-59618134D01*
X121098500Y-59040862D01*
X121355497Y-59040862D01*
X121356737Y-59048078D01*
X121356737Y-59048080D01*
X121383274Y-59202517D01*
X121385134Y-59213340D01*
X121422560Y-59301298D01*
X121438647Y-59339103D01*
X121453654Y-59374373D01*
X121557383Y-59515324D01*
X121562961Y-59520063D01*
X121562964Y-59520066D01*
X121685176Y-59623893D01*
X121685180Y-59623896D01*
X121690755Y-59628632D01*
X121771572Y-59669899D01*
X121806462Y-59687715D01*
X121846616Y-59708219D01*
X121853721Y-59709958D01*
X121853725Y-59709959D01*
X121934858Y-59729811D01*
X122016606Y-59749815D01*
X122022206Y-59750162D01*
X122022210Y-59750163D01*
X122025709Y-59750380D01*
X122025718Y-59750380D01*
X122027648Y-59750500D01*
X122153822Y-59750500D01*
X122245369Y-59739827D01*
X122276556Y-59736191D01*
X122276558Y-59736191D01*
X122283828Y-59735343D01*
X122290705Y-59732847D01*
X122290708Y-59732846D01*
X122441452Y-59678128D01*
X122448331Y-59675631D01*
X122594685Y-59579677D01*
X122715040Y-59452628D01*
X122802939Y-59301298D01*
X122853667Y-59133807D01*
X122864503Y-58959138D01*
X122862662Y-58948420D01*
X122836106Y-58793875D01*
X122836105Y-58793873D01*
X122834866Y-58786660D01*
X122766346Y-58625627D01*
X122662617Y-58484676D01*
X122657039Y-58479937D01*
X122657036Y-58479934D01*
X122534824Y-58376107D01*
X122534820Y-58376104D01*
X122529245Y-58371368D01*
X122445062Y-58328382D01*
X122379900Y-58295108D01*
X122379898Y-58295107D01*
X122373384Y-58291781D01*
X122366279Y-58290042D01*
X122366275Y-58290041D01*
X122272741Y-58267154D01*
X122203394Y-58250185D01*
X122197794Y-58249838D01*
X122197790Y-58249837D01*
X122194291Y-58249620D01*
X122194282Y-58249620D01*
X122192352Y-58249500D01*
X122066178Y-58249500D01*
X121974631Y-58260173D01*
X121943444Y-58263809D01*
X121943442Y-58263809D01*
X121936172Y-58264657D01*
X121929295Y-58267153D01*
X121929292Y-58267154D01*
X121778548Y-58321872D01*
X121771669Y-58324369D01*
X121625315Y-58420323D01*
X121504960Y-58547372D01*
X121417061Y-58698702D01*
X121366333Y-58866193D01*
X121355497Y-59040862D01*
X121098500Y-59040862D01*
X121098500Y-58405661D01*
X121118502Y-58337540D01*
X121135405Y-58316565D01*
X121626567Y-57825404D01*
X121688879Y-57791379D01*
X121715662Y-57788500D01*
X125408595Y-57788500D01*
X125476716Y-57808502D01*
X125482656Y-57812564D01*
X125518354Y-57838500D01*
X125563248Y-57871118D01*
X125569278Y-57873803D01*
X125575001Y-57877107D01*
X125574103Y-57878662D01*
X125621503Y-57918944D01*
X125642158Y-57986870D01*
X125622811Y-58055180D01*
X125593391Y-58087638D01*
X125592334Y-58088458D01*
X125561846Y-58112107D01*
X125551388Y-58119402D01*
X125520596Y-58138642D01*
X125520593Y-58138644D01*
X125514624Y-58142374D01*
X125509629Y-58147334D01*
X125509628Y-58147335D01*
X125485821Y-58170976D01*
X125485196Y-58171561D01*
X125484530Y-58172078D01*
X125458540Y-58198068D01*
X125385918Y-58270185D01*
X125385260Y-58271222D01*
X125384157Y-58272451D01*
X125272013Y-58384595D01*
X125209701Y-58418621D01*
X125182918Y-58421500D01*
X125112587Y-58421500D01*
X125038528Y-58397437D01*
X125032098Y-58392765D01*
X125032091Y-58392761D01*
X125026752Y-58388882D01*
X125020724Y-58386198D01*
X125020722Y-58386197D01*
X124858319Y-58313891D01*
X124858318Y-58313891D01*
X124852288Y-58311206D01*
X124752715Y-58290041D01*
X124671944Y-58272872D01*
X124671939Y-58272872D01*
X124665487Y-58271500D01*
X124474513Y-58271500D01*
X124468061Y-58272872D01*
X124468056Y-58272872D01*
X124387285Y-58290041D01*
X124287712Y-58311206D01*
X124281682Y-58313891D01*
X124281681Y-58313891D01*
X124119278Y-58386197D01*
X124119276Y-58386198D01*
X124113248Y-58388882D01*
X124107907Y-58392762D01*
X124107906Y-58392763D01*
X124101473Y-58397437D01*
X123958747Y-58501134D01*
X123830960Y-58643056D01*
X123735473Y-58808444D01*
X123676458Y-58990072D01*
X123675768Y-58996633D01*
X123675768Y-58996635D01*
X123670361Y-59048080D01*
X123656496Y-59180000D01*
X123657186Y-59186565D01*
X123671317Y-59321010D01*
X123676458Y-59369928D01*
X123735473Y-59551556D01*
X123830960Y-59716944D01*
X123835378Y-59721851D01*
X123835379Y-59721852D01*
X123952444Y-59851866D01*
X123958747Y-59858866D01*
X124113248Y-59971118D01*
X124119276Y-59973802D01*
X124119278Y-59973803D01*
X124266161Y-60039199D01*
X124287712Y-60048794D01*
X124377528Y-60067885D01*
X124468056Y-60087128D01*
X124468061Y-60087128D01*
X124474513Y-60088500D01*
X124585500Y-60088500D01*
X124653621Y-60108502D01*
X124700114Y-60162158D01*
X124711500Y-60214500D01*
X124711500Y-60265500D01*
X124691498Y-60333621D01*
X124637842Y-60380114D01*
X124585500Y-60391500D01*
X123621866Y-60391500D01*
X123559684Y-60398255D01*
X123423295Y-60449385D01*
X123306739Y-60536739D01*
X123219385Y-60653295D01*
X123168255Y-60789684D01*
X123161500Y-60851866D01*
X123161500Y-61748134D01*
X123168255Y-61810316D01*
X123219385Y-61946705D01*
X123306739Y-62063261D01*
X123423295Y-62150615D01*
X123559684Y-62201745D01*
X123621866Y-62208500D01*
X124718134Y-62208500D01*
X124780316Y-62201745D01*
X124916705Y-62150615D01*
X125033261Y-62063261D01*
X125111449Y-61958935D01*
X125168308Y-61916420D01*
X125212275Y-61908500D01*
X125297992Y-61908500D01*
X125366113Y-61928502D01*
X125412606Y-61982158D01*
X125422710Y-62052432D01*
X125417378Y-62073366D01*
X125416982Y-62074171D01*
X125415375Y-62080341D01*
X125415373Y-62080346D01*
X125375015Y-62235283D01*
X125367898Y-62262607D01*
X125364888Y-62320048D01*
X125359570Y-62421522D01*
X125357707Y-62457064D01*
X125375259Y-62573124D01*
X125383557Y-62627987D01*
X125386825Y-62649599D01*
X125389028Y-62655585D01*
X125389029Y-62655591D01*
X125451860Y-62826360D01*
X125451862Y-62826365D01*
X125454063Y-62832346D01*
X125483610Y-62880000D01*
X125533685Y-62960762D01*
X125556674Y-62997840D01*
X125561055Y-63002473D01*
X125561056Y-63002474D01*
X125635445Y-63081139D01*
X125690466Y-63139322D01*
X125695696Y-63142984D01*
X125695697Y-63142985D01*
X125718588Y-63159013D01*
X125849975Y-63251011D01*
X125855838Y-63253548D01*
X126022825Y-63325810D01*
X126022829Y-63325811D01*
X126028684Y-63328345D01*
X126034931Y-63329650D01*
X126034934Y-63329651D01*
X126214557Y-63367176D01*
X126214562Y-63367177D01*
X126219293Y-63368165D01*
X126225685Y-63368500D01*
X126368663Y-63368500D01*
X126437951Y-63361462D01*
X126507378Y-63354410D01*
X126507379Y-63354410D01*
X126513727Y-63353765D01*
X126578955Y-63333324D01*
X126693451Y-63297444D01*
X126693456Y-63297442D01*
X126699541Y-63295535D01*
X126816606Y-63230644D01*
X126864271Y-63204223D01*
X126864274Y-63204221D01*
X126869850Y-63201130D01*
X126874691Y-63196981D01*
X126874695Y-63196978D01*
X127012855Y-63078560D01*
X127017698Y-63074409D01*
X127027428Y-63061866D01*
X127107378Y-62958794D01*
X127137046Y-62920547D01*
X127141030Y-62912452D01*
X127220200Y-62751556D01*
X127223018Y-62745829D01*
X127227315Y-62729333D01*
X127270492Y-62563575D01*
X127270492Y-62563572D01*
X127272102Y-62557393D01*
X127277939Y-62446013D01*
X127281959Y-62369317D01*
X127281959Y-62369313D01*
X127282293Y-62362936D01*
X127253175Y-62170401D01*
X127250972Y-62164415D01*
X127250971Y-62164409D01*
X127188140Y-61993640D01*
X127188138Y-61993635D01*
X127185937Y-61987654D01*
X127098191Y-61846134D01*
X127086688Y-61827582D01*
X127086687Y-61827581D01*
X127083326Y-61822160D01*
X127054525Y-61791703D01*
X126953919Y-61685315D01*
X126949534Y-61680678D01*
X126928348Y-61665843D01*
X126804872Y-61579385D01*
X126790025Y-61568989D01*
X126712350Y-61535376D01*
X126617175Y-61494190D01*
X126617171Y-61494189D01*
X126611316Y-61491655D01*
X126605069Y-61490350D01*
X126605066Y-61490349D01*
X126528734Y-61474403D01*
X126466143Y-61440894D01*
X126431605Y-61378865D01*
X126428500Y-61351066D01*
X126428500Y-60056207D01*
X126448502Y-59988086D01*
X126502158Y-59941593D01*
X126572432Y-59931489D01*
X126637012Y-59960983D01*
X126674332Y-60017269D01*
X126685473Y-60051556D01*
X126688776Y-60057278D01*
X126688777Y-60057279D01*
X126765516Y-60190194D01*
X126780960Y-60216944D01*
X126785378Y-60221851D01*
X126785379Y-60221852D01*
X126884280Y-60331693D01*
X126908747Y-60358866D01*
X126953664Y-60391500D01*
X127054452Y-60464727D01*
X127063248Y-60471118D01*
X127069276Y-60473802D01*
X127069278Y-60473803D01*
X127227573Y-60544280D01*
X127237712Y-60548794D01*
X127331112Y-60568647D01*
X127418056Y-60587128D01*
X127418061Y-60587128D01*
X127424513Y-60588500D01*
X127515761Y-60588500D01*
X127583882Y-60608502D01*
X127604856Y-60625405D01*
X127674595Y-60695144D01*
X127708621Y-60757456D01*
X127711500Y-60784239D01*
X127711500Y-61448134D01*
X127718255Y-61510316D01*
X127769385Y-61646705D01*
X127856739Y-61763261D01*
X127973295Y-61850615D01*
X128109684Y-61901745D01*
X128171866Y-61908500D01*
X128297992Y-61908500D01*
X128366113Y-61928502D01*
X128412606Y-61982158D01*
X128422710Y-62052432D01*
X128417378Y-62073366D01*
X128416982Y-62074171D01*
X128415375Y-62080341D01*
X128415373Y-62080346D01*
X128375015Y-62235283D01*
X128367898Y-62262607D01*
X128364888Y-62320048D01*
X128359570Y-62421522D01*
X128357707Y-62457064D01*
X128375259Y-62573124D01*
X128383557Y-62627987D01*
X128386825Y-62649599D01*
X128389028Y-62655585D01*
X128389029Y-62655591D01*
X128451860Y-62826360D01*
X128451862Y-62826365D01*
X128454063Y-62832346D01*
X128483610Y-62880000D01*
X128533685Y-62960762D01*
X128556674Y-62997840D01*
X128561055Y-63002473D01*
X128561056Y-63002474D01*
X128635445Y-63081139D01*
X128690466Y-63139322D01*
X128695696Y-63142984D01*
X128695697Y-63142985D01*
X128718588Y-63159013D01*
X128849975Y-63251011D01*
X128855838Y-63253548D01*
X129022825Y-63325810D01*
X129022829Y-63325811D01*
X129028684Y-63328345D01*
X129034931Y-63329650D01*
X129034934Y-63329651D01*
X129214557Y-63367176D01*
X129214562Y-63367177D01*
X129219293Y-63368165D01*
X129225685Y-63368500D01*
X129368663Y-63368500D01*
X129437951Y-63361462D01*
X129507378Y-63354410D01*
X129507379Y-63354410D01*
X129513727Y-63353765D01*
X129578955Y-63333324D01*
X129693451Y-63297444D01*
X129693456Y-63297442D01*
X129699541Y-63295535D01*
X129816606Y-63230644D01*
X129864271Y-63204223D01*
X129864274Y-63204221D01*
X129869850Y-63201130D01*
X129874691Y-63196981D01*
X129874695Y-63196978D01*
X130012855Y-63078560D01*
X130017698Y-63074409D01*
X130027428Y-63061866D01*
X130107378Y-62958794D01*
X130137046Y-62920547D01*
X130141030Y-62912452D01*
X130220200Y-62751556D01*
X130223018Y-62745829D01*
X130227315Y-62729333D01*
X130270492Y-62563575D01*
X130270492Y-62563572D01*
X130272102Y-62557393D01*
X130277939Y-62446013D01*
X130281959Y-62369317D01*
X130281959Y-62369313D01*
X130282293Y-62362936D01*
X130253175Y-62170401D01*
X130250972Y-62164415D01*
X130250971Y-62164409D01*
X130219181Y-62078008D01*
X130214431Y-62007170D01*
X130248732Y-61945010D01*
X130311195Y-61911262D01*
X130337431Y-61908500D01*
X130427725Y-61908500D01*
X130495846Y-61928502D01*
X130528551Y-61958935D01*
X130606739Y-62063261D01*
X130723295Y-62150615D01*
X130859684Y-62201745D01*
X130921866Y-62208500D01*
X132018134Y-62208500D01*
X132080316Y-62201745D01*
X132216705Y-62150615D01*
X132333261Y-62063261D01*
X132349910Y-62041046D01*
X132406769Y-61998533D01*
X132477588Y-61993508D01*
X132539881Y-62027568D01*
X132573871Y-62089899D01*
X132568766Y-62160712D01*
X132559855Y-62179611D01*
X132547076Y-62201745D01*
X132490412Y-62299890D01*
X132485473Y-62308444D01*
X132426458Y-62490072D01*
X132425769Y-62496631D01*
X132425768Y-62496634D01*
X132417854Y-62571935D01*
X132390841Y-62637591D01*
X132332619Y-62678221D01*
X132261674Y-62680924D01*
X132232810Y-62667161D01*
X132231760Y-62669079D01*
X132223892Y-62664771D01*
X132216705Y-62659385D01*
X132080316Y-62608255D01*
X132018134Y-62601500D01*
X130921866Y-62601500D01*
X130859684Y-62608255D01*
X130723295Y-62659385D01*
X130606739Y-62746739D01*
X130519385Y-62863295D01*
X130468255Y-62999684D01*
X130461500Y-63061866D01*
X130461500Y-63958134D01*
X130468255Y-64020316D01*
X130519385Y-64156705D01*
X130606739Y-64273261D01*
X130723295Y-64360615D01*
X130859684Y-64411745D01*
X130914147Y-64417661D01*
X130979708Y-64444902D01*
X131020135Y-64503265D01*
X131022591Y-64574219D01*
X131020372Y-64581860D01*
X131018215Y-64588500D01*
X131001458Y-64640072D01*
X131000768Y-64646633D01*
X131000768Y-64646635D01*
X131000283Y-64651254D01*
X130981496Y-64830000D01*
X130982186Y-64836565D01*
X131000768Y-65013368D01*
X131000769Y-65013373D01*
X131001458Y-65019928D01*
X131002000Y-65021597D01*
X130996733Y-65090597D01*
X130953915Y-65147229D01*
X130887277Y-65171721D01*
X130878890Y-65172000D01*
X98129000Y-65172000D01*
X98060879Y-65151998D01*
X98014386Y-65098342D01*
X98003000Y-65046000D01*
X98003000Y-64415367D01*
X98023002Y-64347246D01*
X98076658Y-64300753D01*
X98146932Y-64290649D01*
X98211512Y-64320143D01*
X98229827Y-64339802D01*
X98301719Y-64435728D01*
X98314276Y-64448285D01*
X98416351Y-64524786D01*
X98431946Y-64533324D01*
X98552394Y-64578478D01*
X98567649Y-64582105D01*
X98618514Y-64587631D01*
X98625328Y-64588000D01*
X99072885Y-64588000D01*
X99088124Y-64583525D01*
X99089329Y-64582135D01*
X99091000Y-64574452D01*
X99091000Y-64569884D01*
X99599000Y-64569884D01*
X99603475Y-64585123D01*
X99604865Y-64586328D01*
X99612548Y-64587999D01*
X100064669Y-64587999D01*
X100071490Y-64587629D01*
X100122352Y-64582105D01*
X100137604Y-64578479D01*
X100258054Y-64533324D01*
X100273649Y-64524786D01*
X100375724Y-64448285D01*
X100388285Y-64435724D01*
X100464786Y-64333649D01*
X100473324Y-64318054D01*
X100518478Y-64197606D01*
X100522105Y-64182351D01*
X100527631Y-64131486D01*
X100528000Y-64124672D01*
X100528000Y-63452115D01*
X100523525Y-63436876D01*
X100522135Y-63435671D01*
X100514452Y-63434000D01*
X99617115Y-63434000D01*
X99601876Y-63438475D01*
X99600671Y-63439865D01*
X99599000Y-63447548D01*
X99599000Y-64569884D01*
X99091000Y-64569884D01*
X99091000Y-62907885D01*
X99599000Y-62907885D01*
X99603475Y-62923124D01*
X99604865Y-62924329D01*
X99612548Y-62926000D01*
X100509884Y-62926000D01*
X100525123Y-62921525D01*
X100526328Y-62920135D01*
X100527999Y-62912452D01*
X100527999Y-62235331D01*
X100527629Y-62228510D01*
X100522105Y-62177648D01*
X100518479Y-62162396D01*
X100473324Y-62041946D01*
X100464786Y-62026351D01*
X100388285Y-61924276D01*
X100375724Y-61911715D01*
X100273649Y-61835214D01*
X100258054Y-61826676D01*
X100137606Y-61781522D01*
X100122351Y-61777895D01*
X100071486Y-61772369D01*
X100064672Y-61772000D01*
X99617115Y-61772000D01*
X99601876Y-61776475D01*
X99600671Y-61777865D01*
X99599000Y-61785548D01*
X99599000Y-62907885D01*
X99091000Y-62907885D01*
X99091000Y-61790116D01*
X99086525Y-61774877D01*
X99085135Y-61773672D01*
X99077452Y-61772001D01*
X98625331Y-61772001D01*
X98618510Y-61772371D01*
X98567648Y-61777895D01*
X98552396Y-61781521D01*
X98431946Y-61826676D01*
X98416351Y-61835214D01*
X98314276Y-61911715D01*
X98301719Y-61924272D01*
X98229827Y-62020198D01*
X98172967Y-62062713D01*
X98102149Y-62067739D01*
X98039855Y-62033679D01*
X98005865Y-61971348D01*
X98003000Y-61944633D01*
X98003000Y-61314000D01*
X98023002Y-61245879D01*
X98076658Y-61199386D01*
X98129000Y-61188000D01*
X103486298Y-61188000D01*
X103487069Y-61188002D01*
X103564652Y-61188476D01*
X103573281Y-61186010D01*
X103573286Y-61186009D01*
X103593048Y-61180361D01*
X103609809Y-61176783D01*
X103630152Y-61173870D01*
X103630162Y-61173867D01*
X103639045Y-61172595D01*
X103662395Y-61161979D01*
X103679907Y-61155536D01*
X103695937Y-61150954D01*
X103704565Y-61148488D01*
X103729548Y-61132726D01*
X103744614Y-61124596D01*
X103771510Y-61112367D01*
X103790939Y-61095626D01*
X103805947Y-61084521D01*
X103820039Y-61075630D01*
X103827631Y-61070840D01*
X103847182Y-61048703D01*
X103859374Y-61036659D01*
X103874949Y-61023239D01*
X103874950Y-61023237D01*
X103881747Y-61017381D01*
X103886626Y-61009853D01*
X103886629Y-61009850D01*
X103895696Y-60995861D01*
X103906986Y-60980987D01*
X103918012Y-60968502D01*
X103923956Y-60961772D01*
X103936510Y-60935034D01*
X103944824Y-60920065D01*
X103960893Y-60895273D01*
X103968239Y-60870709D01*
X103974901Y-60853264D01*
X103981983Y-60838179D01*
X103985799Y-60830052D01*
X103990343Y-60800870D01*
X103994126Y-60784151D01*
X104000014Y-60764464D01*
X104000015Y-60764461D01*
X104002587Y-60755859D01*
X104002797Y-60721444D01*
X104002830Y-60720672D01*
X104003000Y-60719577D01*
X104003000Y-60688702D01*
X104003002Y-60687932D01*
X104003452Y-60614284D01*
X104003452Y-60614283D01*
X104003476Y-60610348D01*
X104003092Y-60609004D01*
X104003000Y-60607659D01*
X104003000Y-40688702D01*
X104003002Y-40687932D01*
X104003367Y-40628147D01*
X104003476Y-40610348D01*
X104001010Y-40601719D01*
X104001009Y-40601714D01*
X103995361Y-40581952D01*
X103991783Y-40565191D01*
X103988870Y-40544848D01*
X103988867Y-40544838D01*
X103987595Y-40535955D01*
X103976979Y-40512605D01*
X103970536Y-40495093D01*
X103965954Y-40479063D01*
X103963488Y-40470435D01*
X103947726Y-40445452D01*
X103939596Y-40430386D01*
X103927367Y-40403490D01*
X103910626Y-40384061D01*
X103899521Y-40369053D01*
X103890630Y-40354961D01*
X103885840Y-40347369D01*
X103863703Y-40327818D01*
X103851659Y-40315626D01*
X103838239Y-40300051D01*
X103838237Y-40300050D01*
X103832381Y-40293253D01*
X103824853Y-40288374D01*
X103824850Y-40288371D01*
X103810861Y-40279304D01*
X103795987Y-40268014D01*
X103783502Y-40256988D01*
X103776772Y-40251044D01*
X103768646Y-40247229D01*
X103768645Y-40247228D01*
X103756440Y-40241498D01*
X103750034Y-40238490D01*
X103735065Y-40230176D01*
X103710273Y-40214107D01*
X103685709Y-40206761D01*
X103668264Y-40200099D01*
X103656858Y-40194744D01*
X103645052Y-40189201D01*
X103615870Y-40184657D01*
X103599151Y-40180874D01*
X103579464Y-40174986D01*
X103579461Y-40174985D01*
X103570859Y-40172413D01*
X103561884Y-40172358D01*
X103561883Y-40172358D01*
X103555190Y-40172317D01*
X103536444Y-40172203D01*
X103535672Y-40172170D01*
X103534577Y-40172000D01*
X103503702Y-40172000D01*
X103502932Y-40171998D01*
X103429284Y-40171548D01*
X103429283Y-40171548D01*
X103425348Y-40171524D01*
X103424004Y-40171908D01*
X103422659Y-40172000D01*
X98129000Y-40172000D01*
X98060879Y-40151998D01*
X98014386Y-40098342D01*
X98003000Y-40046000D01*
X98003000Y-39548710D01*
X98023002Y-39480589D01*
X98076658Y-39434096D01*
X98146932Y-39423992D01*
X98211512Y-39453486D01*
X98229827Y-39473145D01*
X98291719Y-39555728D01*
X98304276Y-39568285D01*
X98406351Y-39644786D01*
X98421946Y-39653324D01*
X98542394Y-39698478D01*
X98557649Y-39702105D01*
X98608514Y-39707631D01*
X98615328Y-39708000D01*
X99062885Y-39708000D01*
X99078124Y-39703525D01*
X99079329Y-39702135D01*
X99081000Y-39694452D01*
X99081000Y-39689884D01*
X99589000Y-39689884D01*
X99593475Y-39705123D01*
X99594865Y-39706328D01*
X99602548Y-39707999D01*
X100054669Y-39707999D01*
X100061490Y-39707629D01*
X100112352Y-39702105D01*
X100127604Y-39698479D01*
X100248054Y-39653324D01*
X100263649Y-39644786D01*
X100365724Y-39568285D01*
X100378285Y-39555724D01*
X100454786Y-39453649D01*
X100463324Y-39438054D01*
X100508478Y-39317606D01*
X100512105Y-39302351D01*
X100517631Y-39251486D01*
X100517813Y-39248134D01*
X102301500Y-39248134D01*
X102308255Y-39310316D01*
X102359385Y-39446705D01*
X102446739Y-39563261D01*
X102563295Y-39650615D01*
X102699684Y-39701745D01*
X102761866Y-39708500D01*
X104208134Y-39708500D01*
X104270316Y-39701745D01*
X104406705Y-39650615D01*
X104523261Y-39563261D01*
X104610615Y-39446705D01*
X104631370Y-39391342D01*
X104658972Y-39317714D01*
X104658973Y-39317711D01*
X104661745Y-39310316D01*
X104662372Y-39304547D01*
X104697126Y-39243709D01*
X104760081Y-39210887D01*
X104784493Y-39208500D01*
X104955487Y-39208500D01*
X104961939Y-39207128D01*
X104961944Y-39207128D01*
X105048887Y-39188647D01*
X105142288Y-39168794D01*
X105152584Y-39164210D01*
X105310722Y-39093803D01*
X105310724Y-39093802D01*
X105316752Y-39091118D01*
X105358615Y-39060703D01*
X105414194Y-39020322D01*
X105471253Y-38978866D01*
X105475675Y-38973955D01*
X105594621Y-38841852D01*
X105594622Y-38841851D01*
X105599040Y-38836944D01*
X105668057Y-38717404D01*
X105691223Y-38677279D01*
X105691224Y-38677278D01*
X105694527Y-38671556D01*
X105753542Y-38489928D01*
X105754950Y-38476537D01*
X105772814Y-38306565D01*
X105773504Y-38300000D01*
X105763132Y-38201315D01*
X105754232Y-38116635D01*
X105754232Y-38116633D01*
X105753542Y-38110072D01*
X105694527Y-37928444D01*
X105690004Y-37920609D01*
X105634111Y-37823801D01*
X105599040Y-37763056D01*
X105497142Y-37649886D01*
X105475675Y-37626045D01*
X105475674Y-37626044D01*
X105471253Y-37621134D01*
X105316752Y-37508882D01*
X105310724Y-37506198D01*
X105310722Y-37506197D01*
X105148319Y-37433891D01*
X105148318Y-37433891D01*
X105142288Y-37431206D01*
X105048888Y-37411353D01*
X104961944Y-37392872D01*
X104961939Y-37392872D01*
X104955487Y-37391500D01*
X104784493Y-37391500D01*
X104716372Y-37371498D01*
X104669879Y-37317842D01*
X104662457Y-37296237D01*
X104661745Y-37289684D01*
X104658972Y-37282285D01*
X104613767Y-37161703D01*
X104610615Y-37153295D01*
X104523261Y-37036739D01*
X104406705Y-36949385D01*
X104270316Y-36898255D01*
X104208134Y-36891500D01*
X102761866Y-36891500D01*
X102699684Y-36898255D01*
X102563295Y-36949385D01*
X102446739Y-37036739D01*
X102359385Y-37153295D01*
X102308255Y-37289684D01*
X102301500Y-37351866D01*
X102301500Y-39248134D01*
X100517813Y-39248134D01*
X100518000Y-39244672D01*
X100518000Y-38572115D01*
X100513525Y-38556876D01*
X100512135Y-38555671D01*
X100504452Y-38554000D01*
X99607115Y-38554000D01*
X99591876Y-38558475D01*
X99590671Y-38559865D01*
X99589000Y-38567548D01*
X99589000Y-39689884D01*
X99081000Y-39689884D01*
X99081000Y-38027885D01*
X99589000Y-38027885D01*
X99593475Y-38043124D01*
X99594865Y-38044329D01*
X99602548Y-38046000D01*
X100499884Y-38046000D01*
X100515123Y-38041525D01*
X100516328Y-38040135D01*
X100517999Y-38032452D01*
X100517999Y-37355331D01*
X100517629Y-37348510D01*
X100512105Y-37297648D01*
X100508479Y-37282396D01*
X100463324Y-37161946D01*
X100454786Y-37146351D01*
X100378285Y-37044276D01*
X100365724Y-37031715D01*
X100263649Y-36955214D01*
X100248054Y-36946676D01*
X100127606Y-36901522D01*
X100112351Y-36897895D01*
X100061486Y-36892369D01*
X100054672Y-36892000D01*
X99607115Y-36892000D01*
X99591876Y-36896475D01*
X99590671Y-36897865D01*
X99589000Y-36905548D01*
X99589000Y-38027885D01*
X99081000Y-38027885D01*
X99081000Y-36910116D01*
X99076525Y-36894877D01*
X99075135Y-36893672D01*
X99067452Y-36892001D01*
X98615331Y-36892001D01*
X98608510Y-36892371D01*
X98557648Y-36897895D01*
X98542396Y-36901521D01*
X98421946Y-36946676D01*
X98406351Y-36955214D01*
X98304276Y-37031715D01*
X98291719Y-37044272D01*
X98229827Y-37126855D01*
X98172967Y-37169370D01*
X98102149Y-37174396D01*
X98039855Y-37140336D01*
X98005865Y-37078005D01*
X98003000Y-37051290D01*
X98003000Y-36314000D01*
X98023002Y-36245879D01*
X98076658Y-36199386D01*
X98129000Y-36188000D01*
X111147261Y-36188000D01*
X111215382Y-36208002D01*
G37*
%TD.AperFunction*%
%TA.AperFunction,Conductor*%
G36*
X136415242Y-37658502D02*
G01*
X136461735Y-37712158D01*
X136468239Y-37729767D01*
X136477783Y-37763050D01*
X136480602Y-37768535D01*
X136562785Y-37928444D01*
X136568187Y-37938956D01*
X136572016Y-37943787D01*
X136573839Y-37946088D01*
X136574414Y-37947509D01*
X136575353Y-37948966D01*
X136575076Y-37949144D01*
X136600474Y-38011898D01*
X136587301Y-38081662D01*
X136583846Y-38087474D01*
X136488567Y-38260787D01*
X136486706Y-38266654D01*
X136486705Y-38266656D01*
X136439984Y-38413940D01*
X136428765Y-38449306D01*
X136406719Y-38645851D01*
X136409567Y-38679766D01*
X136422479Y-38833534D01*
X136423268Y-38842934D01*
X136433436Y-38878393D01*
X136469524Y-39004246D01*
X136477783Y-39033050D01*
X136480602Y-39038535D01*
X136548252Y-39170166D01*
X136568187Y-39208956D01*
X136572016Y-39213787D01*
X136573839Y-39216088D01*
X136574414Y-39217509D01*
X136575353Y-39218966D01*
X136575076Y-39219144D01*
X136600474Y-39281898D01*
X136587301Y-39351662D01*
X136583846Y-39357474D01*
X136488567Y-39530787D01*
X136486706Y-39536654D01*
X136486705Y-39536656D01*
X136432352Y-39707999D01*
X136428765Y-39719306D01*
X136406719Y-39915851D01*
X136407235Y-39921995D01*
X136422043Y-40098342D01*
X136423268Y-40112934D01*
X136443835Y-40184658D01*
X136474974Y-40293253D01*
X136477783Y-40303050D01*
X136530794Y-40406197D01*
X136531672Y-40407905D01*
X136545020Y-40477635D01*
X136518550Y-40543513D01*
X136460666Y-40584622D01*
X136419606Y-40591500D01*
X136020710Y-40591500D01*
X135952589Y-40571498D01*
X135927074Y-40549811D01*
X135905668Y-40526037D01*
X135905666Y-40526036D01*
X135901253Y-40521134D01*
X135844793Y-40480113D01*
X135752094Y-40412763D01*
X135752093Y-40412762D01*
X135746752Y-40408882D01*
X135740724Y-40406198D01*
X135740722Y-40406197D01*
X135578319Y-40333891D01*
X135578318Y-40333891D01*
X135572288Y-40331206D01*
X135478887Y-40311353D01*
X135391944Y-40292872D01*
X135391939Y-40292872D01*
X135385487Y-40291500D01*
X135194513Y-40291500D01*
X135188061Y-40292872D01*
X135188056Y-40292872D01*
X135101113Y-40311353D01*
X135007712Y-40331206D01*
X135001682Y-40333891D01*
X135001681Y-40333891D01*
X134839278Y-40406197D01*
X134839276Y-40406198D01*
X134833248Y-40408882D01*
X134678747Y-40521134D01*
X134674326Y-40526044D01*
X134674325Y-40526045D01*
X134567536Y-40644647D01*
X134550960Y-40663056D01*
X134505647Y-40741540D01*
X134483736Y-40779492D01*
X134455473Y-40828444D01*
X134396458Y-41010072D01*
X134395768Y-41016633D01*
X134395768Y-41016635D01*
X134382104Y-41146641D01*
X134376496Y-41200000D01*
X134377186Y-41206565D01*
X134394472Y-41371029D01*
X134396458Y-41389928D01*
X134455473Y-41571556D01*
X134458776Y-41577278D01*
X134458777Y-41577279D01*
X134481335Y-41616351D01*
X134550960Y-41736944D01*
X134678747Y-41878866D01*
X134713655Y-41904228D01*
X134780002Y-41952432D01*
X134833248Y-41991118D01*
X134839276Y-41993802D01*
X134839278Y-41993803D01*
X135000504Y-42065585D01*
X135007712Y-42068794D01*
X135100421Y-42088500D01*
X135188056Y-42107128D01*
X135188061Y-42107128D01*
X135194513Y-42108500D01*
X135385487Y-42108500D01*
X135391939Y-42107128D01*
X135391944Y-42107128D01*
X135479579Y-42088500D01*
X135572288Y-42068794D01*
X135579496Y-42065585D01*
X135740722Y-41993803D01*
X135740724Y-41993802D01*
X135746752Y-41991118D01*
X135799999Y-41952432D01*
X135879671Y-41894546D01*
X135901253Y-41878866D01*
X135906485Y-41873056D01*
X135927074Y-41850189D01*
X135987520Y-41812950D01*
X136020710Y-41808500D01*
X136420278Y-41808500D01*
X136488399Y-41828502D01*
X136534892Y-41882158D01*
X136544996Y-41952432D01*
X136530692Y-41995201D01*
X136491998Y-42065585D01*
X136487166Y-42076858D01*
X136448506Y-42198731D01*
X136448202Y-42212831D01*
X136454763Y-42216000D01*
X138378183Y-42216000D01*
X138391714Y-42212027D01*
X138392806Y-42204433D01*
X138358231Y-42089919D01*
X138353560Y-42078586D01*
X138266537Y-41914918D01*
X138259435Y-41904228D01*
X138238398Y-41836420D01*
X138254827Y-41772264D01*
X138257450Y-41767648D01*
X138334678Y-41631703D01*
X138342723Y-41617542D01*
X138342725Y-41617537D01*
X138345769Y-41612179D01*
X138408197Y-41424513D01*
X138432985Y-41228295D01*
X138433380Y-41200000D01*
X138414080Y-41003167D01*
X138408971Y-40986243D01*
X138384631Y-40905629D01*
X138356916Y-40813831D01*
X138264066Y-40639204D01*
X138260167Y-40634424D01*
X138259715Y-40633743D01*
X138238676Y-40565935D01*
X138255105Y-40501775D01*
X138342723Y-40347542D01*
X138342725Y-40347537D01*
X138345769Y-40342179D01*
X138408197Y-40154513D01*
X138432985Y-39958295D01*
X138433380Y-39930000D01*
X138414080Y-39733167D01*
X138403283Y-39697404D01*
X138362782Y-39563261D01*
X138356916Y-39543831D01*
X138264066Y-39369204D01*
X138260167Y-39364424D01*
X138259715Y-39363743D01*
X138238676Y-39295935D01*
X138255105Y-39231775D01*
X138342723Y-39077542D01*
X138342725Y-39077537D01*
X138345769Y-39072179D01*
X138408197Y-38884513D01*
X138432985Y-38688295D01*
X138433380Y-38660000D01*
X138425545Y-38580091D01*
X138438805Y-38510344D01*
X138461848Y-38478701D01*
X138515740Y-38424808D01*
X138528132Y-38413940D01*
X138546947Y-38399503D01*
X138546948Y-38399502D01*
X138553498Y-38394476D01*
X138558524Y-38387926D01*
X138558527Y-38387923D01*
X138599291Y-38334798D01*
X138646007Y-38273918D01*
X138646008Y-38273916D01*
X138651035Y-38267365D01*
X138652962Y-38262712D01*
X138703265Y-38214750D01*
X138772979Y-38201315D01*
X138838890Y-38227703D01*
X138880071Y-38285536D01*
X138887000Y-38326744D01*
X138887000Y-65046000D01*
X138866998Y-65114121D01*
X138813342Y-65160614D01*
X138761000Y-65172000D01*
X135724500Y-65172000D01*
X135656379Y-65151998D01*
X135609886Y-65098342D01*
X135598500Y-65046000D01*
X135598499Y-64653726D01*
X135598499Y-64651254D01*
X135595573Y-64614063D01*
X135549332Y-64454900D01*
X135542968Y-64444140D01*
X135525508Y-64375326D01*
X135542968Y-64315861D01*
X135549332Y-64305100D01*
X135553531Y-64290649D01*
X135570548Y-64232074D01*
X135595573Y-64145937D01*
X135596077Y-64139532D01*
X135596078Y-64139527D01*
X135598307Y-64111203D01*
X135598307Y-64111195D01*
X135598500Y-64108747D01*
X135598500Y-63949170D01*
X135618502Y-63881049D01*
X135672158Y-63834556D01*
X135742432Y-63824452D01*
X135807012Y-63853946D01*
X135842482Y-63904941D01*
X135863697Y-63961531D01*
X135869385Y-63976705D01*
X135956739Y-64093261D01*
X136073295Y-64180615D01*
X136209684Y-64231745D01*
X136271866Y-64238500D01*
X138068134Y-64238500D01*
X138130316Y-64231745D01*
X138266705Y-64180615D01*
X138383261Y-64093261D01*
X138470615Y-63976705D01*
X138521745Y-63840316D01*
X138528500Y-63778134D01*
X138528500Y-61981866D01*
X138521745Y-61919684D01*
X138470615Y-61783295D01*
X138383261Y-61666739D01*
X138266705Y-61579385D01*
X138147687Y-61534767D01*
X138090923Y-61492125D01*
X138066223Y-61425564D01*
X138081430Y-61356215D01*
X138102977Y-61327535D01*
X138204052Y-61226812D01*
X138210730Y-61218965D01*
X138335003Y-61046020D01*
X138340313Y-61037183D01*
X138434670Y-60846267D01*
X138438469Y-60836672D01*
X138500377Y-60632910D01*
X138502555Y-60622837D01*
X138503986Y-60611962D01*
X138501775Y-60597778D01*
X138488617Y-60594000D01*
X137042000Y-60594000D01*
X136973879Y-60573998D01*
X136927386Y-60520342D01*
X136916000Y-60468000D01*
X136916000Y-60067885D01*
X137424000Y-60067885D01*
X137428475Y-60083124D01*
X137429865Y-60084329D01*
X137437548Y-60086000D01*
X138488344Y-60086000D01*
X138501875Y-60082027D01*
X138503180Y-60072947D01*
X138461214Y-59905875D01*
X138457894Y-59896124D01*
X138372972Y-59700814D01*
X138368105Y-59691739D01*
X138252426Y-59512926D01*
X138246136Y-59504757D01*
X138102806Y-59347240D01*
X138095273Y-59340215D01*
X137928139Y-59208222D01*
X137919552Y-59202517D01*
X137733117Y-59099599D01*
X137723705Y-59095369D01*
X137522959Y-59024280D01*
X137512988Y-59021646D01*
X137441837Y-59008972D01*
X137428540Y-59010432D01*
X137424000Y-59024989D01*
X137424000Y-60067885D01*
X136916000Y-60067885D01*
X136916000Y-59023102D01*
X136912082Y-59009758D01*
X136897806Y-59007771D01*
X136859324Y-59013660D01*
X136849288Y-59016051D01*
X136646868Y-59082212D01*
X136637359Y-59086209D01*
X136448463Y-59184542D01*
X136439738Y-59190036D01*
X136269433Y-59317905D01*
X136269225Y-59318090D01*
X136269123Y-59318138D01*
X136265298Y-59321010D01*
X136264705Y-59320220D01*
X136205004Y-59348359D01*
X136134614Y-59339103D01*
X136080402Y-59293260D01*
X136066580Y-59265304D01*
X136056063Y-59235104D01*
X136056063Y-59235103D01*
X136053745Y-59228448D01*
X136050010Y-59222470D01*
X136035973Y-59200005D01*
X136028634Y-59186488D01*
X136017441Y-59162486D01*
X136017440Y-59162485D01*
X136014462Y-59156098D01*
X135987894Y-59121847D01*
X135980598Y-59111388D01*
X135961358Y-59080596D01*
X135961356Y-59080593D01*
X135957626Y-59074624D01*
X135929024Y-59045821D01*
X135928439Y-59045196D01*
X135927922Y-59044530D01*
X135901932Y-59018540D01*
X135829815Y-58945918D01*
X135828778Y-58945260D01*
X135827549Y-58944157D01*
X135098234Y-58214842D01*
X135097306Y-58213905D01*
X135039157Y-58154525D01*
X135039156Y-58154524D01*
X135034229Y-58149493D01*
X134997779Y-58126002D01*
X134987454Y-58118583D01*
X134953557Y-58091524D01*
X134945521Y-58087639D01*
X134923363Y-58076928D01*
X134909945Y-58069398D01*
X134881762Y-58051235D01*
X134875145Y-58048827D01*
X134875140Y-58048824D01*
X134841027Y-58036408D01*
X134829284Y-58031447D01*
X134796597Y-58015646D01*
X134796592Y-58015644D01*
X134790251Y-58012579D01*
X134783393Y-58010996D01*
X134783391Y-58010995D01*
X134757574Y-58005035D01*
X134742831Y-58000668D01*
X134711315Y-57989197D01*
X134704325Y-57988314D01*
X134704317Y-57988312D01*
X134668299Y-57983762D01*
X134655747Y-57981526D01*
X134620386Y-57973362D01*
X134620383Y-57973362D01*
X134613515Y-57971776D01*
X134606469Y-57971751D01*
X134606466Y-57971751D01*
X134572944Y-57971634D01*
X134572062Y-57971605D01*
X134571231Y-57971500D01*
X134534581Y-57971500D01*
X134534141Y-57971499D01*
X134435657Y-57971155D01*
X134435652Y-57971155D01*
X134432130Y-57971143D01*
X134430930Y-57971411D01*
X134429293Y-57971500D01*
X132554500Y-57971500D01*
X132486379Y-57951498D01*
X132439886Y-57897842D01*
X132428500Y-57845500D01*
X132428500Y-57730397D01*
X132445380Y-57667398D01*
X132454527Y-57651556D01*
X132513542Y-57469928D01*
X132533504Y-57280000D01*
X132513542Y-57090072D01*
X132454527Y-56908444D01*
X132359040Y-56743056D01*
X132332802Y-56713915D01*
X132235675Y-56606045D01*
X132235674Y-56606044D01*
X132231253Y-56601134D01*
X132120094Y-56520372D01*
X132082094Y-56492763D01*
X132082093Y-56492762D01*
X132076752Y-56488882D01*
X132070724Y-56486198D01*
X132070722Y-56486197D01*
X131908319Y-56413891D01*
X131908318Y-56413891D01*
X131902288Y-56411206D01*
X131808497Y-56391270D01*
X131721944Y-56372872D01*
X131721939Y-56372872D01*
X131715487Y-56371500D01*
X131524513Y-56371500D01*
X131518061Y-56372872D01*
X131518056Y-56372872D01*
X131431503Y-56391270D01*
X131337712Y-56411206D01*
X131331682Y-56413891D01*
X131331681Y-56413891D01*
X131169278Y-56486197D01*
X131169276Y-56486198D01*
X131163248Y-56488882D01*
X131157907Y-56492762D01*
X131157906Y-56492763D01*
X131119906Y-56520372D01*
X131053039Y-56544230D01*
X130983887Y-56528150D01*
X130934407Y-56477236D01*
X130926592Y-56445873D01*
X130921520Y-56438029D01*
X130912630Y-56434000D01*
X130674842Y-56434000D01*
X130610703Y-56416453D01*
X130540427Y-56374892D01*
X130540428Y-56374892D01*
X130533601Y-56370855D01*
X130525990Y-56368644D01*
X130525988Y-56368643D01*
X130452991Y-56347436D01*
X130373831Y-56324438D01*
X130367426Y-56323934D01*
X130367421Y-56323933D01*
X130338958Y-56321693D01*
X130338950Y-56321693D01*
X130336502Y-56321500D01*
X129813405Y-56321500D01*
X129798486Y-56320614D01*
X129794826Y-56320178D01*
X129763180Y-56316404D01*
X129756177Y-56317140D01*
X129756176Y-56317140D01*
X129721260Y-56320810D01*
X129708089Y-56321500D01*
X129178498Y-56321500D01*
X129176050Y-56321693D01*
X129176042Y-56321693D01*
X129147579Y-56323933D01*
X129147574Y-56323934D01*
X129141169Y-56324438D01*
X129062009Y-56347436D01*
X128989012Y-56368643D01*
X128989010Y-56368644D01*
X128981399Y-56370855D01*
X128974572Y-56374892D01*
X128974573Y-56374892D01*
X128904297Y-56416453D01*
X128840158Y-56434000D01*
X128608122Y-56434000D01*
X128592884Y-56438474D01*
X128584732Y-56447882D01*
X128525006Y-56486266D01*
X128454010Y-56486266D01*
X128412280Y-56464929D01*
X128407415Y-56461155D01*
X128401807Y-56455547D01*
X128394983Y-56451511D01*
X128394980Y-56451509D01*
X128265427Y-56374892D01*
X128265428Y-56374892D01*
X128258601Y-56370855D01*
X128250990Y-56368644D01*
X128250988Y-56368643D01*
X128177991Y-56347436D01*
X128098831Y-56324438D01*
X128092426Y-56323934D01*
X128092421Y-56323933D01*
X128063958Y-56321693D01*
X128063950Y-56321693D01*
X128061502Y-56321500D01*
X126903498Y-56321500D01*
X126901050Y-56321693D01*
X126901042Y-56321693D01*
X126872579Y-56323933D01*
X126872574Y-56323934D01*
X126866169Y-56324438D01*
X126787009Y-56347436D01*
X126714012Y-56368643D01*
X126714010Y-56368644D01*
X126706399Y-56370855D01*
X126699906Y-56374695D01*
X126629613Y-56383370D01*
X126575975Y-56360972D01*
X126482094Y-56292763D01*
X126482093Y-56292762D01*
X126476752Y-56288882D01*
X126470724Y-56286198D01*
X126470722Y-56286197D01*
X126308319Y-56213891D01*
X126308318Y-56213891D01*
X126302288Y-56211206D01*
X126208888Y-56191353D01*
X126121944Y-56172872D01*
X126121939Y-56172872D01*
X126115487Y-56171500D01*
X125924513Y-56171500D01*
X125918061Y-56172872D01*
X125918056Y-56172872D01*
X125831113Y-56191353D01*
X125737712Y-56211206D01*
X125731682Y-56213891D01*
X125731681Y-56213891D01*
X125569278Y-56286197D01*
X125569276Y-56286198D01*
X125563248Y-56288882D01*
X125557907Y-56292762D01*
X125557906Y-56292763D01*
X125482656Y-56347436D01*
X125415789Y-56371294D01*
X125408595Y-56371500D01*
X123124500Y-56371500D01*
X123056379Y-56351498D01*
X123009886Y-56297842D01*
X122998500Y-56245500D01*
X122998500Y-55171866D01*
X122991745Y-55109684D01*
X122940615Y-54973295D01*
X122853261Y-54856739D01*
X122805340Y-54820824D01*
X122762827Y-54763967D01*
X122757801Y-54693149D01*
X122791861Y-54630855D01*
X122805330Y-54619183D01*
X122853261Y-54583261D01*
X122940615Y-54466705D01*
X122991745Y-54330316D01*
X122998500Y-54268134D01*
X122998500Y-53171866D01*
X122991745Y-53109684D01*
X122940615Y-52973295D01*
X122853261Y-52856739D01*
X122805340Y-52820824D01*
X122762827Y-52763967D01*
X122757801Y-52693149D01*
X122791861Y-52630855D01*
X122805330Y-52619183D01*
X122853261Y-52583261D01*
X122940615Y-52466705D01*
X122991745Y-52330316D01*
X122998500Y-52268134D01*
X122998500Y-51171866D01*
X122991745Y-51109684D01*
X122940615Y-50973295D01*
X122853261Y-50856739D01*
X122805340Y-50820824D01*
X122762827Y-50763967D01*
X122757801Y-50693149D01*
X122791861Y-50630855D01*
X122805330Y-50619183D01*
X122853261Y-50583261D01*
X122940615Y-50466705D01*
X122991745Y-50330316D01*
X122998500Y-50268134D01*
X122998500Y-49171866D01*
X122991745Y-49109684D01*
X122940615Y-48973295D01*
X122935230Y-48966110D01*
X122935229Y-48966108D01*
X122863230Y-48870040D01*
X122839876Y-48815815D01*
X122836106Y-48793876D01*
X122834866Y-48786660D01*
X122812375Y-48733802D01*
X122804109Y-48663288D01*
X122835278Y-48599499D01*
X122839976Y-48595237D01*
X122839731Y-48594992D01*
X122846081Y-48588642D01*
X122853261Y-48583261D01*
X122940615Y-48466705D01*
X122991745Y-48330316D01*
X122998500Y-48268134D01*
X122998500Y-47171866D01*
X122991745Y-47109684D01*
X122940615Y-46973295D01*
X122853261Y-46856739D01*
X122805340Y-46820824D01*
X122762827Y-46763967D01*
X122757801Y-46693149D01*
X122791861Y-46630855D01*
X122805330Y-46619183D01*
X122853261Y-46583261D01*
X122940615Y-46466705D01*
X122991745Y-46330316D01*
X122998500Y-46268134D01*
X122998500Y-45171866D01*
X122991745Y-45109684D01*
X122940615Y-44973295D01*
X122853261Y-44856739D01*
X122736705Y-44769385D01*
X122600316Y-44718255D01*
X122538134Y-44711500D01*
X121186342Y-44711500D01*
X121118221Y-44691498D01*
X121071728Y-44637842D01*
X121061624Y-44567568D01*
X121068360Y-44541270D01*
X121088478Y-44487605D01*
X121092105Y-44472351D01*
X121097631Y-44421486D01*
X121098000Y-44414672D01*
X121098000Y-43392115D01*
X121093525Y-43376876D01*
X121092135Y-43375671D01*
X121084452Y-43374000D01*
X120362115Y-43374000D01*
X120346876Y-43378475D01*
X120345671Y-43379865D01*
X120344000Y-43387548D01*
X120344000Y-44791732D01*
X120323998Y-44859853D01*
X120318826Y-44867297D01*
X120310430Y-44878500D01*
X120239385Y-44973295D01*
X120188255Y-45109684D01*
X120181500Y-45171866D01*
X120181500Y-46268134D01*
X120188255Y-46330316D01*
X120239385Y-46466705D01*
X120326739Y-46583261D01*
X120374660Y-46619176D01*
X120417173Y-46676033D01*
X120422199Y-46746851D01*
X120388139Y-46809145D01*
X120374670Y-46820817D01*
X120326739Y-46856739D01*
X120239385Y-46973295D01*
X120188255Y-47109684D01*
X120181500Y-47171866D01*
X120181500Y-48268134D01*
X120188255Y-48330316D01*
X120239385Y-48466705D01*
X120326739Y-48583261D01*
X120374660Y-48619176D01*
X120417173Y-48676033D01*
X120422199Y-48746851D01*
X120388139Y-48809145D01*
X120374670Y-48820817D01*
X120326739Y-48856739D01*
X120239385Y-48973295D01*
X120188255Y-49109684D01*
X120181500Y-49171866D01*
X120181500Y-50268134D01*
X120188255Y-50330316D01*
X120239385Y-50466705D01*
X120326739Y-50583261D01*
X120374660Y-50619176D01*
X120417173Y-50676033D01*
X120422199Y-50746851D01*
X120388139Y-50809145D01*
X120374670Y-50820817D01*
X120326739Y-50856739D01*
X120239385Y-50973295D01*
X120188255Y-51109684D01*
X120181500Y-51171866D01*
X120181500Y-52268134D01*
X120188255Y-52330316D01*
X120239385Y-52466705D01*
X120326739Y-52583261D01*
X120374660Y-52619176D01*
X120417173Y-52676033D01*
X120422199Y-52746851D01*
X120388139Y-52809145D01*
X120374670Y-52820817D01*
X120326739Y-52856739D01*
X120239385Y-52973295D01*
X120188255Y-53109684D01*
X120181500Y-53171866D01*
X120181500Y-54268134D01*
X120188255Y-54330316D01*
X120239385Y-54466705D01*
X120326739Y-54583261D01*
X120374660Y-54619176D01*
X120417173Y-54676033D01*
X120422199Y-54746851D01*
X120388139Y-54809145D01*
X120374670Y-54820817D01*
X120326739Y-54856739D01*
X120239385Y-54973295D01*
X120188255Y-55109684D01*
X120181500Y-55171866D01*
X120181500Y-56268134D01*
X120188255Y-56330316D01*
X120204966Y-56374892D01*
X120211106Y-56391270D01*
X120216289Y-56462077D01*
X120182369Y-56524446D01*
X120120113Y-56558575D01*
X120093124Y-56561500D01*
X119541866Y-56561500D01*
X119479684Y-56568255D01*
X119343295Y-56619385D01*
X119226739Y-56706739D01*
X119190824Y-56754660D01*
X119133967Y-56797173D01*
X119063149Y-56802199D01*
X119000855Y-56768139D01*
X118989183Y-56754670D01*
X118953261Y-56706739D01*
X118836705Y-56619385D01*
X118700316Y-56568255D01*
X118638134Y-56561500D01*
X118054500Y-56561500D01*
X117986379Y-56541498D01*
X117939886Y-56487842D01*
X117928500Y-56435500D01*
X117928500Y-51771396D01*
X117948502Y-51703275D01*
X117960864Y-51687086D01*
X118064621Y-51571852D01*
X118064622Y-51571851D01*
X118069040Y-51566944D01*
X118164527Y-51401556D01*
X118223542Y-51219928D01*
X118228594Y-51171866D01*
X118242814Y-51036565D01*
X118243504Y-51030000D01*
X118234031Y-50939865D01*
X118224232Y-50846635D01*
X118224232Y-50846633D01*
X118223542Y-50840072D01*
X118164527Y-50658444D01*
X118148599Y-50630855D01*
X118074126Y-50501866D01*
X118069040Y-50493056D01*
X118045314Y-50466705D01*
X117945675Y-50356045D01*
X117945674Y-50356044D01*
X117941253Y-50351134D01*
X117786752Y-50238882D01*
X117780724Y-50236198D01*
X117780722Y-50236197D01*
X117618319Y-50163891D01*
X117618318Y-50163891D01*
X117612288Y-50161206D01*
X117518888Y-50141353D01*
X117431944Y-50122872D01*
X117431939Y-50122872D01*
X117425487Y-50121500D01*
X117234513Y-50121500D01*
X117228061Y-50122872D01*
X117228056Y-50122872D01*
X117141112Y-50141353D01*
X117047712Y-50161206D01*
X117041685Y-50163889D01*
X117041677Y-50163892D01*
X116955748Y-50202150D01*
X116885381Y-50211584D01*
X116821084Y-50181477D01*
X116783271Y-50121388D01*
X116778500Y-50087043D01*
X116778500Y-49834239D01*
X116798502Y-49766118D01*
X116815405Y-49745144D01*
X119616234Y-46944315D01*
X119628625Y-46933448D01*
X119647437Y-46919013D01*
X119653987Y-46913987D01*
X119678474Y-46882075D01*
X119678477Y-46882072D01*
X119751523Y-46786876D01*
X119751524Y-46786875D01*
X119768103Y-46746851D01*
X119809678Y-46646479D01*
X119812838Y-46638850D01*
X119828500Y-46519885D01*
X119828500Y-46519878D01*
X119833750Y-46480000D01*
X119829578Y-46448307D01*
X119828500Y-46431864D01*
X119828500Y-44912478D01*
X119831379Y-44885696D01*
X119836000Y-44864453D01*
X119836000Y-42992000D01*
X119856002Y-42923879D01*
X119909658Y-42877386D01*
X119962000Y-42866000D01*
X121079884Y-42866000D01*
X121095123Y-42861525D01*
X121096328Y-42860135D01*
X121097999Y-42852452D01*
X121097999Y-41825331D01*
X121097629Y-41818510D01*
X121092105Y-41767648D01*
X121088479Y-41752396D01*
X121043324Y-41631946D01*
X121034786Y-41616351D01*
X120958285Y-41514276D01*
X120945724Y-41501715D01*
X120843649Y-41425214D01*
X120828054Y-41416676D01*
X120751264Y-41387888D01*
X120694499Y-41345246D01*
X120669800Y-41278684D01*
X120670184Y-41256736D01*
X120682814Y-41136565D01*
X120683504Y-41130000D01*
X120679440Y-41091332D01*
X120664232Y-40946635D01*
X120664232Y-40946633D01*
X120663542Y-40940072D01*
X120604527Y-40758444D01*
X120594768Y-40741540D01*
X120555643Y-40673775D01*
X120509040Y-40593056D01*
X120483715Y-40564929D01*
X120385675Y-40456045D01*
X120385674Y-40456044D01*
X120381253Y-40451134D01*
X120279180Y-40376973D01*
X120232094Y-40342763D01*
X120232093Y-40342762D01*
X120226752Y-40338882D01*
X120220724Y-40336198D01*
X120220722Y-40336197D01*
X120058319Y-40263891D01*
X120058318Y-40263891D01*
X120052288Y-40261206D01*
X119865487Y-40221500D01*
X119860705Y-40221500D01*
X119795673Y-40194744D01*
X119755043Y-40136523D01*
X119748500Y-40096448D01*
X119748499Y-39892485D01*
X119748499Y-39890012D01*
X119745629Y-39853534D01*
X119715266Y-39749025D01*
X119702481Y-39705017D01*
X119702480Y-39705015D01*
X119700269Y-39697404D01*
X119668477Y-39643647D01*
X119651018Y-39574834D01*
X119668478Y-39515370D01*
X119695771Y-39469220D01*
X119702019Y-39454783D01*
X119734961Y-39341395D01*
X119734921Y-39327295D01*
X119727651Y-39324000D01*
X119257542Y-39324000D01*
X119222390Y-39318997D01*
X119212647Y-39316166D01*
X119212640Y-39316165D01*
X119206466Y-39314371D01*
X119200059Y-39313867D01*
X119200055Y-39313866D01*
X119172444Y-39311693D01*
X119172438Y-39311693D01*
X119169989Y-39311500D01*
X118920152Y-39311500D01*
X118670012Y-39311501D01*
X118633534Y-39314371D01*
X118627352Y-39316167D01*
X118627347Y-39316168D01*
X118617610Y-39318997D01*
X118582458Y-39324000D01*
X118118100Y-39324000D01*
X118104569Y-39327973D01*
X118103434Y-39335871D01*
X118137981Y-39454783D01*
X118144229Y-39469220D01*
X118171522Y-39515370D01*
X118188982Y-39584187D01*
X118171523Y-39643646D01*
X118139731Y-39697404D01*
X118137520Y-39705015D01*
X118137519Y-39705017D01*
X118120090Y-39765009D01*
X118094371Y-39853534D01*
X118093867Y-39859941D01*
X118093866Y-39859945D01*
X118091693Y-39887556D01*
X118091500Y-39890011D01*
X118091501Y-40289988D01*
X118094371Y-40326466D01*
X118119443Y-40412763D01*
X118122797Y-40424308D01*
X118122594Y-40495304D01*
X118090895Y-40548556D01*
X117773766Y-40865685D01*
X117761375Y-40876552D01*
X117736013Y-40896013D01*
X117711526Y-40927925D01*
X117711523Y-40927928D01*
X117711517Y-40927936D01*
X117644387Y-41015421D01*
X117638476Y-41023124D01*
X117585728Y-41150470D01*
X117577162Y-41171150D01*
X117576084Y-41179338D01*
X117564716Y-41265687D01*
X117535994Y-41330614D01*
X117479534Y-41367855D01*
X117479684Y-41368255D01*
X117343295Y-41419385D01*
X117226739Y-41506739D01*
X117190824Y-41554660D01*
X117133967Y-41597173D01*
X117063149Y-41602199D01*
X117000855Y-41568139D01*
X116989183Y-41554670D01*
X116953261Y-41506739D01*
X116924011Y-41484817D01*
X116898307Y-41465553D01*
X116855792Y-41408693D01*
X116850766Y-41337875D01*
X116873903Y-41288032D01*
X116875798Y-41285562D01*
X116878468Y-41282083D01*
X116878482Y-41282066D01*
X116938271Y-41204147D01*
X116938272Y-41204145D01*
X116946498Y-41193425D01*
X116951524Y-41186875D01*
X116956194Y-41175602D01*
X117009678Y-41046479D01*
X117012838Y-41038850D01*
X117015923Y-41015421D01*
X117028500Y-40919885D01*
X117028500Y-40919878D01*
X117032672Y-40888188D01*
X117033750Y-40880000D01*
X117029578Y-40848307D01*
X117028500Y-40831864D01*
X117028500Y-40763737D01*
X117048502Y-40695616D01*
X117065405Y-40674642D01*
X117117506Y-40622541D01*
X117160518Y-40549811D01*
X117196234Y-40489419D01*
X117196234Y-40489418D01*
X117200269Y-40482596D01*
X117211058Y-40445462D01*
X117243834Y-40332644D01*
X117245629Y-40326466D01*
X117246135Y-40320047D01*
X117248307Y-40292444D01*
X117248307Y-40292438D01*
X117248500Y-40289989D01*
X117248499Y-39890012D01*
X117245629Y-39853534D01*
X117215266Y-39749025D01*
X117202481Y-39705017D01*
X117202480Y-39705015D01*
X117200269Y-39697404D01*
X117196233Y-39690579D01*
X117196231Y-39690575D01*
X117168769Y-39644139D01*
X117151309Y-39575323D01*
X117168769Y-39515861D01*
X117196231Y-39469425D01*
X117196233Y-39469421D01*
X117200269Y-39462596D01*
X117202869Y-39453649D01*
X117242361Y-39317714D01*
X117245629Y-39306466D01*
X117246135Y-39300047D01*
X117248307Y-39272444D01*
X117248307Y-39272438D01*
X117248500Y-39269989D01*
X117248499Y-38870012D01*
X117245629Y-38833534D01*
X117200269Y-38677404D01*
X117195088Y-38668643D01*
X117194652Y-38666926D01*
X117193085Y-38663304D01*
X117193669Y-38663051D01*
X117177626Y-38599827D01*
X117200140Y-38532495D01*
X117255483Y-38488024D01*
X117303539Y-38478500D01*
X118037042Y-38478500D01*
X118105163Y-38498502D01*
X118151656Y-38552158D01*
X118161760Y-38622432D01*
X118147311Y-38663480D01*
X118147376Y-38663508D01*
X118146976Y-38664431D01*
X118145495Y-38668640D01*
X118144228Y-38670783D01*
X118137981Y-38685217D01*
X118105039Y-38798605D01*
X118105079Y-38812705D01*
X118112349Y-38816000D01*
X119721900Y-38816000D01*
X119735431Y-38812027D01*
X119736566Y-38804129D01*
X119702019Y-38685217D01*
X119695772Y-38670783D01*
X119694505Y-38668640D01*
X119694023Y-38666741D01*
X119692624Y-38663508D01*
X119693146Y-38663282D01*
X119677045Y-38599824D01*
X119699561Y-38532493D01*
X119754905Y-38488023D01*
X119802958Y-38478500D01*
X120675761Y-38478500D01*
X120743882Y-38498502D01*
X120764856Y-38515405D01*
X121354596Y-39105145D01*
X121388622Y-39167457D01*
X121391501Y-39194240D01*
X121391501Y-39309988D01*
X121394371Y-39346466D01*
X121439731Y-39502596D01*
X121443767Y-39509421D01*
X121443769Y-39509425D01*
X121471231Y-39555861D01*
X121488691Y-39624677D01*
X121471231Y-39684139D01*
X121443769Y-39730575D01*
X121443767Y-39730579D01*
X121439731Y-39737404D01*
X121437520Y-39745015D01*
X121437519Y-39745017D01*
X121431711Y-39765009D01*
X121394371Y-39893534D01*
X121393867Y-39899941D01*
X121393866Y-39899945D01*
X121392614Y-39915851D01*
X121391500Y-39930011D01*
X121391501Y-40329988D01*
X121394371Y-40366466D01*
X121417841Y-40447251D01*
X121431741Y-40495093D01*
X121439731Y-40522596D01*
X121443766Y-40529418D01*
X121443766Y-40529419D01*
X121518460Y-40655720D01*
X121522494Y-40662541D01*
X121637459Y-40777506D01*
X121644277Y-40781538D01*
X121644280Y-40781540D01*
X121729374Y-40831864D01*
X121777404Y-40860269D01*
X121785015Y-40862480D01*
X121785017Y-40862481D01*
X121865647Y-40885906D01*
X121933534Y-40905629D01*
X121939941Y-40906133D01*
X121939945Y-40906134D01*
X121967556Y-40908307D01*
X121967562Y-40908307D01*
X121970011Y-40908500D01*
X122219848Y-40908500D01*
X122469988Y-40908499D01*
X122506466Y-40905629D01*
X122634265Y-40868500D01*
X122654983Y-40862481D01*
X122654985Y-40862480D01*
X122662596Y-40860269D01*
X122710627Y-40831864D01*
X122795720Y-40781540D01*
X122795723Y-40781538D01*
X122802541Y-40777506D01*
X122808147Y-40771900D01*
X122814407Y-40767044D01*
X122816057Y-40769172D01*
X122866954Y-40741379D01*
X122893737Y-40738500D01*
X123286263Y-40738500D01*
X123354384Y-40758502D01*
X123365358Y-40767346D01*
X123365593Y-40767044D01*
X123371853Y-40771900D01*
X123377459Y-40777506D01*
X123384277Y-40781538D01*
X123384280Y-40781540D01*
X123469374Y-40831864D01*
X123517404Y-40860269D01*
X123525015Y-40862480D01*
X123525017Y-40862481D01*
X123605647Y-40885906D01*
X123673534Y-40905629D01*
X123679941Y-40906133D01*
X123679945Y-40906134D01*
X123707556Y-40908307D01*
X123707562Y-40908307D01*
X123710011Y-40908500D01*
X123959848Y-40908500D01*
X124209988Y-40908499D01*
X124246466Y-40905629D01*
X124374265Y-40868500D01*
X124394983Y-40862481D01*
X124394985Y-40862480D01*
X124402596Y-40860269D01*
X124422818Y-40848310D01*
X124535724Y-40781538D01*
X124535726Y-40781536D01*
X124542541Y-40777506D01*
X124542706Y-40777786D01*
X124604446Y-40753545D01*
X124674068Y-40767445D01*
X124725124Y-40816779D01*
X124736583Y-40843896D01*
X124740855Y-40858601D01*
X124768966Y-40906134D01*
X124821509Y-40994980D01*
X124821511Y-40994983D01*
X124825547Y-41001807D01*
X124877501Y-41053761D01*
X124911527Y-41116073D01*
X124906462Y-41186888D01*
X124877505Y-41231946D01*
X124644854Y-41464597D01*
X124582544Y-41498621D01*
X124555761Y-41501500D01*
X124464513Y-41501500D01*
X124458061Y-41502872D01*
X124458056Y-41502872D01*
X124371113Y-41521353D01*
X124277712Y-41541206D01*
X124271682Y-41543891D01*
X124271681Y-41543891D01*
X124109278Y-41616197D01*
X124109276Y-41616198D01*
X124103248Y-41618882D01*
X123948747Y-41731134D01*
X123944326Y-41736044D01*
X123944325Y-41736045D01*
X123841550Y-41850189D01*
X123820960Y-41873056D01*
X123817659Y-41878774D01*
X123751247Y-41993803D01*
X123725473Y-42038444D01*
X123666458Y-42220072D01*
X123665768Y-42226633D01*
X123665768Y-42226635D01*
X123661192Y-42270177D01*
X123646496Y-42410000D01*
X123666458Y-42599928D01*
X123725473Y-42781556D01*
X123820960Y-42946944D01*
X123825378Y-42951851D01*
X123825379Y-42951852D01*
X123870265Y-43001703D01*
X123948747Y-43088866D01*
X124103248Y-43201118D01*
X124109276Y-43203802D01*
X124109278Y-43203803D01*
X124228020Y-43256670D01*
X124277712Y-43278794D01*
X124371112Y-43298647D01*
X124458056Y-43317128D01*
X124458061Y-43317128D01*
X124464513Y-43318500D01*
X124655487Y-43318500D01*
X124661940Y-43317128D01*
X124661953Y-43317127D01*
X124739783Y-43300583D01*
X124810573Y-43305984D01*
X124867206Y-43348801D01*
X124891700Y-43415438D01*
X124891980Y-43423829D01*
X124891980Y-44336568D01*
X124891688Y-44345138D01*
X124887755Y-44402832D01*
X124889060Y-44410309D01*
X124889060Y-44410310D01*
X124898741Y-44465779D01*
X124899703Y-44472301D01*
X124907378Y-44535722D01*
X124910061Y-44542823D01*
X124910702Y-44545432D01*
X124915165Y-44561742D01*
X124915930Y-44564278D01*
X124917237Y-44571764D01*
X124940120Y-44623891D01*
X124942922Y-44630275D01*
X124945413Y-44636379D01*
X124967993Y-44696136D01*
X124972297Y-44702399D01*
X124973534Y-44704765D01*
X124981779Y-44719577D01*
X124983112Y-44721831D01*
X124986165Y-44728785D01*
X125017320Y-44769385D01*
X125025059Y-44779471D01*
X125028939Y-44784812D01*
X125060819Y-44831200D01*
X125060824Y-44831205D01*
X125065123Y-44837461D01*
X125070793Y-44842512D01*
X125070794Y-44842514D01*
X125111641Y-44878907D01*
X125116918Y-44883888D01*
X125869596Y-45636567D01*
X125903621Y-45698879D01*
X125906500Y-45725662D01*
X125906500Y-46025610D01*
X125921603Y-46160255D01*
X125923920Y-46166908D01*
X125923920Y-46166909D01*
X125978089Y-46322460D01*
X125981255Y-46331552D01*
X126077374Y-46485376D01*
X126082341Y-46490378D01*
X126084795Y-46493474D01*
X126111432Y-46559284D01*
X126111863Y-46578522D01*
X126111500Y-46581866D01*
X126111500Y-49578134D01*
X126111869Y-49581532D01*
X126111910Y-49582287D01*
X126095621Y-49651389D01*
X126083735Y-49668739D01*
X126081067Y-49672010D01*
X125990503Y-49812537D01*
X125984274Y-49825086D01*
X125927096Y-49982180D01*
X125923803Y-49995795D01*
X125907497Y-50124869D01*
X125907000Y-50132759D01*
X125907000Y-50407885D01*
X125911475Y-50423124D01*
X125912865Y-50424329D01*
X125920548Y-50426000D01*
X126843000Y-50426000D01*
X126911121Y-50446002D01*
X126957614Y-50499658D01*
X126969000Y-50552000D01*
X126969000Y-50808000D01*
X126948998Y-50876121D01*
X126895342Y-50922614D01*
X126843000Y-50934000D01*
X125925115Y-50934000D01*
X125909876Y-50938475D01*
X125908671Y-50939865D01*
X125907000Y-50947548D01*
X125907000Y-51222060D01*
X125907393Y-51229084D01*
X125921308Y-51353145D01*
X125924410Y-51366798D01*
X125961353Y-51472884D01*
X125964867Y-51543794D01*
X125929485Y-51605346D01*
X125877516Y-51635318D01*
X125798214Y-51658358D01*
X125783780Y-51664604D01*
X125656501Y-51739876D01*
X125644074Y-51749516D01*
X125539516Y-51854074D01*
X125529876Y-51866501D01*
X125454604Y-51993780D01*
X125448357Y-52008216D01*
X125413381Y-52128605D01*
X125413421Y-52142705D01*
X125420691Y-52146000D01*
X126463885Y-52146000D01*
X126501929Y-52134829D01*
X126523284Y-52121105D01*
X126558784Y-52116000D01*
X127135020Y-52116000D01*
X127203141Y-52136002D01*
X127249634Y-52189658D01*
X127261020Y-52242000D01*
X127261020Y-52485501D01*
X127241018Y-52553622D01*
X127187362Y-52600115D01*
X127135020Y-52611501D01*
X127100012Y-52611501D01*
X127063534Y-52614371D01*
X127006796Y-52630855D01*
X126944350Y-52648997D01*
X126909197Y-52654000D01*
X126741379Y-52654000D01*
X126677240Y-52636454D01*
X126656420Y-52624141D01*
X126656419Y-52624141D01*
X126649597Y-52620106D01*
X126641986Y-52617895D01*
X126641984Y-52617894D01*
X126563673Y-52595143D01*
X126492254Y-52574394D01*
X126485849Y-52573890D01*
X126485844Y-52573889D01*
X126457940Y-52571693D01*
X126457932Y-52571693D01*
X126455484Y-52571500D01*
X125984516Y-52571500D01*
X125982068Y-52571693D01*
X125982060Y-52571693D01*
X125954156Y-52573889D01*
X125954151Y-52573890D01*
X125947746Y-52574394D01*
X125876327Y-52595143D01*
X125798016Y-52617894D01*
X125798014Y-52617895D01*
X125790403Y-52620106D01*
X125783581Y-52624141D01*
X125783580Y-52624141D01*
X125762760Y-52636454D01*
X125698621Y-52654000D01*
X125426442Y-52654000D01*
X125412911Y-52657973D01*
X125411776Y-52665871D01*
X125448357Y-52791784D01*
X125454605Y-52806222D01*
X125460016Y-52815372D01*
X125477474Y-52884188D01*
X125460015Y-52943647D01*
X125450106Y-52960403D01*
X125447895Y-52968014D01*
X125447894Y-52968016D01*
X125443918Y-52981703D01*
X125404394Y-53117746D01*
X125403890Y-53124151D01*
X125403889Y-53124156D01*
X125401693Y-53152060D01*
X125401500Y-53154516D01*
X125401500Y-53565484D01*
X125401693Y-53567932D01*
X125401693Y-53567940D01*
X125403425Y-53589936D01*
X125404394Y-53602254D01*
X125450106Y-53759597D01*
X125454141Y-53766419D01*
X125454141Y-53766420D01*
X125473277Y-53798777D01*
X125533512Y-53900629D01*
X125576894Y-53944011D01*
X125610920Y-54006323D01*
X125612721Y-54016658D01*
X125621221Y-54081223D01*
X125627162Y-54126351D01*
X125688476Y-54274376D01*
X125693503Y-54280927D01*
X125693504Y-54280929D01*
X125761520Y-54369569D01*
X125761526Y-54369575D01*
X125786013Y-54401487D01*
X125792568Y-54406517D01*
X125811379Y-54420952D01*
X125823770Y-54431819D01*
X126277280Y-54885329D01*
X126311306Y-54947641D01*
X126313797Y-54984309D01*
X126311693Y-55011039D01*
X126311692Y-55011053D01*
X126311500Y-55013498D01*
X126311500Y-55446502D01*
X126311693Y-55448950D01*
X126311693Y-55448958D01*
X126313035Y-55466000D01*
X126314438Y-55483831D01*
X126360855Y-55643601D01*
X126364892Y-55650427D01*
X126441509Y-55779980D01*
X126441511Y-55779983D01*
X126445547Y-55786807D01*
X126563193Y-55904453D01*
X126570017Y-55908489D01*
X126570020Y-55908491D01*
X126629297Y-55943547D01*
X126706399Y-55989145D01*
X126714010Y-55991356D01*
X126714012Y-55991357D01*
X126755617Y-56003444D01*
X126866169Y-56035562D01*
X126872574Y-56036066D01*
X126872579Y-56036067D01*
X126901042Y-56038307D01*
X126901050Y-56038307D01*
X126903498Y-56038500D01*
X128061502Y-56038500D01*
X128063950Y-56038307D01*
X128063958Y-56038307D01*
X128092421Y-56036067D01*
X128092426Y-56036066D01*
X128098831Y-56035562D01*
X128209383Y-56003444D01*
X128250988Y-55991357D01*
X128250990Y-55991356D01*
X128258601Y-55989145D01*
X128401807Y-55904453D01*
X128407416Y-55898844D01*
X128412886Y-55894601D01*
X128478971Y-55868654D01*
X128548594Y-55882555D01*
X128590116Y-55920446D01*
X128602370Y-55926000D01*
X128840158Y-55926000D01*
X128904297Y-55943547D01*
X128981399Y-55989145D01*
X128989010Y-55991356D01*
X128989012Y-55991357D01*
X129030617Y-56003444D01*
X129141169Y-56035562D01*
X129147574Y-56036066D01*
X129147579Y-56036067D01*
X129176042Y-56038307D01*
X129176050Y-56038307D01*
X129178498Y-56038500D01*
X130336502Y-56038500D01*
X130338950Y-56038307D01*
X130338958Y-56038307D01*
X130367421Y-56036067D01*
X130367426Y-56036066D01*
X130373831Y-56035562D01*
X130484383Y-56003444D01*
X130525988Y-55991357D01*
X130525990Y-55991356D01*
X130533601Y-55989145D01*
X130534746Y-55988468D01*
X134053221Y-55988468D01*
X134056405Y-56003444D01*
X134060462Y-56015932D01*
X134134863Y-56183039D01*
X134141429Y-56194411D01*
X134248944Y-56342394D01*
X134257735Y-56352157D01*
X134393672Y-56474554D01*
X134404291Y-56482270D01*
X134562711Y-56573734D01*
X134574700Y-56579072D01*
X134748671Y-56635598D01*
X134761514Y-56638328D01*
X134897838Y-56652656D01*
X134904397Y-56653000D01*
X135177885Y-56653000D01*
X135193124Y-56648525D01*
X135194329Y-56647135D01*
X135196000Y-56639452D01*
X135196000Y-56634885D01*
X135704000Y-56634885D01*
X135708475Y-56650124D01*
X135709865Y-56651329D01*
X135717548Y-56653000D01*
X135995603Y-56653000D01*
X136002162Y-56652656D01*
X136138486Y-56638328D01*
X136151329Y-56635598D01*
X136325300Y-56579072D01*
X136337289Y-56573734D01*
X136495709Y-56482270D01*
X136506328Y-56474554D01*
X136642265Y-56352157D01*
X136651056Y-56342394D01*
X136758571Y-56194412D01*
X136765137Y-56183040D01*
X136839538Y-56015932D01*
X136843595Y-56003444D01*
X136846088Y-55991720D01*
X136845015Y-55977659D01*
X136835059Y-55974000D01*
X135722115Y-55974000D01*
X135706876Y-55978475D01*
X135705671Y-55979865D01*
X135704000Y-55987548D01*
X135704000Y-56634885D01*
X135196000Y-56634885D01*
X135196000Y-55992115D01*
X135191525Y-55976876D01*
X135190135Y-55975671D01*
X135182452Y-55974000D01*
X134068261Y-55974000D01*
X134054730Y-55977973D01*
X134053221Y-55988468D01*
X130534746Y-55988468D01*
X130610703Y-55943547D01*
X130674842Y-55926000D01*
X130906878Y-55926000D01*
X130920409Y-55922027D01*
X130921544Y-55914129D01*
X130880893Y-55774210D01*
X130872872Y-55755674D01*
X130864176Y-55685212D01*
X130872872Y-55655596D01*
X130875111Y-55650423D01*
X130879145Y-55643601D01*
X130925562Y-55483831D01*
X130926966Y-55466000D01*
X130928307Y-55448958D01*
X130928307Y-55448950D01*
X130928500Y-55446502D01*
X130928500Y-55337767D01*
X130948502Y-55269646D01*
X131002158Y-55223153D01*
X131028303Y-55214520D01*
X131102288Y-55198794D01*
X131163237Y-55171658D01*
X131270722Y-55123803D01*
X131270724Y-55123802D01*
X131276752Y-55121118D01*
X131292490Y-55109684D01*
X131407608Y-55026045D01*
X131431253Y-55008866D01*
X131455711Y-54981703D01*
X131554621Y-54871852D01*
X131554622Y-54871851D01*
X131559040Y-54866944D01*
X131654527Y-54701556D01*
X131676260Y-54634669D01*
X133392001Y-54634669D01*
X133392371Y-54641490D01*
X133397895Y-54692352D01*
X133401521Y-54707604D01*
X133446676Y-54828054D01*
X133455214Y-54843649D01*
X133531715Y-54945724D01*
X133544276Y-54958285D01*
X133646351Y-55034786D01*
X133661946Y-55043324D01*
X133782394Y-55088478D01*
X133797649Y-55092105D01*
X133848514Y-55097631D01*
X133855328Y-55098000D01*
X134011614Y-55098000D01*
X134079735Y-55118002D01*
X134126228Y-55171658D01*
X134136332Y-55241932D01*
X134126721Y-55275249D01*
X134060462Y-55424068D01*
X134056405Y-55436556D01*
X134053912Y-55448280D01*
X134054985Y-55462341D01*
X134064941Y-55466000D01*
X136831739Y-55466000D01*
X136845270Y-55462027D01*
X136846779Y-55451532D01*
X136843595Y-55436556D01*
X136839538Y-55424068D01*
X136765137Y-55256961D01*
X136758571Y-55245589D01*
X136651056Y-55097606D01*
X136642265Y-55087843D01*
X136506328Y-54965446D01*
X136495709Y-54957730D01*
X136337289Y-54866266D01*
X136325300Y-54860928D01*
X136151329Y-54804402D01*
X136138486Y-54801672D01*
X136068215Y-54794286D01*
X136002558Y-54767272D01*
X135961929Y-54709051D01*
X135956123Y-54655369D01*
X135957631Y-54641488D01*
X135958000Y-54634672D01*
X135958000Y-54412115D01*
X135953525Y-54396876D01*
X135952135Y-54395671D01*
X135944452Y-54394000D01*
X133410116Y-54394000D01*
X133394877Y-54398475D01*
X133393672Y-54399865D01*
X133392001Y-54407548D01*
X133392001Y-54634669D01*
X131676260Y-54634669D01*
X131713542Y-54519928D01*
X131724874Y-54412115D01*
X131732814Y-54336565D01*
X131733504Y-54330000D01*
X131731154Y-54307644D01*
X131714232Y-54146635D01*
X131714232Y-54146633D01*
X131713542Y-54140072D01*
X131654527Y-53958444D01*
X131621148Y-53900629D01*
X131562343Y-53798777D01*
X131559040Y-53793056D01*
X131545947Y-53778514D01*
X131515229Y-53714507D01*
X131518585Y-53659051D01*
X131526619Y-53631397D01*
X131526579Y-53617295D01*
X131519309Y-53614000D01*
X131421083Y-53614000D01*
X131347022Y-53589936D01*
X131282094Y-53542763D01*
X131282093Y-53542762D01*
X131276752Y-53538882D01*
X131270724Y-53536198D01*
X131270722Y-53536197D01*
X131108319Y-53463891D01*
X131108318Y-53463891D01*
X131102288Y-53461206D01*
X130976233Y-53434412D01*
X130913760Y-53400683D01*
X130879438Y-53338534D01*
X130884166Y-53267695D01*
X130926442Y-53210657D01*
X130979791Y-53187216D01*
X130985842Y-53186111D01*
X130992254Y-53185606D01*
X131107721Y-53152060D01*
X131141984Y-53142106D01*
X131141986Y-53142105D01*
X131149597Y-53139894D01*
X131177240Y-53123546D01*
X131241379Y-53106000D01*
X131513558Y-53106000D01*
X131527089Y-53102027D01*
X131528224Y-53094129D01*
X131491643Y-52968216D01*
X131485395Y-52953778D01*
X131479984Y-52944628D01*
X131462526Y-52875812D01*
X131479985Y-52816353D01*
X131485857Y-52806423D01*
X131489894Y-52799597D01*
X131535606Y-52642254D01*
X131536504Y-52630855D01*
X131538307Y-52607940D01*
X131538307Y-52607932D01*
X131538500Y-52605484D01*
X131538500Y-52194516D01*
X131535606Y-52157746D01*
X131489894Y-52000403D01*
X131406488Y-51859371D01*
X131290629Y-51743512D01*
X131283802Y-51739475D01*
X131282275Y-51738290D01*
X131240708Y-51680734D01*
X131233500Y-51638730D01*
X131233500Y-51610290D01*
X131249659Y-51555402D01*
X131246817Y-51553991D01*
X131249947Y-51547687D01*
X131253765Y-51541762D01*
X131257482Y-51531552D01*
X131313394Y-51377934D01*
X131313394Y-51377933D01*
X131315803Y-51371315D01*
X131333500Y-51231231D01*
X131333500Y-50325660D01*
X131353502Y-50257539D01*
X131370405Y-50236565D01*
X132330905Y-49276065D01*
X132393217Y-49242039D01*
X132464032Y-49247104D01*
X132509095Y-49276065D01*
X132976924Y-49743894D01*
X133010950Y-49806206D01*
X133005885Y-49877021D01*
X132976924Y-49922084D01*
X132769480Y-50129528D01*
X132763215Y-50135382D01*
X132719615Y-50173417D01*
X132699421Y-50202150D01*
X132682872Y-50225697D01*
X132678939Y-50230992D01*
X132639524Y-50281260D01*
X132636401Y-50288176D01*
X132635017Y-50290462D01*
X132626643Y-50305143D01*
X132625378Y-50307503D01*
X132621010Y-50313717D01*
X132618250Y-50320796D01*
X132618249Y-50320798D01*
X132597798Y-50373253D01*
X132595247Y-50379322D01*
X132568955Y-50437551D01*
X132567571Y-50445018D01*
X132566770Y-50447573D01*
X132562141Y-50463826D01*
X132561478Y-50466406D01*
X132558718Y-50473487D01*
X132557727Y-50481018D01*
X132557726Y-50481020D01*
X132550379Y-50536830D01*
X132549348Y-50543337D01*
X132537704Y-50606164D01*
X132538141Y-50613744D01*
X132538141Y-50613745D01*
X132541291Y-50668370D01*
X132541500Y-50675624D01*
X132541500Y-52220110D01*
X132541208Y-52228680D01*
X132538255Y-52272000D01*
X132537275Y-52286374D01*
X132538580Y-52293851D01*
X132538580Y-52293852D01*
X132548261Y-52349321D01*
X132549223Y-52355843D01*
X132556898Y-52419264D01*
X132559581Y-52426365D01*
X132560222Y-52428974D01*
X132564685Y-52445284D01*
X132565450Y-52447820D01*
X132566757Y-52455306D01*
X132574444Y-52472816D01*
X132592442Y-52513817D01*
X132594935Y-52519926D01*
X132613886Y-52570078D01*
X132617513Y-52579678D01*
X132621817Y-52585941D01*
X132623054Y-52588307D01*
X132631299Y-52603119D01*
X132632632Y-52605373D01*
X132635685Y-52612327D01*
X132673149Y-52661149D01*
X132674579Y-52663013D01*
X132678459Y-52668354D01*
X132710339Y-52714742D01*
X132710344Y-52714747D01*
X132714643Y-52721003D01*
X132720313Y-52726054D01*
X132720314Y-52726056D01*
X132761170Y-52762457D01*
X132766446Y-52767438D01*
X133364661Y-53365653D01*
X133397645Y-53424702D01*
X133398255Y-53430316D01*
X133409939Y-53461483D01*
X133415122Y-53532288D01*
X133409939Y-53549943D01*
X133401521Y-53572398D01*
X133397895Y-53587649D01*
X133392369Y-53638514D01*
X133392000Y-53645328D01*
X133392000Y-53867885D01*
X133396475Y-53883124D01*
X133397865Y-53884329D01*
X133405548Y-53886000D01*
X135939884Y-53886000D01*
X135955123Y-53881525D01*
X135956328Y-53880135D01*
X135957999Y-53872452D01*
X135957999Y-53645331D01*
X135957629Y-53638510D01*
X135952105Y-53587648D01*
X135948480Y-53572400D01*
X135940061Y-53549943D01*
X135934878Y-53479136D01*
X135940058Y-53461490D01*
X135951745Y-53430316D01*
X135958500Y-53368134D01*
X135958500Y-52471866D01*
X135951745Y-52409684D01*
X135951793Y-52409679D01*
X135951793Y-52360321D01*
X135951745Y-52360316D01*
X135951793Y-52359874D01*
X135958500Y-52298134D01*
X135958500Y-51501866D01*
X135951745Y-51439684D01*
X135948971Y-51432285D01*
X135948225Y-51429146D01*
X135948225Y-51370854D01*
X135948971Y-51367715D01*
X135951745Y-51360316D01*
X135958500Y-51298134D01*
X135958500Y-50501866D01*
X135951745Y-50439684D01*
X135951793Y-50439679D01*
X135951793Y-50390321D01*
X135951745Y-50390316D01*
X135951793Y-50389874D01*
X135958500Y-50328134D01*
X135958500Y-49431866D01*
X135951745Y-49369684D01*
X135940061Y-49338517D01*
X135934878Y-49267712D01*
X135940061Y-49250057D01*
X135948479Y-49227602D01*
X135952105Y-49212351D01*
X135957631Y-49161486D01*
X135958000Y-49154672D01*
X135958000Y-48932115D01*
X135953525Y-48916876D01*
X135952135Y-48915671D01*
X135944452Y-48914000D01*
X134547000Y-48914000D01*
X134478879Y-48893998D01*
X134432386Y-48840342D01*
X134421000Y-48788000D01*
X134421000Y-48532000D01*
X134441002Y-48463879D01*
X134494658Y-48417386D01*
X134547000Y-48406000D01*
X135939884Y-48406000D01*
X135955123Y-48401525D01*
X135956328Y-48400135D01*
X135957999Y-48392452D01*
X135957999Y-48165331D01*
X135957629Y-48158507D01*
X135956122Y-48144628D01*
X135968652Y-48074746D01*
X136016974Y-48022732D01*
X136068214Y-48005714D01*
X136138486Y-47998328D01*
X136151329Y-47995598D01*
X136325300Y-47939072D01*
X136337289Y-47933734D01*
X136495709Y-47842270D01*
X136506328Y-47834554D01*
X136642265Y-47712157D01*
X136651056Y-47702394D01*
X136758571Y-47554412D01*
X136765137Y-47543040D01*
X136839538Y-47375932D01*
X136843595Y-47363444D01*
X136846088Y-47351720D01*
X136845015Y-47337659D01*
X136835059Y-47334000D01*
X134068261Y-47334000D01*
X134054730Y-47337973D01*
X134053221Y-47348468D01*
X134056405Y-47363444D01*
X134060462Y-47375932D01*
X134126721Y-47524752D01*
X134136155Y-47595119D01*
X134106049Y-47659416D01*
X134045960Y-47697230D01*
X134011614Y-47702001D01*
X133855331Y-47702001D01*
X133848510Y-47702371D01*
X133797648Y-47707895D01*
X133782396Y-47711521D01*
X133661946Y-47756676D01*
X133646351Y-47765214D01*
X133544276Y-47841715D01*
X133531715Y-47854276D01*
X133455210Y-47956356D01*
X133443294Y-47978122D01*
X133393036Y-48028269D01*
X133323646Y-48043283D01*
X133257153Y-48018398D01*
X133243679Y-48006709D01*
X133165405Y-47928435D01*
X133131379Y-47866123D01*
X133128500Y-47839340D01*
X133128500Y-46808280D01*
X134053912Y-46808280D01*
X134054985Y-46822341D01*
X134064941Y-46826000D01*
X135177885Y-46826000D01*
X135193124Y-46821525D01*
X135194329Y-46820135D01*
X135196000Y-46812452D01*
X135196000Y-46807885D01*
X135704000Y-46807885D01*
X135708475Y-46823124D01*
X135709865Y-46824329D01*
X135717548Y-46826000D01*
X136831739Y-46826000D01*
X136845270Y-46822027D01*
X136846779Y-46811532D01*
X136843595Y-46796556D01*
X136839538Y-46784068D01*
X136765137Y-46616961D01*
X136758571Y-46605589D01*
X136651056Y-46457606D01*
X136642265Y-46447843D01*
X136506328Y-46325446D01*
X136495709Y-46317730D01*
X136337289Y-46226266D01*
X136325300Y-46220928D01*
X136151329Y-46164402D01*
X136138486Y-46161672D01*
X136002162Y-46147344D01*
X135995603Y-46147000D01*
X135722115Y-46147000D01*
X135706876Y-46151475D01*
X135705671Y-46152865D01*
X135704000Y-46160548D01*
X135704000Y-46807885D01*
X135196000Y-46807885D01*
X135196000Y-46165115D01*
X135191525Y-46149876D01*
X135190135Y-46148671D01*
X135182452Y-46147000D01*
X134904397Y-46147000D01*
X134897838Y-46147344D01*
X134761514Y-46161672D01*
X134748671Y-46164402D01*
X134574700Y-46220928D01*
X134562711Y-46226266D01*
X134404291Y-46317730D01*
X134393672Y-46325446D01*
X134257735Y-46447843D01*
X134248944Y-46457606D01*
X134141429Y-46605588D01*
X134134863Y-46616960D01*
X134060462Y-46784068D01*
X134056405Y-46796556D01*
X134053912Y-46808280D01*
X133128500Y-46808280D01*
X133128500Y-44288134D01*
X136411500Y-44288134D01*
X136418255Y-44350316D01*
X136469385Y-44486705D01*
X136556739Y-44603261D01*
X136673295Y-44690615D01*
X136809684Y-44741745D01*
X136871866Y-44748500D01*
X137968134Y-44748500D01*
X138030316Y-44741745D01*
X138166705Y-44690615D01*
X138283261Y-44603261D01*
X138370615Y-44486705D01*
X138421745Y-44350316D01*
X138428500Y-44288134D01*
X138428500Y-43191866D01*
X138421745Y-43129684D01*
X138370615Y-42993295D01*
X138365229Y-42986108D01*
X138360921Y-42978240D01*
X138362789Y-42977217D01*
X138342139Y-42921945D01*
X138348255Y-42873117D01*
X138392142Y-42741189D01*
X138392643Y-42727097D01*
X138386454Y-42724000D01*
X136462282Y-42724000D01*
X136448751Y-42727973D01*
X136447601Y-42735975D01*
X136476552Y-42836941D01*
X136481068Y-42848346D01*
X136484480Y-42854985D01*
X136497831Y-42924715D01*
X136477432Y-42977338D01*
X136479079Y-42978240D01*
X136474771Y-42986108D01*
X136469385Y-42993295D01*
X136418255Y-43129684D01*
X136411500Y-43191866D01*
X136411500Y-44288134D01*
X133128500Y-44288134D01*
X133128500Y-41388762D01*
X133128502Y-41388102D01*
X133128806Y-41330000D01*
X133128974Y-41297969D01*
X133120190Y-41261379D01*
X133117622Y-41247105D01*
X133114015Y-41217300D01*
X133114015Y-41217298D01*
X133113102Y-41209758D01*
X133109415Y-41200000D01*
X133101355Y-41178670D01*
X133096701Y-41163543D01*
X133090715Y-41138606D01*
X133090713Y-41138602D01*
X133088942Y-41131223D01*
X133071682Y-41097781D01*
X133065786Y-41084539D01*
X133055173Y-41056451D01*
X133055171Y-41056448D01*
X133052487Y-41049344D01*
X133033655Y-41021944D01*
X133025541Y-41008387D01*
X133010291Y-40978839D01*
X133005300Y-40973118D01*
X133005296Y-40973112D01*
X132985558Y-40950487D01*
X132976664Y-40939021D01*
X132959661Y-40914280D01*
X132959656Y-40914275D01*
X132955357Y-40908019D01*
X132930537Y-40885905D01*
X132919412Y-40874662D01*
X132902557Y-40855341D01*
X132902553Y-40855338D01*
X132897561Y-40849615D01*
X132891347Y-40845247D01*
X132891344Y-40845245D01*
X132866778Y-40827979D01*
X132855414Y-40818972D01*
X132843614Y-40808459D01*
X132827321Y-40793943D01*
X132820612Y-40790391D01*
X132820608Y-40790388D01*
X132797946Y-40778389D01*
X132784459Y-40770124D01*
X132763481Y-40755381D01*
X132763478Y-40755379D01*
X132757261Y-40751010D01*
X132750180Y-40748249D01*
X132750176Y-40748247D01*
X132722210Y-40737343D01*
X132709023Y-40731306D01*
X132682482Y-40717254D01*
X132682480Y-40717253D01*
X132675769Y-40713700D01*
X132668409Y-40711851D01*
X132668403Y-40711849D01*
X132643534Y-40705603D01*
X132628457Y-40700791D01*
X132604573Y-40691479D01*
X132604572Y-40691479D01*
X132597491Y-40688718D01*
X132589961Y-40687727D01*
X132589958Y-40687726D01*
X132560193Y-40683808D01*
X132545941Y-40681090D01*
X132537027Y-40678851D01*
X132509451Y-40671924D01*
X132501853Y-40671884D01*
X132501852Y-40671884D01*
X132495239Y-40671849D01*
X132469324Y-40671713D01*
X132467965Y-40671665D01*
X132466706Y-40671500D01*
X132428762Y-40671500D01*
X132428102Y-40671498D01*
X132342372Y-40671049D01*
X132342371Y-40671049D01*
X132337969Y-40671026D01*
X132336452Y-40671390D01*
X132334550Y-40671500D01*
X129073912Y-40671500D01*
X129065342Y-40671208D01*
X129015224Y-40667791D01*
X129015220Y-40667791D01*
X129007648Y-40667275D01*
X129000171Y-40668580D01*
X129000170Y-40668580D01*
X128981239Y-40671884D01*
X128944697Y-40678262D01*
X128938179Y-40679223D01*
X128874758Y-40686898D01*
X128867657Y-40689581D01*
X128865048Y-40690222D01*
X128848738Y-40694685D01*
X128846202Y-40695450D01*
X128838716Y-40696757D01*
X128800120Y-40713700D01*
X128780205Y-40722442D01*
X128774101Y-40724933D01*
X128714344Y-40747513D01*
X128708081Y-40751817D01*
X128705715Y-40753054D01*
X128690903Y-40761299D01*
X128688649Y-40762632D01*
X128681695Y-40765685D01*
X128630998Y-40804587D01*
X128625668Y-40808459D01*
X128579280Y-40840339D01*
X128579275Y-40840344D01*
X128573019Y-40844643D01*
X128567968Y-40850313D01*
X128567966Y-40850314D01*
X128531565Y-40891170D01*
X128526584Y-40896446D01*
X128276389Y-41146641D01*
X128214077Y-41180667D01*
X128143262Y-41175602D01*
X128086426Y-41133055D01*
X128061615Y-41066535D01*
X128078840Y-40993407D01*
X128154648Y-40865221D01*
X128160893Y-40850790D01*
X128203269Y-40704935D01*
X128205570Y-40692333D01*
X128207807Y-40663916D01*
X128208000Y-40658986D01*
X128208000Y-40279615D01*
X128203525Y-40264376D01*
X128202135Y-40263171D01*
X128194452Y-40261500D01*
X127272000Y-40261500D01*
X127203879Y-40241498D01*
X127157386Y-40187842D01*
X127146000Y-40135500D01*
X127146000Y-39735385D01*
X127654000Y-39735385D01*
X127658475Y-39750624D01*
X127659865Y-39751829D01*
X127667548Y-39753500D01*
X128189884Y-39753500D01*
X128205123Y-39749025D01*
X128206328Y-39747635D01*
X128207999Y-39739952D01*
X128207999Y-39356017D01*
X128207805Y-39351080D01*
X128205570Y-39322664D01*
X128203270Y-39310069D01*
X128160893Y-39164210D01*
X128154648Y-39149779D01*
X128078089Y-39020322D01*
X128068449Y-39007896D01*
X127962104Y-38901551D01*
X127949678Y-38891911D01*
X127820221Y-38815352D01*
X127805790Y-38809107D01*
X127671395Y-38770061D01*
X127657294Y-38770101D01*
X127654000Y-38777370D01*
X127654000Y-39735385D01*
X127146000Y-39735385D01*
X127146000Y-39124842D01*
X127163547Y-39060703D01*
X127194777Y-39007896D01*
X127209145Y-38983601D01*
X127211948Y-38973955D01*
X127237932Y-38884513D01*
X127255562Y-38823831D01*
X127256179Y-38816000D01*
X127258307Y-38788958D01*
X127258307Y-38788950D01*
X127258500Y-38786502D01*
X127258500Y-37764500D01*
X127278502Y-37696379D01*
X127332158Y-37649886D01*
X127384500Y-37638500D01*
X136347121Y-37638500D01*
X136415242Y-37658502D01*
G37*
%TD.AperFunction*%
%TA.AperFunction,Conductor*%
G36*
X107868191Y-61831003D02*
G01*
X107918534Y-61845629D01*
X107924941Y-61846133D01*
X107924945Y-61846134D01*
X107952556Y-61848307D01*
X107952562Y-61848307D01*
X107955011Y-61848500D01*
X107962254Y-61848500D01*
X108237738Y-61848499D01*
X108305857Y-61868501D01*
X108352350Y-61922156D01*
X108363047Y-61987669D01*
X108359628Y-62020198D01*
X108356496Y-62050000D01*
X108357186Y-62056565D01*
X108375611Y-62231866D01*
X108376458Y-62239928D01*
X108378499Y-62246210D01*
X108378500Y-62246214D01*
X108386501Y-62270838D01*
X108392280Y-62299890D01*
X108394371Y-62326466D01*
X108439731Y-62482596D01*
X108443766Y-62489419D01*
X108446914Y-62496692D01*
X108444768Y-62497621D01*
X108459000Y-62549647D01*
X108459000Y-62849566D01*
X108463344Y-62864361D01*
X108475003Y-62866421D01*
X108484977Y-62865637D01*
X108497564Y-62863338D01*
X108639783Y-62822019D01*
X108661496Y-62812623D01*
X108662848Y-62815748D01*
X108716553Y-62802062D01*
X108762274Y-62815463D01*
X108763303Y-62813085D01*
X108770583Y-62816235D01*
X108777404Y-62820269D01*
X108781872Y-62821567D01*
X108802648Y-62833417D01*
X108813248Y-62841118D01*
X108846919Y-62856109D01*
X108973468Y-62912452D01*
X108987712Y-62918794D01*
X109081112Y-62938647D01*
X109168056Y-62957128D01*
X109168061Y-62957128D01*
X109174513Y-62958500D01*
X109365487Y-62958500D01*
X109371939Y-62957128D01*
X109371944Y-62957128D01*
X109458888Y-62938647D01*
X109552288Y-62918794D01*
X109566533Y-62912452D01*
X109693081Y-62856109D01*
X109726752Y-62841118D01*
X109727388Y-62840656D01*
X109794286Y-62824427D01*
X109823444Y-62829287D01*
X109948534Y-62865629D01*
X109954941Y-62866133D01*
X109954945Y-62866134D01*
X109982556Y-62868307D01*
X109982562Y-62868307D01*
X109985011Y-62868500D01*
X110177413Y-62868500D01*
X110251472Y-62892563D01*
X110257902Y-62897235D01*
X110257909Y-62897239D01*
X110263248Y-62901118D01*
X110269276Y-62903802D01*
X110269278Y-62903803D01*
X110437712Y-62978794D01*
X110437054Y-62980271D01*
X110488927Y-63015742D01*
X110516563Y-63081139D01*
X110504455Y-63151095D01*
X110456449Y-63203401D01*
X110391384Y-63221500D01*
X106415166Y-63221500D01*
X106347045Y-63201498D01*
X106300552Y-63147842D01*
X106290448Y-63077568D01*
X106319942Y-63012988D01*
X106379668Y-62974604D01*
X106388969Y-62972253D01*
X106394843Y-62971004D01*
X106452288Y-62958794D01*
X106513522Y-62931531D01*
X106620722Y-62883803D01*
X106620724Y-62883802D01*
X106626752Y-62881118D01*
X106644121Y-62868499D01*
X106678556Y-62843480D01*
X106745424Y-62819622D01*
X106787770Y-62824419D01*
X106921641Y-62863312D01*
X106929609Y-62864768D01*
X106943031Y-62861948D01*
X106946000Y-62850487D01*
X106946000Y-62848424D01*
X107454000Y-62848424D01*
X107458344Y-62863219D01*
X107468775Y-62865063D01*
X107478359Y-62863312D01*
X107621784Y-62821643D01*
X107643497Y-62812247D01*
X107644621Y-62814845D01*
X107700348Y-62800701D01*
X107747658Y-62814589D01*
X107748508Y-62812624D01*
X107770217Y-62822019D01*
X107912436Y-62863338D01*
X107925023Y-62865637D01*
X107932943Y-62866260D01*
X107948030Y-62863090D01*
X107951000Y-62851626D01*
X107951000Y-62362115D01*
X107946525Y-62346876D01*
X107945135Y-62345671D01*
X107937452Y-62344000D01*
X107472115Y-62344000D01*
X107456876Y-62348475D01*
X107455671Y-62349865D01*
X107454000Y-62357548D01*
X107454000Y-62848424D01*
X106946000Y-62848424D01*
X106946000Y-62596689D01*
X106962881Y-62533689D01*
X107001223Y-62467279D01*
X107001224Y-62467278D01*
X107004527Y-62461556D01*
X107063542Y-62279928D01*
X107064498Y-62270838D01*
X107082814Y-62096565D01*
X107083504Y-62090000D01*
X107079055Y-62047670D01*
X107091827Y-61977832D01*
X107140329Y-61925985D01*
X107204365Y-61908500D01*
X107435484Y-61908500D01*
X107437932Y-61908307D01*
X107437940Y-61908307D01*
X107465844Y-61906111D01*
X107465849Y-61906110D01*
X107472254Y-61905606D01*
X107597672Y-61869169D01*
X107621984Y-61862106D01*
X107621986Y-61862105D01*
X107629597Y-61859894D01*
X107657240Y-61843546D01*
X107721379Y-61826000D01*
X107833038Y-61826000D01*
X107868191Y-61831003D01*
G37*
%TD.AperFunction*%
%TA.AperFunction,Conductor*%
G36*
X115175218Y-52779497D02*
G01*
X115232054Y-52822044D01*
X115256865Y-52888564D01*
X115257076Y-52894479D01*
X115256496Y-52900000D01*
X115257186Y-52906565D01*
X115264200Y-52973295D01*
X115276458Y-53089928D01*
X115335473Y-53271556D01*
X115430960Y-53436944D01*
X115435378Y-53441851D01*
X115435379Y-53441852D01*
X115453053Y-53461481D01*
X115558747Y-53578866D01*
X115713248Y-53691118D01*
X115719276Y-53693802D01*
X115719278Y-53693803D01*
X115867055Y-53759597D01*
X115887712Y-53768794D01*
X115978765Y-53788148D01*
X116068056Y-53807128D01*
X116068061Y-53807128D01*
X116074513Y-53808500D01*
X116265487Y-53808500D01*
X116271939Y-53807128D01*
X116271944Y-53807128D01*
X116361235Y-53788148D01*
X116452288Y-53768794D01*
X116458315Y-53766111D01*
X116458323Y-53766108D01*
X116534252Y-53732302D01*
X116604619Y-53722868D01*
X116668916Y-53752975D01*
X116706729Y-53813064D01*
X116711500Y-53847409D01*
X116711500Y-54667603D01*
X116691498Y-54735724D01*
X116637842Y-54782217D01*
X116572332Y-54792913D01*
X116571942Y-54792872D01*
X116565487Y-54791500D01*
X116374513Y-54791500D01*
X116368061Y-54792872D01*
X116368056Y-54792872D01*
X116291500Y-54809145D01*
X116187712Y-54831206D01*
X116181682Y-54833891D01*
X116181681Y-54833891D01*
X116019278Y-54906197D01*
X116019276Y-54906198D01*
X116013248Y-54908882D01*
X115858747Y-55021134D01*
X115854326Y-55026044D01*
X115854325Y-55026045D01*
X115766304Y-55123803D01*
X115730960Y-55163056D01*
X115635473Y-55328444D01*
X115576458Y-55510072D01*
X115575768Y-55516633D01*
X115575768Y-55516635D01*
X115563224Y-55635988D01*
X115556496Y-55700000D01*
X115557186Y-55706565D01*
X115564489Y-55776045D01*
X115576458Y-55889928D01*
X115635473Y-56071556D01*
X115730960Y-56236944D01*
X115735378Y-56241851D01*
X115735379Y-56241852D01*
X115833827Y-56351190D01*
X115864545Y-56415197D01*
X115855780Y-56485651D01*
X115810317Y-56540182D01*
X115740191Y-56561500D01*
X115541866Y-56561500D01*
X115479684Y-56568255D01*
X115343295Y-56619385D01*
X115226739Y-56706739D01*
X115190824Y-56754660D01*
X115133967Y-56797173D01*
X115063149Y-56802199D01*
X115000855Y-56768139D01*
X114989183Y-56754670D01*
X114953261Y-56706739D01*
X114836705Y-56619385D01*
X114837502Y-56618322D01*
X114793845Y-56574567D01*
X114778500Y-56514305D01*
X114778500Y-53124239D01*
X114798502Y-53056118D01*
X114815405Y-53035144D01*
X115042091Y-52808458D01*
X115104403Y-52774432D01*
X115175218Y-52779497D01*
G37*
%TD.AperFunction*%
%TA.AperFunction,Conductor*%
G36*
X129757666Y-52166002D02*
G01*
X129804159Y-52219658D01*
X129813668Y-52250336D01*
X129817449Y-52272000D01*
X129823261Y-52305300D01*
X129824223Y-52311821D01*
X129831898Y-52375242D01*
X129834581Y-52382343D01*
X129835222Y-52384952D01*
X129839685Y-52401263D01*
X129840451Y-52403800D01*
X129841757Y-52411284D01*
X129842068Y-52411993D01*
X129842585Y-52480079D01*
X129804656Y-52540095D01*
X129740301Y-52570078D01*
X129721423Y-52571500D01*
X129364516Y-52571500D01*
X129362068Y-52571693D01*
X129362060Y-52571693D01*
X129334156Y-52573889D01*
X129334151Y-52573890D01*
X129327746Y-52574394D01*
X129256327Y-52595143D01*
X129178016Y-52617894D01*
X129178014Y-52617895D01*
X129170403Y-52620106D01*
X129163581Y-52624141D01*
X129163580Y-52624141D01*
X129142760Y-52636454D01*
X129078621Y-52654000D01*
X129001379Y-52654000D01*
X128937240Y-52636454D01*
X128916420Y-52624141D01*
X128916419Y-52624141D01*
X128909597Y-52620106D01*
X128901986Y-52617895D01*
X128901984Y-52617894D01*
X128823673Y-52595143D01*
X128752254Y-52574394D01*
X128745849Y-52573890D01*
X128745844Y-52573889D01*
X128717940Y-52571693D01*
X128717932Y-52571693D01*
X128715484Y-52571500D01*
X128604020Y-52571500D01*
X128535899Y-52551498D01*
X128489406Y-52497842D01*
X128478020Y-52445500D01*
X128478020Y-52272000D01*
X128498022Y-52203879D01*
X128551678Y-52157386D01*
X128604020Y-52146000D01*
X129689545Y-52146000D01*
X129757666Y-52166002D01*
G37*
%TD.AperFunction*%
%TA.AperFunction,Conductor*%
G36*
X131653621Y-42108502D02*
G01*
X131700114Y-42162158D01*
X131711500Y-42214500D01*
X131711500Y-42245500D01*
X131691498Y-42313621D01*
X131637842Y-42360114D01*
X131585500Y-42371500D01*
X131524513Y-42371500D01*
X131518061Y-42372872D01*
X131518056Y-42372872D01*
X131490197Y-42378794D01*
X131419406Y-42373392D01*
X131362773Y-42330575D01*
X131338280Y-42263937D01*
X131338000Y-42255547D01*
X131338000Y-42214500D01*
X131358002Y-42146379D01*
X131411658Y-42099886D01*
X131464000Y-42088500D01*
X131585500Y-42088500D01*
X131653621Y-42108502D01*
G37*
%TD.AperFunction*%
%TD*%
M02*
