%TF.GenerationSoftware,KiCad,Pcbnew,(6.0.0)*%
%TF.CreationDate,2022-02-08T22:33:11+08:00*%
%TF.ProjectId,screen,73637265-656e-42e6-9b69-6361645f7063,rev?*%
%TF.SameCoordinates,Original*%
%TF.FileFunction,Copper,L1,Top*%
%TF.FilePolarity,Positive*%
%FSLAX46Y46*%
G04 Gerber Fmt 4.6, Leading zero omitted, Abs format (unit mm)*
G04 Created by KiCad (PCBNEW (6.0.0)) date 2022-02-08 22:33:11*
%MOMM*%
%LPD*%
G01*
G04 APERTURE LIST*
G04 Aperture macros list*
%AMRoundRect*
0 Rectangle with rounded corners*
0 $1 Rounding radius*
0 $2 $3 $4 $5 $6 $7 $8 $9 X,Y pos of 4 corners*
0 Add a 4 corners polygon primitive as box body*
4,1,4,$2,$3,$4,$5,$6,$7,$8,$9,$2,$3,0*
0 Add four circle primitives for the rounded corners*
1,1,$1+$1,$2,$3*
1,1,$1+$1,$4,$5*
1,1,$1+$1,$6,$7*
1,1,$1+$1,$8,$9*
0 Add four rect primitives between the rounded corners*
20,1,$1+$1,$2,$3,$4,$5,0*
20,1,$1+$1,$4,$5,$6,$7,0*
20,1,$1+$1,$6,$7,$8,$9,0*
20,1,$1+$1,$8,$9,$2,$3,0*%
G04 Aperture macros list end*
%TA.AperFunction,SMDPad,CuDef*%
%ADD10R,1.550000X0.700000*%
%TD*%
%TA.AperFunction,SMDPad,CuDef*%
%ADD11R,1.550000X0.800000*%
%TD*%
%TA.AperFunction,SMDPad,CuDef*%
%ADD12R,1.550000X0.900000*%
%TD*%
%TA.AperFunction,ComponentPad*%
%ADD13O,1.850000X0.850000*%
%TD*%
%TA.AperFunction,SMDPad,CuDef*%
%ADD14RoundRect,0.140000X0.170000X-0.140000X0.170000X0.140000X-0.170000X0.140000X-0.170000X-0.140000X0*%
%TD*%
%TA.AperFunction,SMDPad,CuDef*%
%ADD15RoundRect,0.135000X0.185000X-0.135000X0.185000X0.135000X-0.185000X0.135000X-0.185000X-0.135000X0*%
%TD*%
%TA.AperFunction,SMDPad,CuDef*%
%ADD16R,4.000000X2.900000*%
%TD*%
%TA.AperFunction,SMDPad,CuDef*%
%ADD17O,0.600000X1.600000*%
%TD*%
%TA.AperFunction,SMDPad,CuDef*%
%ADD18RoundRect,0.135000X-0.185000X0.135000X-0.185000X-0.135000X0.185000X-0.135000X0.185000X0.135000X0*%
%TD*%
%TA.AperFunction,ComponentPad*%
%ADD19R,1.000000X1.000000*%
%TD*%
%TA.AperFunction,ComponentPad*%
%ADD20O,1.000000X1.000000*%
%TD*%
%TA.AperFunction,SMDPad,CuDef*%
%ADD21RoundRect,0.147500X0.172500X-0.147500X0.172500X0.147500X-0.172500X0.147500X-0.172500X-0.147500X0*%
%TD*%
%TA.AperFunction,SMDPad,CuDef*%
%ADD22R,1.800000X2.600000*%
%TD*%
%TA.AperFunction,SMDPad,CuDef*%
%ADD23R,1.000000X0.800000*%
%TD*%
%TA.AperFunction,SMDPad,CuDef*%
%ADD24R,0.700000X1.500000*%
%TD*%
%TA.AperFunction,ComponentPad*%
%ADD25R,1.700000X1.700000*%
%TD*%
%TA.AperFunction,ComponentPad*%
%ADD26O,1.700000X1.700000*%
%TD*%
%TA.AperFunction,BGAPad,CuDef*%
%ADD27R,1.350000X1.800000*%
%TD*%
%TA.AperFunction,SMDPad,CuDef*%
%ADD28R,1.000000X2.500000*%
%TD*%
%TA.AperFunction,SMDPad,CuDef*%
%ADD29R,1.800000X1.000000*%
%TD*%
%TA.AperFunction,SMDPad,CuDef*%
%ADD30RoundRect,0.150000X0.512500X0.150000X-0.512500X0.150000X-0.512500X-0.150000X0.512500X-0.150000X0*%
%TD*%
%TA.AperFunction,SMDPad,CuDef*%
%ADD31RoundRect,0.147500X-0.172500X0.147500X-0.172500X-0.147500X0.172500X-0.147500X0.172500X0.147500X0*%
%TD*%
%TA.AperFunction,ViaPad*%
%ADD32C,0.800000*%
%TD*%
%TA.AperFunction,Conductor*%
%ADD33C,0.400000*%
%TD*%
%TA.AperFunction,Conductor*%
%ADD34C,0.200000*%
%TD*%
%TA.AperFunction,Conductor*%
%ADD35C,0.600000*%
%TD*%
G04 APERTURE END LIST*
D10*
%TO.P,J1,A5,CC1*%
%TO.N,unconnected-(J1-PadA5)*%
X134675000Y-51950000D03*
D11*
%TO.P,J1,A9,VBUS*%
%TO.N,Net-(C2-Pad2)*%
X134675000Y-49930000D03*
D12*
%TO.P,J1,A12,GND*%
%TO.N,GND*%
X134675000Y-48710000D03*
D10*
%TO.P,J1,B5,CC2*%
%TO.N,unconnected-(J1-PadB5)*%
X134675000Y-50950000D03*
D11*
%TO.P,J1,B9,VBUS*%
%TO.N,Net-(C2-Pad2)*%
X134675000Y-52970000D03*
D12*
%TO.P,J1,B12,GND*%
%TO.N,GND*%
X134675000Y-54190000D03*
D13*
%TO.P,J1,GND*%
%TO.N,N/C*%
X135450000Y-47130000D03*
X135450000Y-55770000D03*
%TD*%
D14*
%TO.P,C7,1*%
%TO.N,+3V3*%
X129600000Y-53360000D03*
%TO.P,C7,2*%
%TO.N,GND*%
X129600000Y-52400000D03*
%TD*%
D15*
%TO.P,R14,1*%
%TO.N,Net-(D3-Pad2)*%
X128375000Y-43070000D03*
%TO.P,R14,2*%
%TO.N,Net-(C2-Pad2)*%
X128375000Y-42050000D03*
%TD*%
D16*
%TO.P,U2,0*%
%TO.N,N/C*%
X128620000Y-48080000D03*
D17*
%TO.P,U2,1,TEMP*%
%TO.N,GND*%
X126715000Y-50680000D03*
%TO.P,U2,2,PROG*%
%TO.N,Net-(R3-Pad1)*%
X127985000Y-50680000D03*
%TO.P,U2,3,GND*%
%TO.N,GND*%
X129255000Y-50680000D03*
%TO.P,U2,4,VCC*%
%TO.N,Net-(C2-Pad2)*%
X130525000Y-50680000D03*
%TO.P,U2,5,BAT*%
%TO.N,+BATT*%
X130525000Y-45480000D03*
%TO.P,U2,6,~{STDBY}*%
%TO.N,Net-(D3-Pad1)*%
X129255000Y-45480000D03*
%TO.P,U2,7,~{CHRG}*%
%TO.N,Net-(D1-Pad1)*%
X127985000Y-45480000D03*
%TO.P,U2,8,CE*%
%TO.N,Net-(C2-Pad2)*%
X126715000Y-45480000D03*
%TD*%
D18*
%TO.P,R7,1*%
%TO.N,/nRST*%
X106195000Y-61070000D03*
%TO.P,R7,2*%
%TO.N,+3V3*%
X106195000Y-62090000D03*
%TD*%
D19*
%TO.P,J2,1,Pin_1*%
%TO.N,+3V3*%
X137420000Y-43740000D03*
D20*
%TO.P,J2,2,Pin_2*%
%TO.N,GND*%
X137420000Y-42470000D03*
%TO.P,J2,3,Pin_3*%
%TO.N,/nRST*%
X137420000Y-41200000D03*
%TO.P,J2,4,Pin_4*%
%TO.N,/GPIO0*%
X137420000Y-39930000D03*
%TO.P,J2,5,Pin_5*%
%TO.N,/TXD*%
X137420000Y-38660000D03*
%TO.P,J2,6,Pin_6*%
%TO.N,/RXD*%
X137420000Y-37390000D03*
%TD*%
D21*
%TO.P,D2,1,K*%
%TO.N,Net-(D3-Pad1)*%
X134770000Y-64865000D03*
%TO.P,D2,2,A*%
%TO.N,Net-(D3-Pad2)*%
X134770000Y-63895000D03*
%TD*%
D14*
%TO.P,C6,1*%
%TO.N,+BATT*%
X130520000Y-43040000D03*
%TO.P,C6,2*%
%TO.N,GND*%
X130520000Y-42080000D03*
%TD*%
%TO.P,C2,1*%
%TO.N,Net-(C8-Pad1)*%
X126220000Y-53360000D03*
%TO.P,C2,2*%
%TO.N,GND*%
X126220000Y-52400000D03*
%TD*%
D21*
%TO.P,D3,1,K*%
%TO.N,Net-(D1-Pad1)*%
X133395000Y-64865000D03*
%TO.P,D3,2,A*%
%TO.N,Net-(D1-Pad2)*%
X133395000Y-63895000D03*
%TD*%
D14*
%TO.P,C5,1*%
%TO.N,GND*%
X130720000Y-53360000D03*
%TO.P,C5,2*%
%TO.N,Net-(C2-Pad2)*%
X130720000Y-52400000D03*
%TD*%
D15*
%TO.P,R4,1*%
%TO.N,/GPIO0*%
X111420000Y-40090000D03*
%TO.P,R4,2*%
%TO.N,Net-(R15-Pad2)*%
X111420000Y-39070000D03*
%TD*%
%TO.P,R9,1*%
%TO.N,Net-(D1-Pad2)*%
X126220000Y-43070000D03*
%TO.P,R9,2*%
%TO.N,Net-(C2-Pad2)*%
X126220000Y-42050000D03*
%TD*%
%TO.P,R10,1*%
%TO.N,+3V3*%
X111250000Y-62090000D03*
%TO.P,R10,2*%
%TO.N,Net-(D2-Pad2)*%
X111250000Y-61070000D03*
%TD*%
%TO.P,R2,1*%
%TO.N,/GPIO0*%
X113920000Y-40090000D03*
%TO.P,R2,2*%
%TO.N,+3V3*%
X113920000Y-39070000D03*
%TD*%
D22*
%TO.P,C3,1*%
%TO.N,+3V3*%
X119720000Y-61580000D03*
%TO.P,C3,2*%
%TO.N,GND*%
X116720000Y-61580000D03*
%TD*%
D15*
%TO.P,R5,1*%
%TO.N,Net-(R3-Pad1)*%
X127350000Y-53390000D03*
%TO.P,R5,2*%
%TO.N,GND*%
X127350000Y-52370000D03*
%TD*%
D23*
%TO.P,SW3,*%
%TO.N,*%
X131470000Y-63510000D03*
X131470000Y-61300000D03*
X124170000Y-63510000D03*
X124170000Y-61300000D03*
D24*
%TO.P,SW3,1,A*%
%TO.N,+BATT*%
X125570000Y-60650000D03*
%TO.P,SW3,2,B*%
%TO.N,Net-(C7-Pad1)*%
X128570000Y-60650000D03*
%TO.P,SW3,3,C*%
%TO.N,unconnected-(SW1-Pad3)*%
X130070000Y-60650000D03*
%TD*%
D18*
%TO.P,R12,1*%
%TO.N,/EN*%
X110235000Y-61070000D03*
%TO.P,R12,2*%
%TO.N,+3V3*%
X110235000Y-62090000D03*
%TD*%
D25*
%TO.P,J3,1,Pin_1*%
%TO.N,+BATT*%
X137170000Y-62880000D03*
D26*
%TO.P,J3,2,Pin_2*%
%TO.N,GND*%
X137170000Y-60340000D03*
%TD*%
D27*
%TO.P,SW1,1,1*%
%TO.N,Net-(R15-Pad2)*%
X103495000Y-38280000D03*
%TO.P,SW1,2,2*%
%TO.N,GND*%
X99345000Y-38280000D03*
%TD*%
D28*
%TO.P,U1,1,~{RST}*%
%TO.N,/nRST*%
X106170000Y-58280000D03*
%TO.P,U1,2,ADC*%
%TO.N,/ADC*%
X108170000Y-58280000D03*
%TO.P,U1,3,EN*%
%TO.N,/EN*%
X110170000Y-58280000D03*
%TO.P,U1,4,GPIO16*%
%TO.N,/GPIO16*%
X112170000Y-58280000D03*
%TO.P,U1,5,GPIO14*%
%TO.N,/GPIO14*%
X114170000Y-58280000D03*
%TO.P,U1,6,GPIO12*%
%TO.N,/GPIO12*%
X116170000Y-58280000D03*
%TO.P,U1,7,GPIO13*%
%TO.N,/GPIO13*%
X118170000Y-58280000D03*
%TO.P,U1,8,VCC*%
%TO.N,+3V3*%
X120170000Y-58280000D03*
D29*
%TO.P,U1,9,CS0*%
%TO.N,unconnected-(U4-Pad9)*%
X121670000Y-55680000D03*
%TO.P,U1,10,MISO*%
%TO.N,unconnected-(U4-Pad10)*%
X121670000Y-53680000D03*
%TO.P,U1,11,GPIO9*%
%TO.N,unconnected-(U4-Pad11)*%
X121670000Y-51680000D03*
%TO.P,U1,12,GPIO10*%
%TO.N,unconnected-(U4-Pad12)*%
X121670000Y-49680000D03*
%TO.P,U1,13,MOSI*%
%TO.N,unconnected-(U4-Pad13)*%
X121670000Y-47680000D03*
%TO.P,U1,14,SCLK*%
%TO.N,unconnected-(U4-Pad14)*%
X121670000Y-45680000D03*
D28*
%TO.P,U1,15,GND*%
%TO.N,GND*%
X120170000Y-43080000D03*
%TO.P,U1,16,GPIO15*%
%TO.N,/GPIO15*%
X118170000Y-43080000D03*
%TO.P,U1,17,GPIO2*%
%TO.N,/GPIO2*%
X116170000Y-43080000D03*
%TO.P,U1,18,GPIO0*%
%TO.N,/GPIO0*%
X114170000Y-43080000D03*
%TO.P,U1,19,GPIO4*%
%TO.N,/GPIO4*%
X112170000Y-43080000D03*
%TO.P,U1,20,GPIO5*%
%TO.N,/GPIO5*%
X110170000Y-43080000D03*
%TO.P,U1,21,GPIO3/RXD*%
%TO.N,/RXD*%
X108170000Y-43080000D03*
%TO.P,U1,22,GPIO1/TXD*%
%TO.N,/TXD*%
X106170000Y-43080000D03*
%TD*%
D15*
%TO.P,R3,1*%
%TO.N,/GPIO2*%
X116420000Y-40090000D03*
%TO.P,R3,2*%
%TO.N,+3V3*%
X116420000Y-39070000D03*
%TD*%
D18*
%TO.P,R13,1*%
%TO.N,/ADC*%
X109220000Y-61070000D03*
%TO.P,R13,2*%
%TO.N,+BATT*%
X109220000Y-62090000D03*
%TD*%
D27*
%TO.P,SW2,1,1*%
%TO.N,Net-(R13-Pad2)*%
X103495000Y-63180000D03*
%TO.P,SW2,2,2*%
%TO.N,GND*%
X99345000Y-63180000D03*
%TD*%
D15*
%TO.P,R1,1*%
%TO.N,/GPIO15*%
X118920000Y-40090000D03*
%TO.P,R1,2*%
%TO.N,GND*%
X118920000Y-39070000D03*
%TD*%
D30*
%TO.P,U3,1,IN*%
%TO.N,+BATT*%
X129757500Y-57130000D03*
%TO.P,U3,2,GND*%
%TO.N,GND*%
X129757500Y-56180000D03*
%TO.P,U3,3,EN*%
%TO.N,Net-(C7-Pad1)*%
X129757500Y-55230000D03*
%TO.P,U3,4,BP*%
%TO.N,Net-(C8-Pad1)*%
X127482500Y-55230000D03*
%TO.P,U3,5,OUT*%
%TO.N,+3V3*%
X127482500Y-57130000D03*
%TD*%
D14*
%TO.P,C4,1*%
%TO.N,Net-(C7-Pad1)*%
X128480000Y-53360000D03*
%TO.P,C4,2*%
%TO.N,GND*%
X128480000Y-52400000D03*
%TD*%
D18*
%TO.P,R6,1*%
%TO.N,/GPIO16*%
X113280000Y-61070000D03*
%TO.P,R6,2*%
%TO.N,Net-(R13-Pad2)*%
X113280000Y-62090000D03*
%TD*%
D31*
%TO.P,D1,1,K*%
%TO.N,/GPIO16*%
X112265000Y-61095000D03*
%TO.P,D1,2,A*%
%TO.N,Net-(D2-Pad2)*%
X112265000Y-62065000D03*
%TD*%
D14*
%TO.P,C1,1*%
%TO.N,GND*%
X107200000Y-62080000D03*
%TO.P,C1,2*%
%TO.N,/nRST*%
X107200000Y-61120000D03*
%TD*%
D15*
%TO.P,R8,1*%
%TO.N,GND*%
X108205000Y-62090000D03*
%TO.P,R8,2*%
%TO.N,/ADC*%
X108205000Y-61070000D03*
%TD*%
D18*
%TO.P,R11,1*%
%TO.N,/nRST*%
X105180000Y-61070000D03*
%TO.P,R11,2*%
%TO.N,Net-(R13-Pad2)*%
X105180000Y-62090000D03*
%TD*%
D32*
%TO.N,+3V3*%
X126020000Y-57080000D03*
X115130000Y-39070000D03*
X106170000Y-62930000D03*
X110720000Y-63080000D03*
X130820000Y-54330000D03*
X116644463Y-55944780D03*
%TO.N,GND*%
X120303792Y-48359311D03*
X121570000Y-43080000D03*
X123720000Y-38705000D03*
X106290000Y-47660000D03*
X107680000Y-47610000D03*
X106330000Y-49200000D03*
X122170000Y-38705000D03*
X115745000Y-63955000D03*
X128620000Y-51680000D03*
X107720000Y-62930000D03*
X125720000Y-49780000D03*
X131520000Y-42230000D03*
X114420000Y-63855000D03*
X117295000Y-63980000D03*
X115145000Y-56455000D03*
X107780000Y-49150000D03*
X120545000Y-38730000D03*
%TO.N,/nRST*%
X116270000Y-50330000D03*
X135270000Y-40930000D03*
%TO.N,/GPIO0*%
X114470000Y-41130000D03*
X119770000Y-41130000D03*
X116401079Y-52884136D03*
%TO.N,/GPIO14*%
X116445000Y-51930000D03*
%TO.N,/GPIO13*%
X116262808Y-53772948D03*
%TO.N,Net-(R15-Pad2)*%
X104870000Y-38280000D03*
X112620000Y-38680000D03*
%TO.N,+BATT*%
X124570000Y-59180000D03*
X131620000Y-57280000D03*
X108920000Y-63030000D03*
X131620000Y-43280000D03*
%TO.N,Net-(D1-Pad1)*%
X131895000Y-64830000D03*
X127120000Y-44080000D03*
%TO.N,Net-(D1-Pad2)*%
X132495000Y-63605000D03*
X128520000Y-43980000D03*
%TO.N,Net-(D3-Pad1)*%
X129420000Y-43980000D03*
X133320000Y-62680000D03*
%TO.N,Net-(D3-Pad2)*%
X129520000Y-42880000D03*
X133520000Y-61780000D03*
%TO.N,Net-(C7-Pad1)*%
X127520000Y-59680000D03*
X128620000Y-54380000D03*
%TD*%
D33*
%TO.N,GND*%
X132410000Y-54190000D02*
X134675000Y-54190000D01*
X132070000Y-54530000D02*
X132410000Y-54190000D01*
%TO.N,Net-(C2-Pad2)*%
X134165000Y-49930000D02*
X134675000Y-49930000D01*
X132420000Y-48185000D02*
X134165000Y-49930000D01*
%TO.N,GND*%
X135229022Y-54190000D02*
X136200000Y-53219022D01*
%TO.N,Net-(C2-Pad2)*%
X133250000Y-50650978D02*
X133970978Y-49930000D01*
%TO.N,GND*%
X136200000Y-49350000D02*
X135560000Y-48710000D01*
%TO.N,Net-(C2-Pad2)*%
X133970978Y-49930000D02*
X134675000Y-49930000D01*
%TO.N,GND*%
X136200000Y-53219022D02*
X136200000Y-49350000D01*
%TO.N,Net-(C2-Pad2)*%
X134675000Y-52970000D02*
X133970978Y-52970000D01*
X133970978Y-52970000D02*
X133250000Y-52249022D01*
%TO.N,GND*%
X135560000Y-48710000D02*
X134675000Y-48710000D01*
%TO.N,Net-(C2-Pad2)*%
X133250000Y-52249022D02*
X133250000Y-50650978D01*
%TO.N,GND*%
X134675000Y-54190000D02*
X135229022Y-54190000D01*
%TO.N,+3V3*%
X106195000Y-62905000D02*
X106170000Y-62930000D01*
X119720000Y-60430000D02*
X120220000Y-59930000D01*
X120170000Y-58280000D02*
X121370000Y-57080000D01*
X121370000Y-57080000D02*
X126020000Y-57080000D01*
X110710000Y-62090000D02*
X111250000Y-62090000D01*
X106195000Y-62090000D02*
X106195000Y-62905000D01*
X110710000Y-62090000D02*
X110720000Y-62100000D01*
X119720000Y-61580000D02*
X119720000Y-60430000D01*
X113920000Y-39070000D02*
X115130000Y-39070000D01*
X127482500Y-57130000D02*
X126070000Y-57130000D01*
X126070000Y-57130000D02*
X126020000Y-57080000D01*
X120220000Y-59930000D02*
X120220000Y-58330000D01*
X130570000Y-54330000D02*
X130820000Y-54330000D01*
X120220000Y-58330000D02*
X120170000Y-58280000D01*
X110720000Y-62100000D02*
X110720000Y-63080000D01*
X110235000Y-62090000D02*
X110710000Y-62090000D01*
X129600000Y-53360000D02*
X130570000Y-54330000D01*
X115130000Y-39070000D02*
X116420000Y-39070000D01*
%TO.N,GND*%
X130420000Y-56180000D02*
X132070000Y-54530000D01*
X126715000Y-51775000D02*
X126715000Y-50680000D01*
X126620000Y-50680000D02*
X125720000Y-49780000D01*
X129255000Y-50680000D02*
X129255000Y-51045000D01*
X128480000Y-52400000D02*
X129600000Y-52400000D01*
X130520000Y-42080000D02*
X131370000Y-42080000D01*
X129757500Y-56180000D02*
X130420000Y-56180000D01*
X107710000Y-62090000D02*
X107710000Y-62920000D01*
X127350000Y-52370000D02*
X126250000Y-52370000D01*
X129620000Y-52380000D02*
X129600000Y-52400000D01*
X108205000Y-62090000D02*
X107710000Y-62090000D01*
X126220000Y-52400000D02*
X126220000Y-52280000D01*
X107710000Y-62090000D02*
X107210000Y-62090000D01*
X126715000Y-50680000D02*
X126620000Y-50680000D01*
X126720000Y-51780000D02*
X126715000Y-51775000D01*
X107210000Y-62090000D02*
X107200000Y-62080000D01*
X131370000Y-42080000D02*
X131520000Y-42230000D01*
X129255000Y-51515000D02*
X129620000Y-51880000D01*
X129255000Y-51045000D02*
X128620000Y-51680000D01*
X129620000Y-51880000D02*
X129620000Y-52380000D01*
X129255000Y-50680000D02*
X129255000Y-51515000D01*
X126220000Y-52280000D02*
X126720000Y-51780000D01*
X120170000Y-43080000D02*
X121570000Y-43080000D01*
X130900000Y-53360000D02*
X132070000Y-54530000D01*
X107710000Y-62920000D02*
X107720000Y-62930000D01*
X126250000Y-52370000D02*
X126220000Y-52400000D01*
D34*
%TO.N,Net-(C8-Pad1)*%
X126220000Y-53967500D02*
X126220000Y-53360000D01*
X127482500Y-55230000D02*
X126220000Y-53967500D01*
%TO.N,/nRST*%
X106170000Y-61045000D02*
X106170000Y-58280000D01*
X106170000Y-58280000D02*
X106170000Y-57530000D01*
X107200000Y-61120000D02*
X106245000Y-61120000D01*
X113370000Y-50330000D02*
X116270000Y-50330000D01*
X135270000Y-40930000D02*
X135540000Y-41200000D01*
X135540000Y-41200000D02*
X137420000Y-41200000D01*
X106245000Y-61120000D02*
X106195000Y-61070000D01*
X106195000Y-61070000D02*
X106170000Y-61045000D01*
X106195000Y-61070000D02*
X105180000Y-61070000D01*
X106170000Y-57530000D02*
X113370000Y-50330000D01*
%TO.N,/GPIO16*%
X113255000Y-61095000D02*
X113280000Y-61070000D01*
X112265000Y-61095000D02*
X112170000Y-61000000D01*
X112265000Y-61095000D02*
X113255000Y-61095000D01*
X112170000Y-61000000D02*
X112170000Y-58280000D01*
%TO.N,Net-(D2-Pad2)*%
X111250000Y-61070000D02*
X111250000Y-61140000D01*
X112175000Y-62065000D02*
X112265000Y-62065000D01*
X111250000Y-61140000D02*
X112175000Y-62065000D01*
%TO.N,/GPIO0*%
X119220000Y-41680000D02*
X119220000Y-50065215D01*
X120970000Y-39930000D02*
X119770000Y-41130000D01*
X114170000Y-41230000D02*
X114170000Y-43080000D01*
X114170000Y-41430000D02*
X114170000Y-43080000D01*
X113920000Y-40090000D02*
X113920000Y-40980000D01*
X119220000Y-50065215D02*
X116401079Y-52884136D01*
X111420000Y-40090000D02*
X113920000Y-40090000D01*
X114470000Y-41130000D02*
X114170000Y-41430000D01*
X137420000Y-39930000D02*
X120970000Y-39930000D01*
X113920000Y-40980000D02*
X114170000Y-41230000D01*
X119770000Y-41130000D02*
X119220000Y-41680000D01*
%TO.N,/GPIO2*%
X116420000Y-40880000D02*
X116170000Y-41130000D01*
X116420000Y-40090000D02*
X116420000Y-40880000D01*
X116170000Y-41130000D02*
X116170000Y-43080000D01*
%TO.N,/EN*%
X110170000Y-58280000D02*
X110170000Y-60380000D01*
X110170000Y-60380000D02*
X110235000Y-60445000D01*
X110235000Y-60445000D02*
X110235000Y-61070000D01*
%TO.N,/GPIO15*%
X118920000Y-40580000D02*
X118170000Y-41330000D01*
X118920000Y-40090000D02*
X118920000Y-40580000D01*
X118170000Y-41330000D02*
X118170000Y-43080000D01*
%TO.N,/ADC*%
X108170000Y-61035000D02*
X108170000Y-58280000D01*
X108205000Y-61070000D02*
X109220000Y-61070000D01*
X108205000Y-61070000D02*
X108170000Y-61035000D01*
%TO.N,/GPIO14*%
X114170000Y-58280000D02*
X114170000Y-54205000D01*
X114170000Y-54205000D02*
X116445000Y-51930000D01*
%TO.N,/GPIO13*%
X118170000Y-58280000D02*
X118170000Y-55680140D01*
X118170000Y-55680140D02*
X116262808Y-53772948D01*
%TO.N,/RXD*%
X125670000Y-38080000D02*
X125670000Y-37680000D01*
X127720000Y-37380000D02*
X128125906Y-37380000D01*
X108170000Y-41354550D02*
X112144550Y-37380000D01*
X108170000Y-43080000D02*
X108170000Y-41354550D01*
X126870000Y-37380000D02*
X126870000Y-37130000D01*
X125670000Y-37680000D02*
X125670000Y-37130000D01*
X125920000Y-36880000D02*
X126020000Y-36880000D01*
X126270000Y-37130000D02*
X126270000Y-37380000D01*
X127120000Y-36880000D02*
X127220000Y-36880000D01*
X126870000Y-38080000D02*
X126870000Y-37380000D01*
X128125906Y-37380000D02*
X137410000Y-37380000D01*
X137410000Y-37380000D02*
X137420000Y-37390000D01*
X126270000Y-37380000D02*
X126270000Y-38080000D01*
X112144550Y-37380000D02*
X124770000Y-37380000D01*
X125070000Y-37680000D02*
X125070000Y-38080000D01*
X125670000Y-38080000D02*
G75*
G02*
X125370000Y-38380000I-300000J0D01*
G01*
X127470000Y-37130000D02*
G75*
G03*
X127220000Y-36880000I-249999J1D01*
G01*
X125070000Y-37680000D02*
G75*
G03*
X124770000Y-37380000I-300000J0D01*
G01*
X125920000Y-36880000D02*
G75*
G03*
X125670000Y-37130000I-1J-249999D01*
G01*
X125370000Y-38380000D02*
G75*
G02*
X125070000Y-38080000I0J300000D01*
G01*
X126270000Y-37130000D02*
G75*
G03*
X126020000Y-36880000I-249999J1D01*
G01*
X127120000Y-36880000D02*
G75*
G03*
X126870000Y-37130000I-1J-249999D01*
G01*
X126870000Y-38080000D02*
G75*
G02*
X126570000Y-38380000I-300000J0D01*
G01*
X127720000Y-37380000D02*
G75*
G02*
X127470000Y-37130000I-1J249999D01*
G01*
X126570000Y-38380000D02*
G75*
G02*
X126270000Y-38080000I0J300000D01*
G01*
%TO.N,/TXD*%
X138119511Y-37960489D02*
X138119511Y-37100252D01*
X111919510Y-36580490D02*
X106170000Y-42330000D01*
X137420000Y-38660000D02*
X138119511Y-37960489D01*
X106170000Y-42330000D02*
X106170000Y-43080000D01*
X138119511Y-37100252D02*
X137599749Y-36580490D01*
X137599749Y-36580490D02*
X111919510Y-36580490D01*
%TO.N,Net-(R15-Pad2)*%
X103495000Y-38280000D02*
X104870000Y-38280000D01*
X112620000Y-38680000D02*
X111810000Y-38680000D01*
X111810000Y-38680000D02*
X111420000Y-39070000D01*
D35*
%TO.N,+BATT*%
X130520000Y-45475000D02*
X130525000Y-45480000D01*
X131620000Y-43280000D02*
X130760000Y-43280000D01*
X124570000Y-59180000D02*
X124620000Y-59230000D01*
X134520000Y-58780000D02*
X135320000Y-59580000D01*
X130760000Y-43280000D02*
X130520000Y-43040000D01*
X109220000Y-62730000D02*
X108920000Y-63030000D01*
X131620000Y-57280000D02*
X131620000Y-58680000D01*
X131620000Y-58680000D02*
X131720000Y-58780000D01*
X135320000Y-61030000D02*
X137170000Y-62880000D01*
X109220000Y-62090000D02*
X109220000Y-62730000D01*
X131720000Y-58780000D02*
X134520000Y-58780000D01*
X129720000Y-58780000D02*
X129757500Y-58742500D01*
X125570000Y-60650000D02*
X125570000Y-59230000D01*
X125570000Y-59230000D02*
X126020000Y-58780000D01*
X130520000Y-43040000D02*
X130520000Y-45475000D01*
X135320000Y-59580000D02*
X135320000Y-61030000D01*
X129757500Y-58742500D02*
X129757500Y-57130000D01*
X124620000Y-59230000D02*
X125570000Y-59230000D01*
X129720000Y-58780000D02*
X131720000Y-58780000D01*
X126020000Y-58780000D02*
X129720000Y-58780000D01*
D34*
%TO.N,Net-(D1-Pad1)*%
X127985000Y-44945000D02*
X127985000Y-45480000D01*
X127120000Y-44080000D02*
X127985000Y-44945000D01*
X133395000Y-64865000D02*
X131930000Y-64865000D01*
X131930000Y-64865000D02*
X131895000Y-64830000D01*
%TO.N,Net-(D1-Pad2)*%
X127555480Y-43070000D02*
X128465480Y-43980000D01*
X126220000Y-43070000D02*
X127555480Y-43070000D01*
X132785000Y-63895000D02*
X132495000Y-63605000D01*
X128465480Y-43980000D02*
X128520000Y-43980000D01*
X133395000Y-63895000D02*
X132785000Y-63895000D01*
%TO.N,Net-(D3-Pad1)*%
X134239521Y-64334521D02*
X134239521Y-62999521D01*
X129255000Y-45480000D02*
X129255000Y-44145000D01*
X133920000Y-62680000D02*
X133320000Y-62680000D01*
X129255000Y-44145000D02*
X129420000Y-43980000D01*
X134239521Y-62999521D02*
X133920000Y-62680000D01*
X134770000Y-64865000D02*
X134239521Y-64334521D01*
%TO.N,Net-(D3-Pad2)*%
X134770000Y-63895000D02*
X134620000Y-63745000D01*
X128375000Y-43070000D02*
X129330000Y-43070000D01*
X134620000Y-63745000D02*
X134620000Y-62880000D01*
X134620000Y-62880000D02*
X133520000Y-61780000D01*
X129330000Y-43070000D02*
X129520000Y-42880000D01*
%TO.N,Net-(R3-Pad1)*%
X127869520Y-52870480D02*
X127869520Y-50795480D01*
X127869520Y-50795480D02*
X127985000Y-50680000D01*
X127350000Y-53390000D02*
X127869520Y-52870480D01*
D33*
%TO.N,Net-(C2-Pad2)*%
X130525000Y-50080000D02*
X132420000Y-48185000D01*
X126220000Y-42050000D02*
X125600480Y-42669520D01*
X126220000Y-42050000D02*
X128375000Y-42050000D01*
X132420000Y-41380000D02*
X129045000Y-41380000D01*
X132420000Y-48185000D02*
X132420000Y-41380000D01*
X130525000Y-52205000D02*
X130720000Y-52400000D01*
X130525000Y-50680000D02*
X130525000Y-52205000D01*
X129045000Y-41380000D02*
X128375000Y-42050000D01*
X130525000Y-50680000D02*
X130525000Y-50080000D01*
X125600480Y-42669520D02*
X125600480Y-44365480D01*
X125600480Y-44365480D02*
X126715000Y-45480000D01*
D34*
%TO.N,Net-(C7-Pad1)*%
X128570000Y-60650000D02*
X128490000Y-60650000D01*
X128620000Y-54380000D02*
X128907500Y-54380000D01*
X128490000Y-60650000D02*
X127520000Y-59680000D01*
X128620000Y-53500000D02*
X128480000Y-53360000D01*
X128907500Y-54380000D02*
X129757500Y-55230000D01*
X128620000Y-54380000D02*
X128620000Y-53500000D01*
%TO.N,Net-(R13-Pad2)*%
X105120000Y-63080000D02*
X105870000Y-63830000D01*
X112170000Y-63830000D02*
X113280000Y-62720000D01*
X105120000Y-62150000D02*
X105120000Y-63080000D01*
X103495000Y-63180000D02*
X104090000Y-63180000D01*
X105870000Y-63830000D02*
X112170000Y-63830000D01*
X113280000Y-62720000D02*
X113280000Y-62090000D01*
X105180000Y-62090000D02*
X105120000Y-62150000D01*
X104090000Y-63180000D02*
X105180000Y-62090000D01*
%TD*%
%TA.AperFunction,Conductor*%
%TO.N,GND*%
G36*
X138838887Y-38227701D02*
G01*
X138880070Y-38285533D01*
X138887000Y-38326744D01*
X138887000Y-65046000D01*
X138866998Y-65114121D01*
X138813342Y-65160614D01*
X138761000Y-65172000D01*
X135724500Y-65172000D01*
X135656379Y-65151998D01*
X135609886Y-65098342D01*
X135598500Y-65046000D01*
X135598499Y-64653726D01*
X135598499Y-64651254D01*
X135595573Y-64614063D01*
X135549332Y-64454900D01*
X135542968Y-64444140D01*
X135525508Y-64375326D01*
X135542968Y-64315861D01*
X135549332Y-64305100D01*
X135553531Y-64290649D01*
X135570548Y-64232074D01*
X135595573Y-64145937D01*
X135596077Y-64139532D01*
X135596078Y-64139527D01*
X135598307Y-64111203D01*
X135598307Y-64111195D01*
X135598500Y-64108747D01*
X135598500Y-63949170D01*
X135618502Y-63881049D01*
X135672158Y-63834556D01*
X135742432Y-63824452D01*
X135807012Y-63853946D01*
X135842482Y-63904941D01*
X135863697Y-63961531D01*
X135869385Y-63976705D01*
X135956739Y-64093261D01*
X136073295Y-64180615D01*
X136209684Y-64231745D01*
X136271866Y-64238500D01*
X138068134Y-64238500D01*
X138130316Y-64231745D01*
X138266705Y-64180615D01*
X138383261Y-64093261D01*
X138470615Y-63976705D01*
X138521745Y-63840316D01*
X138528500Y-63778134D01*
X138528500Y-61981866D01*
X138521745Y-61919684D01*
X138470615Y-61783295D01*
X138383261Y-61666739D01*
X138266705Y-61579385D01*
X138147687Y-61534767D01*
X138090923Y-61492125D01*
X138066223Y-61425564D01*
X138081430Y-61356215D01*
X138102977Y-61327535D01*
X138204052Y-61226812D01*
X138210730Y-61218965D01*
X138335003Y-61046020D01*
X138340313Y-61037183D01*
X138434670Y-60846267D01*
X138438469Y-60836672D01*
X138500377Y-60632910D01*
X138502555Y-60622837D01*
X138503986Y-60611962D01*
X138501775Y-60597778D01*
X138488617Y-60594000D01*
X137042000Y-60594000D01*
X136973879Y-60573998D01*
X136927386Y-60520342D01*
X136916000Y-60468000D01*
X136916000Y-60067885D01*
X137424000Y-60067885D01*
X137428475Y-60083124D01*
X137429865Y-60084329D01*
X137437548Y-60086000D01*
X138488344Y-60086000D01*
X138501875Y-60082027D01*
X138503180Y-60072947D01*
X138461214Y-59905875D01*
X138457894Y-59896124D01*
X138372972Y-59700814D01*
X138368105Y-59691739D01*
X138252426Y-59512926D01*
X138246136Y-59504757D01*
X138102806Y-59347240D01*
X138095273Y-59340215D01*
X137928139Y-59208222D01*
X137919552Y-59202517D01*
X137733117Y-59099599D01*
X137723705Y-59095369D01*
X137522959Y-59024280D01*
X137512988Y-59021646D01*
X137441837Y-59008972D01*
X137428540Y-59010432D01*
X137424000Y-59024989D01*
X137424000Y-60067885D01*
X136916000Y-60067885D01*
X136916000Y-59023102D01*
X136912082Y-59009758D01*
X136897806Y-59007771D01*
X136859324Y-59013660D01*
X136849288Y-59016051D01*
X136646868Y-59082212D01*
X136637359Y-59086209D01*
X136448463Y-59184542D01*
X136439738Y-59190036D01*
X136269433Y-59317905D01*
X136269225Y-59318090D01*
X136269123Y-59318138D01*
X136265298Y-59321010D01*
X136264705Y-59320220D01*
X136205004Y-59348359D01*
X136134614Y-59339103D01*
X136080402Y-59293260D01*
X136066580Y-59265304D01*
X136056063Y-59235104D01*
X136056063Y-59235103D01*
X136053745Y-59228448D01*
X136050010Y-59222470D01*
X136035973Y-59200005D01*
X136028634Y-59186488D01*
X136017441Y-59162486D01*
X136017440Y-59162485D01*
X136014462Y-59156098D01*
X135987894Y-59121847D01*
X135980598Y-59111388D01*
X135961358Y-59080596D01*
X135961356Y-59080593D01*
X135957626Y-59074624D01*
X135929024Y-59045821D01*
X135928439Y-59045196D01*
X135927922Y-59044530D01*
X135901932Y-59018540D01*
X135829815Y-58945918D01*
X135828778Y-58945260D01*
X135827549Y-58944157D01*
X135098234Y-58214842D01*
X135097306Y-58213905D01*
X135039157Y-58154525D01*
X135039156Y-58154524D01*
X135034229Y-58149493D01*
X134997779Y-58126002D01*
X134987454Y-58118583D01*
X134953557Y-58091524D01*
X134945521Y-58087639D01*
X134923363Y-58076928D01*
X134909945Y-58069398D01*
X134881762Y-58051235D01*
X134875145Y-58048827D01*
X134875140Y-58048824D01*
X134841027Y-58036408D01*
X134829284Y-58031447D01*
X134796597Y-58015646D01*
X134796592Y-58015644D01*
X134790251Y-58012579D01*
X134783393Y-58010996D01*
X134783391Y-58010995D01*
X134757574Y-58005035D01*
X134742831Y-58000668D01*
X134711315Y-57989197D01*
X134704325Y-57988314D01*
X134704317Y-57988312D01*
X134668299Y-57983762D01*
X134655747Y-57981526D01*
X134620386Y-57973362D01*
X134620383Y-57973362D01*
X134613515Y-57971776D01*
X134606469Y-57971751D01*
X134606466Y-57971751D01*
X134572944Y-57971634D01*
X134572062Y-57971605D01*
X134571231Y-57971500D01*
X134534581Y-57971500D01*
X134534141Y-57971499D01*
X134435657Y-57971155D01*
X134435652Y-57971155D01*
X134432130Y-57971143D01*
X134430930Y-57971411D01*
X134429293Y-57971500D01*
X132554500Y-57971500D01*
X132486379Y-57951498D01*
X132439886Y-57897842D01*
X132428500Y-57845500D01*
X132428500Y-57730397D01*
X132445380Y-57667398D01*
X132454527Y-57651556D01*
X132513542Y-57469928D01*
X132533504Y-57280000D01*
X132513542Y-57090072D01*
X132454527Y-56908444D01*
X132359040Y-56743056D01*
X132333471Y-56714658D01*
X132235675Y-56606045D01*
X132235674Y-56606044D01*
X132231253Y-56601134D01*
X132103571Y-56508367D01*
X132082094Y-56492763D01*
X132082093Y-56492762D01*
X132076752Y-56488882D01*
X132070724Y-56486198D01*
X132070722Y-56486197D01*
X131908319Y-56413891D01*
X131908318Y-56413891D01*
X131902288Y-56411206D01*
X131808887Y-56391353D01*
X131721944Y-56372872D01*
X131721939Y-56372872D01*
X131715487Y-56371500D01*
X131524513Y-56371500D01*
X131518061Y-56372872D01*
X131518056Y-56372872D01*
X131431113Y-56391353D01*
X131337712Y-56411206D01*
X131331682Y-56413891D01*
X131331681Y-56413891D01*
X131169278Y-56486197D01*
X131169276Y-56486198D01*
X131163248Y-56488882D01*
X131157907Y-56492762D01*
X131157906Y-56492763D01*
X131119906Y-56520372D01*
X131053039Y-56544230D01*
X130983887Y-56528150D01*
X130934407Y-56477236D01*
X130926592Y-56445873D01*
X130921520Y-56438029D01*
X130912630Y-56434000D01*
X130674842Y-56434000D01*
X130610703Y-56416453D01*
X130575142Y-56395423D01*
X130533601Y-56370855D01*
X130525990Y-56368644D01*
X130525988Y-56368643D01*
X130452991Y-56347436D01*
X130373831Y-56324438D01*
X130367426Y-56323934D01*
X130367421Y-56323933D01*
X130338958Y-56321693D01*
X130338950Y-56321693D01*
X130336502Y-56321500D01*
X129813405Y-56321500D01*
X129798486Y-56320614D01*
X129794826Y-56320178D01*
X129763180Y-56316404D01*
X129756177Y-56317140D01*
X129756176Y-56317140D01*
X129721260Y-56320810D01*
X129708089Y-56321500D01*
X129178498Y-56321500D01*
X129176050Y-56321693D01*
X129176042Y-56321693D01*
X129147579Y-56323933D01*
X129147574Y-56323934D01*
X129141169Y-56324438D01*
X129062009Y-56347436D01*
X128989012Y-56368643D01*
X128989010Y-56368644D01*
X128981399Y-56370855D01*
X128939858Y-56395423D01*
X128904297Y-56416453D01*
X128840158Y-56434000D01*
X128608122Y-56434000D01*
X128592884Y-56438474D01*
X128584732Y-56447882D01*
X128525006Y-56486266D01*
X128454010Y-56486266D01*
X128412280Y-56464929D01*
X128407415Y-56461155D01*
X128401807Y-56455547D01*
X128394983Y-56451511D01*
X128394980Y-56451509D01*
X128265427Y-56374892D01*
X128265428Y-56374892D01*
X128258601Y-56370855D01*
X128250990Y-56368644D01*
X128250988Y-56368643D01*
X128177991Y-56347436D01*
X128098831Y-56324438D01*
X128092426Y-56323934D01*
X128092421Y-56323933D01*
X128063958Y-56321693D01*
X128063950Y-56321693D01*
X128061502Y-56321500D01*
X126903498Y-56321500D01*
X126901050Y-56321693D01*
X126901042Y-56321693D01*
X126872579Y-56323933D01*
X126872574Y-56323934D01*
X126866169Y-56324438D01*
X126787009Y-56347436D01*
X126714012Y-56368643D01*
X126714010Y-56368644D01*
X126706399Y-56370855D01*
X126699906Y-56374695D01*
X126629613Y-56383370D01*
X126575975Y-56360972D01*
X126482094Y-56292763D01*
X126482093Y-56292762D01*
X126476752Y-56288882D01*
X126470724Y-56286198D01*
X126470722Y-56286197D01*
X126308319Y-56213891D01*
X126308318Y-56213891D01*
X126302288Y-56211206D01*
X126208888Y-56191353D01*
X126121944Y-56172872D01*
X126121939Y-56172872D01*
X126115487Y-56171500D01*
X125924513Y-56171500D01*
X125918061Y-56172872D01*
X125918056Y-56172872D01*
X125831113Y-56191353D01*
X125737712Y-56211206D01*
X125731682Y-56213891D01*
X125731681Y-56213891D01*
X125569278Y-56286197D01*
X125569276Y-56286198D01*
X125563248Y-56288882D01*
X125557907Y-56292762D01*
X125557906Y-56292763D01*
X125482656Y-56347436D01*
X125415789Y-56371294D01*
X125408595Y-56371500D01*
X123203355Y-56371500D01*
X123135234Y-56351498D01*
X123088741Y-56297842D01*
X123078586Y-56234963D01*
X123077947Y-56234928D01*
X123078106Y-56231993D01*
X123078091Y-56231900D01*
X123078131Y-56231533D01*
X123078131Y-56231529D01*
X123078500Y-56228134D01*
X123078500Y-55131866D01*
X123071745Y-55069684D01*
X123020615Y-54933295D01*
X122933261Y-54816739D01*
X122885340Y-54780824D01*
X122842827Y-54723967D01*
X122837801Y-54653149D01*
X122871861Y-54590855D01*
X122885330Y-54579183D01*
X122933261Y-54543261D01*
X123020615Y-54426705D01*
X123071745Y-54290316D01*
X123078500Y-54228134D01*
X123078500Y-53131866D01*
X123071745Y-53069684D01*
X123020615Y-52933295D01*
X122933261Y-52816739D01*
X122885340Y-52780824D01*
X122842827Y-52723967D01*
X122837801Y-52653149D01*
X122871861Y-52590855D01*
X122885330Y-52579183D01*
X122933261Y-52543261D01*
X123020615Y-52426705D01*
X123071745Y-52290316D01*
X123078500Y-52228134D01*
X123078500Y-51131866D01*
X123071745Y-51069684D01*
X123020615Y-50933295D01*
X122933261Y-50816739D01*
X122885340Y-50780824D01*
X122842827Y-50723967D01*
X122837801Y-50653149D01*
X122871861Y-50590855D01*
X122885330Y-50579183D01*
X122933261Y-50543261D01*
X123020615Y-50426705D01*
X123071745Y-50290316D01*
X123078500Y-50228134D01*
X123078500Y-49131866D01*
X123071745Y-49069684D01*
X123020615Y-48933295D01*
X122933261Y-48816739D01*
X122885340Y-48780824D01*
X122842827Y-48723967D01*
X122837801Y-48653149D01*
X122871861Y-48590855D01*
X122885330Y-48579183D01*
X122933261Y-48543261D01*
X123020615Y-48426705D01*
X123071745Y-48290316D01*
X123078500Y-48228134D01*
X123078500Y-47131866D01*
X123071745Y-47069684D01*
X123020615Y-46933295D01*
X122933261Y-46816739D01*
X122885340Y-46780824D01*
X122842827Y-46723967D01*
X122837801Y-46653149D01*
X122871861Y-46590855D01*
X122885330Y-46579183D01*
X122933261Y-46543261D01*
X123020615Y-46426705D01*
X123071745Y-46290316D01*
X123078500Y-46228134D01*
X123078500Y-45131866D01*
X123071745Y-45069684D01*
X123020615Y-44933295D01*
X122933261Y-44816739D01*
X122816705Y-44729385D01*
X122680316Y-44678255D01*
X122618134Y-44671500D01*
X121266342Y-44671500D01*
X121198221Y-44651498D01*
X121151728Y-44597842D01*
X121141624Y-44527568D01*
X121148360Y-44501270D01*
X121168478Y-44447605D01*
X121172105Y-44432351D01*
X121177631Y-44381486D01*
X121178000Y-44374672D01*
X121178000Y-43352115D01*
X121173525Y-43336876D01*
X121172135Y-43335671D01*
X121164452Y-43334000D01*
X120442115Y-43334000D01*
X120426876Y-43338475D01*
X120425671Y-43339865D01*
X120424000Y-43347548D01*
X120424000Y-44751732D01*
X120403998Y-44819853D01*
X120398826Y-44827297D01*
X120390430Y-44838500D01*
X120319385Y-44933295D01*
X120268255Y-45069684D01*
X120261500Y-45131866D01*
X120261500Y-46228134D01*
X120268255Y-46290316D01*
X120319385Y-46426705D01*
X120406739Y-46543261D01*
X120454660Y-46579176D01*
X120497173Y-46636033D01*
X120502199Y-46706851D01*
X120468139Y-46769145D01*
X120454670Y-46780817D01*
X120406739Y-46816739D01*
X120319385Y-46933295D01*
X120268255Y-47069684D01*
X120261500Y-47131866D01*
X120261500Y-48228134D01*
X120268255Y-48290316D01*
X120319385Y-48426705D01*
X120406739Y-48543261D01*
X120454660Y-48579176D01*
X120497173Y-48636033D01*
X120502199Y-48706851D01*
X120468139Y-48769145D01*
X120454670Y-48780817D01*
X120406739Y-48816739D01*
X120319385Y-48933295D01*
X120268255Y-49069684D01*
X120261500Y-49131866D01*
X120261500Y-50228134D01*
X120268255Y-50290316D01*
X120319385Y-50426705D01*
X120406739Y-50543261D01*
X120454660Y-50579176D01*
X120497173Y-50636033D01*
X120502199Y-50706851D01*
X120468139Y-50769145D01*
X120454670Y-50780817D01*
X120406739Y-50816739D01*
X120319385Y-50933295D01*
X120268255Y-51069684D01*
X120261500Y-51131866D01*
X120261500Y-52228134D01*
X120268255Y-52290316D01*
X120319385Y-52426705D01*
X120406739Y-52543261D01*
X120454660Y-52579176D01*
X120497173Y-52636033D01*
X120502199Y-52706851D01*
X120468139Y-52769145D01*
X120454670Y-52780817D01*
X120406739Y-52816739D01*
X120319385Y-52933295D01*
X120268255Y-53069684D01*
X120261500Y-53131866D01*
X120261500Y-54228134D01*
X120268255Y-54290316D01*
X120319385Y-54426705D01*
X120406739Y-54543261D01*
X120454660Y-54579176D01*
X120497173Y-54636033D01*
X120502199Y-54706851D01*
X120468139Y-54769145D01*
X120454670Y-54780817D01*
X120406739Y-54816739D01*
X120319385Y-54933295D01*
X120268255Y-55069684D01*
X120261500Y-55131866D01*
X120261500Y-56228134D01*
X120268255Y-56290316D01*
X120291106Y-56351270D01*
X120296289Y-56422077D01*
X120262369Y-56484446D01*
X120200113Y-56518575D01*
X120173124Y-56521500D01*
X119621866Y-56521500D01*
X119559684Y-56528255D01*
X119423295Y-56579385D01*
X119306739Y-56666739D01*
X119270824Y-56714660D01*
X119213967Y-56757173D01*
X119143149Y-56762199D01*
X119080855Y-56728139D01*
X119069183Y-56714670D01*
X119033261Y-56666739D01*
X118916705Y-56579385D01*
X118900188Y-56573193D01*
X118860270Y-56558228D01*
X118803505Y-56515586D01*
X118778806Y-56449024D01*
X118778500Y-56440246D01*
X118778500Y-55728276D01*
X118779578Y-55711830D01*
X118782672Y-55688328D01*
X118783750Y-55680140D01*
X118778500Y-55640260D01*
X118778500Y-55640255D01*
X118762838Y-55521290D01*
X118715844Y-55407836D01*
X118701524Y-55373264D01*
X118628478Y-55278069D01*
X118628474Y-55278065D01*
X118622014Y-55269646D01*
X118609016Y-55252706D01*
X118609013Y-55252703D01*
X118603987Y-55246153D01*
X118590409Y-55235734D01*
X118578621Y-55226688D01*
X118566230Y-55215821D01*
X117212527Y-53862118D01*
X117178501Y-53799806D01*
X117175967Y-53776232D01*
X117176312Y-53772948D01*
X117160489Y-53622398D01*
X117157040Y-53589583D01*
X117157040Y-53589581D01*
X117156350Y-53583020D01*
X117134171Y-53514760D01*
X117132143Y-53443794D01*
X117144885Y-53412825D01*
X117232302Y-53261415D01*
X117232303Y-53261414D01*
X117235606Y-53255692D01*
X117294621Y-53074064D01*
X117314583Y-52884136D01*
X117314395Y-52882350D01*
X117333895Y-52815940D01*
X117350798Y-52794966D01*
X119616234Y-50529530D01*
X119628625Y-50518663D01*
X119647437Y-50504228D01*
X119653987Y-50499202D01*
X119678474Y-50467290D01*
X119678477Y-50467287D01*
X119750583Y-50373316D01*
X119751524Y-50372090D01*
X119812838Y-50224065D01*
X119828500Y-50105100D01*
X119828500Y-50105093D01*
X119833750Y-50065215D01*
X119829578Y-50033522D01*
X119828500Y-50017079D01*
X119828500Y-44952695D01*
X119848502Y-44884574D01*
X119902158Y-44838081D01*
X119912528Y-44834213D01*
X119914329Y-44832135D01*
X119916000Y-44824452D01*
X119916000Y-42952000D01*
X119936002Y-42883879D01*
X119989658Y-42837386D01*
X120042000Y-42826000D01*
X121159884Y-42826000D01*
X121175123Y-42821525D01*
X121176328Y-42820135D01*
X121177999Y-42812452D01*
X121177999Y-41785331D01*
X121177629Y-41778510D01*
X121172105Y-41727648D01*
X121168479Y-41712396D01*
X121123324Y-41591946D01*
X121114786Y-41576351D01*
X121038285Y-41474276D01*
X121025724Y-41461715D01*
X120923649Y-41385214D01*
X120908054Y-41376676D01*
X120787606Y-41331522D01*
X120773118Y-41328077D01*
X120711472Y-41292860D01*
X120678651Y-41229904D01*
X120676954Y-41192324D01*
X120682814Y-41136565D01*
X120683504Y-41130000D01*
X120683316Y-41128214D01*
X120702816Y-41061804D01*
X120719719Y-41040830D01*
X121185144Y-40575405D01*
X121247456Y-40541379D01*
X121274239Y-40538500D01*
X128607058Y-40538500D01*
X128675179Y-40558502D01*
X128721672Y-40612158D01*
X128731776Y-40682432D01*
X128702282Y-40747012D01*
X128680998Y-40764774D01*
X128681696Y-40765684D01*
X128673259Y-40772158D01*
X128630998Y-40804587D01*
X128625668Y-40808459D01*
X128579280Y-40840339D01*
X128579275Y-40840344D01*
X128573019Y-40844643D01*
X128567968Y-40850313D01*
X128567966Y-40850314D01*
X128531565Y-40891170D01*
X128526584Y-40896446D01*
X128186664Y-41236366D01*
X128124352Y-41270392D01*
X128107452Y-41272883D01*
X128088534Y-41274371D01*
X128024895Y-41292860D01*
X127940017Y-41317519D01*
X127940015Y-41317520D01*
X127932404Y-41319731D01*
X127925577Y-41323769D01*
X127925576Y-41323769D01*
X127925264Y-41323953D01*
X127924953Y-41324038D01*
X127918305Y-41326915D01*
X127917896Y-41325969D01*
X127861125Y-41341500D01*
X126733875Y-41341500D01*
X126677104Y-41325969D01*
X126676695Y-41326915D01*
X126670047Y-41324038D01*
X126669736Y-41323953D01*
X126669424Y-41323769D01*
X126669423Y-41323769D01*
X126662596Y-41319731D01*
X126654985Y-41317520D01*
X126654983Y-41317519D01*
X126512644Y-41276166D01*
X126512645Y-41276166D01*
X126506466Y-41274371D01*
X126500059Y-41273867D01*
X126500055Y-41273866D01*
X126472444Y-41271693D01*
X126472438Y-41271693D01*
X126469989Y-41271500D01*
X126220152Y-41271500D01*
X125970012Y-41271501D01*
X125933534Y-41274371D01*
X125869895Y-41292860D01*
X125785017Y-41317519D01*
X125785015Y-41317520D01*
X125777404Y-41319731D01*
X125770582Y-41323766D01*
X125770581Y-41323766D01*
X125644280Y-41398460D01*
X125637459Y-41402494D01*
X125522494Y-41517459D01*
X125518460Y-41524280D01*
X125471341Y-41603955D01*
X125439731Y-41657404D01*
X125437520Y-41665015D01*
X125437519Y-41665017D01*
X125423754Y-41712396D01*
X125394371Y-41813534D01*
X125393867Y-41819943D01*
X125393866Y-41819946D01*
X125392882Y-41832453D01*
X125367597Y-41898795D01*
X125356366Y-41911663D01*
X125119945Y-42148085D01*
X125113678Y-42153939D01*
X125075820Y-42186964D01*
X125075817Y-42186967D01*
X125070095Y-42191959D01*
X125065728Y-42198173D01*
X125033352Y-42244239D01*
X125029419Y-42249534D01*
X124990004Y-42299802D01*
X124986881Y-42306718D01*
X124985497Y-42309004D01*
X124977123Y-42323685D01*
X124975858Y-42326045D01*
X124971490Y-42332259D01*
X124968730Y-42339338D01*
X124968729Y-42339340D01*
X124948278Y-42391795D01*
X124945727Y-42397864D01*
X124919435Y-42456093D01*
X124918051Y-42463560D01*
X124917250Y-42466115D01*
X124912621Y-42482368D01*
X124911958Y-42484948D01*
X124909198Y-42492029D01*
X124908207Y-42499560D01*
X124908206Y-42499562D01*
X124900859Y-42555372D01*
X124899828Y-42561879D01*
X124888184Y-42624706D01*
X124888621Y-42632286D01*
X124888621Y-42632287D01*
X124891771Y-42686912D01*
X124891980Y-42694166D01*
X124891980Y-44336568D01*
X124891688Y-44345138D01*
X124889439Y-44378134D01*
X124887755Y-44402832D01*
X124889060Y-44410309D01*
X124889060Y-44410310D01*
X124898741Y-44465779D01*
X124899703Y-44472301D01*
X124907378Y-44535722D01*
X124910061Y-44542823D01*
X124910702Y-44545432D01*
X124915165Y-44561742D01*
X124915930Y-44564278D01*
X124917237Y-44571764D01*
X124922561Y-44583891D01*
X124942922Y-44630275D01*
X124945415Y-44636384D01*
X124964194Y-44686081D01*
X124967993Y-44696136D01*
X124972297Y-44702399D01*
X124973534Y-44704765D01*
X124981779Y-44719577D01*
X124983112Y-44721831D01*
X124986165Y-44728785D01*
X125021804Y-44775229D01*
X125025059Y-44779471D01*
X125028939Y-44784812D01*
X125060819Y-44831200D01*
X125060824Y-44831205D01*
X125065123Y-44837461D01*
X125070793Y-44842512D01*
X125070794Y-44842514D01*
X125111641Y-44878907D01*
X125116918Y-44883888D01*
X125869596Y-45636567D01*
X125903621Y-45698879D01*
X125906500Y-45725662D01*
X125906500Y-46025610D01*
X125921603Y-46160255D01*
X125923920Y-46166908D01*
X125923920Y-46166909D01*
X125969472Y-46297715D01*
X125981255Y-46331552D01*
X126077374Y-46485376D01*
X126082341Y-46490378D01*
X126084795Y-46493474D01*
X126111432Y-46559284D01*
X126111863Y-46578522D01*
X126111500Y-46581866D01*
X126111500Y-49578134D01*
X126111869Y-49581532D01*
X126111910Y-49582287D01*
X126095621Y-49651389D01*
X126083735Y-49668739D01*
X126081067Y-49672010D01*
X125990503Y-49812537D01*
X125984274Y-49825086D01*
X125927096Y-49982180D01*
X125923803Y-49995795D01*
X125907497Y-50124869D01*
X125907000Y-50132759D01*
X125907000Y-50407885D01*
X125911475Y-50423124D01*
X125912865Y-50424329D01*
X125920548Y-50426000D01*
X126843000Y-50426000D01*
X126911121Y-50446002D01*
X126957614Y-50499658D01*
X126969000Y-50552000D01*
X126969000Y-50808000D01*
X126948998Y-50876121D01*
X126895342Y-50922614D01*
X126843000Y-50934000D01*
X125925115Y-50934000D01*
X125909876Y-50938475D01*
X125908671Y-50939865D01*
X125907000Y-50947548D01*
X125907000Y-51222060D01*
X125907393Y-51229084D01*
X125921308Y-51353145D01*
X125924410Y-51366798D01*
X125961353Y-51472884D01*
X125964867Y-51543794D01*
X125929485Y-51605346D01*
X125877516Y-51635318D01*
X125798214Y-51658358D01*
X125783780Y-51664604D01*
X125656501Y-51739876D01*
X125644074Y-51749516D01*
X125539516Y-51854074D01*
X125529876Y-51866501D01*
X125454604Y-51993780D01*
X125448357Y-52008216D01*
X125413381Y-52128605D01*
X125413421Y-52142705D01*
X125420691Y-52146000D01*
X126463885Y-52146000D01*
X126501929Y-52134829D01*
X126523284Y-52121105D01*
X126558784Y-52116000D01*
X127135020Y-52116000D01*
X127203141Y-52136002D01*
X127249634Y-52189658D01*
X127261020Y-52242000D01*
X127261020Y-52485501D01*
X127241018Y-52553622D01*
X127187362Y-52600115D01*
X127135020Y-52611501D01*
X127100012Y-52611501D01*
X127063534Y-52614371D01*
X127007622Y-52630615D01*
X126944350Y-52648997D01*
X126909197Y-52654000D01*
X126741379Y-52654000D01*
X126677240Y-52636454D01*
X126656420Y-52624141D01*
X126656419Y-52624141D01*
X126649597Y-52620106D01*
X126641986Y-52617895D01*
X126641984Y-52617894D01*
X126563673Y-52595143D01*
X126492254Y-52574394D01*
X126485849Y-52573890D01*
X126485844Y-52573889D01*
X126457940Y-52571693D01*
X126457932Y-52571693D01*
X126455484Y-52571500D01*
X125984516Y-52571500D01*
X125982068Y-52571693D01*
X125982060Y-52571693D01*
X125954156Y-52573889D01*
X125954151Y-52573890D01*
X125947746Y-52574394D01*
X125876327Y-52595143D01*
X125798016Y-52617894D01*
X125798014Y-52617895D01*
X125790403Y-52620106D01*
X125783581Y-52624141D01*
X125783580Y-52624141D01*
X125762760Y-52636454D01*
X125698621Y-52654000D01*
X125426442Y-52654000D01*
X125412911Y-52657973D01*
X125411776Y-52665871D01*
X125448357Y-52791784D01*
X125454605Y-52806222D01*
X125460016Y-52815372D01*
X125477474Y-52884188D01*
X125460015Y-52943647D01*
X125450106Y-52960403D01*
X125404394Y-53117746D01*
X125403890Y-53124151D01*
X125403889Y-53124156D01*
X125401693Y-53152060D01*
X125401500Y-53154516D01*
X125401500Y-53565484D01*
X125401693Y-53567932D01*
X125401693Y-53567940D01*
X125403425Y-53589936D01*
X125404394Y-53602254D01*
X125429455Y-53688514D01*
X125447769Y-53751552D01*
X125450106Y-53759597D01*
X125454141Y-53766419D01*
X125454141Y-53766420D01*
X125486192Y-53820615D01*
X125533512Y-53900629D01*
X125576894Y-53944011D01*
X125610920Y-54006323D01*
X125612721Y-54016658D01*
X125621037Y-54079824D01*
X125627162Y-54126351D01*
X125688476Y-54274376D01*
X125693503Y-54280927D01*
X125693504Y-54280929D01*
X125761520Y-54369569D01*
X125761526Y-54369575D01*
X125786013Y-54401487D01*
X125792568Y-54406517D01*
X125811379Y-54420952D01*
X125823770Y-54431819D01*
X126277280Y-54885329D01*
X126311306Y-54947641D01*
X126313797Y-54984309D01*
X126311693Y-55011039D01*
X126311692Y-55011053D01*
X126311500Y-55013498D01*
X126311500Y-55446502D01*
X126314438Y-55483831D01*
X126360855Y-55643601D01*
X126377582Y-55671885D01*
X126441509Y-55779980D01*
X126441511Y-55779983D01*
X126445547Y-55786807D01*
X126563193Y-55904453D01*
X126570017Y-55908489D01*
X126570020Y-55908491D01*
X126620281Y-55938215D01*
X126706399Y-55989145D01*
X126714010Y-55991356D01*
X126714012Y-55991357D01*
X126766231Y-56006528D01*
X126866169Y-56035562D01*
X126872574Y-56036066D01*
X126872579Y-56036067D01*
X126901042Y-56038307D01*
X126901050Y-56038307D01*
X126903498Y-56038500D01*
X128061502Y-56038500D01*
X128063950Y-56038307D01*
X128063958Y-56038307D01*
X128092421Y-56036067D01*
X128092426Y-56036066D01*
X128098831Y-56035562D01*
X128198769Y-56006528D01*
X128250988Y-55991357D01*
X128250990Y-55991356D01*
X128258601Y-55989145D01*
X128401807Y-55904453D01*
X128407416Y-55898844D01*
X128412886Y-55894601D01*
X128478971Y-55868654D01*
X128548594Y-55882555D01*
X128590116Y-55920446D01*
X128602370Y-55926000D01*
X128840158Y-55926000D01*
X128904297Y-55943547D01*
X128981399Y-55989145D01*
X128989010Y-55991356D01*
X128989012Y-55991357D01*
X129041231Y-56006528D01*
X129141169Y-56035562D01*
X129147574Y-56036066D01*
X129147579Y-56036067D01*
X129176042Y-56038307D01*
X129176050Y-56038307D01*
X129178498Y-56038500D01*
X130336502Y-56038500D01*
X130338950Y-56038307D01*
X130338958Y-56038307D01*
X130367421Y-56036067D01*
X130367426Y-56036066D01*
X130373831Y-56035562D01*
X130473769Y-56006528D01*
X130525988Y-55991357D01*
X130525990Y-55991356D01*
X130533601Y-55989145D01*
X130610703Y-55943547D01*
X130674842Y-55926000D01*
X130906878Y-55926000D01*
X130920409Y-55922027D01*
X130921544Y-55914129D01*
X130880893Y-55774210D01*
X130872872Y-55755674D01*
X130864176Y-55685212D01*
X130872872Y-55655596D01*
X130875111Y-55650423D01*
X130879145Y-55643601D01*
X130925562Y-55483831D01*
X130928500Y-55446502D01*
X130928500Y-55337767D01*
X130948502Y-55269646D01*
X131002158Y-55223153D01*
X131028303Y-55214520D01*
X131102288Y-55198794D01*
X131108319Y-55196109D01*
X131270722Y-55123803D01*
X131270724Y-55123802D01*
X131276752Y-55121118D01*
X131431253Y-55008866D01*
X131453364Y-54984309D01*
X131554621Y-54871852D01*
X131554622Y-54871851D01*
X131559040Y-54866944D01*
X131654527Y-54701556D01*
X131660014Y-54684669D01*
X133392001Y-54684669D01*
X133392371Y-54691490D01*
X133397895Y-54742352D01*
X133401521Y-54757604D01*
X133446676Y-54878054D01*
X133455214Y-54893649D01*
X133531715Y-54995724D01*
X133544276Y-55008285D01*
X133646351Y-55084786D01*
X133661946Y-55093324D01*
X133782394Y-55138478D01*
X133797649Y-55142105D01*
X133848514Y-55147631D01*
X133855328Y-55148000D01*
X134011066Y-55148000D01*
X134079187Y-55168002D01*
X134125680Y-55221658D01*
X134135784Y-55291932D01*
X134126174Y-55325247D01*
X134057298Y-55479944D01*
X134016500Y-55671885D01*
X134016500Y-55868115D01*
X134017872Y-55874568D01*
X134017872Y-55874572D01*
X134034191Y-55951345D01*
X134057298Y-56060056D01*
X134059983Y-56066086D01*
X134059983Y-56066087D01*
X134133645Y-56231533D01*
X134137112Y-56239321D01*
X134140992Y-56244662D01*
X134140993Y-56244663D01*
X134234143Y-56372872D01*
X134252453Y-56398074D01*
X134257363Y-56402495D01*
X134257364Y-56402496D01*
X134389942Y-56521869D01*
X134398280Y-56529377D01*
X134479437Y-56576233D01*
X134561559Y-56623646D01*
X134568220Y-56627492D01*
X134574506Y-56629534D01*
X134574505Y-56629534D01*
X134748566Y-56686090D01*
X134748567Y-56686090D01*
X134754845Y-56688130D01*
X134761408Y-56688820D01*
X134761409Y-56688820D01*
X134784405Y-56691237D01*
X134901078Y-56703500D01*
X135998922Y-56703500D01*
X136115595Y-56691237D01*
X136138591Y-56688820D01*
X136138592Y-56688820D01*
X136145155Y-56688130D01*
X136151433Y-56686090D01*
X136151434Y-56686090D01*
X136325495Y-56629534D01*
X136325494Y-56629534D01*
X136331780Y-56627492D01*
X136338442Y-56623646D01*
X136420563Y-56576233D01*
X136501720Y-56529377D01*
X136510059Y-56521869D01*
X136642636Y-56402496D01*
X136642637Y-56402495D01*
X136647547Y-56398074D01*
X136665858Y-56372872D01*
X136759007Y-56244663D01*
X136759008Y-56244662D01*
X136762888Y-56239321D01*
X136766356Y-56231533D01*
X136840017Y-56066087D01*
X136840017Y-56066086D01*
X136842702Y-56060056D01*
X136865809Y-55951345D01*
X136882128Y-55874572D01*
X136882128Y-55874568D01*
X136883500Y-55868115D01*
X136883500Y-55671885D01*
X136842702Y-55479944D01*
X136827813Y-55446502D01*
X136765573Y-55306709D01*
X136765572Y-55306707D01*
X136762888Y-55300679D01*
X136728034Y-55252706D01*
X136651430Y-55147270D01*
X136651428Y-55147268D01*
X136647547Y-55141926D01*
X136636374Y-55131866D01*
X136506628Y-55015042D01*
X136506627Y-55015041D01*
X136501720Y-55010623D01*
X136331780Y-54912508D01*
X136225741Y-54878054D01*
X136151434Y-54853910D01*
X136151433Y-54853910D01*
X136145155Y-54851870D01*
X136138592Y-54851180D01*
X136138591Y-54851180D01*
X136117873Y-54849003D01*
X136068268Y-54843789D01*
X136002613Y-54816776D01*
X135961983Y-54758554D01*
X135956177Y-54704872D01*
X135957631Y-54691488D01*
X135958000Y-54684672D01*
X135958000Y-54462115D01*
X135953525Y-54446876D01*
X135952135Y-54445671D01*
X135944452Y-54444000D01*
X133410116Y-54444000D01*
X133394877Y-54448475D01*
X133393672Y-54449865D01*
X133392001Y-54457548D01*
X133392001Y-54684669D01*
X131660014Y-54684669D01*
X131713542Y-54519928D01*
X131714666Y-54509239D01*
X131732814Y-54336565D01*
X131733504Y-54330000D01*
X131728507Y-54282460D01*
X131714232Y-54146635D01*
X131714232Y-54146633D01*
X131713542Y-54140072D01*
X131654527Y-53958444D01*
X131639909Y-53933124D01*
X131562343Y-53798777D01*
X131559040Y-53793056D01*
X131545947Y-53778514D01*
X131515229Y-53714507D01*
X131518585Y-53659051D01*
X131526619Y-53631397D01*
X131526579Y-53617295D01*
X131519309Y-53614000D01*
X131421083Y-53614000D01*
X131347022Y-53589936D01*
X131282094Y-53542763D01*
X131282093Y-53542762D01*
X131276752Y-53538882D01*
X131270724Y-53536198D01*
X131270722Y-53536197D01*
X131108319Y-53463891D01*
X131108318Y-53463891D01*
X131102288Y-53461206D01*
X130976233Y-53434412D01*
X130913760Y-53400683D01*
X130879438Y-53338534D01*
X130884166Y-53267695D01*
X130926442Y-53210657D01*
X130979791Y-53187216D01*
X130985842Y-53186111D01*
X130992254Y-53185606D01*
X131107721Y-53152060D01*
X131141984Y-53142106D01*
X131141986Y-53142105D01*
X131149597Y-53139894D01*
X131177240Y-53123546D01*
X131241379Y-53106000D01*
X131513558Y-53106000D01*
X131527089Y-53102027D01*
X131528224Y-53094129D01*
X131491643Y-52968216D01*
X131485395Y-52953778D01*
X131479984Y-52944628D01*
X131462526Y-52875812D01*
X131479985Y-52816353D01*
X131485857Y-52806423D01*
X131489894Y-52799597D01*
X131535606Y-52642254D01*
X131536523Y-52630615D01*
X131538307Y-52607940D01*
X131538307Y-52607932D01*
X131538500Y-52605484D01*
X131538500Y-52194516D01*
X131535606Y-52157746D01*
X131489894Y-52000403D01*
X131406488Y-51859371D01*
X131290629Y-51743512D01*
X131283802Y-51739475D01*
X131282275Y-51738290D01*
X131240708Y-51680734D01*
X131233500Y-51638730D01*
X131233500Y-51610290D01*
X131249659Y-51555402D01*
X131246817Y-51553991D01*
X131249947Y-51547687D01*
X131253765Y-51541762D01*
X131257482Y-51531552D01*
X131313394Y-51377934D01*
X131313394Y-51377933D01*
X131315803Y-51371315D01*
X131333500Y-51231231D01*
X131333500Y-50325660D01*
X131353502Y-50257539D01*
X131370405Y-50236565D01*
X132330905Y-49276065D01*
X132393217Y-49242039D01*
X132464032Y-49247104D01*
X132509095Y-49276065D01*
X132976924Y-49743894D01*
X133010950Y-49806206D01*
X133005885Y-49877021D01*
X132976924Y-49922084D01*
X132769480Y-50129528D01*
X132763215Y-50135382D01*
X132719615Y-50173417D01*
X132715248Y-50179631D01*
X132682872Y-50225697D01*
X132678939Y-50230992D01*
X132639524Y-50281260D01*
X132636401Y-50288176D01*
X132635017Y-50290462D01*
X132626643Y-50305143D01*
X132625378Y-50307503D01*
X132621010Y-50313717D01*
X132618250Y-50320796D01*
X132618249Y-50320798D01*
X132597798Y-50373253D01*
X132595247Y-50379322D01*
X132568955Y-50437551D01*
X132567571Y-50445018D01*
X132566770Y-50447573D01*
X132562141Y-50463826D01*
X132561478Y-50466406D01*
X132558718Y-50473487D01*
X132557727Y-50481018D01*
X132557726Y-50481020D01*
X132554671Y-50504228D01*
X132550478Y-50536081D01*
X132550379Y-50536830D01*
X132549348Y-50543337D01*
X132537704Y-50606164D01*
X132538141Y-50613744D01*
X132538141Y-50613745D01*
X132541291Y-50668370D01*
X132541500Y-50675624D01*
X132541500Y-52220110D01*
X132541208Y-52228680D01*
X132538255Y-52272000D01*
X132537275Y-52286374D01*
X132538580Y-52293851D01*
X132538580Y-52293852D01*
X132548261Y-52349321D01*
X132549223Y-52355843D01*
X132556898Y-52419264D01*
X132559581Y-52426365D01*
X132560222Y-52428974D01*
X132564685Y-52445284D01*
X132565450Y-52447820D01*
X132566757Y-52455306D01*
X132574444Y-52472816D01*
X132592442Y-52513817D01*
X132594935Y-52519926D01*
X132613886Y-52570078D01*
X132617513Y-52579678D01*
X132621817Y-52585941D01*
X132623054Y-52588307D01*
X132631299Y-52603119D01*
X132632632Y-52605373D01*
X132635685Y-52612327D01*
X132672061Y-52659731D01*
X132674579Y-52663013D01*
X132678459Y-52668354D01*
X132710339Y-52714742D01*
X132710344Y-52714747D01*
X132714643Y-52721003D01*
X132720313Y-52726054D01*
X132720314Y-52726056D01*
X132761170Y-52762457D01*
X132766446Y-52767438D01*
X133356999Y-53357991D01*
X133391025Y-53420303D01*
X133393167Y-53433479D01*
X133397401Y-53472460D01*
X133397402Y-53472464D01*
X133398255Y-53480316D01*
X133409939Y-53511483D01*
X133415122Y-53582288D01*
X133409939Y-53599943D01*
X133401521Y-53622398D01*
X133397895Y-53637649D01*
X133392369Y-53688514D01*
X133392000Y-53695328D01*
X133392000Y-53917885D01*
X133396475Y-53933124D01*
X133397865Y-53934329D01*
X133405548Y-53936000D01*
X135939884Y-53936000D01*
X135955123Y-53931525D01*
X135956328Y-53930135D01*
X135957999Y-53922452D01*
X135957999Y-53695331D01*
X135957629Y-53688510D01*
X135952105Y-53637648D01*
X135948480Y-53622400D01*
X135940061Y-53599943D01*
X135934878Y-53529136D01*
X135940058Y-53511490D01*
X135951745Y-53480316D01*
X135958500Y-53418134D01*
X135958500Y-52521866D01*
X135951745Y-52459684D01*
X135951793Y-52459679D01*
X135951793Y-52410321D01*
X135951745Y-52410316D01*
X135951793Y-52409874D01*
X135958500Y-52348134D01*
X135958500Y-51551866D01*
X135951745Y-51489684D01*
X135948971Y-51482285D01*
X135948225Y-51479146D01*
X135948225Y-51420854D01*
X135948971Y-51417715D01*
X135951745Y-51410316D01*
X135958500Y-51348134D01*
X135958500Y-50551866D01*
X135955713Y-50526206D01*
X135952598Y-50497536D01*
X135951745Y-50489684D01*
X135951793Y-50489679D01*
X135951793Y-50440321D01*
X135951745Y-50440316D01*
X135951793Y-50439874D01*
X135958500Y-50378134D01*
X135958500Y-49481866D01*
X135951745Y-49419684D01*
X135940061Y-49388517D01*
X135934878Y-49317712D01*
X135940061Y-49300057D01*
X135948479Y-49277602D01*
X135952105Y-49262351D01*
X135957631Y-49211486D01*
X135958000Y-49204672D01*
X135958000Y-48982115D01*
X135953525Y-48966876D01*
X135952135Y-48965671D01*
X135944452Y-48964000D01*
X134547000Y-48964000D01*
X134478879Y-48943998D01*
X134432386Y-48890342D01*
X134421000Y-48838000D01*
X134421000Y-48582000D01*
X134441002Y-48513879D01*
X134494658Y-48467386D01*
X134547000Y-48456000D01*
X135939884Y-48456000D01*
X135955123Y-48451525D01*
X135956328Y-48450135D01*
X135957999Y-48442452D01*
X135957999Y-48215331D01*
X135957629Y-48208507D01*
X135956176Y-48195125D01*
X135968706Y-48125243D01*
X136017028Y-48073229D01*
X136068268Y-48056211D01*
X136145155Y-48048130D01*
X136151433Y-48046090D01*
X136151434Y-48046090D01*
X136325495Y-47989534D01*
X136325494Y-47989534D01*
X136331780Y-47987492D01*
X136501720Y-47889377D01*
X136527548Y-47866122D01*
X136642636Y-47762496D01*
X136642637Y-47762495D01*
X136647547Y-47758074D01*
X136651691Y-47752371D01*
X136759007Y-47604663D01*
X136759008Y-47604662D01*
X136762888Y-47599321D01*
X136842702Y-47420056D01*
X136883500Y-47228115D01*
X136883500Y-47031885D01*
X136842702Y-46839944D01*
X136835567Y-46823919D01*
X136765573Y-46666709D01*
X136765572Y-46666707D01*
X136762888Y-46660679D01*
X136712158Y-46590855D01*
X136651430Y-46507270D01*
X136651428Y-46507268D01*
X136647547Y-46501926D01*
X136622526Y-46479397D01*
X136506628Y-46375042D01*
X136506627Y-46375041D01*
X136501720Y-46370623D01*
X136375440Y-46297715D01*
X136337503Y-46275812D01*
X136337502Y-46275811D01*
X136331780Y-46272508D01*
X136254059Y-46247255D01*
X136151434Y-46213910D01*
X136151433Y-46213910D01*
X136145155Y-46211870D01*
X136138592Y-46211180D01*
X136138591Y-46211180D01*
X136115595Y-46208763D01*
X135998922Y-46196500D01*
X134901078Y-46196500D01*
X134784405Y-46208763D01*
X134761409Y-46211180D01*
X134761408Y-46211180D01*
X134754845Y-46211870D01*
X134748567Y-46213910D01*
X134748566Y-46213910D01*
X134645941Y-46247255D01*
X134568220Y-46272508D01*
X134562498Y-46275811D01*
X134562497Y-46275812D01*
X134524560Y-46297715D01*
X134398280Y-46370623D01*
X134393373Y-46375041D01*
X134393372Y-46375042D01*
X134277474Y-46479397D01*
X134252453Y-46501926D01*
X134248572Y-46507268D01*
X134248570Y-46507270D01*
X134187842Y-46590855D01*
X134137112Y-46660679D01*
X134134428Y-46666707D01*
X134134427Y-46666709D01*
X134064433Y-46823919D01*
X134057298Y-46839944D01*
X134016500Y-47031885D01*
X134016500Y-47228115D01*
X134057298Y-47420056D01*
X134059983Y-47426086D01*
X134059983Y-47426087D01*
X134126173Y-47574752D01*
X134135607Y-47645119D01*
X134105501Y-47709416D01*
X134045412Y-47747230D01*
X134011066Y-47752001D01*
X133855331Y-47752001D01*
X133848510Y-47752371D01*
X133797648Y-47757895D01*
X133782396Y-47761521D01*
X133661946Y-47806676D01*
X133646351Y-47815214D01*
X133544276Y-47891715D01*
X133531715Y-47904276D01*
X133451598Y-48011176D01*
X133394739Y-48053691D01*
X133323920Y-48058717D01*
X133261677Y-48024706D01*
X133165405Y-47928434D01*
X133131379Y-47866122D01*
X133128500Y-47839339D01*
X133128500Y-44288134D01*
X136411500Y-44288134D01*
X136418255Y-44350316D01*
X136469385Y-44486705D01*
X136556739Y-44603261D01*
X136673295Y-44690615D01*
X136809684Y-44741745D01*
X136871866Y-44748500D01*
X137968134Y-44748500D01*
X138030316Y-44741745D01*
X138166705Y-44690615D01*
X138283261Y-44603261D01*
X138370615Y-44486705D01*
X138421745Y-44350316D01*
X138428500Y-44288134D01*
X138428500Y-43191866D01*
X138421745Y-43129684D01*
X138370615Y-42993295D01*
X138365229Y-42986108D01*
X138360921Y-42978240D01*
X138362789Y-42977217D01*
X138342139Y-42921945D01*
X138348255Y-42873117D01*
X138392142Y-42741189D01*
X138392643Y-42727097D01*
X138386454Y-42724000D01*
X136462282Y-42724000D01*
X136448751Y-42727973D01*
X136447601Y-42735975D01*
X136476552Y-42836941D01*
X136481068Y-42848346D01*
X136484480Y-42854985D01*
X136497831Y-42924715D01*
X136477432Y-42977338D01*
X136479079Y-42978240D01*
X136474771Y-42986108D01*
X136469385Y-42993295D01*
X136418255Y-43129684D01*
X136411500Y-43191866D01*
X136411500Y-44288134D01*
X133128500Y-44288134D01*
X133128500Y-41388762D01*
X133128502Y-41388102D01*
X133128838Y-41323953D01*
X133128974Y-41297969D01*
X133120190Y-41261379D01*
X133117622Y-41247105D01*
X133114015Y-41217300D01*
X133114015Y-41217298D01*
X133113102Y-41209758D01*
X133109415Y-41200000D01*
X133101355Y-41178670D01*
X133096701Y-41163543D01*
X133090715Y-41138606D01*
X133090713Y-41138602D01*
X133088942Y-41131223D01*
X133071682Y-41097781D01*
X133065786Y-41084539D01*
X133055173Y-41056451D01*
X133055171Y-41056448D01*
X133052487Y-41049344D01*
X133033655Y-41021944D01*
X133025541Y-41008387D01*
X133010291Y-40978839D01*
X133005300Y-40973118D01*
X133005296Y-40973112D01*
X132985558Y-40950487D01*
X132976664Y-40939021D01*
X132959661Y-40914280D01*
X132959656Y-40914275D01*
X132955357Y-40908019D01*
X132930537Y-40885905D01*
X132919412Y-40874662D01*
X132902557Y-40855341D01*
X132902553Y-40855338D01*
X132897561Y-40849615D01*
X132891347Y-40845247D01*
X132891344Y-40845245D01*
X132866778Y-40827979D01*
X132855414Y-40818972D01*
X132843614Y-40808459D01*
X132827321Y-40793943D01*
X132820612Y-40790391D01*
X132820608Y-40790388D01*
X132797946Y-40778389D01*
X132784466Y-40770129D01*
X132780857Y-40767593D01*
X132736621Y-40712062D01*
X132729429Y-40641431D01*
X132761565Y-40578124D01*
X132822826Y-40542240D01*
X132853299Y-40538500D01*
X134268529Y-40538500D01*
X134336650Y-40558502D01*
X134383143Y-40612158D01*
X134393247Y-40682432D01*
X134388363Y-40703432D01*
X134376458Y-40740072D01*
X134375768Y-40746633D01*
X134375768Y-40746635D01*
X134361130Y-40885906D01*
X134356496Y-40930000D01*
X134357186Y-40936565D01*
X134373325Y-41090115D01*
X134376458Y-41119928D01*
X134435473Y-41301556D01*
X134438776Y-41307278D01*
X134438777Y-41307279D01*
X134460690Y-41345233D01*
X134530960Y-41466944D01*
X134535378Y-41471851D01*
X134535379Y-41471852D01*
X134586060Y-41528139D01*
X134658747Y-41608866D01*
X134813248Y-41721118D01*
X134819276Y-41723802D01*
X134819278Y-41723803D01*
X134957473Y-41785331D01*
X134987712Y-41798794D01*
X135057044Y-41813531D01*
X135168056Y-41837128D01*
X135168061Y-41837128D01*
X135174513Y-41838500D01*
X135365487Y-41838500D01*
X135371942Y-41837128D01*
X135371951Y-41837127D01*
X135482957Y-41813531D01*
X135525601Y-41811855D01*
X135540000Y-41813751D01*
X135571699Y-41809578D01*
X135588144Y-41808500D01*
X136420278Y-41808500D01*
X136488399Y-41828502D01*
X136534892Y-41882158D01*
X136544996Y-41952432D01*
X136530692Y-41995201D01*
X136491998Y-42065585D01*
X136487166Y-42076858D01*
X136448506Y-42198731D01*
X136448202Y-42212831D01*
X136454763Y-42216000D01*
X138378183Y-42216000D01*
X138391714Y-42212027D01*
X138392806Y-42204433D01*
X138358231Y-42089919D01*
X138353560Y-42078586D01*
X138266537Y-41914918D01*
X138259435Y-41904228D01*
X138238398Y-41836420D01*
X138254827Y-41772264D01*
X138342723Y-41617542D01*
X138342725Y-41617537D01*
X138345769Y-41612179D01*
X138408197Y-41424513D01*
X138432985Y-41228295D01*
X138433380Y-41200000D01*
X138414080Y-41003167D01*
X138408000Y-40983027D01*
X138377085Y-40880634D01*
X138356916Y-40813831D01*
X138264066Y-40639204D01*
X138260167Y-40634424D01*
X138259715Y-40633743D01*
X138238676Y-40565935D01*
X138255105Y-40501775D01*
X138342723Y-40347542D01*
X138342725Y-40347537D01*
X138345769Y-40342179D01*
X138408197Y-40154513D01*
X138432985Y-39958295D01*
X138433380Y-39930000D01*
X138414080Y-39733167D01*
X138403283Y-39697404D01*
X138383118Y-39630615D01*
X138356916Y-39543831D01*
X138264066Y-39369204D01*
X138260167Y-39364424D01*
X138259715Y-39363743D01*
X138238676Y-39295935D01*
X138255105Y-39231775D01*
X138257174Y-39228134D01*
X138280468Y-39187128D01*
X138342723Y-39077542D01*
X138342725Y-39077537D01*
X138345769Y-39072179D01*
X138408197Y-38884513D01*
X138432985Y-38688295D01*
X138433380Y-38660000D01*
X138431392Y-38639726D01*
X138425545Y-38580091D01*
X138438805Y-38510344D01*
X138461848Y-38478701D01*
X138515740Y-38424808D01*
X138528132Y-38413940D01*
X138546947Y-38399503D01*
X138546948Y-38399502D01*
X138553498Y-38394476D01*
X138630312Y-38294371D01*
X138651035Y-38267365D01*
X138652962Y-38262714D01*
X138703263Y-38214751D01*
X138772976Y-38201314D01*
X138838887Y-38227701D01*
G37*
%TD.AperFunction*%
%TA.AperFunction,Conductor*%
G36*
X111215382Y-36208002D02*
G01*
X111261875Y-36261658D01*
X111271979Y-36331932D01*
X111242485Y-36396512D01*
X111236356Y-36403095D01*
X106354856Y-41284595D01*
X106292544Y-41318621D01*
X106265761Y-41321500D01*
X105621866Y-41321500D01*
X105559684Y-41328255D01*
X105423295Y-41379385D01*
X105306739Y-41466739D01*
X105219385Y-41583295D01*
X105168255Y-41719684D01*
X105161500Y-41781866D01*
X105161500Y-44378134D01*
X105168255Y-44440316D01*
X105219385Y-44576705D01*
X105306739Y-44693261D01*
X105423295Y-44780615D01*
X105559684Y-44831745D01*
X105621866Y-44838500D01*
X106718134Y-44838500D01*
X106780316Y-44831745D01*
X106916705Y-44780615D01*
X107033261Y-44693261D01*
X107069176Y-44645340D01*
X107126033Y-44602827D01*
X107196851Y-44597801D01*
X107259145Y-44631861D01*
X107270817Y-44645330D01*
X107306739Y-44693261D01*
X107423295Y-44780615D01*
X107559684Y-44831745D01*
X107621866Y-44838500D01*
X108718134Y-44838500D01*
X108780316Y-44831745D01*
X108916705Y-44780615D01*
X109033261Y-44693261D01*
X109069176Y-44645340D01*
X109126033Y-44602827D01*
X109196851Y-44597801D01*
X109259145Y-44631861D01*
X109270817Y-44645330D01*
X109306739Y-44693261D01*
X109423295Y-44780615D01*
X109559684Y-44831745D01*
X109621866Y-44838500D01*
X110718134Y-44838500D01*
X110780316Y-44831745D01*
X110916705Y-44780615D01*
X111033261Y-44693261D01*
X111069176Y-44645340D01*
X111126033Y-44602827D01*
X111196851Y-44597801D01*
X111259145Y-44631861D01*
X111270817Y-44645330D01*
X111306739Y-44693261D01*
X111423295Y-44780615D01*
X111559684Y-44831745D01*
X111621866Y-44838500D01*
X112718134Y-44838500D01*
X112780316Y-44831745D01*
X112916705Y-44780615D01*
X113033261Y-44693261D01*
X113069176Y-44645340D01*
X113126033Y-44602827D01*
X113196851Y-44597801D01*
X113259145Y-44631861D01*
X113270817Y-44645330D01*
X113306739Y-44693261D01*
X113423295Y-44780615D01*
X113559684Y-44831745D01*
X113621866Y-44838500D01*
X114718134Y-44838500D01*
X114780316Y-44831745D01*
X114916705Y-44780615D01*
X115033261Y-44693261D01*
X115069176Y-44645340D01*
X115126033Y-44602827D01*
X115196851Y-44597801D01*
X115259145Y-44631861D01*
X115270817Y-44645330D01*
X115306739Y-44693261D01*
X115423295Y-44780615D01*
X115559684Y-44831745D01*
X115621866Y-44838500D01*
X116718134Y-44838500D01*
X116780316Y-44831745D01*
X116916705Y-44780615D01*
X117033261Y-44693261D01*
X117069176Y-44645340D01*
X117126033Y-44602827D01*
X117196851Y-44597801D01*
X117259145Y-44631861D01*
X117270817Y-44645330D01*
X117306739Y-44693261D01*
X117423295Y-44780615D01*
X117559684Y-44831745D01*
X117621866Y-44838500D01*
X118485500Y-44838500D01*
X118553621Y-44858502D01*
X118600114Y-44912158D01*
X118611500Y-44964500D01*
X118611500Y-49760976D01*
X118591498Y-49829097D01*
X118574595Y-49850071D01*
X117200275Y-51224391D01*
X117137963Y-51258417D01*
X117067148Y-51253352D01*
X117037120Y-51237232D01*
X116931801Y-51160714D01*
X116888446Y-51104492D01*
X116882370Y-51033756D01*
X116912225Y-50974468D01*
X117004621Y-50871852D01*
X117004622Y-50871851D01*
X117009040Y-50866944D01*
X117104527Y-50701556D01*
X117163542Y-50519928D01*
X117165673Y-50499658D01*
X117182814Y-50336565D01*
X117183504Y-50330000D01*
X117172798Y-50228134D01*
X117164232Y-50146635D01*
X117164232Y-50146633D01*
X117163542Y-50140072D01*
X117104527Y-49958444D01*
X117090282Y-49933770D01*
X117067314Y-49893990D01*
X117009040Y-49793056D01*
X116964775Y-49743894D01*
X116885675Y-49656045D01*
X116885674Y-49656044D01*
X116881253Y-49651134D01*
X116726752Y-49538882D01*
X116720724Y-49536198D01*
X116720722Y-49536197D01*
X116558319Y-49463891D01*
X116558318Y-49463891D01*
X116552288Y-49461206D01*
X116458888Y-49441353D01*
X116371944Y-49422872D01*
X116371939Y-49422872D01*
X116365487Y-49421500D01*
X116174513Y-49421500D01*
X116168061Y-49422872D01*
X116168056Y-49422872D01*
X116081113Y-49441353D01*
X115987712Y-49461206D01*
X115981682Y-49463891D01*
X115981681Y-49463891D01*
X115819278Y-49536197D01*
X115819276Y-49536198D01*
X115813248Y-49538882D01*
X115807907Y-49542762D01*
X115807906Y-49542763D01*
X115759222Y-49578134D01*
X115658747Y-49651134D01*
X115654334Y-49656036D01*
X115654332Y-49656037D01*
X115632926Y-49679811D01*
X115572480Y-49717050D01*
X115539290Y-49721500D01*
X113418144Y-49721500D01*
X113401698Y-49720422D01*
X113378188Y-49717327D01*
X113370000Y-49716249D01*
X113211149Y-49737162D01*
X113063124Y-49798476D01*
X113023218Y-49829097D01*
X112967937Y-49871515D01*
X112967921Y-49871529D01*
X112942566Y-49890984D01*
X112942563Y-49890987D01*
X112936013Y-49896013D01*
X112930983Y-49902568D01*
X112916548Y-49921379D01*
X112905681Y-49933770D01*
X106354856Y-56484595D01*
X106292544Y-56518621D01*
X106265761Y-56521500D01*
X105621866Y-56521500D01*
X105559684Y-56528255D01*
X105423295Y-56579385D01*
X105306739Y-56666739D01*
X105219385Y-56783295D01*
X105168255Y-56919684D01*
X105161500Y-56981866D01*
X105161500Y-59578134D01*
X105168255Y-59640316D01*
X105219385Y-59776705D01*
X105306739Y-59893261D01*
X105423295Y-59980615D01*
X105431703Y-59983767D01*
X105479730Y-60001772D01*
X105536495Y-60044414D01*
X105561194Y-60110976D01*
X105561500Y-60119754D01*
X105561500Y-60165716D01*
X105541498Y-60233837D01*
X105487842Y-60280330D01*
X105430832Y-60291566D01*
X105429989Y-60291500D01*
X105180609Y-60291500D01*
X104930012Y-60291501D01*
X104893534Y-60294371D01*
X104804923Y-60320115D01*
X104745017Y-60337519D01*
X104745015Y-60337520D01*
X104737404Y-60339731D01*
X104730582Y-60343766D01*
X104730581Y-60343766D01*
X104683689Y-60371498D01*
X104597459Y-60422494D01*
X104482494Y-60537459D01*
X104478460Y-60544280D01*
X104409017Y-60661703D01*
X104399731Y-60677404D01*
X104397520Y-60685015D01*
X104397519Y-60685017D01*
X104387107Y-60720856D01*
X104354371Y-60833534D01*
X104353867Y-60839941D01*
X104353866Y-60839945D01*
X104351693Y-60867556D01*
X104351500Y-60870011D01*
X104351501Y-61269988D01*
X104354371Y-61306466D01*
X104369835Y-61359694D01*
X104396653Y-61452000D01*
X104399731Y-61462596D01*
X104403767Y-61469421D01*
X104403769Y-61469425D01*
X104431231Y-61515861D01*
X104448691Y-61584677D01*
X104431231Y-61644139D01*
X104403770Y-61690573D01*
X104403768Y-61690578D01*
X104399731Y-61697404D01*
X104398193Y-61702697D01*
X104353472Y-61756445D01*
X104285766Y-61777807D01*
X104269640Y-61777095D01*
X104218134Y-61771500D01*
X102771866Y-61771500D01*
X102709684Y-61778255D01*
X102573295Y-61829385D01*
X102456739Y-61916739D01*
X102369385Y-62033295D01*
X102318255Y-62169684D01*
X102311500Y-62231866D01*
X102311500Y-64128134D01*
X102318255Y-64190316D01*
X102369385Y-64326705D01*
X102456739Y-64443261D01*
X102573295Y-64530615D01*
X102709684Y-64581745D01*
X102771866Y-64588500D01*
X104218134Y-64588500D01*
X104280316Y-64581745D01*
X104416705Y-64530615D01*
X104533261Y-64443261D01*
X104620615Y-64326705D01*
X104671745Y-64190316D01*
X104678500Y-64128134D01*
X104678500Y-63803239D01*
X104698502Y-63735118D01*
X104752158Y-63688625D01*
X104822432Y-63678521D01*
X104887012Y-63708015D01*
X104893595Y-63714144D01*
X105405685Y-64226234D01*
X105416552Y-64238625D01*
X105436013Y-64263987D01*
X105442563Y-64269013D01*
X105467925Y-64288474D01*
X105467928Y-64288477D01*
X105544517Y-64347246D01*
X105563124Y-64361524D01*
X105607729Y-64380000D01*
X105624438Y-64386921D01*
X105703520Y-64419678D01*
X105703523Y-64419679D01*
X105711150Y-64422838D01*
X105830115Y-64438500D01*
X105830120Y-64438500D01*
X105830129Y-64438501D01*
X105861812Y-64442672D01*
X105870000Y-64443750D01*
X105901693Y-64439578D01*
X105918136Y-64438500D01*
X112121864Y-64438500D01*
X112138307Y-64439578D01*
X112170000Y-64443750D01*
X112178189Y-64442672D01*
X112209874Y-64438501D01*
X112209884Y-64438500D01*
X112209885Y-64438500D01*
X112209901Y-64438498D01*
X112309457Y-64425391D01*
X112320664Y-64423916D01*
X112320666Y-64423915D01*
X112328851Y-64422838D01*
X112476876Y-64361524D01*
X112495484Y-64347246D01*
X112572072Y-64288477D01*
X112572075Y-64288474D01*
X112597434Y-64269015D01*
X112603987Y-64263987D01*
X112609017Y-64257432D01*
X112623452Y-64238621D01*
X112634319Y-64226230D01*
X112902415Y-63958134D01*
X123161500Y-63958134D01*
X123168255Y-64020316D01*
X123219385Y-64156705D01*
X123306739Y-64273261D01*
X123423295Y-64360615D01*
X123559684Y-64411745D01*
X123621866Y-64418500D01*
X124718134Y-64418500D01*
X124780316Y-64411745D01*
X124916705Y-64360615D01*
X125033261Y-64273261D01*
X125120615Y-64156705D01*
X125171745Y-64020316D01*
X125178500Y-63958134D01*
X125178500Y-63061866D01*
X125171745Y-62999684D01*
X125120615Y-62863295D01*
X125033261Y-62746739D01*
X124916705Y-62659385D01*
X124780316Y-62608255D01*
X124718134Y-62601500D01*
X123621866Y-62601500D01*
X123559684Y-62608255D01*
X123423295Y-62659385D01*
X123306739Y-62746739D01*
X123219385Y-62863295D01*
X123168255Y-62999684D01*
X123161500Y-63061866D01*
X123161500Y-63958134D01*
X112902415Y-63958134D01*
X113676234Y-63184315D01*
X113688625Y-63173448D01*
X113707437Y-63159013D01*
X113713987Y-63153987D01*
X113738474Y-63122075D01*
X113738480Y-63122069D01*
X113806496Y-63033429D01*
X113806497Y-63033427D01*
X113811524Y-63026876D01*
X113853859Y-62924669D01*
X115312001Y-62924669D01*
X115312371Y-62931490D01*
X115317895Y-62982352D01*
X115321521Y-62997604D01*
X115366676Y-63118054D01*
X115375214Y-63133649D01*
X115451715Y-63235724D01*
X115464276Y-63248285D01*
X115566351Y-63324786D01*
X115581946Y-63333324D01*
X115702394Y-63378478D01*
X115717649Y-63382105D01*
X115768514Y-63387631D01*
X115775328Y-63388000D01*
X116447885Y-63388000D01*
X116463124Y-63383525D01*
X116464329Y-63382135D01*
X116466000Y-63374452D01*
X116466000Y-61852115D01*
X116461525Y-61836876D01*
X116460135Y-61835671D01*
X116452452Y-61834000D01*
X115330116Y-61834000D01*
X115314877Y-61838475D01*
X115313672Y-61839865D01*
X115312001Y-61847548D01*
X115312001Y-62924669D01*
X113853859Y-62924669D01*
X113868190Y-62890072D01*
X113869679Y-62886478D01*
X113869679Y-62886477D01*
X113872838Y-62878851D01*
X113877864Y-62840670D01*
X113888500Y-62759885D01*
X113888500Y-62759880D01*
X113890245Y-62746624D01*
X113918967Y-62681697D01*
X113926072Y-62673975D01*
X113977506Y-62622541D01*
X114060269Y-62482596D01*
X114070898Y-62446013D01*
X114103834Y-62332644D01*
X114105629Y-62326466D01*
X114107048Y-62308444D01*
X114108307Y-62292444D01*
X114108307Y-62292438D01*
X114108500Y-62289989D01*
X114108499Y-61890012D01*
X114105629Y-61853534D01*
X114060269Y-61697404D01*
X114056233Y-61690579D01*
X114056231Y-61690575D01*
X114028769Y-61644139D01*
X114011309Y-61575323D01*
X114028769Y-61515861D01*
X114056231Y-61469425D01*
X114056233Y-61469421D01*
X114060269Y-61462596D01*
X114063348Y-61452000D01*
X114096495Y-61337905D01*
X114105629Y-61306466D01*
X114106135Y-61300047D01*
X114108307Y-61272444D01*
X114108307Y-61272438D01*
X114108500Y-61269989D01*
X114108499Y-60870012D01*
X114105629Y-60833534D01*
X114065423Y-60695144D01*
X114062481Y-60685017D01*
X114062480Y-60685015D01*
X114060269Y-60677404D01*
X114050984Y-60661703D01*
X113981540Y-60544280D01*
X113977506Y-60537459D01*
X113862541Y-60422494D01*
X113776311Y-60371498D01*
X113729419Y-60343766D01*
X113729418Y-60343766D01*
X113722596Y-60339731D01*
X113714985Y-60337520D01*
X113714983Y-60337519D01*
X113576172Y-60297191D01*
X113566466Y-60294371D01*
X113560059Y-60293867D01*
X113560055Y-60293866D01*
X113532444Y-60291693D01*
X113532438Y-60291693D01*
X113529989Y-60291500D01*
X113280152Y-60291500D01*
X113030012Y-60291501D01*
X112993534Y-60294371D01*
X112939653Y-60310025D01*
X112868657Y-60309822D01*
X112809040Y-60271268D01*
X112779732Y-60206604D01*
X112778500Y-60189028D01*
X112778500Y-60119754D01*
X112798502Y-60051633D01*
X112852158Y-60005140D01*
X112860270Y-60001772D01*
X112908297Y-59983767D01*
X112916705Y-59980615D01*
X113033261Y-59893261D01*
X113069176Y-59845340D01*
X113126033Y-59802827D01*
X113196851Y-59797801D01*
X113259145Y-59831861D01*
X113270817Y-59845330D01*
X113306739Y-59893261D01*
X113423295Y-59980615D01*
X113559684Y-60031745D01*
X113621866Y-60038500D01*
X114718134Y-60038500D01*
X114780316Y-60031745D01*
X114916705Y-59980615D01*
X115033261Y-59893261D01*
X115069176Y-59845340D01*
X115126033Y-59802827D01*
X115196851Y-59797801D01*
X115259145Y-59831861D01*
X115270817Y-59845330D01*
X115306739Y-59893261D01*
X115313919Y-59898642D01*
X115313920Y-59898643D01*
X115321481Y-59904310D01*
X115363995Y-59961171D01*
X115369018Y-60031990D01*
X115363895Y-60049364D01*
X115321522Y-60162394D01*
X115317895Y-60177649D01*
X115312369Y-60228514D01*
X115312000Y-60235328D01*
X115312000Y-61307885D01*
X115316475Y-61323124D01*
X115317865Y-61324329D01*
X115325548Y-61326000D01*
X116848000Y-61326000D01*
X116916121Y-61346002D01*
X116962614Y-61399658D01*
X116974000Y-61452000D01*
X116974000Y-63369884D01*
X116978475Y-63385123D01*
X116979865Y-63386328D01*
X116987548Y-63387999D01*
X117664669Y-63387999D01*
X117671490Y-63387629D01*
X117722352Y-63382105D01*
X117737604Y-63378479D01*
X117858054Y-63333324D01*
X117873649Y-63324786D01*
X117975724Y-63248285D01*
X117988285Y-63235724D01*
X118064786Y-63133649D01*
X118073324Y-63118054D01*
X118101751Y-63042226D01*
X118144393Y-62985462D01*
X118210954Y-62960762D01*
X118280303Y-62975970D01*
X118330421Y-63026256D01*
X118337715Y-63042226D01*
X118352865Y-63082637D01*
X118369385Y-63126705D01*
X118456739Y-63243261D01*
X118573295Y-63330615D01*
X118709684Y-63381745D01*
X118771866Y-63388500D01*
X120668134Y-63388500D01*
X120730316Y-63381745D01*
X120866705Y-63330615D01*
X120983261Y-63243261D01*
X121070615Y-63126705D01*
X121121745Y-62990316D01*
X121128500Y-62928134D01*
X121128500Y-60231866D01*
X121121745Y-60169684D01*
X121070615Y-60033295D01*
X121056095Y-60013921D01*
X121031248Y-59947415D01*
X121046301Y-59878032D01*
X121056096Y-59862792D01*
X121120615Y-59776705D01*
X121171745Y-59640316D01*
X121178500Y-59578134D01*
X121178500Y-59337401D01*
X121198502Y-59269280D01*
X121252158Y-59222787D01*
X121322432Y-59212683D01*
X121387012Y-59242177D01*
X121420441Y-59288068D01*
X121442157Y-59339103D01*
X121448654Y-59354373D01*
X121552383Y-59495324D01*
X121557961Y-59500063D01*
X121557964Y-59500066D01*
X121680176Y-59603893D01*
X121680180Y-59603896D01*
X121685755Y-59608632D01*
X121718603Y-59625405D01*
X121782687Y-59658128D01*
X121841616Y-59688219D01*
X121848721Y-59689958D01*
X121848725Y-59689959D01*
X121929858Y-59709811D01*
X122011606Y-59729815D01*
X122017206Y-59730162D01*
X122017210Y-59730163D01*
X122020709Y-59730380D01*
X122020718Y-59730380D01*
X122022648Y-59730500D01*
X122148822Y-59730500D01*
X122240369Y-59719827D01*
X122271556Y-59716191D01*
X122271558Y-59716191D01*
X122278828Y-59715343D01*
X122285705Y-59712847D01*
X122285708Y-59712846D01*
X122436452Y-59658128D01*
X122443331Y-59655631D01*
X122589685Y-59559677D01*
X122710040Y-59432628D01*
X122797939Y-59281298D01*
X122848667Y-59113807D01*
X122859503Y-58939138D01*
X122836063Y-58802721D01*
X122831106Y-58773875D01*
X122831105Y-58773873D01*
X122829866Y-58766660D01*
X122761346Y-58605627D01*
X122657617Y-58464676D01*
X122652039Y-58459937D01*
X122652036Y-58459934D01*
X122529824Y-58356107D01*
X122529820Y-58356104D01*
X122524245Y-58351368D01*
X122440062Y-58308382D01*
X122374900Y-58275108D01*
X122374898Y-58275107D01*
X122368384Y-58271781D01*
X122361279Y-58270042D01*
X122361275Y-58270041D01*
X122267741Y-58247154D01*
X122198394Y-58230185D01*
X122192794Y-58229838D01*
X122192790Y-58229837D01*
X122189291Y-58229620D01*
X122189282Y-58229620D01*
X122187352Y-58229500D01*
X122061178Y-58229500D01*
X121969631Y-58240173D01*
X121938444Y-58243809D01*
X121938442Y-58243809D01*
X121931172Y-58244657D01*
X121924295Y-58247153D01*
X121924292Y-58247154D01*
X121847281Y-58275108D01*
X121766669Y-58304369D01*
X121620315Y-58400323D01*
X121499960Y-58527372D01*
X121426457Y-58653918D01*
X121413454Y-58676304D01*
X121361943Y-58725163D01*
X121292195Y-58738417D01*
X121226353Y-58711858D01*
X121185323Y-58653918D01*
X121178500Y-58613019D01*
X121178500Y-58325661D01*
X121198502Y-58257540D01*
X121215405Y-58236565D01*
X121626567Y-57825404D01*
X121688879Y-57791379D01*
X121715662Y-57788500D01*
X125408595Y-57788500D01*
X125476716Y-57808502D01*
X125482656Y-57812564D01*
X125518354Y-57838500D01*
X125563248Y-57871118D01*
X125569278Y-57873803D01*
X125575001Y-57877107D01*
X125574103Y-57878662D01*
X125621503Y-57918944D01*
X125642158Y-57986870D01*
X125622811Y-58055180D01*
X125593391Y-58087638D01*
X125592334Y-58088458D01*
X125561846Y-58112107D01*
X125551388Y-58119402D01*
X125520596Y-58138642D01*
X125520593Y-58138644D01*
X125514624Y-58142374D01*
X125509629Y-58147334D01*
X125509628Y-58147335D01*
X125485821Y-58170976D01*
X125485196Y-58171561D01*
X125484530Y-58172078D01*
X125458540Y-58198068D01*
X125385918Y-58270185D01*
X125385260Y-58271222D01*
X125384157Y-58272451D01*
X125272013Y-58384595D01*
X125209701Y-58418621D01*
X125182918Y-58421500D01*
X125112587Y-58421500D01*
X125038528Y-58397437D01*
X125032098Y-58392765D01*
X125032091Y-58392761D01*
X125026752Y-58388882D01*
X125020724Y-58386198D01*
X125020722Y-58386197D01*
X124858319Y-58313891D01*
X124858318Y-58313891D01*
X124852288Y-58311206D01*
X124758888Y-58291353D01*
X124671944Y-58272872D01*
X124671939Y-58272872D01*
X124665487Y-58271500D01*
X124474513Y-58271500D01*
X124468061Y-58272872D01*
X124468056Y-58272872D01*
X124381112Y-58291353D01*
X124287712Y-58311206D01*
X124281682Y-58313891D01*
X124281681Y-58313891D01*
X124119278Y-58386197D01*
X124119276Y-58386198D01*
X124113248Y-58388882D01*
X124107907Y-58392762D01*
X124107906Y-58392763D01*
X124072316Y-58418621D01*
X123958747Y-58501134D01*
X123830960Y-58643056D01*
X123827659Y-58648774D01*
X123763486Y-58759925D01*
X123735473Y-58808444D01*
X123676458Y-58990072D01*
X123675768Y-58996633D01*
X123675768Y-58996635D01*
X123668096Y-59069628D01*
X123656496Y-59180000D01*
X123657186Y-59186565D01*
X123671317Y-59321010D01*
X123676458Y-59369928D01*
X123735473Y-59551556D01*
X123738776Y-59557278D01*
X123738777Y-59557279D01*
X123742478Y-59563689D01*
X123830960Y-59716944D01*
X123835378Y-59721851D01*
X123835379Y-59721852D01*
X123952444Y-59851866D01*
X123958747Y-59858866D01*
X124113248Y-59971118D01*
X124119276Y-59973802D01*
X124119278Y-59973803D01*
X124263762Y-60038131D01*
X124287712Y-60048794D01*
X124377528Y-60067885D01*
X124468056Y-60087128D01*
X124468061Y-60087128D01*
X124474513Y-60088500D01*
X124585500Y-60088500D01*
X124653621Y-60108502D01*
X124700114Y-60162158D01*
X124711500Y-60214500D01*
X124711500Y-60265500D01*
X124691498Y-60333621D01*
X124637842Y-60380114D01*
X124585500Y-60391500D01*
X123621866Y-60391500D01*
X123559684Y-60398255D01*
X123423295Y-60449385D01*
X123306739Y-60536739D01*
X123219385Y-60653295D01*
X123168255Y-60789684D01*
X123161500Y-60851866D01*
X123161500Y-61748134D01*
X123168255Y-61810316D01*
X123219385Y-61946705D01*
X123306739Y-62063261D01*
X123423295Y-62150615D01*
X123559684Y-62201745D01*
X123621866Y-62208500D01*
X124718134Y-62208500D01*
X124780316Y-62201745D01*
X124916705Y-62150615D01*
X125033261Y-62063261D01*
X125111449Y-61958935D01*
X125168308Y-61916420D01*
X125212275Y-61908500D01*
X125297992Y-61908500D01*
X125366113Y-61928502D01*
X125412606Y-61982158D01*
X125422710Y-62052432D01*
X125417378Y-62073366D01*
X125416982Y-62074171D01*
X125415375Y-62080341D01*
X125415373Y-62080346D01*
X125375905Y-62231866D01*
X125367898Y-62262607D01*
X125364887Y-62320055D01*
X125359570Y-62421522D01*
X125357707Y-62457064D01*
X125375259Y-62573124D01*
X125383557Y-62627987D01*
X125386825Y-62649599D01*
X125389028Y-62655585D01*
X125389029Y-62655591D01*
X125451860Y-62826360D01*
X125451862Y-62826365D01*
X125454063Y-62832346D01*
X125483610Y-62880000D01*
X125533685Y-62960762D01*
X125556674Y-62997840D01*
X125561055Y-63002473D01*
X125561056Y-63002474D01*
X125670354Y-63118054D01*
X125690466Y-63139322D01*
X125695696Y-63142984D01*
X125695697Y-63142985D01*
X125783155Y-63204223D01*
X125849975Y-63251011D01*
X125855838Y-63253548D01*
X126022825Y-63325810D01*
X126022829Y-63325811D01*
X126028684Y-63328345D01*
X126034931Y-63329650D01*
X126034934Y-63329651D01*
X126214557Y-63367176D01*
X126214562Y-63367177D01*
X126219293Y-63368165D01*
X126225685Y-63368500D01*
X126368663Y-63368500D01*
X126437951Y-63361462D01*
X126507378Y-63354410D01*
X126507379Y-63354410D01*
X126513727Y-63353765D01*
X126578955Y-63333324D01*
X126693451Y-63297444D01*
X126693456Y-63297442D01*
X126699541Y-63295535D01*
X126816606Y-63230644D01*
X126864271Y-63204223D01*
X126864274Y-63204221D01*
X126869850Y-63201130D01*
X126874691Y-63196981D01*
X126874695Y-63196978D01*
X127012855Y-63078560D01*
X127017698Y-63074409D01*
X127027428Y-63061866D01*
X127133131Y-62925594D01*
X127137046Y-62920547D01*
X127141030Y-62912452D01*
X127220200Y-62751556D01*
X127223018Y-62745829D01*
X127227315Y-62729333D01*
X127270492Y-62563575D01*
X127270492Y-62563572D01*
X127272102Y-62557393D01*
X127277939Y-62446013D01*
X127281959Y-62369317D01*
X127281959Y-62369313D01*
X127282293Y-62362936D01*
X127253175Y-62170401D01*
X127250972Y-62164415D01*
X127250971Y-62164409D01*
X127188140Y-61993640D01*
X127188138Y-61993635D01*
X127185937Y-61987654D01*
X127098191Y-61846134D01*
X127086688Y-61827582D01*
X127086687Y-61827581D01*
X127083326Y-61822160D01*
X127054525Y-61791703D01*
X126953919Y-61685315D01*
X126949534Y-61680678D01*
X126928348Y-61665843D01*
X126804872Y-61579385D01*
X126790025Y-61568989D01*
X126712350Y-61535376D01*
X126617175Y-61494190D01*
X126617171Y-61494189D01*
X126611316Y-61491655D01*
X126605069Y-61490350D01*
X126605066Y-61490349D01*
X126528734Y-61474403D01*
X126466143Y-61440894D01*
X126431605Y-61378865D01*
X126428500Y-61351066D01*
X126428500Y-60056207D01*
X126448502Y-59988086D01*
X126502158Y-59941593D01*
X126572432Y-59931489D01*
X126637012Y-59960983D01*
X126674332Y-60017269D01*
X126685473Y-60051556D01*
X126688776Y-60057278D01*
X126688777Y-60057279D01*
X126765516Y-60190194D01*
X126780960Y-60216944D01*
X126785378Y-60221851D01*
X126785379Y-60221852D01*
X126884280Y-60331693D01*
X126908747Y-60358866D01*
X126953664Y-60391500D01*
X127054452Y-60464727D01*
X127063248Y-60471118D01*
X127069276Y-60473802D01*
X127069278Y-60473803D01*
X127227573Y-60544280D01*
X127237712Y-60548794D01*
X127331112Y-60568647D01*
X127418056Y-60587128D01*
X127418061Y-60587128D01*
X127424513Y-60588500D01*
X127515761Y-60588500D01*
X127583882Y-60608502D01*
X127604856Y-60625405D01*
X127674595Y-60695144D01*
X127708621Y-60757456D01*
X127711500Y-60784239D01*
X127711500Y-61448134D01*
X127718255Y-61510316D01*
X127769385Y-61646705D01*
X127856739Y-61763261D01*
X127973295Y-61850615D01*
X128109684Y-61901745D01*
X128171866Y-61908500D01*
X128297992Y-61908500D01*
X128366113Y-61928502D01*
X128412606Y-61982158D01*
X128422710Y-62052432D01*
X128417378Y-62073366D01*
X128416982Y-62074171D01*
X128415375Y-62080341D01*
X128415373Y-62080346D01*
X128375905Y-62231866D01*
X128367898Y-62262607D01*
X128364887Y-62320055D01*
X128359570Y-62421522D01*
X128357707Y-62457064D01*
X128375259Y-62573124D01*
X128383557Y-62627987D01*
X128386825Y-62649599D01*
X128389028Y-62655585D01*
X128389029Y-62655591D01*
X128451860Y-62826360D01*
X128451862Y-62826365D01*
X128454063Y-62832346D01*
X128483610Y-62880000D01*
X128533685Y-62960762D01*
X128556674Y-62997840D01*
X128561055Y-63002473D01*
X128561056Y-63002474D01*
X128670354Y-63118054D01*
X128690466Y-63139322D01*
X128695696Y-63142984D01*
X128695697Y-63142985D01*
X128783155Y-63204223D01*
X128849975Y-63251011D01*
X128855838Y-63253548D01*
X129022825Y-63325810D01*
X129022829Y-63325811D01*
X129028684Y-63328345D01*
X129034931Y-63329650D01*
X129034934Y-63329651D01*
X129214557Y-63367176D01*
X129214562Y-63367177D01*
X129219293Y-63368165D01*
X129225685Y-63368500D01*
X129368663Y-63368500D01*
X129437951Y-63361462D01*
X129507378Y-63354410D01*
X129507379Y-63354410D01*
X129513727Y-63353765D01*
X129578955Y-63333324D01*
X129693451Y-63297444D01*
X129693456Y-63297442D01*
X129699541Y-63295535D01*
X129816606Y-63230644D01*
X129864271Y-63204223D01*
X129864274Y-63204221D01*
X129869850Y-63201130D01*
X129874691Y-63196981D01*
X129874695Y-63196978D01*
X130012855Y-63078560D01*
X130017698Y-63074409D01*
X130027428Y-63061866D01*
X130133131Y-62925594D01*
X130137046Y-62920547D01*
X130141030Y-62912452D01*
X130220200Y-62751556D01*
X130223018Y-62745829D01*
X130227315Y-62729333D01*
X130270492Y-62563575D01*
X130270492Y-62563572D01*
X130272102Y-62557393D01*
X130277939Y-62446013D01*
X130281959Y-62369317D01*
X130281959Y-62369313D01*
X130282293Y-62362936D01*
X130253175Y-62170401D01*
X130250972Y-62164415D01*
X130250971Y-62164409D01*
X130219181Y-62078008D01*
X130214431Y-62007170D01*
X130248732Y-61945010D01*
X130311195Y-61911262D01*
X130337431Y-61908500D01*
X130427725Y-61908500D01*
X130495846Y-61928502D01*
X130528551Y-61958935D01*
X130606739Y-62063261D01*
X130723295Y-62150615D01*
X130859684Y-62201745D01*
X130921866Y-62208500D01*
X132018134Y-62208500D01*
X132080316Y-62201745D01*
X132216705Y-62150615D01*
X132333261Y-62063261D01*
X132349910Y-62041046D01*
X132406769Y-61998533D01*
X132477588Y-61993508D01*
X132539881Y-62027568D01*
X132573871Y-62089899D01*
X132568766Y-62160712D01*
X132559855Y-62179611D01*
X132547076Y-62201745D01*
X132494711Y-62292444D01*
X132485473Y-62308444D01*
X132426458Y-62490072D01*
X132425769Y-62496631D01*
X132425768Y-62496634D01*
X132417854Y-62571935D01*
X132390841Y-62637591D01*
X132332619Y-62678221D01*
X132261674Y-62680924D01*
X132232810Y-62667161D01*
X132231760Y-62669079D01*
X132223892Y-62664771D01*
X132216705Y-62659385D01*
X132080316Y-62608255D01*
X132018134Y-62601500D01*
X130921866Y-62601500D01*
X130859684Y-62608255D01*
X130723295Y-62659385D01*
X130606739Y-62746739D01*
X130519385Y-62863295D01*
X130468255Y-62999684D01*
X130461500Y-63061866D01*
X130461500Y-63958134D01*
X130468255Y-64020316D01*
X130519385Y-64156705D01*
X130606739Y-64273261D01*
X130723295Y-64360615D01*
X130859684Y-64411745D01*
X130914147Y-64417661D01*
X130979708Y-64444902D01*
X131020135Y-64503265D01*
X131022591Y-64574219D01*
X131020372Y-64581860D01*
X131018215Y-64588500D01*
X131001458Y-64640072D01*
X131000768Y-64646633D01*
X131000768Y-64646635D01*
X131000283Y-64651254D01*
X130981496Y-64830000D01*
X130982186Y-64836565D01*
X131000768Y-65013368D01*
X131000769Y-65013373D01*
X131001458Y-65019928D01*
X131002000Y-65021597D01*
X130996733Y-65090597D01*
X130953915Y-65147229D01*
X130887277Y-65171721D01*
X130878890Y-65172000D01*
X98129000Y-65172000D01*
X98060879Y-65151998D01*
X98014386Y-65098342D01*
X98003000Y-65046000D01*
X98003000Y-64415367D01*
X98023002Y-64347246D01*
X98076658Y-64300753D01*
X98146932Y-64290649D01*
X98211512Y-64320143D01*
X98229827Y-64339802D01*
X98301719Y-64435728D01*
X98314276Y-64448285D01*
X98416351Y-64524786D01*
X98431946Y-64533324D01*
X98552394Y-64578478D01*
X98567649Y-64582105D01*
X98618514Y-64587631D01*
X98625328Y-64588000D01*
X99072885Y-64588000D01*
X99088124Y-64583525D01*
X99089329Y-64582135D01*
X99091000Y-64574452D01*
X99091000Y-64569884D01*
X99599000Y-64569884D01*
X99603475Y-64585123D01*
X99604865Y-64586328D01*
X99612548Y-64587999D01*
X100064669Y-64587999D01*
X100071490Y-64587629D01*
X100122352Y-64582105D01*
X100137604Y-64578479D01*
X100258054Y-64533324D01*
X100273649Y-64524786D01*
X100375724Y-64448285D01*
X100388285Y-64435724D01*
X100464786Y-64333649D01*
X100473324Y-64318054D01*
X100518478Y-64197606D01*
X100522105Y-64182351D01*
X100527631Y-64131486D01*
X100528000Y-64124672D01*
X100528000Y-63452115D01*
X100523525Y-63436876D01*
X100522135Y-63435671D01*
X100514452Y-63434000D01*
X99617115Y-63434000D01*
X99601876Y-63438475D01*
X99600671Y-63439865D01*
X99599000Y-63447548D01*
X99599000Y-64569884D01*
X99091000Y-64569884D01*
X99091000Y-62907885D01*
X99599000Y-62907885D01*
X99603475Y-62923124D01*
X99604865Y-62924329D01*
X99612548Y-62926000D01*
X100509884Y-62926000D01*
X100525123Y-62921525D01*
X100526328Y-62920135D01*
X100527999Y-62912452D01*
X100527999Y-62235331D01*
X100527629Y-62228510D01*
X100522105Y-62177648D01*
X100518479Y-62162396D01*
X100473324Y-62041946D01*
X100464786Y-62026351D01*
X100388285Y-61924276D01*
X100375724Y-61911715D01*
X100273649Y-61835214D01*
X100258054Y-61826676D01*
X100137606Y-61781522D01*
X100122351Y-61777895D01*
X100071486Y-61772369D01*
X100064672Y-61772000D01*
X99617115Y-61772000D01*
X99601876Y-61776475D01*
X99600671Y-61777865D01*
X99599000Y-61785548D01*
X99599000Y-62907885D01*
X99091000Y-62907885D01*
X99091000Y-61790116D01*
X99086525Y-61774877D01*
X99085135Y-61773672D01*
X99077452Y-61772001D01*
X98625331Y-61772001D01*
X98618510Y-61772371D01*
X98567648Y-61777895D01*
X98552396Y-61781521D01*
X98431946Y-61826676D01*
X98416351Y-61835214D01*
X98314276Y-61911715D01*
X98301719Y-61924272D01*
X98229827Y-62020198D01*
X98172967Y-62062713D01*
X98102149Y-62067739D01*
X98039855Y-62033679D01*
X98005865Y-61971348D01*
X98003000Y-61944633D01*
X98003000Y-61314000D01*
X98023002Y-61245879D01*
X98076658Y-61199386D01*
X98129000Y-61188000D01*
X103486298Y-61188000D01*
X103487069Y-61188002D01*
X103564652Y-61188476D01*
X103573281Y-61186010D01*
X103573286Y-61186009D01*
X103593048Y-61180361D01*
X103609809Y-61176783D01*
X103630152Y-61173870D01*
X103630162Y-61173867D01*
X103639045Y-61172595D01*
X103662395Y-61161979D01*
X103679907Y-61155536D01*
X103695937Y-61150954D01*
X103704565Y-61148488D01*
X103729548Y-61132726D01*
X103744614Y-61124596D01*
X103771510Y-61112367D01*
X103790939Y-61095626D01*
X103805947Y-61084521D01*
X103820039Y-61075630D01*
X103827631Y-61070840D01*
X103847182Y-61048703D01*
X103859374Y-61036659D01*
X103874949Y-61023239D01*
X103874950Y-61023237D01*
X103881747Y-61017381D01*
X103886626Y-61009853D01*
X103886629Y-61009850D01*
X103895696Y-60995861D01*
X103906986Y-60980987D01*
X103918012Y-60968502D01*
X103923956Y-60961772D01*
X103936510Y-60935034D01*
X103944824Y-60920065D01*
X103960893Y-60895273D01*
X103968239Y-60870709D01*
X103974901Y-60853264D01*
X103981983Y-60838179D01*
X103985799Y-60830052D01*
X103990343Y-60800870D01*
X103994126Y-60784151D01*
X104000014Y-60764464D01*
X104000015Y-60764461D01*
X104002587Y-60755859D01*
X104002797Y-60721444D01*
X104002830Y-60720672D01*
X104003000Y-60719577D01*
X104003000Y-60688702D01*
X104003002Y-60687932D01*
X104003452Y-60614284D01*
X104003452Y-60614283D01*
X104003476Y-60610348D01*
X104003092Y-60609004D01*
X104003000Y-60607659D01*
X104003000Y-40688702D01*
X104003002Y-40687932D01*
X104003367Y-40628147D01*
X104003476Y-40610348D01*
X104001010Y-40601719D01*
X104001009Y-40601714D01*
X103995361Y-40581952D01*
X103991783Y-40565191D01*
X103988870Y-40544848D01*
X103988867Y-40544838D01*
X103987595Y-40535955D01*
X103976979Y-40512605D01*
X103970536Y-40495093D01*
X103965954Y-40479063D01*
X103963488Y-40470435D01*
X103947726Y-40445452D01*
X103939596Y-40430386D01*
X103927367Y-40403490D01*
X103910626Y-40384061D01*
X103899521Y-40369053D01*
X103890630Y-40354961D01*
X103885840Y-40347369D01*
X103863703Y-40327818D01*
X103851659Y-40315626D01*
X103838239Y-40300051D01*
X103838237Y-40300050D01*
X103832381Y-40293253D01*
X103824853Y-40288374D01*
X103824850Y-40288371D01*
X103810861Y-40279304D01*
X103795987Y-40268014D01*
X103783502Y-40256988D01*
X103776772Y-40251044D01*
X103768646Y-40247229D01*
X103768645Y-40247228D01*
X103762979Y-40244568D01*
X103750034Y-40238490D01*
X103735065Y-40230176D01*
X103710273Y-40214107D01*
X103685709Y-40206761D01*
X103668264Y-40200099D01*
X103645052Y-40189201D01*
X103615870Y-40184657D01*
X103599151Y-40180874D01*
X103579464Y-40174986D01*
X103579461Y-40174985D01*
X103570859Y-40172413D01*
X103561884Y-40172358D01*
X103561883Y-40172358D01*
X103555190Y-40172317D01*
X103536444Y-40172203D01*
X103535672Y-40172170D01*
X103534577Y-40172000D01*
X103503702Y-40172000D01*
X103502932Y-40171998D01*
X103429284Y-40171548D01*
X103429283Y-40171548D01*
X103425348Y-40171524D01*
X103424004Y-40171908D01*
X103422659Y-40172000D01*
X98129000Y-40172000D01*
X98060879Y-40151998D01*
X98014386Y-40098342D01*
X98003000Y-40046000D01*
X98003000Y-39515367D01*
X98023002Y-39447246D01*
X98076658Y-39400753D01*
X98146932Y-39390649D01*
X98211512Y-39420143D01*
X98229827Y-39439802D01*
X98301719Y-39535728D01*
X98314276Y-39548285D01*
X98416351Y-39624786D01*
X98431946Y-39633324D01*
X98552394Y-39678478D01*
X98567649Y-39682105D01*
X98618514Y-39687631D01*
X98625328Y-39688000D01*
X99072885Y-39688000D01*
X99088124Y-39683525D01*
X99089329Y-39682135D01*
X99091000Y-39674452D01*
X99091000Y-39669884D01*
X99599000Y-39669884D01*
X99603475Y-39685123D01*
X99604865Y-39686328D01*
X99612548Y-39687999D01*
X100064669Y-39687999D01*
X100071490Y-39687629D01*
X100122352Y-39682105D01*
X100137604Y-39678479D01*
X100258054Y-39633324D01*
X100273649Y-39624786D01*
X100375724Y-39548285D01*
X100388285Y-39535724D01*
X100464786Y-39433649D01*
X100473324Y-39418054D01*
X100518478Y-39297606D01*
X100522105Y-39282351D01*
X100527631Y-39231486D01*
X100527813Y-39228134D01*
X102311500Y-39228134D01*
X102318255Y-39290316D01*
X102369385Y-39426705D01*
X102456739Y-39543261D01*
X102573295Y-39630615D01*
X102709684Y-39681745D01*
X102771866Y-39688500D01*
X104218134Y-39688500D01*
X104280316Y-39681745D01*
X104416705Y-39630615D01*
X104533261Y-39543261D01*
X104620615Y-39426705D01*
X104642171Y-39369204D01*
X104668972Y-39297714D01*
X104668973Y-39297711D01*
X104671745Y-39290316D01*
X104672372Y-39284547D01*
X104707126Y-39223709D01*
X104770081Y-39190887D01*
X104794493Y-39188500D01*
X104965487Y-39188500D01*
X104971939Y-39187128D01*
X104971944Y-39187128D01*
X105058888Y-39168647D01*
X105152288Y-39148794D01*
X105158319Y-39146109D01*
X105320722Y-39073803D01*
X105320724Y-39073802D01*
X105326752Y-39071118D01*
X105481253Y-38958866D01*
X105559032Y-38872484D01*
X105604621Y-38821852D01*
X105604622Y-38821851D01*
X105609040Y-38816944D01*
X105704527Y-38651556D01*
X105763542Y-38469928D01*
X105765067Y-38455425D01*
X105782814Y-38286565D01*
X105783504Y-38280000D01*
X105766236Y-38115700D01*
X105764232Y-38096635D01*
X105764232Y-38096633D01*
X105763542Y-38090072D01*
X105704527Y-37908444D01*
X105609040Y-37743056D01*
X105481253Y-37601134D01*
X105326752Y-37488882D01*
X105320724Y-37486198D01*
X105320722Y-37486197D01*
X105158319Y-37413891D01*
X105158318Y-37413891D01*
X105152288Y-37411206D01*
X105058887Y-37391353D01*
X104971944Y-37372872D01*
X104971939Y-37372872D01*
X104965487Y-37371500D01*
X104794493Y-37371500D01*
X104726372Y-37351498D01*
X104679879Y-37297842D01*
X104672457Y-37276237D01*
X104671745Y-37269684D01*
X104668972Y-37262285D01*
X104623767Y-37141703D01*
X104620615Y-37133295D01*
X104533261Y-37016739D01*
X104416705Y-36929385D01*
X104280316Y-36878255D01*
X104218134Y-36871500D01*
X102771866Y-36871500D01*
X102709684Y-36878255D01*
X102573295Y-36929385D01*
X102456739Y-37016739D01*
X102369385Y-37133295D01*
X102318255Y-37269684D01*
X102311500Y-37331866D01*
X102311500Y-39228134D01*
X100527813Y-39228134D01*
X100528000Y-39224672D01*
X100528000Y-38552115D01*
X100523525Y-38536876D01*
X100522135Y-38535671D01*
X100514452Y-38534000D01*
X99617115Y-38534000D01*
X99601876Y-38538475D01*
X99600671Y-38539865D01*
X99599000Y-38547548D01*
X99599000Y-39669884D01*
X99091000Y-39669884D01*
X99091000Y-38007885D01*
X99599000Y-38007885D01*
X99603475Y-38023124D01*
X99604865Y-38024329D01*
X99612548Y-38026000D01*
X100509884Y-38026000D01*
X100525123Y-38021525D01*
X100526328Y-38020135D01*
X100527999Y-38012452D01*
X100527999Y-37335331D01*
X100527629Y-37328510D01*
X100522105Y-37277648D01*
X100518479Y-37262396D01*
X100473324Y-37141946D01*
X100464786Y-37126351D01*
X100388285Y-37024276D01*
X100375724Y-37011715D01*
X100273649Y-36935214D01*
X100258054Y-36926676D01*
X100137606Y-36881522D01*
X100122351Y-36877895D01*
X100071486Y-36872369D01*
X100064672Y-36872000D01*
X99617115Y-36872000D01*
X99601876Y-36876475D01*
X99600671Y-36877865D01*
X99599000Y-36885548D01*
X99599000Y-38007885D01*
X99091000Y-38007885D01*
X99091000Y-36890116D01*
X99086525Y-36874877D01*
X99085135Y-36873672D01*
X99077452Y-36872001D01*
X98625331Y-36872001D01*
X98618510Y-36872371D01*
X98567648Y-36877895D01*
X98552396Y-36881521D01*
X98431946Y-36926676D01*
X98416351Y-36935214D01*
X98314276Y-37011715D01*
X98301719Y-37024272D01*
X98229827Y-37120198D01*
X98172967Y-37162713D01*
X98102149Y-37167739D01*
X98039855Y-37133679D01*
X98005865Y-37071348D01*
X98003000Y-37044633D01*
X98003000Y-36314000D01*
X98023002Y-36245879D01*
X98076658Y-36199386D01*
X98129000Y-36188000D01*
X111147261Y-36188000D01*
X111215382Y-36208002D01*
G37*
%TD.AperFunction*%
%TA.AperFunction,Conductor*%
G36*
X107868191Y-61831003D02*
G01*
X107918534Y-61845629D01*
X107924941Y-61846133D01*
X107924945Y-61846134D01*
X107952556Y-61848307D01*
X107952562Y-61848307D01*
X107955011Y-61848500D01*
X107963207Y-61848500D01*
X108265501Y-61848499D01*
X108333620Y-61868501D01*
X108380113Y-61922156D01*
X108391500Y-61974498D01*
X108391501Y-62217999D01*
X108371499Y-62286120D01*
X108317844Y-62332613D01*
X108265501Y-62344000D01*
X107472115Y-62344000D01*
X107456876Y-62348475D01*
X107455671Y-62349865D01*
X107454000Y-62357548D01*
X107454000Y-62848424D01*
X107458344Y-62863219D01*
X107468775Y-62865063D01*
X107478359Y-62863312D01*
X107621784Y-62821643D01*
X107643497Y-62812247D01*
X107644621Y-62814845D01*
X107700348Y-62800701D01*
X107747658Y-62814589D01*
X107748508Y-62812624D01*
X107770217Y-62822019D01*
X107918613Y-62865132D01*
X107917842Y-62867784D01*
X107970474Y-62894287D01*
X108006555Y-62955431D01*
X108009705Y-62999470D01*
X108006496Y-63030000D01*
X108007186Y-63036565D01*
X108011996Y-63082330D01*
X107999224Y-63152168D01*
X107950722Y-63204015D01*
X107886686Y-63221500D01*
X107192804Y-63221500D01*
X107124683Y-63201498D01*
X107078190Y-63147842D01*
X107067494Y-63082330D01*
X107082814Y-62936565D01*
X107083504Y-62930000D01*
X107076965Y-62867784D01*
X107064232Y-62746635D01*
X107064232Y-62746633D01*
X107063542Y-62740072D01*
X107004527Y-62558444D01*
X107001226Y-62552726D01*
X106997276Y-62545884D01*
X106980538Y-62476889D01*
X106985398Y-62447731D01*
X106993013Y-62421522D01*
X107020629Y-62326466D01*
X107022048Y-62308444D01*
X107023307Y-62292444D01*
X107023307Y-62292438D01*
X107023500Y-62289989D01*
X107023499Y-62034499D01*
X107043501Y-61966380D01*
X107097156Y-61919887D01*
X107149499Y-61908500D01*
X107435484Y-61908500D01*
X107437932Y-61908307D01*
X107437940Y-61908307D01*
X107465844Y-61906111D01*
X107465849Y-61906110D01*
X107472254Y-61905606D01*
X107597672Y-61869169D01*
X107621984Y-61862106D01*
X107621986Y-61862105D01*
X107629597Y-61859894D01*
X107657240Y-61843546D01*
X107721379Y-61826000D01*
X107833038Y-61826000D01*
X107868191Y-61831003D01*
G37*
%TD.AperFunction*%
%TA.AperFunction,Conductor*%
G36*
X115333315Y-54006400D02*
G01*
X115390151Y-54048947D01*
X115409115Y-54085519D01*
X115428281Y-54144504D01*
X115431584Y-54150226D01*
X115431585Y-54150227D01*
X115463208Y-54205000D01*
X115523768Y-54309892D01*
X115528186Y-54314799D01*
X115528187Y-54314800D01*
X115591031Y-54384595D01*
X115651555Y-54451814D01*
X115806056Y-54564066D01*
X115812084Y-54566750D01*
X115812086Y-54566751D01*
X115866225Y-54590855D01*
X115980520Y-54641742D01*
X116073920Y-54661595D01*
X116160864Y-54680076D01*
X116160869Y-54680076D01*
X116167321Y-54681448D01*
X116258569Y-54681448D01*
X116326690Y-54701450D01*
X116347664Y-54718353D01*
X116481055Y-54851744D01*
X116515081Y-54914056D01*
X116510016Y-54984871D01*
X116467469Y-55041707D01*
X116418158Y-55064085D01*
X116368639Y-55074611D01*
X116368630Y-55074614D01*
X116362175Y-55075986D01*
X116356145Y-55078671D01*
X116356144Y-55078671D01*
X116193741Y-55150977D01*
X116193739Y-55150978D01*
X116187711Y-55153662D01*
X116033210Y-55265914D01*
X116028789Y-55270824D01*
X116028788Y-55270825D01*
X115929682Y-55380894D01*
X115905423Y-55407836D01*
X115809936Y-55573224D01*
X115750921Y-55754852D01*
X115750231Y-55761413D01*
X115750231Y-55761415D01*
X115733517Y-55920446D01*
X115730959Y-55944780D01*
X115731649Y-55951345D01*
X115740554Y-56036067D01*
X115750921Y-56134708D01*
X115809936Y-56316336D01*
X115814614Y-56324438D01*
X115819269Y-56332501D01*
X115836006Y-56401497D01*
X115812785Y-56468589D01*
X115756977Y-56512475D01*
X115710149Y-56521500D01*
X115621866Y-56521500D01*
X115559684Y-56528255D01*
X115423295Y-56579385D01*
X115306739Y-56666739D01*
X115270824Y-56714660D01*
X115213967Y-56757173D01*
X115143149Y-56762199D01*
X115080855Y-56728139D01*
X115069183Y-56714670D01*
X115033261Y-56666739D01*
X114916705Y-56579385D01*
X114900188Y-56573193D01*
X114860270Y-56558228D01*
X114803505Y-56515586D01*
X114778806Y-56449024D01*
X114778500Y-56440246D01*
X114778500Y-54509239D01*
X114798502Y-54441118D01*
X114815405Y-54420144D01*
X115200188Y-54035361D01*
X115262500Y-54001335D01*
X115333315Y-54006400D01*
G37*
%TD.AperFunction*%
%TA.AperFunction,Conductor*%
G36*
X129757666Y-52166002D02*
G01*
X129804159Y-52219658D01*
X129813669Y-52250338D01*
X129823261Y-52305300D01*
X129824223Y-52311821D01*
X129831898Y-52375242D01*
X129834581Y-52382343D01*
X129835222Y-52384952D01*
X129839685Y-52401263D01*
X129840451Y-52403800D01*
X129841757Y-52411284D01*
X129842068Y-52411993D01*
X129842585Y-52480079D01*
X129804656Y-52540095D01*
X129740301Y-52570078D01*
X129721423Y-52571500D01*
X129364516Y-52571500D01*
X129362068Y-52571693D01*
X129362060Y-52571693D01*
X129334156Y-52573889D01*
X129334151Y-52573890D01*
X129327746Y-52574394D01*
X129256327Y-52595143D01*
X129178016Y-52617894D01*
X129178014Y-52617895D01*
X129170403Y-52620106D01*
X129163581Y-52624141D01*
X129163580Y-52624141D01*
X129142760Y-52636454D01*
X129078621Y-52654000D01*
X129001379Y-52654000D01*
X128937240Y-52636454D01*
X128916420Y-52624141D01*
X128916419Y-52624141D01*
X128909597Y-52620106D01*
X128901986Y-52617895D01*
X128901984Y-52617894D01*
X128823673Y-52595143D01*
X128752254Y-52574394D01*
X128745849Y-52573890D01*
X128745844Y-52573889D01*
X128717940Y-52571693D01*
X128717932Y-52571693D01*
X128715484Y-52571500D01*
X128604020Y-52571500D01*
X128535899Y-52551498D01*
X128489406Y-52497842D01*
X128478020Y-52445500D01*
X128478020Y-52272000D01*
X128498022Y-52203879D01*
X128551678Y-52157386D01*
X128604020Y-52146000D01*
X129689545Y-52146000D01*
X129757666Y-52166002D01*
G37*
%TD.AperFunction*%
%TA.AperFunction,Conductor*%
G36*
X131653621Y-42108502D02*
G01*
X131700114Y-42162158D01*
X131711500Y-42214500D01*
X131711500Y-42245500D01*
X131691498Y-42313621D01*
X131637842Y-42360114D01*
X131585500Y-42371500D01*
X131524513Y-42371500D01*
X131518061Y-42372872D01*
X131518056Y-42372872D01*
X131490197Y-42378794D01*
X131419406Y-42373392D01*
X131362773Y-42330575D01*
X131338280Y-42263937D01*
X131338000Y-42255547D01*
X131338000Y-42214500D01*
X131358002Y-42146379D01*
X131411658Y-42099886D01*
X131464000Y-42088500D01*
X131585500Y-42088500D01*
X131653621Y-42108502D01*
G37*
%TD.AperFunction*%
%TA.AperFunction,Conductor*%
G36*
X127668262Y-37987558D02*
G01*
X127684867Y-37989194D01*
X127688960Y-37989665D01*
X127711812Y-37992673D01*
X127711813Y-37992673D01*
X127720002Y-37993751D01*
X127751697Y-37989578D01*
X127768144Y-37988500D01*
X136425203Y-37988500D01*
X136493324Y-38008502D01*
X136539817Y-38062158D01*
X136549921Y-38132432D01*
X136535618Y-38175201D01*
X136488567Y-38260787D01*
X136486706Y-38266654D01*
X136486705Y-38266656D01*
X136439984Y-38413940D01*
X136428765Y-38449306D01*
X136406719Y-38645851D01*
X136409987Y-38684771D01*
X136422612Y-38835118D01*
X136423268Y-38842934D01*
X136477783Y-39033050D01*
X136500649Y-39077542D01*
X136531672Y-39137905D01*
X136545020Y-39207635D01*
X136518550Y-39273513D01*
X136460666Y-39314622D01*
X136419606Y-39321500D01*
X121018136Y-39321500D01*
X121001690Y-39320422D01*
X120978188Y-39317328D01*
X120970000Y-39316250D01*
X120961812Y-39317328D01*
X120930129Y-39321499D01*
X120930120Y-39321500D01*
X120930115Y-39321500D01*
X120811150Y-39337162D01*
X120663125Y-39398476D01*
X120663123Y-39398477D01*
X120663124Y-39398477D01*
X120567928Y-39471523D01*
X120567925Y-39471526D01*
X120536013Y-39496013D01*
X120530983Y-39502568D01*
X120516548Y-39521379D01*
X120505681Y-39533770D01*
X119963594Y-40075857D01*
X119901282Y-40109883D01*
X119830467Y-40104818D01*
X119773631Y-40062271D01*
X119748820Y-39995751D01*
X119748499Y-39986762D01*
X119748499Y-39890012D01*
X119745629Y-39853534D01*
X119700269Y-39697404D01*
X119668477Y-39643647D01*
X119651018Y-39574834D01*
X119668478Y-39515370D01*
X119695771Y-39469220D01*
X119702019Y-39454783D01*
X119734961Y-39341395D01*
X119734921Y-39327295D01*
X119727651Y-39324000D01*
X119257542Y-39324000D01*
X119222390Y-39318997D01*
X119212647Y-39316166D01*
X119212640Y-39316165D01*
X119206466Y-39314371D01*
X119200059Y-39313867D01*
X119200055Y-39313866D01*
X119172444Y-39311693D01*
X119172438Y-39311693D01*
X119169989Y-39311500D01*
X118920152Y-39311500D01*
X118670012Y-39311501D01*
X118633534Y-39314371D01*
X118627352Y-39316167D01*
X118627347Y-39316168D01*
X118617610Y-39318997D01*
X118582458Y-39324000D01*
X118118100Y-39324000D01*
X118104569Y-39327973D01*
X118103434Y-39335871D01*
X118137981Y-39454783D01*
X118144229Y-39469220D01*
X118171522Y-39515370D01*
X118188982Y-39584187D01*
X118171523Y-39643646D01*
X118139731Y-39697404D01*
X118094371Y-39853534D01*
X118093867Y-39859941D01*
X118093866Y-39859945D01*
X118091693Y-39887556D01*
X118091500Y-39890011D01*
X118091501Y-40289988D01*
X118094371Y-40326466D01*
X118122797Y-40424308D01*
X118122594Y-40495304D01*
X118090895Y-40548556D01*
X117773766Y-40865685D01*
X117761375Y-40876552D01*
X117736013Y-40896013D01*
X117711526Y-40927925D01*
X117711523Y-40927928D01*
X117711517Y-40927936D01*
X117644387Y-41015421D01*
X117638476Y-41023124D01*
X117585728Y-41150470D01*
X117577162Y-41171150D01*
X117576084Y-41179338D01*
X117566184Y-41254534D01*
X117537461Y-41319461D01*
X117485491Y-41356069D01*
X117423295Y-41379385D01*
X117416116Y-41384765D01*
X117416113Y-41384767D01*
X117347699Y-41436041D01*
X117306739Y-41466739D01*
X117270824Y-41514660D01*
X117213967Y-41557173D01*
X117143149Y-41562199D01*
X117080855Y-41528139D01*
X117069183Y-41514670D01*
X117033261Y-41466739D01*
X116984728Y-41430365D01*
X116947003Y-41402092D01*
X116904488Y-41345233D01*
X116899462Y-41274414D01*
X116922606Y-41224561D01*
X116933965Y-41209758D01*
X116946498Y-41193425D01*
X116951524Y-41186875D01*
X116961189Y-41163543D01*
X117009678Y-41046479D01*
X117012838Y-41038850D01*
X117015923Y-41015421D01*
X117028500Y-40919885D01*
X117028500Y-40919878D01*
X117032672Y-40888188D01*
X117033750Y-40880000D01*
X117029578Y-40848307D01*
X117028500Y-40831864D01*
X117028500Y-40763737D01*
X117048502Y-40695616D01*
X117065405Y-40674642D01*
X117117506Y-40622541D01*
X117121540Y-40615720D01*
X117196234Y-40489419D01*
X117196234Y-40489418D01*
X117200269Y-40482596D01*
X117211058Y-40445462D01*
X117243834Y-40332644D01*
X117245629Y-40326466D01*
X117246135Y-40320047D01*
X117248307Y-40292444D01*
X117248307Y-40292438D01*
X117248500Y-40289989D01*
X117248499Y-39890012D01*
X117245629Y-39853534D01*
X117200269Y-39697404D01*
X117196233Y-39690579D01*
X117196231Y-39690575D01*
X117168769Y-39644139D01*
X117151309Y-39575323D01*
X117168769Y-39515861D01*
X117196231Y-39469425D01*
X117196233Y-39469421D01*
X117200269Y-39462596D01*
X117245629Y-39306466D01*
X117246327Y-39297606D01*
X117248307Y-39272444D01*
X117248307Y-39272438D01*
X117248500Y-39269989D01*
X117248499Y-38870012D01*
X117245629Y-38833534D01*
X117235481Y-38798605D01*
X118105039Y-38798605D01*
X118105079Y-38812705D01*
X118112349Y-38816000D01*
X118647885Y-38816000D01*
X118663124Y-38811525D01*
X118664329Y-38810135D01*
X118666000Y-38802452D01*
X118666000Y-38797885D01*
X119174000Y-38797885D01*
X119178475Y-38813124D01*
X119179865Y-38814329D01*
X119187548Y-38816000D01*
X119721900Y-38816000D01*
X119735431Y-38812027D01*
X119736566Y-38804129D01*
X119702019Y-38685217D01*
X119695770Y-38670778D01*
X119621146Y-38544595D01*
X119611499Y-38532159D01*
X119507841Y-38428501D01*
X119495405Y-38418854D01*
X119369222Y-38344230D01*
X119354783Y-38337981D01*
X119212564Y-38296662D01*
X119199977Y-38294363D01*
X119192057Y-38293740D01*
X119176970Y-38296910D01*
X119174000Y-38308374D01*
X119174000Y-38797885D01*
X118666000Y-38797885D01*
X118666000Y-38310434D01*
X118661656Y-38295639D01*
X118649997Y-38293579D01*
X118640023Y-38294363D01*
X118627436Y-38296662D01*
X118485217Y-38337981D01*
X118470778Y-38344230D01*
X118344595Y-38418854D01*
X118332159Y-38428501D01*
X118228501Y-38532159D01*
X118218854Y-38544595D01*
X118144230Y-38670778D01*
X118137981Y-38685217D01*
X118105039Y-38798605D01*
X117235481Y-38798605D01*
X117200269Y-38677404D01*
X117149743Y-38591968D01*
X117121540Y-38544280D01*
X117117506Y-38537459D01*
X117002541Y-38422494D01*
X116944090Y-38387926D01*
X116869419Y-38343766D01*
X116869418Y-38343766D01*
X116862596Y-38339731D01*
X116854985Y-38337520D01*
X116854983Y-38337519D01*
X116761755Y-38310434D01*
X116706466Y-38294371D01*
X116700059Y-38293867D01*
X116700055Y-38293866D01*
X116672444Y-38291693D01*
X116672438Y-38291693D01*
X116669989Y-38291500D01*
X116420152Y-38291500D01*
X116170012Y-38291501D01*
X116133534Y-38294371D01*
X116036730Y-38322495D01*
X115985017Y-38337519D01*
X115985015Y-38337520D01*
X115977404Y-38339731D01*
X115970577Y-38343769D01*
X115970576Y-38343769D01*
X115970264Y-38343953D01*
X115969953Y-38344038D01*
X115963305Y-38346915D01*
X115962896Y-38345969D01*
X115906125Y-38361500D01*
X115741405Y-38361500D01*
X115673284Y-38341498D01*
X115667344Y-38337436D01*
X115592094Y-38282763D01*
X115592093Y-38282762D01*
X115586752Y-38278882D01*
X115580724Y-38276198D01*
X115580722Y-38276197D01*
X115476078Y-38229607D01*
X115421982Y-38183627D01*
X115401333Y-38115700D01*
X115420685Y-38047392D01*
X115473896Y-38000390D01*
X115527327Y-37988500D01*
X124333704Y-37988500D01*
X124401825Y-38008502D01*
X124448318Y-38062158D01*
X124458626Y-38098055D01*
X124459374Y-38103737D01*
X124459844Y-38107821D01*
X124474645Y-38258097D01*
X124526594Y-38429350D01*
X124529510Y-38434805D01*
X124529511Y-38434808D01*
X124569886Y-38510344D01*
X124610955Y-38587178D01*
X124614886Y-38591968D01*
X124663789Y-38651556D01*
X124724485Y-38725515D01*
X124729270Y-38729442D01*
X124835892Y-38816944D01*
X124862822Y-38839045D01*
X124868285Y-38841965D01*
X125015192Y-38920489D01*
X125015195Y-38920490D01*
X125020650Y-38923406D01*
X125191903Y-38975355D01*
X125342179Y-38990156D01*
X125346243Y-38990624D01*
X125370000Y-38993751D01*
X125393757Y-38990624D01*
X125397821Y-38990156D01*
X125548097Y-38975355D01*
X125719350Y-38923406D01*
X125724805Y-38920490D01*
X125724808Y-38920489D01*
X125871719Y-38841963D01*
X125871720Y-38841963D01*
X125877178Y-38839045D01*
X125890066Y-38828468D01*
X125955413Y-38800714D01*
X126025391Y-38812696D01*
X126049933Y-38828468D01*
X126062822Y-38839045D01*
X126068280Y-38841963D01*
X126068281Y-38841963D01*
X126215192Y-38920489D01*
X126215195Y-38920490D01*
X126220650Y-38923406D01*
X126391903Y-38975355D01*
X126542179Y-38990156D01*
X126546243Y-38990624D01*
X126570000Y-38993751D01*
X126593757Y-38990624D01*
X126597821Y-38990156D01*
X126748097Y-38975355D01*
X126919350Y-38923406D01*
X126924805Y-38920490D01*
X126924808Y-38920489D01*
X127071715Y-38841965D01*
X127077178Y-38839045D01*
X127104108Y-38816944D01*
X127210730Y-38729442D01*
X127215515Y-38725515D01*
X127276212Y-38651556D01*
X127325114Y-38591968D01*
X127329045Y-38587178D01*
X127370114Y-38510344D01*
X127410489Y-38434808D01*
X127410490Y-38434805D01*
X127413406Y-38429350D01*
X127465355Y-38258097D01*
X127480156Y-38107821D01*
X127480619Y-38103796D01*
X127482211Y-38091701D01*
X127510930Y-38026777D01*
X127570193Y-37987683D01*
X127619482Y-37982754D01*
X127668262Y-37987558D01*
G37*
%TD.AperFunction*%
%TD*%
M02*
