%TF.GenerationSoftware,KiCad,Pcbnew,(6.0.0)*%
%TF.CreationDate,2022-02-12T21:10:29+08:00*%
%TF.ProjectId,USB-TTL-V1,5553422d-5454-44c2-9d56-312e6b696361,rev?*%
%TF.SameCoordinates,Original*%
%TF.FileFunction,Copper,L4,Bot*%
%TF.FilePolarity,Positive*%
%FSLAX46Y46*%
G04 Gerber Fmt 4.6, Leading zero omitted, Abs format (unit mm)*
G04 Created by KiCad (PCBNEW (6.0.0)) date 2022-02-12 21:10:29*
%MOMM*%
%LPD*%
G01*
G04 APERTURE LIST*
%TA.AperFunction,ComponentPad*%
%ADD10O,1.600000X1.000000*%
%TD*%
%TA.AperFunction,ComponentPad*%
%ADD11O,2.100000X1.000000*%
%TD*%
%TA.AperFunction,ComponentPad*%
%ADD12R,1.000000X1.000000*%
%TD*%
%TA.AperFunction,ComponentPad*%
%ADD13O,1.000000X1.000000*%
%TD*%
%TA.AperFunction,ViaPad*%
%ADD14C,0.450000*%
%TD*%
%TA.AperFunction,Conductor*%
%ADD15C,0.200000*%
%TD*%
G04 APERTURE END LIST*
D10*
%TO.P,J2,S1,SHIELD*%
%TO.N,GND*%
X105460000Y-91610000D03*
D11*
X109640000Y-91610000D03*
D10*
X105460000Y-82970000D03*
D11*
X109640000Y-82970000D03*
%TD*%
D12*
%TO.P,J1,1,Pin_1*%
%TO.N,+3V3*%
X131720000Y-84115000D03*
D13*
%TO.P,J1,2,Pin_2*%
%TO.N,GND*%
X131720000Y-85385000D03*
%TO.P,J1,3,Pin_3*%
%TO.N,/RST*%
X131720000Y-86655000D03*
%TO.P,J1,4,Pin_4*%
%TO.N,/GPIO0*%
X131720000Y-87925000D03*
%TO.P,J1,5,Pin_5*%
%TO.N,/RXD*%
X131720000Y-89195000D03*
%TO.P,J1,6,Pin_6*%
%TO.N,/TXD*%
X131720000Y-90465000D03*
%TD*%
D14*
%TO.N,GND*%
X129920000Y-88500000D03*
X129920000Y-87300000D03*
X129920000Y-85990000D03*
X129920000Y-85000000D03*
X130210556Y-83401331D03*
X132120000Y-82440000D03*
X131230000Y-82440000D03*
X130250000Y-82440000D03*
X120480000Y-83710000D03*
X119740000Y-83700000D03*
X119010000Y-83690000D03*
X114300000Y-83740000D03*
X115410000Y-82420000D03*
X114620000Y-82410000D03*
X113970000Y-92150000D03*
X111320000Y-92310000D03*
X111080000Y-91610000D03*
X106720000Y-88410000D03*
X106120000Y-88410000D03*
X105520000Y-88410000D03*
X104920000Y-88410000D03*
X104320000Y-88410000D03*
X106720000Y-87810000D03*
X106120000Y-87810000D03*
X105520000Y-87810000D03*
X104920000Y-87810000D03*
X104320000Y-87810000D03*
X106720000Y-87210000D03*
X106120000Y-87210000D03*
X105520000Y-87210000D03*
X104920000Y-87210000D03*
X104320000Y-87210000D03*
X106720000Y-86610000D03*
X106120000Y-86610000D03*
X105520000Y-86610000D03*
X104920000Y-86610000D03*
X104320000Y-86610000D03*
X106720000Y-86010000D03*
X106120000Y-86010000D03*
X105520000Y-86010000D03*
X104920000Y-86010000D03*
X104330000Y-86020000D03*
X120470000Y-83030000D03*
X119730000Y-83030000D03*
X119010000Y-83010000D03*
X120410000Y-82340000D03*
X119710000Y-82340000D03*
X118960000Y-82350000D03*
X129310000Y-82440000D03*
X129340000Y-83400000D03*
X126140000Y-83310000D03*
X126130000Y-82540000D03*
%TO.N,/GPIO0*%
X127830000Y-91920000D03*
%TO.N,/TXD*%
X124975000Y-90708568D03*
X125010000Y-86580000D03*
%TO.N,/RXD*%
X125800000Y-85510000D03*
X125760000Y-88790000D03*
%TO.N,Net-(Q1-Pad1)*%
X126830000Y-86730000D03*
X126860000Y-85160000D03*
%TO.N,+3V3*%
X125000000Y-92080000D03*
X125000000Y-87965712D03*
X123990000Y-83861428D03*
X122390000Y-83005000D03*
X117190000Y-86815000D03*
%TO.N,GND*%
X115590000Y-87724500D03*
X115570000Y-86630000D03*
%TO.N,Net-(J2-PadA6)*%
X117190000Y-88085000D03*
X112060000Y-87260000D03*
%TO.N,Net-(J2-PadA7)*%
X117190000Y-89340000D03*
X109310000Y-88070000D03*
%TD*%
D15*
%TO.N,Net-(J2-PadA7)*%
X115953129Y-88103129D02*
X117190000Y-89340000D01*
X115372743Y-88249001D02*
X115807257Y-88249001D01*
X115193742Y-88070000D02*
X115372743Y-88249001D01*
X109310000Y-88070000D02*
X115193742Y-88070000D01*
%TO.N,Net-(J2-PadA6)*%
X112120000Y-87200000D02*
X112060000Y-87260000D01*
X116305000Y-87200000D02*
X112120000Y-87200000D01*
X117190000Y-88085000D02*
X116305000Y-87200000D01*
%TO.N,Net-(J2-PadA7)*%
X115807257Y-88249001D02*
X115953129Y-88103129D01*
%TO.N,/RXD*%
X130265000Y-89195000D02*
X131720000Y-89195000D01*
X129860000Y-88790000D02*
X130265000Y-89195000D01*
X125760000Y-88790000D02*
X129860000Y-88790000D01*
X125760000Y-85550000D02*
X125760000Y-88790000D01*
X125800000Y-85510000D02*
X125760000Y-85550000D01*
%TO.N,/TXD*%
X124975000Y-90675000D02*
X124975000Y-90708568D01*
X124060000Y-87530000D02*
X124060000Y-89760000D01*
X124060000Y-89760000D02*
X124975000Y-90675000D01*
X125010000Y-86580000D02*
X124060000Y-87530000D01*
%TO.N,Net-(Q1-Pad1)*%
X126860000Y-86700000D02*
X126830000Y-86730000D01*
X126860000Y-85160000D02*
X126860000Y-86700000D01*
%TD*%
%TA.AperFunction,Conductor*%
%TO.N,GND*%
G36*
X104737269Y-81788907D02*
G01*
X104773233Y-81838407D01*
X104773233Y-81899593D01*
X104737269Y-81949093D01*
X104724407Y-81957013D01*
X104567220Y-82037969D01*
X104559329Y-82043036D01*
X104401676Y-82166874D01*
X104394878Y-82173347D01*
X104263488Y-82324761D01*
X104258037Y-82332403D01*
X104157648Y-82505932D01*
X104153746Y-82514454D01*
X104104875Y-82655189D01*
X104104654Y-82666213D01*
X104115922Y-82670000D01*
X106803523Y-82670000D01*
X106815625Y-82666068D01*
X106815990Y-82656667D01*
X106805907Y-82614829D01*
X106802852Y-82605957D01*
X106719874Y-82423459D01*
X106715198Y-82415326D01*
X106599209Y-82251811D01*
X106593080Y-82244711D01*
X106448262Y-82106077D01*
X106440899Y-82100263D01*
X106272477Y-81991513D01*
X106264161Y-81987202D01*
X106198708Y-81960824D01*
X106151803Y-81921536D01*
X106136949Y-81862181D01*
X106159820Y-81805430D01*
X106211680Y-81772962D01*
X106235714Y-81770000D01*
X108609078Y-81770000D01*
X108667269Y-81788907D01*
X108703233Y-81838407D01*
X108703233Y-81899593D01*
X108667269Y-81949093D01*
X108654407Y-81957013D01*
X108497220Y-82037969D01*
X108489329Y-82043036D01*
X108331676Y-82166874D01*
X108324878Y-82173347D01*
X108193488Y-82324761D01*
X108188037Y-82332403D01*
X108087648Y-82505932D01*
X108083746Y-82514454D01*
X108034875Y-82655189D01*
X108034654Y-82666213D01*
X108045922Y-82670000D01*
X111233523Y-82670000D01*
X111245625Y-82666068D01*
X111245990Y-82656667D01*
X111235907Y-82614829D01*
X111232852Y-82605957D01*
X111149874Y-82423459D01*
X111145198Y-82415326D01*
X111029209Y-82251811D01*
X111023080Y-82244711D01*
X110878262Y-82106077D01*
X110870899Y-82100263D01*
X110702477Y-81991513D01*
X110694161Y-81987202D01*
X110628708Y-81960824D01*
X110581803Y-81921536D01*
X110566949Y-81862181D01*
X110589820Y-81805430D01*
X110641680Y-81772962D01*
X110665714Y-81770000D01*
X133041000Y-81770000D01*
X133099191Y-81788907D01*
X133135155Y-81838407D01*
X133140000Y-81869000D01*
X133140000Y-92571000D01*
X133121093Y-92629191D01*
X133071593Y-92665155D01*
X133041000Y-92670000D01*
X125191670Y-92670000D01*
X125133479Y-92651093D01*
X125097515Y-92601593D01*
X125097515Y-92540407D01*
X125133479Y-92490907D01*
X125146725Y-92482790D01*
X125246281Y-92432064D01*
X125246283Y-92432063D01*
X125253220Y-92428528D01*
X125348528Y-92333220D01*
X125388262Y-92255239D01*
X125406183Y-92220066D01*
X125406183Y-92220065D01*
X125409719Y-92213126D01*
X125415168Y-92178726D01*
X125429585Y-92087696D01*
X125430804Y-92080000D01*
X125409719Y-91946874D01*
X125396026Y-91920000D01*
X127399196Y-91920000D01*
X127400415Y-91927696D01*
X127407756Y-91974043D01*
X127420281Y-92053126D01*
X127423817Y-92060065D01*
X127423817Y-92060066D01*
X127477118Y-92164674D01*
X127481472Y-92173220D01*
X127576780Y-92268528D01*
X127583717Y-92272063D01*
X127583719Y-92272064D01*
X127689934Y-92326183D01*
X127696874Y-92329719D01*
X127704568Y-92330938D01*
X127704569Y-92330938D01*
X127822304Y-92349585D01*
X127830000Y-92350804D01*
X127837696Y-92349585D01*
X127955431Y-92330938D01*
X127955432Y-92330938D01*
X127963126Y-92329719D01*
X127970066Y-92326183D01*
X128076281Y-92272064D01*
X128076283Y-92272063D01*
X128083220Y-92268528D01*
X128178528Y-92173220D01*
X128182883Y-92164674D01*
X128236183Y-92060066D01*
X128236183Y-92060065D01*
X128239719Y-92053126D01*
X128252245Y-91974043D01*
X128259585Y-91927696D01*
X128260804Y-91920000D01*
X128254947Y-91883022D01*
X128240938Y-91794569D01*
X128240938Y-91794568D01*
X128239719Y-91786874D01*
X128178528Y-91666780D01*
X128083220Y-91571472D01*
X128076283Y-91567937D01*
X128076281Y-91567936D01*
X127970066Y-91513817D01*
X127970065Y-91513817D01*
X127963126Y-91510281D01*
X127955432Y-91509062D01*
X127955431Y-91509062D01*
X127837696Y-91490415D01*
X127830000Y-91489196D01*
X127822304Y-91490415D01*
X127704569Y-91509062D01*
X127704568Y-91509062D01*
X127696874Y-91510281D01*
X127689935Y-91513817D01*
X127689934Y-91513817D01*
X127583719Y-91567936D01*
X127583717Y-91567937D01*
X127576780Y-91571472D01*
X127481472Y-91666780D01*
X127420281Y-91786874D01*
X127419062Y-91794568D01*
X127419062Y-91794569D01*
X127405053Y-91883022D01*
X127399196Y-91920000D01*
X125396026Y-91920000D01*
X125348528Y-91826780D01*
X125253220Y-91731472D01*
X125246283Y-91727937D01*
X125246281Y-91727936D01*
X125140066Y-91673817D01*
X125140065Y-91673817D01*
X125133126Y-91670281D01*
X125125432Y-91669062D01*
X125125431Y-91669062D01*
X125007696Y-91650415D01*
X125000000Y-91649196D01*
X124992304Y-91650415D01*
X124874569Y-91669062D01*
X124874568Y-91669062D01*
X124866874Y-91670281D01*
X124859935Y-91673817D01*
X124859934Y-91673817D01*
X124753719Y-91727936D01*
X124753717Y-91727937D01*
X124746780Y-91731472D01*
X124651472Y-91826780D01*
X124590281Y-91946874D01*
X124569196Y-92080000D01*
X124570415Y-92087696D01*
X124584833Y-92178726D01*
X124590281Y-92213126D01*
X124593817Y-92220065D01*
X124593817Y-92220066D01*
X124611739Y-92255239D01*
X124651472Y-92333220D01*
X124746780Y-92428528D01*
X124753717Y-92432063D01*
X124753719Y-92432064D01*
X124853275Y-92482790D01*
X124896540Y-92526055D01*
X124906111Y-92586487D01*
X124878334Y-92641004D01*
X124823817Y-92668781D01*
X124808330Y-92670000D01*
X110907608Y-92670000D01*
X110849417Y-92651093D01*
X110813453Y-92601593D01*
X110813453Y-92540407D01*
X110846453Y-92493147D01*
X110948324Y-92413126D01*
X110955122Y-92406653D01*
X111086512Y-92255239D01*
X111091963Y-92247597D01*
X111192352Y-92074068D01*
X111196254Y-92065546D01*
X111245125Y-91924811D01*
X111245346Y-91913787D01*
X111234078Y-91910000D01*
X108046477Y-91910000D01*
X108034375Y-91913932D01*
X108034010Y-91923333D01*
X108044093Y-91965171D01*
X108047148Y-91974043D01*
X108130126Y-92156541D01*
X108134802Y-92164674D01*
X108250791Y-92328189D01*
X108256920Y-92335289D01*
X108401738Y-92473923D01*
X108409101Y-92479737D01*
X108421636Y-92487831D01*
X108460265Y-92535280D01*
X108463627Y-92596372D01*
X108430438Y-92647774D01*
X108367934Y-92670000D01*
X106477608Y-92670000D01*
X106419417Y-92651093D01*
X106383453Y-92601593D01*
X106383453Y-92540407D01*
X106416453Y-92493147D01*
X106518324Y-92413126D01*
X106525122Y-92406653D01*
X106656512Y-92255239D01*
X106661963Y-92247597D01*
X106762352Y-92074068D01*
X106766254Y-92065546D01*
X106815125Y-91924811D01*
X106815346Y-91913787D01*
X106804078Y-91910000D01*
X104116477Y-91910000D01*
X104104375Y-91913932D01*
X104104010Y-91923333D01*
X104114093Y-91965171D01*
X104117148Y-91974043D01*
X104200126Y-92156541D01*
X104204802Y-92164674D01*
X104320791Y-92328189D01*
X104326920Y-92335289D01*
X104471738Y-92473923D01*
X104479101Y-92479737D01*
X104491636Y-92487831D01*
X104530265Y-92535280D01*
X104533627Y-92596372D01*
X104500438Y-92647774D01*
X104437934Y-92670000D01*
X102715000Y-92670000D01*
X102656809Y-92651093D01*
X102620845Y-92601593D01*
X102616000Y-92571000D01*
X102616000Y-91306213D01*
X104104654Y-91306213D01*
X104115922Y-91310000D01*
X105144320Y-91310000D01*
X105157005Y-91305878D01*
X105160000Y-91301757D01*
X105160000Y-91294320D01*
X105760000Y-91294320D01*
X105764122Y-91307005D01*
X105768243Y-91310000D01*
X106803523Y-91310000D01*
X106815179Y-91306213D01*
X108034654Y-91306213D01*
X108045922Y-91310000D01*
X109324320Y-91310000D01*
X109337005Y-91305878D01*
X109340000Y-91301757D01*
X109340000Y-91294320D01*
X109940000Y-91294320D01*
X109944122Y-91307005D01*
X109948243Y-91310000D01*
X111233523Y-91310000D01*
X111245625Y-91306068D01*
X111245990Y-91296667D01*
X111235907Y-91254829D01*
X111232852Y-91245957D01*
X111149874Y-91063459D01*
X111145198Y-91055326D01*
X111029209Y-90891811D01*
X111023080Y-90884711D01*
X110878262Y-90746077D01*
X110870899Y-90740263D01*
X110702477Y-90631513D01*
X110694161Y-90627202D01*
X110508201Y-90552258D01*
X110499221Y-90549598D01*
X110301323Y-90510952D01*
X110294272Y-90510096D01*
X110293528Y-90510060D01*
X110291084Y-90510000D01*
X109955680Y-90510000D01*
X109942995Y-90514122D01*
X109940000Y-90518243D01*
X109940000Y-91294320D01*
X109340000Y-91294320D01*
X109340000Y-90715555D01*
X109358907Y-90657364D01*
X109384477Y-90633853D01*
X109384783Y-90633720D01*
X109436042Y-90592212D01*
X109491433Y-90547357D01*
X109491434Y-90547356D01*
X109496675Y-90543112D01*
X109500583Y-90537613D01*
X109576172Y-90431249D01*
X109576173Y-90431248D01*
X109580079Y-90425751D01*
X109582363Y-90419406D01*
X109582365Y-90419403D01*
X109608131Y-90347833D01*
X109628850Y-90290285D01*
X109629345Y-90283550D01*
X109638900Y-90153427D01*
X109638900Y-90153423D01*
X109639394Y-90146693D01*
X109637462Y-90137108D01*
X109612269Y-90012167D01*
X109610936Y-90005556D01*
X109606941Y-89997714D01*
X109548633Y-89883280D01*
X109545571Y-89877270D01*
X109541008Y-89872307D01*
X109541006Y-89872305D01*
X109472295Y-89797583D01*
X109448116Y-89771288D01*
X109325750Y-89695418D01*
X109187488Y-89655249D01*
X109182318Y-89654869D01*
X109182316Y-89654869D01*
X109179089Y-89654632D01*
X109179082Y-89654632D01*
X109177288Y-89654500D01*
X109073930Y-89654500D01*
X108967354Y-89669099D01*
X108961168Y-89671776D01*
X108961164Y-89671777D01*
X108841405Y-89723602D01*
X108835217Y-89726280D01*
X108829978Y-89730522D01*
X108829977Y-89730523D01*
X108753816Y-89792197D01*
X108723325Y-89816888D01*
X108719417Y-89822387D01*
X108660284Y-89905596D01*
X108639921Y-89934249D01*
X108637637Y-89940594D01*
X108637635Y-89940597D01*
X108622366Y-89983009D01*
X108591150Y-90069715D01*
X108590656Y-90076447D01*
X108590655Y-90076450D01*
X108586610Y-90131547D01*
X108580606Y-90213307D01*
X108581940Y-90219922D01*
X108581940Y-90219924D01*
X108597417Y-90296680D01*
X108609064Y-90354444D01*
X108612123Y-90360448D01*
X108612125Y-90360453D01*
X108671643Y-90477263D01*
X108681214Y-90537695D01*
X108653436Y-90592212D01*
X108628762Y-90610221D01*
X108497220Y-90677969D01*
X108489329Y-90683036D01*
X108331676Y-90806874D01*
X108324878Y-90813347D01*
X108193488Y-90964761D01*
X108188037Y-90972403D01*
X108087648Y-91145932D01*
X108083746Y-91154454D01*
X108034875Y-91295189D01*
X108034654Y-91306213D01*
X106815179Y-91306213D01*
X106815625Y-91306068D01*
X106815990Y-91296667D01*
X106805907Y-91254829D01*
X106802852Y-91245957D01*
X106719874Y-91063459D01*
X106715198Y-91055326D01*
X106599209Y-90891811D01*
X106593080Y-90884711D01*
X106448262Y-90746077D01*
X106440899Y-90740263D01*
X106272477Y-90631513D01*
X106264161Y-90627202D01*
X106078201Y-90552258D01*
X106069221Y-90549598D01*
X105871323Y-90510952D01*
X105864272Y-90510096D01*
X105863528Y-90510060D01*
X105861084Y-90510000D01*
X105775680Y-90510000D01*
X105762995Y-90514122D01*
X105760000Y-90518243D01*
X105760000Y-91294320D01*
X105160000Y-91294320D01*
X105160000Y-90525680D01*
X105155878Y-90512995D01*
X105151757Y-90510000D01*
X105109913Y-90510000D01*
X105105199Y-90510225D01*
X104955742Y-90524484D01*
X104946530Y-90526258D01*
X104754154Y-90582694D01*
X104745451Y-90586175D01*
X104567216Y-90677972D01*
X104559329Y-90683036D01*
X104401676Y-90806874D01*
X104394878Y-90813347D01*
X104263488Y-90964761D01*
X104258037Y-90972403D01*
X104157648Y-91145932D01*
X104153746Y-91154454D01*
X104104875Y-91295189D01*
X104104654Y-91306213D01*
X102616000Y-91306213D01*
X102616000Y-88070000D01*
X108879196Y-88070000D01*
X108900281Y-88203126D01*
X108903817Y-88210065D01*
X108903817Y-88210066D01*
X108953280Y-88307142D01*
X108961472Y-88323220D01*
X109056780Y-88418528D01*
X109063717Y-88422063D01*
X109063719Y-88422064D01*
X109158963Y-88470593D01*
X109176874Y-88479719D01*
X109184568Y-88480938D01*
X109184569Y-88480938D01*
X109302304Y-88499585D01*
X109310000Y-88500804D01*
X109317696Y-88499585D01*
X109435431Y-88480938D01*
X109435432Y-88480938D01*
X109443126Y-88479719D01*
X109461037Y-88470593D01*
X109556281Y-88422064D01*
X109556283Y-88422063D01*
X109563220Y-88418528D01*
X109582252Y-88399496D01*
X109636769Y-88371719D01*
X109652256Y-88370500D01*
X115028263Y-88370500D01*
X115086454Y-88389407D01*
X115098267Y-88399496D01*
X115122423Y-88423652D01*
X115125123Y-88426781D01*
X115127318Y-88431270D01*
X115134021Y-88437488D01*
X115163565Y-88464894D01*
X115166241Y-88467470D01*
X115180020Y-88481249D01*
X115183730Y-88483794D01*
X115187643Y-88487230D01*
X115209389Y-88507402D01*
X115217875Y-88510788D01*
X115217877Y-88510789D01*
X115220080Y-88511668D01*
X115239391Y-88521979D01*
X115241350Y-88523323D01*
X115241353Y-88523324D01*
X115248889Y-88528494D01*
X115257781Y-88530604D01*
X115257783Y-88530605D01*
X115274809Y-88534645D01*
X115288628Y-88539015D01*
X115313365Y-88548884D01*
X115319658Y-88549501D01*
X115325828Y-88549501D01*
X115348684Y-88552176D01*
X115357809Y-88554341D01*
X115386731Y-88550405D01*
X115400080Y-88549501D01*
X115753749Y-88549501D01*
X115757874Y-88549804D01*
X115762599Y-88551426D01*
X115812018Y-88549571D01*
X115815731Y-88549501D01*
X115835205Y-88549501D01*
X115839635Y-88548676D01*
X115844828Y-88548340D01*
X115860859Y-88547738D01*
X115865332Y-88547570D01*
X115874465Y-88547227D01*
X115882860Y-88543620D01*
X115891781Y-88541610D01*
X115892166Y-88543317D01*
X115942163Y-88538727D01*
X115990309Y-88565280D01*
X116735353Y-89310324D01*
X116763130Y-89364841D01*
X116777157Y-89453401D01*
X116780281Y-89473126D01*
X116783817Y-89480065D01*
X116783817Y-89480066D01*
X116813990Y-89539283D01*
X116841472Y-89593220D01*
X116936780Y-89688528D01*
X116943717Y-89692063D01*
X116943719Y-89692064D01*
X117049934Y-89746183D01*
X117056874Y-89749719D01*
X117064568Y-89750938D01*
X117064569Y-89750938D01*
X117182304Y-89769585D01*
X117190000Y-89770804D01*
X117197696Y-89769585D01*
X117315431Y-89750938D01*
X117315432Y-89750938D01*
X117323126Y-89749719D01*
X117330066Y-89746183D01*
X117436281Y-89692064D01*
X117436283Y-89692063D01*
X117443220Y-89688528D01*
X117538528Y-89593220D01*
X117566011Y-89539283D01*
X117596183Y-89480066D01*
X117596183Y-89480065D01*
X117599719Y-89473126D01*
X117603828Y-89447187D01*
X117619585Y-89347696D01*
X117620804Y-89340000D01*
X117614947Y-89303022D01*
X117600938Y-89214569D01*
X117600938Y-89214568D01*
X117599719Y-89206874D01*
X117564895Y-89138528D01*
X117542064Y-89093719D01*
X117542063Y-89093717D01*
X117538528Y-89086780D01*
X117443220Y-88991472D01*
X117436283Y-88987937D01*
X117436281Y-88987936D01*
X117330066Y-88933817D01*
X117330065Y-88933817D01*
X117323126Y-88930281D01*
X117315432Y-88929062D01*
X117315431Y-88929062D01*
X117268582Y-88921642D01*
X117214842Y-88913131D01*
X117160326Y-88885354D01*
X116913340Y-88638368D01*
X116885563Y-88583851D01*
X116895134Y-88523419D01*
X116938399Y-88480154D01*
X116998831Y-88470583D01*
X117028290Y-88480155D01*
X117049931Y-88491182D01*
X117049934Y-88491183D01*
X117056874Y-88494719D01*
X117064568Y-88495938D01*
X117064569Y-88495938D01*
X117182304Y-88514585D01*
X117190000Y-88515804D01*
X117197696Y-88514585D01*
X117315431Y-88495938D01*
X117315432Y-88495938D01*
X117323126Y-88494719D01*
X117332158Y-88490117D01*
X117436281Y-88437064D01*
X117436283Y-88437063D01*
X117443220Y-88433528D01*
X117538528Y-88338220D01*
X117543366Y-88328726D01*
X117596183Y-88225066D01*
X117596183Y-88225065D01*
X117599719Y-88218126D01*
X117620804Y-88085000D01*
X117599719Y-87951874D01*
X117592076Y-87936874D01*
X117542064Y-87838719D01*
X117542063Y-87838717D01*
X117538528Y-87831780D01*
X117443220Y-87736472D01*
X117436283Y-87732937D01*
X117436281Y-87732936D01*
X117330066Y-87678817D01*
X117330065Y-87678817D01*
X117323126Y-87675281D01*
X117315432Y-87674062D01*
X117315431Y-87674062D01*
X117214841Y-87658130D01*
X117160324Y-87630353D01*
X117045037Y-87515066D01*
X123754660Y-87515066D01*
X123758596Y-87543987D01*
X123759500Y-87557337D01*
X123759500Y-89706492D01*
X123759197Y-89710617D01*
X123757575Y-89715342D01*
X123757918Y-89724476D01*
X123759430Y-89764761D01*
X123759500Y-89768474D01*
X123759500Y-89787948D01*
X123760325Y-89792378D01*
X123760662Y-89797583D01*
X123761387Y-89816888D01*
X123761774Y-89827208D01*
X123765380Y-89835602D01*
X123765381Y-89835605D01*
X123766317Y-89837783D01*
X123772683Y-89858734D01*
X123774791Y-89870053D01*
X123779588Y-89877835D01*
X123788768Y-89892728D01*
X123795451Y-89905595D01*
X123805964Y-89930063D01*
X123809978Y-89934949D01*
X123814342Y-89939313D01*
X123828613Y-89957368D01*
X123833532Y-89965348D01*
X123856769Y-89983018D01*
X123866839Y-89991810D01*
X124516419Y-90641391D01*
X124544196Y-90695908D01*
X124544862Y-90704365D01*
X124544196Y-90708568D01*
X124545415Y-90716264D01*
X124558584Y-90799408D01*
X124565281Y-90841694D01*
X124568817Y-90848633D01*
X124568817Y-90848634D01*
X124616713Y-90942634D01*
X124626472Y-90961788D01*
X124721780Y-91057096D01*
X124728717Y-91060631D01*
X124728719Y-91060632D01*
X124834934Y-91114751D01*
X124841874Y-91118287D01*
X124849568Y-91119506D01*
X124849569Y-91119506D01*
X124967304Y-91138153D01*
X124975000Y-91139372D01*
X124982696Y-91138153D01*
X125100431Y-91119506D01*
X125100432Y-91119506D01*
X125108126Y-91118287D01*
X125115066Y-91114751D01*
X125221281Y-91060632D01*
X125221283Y-91060631D01*
X125228220Y-91057096D01*
X125323528Y-90961788D01*
X125333288Y-90942634D01*
X125381183Y-90848634D01*
X125381183Y-90848633D01*
X125384719Y-90841694D01*
X125391417Y-90799408D01*
X125404585Y-90716264D01*
X125405804Y-90708568D01*
X125396153Y-90647634D01*
X125385938Y-90583137D01*
X125385938Y-90583136D01*
X125384719Y-90575442D01*
X125365444Y-90537613D01*
X125327064Y-90462287D01*
X125327063Y-90462285D01*
X125323528Y-90455348D01*
X125228220Y-90360040D01*
X125221283Y-90356505D01*
X125221281Y-90356504D01*
X125115066Y-90302385D01*
X125115065Y-90302385D01*
X125108126Y-90298849D01*
X125100434Y-90297631D01*
X125100432Y-90297630D01*
X125039725Y-90288015D01*
X124985209Y-90260238D01*
X124389496Y-89664525D01*
X124361719Y-89610008D01*
X124360500Y-89594521D01*
X124360500Y-87695479D01*
X124379407Y-87637288D01*
X124389496Y-87625475D01*
X124980324Y-87034647D01*
X125034841Y-87006870D01*
X125135431Y-86990938D01*
X125135432Y-86990938D01*
X125143126Y-86989719D01*
X125186239Y-86967752D01*
X125256281Y-86932064D01*
X125256283Y-86932063D01*
X125263220Y-86928528D01*
X125290496Y-86901252D01*
X125345013Y-86873475D01*
X125405445Y-86883046D01*
X125448710Y-86926311D01*
X125459500Y-86971256D01*
X125459500Y-87584456D01*
X125440593Y-87642647D01*
X125391093Y-87678611D01*
X125329907Y-87678611D01*
X125290496Y-87654460D01*
X125253220Y-87617184D01*
X125246283Y-87613649D01*
X125246281Y-87613648D01*
X125140066Y-87559529D01*
X125140065Y-87559529D01*
X125133126Y-87555993D01*
X125125432Y-87554774D01*
X125125431Y-87554774D01*
X125007696Y-87536127D01*
X125000000Y-87534908D01*
X124992304Y-87536127D01*
X124874569Y-87554774D01*
X124874568Y-87554774D01*
X124866874Y-87555993D01*
X124859935Y-87559529D01*
X124859934Y-87559529D01*
X124753719Y-87613648D01*
X124753717Y-87613649D01*
X124746780Y-87617184D01*
X124651472Y-87712492D01*
X124647937Y-87719429D01*
X124647936Y-87719431D01*
X124598072Y-87817296D01*
X124590281Y-87832586D01*
X124589062Y-87840280D01*
X124589062Y-87840281D01*
X124583067Y-87878131D01*
X124569196Y-87965712D01*
X124570415Y-87973408D01*
X124587330Y-88080204D01*
X124590281Y-88098838D01*
X124593817Y-88105777D01*
X124593817Y-88105778D01*
X124647141Y-88210431D01*
X124651472Y-88218932D01*
X124746780Y-88314240D01*
X124753717Y-88317775D01*
X124753719Y-88317776D01*
X124793843Y-88338220D01*
X124866874Y-88375431D01*
X124874568Y-88376650D01*
X124874569Y-88376650D01*
X124992304Y-88395297D01*
X125000000Y-88396516D01*
X125007696Y-88395297D01*
X125125431Y-88376650D01*
X125125432Y-88376650D01*
X125133126Y-88375431D01*
X125206157Y-88338220D01*
X125246281Y-88317776D01*
X125246283Y-88317775D01*
X125253220Y-88314240D01*
X125290496Y-88276964D01*
X125345013Y-88249187D01*
X125405445Y-88258758D01*
X125448710Y-88302023D01*
X125459500Y-88346968D01*
X125459500Y-88447744D01*
X125440593Y-88505935D01*
X125430504Y-88517748D01*
X125411472Y-88536780D01*
X125407937Y-88543717D01*
X125407936Y-88543719D01*
X125359710Y-88638368D01*
X125350281Y-88656874D01*
X125349062Y-88664568D01*
X125349062Y-88664569D01*
X125338182Y-88733267D01*
X125329196Y-88790000D01*
X125330415Y-88797696D01*
X125348075Y-88909196D01*
X125350281Y-88923126D01*
X125353817Y-88930065D01*
X125353817Y-88930066D01*
X125406062Y-89032602D01*
X125411472Y-89043220D01*
X125506780Y-89138528D01*
X125513717Y-89142063D01*
X125513719Y-89142064D01*
X125617612Y-89195000D01*
X125626874Y-89199719D01*
X125634568Y-89200938D01*
X125634569Y-89200938D01*
X125752304Y-89219585D01*
X125760000Y-89220804D01*
X125767696Y-89219585D01*
X125885431Y-89200938D01*
X125885432Y-89200938D01*
X125893126Y-89199719D01*
X125902388Y-89195000D01*
X126006281Y-89142064D01*
X126006283Y-89142063D01*
X126013220Y-89138528D01*
X126032252Y-89119496D01*
X126086769Y-89091719D01*
X126102256Y-89090500D01*
X129694521Y-89090500D01*
X129752712Y-89109407D01*
X129764525Y-89119496D01*
X130014680Y-89369651D01*
X130017380Y-89372780D01*
X130019575Y-89377269D01*
X130026278Y-89383487D01*
X130055822Y-89410893D01*
X130058498Y-89413469D01*
X130072276Y-89427247D01*
X130075987Y-89429792D01*
X130079892Y-89433220D01*
X130101646Y-89453401D01*
X130110133Y-89456787D01*
X130112336Y-89457666D01*
X130131652Y-89467980D01*
X130133607Y-89469321D01*
X130133610Y-89469322D01*
X130141146Y-89474492D01*
X130164635Y-89480066D01*
X130167058Y-89480641D01*
X130180884Y-89485014D01*
X130199132Y-89492294D01*
X130199134Y-89492294D01*
X130205622Y-89494883D01*
X130211915Y-89495500D01*
X130218084Y-89495500D01*
X130240943Y-89498175D01*
X130241173Y-89498230D01*
X130241175Y-89498230D01*
X130250066Y-89500340D01*
X130278988Y-89496404D01*
X130292337Y-89495500D01*
X131025173Y-89495500D01*
X131083364Y-89514407D01*
X131107344Y-89539283D01*
X131185830Y-89656083D01*
X131297374Y-89757580D01*
X131327687Y-89810725D01*
X131320973Y-89871541D01*
X131295824Y-89905404D01*
X131195604Y-89992831D01*
X131098113Y-90131547D01*
X131036524Y-90289513D01*
X131014394Y-90457611D01*
X131015049Y-90463544D01*
X131015049Y-90463548D01*
X131029254Y-90592212D01*
X131032999Y-90626135D01*
X131091266Y-90785356D01*
X131094591Y-90790305D01*
X131094592Y-90790306D01*
X131129123Y-90841694D01*
X131185830Y-90926083D01*
X131311233Y-91040191D01*
X131460235Y-91121092D01*
X131495189Y-91130262D01*
X131618464Y-91162603D01*
X131618468Y-91162604D01*
X131624233Y-91164116D01*
X131630194Y-91164210D01*
X131630197Y-91164210D01*
X131708996Y-91165447D01*
X131793760Y-91166779D01*
X131799575Y-91165447D01*
X131799577Y-91165447D01*
X131953206Y-91130262D01*
X131953209Y-91130261D01*
X131959029Y-91128928D01*
X131974610Y-91121092D01*
X132034763Y-91090838D01*
X132110498Y-91052747D01*
X132115035Y-91048872D01*
X132115038Y-91048870D01*
X132234888Y-90946508D01*
X132234891Y-90946505D01*
X132239423Y-90942634D01*
X132338361Y-90804947D01*
X132377106Y-90708568D01*
X132399377Y-90653167D01*
X132399378Y-90653165D01*
X132401601Y-90647634D01*
X132402442Y-90641727D01*
X132425034Y-90482985D01*
X132425034Y-90482979D01*
X132425490Y-90479778D01*
X132425645Y-90465000D01*
X132405276Y-90296680D01*
X132345345Y-90138077D01*
X132249312Y-89998349D01*
X132142554Y-89903230D01*
X132111684Y-89850404D01*
X132117761Y-89789521D01*
X132144117Y-89754034D01*
X132234884Y-89676512D01*
X132234890Y-89676506D01*
X132239423Y-89672634D01*
X132245250Y-89664525D01*
X132334877Y-89539796D01*
X132334878Y-89539794D01*
X132338361Y-89534947D01*
X132353122Y-89498230D01*
X132399377Y-89383167D01*
X132399378Y-89383165D01*
X132401601Y-89377634D01*
X132407674Y-89334965D01*
X132425034Y-89212985D01*
X132425034Y-89212979D01*
X132425490Y-89209778D01*
X132425645Y-89195000D01*
X132405276Y-89026680D01*
X132345345Y-88868077D01*
X132286395Y-88782304D01*
X132252692Y-88733267D01*
X132249312Y-88728349D01*
X132142554Y-88633230D01*
X132111684Y-88580404D01*
X132117761Y-88519521D01*
X132144117Y-88484034D01*
X132234884Y-88406512D01*
X132234890Y-88406506D01*
X132239423Y-88402634D01*
X132248142Y-88390500D01*
X132334877Y-88269796D01*
X132334878Y-88269794D01*
X132338361Y-88264947D01*
X132345693Y-88246710D01*
X132399377Y-88113167D01*
X132399378Y-88113165D01*
X132401601Y-88107634D01*
X132404661Y-88086135D01*
X132425034Y-87942985D01*
X132425034Y-87942979D01*
X132425490Y-87939778D01*
X132425645Y-87925000D01*
X132410912Y-87803251D01*
X132405993Y-87762602D01*
X132405992Y-87762599D01*
X132405276Y-87756680D01*
X132345345Y-87598077D01*
X132335984Y-87584456D01*
X132252692Y-87463267D01*
X132249312Y-87458349D01*
X132142554Y-87363230D01*
X132111684Y-87310404D01*
X132117761Y-87249521D01*
X132144117Y-87214034D01*
X132234884Y-87136512D01*
X132234890Y-87136506D01*
X132239423Y-87132634D01*
X132246889Y-87122244D01*
X132334877Y-86999796D01*
X132334878Y-86999794D01*
X132338361Y-86994947D01*
X132343076Y-86983220D01*
X132399377Y-86843167D01*
X132399378Y-86843165D01*
X132401601Y-86837634D01*
X132402442Y-86831727D01*
X132425034Y-86672985D01*
X132425034Y-86672979D01*
X132425490Y-86669778D01*
X132425645Y-86655000D01*
X132405276Y-86486680D01*
X132360983Y-86369462D01*
X132358101Y-86308345D01*
X132390288Y-86258353D01*
X132497650Y-86169061D01*
X132504061Y-86162650D01*
X132627518Y-86014209D01*
X132632641Y-86006755D01*
X132726989Y-85838286D01*
X132730665Y-85830030D01*
X132774855Y-85699849D01*
X132775001Y-85688693D01*
X132763884Y-85685000D01*
X130676869Y-85685000D01*
X130664959Y-85688870D01*
X130664641Y-85698591D01*
X130677534Y-85749359D01*
X130680554Y-85757887D01*
X130761386Y-85933225D01*
X130765917Y-85941072D01*
X130877348Y-86098744D01*
X130883222Y-86105622D01*
X131021527Y-86240352D01*
X131028562Y-86246049D01*
X131040967Y-86254338D01*
X131078846Y-86302388D01*
X131081248Y-86363526D01*
X131078202Y-86372615D01*
X131039736Y-86471274D01*
X131036524Y-86479513D01*
X131014394Y-86647611D01*
X131015049Y-86653544D01*
X131015049Y-86653548D01*
X131024339Y-86737696D01*
X131032999Y-86816135D01*
X131091266Y-86975356D01*
X131094591Y-86980305D01*
X131094592Y-86980306D01*
X131107689Y-86999796D01*
X131185830Y-87116083D01*
X131297374Y-87217580D01*
X131327687Y-87270725D01*
X131320973Y-87331541D01*
X131295824Y-87365404D01*
X131257762Y-87398607D01*
X131203568Y-87445884D01*
X131195604Y-87452831D01*
X131192173Y-87457713D01*
X131192172Y-87457714D01*
X131103097Y-87584456D01*
X131098113Y-87591547D01*
X131085971Y-87622690D01*
X131041609Y-87736472D01*
X131036524Y-87749513D01*
X131035745Y-87755428D01*
X131035745Y-87755429D01*
X131034252Y-87766770D01*
X131014394Y-87917611D01*
X131015049Y-87923544D01*
X131015049Y-87923548D01*
X131032024Y-88077304D01*
X131032999Y-88086135D01*
X131091266Y-88245356D01*
X131094591Y-88250305D01*
X131094592Y-88250306D01*
X131129344Y-88302023D01*
X131185830Y-88386083D01*
X131297374Y-88487580D01*
X131327687Y-88540725D01*
X131320973Y-88601541D01*
X131295824Y-88635404D01*
X131195604Y-88722831D01*
X131192173Y-88727713D01*
X131192172Y-88727714D01*
X131104524Y-88852425D01*
X131055595Y-88889162D01*
X131023527Y-88894500D01*
X130430479Y-88894500D01*
X130372288Y-88875593D01*
X130360475Y-88865504D01*
X130110320Y-88615349D01*
X130107620Y-88612220D01*
X130105425Y-88607731D01*
X130069178Y-88574107D01*
X130066502Y-88571531D01*
X130052723Y-88557752D01*
X130049013Y-88555207D01*
X130045100Y-88551771D01*
X130030055Y-88537815D01*
X130023354Y-88531599D01*
X130012664Y-88527334D01*
X129993348Y-88517020D01*
X129991393Y-88515679D01*
X129991390Y-88515678D01*
X129983854Y-88510508D01*
X129957941Y-88504359D01*
X129944116Y-88499986D01*
X129925868Y-88492706D01*
X129925866Y-88492706D01*
X129919378Y-88490117D01*
X129913085Y-88489500D01*
X129906916Y-88489500D01*
X129884057Y-88486825D01*
X129883827Y-88486770D01*
X129883825Y-88486770D01*
X129874934Y-88484660D01*
X129846013Y-88488596D01*
X129832663Y-88489500D01*
X126159500Y-88489500D01*
X126101309Y-88470593D01*
X126065345Y-88421093D01*
X126060500Y-88390500D01*
X126060500Y-86730000D01*
X126399196Y-86730000D01*
X126400415Y-86737696D01*
X126418807Y-86853817D01*
X126420281Y-86863126D01*
X126423817Y-86870065D01*
X126423817Y-86870066D01*
X126475231Y-86970971D01*
X126481472Y-86983220D01*
X126576780Y-87078528D01*
X126583717Y-87082063D01*
X126583719Y-87082064D01*
X126689934Y-87136183D01*
X126696874Y-87139719D01*
X126704568Y-87140938D01*
X126704569Y-87140938D01*
X126822304Y-87159585D01*
X126830000Y-87160804D01*
X126837696Y-87159585D01*
X126955431Y-87140938D01*
X126955432Y-87140938D01*
X126963126Y-87139719D01*
X126970066Y-87136183D01*
X127076281Y-87082064D01*
X127076283Y-87082063D01*
X127083220Y-87078528D01*
X127178528Y-86983220D01*
X127184770Y-86970971D01*
X127236183Y-86870066D01*
X127236183Y-86870065D01*
X127239719Y-86863126D01*
X127241194Y-86853817D01*
X127259585Y-86737696D01*
X127260804Y-86730000D01*
X127239719Y-86596874D01*
X127178528Y-86476780D01*
X127178250Y-86476502D01*
X127160500Y-86421873D01*
X127160500Y-85502256D01*
X127179407Y-85444065D01*
X127189496Y-85432252D01*
X127208528Y-85413220D01*
X127223127Y-85384569D01*
X127266183Y-85300066D01*
X127266183Y-85300065D01*
X127269719Y-85293126D01*
X127290804Y-85160000D01*
X127281906Y-85103817D01*
X127276554Y-85070024D01*
X130665912Y-85070024D01*
X130666064Y-85081650D01*
X130676610Y-85085000D01*
X132762703Y-85085000D01*
X132774193Y-85081267D01*
X132774397Y-85070866D01*
X132752570Y-84993473D01*
X132749332Y-84985038D01*
X132663928Y-84811855D01*
X132659209Y-84804154D01*
X132543678Y-84649440D01*
X132537629Y-84642722D01*
X132452299Y-84563844D01*
X132422402Y-84510460D01*
X132420500Y-84491146D01*
X132420500Y-83595252D01*
X132408867Y-83536769D01*
X132364552Y-83470448D01*
X132298231Y-83426133D01*
X132288668Y-83424231D01*
X132288666Y-83424230D01*
X132265995Y-83419721D01*
X132239748Y-83414500D01*
X131200252Y-83414500D01*
X131174005Y-83419721D01*
X131151334Y-83424230D01*
X131151332Y-83424231D01*
X131141769Y-83426133D01*
X131075448Y-83470448D01*
X131031133Y-83536769D01*
X131019500Y-83595252D01*
X131019500Y-84491284D01*
X131000593Y-84549475D01*
X130985776Y-84565716D01*
X130922080Y-84621577D01*
X130915858Y-84628133D01*
X130796322Y-84779763D01*
X130791397Y-84787346D01*
X130701490Y-84958231D01*
X130698032Y-84966579D01*
X130665912Y-85070024D01*
X127276554Y-85070024D01*
X127270938Y-85034569D01*
X127270938Y-85034568D01*
X127269719Y-85026874D01*
X127266183Y-85019934D01*
X127212064Y-84913719D01*
X127212063Y-84913717D01*
X127208528Y-84906780D01*
X127113220Y-84811472D01*
X127106283Y-84807937D01*
X127106281Y-84807936D01*
X127000066Y-84753817D01*
X127000065Y-84753817D01*
X126993126Y-84750281D01*
X126985432Y-84749062D01*
X126985431Y-84749062D01*
X126867696Y-84730415D01*
X126860000Y-84729196D01*
X126852304Y-84730415D01*
X126734569Y-84749062D01*
X126734568Y-84749062D01*
X126726874Y-84750281D01*
X126719935Y-84753817D01*
X126719934Y-84753817D01*
X126613719Y-84807936D01*
X126613717Y-84807937D01*
X126606780Y-84811472D01*
X126511472Y-84906780D01*
X126507937Y-84913717D01*
X126507936Y-84913719D01*
X126453817Y-85019934D01*
X126450281Y-85026874D01*
X126449062Y-85034568D01*
X126449062Y-85034569D01*
X126438094Y-85103817D01*
X126429196Y-85160000D01*
X126450281Y-85293126D01*
X126453817Y-85300065D01*
X126453817Y-85300066D01*
X126496874Y-85384569D01*
X126511472Y-85413220D01*
X126530504Y-85432252D01*
X126558281Y-85486769D01*
X126559500Y-85502256D01*
X126559500Y-86357744D01*
X126540593Y-86415935D01*
X126530504Y-86427748D01*
X126481472Y-86476780D01*
X126477937Y-86483717D01*
X126477936Y-86483719D01*
X126473410Y-86492602D01*
X126420281Y-86596874D01*
X126399196Y-86730000D01*
X126060500Y-86730000D01*
X126060500Y-85892256D01*
X126079407Y-85834065D01*
X126089496Y-85822252D01*
X126148528Y-85763220D01*
X126186502Y-85688693D01*
X126206183Y-85650066D01*
X126206183Y-85650065D01*
X126209719Y-85643126D01*
X126230804Y-85510000D01*
X126224947Y-85473022D01*
X126210938Y-85384569D01*
X126210938Y-85384568D01*
X126209719Y-85376874D01*
X126206183Y-85369934D01*
X126152064Y-85263719D01*
X126152063Y-85263717D01*
X126148528Y-85256780D01*
X126053220Y-85161472D01*
X126046283Y-85157937D01*
X126046281Y-85157936D01*
X125940066Y-85103817D01*
X125940065Y-85103817D01*
X125933126Y-85100281D01*
X125925432Y-85099062D01*
X125925431Y-85099062D01*
X125815494Y-85081650D01*
X125800000Y-85079196D01*
X125784506Y-85081650D01*
X125674569Y-85099062D01*
X125674568Y-85099062D01*
X125666874Y-85100281D01*
X125659935Y-85103817D01*
X125659934Y-85103817D01*
X125553719Y-85157936D01*
X125553717Y-85157937D01*
X125546780Y-85161472D01*
X125451472Y-85256780D01*
X125447937Y-85263717D01*
X125447936Y-85263719D01*
X125393817Y-85369934D01*
X125390281Y-85376874D01*
X125389062Y-85384568D01*
X125389062Y-85384569D01*
X125375053Y-85473022D01*
X125369196Y-85510000D01*
X125390281Y-85643126D01*
X125447937Y-85756281D01*
X125448710Y-85757799D01*
X125459500Y-85802744D01*
X125459500Y-86188744D01*
X125440593Y-86246935D01*
X125391093Y-86282899D01*
X125329907Y-86282899D01*
X125290496Y-86258748D01*
X125263220Y-86231472D01*
X125256283Y-86227937D01*
X125256281Y-86227936D01*
X125150066Y-86173817D01*
X125150065Y-86173817D01*
X125143126Y-86170281D01*
X125135432Y-86169062D01*
X125135431Y-86169062D01*
X125017696Y-86150415D01*
X125010000Y-86149196D01*
X125002304Y-86150415D01*
X124884569Y-86169062D01*
X124884568Y-86169062D01*
X124876874Y-86170281D01*
X124869935Y-86173817D01*
X124869934Y-86173817D01*
X124763719Y-86227936D01*
X124763717Y-86227937D01*
X124756780Y-86231472D01*
X124661472Y-86326780D01*
X124657937Y-86333717D01*
X124657936Y-86333719D01*
X124610026Y-86427748D01*
X124600281Y-86446874D01*
X124599062Y-86454568D01*
X124599062Y-86454569D01*
X124583130Y-86555159D01*
X124555353Y-86609676D01*
X123885349Y-87279680D01*
X123882220Y-87282380D01*
X123877731Y-87284575D01*
X123871513Y-87291278D01*
X123844107Y-87320822D01*
X123841531Y-87323498D01*
X123827752Y-87337277D01*
X123825207Y-87340987D01*
X123821771Y-87344900D01*
X123801599Y-87366646D01*
X123798212Y-87375134D01*
X123798212Y-87375135D01*
X123797334Y-87377336D01*
X123787020Y-87396652D01*
X123785679Y-87398607D01*
X123785678Y-87398610D01*
X123780508Y-87406146D01*
X123778398Y-87415038D01*
X123774359Y-87432058D01*
X123769986Y-87445884D01*
X123765013Y-87458349D01*
X123760117Y-87470622D01*
X123759500Y-87476915D01*
X123759500Y-87483084D01*
X123756825Y-87505943D01*
X123754660Y-87515066D01*
X117045037Y-87515066D01*
X116882756Y-87352785D01*
X116854979Y-87298268D01*
X116864550Y-87237836D01*
X116907815Y-87194571D01*
X116968247Y-87185000D01*
X116997705Y-87194571D01*
X117042857Y-87217577D01*
X117056874Y-87224719D01*
X117064568Y-87225938D01*
X117064569Y-87225938D01*
X117182304Y-87244585D01*
X117190000Y-87245804D01*
X117197696Y-87244585D01*
X117315431Y-87225938D01*
X117315432Y-87225938D01*
X117323126Y-87224719D01*
X117337143Y-87217577D01*
X117436281Y-87167064D01*
X117436283Y-87167063D01*
X117443220Y-87163528D01*
X117538528Y-87068220D01*
X117555635Y-87034647D01*
X117596183Y-86955066D01*
X117596183Y-86955065D01*
X117599719Y-86948126D01*
X117601429Y-86937334D01*
X117618155Y-86831727D01*
X117620804Y-86815000D01*
X117608560Y-86737696D01*
X117600938Y-86689569D01*
X117600938Y-86689568D01*
X117599719Y-86681874D01*
X117593556Y-86669778D01*
X117542064Y-86568719D01*
X117542063Y-86568717D01*
X117538528Y-86561780D01*
X117443220Y-86466472D01*
X117436283Y-86462937D01*
X117436281Y-86462936D01*
X117330066Y-86408817D01*
X117330065Y-86408817D01*
X117323126Y-86405281D01*
X117315432Y-86404062D01*
X117315431Y-86404062D01*
X117197696Y-86385415D01*
X117190000Y-86384196D01*
X117182304Y-86385415D01*
X117064569Y-86404062D01*
X117064568Y-86404062D01*
X117056874Y-86405281D01*
X117049935Y-86408817D01*
X117049934Y-86408817D01*
X116943719Y-86462936D01*
X116943717Y-86462937D01*
X116936780Y-86466472D01*
X116841472Y-86561780D01*
X116837937Y-86568717D01*
X116837936Y-86568719D01*
X116786444Y-86669778D01*
X116780281Y-86681874D01*
X116779062Y-86689568D01*
X116779062Y-86689569D01*
X116771440Y-86737696D01*
X116759196Y-86815000D01*
X116761845Y-86831727D01*
X116778572Y-86937334D01*
X116780281Y-86948126D01*
X116783817Y-86955065D01*
X116783817Y-86955066D01*
X116810429Y-87007295D01*
X116820000Y-87067727D01*
X116792222Y-87122244D01*
X116737706Y-87150021D01*
X116677274Y-87140450D01*
X116652215Y-87122244D01*
X116555320Y-87025349D01*
X116552620Y-87022220D01*
X116550425Y-87017731D01*
X116514178Y-86984107D01*
X116511502Y-86981531D01*
X116497723Y-86967752D01*
X116494013Y-86965207D01*
X116490100Y-86961771D01*
X116475055Y-86947815D01*
X116468354Y-86941599D01*
X116457664Y-86937334D01*
X116438348Y-86927020D01*
X116436393Y-86925679D01*
X116436390Y-86925678D01*
X116428854Y-86920508D01*
X116402941Y-86914359D01*
X116389116Y-86909986D01*
X116370868Y-86902706D01*
X116370866Y-86902706D01*
X116364378Y-86900117D01*
X116358085Y-86899500D01*
X116351916Y-86899500D01*
X116329057Y-86896825D01*
X116328827Y-86896770D01*
X116328825Y-86896770D01*
X116319934Y-86894660D01*
X116291013Y-86898596D01*
X116277663Y-86899500D01*
X112313492Y-86899500D01*
X112268547Y-86888710D01*
X112200066Y-86853817D01*
X112200065Y-86853817D01*
X112193126Y-86850281D01*
X112185432Y-86849062D01*
X112185431Y-86849062D01*
X112096978Y-86835053D01*
X112060000Y-86829196D01*
X112023022Y-86835053D01*
X111934569Y-86849062D01*
X111934568Y-86849062D01*
X111926874Y-86850281D01*
X111919935Y-86853817D01*
X111919934Y-86853817D01*
X111813719Y-86907936D01*
X111813717Y-86907937D01*
X111806780Y-86911472D01*
X111711472Y-87006780D01*
X111707937Y-87013717D01*
X111707936Y-87013719D01*
X111673113Y-87082064D01*
X111650281Y-87126874D01*
X111649062Y-87134568D01*
X111649062Y-87134569D01*
X111641075Y-87185000D01*
X111629196Y-87260000D01*
X111630415Y-87267696D01*
X111647432Y-87375135D01*
X111650281Y-87393126D01*
X111653817Y-87400065D01*
X111653817Y-87400066D01*
X111704991Y-87500500D01*
X111711472Y-87513220D01*
X111798748Y-87600496D01*
X111826525Y-87655013D01*
X111816954Y-87715445D01*
X111773689Y-87758710D01*
X111728744Y-87769500D01*
X109652256Y-87769500D01*
X109594065Y-87750593D01*
X109582252Y-87740504D01*
X109563220Y-87721472D01*
X109556283Y-87717937D01*
X109556281Y-87717936D01*
X109450066Y-87663817D01*
X109450065Y-87663817D01*
X109443126Y-87660281D01*
X109435432Y-87659062D01*
X109435431Y-87659062D01*
X109317696Y-87640415D01*
X109310000Y-87639196D01*
X109302304Y-87640415D01*
X109184569Y-87659062D01*
X109184568Y-87659062D01*
X109176874Y-87660281D01*
X109169935Y-87663817D01*
X109169934Y-87663817D01*
X109063719Y-87717936D01*
X109063717Y-87717937D01*
X109056780Y-87721472D01*
X108961472Y-87816780D01*
X108957937Y-87823717D01*
X108957936Y-87823719D01*
X108922607Y-87893057D01*
X108900281Y-87936874D01*
X108899062Y-87944568D01*
X108899062Y-87944569D01*
X108885053Y-88033022D01*
X108879196Y-88070000D01*
X102616000Y-88070000D01*
X102616000Y-83283333D01*
X104104010Y-83283333D01*
X104114093Y-83325171D01*
X104117148Y-83334043D01*
X104200126Y-83516541D01*
X104204802Y-83524674D01*
X104320791Y-83688189D01*
X104326920Y-83695289D01*
X104471738Y-83833923D01*
X104479101Y-83839737D01*
X104647523Y-83948487D01*
X104655839Y-83952798D01*
X104841799Y-84027742D01*
X104850779Y-84030402D01*
X105048677Y-84069048D01*
X105055728Y-84069904D01*
X105056472Y-84069940D01*
X105058916Y-84070000D01*
X105144320Y-84070000D01*
X105157005Y-84065878D01*
X105160000Y-84061757D01*
X105160000Y-84054320D01*
X105760000Y-84054320D01*
X105764122Y-84067005D01*
X105768243Y-84070000D01*
X105810087Y-84070000D01*
X105814801Y-84069775D01*
X105964258Y-84055516D01*
X105973470Y-84053742D01*
X106165846Y-83997306D01*
X106174549Y-83993825D01*
X106352784Y-83902028D01*
X106360671Y-83896964D01*
X106518324Y-83773126D01*
X106525122Y-83766653D01*
X106656512Y-83615239D01*
X106661963Y-83607597D01*
X106762352Y-83434068D01*
X106766254Y-83425546D01*
X106815125Y-83284811D01*
X106815155Y-83283333D01*
X108034010Y-83283333D01*
X108044093Y-83325171D01*
X108047148Y-83334043D01*
X108130126Y-83516541D01*
X108134802Y-83524674D01*
X108250791Y-83688189D01*
X108256920Y-83695289D01*
X108401738Y-83833923D01*
X108409101Y-83839737D01*
X108577523Y-83948487D01*
X108585839Y-83952798D01*
X108622796Y-83967692D01*
X108669701Y-84006981D01*
X108684555Y-84066336D01*
X108666488Y-84116864D01*
X108643830Y-84148747D01*
X108643827Y-84148753D01*
X108639921Y-84154249D01*
X108637637Y-84160594D01*
X108637635Y-84160597D01*
X108621847Y-84204450D01*
X108591150Y-84289715D01*
X108580606Y-84433307D01*
X108581940Y-84439922D01*
X108581940Y-84439924D01*
X108604029Y-84549475D01*
X108609064Y-84574444D01*
X108674429Y-84702730D01*
X108678992Y-84707693D01*
X108678994Y-84707695D01*
X108717033Y-84749062D01*
X108771884Y-84808712D01*
X108894250Y-84884582D01*
X109032512Y-84924751D01*
X109037682Y-84925131D01*
X109037684Y-84925131D01*
X109040911Y-84925368D01*
X109040918Y-84925368D01*
X109042712Y-84925500D01*
X109146070Y-84925500D01*
X109252646Y-84910901D01*
X109258832Y-84908224D01*
X109258836Y-84908223D01*
X109378595Y-84856398D01*
X109378596Y-84856397D01*
X109384783Y-84853720D01*
X109440364Y-84808712D01*
X109491433Y-84767357D01*
X109491434Y-84767356D01*
X109496675Y-84763112D01*
X109580079Y-84645751D01*
X109582363Y-84639406D01*
X109582365Y-84639403D01*
X109608131Y-84567833D01*
X109628850Y-84510285D01*
X109629345Y-84503550D01*
X109638900Y-84373427D01*
X109638900Y-84373423D01*
X109639394Y-84366693D01*
X109622592Y-84283361D01*
X109612269Y-84232167D01*
X109610936Y-84225556D01*
X109602988Y-84209956D01*
X109557231Y-84120154D01*
X109545571Y-84097270D01*
X109541008Y-84092307D01*
X109541006Y-84092305D01*
X109506077Y-84054320D01*
X109940000Y-84054320D01*
X109944122Y-84067005D01*
X109948243Y-84070000D01*
X110240087Y-84070000D01*
X110244801Y-84069775D01*
X110394258Y-84055516D01*
X110403470Y-84053742D01*
X110595846Y-83997306D01*
X110604549Y-83993825D01*
X110782784Y-83902028D01*
X110790671Y-83896964D01*
X110835910Y-83861428D01*
X123559196Y-83861428D01*
X123560415Y-83869124D01*
X123573746Y-83953291D01*
X123580281Y-83994554D01*
X123583817Y-84001493D01*
X123583817Y-84001494D01*
X123635680Y-84103280D01*
X123641472Y-84114648D01*
X123736780Y-84209956D01*
X123743717Y-84213491D01*
X123743719Y-84213492D01*
X123849934Y-84267611D01*
X123856874Y-84271147D01*
X123864568Y-84272366D01*
X123864569Y-84272366D01*
X123933990Y-84283361D01*
X123974109Y-84289715D01*
X123982304Y-84291013D01*
X123990000Y-84292232D01*
X123997696Y-84291013D01*
X124005892Y-84289715D01*
X124046010Y-84283361D01*
X124115431Y-84272366D01*
X124115432Y-84272366D01*
X124123126Y-84271147D01*
X124130066Y-84267611D01*
X124236281Y-84213492D01*
X124236283Y-84213491D01*
X124243220Y-84209956D01*
X124338528Y-84114648D01*
X124344321Y-84103280D01*
X124396183Y-84001494D01*
X124396183Y-84001493D01*
X124399719Y-83994554D01*
X124406255Y-83953291D01*
X124419585Y-83869124D01*
X124420804Y-83861428D01*
X124414947Y-83824450D01*
X124400938Y-83735997D01*
X124400938Y-83735996D01*
X124399719Y-83728302D01*
X124382898Y-83695289D01*
X124342064Y-83615147D01*
X124342063Y-83615145D01*
X124338528Y-83608208D01*
X124243220Y-83512900D01*
X124236283Y-83509365D01*
X124236281Y-83509364D01*
X124130066Y-83455245D01*
X124130065Y-83455245D01*
X124123126Y-83451709D01*
X124115432Y-83450490D01*
X124115431Y-83450490D01*
X124015009Y-83434585D01*
X123990000Y-83430624D01*
X123964991Y-83434585D01*
X123864569Y-83450490D01*
X123864568Y-83450490D01*
X123856874Y-83451709D01*
X123849935Y-83455245D01*
X123849934Y-83455245D01*
X123743719Y-83509364D01*
X123743717Y-83509365D01*
X123736780Y-83512900D01*
X123641472Y-83608208D01*
X123637937Y-83615145D01*
X123637936Y-83615147D01*
X123597102Y-83695289D01*
X123580281Y-83728302D01*
X123579062Y-83735996D01*
X123579062Y-83735997D01*
X123565053Y-83824450D01*
X123559196Y-83861428D01*
X110835910Y-83861428D01*
X110948324Y-83773126D01*
X110955122Y-83766653D01*
X111086512Y-83615239D01*
X111091963Y-83607597D01*
X111192352Y-83434068D01*
X111196254Y-83425546D01*
X111245125Y-83284811D01*
X111245346Y-83273787D01*
X111234078Y-83270000D01*
X109955680Y-83270000D01*
X109942995Y-83274122D01*
X109940000Y-83278243D01*
X109940000Y-84054320D01*
X109506077Y-84054320D01*
X109452684Y-83996256D01*
X109448116Y-83991288D01*
X109386831Y-83953290D01*
X109347339Y-83906558D01*
X109340000Y-83869151D01*
X109340000Y-83285680D01*
X109335878Y-83272995D01*
X109331757Y-83270000D01*
X108046477Y-83270000D01*
X108034375Y-83273932D01*
X108034010Y-83283333D01*
X106815155Y-83283333D01*
X106815346Y-83273787D01*
X106804078Y-83270000D01*
X105775680Y-83270000D01*
X105762995Y-83274122D01*
X105760000Y-83278243D01*
X105760000Y-84054320D01*
X105160000Y-84054320D01*
X105160000Y-83285680D01*
X105155878Y-83272995D01*
X105151757Y-83270000D01*
X104116477Y-83270000D01*
X104104375Y-83273932D01*
X104104010Y-83283333D01*
X102616000Y-83283333D01*
X102616000Y-83005000D01*
X121959196Y-83005000D01*
X121980281Y-83138126D01*
X122041472Y-83258220D01*
X122136780Y-83353528D01*
X122143717Y-83357063D01*
X122143719Y-83357064D01*
X122249934Y-83411183D01*
X122256874Y-83414719D01*
X122264568Y-83415938D01*
X122264569Y-83415938D01*
X122316924Y-83424230D01*
X122379040Y-83434068D01*
X122382304Y-83434585D01*
X122390000Y-83435804D01*
X122397696Y-83434585D01*
X122400961Y-83434068D01*
X122463076Y-83424230D01*
X122515431Y-83415938D01*
X122515432Y-83415938D01*
X122523126Y-83414719D01*
X122530066Y-83411183D01*
X122636281Y-83357064D01*
X122636283Y-83357063D01*
X122643220Y-83353528D01*
X122738528Y-83258220D01*
X122799719Y-83138126D01*
X122820804Y-83005000D01*
X122799719Y-82871874D01*
X122738528Y-82751780D01*
X122643220Y-82656472D01*
X122636283Y-82652937D01*
X122636281Y-82652936D01*
X122530066Y-82598817D01*
X122530065Y-82598817D01*
X122523126Y-82595281D01*
X122515432Y-82594062D01*
X122515431Y-82594062D01*
X122397696Y-82575415D01*
X122390000Y-82574196D01*
X122382304Y-82575415D01*
X122264569Y-82594062D01*
X122264568Y-82594062D01*
X122256874Y-82595281D01*
X122249935Y-82598817D01*
X122249934Y-82598817D01*
X122143719Y-82652936D01*
X122143717Y-82652937D01*
X122136780Y-82656472D01*
X122041472Y-82751780D01*
X121980281Y-82871874D01*
X121959196Y-83005000D01*
X102616000Y-83005000D01*
X102616000Y-81869000D01*
X102634907Y-81810809D01*
X102684407Y-81774845D01*
X102715000Y-81770000D01*
X104679078Y-81770000D01*
X104737269Y-81788907D01*
G37*
%TD.AperFunction*%
%TA.AperFunction,Conductor*%
G36*
X116197712Y-87519407D02*
G01*
X116209525Y-87529496D01*
X116735353Y-88055324D01*
X116763130Y-88109841D01*
X116780281Y-88218126D01*
X116783817Y-88225066D01*
X116783818Y-88225069D01*
X116794845Y-88246710D01*
X116804417Y-88307142D01*
X116776640Y-88361659D01*
X116722124Y-88389437D01*
X116661691Y-88379866D01*
X116636632Y-88361660D01*
X116205021Y-87930049D01*
X116198526Y-87922886D01*
X116193769Y-87917095D01*
X116189358Y-87909089D01*
X116159404Y-87883910D01*
X116153102Y-87878131D01*
X116145852Y-87870881D01*
X116139249Y-87866351D01*
X116131558Y-87860502D01*
X116110662Y-87842938D01*
X116103666Y-87837057D01*
X116095022Y-87834089D01*
X116089899Y-87831191D01*
X116084518Y-87828807D01*
X116076983Y-87823637D01*
X116041532Y-87815224D01*
X116032244Y-87812534D01*
X116006432Y-87803672D01*
X116006431Y-87803672D01*
X115997787Y-87800704D01*
X115988652Y-87801047D01*
X115982829Y-87800187D01*
X115976959Y-87799900D01*
X115968063Y-87797789D01*
X115931957Y-87802703D01*
X115922321Y-87803537D01*
X115907676Y-87804087D01*
X115895058Y-87804560D01*
X115885921Y-87804903D01*
X115877521Y-87808512D01*
X115871780Y-87809806D01*
X115866196Y-87811653D01*
X115857140Y-87812885D01*
X115849133Y-87817296D01*
X115825238Y-87830460D01*
X115816546Y-87834709D01*
X115789490Y-87846333D01*
X115783066Y-87849093D01*
X115778180Y-87853107D01*
X115777501Y-87853786D01*
X115773891Y-87856365D01*
X115774157Y-87856689D01*
X115767096Y-87862489D01*
X115759089Y-87866900D01*
X115753208Y-87873896D01*
X115753207Y-87873897D01*
X115733910Y-87896854D01*
X115728131Y-87903156D01*
X115711782Y-87919505D01*
X115657265Y-87947282D01*
X115641778Y-87948501D01*
X115538222Y-87948501D01*
X115480031Y-87929594D01*
X115468222Y-87919508D01*
X115444058Y-87895344D01*
X115441362Y-87892221D01*
X115439167Y-87887731D01*
X115402921Y-87854108D01*
X115400245Y-87851532D01*
X115386465Y-87837752D01*
X115382755Y-87835207D01*
X115378842Y-87831771D01*
X115363797Y-87817815D01*
X115357096Y-87811599D01*
X115346406Y-87807334D01*
X115327090Y-87797020D01*
X115325135Y-87795679D01*
X115325132Y-87795678D01*
X115317596Y-87790508D01*
X115291683Y-87784359D01*
X115277858Y-87779986D01*
X115259610Y-87772706D01*
X115259608Y-87772706D01*
X115253120Y-87770117D01*
X115246827Y-87769500D01*
X115240658Y-87769500D01*
X115217799Y-87766825D01*
X115217569Y-87766770D01*
X115217567Y-87766770D01*
X115208676Y-87764660D01*
X115179755Y-87768596D01*
X115166405Y-87769500D01*
X112391256Y-87769500D01*
X112333065Y-87750593D01*
X112297101Y-87701093D01*
X112297101Y-87639907D01*
X112321252Y-87600496D01*
X112392252Y-87529496D01*
X112446769Y-87501719D01*
X112462256Y-87500500D01*
X116139521Y-87500500D01*
X116197712Y-87519407D01*
G37*
%TD.AperFunction*%
%TD*%
M02*
