%TF.GenerationSoftware,KiCad,Pcbnew,(6.0.2)*%
%TF.CreationDate,2022-03-06T10:13:05+08:00*%
%TF.ProjectId,USB-TTL-V1,5553422d-5454-44c2-9d56-312e6b696361,rev?*%
%TF.SameCoordinates,Original*%
%TF.FileFunction,Soldermask,Top*%
%TF.FilePolarity,Negative*%
%FSLAX46Y46*%
G04 Gerber Fmt 4.6, Leading zero omitted, Abs format (unit mm)*
G04 Created by KiCad (PCBNEW (6.0.2)) date 2022-03-06 10:13:05*
%MOMM*%
%LPD*%
G01*
G04 APERTURE LIST*
G04 Aperture macros list*
%AMRoundRect*
0 Rectangle with rounded corners*
0 $1 Rounding radius*
0 $2 $3 $4 $5 $6 $7 $8 $9 X,Y pos of 4 corners*
0 Add a 4 corners polygon primitive as box body*
4,1,4,$2,$3,$4,$5,$6,$7,$8,$9,$2,$3,0*
0 Add four circle primitives for the rounded corners*
1,1,$1+$1,$2,$3*
1,1,$1+$1,$4,$5*
1,1,$1+$1,$6,$7*
1,1,$1+$1,$8,$9*
0 Add four rect primitives between the rounded corners*
20,1,$1+$1,$2,$3,$4,$5,0*
20,1,$1+$1,$4,$5,$6,$7,0*
20,1,$1+$1,$6,$7,$8,$9,0*
20,1,$1+$1,$8,$9,$2,$3,0*%
G04 Aperture macros list end*
%ADD10C,0.650000*%
%ADD11R,1.450000X0.600000*%
%ADD12R,1.450000X0.300000*%
%ADD13O,1.600000X1.000000*%
%ADD14O,2.100000X1.000000*%
%ADD15RoundRect,0.135000X-0.135000X-0.185000X0.135000X-0.185000X0.135000X0.185000X-0.135000X0.185000X0*%
%ADD16RoundRect,0.135000X-0.185000X0.135000X-0.185000X-0.135000X0.185000X-0.135000X0.185000X0.135000X0*%
%ADD17RoundRect,0.140000X-0.140000X-0.170000X0.140000X-0.170000X0.140000X0.170000X-0.140000X0.170000X0*%
%ADD18RoundRect,0.147500X0.147500X0.172500X-0.147500X0.172500X-0.147500X-0.172500X0.147500X-0.172500X0*%
%ADD19R,0.650000X1.220000*%
%ADD20RoundRect,0.135000X0.135000X0.185000X-0.135000X0.185000X-0.135000X-0.185000X0.135000X-0.185000X0*%
%ADD21R,1.350000X1.350000*%
%ADD22O,1.350000X1.350000*%
%ADD23RoundRect,0.135000X0.185000X-0.135000X0.185000X0.135000X-0.185000X0.135000X-0.185000X-0.135000X0*%
%ADD24O,1.800000X0.600000*%
G04 APERTURE END LIST*
D10*
%TO.C,J2*%
X109110000Y-90180000D03*
X109110000Y-84400000D03*
D11*
X110555000Y-84040000D03*
X110555000Y-84840000D03*
D12*
X110555000Y-86040000D03*
X110555000Y-87040000D03*
X110555000Y-87540000D03*
X110555000Y-88540000D03*
D11*
X110555000Y-89740000D03*
X110555000Y-90540000D03*
X110555000Y-90540000D03*
X110555000Y-89740000D03*
D12*
X110555000Y-89040000D03*
X110555000Y-88040000D03*
X110555000Y-86540000D03*
X110555000Y-85540000D03*
D11*
X110555000Y-84840000D03*
X110555000Y-84040000D03*
D13*
X105460000Y-91610000D03*
D14*
X109640000Y-91610000D03*
D13*
X105460000Y-82970000D03*
D14*
X109640000Y-82970000D03*
%TD*%
D15*
%TO.C,R2*%
X119440000Y-90942342D03*
X120460000Y-90942342D03*
%TD*%
D16*
%TO.C,R4*%
X121700000Y-86790000D03*
X121700000Y-87810000D03*
%TD*%
D17*
%TO.C,C3*%
X119450000Y-92150000D03*
X120410000Y-92150000D03*
%TD*%
D18*
%TO.C,D3*%
X120435000Y-86071718D03*
X119465000Y-86071718D03*
%TD*%
D19*
%TO.C,Q1*%
X123600000Y-89140000D03*
X121700000Y-89140000D03*
X122650000Y-91760000D03*
%TD*%
D17*
%TO.C,C1*%
X119450000Y-82448750D03*
X120410000Y-82448750D03*
%TD*%
D20*
%TO.C,R1*%
X120460000Y-84854062D03*
X119440000Y-84854062D03*
%TD*%
D17*
%TO.C,C2*%
X119450000Y-83646406D03*
X120410000Y-83646406D03*
%TD*%
D19*
%TO.C,Q2*%
X121700000Y-85460000D03*
X123600000Y-85460000D03*
X122650000Y-82840000D03*
%TD*%
D21*
%TO.C,J1*%
X125200000Y-83225000D03*
D22*
X125200000Y-85225000D03*
X125200000Y-87225000D03*
X125200000Y-89225000D03*
X125200000Y-91225000D03*
%TD*%
D23*
%TO.C,R3*%
X123600000Y-87810000D03*
X123600000Y-86790000D03*
%TD*%
D18*
%TO.C,D2*%
X120435000Y-89724686D03*
X119465000Y-89724686D03*
%TD*%
D20*
%TO.C,R5*%
X120460000Y-88507030D03*
X119440000Y-88507030D03*
%TD*%
D24*
%TO.C,U1*%
X112800000Y-82990000D03*
X112800000Y-84260000D03*
X112800000Y-85530000D03*
X112800000Y-86800000D03*
X112800000Y-88070000D03*
X112800000Y-89340000D03*
X112800000Y-90610000D03*
X112800000Y-91880000D03*
X118000000Y-91880000D03*
X118000000Y-90610000D03*
X118000000Y-89340000D03*
X118000000Y-88070000D03*
X118000000Y-86800000D03*
X118000000Y-85530000D03*
X118000000Y-84260000D03*
X118000000Y-82990000D03*
%TD*%
D20*
%TO.C,R6*%
X120460000Y-87289374D03*
X119440000Y-87289374D03*
%TD*%
M02*
