%TF.GenerationSoftware,KiCad,Pcbnew,(6.0.2)*%
%TF.CreationDate,2022-03-06T10:13:05+08:00*%
%TF.ProjectId,USB-TTL-V1,5553422d-5454-44c2-9d56-312e6b696361,rev?*%
%TF.SameCoordinates,Original*%
%TF.FileFunction,Copper,L2,Inr*%
%TF.FilePolarity,Positive*%
%FSLAX46Y46*%
G04 Gerber Fmt 4.6, Leading zero omitted, Abs format (unit mm)*
G04 Created by KiCad (PCBNEW (6.0.2)) date 2022-03-06 10:13:05*
%MOMM*%
%LPD*%
G01*
G04 APERTURE LIST*
%TA.AperFunction,ComponentPad*%
%ADD10O,1.600000X1.000000*%
%TD*%
%TA.AperFunction,ComponentPad*%
%ADD11O,2.100000X1.000000*%
%TD*%
%TA.AperFunction,ComponentPad*%
%ADD12R,1.350000X1.350000*%
%TD*%
%TA.AperFunction,ComponentPad*%
%ADD13O,1.350000X1.350000*%
%TD*%
%TA.AperFunction,ViaPad*%
%ADD14C,0.450000*%
%TD*%
G04 APERTURE END LIST*
D10*
%TO.N,GND*%
%TO.C,J2*%
X105460000Y-91610000D03*
D11*
X109640000Y-91610000D03*
D10*
X105460000Y-82970000D03*
D11*
X109640000Y-82970000D03*
%TD*%
D12*
%TO.N,GND*%
%TO.C,J1*%
X125200000Y-83225000D03*
D13*
%TO.N,/GPIO0*%
X125200000Y-85225000D03*
%TO.N,/RXD*%
X125200000Y-87225000D03*
%TO.N,/TXD*%
X125200000Y-89225000D03*
%TO.N,/EN*%
X125200000Y-91225000D03*
%TD*%
D14*
%TO.N,/RXD*%
X120435000Y-86071718D03*
%TO.N,+5V*%
X120460000Y-88507030D03*
X118000000Y-82990000D03*
X108900000Y-87150000D03*
X119220000Y-83070000D03*
X108900000Y-86400000D03*
X108900000Y-87850000D03*
X120471198Y-87334500D03*
X119450000Y-83646406D03*
X119450000Y-82448750D03*
%TO.N,Net-(C3-Pad1)*%
X119450000Y-92150000D03*
X112850000Y-86800000D03*
%TO.N,Net-(J2-PadA7)*%
X109529832Y-87490168D03*
X112800000Y-89300000D03*
%TO.N,Net-(R1-Pad2)*%
X119440000Y-84854062D03*
X112750000Y-84250000D03*
%TO.N,Net-(R2-Pad1)*%
X112750000Y-85550000D03*
X119440000Y-90942342D03*
%TO.N,Net-(Q1-Pad2)*%
X121700000Y-89140000D03*
X118010000Y-85530000D03*
%TO.N,Net-(Q2-Pad2)*%
X122480000Y-86800000D03*
X118060000Y-86810000D03*
%TD*%
%TA.AperFunction,Conductor*%
%TO.N,+5V*%
G36*
X126193810Y-81707033D02*
G01*
X126228454Y-81721395D01*
X126242794Y-81755810D01*
X126292350Y-92707704D01*
X126278156Y-92742417D01*
X126243230Y-92756926D01*
X112253863Y-92722216D01*
X103348878Y-92700121D01*
X103314266Y-92685683D01*
X103300000Y-92651121D01*
X103300000Y-91691105D01*
X104459031Y-91691105D01*
X104459720Y-91693974D01*
X104459720Y-91693976D01*
X104471356Y-91742440D01*
X104498612Y-91855968D01*
X104576375Y-92006631D01*
X104687831Y-92134396D01*
X104690246Y-92136094D01*
X104690248Y-92136095D01*
X104697209Y-92140987D01*
X104826547Y-92231887D01*
X104829295Y-92232958D01*
X104829298Y-92232960D01*
X104932711Y-92273279D01*
X104984513Y-92293476D01*
X105113826Y-92310500D01*
X105802516Y-92310500D01*
X105928320Y-92295276D01*
X105960474Y-92283126D01*
X106084158Y-92236390D01*
X106084159Y-92236389D01*
X106086923Y-92235345D01*
X106226651Y-92139312D01*
X106228616Y-92137107D01*
X106228619Y-92137104D01*
X106337472Y-92014930D01*
X106337473Y-92014929D01*
X106339440Y-92012721D01*
X106418776Y-91862881D01*
X106420513Y-91855968D01*
X106454716Y-91719799D01*
X106460081Y-91698441D01*
X106460119Y-91691105D01*
X108389031Y-91691105D01*
X108389720Y-91693974D01*
X108389720Y-91693976D01*
X108401356Y-91742440D01*
X108428612Y-91855968D01*
X108506375Y-92006631D01*
X108617831Y-92134396D01*
X108620246Y-92136094D01*
X108620248Y-92136095D01*
X108627209Y-92140987D01*
X108756547Y-92231887D01*
X108759295Y-92232958D01*
X108759298Y-92232960D01*
X108862711Y-92273279D01*
X108914513Y-92293476D01*
X109043826Y-92310500D01*
X110232516Y-92310500D01*
X110358320Y-92295276D01*
X110390474Y-92283126D01*
X110514158Y-92236390D01*
X110514159Y-92236389D01*
X110516923Y-92235345D01*
X110641100Y-92150000D01*
X119019196Y-92150000D01*
X119019799Y-92153807D01*
X119032336Y-92232960D01*
X119040281Y-92283126D01*
X119101472Y-92403220D01*
X119196780Y-92498528D01*
X119200213Y-92500277D01*
X119200214Y-92500278D01*
X119256827Y-92529124D01*
X119316874Y-92559719D01*
X119320679Y-92560322D01*
X119320680Y-92560322D01*
X119446193Y-92580201D01*
X119450000Y-92580804D01*
X119453807Y-92580201D01*
X119579320Y-92560322D01*
X119579321Y-92560322D01*
X119583126Y-92559719D01*
X119643173Y-92529124D01*
X119699786Y-92500278D01*
X119699787Y-92500277D01*
X119703220Y-92498528D01*
X119798528Y-92403220D01*
X119859719Y-92283126D01*
X119867665Y-92232960D01*
X119880201Y-92153807D01*
X119880804Y-92150000D01*
X119866904Y-92062236D01*
X119860322Y-92020680D01*
X119860322Y-92020679D01*
X119859719Y-92016874D01*
X119798528Y-91896780D01*
X119703220Y-91801472D01*
X119699787Y-91799723D01*
X119699786Y-91799722D01*
X119643173Y-91770876D01*
X119583126Y-91740281D01*
X119579321Y-91739678D01*
X119579320Y-91739678D01*
X119453807Y-91719799D01*
X119450000Y-91719196D01*
X119446193Y-91719799D01*
X119320680Y-91739678D01*
X119320679Y-91739678D01*
X119316874Y-91740281D01*
X119256827Y-91770877D01*
X119200214Y-91799722D01*
X119200213Y-91799723D01*
X119196780Y-91801472D01*
X119101472Y-91896780D01*
X119040281Y-92016874D01*
X119039678Y-92020679D01*
X119039678Y-92020680D01*
X119033096Y-92062236D01*
X119019196Y-92150000D01*
X110641100Y-92150000D01*
X110656651Y-92139312D01*
X110658616Y-92137107D01*
X110658619Y-92137104D01*
X110767472Y-92014930D01*
X110767473Y-92014929D01*
X110769440Y-92012721D01*
X110848776Y-91862881D01*
X110850513Y-91855968D01*
X110884716Y-91719799D01*
X110890081Y-91698441D01*
X110890969Y-91528895D01*
X110889918Y-91524515D01*
X110861951Y-91408029D01*
X110851388Y-91364032D01*
X110812219Y-91288144D01*
X110774978Y-91215990D01*
X110774977Y-91215989D01*
X110773625Y-91213369D01*
X110662169Y-91085604D01*
X110655175Y-91080688D01*
X110525870Y-90989812D01*
X110523453Y-90988113D01*
X110520705Y-90987042D01*
X110520702Y-90987040D01*
X110406057Y-90942342D01*
X119009196Y-90942342D01*
X119009799Y-90946149D01*
X119024976Y-91041971D01*
X119030281Y-91075468D01*
X119091472Y-91195562D01*
X119186780Y-91290870D01*
X119190213Y-91292619D01*
X119190214Y-91292620D01*
X119246827Y-91321465D01*
X119306874Y-91352061D01*
X119310679Y-91352664D01*
X119310680Y-91352664D01*
X119436193Y-91372543D01*
X119440000Y-91373146D01*
X119443807Y-91372543D01*
X119569320Y-91352664D01*
X119569321Y-91352664D01*
X119573126Y-91352061D01*
X119633173Y-91321465D01*
X119689786Y-91292620D01*
X119689787Y-91292619D01*
X119693220Y-91290870D01*
X119759090Y-91225000D01*
X124319678Y-91225000D01*
X124338915Y-91408029D01*
X124395786Y-91583059D01*
X124487805Y-91742440D01*
X124610950Y-91879207D01*
X124613030Y-91880718D01*
X124613032Y-91880720D01*
X124757759Y-91985870D01*
X124759839Y-91987381D01*
X124927966Y-92062236D01*
X125017973Y-92081368D01*
X125105472Y-92099967D01*
X125105475Y-92099967D01*
X125107981Y-92100500D01*
X125292019Y-92100500D01*
X125294525Y-92099967D01*
X125294528Y-92099967D01*
X125382027Y-92081368D01*
X125472034Y-92062236D01*
X125640161Y-91987381D01*
X125642241Y-91985870D01*
X125786968Y-91880720D01*
X125786970Y-91880718D01*
X125789050Y-91879207D01*
X125912195Y-91742440D01*
X126004214Y-91583059D01*
X126061085Y-91408029D01*
X126080322Y-91225000D01*
X126061085Y-91041971D01*
X126004214Y-90866941D01*
X125912195Y-90707560D01*
X125910341Y-90705500D01*
X125843817Y-90631618D01*
X125789050Y-90570793D01*
X125753843Y-90545213D01*
X125642241Y-90464130D01*
X125642240Y-90464129D01*
X125640161Y-90462619D01*
X125472034Y-90387764D01*
X125382026Y-90368632D01*
X125294528Y-90350033D01*
X125294525Y-90350033D01*
X125292019Y-90349500D01*
X125107981Y-90349500D01*
X125105475Y-90350033D01*
X125105472Y-90350033D01*
X125017973Y-90368632D01*
X124927966Y-90387764D01*
X124759839Y-90462619D01*
X124757760Y-90464129D01*
X124757759Y-90464130D01*
X124646158Y-90545213D01*
X124610950Y-90570793D01*
X124556183Y-90631618D01*
X124489660Y-90705500D01*
X124487805Y-90707560D01*
X124395786Y-90866941D01*
X124338915Y-91041971D01*
X124319678Y-91225000D01*
X119759090Y-91225000D01*
X119788528Y-91195562D01*
X119849719Y-91075468D01*
X119855025Y-91041971D01*
X119870201Y-90946149D01*
X119870804Y-90942342D01*
X119865602Y-90909500D01*
X119850322Y-90813022D01*
X119850322Y-90813021D01*
X119849719Y-90809216D01*
X119797923Y-90707560D01*
X119790278Y-90692556D01*
X119790277Y-90692555D01*
X119788528Y-90689122D01*
X119693220Y-90593814D01*
X119689787Y-90592065D01*
X119689786Y-90592064D01*
X119597835Y-90545213D01*
X119573126Y-90532623D01*
X119569321Y-90532020D01*
X119569320Y-90532020D01*
X119443807Y-90512141D01*
X119440000Y-90511538D01*
X119436193Y-90512141D01*
X119310680Y-90532020D01*
X119310679Y-90532020D01*
X119306874Y-90532623D01*
X119282165Y-90545213D01*
X119190214Y-90592064D01*
X119190213Y-90592065D01*
X119186780Y-90593814D01*
X119091472Y-90689122D01*
X119089723Y-90692555D01*
X119089722Y-90692556D01*
X119082077Y-90707560D01*
X119030281Y-90809216D01*
X119029678Y-90813021D01*
X119029678Y-90813022D01*
X119014398Y-90909500D01*
X119009196Y-90942342D01*
X110406057Y-90942342D01*
X110396293Y-90938535D01*
X110365487Y-90926524D01*
X110236174Y-90909500D01*
X109047484Y-90909500D01*
X108921680Y-90924724D01*
X108918917Y-90925768D01*
X108765842Y-90983610D01*
X108765841Y-90983611D01*
X108763077Y-90984655D01*
X108760639Y-90986330D01*
X108760640Y-90986330D01*
X108675971Y-91044522D01*
X108623349Y-91080688D01*
X108621384Y-91082893D01*
X108621381Y-91082896D01*
X108518571Y-91198288D01*
X108510560Y-91207279D01*
X108431224Y-91357119D01*
X108430506Y-91359977D01*
X108430505Y-91359980D01*
X108427198Y-91373146D01*
X108389919Y-91521559D01*
X108389031Y-91691105D01*
X106460119Y-91691105D01*
X106460969Y-91528895D01*
X106459918Y-91524515D01*
X106431951Y-91408029D01*
X106421388Y-91364032D01*
X106382219Y-91288144D01*
X106344978Y-91215990D01*
X106344977Y-91215989D01*
X106343625Y-91213369D01*
X106232169Y-91085604D01*
X106225175Y-91080688D01*
X106095870Y-90989812D01*
X106093453Y-90988113D01*
X106090705Y-90987042D01*
X106090702Y-90987040D01*
X105966293Y-90938535D01*
X105935487Y-90926524D01*
X105806174Y-90909500D01*
X105117484Y-90909500D01*
X104991680Y-90924724D01*
X104988917Y-90925768D01*
X104835842Y-90983610D01*
X104835841Y-90983611D01*
X104833077Y-90984655D01*
X104830639Y-90986330D01*
X104830640Y-90986330D01*
X104745971Y-91044522D01*
X104693349Y-91080688D01*
X104691384Y-91082893D01*
X104691381Y-91082896D01*
X104588571Y-91198288D01*
X104580560Y-91207279D01*
X104501224Y-91357119D01*
X104500506Y-91359977D01*
X104500505Y-91359980D01*
X104497198Y-91373146D01*
X104459919Y-91521559D01*
X104459031Y-91691105D01*
X103300000Y-91691105D01*
X103300000Y-90213307D01*
X108580606Y-90213307D01*
X108609064Y-90354444D01*
X108674429Y-90482730D01*
X108771884Y-90588712D01*
X108774721Y-90590471D01*
X108844475Y-90633720D01*
X108894250Y-90664582D01*
X108897453Y-90665513D01*
X108897454Y-90665513D01*
X108969334Y-90686396D01*
X109032512Y-90704751D01*
X109035074Y-90704939D01*
X109035079Y-90704940D01*
X109039163Y-90705239D01*
X109042712Y-90705500D01*
X109146070Y-90705500D01*
X109147717Y-90705274D01*
X109147723Y-90705274D01*
X109199780Y-90698143D01*
X109252646Y-90690901D01*
X109255713Y-90689574D01*
X109381717Y-90635047D01*
X109381718Y-90635046D01*
X109384783Y-90633720D01*
X109496675Y-90543112D01*
X109580079Y-90425751D01*
X109593756Y-90387764D01*
X109627717Y-90293433D01*
X109627718Y-90293431D01*
X109628850Y-90290285D01*
X109639394Y-90146693D01*
X109629973Y-90099967D01*
X109611597Y-90008835D01*
X109610936Y-90005556D01*
X109601676Y-89987381D01*
X109547087Y-89880246D01*
X109545571Y-89877270D01*
X109448116Y-89771288D01*
X109378916Y-89728382D01*
X109328584Y-89697175D01*
X109328583Y-89697175D01*
X109325750Y-89695418D01*
X109322547Y-89694487D01*
X109322546Y-89694487D01*
X109235160Y-89669099D01*
X109187488Y-89655249D01*
X109184926Y-89655061D01*
X109184921Y-89655060D01*
X109180837Y-89654761D01*
X109177288Y-89654500D01*
X109073930Y-89654500D01*
X109072283Y-89654726D01*
X109072277Y-89654726D01*
X109020220Y-89661857D01*
X108967354Y-89669099D01*
X108964288Y-89670426D01*
X108964287Y-89670426D01*
X108838283Y-89724953D01*
X108838282Y-89724954D01*
X108835217Y-89726280D01*
X108723325Y-89816888D01*
X108639921Y-89934249D01*
X108638790Y-89937389D01*
X108638789Y-89937392D01*
X108592283Y-90066567D01*
X108591150Y-90069715D01*
X108580606Y-90213307D01*
X103300000Y-90213307D01*
X103300000Y-89300000D01*
X112369196Y-89300000D01*
X112369799Y-89303807D01*
X112383961Y-89393220D01*
X112390281Y-89433126D01*
X112451472Y-89553220D01*
X112546780Y-89648528D01*
X112550213Y-89650277D01*
X112550214Y-89650278D01*
X112586264Y-89668646D01*
X112666874Y-89709719D01*
X112670679Y-89710322D01*
X112670680Y-89710322D01*
X112796193Y-89730201D01*
X112800000Y-89730804D01*
X112803807Y-89730201D01*
X112929320Y-89710322D01*
X112929321Y-89710322D01*
X112933126Y-89709719D01*
X113013736Y-89668646D01*
X113049786Y-89650278D01*
X113049787Y-89650277D01*
X113053220Y-89648528D01*
X113148528Y-89553220D01*
X113209719Y-89433126D01*
X113216040Y-89393220D01*
X113230201Y-89303807D01*
X113230804Y-89300000D01*
X113209719Y-89166874D01*
X113196026Y-89140000D01*
X121269196Y-89140000D01*
X121269799Y-89143807D01*
X121283063Y-89227550D01*
X121290281Y-89273126D01*
X121351472Y-89393220D01*
X121446780Y-89488528D01*
X121450213Y-89490277D01*
X121450214Y-89490278D01*
X121506827Y-89519123D01*
X121566874Y-89549719D01*
X121570679Y-89550322D01*
X121570680Y-89550322D01*
X121696193Y-89570201D01*
X121700000Y-89570804D01*
X121703807Y-89570201D01*
X121829320Y-89550322D01*
X121829321Y-89550322D01*
X121833126Y-89549719D01*
X121893173Y-89519123D01*
X121949786Y-89490278D01*
X121949787Y-89490277D01*
X121953220Y-89488528D01*
X122048528Y-89393220D01*
X122109719Y-89273126D01*
X122116938Y-89227550D01*
X122117342Y-89225000D01*
X124319678Y-89225000D01*
X124338915Y-89408029D01*
X124395786Y-89583059D01*
X124487805Y-89742440D01*
X124610950Y-89879207D01*
X124759839Y-89987381D01*
X124927966Y-90062236D01*
X125017973Y-90081368D01*
X125105472Y-90099967D01*
X125105475Y-90099967D01*
X125107981Y-90100500D01*
X125292019Y-90100500D01*
X125294525Y-90099967D01*
X125294528Y-90099967D01*
X125382027Y-90081368D01*
X125472034Y-90062236D01*
X125640161Y-89987381D01*
X125789050Y-89879207D01*
X125912195Y-89742440D01*
X126004214Y-89583059D01*
X126061085Y-89408029D01*
X126080322Y-89225000D01*
X126061085Y-89041971D01*
X126004214Y-88866941D01*
X125912195Y-88707560D01*
X125789050Y-88570793D01*
X125640161Y-88462619D01*
X125472034Y-88387764D01*
X125382026Y-88368632D01*
X125294528Y-88350033D01*
X125294525Y-88350033D01*
X125292019Y-88349500D01*
X125107981Y-88349500D01*
X125105475Y-88350033D01*
X125105472Y-88350033D01*
X125017974Y-88368632D01*
X124927966Y-88387764D01*
X124759839Y-88462619D01*
X124610950Y-88570793D01*
X124487805Y-88707560D01*
X124395786Y-88866941D01*
X124338915Y-89041971D01*
X124319678Y-89225000D01*
X122117342Y-89225000D01*
X122130201Y-89143807D01*
X122130804Y-89140000D01*
X122116583Y-89050214D01*
X122110322Y-89010680D01*
X122110322Y-89010679D01*
X122109719Y-89006874D01*
X122048528Y-88886780D01*
X121953220Y-88791472D01*
X121949787Y-88789723D01*
X121949786Y-88789722D01*
X121893173Y-88760877D01*
X121833126Y-88730281D01*
X121829321Y-88729678D01*
X121829320Y-88729678D01*
X121703807Y-88709799D01*
X121700000Y-88709196D01*
X121696193Y-88709799D01*
X121570680Y-88729678D01*
X121570679Y-88729678D01*
X121566874Y-88730281D01*
X121506827Y-88760877D01*
X121450214Y-88789722D01*
X121450213Y-88789723D01*
X121446780Y-88791472D01*
X121351472Y-88886780D01*
X121290281Y-89006874D01*
X121289678Y-89010679D01*
X121289678Y-89010680D01*
X121283417Y-89050214D01*
X121269196Y-89140000D01*
X113196026Y-89140000D01*
X113148528Y-89046780D01*
X113053220Y-88951472D01*
X113049787Y-88949723D01*
X113049786Y-88949722D01*
X112993173Y-88920877D01*
X112933126Y-88890281D01*
X112929321Y-88889678D01*
X112929320Y-88889678D01*
X112803807Y-88869799D01*
X112800000Y-88869196D01*
X112796193Y-88869799D01*
X112670680Y-88889678D01*
X112670679Y-88889678D01*
X112666874Y-88890281D01*
X112606827Y-88920877D01*
X112550214Y-88949722D01*
X112550213Y-88949723D01*
X112546780Y-88951472D01*
X112451472Y-89046780D01*
X112390281Y-89166874D01*
X112369196Y-89300000D01*
X103300000Y-89300000D01*
X103300000Y-87490168D01*
X109099028Y-87490168D01*
X109120113Y-87623294D01*
X109181304Y-87743388D01*
X109276612Y-87838696D01*
X109280045Y-87840445D01*
X109280046Y-87840446D01*
X109336659Y-87869291D01*
X109396706Y-87899887D01*
X109400511Y-87900490D01*
X109400512Y-87900490D01*
X109526025Y-87920369D01*
X109529832Y-87920972D01*
X109533639Y-87920369D01*
X109659152Y-87900490D01*
X109659153Y-87900490D01*
X109662958Y-87899887D01*
X109723005Y-87869291D01*
X109779618Y-87840446D01*
X109779619Y-87840445D01*
X109783052Y-87838696D01*
X109878360Y-87743388D01*
X109939551Y-87623294D01*
X109960636Y-87490168D01*
X109947627Y-87408029D01*
X109940154Y-87360848D01*
X109940154Y-87360847D01*
X109939551Y-87357042D01*
X109878360Y-87236948D01*
X109783052Y-87141640D01*
X109779619Y-87139891D01*
X109779618Y-87139890D01*
X109723005Y-87111045D01*
X109662958Y-87080449D01*
X109659153Y-87079846D01*
X109659152Y-87079846D01*
X109533639Y-87059967D01*
X109529832Y-87059364D01*
X109526025Y-87059967D01*
X109400512Y-87079846D01*
X109400511Y-87079846D01*
X109396706Y-87080449D01*
X109336659Y-87111044D01*
X109280046Y-87139890D01*
X109280045Y-87139891D01*
X109276612Y-87141640D01*
X109181304Y-87236948D01*
X109120113Y-87357042D01*
X109119510Y-87360847D01*
X109119510Y-87360848D01*
X109112037Y-87408029D01*
X109099028Y-87490168D01*
X103300000Y-87490168D01*
X103300000Y-86800000D01*
X112419196Y-86800000D01*
X112440281Y-86933126D01*
X112501472Y-87053220D01*
X112596780Y-87148528D01*
X112600213Y-87150277D01*
X112600214Y-87150278D01*
X112656827Y-87179123D01*
X112716874Y-87209719D01*
X112720679Y-87210322D01*
X112720680Y-87210322D01*
X112846193Y-87230201D01*
X112850000Y-87230804D01*
X112853807Y-87230201D01*
X112979320Y-87210322D01*
X112979321Y-87210322D01*
X112983126Y-87209719D01*
X113043173Y-87179123D01*
X113099786Y-87150278D01*
X113099787Y-87150277D01*
X113103220Y-87148528D01*
X113198528Y-87053220D01*
X113259719Y-86933126D01*
X113279220Y-86810000D01*
X117629196Y-86810000D01*
X117629799Y-86813807D01*
X117638215Y-86866941D01*
X117650281Y-86943126D01*
X117652031Y-86946560D01*
X117707766Y-87055946D01*
X117711472Y-87063220D01*
X117806780Y-87158528D01*
X117810213Y-87160277D01*
X117810214Y-87160278D01*
X117866827Y-87189124D01*
X117926874Y-87219719D01*
X117930679Y-87220322D01*
X117930680Y-87220322D01*
X118056193Y-87240201D01*
X118060000Y-87240804D01*
X118063807Y-87240201D01*
X118189320Y-87220322D01*
X118189321Y-87220322D01*
X118193126Y-87219719D01*
X118253173Y-87189124D01*
X118309786Y-87160278D01*
X118309787Y-87160277D01*
X118313220Y-87158528D01*
X118408528Y-87063220D01*
X118412235Y-87055946D01*
X118467969Y-86946560D01*
X118469719Y-86943126D01*
X118481786Y-86866941D01*
X118490201Y-86813807D01*
X118490804Y-86810000D01*
X118489220Y-86800000D01*
X122049196Y-86800000D01*
X122070281Y-86933126D01*
X122131472Y-87053220D01*
X122226780Y-87148528D01*
X122230213Y-87150277D01*
X122230214Y-87150278D01*
X122286827Y-87179123D01*
X122346874Y-87209719D01*
X122350679Y-87210322D01*
X122350680Y-87210322D01*
X122476193Y-87230201D01*
X122480000Y-87230804D01*
X122483807Y-87230201D01*
X122516645Y-87225000D01*
X124319678Y-87225000D01*
X124338915Y-87408029D01*
X124395786Y-87583059D01*
X124487805Y-87742440D01*
X124610950Y-87879207D01*
X124613030Y-87880718D01*
X124613032Y-87880720D01*
X124757759Y-87985870D01*
X124759839Y-87987381D01*
X124927966Y-88062236D01*
X125017974Y-88081368D01*
X125105472Y-88099967D01*
X125105475Y-88099967D01*
X125107981Y-88100500D01*
X125292019Y-88100500D01*
X125294525Y-88099967D01*
X125294528Y-88099967D01*
X125382026Y-88081368D01*
X125472034Y-88062236D01*
X125640161Y-87987381D01*
X125642241Y-87985870D01*
X125786968Y-87880720D01*
X125786970Y-87880718D01*
X125789050Y-87879207D01*
X125912195Y-87742440D01*
X126004214Y-87583059D01*
X126061085Y-87408029D01*
X126080322Y-87225000D01*
X126061085Y-87041971D01*
X126004214Y-86866941D01*
X125912195Y-86707560D01*
X125884566Y-86676874D01*
X125790772Y-86572706D01*
X125789050Y-86570793D01*
X125774490Y-86560214D01*
X125642241Y-86464130D01*
X125642240Y-86464129D01*
X125640161Y-86462619D01*
X125472034Y-86387764D01*
X125382026Y-86368632D01*
X125294528Y-86350033D01*
X125294525Y-86350033D01*
X125292019Y-86349500D01*
X125107981Y-86349500D01*
X125105475Y-86350033D01*
X125105472Y-86350033D01*
X125017974Y-86368632D01*
X124927966Y-86387764D01*
X124759839Y-86462619D01*
X124757760Y-86464129D01*
X124757759Y-86464130D01*
X124625511Y-86560214D01*
X124610950Y-86570793D01*
X124609228Y-86572706D01*
X124515435Y-86676874D01*
X124487805Y-86707560D01*
X124395786Y-86866941D01*
X124338915Y-87041971D01*
X124319678Y-87225000D01*
X122516645Y-87225000D01*
X122609320Y-87210322D01*
X122609321Y-87210322D01*
X122613126Y-87209719D01*
X122673173Y-87179123D01*
X122729786Y-87150278D01*
X122729787Y-87150277D01*
X122733220Y-87148528D01*
X122828528Y-87053220D01*
X122889719Y-86933126D01*
X122910804Y-86800000D01*
X122889719Y-86666874D01*
X122840763Y-86570793D01*
X122830278Y-86550214D01*
X122830277Y-86550213D01*
X122828528Y-86546780D01*
X122733220Y-86451472D01*
X122729787Y-86449723D01*
X122729786Y-86449722D01*
X122671936Y-86420246D01*
X122613126Y-86390281D01*
X122609321Y-86389678D01*
X122609320Y-86389678D01*
X122483807Y-86369799D01*
X122480000Y-86369196D01*
X122476193Y-86369799D01*
X122350680Y-86389678D01*
X122350679Y-86389678D01*
X122346874Y-86390281D01*
X122288064Y-86420246D01*
X122230214Y-86449722D01*
X122230213Y-86449723D01*
X122226780Y-86451472D01*
X122131472Y-86546780D01*
X122129723Y-86550213D01*
X122129722Y-86550214D01*
X122119237Y-86570793D01*
X122070281Y-86666874D01*
X122049196Y-86800000D01*
X118489220Y-86800000D01*
X118487282Y-86787764D01*
X118470322Y-86680680D01*
X118470322Y-86680679D01*
X118469719Y-86676874D01*
X118408528Y-86556780D01*
X118313220Y-86461472D01*
X118309787Y-86459723D01*
X118309786Y-86459722D01*
X118226959Y-86417520D01*
X118193126Y-86400281D01*
X118189321Y-86399678D01*
X118189320Y-86399678D01*
X118063807Y-86379799D01*
X118060000Y-86379196D01*
X118056193Y-86379799D01*
X117930680Y-86399678D01*
X117930679Y-86399678D01*
X117926874Y-86400281D01*
X117893041Y-86417520D01*
X117810214Y-86459722D01*
X117810213Y-86459723D01*
X117806780Y-86461472D01*
X117711472Y-86556780D01*
X117650281Y-86676874D01*
X117649678Y-86680679D01*
X117649678Y-86680680D01*
X117632718Y-86787764D01*
X117629196Y-86810000D01*
X113279220Y-86810000D01*
X113280804Y-86800000D01*
X113259719Y-86666874D01*
X113210763Y-86570793D01*
X113200278Y-86550214D01*
X113200277Y-86550213D01*
X113198528Y-86546780D01*
X113103220Y-86451472D01*
X113099787Y-86449723D01*
X113099786Y-86449722D01*
X113041936Y-86420246D01*
X112983126Y-86390281D01*
X112979321Y-86389678D01*
X112979320Y-86389678D01*
X112853807Y-86369799D01*
X112850000Y-86369196D01*
X112846193Y-86369799D01*
X112720680Y-86389678D01*
X112720679Y-86389678D01*
X112716874Y-86390281D01*
X112658064Y-86420246D01*
X112600214Y-86449722D01*
X112600213Y-86449723D01*
X112596780Y-86451472D01*
X112501472Y-86546780D01*
X112499723Y-86550213D01*
X112499722Y-86550214D01*
X112489237Y-86570793D01*
X112440281Y-86666874D01*
X112419196Y-86800000D01*
X103300000Y-86800000D01*
X103300000Y-86071718D01*
X120004196Y-86071718D01*
X120025281Y-86204844D01*
X120086472Y-86324938D01*
X120181780Y-86420246D01*
X120185213Y-86421995D01*
X120185214Y-86421996D01*
X120239630Y-86449722D01*
X120301874Y-86481437D01*
X120305679Y-86482040D01*
X120305680Y-86482040D01*
X120431193Y-86501919D01*
X120435000Y-86502522D01*
X120438807Y-86501919D01*
X120564320Y-86482040D01*
X120564321Y-86482040D01*
X120568126Y-86481437D01*
X120630370Y-86449722D01*
X120684786Y-86421996D01*
X120684787Y-86421995D01*
X120688220Y-86420246D01*
X120783528Y-86324938D01*
X120844719Y-86204844D01*
X120865804Y-86071718D01*
X120844719Y-85938592D01*
X120783528Y-85818498D01*
X120688220Y-85723190D01*
X120684787Y-85721441D01*
X120684786Y-85721440D01*
X120577077Y-85666560D01*
X120568126Y-85661999D01*
X120564321Y-85661396D01*
X120564320Y-85661396D01*
X120438807Y-85641517D01*
X120435000Y-85640914D01*
X120431193Y-85641517D01*
X120305680Y-85661396D01*
X120305679Y-85661396D01*
X120301874Y-85661999D01*
X120292923Y-85666560D01*
X120185214Y-85721440D01*
X120185213Y-85721441D01*
X120181780Y-85723190D01*
X120086472Y-85818498D01*
X120025281Y-85938592D01*
X120004196Y-86071718D01*
X103300000Y-86071718D01*
X103300000Y-85550000D01*
X112319196Y-85550000D01*
X112319799Y-85553807D01*
X112336511Y-85659320D01*
X112340281Y-85683126D01*
X112401472Y-85803220D01*
X112496780Y-85898528D01*
X112500213Y-85900277D01*
X112500214Y-85900278D01*
X112556827Y-85929123D01*
X112616874Y-85959719D01*
X112620679Y-85960322D01*
X112620680Y-85960322D01*
X112746193Y-85980201D01*
X112750000Y-85980804D01*
X112753807Y-85980201D01*
X112879320Y-85960322D01*
X112879321Y-85960322D01*
X112883126Y-85959719D01*
X112943173Y-85929123D01*
X112999786Y-85900278D01*
X112999787Y-85900277D01*
X113003220Y-85898528D01*
X113098528Y-85803220D01*
X113159719Y-85683126D01*
X113163490Y-85659320D01*
X113180201Y-85553807D01*
X113180804Y-85550000D01*
X113177636Y-85530000D01*
X117579196Y-85530000D01*
X117600281Y-85663126D01*
X117630877Y-85723173D01*
X117640694Y-85742440D01*
X117661472Y-85783220D01*
X117756780Y-85878528D01*
X117760213Y-85880277D01*
X117760214Y-85880278D01*
X117790682Y-85895802D01*
X117876874Y-85939719D01*
X117880679Y-85940322D01*
X117880680Y-85940322D01*
X118006193Y-85960201D01*
X118010000Y-85960804D01*
X118013807Y-85960201D01*
X118139320Y-85940322D01*
X118139321Y-85940322D01*
X118143126Y-85939719D01*
X118229318Y-85895802D01*
X118259786Y-85880278D01*
X118259787Y-85880277D01*
X118263220Y-85878528D01*
X118358528Y-85783220D01*
X118379307Y-85742440D01*
X118389124Y-85723173D01*
X118419719Y-85663126D01*
X118440804Y-85530000D01*
X118437282Y-85507764D01*
X118420322Y-85400680D01*
X118420322Y-85400679D01*
X118419719Y-85396874D01*
X118358528Y-85276780D01*
X118263220Y-85181472D01*
X118259787Y-85179723D01*
X118259786Y-85179722D01*
X118181195Y-85139678D01*
X118143126Y-85120281D01*
X118139321Y-85119678D01*
X118139320Y-85119678D01*
X118013807Y-85099799D01*
X118010000Y-85099196D01*
X118006193Y-85099799D01*
X117880680Y-85119678D01*
X117880679Y-85119678D01*
X117876874Y-85120281D01*
X117838805Y-85139678D01*
X117760214Y-85179722D01*
X117760213Y-85179723D01*
X117756780Y-85181472D01*
X117661472Y-85276780D01*
X117600281Y-85396874D01*
X117599678Y-85400679D01*
X117599678Y-85400680D01*
X117582718Y-85507764D01*
X117579196Y-85530000D01*
X113177636Y-85530000D01*
X113159719Y-85416874D01*
X113098528Y-85296780D01*
X113003220Y-85201472D01*
X112999787Y-85199723D01*
X112999786Y-85199722D01*
X112943173Y-85170876D01*
X112883126Y-85140281D01*
X112879321Y-85139678D01*
X112879320Y-85139678D01*
X112753807Y-85119799D01*
X112750000Y-85119196D01*
X112746193Y-85119799D01*
X112620680Y-85139678D01*
X112620679Y-85139678D01*
X112616874Y-85140281D01*
X112556827Y-85170877D01*
X112500214Y-85199722D01*
X112500213Y-85199723D01*
X112496780Y-85201472D01*
X112401472Y-85296780D01*
X112340281Y-85416874D01*
X112319196Y-85550000D01*
X103300000Y-85550000D01*
X103300000Y-84433307D01*
X108580606Y-84433307D01*
X108581266Y-84436580D01*
X108581266Y-84436581D01*
X108586516Y-84462619D01*
X108609064Y-84574444D01*
X108674429Y-84702730D01*
X108771884Y-84808712D01*
X108774721Y-84810471D01*
X108844475Y-84853720D01*
X108894250Y-84884582D01*
X108897453Y-84885513D01*
X108897454Y-84885513D01*
X108974990Y-84908039D01*
X109032512Y-84924751D01*
X109035074Y-84924939D01*
X109035079Y-84924940D01*
X109039163Y-84925239D01*
X109042712Y-84925500D01*
X109146070Y-84925500D01*
X109147717Y-84925274D01*
X109147723Y-84925274D01*
X109199780Y-84918143D01*
X109252646Y-84910901D01*
X109311314Y-84885513D01*
X109381717Y-84855047D01*
X109381718Y-84855046D01*
X109383992Y-84854062D01*
X119009196Y-84854062D01*
X119030281Y-84987188D01*
X119091472Y-85107282D01*
X119186780Y-85202590D01*
X119190213Y-85204339D01*
X119190214Y-85204340D01*
X119225757Y-85222450D01*
X119306874Y-85263781D01*
X119310679Y-85264384D01*
X119310680Y-85264384D01*
X119436193Y-85284263D01*
X119440000Y-85284866D01*
X119443807Y-85284263D01*
X119569320Y-85264384D01*
X119569321Y-85264384D01*
X119573126Y-85263781D01*
X119649238Y-85225000D01*
X124319678Y-85225000D01*
X124338915Y-85408029D01*
X124395786Y-85583059D01*
X124487805Y-85742440D01*
X124610950Y-85879207D01*
X124613030Y-85880718D01*
X124613032Y-85880720D01*
X124757759Y-85985870D01*
X124759839Y-85987381D01*
X124927966Y-86062236D01*
X124972575Y-86071718D01*
X125105472Y-86099967D01*
X125105475Y-86099967D01*
X125107981Y-86100500D01*
X125292019Y-86100500D01*
X125294525Y-86099967D01*
X125294528Y-86099967D01*
X125427425Y-86071718D01*
X125472034Y-86062236D01*
X125640161Y-85987381D01*
X125642241Y-85985870D01*
X125786968Y-85880720D01*
X125786970Y-85880718D01*
X125789050Y-85879207D01*
X125912195Y-85742440D01*
X126004214Y-85583059D01*
X126061085Y-85408029D01*
X126080322Y-85225000D01*
X126061085Y-85041971D01*
X126004214Y-84866941D01*
X125912195Y-84707560D01*
X125910060Y-84705188D01*
X125815598Y-84600278D01*
X125789050Y-84570793D01*
X125701174Y-84506947D01*
X125642241Y-84464130D01*
X125642240Y-84464129D01*
X125640161Y-84462619D01*
X125472034Y-84387764D01*
X125382027Y-84368632D01*
X125294528Y-84350033D01*
X125294525Y-84350033D01*
X125292019Y-84349500D01*
X125107981Y-84349500D01*
X125105475Y-84350033D01*
X125105472Y-84350033D01*
X125017973Y-84368632D01*
X124927966Y-84387764D01*
X124759839Y-84462619D01*
X124757760Y-84464129D01*
X124757759Y-84464130D01*
X124698827Y-84506947D01*
X124610950Y-84570793D01*
X124584402Y-84600278D01*
X124489941Y-84705188D01*
X124487805Y-84707560D01*
X124395786Y-84866941D01*
X124338915Y-85041971D01*
X124319678Y-85225000D01*
X119649238Y-85225000D01*
X119654243Y-85222450D01*
X119689786Y-85204340D01*
X119689787Y-85204339D01*
X119693220Y-85202590D01*
X119788528Y-85107282D01*
X119849719Y-84987188D01*
X119870804Y-84854062D01*
X119849719Y-84720936D01*
X119788528Y-84600842D01*
X119693220Y-84505534D01*
X119689787Y-84503785D01*
X119689786Y-84503784D01*
X119611960Y-84464130D01*
X119573126Y-84444343D01*
X119569321Y-84443740D01*
X119569320Y-84443740D01*
X119443807Y-84423861D01*
X119440000Y-84423258D01*
X119436193Y-84423861D01*
X119310680Y-84443740D01*
X119310679Y-84443740D01*
X119306874Y-84444343D01*
X119268040Y-84464130D01*
X119190214Y-84503784D01*
X119190213Y-84503785D01*
X119186780Y-84505534D01*
X119091472Y-84600842D01*
X119030281Y-84720936D01*
X119009196Y-84854062D01*
X109383992Y-84854062D01*
X109384783Y-84853720D01*
X109496675Y-84763112D01*
X109569724Y-84660322D01*
X109578144Y-84648474D01*
X109578144Y-84648473D01*
X109580079Y-84645751D01*
X109596248Y-84600842D01*
X109627717Y-84513433D01*
X109627718Y-84513431D01*
X109628850Y-84510285D01*
X109639394Y-84366693D01*
X109615865Y-84250000D01*
X112319196Y-84250000D01*
X112319799Y-84253807D01*
X112335040Y-84350033D01*
X112340281Y-84383126D01*
X112401472Y-84503220D01*
X112496780Y-84598528D01*
X112500213Y-84600277D01*
X112500214Y-84600278D01*
X112501321Y-84600842D01*
X112616874Y-84659719D01*
X112620679Y-84660322D01*
X112620680Y-84660322D01*
X112746193Y-84680201D01*
X112750000Y-84680804D01*
X112753807Y-84680201D01*
X112879320Y-84660322D01*
X112879321Y-84660322D01*
X112883126Y-84659719D01*
X112998679Y-84600842D01*
X112999786Y-84600278D01*
X112999787Y-84600277D01*
X113003220Y-84598528D01*
X113098528Y-84503220D01*
X113159719Y-84383126D01*
X113164961Y-84350033D01*
X113180201Y-84253807D01*
X113180804Y-84250000D01*
X113176460Y-84222576D01*
X113160322Y-84120680D01*
X113160322Y-84120679D01*
X113159719Y-84116874D01*
X113098528Y-83996780D01*
X113021496Y-83919748D01*
X124324500Y-83919748D01*
X124336133Y-83978231D01*
X124338815Y-83982245D01*
X124346500Y-83993746D01*
X124380448Y-84044552D01*
X124446769Y-84088867D01*
X124505252Y-84100500D01*
X125894748Y-84100500D01*
X125953231Y-84088867D01*
X126019552Y-84044552D01*
X126053500Y-83993746D01*
X126061185Y-83982245D01*
X126063867Y-83978231D01*
X126075500Y-83919748D01*
X126075500Y-82530252D01*
X126063867Y-82471769D01*
X126019552Y-82405448D01*
X125953231Y-82361133D01*
X125894748Y-82349500D01*
X124505252Y-82349500D01*
X124446769Y-82361133D01*
X124380448Y-82405448D01*
X124336133Y-82471769D01*
X124324500Y-82530252D01*
X124324500Y-83919748D01*
X113021496Y-83919748D01*
X113003220Y-83901472D01*
X112999787Y-83899723D01*
X112999786Y-83899722D01*
X112943173Y-83870876D01*
X112883126Y-83840281D01*
X112879321Y-83839678D01*
X112879320Y-83839678D01*
X112753807Y-83819799D01*
X112750000Y-83819196D01*
X112746193Y-83819799D01*
X112620680Y-83839678D01*
X112620679Y-83839678D01*
X112616874Y-83840281D01*
X112556827Y-83870877D01*
X112500214Y-83899722D01*
X112500213Y-83899723D01*
X112496780Y-83901472D01*
X112401472Y-83996780D01*
X112340281Y-84116874D01*
X112339678Y-84120679D01*
X112339678Y-84120680D01*
X112323540Y-84222576D01*
X112319196Y-84250000D01*
X109615865Y-84250000D01*
X109610936Y-84225556D01*
X109545571Y-84097270D01*
X109538711Y-84089809D01*
X109450376Y-83993746D01*
X109448116Y-83991288D01*
X109378916Y-83948382D01*
X109328584Y-83917175D01*
X109328583Y-83917175D01*
X109325750Y-83915418D01*
X109322547Y-83914487D01*
X109322546Y-83914487D01*
X109235160Y-83889099D01*
X109187488Y-83875249D01*
X109184926Y-83875061D01*
X109184921Y-83875060D01*
X109180837Y-83874761D01*
X109177288Y-83874500D01*
X109073930Y-83874500D01*
X109072283Y-83874726D01*
X109072277Y-83874726D01*
X109020220Y-83881857D01*
X108967354Y-83889099D01*
X108964288Y-83890426D01*
X108964287Y-83890426D01*
X108838283Y-83944953D01*
X108838282Y-83944954D01*
X108835217Y-83946280D01*
X108723325Y-84036888D01*
X108639921Y-84154249D01*
X108638790Y-84157389D01*
X108638789Y-84157392D01*
X108592283Y-84286567D01*
X108591150Y-84289715D01*
X108580606Y-84433307D01*
X103300000Y-84433307D01*
X103300000Y-83051105D01*
X104459031Y-83051105D01*
X104459720Y-83053974D01*
X104459720Y-83053976D01*
X104460792Y-83058441D01*
X104498612Y-83215968D01*
X104576375Y-83366631D01*
X104687831Y-83494396D01*
X104690246Y-83496094D01*
X104690248Y-83496095D01*
X104697209Y-83500987D01*
X104826547Y-83591887D01*
X104829295Y-83592958D01*
X104829298Y-83592960D01*
X104932711Y-83633279D01*
X104984513Y-83653476D01*
X105113826Y-83670500D01*
X105802516Y-83670500D01*
X105928320Y-83655276D01*
X105935921Y-83652404D01*
X106084158Y-83596390D01*
X106084159Y-83596389D01*
X106086923Y-83595345D01*
X106226651Y-83499312D01*
X106228616Y-83497107D01*
X106228619Y-83497104D01*
X106337472Y-83374930D01*
X106337473Y-83374929D01*
X106339440Y-83372721D01*
X106418776Y-83222881D01*
X106420513Y-83215968D01*
X106459361Y-83061306D01*
X106460081Y-83058441D01*
X106460119Y-83051105D01*
X108389031Y-83051105D01*
X108389720Y-83053974D01*
X108389720Y-83053976D01*
X108390792Y-83058441D01*
X108428612Y-83215968D01*
X108506375Y-83366631D01*
X108617831Y-83494396D01*
X108620246Y-83496094D01*
X108620248Y-83496095D01*
X108627209Y-83500987D01*
X108756547Y-83591887D01*
X108759295Y-83592958D01*
X108759298Y-83592960D01*
X108862711Y-83633279D01*
X108914513Y-83653476D01*
X109043826Y-83670500D01*
X110232516Y-83670500D01*
X110358320Y-83655276D01*
X110365921Y-83652404D01*
X110514158Y-83596390D01*
X110514159Y-83596389D01*
X110516923Y-83595345D01*
X110656651Y-83499312D01*
X110658616Y-83497107D01*
X110658619Y-83497104D01*
X110767472Y-83374930D01*
X110767473Y-83374929D01*
X110769440Y-83372721D01*
X110848776Y-83222881D01*
X110850513Y-83215968D01*
X110889361Y-83061306D01*
X110890081Y-83058441D01*
X110890969Y-82888895D01*
X110889918Y-82884515D01*
X110852078Y-82726907D01*
X110851388Y-82724032D01*
X110773625Y-82573369D01*
X110662169Y-82445604D01*
X110655175Y-82440688D01*
X110592811Y-82396859D01*
X110523453Y-82348113D01*
X110520705Y-82347042D01*
X110520702Y-82347040D01*
X110417289Y-82306721D01*
X110365487Y-82286524D01*
X110236174Y-82269500D01*
X109047484Y-82269500D01*
X108921680Y-82284724D01*
X108918917Y-82285768D01*
X108765842Y-82343610D01*
X108765841Y-82343611D01*
X108763077Y-82344655D01*
X108623349Y-82440688D01*
X108621384Y-82442893D01*
X108621381Y-82442896D01*
X108512528Y-82565070D01*
X108510560Y-82567279D01*
X108431224Y-82717119D01*
X108430506Y-82719977D01*
X108430505Y-82719980D01*
X108428765Y-82726907D01*
X108389919Y-82881559D01*
X108389031Y-83051105D01*
X106460119Y-83051105D01*
X106460969Y-82888895D01*
X106459918Y-82884515D01*
X106422078Y-82726907D01*
X106421388Y-82724032D01*
X106343625Y-82573369D01*
X106232169Y-82445604D01*
X106225175Y-82440688D01*
X106162811Y-82396859D01*
X106093453Y-82348113D01*
X106090705Y-82347042D01*
X106090702Y-82347040D01*
X105987289Y-82306721D01*
X105935487Y-82286524D01*
X105806174Y-82269500D01*
X105117484Y-82269500D01*
X104991680Y-82284724D01*
X104988917Y-82285768D01*
X104835842Y-82343610D01*
X104835841Y-82343611D01*
X104833077Y-82344655D01*
X104693349Y-82440688D01*
X104691384Y-82442893D01*
X104691381Y-82442896D01*
X104582528Y-82565070D01*
X104580560Y-82567279D01*
X104501224Y-82717119D01*
X104500506Y-82719977D01*
X104500505Y-82719980D01*
X104498765Y-82726907D01*
X104459919Y-82881559D01*
X104459031Y-83051105D01*
X103300000Y-83051105D01*
X103300000Y-81749015D01*
X103314352Y-81714367D01*
X103349015Y-81700015D01*
X126193810Y-81707033D01*
G37*
%TD.AperFunction*%
%TD*%
M02*
