%TF.GenerationSoftware,KiCad,Pcbnew,(6.0.2)*%
%TF.CreationDate,2022-03-06T10:13:05+08:00*%
%TF.ProjectId,USB-TTL-V1,5553422d-5454-44c2-9d56-312e6b696361,rev?*%
%TF.SameCoordinates,Original*%
%TF.FileFunction,Copper,L3,Inr*%
%TF.FilePolarity,Positive*%
%FSLAX46Y46*%
G04 Gerber Fmt 4.6, Leading zero omitted, Abs format (unit mm)*
G04 Created by KiCad (PCBNEW (6.0.2)) date 2022-03-06 10:13:05*
%MOMM*%
%LPD*%
G01*
G04 APERTURE LIST*
%TA.AperFunction,ComponentPad*%
%ADD10O,1.600000X1.000000*%
%TD*%
%TA.AperFunction,ComponentPad*%
%ADD11O,2.100000X1.000000*%
%TD*%
%TA.AperFunction,ComponentPad*%
%ADD12R,1.350000X1.350000*%
%TD*%
%TA.AperFunction,ComponentPad*%
%ADD13O,1.350000X1.350000*%
%TD*%
%TA.AperFunction,ViaPad*%
%ADD14C,0.450000*%
%TD*%
G04 APERTURE END LIST*
D10*
%TO.N,GND*%
%TO.C,J2*%
X105460000Y-91610000D03*
D11*
X109640000Y-91610000D03*
D10*
X105460000Y-82970000D03*
D11*
X109640000Y-82970000D03*
%TD*%
D12*
%TO.N,GND*%
%TO.C,J1*%
X125200000Y-83225000D03*
D13*
%TO.N,/GPIO0*%
X125200000Y-85225000D03*
%TO.N,/RXD*%
X125200000Y-87225000D03*
%TO.N,/TXD*%
X125200000Y-89225000D03*
%TO.N,/EN*%
X125200000Y-91225000D03*
%TD*%
D14*
%TO.N,/RXD*%
X120435000Y-86071718D03*
%TO.N,+5V*%
X120460000Y-88507030D03*
X118000000Y-82990000D03*
X108900000Y-87150000D03*
X119220000Y-83070000D03*
X108900000Y-86400000D03*
X108900000Y-87850000D03*
X120471198Y-87334500D03*
X119450000Y-83646406D03*
X119450000Y-82448750D03*
%TO.N,Net-(C3-Pad1)*%
X119450000Y-92150000D03*
X112850000Y-86800000D03*
%TO.N,Net-(J2-PadA7)*%
X109529832Y-87490168D03*
X112800000Y-89300000D03*
%TO.N,Net-(R1-Pad2)*%
X119440000Y-84854062D03*
X112750000Y-84250000D03*
%TO.N,Net-(R2-Pad1)*%
X112750000Y-85550000D03*
X119440000Y-90942342D03*
%TO.N,Net-(Q1-Pad2)*%
X121700000Y-89140000D03*
X118010000Y-85530000D03*
%TO.N,Net-(Q2-Pad2)*%
X122480000Y-86800000D03*
X118060000Y-86810000D03*
%TD*%
%TA.AperFunction,Conductor*%
%TO.N,GND*%
G36*
X126405648Y-81714352D02*
G01*
X126420000Y-81749000D01*
X126420000Y-82130301D01*
X126405648Y-82164949D01*
X126371000Y-82179301D01*
X126336352Y-82164949D01*
X126332126Y-82160131D01*
X126304877Y-82124620D01*
X126300376Y-82120119D01*
X126180137Y-82027857D01*
X126174620Y-82024672D01*
X126034600Y-81966674D01*
X126028447Y-81965025D01*
X125915908Y-81950209D01*
X125912723Y-81950000D01*
X125509747Y-81950000D01*
X125502855Y-81952855D01*
X125500000Y-81959747D01*
X125500000Y-83476000D01*
X125485648Y-83510648D01*
X125451000Y-83525000D01*
X123934748Y-83525000D01*
X123927856Y-83527855D01*
X123925001Y-83534747D01*
X123925001Y-83937721D01*
X123925210Y-83940909D01*
X123940025Y-84053448D01*
X123941673Y-84059599D01*
X123999672Y-84199621D01*
X124002857Y-84205138D01*
X124095119Y-84325376D01*
X124099624Y-84329881D01*
X124219863Y-84422143D01*
X124225380Y-84425328D01*
X124365400Y-84483326D01*
X124371553Y-84484975D01*
X124484092Y-84499791D01*
X124487277Y-84500000D01*
X124564637Y-84500000D01*
X124599285Y-84514352D01*
X124613637Y-84549000D01*
X124601051Y-84581787D01*
X124489941Y-84705188D01*
X124487805Y-84707560D01*
X124395786Y-84866941D01*
X124338915Y-85041971D01*
X124319678Y-85225000D01*
X124338915Y-85408029D01*
X124395786Y-85583059D01*
X124487805Y-85742440D01*
X124610950Y-85879207D01*
X124613030Y-85880718D01*
X124613032Y-85880720D01*
X124757759Y-85985870D01*
X124759839Y-85987381D01*
X124762186Y-85988426D01*
X124770283Y-85992031D01*
X124927966Y-86062236D01*
X124972575Y-86071718D01*
X125105472Y-86099967D01*
X125105475Y-86099967D01*
X125107981Y-86100500D01*
X125292019Y-86100500D01*
X125294525Y-86099967D01*
X125294528Y-86099967D01*
X125427425Y-86071718D01*
X125472034Y-86062236D01*
X125629717Y-85992031D01*
X125637814Y-85988426D01*
X125640161Y-85987381D01*
X125642241Y-85985870D01*
X125786968Y-85880720D01*
X125786970Y-85880718D01*
X125789050Y-85879207D01*
X125912195Y-85742440D01*
X126004214Y-85583059D01*
X126061085Y-85408029D01*
X126080322Y-85225000D01*
X126061085Y-85041971D01*
X126004214Y-84866941D01*
X125912195Y-84707560D01*
X125910060Y-84705188D01*
X125798948Y-84581786D01*
X125786429Y-84546434D01*
X125802575Y-84512585D01*
X125835362Y-84499999D01*
X125912721Y-84499999D01*
X125915909Y-84499790D01*
X126028448Y-84484975D01*
X126034599Y-84483327D01*
X126174621Y-84425328D01*
X126180138Y-84422143D01*
X126300376Y-84329881D01*
X126304876Y-84325381D01*
X126332125Y-84289869D01*
X126364604Y-84271117D01*
X126400829Y-84280823D01*
X126419581Y-84313302D01*
X126420000Y-84319698D01*
X126420000Y-92721000D01*
X126405648Y-92755648D01*
X126371000Y-92770000D01*
X110484622Y-92770000D01*
X110449974Y-92755648D01*
X110435622Y-92721000D01*
X110449974Y-92686352D01*
X110470828Y-92673982D01*
X110598120Y-92636639D01*
X110602439Y-92634912D01*
X110784895Y-92540941D01*
X110788805Y-92538430D01*
X110950193Y-92411658D01*
X110953561Y-92408451D01*
X111088079Y-92253433D01*
X111090765Y-92249667D01*
X111148424Y-92150000D01*
X119019196Y-92150000D01*
X119019799Y-92153807D01*
X119034982Y-92249667D01*
X119040281Y-92283126D01*
X119101472Y-92403220D01*
X119196780Y-92498528D01*
X119200213Y-92500277D01*
X119200214Y-92500278D01*
X119256827Y-92529124D01*
X119316874Y-92559719D01*
X119320679Y-92560322D01*
X119320680Y-92560322D01*
X119446193Y-92580201D01*
X119450000Y-92580804D01*
X119453807Y-92580201D01*
X119579320Y-92560322D01*
X119579321Y-92560322D01*
X119583126Y-92559719D01*
X119643173Y-92529124D01*
X119699786Y-92500278D01*
X119699787Y-92500277D01*
X119703220Y-92498528D01*
X119798528Y-92403220D01*
X119859719Y-92283126D01*
X119865019Y-92249667D01*
X119880201Y-92153807D01*
X119880804Y-92150000D01*
X119872880Y-92099967D01*
X119860322Y-92020680D01*
X119860322Y-92020679D01*
X119859719Y-92016874D01*
X119798528Y-91896780D01*
X119703220Y-91801472D01*
X119699787Y-91799723D01*
X119699786Y-91799722D01*
X119643173Y-91770876D01*
X119583126Y-91740281D01*
X119579321Y-91739678D01*
X119579320Y-91739678D01*
X119453807Y-91719799D01*
X119450000Y-91719196D01*
X119446193Y-91719799D01*
X119320680Y-91739678D01*
X119320679Y-91739678D01*
X119316874Y-91740281D01*
X119256827Y-91770877D01*
X119200214Y-91799722D01*
X119200213Y-91799723D01*
X119196780Y-91801472D01*
X119101472Y-91896780D01*
X119040281Y-92016874D01*
X119039678Y-92020679D01*
X119039678Y-92020680D01*
X119027120Y-92099967D01*
X119019196Y-92150000D01*
X111148424Y-92150000D01*
X111193543Y-92072009D01*
X111195474Y-92067792D01*
X111247071Y-91919206D01*
X111246635Y-91911761D01*
X111244655Y-91910000D01*
X108040544Y-91910000D01*
X108033652Y-91912855D01*
X108032282Y-91916162D01*
X108044651Y-91967485D01*
X108046164Y-91971878D01*
X108131111Y-92158708D01*
X108133426Y-92162734D01*
X108252165Y-92330126D01*
X108255205Y-92333648D01*
X108403457Y-92475568D01*
X108407103Y-92478447D01*
X108579518Y-92589775D01*
X108583638Y-92591911D01*
X108773997Y-92668628D01*
X108778451Y-92669947D01*
X108793614Y-92672908D01*
X108824870Y-92693635D01*
X108832315Y-92730391D01*
X108811588Y-92761647D01*
X108784223Y-92770000D01*
X106054622Y-92770000D01*
X106019974Y-92755648D01*
X106005622Y-92721000D01*
X106019974Y-92686352D01*
X106040828Y-92673982D01*
X106168120Y-92636639D01*
X106172439Y-92634912D01*
X106354895Y-92540941D01*
X106358805Y-92538430D01*
X106520193Y-92411658D01*
X106523561Y-92408451D01*
X106658079Y-92253433D01*
X106660765Y-92249667D01*
X106763543Y-92072009D01*
X106765474Y-92067792D01*
X106817071Y-91919206D01*
X106816635Y-91911761D01*
X106814655Y-91910000D01*
X104110544Y-91910000D01*
X104103652Y-91912855D01*
X104102282Y-91916162D01*
X104114651Y-91967485D01*
X104116164Y-91971878D01*
X104201111Y-92158708D01*
X104203426Y-92162734D01*
X104322165Y-92330126D01*
X104325205Y-92333648D01*
X104473457Y-92475568D01*
X104477103Y-92478447D01*
X104649518Y-92589775D01*
X104653638Y-92591911D01*
X104843997Y-92668628D01*
X104848451Y-92669947D01*
X104863614Y-92672908D01*
X104894870Y-92693635D01*
X104902315Y-92730391D01*
X104881588Y-92761647D01*
X104854223Y-92770000D01*
X103285000Y-92770000D01*
X103250352Y-92755648D01*
X103236000Y-92721000D01*
X103236000Y-91300794D01*
X104102929Y-91300794D01*
X104103365Y-91308239D01*
X104105345Y-91310000D01*
X105150253Y-91310000D01*
X105157145Y-91307145D01*
X105160000Y-91300253D01*
X105760000Y-91300253D01*
X105762855Y-91307145D01*
X105769747Y-91310000D01*
X106809456Y-91310000D01*
X106816348Y-91307145D01*
X106817718Y-91303838D01*
X106816984Y-91300794D01*
X108032929Y-91300794D01*
X108033365Y-91308239D01*
X108035345Y-91310000D01*
X109330253Y-91310000D01*
X109337145Y-91307145D01*
X109340000Y-91300253D01*
X109940000Y-91300253D01*
X109942855Y-91307145D01*
X109949747Y-91310000D01*
X111239456Y-91310000D01*
X111246348Y-91307145D01*
X111247718Y-91303838D01*
X111235349Y-91252515D01*
X111233836Y-91248122D01*
X111148889Y-91061292D01*
X111146574Y-91057266D01*
X111065053Y-90942342D01*
X119009196Y-90942342D01*
X119009799Y-90946149D01*
X119024976Y-91041971D01*
X119030281Y-91075468D01*
X119091472Y-91195562D01*
X119186780Y-91290870D01*
X119190213Y-91292619D01*
X119190214Y-91292620D01*
X119246827Y-91321465D01*
X119306874Y-91352061D01*
X119310679Y-91352664D01*
X119310680Y-91352664D01*
X119436193Y-91372543D01*
X119440000Y-91373146D01*
X119443807Y-91372543D01*
X119569320Y-91352664D01*
X119569321Y-91352664D01*
X119573126Y-91352061D01*
X119633173Y-91321465D01*
X119689786Y-91292620D01*
X119689787Y-91292619D01*
X119693220Y-91290870D01*
X119759090Y-91225000D01*
X124319678Y-91225000D01*
X124338915Y-91408029D01*
X124395786Y-91583059D01*
X124487805Y-91742440D01*
X124610950Y-91879207D01*
X124613030Y-91880718D01*
X124613032Y-91880720D01*
X124661814Y-91916162D01*
X124759839Y-91987381D01*
X124927966Y-92062236D01*
X124973944Y-92072009D01*
X125105472Y-92099967D01*
X125105475Y-92099967D01*
X125107981Y-92100500D01*
X125292019Y-92100500D01*
X125294525Y-92099967D01*
X125294528Y-92099967D01*
X125426056Y-92072009D01*
X125472034Y-92062236D01*
X125640161Y-91987381D01*
X125738186Y-91916162D01*
X125786968Y-91880720D01*
X125786970Y-91880718D01*
X125789050Y-91879207D01*
X125912195Y-91742440D01*
X126004214Y-91583059D01*
X126061085Y-91408029D01*
X126080322Y-91225000D01*
X126061085Y-91041971D01*
X126004214Y-90866941D01*
X125912195Y-90707560D01*
X125910341Y-90705500D01*
X125857799Y-90647147D01*
X125789050Y-90570793D01*
X125762320Y-90551372D01*
X125642241Y-90464130D01*
X125642240Y-90464129D01*
X125640161Y-90462619D01*
X125472034Y-90387764D01*
X125382026Y-90368632D01*
X125294528Y-90350033D01*
X125294525Y-90350033D01*
X125292019Y-90349500D01*
X125107981Y-90349500D01*
X125105475Y-90350033D01*
X125105472Y-90350033D01*
X125017973Y-90368632D01*
X124927966Y-90387764D01*
X124759839Y-90462619D01*
X124757760Y-90464129D01*
X124757759Y-90464130D01*
X124637681Y-90551372D01*
X124610950Y-90570793D01*
X124542201Y-90647147D01*
X124489660Y-90705500D01*
X124487805Y-90707560D01*
X124395786Y-90866941D01*
X124338915Y-91041971D01*
X124319678Y-91225000D01*
X119759090Y-91225000D01*
X119788528Y-91195562D01*
X119849719Y-91075468D01*
X119855025Y-91041971D01*
X119870201Y-90946149D01*
X119870804Y-90942342D01*
X119861936Y-90886352D01*
X119850322Y-90813022D01*
X119850322Y-90813021D01*
X119849719Y-90809216D01*
X119797923Y-90707560D01*
X119790278Y-90692556D01*
X119790277Y-90692555D01*
X119788528Y-90689122D01*
X119693220Y-90593814D01*
X119689787Y-90592065D01*
X119689786Y-90592064D01*
X119597835Y-90545213D01*
X119573126Y-90532623D01*
X119569321Y-90532020D01*
X119569320Y-90532020D01*
X119443807Y-90512141D01*
X119440000Y-90511538D01*
X119436193Y-90512141D01*
X119310680Y-90532020D01*
X119310679Y-90532020D01*
X119306874Y-90532623D01*
X119282165Y-90545213D01*
X119190214Y-90592064D01*
X119190213Y-90592065D01*
X119186780Y-90593814D01*
X119091472Y-90689122D01*
X119089723Y-90692555D01*
X119089722Y-90692556D01*
X119082077Y-90707560D01*
X119030281Y-90809216D01*
X119029678Y-90813021D01*
X119029678Y-90813022D01*
X119018064Y-90886352D01*
X119009196Y-90942342D01*
X111065053Y-90942342D01*
X111027835Y-90889874D01*
X111024795Y-90886352D01*
X110876543Y-90744432D01*
X110872897Y-90741553D01*
X110700482Y-90630225D01*
X110696362Y-90628089D01*
X110506003Y-90551372D01*
X110501549Y-90550053D01*
X110299555Y-90510607D01*
X110296066Y-90510184D01*
X110292917Y-90510030D01*
X110291711Y-90510000D01*
X109949747Y-90510000D01*
X109942855Y-90512855D01*
X109940000Y-90519747D01*
X109940000Y-91300253D01*
X109340000Y-91300253D01*
X109340000Y-90685286D01*
X109354352Y-90650638D01*
X109369539Y-90640317D01*
X109376156Y-90637453D01*
X109381717Y-90635047D01*
X109381718Y-90635046D01*
X109384783Y-90633720D01*
X109496675Y-90543112D01*
X109580079Y-90425751D01*
X109593756Y-90387764D01*
X109627717Y-90293433D01*
X109627718Y-90293431D01*
X109628850Y-90290285D01*
X109639394Y-90146693D01*
X109629973Y-90099967D01*
X109611597Y-90008835D01*
X109610936Y-90005556D01*
X109601676Y-89987381D01*
X109547087Y-89880246D01*
X109545571Y-89877270D01*
X109448116Y-89771288D01*
X109378916Y-89728382D01*
X109328584Y-89697175D01*
X109328583Y-89697175D01*
X109325750Y-89695418D01*
X109322547Y-89694487D01*
X109322546Y-89694487D01*
X109235160Y-89669099D01*
X109187488Y-89655249D01*
X109184926Y-89655061D01*
X109184921Y-89655060D01*
X109180837Y-89654761D01*
X109177288Y-89654500D01*
X109073930Y-89654500D01*
X109072283Y-89654726D01*
X109072277Y-89654726D01*
X109020220Y-89661857D01*
X108967354Y-89669099D01*
X108964288Y-89670426D01*
X108964287Y-89670426D01*
X108838283Y-89724953D01*
X108838282Y-89724954D01*
X108835217Y-89726280D01*
X108723325Y-89816888D01*
X108639921Y-89934249D01*
X108638790Y-89937389D01*
X108638789Y-89937392D01*
X108592283Y-90066567D01*
X108591150Y-90069715D01*
X108580606Y-90213307D01*
X108609064Y-90354444D01*
X108674429Y-90482730D01*
X108676688Y-90485187D01*
X108676689Y-90485188D01*
X108696007Y-90506196D01*
X108708895Y-90541415D01*
X108693105Y-90575432D01*
X108679595Y-90583938D01*
X108679637Y-90584019D01*
X108678695Y-90584504D01*
X108678125Y-90584863D01*
X108677559Y-90585089D01*
X108495105Y-90679059D01*
X108491195Y-90681570D01*
X108329807Y-90808342D01*
X108326439Y-90811549D01*
X108191921Y-90966567D01*
X108189235Y-90970333D01*
X108086457Y-91147991D01*
X108084526Y-91152208D01*
X108032929Y-91300794D01*
X106816984Y-91300794D01*
X106805349Y-91252515D01*
X106803836Y-91248122D01*
X106718889Y-91061292D01*
X106716574Y-91057266D01*
X106597835Y-90889874D01*
X106594795Y-90886352D01*
X106446543Y-90744432D01*
X106442897Y-90741553D01*
X106270482Y-90630225D01*
X106266362Y-90628089D01*
X106076003Y-90551372D01*
X106071549Y-90550053D01*
X105869555Y-90510607D01*
X105866066Y-90510184D01*
X105862917Y-90510030D01*
X105861711Y-90510000D01*
X105769747Y-90510000D01*
X105762855Y-90512855D01*
X105760000Y-90519747D01*
X105760000Y-91300253D01*
X105160000Y-91300253D01*
X105160000Y-90519747D01*
X105157145Y-90512855D01*
X105150253Y-90510000D01*
X105108714Y-90510000D01*
X105106392Y-90510111D01*
X104953374Y-90524710D01*
X104948808Y-90525589D01*
X104751880Y-90583361D01*
X104747561Y-90585088D01*
X104565105Y-90679059D01*
X104561195Y-90681570D01*
X104399807Y-90808342D01*
X104396439Y-90811549D01*
X104261921Y-90966567D01*
X104259235Y-90970333D01*
X104156457Y-91147991D01*
X104154526Y-91152208D01*
X104102929Y-91300794D01*
X103236000Y-91300794D01*
X103236000Y-89300000D01*
X112369196Y-89300000D01*
X112369799Y-89303807D01*
X112383961Y-89393220D01*
X112390281Y-89433126D01*
X112451472Y-89553220D01*
X112546780Y-89648528D01*
X112550213Y-89650277D01*
X112550214Y-89650278D01*
X112586264Y-89668646D01*
X112666874Y-89709719D01*
X112670679Y-89710322D01*
X112670680Y-89710322D01*
X112796193Y-89730201D01*
X112800000Y-89730804D01*
X112803807Y-89730201D01*
X112929320Y-89710322D01*
X112929321Y-89710322D01*
X112933126Y-89709719D01*
X113013736Y-89668646D01*
X113049786Y-89650278D01*
X113049787Y-89650277D01*
X113053220Y-89648528D01*
X113148528Y-89553220D01*
X113209719Y-89433126D01*
X113216040Y-89393220D01*
X113230201Y-89303807D01*
X113230804Y-89300000D01*
X113209719Y-89166874D01*
X113196026Y-89140000D01*
X121269196Y-89140000D01*
X121269799Y-89143807D01*
X121283063Y-89227550D01*
X121290281Y-89273126D01*
X121351472Y-89393220D01*
X121446780Y-89488528D01*
X121450213Y-89490277D01*
X121450214Y-89490278D01*
X121506827Y-89519123D01*
X121566874Y-89549719D01*
X121570679Y-89550322D01*
X121570680Y-89550322D01*
X121696193Y-89570201D01*
X121700000Y-89570804D01*
X121703807Y-89570201D01*
X121829320Y-89550322D01*
X121829321Y-89550322D01*
X121833126Y-89549719D01*
X121893173Y-89519123D01*
X121949786Y-89490278D01*
X121949787Y-89490277D01*
X121953220Y-89488528D01*
X122048528Y-89393220D01*
X122109719Y-89273126D01*
X122116938Y-89227550D01*
X122117342Y-89225000D01*
X124319678Y-89225000D01*
X124338915Y-89408029D01*
X124395786Y-89583059D01*
X124487805Y-89742440D01*
X124610950Y-89879207D01*
X124759839Y-89987381D01*
X124927966Y-90062236D01*
X125017973Y-90081368D01*
X125105472Y-90099967D01*
X125105475Y-90099967D01*
X125107981Y-90100500D01*
X125292019Y-90100500D01*
X125294525Y-90099967D01*
X125294528Y-90099967D01*
X125382027Y-90081368D01*
X125472034Y-90062236D01*
X125640161Y-89987381D01*
X125789050Y-89879207D01*
X125912195Y-89742440D01*
X126004214Y-89583059D01*
X126061085Y-89408029D01*
X126080322Y-89225000D01*
X126061085Y-89041971D01*
X126004214Y-88866941D01*
X125998653Y-88857308D01*
X125959631Y-88789722D01*
X125912195Y-88707560D01*
X125789050Y-88570793D01*
X125640161Y-88462619D01*
X125472034Y-88387764D01*
X125382026Y-88368632D01*
X125294528Y-88350033D01*
X125294525Y-88350033D01*
X125292019Y-88349500D01*
X125107981Y-88349500D01*
X125105475Y-88350033D01*
X125105472Y-88350033D01*
X125017974Y-88368632D01*
X124927966Y-88387764D01*
X124759839Y-88462619D01*
X124610950Y-88570793D01*
X124487805Y-88707560D01*
X124440369Y-88789722D01*
X124401348Y-88857308D01*
X124395786Y-88866941D01*
X124338915Y-89041971D01*
X124319678Y-89225000D01*
X122117342Y-89225000D01*
X122130201Y-89143807D01*
X122130804Y-89140000D01*
X122116583Y-89050214D01*
X122110322Y-89010680D01*
X122110322Y-89010679D01*
X122109719Y-89006874D01*
X122048528Y-88886780D01*
X121953220Y-88791472D01*
X121949787Y-88789723D01*
X121949786Y-88789722D01*
X121885204Y-88756816D01*
X121833126Y-88730281D01*
X121829321Y-88729678D01*
X121829320Y-88729678D01*
X121703807Y-88709799D01*
X121700000Y-88709196D01*
X121696193Y-88709799D01*
X121570680Y-88729678D01*
X121570679Y-88729678D01*
X121566874Y-88730281D01*
X121514796Y-88756816D01*
X121450214Y-88789722D01*
X121450213Y-88789723D01*
X121446780Y-88791472D01*
X121351472Y-88886780D01*
X121290281Y-89006874D01*
X121289678Y-89010679D01*
X121289678Y-89010680D01*
X121283417Y-89050214D01*
X121269196Y-89140000D01*
X113196026Y-89140000D01*
X113148528Y-89046780D01*
X113053220Y-88951472D01*
X113049787Y-88949723D01*
X113049786Y-88949722D01*
X112981638Y-88914999D01*
X112933126Y-88890281D01*
X112929321Y-88889678D01*
X112929320Y-88889678D01*
X112803807Y-88869799D01*
X112800000Y-88869196D01*
X112796193Y-88869799D01*
X112670680Y-88889678D01*
X112670679Y-88889678D01*
X112666874Y-88890281D01*
X112618362Y-88914999D01*
X112550214Y-88949722D01*
X112550213Y-88949723D01*
X112546780Y-88951472D01*
X112451472Y-89046780D01*
X112390281Y-89166874D01*
X112369196Y-89300000D01*
X103236000Y-89300000D01*
X103236000Y-88507030D01*
X120029196Y-88507030D01*
X120050281Y-88640156D01*
X120111472Y-88760250D01*
X120206780Y-88855558D01*
X120210213Y-88857307D01*
X120210214Y-88857308D01*
X120266827Y-88886154D01*
X120326874Y-88916749D01*
X120330679Y-88917352D01*
X120330680Y-88917352D01*
X120456193Y-88937231D01*
X120460000Y-88937834D01*
X120463807Y-88937231D01*
X120589320Y-88917352D01*
X120589321Y-88917352D01*
X120593126Y-88916749D01*
X120653173Y-88886153D01*
X120709786Y-88857308D01*
X120709787Y-88857307D01*
X120713220Y-88855558D01*
X120808528Y-88760250D01*
X120869719Y-88640156D01*
X120890804Y-88507030D01*
X120883605Y-88461574D01*
X120870322Y-88377710D01*
X120870322Y-88377709D01*
X120869719Y-88373904D01*
X120808528Y-88253810D01*
X120713220Y-88158502D01*
X120709787Y-88156753D01*
X120709786Y-88156752D01*
X120604723Y-88103220D01*
X120593126Y-88097311D01*
X120589321Y-88096708D01*
X120589320Y-88096708D01*
X120463807Y-88076829D01*
X120460000Y-88076226D01*
X120456193Y-88076829D01*
X120330680Y-88096708D01*
X120330679Y-88096708D01*
X120326874Y-88097311D01*
X120315277Y-88103220D01*
X120210214Y-88156752D01*
X120210213Y-88156753D01*
X120206780Y-88158502D01*
X120111472Y-88253810D01*
X120050281Y-88373904D01*
X120049678Y-88377709D01*
X120049678Y-88377710D01*
X120036395Y-88461574D01*
X120029196Y-88507030D01*
X103236000Y-88507030D01*
X103236000Y-87850000D01*
X108469196Y-87850000D01*
X108490281Y-87983126D01*
X108520877Y-88043173D01*
X108530590Y-88062236D01*
X108551472Y-88103220D01*
X108646780Y-88198528D01*
X108650213Y-88200277D01*
X108650214Y-88200278D01*
X108706827Y-88229123D01*
X108766874Y-88259719D01*
X108770679Y-88260322D01*
X108770680Y-88260322D01*
X108896193Y-88280201D01*
X108900000Y-88280804D01*
X108903807Y-88280201D01*
X109029320Y-88260322D01*
X109029321Y-88260322D01*
X109033126Y-88259719D01*
X109093173Y-88229124D01*
X109149786Y-88200278D01*
X109149787Y-88200277D01*
X109153220Y-88198528D01*
X109248528Y-88103220D01*
X109269411Y-88062236D01*
X109279123Y-88043173D01*
X109309719Y-87983126D01*
X109317864Y-87931702D01*
X109337460Y-87899726D01*
X109373927Y-87890971D01*
X109388508Y-87895710D01*
X109393270Y-87898137D01*
X109393274Y-87898138D01*
X109396706Y-87899887D01*
X109400511Y-87900490D01*
X109400512Y-87900490D01*
X109526025Y-87920369D01*
X109529832Y-87920972D01*
X109533639Y-87920369D01*
X109659152Y-87900490D01*
X109659153Y-87900490D01*
X109662958Y-87899887D01*
X109760867Y-87850000D01*
X109779618Y-87840446D01*
X109779619Y-87840445D01*
X109783052Y-87838696D01*
X109878360Y-87743388D01*
X109889931Y-87720680D01*
X109937801Y-87626728D01*
X109939551Y-87623294D01*
X109943207Y-87600214D01*
X109960033Y-87493975D01*
X109960636Y-87490168D01*
X109947297Y-87405946D01*
X109940154Y-87360848D01*
X109940154Y-87360847D01*
X109939551Y-87357042D01*
X109928065Y-87334500D01*
X120040394Y-87334500D01*
X120061479Y-87467626D01*
X120122670Y-87587720D01*
X120217978Y-87683028D01*
X120221411Y-87684777D01*
X120221412Y-87684778D01*
X120277665Y-87713440D01*
X120338072Y-87744219D01*
X120341877Y-87744822D01*
X120341878Y-87744822D01*
X120467391Y-87764701D01*
X120471198Y-87765304D01*
X120475005Y-87764701D01*
X120600518Y-87744822D01*
X120600519Y-87744822D01*
X120604324Y-87744219D01*
X120664731Y-87713440D01*
X120720984Y-87684778D01*
X120720985Y-87684777D01*
X120724418Y-87683028D01*
X120819726Y-87587720D01*
X120880917Y-87467626D01*
X120902002Y-87334500D01*
X120883823Y-87219719D01*
X120881520Y-87205180D01*
X120881520Y-87205179D01*
X120880917Y-87201374D01*
X120823679Y-87089038D01*
X120821476Y-87084714D01*
X120821475Y-87084713D01*
X120819726Y-87081280D01*
X120724418Y-86985972D01*
X120720985Y-86984223D01*
X120720984Y-86984222D01*
X120664371Y-86955376D01*
X120604324Y-86924781D01*
X120600519Y-86924178D01*
X120600518Y-86924178D01*
X120475005Y-86904299D01*
X120471198Y-86903696D01*
X120467391Y-86904299D01*
X120341878Y-86924178D01*
X120341877Y-86924178D01*
X120338072Y-86924781D01*
X120278025Y-86955376D01*
X120221412Y-86984222D01*
X120221411Y-86984223D01*
X120217978Y-86985972D01*
X120122670Y-87081280D01*
X120120921Y-87084713D01*
X120120920Y-87084714D01*
X120118717Y-87089038D01*
X120061479Y-87201374D01*
X120060876Y-87205179D01*
X120060876Y-87205180D01*
X120058573Y-87219719D01*
X120040394Y-87334500D01*
X109928065Y-87334500D01*
X109878360Y-87236948D01*
X109783052Y-87141640D01*
X109779619Y-87139891D01*
X109779618Y-87139890D01*
X109723005Y-87111045D01*
X109662958Y-87080449D01*
X109659153Y-87079846D01*
X109659152Y-87079846D01*
X109533639Y-87059967D01*
X109529832Y-87059364D01*
X109526025Y-87059967D01*
X109400512Y-87079846D01*
X109400511Y-87079846D01*
X109396706Y-87080449D01*
X109393270Y-87082200D01*
X109393269Y-87082200D01*
X109385624Y-87086095D01*
X109348237Y-87089038D01*
X109319720Y-87064681D01*
X109314982Y-87050102D01*
X109310322Y-87020679D01*
X109310321Y-87020677D01*
X109309719Y-87016874D01*
X109273892Y-86946560D01*
X109250278Y-86900214D01*
X109250277Y-86900213D01*
X109248528Y-86896780D01*
X109161396Y-86809648D01*
X109157400Y-86800000D01*
X112419196Y-86800000D01*
X112440281Y-86933126D01*
X112447126Y-86946560D01*
X112484892Y-87020679D01*
X112501472Y-87053220D01*
X112596780Y-87148528D01*
X112600213Y-87150277D01*
X112600214Y-87150278D01*
X112656827Y-87179123D01*
X112716874Y-87209719D01*
X112720679Y-87210322D01*
X112720680Y-87210322D01*
X112846193Y-87230201D01*
X112850000Y-87230804D01*
X112853807Y-87230201D01*
X112979320Y-87210322D01*
X112979321Y-87210322D01*
X112983126Y-87209719D01*
X113043173Y-87179123D01*
X113099786Y-87150278D01*
X113099787Y-87150277D01*
X113103220Y-87148528D01*
X113198528Y-87053220D01*
X113215109Y-87020679D01*
X113252874Y-86946560D01*
X113259719Y-86933126D01*
X113279220Y-86810000D01*
X117629196Y-86810000D01*
X117629799Y-86813807D01*
X117647653Y-86926531D01*
X117650281Y-86943126D01*
X117672112Y-86985972D01*
X117707766Y-87055946D01*
X117711472Y-87063220D01*
X117806780Y-87158528D01*
X117810213Y-87160277D01*
X117810214Y-87160278D01*
X117866827Y-87189124D01*
X117926874Y-87219719D01*
X117930679Y-87220322D01*
X117930680Y-87220322D01*
X118056193Y-87240201D01*
X118060000Y-87240804D01*
X118063807Y-87240201D01*
X118189320Y-87220322D01*
X118189321Y-87220322D01*
X118193126Y-87219719D01*
X118253173Y-87189124D01*
X118309786Y-87160278D01*
X118309787Y-87160277D01*
X118313220Y-87158528D01*
X118408528Y-87063220D01*
X118412235Y-87055946D01*
X118447888Y-86985972D01*
X118469719Y-86943126D01*
X118472348Y-86926531D01*
X118490201Y-86813807D01*
X118490804Y-86810000D01*
X118489220Y-86800000D01*
X122049196Y-86800000D01*
X122070281Y-86933126D01*
X122077126Y-86946560D01*
X122114892Y-87020679D01*
X122131472Y-87053220D01*
X122226780Y-87148528D01*
X122230213Y-87150277D01*
X122230214Y-87150278D01*
X122286827Y-87179123D01*
X122346874Y-87209719D01*
X122350679Y-87210322D01*
X122350680Y-87210322D01*
X122476193Y-87230201D01*
X122480000Y-87230804D01*
X122483807Y-87230201D01*
X122516645Y-87225000D01*
X124319678Y-87225000D01*
X124338915Y-87408029D01*
X124395786Y-87583059D01*
X124487805Y-87742440D01*
X124489526Y-87744352D01*
X124489528Y-87744354D01*
X124491113Y-87746114D01*
X124610950Y-87879207D01*
X124613030Y-87880718D01*
X124613032Y-87880720D01*
X124683203Y-87931702D01*
X124759839Y-87987381D01*
X124927966Y-88062236D01*
X124993783Y-88076226D01*
X125105472Y-88099967D01*
X125105475Y-88099967D01*
X125107981Y-88100500D01*
X125292019Y-88100500D01*
X125294525Y-88099967D01*
X125294528Y-88099967D01*
X125406217Y-88076226D01*
X125472034Y-88062236D01*
X125640161Y-87987381D01*
X125716797Y-87931702D01*
X125786968Y-87880720D01*
X125786970Y-87880718D01*
X125789050Y-87879207D01*
X125908887Y-87746114D01*
X125910472Y-87744354D01*
X125910474Y-87744352D01*
X125912195Y-87742440D01*
X126004214Y-87583059D01*
X126061085Y-87408029D01*
X126080322Y-87225000D01*
X126061085Y-87041971D01*
X126004214Y-86866941D01*
X125912195Y-86707560D01*
X125884566Y-86676874D01*
X125790772Y-86572706D01*
X125789050Y-86570793D01*
X125774490Y-86560214D01*
X125642241Y-86464130D01*
X125642240Y-86464129D01*
X125640161Y-86462619D01*
X125472034Y-86387764D01*
X125382026Y-86368632D01*
X125294528Y-86350033D01*
X125294525Y-86350033D01*
X125292019Y-86349500D01*
X125107981Y-86349500D01*
X125105475Y-86350033D01*
X125105472Y-86350033D01*
X125017974Y-86368632D01*
X124927966Y-86387764D01*
X124759839Y-86462619D01*
X124757760Y-86464129D01*
X124757759Y-86464130D01*
X124625511Y-86560214D01*
X124610950Y-86570793D01*
X124609228Y-86572706D01*
X124515435Y-86676874D01*
X124487805Y-86707560D01*
X124395786Y-86866941D01*
X124338915Y-87041971D01*
X124319678Y-87225000D01*
X122516645Y-87225000D01*
X122609320Y-87210322D01*
X122609321Y-87210322D01*
X122613126Y-87209719D01*
X122673173Y-87179123D01*
X122729786Y-87150278D01*
X122729787Y-87150277D01*
X122733220Y-87148528D01*
X122828528Y-87053220D01*
X122845109Y-87020679D01*
X122882874Y-86946560D01*
X122889719Y-86933126D01*
X122910804Y-86800000D01*
X122889719Y-86666874D01*
X122840763Y-86570793D01*
X122830278Y-86550214D01*
X122830277Y-86550213D01*
X122828528Y-86546780D01*
X122733220Y-86451472D01*
X122729787Y-86449723D01*
X122729786Y-86449722D01*
X122671936Y-86420246D01*
X122613126Y-86390281D01*
X122609321Y-86389678D01*
X122609320Y-86389678D01*
X122483807Y-86369799D01*
X122480000Y-86369196D01*
X122476193Y-86369799D01*
X122350680Y-86389678D01*
X122350679Y-86389678D01*
X122346874Y-86390281D01*
X122288064Y-86420246D01*
X122230214Y-86449722D01*
X122230213Y-86449723D01*
X122226780Y-86451472D01*
X122131472Y-86546780D01*
X122129723Y-86550213D01*
X122129722Y-86550214D01*
X122119237Y-86570793D01*
X122070281Y-86666874D01*
X122049196Y-86800000D01*
X118489220Y-86800000D01*
X118479773Y-86740352D01*
X118470322Y-86680680D01*
X118470322Y-86680679D01*
X118469719Y-86676874D01*
X118408528Y-86556780D01*
X118313220Y-86461472D01*
X118309787Y-86459723D01*
X118309786Y-86459722D01*
X118200046Y-86403807D01*
X118193126Y-86400281D01*
X118189321Y-86399678D01*
X118189320Y-86399678D01*
X118063807Y-86379799D01*
X118060000Y-86379196D01*
X118056193Y-86379799D01*
X117930680Y-86399678D01*
X117930679Y-86399678D01*
X117926874Y-86400281D01*
X117919954Y-86403807D01*
X117810214Y-86459722D01*
X117810213Y-86459723D01*
X117806780Y-86461472D01*
X117711472Y-86556780D01*
X117650281Y-86676874D01*
X117649678Y-86680679D01*
X117649678Y-86680680D01*
X117640227Y-86740352D01*
X117629196Y-86810000D01*
X113279220Y-86810000D01*
X113280804Y-86800000D01*
X113259719Y-86666874D01*
X113210763Y-86570793D01*
X113200278Y-86550214D01*
X113200277Y-86550213D01*
X113198528Y-86546780D01*
X113103220Y-86451472D01*
X113099787Y-86449723D01*
X113099786Y-86449722D01*
X113041936Y-86420246D01*
X112983126Y-86390281D01*
X112979321Y-86389678D01*
X112979320Y-86389678D01*
X112853807Y-86369799D01*
X112850000Y-86369196D01*
X112846193Y-86369799D01*
X112720680Y-86389678D01*
X112720679Y-86389678D01*
X112716874Y-86390281D01*
X112658064Y-86420246D01*
X112600214Y-86449722D01*
X112600213Y-86449723D01*
X112596780Y-86451472D01*
X112501472Y-86546780D01*
X112499723Y-86550213D01*
X112499722Y-86550214D01*
X112489237Y-86570793D01*
X112440281Y-86666874D01*
X112419196Y-86800000D01*
X109157400Y-86800000D01*
X109147044Y-86775000D01*
X109161396Y-86740352D01*
X109248528Y-86653220D01*
X109309719Y-86533126D01*
X109330804Y-86400000D01*
X109309719Y-86266874D01*
X109248528Y-86146780D01*
X109173466Y-86071718D01*
X120004196Y-86071718D01*
X120025281Y-86204844D01*
X120086472Y-86324938D01*
X120181780Y-86420246D01*
X120185213Y-86421995D01*
X120185214Y-86421996D01*
X120239630Y-86449722D01*
X120301874Y-86481437D01*
X120305679Y-86482040D01*
X120305680Y-86482040D01*
X120431193Y-86501919D01*
X120435000Y-86502522D01*
X120438807Y-86501919D01*
X120564320Y-86482040D01*
X120564321Y-86482040D01*
X120568126Y-86481437D01*
X120630370Y-86449722D01*
X120684786Y-86421996D01*
X120684787Y-86421995D01*
X120688220Y-86420246D01*
X120783528Y-86324938D01*
X120844719Y-86204844D01*
X120865804Y-86071718D01*
X120844719Y-85938592D01*
X120783528Y-85818498D01*
X120688220Y-85723190D01*
X120684787Y-85721441D01*
X120684786Y-85721440D01*
X120577077Y-85666560D01*
X120568126Y-85661999D01*
X120564321Y-85661396D01*
X120564320Y-85661396D01*
X120438807Y-85641517D01*
X120435000Y-85640914D01*
X120431193Y-85641517D01*
X120305680Y-85661396D01*
X120305679Y-85661396D01*
X120301874Y-85661999D01*
X120292923Y-85666560D01*
X120185214Y-85721440D01*
X120185213Y-85721441D01*
X120181780Y-85723190D01*
X120086472Y-85818498D01*
X120025281Y-85938592D01*
X120004196Y-86071718D01*
X109173466Y-86071718D01*
X109153220Y-86051472D01*
X109149787Y-86049723D01*
X109149786Y-86049722D01*
X109093173Y-86020876D01*
X109033126Y-85990281D01*
X109029321Y-85989678D01*
X109029320Y-85989678D01*
X108903807Y-85969799D01*
X108900000Y-85969196D01*
X108896193Y-85969799D01*
X108770680Y-85989678D01*
X108770679Y-85989678D01*
X108766874Y-85990281D01*
X108706827Y-86020876D01*
X108650214Y-86049722D01*
X108650213Y-86049723D01*
X108646780Y-86051472D01*
X108551472Y-86146780D01*
X108490281Y-86266874D01*
X108469196Y-86400000D01*
X108490281Y-86533126D01*
X108551472Y-86653220D01*
X108638604Y-86740352D01*
X108652956Y-86775000D01*
X108638604Y-86809648D01*
X108551472Y-86896780D01*
X108549723Y-86900213D01*
X108549722Y-86900214D01*
X108526108Y-86946560D01*
X108490281Y-87016874D01*
X108489678Y-87020679D01*
X108489678Y-87020680D01*
X108478851Y-87089038D01*
X108469196Y-87150000D01*
X108469799Y-87153807D01*
X108481899Y-87230201D01*
X108490281Y-87283126D01*
X108551472Y-87403220D01*
X108613604Y-87465352D01*
X108627956Y-87500000D01*
X108613604Y-87534648D01*
X108551472Y-87596780D01*
X108549723Y-87600213D01*
X108549722Y-87600214D01*
X108537962Y-87623294D01*
X108490281Y-87716874D01*
X108489678Y-87720679D01*
X108489678Y-87720680D01*
X108485854Y-87744822D01*
X108469196Y-87850000D01*
X103236000Y-87850000D01*
X103236000Y-85550000D01*
X112319196Y-85550000D01*
X112319799Y-85553807D01*
X112336511Y-85659320D01*
X112340281Y-85683126D01*
X112401472Y-85803220D01*
X112496780Y-85898528D01*
X112500213Y-85900277D01*
X112500214Y-85900278D01*
X112556827Y-85929123D01*
X112616874Y-85959719D01*
X112620679Y-85960322D01*
X112620680Y-85960322D01*
X112746193Y-85980201D01*
X112750000Y-85980804D01*
X112753807Y-85980201D01*
X112879320Y-85960322D01*
X112879321Y-85960322D01*
X112883126Y-85959719D01*
X112943173Y-85929123D01*
X112999786Y-85900278D01*
X112999787Y-85900277D01*
X113003220Y-85898528D01*
X113098528Y-85803220D01*
X113159719Y-85683126D01*
X113163490Y-85659320D01*
X113180201Y-85553807D01*
X113180804Y-85550000D01*
X113177636Y-85530000D01*
X117579196Y-85530000D01*
X117600281Y-85663126D01*
X117630877Y-85723173D01*
X117640694Y-85742440D01*
X117661472Y-85783220D01*
X117756780Y-85878528D01*
X117760213Y-85880277D01*
X117760214Y-85880278D01*
X117790682Y-85895802D01*
X117876874Y-85939719D01*
X117880679Y-85940322D01*
X117880680Y-85940322D01*
X118006193Y-85960201D01*
X118010000Y-85960804D01*
X118013807Y-85960201D01*
X118139320Y-85940322D01*
X118139321Y-85940322D01*
X118143126Y-85939719D01*
X118229318Y-85895802D01*
X118259786Y-85880278D01*
X118259787Y-85880277D01*
X118263220Y-85878528D01*
X118358528Y-85783220D01*
X118379307Y-85742440D01*
X118389124Y-85723173D01*
X118419719Y-85663126D01*
X118440804Y-85530000D01*
X118437282Y-85507764D01*
X118420322Y-85400680D01*
X118420322Y-85400679D01*
X118419719Y-85396874D01*
X118358528Y-85276780D01*
X118263220Y-85181472D01*
X118259787Y-85179723D01*
X118259786Y-85179722D01*
X118181195Y-85139678D01*
X118143126Y-85120281D01*
X118139321Y-85119678D01*
X118139320Y-85119678D01*
X118013807Y-85099799D01*
X118010000Y-85099196D01*
X118006193Y-85099799D01*
X117880680Y-85119678D01*
X117880679Y-85119678D01*
X117876874Y-85120281D01*
X117838805Y-85139678D01*
X117760214Y-85179722D01*
X117760213Y-85179723D01*
X117756780Y-85181472D01*
X117661472Y-85276780D01*
X117600281Y-85396874D01*
X117599678Y-85400679D01*
X117599678Y-85400680D01*
X117582718Y-85507764D01*
X117579196Y-85530000D01*
X113177636Y-85530000D01*
X113159719Y-85416874D01*
X113098528Y-85296780D01*
X113003220Y-85201472D01*
X112999787Y-85199723D01*
X112999786Y-85199722D01*
X112943173Y-85170876D01*
X112883126Y-85140281D01*
X112879321Y-85139678D01*
X112879320Y-85139678D01*
X112753807Y-85119799D01*
X112750000Y-85119196D01*
X112746193Y-85119799D01*
X112620680Y-85139678D01*
X112620679Y-85139678D01*
X112616874Y-85140281D01*
X112556827Y-85170877D01*
X112500214Y-85199722D01*
X112500213Y-85199723D01*
X112496780Y-85201472D01*
X112401472Y-85296780D01*
X112340281Y-85416874D01*
X112319196Y-85550000D01*
X103236000Y-85550000D01*
X103236000Y-83276162D01*
X104102282Y-83276162D01*
X104114651Y-83327485D01*
X104116164Y-83331878D01*
X104201111Y-83518708D01*
X104203426Y-83522734D01*
X104322165Y-83690126D01*
X104325205Y-83693648D01*
X104473457Y-83835568D01*
X104477103Y-83838447D01*
X104649518Y-83949775D01*
X104653638Y-83951911D01*
X104843997Y-84028628D01*
X104848451Y-84029947D01*
X105050445Y-84069393D01*
X105053934Y-84069816D01*
X105057083Y-84069970D01*
X105058289Y-84070000D01*
X105150253Y-84070000D01*
X105157145Y-84067145D01*
X105160000Y-84060253D01*
X105760000Y-84060253D01*
X105762855Y-84067145D01*
X105769747Y-84070000D01*
X105811286Y-84070000D01*
X105813608Y-84069889D01*
X105966626Y-84055290D01*
X105971192Y-84054411D01*
X106168120Y-83996639D01*
X106172439Y-83994912D01*
X106354895Y-83900941D01*
X106358805Y-83898430D01*
X106520193Y-83771658D01*
X106523561Y-83768451D01*
X106658079Y-83613433D01*
X106660765Y-83609667D01*
X106763543Y-83432009D01*
X106765474Y-83427792D01*
X106817071Y-83279206D01*
X106816893Y-83276162D01*
X108032282Y-83276162D01*
X108044651Y-83327485D01*
X108046164Y-83331878D01*
X108131111Y-83518708D01*
X108133426Y-83522734D01*
X108252165Y-83690126D01*
X108255205Y-83693648D01*
X108403457Y-83835568D01*
X108407103Y-83838447D01*
X108579518Y-83949775D01*
X108583638Y-83951911D01*
X108681571Y-83991379D01*
X108708343Y-84017642D01*
X108708703Y-84055143D01*
X108703196Y-84065212D01*
X108680414Y-84097270D01*
X108639921Y-84154249D01*
X108638790Y-84157389D01*
X108638789Y-84157392D01*
X108594351Y-84280823D01*
X108591150Y-84289715D01*
X108580606Y-84433307D01*
X108581266Y-84436580D01*
X108581266Y-84436581D01*
X108590692Y-84483327D01*
X108609064Y-84574444D01*
X108674429Y-84702730D01*
X108771884Y-84808712D01*
X108774721Y-84810471D01*
X108844475Y-84853720D01*
X108894250Y-84884582D01*
X108897453Y-84885513D01*
X108897454Y-84885513D01*
X108974990Y-84908039D01*
X109032512Y-84924751D01*
X109035074Y-84924939D01*
X109035079Y-84924940D01*
X109039163Y-84925239D01*
X109042712Y-84925500D01*
X109146070Y-84925500D01*
X109147717Y-84925274D01*
X109147723Y-84925274D01*
X109199780Y-84918143D01*
X109252646Y-84910901D01*
X109311314Y-84885513D01*
X109381717Y-84855047D01*
X109381718Y-84855046D01*
X109383992Y-84854062D01*
X119009196Y-84854062D01*
X119030281Y-84987188D01*
X119091472Y-85107282D01*
X119186780Y-85202590D01*
X119190213Y-85204339D01*
X119190214Y-85204340D01*
X119225757Y-85222450D01*
X119306874Y-85263781D01*
X119310679Y-85264384D01*
X119310680Y-85264384D01*
X119436193Y-85284263D01*
X119440000Y-85284866D01*
X119443807Y-85284263D01*
X119569320Y-85264384D01*
X119569321Y-85264384D01*
X119573126Y-85263781D01*
X119654243Y-85222450D01*
X119689786Y-85204340D01*
X119689787Y-85204339D01*
X119693220Y-85202590D01*
X119788528Y-85107282D01*
X119849719Y-84987188D01*
X119870804Y-84854062D01*
X119849719Y-84720936D01*
X119788528Y-84600842D01*
X119693220Y-84505534D01*
X119689787Y-84503785D01*
X119689786Y-84503784D01*
X119633173Y-84474938D01*
X119573126Y-84444343D01*
X119569321Y-84443740D01*
X119569320Y-84443740D01*
X119462236Y-84426780D01*
X119440000Y-84423258D01*
X119417764Y-84426780D01*
X119310680Y-84443740D01*
X119310679Y-84443740D01*
X119306874Y-84444343D01*
X119246827Y-84474938D01*
X119190214Y-84503784D01*
X119190213Y-84503785D01*
X119186780Y-84505534D01*
X119091472Y-84600842D01*
X119030281Y-84720936D01*
X119009196Y-84854062D01*
X109383992Y-84854062D01*
X109384783Y-84853720D01*
X109496675Y-84763112D01*
X109569724Y-84660322D01*
X109578144Y-84648474D01*
X109578144Y-84648473D01*
X109580079Y-84645751D01*
X109596248Y-84600842D01*
X109627717Y-84513433D01*
X109627718Y-84513431D01*
X109628850Y-84510285D01*
X109639394Y-84366693D01*
X109631972Y-84329881D01*
X109615865Y-84250000D01*
X112319196Y-84250000D01*
X112340281Y-84383126D01*
X112342031Y-84386560D01*
X112392176Y-84484975D01*
X112401472Y-84503220D01*
X112496780Y-84598528D01*
X112500213Y-84600277D01*
X112500214Y-84600278D01*
X112501321Y-84600842D01*
X112616874Y-84659719D01*
X112620679Y-84660322D01*
X112620680Y-84660322D01*
X112746193Y-84680201D01*
X112750000Y-84680804D01*
X112753807Y-84680201D01*
X112879320Y-84660322D01*
X112879321Y-84660322D01*
X112883126Y-84659719D01*
X112998679Y-84600842D01*
X112999786Y-84600278D01*
X112999787Y-84600277D01*
X113003220Y-84598528D01*
X113098528Y-84503220D01*
X113107825Y-84484975D01*
X113157969Y-84386560D01*
X113159719Y-84383126D01*
X113180804Y-84250000D01*
X113172825Y-84199621D01*
X113160322Y-84120680D01*
X113160322Y-84120679D01*
X113159719Y-84116874D01*
X113118964Y-84036888D01*
X113100278Y-84000214D01*
X113100277Y-84000213D01*
X113098528Y-83996780D01*
X113003220Y-83901472D01*
X112999787Y-83899723D01*
X112999786Y-83899722D01*
X112943173Y-83870876D01*
X112883126Y-83840281D01*
X112879321Y-83839678D01*
X112879320Y-83839678D01*
X112753807Y-83819799D01*
X112750000Y-83819196D01*
X112746193Y-83819799D01*
X112620680Y-83839678D01*
X112620679Y-83839678D01*
X112616874Y-83840281D01*
X112556827Y-83870877D01*
X112500214Y-83899722D01*
X112500213Y-83899723D01*
X112496780Y-83901472D01*
X112401472Y-83996780D01*
X112399723Y-84000213D01*
X112399722Y-84000214D01*
X112381036Y-84036888D01*
X112340281Y-84116874D01*
X112339678Y-84120679D01*
X112339678Y-84120680D01*
X112327175Y-84199621D01*
X112319196Y-84250000D01*
X109615865Y-84250000D01*
X109611597Y-84228835D01*
X109610936Y-84225556D01*
X109597722Y-84199621D01*
X109557499Y-84120680D01*
X109545571Y-84097270D01*
X109526571Y-84076607D01*
X109511533Y-84060253D01*
X109940000Y-84060253D01*
X109942855Y-84067145D01*
X109949747Y-84070000D01*
X110241286Y-84070000D01*
X110243608Y-84069889D01*
X110396626Y-84055290D01*
X110401192Y-84054411D01*
X110598120Y-83996639D01*
X110602439Y-83994912D01*
X110784895Y-83900941D01*
X110788805Y-83898430D01*
X110950193Y-83771658D01*
X110953561Y-83768451D01*
X111088079Y-83613433D01*
X111090765Y-83609667D01*
X111193543Y-83432009D01*
X111195474Y-83427792D01*
X111247071Y-83279206D01*
X111246635Y-83271761D01*
X111244655Y-83270000D01*
X109949747Y-83270000D01*
X109942855Y-83272855D01*
X109940000Y-83279747D01*
X109940000Y-84060253D01*
X109511533Y-84060253D01*
X109453036Y-83996639D01*
X109448116Y-83991288D01*
X109363179Y-83938625D01*
X109341295Y-83908169D01*
X109340000Y-83896980D01*
X109340000Y-83279747D01*
X109337145Y-83272855D01*
X109330253Y-83270000D01*
X108040544Y-83270000D01*
X108033652Y-83272855D01*
X108032282Y-83276162D01*
X106816893Y-83276162D01*
X106816635Y-83271761D01*
X106814655Y-83270000D01*
X105769747Y-83270000D01*
X105762855Y-83272855D01*
X105760000Y-83279747D01*
X105760000Y-84060253D01*
X105160000Y-84060253D01*
X105160000Y-83279747D01*
X105157145Y-83272855D01*
X105150253Y-83270000D01*
X104110544Y-83270000D01*
X104103652Y-83272855D01*
X104102282Y-83276162D01*
X103236000Y-83276162D01*
X103236000Y-82990000D01*
X117569196Y-82990000D01*
X117590281Y-83123126D01*
X117592031Y-83126560D01*
X117634920Y-83210734D01*
X117651472Y-83243220D01*
X117746780Y-83338528D01*
X117750213Y-83340277D01*
X117750214Y-83340278D01*
X117806827Y-83369124D01*
X117866874Y-83399719D01*
X117870679Y-83400322D01*
X117870680Y-83400322D01*
X117996193Y-83420201D01*
X118000000Y-83420804D01*
X118003807Y-83420201D01*
X118129320Y-83400322D01*
X118129321Y-83400322D01*
X118133126Y-83399719D01*
X118193173Y-83369123D01*
X118249786Y-83340278D01*
X118249787Y-83340277D01*
X118253220Y-83338528D01*
X118348528Y-83243220D01*
X118365081Y-83210734D01*
X118407969Y-83126560D01*
X118409719Y-83123126D01*
X118418133Y-83070000D01*
X118789196Y-83070000D01*
X118810281Y-83203126D01*
X118828960Y-83239786D01*
X118859949Y-83300604D01*
X118871472Y-83323220D01*
X118966780Y-83418528D01*
X118970215Y-83420278D01*
X119019801Y-83445544D01*
X119044157Y-83474061D01*
X119041669Y-83505672D01*
X119043223Y-83506177D01*
X119042031Y-83509846D01*
X119040281Y-83513280D01*
X119039678Y-83517085D01*
X119039678Y-83517086D01*
X119036881Y-83534747D01*
X119019196Y-83646406D01*
X119040281Y-83779532D01*
X119042031Y-83782966D01*
X119088670Y-83874500D01*
X119101472Y-83899626D01*
X119196780Y-83994934D01*
X119200213Y-83996683D01*
X119200214Y-83996684D01*
X119241347Y-84017642D01*
X119316874Y-84056125D01*
X119320679Y-84056728D01*
X119320680Y-84056728D01*
X119446193Y-84076607D01*
X119450000Y-84077210D01*
X119453807Y-84076607D01*
X119579320Y-84056728D01*
X119579321Y-84056728D01*
X119583126Y-84056125D01*
X119658653Y-84017642D01*
X119699786Y-83996684D01*
X119699787Y-83996683D01*
X119703220Y-83994934D01*
X119798528Y-83899626D01*
X119811331Y-83874500D01*
X119857969Y-83782966D01*
X119859719Y-83779532D01*
X119880804Y-83646406D01*
X119863119Y-83534747D01*
X119860322Y-83517086D01*
X119860322Y-83517085D01*
X119859719Y-83513280D01*
X119812293Y-83420201D01*
X119800278Y-83396620D01*
X119800277Y-83396619D01*
X119798528Y-83393186D01*
X119703220Y-83297878D01*
X119667636Y-83279747D01*
X119650199Y-83270862D01*
X119625843Y-83242345D01*
X119628331Y-83210734D01*
X119626777Y-83210229D01*
X119627969Y-83206560D01*
X119629719Y-83203126D01*
X119650804Y-83070000D01*
X119629719Y-82936874D01*
X119618702Y-82915253D01*
X123925000Y-82915253D01*
X123927855Y-82922145D01*
X123934747Y-82925000D01*
X124890253Y-82925000D01*
X124897145Y-82922145D01*
X124900000Y-82915253D01*
X124900000Y-81959748D01*
X124897145Y-81952856D01*
X124890253Y-81950001D01*
X124487279Y-81950001D01*
X124484091Y-81950210D01*
X124371552Y-81965025D01*
X124365401Y-81966673D01*
X124225379Y-82024672D01*
X124219862Y-82027857D01*
X124099624Y-82120119D01*
X124095119Y-82124624D01*
X124002857Y-82244863D01*
X123999672Y-82250380D01*
X123941674Y-82390400D01*
X123940025Y-82396553D01*
X123925209Y-82509092D01*
X123925000Y-82512277D01*
X123925000Y-82915253D01*
X119618702Y-82915253D01*
X119610646Y-82899442D01*
X119607703Y-82862055D01*
X119632059Y-82833537D01*
X119699785Y-82799028D01*
X119703220Y-82797278D01*
X119798528Y-82701970D01*
X119859719Y-82581876D01*
X119880804Y-82448750D01*
X119859719Y-82315624D01*
X119829124Y-82255577D01*
X119800278Y-82198964D01*
X119800277Y-82198963D01*
X119798528Y-82195530D01*
X119703220Y-82100222D01*
X119699787Y-82098473D01*
X119699786Y-82098472D01*
X119588109Y-82041570D01*
X119583126Y-82039031D01*
X119579321Y-82038428D01*
X119579320Y-82038428D01*
X119453807Y-82018549D01*
X119450000Y-82017946D01*
X119446193Y-82018549D01*
X119320680Y-82038428D01*
X119320679Y-82038428D01*
X119316874Y-82039031D01*
X119311891Y-82041570D01*
X119200214Y-82098472D01*
X119200213Y-82098473D01*
X119196780Y-82100222D01*
X119101472Y-82195530D01*
X119099723Y-82198963D01*
X119099722Y-82198964D01*
X119070876Y-82255577D01*
X119040281Y-82315624D01*
X119019196Y-82448750D01*
X119040281Y-82581876D01*
X119042031Y-82585310D01*
X119059354Y-82619308D01*
X119062297Y-82656695D01*
X119037941Y-82685213D01*
X118992027Y-82708608D01*
X118966780Y-82721472D01*
X118871472Y-82816780D01*
X118810281Y-82936874D01*
X118789196Y-83070000D01*
X118418133Y-83070000D01*
X118430804Y-82990000D01*
X118409719Y-82856874D01*
X118348528Y-82736780D01*
X118253220Y-82641472D01*
X118249787Y-82639723D01*
X118249786Y-82639722D01*
X118187767Y-82608122D01*
X118133126Y-82580281D01*
X118129321Y-82579678D01*
X118129320Y-82579678D01*
X118003807Y-82559799D01*
X118000000Y-82559196D01*
X117996193Y-82559799D01*
X117870680Y-82579678D01*
X117870679Y-82579678D01*
X117866874Y-82580281D01*
X117812233Y-82608122D01*
X117750214Y-82639722D01*
X117750213Y-82639723D01*
X117746780Y-82641472D01*
X117651472Y-82736780D01*
X117590281Y-82856874D01*
X117569196Y-82990000D01*
X103236000Y-82990000D01*
X103236000Y-82660794D01*
X104102929Y-82660794D01*
X104103365Y-82668239D01*
X104105345Y-82670000D01*
X105150253Y-82670000D01*
X105157145Y-82667145D01*
X105160000Y-82660253D01*
X105760000Y-82660253D01*
X105762855Y-82667145D01*
X105769747Y-82670000D01*
X106809456Y-82670000D01*
X106816348Y-82667145D01*
X106817718Y-82663838D01*
X106816984Y-82660794D01*
X108032929Y-82660794D01*
X108033365Y-82668239D01*
X108035345Y-82670000D01*
X109330253Y-82670000D01*
X109337145Y-82667145D01*
X109340000Y-82660253D01*
X109940000Y-82660253D01*
X109942855Y-82667145D01*
X109949747Y-82670000D01*
X111239456Y-82670000D01*
X111246348Y-82667145D01*
X111247718Y-82663838D01*
X111235349Y-82612515D01*
X111233836Y-82608122D01*
X111148889Y-82421292D01*
X111146574Y-82417266D01*
X111027835Y-82249874D01*
X111024795Y-82246352D01*
X110876543Y-82104432D01*
X110872897Y-82101553D01*
X110700482Y-81990225D01*
X110696362Y-81988089D01*
X110506003Y-81911372D01*
X110501549Y-81910053D01*
X110299555Y-81870607D01*
X110296066Y-81870184D01*
X110292917Y-81870030D01*
X110291711Y-81870000D01*
X109949747Y-81870000D01*
X109942855Y-81872855D01*
X109940000Y-81879747D01*
X109940000Y-82660253D01*
X109340000Y-82660253D01*
X109340000Y-81879747D01*
X109337145Y-81872855D01*
X109330253Y-81870000D01*
X109038714Y-81870000D01*
X109036392Y-81870111D01*
X108883374Y-81884710D01*
X108878808Y-81885589D01*
X108681880Y-81943361D01*
X108677561Y-81945088D01*
X108495105Y-82039059D01*
X108491195Y-82041570D01*
X108329807Y-82168342D01*
X108326439Y-82171549D01*
X108191921Y-82326567D01*
X108189235Y-82330333D01*
X108086457Y-82507991D01*
X108084526Y-82512208D01*
X108032929Y-82660794D01*
X106816984Y-82660794D01*
X106805349Y-82612515D01*
X106803836Y-82608122D01*
X106718889Y-82421292D01*
X106716574Y-82417266D01*
X106597835Y-82249874D01*
X106594795Y-82246352D01*
X106446543Y-82104432D01*
X106442897Y-82101553D01*
X106270482Y-81990225D01*
X106266362Y-81988089D01*
X106076003Y-81911372D01*
X106071549Y-81910053D01*
X105869555Y-81870607D01*
X105866066Y-81870184D01*
X105862917Y-81870030D01*
X105861711Y-81870000D01*
X105769747Y-81870000D01*
X105762855Y-81872855D01*
X105760000Y-81879747D01*
X105760000Y-82660253D01*
X105160000Y-82660253D01*
X105160000Y-81879747D01*
X105157145Y-81872855D01*
X105150253Y-81870000D01*
X105108714Y-81870000D01*
X105106392Y-81870111D01*
X104953374Y-81884710D01*
X104948808Y-81885589D01*
X104751880Y-81943361D01*
X104747561Y-81945088D01*
X104565105Y-82039059D01*
X104561195Y-82041570D01*
X104399807Y-82168342D01*
X104396439Y-82171549D01*
X104261921Y-82326567D01*
X104259235Y-82330333D01*
X104156457Y-82507991D01*
X104154526Y-82512208D01*
X104102929Y-82660794D01*
X103236000Y-82660794D01*
X103236000Y-81749000D01*
X103250352Y-81714352D01*
X103285000Y-81700000D01*
X126371000Y-81700000D01*
X126405648Y-81714352D01*
G37*
%TD.AperFunction*%
%TD*%
M02*
