%TF.GenerationSoftware,KiCad,Pcbnew,(6.0.0)*%
%TF.CreationDate,2022-02-12T21:10:29+08:00*%
%TF.ProjectId,USB-TTL-V1,5553422d-5454-44c2-9d56-312e6b696361,rev?*%
%TF.SameCoordinates,Original*%
%TF.FileFunction,Copper,L1,Top*%
%TF.FilePolarity,Positive*%
%FSLAX46Y46*%
G04 Gerber Fmt 4.6, Leading zero omitted, Abs format (unit mm)*
G04 Created by KiCad (PCBNEW (6.0.0)) date 2022-02-12 21:10:29*
%MOMM*%
%LPD*%
G01*
G04 APERTURE LIST*
G04 Aperture macros list*
%AMRoundRect*
0 Rectangle with rounded corners*
0 $1 Rounding radius*
0 $2 $3 $4 $5 $6 $7 $8 $9 X,Y pos of 4 corners*
0 Add a 4 corners polygon primitive as box body*
4,1,4,$2,$3,$4,$5,$6,$7,$8,$9,$2,$3,0*
0 Add four circle primitives for the rounded corners*
1,1,$1+$1,$2,$3*
1,1,$1+$1,$4,$5*
1,1,$1+$1,$6,$7*
1,1,$1+$1,$8,$9*
0 Add four rect primitives between the rounded corners*
20,1,$1+$1,$2,$3,$4,$5,0*
20,1,$1+$1,$4,$5,$6,$7,0*
20,1,$1+$1,$6,$7,$8,$9,0*
20,1,$1+$1,$8,$9,$2,$3,0*%
G04 Aperture macros list end*
%TA.AperFunction,SMDPad,CuDef*%
%ADD10RoundRect,0.135000X-0.135000X-0.185000X0.135000X-0.185000X0.135000X0.185000X-0.135000X0.185000X0*%
%TD*%
%TA.AperFunction,SMDPad,CuDef*%
%ADD11RoundRect,0.150000X-0.512500X-0.150000X0.512500X-0.150000X0.512500X0.150000X-0.512500X0.150000X0*%
%TD*%
%TA.AperFunction,SMDPad,CuDef*%
%ADD12RoundRect,0.147500X0.147500X0.172500X-0.147500X0.172500X-0.147500X-0.172500X0.147500X-0.172500X0*%
%TD*%
%TA.AperFunction,SMDPad,CuDef*%
%ADD13RoundRect,0.140000X-0.140000X-0.170000X0.140000X-0.170000X0.140000X0.170000X-0.140000X0.170000X0*%
%TD*%
%TA.AperFunction,SMDPad,CuDef*%
%ADD14RoundRect,0.140000X0.140000X0.170000X-0.140000X0.170000X-0.140000X-0.170000X0.140000X-0.170000X0*%
%TD*%
%TA.AperFunction,SMDPad,CuDef*%
%ADD15R,1.450000X0.600000*%
%TD*%
%TA.AperFunction,SMDPad,CuDef*%
%ADD16R,1.450000X0.300000*%
%TD*%
%TA.AperFunction,ComponentPad*%
%ADD17O,1.600000X1.000000*%
%TD*%
%TA.AperFunction,ComponentPad*%
%ADD18O,2.100000X1.000000*%
%TD*%
%TA.AperFunction,SMDPad,CuDef*%
%ADD19RoundRect,0.135000X0.185000X-0.135000X0.185000X0.135000X-0.185000X0.135000X-0.185000X-0.135000X0*%
%TD*%
%TA.AperFunction,SMDPad,CuDef*%
%ADD20R,0.650000X1.220000*%
%TD*%
%TA.AperFunction,SMDPad,CuDef*%
%ADD21RoundRect,0.135000X0.135000X0.185000X-0.135000X0.185000X-0.135000X-0.185000X0.135000X-0.185000X0*%
%TD*%
%TA.AperFunction,SMDPad,CuDef*%
%ADD22RoundRect,0.140000X0.170000X-0.140000X0.170000X0.140000X-0.170000X0.140000X-0.170000X-0.140000X0*%
%TD*%
%TA.AperFunction,ComponentPad*%
%ADD23R,1.000000X1.000000*%
%TD*%
%TA.AperFunction,ComponentPad*%
%ADD24O,1.000000X1.000000*%
%TD*%
%TA.AperFunction,SMDPad,CuDef*%
%ADD25RoundRect,0.140000X-0.170000X0.140000X-0.170000X-0.140000X0.170000X-0.140000X0.170000X0.140000X0*%
%TD*%
%TA.AperFunction,SMDPad,CuDef*%
%ADD26RoundRect,0.135000X-0.185000X0.135000X-0.185000X-0.135000X0.185000X-0.135000X0.185000X0.135000X0*%
%TD*%
%TA.AperFunction,SMDPad,CuDef*%
%ADD27R,1.200000X0.900000*%
%TD*%
%TA.AperFunction,SMDPad,CuDef*%
%ADD28O,1.800000X0.600000*%
%TD*%
%TA.AperFunction,ViaPad*%
%ADD29C,0.450000*%
%TD*%
%TA.AperFunction,Conductor*%
%ADD30C,0.400000*%
%TD*%
%TA.AperFunction,Conductor*%
%ADD31C,0.200000*%
%TD*%
G04 APERTURE END LIST*
D10*
%TO.P,R2,2*%
%TO.N,/TXD*%
X125000000Y-86594284D03*
%TO.P,R2,1*%
%TO.N,Net-(R2-Pad1)*%
X123980000Y-86594284D03*
%TD*%
D11*
%TO.P,U2,1,IN*%
%TO.N,+5VD*%
X112832500Y-88940000D03*
%TO.P,U2,2,GND*%
%TO.N,GND*%
X112832500Y-89890000D03*
%TO.P,U2,3,EN*%
%TO.N,+5VD*%
X112832500Y-90840000D03*
%TO.P,U2,4,BP*%
%TO.N,Net-(C6-Pad1)*%
X115107500Y-90840000D03*
%TO.P,U2,5,OUT*%
%TO.N,+3V3*%
X115107500Y-88940000D03*
%TD*%
D12*
%TO.P,D3,2,A*%
%TO.N,Net-(D3-Pad2)*%
X124005000Y-89337140D03*
%TO.P,D3,1,K*%
%TO.N,/RXD*%
X124975000Y-89337140D03*
%TD*%
%TO.P,D2,1,K*%
%TO.N,/TXD*%
X124975000Y-90708568D03*
%TO.P,D2,2,A*%
%TO.N,Net-(D2-Pad2)*%
X124005000Y-90708568D03*
%TD*%
D13*
%TO.P,C7,2*%
%TO.N,GND*%
X115570000Y-87610000D03*
%TO.P,C7,1*%
%TO.N,+3V3*%
X114610000Y-87610000D03*
%TD*%
D14*
%TO.P,C6,2*%
%TO.N,GND*%
X114570000Y-92150000D03*
%TO.P,C6,1*%
%TO.N,Net-(C6-Pad1)*%
X115530000Y-92150000D03*
%TD*%
D13*
%TO.P,C5,2*%
%TO.N,GND*%
X113340000Y-92150000D03*
%TO.P,C5,1*%
%TO.N,+5VD*%
X112380000Y-92150000D03*
%TD*%
D15*
%TO.P,J2,A1,GND*%
%TO.N,GND*%
X110555000Y-84040000D03*
%TO.P,J2,A4,VBUS*%
%TO.N,Net-(D1-Pad2)*%
X110555000Y-84840000D03*
D16*
%TO.P,J2,A5,CC1*%
%TO.N,unconnected-(J2-PadA5)*%
X110555000Y-86040000D03*
%TO.P,J2,A6,D+*%
%TO.N,Net-(J2-PadA6)*%
X110555000Y-87040000D03*
%TO.P,J2,A7,D-*%
%TO.N,Net-(J2-PadA7)*%
X110555000Y-87540000D03*
%TO.P,J2,A8,SBU1*%
%TO.N,unconnected-(J2-PadA8)*%
X110555000Y-88540000D03*
D15*
%TO.P,J2,A9,VBUS*%
%TO.N,Net-(D1-Pad2)*%
X110555000Y-89740000D03*
%TO.P,J2,A12,GND*%
%TO.N,GND*%
X110555000Y-90540000D03*
%TO.P,J2,B1,GND*%
X110555000Y-90540000D03*
%TO.P,J2,B4,VBUS*%
%TO.N,Net-(D1-Pad2)*%
X110555000Y-89740000D03*
D16*
%TO.P,J2,B5,CC2*%
%TO.N,unconnected-(J2-PadB5)*%
X110555000Y-89040000D03*
%TO.P,J2,B6,D+*%
%TO.N,Net-(J2-PadA6)*%
X110555000Y-88040000D03*
%TO.P,J2,B7,D-*%
%TO.N,Net-(J2-PadA7)*%
X110555000Y-86540000D03*
%TO.P,J2,B8,SBU2*%
%TO.N,unconnected-(J2-PadB8)*%
X110555000Y-85540000D03*
D15*
%TO.P,J2,B9,VBUS*%
%TO.N,Net-(D1-Pad2)*%
X110555000Y-84840000D03*
%TO.P,J2,B12,GND*%
%TO.N,GND*%
X110555000Y-84040000D03*
D17*
%TO.P,J2,S1,SHIELD*%
X105460000Y-91610000D03*
D18*
X109640000Y-91610000D03*
D17*
X105460000Y-82970000D03*
D18*
X109640000Y-82970000D03*
%TD*%
D19*
%TO.P,R4,1*%
%TO.N,Net-(Q2-Pad1)*%
X128820000Y-87750000D03*
%TO.P,R4,2*%
%TO.N,Net-(Q1-Pad2)*%
X128820000Y-86730000D03*
%TD*%
D20*
%TO.P,Q2,3,C*%
%TO.N,/GPIO0*%
X127810000Y-91920000D03*
%TO.P,Q2,2,E*%
%TO.N,Net-(Q2-Pad2)*%
X126860000Y-89300000D03*
%TO.P,Q2,1,B*%
%TO.N,Net-(Q2-Pad1)*%
X128760000Y-89300000D03*
%TD*%
D13*
%TO.P,C3,2*%
%TO.N,GND*%
X124950000Y-83861428D03*
%TO.P,C3,1*%
%TO.N,+3V3*%
X123990000Y-83861428D03*
%TD*%
D20*
%TO.P,Q1,3,C*%
%TO.N,/nRST*%
X127810000Y-82540000D03*
%TO.P,Q1,2,E*%
%TO.N,Net-(Q1-Pad2)*%
X128760000Y-85160000D03*
%TO.P,Q1,1,B*%
%TO.N,Net-(Q1-Pad1)*%
X126860000Y-85160000D03*
%TD*%
D13*
%TO.P,C1,1*%
%TO.N,+3V3*%
X123990000Y-82510000D03*
%TO.P,C1,2*%
%TO.N,GND*%
X124950000Y-82510000D03*
%TD*%
D21*
%TO.P,R1,2*%
%TO.N,Net-(R1-Pad2)*%
X123980000Y-85222856D03*
%TO.P,R1,1*%
%TO.N,/RXD*%
X125000000Y-85222856D03*
%TD*%
D22*
%TO.P,C2,2*%
%TO.N,GND*%
X115540000Y-83740000D03*
%TO.P,C2,1*%
%TO.N,+3V3*%
X115540000Y-84700000D03*
%TD*%
D23*
%TO.P,J1,1,Pin_1*%
%TO.N,+3V3*%
X131720000Y-84115000D03*
D24*
%TO.P,J1,2,Pin_2*%
%TO.N,GND*%
X131720000Y-85385000D03*
%TO.P,J1,3,Pin_3*%
%TO.N,/RST*%
X131720000Y-86655000D03*
%TO.P,J1,4,Pin_4*%
%TO.N,/GPIO0*%
X131720000Y-87925000D03*
%TO.P,J1,5,Pin_5*%
%TO.N,/RXD*%
X131720000Y-89195000D03*
%TO.P,J1,6,Pin_6*%
%TO.N,/TXD*%
X131720000Y-90465000D03*
%TD*%
D25*
%TO.P,C4,2*%
%TO.N,GND*%
X115540000Y-86600000D03*
%TO.P,C4,1*%
%TO.N,+3V3*%
X115540000Y-85640000D03*
%TD*%
D26*
%TO.P,R3,1*%
%TO.N,Net-(Q1-Pad1)*%
X126830000Y-86730000D03*
%TO.P,R3,2*%
%TO.N,Net-(Q2-Pad2)*%
X126830000Y-87750000D03*
%TD*%
D21*
%TO.P,R5,2*%
%TO.N,Net-(D2-Pad2)*%
X123980000Y-92080000D03*
%TO.P,R5,1*%
%TO.N,+3V3*%
X125000000Y-92080000D03*
%TD*%
D27*
%TO.P,D1,1,K*%
%TO.N,+5VD*%
X113100000Y-85980000D03*
%TO.P,D1,2,A*%
%TO.N,Net-(D1-Pad2)*%
X113100000Y-82680000D03*
%TD*%
D28*
%TO.P,U1,16,VCC*%
%TO.N,+3V3*%
X122390000Y-83005000D03*
%TO.P,U1,15,R232*%
%TO.N,unconnected-(U1-Pad15)*%
X122390000Y-84275000D03*
%TO.P,U1,14,~{RTS}*%
%TO.N,Net-(Q1-Pad2)*%
X122390000Y-85545000D03*
%TO.P,U1,13,~{DTR}*%
%TO.N,Net-(Q2-Pad2)*%
X122390000Y-86815000D03*
%TO.P,U1,12,~{DCD}*%
%TO.N,unconnected-(U1-Pad12)*%
X122390000Y-88085000D03*
%TO.P,U1,11,~{RI}*%
%TO.N,unconnected-(U1-Pad11)*%
X122390000Y-89355000D03*
%TO.P,U1,10,~{DSR}*%
%TO.N,unconnected-(U1-Pad10)*%
X122390000Y-90625000D03*
%TO.P,U1,9,~{CTS}*%
%TO.N,unconnected-(U1-Pad9)*%
X122390000Y-91895000D03*
%TO.P,U1,8,NC*%
%TO.N,unconnected-(U1-Pad8)*%
X117190000Y-91895000D03*
%TO.P,U1,7,NC*%
%TO.N,unconnected-(U1-Pad7)*%
X117190000Y-90625000D03*
%TO.P,U1,6,UD-*%
%TO.N,Net-(J2-PadA7)*%
X117190000Y-89355000D03*
%TO.P,U1,5,UD+*%
%TO.N,Net-(J2-PadA6)*%
X117190000Y-88085000D03*
%TO.P,U1,4,V3*%
%TO.N,+3V3*%
X117190000Y-86815000D03*
%TO.P,U1,3,RXD*%
%TO.N,Net-(R2-Pad1)*%
X117190000Y-85545000D03*
%TO.P,U1,2,TXD*%
%TO.N,Net-(R1-Pad2)*%
X117190000Y-84275000D03*
%TO.P,U1,1,GND*%
%TO.N,GND*%
X117190000Y-83005000D03*
%TD*%
D21*
%TO.P,R6,2*%
%TO.N,Net-(D3-Pad2)*%
X123980000Y-87965712D03*
%TO.P,R6,1*%
%TO.N,+3V3*%
X125000000Y-87965712D03*
%TD*%
D29*
%TO.N,GND*%
X129920000Y-88500000D03*
X129920000Y-87300000D03*
X129920000Y-85990000D03*
X129920000Y-85000000D03*
X130210556Y-83401331D03*
X132120000Y-82440000D03*
X131230000Y-82440000D03*
X130250000Y-82440000D03*
X120480000Y-83710000D03*
X119740000Y-83700000D03*
X119010000Y-83690000D03*
X114300000Y-83740000D03*
X115410000Y-82420000D03*
X114620000Y-82410000D03*
X113970000Y-92150000D03*
X111320000Y-92310000D03*
X111080000Y-91610000D03*
X106720000Y-88410000D03*
X106120000Y-88410000D03*
X105520000Y-88410000D03*
X104920000Y-88410000D03*
X104320000Y-88410000D03*
X106720000Y-87810000D03*
X106120000Y-87810000D03*
X105520000Y-87810000D03*
X104920000Y-87810000D03*
X104320000Y-87810000D03*
X106720000Y-87210000D03*
X106120000Y-87210000D03*
X105520000Y-87210000D03*
X104920000Y-87210000D03*
X104320000Y-87210000D03*
X106720000Y-86610000D03*
X106120000Y-86610000D03*
X105520000Y-86610000D03*
X104920000Y-86610000D03*
X104320000Y-86610000D03*
X106720000Y-86010000D03*
X106120000Y-86010000D03*
X105520000Y-86010000D03*
X104920000Y-86010000D03*
X104330000Y-86020000D03*
X120470000Y-83030000D03*
X119730000Y-83030000D03*
X119010000Y-83010000D03*
X120410000Y-82340000D03*
X119710000Y-82340000D03*
X118960000Y-82350000D03*
X129310000Y-82440000D03*
X129340000Y-83400000D03*
X126140000Y-83310000D03*
X126130000Y-82540000D03*
%TO.N,/GPIO0*%
X127830000Y-91920000D03*
%TO.N,/TXD*%
X124975000Y-90708568D03*
X125010000Y-86580000D03*
%TO.N,/RXD*%
X125800000Y-85510000D03*
X125760000Y-88790000D03*
%TO.N,Net-(Q1-Pad1)*%
X126830000Y-86730000D03*
X126860000Y-85160000D03*
%TO.N,+3V3*%
X125000000Y-92080000D03*
X125000000Y-87965712D03*
X123990000Y-83861428D03*
X122390000Y-83005000D03*
X117190000Y-86815000D03*
%TO.N,GND*%
X115590000Y-87724500D03*
X115570000Y-86630000D03*
%TO.N,Net-(J2-PadA6)*%
X117190000Y-88085000D03*
X112060000Y-87260000D03*
%TO.N,Net-(J2-PadA7)*%
X117190000Y-89340000D03*
X109310000Y-88070000D03*
%TD*%
D30*
%TO.N,GND*%
X113970000Y-92150000D02*
X114570000Y-92150000D01*
%TO.N,+3V3*%
X114610000Y-88442500D02*
X114610000Y-87610000D01*
X115107500Y-88940000D02*
X114610000Y-88442500D01*
D31*
%TO.N,Net-(J2-PadA6)*%
X111890489Y-87090489D02*
X112060000Y-87260000D01*
X111579511Y-87090489D02*
X111890489Y-87090489D01*
%TO.N,/GPIO0*%
X127810000Y-91920000D02*
X127830000Y-91920000D01*
%TO.N,/TXD*%
X129921432Y-90708568D02*
X130165000Y-90465000D01*
X124975000Y-90708568D02*
X129921432Y-90708568D01*
X130165000Y-90465000D02*
X131720000Y-90465000D01*
%TO.N,/RXD*%
X125760000Y-88970000D02*
X125760000Y-88790000D01*
X125392860Y-89337140D02*
X125760000Y-88970000D01*
X124975000Y-89337140D02*
X125392860Y-89337140D01*
%TO.N,/TXD*%
X125000000Y-86590000D02*
X125010000Y-86580000D01*
X125000000Y-86594284D02*
X125000000Y-86590000D01*
%TO.N,/RXD*%
X125512856Y-85222856D02*
X125800000Y-85510000D01*
%TO.N,Net-(Q1-Pad2)*%
X128250480Y-86160480D02*
X128820000Y-86730000D01*
X125708722Y-86160480D02*
X128250480Y-86160480D01*
X125448242Y-85900000D02*
X125708722Y-86160480D01*
X123367640Y-85545000D02*
X123722640Y-85900000D01*
X122390000Y-85545000D02*
X123367640Y-85545000D01*
%TO.N,/RXD*%
X125000000Y-85222856D02*
X125512856Y-85222856D01*
%TO.N,Net-(Q1-Pad2)*%
X123722640Y-85900000D02*
X125448242Y-85900000D01*
%TO.N,Net-(D2-Pad2)*%
X124005000Y-92055000D02*
X123980000Y-92080000D01*
X124005000Y-90708568D02*
X124005000Y-92055000D01*
%TO.N,Net-(D3-Pad2)*%
X123980000Y-89312140D02*
X124005000Y-89337140D01*
X123980000Y-87965712D02*
X123980000Y-89312140D01*
%TO.N,Net-(Q2-Pad2)*%
X126830000Y-89270000D02*
X126860000Y-89300000D01*
X126830000Y-87750000D02*
X126830000Y-89270000D01*
%TO.N,Net-(Q2-Pad1)*%
X128820000Y-87750000D02*
X128820000Y-89240000D01*
X128820000Y-89240000D02*
X128760000Y-89300000D01*
%TO.N,Net-(Q1-Pad2)*%
X128760000Y-86670000D02*
X128820000Y-86730000D01*
X128760000Y-85160000D02*
X128760000Y-86670000D01*
%TO.N,Net-(R2-Pad1)*%
X123402166Y-86144520D02*
X123851930Y-86594284D01*
X123851930Y-86594284D02*
X123980000Y-86594284D01*
X117190000Y-85545000D02*
X117789520Y-86144520D01*
X117789520Y-86144520D02*
X123402166Y-86144520D01*
%TO.N,Net-(Q2-Pad2)*%
X126379520Y-87299520D02*
X126830000Y-87750000D01*
X122874520Y-87299520D02*
X126379520Y-87299520D01*
X122390000Y-86815000D02*
X122874520Y-87299520D01*
%TO.N,Net-(R1-Pad2)*%
X117190000Y-84275000D02*
X117789520Y-84874520D01*
X117789520Y-84874520D02*
X123631664Y-84874520D01*
X123631664Y-84874520D02*
X123980000Y-85222856D01*
D30*
%TO.N,GND*%
X124950000Y-83861428D02*
X124950000Y-82510000D01*
%TO.N,+3V3*%
X123990000Y-82510000D02*
X123990000Y-83861428D01*
X123495000Y-83005000D02*
X123990000Y-82510000D01*
X122390000Y-83005000D02*
X123495000Y-83005000D01*
%TO.N,+5VD*%
X113085000Y-85995000D02*
X113100000Y-85980000D01*
%TO.N,+3V3*%
X115427004Y-85640000D02*
X115540000Y-85640000D01*
X114610000Y-86457004D02*
X115427004Y-85640000D01*
X114610000Y-87610000D02*
X114610000Y-86457004D01*
%TO.N,Net-(D1-Pad2)*%
X113100000Y-83420000D02*
X113100000Y-82680000D01*
X111680000Y-84840000D02*
X113100000Y-83420000D01*
X110555000Y-84840000D02*
X111680000Y-84840000D01*
D31*
%TO.N,Net-(J2-PadA7)*%
X109310000Y-87810978D02*
X109310000Y-88070000D01*
X109580978Y-87540000D02*
X109310000Y-87810978D01*
D30*
%TO.N,GND*%
X109640000Y-82970000D02*
X109640000Y-83125000D01*
%TO.N,Net-(D1-Pad2)*%
X109694629Y-84840000D02*
X110555000Y-84840000D01*
X108610000Y-85924629D02*
X109694629Y-84840000D01*
X108610000Y-88655371D02*
X108610000Y-85924629D01*
X109694629Y-89740000D02*
X108610000Y-88655371D01*
X110555000Y-89740000D02*
X109694629Y-89740000D01*
D31*
%TO.N,Net-(J2-PadA6)*%
X111579511Y-87989511D02*
X111579511Y-87090489D01*
X110555000Y-88040000D02*
X111529022Y-88040000D01*
X111529022Y-88040000D02*
X111579511Y-87989511D01*
X111579511Y-87090489D02*
X111529022Y-87040000D01*
X111529022Y-87040000D02*
X110555000Y-87040000D01*
%TO.N,Net-(J2-PadA7)*%
X109530489Y-86590489D02*
X109580978Y-86540000D01*
X109530489Y-87489511D02*
X109530489Y-86590489D01*
X109580978Y-86540000D02*
X110555000Y-86540000D01*
X109580978Y-87540000D02*
X109530489Y-87489511D01*
X110555000Y-87540000D02*
X109580978Y-87540000D01*
D30*
%TO.N,GND*%
X112832500Y-89890000D02*
X112229022Y-89890000D01*
X112229022Y-89890000D02*
X111579022Y-90540000D01*
X111579022Y-90540000D02*
X110555000Y-90540000D01*
%TO.N,+5VD*%
X113322138Y-88940000D02*
X112832500Y-88940000D01*
X113894520Y-89512382D02*
X113322138Y-88940000D01*
X113894520Y-90267618D02*
X113894520Y-89512382D01*
X113322138Y-90840000D02*
X113894520Y-90267618D01*
X112832500Y-90840000D02*
X113322138Y-90840000D01*
D31*
%TO.N,Net-(C6-Pad1)*%
X115530000Y-91262500D02*
X115107500Y-90840000D01*
X115530000Y-92150000D02*
X115530000Y-91262500D01*
D30*
%TO.N,GND*%
X113340000Y-92150000D02*
X113970000Y-92150000D01*
%TO.N,+5VD*%
X112380000Y-91292500D02*
X112380000Y-92150000D01*
X112832500Y-90840000D02*
X112380000Y-91292500D01*
X112832500Y-86247500D02*
X113085000Y-85995000D01*
X112832500Y-88940000D02*
X112832500Y-86247500D01*
%TO.N,+3V3*%
X115652996Y-85640000D02*
X115540000Y-85640000D01*
X116827996Y-86815000D02*
X115652996Y-85640000D01*
X117190000Y-86815000D02*
X116827996Y-86815000D01*
X115540000Y-85640000D02*
X115540000Y-84700000D01*
%TO.N,GND*%
X115570000Y-86630000D02*
X115540000Y-86600000D01*
%TD*%
%TA.AperFunction,Conductor*%
%TO.N,GND*%
G36*
X127249957Y-81788907D02*
G01*
X127285921Y-81838407D01*
X127288864Y-81888313D01*
X127284500Y-81910252D01*
X127284500Y-83169748D01*
X127285448Y-83174512D01*
X127293986Y-83217435D01*
X127296133Y-83228231D01*
X127340448Y-83294552D01*
X127406769Y-83338867D01*
X127416332Y-83340769D01*
X127416334Y-83340770D01*
X127439005Y-83345279D01*
X127465252Y-83350500D01*
X128154748Y-83350500D01*
X128180995Y-83345279D01*
X128203666Y-83340770D01*
X128203668Y-83340769D01*
X128213231Y-83338867D01*
X128279552Y-83294552D01*
X128323867Y-83228231D01*
X128326015Y-83217435D01*
X128334552Y-83174512D01*
X128335500Y-83169748D01*
X128335500Y-81910252D01*
X128331136Y-81888314D01*
X128338327Y-81827554D01*
X128379860Y-81782623D01*
X128428234Y-81770000D01*
X133041000Y-81770000D01*
X133099191Y-81788907D01*
X133135155Y-81838407D01*
X133140000Y-81869000D01*
X133140000Y-92571000D01*
X133121093Y-92629191D01*
X133071593Y-92665155D01*
X133041000Y-92670000D01*
X128432213Y-92670000D01*
X128374022Y-92651093D01*
X128338058Y-92601593D01*
X128335572Y-92559507D01*
X128334075Y-92559360D01*
X128334552Y-92554512D01*
X128335500Y-92549748D01*
X128335500Y-91290252D01*
X128328417Y-91254641D01*
X128325770Y-91241334D01*
X128325769Y-91241332D01*
X128323867Y-91231769D01*
X128279552Y-91165448D01*
X128282164Y-91163703D01*
X128261708Y-91123555D01*
X128271279Y-91063123D01*
X128314544Y-91019858D01*
X128359489Y-91009068D01*
X129867924Y-91009068D01*
X129872049Y-91009371D01*
X129876774Y-91010993D01*
X129926193Y-91009138D01*
X129929906Y-91009068D01*
X129949380Y-91009068D01*
X129953810Y-91008243D01*
X129959003Y-91007907D01*
X129975034Y-91007305D01*
X129979507Y-91007137D01*
X129988640Y-91006794D01*
X129997034Y-91003188D01*
X129997037Y-91003187D01*
X129999215Y-91002251D01*
X130020166Y-90995885D01*
X130031485Y-90993777D01*
X130054161Y-90979800D01*
X130067028Y-90973116D01*
X130085074Y-90965363D01*
X130085075Y-90965362D01*
X130091495Y-90962604D01*
X130096381Y-90958590D01*
X130100745Y-90954226D01*
X130118800Y-90939955D01*
X130126780Y-90935036D01*
X130144450Y-90911799D01*
X130153242Y-90901729D01*
X130260475Y-90794496D01*
X130314992Y-90766719D01*
X130330479Y-90765500D01*
X131025173Y-90765500D01*
X131083364Y-90784407D01*
X131107344Y-90809283D01*
X131185830Y-90926083D01*
X131311233Y-91040191D01*
X131460235Y-91121092D01*
X131519680Y-91136687D01*
X131618464Y-91162603D01*
X131618468Y-91162604D01*
X131624233Y-91164116D01*
X131630194Y-91164210D01*
X131630197Y-91164210D01*
X131708996Y-91165447D01*
X131793760Y-91166779D01*
X131799575Y-91165447D01*
X131799577Y-91165447D01*
X131953206Y-91130262D01*
X131953209Y-91130261D01*
X131959029Y-91128928D01*
X131974610Y-91121092D01*
X132086943Y-91064594D01*
X132110498Y-91052747D01*
X132115035Y-91048872D01*
X132115038Y-91048870D01*
X132234888Y-90946508D01*
X132234891Y-90946505D01*
X132239423Y-90942634D01*
X132261573Y-90911809D01*
X132334877Y-90809796D01*
X132334878Y-90809794D01*
X132338361Y-90804947D01*
X132342563Y-90794496D01*
X132399377Y-90653167D01*
X132399378Y-90653165D01*
X132401601Y-90647634D01*
X132403424Y-90634828D01*
X132425034Y-90482985D01*
X132425034Y-90482979D01*
X132425490Y-90479778D01*
X132425645Y-90465000D01*
X132412266Y-90354444D01*
X132405993Y-90302602D01*
X132405992Y-90302599D01*
X132405276Y-90296680D01*
X132345345Y-90138077D01*
X132336420Y-90125090D01*
X132252692Y-90003267D01*
X132249312Y-89998349D01*
X132142554Y-89903230D01*
X132111684Y-89850404D01*
X132117761Y-89789521D01*
X132144117Y-89754034D01*
X132234884Y-89676512D01*
X132234890Y-89676506D01*
X132239423Y-89672634D01*
X132246989Y-89662105D01*
X132334877Y-89539796D01*
X132334878Y-89539794D01*
X132338361Y-89534947D01*
X132360106Y-89480857D01*
X132399377Y-89383167D01*
X132399378Y-89383165D01*
X132401601Y-89377634D01*
X132404661Y-89356135D01*
X132425034Y-89212985D01*
X132425034Y-89212979D01*
X132425490Y-89209778D01*
X132425645Y-89195000D01*
X132409774Y-89063846D01*
X132405993Y-89032602D01*
X132405992Y-89032599D01*
X132405276Y-89026680D01*
X132345345Y-88868077D01*
X132336420Y-88855090D01*
X132252692Y-88733267D01*
X132249312Y-88728349D01*
X132142554Y-88633230D01*
X132111684Y-88580404D01*
X132117761Y-88519521D01*
X132144117Y-88484034D01*
X132234884Y-88406512D01*
X132234890Y-88406506D01*
X132239423Y-88402634D01*
X132248142Y-88390500D01*
X132334877Y-88269796D01*
X132334878Y-88269794D01*
X132338361Y-88264947D01*
X132350426Y-88234936D01*
X132399377Y-88113167D01*
X132399378Y-88113165D01*
X132401601Y-88107634D01*
X132404661Y-88086135D01*
X132425034Y-87942985D01*
X132425034Y-87942979D01*
X132425490Y-87939778D01*
X132425645Y-87925000D01*
X132412927Y-87819901D01*
X132405993Y-87762602D01*
X132405992Y-87762599D01*
X132405276Y-87756680D01*
X132345345Y-87598077D01*
X132336420Y-87585090D01*
X132257328Y-87470013D01*
X132249312Y-87458349D01*
X132142554Y-87363230D01*
X132111684Y-87310404D01*
X132117761Y-87249521D01*
X132144117Y-87214034D01*
X132234884Y-87136512D01*
X132234890Y-87136506D01*
X132239423Y-87132634D01*
X132242904Y-87127790D01*
X132334877Y-86999796D01*
X132334878Y-86999794D01*
X132338361Y-86994947D01*
X132344325Y-86980113D01*
X132399377Y-86843167D01*
X132399378Y-86843165D01*
X132401601Y-86837634D01*
X132403198Y-86826415D01*
X132425034Y-86672985D01*
X132425034Y-86672979D01*
X132425490Y-86669778D01*
X132425645Y-86655000D01*
X132411707Y-86539821D01*
X132405993Y-86492602D01*
X132405992Y-86492599D01*
X132405276Y-86486680D01*
X132360983Y-86369462D01*
X132358101Y-86308345D01*
X132390288Y-86258353D01*
X132497650Y-86169061D01*
X132504061Y-86162650D01*
X132627518Y-86014209D01*
X132632641Y-86006755D01*
X132726989Y-85838286D01*
X132730665Y-85830030D01*
X132774855Y-85699849D01*
X132775001Y-85688693D01*
X132763884Y-85685000D01*
X130676869Y-85685000D01*
X130664959Y-85688870D01*
X130664641Y-85698591D01*
X130677534Y-85749359D01*
X130680554Y-85757887D01*
X130761386Y-85933225D01*
X130765917Y-85941072D01*
X130877348Y-86098744D01*
X130883222Y-86105622D01*
X131021527Y-86240352D01*
X131028562Y-86246049D01*
X131040967Y-86254338D01*
X131078846Y-86302388D01*
X131081248Y-86363526D01*
X131078202Y-86372615D01*
X131045000Y-86457774D01*
X131036524Y-86479513D01*
X131035745Y-86485428D01*
X131035745Y-86485429D01*
X131033877Y-86499622D01*
X131014394Y-86647611D01*
X131015049Y-86653544D01*
X131015049Y-86653548D01*
X131031753Y-86804848D01*
X131032999Y-86816135D01*
X131091266Y-86975356D01*
X131094591Y-86980305D01*
X131094592Y-86980306D01*
X131107167Y-86999020D01*
X131185830Y-87116083D01*
X131297374Y-87217580D01*
X131327687Y-87270725D01*
X131320973Y-87331541D01*
X131295824Y-87365404D01*
X131224704Y-87427446D01*
X131195604Y-87452831D01*
X131192173Y-87457713D01*
X131192172Y-87457714D01*
X131173460Y-87484339D01*
X131098113Y-87591547D01*
X131036524Y-87749513D01*
X131014394Y-87917611D01*
X131015049Y-87923544D01*
X131015049Y-87923548D01*
X131031618Y-88073627D01*
X131032999Y-88086135D01*
X131091266Y-88245356D01*
X131094591Y-88250305D01*
X131094592Y-88250306D01*
X131130012Y-88303016D01*
X131185830Y-88386083D01*
X131297374Y-88487580D01*
X131327687Y-88540725D01*
X131320973Y-88601541D01*
X131295824Y-88635404D01*
X131195604Y-88722831D01*
X131192173Y-88727713D01*
X131192172Y-88727714D01*
X131123385Y-88825588D01*
X131098113Y-88861547D01*
X131036524Y-89019513D01*
X131035745Y-89025428D01*
X131035745Y-89025429D01*
X131033669Y-89041202D01*
X131014394Y-89187611D01*
X131015049Y-89193544D01*
X131015049Y-89193548D01*
X131029925Y-89328292D01*
X131032999Y-89356135D01*
X131091266Y-89515356D01*
X131094591Y-89520305D01*
X131094592Y-89520306D01*
X131126995Y-89568527D01*
X131185830Y-89656083D01*
X131297374Y-89757580D01*
X131327687Y-89810725D01*
X131320973Y-89871541D01*
X131295824Y-89905404D01*
X131195604Y-89992831D01*
X131192173Y-89997713D01*
X131192172Y-89997714D01*
X131104524Y-90122425D01*
X131055595Y-90159162D01*
X131023527Y-90164500D01*
X130218508Y-90164500D01*
X130214383Y-90164197D01*
X130209658Y-90162575D01*
X130160239Y-90164430D01*
X130156526Y-90164500D01*
X130137052Y-90164500D01*
X130132622Y-90165325D01*
X130127429Y-90165661D01*
X130111398Y-90166263D01*
X130106925Y-90166431D01*
X130097792Y-90166774D01*
X130089398Y-90170380D01*
X130089395Y-90170381D01*
X130087217Y-90171317D01*
X130066266Y-90177683D01*
X130054947Y-90179791D01*
X130040663Y-90188596D01*
X130032272Y-90193768D01*
X130019404Y-90200452D01*
X130001358Y-90208205D01*
X130001357Y-90208206D01*
X129994937Y-90210964D01*
X129990051Y-90214978D01*
X129985687Y-90219342D01*
X129967632Y-90233613D01*
X129959652Y-90238532D01*
X129941982Y-90261769D01*
X129933190Y-90271839D01*
X129825957Y-90379072D01*
X129771440Y-90406849D01*
X129755953Y-90408068D01*
X125509046Y-90408068D01*
X125450855Y-90389161D01*
X125420179Y-90352700D01*
X125418045Y-90348354D01*
X125409372Y-90330688D01*
X125403581Y-90324907D01*
X125333170Y-90254618D01*
X125333167Y-90254616D01*
X125327379Y-90248838D01*
X125223294Y-90197960D01*
X125173771Y-90190735D01*
X125159031Y-90188585D01*
X125159029Y-90188585D01*
X125155486Y-90188068D01*
X124794514Y-90188068D01*
X124790931Y-90188596D01*
X124790924Y-90188596D01*
X124733729Y-90197016D01*
X124733727Y-90197017D01*
X124726116Y-90198137D01*
X124719210Y-90201528D01*
X124719209Y-90201528D01*
X124691798Y-90214986D01*
X124622120Y-90249196D01*
X124616339Y-90254987D01*
X124560101Y-90311323D01*
X124505609Y-90339148D01*
X124445169Y-90329629D01*
X124420094Y-90311444D01*
X124410564Y-90301930D01*
X124357379Y-90248838D01*
X124253294Y-90197960D01*
X124203771Y-90190735D01*
X124189031Y-90188585D01*
X124189029Y-90188585D01*
X124185486Y-90188068D01*
X123824514Y-90188068D01*
X123820931Y-90188596D01*
X123820924Y-90188596D01*
X123763729Y-90197016D01*
X123763727Y-90197017D01*
X123756116Y-90198137D01*
X123749210Y-90201528D01*
X123749209Y-90201528D01*
X123721798Y-90214986D01*
X123652120Y-90249196D01*
X123570270Y-90331189D01*
X123566676Y-90338543D01*
X123564454Y-90341657D01*
X123515270Y-90378052D01*
X123454087Y-90378586D01*
X123404275Y-90343056D01*
X123400129Y-90336996D01*
X123378833Y-90303244D01*
X123375070Y-90297280D01*
X123369786Y-90292613D01*
X123369784Y-90292611D01*
X123272897Y-90207044D01*
X123272895Y-90207042D01*
X123267612Y-90202377D01*
X123260454Y-90199016D01*
X123201457Y-90171317D01*
X123137837Y-90141447D01*
X123130866Y-90140362D01*
X123130864Y-90140361D01*
X123084593Y-90133157D01*
X123028991Y-90124500D01*
X121754060Y-90124500D01*
X121750570Y-90125000D01*
X121750567Y-90125000D01*
X121704852Y-90131547D01*
X121648082Y-90139677D01*
X121641659Y-90142597D01*
X121641660Y-90142597D01*
X121540490Y-90188596D01*
X121517572Y-90199016D01*
X121408963Y-90292600D01*
X121330985Y-90412905D01*
X121289907Y-90550261D01*
X121289031Y-90693624D01*
X121290968Y-90700401D01*
X121290968Y-90700402D01*
X121322087Y-90809283D01*
X121328428Y-90831471D01*
X121404930Y-90952720D01*
X121410214Y-90957387D01*
X121410216Y-90957389D01*
X121507103Y-91042956D01*
X121507105Y-91042958D01*
X121512388Y-91047623D01*
X121518770Y-91050619D01*
X121518771Y-91050620D01*
X121529014Y-91055429D01*
X121642163Y-91108553D01*
X121649134Y-91109638D01*
X121649136Y-91109639D01*
X121694621Y-91116721D01*
X121751009Y-91125500D01*
X123025940Y-91125500D01*
X123029430Y-91125000D01*
X123029433Y-91125000D01*
X123084041Y-91117179D01*
X123131918Y-91110323D01*
X123184429Y-91086448D01*
X123256004Y-91053905D01*
X123256005Y-91053904D01*
X123262428Y-91050984D01*
X123369734Y-90958523D01*
X123426156Y-90934863D01*
X123485713Y-90948886D01*
X123523222Y-90989892D01*
X123570628Y-91086448D01*
X123576419Y-91092229D01*
X123646829Y-91162517D01*
X123646832Y-91162519D01*
X123652621Y-91168298D01*
X123659972Y-91171891D01*
X123662989Y-91174043D01*
X123699384Y-91223228D01*
X123704500Y-91254641D01*
X123704500Y-91527790D01*
X123685593Y-91585981D01*
X123662284Y-91608886D01*
X123657442Y-91612276D01*
X123649596Y-91615935D01*
X123587710Y-91677821D01*
X123533193Y-91705598D01*
X123472761Y-91696027D01*
X123433979Y-91660645D01*
X123378833Y-91573244D01*
X123375070Y-91567280D01*
X123369786Y-91562613D01*
X123369784Y-91562611D01*
X123272897Y-91477044D01*
X123272895Y-91477042D01*
X123267612Y-91472377D01*
X123260454Y-91469016D01*
X123224877Y-91452313D01*
X123137837Y-91411447D01*
X123130866Y-91410362D01*
X123130864Y-91410361D01*
X123085379Y-91403279D01*
X123028991Y-91394500D01*
X121754060Y-91394500D01*
X121750570Y-91395000D01*
X121750567Y-91395000D01*
X121695959Y-91402821D01*
X121648082Y-91409677D01*
X121517572Y-91469016D01*
X121408963Y-91562600D01*
X121330985Y-91682905D01*
X121289907Y-91820261D01*
X121289031Y-91963624D01*
X121290968Y-91970401D01*
X121290968Y-91970402D01*
X121318161Y-92065546D01*
X121328428Y-92101471D01*
X121404930Y-92222720D01*
X121410214Y-92227387D01*
X121410216Y-92227389D01*
X121507103Y-92312956D01*
X121507105Y-92312958D01*
X121512388Y-92317623D01*
X121518770Y-92320619D01*
X121518771Y-92320620D01*
X121540880Y-92331000D01*
X121642163Y-92378553D01*
X121649134Y-92379638D01*
X121649136Y-92379639D01*
X121694621Y-92386721D01*
X121751009Y-92395500D01*
X123025940Y-92395500D01*
X123029430Y-92395000D01*
X123029433Y-92395000D01*
X123084041Y-92387179D01*
X123131918Y-92380323D01*
X123191632Y-92353173D01*
X123256004Y-92323905D01*
X123256005Y-92323904D01*
X123262428Y-92320984D01*
X123347448Y-92247726D01*
X123403870Y-92224066D01*
X123463427Y-92238089D01*
X123503367Y-92284441D01*
X123510222Y-92309803D01*
X123514943Y-92345661D01*
X123515932Y-92353173D01*
X123519135Y-92360041D01*
X123519135Y-92360042D01*
X123543889Y-92413126D01*
X123565935Y-92460404D01*
X123606527Y-92500996D01*
X123634304Y-92555513D01*
X123624733Y-92615945D01*
X123581468Y-92659210D01*
X123536523Y-92670000D01*
X116035355Y-92670000D01*
X115977164Y-92651093D01*
X115941200Y-92601593D01*
X115941200Y-92540407D01*
X115951210Y-92520330D01*
X115953224Y-92518316D01*
X116003972Y-92409487D01*
X116010500Y-92359901D01*
X116010500Y-92256999D01*
X116029407Y-92198808D01*
X116078907Y-92162844D01*
X116140093Y-92162844D01*
X116189593Y-92198808D01*
X116193225Y-92204168D01*
X116204930Y-92222720D01*
X116210214Y-92227387D01*
X116210216Y-92227389D01*
X116307103Y-92312956D01*
X116307105Y-92312958D01*
X116312388Y-92317623D01*
X116318770Y-92320619D01*
X116318771Y-92320620D01*
X116340880Y-92331000D01*
X116442163Y-92378553D01*
X116449134Y-92379638D01*
X116449136Y-92379639D01*
X116494621Y-92386721D01*
X116551009Y-92395500D01*
X117825940Y-92395500D01*
X117829430Y-92395000D01*
X117829433Y-92395000D01*
X117884041Y-92387179D01*
X117931918Y-92380323D01*
X117991632Y-92353173D01*
X118056004Y-92323905D01*
X118056005Y-92323904D01*
X118062428Y-92320984D01*
X118138728Y-92255239D01*
X118165693Y-92232005D01*
X118165694Y-92232004D01*
X118171037Y-92227400D01*
X118249015Y-92107095D01*
X118290093Y-91969739D01*
X118290969Y-91826376D01*
X118280545Y-91789904D01*
X118253510Y-91695309D01*
X118253509Y-91695307D01*
X118251572Y-91688529D01*
X118175070Y-91567280D01*
X118169786Y-91562613D01*
X118169784Y-91562611D01*
X118072897Y-91477044D01*
X118072895Y-91477042D01*
X118067612Y-91472377D01*
X118060454Y-91469016D01*
X118024877Y-91452313D01*
X117937837Y-91411447D01*
X117930866Y-91410362D01*
X117930864Y-91410361D01*
X117885379Y-91403279D01*
X117828991Y-91394500D01*
X116554060Y-91394500D01*
X116550570Y-91395000D01*
X116550567Y-91395000D01*
X116495959Y-91402821D01*
X116448082Y-91409677D01*
X116317572Y-91469016D01*
X116208963Y-91562600D01*
X116130985Y-91682905D01*
X116128964Y-91689664D01*
X116128963Y-91689666D01*
X116114859Y-91736827D01*
X116080072Y-91787161D01*
X116022343Y-91807435D01*
X115963723Y-91789904D01*
X115950006Y-91778466D01*
X115868316Y-91696776D01*
X115868713Y-91696379D01*
X115835896Y-91652834D01*
X115830500Y-91620597D01*
X115830500Y-91316237D01*
X115849407Y-91258046D01*
X115859430Y-91246300D01*
X115909293Y-91196350D01*
X115960536Y-91091518D01*
X115961645Y-91083916D01*
X115961646Y-91083913D01*
X115969983Y-91026763D01*
X115969983Y-91026761D01*
X115970500Y-91023218D01*
X115970500Y-90923603D01*
X115989407Y-90865412D01*
X116038907Y-90829448D01*
X116100093Y-90829448D01*
X116149593Y-90865412D01*
X116153225Y-90870772D01*
X116204930Y-90952720D01*
X116210214Y-90957387D01*
X116210216Y-90957389D01*
X116307103Y-91042956D01*
X116307105Y-91042958D01*
X116312388Y-91047623D01*
X116318770Y-91050619D01*
X116318771Y-91050620D01*
X116329014Y-91055429D01*
X116442163Y-91108553D01*
X116449134Y-91109638D01*
X116449136Y-91109639D01*
X116494621Y-91116721D01*
X116551009Y-91125500D01*
X117825940Y-91125500D01*
X117829430Y-91125000D01*
X117829433Y-91125000D01*
X117884041Y-91117179D01*
X117931918Y-91110323D01*
X117984429Y-91086448D01*
X118056004Y-91053905D01*
X118056005Y-91053904D01*
X118062428Y-91050984D01*
X118162494Y-90964761D01*
X118165693Y-90962005D01*
X118165694Y-90962004D01*
X118171037Y-90957400D01*
X118249015Y-90837095D01*
X118290093Y-90699739D01*
X118290969Y-90556376D01*
X118288767Y-90548670D01*
X118253510Y-90425309D01*
X118253509Y-90425307D01*
X118251572Y-90418529D01*
X118175070Y-90297280D01*
X118169786Y-90292613D01*
X118169784Y-90292611D01*
X118072897Y-90207044D01*
X118072895Y-90207042D01*
X118067612Y-90202377D01*
X118060454Y-90199016D01*
X118001457Y-90171317D01*
X117937837Y-90141447D01*
X117930866Y-90140362D01*
X117930864Y-90140361D01*
X117884593Y-90133157D01*
X117828991Y-90124500D01*
X116554060Y-90124500D01*
X116550570Y-90125000D01*
X116550567Y-90125000D01*
X116504852Y-90131547D01*
X116448082Y-90139677D01*
X116441659Y-90142597D01*
X116441660Y-90142597D01*
X116340490Y-90188596D01*
X116317572Y-90199016D01*
X116208963Y-90292600D01*
X116130985Y-90412905D01*
X116128964Y-90419663D01*
X116128963Y-90419665D01*
X116106255Y-90495595D01*
X116071467Y-90545929D01*
X116013738Y-90566202D01*
X115955118Y-90548670D01*
X115922539Y-90510859D01*
X115912540Y-90490492D01*
X115912537Y-90490488D01*
X115908932Y-90483145D01*
X115902321Y-90476545D01*
X115832140Y-90406487D01*
X115826350Y-90400707D01*
X115721518Y-90349464D01*
X115713916Y-90348355D01*
X115713913Y-90348354D01*
X115656763Y-90340017D01*
X115656761Y-90340017D01*
X115653218Y-90339500D01*
X114561782Y-90339500D01*
X114558199Y-90340028D01*
X114558192Y-90340028D01*
X114500501Y-90348521D01*
X114500499Y-90348522D01*
X114492888Y-90349642D01*
X114485982Y-90353033D01*
X114485981Y-90353033D01*
X114437651Y-90376762D01*
X114377084Y-90385436D01*
X114322986Y-90356852D01*
X114296020Y-90301930D01*
X114295020Y-90287895D01*
X114295020Y-89492112D01*
X114313927Y-89433921D01*
X114363427Y-89397957D01*
X114424613Y-89397957D01*
X114437486Y-89403165D01*
X114493482Y-89430536D01*
X114501084Y-89431645D01*
X114501087Y-89431646D01*
X114558237Y-89439983D01*
X114558239Y-89439983D01*
X114561782Y-89440500D01*
X115653218Y-89440500D01*
X115656801Y-89439972D01*
X115656808Y-89439972D01*
X115714499Y-89431479D01*
X115714501Y-89431478D01*
X115722112Y-89430358D01*
X115826855Y-89378932D01*
X115834048Y-89371727D01*
X115877407Y-89328292D01*
X115909293Y-89296350D01*
X115911361Y-89292118D01*
X115959063Y-89256823D01*
X116020246Y-89256289D01*
X116070058Y-89291821D01*
X116089473Y-89351312D01*
X116089031Y-89423624D01*
X116128428Y-89561471D01*
X116204930Y-89682720D01*
X116210214Y-89687387D01*
X116210216Y-89687389D01*
X116307103Y-89772956D01*
X116307105Y-89772958D01*
X116312388Y-89777623D01*
X116318770Y-89780619D01*
X116318771Y-89780620D01*
X116340285Y-89790721D01*
X116442163Y-89838553D01*
X116449134Y-89839638D01*
X116449136Y-89839639D01*
X116479543Y-89844373D01*
X116551009Y-89855500D01*
X117825940Y-89855500D01*
X117829430Y-89855000D01*
X117829433Y-89855000D01*
X117884041Y-89847179D01*
X117931918Y-89840323D01*
X118020345Y-89800118D01*
X118056004Y-89783905D01*
X118056005Y-89783904D01*
X118062428Y-89780984D01*
X118171037Y-89687400D01*
X118249015Y-89567095D01*
X118290093Y-89429739D01*
X118290969Y-89286376D01*
X118288259Y-89276895D01*
X118253510Y-89155309D01*
X118253509Y-89155307D01*
X118251572Y-89148529D01*
X118175070Y-89027280D01*
X118169786Y-89022613D01*
X118169784Y-89022611D01*
X118072897Y-88937044D01*
X118072895Y-88937042D01*
X118067612Y-88932377D01*
X118060454Y-88929016D01*
X118024877Y-88912313D01*
X117937837Y-88871447D01*
X117930866Y-88870362D01*
X117930864Y-88870361D01*
X117884593Y-88863157D01*
X117828991Y-88854500D01*
X116554060Y-88854500D01*
X116550570Y-88855000D01*
X116550567Y-88855000D01*
X116504852Y-88861547D01*
X116448082Y-88869677D01*
X116438218Y-88874162D01*
X116345584Y-88916280D01*
X116317572Y-88929016D01*
X116208963Y-89022600D01*
X116173113Y-89077910D01*
X116152575Y-89109596D01*
X116105059Y-89148142D01*
X116043960Y-89151398D01*
X115992617Y-89118119D01*
X115970500Y-89055749D01*
X115970500Y-88756782D01*
X115969378Y-88749155D01*
X115961479Y-88695501D01*
X115961478Y-88695499D01*
X115960358Y-88687888D01*
X115947659Y-88662022D01*
X115921148Y-88608026D01*
X115912474Y-88547459D01*
X115941058Y-88493360D01*
X115978683Y-88470484D01*
X116020589Y-88456503D01*
X116030936Y-88451657D01*
X116096647Y-88410993D01*
X116156079Y-88396450D01*
X116214276Y-88420974D01*
X116222049Y-88427839D01*
X116307103Y-88502956D01*
X116307105Y-88502958D01*
X116312388Y-88507623D01*
X116318770Y-88510619D01*
X116318771Y-88510620D01*
X116355123Y-88527687D01*
X116442163Y-88568553D01*
X116449134Y-88569638D01*
X116449136Y-88569639D01*
X116481926Y-88574744D01*
X116551009Y-88585500D01*
X117825940Y-88585500D01*
X117829430Y-88585000D01*
X117829433Y-88585000D01*
X117901047Y-88574744D01*
X117931918Y-88570323D01*
X117998547Y-88540029D01*
X118056004Y-88513905D01*
X118056005Y-88513904D01*
X118062428Y-88510984D01*
X118134910Y-88448529D01*
X118165693Y-88422005D01*
X118165694Y-88422004D01*
X118171037Y-88417400D01*
X118249015Y-88297095D01*
X118290093Y-88159739D01*
X118290829Y-88039362D01*
X118290926Y-88023427D01*
X118290926Y-88023426D01*
X118290969Y-88016376D01*
X118280585Y-87980042D01*
X118253510Y-87885309D01*
X118253509Y-87885307D01*
X118251572Y-87878529D01*
X118175070Y-87757280D01*
X118169786Y-87752613D01*
X118169784Y-87752611D01*
X118072897Y-87667044D01*
X118072895Y-87667042D01*
X118067612Y-87662377D01*
X118060454Y-87659016D01*
X118019005Y-87639556D01*
X117937837Y-87601447D01*
X117930866Y-87600362D01*
X117930864Y-87600361D01*
X117884593Y-87593157D01*
X117828991Y-87584500D01*
X116554060Y-87584500D01*
X116554060Y-87584119D01*
X116496654Y-87569891D01*
X116457260Y-87523075D01*
X116449999Y-87485861D01*
X116449999Y-87414344D01*
X116468906Y-87356153D01*
X116518406Y-87320189D01*
X116551009Y-87316313D01*
X116551009Y-87315500D01*
X117825940Y-87315500D01*
X117829430Y-87315000D01*
X117829433Y-87315000D01*
X117884041Y-87307179D01*
X117931918Y-87300323D01*
X118062428Y-87240984D01*
X118171037Y-87147400D01*
X118249015Y-87027095D01*
X118290093Y-86889739D01*
X118290969Y-86746376D01*
X118271604Y-86678619D01*
X118253510Y-86615309D01*
X118253509Y-86615307D01*
X118251572Y-86608529D01*
X118244201Y-86596846D01*
X118229141Y-86537544D01*
X118251814Y-86480715D01*
X118303561Y-86448066D01*
X118327929Y-86445020D01*
X121251175Y-86445020D01*
X121309366Y-86463927D01*
X121345330Y-86513427D01*
X121345330Y-86574613D01*
X121337732Y-86590562D01*
X121337780Y-86590584D01*
X121334823Y-86596984D01*
X121330985Y-86602905D01*
X121289907Y-86740261D01*
X121289031Y-86883624D01*
X121290968Y-86890401D01*
X121290968Y-86890402D01*
X121320627Y-86994175D01*
X121328428Y-87021471D01*
X121404930Y-87142720D01*
X121410214Y-87147387D01*
X121410216Y-87147389D01*
X121507103Y-87232956D01*
X121507105Y-87232958D01*
X121512388Y-87237623D01*
X121518770Y-87240619D01*
X121518771Y-87240620D01*
X121537764Y-87249537D01*
X121642163Y-87298553D01*
X121649134Y-87299638D01*
X121649136Y-87299639D01*
X121694621Y-87306721D01*
X121751009Y-87315500D01*
X122424521Y-87315500D01*
X122482712Y-87334407D01*
X122494525Y-87344496D01*
X122565525Y-87415496D01*
X122593302Y-87470013D01*
X122583731Y-87530445D01*
X122540466Y-87573710D01*
X122495521Y-87584500D01*
X121754060Y-87584500D01*
X121750570Y-87585000D01*
X121750567Y-87585000D01*
X121704852Y-87591547D01*
X121648082Y-87599677D01*
X121639324Y-87603659D01*
X121542628Y-87647624D01*
X121517572Y-87659016D01*
X121408963Y-87752600D01*
X121330985Y-87872905D01*
X121289907Y-88010261D01*
X121289709Y-88042712D01*
X121289088Y-88144374D01*
X121289031Y-88153624D01*
X121290968Y-88160401D01*
X121290968Y-88160402D01*
X121324426Y-88277467D01*
X121328428Y-88291471D01*
X121332191Y-88297435D01*
X121383694Y-88379062D01*
X121404930Y-88412720D01*
X121410214Y-88417387D01*
X121410216Y-88417389D01*
X121507103Y-88502956D01*
X121507105Y-88502958D01*
X121512388Y-88507623D01*
X121518770Y-88510619D01*
X121518771Y-88510620D01*
X121555123Y-88527687D01*
X121642163Y-88568553D01*
X121649134Y-88569638D01*
X121649136Y-88569639D01*
X121681926Y-88574744D01*
X121751009Y-88585500D01*
X123025940Y-88585500D01*
X123029430Y-88585000D01*
X123029433Y-88585000D01*
X123101047Y-88574744D01*
X123131918Y-88570323D01*
X123198547Y-88540029D01*
X123256004Y-88513905D01*
X123256005Y-88513904D01*
X123262428Y-88510984D01*
X123334910Y-88448529D01*
X123365693Y-88422005D01*
X123365694Y-88422004D01*
X123371037Y-88417400D01*
X123409695Y-88357758D01*
X123457211Y-88319212D01*
X123518310Y-88315956D01*
X123565505Y-88346546D01*
X123565935Y-88346116D01*
X123649596Y-88429777D01*
X123647070Y-88432303D01*
X123674111Y-88468200D01*
X123679500Y-88500417D01*
X123679500Y-88809384D01*
X123660593Y-88867575D01*
X123650573Y-88879318D01*
X123570270Y-88959761D01*
X123566678Y-88967110D01*
X123566677Y-88967111D01*
X123559614Y-88981560D01*
X123543990Y-89013524D01*
X123501450Y-89057499D01*
X123441185Y-89068072D01*
X123386215Y-89041202D01*
X123379657Y-89034212D01*
X123378832Y-89033243D01*
X123375070Y-89027280D01*
X123369786Y-89022613D01*
X123369784Y-89022611D01*
X123272897Y-88937044D01*
X123272895Y-88937042D01*
X123267612Y-88932377D01*
X123260454Y-88929016D01*
X123224877Y-88912313D01*
X123137837Y-88871447D01*
X123130866Y-88870362D01*
X123130864Y-88870361D01*
X123084593Y-88863157D01*
X123028991Y-88854500D01*
X121754060Y-88854500D01*
X121750570Y-88855000D01*
X121750567Y-88855000D01*
X121704852Y-88861547D01*
X121648082Y-88869677D01*
X121638218Y-88874162D01*
X121545584Y-88916280D01*
X121517572Y-88929016D01*
X121408963Y-89022600D01*
X121330985Y-89142905D01*
X121289907Y-89280261D01*
X121289031Y-89423624D01*
X121328428Y-89561471D01*
X121404930Y-89682720D01*
X121410214Y-89687387D01*
X121410216Y-89687389D01*
X121507103Y-89772956D01*
X121507105Y-89772958D01*
X121512388Y-89777623D01*
X121518770Y-89780619D01*
X121518771Y-89780620D01*
X121540285Y-89790721D01*
X121642163Y-89838553D01*
X121649134Y-89839638D01*
X121649136Y-89839639D01*
X121679543Y-89844373D01*
X121751009Y-89855500D01*
X123025940Y-89855500D01*
X123029430Y-89855000D01*
X123029433Y-89855000D01*
X123084041Y-89847179D01*
X123131918Y-89840323D01*
X123220345Y-89800118D01*
X123256004Y-89783905D01*
X123256005Y-89783904D01*
X123262428Y-89780984D01*
X123371037Y-89687400D01*
X123374872Y-89681484D01*
X123374875Y-89681480D01*
X123381906Y-89670631D01*
X123429421Y-89632083D01*
X123490520Y-89628827D01*
X123541864Y-89662105D01*
X123553849Y-89680845D01*
X123570628Y-89715020D01*
X123576419Y-89720801D01*
X123646830Y-89791090D01*
X123646833Y-89791092D01*
X123652621Y-89796870D01*
X123756706Y-89847748D01*
X123805800Y-89854910D01*
X123820969Y-89857123D01*
X123820971Y-89857123D01*
X123824514Y-89857640D01*
X124185486Y-89857640D01*
X124189069Y-89857112D01*
X124189076Y-89857112D01*
X124246271Y-89848692D01*
X124246273Y-89848691D01*
X124253884Y-89847571D01*
X124288854Y-89830402D01*
X124305178Y-89822387D01*
X124357880Y-89796512D01*
X124419898Y-89734385D01*
X124474391Y-89706560D01*
X124534831Y-89716079D01*
X124559905Y-89734263D01*
X124622621Y-89796870D01*
X124726706Y-89847748D01*
X124775800Y-89854910D01*
X124790969Y-89857123D01*
X124790971Y-89857123D01*
X124794514Y-89857640D01*
X125155486Y-89857640D01*
X125159069Y-89857112D01*
X125159076Y-89857112D01*
X125216271Y-89848692D01*
X125216273Y-89848691D01*
X125223884Y-89847571D01*
X125258854Y-89830402D01*
X125275178Y-89822387D01*
X125327880Y-89796512D01*
X125354155Y-89770191D01*
X125403950Y-89720310D01*
X125403952Y-89720307D01*
X125409730Y-89714519D01*
X125428097Y-89676944D01*
X125470638Y-89632968D01*
X125485571Y-89627753D01*
X125485401Y-89627312D01*
X125493925Y-89624023D01*
X125502913Y-89622349D01*
X125525589Y-89608372D01*
X125538456Y-89601688D01*
X125556502Y-89593935D01*
X125556503Y-89593934D01*
X125562923Y-89591176D01*
X125567809Y-89587162D01*
X125572173Y-89582798D01*
X125590228Y-89568527D01*
X125598208Y-89563608D01*
X125615874Y-89540376D01*
X125624675Y-89530296D01*
X125934653Y-89220319D01*
X125937781Y-89217619D01*
X125942269Y-89215425D01*
X125975881Y-89179191D01*
X125978457Y-89176515D01*
X125992248Y-89162724D01*
X125994793Y-89159014D01*
X125998234Y-89155095D01*
X126017221Y-89134627D01*
X126019797Y-89131951D01*
X126108528Y-89043220D01*
X126113939Y-89032602D01*
X126147290Y-88967145D01*
X126190555Y-88923880D01*
X126250987Y-88914309D01*
X126305503Y-88942086D01*
X126333281Y-88996603D01*
X126334500Y-89012090D01*
X126334500Y-89929748D01*
X126346133Y-89988231D01*
X126390448Y-90054552D01*
X126456769Y-90098867D01*
X126466332Y-90100769D01*
X126466334Y-90100770D01*
X126489005Y-90105279D01*
X126515252Y-90110500D01*
X127204748Y-90110500D01*
X127230995Y-90105279D01*
X127253666Y-90100770D01*
X127253668Y-90100769D01*
X127263231Y-90098867D01*
X127329552Y-90054552D01*
X127373867Y-89988231D01*
X127385500Y-89929748D01*
X127385500Y-88670252D01*
X127378136Y-88633231D01*
X127375770Y-88621334D01*
X127375769Y-88621332D01*
X127373867Y-88611769D01*
X127329552Y-88545448D01*
X127263231Y-88501133D01*
X127253666Y-88499230D01*
X127253665Y-88499230D01*
X127225901Y-88493708D01*
X127210187Y-88490582D01*
X127156802Y-88460686D01*
X127131186Y-88405121D01*
X127130500Y-88393484D01*
X127130500Y-88264394D01*
X127149407Y-88206203D01*
X127187660Y-88174671D01*
X127210404Y-88164065D01*
X127294065Y-88080404D01*
X127305735Y-88055379D01*
X127340865Y-87980042D01*
X127340865Y-87980041D01*
X127344068Y-87973173D01*
X127350500Y-87924316D01*
X127350500Y-87575684D01*
X127346366Y-87544281D01*
X127345057Y-87534339D01*
X127344068Y-87526827D01*
X127334095Y-87505440D01*
X127297726Y-87427446D01*
X127297725Y-87427444D01*
X127294065Y-87419596D01*
X127210404Y-87335935D01*
X127197081Y-87329723D01*
X127152336Y-87287995D01*
X127140662Y-87227933D01*
X127166521Y-87172481D01*
X127197080Y-87150278D01*
X127210404Y-87144065D01*
X127294065Y-87060404D01*
X127306837Y-87033016D01*
X127340865Y-86960042D01*
X127340865Y-86960041D01*
X127344068Y-86953173D01*
X127350500Y-86904316D01*
X127350500Y-86559980D01*
X127369407Y-86501789D01*
X127418907Y-86465825D01*
X127449500Y-86460980D01*
X128085001Y-86460980D01*
X128143192Y-86479887D01*
X128155005Y-86489976D01*
X128270504Y-86605475D01*
X128298281Y-86659992D01*
X128299500Y-86675479D01*
X128299500Y-86904316D01*
X128305932Y-86953173D01*
X128309135Y-86960041D01*
X128309135Y-86960042D01*
X128343164Y-87033016D01*
X128355935Y-87060404D01*
X128439596Y-87144065D01*
X128452919Y-87150277D01*
X128497664Y-87192005D01*
X128509338Y-87252067D01*
X128483479Y-87307519D01*
X128452920Y-87329722D01*
X128439596Y-87335935D01*
X128355935Y-87419596D01*
X128352275Y-87427444D01*
X128352274Y-87427446D01*
X128315905Y-87505440D01*
X128305932Y-87526827D01*
X128304943Y-87534339D01*
X128303634Y-87544281D01*
X128299500Y-87575684D01*
X128299500Y-87924316D01*
X128305932Y-87973173D01*
X128309135Y-87980041D01*
X128309135Y-87980042D01*
X128344266Y-88055379D01*
X128355935Y-88080404D01*
X128439596Y-88164065D01*
X128462340Y-88174671D01*
X128507087Y-88216397D01*
X128519500Y-88264394D01*
X128519500Y-88390500D01*
X128500593Y-88448691D01*
X128451093Y-88484655D01*
X128424932Y-88488798D01*
X128424954Y-88489023D01*
X128421141Y-88489399D01*
X128420500Y-88489500D01*
X128415252Y-88489500D01*
X128391438Y-88494237D01*
X128366334Y-88499230D01*
X128366332Y-88499231D01*
X128356769Y-88501133D01*
X128290448Y-88545448D01*
X128246133Y-88611769D01*
X128244231Y-88621332D01*
X128244230Y-88621334D01*
X128241864Y-88633231D01*
X128234500Y-88670252D01*
X128234500Y-89929748D01*
X128246133Y-89988231D01*
X128290448Y-90054552D01*
X128356769Y-90098867D01*
X128366332Y-90100769D01*
X128366334Y-90100770D01*
X128389005Y-90105279D01*
X128415252Y-90110500D01*
X129104748Y-90110500D01*
X129130995Y-90105279D01*
X129153666Y-90100770D01*
X129153668Y-90100769D01*
X129163231Y-90098867D01*
X129229552Y-90054552D01*
X129273867Y-89988231D01*
X129285500Y-89929748D01*
X129285500Y-88670252D01*
X129278136Y-88633231D01*
X129275770Y-88621334D01*
X129275769Y-88621332D01*
X129273867Y-88611769D01*
X129229552Y-88545448D01*
X129164497Y-88501979D01*
X129126619Y-88453930D01*
X129120500Y-88419665D01*
X129120500Y-88264394D01*
X129139407Y-88206203D01*
X129177660Y-88174671D01*
X129200404Y-88164065D01*
X129284065Y-88080404D01*
X129295735Y-88055379D01*
X129330865Y-87980042D01*
X129330865Y-87980041D01*
X129334068Y-87973173D01*
X129340500Y-87924316D01*
X129340500Y-87575684D01*
X129336366Y-87544281D01*
X129335057Y-87534339D01*
X129334068Y-87526827D01*
X129324095Y-87505440D01*
X129287726Y-87427446D01*
X129287725Y-87427444D01*
X129284065Y-87419596D01*
X129200404Y-87335935D01*
X129187081Y-87329723D01*
X129142336Y-87287995D01*
X129130662Y-87227933D01*
X129156521Y-87172481D01*
X129187080Y-87150278D01*
X129200404Y-87144065D01*
X129284065Y-87060404D01*
X129296837Y-87033016D01*
X129330865Y-86960042D01*
X129330865Y-86960041D01*
X129334068Y-86953173D01*
X129340500Y-86904316D01*
X129340500Y-86555684D01*
X129334068Y-86506827D01*
X129330708Y-86499622D01*
X129287726Y-86407446D01*
X129287725Y-86407444D01*
X129284065Y-86399596D01*
X129200404Y-86315935D01*
X129192556Y-86312275D01*
X129192554Y-86312274D01*
X129117661Y-86277351D01*
X129072913Y-86235623D01*
X129060500Y-86187627D01*
X129060500Y-86060549D01*
X129079407Y-86002358D01*
X129128907Y-85966394D01*
X129140186Y-85963451D01*
X129153666Y-85960770D01*
X129153668Y-85960769D01*
X129163231Y-85958867D01*
X129229552Y-85914552D01*
X129273867Y-85848231D01*
X129275846Y-85838286D01*
X129284552Y-85794512D01*
X129285500Y-85789748D01*
X129285500Y-85070024D01*
X130665912Y-85070024D01*
X130666064Y-85081650D01*
X130676610Y-85085000D01*
X132762703Y-85085000D01*
X132774193Y-85081267D01*
X132774397Y-85070866D01*
X132752570Y-84993473D01*
X132749332Y-84985038D01*
X132663928Y-84811855D01*
X132659209Y-84804154D01*
X132543678Y-84649440D01*
X132537629Y-84642722D01*
X132452299Y-84563844D01*
X132422402Y-84510460D01*
X132420500Y-84491146D01*
X132420500Y-83595252D01*
X132408867Y-83536769D01*
X132364552Y-83470448D01*
X132298231Y-83426133D01*
X132288668Y-83424231D01*
X132288666Y-83424230D01*
X132265995Y-83419721D01*
X132239748Y-83414500D01*
X131200252Y-83414500D01*
X131174005Y-83419721D01*
X131151334Y-83424230D01*
X131151332Y-83424231D01*
X131141769Y-83426133D01*
X131075448Y-83470448D01*
X131031133Y-83536769D01*
X131019500Y-83595252D01*
X131019500Y-84491284D01*
X131000593Y-84549475D01*
X130985776Y-84565716D01*
X130922080Y-84621577D01*
X130915858Y-84628133D01*
X130796322Y-84779763D01*
X130791397Y-84787346D01*
X130701490Y-84958231D01*
X130698032Y-84966579D01*
X130665912Y-85070024D01*
X129285500Y-85070024D01*
X129285500Y-84530252D01*
X129277749Y-84491284D01*
X129275770Y-84481334D01*
X129275769Y-84481332D01*
X129273867Y-84471769D01*
X129229552Y-84405448D01*
X129163231Y-84361133D01*
X129153668Y-84359231D01*
X129153666Y-84359230D01*
X129130995Y-84354721D01*
X129104748Y-84349500D01*
X128415252Y-84349500D01*
X128389005Y-84354721D01*
X128366334Y-84359230D01*
X128366332Y-84359231D01*
X128356769Y-84361133D01*
X128290448Y-84405448D01*
X128246133Y-84471769D01*
X128244231Y-84481332D01*
X128244230Y-84481334D01*
X128242251Y-84491284D01*
X128234500Y-84530252D01*
X128234500Y-85760980D01*
X128215593Y-85819171D01*
X128166093Y-85855135D01*
X128135500Y-85859980D01*
X127484500Y-85859980D01*
X127426309Y-85841073D01*
X127390345Y-85791573D01*
X127385500Y-85760980D01*
X127385500Y-84530252D01*
X127377749Y-84491284D01*
X127375770Y-84481334D01*
X127375769Y-84481332D01*
X127373867Y-84471769D01*
X127329552Y-84405448D01*
X127263231Y-84361133D01*
X127253668Y-84359231D01*
X127253666Y-84359230D01*
X127230995Y-84354721D01*
X127204748Y-84349500D01*
X126515252Y-84349500D01*
X126489005Y-84354721D01*
X126466334Y-84359230D01*
X126466332Y-84359231D01*
X126456769Y-84361133D01*
X126390448Y-84405448D01*
X126346133Y-84471769D01*
X126344231Y-84481332D01*
X126344230Y-84481334D01*
X126342251Y-84491284D01*
X126334500Y-84530252D01*
X126334500Y-85210131D01*
X126315593Y-85268322D01*
X126266093Y-85304286D01*
X126204907Y-85304286D01*
X126155407Y-85268321D01*
X126152064Y-85263719D01*
X126148528Y-85256780D01*
X126053220Y-85161472D01*
X126046283Y-85157937D01*
X126046281Y-85157936D01*
X125940066Y-85103817D01*
X125940065Y-85103817D01*
X125933126Y-85100281D01*
X125925432Y-85099062D01*
X125925431Y-85099062D01*
X125824841Y-85083130D01*
X125770324Y-85055353D01*
X125763176Y-85048205D01*
X125760476Y-85045076D01*
X125758281Y-85040587D01*
X125747371Y-85030466D01*
X125722034Y-85006963D01*
X125719358Y-85004387D01*
X125705579Y-84990608D01*
X125701869Y-84988063D01*
X125697956Y-84984627D01*
X125682911Y-84970671D01*
X125676210Y-84964455D01*
X125665520Y-84960190D01*
X125646204Y-84949876D01*
X125644249Y-84948535D01*
X125644246Y-84948534D01*
X125636710Y-84943364D01*
X125610797Y-84937215D01*
X125596972Y-84932842D01*
X125578724Y-84925562D01*
X125578722Y-84925562D01*
X125572234Y-84922973D01*
X125565941Y-84922356D01*
X125559772Y-84922356D01*
X125536913Y-84919681D01*
X125536683Y-84919626D01*
X125536681Y-84919626D01*
X125527790Y-84917516D01*
X125518734Y-84918748D01*
X125509604Y-84918302D01*
X125509774Y-84914817D01*
X125465824Y-84906876D01*
X125422948Y-84861501D01*
X125414065Y-84842452D01*
X125407944Y-84836331D01*
X125403852Y-84830487D01*
X125385965Y-84771975D01*
X125405887Y-84714123D01*
X125432854Y-84689521D01*
X125547893Y-84618332D01*
X125556841Y-84611240D01*
X125670626Y-84497257D01*
X125677705Y-84488293D01*
X125762217Y-84351190D01*
X125767045Y-84340836D01*
X125817857Y-84187640D01*
X125820108Y-84177140D01*
X125822169Y-84157026D01*
X125819362Y-84143987D01*
X125817454Y-84142278D01*
X125813429Y-84141428D01*
X124769000Y-84141428D01*
X124710809Y-84122521D01*
X124674845Y-84073021D01*
X124670000Y-84042428D01*
X124670000Y-83565748D01*
X125230000Y-83565748D01*
X125234122Y-83578433D01*
X125238243Y-83581428D01*
X125808008Y-83581428D01*
X125820693Y-83577306D01*
X125822178Y-83575262D01*
X125822617Y-83571111D01*
X125819852Y-83544463D01*
X125817577Y-83533929D01*
X125766504Y-83380841D01*
X125761657Y-83370492D01*
X125679628Y-83237936D01*
X125665085Y-83178504D01*
X125679537Y-83133893D01*
X125762217Y-82999762D01*
X125767045Y-82989408D01*
X125817857Y-82836212D01*
X125820108Y-82825712D01*
X125822169Y-82805598D01*
X125819362Y-82792559D01*
X125817454Y-82790850D01*
X125813429Y-82790000D01*
X125245680Y-82790000D01*
X125232995Y-82794122D01*
X125230000Y-82798243D01*
X125230000Y-83565748D01*
X124670000Y-83565748D01*
X124670000Y-82329000D01*
X124688907Y-82270809D01*
X124738407Y-82234845D01*
X124769000Y-82230000D01*
X125808008Y-82230000D01*
X125820693Y-82225878D01*
X125822178Y-82223834D01*
X125822617Y-82219683D01*
X125819852Y-82193035D01*
X125817577Y-82182501D01*
X125766504Y-82029413D01*
X125761657Y-82019064D01*
X125701031Y-81921095D01*
X125686488Y-81861663D01*
X125709656Y-81805034D01*
X125761685Y-81772837D01*
X125785216Y-81770000D01*
X127191766Y-81770000D01*
X127249957Y-81788907D01*
G37*
%TD.AperFunction*%
%TA.AperFunction,Conductor*%
G36*
X104737269Y-81788907D02*
G01*
X104773233Y-81838407D01*
X104773233Y-81899593D01*
X104737269Y-81949093D01*
X104724407Y-81957013D01*
X104567220Y-82037969D01*
X104559329Y-82043036D01*
X104401676Y-82166874D01*
X104394878Y-82173347D01*
X104263488Y-82324761D01*
X104258037Y-82332403D01*
X104157648Y-82505932D01*
X104153746Y-82514454D01*
X104104875Y-82655189D01*
X104104654Y-82666213D01*
X104115922Y-82670000D01*
X106803523Y-82670000D01*
X106815625Y-82666068D01*
X106815990Y-82656667D01*
X106805907Y-82614829D01*
X106802852Y-82605957D01*
X106719874Y-82423459D01*
X106715198Y-82415326D01*
X106599209Y-82251811D01*
X106593080Y-82244711D01*
X106448262Y-82106077D01*
X106440899Y-82100263D01*
X106272477Y-81991513D01*
X106264161Y-81987202D01*
X106198708Y-81960824D01*
X106151803Y-81921536D01*
X106136949Y-81862181D01*
X106159820Y-81805430D01*
X106211680Y-81772962D01*
X106235714Y-81770000D01*
X108609078Y-81770000D01*
X108667269Y-81788907D01*
X108703233Y-81838407D01*
X108703233Y-81899593D01*
X108667269Y-81949093D01*
X108654407Y-81957013D01*
X108497220Y-82037969D01*
X108489329Y-82043036D01*
X108331676Y-82166874D01*
X108324878Y-82173347D01*
X108193488Y-82324761D01*
X108188037Y-82332403D01*
X108087648Y-82505932D01*
X108083746Y-82514454D01*
X108034875Y-82655189D01*
X108034654Y-82666213D01*
X108045922Y-82670000D01*
X111233523Y-82670000D01*
X111245625Y-82666068D01*
X111245990Y-82656667D01*
X111235907Y-82614829D01*
X111232852Y-82605957D01*
X111149874Y-82423459D01*
X111145198Y-82415326D01*
X111029209Y-82251811D01*
X111023080Y-82244711D01*
X110878262Y-82106077D01*
X110870899Y-82100263D01*
X110702477Y-81991513D01*
X110694161Y-81987202D01*
X110628708Y-81960824D01*
X110581803Y-81921536D01*
X110566949Y-81862181D01*
X110589820Y-81805430D01*
X110641680Y-81772962D01*
X110665714Y-81770000D01*
X124114711Y-81770000D01*
X124172902Y-81788907D01*
X124208866Y-81838407D01*
X124208866Y-81899593D01*
X124198986Y-81920948D01*
X124179569Y-81952448D01*
X124132940Y-81992063D01*
X124095294Y-81999500D01*
X123825084Y-81999501D01*
X123810100Y-81999501D01*
X123806890Y-81999924D01*
X123806883Y-81999924D01*
X123768025Y-82005039D01*
X123768024Y-82005039D01*
X123760513Y-82006028D01*
X123711208Y-82029020D01*
X123659534Y-82053115D01*
X123659532Y-82053116D01*
X123651684Y-82056776D01*
X123566776Y-82141684D01*
X123563116Y-82149532D01*
X123563115Y-82149534D01*
X123525593Y-82230000D01*
X123516028Y-82250513D01*
X123509500Y-82300099D01*
X123509500Y-82383099D01*
X123490593Y-82441290D01*
X123480504Y-82453103D01*
X123373668Y-82559939D01*
X123319151Y-82587716D01*
X123261591Y-82579550D01*
X123137837Y-82521447D01*
X123130866Y-82520362D01*
X123130864Y-82520361D01*
X123085379Y-82513279D01*
X123028991Y-82504500D01*
X121754060Y-82504500D01*
X121750570Y-82505000D01*
X121750567Y-82505000D01*
X121695959Y-82512821D01*
X121648082Y-82519677D01*
X121517572Y-82579016D01*
X121487997Y-82604500D01*
X121416544Y-82666068D01*
X121408963Y-82672600D01*
X121330985Y-82792905D01*
X121289907Y-82930261D01*
X121289031Y-83073624D01*
X121290968Y-83080401D01*
X121290968Y-83080402D01*
X121311565Y-83152467D01*
X121328428Y-83211471D01*
X121404930Y-83332720D01*
X121410214Y-83337387D01*
X121410216Y-83337389D01*
X121507103Y-83422956D01*
X121507105Y-83422958D01*
X121512388Y-83427623D01*
X121518770Y-83430619D01*
X121518771Y-83430620D01*
X121525764Y-83433903D01*
X121642163Y-83488553D01*
X121649134Y-83489638D01*
X121649136Y-83489639D01*
X121694621Y-83496721D01*
X121751009Y-83505500D01*
X123025940Y-83505500D01*
X123029430Y-83505000D01*
X123029433Y-83505000D01*
X123084041Y-83497179D01*
X123131918Y-83490323D01*
X123194909Y-83461683D01*
X123256009Y-83433903D01*
X123256012Y-83433901D01*
X123262428Y-83430984D01*
X123267770Y-83426381D01*
X123273713Y-83422580D01*
X123275181Y-83424875D01*
X123320576Y-83405840D01*
X123328772Y-83405500D01*
X123452232Y-83405500D01*
X123510423Y-83424407D01*
X123546387Y-83473907D01*
X123546387Y-83535093D01*
X123541960Y-83546330D01*
X123516028Y-83601941D01*
X123509500Y-83651527D01*
X123509500Y-83846490D01*
X123490593Y-83904681D01*
X123441093Y-83940645D01*
X123379907Y-83940645D01*
X123344970Y-83920697D01*
X123267612Y-83852377D01*
X123260454Y-83849016D01*
X123165238Y-83804312D01*
X123137837Y-83791447D01*
X123130866Y-83790362D01*
X123130864Y-83790361D01*
X123085379Y-83783279D01*
X123028991Y-83774500D01*
X121754060Y-83774500D01*
X121750570Y-83775000D01*
X121750567Y-83775000D01*
X121695959Y-83782821D01*
X121648082Y-83789677D01*
X121517572Y-83849016D01*
X121471054Y-83889099D01*
X121420822Y-83932382D01*
X121408963Y-83942600D01*
X121330985Y-84062905D01*
X121289907Y-84200261D01*
X121289031Y-84343624D01*
X121290968Y-84350401D01*
X121290968Y-84350402D01*
X121318809Y-84447815D01*
X121316620Y-84508961D01*
X121278909Y-84557143D01*
X121223620Y-84574020D01*
X118355958Y-84574020D01*
X118297767Y-84555113D01*
X118261803Y-84505613D01*
X118261109Y-84446654D01*
X118273433Y-84405448D01*
X118290093Y-84349739D01*
X118290638Y-84260569D01*
X118290926Y-84213427D01*
X118290926Y-84213426D01*
X118290969Y-84206376D01*
X118287289Y-84193500D01*
X118253510Y-84075309D01*
X118253509Y-84075307D01*
X118251572Y-84068529D01*
X118175070Y-83947280D01*
X118176443Y-83946414D01*
X118156342Y-83897641D01*
X118170731Y-83838172D01*
X118205550Y-83804312D01*
X118317429Y-83739719D01*
X118325776Y-83733654D01*
X118458658Y-83614006D01*
X118465565Y-83606335D01*
X118570662Y-83461683D01*
X118575830Y-83452732D01*
X118635225Y-83319326D01*
X118636416Y-83307994D01*
X118629692Y-83305000D01*
X115835680Y-83305000D01*
X115822995Y-83309122D01*
X115820000Y-83313243D01*
X115820000Y-83921000D01*
X115801093Y-83979191D01*
X115751593Y-84015155D01*
X115721000Y-84020000D01*
X114655105Y-84020000D01*
X114642420Y-84024122D01*
X114640935Y-84026166D01*
X114640619Y-84029149D01*
X114642422Y-84037498D01*
X114693496Y-84190587D01*
X114698343Y-84200936D01*
X114783093Y-84337890D01*
X114790188Y-84346841D01*
X114904170Y-84460624D01*
X114913138Y-84467706D01*
X114982449Y-84510431D01*
X115022063Y-84557060D01*
X115029500Y-84594706D01*
X115029501Y-84736011D01*
X115029501Y-84879900D01*
X115029924Y-84883110D01*
X115029924Y-84883117D01*
X115034097Y-84914817D01*
X115036028Y-84929487D01*
X115059020Y-84978792D01*
X115070955Y-85004387D01*
X115086776Y-85038316D01*
X115110504Y-85062044D01*
X115138281Y-85116561D01*
X115139500Y-85132048D01*
X115139500Y-85207952D01*
X115120593Y-85266143D01*
X115110504Y-85277956D01*
X115086776Y-85301684D01*
X115083116Y-85309532D01*
X115083115Y-85309534D01*
X115054802Y-85370252D01*
X115036028Y-85410513D01*
X115035039Y-85418026D01*
X115032217Y-85439461D01*
X115004068Y-85496544D01*
X114304516Y-86196095D01*
X114304513Y-86196099D01*
X114281950Y-86218662D01*
X114270998Y-86240158D01*
X114262884Y-86253397D01*
X114248704Y-86272914D01*
X114246296Y-86280325D01*
X114241248Y-86295861D01*
X114235305Y-86310207D01*
X114224354Y-86331700D01*
X114223136Y-86339393D01*
X114223135Y-86339395D01*
X114220581Y-86355523D01*
X114216956Y-86370624D01*
X114209500Y-86393571D01*
X114209500Y-87180638D01*
X114191855Y-87236605D01*
X114186776Y-87241684D01*
X114183114Y-87249537D01*
X114156077Y-87307519D01*
X114136028Y-87350513D01*
X114129500Y-87400099D01*
X114129501Y-87819900D01*
X114136028Y-87869487D01*
X114186776Y-87978316D01*
X114191855Y-87983395D01*
X114209500Y-88039362D01*
X114209500Y-88505933D01*
X114216955Y-88528875D01*
X114220581Y-88543981D01*
X114224354Y-88567804D01*
X114235305Y-88589297D01*
X114241248Y-88603643D01*
X114247572Y-88623106D01*
X114248704Y-88626591D01*
X114248152Y-88626770D01*
X114256817Y-88681475D01*
X114255845Y-88685657D01*
X114254464Y-88688482D01*
X114253355Y-88696082D01*
X114253355Y-88696083D01*
X114246694Y-88741746D01*
X114244500Y-88756782D01*
X114244500Y-89056962D01*
X114225593Y-89115153D01*
X114176093Y-89151117D01*
X114114907Y-89151117D01*
X114075496Y-89126965D01*
X113716974Y-88768442D01*
X113689034Y-88712859D01*
X113686564Y-88696083D01*
X113685358Y-88687888D01*
X113672659Y-88662022D01*
X113637538Y-88590490D01*
X113633932Y-88583145D01*
X113551350Y-88500707D01*
X113446518Y-88449464D01*
X113438916Y-88448355D01*
X113438913Y-88448354D01*
X113381763Y-88440017D01*
X113381761Y-88440017D01*
X113378218Y-88439500D01*
X113332000Y-88439500D01*
X113273809Y-88420593D01*
X113237845Y-88371093D01*
X113233000Y-88340500D01*
X113233000Y-86729500D01*
X113251907Y-86671309D01*
X113301407Y-86635345D01*
X113332000Y-86630500D01*
X113719748Y-86630500D01*
X113745995Y-86625279D01*
X113768666Y-86620770D01*
X113768668Y-86620769D01*
X113778231Y-86618867D01*
X113844552Y-86574552D01*
X113888867Y-86508231D01*
X113893035Y-86487280D01*
X113895372Y-86475527D01*
X113900500Y-86449748D01*
X113900500Y-85510252D01*
X113892714Y-85471110D01*
X113890770Y-85461334D01*
X113890769Y-85461332D01*
X113888867Y-85451769D01*
X113844552Y-85385448D01*
X113778231Y-85341133D01*
X113768668Y-85339231D01*
X113768666Y-85339230D01*
X113745995Y-85334721D01*
X113719748Y-85329500D01*
X112480252Y-85329500D01*
X112454005Y-85334721D01*
X112431334Y-85339230D01*
X112431332Y-85339231D01*
X112421769Y-85341133D01*
X112355448Y-85385448D01*
X112311133Y-85451769D01*
X112309231Y-85461332D01*
X112309230Y-85461334D01*
X112307286Y-85471110D01*
X112299500Y-85510252D01*
X112299500Y-86449748D01*
X112304628Y-86475527D01*
X112306966Y-86487280D01*
X112311133Y-86508231D01*
X112355448Y-86574552D01*
X112379409Y-86590562D01*
X112388002Y-86596304D01*
X112425881Y-86644354D01*
X112432000Y-86678619D01*
X112432000Y-86810440D01*
X112413093Y-86868631D01*
X112363593Y-86904595D01*
X112302407Y-86904595D01*
X112288055Y-86898650D01*
X112283836Y-86896500D01*
X112193126Y-86850281D01*
X112185432Y-86849062D01*
X112185431Y-86849062D01*
X112060000Y-86829196D01*
X112060440Y-86826415D01*
X112031337Y-86817392D01*
X112030239Y-86819871D01*
X112021879Y-86816166D01*
X112014343Y-86810997D01*
X111988430Y-86804848D01*
X111974605Y-86800475D01*
X111956357Y-86793195D01*
X111956355Y-86793195D01*
X111949867Y-86790606D01*
X111943574Y-86789989D01*
X111937405Y-86789989D01*
X111914546Y-86787314D01*
X111914316Y-86787259D01*
X111914314Y-86787259D01*
X111905423Y-86785149D01*
X111876502Y-86789085D01*
X111863152Y-86789989D01*
X111731185Y-86789989D01*
X111693394Y-86779046D01*
X111692376Y-86781599D01*
X111681686Y-86777334D01*
X111662370Y-86767020D01*
X111660415Y-86765679D01*
X111660412Y-86765678D01*
X111652876Y-86760508D01*
X111626963Y-86754359D01*
X111613138Y-86749986D01*
X111594890Y-86742706D01*
X111594888Y-86742706D01*
X111588400Y-86740117D01*
X111582107Y-86739500D01*
X111579500Y-86739500D01*
X111579466Y-86739489D01*
X111577275Y-86739382D01*
X111577304Y-86738787D01*
X111521309Y-86720593D01*
X111485345Y-86671093D01*
X111480500Y-86640500D01*
X111480500Y-86370252D01*
X111468867Y-86311769D01*
X111472164Y-86311113D01*
X111468797Y-86268336D01*
X111468867Y-86268231D01*
X111480500Y-86209748D01*
X111480500Y-85870252D01*
X111468867Y-85811769D01*
X111472164Y-85811113D01*
X111468797Y-85768336D01*
X111468867Y-85768231D01*
X111480500Y-85709748D01*
X111480500Y-85370252D01*
X111478225Y-85358813D01*
X111485417Y-85298051D01*
X111526951Y-85253122D01*
X111575323Y-85240500D01*
X111743433Y-85240500D01*
X111766380Y-85233044D01*
X111781481Y-85229419D01*
X111797609Y-85226865D01*
X111797611Y-85226864D01*
X111805304Y-85225646D01*
X111826797Y-85214695D01*
X111841143Y-85208752D01*
X111856679Y-85203704D01*
X111864090Y-85201296D01*
X111883607Y-85187116D01*
X111896846Y-85179002D01*
X111918342Y-85168050D01*
X111940905Y-85145487D01*
X111940909Y-85145484D01*
X113405483Y-83680909D01*
X113428050Y-83658342D01*
X113439004Y-83636844D01*
X113447111Y-83623614D01*
X113461296Y-83604090D01*
X113468751Y-83581144D01*
X113474696Y-83566794D01*
X113475229Y-83565748D01*
X113485646Y-83545304D01*
X113489420Y-83521475D01*
X113493046Y-83506373D01*
X113498092Y-83490843D01*
X113498093Y-83490840D01*
X113500499Y-83483433D01*
X113500499Y-83451525D01*
X113500500Y-83451519D01*
X113500500Y-83446977D01*
X114641459Y-83446977D01*
X114643712Y-83457443D01*
X114645617Y-83459149D01*
X114649646Y-83460000D01*
X115244320Y-83460000D01*
X115257005Y-83455878D01*
X115260000Y-83451757D01*
X115260000Y-82881992D01*
X115255878Y-82869307D01*
X115253834Y-82867822D01*
X115249683Y-82867383D01*
X115223035Y-82870148D01*
X115212501Y-82872423D01*
X115059413Y-82923496D01*
X115049064Y-82928343D01*
X114912110Y-83013093D01*
X114903159Y-83020188D01*
X114789374Y-83134171D01*
X114782295Y-83143135D01*
X114697783Y-83280238D01*
X114692955Y-83290592D01*
X114642143Y-83443788D01*
X114641459Y-83446977D01*
X113500500Y-83446977D01*
X113500500Y-83429500D01*
X113519407Y-83371309D01*
X113568907Y-83335345D01*
X113599500Y-83330500D01*
X113719748Y-83330500D01*
X113746539Y-83325171D01*
X113768666Y-83320770D01*
X113768668Y-83320769D01*
X113778231Y-83318867D01*
X113844552Y-83274552D01*
X113888867Y-83208231D01*
X113900500Y-83149748D01*
X113900500Y-82702006D01*
X115743584Y-82702006D01*
X115750308Y-82705000D01*
X116874320Y-82705000D01*
X116887005Y-82700878D01*
X116890000Y-82696757D01*
X116890000Y-82689320D01*
X117490000Y-82689320D01*
X117494122Y-82702005D01*
X117498243Y-82705000D01*
X118625923Y-82705000D01*
X118636758Y-82701479D01*
X118636758Y-82694118D01*
X118575823Y-82557255D01*
X118570671Y-82548331D01*
X118465560Y-82403659D01*
X118458661Y-82395996D01*
X118325776Y-82276346D01*
X118317429Y-82270281D01*
X118162572Y-82180875D01*
X118153140Y-82176676D01*
X117983090Y-82121423D01*
X117972990Y-82119276D01*
X117839728Y-82105270D01*
X117834583Y-82105000D01*
X117505680Y-82105000D01*
X117492995Y-82109122D01*
X117490000Y-82113243D01*
X117490000Y-82689320D01*
X116890000Y-82689320D01*
X116890000Y-82120680D01*
X116885878Y-82107995D01*
X116881757Y-82105000D01*
X116545417Y-82105000D01*
X116540272Y-82105270D01*
X116407010Y-82119276D01*
X116396910Y-82121423D01*
X116226860Y-82176676D01*
X116217428Y-82180875D01*
X116062571Y-82270281D01*
X116054224Y-82276346D01*
X115921342Y-82395994D01*
X115914435Y-82403665D01*
X115809338Y-82548317D01*
X115804170Y-82557268D01*
X115744775Y-82690674D01*
X115743584Y-82702006D01*
X113900500Y-82702006D01*
X113900500Y-82210252D01*
X113888867Y-82151769D01*
X113844552Y-82085448D01*
X113778231Y-82041133D01*
X113768668Y-82039231D01*
X113768666Y-82039230D01*
X113745995Y-82034721D01*
X113719748Y-82029500D01*
X112480252Y-82029500D01*
X112454005Y-82034721D01*
X112431334Y-82039230D01*
X112431332Y-82039231D01*
X112421769Y-82041133D01*
X112355448Y-82085448D01*
X112311133Y-82151769D01*
X112299500Y-82210252D01*
X112299500Y-83149748D01*
X112311133Y-83208231D01*
X112355448Y-83274552D01*
X112421769Y-83318867D01*
X112431333Y-83320769D01*
X112436933Y-83323089D01*
X112483459Y-83362826D01*
X112497742Y-83422321D01*
X112474327Y-83478849D01*
X112469053Y-83484555D01*
X112049002Y-83904606D01*
X111994486Y-83932382D01*
X111934054Y-83922811D01*
X111890789Y-83879546D01*
X111879999Y-83834601D01*
X111879999Y-83703920D01*
X111879576Y-83697463D01*
X111865403Y-83589807D01*
X111862071Y-83577370D01*
X111806584Y-83443409D01*
X111800148Y-83432262D01*
X111711873Y-83317221D01*
X111702777Y-83308125D01*
X111587737Y-83219852D01*
X111576591Y-83213417D01*
X111442625Y-83157927D01*
X111430200Y-83154597D01*
X111345545Y-83143453D01*
X111332431Y-83145883D01*
X111331195Y-83147186D01*
X111330000Y-83152467D01*
X111330000Y-83171000D01*
X111311093Y-83229191D01*
X111261593Y-83265155D01*
X111231000Y-83270000D01*
X110870680Y-83270000D01*
X110857995Y-83274122D01*
X110855000Y-83278243D01*
X110855000Y-84240500D01*
X110836093Y-84298691D01*
X110786593Y-84334655D01*
X110756000Y-84339500D01*
X109810252Y-84339500D01*
X109808580Y-84339833D01*
X109805175Y-84340000D01*
X109715043Y-84340000D01*
X109656852Y-84321093D01*
X109620888Y-84271593D01*
X109617996Y-84260569D01*
X109612269Y-84232166D01*
X109612269Y-84232165D01*
X109610936Y-84225556D01*
X109607851Y-84219500D01*
X109571800Y-84148747D01*
X109545571Y-84097270D01*
X109541008Y-84092307D01*
X109541006Y-84092305D01*
X109452684Y-83996256D01*
X109448116Y-83991288D01*
X109325750Y-83915418D01*
X109326425Y-83914329D01*
X109286210Y-83878119D01*
X109273489Y-83818270D01*
X109298377Y-83762375D01*
X109335064Y-83738550D01*
X109340000Y-83731757D01*
X109340000Y-83724320D01*
X109940000Y-83724320D01*
X109944122Y-83737005D01*
X109948243Y-83740000D01*
X110239320Y-83740000D01*
X110252005Y-83735878D01*
X110255000Y-83731757D01*
X110255000Y-83285680D01*
X110250878Y-83272995D01*
X110246757Y-83270000D01*
X109955680Y-83270000D01*
X109942995Y-83274122D01*
X109940000Y-83278243D01*
X109940000Y-83724320D01*
X109340000Y-83724320D01*
X109340000Y-83285680D01*
X109335878Y-83272995D01*
X109331757Y-83270000D01*
X108046477Y-83270000D01*
X108034375Y-83273932D01*
X108034010Y-83283333D01*
X108044093Y-83325171D01*
X108047148Y-83334043D01*
X108130126Y-83516541D01*
X108134802Y-83524674D01*
X108250791Y-83688189D01*
X108256920Y-83695289D01*
X108401738Y-83833923D01*
X108409101Y-83839737D01*
X108577523Y-83948487D01*
X108585839Y-83952798D01*
X108622796Y-83967692D01*
X108669701Y-84006981D01*
X108684555Y-84066336D01*
X108666488Y-84116864D01*
X108643830Y-84148747D01*
X108643827Y-84148753D01*
X108639921Y-84154249D01*
X108637637Y-84160594D01*
X108637635Y-84160597D01*
X108616429Y-84219500D01*
X108591150Y-84289715D01*
X108590656Y-84296447D01*
X108590655Y-84296450D01*
X108581669Y-84418832D01*
X108580606Y-84433307D01*
X108609064Y-84574444D01*
X108612125Y-84580451D01*
X108612125Y-84580452D01*
X108628018Y-84611643D01*
X108674429Y-84702730D01*
X108678992Y-84707693D01*
X108678994Y-84707695D01*
X108681250Y-84710148D01*
X108771884Y-84808712D01*
X108894250Y-84884582D01*
X108896009Y-84885093D01*
X108939874Y-84924586D01*
X108952597Y-84984433D01*
X108924143Y-85044093D01*
X108304516Y-85663720D01*
X108304513Y-85663724D01*
X108281950Y-85686287D01*
X108270998Y-85707783D01*
X108262884Y-85721022D01*
X108248704Y-85740539D01*
X108246296Y-85747950D01*
X108241248Y-85763486D01*
X108235305Y-85777832D01*
X108224354Y-85799325D01*
X108223136Y-85807018D01*
X108223135Y-85807020D01*
X108220581Y-85823148D01*
X108216956Y-85838249D01*
X108209500Y-85861196D01*
X108209500Y-88718804D01*
X108216955Y-88741746D01*
X108220581Y-88756852D01*
X108222417Y-88768442D01*
X108224354Y-88780675D01*
X108235305Y-88802168D01*
X108241248Y-88816514D01*
X108243821Y-88824432D01*
X108248704Y-88839461D01*
X108260060Y-88855090D01*
X108262883Y-88858976D01*
X108270998Y-88872217D01*
X108281950Y-88893713D01*
X108304513Y-88916276D01*
X108304516Y-88916280D01*
X108927150Y-89538914D01*
X108954927Y-89593431D01*
X108945356Y-89653863D01*
X108896464Y-89699776D01*
X108849013Y-89720310D01*
X108835217Y-89726280D01*
X108829978Y-89730522D01*
X108829977Y-89730523D01*
X108755183Y-89791090D01*
X108723325Y-89816888D01*
X108719417Y-89822387D01*
X108677497Y-89881375D01*
X108639921Y-89934249D01*
X108637637Y-89940594D01*
X108637635Y-89940597D01*
X108623930Y-89978666D01*
X108591150Y-90069715D01*
X108590656Y-90076447D01*
X108590655Y-90076450D01*
X108581409Y-90202377D01*
X108580606Y-90213307D01*
X108581940Y-90219922D01*
X108581940Y-90219924D01*
X108596594Y-90292600D01*
X108609064Y-90354444D01*
X108612123Y-90360448D01*
X108612125Y-90360453D01*
X108671643Y-90477263D01*
X108681214Y-90537695D01*
X108653436Y-90592212D01*
X108628762Y-90610221D01*
X108497220Y-90677969D01*
X108489329Y-90683036D01*
X108331676Y-90806874D01*
X108324878Y-90813347D01*
X108193488Y-90964761D01*
X108188037Y-90972403D01*
X108087648Y-91145932D01*
X108083746Y-91154454D01*
X108034875Y-91295189D01*
X108034654Y-91306213D01*
X108045922Y-91310000D01*
X109324320Y-91310000D01*
X109337005Y-91305878D01*
X109340000Y-91301757D01*
X109340000Y-91294320D01*
X109940000Y-91294320D01*
X109944122Y-91307005D01*
X109948243Y-91310000D01*
X110239320Y-91310000D01*
X110252005Y-91305878D01*
X110255000Y-91301757D01*
X110255000Y-90855680D01*
X110250878Y-90842995D01*
X110246757Y-90840000D01*
X109955680Y-90840000D01*
X109942995Y-90844122D01*
X109940000Y-90848243D01*
X109940000Y-91294320D01*
X109340000Y-91294320D01*
X109340000Y-90855680D01*
X109335878Y-90842993D01*
X109314031Y-90827120D01*
X109278067Y-90777620D01*
X109278068Y-90716434D01*
X109314032Y-90666935D01*
X109332904Y-90656170D01*
X109378595Y-90636398D01*
X109378596Y-90636397D01*
X109384783Y-90633720D01*
X109436042Y-90592212D01*
X109491433Y-90547357D01*
X109491434Y-90547356D01*
X109496675Y-90543112D01*
X109507040Y-90528527D01*
X109576172Y-90431249D01*
X109576173Y-90431248D01*
X109580079Y-90425751D01*
X109582363Y-90419406D01*
X109582365Y-90419403D01*
X109623385Y-90305465D01*
X109660886Y-90257119D01*
X109716532Y-90240000D01*
X109805175Y-90240000D01*
X109808580Y-90240167D01*
X109810252Y-90240500D01*
X110756000Y-90240500D01*
X110814191Y-90259407D01*
X110850155Y-90308907D01*
X110855000Y-90339500D01*
X110855000Y-91294320D01*
X110859122Y-91307005D01*
X110863243Y-91310000D01*
X111231000Y-91310000D01*
X111289191Y-91328907D01*
X111325155Y-91378407D01*
X111330000Y-91409000D01*
X111330000Y-91422913D01*
X111334122Y-91435598D01*
X111335574Y-91436654D01*
X111340967Y-91437149D01*
X111430194Y-91425403D01*
X111442630Y-91422071D01*
X111576591Y-91366584D01*
X111587738Y-91360148D01*
X111702779Y-91271873D01*
X111711875Y-91262777D01*
X111804099Y-91142588D01*
X111805211Y-91143441D01*
X111845296Y-91107342D01*
X111906145Y-91100940D01*
X111959136Y-91131528D01*
X111984028Y-91187422D01*
X111981279Y-91213668D01*
X111983127Y-91213961D01*
X111981908Y-91221656D01*
X111979500Y-91229067D01*
X111979500Y-91720638D01*
X111961855Y-91776605D01*
X111956776Y-91781684D01*
X111906028Y-91890513D01*
X111899500Y-91940099D01*
X111899501Y-92359900D01*
X111906028Y-92409487D01*
X111956776Y-92518316D01*
X111957093Y-92518633D01*
X111973630Y-92572732D01*
X111953707Y-92630583D01*
X111903585Y-92665676D01*
X111874645Y-92670000D01*
X110907608Y-92670000D01*
X110849417Y-92651093D01*
X110813453Y-92601593D01*
X110813453Y-92540407D01*
X110846453Y-92493147D01*
X110948324Y-92413126D01*
X110955122Y-92406653D01*
X111086512Y-92255239D01*
X111091963Y-92247597D01*
X111192352Y-92074068D01*
X111196254Y-92065546D01*
X111245125Y-91924811D01*
X111245346Y-91913787D01*
X111234078Y-91910000D01*
X108046477Y-91910000D01*
X108034375Y-91913932D01*
X108034010Y-91923333D01*
X108044093Y-91965171D01*
X108047148Y-91974043D01*
X108130126Y-92156541D01*
X108134802Y-92164674D01*
X108250791Y-92328189D01*
X108256920Y-92335289D01*
X108401738Y-92473923D01*
X108409101Y-92479737D01*
X108421636Y-92487831D01*
X108460265Y-92535280D01*
X108463627Y-92596372D01*
X108430438Y-92647774D01*
X108367934Y-92670000D01*
X106477608Y-92670000D01*
X106419417Y-92651093D01*
X106383453Y-92601593D01*
X106383453Y-92540407D01*
X106416453Y-92493147D01*
X106518324Y-92413126D01*
X106525122Y-92406653D01*
X106656512Y-92255239D01*
X106661963Y-92247597D01*
X106762352Y-92074068D01*
X106766254Y-92065546D01*
X106815125Y-91924811D01*
X106815346Y-91913787D01*
X106804078Y-91910000D01*
X104116477Y-91910000D01*
X104104375Y-91913932D01*
X104104010Y-91923333D01*
X104114093Y-91965171D01*
X104117148Y-91974043D01*
X104200126Y-92156541D01*
X104204802Y-92164674D01*
X104320791Y-92328189D01*
X104326920Y-92335289D01*
X104471738Y-92473923D01*
X104479101Y-92479737D01*
X104491636Y-92487831D01*
X104530265Y-92535280D01*
X104533627Y-92596372D01*
X104500438Y-92647774D01*
X104437934Y-92670000D01*
X102715000Y-92670000D01*
X102656809Y-92651093D01*
X102620845Y-92601593D01*
X102616000Y-92571000D01*
X102616000Y-91306213D01*
X104104654Y-91306213D01*
X104115922Y-91310000D01*
X105144320Y-91310000D01*
X105157005Y-91305878D01*
X105160000Y-91301757D01*
X105160000Y-91294320D01*
X105760000Y-91294320D01*
X105764122Y-91307005D01*
X105768243Y-91310000D01*
X106803523Y-91310000D01*
X106815625Y-91306068D01*
X106815990Y-91296667D01*
X106805907Y-91254829D01*
X106802852Y-91245957D01*
X106719874Y-91063459D01*
X106715198Y-91055326D01*
X106599209Y-90891811D01*
X106593080Y-90884711D01*
X106448262Y-90746077D01*
X106440899Y-90740263D01*
X106272477Y-90631513D01*
X106264161Y-90627202D01*
X106078201Y-90552258D01*
X106069221Y-90549598D01*
X105871323Y-90510952D01*
X105864272Y-90510096D01*
X105863528Y-90510060D01*
X105861084Y-90510000D01*
X105775680Y-90510000D01*
X105762995Y-90514122D01*
X105760000Y-90518243D01*
X105760000Y-91294320D01*
X105160000Y-91294320D01*
X105160000Y-90525680D01*
X105155878Y-90512995D01*
X105151757Y-90510000D01*
X105109913Y-90510000D01*
X105105199Y-90510225D01*
X104955742Y-90524484D01*
X104946530Y-90526258D01*
X104754154Y-90582694D01*
X104745451Y-90586175D01*
X104567216Y-90677972D01*
X104559329Y-90683036D01*
X104401676Y-90806874D01*
X104394878Y-90813347D01*
X104263488Y-90964761D01*
X104258037Y-90972403D01*
X104157648Y-91145932D01*
X104153746Y-91154454D01*
X104104875Y-91295189D01*
X104104654Y-91306213D01*
X102616000Y-91306213D01*
X102616000Y-83283333D01*
X104104010Y-83283333D01*
X104114093Y-83325171D01*
X104117148Y-83334043D01*
X104200126Y-83516541D01*
X104204802Y-83524674D01*
X104320791Y-83688189D01*
X104326920Y-83695289D01*
X104471738Y-83833923D01*
X104479101Y-83839737D01*
X104647523Y-83948487D01*
X104655839Y-83952798D01*
X104841799Y-84027742D01*
X104850779Y-84030402D01*
X105048677Y-84069048D01*
X105055728Y-84069904D01*
X105056472Y-84069940D01*
X105058916Y-84070000D01*
X105144320Y-84070000D01*
X105157005Y-84065878D01*
X105160000Y-84061757D01*
X105160000Y-84054320D01*
X105760000Y-84054320D01*
X105764122Y-84067005D01*
X105768243Y-84070000D01*
X105810087Y-84070000D01*
X105814801Y-84069775D01*
X105964258Y-84055516D01*
X105973470Y-84053742D01*
X106165846Y-83997306D01*
X106174549Y-83993825D01*
X106352784Y-83902028D01*
X106360671Y-83896964D01*
X106518324Y-83773126D01*
X106525122Y-83766653D01*
X106656512Y-83615239D01*
X106661963Y-83607597D01*
X106762352Y-83434068D01*
X106766254Y-83425546D01*
X106815125Y-83284811D01*
X106815346Y-83273787D01*
X106804078Y-83270000D01*
X105775680Y-83270000D01*
X105762995Y-83274122D01*
X105760000Y-83278243D01*
X105760000Y-84054320D01*
X105160000Y-84054320D01*
X105160000Y-83285680D01*
X105155878Y-83272995D01*
X105151757Y-83270000D01*
X104116477Y-83270000D01*
X104104375Y-83273932D01*
X104104010Y-83283333D01*
X102616000Y-83283333D01*
X102616000Y-81869000D01*
X102634907Y-81810809D01*
X102684407Y-81774845D01*
X102715000Y-81770000D01*
X104679078Y-81770000D01*
X104737269Y-81788907D01*
G37*
%TD.AperFunction*%
%TA.AperFunction,Conductor*%
G36*
X114809191Y-91888907D02*
G01*
X114845155Y-91938407D01*
X114850000Y-91969000D01*
X114850000Y-92331000D01*
X114831093Y-92389191D01*
X114781593Y-92425155D01*
X114751000Y-92430000D01*
X113159000Y-92430000D01*
X113100809Y-92411093D01*
X113064845Y-92361593D01*
X113060000Y-92331000D01*
X113060000Y-91969000D01*
X113078907Y-91910809D01*
X113128407Y-91874845D01*
X113159000Y-91870000D01*
X114751000Y-91870000D01*
X114809191Y-91888907D01*
G37*
%TD.AperFunction*%
%TA.AperFunction,Conductor*%
G36*
X115779191Y-86338907D02*
G01*
X115815155Y-86388407D01*
X115820000Y-86419000D01*
X115820000Y-86644320D01*
X115829826Y-86674560D01*
X115845155Y-86695661D01*
X115850000Y-86726251D01*
X115850000Y-87791000D01*
X115831093Y-87849191D01*
X115781593Y-87885155D01*
X115751000Y-87890000D01*
X115389000Y-87890000D01*
X115330809Y-87871093D01*
X115294845Y-87821593D01*
X115290000Y-87791000D01*
X115290000Y-87535680D01*
X115280174Y-87505440D01*
X115264845Y-87484339D01*
X115260000Y-87453749D01*
X115260000Y-86419000D01*
X115278907Y-86360809D01*
X115328407Y-86324845D01*
X115359000Y-86320000D01*
X115721000Y-86320000D01*
X115779191Y-86338907D01*
G37*
%TD.AperFunction*%
%TD*%
M02*
