%TF.GenerationSoftware,KiCad,Pcbnew,(6.0.2)*%
%TF.CreationDate,2022-03-06T10:13:05+08:00*%
%TF.ProjectId,USB-TTL-V1,5553422d-5454-44c2-9d56-312e6b696361,rev?*%
%TF.SameCoordinates,Original*%
%TF.FileFunction,Legend,Bot*%
%TF.FilePolarity,Positive*%
%FSLAX46Y46*%
G04 Gerber Fmt 4.6, Leading zero omitted, Abs format (unit mm)*
G04 Created by KiCad (PCBNEW (6.0.2)) date 2022-03-06 10:13:05*
%MOMM*%
%LPD*%
G01*
G04 APERTURE LIST*
%ADD10C,0.100000*%
G04 APERTURE END LIST*
D10*
X123759523Y-90950000D02*
X123835714Y-90911904D01*
X123950000Y-90911904D01*
X124064285Y-90950000D01*
X124140476Y-91026190D01*
X124178571Y-91102380D01*
X124216666Y-91254761D01*
X124216666Y-91369047D01*
X124178571Y-91521428D01*
X124140476Y-91597619D01*
X124064285Y-91673809D01*
X123950000Y-91711904D01*
X123873809Y-91711904D01*
X123759523Y-91673809D01*
X123721428Y-91635714D01*
X123721428Y-91369047D01*
X123873809Y-91369047D01*
X123378571Y-91711904D02*
X123378571Y-90911904D01*
X122921428Y-91711904D01*
X122921428Y-90911904D01*
X122540476Y-91711904D02*
X122540476Y-90911904D01*
X122350000Y-90911904D01*
X122235714Y-90950000D01*
X122159523Y-91026190D01*
X122121428Y-91102380D01*
X122083333Y-91254761D01*
X122083333Y-91369047D01*
X122121428Y-91521428D01*
X122159523Y-91597619D01*
X122235714Y-91673809D01*
X122350000Y-91711904D01*
X122540476Y-91711904D01*
X124259523Y-84811904D02*
X123802380Y-84811904D01*
X124030952Y-85611904D02*
X124030952Y-84811904D01*
X123611904Y-84811904D02*
X123078571Y-85611904D01*
X123078571Y-84811904D02*
X123611904Y-85611904D01*
X122773809Y-85611904D02*
X122773809Y-84811904D01*
X122583333Y-84811904D01*
X122469047Y-84850000D01*
X122392857Y-84926190D01*
X122354761Y-85002380D01*
X122316666Y-85154761D01*
X122316666Y-85269047D01*
X122354761Y-85421428D01*
X122392857Y-85497619D01*
X122469047Y-85573809D01*
X122583333Y-85611904D01*
X122773809Y-85611904D01*
X123824540Y-88865497D02*
X123900730Y-88827401D01*
X124015016Y-88827401D01*
X124129302Y-88865497D01*
X124205492Y-88941687D01*
X124243588Y-89017877D01*
X124281683Y-89170258D01*
X124281683Y-89284544D01*
X124243588Y-89436925D01*
X124205492Y-89513116D01*
X124129302Y-89589306D01*
X124015016Y-89627401D01*
X123938826Y-89627401D01*
X123824540Y-89589306D01*
X123786445Y-89551211D01*
X123786445Y-89284544D01*
X123938826Y-89284544D01*
X123443588Y-89627401D02*
X123443588Y-88827401D01*
X123138826Y-88827401D01*
X123062635Y-88865497D01*
X123024540Y-88903592D01*
X122986445Y-88979782D01*
X122986445Y-89094068D01*
X123024540Y-89170258D01*
X123062635Y-89208354D01*
X123138826Y-89246449D01*
X123443588Y-89246449D01*
X122643588Y-89627401D02*
X122643588Y-88827401D01*
X122110254Y-88827401D02*
X121957873Y-88827401D01*
X121881683Y-88865497D01*
X121805492Y-88941687D01*
X121767397Y-89094068D01*
X121767397Y-89360735D01*
X121805492Y-89513116D01*
X121881683Y-89589306D01*
X121957873Y-89627401D01*
X122110254Y-89627401D01*
X122186445Y-89589306D01*
X122262635Y-89513116D01*
X122300730Y-89360735D01*
X122300730Y-89094068D01*
X122262635Y-88941687D01*
X122186445Y-88865497D01*
X122110254Y-88827401D01*
X121272159Y-88827401D02*
X121195968Y-88827401D01*
X121119778Y-88865497D01*
X121081683Y-88903592D01*
X121043588Y-88979782D01*
X121005492Y-89132163D01*
X121005492Y-89322639D01*
X121043588Y-89475020D01*
X121081683Y-89551211D01*
X121119778Y-89589306D01*
X121195968Y-89627401D01*
X121272159Y-89627401D01*
X121348349Y-89589306D01*
X121386445Y-89551211D01*
X121424540Y-89475020D01*
X121462635Y-89322639D01*
X121462635Y-89132163D01*
X121424540Y-88979782D01*
X121386445Y-88903592D01*
X121348349Y-88865497D01*
X121272159Y-88827401D01*
X123783333Y-87661904D02*
X124050000Y-87280952D01*
X124240476Y-87661904D02*
X124240476Y-86861904D01*
X123935714Y-86861904D01*
X123859523Y-86900000D01*
X123821428Y-86938095D01*
X123783333Y-87014285D01*
X123783333Y-87128571D01*
X123821428Y-87204761D01*
X123859523Y-87242857D01*
X123935714Y-87280952D01*
X124240476Y-87280952D01*
X123516666Y-86861904D02*
X122983333Y-87661904D01*
X122983333Y-86861904D02*
X123516666Y-87661904D01*
X122678571Y-87661904D02*
X122678571Y-86861904D01*
X122488095Y-86861904D01*
X122373809Y-86900000D01*
X122297619Y-86976190D01*
X122259523Y-87052380D01*
X122221428Y-87204761D01*
X122221428Y-87319047D01*
X122259523Y-87471428D01*
X122297619Y-87547619D01*
X122373809Y-87623809D01*
X122488095Y-87661904D01*
X122678571Y-87661904D01*
X124290476Y-83192857D02*
X124023809Y-83192857D01*
X123909523Y-83611904D02*
X124290476Y-83611904D01*
X124290476Y-82811904D01*
X123909523Y-82811904D01*
X123566666Y-83611904D02*
X123566666Y-82811904D01*
X123109523Y-83611904D01*
X123109523Y-82811904D01*
M02*
