%TF.GenerationSoftware,KiCad,Pcbnew,(6.0.0)*%
%TF.CreationDate,2022-02-12T21:10:29+08:00*%
%TF.ProjectId,USB-TTL-V1,5553422d-5454-44c2-9d56-312e6b696361,rev?*%
%TF.SameCoordinates,Original*%
%TF.FileFunction,Soldermask,Top*%
%TF.FilePolarity,Negative*%
%FSLAX46Y46*%
G04 Gerber Fmt 4.6, Leading zero omitted, Abs format (unit mm)*
G04 Created by KiCad (PCBNEW (6.0.0)) date 2022-02-12 21:10:29*
%MOMM*%
%LPD*%
G01*
G04 APERTURE LIST*
G04 Aperture macros list*
%AMRoundRect*
0 Rectangle with rounded corners*
0 $1 Rounding radius*
0 $2 $3 $4 $5 $6 $7 $8 $9 X,Y pos of 4 corners*
0 Add a 4 corners polygon primitive as box body*
4,1,4,$2,$3,$4,$5,$6,$7,$8,$9,$2,$3,0*
0 Add four circle primitives for the rounded corners*
1,1,$1+$1,$2,$3*
1,1,$1+$1,$4,$5*
1,1,$1+$1,$6,$7*
1,1,$1+$1,$8,$9*
0 Add four rect primitives between the rounded corners*
20,1,$1+$1,$2,$3,$4,$5,0*
20,1,$1+$1,$4,$5,$6,$7,0*
20,1,$1+$1,$6,$7,$8,$9,0*
20,1,$1+$1,$8,$9,$2,$3,0*%
G04 Aperture macros list end*
%ADD10RoundRect,0.135000X-0.135000X-0.185000X0.135000X-0.185000X0.135000X0.185000X-0.135000X0.185000X0*%
%ADD11RoundRect,0.150000X-0.512500X-0.150000X0.512500X-0.150000X0.512500X0.150000X-0.512500X0.150000X0*%
%ADD12RoundRect,0.147500X0.147500X0.172500X-0.147500X0.172500X-0.147500X-0.172500X0.147500X-0.172500X0*%
%ADD13RoundRect,0.140000X-0.140000X-0.170000X0.140000X-0.170000X0.140000X0.170000X-0.140000X0.170000X0*%
%ADD14RoundRect,0.140000X0.140000X0.170000X-0.140000X0.170000X-0.140000X-0.170000X0.140000X-0.170000X0*%
%ADD15C,0.650000*%
%ADD16R,1.450000X0.600000*%
%ADD17R,1.450000X0.300000*%
%ADD18O,1.600000X1.000000*%
%ADD19O,2.100000X1.000000*%
%ADD20RoundRect,0.135000X0.185000X-0.135000X0.185000X0.135000X-0.185000X0.135000X-0.185000X-0.135000X0*%
%ADD21R,0.650000X1.220000*%
%ADD22RoundRect,0.135000X0.135000X0.185000X-0.135000X0.185000X-0.135000X-0.185000X0.135000X-0.185000X0*%
%ADD23RoundRect,0.140000X0.170000X-0.140000X0.170000X0.140000X-0.170000X0.140000X-0.170000X-0.140000X0*%
%ADD24R,1.000000X1.000000*%
%ADD25O,1.000000X1.000000*%
%ADD26RoundRect,0.140000X-0.170000X0.140000X-0.170000X-0.140000X0.170000X-0.140000X0.170000X0.140000X0*%
%ADD27RoundRect,0.135000X-0.185000X0.135000X-0.185000X-0.135000X0.185000X-0.135000X0.185000X0.135000X0*%
%ADD28R,1.200000X0.900000*%
%ADD29O,1.800000X0.600000*%
G04 APERTURE END LIST*
D10*
%TO.C,R2*%
X125000000Y-86594284D03*
X123980000Y-86594284D03*
%TD*%
D11*
%TO.C,U2*%
X112832500Y-88940000D03*
X112832500Y-89890000D03*
X112832500Y-90840000D03*
X115107500Y-90840000D03*
X115107500Y-88940000D03*
%TD*%
D12*
%TO.C,D3*%
X124005000Y-89337140D03*
X124975000Y-89337140D03*
%TD*%
%TO.C,D2*%
X124975000Y-90708568D03*
X124005000Y-90708568D03*
%TD*%
D13*
%TO.C,C7*%
X115570000Y-87610000D03*
X114610000Y-87610000D03*
%TD*%
D14*
%TO.C,C6*%
X114570000Y-92150000D03*
X115530000Y-92150000D03*
%TD*%
D13*
%TO.C,C5*%
X113340000Y-92150000D03*
X112380000Y-92150000D03*
%TD*%
D15*
%TO.C,J2*%
X109110000Y-90180000D03*
X109110000Y-84400000D03*
D16*
X110555000Y-84040000D03*
X110555000Y-84840000D03*
D17*
X110555000Y-86040000D03*
X110555000Y-87040000D03*
X110555000Y-87540000D03*
X110555000Y-88540000D03*
D16*
X110555000Y-89740000D03*
X110555000Y-90540000D03*
X110555000Y-90540000D03*
X110555000Y-89740000D03*
D17*
X110555000Y-89040000D03*
X110555000Y-88040000D03*
X110555000Y-86540000D03*
X110555000Y-85540000D03*
D16*
X110555000Y-84840000D03*
X110555000Y-84040000D03*
D18*
X105460000Y-91610000D03*
D19*
X109640000Y-91610000D03*
D18*
X105460000Y-82970000D03*
D19*
X109640000Y-82970000D03*
%TD*%
D20*
%TO.C,R4*%
X128820000Y-87750000D03*
X128820000Y-86730000D03*
%TD*%
D21*
%TO.C,Q2*%
X127810000Y-91920000D03*
X126860000Y-89300000D03*
X128760000Y-89300000D03*
%TD*%
D13*
%TO.C,C3*%
X124950000Y-83861428D03*
X123990000Y-83861428D03*
%TD*%
D21*
%TO.C,Q1*%
X127810000Y-82540000D03*
X128760000Y-85160000D03*
X126860000Y-85160000D03*
%TD*%
D13*
%TO.C,C1*%
X123990000Y-82510000D03*
X124950000Y-82510000D03*
%TD*%
D22*
%TO.C,R1*%
X123980000Y-85222856D03*
X125000000Y-85222856D03*
%TD*%
D23*
%TO.C,C2*%
X115540000Y-83740000D03*
X115540000Y-84700000D03*
%TD*%
D24*
%TO.C,J1*%
X131720000Y-84115000D03*
D25*
X131720000Y-85385000D03*
X131720000Y-86655000D03*
X131720000Y-87925000D03*
X131720000Y-89195000D03*
X131720000Y-90465000D03*
%TD*%
D26*
%TO.C,C4*%
X115540000Y-86600000D03*
X115540000Y-85640000D03*
%TD*%
D27*
%TO.C,R3*%
X126830000Y-86730000D03*
X126830000Y-87750000D03*
%TD*%
D22*
%TO.C,R5*%
X123980000Y-92080000D03*
X125000000Y-92080000D03*
%TD*%
D28*
%TO.C,D1*%
X113100000Y-85980000D03*
X113100000Y-82680000D03*
%TD*%
D29*
%TO.C,U1*%
X122390000Y-83005000D03*
X122390000Y-84275000D03*
X122390000Y-85545000D03*
X122390000Y-86815000D03*
X122390000Y-88085000D03*
X122390000Y-89355000D03*
X122390000Y-90625000D03*
X122390000Y-91895000D03*
X117190000Y-91895000D03*
X117190000Y-90625000D03*
X117190000Y-89355000D03*
X117190000Y-88085000D03*
X117190000Y-86815000D03*
X117190000Y-85545000D03*
X117190000Y-84275000D03*
X117190000Y-83005000D03*
%TD*%
D22*
%TO.C,R6*%
X123980000Y-87965712D03*
X125000000Y-87965712D03*
%TD*%
M02*
