M48
; DRILL file {KiCad (6.0.2)} date Sun Mar  6 10:13:08 2022
; FORMAT={-:-/ absolute / metric / decimal}
; #@! TF.CreationDate,2022-03-06T10:13:08+08:00
; #@! TF.GenerationSoftware,Kicad,Pcbnew,(6.0.2)
; #@! TF.FileFunction,Plated,1,4,PTH
FMAT,2
METRIC
; #@! TA.AperFunction,Plated,PTH,ViaDrill
T1C0.200
; #@! TA.AperFunction,Plated,PTH,ComponentDrill
T2C0.600
; #@! TA.AperFunction,Plated,PTH,ComponentDrill
T3C0.800
%
G90
G05
T1
X108.9Y-86.4
X108.9Y-87.15
X108.9Y-87.85
X109.53Y-87.49
X112.75Y-84.25
X112.75Y-85.55
X112.8Y-89.3
X112.85Y-86.8
X118.0Y-82.99
X118.01Y-85.53
X118.06Y-86.81
X119.22Y-83.07
X119.44Y-84.854
X119.44Y-90.942
X119.45Y-82.449
X119.45Y-83.646
X119.45Y-92.15
X120.435Y-86.072
X120.46Y-88.507
X120.471Y-87.334
X121.7Y-89.14
X122.48Y-86.8
T3
X125.2Y-83.225
X125.2Y-85.225
X125.2Y-87.225
X125.2Y-89.225
X125.2Y-91.225
T2
G00X105.76Y-82.97
M15
G01X105.16Y-82.97
M16
G05
G00X105.76Y-91.61
M15
G01X105.16Y-91.61
M16
G05
G00X110.19Y-82.97
M15
G01X109.09Y-82.97
M16
G05
G00X110.19Y-91.61
M15
G01X109.09Y-91.61
M16
G05
T0
M30
