%TF.GenerationSoftware,KiCad,Pcbnew,(6.0.2)*%
%TF.CreationDate,2022-03-06T10:13:05+08:00*%
%TF.ProjectId,USB-TTL-V1,5553422d-5454-44c2-9d56-312e6b696361,rev?*%
%TF.SameCoordinates,Original*%
%TF.FileFunction,Copper,L4,Bot*%
%TF.FilePolarity,Positive*%
%FSLAX46Y46*%
G04 Gerber Fmt 4.6, Leading zero omitted, Abs format (unit mm)*
G04 Created by KiCad (PCBNEW (6.0.2)) date 2022-03-06 10:13:05*
%MOMM*%
%LPD*%
G01*
G04 APERTURE LIST*
%TA.AperFunction,ComponentPad*%
%ADD10O,1.600000X1.000000*%
%TD*%
%TA.AperFunction,ComponentPad*%
%ADD11O,2.100000X1.000000*%
%TD*%
%TA.AperFunction,ComponentPad*%
%ADD12R,1.350000X1.350000*%
%TD*%
%TA.AperFunction,ComponentPad*%
%ADD13O,1.350000X1.350000*%
%TD*%
%TA.AperFunction,ViaPad*%
%ADD14C,0.450000*%
%TD*%
%TA.AperFunction,Conductor*%
%ADD15C,0.200000*%
%TD*%
G04 APERTURE END LIST*
D10*
%TO.P,J2,S1,SHIELD*%
%TO.N,GND*%
X105460000Y-91610000D03*
D11*
X109640000Y-91610000D03*
D10*
X105460000Y-82970000D03*
D11*
X109640000Y-82970000D03*
%TD*%
D12*
%TO.P,J1,1,GND*%
%TO.N,GND*%
X125200000Y-83225000D03*
D13*
%TO.P,J1,2,GPIO0*%
%TO.N,/GPIO0*%
X125200000Y-85225000D03*
%TO.P,J1,3,RXD*%
%TO.N,/RXD*%
X125200000Y-87225000D03*
%TO.P,J1,4,TXD*%
%TO.N,/TXD*%
X125200000Y-89225000D03*
%TO.P,J1,5,RST*%
%TO.N,/EN*%
X125200000Y-91225000D03*
%TD*%
D14*
%TO.N,/RXD*%
X120435000Y-86071718D03*
%TO.N,+5V*%
X120460000Y-88507030D03*
X118000000Y-82990000D03*
X108900000Y-87150000D03*
X119220000Y-83070000D03*
X108900000Y-86400000D03*
X108900000Y-87850000D03*
X120471198Y-87334500D03*
X119450000Y-83646406D03*
X119450000Y-82448750D03*
%TO.N,Net-(C3-Pad1)*%
X119450000Y-92150000D03*
X112850000Y-86800000D03*
%TO.N,Net-(J2-PadA7)*%
X109529832Y-87490168D03*
X112800000Y-89300000D03*
%TO.N,Net-(R1-Pad2)*%
X119440000Y-84854062D03*
X112750000Y-84250000D03*
%TO.N,Net-(R2-Pad1)*%
X112750000Y-85550000D03*
X119440000Y-90942342D03*
%TO.N,Net-(Q1-Pad2)*%
X121700000Y-89140000D03*
X118010000Y-85530000D03*
%TO.N,Net-(Q2-Pad2)*%
X122480000Y-86800000D03*
X118060000Y-86810000D03*
%TD*%
D15*
%TO.N,Net-(Q1-Pad2)*%
X118008449Y-85529092D02*
G75*
G02*
X118009546Y-85529546I3J-1544D01*
G01*
X119641076Y-89139999D02*
G75*
G02*
X117420001Y-88219999I3J3141082D01*
G01*
X116500000Y-86379837D02*
G75*
G02*
X116749177Y-85778269I850732J6D01*
G01*
X116949915Y-87749915D02*
G75*
G02*
X116500000Y-86663723I1086192J1086191D01*
G01*
X116749177Y-85778269D02*
G75*
G02*
X117350745Y-85529092I601562J-601555D01*
G01*
X117420000Y-88220000D02*
X116949915Y-87749915D01*
X118008449Y-85529092D02*
X117350745Y-85529092D01*
X118009546Y-85529546D02*
X118010000Y-85530000D01*
X116500000Y-86379837D02*
X116500000Y-86663723D01*
X119641076Y-89140000D02*
X121700000Y-89140000D01*
%TO.N,/RXD*%
X124623359Y-86648359D02*
X125200000Y-87225000D01*
X123231224Y-86071718D02*
X120435000Y-86071718D01*
X123231224Y-86071719D02*
G75*
G02*
X124623358Y-86648360I1J-1968774D01*
G01*
%TO.N,Net-(C3-Pad1)*%
X119450000Y-92150000D02*
X114541941Y-87241941D01*
X112850000Y-86800000D02*
X113475000Y-86800000D01*
X113475000Y-86800000D02*
G75*
G02*
X114541941Y-87241941I3J-1508876D01*
G01*
%TO.N,Net-(J2-PadA7)*%
X112800000Y-89300000D02*
X112069832Y-89300000D01*
X109529832Y-87490168D02*
X110823357Y-88783693D01*
X110823357Y-88783693D02*
G75*
G03*
X112069832Y-89300000I1246475J1246474D01*
G01*
%TO.N,Net-(R1-Pad2)*%
X118408801Y-84250000D02*
X112750000Y-84250000D01*
X119137969Y-84552031D02*
X119440000Y-84854062D01*
X118408801Y-84250001D02*
G75*
G02*
X119137968Y-84552032I2J-1031195D01*
G01*
%TO.N,Net-(R2-Pad1)*%
X119123668Y-90942342D02*
X119440000Y-90942342D01*
X112750000Y-85550000D02*
X113082497Y-85550000D01*
X113650104Y-85785110D02*
X118583655Y-90718661D01*
X113082497Y-85550000D02*
G75*
G02*
X113650104Y-85785110I-1J-802721D01*
G01*
X119123668Y-90942342D02*
G75*
G02*
X118583655Y-90718661I1J763695D01*
G01*
%TO.N,Net-(Q2-Pad2)*%
X118060000Y-86810000D02*
X118065000Y-86805000D01*
X122480000Y-86800000D02*
X118077071Y-86800000D01*
X118065000Y-86805000D02*
G75*
G02*
X118077071Y-86800000I12068J-12065D01*
G01*
%TD*%
%TA.AperFunction,Conductor*%
%TO.N,GND*%
G36*
X126405648Y-81714352D02*
G01*
X126420000Y-81749000D01*
X126420000Y-82130301D01*
X126405648Y-82164949D01*
X126371000Y-82179301D01*
X126336352Y-82164949D01*
X126332126Y-82160131D01*
X126304877Y-82124620D01*
X126300376Y-82120119D01*
X126180137Y-82027857D01*
X126174620Y-82024672D01*
X126034600Y-81966674D01*
X126028447Y-81965025D01*
X125915908Y-81950209D01*
X125912723Y-81950000D01*
X125509747Y-81950000D01*
X125502855Y-81952855D01*
X125500000Y-81959747D01*
X125500000Y-83476000D01*
X125485648Y-83510648D01*
X125451000Y-83525000D01*
X123934748Y-83525000D01*
X123927856Y-83527855D01*
X123925001Y-83534747D01*
X123925001Y-83937721D01*
X123925210Y-83940909D01*
X123940025Y-84053448D01*
X123941673Y-84059599D01*
X123999672Y-84199621D01*
X124002857Y-84205138D01*
X124095119Y-84325376D01*
X124099624Y-84329881D01*
X124219863Y-84422143D01*
X124225380Y-84425328D01*
X124365400Y-84483326D01*
X124371553Y-84484975D01*
X124484092Y-84499791D01*
X124487277Y-84500000D01*
X124564637Y-84500000D01*
X124599285Y-84514352D01*
X124613637Y-84549000D01*
X124601051Y-84581787D01*
X124489941Y-84705188D01*
X124487805Y-84707560D01*
X124395786Y-84866941D01*
X124338915Y-85041971D01*
X124319678Y-85225000D01*
X124338915Y-85408029D01*
X124395786Y-85583059D01*
X124397070Y-85585284D01*
X124397071Y-85585285D01*
X124400495Y-85591215D01*
X124487805Y-85742440D01*
X124489526Y-85744352D01*
X124489528Y-85744354D01*
X124524523Y-85783220D01*
X124610950Y-85879207D01*
X124613030Y-85880718D01*
X124613032Y-85880720D01*
X124753228Y-85982578D01*
X124759839Y-85987381D01*
X124762186Y-85988426D01*
X124767085Y-85990607D01*
X124927966Y-86062236D01*
X124972575Y-86071718D01*
X125105472Y-86099967D01*
X125105475Y-86099967D01*
X125107981Y-86100500D01*
X125292019Y-86100500D01*
X125294525Y-86099967D01*
X125294528Y-86099967D01*
X125427425Y-86071718D01*
X125472034Y-86062236D01*
X125632915Y-85990607D01*
X125637814Y-85988426D01*
X125640161Y-85987381D01*
X125646772Y-85982578D01*
X125786968Y-85880720D01*
X125786970Y-85880718D01*
X125789050Y-85879207D01*
X125875477Y-85783220D01*
X125910472Y-85744354D01*
X125910474Y-85744352D01*
X125912195Y-85742440D01*
X125999505Y-85591215D01*
X126002929Y-85585285D01*
X126002930Y-85585284D01*
X126004214Y-85583059D01*
X126061085Y-85408029D01*
X126080322Y-85225000D01*
X126061085Y-85041971D01*
X126004214Y-84866941D01*
X125912195Y-84707560D01*
X125910060Y-84705188D01*
X125798948Y-84581786D01*
X125786429Y-84546434D01*
X125802575Y-84512585D01*
X125835362Y-84499999D01*
X125912721Y-84499999D01*
X125915909Y-84499790D01*
X126028448Y-84484975D01*
X126034599Y-84483327D01*
X126174621Y-84425328D01*
X126180138Y-84422143D01*
X126300376Y-84329881D01*
X126304876Y-84325381D01*
X126332125Y-84289869D01*
X126364604Y-84271117D01*
X126400829Y-84280823D01*
X126419581Y-84313302D01*
X126420000Y-84319698D01*
X126420000Y-92721000D01*
X126405648Y-92755648D01*
X126371000Y-92770000D01*
X110484622Y-92770000D01*
X110449974Y-92755648D01*
X110435622Y-92721000D01*
X110449974Y-92686352D01*
X110470828Y-92673982D01*
X110598120Y-92636639D01*
X110602439Y-92634912D01*
X110784895Y-92540941D01*
X110788805Y-92538430D01*
X110950193Y-92411658D01*
X110953561Y-92408451D01*
X111088079Y-92253433D01*
X111090765Y-92249667D01*
X111193543Y-92072009D01*
X111195474Y-92067792D01*
X111247071Y-91919206D01*
X111246635Y-91911761D01*
X111244655Y-91910000D01*
X108040544Y-91910000D01*
X108033652Y-91912855D01*
X108032282Y-91916162D01*
X108044651Y-91967485D01*
X108046164Y-91971878D01*
X108131111Y-92158708D01*
X108133426Y-92162734D01*
X108252165Y-92330126D01*
X108255205Y-92333648D01*
X108403457Y-92475568D01*
X108407103Y-92478447D01*
X108579518Y-92589775D01*
X108583638Y-92591911D01*
X108773997Y-92668628D01*
X108778451Y-92669947D01*
X108793614Y-92672908D01*
X108824870Y-92693635D01*
X108832315Y-92730391D01*
X108811588Y-92761647D01*
X108784223Y-92770000D01*
X106054622Y-92770000D01*
X106019974Y-92755648D01*
X106005622Y-92721000D01*
X106019974Y-92686352D01*
X106040828Y-92673982D01*
X106168120Y-92636639D01*
X106172439Y-92634912D01*
X106354895Y-92540941D01*
X106358805Y-92538430D01*
X106520193Y-92411658D01*
X106523561Y-92408451D01*
X106658079Y-92253433D01*
X106660765Y-92249667D01*
X106763543Y-92072009D01*
X106765474Y-92067792D01*
X106817071Y-91919206D01*
X106816635Y-91911761D01*
X106814655Y-91910000D01*
X104110544Y-91910000D01*
X104103652Y-91912855D01*
X104102282Y-91916162D01*
X104114651Y-91967485D01*
X104116164Y-91971878D01*
X104201111Y-92158708D01*
X104203426Y-92162734D01*
X104322165Y-92330126D01*
X104325205Y-92333648D01*
X104473457Y-92475568D01*
X104477103Y-92478447D01*
X104649518Y-92589775D01*
X104653638Y-92591911D01*
X104843997Y-92668628D01*
X104848451Y-92669947D01*
X104863614Y-92672908D01*
X104894870Y-92693635D01*
X104902315Y-92730391D01*
X104881588Y-92761647D01*
X104854223Y-92770000D01*
X103285000Y-92770000D01*
X103250352Y-92755648D01*
X103236000Y-92721000D01*
X103236000Y-91300794D01*
X104102929Y-91300794D01*
X104103365Y-91308239D01*
X104105345Y-91310000D01*
X105150253Y-91310000D01*
X105157145Y-91307145D01*
X105160000Y-91300253D01*
X105760000Y-91300253D01*
X105762855Y-91307145D01*
X105769747Y-91310000D01*
X106809456Y-91310000D01*
X106816348Y-91307145D01*
X106817718Y-91303838D01*
X106816984Y-91300794D01*
X108032929Y-91300794D01*
X108033365Y-91308239D01*
X108035345Y-91310000D01*
X109330253Y-91310000D01*
X109337145Y-91307145D01*
X109340000Y-91300253D01*
X109940000Y-91300253D01*
X109942855Y-91307145D01*
X109949747Y-91310000D01*
X111239456Y-91310000D01*
X111246348Y-91307145D01*
X111247718Y-91303838D01*
X111235349Y-91252515D01*
X111233836Y-91248122D01*
X111148889Y-91061292D01*
X111146574Y-91057266D01*
X111027835Y-90889874D01*
X111024795Y-90886352D01*
X110876543Y-90744432D01*
X110872897Y-90741553D01*
X110700482Y-90630225D01*
X110696362Y-90628089D01*
X110506003Y-90551372D01*
X110501549Y-90550053D01*
X110299555Y-90510607D01*
X110296066Y-90510184D01*
X110292917Y-90510030D01*
X110291711Y-90510000D01*
X109949747Y-90510000D01*
X109942855Y-90512855D01*
X109940000Y-90519747D01*
X109940000Y-91300253D01*
X109340000Y-91300253D01*
X109340000Y-90685286D01*
X109354352Y-90650638D01*
X109369539Y-90640317D01*
X109376727Y-90637206D01*
X109381717Y-90635047D01*
X109381718Y-90635046D01*
X109384783Y-90633720D01*
X109397282Y-90623599D01*
X109440363Y-90588712D01*
X109496675Y-90543112D01*
X109580079Y-90425751D01*
X109593756Y-90387764D01*
X109627717Y-90293433D01*
X109627718Y-90293431D01*
X109628850Y-90290285D01*
X109639394Y-90146693D01*
X109629973Y-90099967D01*
X109611597Y-90008835D01*
X109610936Y-90005556D01*
X109601676Y-89987381D01*
X109547087Y-89880246D01*
X109545571Y-89877270D01*
X109448116Y-89771288D01*
X109378916Y-89728382D01*
X109328584Y-89697175D01*
X109328583Y-89697175D01*
X109325750Y-89695418D01*
X109322547Y-89694487D01*
X109322546Y-89694487D01*
X109235160Y-89669099D01*
X109187488Y-89655249D01*
X109184926Y-89655061D01*
X109184921Y-89655060D01*
X109180837Y-89654761D01*
X109177288Y-89654500D01*
X109073930Y-89654500D01*
X109072283Y-89654726D01*
X109072277Y-89654726D01*
X109020220Y-89661857D01*
X108967354Y-89669099D01*
X108964288Y-89670426D01*
X108964287Y-89670426D01*
X108838283Y-89724953D01*
X108838282Y-89724954D01*
X108835217Y-89726280D01*
X108723325Y-89816888D01*
X108639921Y-89934249D01*
X108638790Y-89937389D01*
X108638789Y-89937392D01*
X108592283Y-90066567D01*
X108591150Y-90069715D01*
X108580606Y-90213307D01*
X108609064Y-90354444D01*
X108674429Y-90482730D01*
X108676688Y-90485187D01*
X108676689Y-90485188D01*
X108696007Y-90506196D01*
X108708895Y-90541415D01*
X108693105Y-90575432D01*
X108679595Y-90583938D01*
X108679637Y-90584019D01*
X108678695Y-90584504D01*
X108678125Y-90584863D01*
X108677559Y-90585089D01*
X108495105Y-90679059D01*
X108491195Y-90681570D01*
X108329807Y-90808342D01*
X108326439Y-90811549D01*
X108191921Y-90966567D01*
X108189235Y-90970333D01*
X108086457Y-91147991D01*
X108084526Y-91152208D01*
X108032929Y-91300794D01*
X106816984Y-91300794D01*
X106805349Y-91252515D01*
X106803836Y-91248122D01*
X106718889Y-91061292D01*
X106716574Y-91057266D01*
X106597835Y-90889874D01*
X106594795Y-90886352D01*
X106446543Y-90744432D01*
X106442897Y-90741553D01*
X106270482Y-90630225D01*
X106266362Y-90628089D01*
X106076003Y-90551372D01*
X106071549Y-90550053D01*
X105869555Y-90510607D01*
X105866066Y-90510184D01*
X105862917Y-90510030D01*
X105861711Y-90510000D01*
X105769747Y-90510000D01*
X105762855Y-90512855D01*
X105760000Y-90519747D01*
X105760000Y-91300253D01*
X105160000Y-91300253D01*
X105160000Y-90519747D01*
X105157145Y-90512855D01*
X105150253Y-90510000D01*
X105108714Y-90510000D01*
X105106392Y-90510111D01*
X104953374Y-90524710D01*
X104948808Y-90525589D01*
X104751880Y-90583361D01*
X104747561Y-90585088D01*
X104565105Y-90679059D01*
X104561195Y-90681570D01*
X104399807Y-90808342D01*
X104396439Y-90811549D01*
X104261921Y-90966567D01*
X104259235Y-90970333D01*
X104156457Y-91147991D01*
X104154526Y-91152208D01*
X104102929Y-91300794D01*
X103236000Y-91300794D01*
X103236000Y-87850000D01*
X108469196Y-87850000D01*
X108490281Y-87983126D01*
X108494487Y-87991381D01*
X108530590Y-88062236D01*
X108551472Y-88103220D01*
X108646780Y-88198528D01*
X108650213Y-88200277D01*
X108650214Y-88200278D01*
X108706827Y-88229123D01*
X108766874Y-88259719D01*
X108770679Y-88260322D01*
X108770680Y-88260322D01*
X108896193Y-88280201D01*
X108900000Y-88280804D01*
X108903807Y-88280201D01*
X109029320Y-88260322D01*
X109029321Y-88260322D01*
X109033126Y-88259719D01*
X109093173Y-88229124D01*
X109149786Y-88200278D01*
X109149787Y-88200277D01*
X109153220Y-88198528D01*
X109248528Y-88103220D01*
X109269411Y-88062236D01*
X109305513Y-87991381D01*
X109309719Y-87983126D01*
X109312094Y-87968136D01*
X109317864Y-87931702D01*
X109337460Y-87899726D01*
X109373927Y-87890971D01*
X109388508Y-87895710D01*
X109393270Y-87898137D01*
X109393274Y-87898138D01*
X109396706Y-87899887D01*
X109400511Y-87900490D01*
X109400512Y-87900490D01*
X109463807Y-87910515D01*
X109521038Y-87919579D01*
X109548021Y-87933328D01*
X110589245Y-88974552D01*
X110594736Y-88981095D01*
X110607593Y-88999457D01*
X110611102Y-89001914D01*
X110611105Y-89001917D01*
X110614812Y-89004513D01*
X110619354Y-89008111D01*
X110781370Y-89152898D01*
X110970370Y-89287001D01*
X110971570Y-89287664D01*
X110971576Y-89287668D01*
X111172000Y-89398439D01*
X111172008Y-89398443D01*
X111173197Y-89399100D01*
X111174462Y-89399624D01*
X111386033Y-89487260D01*
X111386039Y-89487262D01*
X111387299Y-89487784D01*
X111533959Y-89530036D01*
X111608665Y-89551559D01*
X111608670Y-89551560D01*
X111609985Y-89551939D01*
X111611332Y-89552168D01*
X111611337Y-89552169D01*
X111837104Y-89590528D01*
X111837110Y-89590529D01*
X111838454Y-89590757D01*
X111839821Y-89590834D01*
X111839823Y-89590834D01*
X111939765Y-89596447D01*
X112055408Y-89602941D01*
X112061161Y-89603607D01*
X112069832Y-89605136D01*
X112074051Y-89604392D01*
X112074052Y-89604392D01*
X112091905Y-89601244D01*
X112100414Y-89600500D01*
X112478456Y-89600500D01*
X112513104Y-89614852D01*
X112546780Y-89648528D01*
X112550213Y-89650277D01*
X112550214Y-89650278D01*
X112586264Y-89668646D01*
X112666874Y-89709719D01*
X112670679Y-89710322D01*
X112670680Y-89710322D01*
X112796193Y-89730201D01*
X112800000Y-89730804D01*
X112803807Y-89730201D01*
X112929320Y-89710322D01*
X112929321Y-89710322D01*
X112933126Y-89709719D01*
X113013736Y-89668646D01*
X113049786Y-89650278D01*
X113049787Y-89650277D01*
X113053220Y-89648528D01*
X113148528Y-89553220D01*
X113209719Y-89433126D01*
X113210513Y-89428117D01*
X113230201Y-89303807D01*
X113230804Y-89300000D01*
X113218521Y-89222450D01*
X113210322Y-89170680D01*
X113210322Y-89170679D01*
X113209719Y-89166874D01*
X113148528Y-89046780D01*
X113053220Y-88951472D01*
X113049787Y-88949723D01*
X113049786Y-88949722D01*
X112993173Y-88920877D01*
X112933126Y-88890281D01*
X112929321Y-88889678D01*
X112929320Y-88889678D01*
X112803807Y-88869799D01*
X112800000Y-88869196D01*
X112796193Y-88869799D01*
X112670680Y-88889678D01*
X112670679Y-88889678D01*
X112666874Y-88890281D01*
X112606827Y-88920877D01*
X112550214Y-88949722D01*
X112550213Y-88949723D01*
X112546780Y-88951472D01*
X112513104Y-88985148D01*
X112478456Y-88999500D01*
X112100414Y-88999500D01*
X112091905Y-88998756D01*
X112074053Y-88995608D01*
X112074051Y-88995608D01*
X112069832Y-88994864D01*
X112056482Y-88997218D01*
X112044773Y-88997858D01*
X111882164Y-88987200D01*
X111875818Y-88986364D01*
X111714110Y-88954198D01*
X111694524Y-88950302D01*
X111688333Y-88948644D01*
X111513279Y-88889221D01*
X111507358Y-88886768D01*
X111341571Y-88805011D01*
X111336020Y-88801806D01*
X111182321Y-88699108D01*
X111177236Y-88695206D01*
X111054726Y-88587767D01*
X111046898Y-88579035D01*
X111039121Y-88567929D01*
X111020762Y-88555074D01*
X111014219Y-88549583D01*
X110525829Y-88061193D01*
X109972992Y-87508357D01*
X109959243Y-87481374D01*
X109957920Y-87473017D01*
X109947297Y-87405946D01*
X109940154Y-87360848D01*
X109940154Y-87360847D01*
X109939551Y-87357042D01*
X109878360Y-87236948D01*
X109783052Y-87141640D01*
X109779619Y-87139891D01*
X109779618Y-87139890D01*
X109723005Y-87111045D01*
X109662958Y-87080449D01*
X109659153Y-87079846D01*
X109659152Y-87079846D01*
X109533639Y-87059967D01*
X109529832Y-87059364D01*
X109526025Y-87059967D01*
X109400512Y-87079846D01*
X109400511Y-87079846D01*
X109396706Y-87080449D01*
X109393270Y-87082200D01*
X109393269Y-87082200D01*
X109385624Y-87086095D01*
X109348237Y-87089038D01*
X109319720Y-87064681D01*
X109314982Y-87050102D01*
X109310322Y-87020679D01*
X109310321Y-87020677D01*
X109309719Y-87016874D01*
X109273892Y-86946560D01*
X109250278Y-86900214D01*
X109250277Y-86900213D01*
X109248528Y-86896780D01*
X109161396Y-86809648D01*
X109147044Y-86775000D01*
X109161396Y-86740352D01*
X109248528Y-86653220D01*
X109309719Y-86533126D01*
X109313220Y-86511025D01*
X109330201Y-86403807D01*
X109330804Y-86400000D01*
X109322806Y-86349500D01*
X109310322Y-86270680D01*
X109310322Y-86270679D01*
X109309719Y-86266874D01*
X109248528Y-86146780D01*
X109153220Y-86051472D01*
X109149787Y-86049723D01*
X109149786Y-86049722D01*
X109053916Y-86000874D01*
X109033126Y-85990281D01*
X109029321Y-85989678D01*
X109029320Y-85989678D01*
X108903807Y-85969799D01*
X108900000Y-85969196D01*
X108896193Y-85969799D01*
X108770680Y-85989678D01*
X108770679Y-85989678D01*
X108766874Y-85990281D01*
X108746084Y-86000874D01*
X108650214Y-86049722D01*
X108650213Y-86049723D01*
X108646780Y-86051472D01*
X108551472Y-86146780D01*
X108490281Y-86266874D01*
X108489678Y-86270679D01*
X108489678Y-86270680D01*
X108477194Y-86349500D01*
X108469196Y-86400000D01*
X108469799Y-86403807D01*
X108486781Y-86511025D01*
X108490281Y-86533126D01*
X108551472Y-86653220D01*
X108638604Y-86740352D01*
X108652956Y-86775000D01*
X108638604Y-86809648D01*
X108551472Y-86896780D01*
X108549723Y-86900213D01*
X108549722Y-86900214D01*
X108526108Y-86946560D01*
X108490281Y-87016874D01*
X108489678Y-87020679D01*
X108489678Y-87020680D01*
X108478851Y-87089038D01*
X108469196Y-87150000D01*
X108469799Y-87153807D01*
X108481899Y-87230201D01*
X108490281Y-87283126D01*
X108492031Y-87286560D01*
X108544734Y-87389995D01*
X108551472Y-87403220D01*
X108613604Y-87465352D01*
X108627956Y-87500000D01*
X108613604Y-87534648D01*
X108551472Y-87596780D01*
X108490281Y-87716874D01*
X108489678Y-87720679D01*
X108489678Y-87720680D01*
X108485854Y-87744822D01*
X108469196Y-87850000D01*
X103236000Y-87850000D01*
X103236000Y-85550000D01*
X112319196Y-85550000D01*
X112319799Y-85553807D01*
X112336511Y-85659320D01*
X112340281Y-85683126D01*
X112342031Y-85686560D01*
X112383184Y-85767327D01*
X112401472Y-85803220D01*
X112496780Y-85898528D01*
X112500213Y-85900277D01*
X112500214Y-85900278D01*
X112539015Y-85920048D01*
X112616874Y-85959719D01*
X112620679Y-85960322D01*
X112620680Y-85960322D01*
X112746193Y-85980201D01*
X112750000Y-85980804D01*
X112753807Y-85980201D01*
X112879320Y-85960322D01*
X112879321Y-85960322D01*
X112883126Y-85959719D01*
X112960985Y-85920048D01*
X112999786Y-85900278D01*
X112999787Y-85900277D01*
X113003220Y-85898528D01*
X113033954Y-85867794D01*
X113068602Y-85853442D01*
X113077113Y-85854187D01*
X113078274Y-85854392D01*
X113078278Y-85854392D01*
X113082497Y-85855136D01*
X113092743Y-85853329D01*
X113106056Y-85852820D01*
X113175672Y-85859677D01*
X113185094Y-85861551D01*
X113270074Y-85887330D01*
X113278937Y-85891001D01*
X113333281Y-85920048D01*
X113357256Y-85932863D01*
X113365242Y-85938199D01*
X113419319Y-85982578D01*
X113428371Y-85992349D01*
X113431879Y-85997359D01*
X113431881Y-85997361D01*
X113434341Y-86000874D01*
X113437856Y-86003335D01*
X113452697Y-86013727D01*
X113459240Y-86019217D01*
X113896397Y-86456374D01*
X113910749Y-86491022D01*
X113896397Y-86525670D01*
X113861749Y-86540022D01*
X113852194Y-86539080D01*
X113711678Y-86511130D01*
X113710084Y-86511026D01*
X113710080Y-86511025D01*
X113484477Y-86496239D01*
X113479241Y-86495608D01*
X113479219Y-86495608D01*
X113474999Y-86494864D01*
X113470780Y-86495608D01*
X113470779Y-86495608D01*
X113452926Y-86498756D01*
X113444417Y-86499500D01*
X113171544Y-86499500D01*
X113136896Y-86485148D01*
X113103220Y-86451472D01*
X113099787Y-86449723D01*
X113099786Y-86449722D01*
X113009672Y-86403807D01*
X112983126Y-86390281D01*
X112979321Y-86389678D01*
X112979320Y-86389678D01*
X112853807Y-86369799D01*
X112850000Y-86369196D01*
X112846193Y-86369799D01*
X112720680Y-86389678D01*
X112720679Y-86389678D01*
X112716874Y-86390281D01*
X112690328Y-86403807D01*
X112600214Y-86449722D01*
X112600213Y-86449723D01*
X112596780Y-86451472D01*
X112501472Y-86546780D01*
X112499723Y-86550213D01*
X112499722Y-86550214D01*
X112489237Y-86570793D01*
X112440281Y-86666874D01*
X112439678Y-86670679D01*
X112439678Y-86670680D01*
X112434140Y-86705646D01*
X112419196Y-86800000D01*
X112440281Y-86933126D01*
X112447126Y-86946560D01*
X112495653Y-87041799D01*
X112501472Y-87053220D01*
X112596780Y-87148528D01*
X112600213Y-87150277D01*
X112600214Y-87150278D01*
X112621489Y-87161118D01*
X112716874Y-87209719D01*
X112720679Y-87210322D01*
X112720680Y-87210322D01*
X112811315Y-87224677D01*
X112832082Y-87227966D01*
X112846193Y-87230201D01*
X112850000Y-87230804D01*
X112853807Y-87230201D01*
X112867919Y-87227966D01*
X112888685Y-87224677D01*
X112979320Y-87210322D01*
X112979321Y-87210322D01*
X112983126Y-87209719D01*
X113078511Y-87161118D01*
X113099786Y-87150278D01*
X113099787Y-87150277D01*
X113103220Y-87148528D01*
X113136896Y-87114852D01*
X113171544Y-87100500D01*
X113444419Y-87100500D01*
X113452928Y-87101244D01*
X113470781Y-87104392D01*
X113470782Y-87104392D01*
X113475001Y-87105136D01*
X113487042Y-87103013D01*
X113499393Y-87102420D01*
X113660195Y-87115075D01*
X113667778Y-87116276D01*
X113844665Y-87158743D01*
X113851972Y-87161117D01*
X114020032Y-87230730D01*
X114026878Y-87234218D01*
X114106689Y-87283126D01*
X114181981Y-87329265D01*
X114188201Y-87333784D01*
X114310849Y-87438535D01*
X114319164Y-87447689D01*
X114323716Y-87454190D01*
X114323718Y-87454192D01*
X114326177Y-87457704D01*
X114340347Y-87467626D01*
X114344533Y-87470557D01*
X114351076Y-87476047D01*
X119006840Y-92131811D01*
X119020589Y-92158794D01*
X119040281Y-92283126D01*
X119101472Y-92403220D01*
X119196780Y-92498528D01*
X119200213Y-92500277D01*
X119200214Y-92500278D01*
X119256827Y-92529124D01*
X119316874Y-92559719D01*
X119320679Y-92560322D01*
X119320680Y-92560322D01*
X119446193Y-92580201D01*
X119450000Y-92580804D01*
X119453807Y-92580201D01*
X119579320Y-92560322D01*
X119579321Y-92560322D01*
X119583126Y-92559719D01*
X119643173Y-92529124D01*
X119699786Y-92500278D01*
X119699787Y-92500277D01*
X119703220Y-92498528D01*
X119798528Y-92403220D01*
X119859719Y-92283126D01*
X119865019Y-92249667D01*
X119880201Y-92153807D01*
X119880804Y-92150000D01*
X119872880Y-92099967D01*
X119860322Y-92020680D01*
X119860322Y-92020679D01*
X119859719Y-92016874D01*
X119798528Y-91896780D01*
X119703220Y-91801472D01*
X119699787Y-91799723D01*
X119699786Y-91799722D01*
X119643173Y-91770876D01*
X119583126Y-91740281D01*
X119579321Y-91739678D01*
X119579320Y-91739678D01*
X119458795Y-91720589D01*
X119431812Y-91706840D01*
X119051991Y-91327019D01*
X119037639Y-91292371D01*
X119051991Y-91257723D01*
X119090481Y-91243522D01*
X119103194Y-91244522D01*
X119107546Y-91244865D01*
X119112209Y-91245458D01*
X119119445Y-91246734D01*
X119119448Y-91246734D01*
X119123668Y-91247478D01*
X119124002Y-91247419D01*
X119156996Y-91261086D01*
X119186780Y-91290870D01*
X119190213Y-91292619D01*
X119190214Y-91292620D01*
X119246827Y-91321465D01*
X119306874Y-91352061D01*
X119310679Y-91352664D01*
X119310680Y-91352664D01*
X119436193Y-91372543D01*
X119440000Y-91373146D01*
X119443807Y-91372543D01*
X119569320Y-91352664D01*
X119569321Y-91352664D01*
X119573126Y-91352061D01*
X119633173Y-91321465D01*
X119689786Y-91292620D01*
X119689787Y-91292619D01*
X119693220Y-91290870D01*
X119759090Y-91225000D01*
X124319678Y-91225000D01*
X124338915Y-91408029D01*
X124395786Y-91583059D01*
X124487805Y-91742440D01*
X124610950Y-91879207D01*
X124613030Y-91880718D01*
X124613032Y-91880720D01*
X124661814Y-91916162D01*
X124759839Y-91987381D01*
X124927966Y-92062236D01*
X124973944Y-92072009D01*
X125105472Y-92099967D01*
X125105475Y-92099967D01*
X125107981Y-92100500D01*
X125292019Y-92100500D01*
X125294525Y-92099967D01*
X125294528Y-92099967D01*
X125426056Y-92072009D01*
X125472034Y-92062236D01*
X125640161Y-91987381D01*
X125738186Y-91916162D01*
X125786968Y-91880720D01*
X125786970Y-91880718D01*
X125789050Y-91879207D01*
X125912195Y-91742440D01*
X126004214Y-91583059D01*
X126061085Y-91408029D01*
X126080322Y-91225000D01*
X126061085Y-91041971D01*
X126004214Y-90866941D01*
X125912195Y-90707560D01*
X125910341Y-90705500D01*
X125857799Y-90647147D01*
X125789050Y-90570793D01*
X125782528Y-90566054D01*
X125642241Y-90464130D01*
X125642240Y-90464129D01*
X125640161Y-90462619D01*
X125472034Y-90387764D01*
X125382026Y-90368632D01*
X125294528Y-90350033D01*
X125294525Y-90350033D01*
X125292019Y-90349500D01*
X125107981Y-90349500D01*
X125105475Y-90350033D01*
X125105472Y-90350033D01*
X125017973Y-90368632D01*
X124927966Y-90387764D01*
X124759839Y-90462619D01*
X124757760Y-90464129D01*
X124757759Y-90464130D01*
X124617473Y-90566054D01*
X124610950Y-90570793D01*
X124542201Y-90647147D01*
X124489660Y-90705500D01*
X124487805Y-90707560D01*
X124395786Y-90866941D01*
X124338915Y-91041971D01*
X124319678Y-91225000D01*
X119759090Y-91225000D01*
X119788528Y-91195562D01*
X119849719Y-91075468D01*
X119855025Y-91041971D01*
X119870201Y-90946149D01*
X119870804Y-90942342D01*
X119861936Y-90886352D01*
X119850322Y-90813022D01*
X119850322Y-90813021D01*
X119849719Y-90809216D01*
X119797923Y-90707560D01*
X119790278Y-90692556D01*
X119790277Y-90692555D01*
X119788528Y-90689122D01*
X119693220Y-90593814D01*
X119689787Y-90592065D01*
X119689786Y-90592064D01*
X119597835Y-90545213D01*
X119573126Y-90532623D01*
X119569321Y-90532020D01*
X119569320Y-90532020D01*
X119443807Y-90512141D01*
X119440000Y-90511538D01*
X119436193Y-90512141D01*
X119310680Y-90532020D01*
X119310679Y-90532020D01*
X119306874Y-90532623D01*
X119282165Y-90545213D01*
X119190214Y-90592064D01*
X119190213Y-90592065D01*
X119186780Y-90593814D01*
X119156995Y-90623599D01*
X119124003Y-90637265D01*
X119123668Y-90637206D01*
X119119444Y-90637951D01*
X119113422Y-90639013D01*
X119100109Y-90639522D01*
X119038107Y-90633415D01*
X119028686Y-90631541D01*
X118951031Y-90607984D01*
X118942157Y-90604308D01*
X118870589Y-90566054D01*
X118862602Y-90560718D01*
X118849607Y-90550053D01*
X118814440Y-90521193D01*
X118805386Y-90511420D01*
X118801878Y-90506409D01*
X118799419Y-90502897D01*
X118781060Y-90490042D01*
X118774517Y-90484551D01*
X114953688Y-86663723D01*
X116194864Y-86663723D01*
X116195608Y-86667943D01*
X116195608Y-86668213D01*
X116196145Y-86672668D01*
X116210656Y-86894054D01*
X116211305Y-86903963D01*
X116258274Y-87140092D01*
X116307993Y-87286560D01*
X116331919Y-87357042D01*
X116335662Y-87368070D01*
X116336368Y-87369502D01*
X116336369Y-87369504D01*
X116429846Y-87559056D01*
X116442145Y-87583997D01*
X116443036Y-87585330D01*
X116443038Y-87585334D01*
X116575009Y-87782842D01*
X116575902Y-87784178D01*
X116576960Y-87785385D01*
X116576962Y-87785387D01*
X116728734Y-87958451D01*
X116731504Y-87961980D01*
X116731693Y-87962169D01*
X116734151Y-87965679D01*
X116737660Y-87968136D01*
X116752513Y-87978536D01*
X116759056Y-87984027D01*
X117185888Y-88410859D01*
X117191379Y-88417402D01*
X117204236Y-88435764D01*
X117207417Y-88437991D01*
X117208484Y-88438958D01*
X117209138Y-88439612D01*
X117209699Y-88440060D01*
X117350781Y-88567929D01*
X117455131Y-88662506D01*
X117456098Y-88663223D01*
X117725769Y-88863225D01*
X117725778Y-88863231D01*
X117726734Y-88863940D01*
X117727759Y-88864555D01*
X117727760Y-88864555D01*
X117971554Y-89010680D01*
X118016772Y-89037783D01*
X118017855Y-89038295D01*
X118017864Y-89038300D01*
X118222195Y-89134940D01*
X118322454Y-89182359D01*
X118640835Y-89296278D01*
X118641988Y-89296567D01*
X118641992Y-89296568D01*
X118967681Y-89378149D01*
X118967687Y-89378150D01*
X118968848Y-89378441D01*
X118970029Y-89378616D01*
X118970038Y-89378618D01*
X119302160Y-89427884D01*
X119302169Y-89427885D01*
X119303336Y-89428058D01*
X119304517Y-89428116D01*
X119304527Y-89428117D01*
X119634180Y-89444311D01*
X119634892Y-89444391D01*
X119635812Y-89444391D01*
X119637255Y-89444462D01*
X119641076Y-89445136D01*
X119645295Y-89444392D01*
X119645297Y-89444392D01*
X119663149Y-89441244D01*
X119671658Y-89440500D01*
X121378456Y-89440500D01*
X121413104Y-89454852D01*
X121446780Y-89488528D01*
X121450213Y-89490277D01*
X121450214Y-89490278D01*
X121506827Y-89519123D01*
X121566874Y-89549719D01*
X121570679Y-89550322D01*
X121570680Y-89550322D01*
X121696193Y-89570201D01*
X121700000Y-89570804D01*
X121703807Y-89570201D01*
X121829320Y-89550322D01*
X121829321Y-89550322D01*
X121833126Y-89549719D01*
X121893173Y-89519123D01*
X121949786Y-89490278D01*
X121949787Y-89490277D01*
X121953220Y-89488528D01*
X122048528Y-89393220D01*
X122056059Y-89378441D01*
X122107969Y-89276560D01*
X122109719Y-89273126D01*
X122116938Y-89227550D01*
X122117342Y-89225000D01*
X124319678Y-89225000D01*
X124338915Y-89408029D01*
X124395786Y-89583059D01*
X124397070Y-89585284D01*
X124397071Y-89585285D01*
X124406285Y-89601244D01*
X124487805Y-89742440D01*
X124610950Y-89879207D01*
X124759839Y-89987381D01*
X124927966Y-90062236D01*
X125017973Y-90081368D01*
X125105472Y-90099967D01*
X125105475Y-90099967D01*
X125107981Y-90100500D01*
X125292019Y-90100500D01*
X125294525Y-90099967D01*
X125294528Y-90099967D01*
X125382027Y-90081368D01*
X125472034Y-90062236D01*
X125640161Y-89987381D01*
X125789050Y-89879207D01*
X125912195Y-89742440D01*
X125993715Y-89601244D01*
X126002929Y-89585285D01*
X126002930Y-89585284D01*
X126004214Y-89583059D01*
X126061085Y-89408029D01*
X126080322Y-89225000D01*
X126061085Y-89041971D01*
X126004214Y-88866941D01*
X126002837Y-88864555D01*
X125978489Y-88822385D01*
X125912195Y-88707560D01*
X125901072Y-88695206D01*
X125851504Y-88640156D01*
X125789050Y-88570793D01*
X125785109Y-88567929D01*
X125642241Y-88464130D01*
X125642240Y-88464129D01*
X125640161Y-88462619D01*
X125472034Y-88387764D01*
X125345063Y-88360775D01*
X125294528Y-88350033D01*
X125294525Y-88350033D01*
X125292019Y-88349500D01*
X125107981Y-88349500D01*
X125105475Y-88350033D01*
X125105472Y-88350033D01*
X125054937Y-88360775D01*
X124927966Y-88387764D01*
X124759839Y-88462619D01*
X124757760Y-88464129D01*
X124757759Y-88464130D01*
X124614892Y-88567929D01*
X124610950Y-88570793D01*
X124548496Y-88640156D01*
X124498929Y-88695206D01*
X124487805Y-88707560D01*
X124421511Y-88822385D01*
X124397164Y-88864555D01*
X124395786Y-88866941D01*
X124338915Y-89041971D01*
X124319678Y-89225000D01*
X122117342Y-89225000D01*
X122130201Y-89143807D01*
X122130804Y-89140000D01*
X122116583Y-89050214D01*
X122110322Y-89010680D01*
X122110322Y-89010679D01*
X122109719Y-89006874D01*
X122048528Y-88886780D01*
X121953220Y-88791472D01*
X121949787Y-88789723D01*
X121949786Y-88789722D01*
X121885198Y-88756813D01*
X121833126Y-88730281D01*
X121829321Y-88729678D01*
X121829320Y-88729678D01*
X121703807Y-88709799D01*
X121700000Y-88709196D01*
X121696193Y-88709799D01*
X121570680Y-88729678D01*
X121570679Y-88729678D01*
X121566874Y-88730281D01*
X121514802Y-88756813D01*
X121450214Y-88789722D01*
X121450213Y-88789723D01*
X121446780Y-88791472D01*
X121413104Y-88825148D01*
X121378456Y-88839500D01*
X120846371Y-88839500D01*
X120811723Y-88825148D01*
X120797371Y-88790500D01*
X120806562Y-88762216D01*
X120808528Y-88760250D01*
X120869719Y-88640156D01*
X120872557Y-88622241D01*
X120890201Y-88510837D01*
X120890804Y-88507030D01*
X120875572Y-88410859D01*
X120870322Y-88377710D01*
X120870322Y-88377709D01*
X120869719Y-88373904D01*
X120808528Y-88253810D01*
X120713220Y-88158502D01*
X120709787Y-88156753D01*
X120709786Y-88156752D01*
X120604723Y-88103220D01*
X120593126Y-88097311D01*
X120589321Y-88096708D01*
X120589320Y-88096708D01*
X120463807Y-88076829D01*
X120460000Y-88076226D01*
X120456193Y-88076829D01*
X120330680Y-88096708D01*
X120330679Y-88096708D01*
X120326874Y-88097311D01*
X120315277Y-88103220D01*
X120210214Y-88156752D01*
X120210213Y-88156753D01*
X120206780Y-88158502D01*
X120111472Y-88253810D01*
X120050281Y-88373904D01*
X120049678Y-88377709D01*
X120049678Y-88377710D01*
X120044428Y-88410859D01*
X120029196Y-88507030D01*
X120029799Y-88510837D01*
X120047444Y-88622241D01*
X120050281Y-88640156D01*
X120111472Y-88760250D01*
X120113380Y-88762158D01*
X120122026Y-88798162D01*
X120102433Y-88830140D01*
X120073629Y-88839500D01*
X119671658Y-88839500D01*
X119663149Y-88838756D01*
X119645296Y-88835608D01*
X119645295Y-88835608D01*
X119641076Y-88834864D01*
X119636856Y-88835608D01*
X119636855Y-88835608D01*
X119625932Y-88837534D01*
X119615020Y-88838219D01*
X119580642Y-88836530D01*
X119365059Y-88825939D01*
X119360273Y-88825468D01*
X119089290Y-88785271D01*
X119084574Y-88784333D01*
X118818833Y-88717768D01*
X118814232Y-88716372D01*
X118556296Y-88624082D01*
X118551853Y-88622241D01*
X118478964Y-88587767D01*
X118304213Y-88505116D01*
X118299988Y-88502858D01*
X118064993Y-88362007D01*
X118060999Y-88359338D01*
X117924319Y-88257969D01*
X117840968Y-88196152D01*
X117837253Y-88193104D01*
X117802083Y-88161228D01*
X117651812Y-88025030D01*
X117644586Y-88016835D01*
X117635764Y-88004236D01*
X117617405Y-87991381D01*
X117610862Y-87985890D01*
X117184027Y-87559056D01*
X117178536Y-87552513D01*
X117168139Y-87537664D01*
X117168138Y-87537663D01*
X117165679Y-87534151D01*
X117155662Y-87527137D01*
X117146511Y-87518826D01*
X117077937Y-87438535D01*
X117038982Y-87392924D01*
X117034463Y-87386703D01*
X116937189Y-87227966D01*
X116933698Y-87221116D01*
X116908498Y-87160278D01*
X116862449Y-87049104D01*
X116860075Y-87041799D01*
X116816611Y-86860759D01*
X116815409Y-86853171D01*
X116815017Y-86848181D01*
X116812012Y-86810000D01*
X117629196Y-86810000D01*
X117629799Y-86813807D01*
X117644328Y-86905537D01*
X117650281Y-86943126D01*
X117652031Y-86946560D01*
X117707766Y-87055946D01*
X117711472Y-87063220D01*
X117806780Y-87158528D01*
X117810213Y-87160277D01*
X117810214Y-87160278D01*
X117866827Y-87189124D01*
X117926874Y-87219719D01*
X117930679Y-87220322D01*
X117930680Y-87220322D01*
X118056193Y-87240201D01*
X118060000Y-87240804D01*
X118063807Y-87240201D01*
X118189320Y-87220322D01*
X118189321Y-87220322D01*
X118193126Y-87219719D01*
X118253173Y-87189124D01*
X118309786Y-87160278D01*
X118309787Y-87160277D01*
X118313220Y-87158528D01*
X118356896Y-87114852D01*
X118391544Y-87100500D01*
X120032916Y-87100500D01*
X120067564Y-87114852D01*
X120081916Y-87149500D01*
X120076575Y-87171745D01*
X120063230Y-87197937D01*
X120061479Y-87201374D01*
X120060876Y-87205179D01*
X120060876Y-87205180D01*
X120058573Y-87219719D01*
X120040394Y-87334500D01*
X120040997Y-87338307D01*
X120059908Y-87457704D01*
X120061479Y-87467626D01*
X120122670Y-87587720D01*
X120217978Y-87683028D01*
X120221411Y-87684777D01*
X120221412Y-87684778D01*
X120277665Y-87713440D01*
X120338072Y-87744219D01*
X120341877Y-87744822D01*
X120341878Y-87744822D01*
X120467391Y-87764701D01*
X120471198Y-87765304D01*
X120475005Y-87764701D01*
X120600518Y-87744822D01*
X120600519Y-87744822D01*
X120604324Y-87744219D01*
X120664731Y-87713440D01*
X120720984Y-87684778D01*
X120720985Y-87684777D01*
X120724418Y-87683028D01*
X120819726Y-87587720D01*
X120880917Y-87467626D01*
X120882489Y-87457704D01*
X120901399Y-87338307D01*
X120902002Y-87334500D01*
X120883823Y-87219719D01*
X120881520Y-87205180D01*
X120881520Y-87205179D01*
X120880917Y-87201374D01*
X120879166Y-87197937D01*
X120865821Y-87171745D01*
X120862878Y-87134358D01*
X120887235Y-87105841D01*
X120909480Y-87100500D01*
X122158456Y-87100500D01*
X122193104Y-87114852D01*
X122226780Y-87148528D01*
X122230213Y-87150277D01*
X122230214Y-87150278D01*
X122251489Y-87161118D01*
X122346874Y-87209719D01*
X122350679Y-87210322D01*
X122350680Y-87210322D01*
X122441315Y-87224677D01*
X122462082Y-87227966D01*
X122476193Y-87230201D01*
X122480000Y-87230804D01*
X122483807Y-87230201D01*
X122497919Y-87227966D01*
X122518685Y-87224677D01*
X122609320Y-87210322D01*
X122609321Y-87210322D01*
X122613126Y-87209719D01*
X122708511Y-87161118D01*
X122729786Y-87150278D01*
X122729787Y-87150277D01*
X122733220Y-87148528D01*
X122828528Y-87053220D01*
X122834348Y-87041799D01*
X122882874Y-86946560D01*
X122889719Y-86933126D01*
X122910804Y-86800000D01*
X122895860Y-86705646D01*
X122890322Y-86670680D01*
X122890322Y-86670679D01*
X122889719Y-86666874D01*
X122840763Y-86570793D01*
X122830278Y-86550214D01*
X122830277Y-86550213D01*
X122828528Y-86546780D01*
X122737614Y-86455866D01*
X122723262Y-86421218D01*
X122737614Y-86386570D01*
X122772262Y-86372218D01*
X123200642Y-86372218D01*
X123209151Y-86372962D01*
X123227004Y-86376110D01*
X123227005Y-86376110D01*
X123231224Y-86376854D01*
X123235443Y-86376110D01*
X123235446Y-86376110D01*
X123244573Y-86374501D01*
X123256285Y-86373862D01*
X123385896Y-86382356D01*
X123445780Y-86386281D01*
X123452126Y-86387117D01*
X123569262Y-86410417D01*
X123659848Y-86428436D01*
X123666039Y-86430094D01*
X123866607Y-86498178D01*
X123872528Y-86500631D01*
X124062482Y-86594305D01*
X124068033Y-86597510D01*
X124244136Y-86715178D01*
X124249221Y-86719080D01*
X124376404Y-86830617D01*
X124392991Y-86864252D01*
X124390698Y-86882599D01*
X124371032Y-86943126D01*
X124338915Y-87041971D01*
X124319678Y-87225000D01*
X124338915Y-87408029D01*
X124395786Y-87583059D01*
X124487805Y-87742440D01*
X124489526Y-87744352D01*
X124489528Y-87744354D01*
X124507849Y-87764701D01*
X124610950Y-87879207D01*
X124613030Y-87880718D01*
X124613032Y-87880720D01*
X124757759Y-87985870D01*
X124759839Y-87987381D01*
X124927966Y-88062236D01*
X124993783Y-88076226D01*
X125105472Y-88099967D01*
X125105475Y-88099967D01*
X125107981Y-88100500D01*
X125292019Y-88100500D01*
X125294525Y-88099967D01*
X125294528Y-88099967D01*
X125406217Y-88076226D01*
X125472034Y-88062236D01*
X125640161Y-87987381D01*
X125642241Y-87985870D01*
X125786968Y-87880720D01*
X125786970Y-87880718D01*
X125789050Y-87879207D01*
X125892151Y-87764701D01*
X125910472Y-87744354D01*
X125910474Y-87744352D01*
X125912195Y-87742440D01*
X126004214Y-87583059D01*
X126061085Y-87408029D01*
X126080322Y-87225000D01*
X126061085Y-87041971D01*
X126004214Y-86866941D01*
X126002662Y-86864252D01*
X125963367Y-86796193D01*
X125912195Y-86707560D01*
X125884566Y-86676874D01*
X125813106Y-86597510D01*
X125789050Y-86570793D01*
X125774490Y-86560214D01*
X125642241Y-86464130D01*
X125642240Y-86464129D01*
X125640161Y-86462619D01*
X125472034Y-86387764D01*
X125355371Y-86362966D01*
X125294528Y-86350033D01*
X125294525Y-86350033D01*
X125292019Y-86349500D01*
X125107981Y-86349500D01*
X125105475Y-86350033D01*
X125105472Y-86350033D01*
X125044629Y-86362966D01*
X124927966Y-86387764D01*
X124909034Y-86396193D01*
X124863072Y-86416656D01*
X124825582Y-86417637D01*
X124810491Y-86408428D01*
X124649352Y-86264425D01*
X124649345Y-86264419D01*
X124648324Y-86263507D01*
X124440454Y-86116016D01*
X124439263Y-86115358D01*
X124439257Y-86115354D01*
X124218574Y-85993387D01*
X124218566Y-85993383D01*
X124217377Y-85992726D01*
X124211474Y-85990281D01*
X123983165Y-85895712D01*
X123983159Y-85895710D01*
X123981899Y-85895188D01*
X123804028Y-85843944D01*
X123738301Y-85825008D01*
X123738296Y-85825007D01*
X123736981Y-85824628D01*
X123735634Y-85824399D01*
X123735629Y-85824398D01*
X123487050Y-85782163D01*
X123487049Y-85782163D01*
X123485702Y-85781934D01*
X123484337Y-85781857D01*
X123484334Y-85781857D01*
X123385744Y-85776321D01*
X123242947Y-85768302D01*
X123237196Y-85767635D01*
X123231224Y-85766582D01*
X123227005Y-85767326D01*
X123227003Y-85767326D01*
X123209151Y-85770474D01*
X123200642Y-85771218D01*
X120756544Y-85771218D01*
X120721896Y-85756866D01*
X120688220Y-85723190D01*
X120684787Y-85721441D01*
X120684786Y-85721440D01*
X120577077Y-85666560D01*
X120568126Y-85661999D01*
X120564321Y-85661396D01*
X120564320Y-85661396D01*
X120438807Y-85641517D01*
X120435000Y-85640914D01*
X120431193Y-85641517D01*
X120305680Y-85661396D01*
X120305679Y-85661396D01*
X120301874Y-85661999D01*
X120292923Y-85666560D01*
X120185214Y-85721440D01*
X120185213Y-85721441D01*
X120181780Y-85723190D01*
X120086472Y-85818498D01*
X120084723Y-85821931D01*
X120084722Y-85821932D01*
X120068183Y-85854392D01*
X120025281Y-85938592D01*
X120024678Y-85942397D01*
X120024678Y-85942398D01*
X120015027Y-86003335D01*
X120004196Y-86071718D01*
X120004799Y-86075525D01*
X120024088Y-86197309D01*
X120025281Y-86204844D01*
X120027031Y-86208278D01*
X120082206Y-86316565D01*
X120086472Y-86324938D01*
X120177386Y-86415852D01*
X120191738Y-86450500D01*
X120177386Y-86485148D01*
X120142738Y-86499500D01*
X118371544Y-86499500D01*
X118336896Y-86485148D01*
X118313220Y-86461472D01*
X118309787Y-86459723D01*
X118309786Y-86459722D01*
X118227189Y-86417637D01*
X118193126Y-86400281D01*
X118189321Y-86399678D01*
X118189320Y-86399678D01*
X118064060Y-86379839D01*
X118060000Y-86379196D01*
X118055940Y-86379839D01*
X117930680Y-86399678D01*
X117930679Y-86399678D01*
X117926874Y-86400281D01*
X117892811Y-86417637D01*
X117810214Y-86459722D01*
X117810213Y-86459723D01*
X117806780Y-86461472D01*
X117711472Y-86556780D01*
X117709723Y-86560213D01*
X117709722Y-86560214D01*
X117690719Y-86597510D01*
X117650281Y-86676874D01*
X117649678Y-86680679D01*
X117649678Y-86680680D01*
X117644214Y-86715178D01*
X117629196Y-86810000D01*
X116812012Y-86810000D01*
X116802420Y-86688116D01*
X116803013Y-86675764D01*
X116804392Y-86667943D01*
X116805136Y-86663723D01*
X116801244Y-86641650D01*
X116800500Y-86633141D01*
X116800500Y-86410417D01*
X116801244Y-86401909D01*
X116804392Y-86384056D01*
X116804392Y-86384055D01*
X116805136Y-86379835D01*
X116803329Y-86369588D01*
X116802820Y-86356275D01*
X116810599Y-86277291D01*
X116812473Y-86267870D01*
X116830550Y-86208278D01*
X116840985Y-86173880D01*
X116844656Y-86165017D01*
X116890956Y-86078395D01*
X116896292Y-86070409D01*
X116946643Y-86009055D01*
X116956414Y-86000003D01*
X116964939Y-85994034D01*
X116964940Y-85994032D01*
X116964942Y-85994031D01*
X116970911Y-85985506D01*
X116979963Y-85975735D01*
X117041317Y-85925384D01*
X117049303Y-85920048D01*
X117135925Y-85873748D01*
X117144788Y-85870077D01*
X117238777Y-85841565D01*
X117248199Y-85839691D01*
X117327183Y-85831912D01*
X117340496Y-85832421D01*
X117342844Y-85832835D01*
X117350743Y-85834228D01*
X117354963Y-85833484D01*
X117354964Y-85833484D01*
X117372817Y-85830336D01*
X117381325Y-85829592D01*
X117687548Y-85829592D01*
X117722196Y-85843944D01*
X117756780Y-85878528D01*
X117760213Y-85880277D01*
X117760214Y-85880278D01*
X117788735Y-85894810D01*
X117876874Y-85939719D01*
X117880679Y-85940322D01*
X117880680Y-85940322D01*
X118006193Y-85960201D01*
X118010000Y-85960804D01*
X118013807Y-85960201D01*
X118139320Y-85940322D01*
X118139321Y-85940322D01*
X118143126Y-85939719D01*
X118231265Y-85894810D01*
X118259786Y-85880278D01*
X118259787Y-85880277D01*
X118263220Y-85878528D01*
X118358528Y-85783220D01*
X118364644Y-85771218D01*
X118389124Y-85723173D01*
X118419719Y-85663126D01*
X118440804Y-85530000D01*
X118427274Y-85444575D01*
X118420322Y-85400680D01*
X118420322Y-85400679D01*
X118419719Y-85396874D01*
X118358528Y-85276780D01*
X118263220Y-85181472D01*
X118259787Y-85179723D01*
X118259786Y-85179722D01*
X118181195Y-85139678D01*
X118143126Y-85120281D01*
X118139321Y-85119678D01*
X118139320Y-85119678D01*
X118013807Y-85099799D01*
X118010000Y-85099196D01*
X118006193Y-85099799D01*
X117880680Y-85119678D01*
X117880679Y-85119678D01*
X117876874Y-85120281D01*
X117838805Y-85139678D01*
X117760214Y-85179722D01*
X117760213Y-85179723D01*
X117756780Y-85181472D01*
X117724012Y-85214240D01*
X117689364Y-85228592D01*
X117381328Y-85228592D01*
X117372819Y-85227848D01*
X117359452Y-85225491D01*
X117350747Y-85223956D01*
X117342033Y-85225492D01*
X117337384Y-85226083D01*
X117170095Y-85239249D01*
X117113283Y-85252888D01*
X116995760Y-85281102D01*
X116995756Y-85281103D01*
X116993891Y-85281551D01*
X116826474Y-85350897D01*
X116824834Y-85351902D01*
X116824832Y-85351903D01*
X116673605Y-85444575D01*
X116673600Y-85444579D01*
X116671966Y-85445580D01*
X116670509Y-85446824D01*
X116670504Y-85446828D01*
X116544368Y-85554559D01*
X116540651Y-85557437D01*
X116533415Y-85562504D01*
X116533414Y-85562506D01*
X116533412Y-85562507D01*
X116529908Y-85567511D01*
X116528345Y-85569743D01*
X116525467Y-85573460D01*
X116417736Y-85699596D01*
X116417732Y-85699601D01*
X116416488Y-85701058D01*
X116415487Y-85702692D01*
X116415483Y-85702697D01*
X116322811Y-85853924D01*
X116321805Y-85855566D01*
X116252459Y-86022983D01*
X116252011Y-86024848D01*
X116252010Y-86024852D01*
X116244965Y-86054198D01*
X116210157Y-86199187D01*
X116200920Y-86316565D01*
X116200417Y-86319707D01*
X116200117Y-86320459D01*
X116199500Y-86326752D01*
X116199500Y-86332674D01*
X116199349Y-86336517D01*
X116197268Y-86362966D01*
X116196992Y-86366470D01*
X116196400Y-86371125D01*
X116194864Y-86379839D01*
X116195608Y-86384056D01*
X116195608Y-86384058D01*
X116198756Y-86401911D01*
X116199500Y-86410420D01*
X116199500Y-86633141D01*
X116198756Y-86641650D01*
X116194864Y-86663723D01*
X114953688Y-86663723D01*
X113884210Y-85594245D01*
X113878720Y-85587702D01*
X113868326Y-85572858D01*
X113865867Y-85569346D01*
X113857356Y-85563387D01*
X113853644Y-85560513D01*
X113850043Y-85557437D01*
X113813461Y-85526193D01*
X113734418Y-85458684D01*
X113734413Y-85458680D01*
X113732956Y-85457436D01*
X113715646Y-85446828D01*
X113586535Y-85367709D01*
X113584895Y-85366704D01*
X113511024Y-85336106D01*
X113426242Y-85300987D01*
X113426237Y-85300985D01*
X113424464Y-85300251D01*
X113289140Y-85267763D01*
X113257491Y-85260165D01*
X113257490Y-85260165D01*
X113255612Y-85259714D01*
X113253693Y-85259563D01*
X113253687Y-85259562D01*
X113146677Y-85251140D01*
X113142944Y-85250543D01*
X113141875Y-85250117D01*
X113137390Y-85249677D01*
X113136768Y-85249616D01*
X113136762Y-85249616D01*
X113135582Y-85249500D01*
X113127758Y-85249500D01*
X113123913Y-85249349D01*
X113097387Y-85247261D01*
X113092733Y-85246669D01*
X113082497Y-85244864D01*
X113078278Y-85245608D01*
X113078274Y-85245608D01*
X113077113Y-85245813D01*
X113076189Y-85245608D01*
X113073985Y-85245608D01*
X113073985Y-85245120D01*
X113040499Y-85237698D01*
X113033954Y-85232206D01*
X113003220Y-85201472D01*
X112999787Y-85199723D01*
X112999786Y-85199722D01*
X112943173Y-85170876D01*
X112883126Y-85140281D01*
X112879321Y-85139678D01*
X112879320Y-85139678D01*
X112753807Y-85119799D01*
X112750000Y-85119196D01*
X112746193Y-85119799D01*
X112620680Y-85139678D01*
X112620679Y-85139678D01*
X112616874Y-85140281D01*
X112556827Y-85170877D01*
X112500214Y-85199722D01*
X112500213Y-85199723D01*
X112496780Y-85201472D01*
X112401472Y-85296780D01*
X112399723Y-85300213D01*
X112399722Y-85300214D01*
X112373898Y-85350897D01*
X112340281Y-85416874D01*
X112339678Y-85420679D01*
X112339678Y-85420680D01*
X112335734Y-85445580D01*
X112319196Y-85550000D01*
X103236000Y-85550000D01*
X103236000Y-83276162D01*
X104102282Y-83276162D01*
X104114651Y-83327485D01*
X104116164Y-83331878D01*
X104201111Y-83518708D01*
X104203426Y-83522734D01*
X104322165Y-83690126D01*
X104325205Y-83693648D01*
X104473457Y-83835568D01*
X104477103Y-83838447D01*
X104649518Y-83949775D01*
X104653638Y-83951911D01*
X104843997Y-84028628D01*
X104848451Y-84029947D01*
X105050445Y-84069393D01*
X105053934Y-84069816D01*
X105057083Y-84069970D01*
X105058289Y-84070000D01*
X105150253Y-84070000D01*
X105157145Y-84067145D01*
X105160000Y-84060253D01*
X105760000Y-84060253D01*
X105762855Y-84067145D01*
X105769747Y-84070000D01*
X105811286Y-84070000D01*
X105813608Y-84069889D01*
X105966626Y-84055290D01*
X105971192Y-84054411D01*
X106168120Y-83996639D01*
X106172439Y-83994912D01*
X106354895Y-83900941D01*
X106358805Y-83898430D01*
X106520193Y-83771658D01*
X106523561Y-83768451D01*
X106658079Y-83613433D01*
X106660765Y-83609667D01*
X106763543Y-83432009D01*
X106765474Y-83427792D01*
X106817071Y-83279206D01*
X106816893Y-83276162D01*
X108032282Y-83276162D01*
X108044651Y-83327485D01*
X108046164Y-83331878D01*
X108131111Y-83518708D01*
X108133426Y-83522734D01*
X108252165Y-83690126D01*
X108255205Y-83693648D01*
X108403457Y-83835568D01*
X108407103Y-83838447D01*
X108579518Y-83949775D01*
X108583638Y-83951911D01*
X108681571Y-83991379D01*
X108708343Y-84017642D01*
X108708703Y-84055143D01*
X108703196Y-84065212D01*
X108680414Y-84097270D01*
X108639921Y-84154249D01*
X108638790Y-84157389D01*
X108638789Y-84157392D01*
X108594351Y-84280823D01*
X108591150Y-84289715D01*
X108580606Y-84433307D01*
X108581266Y-84436580D01*
X108581266Y-84436581D01*
X108590692Y-84483327D01*
X108609064Y-84574444D01*
X108674429Y-84702730D01*
X108771884Y-84808712D01*
X108774721Y-84810471D01*
X108844475Y-84853720D01*
X108894250Y-84884582D01*
X108897453Y-84885513D01*
X108897454Y-84885513D01*
X108974990Y-84908039D01*
X109032512Y-84924751D01*
X109035074Y-84924939D01*
X109035079Y-84924940D01*
X109039163Y-84925239D01*
X109042712Y-84925500D01*
X109146070Y-84925500D01*
X109147717Y-84925274D01*
X109147723Y-84925274D01*
X109199780Y-84918143D01*
X109252646Y-84910901D01*
X109311314Y-84885513D01*
X109381717Y-84855047D01*
X109381718Y-84855046D01*
X109384783Y-84853720D01*
X109390579Y-84849027D01*
X109468234Y-84786143D01*
X109496675Y-84763112D01*
X109569724Y-84660322D01*
X109578144Y-84648474D01*
X109578144Y-84648473D01*
X109580079Y-84645751D01*
X109593528Y-84608397D01*
X109627717Y-84513433D01*
X109627718Y-84513431D01*
X109628850Y-84510285D01*
X109639394Y-84366693D01*
X109636962Y-84354629D01*
X109615865Y-84250000D01*
X112319196Y-84250000D01*
X112319799Y-84253807D01*
X112335768Y-84354629D01*
X112340281Y-84383126D01*
X112342031Y-84386560D01*
X112392176Y-84484975D01*
X112401472Y-84503220D01*
X112496780Y-84598528D01*
X112500213Y-84600277D01*
X112500214Y-84600278D01*
X112501321Y-84600842D01*
X112616874Y-84659719D01*
X112620679Y-84660322D01*
X112620680Y-84660322D01*
X112746193Y-84680201D01*
X112750000Y-84680804D01*
X112753807Y-84680201D01*
X112879320Y-84660322D01*
X112879321Y-84660322D01*
X112883126Y-84659719D01*
X112998679Y-84600842D01*
X112999786Y-84600278D01*
X112999787Y-84600277D01*
X113003220Y-84598528D01*
X113036896Y-84564852D01*
X113071544Y-84550500D01*
X118378220Y-84550500D01*
X118386729Y-84551244D01*
X118404582Y-84554392D01*
X118404583Y-84554392D01*
X118408802Y-84555136D01*
X118413021Y-84554392D01*
X118413026Y-84554392D01*
X118419048Y-84553330D01*
X118432360Y-84552821D01*
X118522401Y-84561689D01*
X118546551Y-84564068D01*
X118555973Y-84565942D01*
X118683814Y-84604723D01*
X118692681Y-84608396D01*
X118746797Y-84637321D01*
X118810496Y-84671369D01*
X118818483Y-84676705D01*
X118907184Y-84749499D01*
X118916236Y-84759270D01*
X118922205Y-84767795D01*
X118925717Y-84770254D01*
X118925718Y-84770255D01*
X118940567Y-84780652D01*
X118947104Y-84786138D01*
X118996842Y-84835876D01*
X119010589Y-84862857D01*
X119030281Y-84987188D01*
X119091472Y-85107282D01*
X119186780Y-85202590D01*
X119190213Y-85204339D01*
X119190214Y-85204340D01*
X119237812Y-85228592D01*
X119306874Y-85263781D01*
X119310679Y-85264384D01*
X119310680Y-85264384D01*
X119436193Y-85284263D01*
X119440000Y-85284866D01*
X119443807Y-85284263D01*
X119569320Y-85264384D01*
X119569321Y-85264384D01*
X119573126Y-85263781D01*
X119642188Y-85228592D01*
X119689786Y-85204340D01*
X119689787Y-85204339D01*
X119693220Y-85202590D01*
X119788528Y-85107282D01*
X119849719Y-84987188D01*
X119870804Y-84854062D01*
X119856732Y-84765213D01*
X119850322Y-84724742D01*
X119850322Y-84724741D01*
X119849719Y-84720936D01*
X119809809Y-84642608D01*
X119790278Y-84604276D01*
X119790277Y-84604275D01*
X119788528Y-84600842D01*
X119693220Y-84505534D01*
X119689787Y-84503785D01*
X119689786Y-84503784D01*
X119633173Y-84474938D01*
X119573126Y-84444343D01*
X119569321Y-84443740D01*
X119569320Y-84443740D01*
X119503447Y-84433307D01*
X119448794Y-84424651D01*
X119421811Y-84410902D01*
X119372081Y-84361172D01*
X119366590Y-84354629D01*
X119356193Y-84339780D01*
X119356192Y-84339779D01*
X119353733Y-84336267D01*
X119342552Y-84328438D01*
X119338355Y-84325144D01*
X119222436Y-84223485D01*
X119222434Y-84223483D01*
X119221227Y-84222425D01*
X119219891Y-84221532D01*
X119077416Y-84126333D01*
X119077412Y-84126331D01*
X119076079Y-84125440D01*
X119074642Y-84124732D01*
X119074638Y-84124729D01*
X118920951Y-84048939D01*
X118920949Y-84048938D01*
X118919513Y-84048230D01*
X118754209Y-83992117D01*
X118582995Y-83958061D01*
X118581407Y-83957957D01*
X118581400Y-83957956D01*
X118493412Y-83952190D01*
X118471965Y-83950784D01*
X118468532Y-83950258D01*
X118468179Y-83950117D01*
X118465506Y-83949855D01*
X118463072Y-83949616D01*
X118463066Y-83949616D01*
X118461886Y-83949500D01*
X118453979Y-83949500D01*
X118450774Y-83949395D01*
X118427541Y-83947872D01*
X118422238Y-83947233D01*
X118413021Y-83945608D01*
X118413020Y-83945608D01*
X118408800Y-83944864D01*
X118404581Y-83945608D01*
X118404580Y-83945608D01*
X118386727Y-83948756D01*
X118378218Y-83949500D01*
X113071544Y-83949500D01*
X113036896Y-83935148D01*
X113003220Y-83901472D01*
X112999787Y-83899723D01*
X112999786Y-83899722D01*
X112943173Y-83870876D01*
X112883126Y-83840281D01*
X112879321Y-83839678D01*
X112879320Y-83839678D01*
X112753807Y-83819799D01*
X112750000Y-83819196D01*
X112746193Y-83819799D01*
X112620680Y-83839678D01*
X112620679Y-83839678D01*
X112616874Y-83840281D01*
X112556827Y-83870877D01*
X112500214Y-83899722D01*
X112500213Y-83899723D01*
X112496780Y-83901472D01*
X112401472Y-83996780D01*
X112399723Y-84000213D01*
X112399722Y-84000214D01*
X112381036Y-84036888D01*
X112340281Y-84116874D01*
X112339678Y-84120679D01*
X112339678Y-84120680D01*
X112327175Y-84199621D01*
X112319196Y-84250000D01*
X109615865Y-84250000D01*
X109611597Y-84228835D01*
X109610936Y-84225556D01*
X109597722Y-84199621D01*
X109557499Y-84120680D01*
X109545571Y-84097270D01*
X109526571Y-84076607D01*
X109511533Y-84060253D01*
X109940000Y-84060253D01*
X109942855Y-84067145D01*
X109949747Y-84070000D01*
X110241286Y-84070000D01*
X110243608Y-84069889D01*
X110396626Y-84055290D01*
X110401192Y-84054411D01*
X110598120Y-83996639D01*
X110602439Y-83994912D01*
X110784895Y-83900941D01*
X110788805Y-83898430D01*
X110950193Y-83771658D01*
X110953561Y-83768451D01*
X111088079Y-83613433D01*
X111090765Y-83609667D01*
X111193543Y-83432009D01*
X111195474Y-83427792D01*
X111247071Y-83279206D01*
X111246635Y-83271761D01*
X111244655Y-83270000D01*
X109949747Y-83270000D01*
X109942855Y-83272855D01*
X109940000Y-83279747D01*
X109940000Y-84060253D01*
X109511533Y-84060253D01*
X109453036Y-83996639D01*
X109448116Y-83991288D01*
X109363179Y-83938625D01*
X109341295Y-83908169D01*
X109340000Y-83896980D01*
X109340000Y-83279747D01*
X109337145Y-83272855D01*
X109330253Y-83270000D01*
X108040544Y-83270000D01*
X108033652Y-83272855D01*
X108032282Y-83276162D01*
X106816893Y-83276162D01*
X106816635Y-83271761D01*
X106814655Y-83270000D01*
X105769747Y-83270000D01*
X105762855Y-83272855D01*
X105760000Y-83279747D01*
X105760000Y-84060253D01*
X105160000Y-84060253D01*
X105160000Y-83279747D01*
X105157145Y-83272855D01*
X105150253Y-83270000D01*
X104110544Y-83270000D01*
X104103652Y-83272855D01*
X104102282Y-83276162D01*
X103236000Y-83276162D01*
X103236000Y-82990000D01*
X117569196Y-82990000D01*
X117590281Y-83123126D01*
X117592031Y-83126560D01*
X117634920Y-83210734D01*
X117651472Y-83243220D01*
X117746780Y-83338528D01*
X117750213Y-83340277D01*
X117750214Y-83340278D01*
X117806827Y-83369124D01*
X117866874Y-83399719D01*
X117870679Y-83400322D01*
X117870680Y-83400322D01*
X117996193Y-83420201D01*
X118000000Y-83420804D01*
X118003807Y-83420201D01*
X118129320Y-83400322D01*
X118129321Y-83400322D01*
X118133126Y-83399719D01*
X118193173Y-83369123D01*
X118249786Y-83340278D01*
X118249787Y-83340277D01*
X118253220Y-83338528D01*
X118348528Y-83243220D01*
X118365081Y-83210734D01*
X118407969Y-83126560D01*
X118409719Y-83123126D01*
X118418133Y-83070000D01*
X118789196Y-83070000D01*
X118810281Y-83203126D01*
X118828960Y-83239786D01*
X118859949Y-83300604D01*
X118871472Y-83323220D01*
X118966780Y-83418528D01*
X118970215Y-83420278D01*
X119019801Y-83445544D01*
X119044157Y-83474061D01*
X119041669Y-83505672D01*
X119043223Y-83506177D01*
X119042031Y-83509846D01*
X119040281Y-83513280D01*
X119039678Y-83517085D01*
X119039678Y-83517086D01*
X119036881Y-83534747D01*
X119019196Y-83646406D01*
X119040281Y-83779532D01*
X119042031Y-83782966D01*
X119088670Y-83874500D01*
X119101472Y-83899626D01*
X119196780Y-83994934D01*
X119200213Y-83996683D01*
X119200214Y-83996684D01*
X119241347Y-84017642D01*
X119316874Y-84056125D01*
X119320679Y-84056728D01*
X119320680Y-84056728D01*
X119446193Y-84076607D01*
X119450000Y-84077210D01*
X119453807Y-84076607D01*
X119579320Y-84056728D01*
X119579321Y-84056728D01*
X119583126Y-84056125D01*
X119658653Y-84017642D01*
X119699786Y-83996684D01*
X119699787Y-83996683D01*
X119703220Y-83994934D01*
X119798528Y-83899626D01*
X119811331Y-83874500D01*
X119857969Y-83782966D01*
X119859719Y-83779532D01*
X119880804Y-83646406D01*
X119863119Y-83534747D01*
X119860322Y-83517086D01*
X119860322Y-83517085D01*
X119859719Y-83513280D01*
X119812293Y-83420201D01*
X119800278Y-83396620D01*
X119800277Y-83396619D01*
X119798528Y-83393186D01*
X119703220Y-83297878D01*
X119667636Y-83279747D01*
X119650199Y-83270862D01*
X119625843Y-83242345D01*
X119628331Y-83210734D01*
X119626777Y-83210229D01*
X119627969Y-83206560D01*
X119629719Y-83203126D01*
X119650804Y-83070000D01*
X119629719Y-82936874D01*
X119618702Y-82915253D01*
X123925000Y-82915253D01*
X123927855Y-82922145D01*
X123934747Y-82925000D01*
X124890253Y-82925000D01*
X124897145Y-82922145D01*
X124900000Y-82915253D01*
X124900000Y-81959748D01*
X124897145Y-81952856D01*
X124890253Y-81950001D01*
X124487279Y-81950001D01*
X124484091Y-81950210D01*
X124371552Y-81965025D01*
X124365401Y-81966673D01*
X124225379Y-82024672D01*
X124219862Y-82027857D01*
X124099624Y-82120119D01*
X124095119Y-82124624D01*
X124002857Y-82244863D01*
X123999672Y-82250380D01*
X123941674Y-82390400D01*
X123940025Y-82396553D01*
X123925209Y-82509092D01*
X123925000Y-82512277D01*
X123925000Y-82915253D01*
X119618702Y-82915253D01*
X119610646Y-82899442D01*
X119607703Y-82862055D01*
X119632059Y-82833537D01*
X119699785Y-82799028D01*
X119703220Y-82797278D01*
X119798528Y-82701970D01*
X119859719Y-82581876D01*
X119880804Y-82448750D01*
X119859719Y-82315624D01*
X119829124Y-82255577D01*
X119800278Y-82198964D01*
X119800277Y-82198963D01*
X119798528Y-82195530D01*
X119703220Y-82100222D01*
X119699787Y-82098473D01*
X119699786Y-82098472D01*
X119588109Y-82041570D01*
X119583126Y-82039031D01*
X119579321Y-82038428D01*
X119579320Y-82038428D01*
X119453807Y-82018549D01*
X119450000Y-82017946D01*
X119446193Y-82018549D01*
X119320680Y-82038428D01*
X119320679Y-82038428D01*
X119316874Y-82039031D01*
X119311891Y-82041570D01*
X119200214Y-82098472D01*
X119200213Y-82098473D01*
X119196780Y-82100222D01*
X119101472Y-82195530D01*
X119099723Y-82198963D01*
X119099722Y-82198964D01*
X119070876Y-82255577D01*
X119040281Y-82315624D01*
X119019196Y-82448750D01*
X119040281Y-82581876D01*
X119042031Y-82585310D01*
X119059354Y-82619308D01*
X119062297Y-82656695D01*
X119037941Y-82685213D01*
X118992027Y-82708608D01*
X118966780Y-82721472D01*
X118871472Y-82816780D01*
X118810281Y-82936874D01*
X118789196Y-83070000D01*
X118418133Y-83070000D01*
X118430804Y-82990000D01*
X118409719Y-82856874D01*
X118348528Y-82736780D01*
X118253220Y-82641472D01*
X118249787Y-82639723D01*
X118249786Y-82639722D01*
X118187767Y-82608122D01*
X118133126Y-82580281D01*
X118129321Y-82579678D01*
X118129320Y-82579678D01*
X118003807Y-82559799D01*
X118000000Y-82559196D01*
X117996193Y-82559799D01*
X117870680Y-82579678D01*
X117870679Y-82579678D01*
X117866874Y-82580281D01*
X117812233Y-82608122D01*
X117750214Y-82639722D01*
X117750213Y-82639723D01*
X117746780Y-82641472D01*
X117651472Y-82736780D01*
X117590281Y-82856874D01*
X117569196Y-82990000D01*
X103236000Y-82990000D01*
X103236000Y-82660794D01*
X104102929Y-82660794D01*
X104103365Y-82668239D01*
X104105345Y-82670000D01*
X105150253Y-82670000D01*
X105157145Y-82667145D01*
X105160000Y-82660253D01*
X105760000Y-82660253D01*
X105762855Y-82667145D01*
X105769747Y-82670000D01*
X106809456Y-82670000D01*
X106816348Y-82667145D01*
X106817718Y-82663838D01*
X106816984Y-82660794D01*
X108032929Y-82660794D01*
X108033365Y-82668239D01*
X108035345Y-82670000D01*
X109330253Y-82670000D01*
X109337145Y-82667145D01*
X109340000Y-82660253D01*
X109940000Y-82660253D01*
X109942855Y-82667145D01*
X109949747Y-82670000D01*
X111239456Y-82670000D01*
X111246348Y-82667145D01*
X111247718Y-82663838D01*
X111235349Y-82612515D01*
X111233836Y-82608122D01*
X111148889Y-82421292D01*
X111146574Y-82417266D01*
X111027835Y-82249874D01*
X111024795Y-82246352D01*
X110876543Y-82104432D01*
X110872897Y-82101553D01*
X110700482Y-81990225D01*
X110696362Y-81988089D01*
X110506003Y-81911372D01*
X110501549Y-81910053D01*
X110299555Y-81870607D01*
X110296066Y-81870184D01*
X110292917Y-81870030D01*
X110291711Y-81870000D01*
X109949747Y-81870000D01*
X109942855Y-81872855D01*
X109940000Y-81879747D01*
X109940000Y-82660253D01*
X109340000Y-82660253D01*
X109340000Y-81879747D01*
X109337145Y-81872855D01*
X109330253Y-81870000D01*
X109038714Y-81870000D01*
X109036392Y-81870111D01*
X108883374Y-81884710D01*
X108878808Y-81885589D01*
X108681880Y-81943361D01*
X108677561Y-81945088D01*
X108495105Y-82039059D01*
X108491195Y-82041570D01*
X108329807Y-82168342D01*
X108326439Y-82171549D01*
X108191921Y-82326567D01*
X108189235Y-82330333D01*
X108086457Y-82507991D01*
X108084526Y-82512208D01*
X108032929Y-82660794D01*
X106816984Y-82660794D01*
X106805349Y-82612515D01*
X106803836Y-82608122D01*
X106718889Y-82421292D01*
X106716574Y-82417266D01*
X106597835Y-82249874D01*
X106594795Y-82246352D01*
X106446543Y-82104432D01*
X106442897Y-82101553D01*
X106270482Y-81990225D01*
X106266362Y-81988089D01*
X106076003Y-81911372D01*
X106071549Y-81910053D01*
X105869555Y-81870607D01*
X105866066Y-81870184D01*
X105862917Y-81870030D01*
X105861711Y-81870000D01*
X105769747Y-81870000D01*
X105762855Y-81872855D01*
X105760000Y-81879747D01*
X105760000Y-82660253D01*
X105160000Y-82660253D01*
X105160000Y-81879747D01*
X105157145Y-81872855D01*
X105150253Y-81870000D01*
X105108714Y-81870000D01*
X105106392Y-81870111D01*
X104953374Y-81884710D01*
X104948808Y-81885589D01*
X104751880Y-81943361D01*
X104747561Y-81945088D01*
X104565105Y-82039059D01*
X104561195Y-82041570D01*
X104399807Y-82168342D01*
X104396439Y-82171549D01*
X104261921Y-82326567D01*
X104259235Y-82330333D01*
X104156457Y-82507991D01*
X104154526Y-82512208D01*
X104102929Y-82660794D01*
X103236000Y-82660794D01*
X103236000Y-81749000D01*
X103250352Y-81714352D01*
X103285000Y-81700000D01*
X126371000Y-81700000D01*
X126405648Y-81714352D01*
G37*
%TD.AperFunction*%
%TD*%
M02*
