%TF.GenerationSoftware,KiCad,Pcbnew,(6.0.0)*%
%TF.CreationDate,2022-02-12T21:10:29+08:00*%
%TF.ProjectId,USB-TTL-V1,5553422d-5454-44c2-9d56-312e6b696361,rev?*%
%TF.SameCoordinates,Original*%
%TF.FileFunction,Copper,L3,Inr*%
%TF.FilePolarity,Positive*%
%FSLAX46Y46*%
G04 Gerber Fmt 4.6, Leading zero omitted, Abs format (unit mm)*
G04 Created by KiCad (PCBNEW (6.0.0)) date 2022-02-12 21:10:29*
%MOMM*%
%LPD*%
G01*
G04 APERTURE LIST*
%TA.AperFunction,ComponentPad*%
%ADD10O,1.600000X1.000000*%
%TD*%
%TA.AperFunction,ComponentPad*%
%ADD11O,2.100000X1.000000*%
%TD*%
%TA.AperFunction,ComponentPad*%
%ADD12R,1.000000X1.000000*%
%TD*%
%TA.AperFunction,ComponentPad*%
%ADD13O,1.000000X1.000000*%
%TD*%
%TA.AperFunction,ViaPad*%
%ADD14C,0.450000*%
%TD*%
%TA.AperFunction,Conductor*%
%ADD15C,0.200000*%
%TD*%
%TA.AperFunction,Conductor*%
%ADD16C,0.400000*%
%TD*%
G04 APERTURE END LIST*
D10*
%TO.N,GND*%
%TO.C,J2*%
X105460000Y-91610000D03*
D11*
X109640000Y-91610000D03*
D10*
X105460000Y-82970000D03*
D11*
X109640000Y-82970000D03*
%TD*%
D12*
%TO.N,+3V3*%
%TO.C,J1*%
X131720000Y-84115000D03*
D13*
%TO.N,GND*%
X131720000Y-85385000D03*
%TO.N,/RST*%
X131720000Y-86655000D03*
%TO.N,/GPIO0*%
X131720000Y-87925000D03*
%TO.N,/RXD*%
X131720000Y-89195000D03*
%TO.N,/TXD*%
X131720000Y-90465000D03*
%TD*%
D14*
%TO.N,GND*%
X129920000Y-88500000D03*
X129920000Y-87300000D03*
X129920000Y-85990000D03*
X129920000Y-85000000D03*
X130210556Y-83401331D03*
X132120000Y-82440000D03*
X131230000Y-82440000D03*
X130250000Y-82440000D03*
X120480000Y-83710000D03*
X119740000Y-83700000D03*
X119010000Y-83690000D03*
X114300000Y-83740000D03*
X115410000Y-82420000D03*
X114620000Y-82410000D03*
X113970000Y-92150000D03*
X111320000Y-92310000D03*
X111080000Y-91610000D03*
X106720000Y-88410000D03*
X106120000Y-88410000D03*
X105520000Y-88410000D03*
X104920000Y-88410000D03*
X104320000Y-88410000D03*
X106720000Y-87810000D03*
X106120000Y-87810000D03*
X105520000Y-87810000D03*
X104920000Y-87810000D03*
X104320000Y-87810000D03*
X106720000Y-87210000D03*
X106120000Y-87210000D03*
X105520000Y-87210000D03*
X104920000Y-87210000D03*
X104320000Y-87210000D03*
X106720000Y-86610000D03*
X106120000Y-86610000D03*
X105520000Y-86610000D03*
X104920000Y-86610000D03*
X104320000Y-86610000D03*
X106720000Y-86010000D03*
X106120000Y-86010000D03*
X105520000Y-86010000D03*
X104920000Y-86010000D03*
X104330000Y-86020000D03*
X120470000Y-83030000D03*
X119730000Y-83030000D03*
X119010000Y-83010000D03*
X120410000Y-82340000D03*
X119710000Y-82340000D03*
X118960000Y-82350000D03*
X129310000Y-82440000D03*
X129340000Y-83400000D03*
X126140000Y-83310000D03*
X126130000Y-82540000D03*
%TO.N,/GPIO0*%
X127830000Y-91920000D03*
%TO.N,/TXD*%
X124975000Y-90708568D03*
X125010000Y-86580000D03*
%TO.N,/RXD*%
X125800000Y-85510000D03*
X125760000Y-88790000D03*
%TO.N,Net-(Q1-Pad1)*%
X126830000Y-86730000D03*
X126860000Y-85160000D03*
%TO.N,+3V3*%
X125000000Y-92080000D03*
X125000000Y-87965712D03*
X123990000Y-83861428D03*
X122390000Y-83005000D03*
X117190000Y-86815000D03*
%TO.N,GND*%
X115590000Y-87724500D03*
X115570000Y-86630000D03*
%TO.N,Net-(J2-PadA6)*%
X117190000Y-88085000D03*
X112060000Y-87260000D03*
%TO.N,Net-(J2-PadA7)*%
X117190000Y-89340000D03*
X109310000Y-88070000D03*
%TD*%
D15*
%TO.N,/GPIO0*%
X127830000Y-91815000D02*
X131720000Y-87925000D01*
X127830000Y-91920000D02*
X127830000Y-91815000D01*
D16*
%TO.N,+3V3*%
X124243572Y-84115000D02*
X131720000Y-84115000D01*
X123990000Y-83861428D02*
X124243572Y-84115000D01*
X125599501Y-91480499D02*
X125000000Y-92080000D01*
X125599501Y-90449890D02*
X125599501Y-91480499D01*
X125000000Y-89850389D02*
X125599501Y-90449890D01*
X125000000Y-87965712D02*
X125000000Y-89850389D01*
X123990000Y-86955712D02*
X125000000Y-87965712D01*
X123990000Y-83861428D02*
X123990000Y-86955712D01*
X118580000Y-86815000D02*
X122390000Y-83005000D01*
X117190000Y-86815000D02*
X118580000Y-86815000D01*
%TD*%
%TA.AperFunction,Conductor*%
%TO.N,GND*%
G36*
X104737269Y-81788907D02*
G01*
X104773233Y-81838407D01*
X104773233Y-81899593D01*
X104737269Y-81949093D01*
X104724407Y-81957013D01*
X104567220Y-82037969D01*
X104559329Y-82043036D01*
X104401676Y-82166874D01*
X104394878Y-82173347D01*
X104263488Y-82324761D01*
X104258037Y-82332403D01*
X104157648Y-82505932D01*
X104153746Y-82514454D01*
X104104875Y-82655189D01*
X104104654Y-82666213D01*
X104115922Y-82670000D01*
X106803523Y-82670000D01*
X106815625Y-82666068D01*
X106815990Y-82656667D01*
X106805907Y-82614829D01*
X106802852Y-82605957D01*
X106719874Y-82423459D01*
X106715198Y-82415326D01*
X106599209Y-82251811D01*
X106593080Y-82244711D01*
X106448262Y-82106077D01*
X106440899Y-82100263D01*
X106272477Y-81991513D01*
X106264161Y-81987202D01*
X106198708Y-81960824D01*
X106151803Y-81921536D01*
X106136949Y-81862181D01*
X106159820Y-81805430D01*
X106211680Y-81772962D01*
X106235714Y-81770000D01*
X108609078Y-81770000D01*
X108667269Y-81788907D01*
X108703233Y-81838407D01*
X108703233Y-81899593D01*
X108667269Y-81949093D01*
X108654407Y-81957013D01*
X108497220Y-82037969D01*
X108489329Y-82043036D01*
X108331676Y-82166874D01*
X108324878Y-82173347D01*
X108193488Y-82324761D01*
X108188037Y-82332403D01*
X108087648Y-82505932D01*
X108083746Y-82514454D01*
X108034875Y-82655189D01*
X108034654Y-82666213D01*
X108045922Y-82670000D01*
X111233523Y-82670000D01*
X111245625Y-82666068D01*
X111245990Y-82656667D01*
X111235907Y-82614829D01*
X111232852Y-82605957D01*
X111149874Y-82423459D01*
X111145198Y-82415326D01*
X111029209Y-82251811D01*
X111023080Y-82244711D01*
X110878262Y-82106077D01*
X110870899Y-82100263D01*
X110702477Y-81991513D01*
X110694161Y-81987202D01*
X110628708Y-81960824D01*
X110581803Y-81921536D01*
X110566949Y-81862181D01*
X110589820Y-81805430D01*
X110641680Y-81772962D01*
X110665714Y-81770000D01*
X133041000Y-81770000D01*
X133099191Y-81788907D01*
X133135155Y-81838407D01*
X133140000Y-81869000D01*
X133140000Y-92571000D01*
X133121093Y-92629191D01*
X133071593Y-92665155D01*
X133041000Y-92670000D01*
X125191670Y-92670000D01*
X125133479Y-92651093D01*
X125097515Y-92601593D01*
X125097515Y-92540407D01*
X125133479Y-92490907D01*
X125146725Y-92482790D01*
X125246281Y-92432064D01*
X125246283Y-92432063D01*
X125253220Y-92428528D01*
X125348528Y-92333220D01*
X125378138Y-92275107D01*
X125396342Y-92250051D01*
X125726392Y-91920000D01*
X127399196Y-91920000D01*
X127400415Y-91927696D01*
X127407756Y-91974043D01*
X127420281Y-92053126D01*
X127423817Y-92060065D01*
X127423817Y-92060066D01*
X127477118Y-92164674D01*
X127481472Y-92173220D01*
X127576780Y-92268528D01*
X127583717Y-92272063D01*
X127583719Y-92272064D01*
X127689934Y-92326183D01*
X127696874Y-92329719D01*
X127704568Y-92330938D01*
X127704569Y-92330938D01*
X127822304Y-92349585D01*
X127830000Y-92350804D01*
X127837696Y-92349585D01*
X127955431Y-92330938D01*
X127955432Y-92330938D01*
X127963126Y-92329719D01*
X127970066Y-92326183D01*
X128076281Y-92272064D01*
X128076283Y-92272063D01*
X128083220Y-92268528D01*
X128178528Y-92173220D01*
X128182883Y-92164674D01*
X128236183Y-92060066D01*
X128236183Y-92060065D01*
X128239719Y-92053126D01*
X128252245Y-91974043D01*
X128259585Y-91927696D01*
X128260804Y-91920000D01*
X128253541Y-91874144D01*
X128263112Y-91813712D01*
X128281318Y-91788653D01*
X130855484Y-89214487D01*
X130910001Y-89186710D01*
X130970433Y-89196281D01*
X131013698Y-89239546D01*
X131023890Y-89273627D01*
X131031218Y-89340000D01*
X131032999Y-89356135D01*
X131091266Y-89515356D01*
X131094591Y-89520305D01*
X131094592Y-89520306D01*
X131107689Y-89539796D01*
X131185830Y-89656083D01*
X131297374Y-89757580D01*
X131327687Y-89810725D01*
X131320973Y-89871541D01*
X131295824Y-89905404D01*
X131195604Y-89992831D01*
X131192173Y-89997713D01*
X131192172Y-89997714D01*
X131112347Y-90111294D01*
X131098113Y-90131547D01*
X131095945Y-90137108D01*
X131054485Y-90243447D01*
X131036524Y-90289513D01*
X131014394Y-90457611D01*
X131015049Y-90463544D01*
X131015049Y-90463548D01*
X131029254Y-90592212D01*
X131032999Y-90626135D01*
X131091266Y-90785356D01*
X131094591Y-90790305D01*
X131094592Y-90790306D01*
X131129123Y-90841694D01*
X131185830Y-90926083D01*
X131311233Y-91040191D01*
X131460235Y-91121092D01*
X131495189Y-91130262D01*
X131618464Y-91162603D01*
X131618468Y-91162604D01*
X131624233Y-91164116D01*
X131630194Y-91164210D01*
X131630197Y-91164210D01*
X131708996Y-91165447D01*
X131793760Y-91166779D01*
X131799575Y-91165447D01*
X131799577Y-91165447D01*
X131953206Y-91130262D01*
X131953209Y-91130261D01*
X131959029Y-91128928D01*
X131974610Y-91121092D01*
X132072249Y-91071984D01*
X132110498Y-91052747D01*
X132115035Y-91048872D01*
X132115038Y-91048870D01*
X132234888Y-90946508D01*
X132234891Y-90946505D01*
X132239423Y-90942634D01*
X132338361Y-90804947D01*
X132377106Y-90708568D01*
X132399377Y-90653167D01*
X132399378Y-90653165D01*
X132401601Y-90647634D01*
X132402442Y-90641727D01*
X132425034Y-90482985D01*
X132425034Y-90482979D01*
X132425490Y-90479778D01*
X132425645Y-90465000D01*
X132411383Y-90347144D01*
X132405993Y-90302602D01*
X132405992Y-90302599D01*
X132405276Y-90296680D01*
X132345345Y-90138077D01*
X132326941Y-90111298D01*
X132252692Y-90003267D01*
X132249312Y-89998349D01*
X132142554Y-89903230D01*
X132111684Y-89850404D01*
X132117761Y-89789521D01*
X132144117Y-89754034D01*
X132234884Y-89676512D01*
X132234890Y-89676506D01*
X132239423Y-89672634D01*
X132242904Y-89667790D01*
X132334877Y-89539796D01*
X132334878Y-89539794D01*
X132338361Y-89534947D01*
X132360424Y-89480066D01*
X132399377Y-89383167D01*
X132399378Y-89383165D01*
X132401601Y-89377634D01*
X132406957Y-89340000D01*
X132425034Y-89212985D01*
X132425034Y-89212979D01*
X132425490Y-89209778D01*
X132425645Y-89195000D01*
X132405276Y-89026680D01*
X132345345Y-88868077D01*
X132286395Y-88782304D01*
X132252692Y-88733267D01*
X132249312Y-88728349D01*
X132142554Y-88633230D01*
X132111684Y-88580404D01*
X132117761Y-88519521D01*
X132144117Y-88484034D01*
X132234884Y-88406512D01*
X132234890Y-88406506D01*
X132239423Y-88402634D01*
X132242904Y-88397790D01*
X132334877Y-88269796D01*
X132334878Y-88269794D01*
X132338361Y-88264947D01*
X132354394Y-88225066D01*
X132399377Y-88113167D01*
X132399378Y-88113165D01*
X132401601Y-88107634D01*
X132404661Y-88086135D01*
X132425034Y-87942985D01*
X132425034Y-87942979D01*
X132425490Y-87939778D01*
X132425645Y-87925000D01*
X132405276Y-87756680D01*
X132345345Y-87598077D01*
X132338128Y-87587575D01*
X132252692Y-87463267D01*
X132249312Y-87458349D01*
X132142554Y-87363230D01*
X132111684Y-87310404D01*
X132117761Y-87249521D01*
X132144117Y-87214034D01*
X132234884Y-87136512D01*
X132234890Y-87136506D01*
X132239423Y-87132634D01*
X132248149Y-87120491D01*
X132334877Y-86999796D01*
X132334878Y-86999794D01*
X132338361Y-86994947D01*
X132343076Y-86983220D01*
X132399377Y-86843167D01*
X132399378Y-86843165D01*
X132401601Y-86837634D01*
X132402442Y-86831727D01*
X132425034Y-86672985D01*
X132425034Y-86672979D01*
X132425490Y-86669778D01*
X132425645Y-86655000D01*
X132410392Y-86528953D01*
X132405993Y-86492602D01*
X132405992Y-86492599D01*
X132405276Y-86486680D01*
X132360983Y-86369462D01*
X132358101Y-86308345D01*
X132390288Y-86258353D01*
X132497650Y-86169061D01*
X132504061Y-86162650D01*
X132627518Y-86014209D01*
X132632641Y-86006755D01*
X132726989Y-85838286D01*
X132730665Y-85830030D01*
X132774855Y-85699849D01*
X132775001Y-85688693D01*
X132763884Y-85685000D01*
X130676869Y-85685000D01*
X130664959Y-85688870D01*
X130664641Y-85698591D01*
X130677534Y-85749359D01*
X130680554Y-85757887D01*
X130761386Y-85933225D01*
X130765917Y-85941072D01*
X130877348Y-86098744D01*
X130883222Y-86105622D01*
X131021527Y-86240352D01*
X131028562Y-86246049D01*
X131040967Y-86254338D01*
X131078846Y-86302388D01*
X131081248Y-86363526D01*
X131078202Y-86372615D01*
X131039736Y-86471274D01*
X131036524Y-86479513D01*
X131014394Y-86647611D01*
X131015049Y-86653544D01*
X131015049Y-86653548D01*
X131032024Y-86807304D01*
X131032999Y-86816135D01*
X131091266Y-86975356D01*
X131094591Y-86980305D01*
X131094592Y-86980306D01*
X131107689Y-86999796D01*
X131185830Y-87116083D01*
X131297374Y-87217580D01*
X131327687Y-87270725D01*
X131320973Y-87331541D01*
X131295824Y-87365404D01*
X131195604Y-87452831D01*
X131098113Y-87591547D01*
X131085971Y-87622690D01*
X131041609Y-87736472D01*
X131036524Y-87749513D01*
X131014394Y-87917611D01*
X131015049Y-87923544D01*
X131015049Y-87923548D01*
X131019026Y-87959569D01*
X131032999Y-88086135D01*
X131038312Y-88100654D01*
X131040556Y-88161796D01*
X131015347Y-88204681D01*
X127730852Y-91489177D01*
X127696764Y-91510065D01*
X127696874Y-91510281D01*
X127689936Y-91513816D01*
X127583719Y-91567936D01*
X127583717Y-91567937D01*
X127576780Y-91571472D01*
X127481472Y-91666780D01*
X127477937Y-91673717D01*
X127477936Y-91673719D01*
X127450312Y-91727935D01*
X127420281Y-91786874D01*
X127419062Y-91794568D01*
X127419062Y-91794569D01*
X127406459Y-91874144D01*
X127399196Y-91920000D01*
X125726392Y-91920000D01*
X125904984Y-91741408D01*
X125927551Y-91718841D01*
X125938505Y-91697343D01*
X125946612Y-91684113D01*
X125960797Y-91664589D01*
X125968252Y-91641643D01*
X125974197Y-91627293D01*
X125985147Y-91605803D01*
X125988921Y-91581974D01*
X125992547Y-91566872D01*
X125997593Y-91551342D01*
X125997594Y-91551339D01*
X126000000Y-91543932D01*
X126000000Y-91512024D01*
X126000001Y-91512018D01*
X126000001Y-90418371D01*
X126000000Y-90418365D01*
X126000000Y-90386457D01*
X125997594Y-90379050D01*
X125997593Y-90379047D01*
X125992547Y-90363517D01*
X125988921Y-90348414D01*
X125986366Y-90332282D01*
X125985147Y-90324586D01*
X125974196Y-90303094D01*
X125968252Y-90288745D01*
X125963205Y-90273211D01*
X125963205Y-90273210D01*
X125960797Y-90265800D01*
X125946612Y-90246276D01*
X125938505Y-90233046D01*
X125927551Y-90211548D01*
X125637233Y-89921230D01*
X125429496Y-89713492D01*
X125401719Y-89658975D01*
X125400500Y-89643488D01*
X125400500Y-89245929D01*
X125419407Y-89187738D01*
X125468907Y-89151774D01*
X125530093Y-89151774D01*
X125544442Y-89157718D01*
X125599337Y-89185688D01*
X125611311Y-89191789D01*
X125626874Y-89199719D01*
X125634568Y-89200938D01*
X125634569Y-89200938D01*
X125752304Y-89219585D01*
X125760000Y-89220804D01*
X125767696Y-89219585D01*
X125885431Y-89200938D01*
X125885432Y-89200938D01*
X125893126Y-89199719D01*
X125902388Y-89195000D01*
X126006281Y-89142064D01*
X126006283Y-89142063D01*
X126013220Y-89138528D01*
X126108528Y-89043220D01*
X126113939Y-89032602D01*
X126166183Y-88930066D01*
X126166183Y-88930065D01*
X126169719Y-88923126D01*
X126171926Y-88909196D01*
X126189585Y-88797696D01*
X126190804Y-88790000D01*
X126181818Y-88733267D01*
X126170938Y-88664569D01*
X126170938Y-88664568D01*
X126169719Y-88656874D01*
X126157672Y-88633231D01*
X126112064Y-88543719D01*
X126112063Y-88543717D01*
X126108528Y-88536780D01*
X126013220Y-88441472D01*
X126006283Y-88437937D01*
X126006281Y-88437936D01*
X125900066Y-88383817D01*
X125900065Y-88383817D01*
X125893126Y-88380281D01*
X125885432Y-88379062D01*
X125885431Y-88379062D01*
X125767696Y-88360415D01*
X125760000Y-88359196D01*
X125752304Y-88360415D01*
X125634569Y-88379062D01*
X125634568Y-88379062D01*
X125626874Y-88380281D01*
X125544444Y-88422281D01*
X125484013Y-88431852D01*
X125429497Y-88404075D01*
X125401719Y-88349558D01*
X125400500Y-88334071D01*
X125400500Y-88138946D01*
X125405346Y-88108353D01*
X125406183Y-88105779D01*
X125409719Y-88098838D01*
X125414287Y-88070000D01*
X125429585Y-87973408D01*
X125430804Y-87965712D01*
X125409719Y-87832586D01*
X125405201Y-87823719D01*
X125352064Y-87719431D01*
X125352063Y-87719429D01*
X125348528Y-87712492D01*
X125253220Y-87617184D01*
X125246283Y-87613649D01*
X125246281Y-87613648D01*
X125195109Y-87587575D01*
X125170050Y-87569369D01*
X124734786Y-87134105D01*
X124707009Y-87079588D01*
X124716580Y-87019156D01*
X124759845Y-86975891D01*
X124820277Y-86966320D01*
X124849735Y-86975891D01*
X124876874Y-86989719D01*
X124884568Y-86990938D01*
X124884569Y-86990938D01*
X124973022Y-87004947D01*
X124984594Y-87006780D01*
X125002304Y-87009585D01*
X125010000Y-87010804D01*
X125017696Y-87009585D01*
X125035407Y-87006780D01*
X125046978Y-87004947D01*
X125135431Y-86990938D01*
X125135432Y-86990938D01*
X125143126Y-86989719D01*
X125182306Y-86969756D01*
X125256281Y-86932064D01*
X125256283Y-86932063D01*
X125263220Y-86928528D01*
X125358528Y-86833220D01*
X125363891Y-86822696D01*
X125411121Y-86730000D01*
X126399196Y-86730000D01*
X126400415Y-86737696D01*
X126418807Y-86853817D01*
X126420281Y-86863126D01*
X126423817Y-86870065D01*
X126423817Y-86870066D01*
X126477738Y-86975891D01*
X126481472Y-86983220D01*
X126576780Y-87078528D01*
X126583717Y-87082063D01*
X126583719Y-87082064D01*
X126689934Y-87136183D01*
X126696874Y-87139719D01*
X126704568Y-87140938D01*
X126704569Y-87140938D01*
X126787022Y-87153997D01*
X126820612Y-87159317D01*
X126822304Y-87159585D01*
X126830000Y-87160804D01*
X126837696Y-87159585D01*
X126839389Y-87159317D01*
X126872978Y-87153997D01*
X126955431Y-87140938D01*
X126955432Y-87140938D01*
X126963126Y-87139719D01*
X126970066Y-87136183D01*
X127076281Y-87082064D01*
X127076283Y-87082063D01*
X127083220Y-87078528D01*
X127178528Y-86983220D01*
X127182263Y-86975891D01*
X127236183Y-86870066D01*
X127236183Y-86870065D01*
X127239719Y-86863126D01*
X127241194Y-86853817D01*
X127259585Y-86737696D01*
X127260804Y-86730000D01*
X127246817Y-86641690D01*
X127240938Y-86604569D01*
X127240938Y-86604568D01*
X127239719Y-86596874D01*
X127219032Y-86556274D01*
X127182064Y-86483719D01*
X127182063Y-86483717D01*
X127178528Y-86476780D01*
X127083220Y-86381472D01*
X127076283Y-86377937D01*
X127076281Y-86377936D01*
X126970066Y-86323817D01*
X126970065Y-86323817D01*
X126963126Y-86320281D01*
X126955432Y-86319062D01*
X126955431Y-86319062D01*
X126866978Y-86305053D01*
X126830000Y-86299196D01*
X126793022Y-86305053D01*
X126704569Y-86319062D01*
X126704568Y-86319062D01*
X126696874Y-86320281D01*
X126689935Y-86323817D01*
X126689934Y-86323817D01*
X126583719Y-86377936D01*
X126583717Y-86377937D01*
X126576780Y-86381472D01*
X126481472Y-86476780D01*
X126477937Y-86483717D01*
X126477936Y-86483719D01*
X126440968Y-86556274D01*
X126420281Y-86596874D01*
X126419062Y-86604568D01*
X126419062Y-86604569D01*
X126413183Y-86641690D01*
X126399196Y-86730000D01*
X125411121Y-86730000D01*
X125416183Y-86720066D01*
X125416183Y-86720065D01*
X125419719Y-86713126D01*
X125428414Y-86658231D01*
X125439585Y-86587696D01*
X125440804Y-86580000D01*
X125426024Y-86486680D01*
X125420938Y-86454569D01*
X125420938Y-86454568D01*
X125419719Y-86446874D01*
X125403224Y-86414500D01*
X125362064Y-86333719D01*
X125362063Y-86333717D01*
X125358528Y-86326780D01*
X125263220Y-86231472D01*
X125256283Y-86227937D01*
X125256281Y-86227936D01*
X125150066Y-86173817D01*
X125150065Y-86173817D01*
X125143126Y-86170281D01*
X125135432Y-86169062D01*
X125135431Y-86169062D01*
X125017696Y-86150415D01*
X125010000Y-86149196D01*
X125002304Y-86150415D01*
X124884569Y-86169062D01*
X124884568Y-86169062D01*
X124876874Y-86170281D01*
X124869935Y-86173817D01*
X124869934Y-86173817D01*
X124763719Y-86227936D01*
X124763717Y-86227937D01*
X124756780Y-86231472D01*
X124661472Y-86326780D01*
X124657937Y-86333717D01*
X124657936Y-86333719D01*
X124616776Y-86414500D01*
X124600281Y-86446874D01*
X124599062Y-86454568D01*
X124599062Y-86454569D01*
X124587281Y-86528953D01*
X124560418Y-86581677D01*
X124569593Y-86588343D01*
X124587281Y-86631047D01*
X124591587Y-86658231D01*
X124600281Y-86713126D01*
X124603817Y-86720065D01*
X124603817Y-86720066D01*
X124614109Y-86740265D01*
X124623680Y-86800697D01*
X124595903Y-86855214D01*
X124541386Y-86882991D01*
X124480954Y-86873420D01*
X124455895Y-86855214D01*
X124419496Y-86818815D01*
X124391719Y-86764298D01*
X124390500Y-86748811D01*
X124390500Y-86646534D01*
X124409407Y-86588343D01*
X124422042Y-86579163D01*
X124401290Y-86558411D01*
X124390500Y-86513466D01*
X124390500Y-85510000D01*
X125369196Y-85510000D01*
X125370415Y-85517696D01*
X125378655Y-85569719D01*
X125390281Y-85643126D01*
X125393817Y-85650065D01*
X125393817Y-85650066D01*
X125413499Y-85688693D01*
X125451472Y-85763220D01*
X125546780Y-85858528D01*
X125553717Y-85862063D01*
X125553719Y-85862064D01*
X125659934Y-85916183D01*
X125666874Y-85919719D01*
X125674568Y-85920938D01*
X125674569Y-85920938D01*
X125792304Y-85939585D01*
X125800000Y-85940804D01*
X125807696Y-85939585D01*
X125925431Y-85920938D01*
X125925432Y-85920938D01*
X125933126Y-85919719D01*
X125940066Y-85916183D01*
X126046281Y-85862064D01*
X126046283Y-85862063D01*
X126053220Y-85858528D01*
X126148528Y-85763220D01*
X126186502Y-85688693D01*
X126206183Y-85650066D01*
X126206183Y-85650065D01*
X126209719Y-85643126D01*
X126221346Y-85569719D01*
X126229585Y-85517696D01*
X126230804Y-85510000D01*
X126209719Y-85376874D01*
X126206183Y-85369934D01*
X126152064Y-85263719D01*
X126152063Y-85263717D01*
X126148528Y-85256780D01*
X126053220Y-85161472D01*
X126050331Y-85160000D01*
X126429196Y-85160000D01*
X126450281Y-85293126D01*
X126453817Y-85300065D01*
X126453817Y-85300066D01*
X126496874Y-85384569D01*
X126511472Y-85413220D01*
X126606780Y-85508528D01*
X126613717Y-85512063D01*
X126613719Y-85512064D01*
X126719934Y-85566183D01*
X126726874Y-85569719D01*
X126734568Y-85570938D01*
X126734569Y-85570938D01*
X126852304Y-85589585D01*
X126860000Y-85590804D01*
X126867696Y-85589585D01*
X126985431Y-85570938D01*
X126985432Y-85570938D01*
X126993126Y-85569719D01*
X127000066Y-85566183D01*
X127106281Y-85512064D01*
X127106283Y-85512063D01*
X127113220Y-85508528D01*
X127208528Y-85413220D01*
X127223127Y-85384569D01*
X127266183Y-85300066D01*
X127266183Y-85300065D01*
X127269719Y-85293126D01*
X127290804Y-85160000D01*
X127281906Y-85103817D01*
X127270938Y-85034569D01*
X127270938Y-85034568D01*
X127269719Y-85026874D01*
X127266183Y-85019934D01*
X127212064Y-84913719D01*
X127212063Y-84913717D01*
X127208528Y-84906780D01*
X127113220Y-84811472D01*
X127106283Y-84807937D01*
X127106281Y-84807936D01*
X127000066Y-84753817D01*
X127000065Y-84753817D01*
X126993126Y-84750281D01*
X126985432Y-84749062D01*
X126985431Y-84749062D01*
X126867696Y-84730415D01*
X126860000Y-84729196D01*
X126852304Y-84730415D01*
X126734569Y-84749062D01*
X126734568Y-84749062D01*
X126726874Y-84750281D01*
X126719935Y-84753817D01*
X126719934Y-84753817D01*
X126613719Y-84807936D01*
X126613717Y-84807937D01*
X126606780Y-84811472D01*
X126511472Y-84906780D01*
X126507937Y-84913717D01*
X126507936Y-84913719D01*
X126453817Y-85019934D01*
X126450281Y-85026874D01*
X126449062Y-85034568D01*
X126449062Y-85034569D01*
X126438094Y-85103817D01*
X126429196Y-85160000D01*
X126050331Y-85160000D01*
X126046283Y-85157937D01*
X126046281Y-85157936D01*
X125940066Y-85103817D01*
X125940065Y-85103817D01*
X125933126Y-85100281D01*
X125925432Y-85099062D01*
X125925431Y-85099062D01*
X125815494Y-85081650D01*
X125800000Y-85079196D01*
X125784506Y-85081650D01*
X125674569Y-85099062D01*
X125674568Y-85099062D01*
X125666874Y-85100281D01*
X125659935Y-85103817D01*
X125659934Y-85103817D01*
X125553719Y-85157936D01*
X125553717Y-85157937D01*
X125546780Y-85161472D01*
X125451472Y-85256780D01*
X125447937Y-85263717D01*
X125447936Y-85263719D01*
X125393817Y-85369934D01*
X125390281Y-85376874D01*
X125369196Y-85510000D01*
X124390500Y-85510000D01*
X124390500Y-84614500D01*
X124409407Y-84556309D01*
X124458907Y-84520345D01*
X124489500Y-84515500D01*
X130800542Y-84515500D01*
X130858733Y-84534407D01*
X130894697Y-84583907D01*
X130894697Y-84645093D01*
X130878288Y-84675790D01*
X130796322Y-84779763D01*
X130791397Y-84787346D01*
X130701490Y-84958231D01*
X130698032Y-84966579D01*
X130665912Y-85070024D01*
X130666064Y-85081650D01*
X130676610Y-85085000D01*
X132762703Y-85085000D01*
X132774193Y-85081267D01*
X132774397Y-85070866D01*
X132752570Y-84993473D01*
X132749332Y-84985038D01*
X132663928Y-84811855D01*
X132659209Y-84804154D01*
X132543678Y-84649440D01*
X132537629Y-84642722D01*
X132452299Y-84563844D01*
X132422402Y-84510460D01*
X132420500Y-84491146D01*
X132420500Y-83595252D01*
X132408867Y-83536769D01*
X132364552Y-83470448D01*
X132298231Y-83426133D01*
X132288668Y-83424231D01*
X132288666Y-83424230D01*
X132265995Y-83419721D01*
X132239748Y-83414500D01*
X131200252Y-83414500D01*
X131174005Y-83419721D01*
X131151334Y-83424230D01*
X131151332Y-83424231D01*
X131141769Y-83426133D01*
X131075448Y-83470448D01*
X131031133Y-83536769D01*
X131019500Y-83595252D01*
X131019500Y-83615500D01*
X131000593Y-83673691D01*
X130951093Y-83709655D01*
X130920500Y-83714500D01*
X124453354Y-83714500D01*
X124395163Y-83695593D01*
X124365144Y-83660445D01*
X124342064Y-83615147D01*
X124342063Y-83615145D01*
X124338528Y-83608208D01*
X124243220Y-83512900D01*
X124236283Y-83509365D01*
X124236281Y-83509364D01*
X124130066Y-83455245D01*
X124130065Y-83455245D01*
X124123126Y-83451709D01*
X124115432Y-83450490D01*
X124115431Y-83450490D01*
X124026978Y-83436481D01*
X123990000Y-83430624D01*
X123953022Y-83436481D01*
X123864569Y-83450490D01*
X123864568Y-83450490D01*
X123856874Y-83451709D01*
X123849935Y-83455245D01*
X123849934Y-83455245D01*
X123743719Y-83509364D01*
X123743717Y-83509365D01*
X123736780Y-83512900D01*
X123641472Y-83608208D01*
X123637937Y-83615145D01*
X123637936Y-83615147D01*
X123597102Y-83695289D01*
X123580281Y-83728302D01*
X123579062Y-83735996D01*
X123579062Y-83735997D01*
X123565053Y-83824450D01*
X123559196Y-83861428D01*
X123560415Y-83869124D01*
X123573746Y-83953291D01*
X123580281Y-83994554D01*
X123583817Y-84001495D01*
X123584654Y-84004069D01*
X123589500Y-84034662D01*
X123589500Y-87019145D01*
X123596955Y-87042087D01*
X123600581Y-87057193D01*
X123604354Y-87081016D01*
X123615305Y-87102509D01*
X123621248Y-87116855D01*
X123628704Y-87139802D01*
X123639018Y-87153997D01*
X123642883Y-87159317D01*
X123650998Y-87172558D01*
X123661950Y-87194054D01*
X123684513Y-87216617D01*
X123684516Y-87216621D01*
X124570504Y-88102609D01*
X124598281Y-88157126D01*
X124599500Y-88172613D01*
X124599500Y-89913822D01*
X124606955Y-89936764D01*
X124610581Y-89951870D01*
X124614354Y-89975693D01*
X124625305Y-89997186D01*
X124631248Y-90011532D01*
X124638704Y-90034479D01*
X124643285Y-90040784D01*
X124652883Y-90053994D01*
X124660998Y-90067235D01*
X124671950Y-90088731D01*
X124694513Y-90111294D01*
X124694516Y-90111298D01*
X124772150Y-90188931D01*
X124799926Y-90243447D01*
X124790355Y-90303879D01*
X124747090Y-90347144D01*
X124728719Y-90356504D01*
X124728717Y-90356505D01*
X124721780Y-90360040D01*
X124626472Y-90455348D01*
X124622937Y-90462285D01*
X124622936Y-90462287D01*
X124584556Y-90537613D01*
X124565281Y-90575442D01*
X124564062Y-90583136D01*
X124564062Y-90583137D01*
X124553847Y-90647634D01*
X124544196Y-90708568D01*
X124545415Y-90716264D01*
X124558584Y-90799408D01*
X124565281Y-90841694D01*
X124568817Y-90848633D01*
X124568817Y-90848634D01*
X124616713Y-90942634D01*
X124626472Y-90961788D01*
X124721780Y-91057096D01*
X124728717Y-91060631D01*
X124728719Y-91060632D01*
X124750999Y-91071984D01*
X124841874Y-91118287D01*
X124849568Y-91119506D01*
X124849569Y-91119506D01*
X124967304Y-91138153D01*
X124975000Y-91139372D01*
X124982696Y-91138153D01*
X124982697Y-91138153D01*
X125084514Y-91122027D01*
X125144946Y-91131598D01*
X125188211Y-91174863D01*
X125199001Y-91219808D01*
X125199001Y-91273600D01*
X125180094Y-91331791D01*
X125170004Y-91343603D01*
X124829950Y-91683657D01*
X124804895Y-91701861D01*
X124746780Y-91731472D01*
X124651472Y-91826780D01*
X124590281Y-91946874D01*
X124569196Y-92080000D01*
X124570415Y-92087696D01*
X124584833Y-92178726D01*
X124590281Y-92213126D01*
X124593817Y-92220065D01*
X124593817Y-92220066D01*
X124611739Y-92255239D01*
X124651472Y-92333220D01*
X124746780Y-92428528D01*
X124753717Y-92432063D01*
X124753719Y-92432064D01*
X124853275Y-92482790D01*
X124896540Y-92526055D01*
X124906111Y-92586487D01*
X124878334Y-92641004D01*
X124823817Y-92668781D01*
X124808330Y-92670000D01*
X110907608Y-92670000D01*
X110849417Y-92651093D01*
X110813453Y-92601593D01*
X110813453Y-92540407D01*
X110846453Y-92493147D01*
X110948324Y-92413126D01*
X110955122Y-92406653D01*
X111086512Y-92255239D01*
X111091963Y-92247597D01*
X111192352Y-92074068D01*
X111196254Y-92065546D01*
X111245125Y-91924811D01*
X111245346Y-91913787D01*
X111234078Y-91910000D01*
X108046477Y-91910000D01*
X108034375Y-91913932D01*
X108034010Y-91923333D01*
X108044093Y-91965171D01*
X108047148Y-91974043D01*
X108130126Y-92156541D01*
X108134802Y-92164674D01*
X108250791Y-92328189D01*
X108256920Y-92335289D01*
X108401738Y-92473923D01*
X108409101Y-92479737D01*
X108421636Y-92487831D01*
X108460265Y-92535280D01*
X108463627Y-92596372D01*
X108430438Y-92647774D01*
X108367934Y-92670000D01*
X106477608Y-92670000D01*
X106419417Y-92651093D01*
X106383453Y-92601593D01*
X106383453Y-92540407D01*
X106416453Y-92493147D01*
X106518324Y-92413126D01*
X106525122Y-92406653D01*
X106656512Y-92255239D01*
X106661963Y-92247597D01*
X106762352Y-92074068D01*
X106766254Y-92065546D01*
X106815125Y-91924811D01*
X106815346Y-91913787D01*
X106804078Y-91910000D01*
X104116477Y-91910000D01*
X104104375Y-91913932D01*
X104104010Y-91923333D01*
X104114093Y-91965171D01*
X104117148Y-91974043D01*
X104200126Y-92156541D01*
X104204802Y-92164674D01*
X104320791Y-92328189D01*
X104326920Y-92335289D01*
X104471738Y-92473923D01*
X104479101Y-92479737D01*
X104491636Y-92487831D01*
X104530265Y-92535280D01*
X104533627Y-92596372D01*
X104500438Y-92647774D01*
X104437934Y-92670000D01*
X102715000Y-92670000D01*
X102656809Y-92651093D01*
X102620845Y-92601593D01*
X102616000Y-92571000D01*
X102616000Y-91306213D01*
X104104654Y-91306213D01*
X104115922Y-91310000D01*
X105144320Y-91310000D01*
X105157005Y-91305878D01*
X105160000Y-91301757D01*
X105160000Y-91294320D01*
X105760000Y-91294320D01*
X105764122Y-91307005D01*
X105768243Y-91310000D01*
X106803523Y-91310000D01*
X106815179Y-91306213D01*
X108034654Y-91306213D01*
X108045922Y-91310000D01*
X109324320Y-91310000D01*
X109337005Y-91305878D01*
X109340000Y-91301757D01*
X109340000Y-91294320D01*
X109940000Y-91294320D01*
X109944122Y-91307005D01*
X109948243Y-91310000D01*
X111233523Y-91310000D01*
X111245625Y-91306068D01*
X111245990Y-91296667D01*
X111235907Y-91254829D01*
X111232852Y-91245957D01*
X111149874Y-91063459D01*
X111145198Y-91055326D01*
X111029209Y-90891811D01*
X111023080Y-90884711D01*
X110878262Y-90746077D01*
X110870899Y-90740263D01*
X110702477Y-90631513D01*
X110694161Y-90627202D01*
X110508201Y-90552258D01*
X110499221Y-90549598D01*
X110301323Y-90510952D01*
X110294272Y-90510096D01*
X110293528Y-90510060D01*
X110291084Y-90510000D01*
X109955680Y-90510000D01*
X109942995Y-90514122D01*
X109940000Y-90518243D01*
X109940000Y-91294320D01*
X109340000Y-91294320D01*
X109340000Y-90715555D01*
X109358907Y-90657364D01*
X109384477Y-90633853D01*
X109384783Y-90633720D01*
X109436042Y-90592212D01*
X109491433Y-90547357D01*
X109491434Y-90547356D01*
X109496675Y-90543112D01*
X109500583Y-90537613D01*
X109576172Y-90431249D01*
X109576173Y-90431248D01*
X109580079Y-90425751D01*
X109582363Y-90419406D01*
X109582365Y-90419403D01*
X109619000Y-90317644D01*
X109628850Y-90290285D01*
X109632081Y-90246286D01*
X109638900Y-90153427D01*
X109638900Y-90153423D01*
X109639394Y-90146693D01*
X109637462Y-90137108D01*
X109612269Y-90012167D01*
X109610936Y-90005556D01*
X109606941Y-89997714D01*
X109548633Y-89883280D01*
X109545571Y-89877270D01*
X109541008Y-89872307D01*
X109541006Y-89872305D01*
X109452684Y-89776256D01*
X109448116Y-89771288D01*
X109371206Y-89723602D01*
X109331487Y-89698975D01*
X109325750Y-89695418D01*
X109187488Y-89655249D01*
X109182318Y-89654869D01*
X109182316Y-89654869D01*
X109179089Y-89654632D01*
X109179082Y-89654632D01*
X109177288Y-89654500D01*
X109073930Y-89654500D01*
X108967354Y-89669099D01*
X108961168Y-89671776D01*
X108961164Y-89671777D01*
X108864768Y-89713492D01*
X108835217Y-89726280D01*
X108829978Y-89730522D01*
X108829977Y-89730523D01*
X108730936Y-89810725D01*
X108723325Y-89816888D01*
X108719417Y-89822387D01*
X108654438Y-89913822D01*
X108639921Y-89934249D01*
X108637637Y-89940594D01*
X108637635Y-89940597D01*
X108620242Y-89988908D01*
X108591150Y-90069715D01*
X108590656Y-90076447D01*
X108590655Y-90076450D01*
X108581140Y-90206039D01*
X108580606Y-90213307D01*
X108581940Y-90219922D01*
X108581940Y-90219924D01*
X108598868Y-90303879D01*
X108609064Y-90354444D01*
X108612123Y-90360448D01*
X108612125Y-90360453D01*
X108671643Y-90477263D01*
X108681214Y-90537695D01*
X108653436Y-90592212D01*
X108628762Y-90610221D01*
X108497220Y-90677969D01*
X108489329Y-90683036D01*
X108331676Y-90806874D01*
X108324878Y-90813347D01*
X108193488Y-90964761D01*
X108188037Y-90972403D01*
X108087648Y-91145932D01*
X108083746Y-91154454D01*
X108034875Y-91295189D01*
X108034654Y-91306213D01*
X106815179Y-91306213D01*
X106815625Y-91306068D01*
X106815990Y-91296667D01*
X106805907Y-91254829D01*
X106802852Y-91245957D01*
X106719874Y-91063459D01*
X106715198Y-91055326D01*
X106599209Y-90891811D01*
X106593080Y-90884711D01*
X106448262Y-90746077D01*
X106440899Y-90740263D01*
X106272477Y-90631513D01*
X106264161Y-90627202D01*
X106078201Y-90552258D01*
X106069221Y-90549598D01*
X105871323Y-90510952D01*
X105864272Y-90510096D01*
X105863528Y-90510060D01*
X105861084Y-90510000D01*
X105775680Y-90510000D01*
X105762995Y-90514122D01*
X105760000Y-90518243D01*
X105760000Y-91294320D01*
X105160000Y-91294320D01*
X105160000Y-90525680D01*
X105155878Y-90512995D01*
X105151757Y-90510000D01*
X105109913Y-90510000D01*
X105105199Y-90510225D01*
X104955742Y-90524484D01*
X104946530Y-90526258D01*
X104754154Y-90582694D01*
X104745451Y-90586175D01*
X104567216Y-90677972D01*
X104559329Y-90683036D01*
X104401676Y-90806874D01*
X104394878Y-90813347D01*
X104263488Y-90964761D01*
X104258037Y-90972403D01*
X104157648Y-91145932D01*
X104153746Y-91154454D01*
X104104875Y-91295189D01*
X104104654Y-91306213D01*
X102616000Y-91306213D01*
X102616000Y-89340000D01*
X116759196Y-89340000D01*
X116780281Y-89473126D01*
X116841472Y-89593220D01*
X116936780Y-89688528D01*
X116943717Y-89692063D01*
X116943719Y-89692064D01*
X117049934Y-89746183D01*
X117056874Y-89749719D01*
X117064568Y-89750938D01*
X117064569Y-89750938D01*
X117182304Y-89769585D01*
X117190000Y-89770804D01*
X117197696Y-89769585D01*
X117315431Y-89750938D01*
X117315432Y-89750938D01*
X117323126Y-89749719D01*
X117330066Y-89746183D01*
X117436281Y-89692064D01*
X117436283Y-89692063D01*
X117443220Y-89688528D01*
X117538528Y-89593220D01*
X117599719Y-89473126D01*
X117620804Y-89340000D01*
X117604894Y-89239546D01*
X117600938Y-89214569D01*
X117600938Y-89214568D01*
X117599719Y-89206874D01*
X117564895Y-89138528D01*
X117542064Y-89093719D01*
X117542063Y-89093717D01*
X117538528Y-89086780D01*
X117443220Y-88991472D01*
X117436283Y-88987937D01*
X117436281Y-88987936D01*
X117330066Y-88933817D01*
X117330065Y-88933817D01*
X117323126Y-88930281D01*
X117315432Y-88929062D01*
X117315431Y-88929062D01*
X117197696Y-88910415D01*
X117190000Y-88909196D01*
X117182304Y-88910415D01*
X117064569Y-88929062D01*
X117064568Y-88929062D01*
X117056874Y-88930281D01*
X117049935Y-88933817D01*
X117049934Y-88933817D01*
X116943719Y-88987936D01*
X116943717Y-88987937D01*
X116936780Y-88991472D01*
X116841472Y-89086780D01*
X116837937Y-89093717D01*
X116837936Y-89093719D01*
X116815105Y-89138528D01*
X116780281Y-89206874D01*
X116779062Y-89214568D01*
X116779062Y-89214569D01*
X116775106Y-89239546D01*
X116759196Y-89340000D01*
X102616000Y-89340000D01*
X102616000Y-88070000D01*
X108879196Y-88070000D01*
X108900281Y-88203126D01*
X108961472Y-88323220D01*
X109056780Y-88418528D01*
X109063717Y-88422063D01*
X109063719Y-88422064D01*
X109094870Y-88437936D01*
X109176874Y-88479719D01*
X109184568Y-88480938D01*
X109184569Y-88480938D01*
X109302304Y-88499585D01*
X109310000Y-88500804D01*
X109317696Y-88499585D01*
X109435431Y-88480938D01*
X109435432Y-88480938D01*
X109443126Y-88479719D01*
X109525130Y-88437936D01*
X109556281Y-88422064D01*
X109556283Y-88422063D01*
X109563220Y-88418528D01*
X109658528Y-88323220D01*
X109719719Y-88203126D01*
X109738428Y-88085000D01*
X116759196Y-88085000D01*
X116760415Y-88092696D01*
X116778152Y-88204681D01*
X116780281Y-88218126D01*
X116783817Y-88225065D01*
X116783817Y-88225066D01*
X116836635Y-88328726D01*
X116841472Y-88338220D01*
X116936780Y-88433528D01*
X116943717Y-88437063D01*
X116943719Y-88437064D01*
X117049934Y-88491183D01*
X117056874Y-88494719D01*
X117064568Y-88495938D01*
X117064569Y-88495938D01*
X117182304Y-88514585D01*
X117190000Y-88515804D01*
X117197696Y-88514585D01*
X117315431Y-88495938D01*
X117315432Y-88495938D01*
X117323126Y-88494719D01*
X117330066Y-88491183D01*
X117436281Y-88437064D01*
X117436283Y-88437063D01*
X117443220Y-88433528D01*
X117538528Y-88338220D01*
X117543366Y-88328726D01*
X117596183Y-88225066D01*
X117596183Y-88225065D01*
X117599719Y-88218126D01*
X117601849Y-88204681D01*
X117619585Y-88092696D01*
X117620804Y-88085000D01*
X117599719Y-87951874D01*
X117592076Y-87936874D01*
X117542064Y-87838719D01*
X117542063Y-87838717D01*
X117538528Y-87831780D01*
X117443220Y-87736472D01*
X117436283Y-87732937D01*
X117436281Y-87732936D01*
X117330066Y-87678817D01*
X117330065Y-87678817D01*
X117323126Y-87675281D01*
X117315432Y-87674062D01*
X117315431Y-87674062D01*
X117197696Y-87655415D01*
X117190000Y-87654196D01*
X117182304Y-87655415D01*
X117064569Y-87674062D01*
X117064568Y-87674062D01*
X117056874Y-87675281D01*
X117049935Y-87678817D01*
X117049934Y-87678817D01*
X116943719Y-87732936D01*
X116943717Y-87732937D01*
X116936780Y-87736472D01*
X116841472Y-87831780D01*
X116837937Y-87838717D01*
X116837936Y-87838719D01*
X116787924Y-87936874D01*
X116780281Y-87951874D01*
X116759196Y-88085000D01*
X109738428Y-88085000D01*
X109740804Y-88070000D01*
X109734947Y-88033022D01*
X109720938Y-87944569D01*
X109720938Y-87944568D01*
X109719719Y-87936874D01*
X109706887Y-87911690D01*
X109662064Y-87823719D01*
X109662063Y-87823717D01*
X109658528Y-87816780D01*
X109563220Y-87721472D01*
X109556283Y-87717937D01*
X109556281Y-87717936D01*
X109450066Y-87663817D01*
X109450065Y-87663817D01*
X109443126Y-87660281D01*
X109435432Y-87659062D01*
X109435431Y-87659062D01*
X109317696Y-87640415D01*
X109310000Y-87639196D01*
X109302304Y-87640415D01*
X109184569Y-87659062D01*
X109184568Y-87659062D01*
X109176874Y-87660281D01*
X109169935Y-87663817D01*
X109169934Y-87663817D01*
X109063719Y-87717936D01*
X109063717Y-87717937D01*
X109056780Y-87721472D01*
X108961472Y-87816780D01*
X108957937Y-87823717D01*
X108957936Y-87823719D01*
X108913113Y-87911690D01*
X108900281Y-87936874D01*
X108899062Y-87944568D01*
X108899062Y-87944569D01*
X108885053Y-88033022D01*
X108879196Y-88070000D01*
X102616000Y-88070000D01*
X102616000Y-87260000D01*
X111629196Y-87260000D01*
X111650281Y-87393126D01*
X111653817Y-87400065D01*
X111653817Y-87400066D01*
X111686020Y-87463267D01*
X111711472Y-87513220D01*
X111806780Y-87608528D01*
X111813717Y-87612063D01*
X111813719Y-87612064D01*
X111919934Y-87666183D01*
X111926874Y-87669719D01*
X111934568Y-87670938D01*
X111934569Y-87670938D01*
X112052304Y-87689585D01*
X112060000Y-87690804D01*
X112067696Y-87689585D01*
X112185431Y-87670938D01*
X112185432Y-87670938D01*
X112193126Y-87669719D01*
X112200066Y-87666183D01*
X112306281Y-87612064D01*
X112306283Y-87612063D01*
X112313220Y-87608528D01*
X112408528Y-87513220D01*
X112433981Y-87463267D01*
X112466183Y-87400066D01*
X112466183Y-87400065D01*
X112469719Y-87393126D01*
X112490804Y-87260000D01*
X112476821Y-87171715D01*
X112470938Y-87134569D01*
X112470938Y-87134568D01*
X112469719Y-87126874D01*
X112445626Y-87079588D01*
X112412064Y-87013719D01*
X112412063Y-87013717D01*
X112408528Y-87006780D01*
X112313220Y-86911472D01*
X112306283Y-86907937D01*
X112306281Y-86907936D01*
X112200066Y-86853817D01*
X112200065Y-86853817D01*
X112193126Y-86850281D01*
X112185432Y-86849062D01*
X112185431Y-86849062D01*
X112096978Y-86835053D01*
X112060000Y-86829196D01*
X112023022Y-86835053D01*
X111934569Y-86849062D01*
X111934568Y-86849062D01*
X111926874Y-86850281D01*
X111919935Y-86853817D01*
X111919934Y-86853817D01*
X111813719Y-86907936D01*
X111813717Y-86907937D01*
X111806780Y-86911472D01*
X111711472Y-87006780D01*
X111707937Y-87013717D01*
X111707936Y-87013719D01*
X111674374Y-87079588D01*
X111650281Y-87126874D01*
X111649062Y-87134568D01*
X111649062Y-87134569D01*
X111643179Y-87171715D01*
X111629196Y-87260000D01*
X102616000Y-87260000D01*
X102616000Y-86815000D01*
X116759196Y-86815000D01*
X116761845Y-86831727D01*
X116775348Y-86916978D01*
X116780281Y-86948126D01*
X116783817Y-86955065D01*
X116783817Y-86955066D01*
X116831932Y-87049496D01*
X116841472Y-87068220D01*
X116936780Y-87163528D01*
X116943717Y-87167063D01*
X116943719Y-87167064D01*
X117049934Y-87221183D01*
X117056874Y-87224719D01*
X117064568Y-87225938D01*
X117064569Y-87225938D01*
X117182304Y-87244585D01*
X117190000Y-87245804D01*
X117197696Y-87244585D01*
X117315432Y-87225938D01*
X117315434Y-87225937D01*
X117323126Y-87224719D01*
X117330067Y-87221183D01*
X117332641Y-87220346D01*
X117363234Y-87215500D01*
X118643433Y-87215500D01*
X118666380Y-87208044D01*
X118681481Y-87204419D01*
X118697609Y-87201865D01*
X118697611Y-87201864D01*
X118705304Y-87200646D01*
X118726797Y-87189695D01*
X118741143Y-87183752D01*
X118756679Y-87178704D01*
X118764090Y-87176296D01*
X118783607Y-87162116D01*
X118796846Y-87154002D01*
X118818342Y-87143050D01*
X118840905Y-87120487D01*
X118840909Y-87120484D01*
X122560050Y-83401343D01*
X122585109Y-83383137D01*
X122636281Y-83357064D01*
X122636283Y-83357063D01*
X122643220Y-83353528D01*
X122738528Y-83258220D01*
X122799719Y-83138126D01*
X122820804Y-83005000D01*
X122799719Y-82871874D01*
X122738528Y-82751780D01*
X122643220Y-82656472D01*
X122636283Y-82652937D01*
X122636281Y-82652936D01*
X122530066Y-82598817D01*
X122530065Y-82598817D01*
X122523126Y-82595281D01*
X122515432Y-82594062D01*
X122515431Y-82594062D01*
X122397696Y-82575415D01*
X122390000Y-82574196D01*
X122382304Y-82575415D01*
X122264569Y-82594062D01*
X122264568Y-82594062D01*
X122256874Y-82595281D01*
X122249935Y-82598817D01*
X122249934Y-82598817D01*
X122143719Y-82652936D01*
X122143717Y-82652937D01*
X122136780Y-82656472D01*
X122041472Y-82751780D01*
X122037937Y-82758717D01*
X122037936Y-82758719D01*
X122011863Y-82809891D01*
X121993657Y-82834950D01*
X118443103Y-86385504D01*
X118388586Y-86413281D01*
X118373099Y-86414500D01*
X117363234Y-86414500D01*
X117332641Y-86409654D01*
X117330067Y-86408817D01*
X117323126Y-86405281D01*
X117315434Y-86404063D01*
X117315432Y-86404062D01*
X117197696Y-86385415D01*
X117190000Y-86384196D01*
X117182304Y-86385415D01*
X117064569Y-86404062D01*
X117064568Y-86404062D01*
X117056874Y-86405281D01*
X117049935Y-86408817D01*
X117049934Y-86408817D01*
X116943719Y-86462936D01*
X116943717Y-86462937D01*
X116936780Y-86466472D01*
X116841472Y-86561780D01*
X116837937Y-86568717D01*
X116837936Y-86568719D01*
X116786444Y-86669778D01*
X116780281Y-86681874D01*
X116779062Y-86689568D01*
X116779062Y-86689569D01*
X116771440Y-86737696D01*
X116759196Y-86815000D01*
X102616000Y-86815000D01*
X102616000Y-83283333D01*
X104104010Y-83283333D01*
X104114093Y-83325171D01*
X104117148Y-83334043D01*
X104200126Y-83516541D01*
X104204802Y-83524674D01*
X104320791Y-83688189D01*
X104326920Y-83695289D01*
X104471738Y-83833923D01*
X104479101Y-83839737D01*
X104647523Y-83948487D01*
X104655839Y-83952798D01*
X104841799Y-84027742D01*
X104850779Y-84030402D01*
X105048677Y-84069048D01*
X105055728Y-84069904D01*
X105056472Y-84069940D01*
X105058916Y-84070000D01*
X105144320Y-84070000D01*
X105157005Y-84065878D01*
X105160000Y-84061757D01*
X105160000Y-84054320D01*
X105760000Y-84054320D01*
X105764122Y-84067005D01*
X105768243Y-84070000D01*
X105810087Y-84070000D01*
X105814801Y-84069775D01*
X105964258Y-84055516D01*
X105973470Y-84053742D01*
X106165846Y-83997306D01*
X106174549Y-83993825D01*
X106352784Y-83902028D01*
X106360671Y-83896964D01*
X106518324Y-83773126D01*
X106525122Y-83766653D01*
X106656512Y-83615239D01*
X106661963Y-83607597D01*
X106762352Y-83434068D01*
X106766254Y-83425546D01*
X106815125Y-83284811D01*
X106815155Y-83283333D01*
X108034010Y-83283333D01*
X108044093Y-83325171D01*
X108047148Y-83334043D01*
X108130126Y-83516541D01*
X108134802Y-83524674D01*
X108250791Y-83688189D01*
X108256920Y-83695289D01*
X108401738Y-83833923D01*
X108409101Y-83839737D01*
X108577523Y-83948487D01*
X108585839Y-83952798D01*
X108622796Y-83967692D01*
X108669701Y-84006981D01*
X108684555Y-84066336D01*
X108666488Y-84116864D01*
X108643830Y-84148747D01*
X108643827Y-84148753D01*
X108639921Y-84154249D01*
X108637637Y-84160594D01*
X108637635Y-84160597D01*
X108616412Y-84219548D01*
X108591150Y-84289715D01*
X108580606Y-84433307D01*
X108581940Y-84439922D01*
X108581940Y-84439924D01*
X108598156Y-84520345D01*
X108609064Y-84574444D01*
X108612125Y-84580451D01*
X108612125Y-84580452D01*
X108639790Y-84634748D01*
X108674429Y-84702730D01*
X108678992Y-84707693D01*
X108678994Y-84707695D01*
X108717033Y-84749062D01*
X108771884Y-84808712D01*
X108894250Y-84884582D01*
X109032512Y-84924751D01*
X109037682Y-84925131D01*
X109037684Y-84925131D01*
X109040911Y-84925368D01*
X109040918Y-84925368D01*
X109042712Y-84925500D01*
X109146070Y-84925500D01*
X109252646Y-84910901D01*
X109258832Y-84908224D01*
X109258836Y-84908223D01*
X109378595Y-84856398D01*
X109378596Y-84856397D01*
X109384783Y-84853720D01*
X109440364Y-84808712D01*
X109491433Y-84767357D01*
X109491434Y-84767356D01*
X109496675Y-84763112D01*
X109546337Y-84693231D01*
X109576172Y-84651249D01*
X109576173Y-84651248D01*
X109580079Y-84645751D01*
X109582363Y-84639406D01*
X109582365Y-84639403D01*
X109612280Y-84556309D01*
X109628850Y-84510285D01*
X109629345Y-84503550D01*
X109638900Y-84373427D01*
X109638900Y-84373423D01*
X109639394Y-84366693D01*
X109622592Y-84283361D01*
X109612269Y-84232167D01*
X109610936Y-84225556D01*
X109545571Y-84097270D01*
X109541008Y-84092307D01*
X109541006Y-84092305D01*
X109506077Y-84054320D01*
X109940000Y-84054320D01*
X109944122Y-84067005D01*
X109948243Y-84070000D01*
X110240087Y-84070000D01*
X110244801Y-84069775D01*
X110394258Y-84055516D01*
X110403470Y-84053742D01*
X110595846Y-83997306D01*
X110604549Y-83993825D01*
X110782784Y-83902028D01*
X110790671Y-83896964D01*
X110948324Y-83773126D01*
X110955122Y-83766653D01*
X111086512Y-83615239D01*
X111091963Y-83607597D01*
X111192352Y-83434068D01*
X111196254Y-83425546D01*
X111245125Y-83284811D01*
X111245346Y-83273787D01*
X111234078Y-83270000D01*
X109955680Y-83270000D01*
X109942995Y-83274122D01*
X109940000Y-83278243D01*
X109940000Y-84054320D01*
X109506077Y-84054320D01*
X109481637Y-84027742D01*
X109448116Y-83991288D01*
X109440975Y-83986860D01*
X109410059Y-83967692D01*
X109386831Y-83953290D01*
X109347339Y-83906558D01*
X109340000Y-83869151D01*
X109340000Y-83285680D01*
X109335878Y-83272995D01*
X109331757Y-83270000D01*
X108046477Y-83270000D01*
X108034375Y-83273932D01*
X108034010Y-83283333D01*
X106815155Y-83283333D01*
X106815346Y-83273787D01*
X106804078Y-83270000D01*
X105775680Y-83270000D01*
X105762995Y-83274122D01*
X105760000Y-83278243D01*
X105760000Y-84054320D01*
X105160000Y-84054320D01*
X105160000Y-83285680D01*
X105155878Y-83272995D01*
X105151757Y-83270000D01*
X104116477Y-83270000D01*
X104104375Y-83273932D01*
X104104010Y-83283333D01*
X102616000Y-83283333D01*
X102616000Y-81869000D01*
X102634907Y-81810809D01*
X102684407Y-81774845D01*
X102715000Y-81770000D01*
X104679078Y-81770000D01*
X104737269Y-81788907D01*
G37*
%TD.AperFunction*%
%TD*%
M02*
