M48
; DRILL file {KiCad (6.0.0)} date Sat Feb 12 21:10:31 2022
; FORMAT={-:-/ absolute / metric / decimal}
; #@! TF.CreationDate,2022-02-12T21:10:31+08:00
; #@! TF.GenerationSoftware,Kicad,Pcbnew,(6.0.0)
; #@! TF.FileFunction,Plated,1,4,PTH
FMAT,2
METRIC
; #@! TA.AperFunction,Plated,PTH,ViaDrill
T1C0.200
; #@! TA.AperFunction,Plated,PTH,ComponentDrill
T2C0.600
; #@! TA.AperFunction,Plated,PTH,ComponentDrill
T3C0.650
%
G90
G05
T1
X104.32Y-86.61
X104.32Y-87.21
X104.32Y-87.81
X104.32Y-88.41
X104.33Y-86.02
X104.92Y-86.01
X104.92Y-86.61
X104.92Y-87.21
X104.92Y-87.81
X104.92Y-88.41
X105.52Y-86.01
X105.52Y-86.61
X105.52Y-87.21
X105.52Y-87.81
X105.52Y-88.41
X106.12Y-86.01
X106.12Y-86.61
X106.12Y-87.21
X106.12Y-87.81
X106.12Y-88.41
X106.72Y-86.01
X106.72Y-86.61
X106.72Y-87.21
X106.72Y-87.81
X106.72Y-88.41
X109.31Y-88.07
X111.08Y-91.61
X111.32Y-92.31
X112.06Y-87.26
X113.97Y-92.15
X114.3Y-83.74
X114.62Y-82.41
X115.41Y-82.42
X115.57Y-86.63
X115.59Y-87.724
X117.19Y-86.815
X117.19Y-88.085
X117.19Y-89.34
X118.96Y-82.35
X119.01Y-83.01
X119.01Y-83.69
X119.71Y-82.34
X119.73Y-83.03
X119.74Y-83.7
X120.41Y-82.34
X120.47Y-83.03
X120.48Y-83.71
X122.39Y-83.005
X123.99Y-83.861
X124.975Y-90.709
X125.0Y-87.966
X125.0Y-92.08
X125.01Y-86.58
X125.76Y-88.79
X125.8Y-85.51
X126.13Y-82.54
X126.14Y-83.31
X126.83Y-86.73
X126.86Y-85.16
X127.83Y-91.92
X129.31Y-82.44
X129.34Y-83.4
X129.92Y-85.0
X129.92Y-85.99
X129.92Y-87.3
X129.92Y-88.5
X130.211Y-83.401
X130.25Y-82.44
X131.23Y-82.44
X132.12Y-82.44
T3
X131.72Y-84.115
X131.72Y-85.385
X131.72Y-86.655
X131.72Y-87.925
X131.72Y-89.195
X131.72Y-90.465
T2
G00X105.76Y-82.97
M15
G01X105.16Y-82.97
M16
G05
G00X105.76Y-91.61
M15
G01X105.16Y-91.61
M16
G05
G00X110.19Y-82.97
M15
G01X109.09Y-82.97
M16
G05
G00X110.19Y-91.61
M15
G01X109.09Y-91.61
M16
G05
T0
M30
