%TF.GenerationSoftware,KiCad,Pcbnew,(6.0.0)*%
%TF.CreationDate,2022-02-12T21:43:18+08:00*%
%TF.ProjectId,esp8266,65737038-3236-4362-9e6b-696361645f70,rev?*%
%TF.SameCoordinates,Original*%
%TF.FileFunction,Copper,L4,Bot*%
%TF.FilePolarity,Positive*%
%FSLAX46Y46*%
G04 Gerber Fmt 4.6, Leading zero omitted, Abs format (unit mm)*
G04 Created by KiCad (PCBNEW (6.0.0)) date 2022-02-12 21:43:18*
%MOMM*%
%LPD*%
G01*
G04 APERTURE LIST*
%TA.AperFunction,ComponentPad*%
%ADD10R,1.700000X1.700000*%
%TD*%
%TA.AperFunction,ComponentPad*%
%ADD11O,1.700000X1.700000*%
%TD*%
%TA.AperFunction,ComponentPad*%
%ADD12R,1.000000X1.000000*%
%TD*%
%TA.AperFunction,ComponentPad*%
%ADD13O,1.000000X1.000000*%
%TD*%
%TA.AperFunction,ViaPad*%
%ADD14C,0.450000*%
%TD*%
%TA.AperFunction,Conductor*%
%ADD15C,0.400000*%
%TD*%
%TA.AperFunction,Conductor*%
%ADD16C,0.100000*%
%TD*%
G04 APERTURE END LIST*
D10*
%TO.P,J4,1,Pin_1*%
%TO.N,/ADC_IN*%
X118364000Y-113284000D03*
D11*
%TO.P,J4,2,Pin_2*%
%TO.N,/CHIP_PU*%
X118364000Y-115824000D03*
%TO.P,J4,3,Pin_3*%
%TO.N,/GPIO16*%
X118364000Y-118364000D03*
%TO.P,J4,4,Pin_4*%
%TO.N,/MTMS*%
X118364000Y-120904000D03*
%TO.P,J4,5,Pin_5*%
%TO.N,/GPIO2*%
X118364000Y-123444000D03*
%TO.P,J4,6,Pin_6*%
%TO.N,/GPIO0*%
X118364000Y-125984000D03*
%TO.P,J4,7,Pin_7*%
%TO.N,/GPIO4*%
X118364000Y-128524000D03*
%TO.P,J4,8,Pin_8*%
%TO.N,/SD2{slash}GPIO9*%
X118364000Y-131064000D03*
%TO.P,J4,9,Pin_9*%
%TO.N,/SD3{slash}CS*%
X118364000Y-133604000D03*
%TO.P,J4,10,Pin_10*%
%TO.N,/CMD{slash}MOSI*%
X118364000Y-136144000D03*
%TO.P,J4,11,Pin_11*%
%TO.N,/SCLK*%
X118364000Y-138684000D03*
%TO.P,J4,12,Pin_12*%
%TO.N,/SD0{slash}MISO*%
X118364000Y-141224000D03*
%TO.P,J4,13,Pin_13*%
%TO.N,/SD1{slash}INT*%
X118364000Y-143764000D03*
%TO.P,J4,14,Pin_14*%
%TO.N,/GPIO5*%
X118364000Y-146304000D03*
%TO.P,J4,15,Pin_15*%
%TO.N,unconnected-(J4-Pad15)*%
X118364000Y-148844000D03*
%TD*%
D12*
%TO.P,J2,1,Pin_1*%
%TO.N,+3V3*%
X143510000Y-125984000D03*
D13*
%TO.P,J2,2,Pin_2*%
%TO.N,GND*%
X143510000Y-127254000D03*
%TO.P,J2,3,Pin_3*%
%TO.N,/RST*%
X143510000Y-128524000D03*
%TO.P,J2,4,Pin_4*%
%TO.N,/GPIO0*%
X143510000Y-129794000D03*
%TO.P,J2,5,Pin_5*%
%TO.N,/TXD*%
X143510000Y-131064000D03*
%TO.P,J2,6,Pin_6*%
%TO.N,/RXD*%
X143510000Y-132334000D03*
%TD*%
D10*
%TO.P,J1,1,Pin_1*%
%TO.N,+3V3*%
X142494000Y-148336000D03*
D11*
%TO.P,J1,2,Pin_2*%
%TO.N,GND*%
X139954000Y-148336000D03*
%TD*%
D14*
%TO.N,+3V3*%
X122511816Y-115158389D03*
X129963353Y-113099496D03*
X140076500Y-117894232D03*
X135532897Y-128264023D03*
X132195647Y-128153270D03*
X130556000Y-132179500D03*
X134158924Y-116950881D03*
X128243907Y-118504500D03*
X128932739Y-128074200D03*
X136098000Y-118824000D03*
X129794000Y-132179500D03*
X126341843Y-130622992D03*
X131318000Y-132179500D03*
X123936850Y-123472882D03*
X129301480Y-121824344D03*
X131892000Y-115635994D03*
%TO.N,GND*%
X131042000Y-118780000D03*
X132242000Y-120580000D03*
X132842000Y-119380000D03*
X132842000Y-119980000D03*
X132842000Y-118780000D03*
X131642000Y-120580000D03*
X131642000Y-119380000D03*
X132242000Y-119380000D03*
X132242000Y-119980000D03*
X132842000Y-120580000D03*
X130442000Y-119380000D03*
X131042000Y-119380000D03*
X132242000Y-118780000D03*
X132242000Y-118180000D03*
X130442000Y-119980000D03*
X131042000Y-118180000D03*
X132842000Y-118180000D03*
X126492000Y-120396000D03*
X131042000Y-120580000D03*
X137882000Y-115072204D03*
X127254000Y-120396000D03*
X131642000Y-118780000D03*
X131042000Y-119980000D03*
X131642000Y-118180000D03*
X131642000Y-119980000D03*
X130442000Y-118780000D03*
X130442000Y-118180000D03*
X130442000Y-120580000D03*
%TO.N,/RST*%
X136618467Y-127895637D03*
X139446000Y-118618000D03*
%TO.N,/GPIO16*%
X129540000Y-116078000D03*
X130060572Y-127885176D03*
%TO.N,/TXD*%
X134402665Y-127889523D03*
X134740800Y-121855775D03*
%TO.N,/RXD*%
X134156177Y-121780340D03*
X133350000Y-127822500D03*
%TO.N,/GPIO0*%
X127762000Y-127762000D03*
X128016000Y-122936000D03*
%TO.N,/ADC_IN*%
X130810000Y-115570000D03*
%TO.N,/CHIP_PU*%
X130392000Y-115988000D03*
%TO.N,/GPIO2*%
X127116188Y-123306188D03*
X125506591Y-127869952D03*
%TO.N,/MTMS*%
X128016000Y-117602000D03*
%TO.N,/MTDI*%
X124970000Y-120904000D03*
X127553583Y-118275572D03*
%TO.N,/MTDO*%
X124309057Y-127860523D03*
X123065000Y-123444000D03*
%TD*%
D15*
%TO.N,+3V3*%
X136098000Y-118824000D02*
X136032043Y-118824000D01*
X136032043Y-118824000D02*
X134158924Y-116950881D01*
X133206887Y-116950881D02*
X131892000Y-115635994D01*
X134158924Y-116950881D02*
X133206887Y-116950881D01*
D16*
%TO.N,/RST*%
X139446000Y-118618000D02*
X139446000Y-124206000D01*
X139446000Y-124460000D02*
X143510000Y-128524000D01*
X136618467Y-127895637D02*
X139446000Y-125068104D01*
X139446000Y-125068104D02*
X139446000Y-124206000D01*
X139446000Y-124206000D02*
X139446000Y-124460000D01*
%TO.N,/GPIO16*%
X122174000Y-114300000D02*
X118364000Y-118110000D01*
X129794000Y-127618604D02*
X129794000Y-116332000D01*
X127762000Y-114300000D02*
X122174000Y-114300000D01*
X129794000Y-116332000D02*
X129540000Y-116078000D01*
X129540000Y-116078000D02*
X127762000Y-114300000D01*
X118364000Y-118110000D02*
X118364000Y-118364000D01*
X130060572Y-127885176D02*
X129794000Y-127618604D01*
%TO.N,/TXD*%
X134402665Y-127889523D02*
X134402665Y-128306665D01*
X137160000Y-131064000D02*
X143510000Y-131064000D01*
X134402665Y-128306665D02*
X137160000Y-131064000D01*
X134402665Y-122193910D02*
X134740800Y-121855775D01*
X134402665Y-127889523D02*
X134402665Y-122193910D01*
%TO.N,/RXD*%
X134112000Y-127070162D02*
X134112000Y-121824517D01*
X137922000Y-132334000D02*
X143510000Y-132334000D01*
X133359662Y-127822500D02*
X134112000Y-127070162D01*
X133350000Y-127822500D02*
X133359662Y-127822500D01*
X134112000Y-121824517D02*
X134156177Y-121780340D01*
X133350000Y-127822500D02*
X133410500Y-127822500D01*
X133410500Y-127822500D02*
X137922000Y-132334000D01*
%TO.N,/GPIO0*%
X128016000Y-127508000D02*
X128016000Y-122936000D01*
X127762000Y-127762000D02*
X128016000Y-127508000D01*
%TO.N,/ADC_IN*%
X118364000Y-113284000D02*
X118872000Y-113792000D01*
X129032000Y-113792000D02*
X130810000Y-115570000D01*
X118872000Y-113792000D02*
X129032000Y-113792000D01*
%TO.N,/CHIP_PU*%
X120142000Y-114046000D02*
X118364000Y-115824000D01*
X128450000Y-114046000D02*
X120142000Y-114046000D01*
X130392000Y-115988000D02*
X128450000Y-114046000D01*
%TO.N,/GPIO2*%
X125506591Y-127869952D02*
X127116188Y-126260355D01*
X127116188Y-126260355D02*
X127116188Y-123306188D01*
%TO.N,/MTMS*%
X128016000Y-117602000D02*
X121666000Y-117602000D01*
X121666000Y-117602000D02*
X118364000Y-120904000D01*
%TO.N,/MTDI*%
X124970000Y-120859155D02*
X124970000Y-120904000D01*
X127553583Y-118275572D02*
X124970000Y-120859155D01*
%TO.N,/MTDO*%
X123065000Y-126616466D02*
X123065000Y-123444000D01*
X124309057Y-127860523D02*
X123065000Y-126616466D01*
%TD*%
%TA.AperFunction,Conductor*%
%TO.N,GND*%
G36*
X145501152Y-111118907D02*
G01*
X145537116Y-111168407D01*
X145541961Y-111199037D01*
X145533353Y-132863952D01*
X145526345Y-150501039D01*
X145507415Y-150559223D01*
X145457900Y-150595167D01*
X145427345Y-150600000D01*
X116899000Y-150600000D01*
X116840809Y-150581093D01*
X116804845Y-150531593D01*
X116800000Y-150501000D01*
X116800000Y-148829262D01*
X117308520Y-148829262D01*
X117325759Y-149034553D01*
X117382544Y-149232586D01*
X117476712Y-149415818D01*
X117604677Y-149577270D01*
X117608357Y-149580402D01*
X117608359Y-149580404D01*
X117721017Y-149676283D01*
X117761564Y-149710791D01*
X117765787Y-149713151D01*
X117765791Y-149713154D01*
X117805342Y-149735258D01*
X117941398Y-149811297D01*
X117945996Y-149812791D01*
X118132724Y-149873463D01*
X118132726Y-149873464D01*
X118137329Y-149874959D01*
X118341894Y-149899351D01*
X118346716Y-149898980D01*
X118346719Y-149898980D01*
X118414541Y-149893761D01*
X118547300Y-149883546D01*
X118745725Y-149828145D01*
X118750038Y-149825966D01*
X118750044Y-149825964D01*
X118925289Y-149737441D01*
X118925291Y-149737440D01*
X118929610Y-149735258D01*
X118964943Y-149707653D01*
X119088135Y-149611406D01*
X119088139Y-149611402D01*
X119091951Y-149608424D01*
X119226564Y-149452472D01*
X119236260Y-149435404D01*
X119325934Y-149277550D01*
X119325935Y-149277547D01*
X119328323Y-149273344D01*
X119331355Y-149264231D01*
X119391824Y-149082454D01*
X119391824Y-149082452D01*
X119393351Y-149077863D01*
X119419171Y-148873474D01*
X119419583Y-148844000D01*
X119417667Y-148824454D01*
X119399952Y-148643780D01*
X119399951Y-148643776D01*
X119399480Y-148638970D01*
X119390708Y-148609914D01*
X119356135Y-148495405D01*
X138811898Y-148495405D01*
X138812995Y-148512145D01*
X138814408Y-148521064D01*
X138864200Y-148717121D01*
X138867220Y-148725649D01*
X138951904Y-148909341D01*
X138956422Y-148917167D01*
X139073171Y-149082363D01*
X139079035Y-149089229D01*
X139223931Y-149230381D01*
X139230954Y-149236068D01*
X139399138Y-149348446D01*
X139407093Y-149352764D01*
X139592929Y-149432606D01*
X139601540Y-149435404D01*
X139793830Y-149478914D01*
X139801167Y-149476840D01*
X139803787Y-149473514D01*
X139804000Y-149472317D01*
X139804000Y-149460679D01*
X140104000Y-149460679D01*
X140108122Y-149473364D01*
X140109292Y-149474215D01*
X140115272Y-149474725D01*
X140219115Y-149459668D01*
X140227914Y-149457556D01*
X140419450Y-149392538D01*
X140427714Y-149388858D01*
X140604194Y-149290026D01*
X140611652Y-149284900D01*
X140706822Y-149205748D01*
X141443500Y-149205748D01*
X141455133Y-149264231D01*
X141499448Y-149330552D01*
X141565769Y-149374867D01*
X141575332Y-149376769D01*
X141575334Y-149376770D01*
X141598005Y-149381279D01*
X141624252Y-149386500D01*
X143363748Y-149386500D01*
X143389995Y-149381279D01*
X143412666Y-149376770D01*
X143412668Y-149376769D01*
X143422231Y-149374867D01*
X143488552Y-149330552D01*
X143532867Y-149264231D01*
X143544500Y-149205748D01*
X143544500Y-147466252D01*
X143532867Y-147407769D01*
X143488552Y-147341448D01*
X143422231Y-147297133D01*
X143412668Y-147295231D01*
X143412666Y-147295230D01*
X143389995Y-147290721D01*
X143363748Y-147285500D01*
X141624252Y-147285500D01*
X141598005Y-147290721D01*
X141575334Y-147295230D01*
X141575332Y-147295231D01*
X141565769Y-147297133D01*
X141499448Y-147341448D01*
X141455133Y-147407769D01*
X141443500Y-147466252D01*
X141443500Y-149205748D01*
X140706822Y-149205748D01*
X140767157Y-149155568D01*
X140773568Y-149149157D01*
X140902900Y-148993652D01*
X140908026Y-148986194D01*
X141006858Y-148809714D01*
X141010538Y-148801450D01*
X141075556Y-148609914D01*
X141077668Y-148601115D01*
X141092109Y-148501518D01*
X141089850Y-148488372D01*
X141088815Y-148487363D01*
X141082968Y-148486000D01*
X140119680Y-148486000D01*
X140106995Y-148490122D01*
X140104000Y-148494243D01*
X140104000Y-149460679D01*
X139804000Y-149460679D01*
X139804000Y-148501680D01*
X139799878Y-148488995D01*
X139795757Y-148486000D01*
X138826962Y-148486000D01*
X138814277Y-148490122D01*
X138812202Y-148492978D01*
X138811898Y-148495405D01*
X119356135Y-148495405D01*
X119354540Y-148490122D01*
X119339935Y-148441749D01*
X119243218Y-148259849D01*
X119170288Y-148170428D01*
X138815487Y-148170428D01*
X138818090Y-148183511D01*
X138819663Y-148184965D01*
X138824378Y-148186000D01*
X139788320Y-148186000D01*
X139801005Y-148181878D01*
X139804000Y-148177757D01*
X139804000Y-148170320D01*
X140104000Y-148170320D01*
X140108122Y-148183005D01*
X140112243Y-148186000D01*
X141079464Y-148186000D01*
X141092149Y-148181878D01*
X141093818Y-148179582D01*
X141094222Y-148175966D01*
X141090003Y-148130048D01*
X141088356Y-148121164D01*
X141033449Y-147926481D01*
X141030208Y-147918037D01*
X140940745Y-147736624D01*
X140936020Y-147728914D01*
X140814994Y-147566840D01*
X140808945Y-147560122D01*
X140660405Y-147422814D01*
X140653240Y-147417315D01*
X140482163Y-147309374D01*
X140474110Y-147305271D01*
X140286229Y-147230314D01*
X140277571Y-147227749D01*
X140119379Y-147196283D01*
X140106132Y-147197851D01*
X140106100Y-147197881D01*
X140104000Y-147205928D01*
X140104000Y-148170320D01*
X139804000Y-148170320D01*
X139804000Y-147210517D01*
X139799878Y-147197832D01*
X139799274Y-147197393D01*
X139792127Y-147196877D01*
X139659559Y-147219657D01*
X139650823Y-147221998D01*
X139461050Y-147292009D01*
X139452887Y-147295902D01*
X139279047Y-147399326D01*
X139271745Y-147404631D01*
X139119657Y-147538010D01*
X139113434Y-147544568D01*
X138988209Y-147703415D01*
X138983284Y-147710998D01*
X138889097Y-147890018D01*
X138885643Y-147898358D01*
X138825658Y-148091538D01*
X138823777Y-148100389D01*
X138815487Y-148170428D01*
X119170288Y-148170428D01*
X119113011Y-148100200D01*
X119104945Y-148093527D01*
X118958002Y-147971965D01*
X118958000Y-147971964D01*
X118954275Y-147968882D01*
X118773055Y-147870897D01*
X118709855Y-147851333D01*
X118580875Y-147811407D01*
X118580871Y-147811406D01*
X118576254Y-147809977D01*
X118571446Y-147809472D01*
X118571443Y-147809471D01*
X118376185Y-147788949D01*
X118376183Y-147788949D01*
X118371369Y-147788443D01*
X118311354Y-147793905D01*
X118171022Y-147806675D01*
X118171017Y-147806676D01*
X118166203Y-147807114D01*
X117968572Y-147865280D01*
X117964288Y-147867519D01*
X117964287Y-147867520D01*
X117953428Y-147873197D01*
X117786002Y-147960726D01*
X117782231Y-147963758D01*
X117629220Y-148086781D01*
X117629217Y-148086783D01*
X117625447Y-148089815D01*
X117622333Y-148093526D01*
X117622332Y-148093527D01*
X117548197Y-148181878D01*
X117493024Y-148247630D01*
X117490689Y-148251878D01*
X117490688Y-148251879D01*
X117483955Y-148264126D01*
X117393776Y-148428162D01*
X117392313Y-148432775D01*
X117392311Y-148432779D01*
X117374121Y-148490122D01*
X117331484Y-148624532D01*
X117330944Y-148629344D01*
X117330944Y-148629345D01*
X117310713Y-148809714D01*
X117308520Y-148829262D01*
X116800000Y-148829262D01*
X116800000Y-146289262D01*
X117308520Y-146289262D01*
X117325759Y-146494553D01*
X117382544Y-146692586D01*
X117476712Y-146875818D01*
X117604677Y-147037270D01*
X117608357Y-147040402D01*
X117608359Y-147040404D01*
X117721017Y-147136283D01*
X117761564Y-147170791D01*
X117765787Y-147173151D01*
X117765791Y-147173154D01*
X117824434Y-147205928D01*
X117941398Y-147271297D01*
X117945996Y-147272791D01*
X118132724Y-147333463D01*
X118132726Y-147333464D01*
X118137329Y-147334959D01*
X118341894Y-147359351D01*
X118346716Y-147358980D01*
X118346719Y-147358980D01*
X118414541Y-147353761D01*
X118547300Y-147343546D01*
X118745725Y-147288145D01*
X118750038Y-147285966D01*
X118750044Y-147285964D01*
X118925289Y-147197441D01*
X118925291Y-147197440D01*
X118929610Y-147195258D01*
X118964943Y-147167653D01*
X119088135Y-147071406D01*
X119088139Y-147071402D01*
X119091951Y-147068424D01*
X119226564Y-146912472D01*
X119245231Y-146879613D01*
X119325934Y-146737550D01*
X119325935Y-146737547D01*
X119328323Y-146733344D01*
X119341882Y-146692586D01*
X119391824Y-146542454D01*
X119391824Y-146542452D01*
X119393351Y-146537863D01*
X119419171Y-146333474D01*
X119419583Y-146304000D01*
X119399480Y-146098970D01*
X119339935Y-145901749D01*
X119243218Y-145719849D01*
X119113011Y-145560200D01*
X118954275Y-145428882D01*
X118773055Y-145330897D01*
X118709855Y-145311333D01*
X118580875Y-145271407D01*
X118580871Y-145271406D01*
X118576254Y-145269977D01*
X118571446Y-145269472D01*
X118571443Y-145269471D01*
X118376185Y-145248949D01*
X118376183Y-145248949D01*
X118371369Y-145248443D01*
X118311354Y-145253905D01*
X118171022Y-145266675D01*
X118171017Y-145266676D01*
X118166203Y-145267114D01*
X117968572Y-145325280D01*
X117964288Y-145327519D01*
X117964287Y-145327520D01*
X117953428Y-145333197D01*
X117786002Y-145420726D01*
X117782231Y-145423758D01*
X117629220Y-145546781D01*
X117629217Y-145546783D01*
X117625447Y-145549815D01*
X117622333Y-145553526D01*
X117622332Y-145553527D01*
X117613585Y-145563952D01*
X117493024Y-145707630D01*
X117490689Y-145711878D01*
X117490688Y-145711879D01*
X117483955Y-145724126D01*
X117393776Y-145888162D01*
X117331484Y-146084532D01*
X117330944Y-146089344D01*
X117330944Y-146089345D01*
X117329865Y-146098970D01*
X117308520Y-146289262D01*
X116800000Y-146289262D01*
X116800000Y-143749262D01*
X117308520Y-143749262D01*
X117325759Y-143954553D01*
X117382544Y-144152586D01*
X117476712Y-144335818D01*
X117604677Y-144497270D01*
X117608357Y-144500402D01*
X117608359Y-144500404D01*
X117721017Y-144596283D01*
X117761564Y-144630791D01*
X117765787Y-144633151D01*
X117765791Y-144633154D01*
X117805342Y-144655258D01*
X117941398Y-144731297D01*
X117945996Y-144732791D01*
X118132724Y-144793463D01*
X118132726Y-144793464D01*
X118137329Y-144794959D01*
X118341894Y-144819351D01*
X118346716Y-144818980D01*
X118346719Y-144818980D01*
X118414541Y-144813761D01*
X118547300Y-144803546D01*
X118745725Y-144748145D01*
X118750038Y-144745966D01*
X118750044Y-144745964D01*
X118925289Y-144657441D01*
X118925291Y-144657440D01*
X118929610Y-144655258D01*
X118964943Y-144627653D01*
X119088135Y-144531406D01*
X119088139Y-144531402D01*
X119091951Y-144528424D01*
X119226564Y-144372472D01*
X119245231Y-144339613D01*
X119325934Y-144197550D01*
X119325935Y-144197547D01*
X119328323Y-144193344D01*
X119341882Y-144152586D01*
X119391824Y-144002454D01*
X119391824Y-144002452D01*
X119393351Y-143997863D01*
X119419171Y-143793474D01*
X119419583Y-143764000D01*
X119399480Y-143558970D01*
X119339935Y-143361749D01*
X119243218Y-143179849D01*
X119113011Y-143020200D01*
X118954275Y-142888882D01*
X118773055Y-142790897D01*
X118709855Y-142771333D01*
X118580875Y-142731407D01*
X118580871Y-142731406D01*
X118576254Y-142729977D01*
X118571446Y-142729472D01*
X118571443Y-142729471D01*
X118376185Y-142708949D01*
X118376183Y-142708949D01*
X118371369Y-142708443D01*
X118311354Y-142713905D01*
X118171022Y-142726675D01*
X118171017Y-142726676D01*
X118166203Y-142727114D01*
X117968572Y-142785280D01*
X117964288Y-142787519D01*
X117964287Y-142787520D01*
X117953428Y-142793197D01*
X117786002Y-142880726D01*
X117782231Y-142883758D01*
X117629220Y-143006781D01*
X117629217Y-143006783D01*
X117625447Y-143009815D01*
X117622333Y-143013526D01*
X117622332Y-143013527D01*
X117613585Y-143023952D01*
X117493024Y-143167630D01*
X117490689Y-143171878D01*
X117490688Y-143171879D01*
X117483955Y-143184126D01*
X117393776Y-143348162D01*
X117331484Y-143544532D01*
X117330944Y-143549344D01*
X117330944Y-143549345D01*
X117329865Y-143558970D01*
X117308520Y-143749262D01*
X116800000Y-143749262D01*
X116800000Y-141209262D01*
X117308520Y-141209262D01*
X117325759Y-141414553D01*
X117382544Y-141612586D01*
X117476712Y-141795818D01*
X117604677Y-141957270D01*
X117608357Y-141960402D01*
X117608359Y-141960404D01*
X117721017Y-142056283D01*
X117761564Y-142090791D01*
X117765787Y-142093151D01*
X117765791Y-142093154D01*
X117805342Y-142115258D01*
X117941398Y-142191297D01*
X117945996Y-142192791D01*
X118132724Y-142253463D01*
X118132726Y-142253464D01*
X118137329Y-142254959D01*
X118341894Y-142279351D01*
X118346716Y-142278980D01*
X118346719Y-142278980D01*
X118414541Y-142273761D01*
X118547300Y-142263546D01*
X118745725Y-142208145D01*
X118750038Y-142205966D01*
X118750044Y-142205964D01*
X118925289Y-142117441D01*
X118925291Y-142117440D01*
X118929610Y-142115258D01*
X118964943Y-142087653D01*
X119088135Y-141991406D01*
X119088139Y-141991402D01*
X119091951Y-141988424D01*
X119226564Y-141832472D01*
X119245231Y-141799613D01*
X119325934Y-141657550D01*
X119325935Y-141657547D01*
X119328323Y-141653344D01*
X119341882Y-141612586D01*
X119391824Y-141462454D01*
X119391824Y-141462452D01*
X119393351Y-141457863D01*
X119419171Y-141253474D01*
X119419583Y-141224000D01*
X119399480Y-141018970D01*
X119339935Y-140821749D01*
X119243218Y-140639849D01*
X119113011Y-140480200D01*
X118954275Y-140348882D01*
X118773055Y-140250897D01*
X118709855Y-140231333D01*
X118580875Y-140191407D01*
X118580871Y-140191406D01*
X118576254Y-140189977D01*
X118571446Y-140189472D01*
X118571443Y-140189471D01*
X118376185Y-140168949D01*
X118376183Y-140168949D01*
X118371369Y-140168443D01*
X118311354Y-140173905D01*
X118171022Y-140186675D01*
X118171017Y-140186676D01*
X118166203Y-140187114D01*
X117968572Y-140245280D01*
X117964288Y-140247519D01*
X117964287Y-140247520D01*
X117953428Y-140253197D01*
X117786002Y-140340726D01*
X117782231Y-140343758D01*
X117629220Y-140466781D01*
X117629217Y-140466783D01*
X117625447Y-140469815D01*
X117622333Y-140473526D01*
X117622332Y-140473527D01*
X117613585Y-140483952D01*
X117493024Y-140627630D01*
X117490689Y-140631878D01*
X117490688Y-140631879D01*
X117483955Y-140644126D01*
X117393776Y-140808162D01*
X117331484Y-141004532D01*
X117330944Y-141009344D01*
X117330944Y-141009345D01*
X117329865Y-141018970D01*
X117308520Y-141209262D01*
X116800000Y-141209262D01*
X116800000Y-138669262D01*
X117308520Y-138669262D01*
X117325759Y-138874553D01*
X117382544Y-139072586D01*
X117476712Y-139255818D01*
X117604677Y-139417270D01*
X117608357Y-139420402D01*
X117608359Y-139420404D01*
X117721017Y-139516283D01*
X117761564Y-139550791D01*
X117765787Y-139553151D01*
X117765791Y-139553154D01*
X117805342Y-139575258D01*
X117941398Y-139651297D01*
X117945996Y-139652791D01*
X118132724Y-139713463D01*
X118132726Y-139713464D01*
X118137329Y-139714959D01*
X118341894Y-139739351D01*
X118346716Y-139738980D01*
X118346719Y-139738980D01*
X118414541Y-139733761D01*
X118547300Y-139723546D01*
X118745725Y-139668145D01*
X118750038Y-139665966D01*
X118750044Y-139665964D01*
X118925289Y-139577441D01*
X118925291Y-139577440D01*
X118929610Y-139575258D01*
X118964943Y-139547653D01*
X119088135Y-139451406D01*
X119088139Y-139451402D01*
X119091951Y-139448424D01*
X119226564Y-139292472D01*
X119245231Y-139259613D01*
X119325934Y-139117550D01*
X119325935Y-139117547D01*
X119328323Y-139113344D01*
X119341882Y-139072586D01*
X119391824Y-138922454D01*
X119391824Y-138922452D01*
X119393351Y-138917863D01*
X119419171Y-138713474D01*
X119419583Y-138684000D01*
X119399480Y-138478970D01*
X119339935Y-138281749D01*
X119243218Y-138099849D01*
X119113011Y-137940200D01*
X118954275Y-137808882D01*
X118773055Y-137710897D01*
X118709855Y-137691333D01*
X118580875Y-137651407D01*
X118580871Y-137651406D01*
X118576254Y-137649977D01*
X118571446Y-137649472D01*
X118571443Y-137649471D01*
X118376185Y-137628949D01*
X118376183Y-137628949D01*
X118371369Y-137628443D01*
X118311354Y-137633905D01*
X118171022Y-137646675D01*
X118171017Y-137646676D01*
X118166203Y-137647114D01*
X117968572Y-137705280D01*
X117964288Y-137707519D01*
X117964287Y-137707520D01*
X117953428Y-137713197D01*
X117786002Y-137800726D01*
X117782231Y-137803758D01*
X117629220Y-137926781D01*
X117629217Y-137926783D01*
X117625447Y-137929815D01*
X117622333Y-137933526D01*
X117622332Y-137933527D01*
X117613585Y-137943952D01*
X117493024Y-138087630D01*
X117490689Y-138091878D01*
X117490688Y-138091879D01*
X117483955Y-138104126D01*
X117393776Y-138268162D01*
X117331484Y-138464532D01*
X117330944Y-138469344D01*
X117330944Y-138469345D01*
X117329865Y-138478970D01*
X117308520Y-138669262D01*
X116800000Y-138669262D01*
X116800000Y-136129262D01*
X117308520Y-136129262D01*
X117325759Y-136334553D01*
X117382544Y-136532586D01*
X117476712Y-136715818D01*
X117604677Y-136877270D01*
X117608357Y-136880402D01*
X117608359Y-136880404D01*
X117721017Y-136976283D01*
X117761564Y-137010791D01*
X117765787Y-137013151D01*
X117765791Y-137013154D01*
X117805342Y-137035258D01*
X117941398Y-137111297D01*
X117945996Y-137112791D01*
X118132724Y-137173463D01*
X118132726Y-137173464D01*
X118137329Y-137174959D01*
X118341894Y-137199351D01*
X118346716Y-137198980D01*
X118346719Y-137198980D01*
X118414541Y-137193761D01*
X118547300Y-137183546D01*
X118745725Y-137128145D01*
X118750038Y-137125966D01*
X118750044Y-137125964D01*
X118925289Y-137037441D01*
X118925291Y-137037440D01*
X118929610Y-137035258D01*
X118964943Y-137007653D01*
X119088135Y-136911406D01*
X119088139Y-136911402D01*
X119091951Y-136908424D01*
X119226564Y-136752472D01*
X119245231Y-136719613D01*
X119325934Y-136577550D01*
X119325935Y-136577547D01*
X119328323Y-136573344D01*
X119341882Y-136532586D01*
X119391824Y-136382454D01*
X119391824Y-136382452D01*
X119393351Y-136377863D01*
X119419171Y-136173474D01*
X119419583Y-136144000D01*
X119399480Y-135938970D01*
X119339935Y-135741749D01*
X119243218Y-135559849D01*
X119113011Y-135400200D01*
X118954275Y-135268882D01*
X118773055Y-135170897D01*
X118709855Y-135151333D01*
X118580875Y-135111407D01*
X118580871Y-135111406D01*
X118576254Y-135109977D01*
X118571446Y-135109472D01*
X118571443Y-135109471D01*
X118376185Y-135088949D01*
X118376183Y-135088949D01*
X118371369Y-135088443D01*
X118311354Y-135093905D01*
X118171022Y-135106675D01*
X118171017Y-135106676D01*
X118166203Y-135107114D01*
X117968572Y-135165280D01*
X117964288Y-135167519D01*
X117964287Y-135167520D01*
X117953428Y-135173197D01*
X117786002Y-135260726D01*
X117782231Y-135263758D01*
X117629220Y-135386781D01*
X117629217Y-135386783D01*
X117625447Y-135389815D01*
X117622333Y-135393526D01*
X117622332Y-135393527D01*
X117613585Y-135403952D01*
X117493024Y-135547630D01*
X117490689Y-135551878D01*
X117490688Y-135551879D01*
X117483955Y-135564126D01*
X117393776Y-135728162D01*
X117331484Y-135924532D01*
X117330944Y-135929344D01*
X117330944Y-135929345D01*
X117329865Y-135938970D01*
X117308520Y-136129262D01*
X116800000Y-136129262D01*
X116800000Y-133589262D01*
X117308520Y-133589262D01*
X117325759Y-133794553D01*
X117382544Y-133992586D01*
X117476712Y-134175818D01*
X117604677Y-134337270D01*
X117608357Y-134340402D01*
X117608359Y-134340404D01*
X117721017Y-134436283D01*
X117761564Y-134470791D01*
X117765787Y-134473151D01*
X117765791Y-134473154D01*
X117805342Y-134495258D01*
X117941398Y-134571297D01*
X117945996Y-134572791D01*
X118132724Y-134633463D01*
X118132726Y-134633464D01*
X118137329Y-134634959D01*
X118341894Y-134659351D01*
X118346716Y-134658980D01*
X118346719Y-134658980D01*
X118414541Y-134653761D01*
X118547300Y-134643546D01*
X118745725Y-134588145D01*
X118750038Y-134585966D01*
X118750044Y-134585964D01*
X118925289Y-134497441D01*
X118925291Y-134497440D01*
X118929610Y-134495258D01*
X118964943Y-134467653D01*
X119088135Y-134371406D01*
X119088139Y-134371402D01*
X119091951Y-134368424D01*
X119226564Y-134212472D01*
X119245231Y-134179613D01*
X119325934Y-134037550D01*
X119325935Y-134037547D01*
X119328323Y-134033344D01*
X119341882Y-133992586D01*
X119391824Y-133842454D01*
X119391824Y-133842452D01*
X119393351Y-133837863D01*
X119419171Y-133633474D01*
X119419583Y-133604000D01*
X119399480Y-133398970D01*
X119339935Y-133201749D01*
X119243218Y-133019849D01*
X119113011Y-132860200D01*
X119054305Y-132811634D01*
X118958002Y-132731965D01*
X118958000Y-132731964D01*
X118954275Y-132728882D01*
X118773055Y-132630897D01*
X118684249Y-132603407D01*
X118580875Y-132571407D01*
X118580871Y-132571406D01*
X118576254Y-132569977D01*
X118571446Y-132569472D01*
X118571443Y-132569471D01*
X118376185Y-132548949D01*
X118376183Y-132548949D01*
X118371369Y-132548443D01*
X118311354Y-132553905D01*
X118171022Y-132566675D01*
X118171017Y-132566676D01*
X118166203Y-132567114D01*
X117968572Y-132625280D01*
X117964288Y-132627519D01*
X117964287Y-132627520D01*
X117953428Y-132633197D01*
X117786002Y-132720726D01*
X117782231Y-132723758D01*
X117629220Y-132846781D01*
X117629217Y-132846783D01*
X117625447Y-132849815D01*
X117622333Y-132853526D01*
X117622332Y-132853527D01*
X117500046Y-132999262D01*
X117493024Y-133007630D01*
X117490689Y-133011878D01*
X117490688Y-133011879D01*
X117483955Y-133024126D01*
X117393776Y-133188162D01*
X117331484Y-133384532D01*
X117330944Y-133389344D01*
X117330944Y-133389345D01*
X117329865Y-133398970D01*
X117308520Y-133589262D01*
X116800000Y-133589262D01*
X116800000Y-132179500D01*
X129363196Y-132179500D01*
X129384281Y-132312626D01*
X129387817Y-132319565D01*
X129387817Y-132319566D01*
X129395172Y-132334000D01*
X129445472Y-132432720D01*
X129540780Y-132528028D01*
X129547717Y-132531563D01*
X129547719Y-132531564D01*
X129651612Y-132584500D01*
X129660874Y-132589219D01*
X129668568Y-132590438D01*
X129668569Y-132590438D01*
X129786304Y-132609085D01*
X129794000Y-132610304D01*
X129801696Y-132609085D01*
X129919431Y-132590438D01*
X129919432Y-132590438D01*
X129927126Y-132589219D01*
X129936388Y-132584500D01*
X130040281Y-132531564D01*
X130040283Y-132531563D01*
X130047220Y-132528028D01*
X130104996Y-132470252D01*
X130159513Y-132442475D01*
X130219945Y-132452046D01*
X130245004Y-132470252D01*
X130302780Y-132528028D01*
X130309717Y-132531563D01*
X130309719Y-132531564D01*
X130413612Y-132584500D01*
X130422874Y-132589219D01*
X130430568Y-132590438D01*
X130430569Y-132590438D01*
X130548304Y-132609085D01*
X130556000Y-132610304D01*
X130563696Y-132609085D01*
X130681431Y-132590438D01*
X130681432Y-132590438D01*
X130689126Y-132589219D01*
X130698388Y-132584500D01*
X130802281Y-132531564D01*
X130802283Y-132531563D01*
X130809220Y-132528028D01*
X130866996Y-132470252D01*
X130921513Y-132442475D01*
X130981945Y-132452046D01*
X131007004Y-132470252D01*
X131064780Y-132528028D01*
X131071717Y-132531563D01*
X131071719Y-132531564D01*
X131175612Y-132584500D01*
X131184874Y-132589219D01*
X131192568Y-132590438D01*
X131192569Y-132590438D01*
X131310304Y-132609085D01*
X131318000Y-132610304D01*
X131325696Y-132609085D01*
X131443431Y-132590438D01*
X131443432Y-132590438D01*
X131451126Y-132589219D01*
X131460388Y-132584500D01*
X131564281Y-132531564D01*
X131564283Y-132531563D01*
X131571220Y-132528028D01*
X131666528Y-132432720D01*
X131716829Y-132334000D01*
X131724183Y-132319566D01*
X131724183Y-132319565D01*
X131727719Y-132312626D01*
X131748804Y-132179500D01*
X131727719Y-132046374D01*
X131714517Y-132020464D01*
X131670064Y-131933219D01*
X131670063Y-131933217D01*
X131666528Y-131926280D01*
X131571220Y-131830972D01*
X131564283Y-131827437D01*
X131564281Y-131827436D01*
X131458066Y-131773317D01*
X131458065Y-131773317D01*
X131451126Y-131769781D01*
X131443432Y-131768562D01*
X131443431Y-131768562D01*
X131354978Y-131754553D01*
X131318000Y-131748696D01*
X131281022Y-131754553D01*
X131192569Y-131768562D01*
X131192568Y-131768562D01*
X131184874Y-131769781D01*
X131177935Y-131773317D01*
X131177934Y-131773317D01*
X131071719Y-131827436D01*
X131071717Y-131827437D01*
X131064780Y-131830972D01*
X131007004Y-131888748D01*
X130952487Y-131916525D01*
X130892055Y-131906954D01*
X130866996Y-131888748D01*
X130809220Y-131830972D01*
X130802283Y-131827437D01*
X130802281Y-131827436D01*
X130696066Y-131773317D01*
X130696065Y-131773317D01*
X130689126Y-131769781D01*
X130681432Y-131768562D01*
X130681431Y-131768562D01*
X130592978Y-131754553D01*
X130556000Y-131748696D01*
X130519022Y-131754553D01*
X130430569Y-131768562D01*
X130430568Y-131768562D01*
X130422874Y-131769781D01*
X130415935Y-131773317D01*
X130415934Y-131773317D01*
X130309719Y-131827436D01*
X130309717Y-131827437D01*
X130302780Y-131830972D01*
X130245004Y-131888748D01*
X130190487Y-131916525D01*
X130130055Y-131906954D01*
X130104996Y-131888748D01*
X130047220Y-131830972D01*
X130040283Y-131827437D01*
X130040281Y-131827436D01*
X129934066Y-131773317D01*
X129934065Y-131773317D01*
X129927126Y-131769781D01*
X129919432Y-131768562D01*
X129919431Y-131768562D01*
X129830978Y-131754553D01*
X129794000Y-131748696D01*
X129757022Y-131754553D01*
X129668569Y-131768562D01*
X129668568Y-131768562D01*
X129660874Y-131769781D01*
X129653935Y-131773317D01*
X129653934Y-131773317D01*
X129547719Y-131827436D01*
X129547717Y-131827437D01*
X129540780Y-131830972D01*
X129445472Y-131926280D01*
X129441937Y-131933217D01*
X129441936Y-131933219D01*
X129397483Y-132020464D01*
X129384281Y-132046374D01*
X129363196Y-132179500D01*
X116800000Y-132179500D01*
X116800000Y-131049262D01*
X117308520Y-131049262D01*
X117325759Y-131254553D01*
X117327092Y-131259201D01*
X117327092Y-131259202D01*
X117367009Y-131398408D01*
X117382544Y-131452586D01*
X117476712Y-131635818D01*
X117604677Y-131797270D01*
X117608357Y-131800402D01*
X117608359Y-131800404D01*
X117721017Y-131896283D01*
X117761564Y-131930791D01*
X117765787Y-131933151D01*
X117765791Y-131933154D01*
X117805342Y-131955258D01*
X117941398Y-132031297D01*
X117945996Y-132032791D01*
X118132724Y-132093463D01*
X118132726Y-132093464D01*
X118137329Y-132094959D01*
X118341894Y-132119351D01*
X118346716Y-132118980D01*
X118346719Y-132118980D01*
X118414541Y-132113761D01*
X118547300Y-132103546D01*
X118745725Y-132048145D01*
X118750038Y-132045966D01*
X118750044Y-132045964D01*
X118925289Y-131957441D01*
X118925291Y-131957440D01*
X118929610Y-131955258D01*
X118964943Y-131927653D01*
X119088135Y-131831406D01*
X119088139Y-131831402D01*
X119091951Y-131828424D01*
X119138580Y-131774404D01*
X119155708Y-131754560D01*
X119226564Y-131672472D01*
X119228957Y-131668260D01*
X119325934Y-131497550D01*
X119325935Y-131497547D01*
X119328323Y-131493344D01*
X119331597Y-131483504D01*
X119391824Y-131302454D01*
X119391824Y-131302452D01*
X119393351Y-131297863D01*
X119419171Y-131093474D01*
X119419583Y-131064000D01*
X119416515Y-131032711D01*
X119399952Y-130863780D01*
X119399951Y-130863776D01*
X119399480Y-130858970D01*
X119339935Y-130661749D01*
X119319328Y-130622992D01*
X125911039Y-130622992D01*
X125932124Y-130756118D01*
X125935660Y-130763057D01*
X125935660Y-130763058D01*
X125986981Y-130863780D01*
X125993315Y-130876212D01*
X126088623Y-130971520D01*
X126095560Y-130975055D01*
X126095562Y-130975056D01*
X126201777Y-131029175D01*
X126208717Y-131032711D01*
X126216411Y-131033930D01*
X126216412Y-131033930D01*
X126334147Y-131052577D01*
X126341843Y-131053796D01*
X126349539Y-131052577D01*
X126467274Y-131033930D01*
X126467275Y-131033930D01*
X126474969Y-131032711D01*
X126481909Y-131029175D01*
X126588124Y-130975056D01*
X126588126Y-130975055D01*
X126595063Y-130971520D01*
X126690371Y-130876212D01*
X126696706Y-130863780D01*
X126748026Y-130763058D01*
X126748026Y-130763057D01*
X126751562Y-130756118D01*
X126772647Y-130622992D01*
X126753865Y-130504404D01*
X126752781Y-130497561D01*
X126752781Y-130497560D01*
X126751562Y-130489866D01*
X126742397Y-130471879D01*
X126693907Y-130376711D01*
X126693906Y-130376709D01*
X126690371Y-130369772D01*
X126595063Y-130274464D01*
X126588126Y-130270929D01*
X126588124Y-130270928D01*
X126481909Y-130216809D01*
X126481908Y-130216809D01*
X126474969Y-130213273D01*
X126467275Y-130212054D01*
X126467274Y-130212054D01*
X126349539Y-130193407D01*
X126341843Y-130192188D01*
X126334147Y-130193407D01*
X126216412Y-130212054D01*
X126216411Y-130212054D01*
X126208717Y-130213273D01*
X126201778Y-130216809D01*
X126201777Y-130216809D01*
X126095562Y-130270928D01*
X126095560Y-130270929D01*
X126088623Y-130274464D01*
X125993315Y-130369772D01*
X125989780Y-130376709D01*
X125989779Y-130376711D01*
X125941289Y-130471879D01*
X125932124Y-130489866D01*
X125930905Y-130497560D01*
X125930905Y-130497561D01*
X125929821Y-130504404D01*
X125911039Y-130622992D01*
X119319328Y-130622992D01*
X119243218Y-130479849D01*
X119113011Y-130320200D01*
X119096790Y-130306781D01*
X118958002Y-130191965D01*
X118958000Y-130191964D01*
X118954275Y-130188882D01*
X118773055Y-130090897D01*
X118709855Y-130071333D01*
X118580875Y-130031407D01*
X118580871Y-130031406D01*
X118576254Y-130029977D01*
X118571446Y-130029472D01*
X118571443Y-130029471D01*
X118376185Y-130008949D01*
X118376183Y-130008949D01*
X118371369Y-130008443D01*
X118311354Y-130013905D01*
X118171022Y-130026675D01*
X118171017Y-130026676D01*
X118166203Y-130027114D01*
X117968572Y-130085280D01*
X117964288Y-130087519D01*
X117964287Y-130087520D01*
X117953428Y-130093197D01*
X117786002Y-130180726D01*
X117782231Y-130183758D01*
X117629220Y-130306781D01*
X117629217Y-130306783D01*
X117625447Y-130309815D01*
X117622333Y-130313526D01*
X117622332Y-130313527D01*
X117559405Y-130388521D01*
X117493024Y-130467630D01*
X117490689Y-130471878D01*
X117490688Y-130471879D01*
X117486017Y-130480375D01*
X117393776Y-130648162D01*
X117392313Y-130652775D01*
X117392311Y-130652779D01*
X117346305Y-130797811D01*
X117331484Y-130844532D01*
X117330944Y-130849344D01*
X117330944Y-130849345D01*
X117310240Y-131033930D01*
X117308520Y-131049262D01*
X116800000Y-131049262D01*
X116800000Y-128509262D01*
X117308520Y-128509262D01*
X117309488Y-128520789D01*
X117324103Y-128694827D01*
X117325759Y-128714553D01*
X117327092Y-128719201D01*
X117327092Y-128719202D01*
X117367009Y-128858408D01*
X117382544Y-128912586D01*
X117476712Y-129095818D01*
X117604677Y-129257270D01*
X117608357Y-129260402D01*
X117608359Y-129260404D01*
X117687020Y-129327349D01*
X117761564Y-129390791D01*
X117765787Y-129393151D01*
X117765791Y-129393154D01*
X117805342Y-129415258D01*
X117941398Y-129491297D01*
X117945996Y-129492791D01*
X118132724Y-129553463D01*
X118132726Y-129553464D01*
X118137329Y-129554959D01*
X118341894Y-129579351D01*
X118346716Y-129578980D01*
X118346719Y-129578980D01*
X118414541Y-129573761D01*
X118547300Y-129563546D01*
X118745725Y-129508145D01*
X118750038Y-129505966D01*
X118750044Y-129505964D01*
X118925289Y-129417441D01*
X118925291Y-129417440D01*
X118929610Y-129415258D01*
X118964943Y-129387653D01*
X119088135Y-129291406D01*
X119088139Y-129291402D01*
X119091951Y-129288424D01*
X119138580Y-129234404D01*
X119155708Y-129214560D01*
X119226564Y-129132472D01*
X119228957Y-129128260D01*
X119325934Y-128957550D01*
X119325935Y-128957547D01*
X119328323Y-128953344D01*
X119341882Y-128912586D01*
X119391824Y-128762454D01*
X119391824Y-128762452D01*
X119393351Y-128757863D01*
X119404695Y-128668069D01*
X119418823Y-128556228D01*
X119419171Y-128553474D01*
X119419583Y-128524000D01*
X119418937Y-128517411D01*
X119399952Y-128323780D01*
X119399951Y-128323776D01*
X119399480Y-128318970D01*
X119392580Y-128296114D01*
X119346623Y-128143902D01*
X119339935Y-128121749D01*
X119243218Y-127939849D01*
X119113011Y-127780200D01*
X119081708Y-127754304D01*
X118958002Y-127651965D01*
X118958000Y-127651964D01*
X118954275Y-127648882D01*
X118773055Y-127550897D01*
X118665170Y-127517501D01*
X118580875Y-127491407D01*
X118580871Y-127491406D01*
X118576254Y-127489977D01*
X118571446Y-127489472D01*
X118571443Y-127489471D01*
X118376185Y-127468949D01*
X118376183Y-127468949D01*
X118371369Y-127468443D01*
X118314987Y-127473574D01*
X118171022Y-127486675D01*
X118171017Y-127486676D01*
X118166203Y-127487114D01*
X117968572Y-127545280D01*
X117964288Y-127547519D01*
X117964287Y-127547520D01*
X117909392Y-127576219D01*
X117786002Y-127640726D01*
X117782231Y-127643758D01*
X117629220Y-127766781D01*
X117629217Y-127766783D01*
X117625447Y-127769815D01*
X117622333Y-127773526D01*
X117622332Y-127773527D01*
X117501787Y-127917187D01*
X117493024Y-127927630D01*
X117490689Y-127931878D01*
X117490688Y-127931879D01*
X117485633Y-127941074D01*
X117393776Y-128108162D01*
X117392313Y-128112775D01*
X117392311Y-128112779D01*
X117355698Y-128228198D01*
X117331484Y-128304532D01*
X117330944Y-128309344D01*
X117330944Y-128309345D01*
X117311363Y-128483919D01*
X117308520Y-128509262D01*
X116800000Y-128509262D01*
X116800000Y-125969262D01*
X117308520Y-125969262D01*
X117325759Y-126174553D01*
X117327092Y-126179201D01*
X117327092Y-126179202D01*
X117378389Y-126358095D01*
X117382544Y-126372586D01*
X117476712Y-126555818D01*
X117604677Y-126717270D01*
X117608357Y-126720402D01*
X117608359Y-126720404D01*
X117721017Y-126816283D01*
X117761564Y-126850791D01*
X117765787Y-126853151D01*
X117765791Y-126853154D01*
X117805342Y-126875258D01*
X117941398Y-126951297D01*
X117945996Y-126952791D01*
X118132724Y-127013463D01*
X118132726Y-127013464D01*
X118137329Y-127014959D01*
X118341894Y-127039351D01*
X118346716Y-127038980D01*
X118346719Y-127038980D01*
X118414541Y-127033761D01*
X118547300Y-127023546D01*
X118745725Y-126968145D01*
X118750038Y-126965966D01*
X118750044Y-126965964D01*
X118925289Y-126877441D01*
X118925291Y-126877440D01*
X118929610Y-126875258D01*
X118964943Y-126847653D01*
X119088135Y-126751406D01*
X119088139Y-126751402D01*
X119091951Y-126748424D01*
X119226564Y-126592472D01*
X119239137Y-126570340D01*
X119325934Y-126417550D01*
X119325935Y-126417547D01*
X119328323Y-126413344D01*
X119341882Y-126372586D01*
X119391824Y-126222454D01*
X119391824Y-126222452D01*
X119393351Y-126217863D01*
X119419171Y-126013474D01*
X119419583Y-125984000D01*
X119399480Y-125778970D01*
X119339935Y-125581749D01*
X119243218Y-125399849D01*
X119113011Y-125240200D01*
X118954275Y-125108882D01*
X118773055Y-125010897D01*
X118709855Y-124991333D01*
X118580875Y-124951407D01*
X118580871Y-124951406D01*
X118576254Y-124949977D01*
X118571446Y-124949472D01*
X118571443Y-124949471D01*
X118376185Y-124928949D01*
X118376183Y-124928949D01*
X118371369Y-124928443D01*
X118311354Y-124933905D01*
X118171022Y-124946675D01*
X118171017Y-124946676D01*
X118166203Y-124947114D01*
X117968572Y-125005280D01*
X117964288Y-125007519D01*
X117964287Y-125007520D01*
X117953428Y-125013197D01*
X117786002Y-125100726D01*
X117782231Y-125103758D01*
X117629220Y-125226781D01*
X117629217Y-125226783D01*
X117625447Y-125229815D01*
X117622333Y-125233526D01*
X117622332Y-125233527D01*
X117526649Y-125347558D01*
X117493024Y-125387630D01*
X117490689Y-125391878D01*
X117490688Y-125391879D01*
X117483955Y-125404126D01*
X117393776Y-125568162D01*
X117331484Y-125764532D01*
X117330944Y-125769344D01*
X117330944Y-125769345D01*
X117329865Y-125778970D01*
X117308520Y-125969262D01*
X116800000Y-125969262D01*
X116800000Y-123429262D01*
X117308520Y-123429262D01*
X117309364Y-123439314D01*
X117325246Y-123628440D01*
X117325759Y-123634553D01*
X117327092Y-123639201D01*
X117327092Y-123639202D01*
X117379156Y-123820769D01*
X117382544Y-123832586D01*
X117476712Y-124015818D01*
X117604677Y-124177270D01*
X117608357Y-124180402D01*
X117608359Y-124180404D01*
X117721017Y-124276283D01*
X117761564Y-124310791D01*
X117765787Y-124313151D01*
X117765791Y-124313154D01*
X117805342Y-124335258D01*
X117941398Y-124411297D01*
X117945996Y-124412791D01*
X118132724Y-124473463D01*
X118132726Y-124473464D01*
X118137329Y-124474959D01*
X118341894Y-124499351D01*
X118346716Y-124498980D01*
X118346719Y-124498980D01*
X118414541Y-124493761D01*
X118547300Y-124483546D01*
X118745725Y-124428145D01*
X118750038Y-124425966D01*
X118750044Y-124425964D01*
X118925289Y-124337441D01*
X118925291Y-124337440D01*
X118929610Y-124335258D01*
X118935420Y-124330719D01*
X119088135Y-124211406D01*
X119088139Y-124211402D01*
X119091951Y-124208424D01*
X119226564Y-124052472D01*
X119245231Y-124019613D01*
X119325934Y-123877550D01*
X119325935Y-123877547D01*
X119328323Y-123873344D01*
X119341882Y-123832586D01*
X119391824Y-123682454D01*
X119391824Y-123682452D01*
X119393351Y-123677863D01*
X119399595Y-123628440D01*
X119412017Y-123530101D01*
X119419171Y-123473474D01*
X119419583Y-123444000D01*
X122634196Y-123444000D01*
X122655281Y-123577126D01*
X122658817Y-123584065D01*
X122658817Y-123584066D01*
X122709205Y-123682957D01*
X122716472Y-123697220D01*
X122785504Y-123766252D01*
X122813281Y-123820769D01*
X122814500Y-123836256D01*
X122814500Y-126582040D01*
X122812598Y-126601354D01*
X122809592Y-126616466D01*
X122829034Y-126714207D01*
X122831081Y-126717270D01*
X122834453Y-126722316D01*
X122834453Y-126722317D01*
X122854514Y-126752341D01*
X122884399Y-126797067D01*
X122892508Y-126802485D01*
X122892509Y-126802486D01*
X122897210Y-126805627D01*
X122912213Y-126817939D01*
X123853051Y-127758777D01*
X123880828Y-127813294D01*
X123880828Y-127844266D01*
X123878253Y-127860523D01*
X123879472Y-127868219D01*
X123896871Y-127978070D01*
X123899338Y-127993649D01*
X123902874Y-128000588D01*
X123902874Y-128000589D01*
X123943961Y-128081226D01*
X123960529Y-128113743D01*
X124055837Y-128209051D01*
X124062774Y-128212586D01*
X124062776Y-128212587D01*
X124168991Y-128266706D01*
X124175931Y-128270242D01*
X124183625Y-128271461D01*
X124183626Y-128271461D01*
X124301361Y-128290108D01*
X124309057Y-128291327D01*
X124316753Y-128290108D01*
X124434488Y-128271461D01*
X124434489Y-128271461D01*
X124442183Y-128270242D01*
X124449123Y-128266706D01*
X124555338Y-128212587D01*
X124555340Y-128212586D01*
X124562277Y-128209051D01*
X124657585Y-128113743D01*
X124674154Y-128081226D01*
X124715240Y-128000589D01*
X124715240Y-128000588D01*
X124718776Y-127993649D01*
X124721244Y-127978070D01*
X124738368Y-127869952D01*
X125075787Y-127869952D01*
X125077006Y-127877648D01*
X125095379Y-127993649D01*
X125096872Y-128003078D01*
X125100408Y-128010017D01*
X125100408Y-128010018D01*
X125153259Y-128113743D01*
X125158063Y-128123172D01*
X125253371Y-128218480D01*
X125260308Y-128222015D01*
X125260310Y-128222016D01*
X125357352Y-128271461D01*
X125373465Y-128279671D01*
X125381159Y-128280890D01*
X125381160Y-128280890D01*
X125447058Y-128291327D01*
X125490157Y-128298153D01*
X125498895Y-128299537D01*
X125506591Y-128300756D01*
X125514287Y-128299537D01*
X125523026Y-128298153D01*
X125566124Y-128291327D01*
X125632022Y-128280890D01*
X125632023Y-128280890D01*
X125639717Y-128279671D01*
X125655830Y-128271461D01*
X125752872Y-128222016D01*
X125752874Y-128222015D01*
X125759811Y-128218480D01*
X125855119Y-128123172D01*
X125859924Y-128113743D01*
X125912774Y-128010018D01*
X125912774Y-128010017D01*
X125916310Y-128003078D01*
X125917804Y-127993649D01*
X125936176Y-127877648D01*
X125937395Y-127869952D01*
X125934820Y-127853697D01*
X125944390Y-127793267D01*
X125962597Y-127768206D01*
X127268975Y-126461828D01*
X127283978Y-126449516D01*
X127288679Y-126446375D01*
X127288680Y-126446374D01*
X127296789Y-126440956D01*
X127352154Y-126358095D01*
X127366688Y-126285029D01*
X127371596Y-126260355D01*
X127368590Y-126245243D01*
X127366688Y-126225929D01*
X127366688Y-123698444D01*
X127385595Y-123640253D01*
X127395684Y-123628440D01*
X127464716Y-123559408D01*
X127507099Y-123476228D01*
X127522371Y-123446254D01*
X127522371Y-123446253D01*
X127525907Y-123439314D01*
X127546992Y-123306188D01*
X127546629Y-123303895D01*
X127564680Y-123248338D01*
X127614180Y-123212374D01*
X127675366Y-123212374D01*
X127714777Y-123236525D01*
X127736504Y-123258252D01*
X127764281Y-123312769D01*
X127765500Y-123328256D01*
X127765500Y-127246088D01*
X127746593Y-127304279D01*
X127697093Y-127340243D01*
X127681990Y-127343868D01*
X127659215Y-127347475D01*
X127636569Y-127351062D01*
X127636568Y-127351062D01*
X127628874Y-127352281D01*
X127621935Y-127355817D01*
X127621934Y-127355817D01*
X127515719Y-127409936D01*
X127515717Y-127409937D01*
X127508780Y-127413472D01*
X127413472Y-127508780D01*
X127409937Y-127515717D01*
X127409936Y-127515719D01*
X127379110Y-127576219D01*
X127352281Y-127628874D01*
X127351062Y-127636568D01*
X127351062Y-127636569D01*
X127349788Y-127644615D01*
X127331196Y-127762000D01*
X127332415Y-127769696D01*
X127350723Y-127885287D01*
X127352281Y-127895126D01*
X127355817Y-127902065D01*
X127355817Y-127902066D01*
X127403365Y-127995383D01*
X127413472Y-128015220D01*
X127508780Y-128110528D01*
X127515717Y-128114063D01*
X127515719Y-128114064D01*
X127621934Y-128168183D01*
X127628874Y-128171719D01*
X127636568Y-128172938D01*
X127636569Y-128172938D01*
X127754304Y-128191585D01*
X127762000Y-128192804D01*
X127769696Y-128191585D01*
X127887431Y-128172938D01*
X127887432Y-128172938D01*
X127895126Y-128171719D01*
X127902066Y-128168183D01*
X128008281Y-128114064D01*
X128008283Y-128114063D01*
X128015220Y-128110528D01*
X128051548Y-128074200D01*
X128501935Y-128074200D01*
X128503154Y-128081896D01*
X128521397Y-128197077D01*
X128523020Y-128207326D01*
X128526556Y-128214265D01*
X128526556Y-128214266D01*
X128579906Y-128318970D01*
X128584211Y-128327420D01*
X128679519Y-128422728D01*
X128686456Y-128426263D01*
X128686458Y-128426264D01*
X128758353Y-128462896D01*
X128799613Y-128483919D01*
X128807307Y-128485138D01*
X128807308Y-128485138D01*
X128925043Y-128503785D01*
X128932739Y-128505004D01*
X128940435Y-128503785D01*
X129058170Y-128485138D01*
X129058171Y-128485138D01*
X129065865Y-128483919D01*
X129107125Y-128462896D01*
X129179020Y-128426264D01*
X129179022Y-128426263D01*
X129185959Y-128422728D01*
X129281267Y-128327420D01*
X129285573Y-128318970D01*
X129338922Y-128214266D01*
X129338922Y-128214265D01*
X129342458Y-128207326D01*
X129344082Y-128197077D01*
X129362324Y-128081896D01*
X129363543Y-128074200D01*
X129353378Y-128010018D01*
X129343677Y-127948769D01*
X129343677Y-127948768D01*
X129342458Y-127941074D01*
X129323228Y-127903333D01*
X129284803Y-127827919D01*
X129284802Y-127827917D01*
X129281267Y-127820980D01*
X129185959Y-127725672D01*
X129179022Y-127722137D01*
X129179020Y-127722136D01*
X129072805Y-127668017D01*
X129072804Y-127668017D01*
X129065865Y-127664481D01*
X129058171Y-127663262D01*
X129058170Y-127663262D01*
X128940435Y-127644615D01*
X128932739Y-127643396D01*
X128925043Y-127644615D01*
X128807308Y-127663262D01*
X128807307Y-127663262D01*
X128799613Y-127664481D01*
X128792674Y-127668017D01*
X128792673Y-127668017D01*
X128686458Y-127722136D01*
X128686456Y-127722137D01*
X128679519Y-127725672D01*
X128584211Y-127820980D01*
X128580676Y-127827917D01*
X128580675Y-127827919D01*
X128542250Y-127903333D01*
X128523020Y-127941074D01*
X128521801Y-127948768D01*
X128521801Y-127948769D01*
X128512100Y-128010018D01*
X128501935Y-128074200D01*
X128051548Y-128074200D01*
X128110528Y-128015220D01*
X128120636Y-127995383D01*
X128168183Y-127902066D01*
X128168183Y-127902065D01*
X128171719Y-127895126D01*
X128173278Y-127885287D01*
X128191585Y-127769696D01*
X128192804Y-127762000D01*
X128190195Y-127745529D01*
X128199766Y-127685099D01*
X128205661Y-127675041D01*
X128210355Y-127668017D01*
X128243371Y-127618604D01*
X128246545Y-127613854D01*
X128246545Y-127613853D01*
X128250922Y-127607303D01*
X128251966Y-127605741D01*
X128271408Y-127508000D01*
X128268402Y-127492888D01*
X128266500Y-127473574D01*
X128266500Y-123328256D01*
X128285407Y-123270065D01*
X128295496Y-123258252D01*
X128364528Y-123189220D01*
X128368841Y-123180757D01*
X128422183Y-123076066D01*
X128422183Y-123076065D01*
X128425719Y-123069126D01*
X128431946Y-123029814D01*
X128445585Y-122943696D01*
X128446804Y-122936000D01*
X128440350Y-122895250D01*
X128426938Y-122810569D01*
X128426938Y-122810568D01*
X128425719Y-122802874D01*
X128364528Y-122682780D01*
X128269220Y-122587472D01*
X128262283Y-122583937D01*
X128262281Y-122583936D01*
X128156066Y-122529817D01*
X128156065Y-122529817D01*
X128149126Y-122526281D01*
X128141432Y-122525062D01*
X128141431Y-122525062D01*
X128023696Y-122506415D01*
X128016000Y-122505196D01*
X128008304Y-122506415D01*
X127890569Y-122525062D01*
X127890568Y-122525062D01*
X127882874Y-122526281D01*
X127875935Y-122529817D01*
X127875934Y-122529817D01*
X127769719Y-122583936D01*
X127769717Y-122583937D01*
X127762780Y-122587472D01*
X127667472Y-122682780D01*
X127606281Y-122802874D01*
X127605062Y-122810568D01*
X127605062Y-122810569D01*
X127591650Y-122895250D01*
X127585196Y-122936000D01*
X127585559Y-122938293D01*
X127567508Y-122993850D01*
X127518008Y-123029814D01*
X127456822Y-123029814D01*
X127417411Y-123005663D01*
X127369408Y-122957660D01*
X127362471Y-122954125D01*
X127362469Y-122954124D01*
X127256254Y-122900005D01*
X127256253Y-122900005D01*
X127249314Y-122896469D01*
X127241620Y-122895250D01*
X127241619Y-122895250D01*
X127123884Y-122876603D01*
X127116188Y-122875384D01*
X127108492Y-122876603D01*
X126990757Y-122895250D01*
X126990756Y-122895250D01*
X126983062Y-122896469D01*
X126976123Y-122900005D01*
X126976122Y-122900005D01*
X126869907Y-122954124D01*
X126869905Y-122954125D01*
X126862968Y-122957660D01*
X126767660Y-123052968D01*
X126764125Y-123059905D01*
X126764124Y-123059907D01*
X126710005Y-123166122D01*
X126706469Y-123173062D01*
X126705250Y-123180756D01*
X126705250Y-123180757D01*
X126693389Y-123255649D01*
X126685384Y-123306188D01*
X126706469Y-123439314D01*
X126710005Y-123446253D01*
X126710005Y-123446254D01*
X126725278Y-123476228D01*
X126767660Y-123559408D01*
X126836692Y-123628440D01*
X126864469Y-123682957D01*
X126865688Y-123698444D01*
X126865688Y-126115587D01*
X126846781Y-126173778D01*
X126836692Y-126185591D01*
X125608337Y-127413946D01*
X125553820Y-127441723D01*
X125522848Y-127441723D01*
X125506591Y-127439148D01*
X125498895Y-127440367D01*
X125381160Y-127459014D01*
X125381159Y-127459014D01*
X125373465Y-127460233D01*
X125366526Y-127463769D01*
X125366525Y-127463769D01*
X125260310Y-127517888D01*
X125260308Y-127517889D01*
X125253371Y-127521424D01*
X125158063Y-127616732D01*
X125154528Y-127623669D01*
X125154527Y-127623671D01*
X125106027Y-127718859D01*
X125096872Y-127736826D01*
X125095653Y-127744520D01*
X125095653Y-127744521D01*
X125083078Y-127823919D01*
X125075787Y-127869952D01*
X124738368Y-127869952D01*
X124738642Y-127868219D01*
X124739861Y-127860523D01*
X124730466Y-127801206D01*
X124719995Y-127735092D01*
X124719995Y-127735091D01*
X124718776Y-127727397D01*
X124699402Y-127689374D01*
X124661121Y-127614242D01*
X124661120Y-127614240D01*
X124657585Y-127607303D01*
X124562277Y-127511995D01*
X124555340Y-127508460D01*
X124555338Y-127508459D01*
X124449123Y-127454340D01*
X124449122Y-127454340D01*
X124442183Y-127450804D01*
X124434489Y-127449585D01*
X124434488Y-127449585D01*
X124316753Y-127430938D01*
X124309057Y-127429719D01*
X124292802Y-127432294D01*
X124232372Y-127422724D01*
X124207311Y-127404517D01*
X123344496Y-126541702D01*
X123316719Y-126487185D01*
X123315500Y-126471698D01*
X123315500Y-123836256D01*
X123334407Y-123778065D01*
X123344496Y-123766252D01*
X123413528Y-123697220D01*
X123414422Y-123695466D01*
X123461535Y-123661233D01*
X123522720Y-123661230D01*
X123572222Y-123697192D01*
X123580341Y-123710440D01*
X123584784Y-123719160D01*
X123584786Y-123719163D01*
X123588322Y-123726102D01*
X123683630Y-123821410D01*
X123690567Y-123824945D01*
X123690569Y-123824946D01*
X123785556Y-123873344D01*
X123803724Y-123882601D01*
X123811418Y-123883820D01*
X123811419Y-123883820D01*
X123929154Y-123902467D01*
X123936850Y-123903686D01*
X123944546Y-123902467D01*
X124062281Y-123883820D01*
X124062282Y-123883820D01*
X124069976Y-123882601D01*
X124088144Y-123873344D01*
X124183131Y-123824946D01*
X124183133Y-123824945D01*
X124190070Y-123821410D01*
X124285378Y-123726102D01*
X124288916Y-123719160D01*
X124343033Y-123612948D01*
X124343033Y-123612947D01*
X124346569Y-123606008D01*
X124351144Y-123577126D01*
X124366435Y-123480578D01*
X124367654Y-123472882D01*
X124346569Y-123339756D01*
X124343033Y-123332816D01*
X124288914Y-123226601D01*
X124288913Y-123226599D01*
X124285378Y-123219662D01*
X124190070Y-123124354D01*
X124183133Y-123120819D01*
X124183131Y-123120818D01*
X124076916Y-123066699D01*
X124076915Y-123066699D01*
X124069976Y-123063163D01*
X124062282Y-123061944D01*
X124062281Y-123061944D01*
X123944546Y-123043297D01*
X123936850Y-123042078D01*
X123929154Y-123043297D01*
X123811419Y-123061944D01*
X123811418Y-123061944D01*
X123803724Y-123063163D01*
X123796785Y-123066699D01*
X123796784Y-123066699D01*
X123690569Y-123120818D01*
X123690567Y-123120819D01*
X123683630Y-123124354D01*
X123588322Y-123219662D01*
X123587428Y-123221416D01*
X123540315Y-123255649D01*
X123479130Y-123255652D01*
X123429628Y-123219690D01*
X123421509Y-123206442D01*
X123417066Y-123197722D01*
X123417063Y-123197718D01*
X123413528Y-123190780D01*
X123318220Y-123095472D01*
X123311283Y-123091937D01*
X123311281Y-123091936D01*
X123205066Y-123037817D01*
X123205065Y-123037817D01*
X123198126Y-123034281D01*
X123190432Y-123033062D01*
X123190431Y-123033062D01*
X123072696Y-123014415D01*
X123065000Y-123013196D01*
X123057304Y-123014415D01*
X122939569Y-123033062D01*
X122939568Y-123033062D01*
X122931874Y-123034281D01*
X122924935Y-123037817D01*
X122924934Y-123037817D01*
X122818719Y-123091936D01*
X122818717Y-123091937D01*
X122811780Y-123095472D01*
X122716472Y-123190780D01*
X122712937Y-123197717D01*
X122712936Y-123197719D01*
X122683418Y-123255652D01*
X122655281Y-123310874D01*
X122654062Y-123318568D01*
X122654062Y-123318569D01*
X122649488Y-123347451D01*
X122634196Y-123444000D01*
X119419583Y-123444000D01*
X119419124Y-123439314D01*
X119399952Y-123243780D01*
X119399951Y-123243776D01*
X119399480Y-123238970D01*
X119387027Y-123197722D01*
X119341333Y-123046380D01*
X119339935Y-123041749D01*
X119243218Y-122859849D01*
X119113011Y-122700200D01*
X118983402Y-122592978D01*
X118958002Y-122571965D01*
X118958000Y-122571964D01*
X118954275Y-122568882D01*
X118773055Y-122470897D01*
X118709855Y-122451333D01*
X118580875Y-122411407D01*
X118580871Y-122411406D01*
X118576254Y-122409977D01*
X118571446Y-122409472D01*
X118571443Y-122409471D01*
X118376185Y-122388949D01*
X118376183Y-122388949D01*
X118371369Y-122388443D01*
X118311354Y-122393905D01*
X118171022Y-122406675D01*
X118171017Y-122406676D01*
X118166203Y-122407114D01*
X117968572Y-122465280D01*
X117964288Y-122467519D01*
X117964287Y-122467520D01*
X117953428Y-122473197D01*
X117786002Y-122560726D01*
X117782231Y-122563758D01*
X117629220Y-122686781D01*
X117629217Y-122686783D01*
X117625447Y-122689815D01*
X117622333Y-122693526D01*
X117622332Y-122693527D01*
X117613585Y-122703952D01*
X117493024Y-122847630D01*
X117490689Y-122851878D01*
X117490688Y-122851879D01*
X117483955Y-122864126D01*
X117393776Y-123028162D01*
X117392313Y-123032775D01*
X117392311Y-123032779D01*
X117350013Y-123166122D01*
X117331484Y-123224532D01*
X117330944Y-123229344D01*
X117330944Y-123229345D01*
X117317697Y-123347451D01*
X117308520Y-123429262D01*
X116800000Y-123429262D01*
X116800000Y-120889262D01*
X117308520Y-120889262D01*
X117309526Y-120901244D01*
X117320937Y-121037126D01*
X117325759Y-121094553D01*
X117327092Y-121099201D01*
X117327092Y-121099202D01*
X117371058Y-121252528D01*
X117382544Y-121292586D01*
X117384759Y-121296896D01*
X117401132Y-121328755D01*
X117476712Y-121475818D01*
X117604677Y-121637270D01*
X117608357Y-121640402D01*
X117608359Y-121640404D01*
X117659911Y-121684278D01*
X117761564Y-121770791D01*
X117765787Y-121773151D01*
X117765791Y-121773154D01*
X117871156Y-121832040D01*
X117941398Y-121871297D01*
X117945996Y-121872791D01*
X118132724Y-121933463D01*
X118132726Y-121933464D01*
X118137329Y-121934959D01*
X118341894Y-121959351D01*
X118346716Y-121958980D01*
X118346719Y-121958980D01*
X118414541Y-121953761D01*
X118547300Y-121943546D01*
X118745725Y-121888145D01*
X118750038Y-121885966D01*
X118750044Y-121885964D01*
X118925289Y-121797441D01*
X118925291Y-121797440D01*
X118929610Y-121795258D01*
X118938854Y-121788036D01*
X119088135Y-121671406D01*
X119088139Y-121671402D01*
X119091951Y-121668424D01*
X119116250Y-121640274D01*
X119180690Y-121565618D01*
X119226564Y-121512472D01*
X119245231Y-121479613D01*
X119325934Y-121337550D01*
X119325935Y-121337547D01*
X119328323Y-121333344D01*
X119334852Y-121313719D01*
X119391824Y-121142454D01*
X119391824Y-121142452D01*
X119393351Y-121137863D01*
X119419171Y-120933474D01*
X119419583Y-120904000D01*
X119419313Y-120901244D01*
X119399952Y-120703780D01*
X119399951Y-120703776D01*
X119399480Y-120698970D01*
X119387026Y-120657719D01*
X119341333Y-120506380D01*
X119339935Y-120501749D01*
X119298156Y-120423174D01*
X119287532Y-120362921D01*
X119315565Y-120306695D01*
X121740764Y-117881496D01*
X121795281Y-117853719D01*
X121810768Y-117852500D01*
X127135899Y-117852500D01*
X127194090Y-117871407D01*
X127230054Y-117920907D01*
X127230054Y-117982093D01*
X127213400Y-118009271D01*
X127215144Y-118010538D01*
X127210561Y-118016846D01*
X127205055Y-118022352D01*
X127201520Y-118029289D01*
X127201519Y-118029291D01*
X127147400Y-118135506D01*
X127143864Y-118142446D01*
X127142645Y-118150140D01*
X127142645Y-118150141D01*
X127140485Y-118163780D01*
X127122779Y-118275572D01*
X127125354Y-118291827D01*
X127115784Y-118352257D01*
X127097577Y-118377318D01*
X125029476Y-120445419D01*
X124974959Y-120473196D01*
X124971646Y-120473457D01*
X124970000Y-120473196D01*
X124965100Y-120473972D01*
X124965101Y-120473972D01*
X124844569Y-120493062D01*
X124844568Y-120493062D01*
X124836874Y-120494281D01*
X124829935Y-120497817D01*
X124829934Y-120497817D01*
X124723719Y-120551936D01*
X124723717Y-120551937D01*
X124716780Y-120555472D01*
X124621472Y-120650780D01*
X124560281Y-120770874D01*
X124559062Y-120778568D01*
X124559062Y-120778569D01*
X124555793Y-120799208D01*
X124539196Y-120904000D01*
X124560281Y-121037126D01*
X124563817Y-121044065D01*
X124563817Y-121044066D01*
X124589542Y-121094553D01*
X124621472Y-121157220D01*
X124716780Y-121252528D01*
X124723717Y-121256063D01*
X124723719Y-121256064D01*
X124786256Y-121287928D01*
X124836874Y-121313719D01*
X124844568Y-121314938D01*
X124844569Y-121314938D01*
X124962304Y-121333585D01*
X124970000Y-121334804D01*
X124977696Y-121333585D01*
X125095431Y-121314938D01*
X125095432Y-121314938D01*
X125103126Y-121313719D01*
X125153744Y-121287928D01*
X125216281Y-121256064D01*
X125216283Y-121256063D01*
X125223220Y-121252528D01*
X125318528Y-121157220D01*
X125350459Y-121094553D01*
X125376183Y-121044066D01*
X125376183Y-121044065D01*
X125379719Y-121037126D01*
X125400804Y-120904000D01*
X125392098Y-120849031D01*
X125401670Y-120788599D01*
X125419875Y-120763540D01*
X127451837Y-118731578D01*
X127506354Y-118703801D01*
X127537326Y-118703801D01*
X127553583Y-118706376D01*
X127561279Y-118705157D01*
X127679014Y-118686510D01*
X127679015Y-118686510D01*
X127686709Y-118685291D01*
X127693649Y-118681755D01*
X127693652Y-118681754D01*
X127734862Y-118660756D01*
X127795295Y-118651184D01*
X127849811Y-118678961D01*
X127868018Y-118704021D01*
X127890390Y-118747928D01*
X127895379Y-118757720D01*
X127990687Y-118853028D01*
X127997624Y-118856563D01*
X127997626Y-118856564D01*
X128103841Y-118910683D01*
X128110781Y-118914219D01*
X128118475Y-118915438D01*
X128118476Y-118915438D01*
X128236211Y-118934085D01*
X128243907Y-118935304D01*
X128251603Y-118934085D01*
X128369338Y-118915438D01*
X128369339Y-118915438D01*
X128377033Y-118914219D01*
X128383973Y-118910683D01*
X128490188Y-118856564D01*
X128490190Y-118856563D01*
X128497127Y-118853028D01*
X128592435Y-118757720D01*
X128597425Y-118747928D01*
X128650090Y-118644566D01*
X128650090Y-118644565D01*
X128653626Y-118637626D01*
X128655769Y-118624100D01*
X128673492Y-118512196D01*
X128674711Y-118504500D01*
X128659158Y-118406300D01*
X128654845Y-118379069D01*
X128654845Y-118379068D01*
X128653626Y-118371374D01*
X128644815Y-118354082D01*
X128595971Y-118258219D01*
X128595970Y-118258217D01*
X128592435Y-118251280D01*
X128497127Y-118155972D01*
X128490190Y-118152437D01*
X128490188Y-118152436D01*
X128383973Y-118098317D01*
X128383972Y-118098317D01*
X128377033Y-118094781D01*
X128355290Y-118091337D01*
X128351337Y-118090711D01*
X128296821Y-118062932D01*
X128269045Y-118008415D01*
X128278617Y-117947983D01*
X128296822Y-117922926D01*
X128364528Y-117855220D01*
X128402932Y-117779849D01*
X128422183Y-117742066D01*
X128422183Y-117742065D01*
X128425719Y-117735126D01*
X128446804Y-117602000D01*
X128428196Y-117484513D01*
X128426938Y-117476569D01*
X128426938Y-117476568D01*
X128425719Y-117468874D01*
X128383126Y-117385280D01*
X128368064Y-117355719D01*
X128368063Y-117355717D01*
X128364528Y-117348780D01*
X128269220Y-117253472D01*
X128262283Y-117249937D01*
X128262281Y-117249936D01*
X128156066Y-117195817D01*
X128156065Y-117195817D01*
X128149126Y-117192281D01*
X128141432Y-117191062D01*
X128141431Y-117191062D01*
X128023696Y-117172415D01*
X128016000Y-117171196D01*
X128008304Y-117172415D01*
X127890569Y-117191062D01*
X127890568Y-117191062D01*
X127882874Y-117192281D01*
X127875935Y-117195817D01*
X127875934Y-117195817D01*
X127769719Y-117249936D01*
X127769717Y-117249937D01*
X127762780Y-117253472D01*
X127693748Y-117322504D01*
X127639231Y-117350281D01*
X127623744Y-117351500D01*
X121700426Y-117351500D01*
X121681112Y-117349598D01*
X121675562Y-117348494D01*
X121666000Y-117346592D01*
X121656438Y-117348494D01*
X121577824Y-117364131D01*
X121577822Y-117364132D01*
X121568259Y-117366034D01*
X121560151Y-117371451D01*
X121560150Y-117371452D01*
X121546690Y-117380446D01*
X121544836Y-117381685D01*
X121485399Y-117421399D01*
X121479981Y-117429508D01*
X121479980Y-117429509D01*
X121476839Y-117434210D01*
X121464527Y-117449213D01*
X118961398Y-119952342D01*
X118906881Y-119980119D01*
X118844307Y-119969423D01*
X118777309Y-119933197D01*
X118777308Y-119933197D01*
X118773055Y-119930897D01*
X118709855Y-119911333D01*
X118580875Y-119871407D01*
X118580871Y-119871406D01*
X118576254Y-119869977D01*
X118571446Y-119869472D01*
X118571443Y-119869471D01*
X118376185Y-119848949D01*
X118376183Y-119848949D01*
X118371369Y-119848443D01*
X118311354Y-119853905D01*
X118171022Y-119866675D01*
X118171017Y-119866676D01*
X118166203Y-119867114D01*
X117968572Y-119925280D01*
X117964288Y-119927519D01*
X117964287Y-119927520D01*
X117896528Y-119962944D01*
X117786002Y-120020726D01*
X117782231Y-120023758D01*
X117629220Y-120146781D01*
X117629217Y-120146783D01*
X117625447Y-120149815D01*
X117493024Y-120307630D01*
X117393776Y-120488162D01*
X117392313Y-120492775D01*
X117392311Y-120492779D01*
X117391835Y-120494281D01*
X117331484Y-120684532D01*
X117330944Y-120689344D01*
X117330944Y-120689345D01*
X117313033Y-120849031D01*
X117308520Y-120889262D01*
X116800000Y-120889262D01*
X116800000Y-118349262D01*
X117308520Y-118349262D01*
X117308925Y-118354082D01*
X117320910Y-118496804D01*
X117325759Y-118554553D01*
X117327092Y-118559201D01*
X117327092Y-118559202D01*
X117369294Y-118706376D01*
X117382544Y-118752586D01*
X117384759Y-118756896D01*
X117385360Y-118758066D01*
X117476712Y-118935818D01*
X117604677Y-119097270D01*
X117608357Y-119100402D01*
X117608359Y-119100404D01*
X117691447Y-119171117D01*
X117761564Y-119230791D01*
X117765787Y-119233151D01*
X117765791Y-119233154D01*
X117805342Y-119255258D01*
X117941398Y-119331297D01*
X117945996Y-119332791D01*
X118132724Y-119393463D01*
X118132726Y-119393464D01*
X118137329Y-119394959D01*
X118341894Y-119419351D01*
X118346716Y-119418980D01*
X118346719Y-119418980D01*
X118414541Y-119413761D01*
X118547300Y-119403546D01*
X118745725Y-119348145D01*
X118750038Y-119345966D01*
X118750044Y-119345964D01*
X118925289Y-119257441D01*
X118925291Y-119257440D01*
X118929610Y-119255258D01*
X118983349Y-119213273D01*
X119088135Y-119131406D01*
X119088139Y-119131402D01*
X119091951Y-119128424D01*
X119226564Y-118972472D01*
X119228957Y-118968260D01*
X119325934Y-118797550D01*
X119325935Y-118797547D01*
X119328323Y-118793344D01*
X119340059Y-118758066D01*
X119391824Y-118602454D01*
X119391824Y-118602452D01*
X119393351Y-118597863D01*
X119396773Y-118570780D01*
X119418823Y-118396228D01*
X119419171Y-118393474D01*
X119419583Y-118364000D01*
X119413815Y-118305170D01*
X119399952Y-118163780D01*
X119399951Y-118163776D01*
X119399480Y-118158970D01*
X119397508Y-118152436D01*
X119341333Y-117966380D01*
X119339935Y-117961749D01*
X119243218Y-117779849D01*
X119212246Y-117741874D01*
X119190119Y-117684830D01*
X119205749Y-117625674D01*
X119218961Y-117609299D01*
X121970827Y-114857434D01*
X122025344Y-114829657D01*
X122085776Y-114839228D01*
X122129041Y-114882493D01*
X122138612Y-114942925D01*
X122129040Y-114972383D01*
X122105635Y-115018317D01*
X122105633Y-115018323D01*
X122102097Y-115025263D01*
X122081012Y-115158389D01*
X122082231Y-115166085D01*
X122100035Y-115278494D01*
X122102097Y-115291515D01*
X122105633Y-115298454D01*
X122105633Y-115298455D01*
X122159368Y-115403915D01*
X122163288Y-115411609D01*
X122258596Y-115506917D01*
X122265533Y-115510452D01*
X122265535Y-115510453D01*
X122367299Y-115562304D01*
X122378690Y-115568108D01*
X122386384Y-115569327D01*
X122386385Y-115569327D01*
X122504120Y-115587974D01*
X122511816Y-115589193D01*
X122519512Y-115587974D01*
X122637247Y-115569327D01*
X122637248Y-115569327D01*
X122644942Y-115568108D01*
X122656333Y-115562304D01*
X122758097Y-115510453D01*
X122758099Y-115510452D01*
X122765036Y-115506917D01*
X122860344Y-115411609D01*
X122864265Y-115403915D01*
X122917999Y-115298455D01*
X122917999Y-115298454D01*
X122921535Y-115291515D01*
X122923598Y-115278494D01*
X122941401Y-115166085D01*
X122942620Y-115158389D01*
X122921535Y-115025263D01*
X122917996Y-115018317D01*
X122863880Y-114912108D01*
X122863879Y-114912106D01*
X122860344Y-114905169D01*
X122765036Y-114809861D01*
X122758099Y-114806326D01*
X122758097Y-114806325D01*
X122651882Y-114752206D01*
X122651881Y-114752206D01*
X122644942Y-114748670D01*
X122637248Y-114747451D01*
X122637247Y-114747451D01*
X122636172Y-114747281D01*
X122635202Y-114746787D01*
X122629838Y-114745044D01*
X122630114Y-114744194D01*
X122581656Y-114719504D01*
X122553878Y-114664987D01*
X122563449Y-114604555D01*
X122606714Y-114561291D01*
X122651659Y-114550500D01*
X127617232Y-114550500D01*
X127675423Y-114569407D01*
X127687236Y-114579496D01*
X129083994Y-115976254D01*
X129111771Y-116030771D01*
X129111771Y-116061743D01*
X129109196Y-116078000D01*
X129130281Y-116211126D01*
X129133817Y-116218065D01*
X129133817Y-116218066D01*
X129145615Y-116241220D01*
X129191472Y-116331220D01*
X129286780Y-116426528D01*
X129293717Y-116430063D01*
X129293719Y-116430064D01*
X129399934Y-116484183D01*
X129406874Y-116487719D01*
X129414568Y-116488938D01*
X129414569Y-116488938D01*
X129437215Y-116492525D01*
X129459988Y-116496131D01*
X129514503Y-116523908D01*
X129542281Y-116578424D01*
X129543500Y-116593912D01*
X129543500Y-121315958D01*
X129524593Y-121374149D01*
X129475093Y-121410113D01*
X129429013Y-121413739D01*
X129309177Y-121394759D01*
X129309176Y-121394759D01*
X129301480Y-121393540D01*
X129293784Y-121394759D01*
X129176049Y-121413406D01*
X129176048Y-121413406D01*
X129168354Y-121414625D01*
X129161415Y-121418161D01*
X129161414Y-121418161D01*
X129055199Y-121472280D01*
X129055197Y-121472281D01*
X129048260Y-121475816D01*
X128952952Y-121571124D01*
X128949417Y-121578061D01*
X128949416Y-121578063D01*
X128903375Y-121668424D01*
X128891761Y-121691218D01*
X128870676Y-121824344D01*
X128871895Y-121832040D01*
X128889556Y-121943546D01*
X128891761Y-121957470D01*
X128952952Y-122077564D01*
X129048260Y-122172872D01*
X129055197Y-122176407D01*
X129055199Y-122176408D01*
X129161414Y-122230527D01*
X129168354Y-122234063D01*
X129176048Y-122235282D01*
X129176049Y-122235282D01*
X129293784Y-122253929D01*
X129301480Y-122255148D01*
X129309176Y-122253929D01*
X129309177Y-122253929D01*
X129429013Y-122234949D01*
X129489445Y-122244520D01*
X129532710Y-122287785D01*
X129543500Y-122332730D01*
X129543500Y-127584178D01*
X129541598Y-127603492D01*
X129538592Y-127618604D01*
X129558034Y-127716345D01*
X129565209Y-127727082D01*
X129565419Y-127727397D01*
X129613399Y-127799205D01*
X129610977Y-127800823D01*
X129631761Y-127841616D01*
X129631762Y-127872587D01*
X129629768Y-127885176D01*
X129630987Y-127892872D01*
X129648048Y-128000589D01*
X129650853Y-128018302D01*
X129654389Y-128025241D01*
X129654389Y-128025242D01*
X129705922Y-128126380D01*
X129712044Y-128138396D01*
X129807352Y-128233704D01*
X129814289Y-128237239D01*
X129814291Y-128237240D01*
X129910766Y-128286396D01*
X129927446Y-128294895D01*
X129935140Y-128296114D01*
X129935141Y-128296114D01*
X130052876Y-128314761D01*
X130060572Y-128315980D01*
X130068268Y-128314761D01*
X130186003Y-128296114D01*
X130186004Y-128296114D01*
X130193698Y-128294895D01*
X130210378Y-128286396D01*
X130306853Y-128237240D01*
X130306855Y-128237239D01*
X130313792Y-128233704D01*
X130394226Y-128153270D01*
X131764843Y-128153270D01*
X131766062Y-128160966D01*
X131783563Y-128271461D01*
X131785928Y-128286396D01*
X131789464Y-128293335D01*
X131789464Y-128293336D01*
X131842360Y-128397149D01*
X131847119Y-128406490D01*
X131942427Y-128501798D01*
X131949364Y-128505333D01*
X131949366Y-128505334D01*
X132049252Y-128556228D01*
X132062521Y-128562989D01*
X132070215Y-128564208D01*
X132070216Y-128564208D01*
X132187951Y-128582855D01*
X132195647Y-128584074D01*
X132203343Y-128582855D01*
X132321078Y-128564208D01*
X132321079Y-128564208D01*
X132328773Y-128562989D01*
X132342042Y-128556228D01*
X132441928Y-128505334D01*
X132441930Y-128505333D01*
X132448867Y-128501798D01*
X132544175Y-128406490D01*
X132548935Y-128397149D01*
X132601830Y-128293336D01*
X132601830Y-128293335D01*
X132605366Y-128286396D01*
X132607732Y-128271461D01*
X132625232Y-128160966D01*
X132626451Y-128153270D01*
X132615040Y-128081226D01*
X132606585Y-128027839D01*
X132606585Y-128027838D01*
X132605366Y-128020144D01*
X132600207Y-128010018D01*
X132547711Y-127906989D01*
X132547710Y-127906987D01*
X132544175Y-127900050D01*
X132466625Y-127822500D01*
X132919196Y-127822500D01*
X132920415Y-127830196D01*
X132938460Y-127944126D01*
X132940281Y-127955626D01*
X132943817Y-127962565D01*
X132943817Y-127962566D01*
X132992112Y-128057349D01*
X133001472Y-128075720D01*
X133096780Y-128171028D01*
X133103717Y-128174563D01*
X133103719Y-128174564D01*
X133208982Y-128228198D01*
X133216874Y-128232219D01*
X133224568Y-128233438D01*
X133224569Y-128233438D01*
X133342304Y-128252085D01*
X133350000Y-128253304D01*
X133418483Y-128242457D01*
X133478915Y-128252028D01*
X133503974Y-128270234D01*
X137720527Y-132486787D01*
X137732839Y-132501790D01*
X137741399Y-132514601D01*
X137749509Y-132520020D01*
X137753254Y-132522522D01*
X137824260Y-132569966D01*
X137833822Y-132571868D01*
X137897326Y-132584500D01*
X137912437Y-132587506D01*
X137912438Y-132587506D01*
X137922000Y-132589408D01*
X137931562Y-132587506D01*
X137931566Y-132587506D01*
X137937111Y-132586403D01*
X137956426Y-132584500D01*
X142786511Y-132584500D01*
X142844702Y-132603407D01*
X142875358Y-132644019D01*
X142876505Y-132643434D01*
X142879217Y-132648756D01*
X142881266Y-132654356D01*
X142884591Y-132659305D01*
X142884592Y-132659306D01*
X142897689Y-132678796D01*
X142975830Y-132795083D01*
X143101233Y-132909191D01*
X143250235Y-132990092D01*
X143285189Y-132999262D01*
X143408464Y-133031603D01*
X143408468Y-133031604D01*
X143414233Y-133033116D01*
X143420194Y-133033210D01*
X143420197Y-133033210D01*
X143498996Y-133034447D01*
X143583760Y-133035779D01*
X143589575Y-133034447D01*
X143589577Y-133034447D01*
X143743206Y-132999262D01*
X143743209Y-132999261D01*
X143749029Y-132997928D01*
X143764610Y-132990092D01*
X143895165Y-132924429D01*
X143900498Y-132921747D01*
X143905035Y-132917872D01*
X143905038Y-132917870D01*
X144024888Y-132815508D01*
X144024891Y-132815505D01*
X144029423Y-132811634D01*
X144086671Y-132731965D01*
X144124877Y-132678796D01*
X144124878Y-132678794D01*
X144128361Y-132673947D01*
X144140628Y-132643434D01*
X144189377Y-132522167D01*
X144189378Y-132522165D01*
X144191601Y-132516634D01*
X144200793Y-132452046D01*
X144215034Y-132351985D01*
X144215034Y-132351979D01*
X144215490Y-132348778D01*
X144215645Y-132334000D01*
X144197880Y-132187196D01*
X144195993Y-132171602D01*
X144195992Y-132171599D01*
X144195276Y-132165680D01*
X144135345Y-132007077D01*
X144084584Y-131933219D01*
X144042692Y-131872267D01*
X144039312Y-131867349D01*
X143932554Y-131772230D01*
X143901684Y-131719404D01*
X143907761Y-131658521D01*
X143934117Y-131623034D01*
X144024884Y-131545512D01*
X144024890Y-131545506D01*
X144029423Y-131541634D01*
X144032904Y-131536790D01*
X144124877Y-131408796D01*
X144124878Y-131408794D01*
X144128361Y-131403947D01*
X144140628Y-131373434D01*
X144189377Y-131252167D01*
X144189378Y-131252165D01*
X144191601Y-131246634D01*
X144213007Y-131096228D01*
X144215034Y-131081985D01*
X144215034Y-131081979D01*
X144215490Y-131078778D01*
X144215645Y-131064000D01*
X144195276Y-130895680D01*
X144135345Y-130737077D01*
X144080637Y-130657476D01*
X144042692Y-130602267D01*
X144039312Y-130597349D01*
X143932554Y-130502230D01*
X143901684Y-130449404D01*
X143907761Y-130388521D01*
X143934117Y-130353034D01*
X144024884Y-130275512D01*
X144024890Y-130275506D01*
X144029423Y-130271634D01*
X144032904Y-130266790D01*
X144124877Y-130138796D01*
X144124878Y-130138794D01*
X144128361Y-130133947D01*
X144170361Y-130029471D01*
X144189377Y-129982167D01*
X144189378Y-129982165D01*
X144191601Y-129976634D01*
X144215490Y-129808778D01*
X144215645Y-129794000D01*
X144195276Y-129625680D01*
X144135345Y-129467077D01*
X144039312Y-129327349D01*
X143932554Y-129232230D01*
X143901684Y-129179404D01*
X143907761Y-129118521D01*
X143934117Y-129083034D01*
X144024884Y-129005512D01*
X144024890Y-129005506D01*
X144029423Y-129001634D01*
X144032904Y-128996790D01*
X144124877Y-128868796D01*
X144124878Y-128868794D01*
X144128361Y-128863947D01*
X144169162Y-128762454D01*
X144189377Y-128712167D01*
X144189378Y-128712165D01*
X144191601Y-128706634D01*
X144192442Y-128700727D01*
X144215034Y-128541985D01*
X144215034Y-128541979D01*
X144215490Y-128538778D01*
X144215645Y-128524000D01*
X144195276Y-128355680D01*
X144135345Y-128197077D01*
X144131571Y-128191585D01*
X144042692Y-128062267D01*
X144039312Y-128057349D01*
X144009623Y-128030897D01*
X143978753Y-127978070D01*
X143984830Y-127917187D01*
X144007208Y-127885287D01*
X144122705Y-127775300D01*
X144129778Y-127766871D01*
X144222972Y-127626602D01*
X144227999Y-127616821D01*
X144287806Y-127459379D01*
X144290539Y-127448733D01*
X144294644Y-127419528D01*
X144292328Y-127406392D01*
X144291202Y-127405305D01*
X144285548Y-127404000D01*
X143459000Y-127404000D01*
X143400809Y-127385093D01*
X143364845Y-127335593D01*
X143360000Y-127305000D01*
X143360000Y-127203000D01*
X143378907Y-127144809D01*
X143428407Y-127108845D01*
X143459000Y-127104000D01*
X144282557Y-127104000D01*
X144295242Y-127099878D01*
X144296598Y-127098012D01*
X144297058Y-127093487D01*
X144295673Y-127081145D01*
X144293234Y-127070408D01*
X144237851Y-126911371D01*
X144233099Y-126901452D01*
X144140922Y-126753938D01*
X144142238Y-126753116D01*
X144123342Y-126702321D01*
X144139790Y-126643388D01*
X144148770Y-126632416D01*
X144154552Y-126628552D01*
X144198867Y-126562231D01*
X144202951Y-126541702D01*
X144209552Y-126508512D01*
X144210500Y-126503748D01*
X144210500Y-125464252D01*
X144198867Y-125405769D01*
X144154552Y-125339448D01*
X144088231Y-125295133D01*
X144078668Y-125293231D01*
X144078666Y-125293230D01*
X144055995Y-125288721D01*
X144029748Y-125283500D01*
X142990252Y-125283500D01*
X142964005Y-125288721D01*
X142941334Y-125293230D01*
X142941332Y-125293231D01*
X142931769Y-125295133D01*
X142865448Y-125339448D01*
X142821133Y-125405769D01*
X142809500Y-125464252D01*
X142809500Y-126503748D01*
X142810448Y-126508512D01*
X142817050Y-126541702D01*
X142821133Y-126562231D01*
X142865448Y-126628552D01*
X142869643Y-126631355D01*
X142896071Y-126683224D01*
X142886500Y-126743656D01*
X142881506Y-126752341D01*
X142791890Y-126891396D01*
X142787005Y-126901237D01*
X142729404Y-127059496D01*
X142726817Y-127070190D01*
X142716661Y-127150582D01*
X142690610Y-127205944D01*
X142636993Y-127235420D01*
X142576290Y-127227752D01*
X142548438Y-127208178D01*
X139725496Y-124385236D01*
X139697719Y-124330719D01*
X139696500Y-124315232D01*
X139696500Y-119010256D01*
X139715407Y-118952065D01*
X139725496Y-118940252D01*
X139794528Y-118871220D01*
X139803798Y-118853028D01*
X139852183Y-118758066D01*
X139852183Y-118758065D01*
X139855719Y-118751126D01*
X139876804Y-118618000D01*
X139865992Y-118549734D01*
X139856938Y-118492569D01*
X139856938Y-118492568D01*
X139855719Y-118484874D01*
X139850929Y-118475472D01*
X139835578Y-118445345D01*
X139826007Y-118384913D01*
X139853784Y-118330396D01*
X139908301Y-118302619D01*
X139943151Y-118305362D01*
X139943374Y-118303951D01*
X140076500Y-118325036D01*
X140084196Y-118323817D01*
X140201931Y-118305170D01*
X140201932Y-118305170D01*
X140209626Y-118303951D01*
X140233427Y-118291824D01*
X140322781Y-118246296D01*
X140322783Y-118246295D01*
X140329720Y-118242760D01*
X140425028Y-118147452D01*
X140428868Y-118139917D01*
X140482683Y-118034298D01*
X140482683Y-118034297D01*
X140486219Y-118027358D01*
X140507304Y-117894232D01*
X140486219Y-117761106D01*
X140469061Y-117727431D01*
X140428564Y-117647951D01*
X140428563Y-117647949D01*
X140425028Y-117641012D01*
X140329720Y-117545704D01*
X140322783Y-117542169D01*
X140322781Y-117542168D01*
X140216566Y-117488049D01*
X140216565Y-117488049D01*
X140209626Y-117484513D01*
X140201932Y-117483294D01*
X140201931Y-117483294D01*
X140084196Y-117464647D01*
X140076500Y-117463428D01*
X140068804Y-117464647D01*
X139951069Y-117483294D01*
X139951068Y-117483294D01*
X139943374Y-117484513D01*
X139936435Y-117488049D01*
X139936434Y-117488049D01*
X139830219Y-117542168D01*
X139830217Y-117542169D01*
X139823280Y-117545704D01*
X139727972Y-117641012D01*
X139724437Y-117647949D01*
X139724436Y-117647951D01*
X139683939Y-117727431D01*
X139666781Y-117761106D01*
X139645696Y-117894232D01*
X139666781Y-118027358D01*
X139670317Y-118034297D01*
X139670317Y-118034298D01*
X139686922Y-118066887D01*
X139696493Y-118127319D01*
X139668716Y-118181836D01*
X139614199Y-118209613D01*
X139579349Y-118206870D01*
X139579126Y-118208281D01*
X139446000Y-118187196D01*
X139438304Y-118188415D01*
X139320569Y-118207062D01*
X139320568Y-118207062D01*
X139312874Y-118208281D01*
X139305935Y-118211817D01*
X139305934Y-118211817D01*
X139199719Y-118265936D01*
X139199717Y-118265937D01*
X139192780Y-118269472D01*
X139097472Y-118364780D01*
X139093937Y-118371717D01*
X139093936Y-118371719D01*
X139039817Y-118477934D01*
X139036281Y-118484874D01*
X139035062Y-118492568D01*
X139035062Y-118492569D01*
X139026008Y-118549734D01*
X139015196Y-118618000D01*
X139036281Y-118751126D01*
X139039817Y-118758065D01*
X139039817Y-118758066D01*
X139088203Y-118853028D01*
X139097472Y-118871220D01*
X139166504Y-118940252D01*
X139194281Y-118994769D01*
X139195500Y-119010256D01*
X139195500Y-124425574D01*
X139193598Y-124444888D01*
X139190592Y-124460000D01*
X139192494Y-124469562D01*
X139193598Y-124475112D01*
X139195500Y-124494426D01*
X139195500Y-124923335D01*
X139176593Y-124981526D01*
X139166504Y-124993339D01*
X137941981Y-126217863D01*
X136720213Y-127439631D01*
X136665696Y-127467408D01*
X136634724Y-127467408D01*
X136618467Y-127464833D01*
X136583091Y-127470436D01*
X136493036Y-127484699D01*
X136493035Y-127484699D01*
X136485341Y-127485918D01*
X136478402Y-127489454D01*
X136478401Y-127489454D01*
X136372186Y-127543573D01*
X136372184Y-127543574D01*
X136365247Y-127547109D01*
X136269939Y-127642417D01*
X136266404Y-127649354D01*
X136266403Y-127649356D01*
X136218227Y-127743908D01*
X136208748Y-127762511D01*
X136207529Y-127770205D01*
X136207529Y-127770206D01*
X136199487Y-127820980D01*
X136187663Y-127895637D01*
X136188882Y-127903333D01*
X136206284Y-128013204D01*
X136208748Y-128028763D01*
X136212284Y-128035702D01*
X136212284Y-128035703D01*
X136264709Y-128138592D01*
X136269939Y-128148857D01*
X136365247Y-128244165D01*
X136372184Y-128247700D01*
X136372186Y-128247701D01*
X136474666Y-128299917D01*
X136485341Y-128305356D01*
X136493035Y-128306575D01*
X136493036Y-128306575D01*
X136610771Y-128325222D01*
X136618467Y-128326441D01*
X136626163Y-128325222D01*
X136743898Y-128306575D01*
X136743899Y-128306575D01*
X136751593Y-128305356D01*
X136762268Y-128299917D01*
X136864748Y-128247701D01*
X136864750Y-128247700D01*
X136871687Y-128244165D01*
X136966995Y-128148857D01*
X136972226Y-128138592D01*
X137024650Y-128035703D01*
X137024650Y-128035702D01*
X137028186Y-128028763D01*
X137030651Y-128013204D01*
X137048052Y-127903333D01*
X137049271Y-127895637D01*
X137046696Y-127879382D01*
X137056266Y-127818952D01*
X137074473Y-127793891D01*
X138326663Y-126541702D01*
X139598790Y-125269575D01*
X139613793Y-125257263D01*
X139618491Y-125254124D01*
X139618492Y-125254123D01*
X139626601Y-125248705D01*
X139661256Y-125196839D01*
X139709305Y-125158959D01*
X139770444Y-125156557D01*
X139813576Y-125181836D01*
X142823926Y-128192186D01*
X142851703Y-128246703D01*
X142846159Y-128298153D01*
X142826524Y-128348513D01*
X142825745Y-128354430D01*
X142825744Y-128354434D01*
X142816754Y-128422728D01*
X142804394Y-128516611D01*
X142805049Y-128522544D01*
X142805049Y-128522548D01*
X142821085Y-128667797D01*
X142822999Y-128685135D01*
X142881266Y-128844356D01*
X142884591Y-128849305D01*
X142884592Y-128849306D01*
X142897689Y-128868796D01*
X142975830Y-128985083D01*
X143087374Y-129086580D01*
X143117687Y-129139725D01*
X143110973Y-129200541D01*
X143085824Y-129234404D01*
X142985604Y-129321831D01*
X142982173Y-129326713D01*
X142982172Y-129326714D01*
X142918408Y-129417441D01*
X142888113Y-129460547D01*
X142869555Y-129508145D01*
X142851080Y-129555532D01*
X142826524Y-129618513D01*
X142804394Y-129786611D01*
X142805049Y-129792544D01*
X142805049Y-129792548D01*
X142805566Y-129797231D01*
X142822999Y-129955135D01*
X142881266Y-130114356D01*
X142884591Y-130119305D01*
X142884592Y-130119306D01*
X142897689Y-130138796D01*
X142975830Y-130255083D01*
X143087374Y-130356580D01*
X143117687Y-130409725D01*
X143110973Y-130470541D01*
X143085824Y-130504404D01*
X142985604Y-130591831D01*
X142982173Y-130596713D01*
X142982172Y-130596714D01*
X142963704Y-130622992D01*
X142888113Y-130730547D01*
X142881144Y-130748423D01*
X142880348Y-130750464D01*
X142841593Y-130797811D01*
X142788111Y-130813500D01*
X137304769Y-130813500D01*
X137246578Y-130794593D01*
X137234765Y-130784504D01*
X136259039Y-129808778D01*
X135279509Y-128829249D01*
X135251732Y-128774732D01*
X135261303Y-128714300D01*
X135304568Y-128671035D01*
X135365000Y-128661464D01*
X135385329Y-128668069D01*
X135385417Y-128667797D01*
X135392831Y-128670206D01*
X135399771Y-128673742D01*
X135407465Y-128674961D01*
X135407466Y-128674961D01*
X135525201Y-128693608D01*
X135532897Y-128694827D01*
X135540593Y-128693608D01*
X135658328Y-128674961D01*
X135658329Y-128674961D01*
X135666023Y-128673742D01*
X135690120Y-128661464D01*
X135779178Y-128616087D01*
X135779180Y-128616086D01*
X135786117Y-128612551D01*
X135881425Y-128517243D01*
X135887942Y-128504454D01*
X135939080Y-128404089D01*
X135939080Y-128404088D01*
X135942616Y-128397149D01*
X135949382Y-128354434D01*
X135960157Y-128286396D01*
X135963701Y-128264023D01*
X135948972Y-128171028D01*
X135943835Y-128138592D01*
X135943835Y-128138591D01*
X135942616Y-128130897D01*
X135933876Y-128113743D01*
X135884961Y-128017742D01*
X135884960Y-128017740D01*
X135881425Y-128010803D01*
X135786117Y-127915495D01*
X135779180Y-127911960D01*
X135779178Y-127911959D01*
X135672963Y-127857840D01*
X135672962Y-127857840D01*
X135666023Y-127854304D01*
X135658329Y-127853085D01*
X135658328Y-127853085D01*
X135540593Y-127834438D01*
X135532897Y-127833219D01*
X135525201Y-127834438D01*
X135407466Y-127853085D01*
X135407465Y-127853085D01*
X135399771Y-127854304D01*
X135392832Y-127857840D01*
X135392831Y-127857840D01*
X135286616Y-127911959D01*
X135286614Y-127911960D01*
X135279677Y-127915495D01*
X135184369Y-128010803D01*
X135180834Y-128017740D01*
X135180833Y-128017742D01*
X135131918Y-128113743D01*
X135123178Y-128130897D01*
X135121959Y-128138591D01*
X135121959Y-128138592D01*
X135116822Y-128171028D01*
X135102093Y-128264023D01*
X135105637Y-128286396D01*
X135116413Y-128354434D01*
X135123178Y-128397149D01*
X135126714Y-128404089D01*
X135129123Y-128411503D01*
X135127405Y-128412061D01*
X135135456Y-128462896D01*
X135107677Y-128517412D01*
X135053160Y-128545188D01*
X134992729Y-128535616D01*
X134967671Y-128517411D01*
X134742102Y-128291842D01*
X134714325Y-128237325D01*
X134723896Y-128176893D01*
X134742102Y-128151834D01*
X134751193Y-128142743D01*
X134758360Y-128128678D01*
X134808848Y-128029589D01*
X134808848Y-128029588D01*
X134812384Y-128022649D01*
X134816703Y-127995383D01*
X134829355Y-127915495D01*
X134833469Y-127889523D01*
X134818410Y-127794445D01*
X134813603Y-127764092D01*
X134813603Y-127764091D01*
X134812384Y-127756397D01*
X134807640Y-127747087D01*
X134754729Y-127643242D01*
X134754728Y-127643240D01*
X134751193Y-127636303D01*
X134682161Y-127567271D01*
X134654384Y-127512754D01*
X134653165Y-127497267D01*
X134653165Y-122384360D01*
X134672072Y-122326169D01*
X134721572Y-122290205D01*
X134740890Y-122287146D01*
X134740800Y-122286579D01*
X134866231Y-122266713D01*
X134866232Y-122266713D01*
X134873926Y-122265494D01*
X134915090Y-122244520D01*
X134987081Y-122207839D01*
X134987083Y-122207838D01*
X134994020Y-122204303D01*
X135089328Y-122108995D01*
X135102538Y-122083070D01*
X135146983Y-121995841D01*
X135146983Y-121995840D01*
X135150519Y-121988901D01*
X135157703Y-121943546D01*
X135169146Y-121871297D01*
X135171604Y-121855775D01*
X135158518Y-121773154D01*
X135151738Y-121730344D01*
X135151738Y-121730343D01*
X135150519Y-121722649D01*
X135130968Y-121684278D01*
X135092864Y-121609494D01*
X135092863Y-121609492D01*
X135089328Y-121602555D01*
X134994020Y-121507247D01*
X134987083Y-121503712D01*
X134987081Y-121503711D01*
X134880866Y-121449592D01*
X134880865Y-121449592D01*
X134873926Y-121446056D01*
X134866232Y-121444837D01*
X134866231Y-121444837D01*
X134748496Y-121426190D01*
X134740800Y-121424971D01*
X134733104Y-121426190D01*
X134615369Y-121444837D01*
X134615368Y-121444837D01*
X134607674Y-121446056D01*
X134560468Y-121470109D01*
X134549848Y-121475520D01*
X134489416Y-121485091D01*
X134434899Y-121457314D01*
X134409397Y-121431812D01*
X134402460Y-121428277D01*
X134402458Y-121428276D01*
X134296243Y-121374157D01*
X134296242Y-121374157D01*
X134289303Y-121370621D01*
X134281609Y-121369402D01*
X134281608Y-121369402D01*
X134163873Y-121350755D01*
X134156177Y-121349536D01*
X134148481Y-121350755D01*
X134030746Y-121369402D01*
X134030745Y-121369402D01*
X134023051Y-121370621D01*
X134016112Y-121374157D01*
X134016111Y-121374157D01*
X133909896Y-121428276D01*
X133909894Y-121428277D01*
X133902957Y-121431812D01*
X133807649Y-121527120D01*
X133746458Y-121647214D01*
X133745239Y-121654908D01*
X133745239Y-121654909D01*
X133734510Y-121722649D01*
X133725373Y-121780340D01*
X133727736Y-121795258D01*
X133742654Y-121889446D01*
X133746458Y-121913466D01*
X133749994Y-121920405D01*
X133749994Y-121920406D01*
X133769838Y-121959351D01*
X133807649Y-122033560D01*
X133832504Y-122058415D01*
X133860281Y-122112932D01*
X133861500Y-122128419D01*
X133861500Y-126925394D01*
X133842593Y-126983585D01*
X133832504Y-126995397D01*
X133460088Y-127367814D01*
X133405571Y-127395592D01*
X133374598Y-127395592D01*
X133350000Y-127391696D01*
X133342304Y-127392915D01*
X133224569Y-127411562D01*
X133224568Y-127411562D01*
X133216874Y-127412781D01*
X133209935Y-127416317D01*
X133209934Y-127416317D01*
X133103719Y-127470436D01*
X133103717Y-127470437D01*
X133096780Y-127473972D01*
X133001472Y-127569280D01*
X132997937Y-127576217D01*
X132997936Y-127576219D01*
X132951163Y-127668017D01*
X132940281Y-127689374D01*
X132939062Y-127697068D01*
X132939062Y-127697069D01*
X132926672Y-127775300D01*
X132919196Y-127822500D01*
X132466625Y-127822500D01*
X132448867Y-127804742D01*
X132441930Y-127801207D01*
X132441928Y-127801206D01*
X132335713Y-127747087D01*
X132335712Y-127747087D01*
X132328773Y-127743551D01*
X132321079Y-127742332D01*
X132321078Y-127742332D01*
X132215889Y-127725672D01*
X132195647Y-127722466D01*
X132175405Y-127725672D01*
X132070216Y-127742332D01*
X132070215Y-127742332D01*
X132062521Y-127743551D01*
X132055582Y-127747087D01*
X132055581Y-127747087D01*
X131949366Y-127801206D01*
X131949364Y-127801207D01*
X131942427Y-127804742D01*
X131847119Y-127900050D01*
X131843584Y-127906987D01*
X131843583Y-127906989D01*
X131791087Y-128010018D01*
X131785928Y-128020144D01*
X131784709Y-128027838D01*
X131784709Y-128027839D01*
X131776254Y-128081226D01*
X131764843Y-128153270D01*
X130394226Y-128153270D01*
X130409100Y-128138396D01*
X130415223Y-128126380D01*
X130466755Y-128025242D01*
X130466755Y-128025241D01*
X130470291Y-128018302D01*
X130473097Y-128000589D01*
X130490157Y-127892872D01*
X130491376Y-127885176D01*
X130479991Y-127813294D01*
X130471510Y-127759745D01*
X130471510Y-127759744D01*
X130470291Y-127752050D01*
X130466455Y-127744521D01*
X130412636Y-127638895D01*
X130412635Y-127638893D01*
X130409100Y-127631956D01*
X130313792Y-127536648D01*
X130306855Y-127533113D01*
X130306853Y-127533112D01*
X130200638Y-127478993D01*
X130200637Y-127478993D01*
X130193698Y-127475457D01*
X130186004Y-127474238D01*
X130186003Y-127474238D01*
X130149413Y-127468443D01*
X130128013Y-127465054D01*
X130073497Y-127437277D01*
X130045719Y-127382761D01*
X130044500Y-127367273D01*
X130044500Y-116450044D01*
X130063407Y-116391853D01*
X130112907Y-116355889D01*
X130174093Y-116355889D01*
X130188445Y-116361834D01*
X130251933Y-116394183D01*
X130251936Y-116394184D01*
X130258874Y-116397719D01*
X130266568Y-116398938D01*
X130266569Y-116398938D01*
X130384304Y-116417585D01*
X130392000Y-116418804D01*
X130399696Y-116417585D01*
X130517431Y-116398938D01*
X130517432Y-116398938D01*
X130525126Y-116397719D01*
X130537316Y-116391508D01*
X130638281Y-116340064D01*
X130638283Y-116340063D01*
X130645220Y-116336528D01*
X130740528Y-116241220D01*
X130759784Y-116203429D01*
X130798183Y-116128066D01*
X130798183Y-116128065D01*
X130801719Y-116121126D01*
X130809801Y-116070096D01*
X130837578Y-116015579D01*
X130892096Y-115987801D01*
X130908827Y-115985151D01*
X130935431Y-115980938D01*
X130935433Y-115980937D01*
X130943126Y-115979719D01*
X130950066Y-115976183D01*
X131056281Y-115922064D01*
X131056283Y-115922063D01*
X131063220Y-115918528D01*
X131158528Y-115823220D01*
X131182558Y-115776060D01*
X131216183Y-115710066D01*
X131216183Y-115710065D01*
X131219719Y-115703126D01*
X131228578Y-115647196D01*
X131230352Y-115635994D01*
X131461196Y-115635994D01*
X131482281Y-115769120D01*
X131485817Y-115776059D01*
X131485817Y-115776060D01*
X131526665Y-115856228D01*
X131543472Y-115889214D01*
X131638780Y-115984522D01*
X131645717Y-115988057D01*
X131645719Y-115988058D01*
X131696891Y-116014131D01*
X131721950Y-116032337D01*
X132945978Y-117256365D01*
X132945982Y-117256368D01*
X132968545Y-117278931D01*
X132990041Y-117289883D01*
X133003280Y-117297997D01*
X133022797Y-117312177D01*
X133030208Y-117314585D01*
X133045744Y-117319633D01*
X133060090Y-117325576D01*
X133081583Y-117336527D01*
X133089276Y-117337745D01*
X133089278Y-117337746D01*
X133105406Y-117340300D01*
X133120507Y-117343925D01*
X133143454Y-117351381D01*
X133952023Y-117351381D01*
X134010214Y-117370288D01*
X134022027Y-117380377D01*
X134878905Y-118237254D01*
X135793701Y-119152050D01*
X135815199Y-119163004D01*
X135828429Y-119171111D01*
X135847953Y-119185296D01*
X135855363Y-119187704D01*
X135855364Y-119187704D01*
X135870898Y-119192751D01*
X135885247Y-119198695D01*
X135906739Y-119209646D01*
X135914437Y-119210865D01*
X135921846Y-119213273D01*
X135921485Y-119214383D01*
X135936510Y-119219267D01*
X135957933Y-119230183D01*
X135957936Y-119230184D01*
X135964874Y-119233719D01*
X135972568Y-119234938D01*
X135972569Y-119234938D01*
X136090304Y-119253585D01*
X136098000Y-119254804D01*
X136105696Y-119253585D01*
X136223431Y-119234938D01*
X136223432Y-119234938D01*
X136231126Y-119233719D01*
X136271254Y-119213273D01*
X136344281Y-119176064D01*
X136344283Y-119176063D01*
X136351220Y-119172528D01*
X136446528Y-119077220D01*
X136502929Y-118966528D01*
X136504183Y-118964066D01*
X136504183Y-118964065D01*
X136507719Y-118957126D01*
X136511369Y-118934085D01*
X136527585Y-118831696D01*
X136528804Y-118824000D01*
X136517207Y-118750779D01*
X136508938Y-118698569D01*
X136508938Y-118698568D01*
X136507719Y-118690874D01*
X136462593Y-118602309D01*
X136450064Y-118577719D01*
X136450063Y-118577717D01*
X136446528Y-118570780D01*
X136351220Y-118475472D01*
X136344283Y-118471937D01*
X136344281Y-118471936D01*
X136238066Y-118417817D01*
X136238065Y-118417817D01*
X136231126Y-118414281D01*
X136223433Y-118413062D01*
X136223431Y-118413062D01*
X136212507Y-118411332D01*
X136157990Y-118383555D01*
X134555267Y-116780831D01*
X134537061Y-116755772D01*
X134510988Y-116704600D01*
X134510987Y-116704598D01*
X134507452Y-116697661D01*
X134412144Y-116602353D01*
X134405207Y-116598818D01*
X134405205Y-116598817D01*
X134298990Y-116544698D01*
X134298989Y-116544698D01*
X134292050Y-116541162D01*
X134284356Y-116539943D01*
X134284355Y-116539943D01*
X134166620Y-116521296D01*
X134158924Y-116520077D01*
X134151228Y-116521296D01*
X134033492Y-116539943D01*
X134033490Y-116539944D01*
X134025798Y-116541162D01*
X134018857Y-116544698D01*
X134016283Y-116545535D01*
X133985690Y-116550381D01*
X133413788Y-116550381D01*
X133355597Y-116531474D01*
X133343784Y-116521385D01*
X132288343Y-115465944D01*
X132270137Y-115440885D01*
X132244064Y-115389713D01*
X132244063Y-115389711D01*
X132240528Y-115382774D01*
X132145220Y-115287466D01*
X132138283Y-115283931D01*
X132138281Y-115283930D01*
X132032066Y-115229811D01*
X132032065Y-115229811D01*
X132025126Y-115226275D01*
X132017432Y-115225056D01*
X132017431Y-115225056D01*
X131899696Y-115206409D01*
X131892000Y-115205190D01*
X131884304Y-115206409D01*
X131766569Y-115225056D01*
X131766568Y-115225056D01*
X131758874Y-115226275D01*
X131751935Y-115229811D01*
X131751934Y-115229811D01*
X131645719Y-115283930D01*
X131645717Y-115283931D01*
X131638780Y-115287466D01*
X131543472Y-115382774D01*
X131539937Y-115389711D01*
X131539936Y-115389713D01*
X131513863Y-115440885D01*
X131482281Y-115502868D01*
X131481062Y-115510562D01*
X131481062Y-115510563D01*
X131467053Y-115599016D01*
X131461196Y-115635994D01*
X131230352Y-115635994D01*
X131239585Y-115577696D01*
X131240804Y-115570000D01*
X131219719Y-115436874D01*
X131214372Y-115426380D01*
X131162064Y-115323719D01*
X131162063Y-115323717D01*
X131158528Y-115316780D01*
X131063220Y-115221472D01*
X131056283Y-115217937D01*
X131056281Y-115217936D01*
X130950066Y-115163817D01*
X130950065Y-115163817D01*
X130943126Y-115160281D01*
X130935432Y-115159062D01*
X130935431Y-115159062D01*
X130817696Y-115140415D01*
X130810000Y-115139196D01*
X130793745Y-115141771D01*
X130733315Y-115132201D01*
X130708254Y-115113994D01*
X129233473Y-113639213D01*
X129221161Y-113624210D01*
X129218018Y-113619506D01*
X129218017Y-113619505D01*
X129212601Y-113611399D01*
X129159539Y-113575945D01*
X129159537Y-113575942D01*
X129159536Y-113575943D01*
X129129741Y-113556034D01*
X129032000Y-113536592D01*
X129022438Y-113538494D01*
X129016888Y-113539598D01*
X128997574Y-113541500D01*
X119513500Y-113541500D01*
X119455309Y-113522593D01*
X119419345Y-113473093D01*
X119414500Y-113442500D01*
X119414500Y-113099496D01*
X129532549Y-113099496D01*
X129553634Y-113232622D01*
X129614825Y-113352716D01*
X129710133Y-113448024D01*
X129717070Y-113451559D01*
X129717072Y-113451560D01*
X129823287Y-113505679D01*
X129830227Y-113509215D01*
X129837921Y-113510434D01*
X129837922Y-113510434D01*
X129955657Y-113529081D01*
X129963353Y-113530300D01*
X129971049Y-113529081D01*
X130088784Y-113510434D01*
X130088785Y-113510434D01*
X130096479Y-113509215D01*
X130103419Y-113505679D01*
X130209634Y-113451560D01*
X130209636Y-113451559D01*
X130216573Y-113448024D01*
X130311881Y-113352716D01*
X130373072Y-113232622D01*
X130394157Y-113099496D01*
X130373072Y-112966370D01*
X130311881Y-112846276D01*
X130216573Y-112750968D01*
X130209636Y-112747433D01*
X130209634Y-112747432D01*
X130103419Y-112693313D01*
X130103418Y-112693313D01*
X130096479Y-112689777D01*
X130088785Y-112688558D01*
X130088784Y-112688558D01*
X129971049Y-112669911D01*
X129963353Y-112668692D01*
X129955657Y-112669911D01*
X129837922Y-112688558D01*
X129837921Y-112688558D01*
X129830227Y-112689777D01*
X129823288Y-112693313D01*
X129823287Y-112693313D01*
X129717072Y-112747432D01*
X129717070Y-112747433D01*
X129710133Y-112750968D01*
X129614825Y-112846276D01*
X129553634Y-112966370D01*
X129532549Y-113099496D01*
X119414500Y-113099496D01*
X119414500Y-112414252D01*
X119402867Y-112355769D01*
X119358552Y-112289448D01*
X119292231Y-112245133D01*
X119282668Y-112243231D01*
X119282666Y-112243230D01*
X119259995Y-112238721D01*
X119233748Y-112233500D01*
X117494252Y-112233500D01*
X117468005Y-112238721D01*
X117445334Y-112243230D01*
X117445332Y-112243231D01*
X117435769Y-112245133D01*
X117369448Y-112289448D01*
X117325133Y-112355769D01*
X117313500Y-112414252D01*
X117313500Y-114153748D01*
X117325133Y-114212231D01*
X117369448Y-114278552D01*
X117435769Y-114322867D01*
X117445332Y-114324769D01*
X117445334Y-114324770D01*
X117468005Y-114329279D01*
X117494252Y-114334500D01*
X119233748Y-114334500D01*
X119238511Y-114333553D01*
X119238517Y-114333552D01*
X119245073Y-114332248D01*
X119305834Y-114339441D01*
X119350763Y-114380975D01*
X119362698Y-114440985D01*
X119334389Y-114499350D01*
X118961397Y-114872342D01*
X118906880Y-114900119D01*
X118844309Y-114889423D01*
X118773055Y-114850897D01*
X118762146Y-114847520D01*
X118580875Y-114791407D01*
X118580871Y-114791406D01*
X118576254Y-114789977D01*
X118571446Y-114789472D01*
X118571443Y-114789471D01*
X118376185Y-114768949D01*
X118376183Y-114768949D01*
X118371369Y-114768443D01*
X118311354Y-114773905D01*
X118171022Y-114786675D01*
X118171017Y-114786676D01*
X118166203Y-114787114D01*
X117968572Y-114845280D01*
X117964288Y-114847519D01*
X117964287Y-114847520D01*
X117897391Y-114882493D01*
X117786002Y-114940726D01*
X117782231Y-114943758D01*
X117629220Y-115066781D01*
X117629217Y-115066783D01*
X117625447Y-115069815D01*
X117622333Y-115073526D01*
X117622332Y-115073527D01*
X117510831Y-115206409D01*
X117493024Y-115227630D01*
X117393776Y-115408162D01*
X117392313Y-115412775D01*
X117392311Y-115412779D01*
X117345944Y-115558947D01*
X117331484Y-115604532D01*
X117330944Y-115609344D01*
X117330944Y-115609345D01*
X117313023Y-115769120D01*
X117308520Y-115809262D01*
X117312000Y-115850699D01*
X117323513Y-115987801D01*
X117325759Y-116014553D01*
X117327092Y-116019201D01*
X117327092Y-116019202D01*
X117378130Y-116197191D01*
X117382544Y-116212586D01*
X117476712Y-116395818D01*
X117604677Y-116557270D01*
X117608357Y-116560402D01*
X117608359Y-116560404D01*
X117657649Y-116602353D01*
X117761564Y-116690791D01*
X117765787Y-116693151D01*
X117765791Y-116693154D01*
X117805342Y-116715258D01*
X117941398Y-116791297D01*
X117945996Y-116792791D01*
X118132724Y-116853463D01*
X118132726Y-116853464D01*
X118137329Y-116854959D01*
X118341894Y-116879351D01*
X118346716Y-116878980D01*
X118346719Y-116878980D01*
X118414541Y-116873761D01*
X118547300Y-116863546D01*
X118745725Y-116808145D01*
X118750038Y-116805966D01*
X118750044Y-116805964D01*
X118925289Y-116717441D01*
X118925291Y-116717440D01*
X118929610Y-116715258D01*
X118943252Y-116704600D01*
X119088135Y-116591406D01*
X119088139Y-116591402D01*
X119091951Y-116588424D01*
X119128972Y-116545535D01*
X119151313Y-116519651D01*
X119226564Y-116432472D01*
X119245614Y-116398938D01*
X119325934Y-116257550D01*
X119325935Y-116257547D01*
X119328323Y-116253344D01*
X119332357Y-116241220D01*
X119391824Y-116062454D01*
X119391824Y-116062452D01*
X119393351Y-116057863D01*
X119396774Y-116030771D01*
X119418823Y-115856228D01*
X119419171Y-115853474D01*
X119419583Y-115824000D01*
X119408412Y-115710066D01*
X119399952Y-115623780D01*
X119399951Y-115623776D01*
X119399480Y-115618970D01*
X119382372Y-115562304D01*
X119346825Y-115444569D01*
X119339935Y-115421749D01*
X119298156Y-115343174D01*
X119287532Y-115282921D01*
X119315565Y-115226695D01*
X119755147Y-114787114D01*
X120216765Y-114325496D01*
X120271282Y-114297719D01*
X120286769Y-114296500D01*
X121584231Y-114296500D01*
X121642422Y-114315407D01*
X121678386Y-114364907D01*
X121678386Y-114426093D01*
X121654235Y-114465504D01*
X118781523Y-117338217D01*
X118727006Y-117365994D01*
X118682244Y-117362786D01*
X118580875Y-117331407D01*
X118580871Y-117331406D01*
X118576254Y-117329977D01*
X118571446Y-117329472D01*
X118571443Y-117329471D01*
X118376185Y-117308949D01*
X118376183Y-117308949D01*
X118371369Y-117308443D01*
X118311354Y-117313905D01*
X118171022Y-117326675D01*
X118171017Y-117326676D01*
X118166203Y-117327114D01*
X117968572Y-117385280D01*
X117786002Y-117480726D01*
X117782231Y-117483758D01*
X117629220Y-117606781D01*
X117629217Y-117606783D01*
X117625447Y-117609815D01*
X117622333Y-117613526D01*
X117622332Y-117613527D01*
X117504322Y-117754166D01*
X117493024Y-117767630D01*
X117490689Y-117771878D01*
X117490688Y-117771879D01*
X117483955Y-117784126D01*
X117393776Y-117948162D01*
X117392313Y-117952775D01*
X117392311Y-117952779D01*
X117368040Y-118029291D01*
X117331484Y-118144532D01*
X117330944Y-118149344D01*
X117330944Y-118149345D01*
X117313466Y-118305170D01*
X117308520Y-118349262D01*
X116800000Y-118349262D01*
X116800000Y-111199000D01*
X116818907Y-111140809D01*
X116868407Y-111104845D01*
X116899000Y-111100000D01*
X145442961Y-111100000D01*
X145501152Y-111118907D01*
G37*
%TD.AperFunction*%
%TD*%
M02*
