%TF.GenerationSoftware,KiCad,Pcbnew,(6.0.0)*%
%TF.CreationDate,2022-02-12T21:43:18+08:00*%
%TF.ProjectId,esp8266,65737038-3236-4362-9e6b-696361645f70,rev?*%
%TF.SameCoordinates,Original*%
%TF.FileFunction,Paste,Top*%
%TF.FilePolarity,Positive*%
%FSLAX46Y46*%
G04 Gerber Fmt 4.6, Leading zero omitted, Abs format (unit mm)*
G04 Created by KiCad (PCBNEW (6.0.0)) date 2022-02-12 21:43:18*
%MOMM*%
%LPD*%
G01*
G04 APERTURE LIST*
G04 Aperture macros list*
%AMRoundRect*
0 Rectangle with rounded corners*
0 $1 Rounding radius*
0 $2 $3 $4 $5 $6 $7 $8 $9 X,Y pos of 4 corners*
0 Add a 4 corners polygon primitive as box body*
4,1,4,$2,$3,$4,$5,$6,$7,$8,$9,$2,$3,0*
0 Add four circle primitives for the rounded corners*
1,1,$1+$1,$2,$3*
1,1,$1+$1,$4,$5*
1,1,$1+$1,$6,$7*
1,1,$1+$1,$8,$9*
0 Add four rect primitives between the rounded corners*
20,1,$1+$1,$2,$3,$4,$5,0*
20,1,$1+$1,$4,$5,$6,$7,0*
20,1,$1+$1,$6,$7,$8,$9,0*
20,1,$1+$1,$8,$9,$2,$3,0*%
G04 Aperture macros list end*
%ADD10RoundRect,0.135000X-0.185000X0.135000X-0.185000X-0.135000X0.185000X-0.135000X0.185000X0.135000X0*%
%ADD11RoundRect,0.147500X-0.147500X-0.172500X0.147500X-0.172500X0.147500X0.172500X-0.147500X0.172500X0*%
%ADD12RoundRect,0.147500X-0.172500X0.147500X-0.172500X-0.147500X0.172500X-0.147500X0.172500X0.147500X0*%
%ADD13RoundRect,0.232500X-0.232500X0.232500X-0.232500X-0.232500X0.232500X-0.232500X0.232500X0.232500X0*%
%ADD14RoundRect,0.062500X-0.062500X0.375000X-0.062500X-0.375000X0.062500X-0.375000X0.062500X0.375000X0*%
%ADD15RoundRect,0.062500X-0.375000X0.062500X-0.375000X-0.062500X0.375000X-0.062500X0.375000X0.062500X0*%
%ADD16RoundRect,0.140000X-0.170000X0.140000X-0.170000X-0.140000X0.170000X-0.140000X0.170000X0.140000X0*%
%ADD17RoundRect,0.140000X0.140000X0.170000X-0.140000X0.170000X-0.140000X-0.170000X0.140000X-0.170000X0*%
%ADD18RoundRect,0.135000X-0.135000X-0.185000X0.135000X-0.185000X0.135000X0.185000X-0.135000X0.185000X0*%
%ADD19RoundRect,0.135000X0.135000X0.185000X-0.135000X0.185000X-0.135000X-0.185000X0.135000X-0.185000X0*%
%ADD20R,1.800000X1.350000*%
%ADD21R,2.600000X1.800000*%
%ADD22O,0.700000X1.800000*%
%ADD23RoundRect,0.140000X-0.140000X-0.170000X0.140000X-0.170000X0.140000X0.170000X-0.140000X0.170000X0*%
%ADD24RoundRect,0.135000X0.185000X-0.135000X0.185000X0.135000X-0.185000X0.135000X-0.185000X-0.135000X0*%
%ADD25R,1.150000X1.400000*%
G04 APERTURE END LIST*
D10*
%TO.C,R9*%
X136608000Y-128733000D03*
X136608000Y-129753000D03*
%TD*%
D11*
%TO.C,L1*%
X132887000Y-115250000D03*
X133857000Y-115250000D03*
%TD*%
D10*
%TO.C,R8*%
X131246501Y-128745207D03*
X131246501Y-129765207D03*
%TD*%
D12*
%TO.C,D2*%
X134421610Y-128778000D03*
X134421610Y-129748000D03*
%TD*%
D13*
%TO.C,U1*%
X130492000Y-119380000D03*
X131642000Y-119380000D03*
X130492000Y-118230000D03*
X131642000Y-118230000D03*
X132792000Y-118230000D03*
X132792000Y-119380000D03*
X130492000Y-120530000D03*
X131642000Y-120530000D03*
X132792000Y-120530000D03*
D14*
X133392000Y-116942500D03*
X132892000Y-116942500D03*
X132392000Y-116942500D03*
X131892000Y-116942500D03*
X131392000Y-116942500D03*
X130892000Y-116942500D03*
X130392000Y-116942500D03*
X129892000Y-116942500D03*
D15*
X129204500Y-117630000D03*
X129204500Y-118130000D03*
X129204500Y-118630000D03*
X129204500Y-119130000D03*
X129204500Y-119630000D03*
X129204500Y-120130000D03*
X129204500Y-120630000D03*
X129204500Y-121130000D03*
D14*
X129892000Y-121817500D03*
X130392000Y-121817500D03*
X130892000Y-121817500D03*
X131392000Y-121817500D03*
X131892000Y-121817500D03*
X132392000Y-121817500D03*
X132892000Y-121817500D03*
X133392000Y-121817500D03*
D15*
X134079500Y-121130000D03*
X134079500Y-120630000D03*
X134079500Y-120130000D03*
X134079500Y-119630000D03*
X134079500Y-119130000D03*
X134079500Y-118630000D03*
X134079500Y-118130000D03*
X134079500Y-117630000D03*
%TD*%
D10*
%TO.C,R5*%
X135493220Y-128753000D03*
X135493220Y-129773000D03*
%TD*%
D16*
%TO.C,C2*%
X131016006Y-113800000D03*
X131016006Y-114760000D03*
%TD*%
D17*
%TO.C,C7*%
X139932000Y-115965000D03*
X138972000Y-115965000D03*
%TD*%
D18*
%TO.C,R11*%
X138922000Y-116970000D03*
X139942000Y-116970000D03*
%TD*%
D19*
%TO.C,R14*%
X125699000Y-123500000D03*
X124679000Y-123500000D03*
%TD*%
D20*
%TO.C,SW2*%
X125791000Y-133152500D03*
X125791000Y-137302500D03*
%TD*%
D19*
%TO.C,R13*%
X124275000Y-115150000D03*
X123255000Y-115150000D03*
%TD*%
D17*
%TO.C,C3*%
X137882000Y-118000000D03*
X136922000Y-118000000D03*
%TD*%
D19*
%TO.C,R3*%
X137932000Y-116995000D03*
X136912000Y-116995000D03*
%TD*%
D21*
%TO.C,C1*%
X130556000Y-134390000D03*
X130556000Y-137390000D03*
%TD*%
D17*
%TO.C,C9*%
X137894358Y-119055837D03*
X136934358Y-119055837D03*
%TD*%
D22*
%TO.C,U2*%
X123065000Y-121980000D03*
X124335000Y-121980000D03*
X125605000Y-121980000D03*
X126875000Y-121980000D03*
X126875000Y-116780000D03*
X125605000Y-116780000D03*
X124335000Y-116780000D03*
X123065000Y-116780000D03*
%TD*%
D12*
%TO.C,D3*%
X133350000Y-128778000D03*
X133350000Y-129748000D03*
%TD*%
D23*
%TO.C,C8*%
X137190000Y-124460000D03*
X138150000Y-124460000D03*
%TD*%
D12*
%TO.C,D1*%
X130089724Y-128770207D03*
X130089724Y-129740207D03*
%TD*%
D10*
%TO.C,R4*%
X125462616Y-128745207D03*
X125462616Y-129765207D03*
%TD*%
%TO.C,R15*%
X128896006Y-113790000D03*
X128896006Y-114810000D03*
%TD*%
D16*
%TO.C,C5*%
X132901030Y-113325654D03*
X132901030Y-114285654D03*
%TD*%
D20*
%TO.C,SW1*%
X135321000Y-133152500D03*
X135321000Y-137302500D03*
%TD*%
D17*
%TO.C,C4*%
X137882000Y-115990000D03*
X136922000Y-115990000D03*
%TD*%
D10*
%TO.C,R10*%
X127776170Y-128745207D03*
X127776170Y-129765207D03*
%TD*%
D17*
%TO.C,C6*%
X133812687Y-112368194D03*
X132852687Y-112368194D03*
%TD*%
D10*
%TO.C,R12*%
X124305839Y-128745207D03*
X124305839Y-129765207D03*
%TD*%
%TO.C,R2*%
X128932947Y-128745207D03*
X128932947Y-129765207D03*
%TD*%
%TO.C,R6*%
X132320000Y-128753000D03*
X132320000Y-129773000D03*
%TD*%
%TO.C,R1*%
X126619393Y-128745207D03*
X126619393Y-129765207D03*
%TD*%
D24*
%TO.C,R7*%
X129961006Y-114810000D03*
X129961006Y-113790000D03*
%TD*%
D25*
%TO.C,Y1*%
X136871152Y-120649257D03*
X136871152Y-122849257D03*
X138471152Y-122849257D03*
X138471152Y-120649257D03*
%TD*%
M02*
