%TF.GenerationSoftware,KiCad,Pcbnew,(6.0.0)*%
%TF.CreationDate,2022-02-12T21:43:18+08:00*%
%TF.ProjectId,esp8266,65737038-3236-4362-9e6b-696361645f70,rev?*%
%TF.SameCoordinates,Original*%
%TF.FileFunction,Copper,L1,Top*%
%TF.FilePolarity,Positive*%
%FSLAX46Y46*%
G04 Gerber Fmt 4.6, Leading zero omitted, Abs format (unit mm)*
G04 Created by KiCad (PCBNEW (6.0.0)) date 2022-02-12 21:43:18*
%MOMM*%
%LPD*%
G01*
G04 APERTURE LIST*
G04 Aperture macros list*
%AMRoundRect*
0 Rectangle with rounded corners*
0 $1 Rounding radius*
0 $2 $3 $4 $5 $6 $7 $8 $9 X,Y pos of 4 corners*
0 Add a 4 corners polygon primitive as box body*
4,1,4,$2,$3,$4,$5,$6,$7,$8,$9,$2,$3,0*
0 Add four circle primitives for the rounded corners*
1,1,$1+$1,$2,$3*
1,1,$1+$1,$4,$5*
1,1,$1+$1,$6,$7*
1,1,$1+$1,$8,$9*
0 Add four rect primitives between the rounded corners*
20,1,$1+$1,$2,$3,$4,$5,0*
20,1,$1+$1,$4,$5,$6,$7,0*
20,1,$1+$1,$6,$7,$8,$9,0*
20,1,$1+$1,$8,$9,$2,$3,0*%
G04 Aperture macros list end*
%TA.AperFunction,EtchedComponent*%
%ADD10C,0.200000*%
%TD*%
%TA.AperFunction,SMDPad,CuDef*%
%ADD11RoundRect,0.135000X-0.185000X0.135000X-0.185000X-0.135000X0.185000X-0.135000X0.185000X0.135000X0*%
%TD*%
%TA.AperFunction,SMDPad,CuDef*%
%ADD12RoundRect,0.147500X-0.147500X-0.172500X0.147500X-0.172500X0.147500X0.172500X-0.147500X0.172500X0*%
%TD*%
%TA.AperFunction,SMDPad,CuDef*%
%ADD13RoundRect,0.147500X-0.172500X0.147500X-0.172500X-0.147500X0.172500X-0.147500X0.172500X0.147500X0*%
%TD*%
%TA.AperFunction,SMDPad,CuDef*%
%ADD14RoundRect,0.062500X-0.062500X0.375000X-0.062500X-0.375000X0.062500X-0.375000X0.062500X0.375000X0*%
%TD*%
%TA.AperFunction,SMDPad,CuDef*%
%ADD15RoundRect,0.062500X-0.375000X0.062500X-0.375000X-0.062500X0.375000X-0.062500X0.375000X0.062500X0*%
%TD*%
%TA.AperFunction,SMDPad,CuDef*%
%ADD16R,3.450000X3.450000*%
%TD*%
%TA.AperFunction,SMDPad,CuDef*%
%ADD17RoundRect,0.140000X-0.170000X0.140000X-0.170000X-0.140000X0.170000X-0.140000X0.170000X0.140000X0*%
%TD*%
%TA.AperFunction,SMDPad,CuDef*%
%ADD18RoundRect,0.140000X0.140000X0.170000X-0.140000X0.170000X-0.140000X-0.170000X0.140000X-0.170000X0*%
%TD*%
%TA.AperFunction,SMDPad,CuDef*%
%ADD19RoundRect,0.135000X-0.135000X-0.185000X0.135000X-0.185000X0.135000X0.185000X-0.135000X0.185000X0*%
%TD*%
%TA.AperFunction,ComponentPad*%
%ADD20R,1.700000X1.700000*%
%TD*%
%TA.AperFunction,ComponentPad*%
%ADD21O,1.700000X1.700000*%
%TD*%
%TA.AperFunction,SMDPad,CuDef*%
%ADD22R,0.664055X0.536689*%
%TD*%
%TA.AperFunction,SMDPad,CuDef*%
%ADD23R,0.961030X0.557600*%
%TD*%
%TA.AperFunction,SMDPad,CuDef*%
%ADD24RoundRect,0.135000X0.135000X0.185000X-0.135000X0.185000X-0.135000X-0.185000X0.135000X-0.185000X0*%
%TD*%
%TA.AperFunction,BGAPad,CuDef*%
%ADD25R,1.800000X1.350000*%
%TD*%
%TA.AperFunction,SMDPad,CuDef*%
%ADD26R,2.600000X1.800000*%
%TD*%
%TA.AperFunction,SMDPad,CuDef*%
%ADD27O,0.700000X1.800000*%
%TD*%
%TA.AperFunction,ComponentPad*%
%ADD28R,1.000000X1.000000*%
%TD*%
%TA.AperFunction,ComponentPad*%
%ADD29O,1.000000X1.000000*%
%TD*%
%TA.AperFunction,SMDPad,CuDef*%
%ADD30RoundRect,0.140000X-0.140000X-0.170000X0.140000X-0.170000X0.140000X0.170000X-0.140000X0.170000X0*%
%TD*%
%TA.AperFunction,SMDPad,CuDef*%
%ADD31RoundRect,0.135000X0.185000X-0.135000X0.185000X0.135000X-0.185000X0.135000X-0.185000X-0.135000X0*%
%TD*%
%TA.AperFunction,SMDPad,CuDef*%
%ADD32R,1.150000X1.400000*%
%TD*%
%TA.AperFunction,ViaPad*%
%ADD33C,0.450000*%
%TD*%
%TA.AperFunction,Conductor*%
%ADD34C,0.400000*%
%TD*%
%TA.AperFunction,Conductor*%
%ADD35C,0.200000*%
%TD*%
%TA.AperFunction,Conductor*%
%ADD36C,0.100000*%
%TD*%
G04 APERTURE END LIST*
D10*
%TO.C,E1*%
X135302010Y-108716142D02*
X137300990Y-108716142D01*
X137300990Y-108716142D02*
X137300990Y-106074542D01*
X137300990Y-106074542D02*
X140001010Y-106074542D01*
X140001010Y-106074542D02*
X140001010Y-108716142D01*
X140001010Y-108716142D02*
X142002530Y-108716142D01*
X142002530Y-108716142D02*
X142002530Y-106074542D01*
X142002530Y-106074542D02*
X144702550Y-106074542D01*
X144702550Y-106074542D02*
X144702550Y-110514462D01*
X144702550Y-110514462D02*
X144202170Y-110514462D01*
X144202170Y-110514462D02*
X144202170Y-106574922D01*
X144202170Y-106574922D02*
X142502910Y-106574922D01*
X142502910Y-106574922D02*
X142502910Y-109216522D01*
X142502910Y-109216522D02*
X139503170Y-109216522D01*
X139503170Y-109216522D02*
X139503170Y-106574922D01*
X139503170Y-106574922D02*
X137801370Y-106574922D01*
X137801370Y-106574922D02*
X137801370Y-109216522D01*
X137801370Y-109216522D02*
X134801630Y-109216522D01*
X134801630Y-109216522D02*
X134801630Y-106574202D01*
X134801630Y-106574202D02*
X133102370Y-106574922D01*
X133102370Y-106574922D02*
X133102370Y-110952774D01*
X133102370Y-110952774D02*
X132604530Y-110952774D01*
X132604530Y-110952774D02*
X132604530Y-106574922D01*
X132604530Y-106574922D02*
X131204990Y-106574922D01*
X131204990Y-106574922D02*
X131204990Y-110924729D01*
X131204990Y-110924729D02*
X130305830Y-110924729D01*
X130305830Y-110924729D02*
X130305830Y-106074542D01*
X130305830Y-106074542D02*
X135302010Y-106074542D01*
X135302010Y-106074542D02*
X135302010Y-108716142D01*
G36*
X135302010Y-108716142D02*
G01*
X137300990Y-108716142D01*
X137300990Y-106074542D01*
X140001010Y-106074542D01*
X140001010Y-108716142D01*
X142002530Y-108716142D01*
X142002530Y-106074542D01*
X144702550Y-106074542D01*
X144702550Y-110514462D01*
X144202170Y-110514462D01*
X144202170Y-106574922D01*
X142502910Y-106574922D01*
X142502910Y-109216522D01*
X139503170Y-109216522D01*
X139503170Y-106574922D01*
X137801370Y-106574922D01*
X137801370Y-109216522D01*
X134801630Y-109216522D01*
X134801630Y-106574202D01*
X133102370Y-106574922D01*
X133102370Y-110952774D01*
X132604530Y-110952774D01*
X132604530Y-106574922D01*
X131204990Y-106574922D01*
X131204990Y-110924729D01*
X130305830Y-110924729D01*
X130305830Y-106074542D01*
X135302010Y-106074542D01*
X135302010Y-108716142D01*
G37*
X135302010Y-108716142D02*
X137300990Y-108716142D01*
X137300990Y-106074542D01*
X140001010Y-106074542D01*
X140001010Y-108716142D01*
X142002530Y-108716142D01*
X142002530Y-106074542D01*
X144702550Y-106074542D01*
X144702550Y-110514462D01*
X144202170Y-110514462D01*
X144202170Y-106574922D01*
X142502910Y-106574922D01*
X142502910Y-109216522D01*
X139503170Y-109216522D01*
X139503170Y-106574922D01*
X137801370Y-106574922D01*
X137801370Y-109216522D01*
X134801630Y-109216522D01*
X134801630Y-106574202D01*
X133102370Y-106574922D01*
X133102370Y-110952774D01*
X132604530Y-110952774D01*
X132604530Y-106574922D01*
X131204990Y-106574922D01*
X131204990Y-110924729D01*
X130305830Y-110924729D01*
X130305830Y-106074542D01*
X135302010Y-106074542D01*
X135302010Y-108716142D01*
%TD*%
D11*
%TO.P,R9,1*%
%TO.N,/RST*%
X136608000Y-128733000D03*
%TO.P,R9,2*%
%TO.N,Net-(R8-Pad2)*%
X136608000Y-129753000D03*
%TD*%
D12*
%TO.P,L1,1,1*%
%TO.N,Net-(C5-Pad2)*%
X132887000Y-115250000D03*
%TO.P,L1,2,2*%
%TO.N,GND*%
X133857000Y-115250000D03*
%TD*%
D11*
%TO.P,R8,1*%
%TO.N,/GPIO16*%
X131246501Y-128745207D03*
%TO.P,R8,2*%
%TO.N,Net-(R8-Pad2)*%
X131246501Y-129765207D03*
%TD*%
D13*
%TO.P,D2,1,K*%
%TO.N,/TXD*%
X134421610Y-128778000D03*
%TO.P,D2,2,A*%
%TO.N,Net-(D2-Pad2)*%
X134421610Y-129748000D03*
%TD*%
D14*
%TO.P,U1,1,VDDA*%
%TO.N,+3V3*%
X133392000Y-116942500D03*
%TO.P,U1,2,LNA*%
%TO.N,Net-(C5-Pad2)*%
X132892000Y-116942500D03*
%TO.P,U1,3,VDD3P3*%
%TO.N,+3V3*%
X132392000Y-116942500D03*
%TO.P,U1,4,VDD3P3*%
X131892000Y-116942500D03*
%TO.P,U1,5,VDD_RTC*%
%TO.N,unconnected-(U1-Pad5)*%
X131392000Y-116942500D03*
%TO.P,U1,6,TOUT*%
%TO.N,/ADC_IN*%
X130892000Y-116942500D03*
%TO.P,U1,7,CHIP_PU*%
%TO.N,/CHIP_PU*%
X130392000Y-116942500D03*
%TO.P,U1,8,XPD_DCDC*%
%TO.N,/GPIO16*%
X129892000Y-116942500D03*
D15*
%TO.P,U1,9,MTMS*%
%TO.N,/MTMS*%
X129204500Y-117630000D03*
%TO.P,U1,10,MTDI*%
%TO.N,/MTDI*%
X129204500Y-118130000D03*
%TO.P,U1,11,VDDPST*%
%TO.N,+3V3*%
X129204500Y-118630000D03*
%TO.P,U1,12,MTCK*%
%TO.N,/MTCK*%
X129204500Y-119130000D03*
%TO.P,U1,13,MTDO*%
%TO.N,/MTDO*%
X129204500Y-119630000D03*
%TO.P,U1,14,GPIO2*%
%TO.N,/GPIO2*%
X129204500Y-120130000D03*
%TO.P,U1,15,GPIO0*%
%TO.N,/GPIO0*%
X129204500Y-120630000D03*
%TO.P,U1,16,GPIO4*%
%TO.N,/GPIO4*%
X129204500Y-121130000D03*
D14*
%TO.P,U1,17,VDDPST*%
%TO.N,+3V3*%
X129892000Y-121817500D03*
%TO.P,U1,18,SDIO_DATA_2*%
%TO.N,/SD2{slash}GPIO9*%
X130392000Y-121817500D03*
%TO.P,U1,19,SDIO_DATA_3*%
%TO.N,/SD3{slash}CS*%
X130892000Y-121817500D03*
%TO.P,U1,20,SDIO_CMD*%
%TO.N,/CMD{slash}MOSI*%
X131392000Y-121817500D03*
%TO.P,U1,21,SDIO_CLK*%
%TO.N,/SCLK*%
X131892000Y-121817500D03*
%TO.P,U1,22,SDIO_DATA_0*%
%TO.N,/SD0{slash}MISO*%
X132392000Y-121817500D03*
%TO.P,U1,23,SDIO_DATA_1*%
%TO.N,/SD1{slash}INT*%
X132892000Y-121817500D03*
%TO.P,U1,24,GPIO5*%
%TO.N,/GPIO5*%
X133392000Y-121817500D03*
D15*
%TO.P,U1,25,U0RXD*%
%TO.N,/RXD*%
X134079500Y-121130000D03*
%TO.P,U1,26,U0TXD*%
%TO.N,/TXD*%
X134079500Y-120630000D03*
%TO.P,U1,27,XTAL_OUT*%
%TO.N,Net-(C8-Pad2)*%
X134079500Y-120130000D03*
%TO.P,U1,28,XTAL_IN*%
%TO.N,Net-(C9-Pad2)*%
X134079500Y-119630000D03*
%TO.P,U1,29,VDDD*%
%TO.N,+3V3*%
X134079500Y-119130000D03*
%TO.P,U1,30,VDDA*%
X134079500Y-118630000D03*
%TO.P,U1,31,RES12K*%
%TO.N,Net-(R3-Pad2)*%
X134079500Y-118130000D03*
%TO.P,U1,32,~{EXT_RSTB}*%
%TO.N,/RST*%
X134079500Y-117630000D03*
D16*
%TO.P,U1,33,GND*%
%TO.N,GND*%
X131642000Y-119380000D03*
%TD*%
D11*
%TO.P,R5,1*%
%TO.N,+3V3*%
X135493220Y-128753000D03*
%TO.P,R5,2*%
%TO.N,Net-(D2-Pad2)*%
X135493220Y-129773000D03*
%TD*%
D17*
%TO.P,C2,1*%
%TO.N,GND*%
X131016006Y-113800000D03*
%TO.P,C2,2*%
%TO.N,+3V3*%
X131016006Y-114760000D03*
%TD*%
D18*
%TO.P,C7,1*%
%TO.N,GND*%
X139932000Y-115965000D03*
%TO.P,C7,2*%
%TO.N,/RST*%
X138972000Y-115965000D03*
%TD*%
D19*
%TO.P,R11,1*%
%TO.N,/RST*%
X138922000Y-116970000D03*
%TO.P,R11,2*%
%TO.N,+3V3*%
X139942000Y-116970000D03*
%TD*%
D20*
%TO.P,J4,1,Pin_1*%
%TO.N,/ADC_IN*%
X118364000Y-113284000D03*
D21*
%TO.P,J4,2,Pin_2*%
%TO.N,/CHIP_PU*%
X118364000Y-115824000D03*
%TO.P,J4,3,Pin_3*%
%TO.N,/GPIO16*%
X118364000Y-118364000D03*
%TO.P,J4,4,Pin_4*%
%TO.N,/MTMS*%
X118364000Y-120904000D03*
%TO.P,J4,5,Pin_5*%
%TO.N,/GPIO2*%
X118364000Y-123444000D03*
%TO.P,J4,6,Pin_6*%
%TO.N,/GPIO0*%
X118364000Y-125984000D03*
%TO.P,J4,7,Pin_7*%
%TO.N,/GPIO4*%
X118364000Y-128524000D03*
%TO.P,J4,8,Pin_8*%
%TO.N,/SD2{slash}GPIO9*%
X118364000Y-131064000D03*
%TO.P,J4,9,Pin_9*%
%TO.N,/SD3{slash}CS*%
X118364000Y-133604000D03*
%TO.P,J4,10,Pin_10*%
%TO.N,/CMD{slash}MOSI*%
X118364000Y-136144000D03*
%TO.P,J4,11,Pin_11*%
%TO.N,/SCLK*%
X118364000Y-138684000D03*
%TO.P,J4,12,Pin_12*%
%TO.N,/SD0{slash}MISO*%
X118364000Y-141224000D03*
%TO.P,J4,13,Pin_13*%
%TO.N,/SD1{slash}INT*%
X118364000Y-143764000D03*
%TO.P,J4,14,Pin_14*%
%TO.N,/GPIO5*%
X118364000Y-146304000D03*
%TO.P,J4,15,Pin_15*%
%TO.N,unconnected-(J4-Pad15)*%
X118364000Y-148844000D03*
%TD*%
D22*
%TO.P,E1,ANT,SIGNAL*%
%TO.N,Net-(C5-Pad1)*%
X132854111Y-111277418D03*
D23*
%TO.P,E1,GND,GND*%
%TO.N,GND*%
X130754980Y-111298273D03*
%TD*%
D24*
%TO.P,R14,1*%
%TO.N,Net-(R14-Pad1)*%
X125699000Y-123500000D03*
%TO.P,R14,2*%
%TO.N,+3V3*%
X124679000Y-123500000D03*
%TD*%
D25*
%TO.P,SW2,1,1*%
%TO.N,Net-(R10-Pad2)*%
X125791000Y-133152500D03*
%TO.P,SW2,2,2*%
%TO.N,GND*%
X125791000Y-137302500D03*
%TD*%
D24*
%TO.P,R13,1*%
%TO.N,Net-(R13-Pad1)*%
X124275000Y-115150000D03*
%TO.P,R13,2*%
%TO.N,+3V3*%
X123255000Y-115150000D03*
%TD*%
D18*
%TO.P,C3,1*%
%TO.N,GND*%
X137882000Y-118000000D03*
%TO.P,C3,2*%
%TO.N,+3V3*%
X136922000Y-118000000D03*
%TD*%
D24*
%TO.P,R3,1*%
%TO.N,GND*%
X137932000Y-116995000D03*
%TO.P,R3,2*%
%TO.N,Net-(R3-Pad2)*%
X136912000Y-116995000D03*
%TD*%
D26*
%TO.P,C1,1*%
%TO.N,+3V3*%
X130556000Y-134390000D03*
%TO.P,C1,2*%
%TO.N,GND*%
X130556000Y-137390000D03*
%TD*%
D18*
%TO.P,C9,1*%
%TO.N,GND*%
X137894358Y-119055837D03*
%TO.P,C9,2*%
%TO.N,Net-(C9-Pad2)*%
X136934358Y-119055837D03*
%TD*%
D27*
%TO.P,U2,1,CS*%
%TO.N,/MTDO*%
X123065000Y-121980000D03*
%TO.P,U2,2,SO*%
%TO.N,/MTDI*%
X124335000Y-121980000D03*
%TO.P,U2,3,WP*%
%TO.N,Net-(R14-Pad1)*%
X125605000Y-121980000D03*
%TO.P,U2,4,GND*%
%TO.N,GND*%
X126875000Y-121980000D03*
%TO.P,U2,5,SI*%
%TO.N,/MTCK*%
X126875000Y-116780000D03*
%TO.P,U2,6,CLK*%
%TO.N,Net-(R15-Pad1)*%
X125605000Y-116780000D03*
%TO.P,U2,7,HOLD*%
%TO.N,Net-(R13-Pad1)*%
X124335000Y-116780000D03*
%TO.P,U2,8,VCC*%
%TO.N,+3V3*%
X123065000Y-116780000D03*
%TD*%
D28*
%TO.P,J2,1,Pin_1*%
%TO.N,+3V3*%
X143510000Y-125984000D03*
D29*
%TO.P,J2,2,Pin_2*%
%TO.N,GND*%
X143510000Y-127254000D03*
%TO.P,J2,3,Pin_3*%
%TO.N,/RST*%
X143510000Y-128524000D03*
%TO.P,J2,4,Pin_4*%
%TO.N,/GPIO0*%
X143510000Y-129794000D03*
%TO.P,J2,5,Pin_5*%
%TO.N,/TXD*%
X143510000Y-131064000D03*
%TO.P,J2,6,Pin_6*%
%TO.N,/RXD*%
X143510000Y-132334000D03*
%TD*%
D13*
%TO.P,D3,1,K*%
%TO.N,/RXD*%
X133350000Y-128778000D03*
%TO.P,D3,2,A*%
%TO.N,Net-(D3-Pad2)*%
X133350000Y-129748000D03*
%TD*%
D30*
%TO.P,C8,1*%
%TO.N,GND*%
X137190000Y-124460000D03*
%TO.P,C8,2*%
%TO.N,Net-(C8-Pad2)*%
X138150000Y-124460000D03*
%TD*%
D13*
%TO.P,D1,1,K*%
%TO.N,/GPIO16*%
X130089724Y-128770207D03*
%TO.P,D1,2,A*%
%TO.N,Net-(D1-Pad2)*%
X130089724Y-129740207D03*
%TD*%
D11*
%TO.P,R4,1*%
%TO.N,/GPIO2*%
X125462616Y-128745207D03*
%TO.P,R4,2*%
%TO.N,+3V3*%
X125462616Y-129765207D03*
%TD*%
%TO.P,R15,1*%
%TO.N,Net-(R15-Pad1)*%
X128896006Y-113790000D03*
%TO.P,R15,2*%
%TO.N,/MTMS*%
X128896006Y-114810000D03*
%TD*%
D17*
%TO.P,C5,1*%
%TO.N,Net-(C5-Pad1)*%
X132901030Y-113325654D03*
%TO.P,C5,2*%
%TO.N,Net-(C5-Pad2)*%
X132901030Y-114285654D03*
%TD*%
D25*
%TO.P,SW1,1,1*%
%TO.N,Net-(R8-Pad2)*%
X135321000Y-133152500D03*
%TO.P,SW1,2,2*%
%TO.N,GND*%
X135321000Y-137302500D03*
%TD*%
D20*
%TO.P,J1,1,Pin_1*%
%TO.N,+3V3*%
X142494000Y-148336000D03*
D21*
%TO.P,J1,2,Pin_2*%
%TO.N,GND*%
X139954000Y-148336000D03*
%TD*%
D18*
%TO.P,C4,1*%
%TO.N,GND*%
X137882000Y-115990000D03*
%TO.P,C4,2*%
%TO.N,+3V3*%
X136922000Y-115990000D03*
%TD*%
D11*
%TO.P,R10,1*%
%TO.N,/GPIO0*%
X127776170Y-128745207D03*
%TO.P,R10,2*%
%TO.N,Net-(R10-Pad2)*%
X127776170Y-129765207D03*
%TD*%
D18*
%TO.P,C6,1*%
%TO.N,GND*%
X133812687Y-112368194D03*
%TO.P,C6,2*%
%TO.N,Net-(C5-Pad1)*%
X132852687Y-112368194D03*
%TD*%
D11*
%TO.P,R12,1*%
%TO.N,/MTDO*%
X124305839Y-128745207D03*
%TO.P,R12,2*%
%TO.N,GND*%
X124305839Y-129765207D03*
%TD*%
%TO.P,R2,1*%
%TO.N,+3V3*%
X128932947Y-128745207D03*
%TO.P,R2,2*%
%TO.N,Net-(D1-Pad2)*%
X128932947Y-129765207D03*
%TD*%
%TO.P,R6,1*%
%TO.N,+3V3*%
X132320000Y-128753000D03*
%TO.P,R6,2*%
%TO.N,Net-(D3-Pad2)*%
X132320000Y-129773000D03*
%TD*%
%TO.P,R1,1*%
%TO.N,/GPIO0*%
X126619393Y-128745207D03*
%TO.P,R1,2*%
%TO.N,+3V3*%
X126619393Y-129765207D03*
%TD*%
D31*
%TO.P,R7,1*%
%TO.N,/CHIP_PU*%
X129961006Y-114810000D03*
%TO.P,R7,2*%
%TO.N,+3V3*%
X129961006Y-113790000D03*
%TD*%
D32*
%TO.P,Y1,1,1*%
%TO.N,Net-(C9-Pad2)*%
X136871152Y-120649257D03*
%TO.P,Y1,2,2*%
%TO.N,GND*%
X136871152Y-122849257D03*
%TO.P,Y1,3,3*%
%TO.N,Net-(C8-Pad2)*%
X138471152Y-122849257D03*
%TO.P,Y1,4,4*%
%TO.N,GND*%
X138471152Y-120649257D03*
%TD*%
D33*
%TO.N,+3V3*%
X122511816Y-115158389D03*
X129963353Y-113099496D03*
X140076500Y-117894232D03*
X135532897Y-128264023D03*
X132195647Y-128153270D03*
X130556000Y-132179500D03*
X134158924Y-116950881D03*
X128243907Y-118504500D03*
X128932739Y-128074200D03*
X136098000Y-118824000D03*
X129794000Y-132179500D03*
X126341843Y-130622992D03*
X131318000Y-132179500D03*
X123936850Y-123472882D03*
X129301480Y-121824344D03*
X131892000Y-115635994D03*
%TO.N,GND*%
X131042000Y-118780000D03*
X132242000Y-120580000D03*
X132842000Y-119380000D03*
X132842000Y-119980000D03*
X132842000Y-118780000D03*
X131642000Y-120580000D03*
X131642000Y-119380000D03*
X132242000Y-119380000D03*
X132242000Y-119980000D03*
X132842000Y-120580000D03*
X130442000Y-119380000D03*
X131042000Y-119380000D03*
X132242000Y-118780000D03*
X132242000Y-118180000D03*
X130442000Y-119980000D03*
X131042000Y-118180000D03*
X132842000Y-118180000D03*
X126492000Y-120396000D03*
X131042000Y-120580000D03*
X137882000Y-115072204D03*
X127254000Y-120396000D03*
X131642000Y-118780000D03*
X131042000Y-119980000D03*
X131642000Y-118180000D03*
X131642000Y-119980000D03*
X130442000Y-118780000D03*
X130442000Y-118180000D03*
X130442000Y-120580000D03*
%TO.N,/RST*%
X136618467Y-127895637D03*
X139446000Y-118618000D03*
%TO.N,/GPIO16*%
X129540000Y-116078000D03*
X130060572Y-127885176D03*
%TO.N,/TXD*%
X134402665Y-127889523D03*
X134740800Y-121855775D03*
%TO.N,/RXD*%
X134156177Y-121780340D03*
X133350000Y-127822500D03*
%TO.N,/GPIO0*%
X127762000Y-127762000D03*
X128016000Y-122936000D03*
%TO.N,/ADC_IN*%
X130810000Y-115570000D03*
%TO.N,/CHIP_PU*%
X130392000Y-115988000D03*
%TO.N,/GPIO2*%
X127116188Y-123306188D03*
X125506591Y-127869952D03*
%TO.N,/MTMS*%
X128016000Y-117602000D03*
%TO.N,/MTDI*%
X124970000Y-120904000D03*
X127553583Y-118275572D03*
%TO.N,/MTDO*%
X124309057Y-127860523D03*
X123065000Y-123444000D03*
%TD*%
D34*
%TO.N,+3V3*%
X123065000Y-115340000D02*
X123255000Y-115150000D01*
X132392000Y-116135994D02*
X131892000Y-115635994D01*
X134150543Y-116942500D02*
X134158924Y-116950881D01*
X132224489Y-128146772D02*
X132202145Y-128146772D01*
X132392000Y-116942500D02*
X132392000Y-116135994D01*
X131892000Y-116635994D02*
X132010997Y-116516997D01*
X126075293Y-129765207D02*
X126619393Y-129765207D01*
X136082500Y-118839500D02*
X136098000Y-118824000D01*
X139942000Y-116970000D02*
X139942000Y-117495716D01*
X128369407Y-118630000D02*
X128243907Y-118504500D01*
X133392000Y-116942500D02*
X134150543Y-116942500D01*
X135119805Y-115990000D02*
X136922000Y-115990000D01*
X122520205Y-115150000D02*
X122511816Y-115158389D01*
X124679000Y-123500000D02*
X123963968Y-123500000D01*
X130556000Y-134390000D02*
X130556000Y-132179500D01*
X130556000Y-132941500D02*
X129794000Y-132179500D01*
X135792000Y-119130000D02*
X136098000Y-118824000D01*
X123255000Y-115150000D02*
X122520205Y-115150000D01*
X131892000Y-116942500D02*
X131892000Y-116635994D01*
X129204500Y-118630000D02*
X128369407Y-118630000D01*
X128932947Y-128074408D02*
X128932739Y-128074200D01*
X134079500Y-118839500D02*
X136082500Y-118839500D01*
X130556000Y-134390000D02*
X130556000Y-132941500D01*
X126075293Y-130356442D02*
X126341843Y-130622992D01*
X132392000Y-116898000D02*
X132010997Y-116516997D01*
X129961006Y-113101843D02*
X129963353Y-113099496D01*
X131892000Y-115635994D02*
X132264997Y-116008991D01*
X132320000Y-128242284D02*
X132224489Y-128146772D01*
X129794000Y-132179500D02*
X129794000Y-133628000D01*
X134158924Y-116950881D02*
X135119805Y-115990000D01*
X134079500Y-118630000D02*
X136292000Y-118630000D01*
X123963968Y-123500000D02*
X123936850Y-123472882D01*
X134079500Y-118839500D02*
X134079500Y-118630000D01*
X126075293Y-129765207D02*
X126075293Y-130356442D01*
X130556000Y-132941500D02*
X131318000Y-132179500D01*
X128932947Y-128745207D02*
X128932947Y-128074408D01*
X134079500Y-119130000D02*
X134079500Y-118839500D01*
X132320000Y-128753000D02*
X132320000Y-128242284D01*
X132392000Y-116942500D02*
X132392000Y-116898000D01*
X132010997Y-116516997D02*
X132264997Y-116262997D01*
X136292000Y-118630000D02*
X136922000Y-118000000D01*
X140051511Y-117869243D02*
X140076500Y-117894232D01*
X132264997Y-116262997D02*
X132392000Y-116135994D01*
X134079500Y-119130000D02*
X135792000Y-119130000D01*
X131318000Y-132179500D02*
X131318000Y-133628000D01*
X132202145Y-128146772D02*
X132195647Y-128153270D01*
X131892000Y-115635994D02*
X131892000Y-116942500D01*
X129308324Y-121817500D02*
X129301480Y-121824344D01*
X129961006Y-113790000D02*
X129961006Y-113101843D01*
X140051511Y-117605228D02*
X140051511Y-117869243D01*
X129892000Y-121817500D02*
X129308324Y-121817500D01*
X132264997Y-116008991D02*
X132264997Y-116262997D01*
X139942000Y-117495716D02*
X140051511Y-117605228D01*
X131016006Y-114760000D02*
X131892000Y-115635994D01*
X135493220Y-128303700D02*
X135532897Y-128264023D01*
X123065000Y-116780000D02*
X123065000Y-115340000D01*
X135493220Y-128753000D02*
X135493220Y-128303700D01*
X131892000Y-116942500D02*
X132392000Y-116942500D01*
X136292000Y-118630000D02*
X136098000Y-118824000D01*
X131318000Y-133628000D02*
X130556000Y-134390000D01*
X125462616Y-129765207D02*
X126075293Y-129765207D01*
X129794000Y-133628000D02*
X130556000Y-134390000D01*
%TO.N,GND*%
X137882000Y-115990000D02*
X137882000Y-115072204D01*
D35*
%TO.N,Net-(C5-Pad1)*%
X132852687Y-111325064D02*
X132854954Y-111322797D01*
X132901030Y-113325654D02*
X132901030Y-112416537D01*
X132901030Y-112416537D02*
X132852687Y-112368194D01*
X132852687Y-112368194D02*
X132852687Y-111325064D01*
%TO.N,Net-(C5-Pad2)*%
X132887000Y-115250000D02*
X132887000Y-114299684D01*
X132887000Y-114299684D02*
X132901030Y-114285654D01*
X132892000Y-116942500D02*
X132892000Y-115255000D01*
X132892000Y-115255000D02*
X132887000Y-115250000D01*
D36*
%TO.N,/RST*%
X134079500Y-117630000D02*
X134848000Y-117630000D01*
X138459586Y-116477414D02*
X138972000Y-115965000D01*
X138922000Y-116970000D02*
X138922000Y-118094000D01*
X134848000Y-117630000D02*
X136000586Y-116477414D01*
X138922000Y-116939828D02*
X138459586Y-116477414D01*
X138922000Y-118094000D02*
X139446000Y-118618000D01*
X136000586Y-116477414D02*
X138459586Y-116477414D01*
X136608000Y-128733000D02*
X136608000Y-127906104D01*
X138922000Y-116970000D02*
X138922000Y-116939828D01*
X136608000Y-127906104D02*
X136618467Y-127895637D01*
%TO.N,Net-(C8-Pad2)*%
X138150000Y-124460000D02*
X138471152Y-124138848D01*
X136313873Y-121666000D02*
X137478948Y-121666000D01*
X138471152Y-124138848D02*
X138471152Y-122849257D01*
X134777873Y-120130000D02*
X136313873Y-121666000D01*
X138471152Y-122658204D02*
X138471152Y-122849257D01*
X137478948Y-121666000D02*
X138471152Y-122658204D01*
X134079500Y-120130000D02*
X134777873Y-120130000D01*
%TO.N,Net-(C9-Pad2)*%
X135637257Y-120649257D02*
X136871152Y-120649257D01*
X134079500Y-119630000D02*
X134618000Y-119630000D01*
X136871152Y-119119043D02*
X136934358Y-119055837D01*
X136871152Y-120649257D02*
X136871152Y-119119043D01*
X134618000Y-119630000D02*
X135637257Y-120649257D01*
%TO.N,/GPIO16*%
X131221501Y-128770207D02*
X131246501Y-128745207D01*
X130089724Y-128770207D02*
X131221501Y-128770207D01*
X130089724Y-128770207D02*
X130089724Y-127914328D01*
X129892000Y-116942500D02*
X129892000Y-116430000D01*
X129892000Y-116430000D02*
X129540000Y-116078000D01*
X130089724Y-127914328D02*
X130060572Y-127885176D01*
%TO.N,Net-(D1-Pad2)*%
X128932947Y-129765207D02*
X130064724Y-129765207D01*
X130064724Y-129765207D02*
X130089724Y-129740207D01*
%TO.N,/TXD*%
X134316841Y-120630000D02*
X134079500Y-120630000D01*
X134402665Y-127889523D02*
X134421610Y-128778000D01*
X134740800Y-121053959D02*
X134316841Y-120630000D01*
X134740800Y-121855775D02*
X134740800Y-121053959D01*
%TO.N,Net-(D2-Pad2)*%
X135468220Y-129748000D02*
X135493220Y-129773000D01*
X134421610Y-129748000D02*
X135468220Y-129748000D01*
%TO.N,/RXD*%
X134156177Y-121206677D02*
X134079500Y-121130000D01*
X134156177Y-121780340D02*
X134156177Y-121206677D01*
X133350000Y-127822500D02*
X133350000Y-128778000D01*
%TO.N,Net-(D3-Pad2)*%
X133325000Y-129773000D02*
X133350000Y-129748000D01*
X132320000Y-129773000D02*
X133325000Y-129773000D01*
%TO.N,/GPIO0*%
X129032000Y-126492000D02*
X140208000Y-126492000D01*
X121920000Y-124206000D02*
X120142000Y-125984000D01*
X120142000Y-125984000D02*
X118364000Y-125984000D01*
X127776170Y-128745207D02*
X127776170Y-127776170D01*
X127762000Y-127762000D02*
X129032000Y-126492000D01*
X126619393Y-128745207D02*
X127776170Y-128745207D01*
X127776170Y-127776170D02*
X127762000Y-127762000D01*
X128016000Y-121333672D02*
X128016000Y-122936000D01*
X129204500Y-120630000D02*
X128719672Y-120630000D01*
X126746000Y-124206000D02*
X121920000Y-124206000D01*
X128016000Y-122936000D02*
X126746000Y-124206000D01*
X128719672Y-120630000D02*
X128016000Y-121333672D01*
X140208000Y-126492000D02*
X143510000Y-129794000D01*
%TO.N,/ADC_IN*%
X130892000Y-115652000D02*
X130810000Y-115570000D01*
X130892000Y-116942500D02*
X130892000Y-115652000D01*
%TO.N,/SD3{slash}CS*%
X128520510Y-124968000D02*
X122682000Y-124968000D01*
X122682000Y-124968000D02*
X120650000Y-127000000D01*
X120650000Y-127000000D02*
X120650000Y-131318000D01*
X130892000Y-122596510D02*
X128520510Y-124968000D01*
X120650000Y-131318000D02*
X118364000Y-133604000D01*
X130892000Y-121817500D02*
X130892000Y-122596510D01*
%TO.N,/SD2{slash}GPIO9*%
X120307728Y-129120272D02*
X120307728Y-126862435D01*
X120307728Y-126862435D02*
X122456163Y-124714000D01*
X128270000Y-124714000D02*
X130392000Y-122592000D01*
X122456163Y-124714000D02*
X128270000Y-124714000D01*
X118364000Y-131064000D02*
X120307728Y-129120272D01*
X130392000Y-122592000D02*
X130392000Y-121817500D01*
%TO.N,/SD1{slash}INT*%
X118364000Y-143764000D02*
X121778346Y-140349654D01*
X121778346Y-140349654D02*
X121778346Y-127903654D01*
X123625691Y-126056309D02*
X129417448Y-126056309D01*
X121778346Y-127903654D02*
X123625691Y-126056309D01*
X132892000Y-122581757D02*
X132892000Y-121817500D01*
X129417448Y-126056309D02*
X132892000Y-122581757D01*
%TO.N,/CMD{slash}MOSI*%
X131392000Y-121817500D02*
X131392000Y-122595439D01*
X122936000Y-125222000D02*
X120904000Y-127254000D01*
X120904000Y-133604000D02*
X118364000Y-136144000D01*
X120904000Y-127254000D02*
X120904000Y-133604000D01*
X131392000Y-122595439D02*
X128765439Y-125222000D01*
X128765439Y-125222000D02*
X122936000Y-125222000D01*
%TO.N,/SD0{slash}MISO*%
X132392000Y-122589807D02*
X129197318Y-125784489D01*
X129197318Y-125784489D02*
X123361359Y-125784489D01*
X132392000Y-121817500D02*
X132392000Y-122589807D01*
X121412000Y-127733848D02*
X121412000Y-138176000D01*
X123361359Y-125784489D02*
X121412000Y-127733848D01*
X121412000Y-138176000D02*
X118364000Y-141224000D01*
%TO.N,/SCLK*%
X131892000Y-121817500D02*
X131892000Y-122573433D01*
X121158000Y-127508000D02*
X121158000Y-135890000D01*
X131892000Y-122573433D02*
X128989433Y-125476000D01*
X123190000Y-125476000D02*
X121158000Y-127508000D01*
X128989433Y-125476000D02*
X123190000Y-125476000D01*
X121158000Y-135890000D02*
X118364000Y-138684000D01*
%TO.N,/CHIP_PU*%
X130392000Y-115912000D02*
X130392000Y-115988000D01*
X129961006Y-114810000D02*
X129961006Y-115481006D01*
X130392000Y-115988000D02*
X130392000Y-116942500D01*
X129961006Y-115481006D02*
X130392000Y-115912000D01*
%TO.N,/GPIO5*%
X122174000Y-142494000D02*
X118364000Y-146304000D01*
X133392000Y-122580686D02*
X129680197Y-126292489D01*
X122174000Y-128030076D02*
X122174000Y-142494000D01*
X123911587Y-126292489D02*
X122174000Y-128030076D01*
X133392000Y-121817500D02*
X133392000Y-122580686D01*
X129680197Y-126292489D02*
X123911587Y-126292489D01*
%TO.N,/GPIO4*%
X128524000Y-121666000D02*
X129060000Y-121130000D01*
X127254000Y-124460000D02*
X128524000Y-123190000D01*
X122231131Y-124460000D02*
X127254000Y-124460000D01*
X128524000Y-123190000D02*
X128524000Y-121666000D01*
X118364000Y-128327131D02*
X122231131Y-124460000D01*
X129060000Y-121130000D02*
X129204500Y-121130000D01*
X118364000Y-128524000D02*
X118364000Y-128327131D01*
%TO.N,/GPIO2*%
X126452856Y-123969520D02*
X127116188Y-123306188D01*
X128719672Y-120130000D02*
X127549520Y-121300152D01*
X125506591Y-128701232D02*
X125462616Y-128745207D01*
X125506591Y-127869952D02*
X125506591Y-128701232D01*
X127549520Y-122872856D02*
X127116188Y-123306188D01*
X118889520Y-123969520D02*
X126452856Y-123969520D01*
X118364000Y-123444000D02*
X118889520Y-123969520D01*
X127549520Y-121300152D02*
X127549520Y-122872856D01*
X129204500Y-120130000D02*
X128719672Y-120130000D01*
%TO.N,/MTMS*%
X129204500Y-117630000D02*
X128044000Y-117630000D01*
X129204500Y-117630000D02*
X128896006Y-117321506D01*
X128896006Y-117321506D02*
X128896006Y-114810000D01*
X128044000Y-117630000D02*
X128016000Y-117602000D01*
%TO.N,/MTDI*%
X124970000Y-120904000D02*
X124335000Y-121539000D01*
X127699155Y-118130000D02*
X127553583Y-118275572D01*
X124335000Y-121539000D02*
X124335000Y-121980000D01*
X129204500Y-118130000D02*
X127699155Y-118130000D01*
%TO.N,/MTCK*%
X129204500Y-119130000D02*
X127768000Y-119130000D01*
X126875000Y-118237000D02*
X126875000Y-116780000D01*
X127768000Y-119130000D02*
X126875000Y-118237000D01*
%TO.N,/MTDO*%
X123065000Y-121251500D02*
X123065000Y-121980000D01*
X123065000Y-121980000D02*
X123065000Y-123444000D01*
X124686500Y-119630000D02*
X123065000Y-121251500D01*
X124305839Y-128745207D02*
X124305839Y-127863741D01*
X124305839Y-127863741D02*
X124309057Y-127860523D01*
X129204500Y-119630000D02*
X124686500Y-119630000D01*
%TO.N,Net-(R3-Pad2)*%
X134079500Y-118130000D02*
X135777000Y-118130000D01*
X135777000Y-118130000D02*
X136912000Y-116995000D01*
%TO.N,Net-(R8-Pad2)*%
X135982500Y-130378500D02*
X136608000Y-129753000D01*
X135321000Y-131040000D02*
X135321000Y-133152500D01*
X131246501Y-129765207D02*
X131859794Y-130378500D01*
X135982500Y-130378500D02*
X135321000Y-131040000D01*
X131859794Y-130378500D02*
X135982500Y-130378500D01*
%TO.N,Net-(R10-Pad2)*%
X127776170Y-131049830D02*
X125791000Y-133035000D01*
X127776170Y-129765207D02*
X127776170Y-131049830D01*
X125791000Y-133035000D02*
X125791000Y-133152500D01*
%TO.N,Net-(R13-Pad1)*%
X124335000Y-116780000D02*
X124335000Y-115210000D01*
X124335000Y-115210000D02*
X124275000Y-115150000D01*
%TO.N,Net-(R14-Pad1)*%
X125605000Y-123406000D02*
X125605000Y-121980000D01*
X125699000Y-123500000D02*
X125605000Y-123406000D01*
%TO.N,Net-(R15-Pad1)*%
X127512000Y-113790000D02*
X128896006Y-113790000D01*
X125605000Y-116780000D02*
X125605000Y-115697000D01*
X125605000Y-115697000D02*
X127512000Y-113790000D01*
%TD*%
%TA.AperFunction,Conductor*%
%TO.N,GND*%
G36*
X129950138Y-111118907D02*
G01*
X129958912Y-111130984D01*
X129982708Y-111148273D01*
X130066787Y-111148273D01*
X130124978Y-111167180D01*
X130134107Y-111174686D01*
X130142747Y-111182700D01*
X130151236Y-111186087D01*
X130156187Y-111189217D01*
X130161422Y-111191850D01*
X130168699Y-111197383D01*
X130193853Y-111204667D01*
X130203619Y-111207495D01*
X130212768Y-111210636D01*
X130246550Y-111224114D01*
X130252823Y-111224729D01*
X130253761Y-111224729D01*
X130258130Y-111225461D01*
X130258172Y-111225035D01*
X130267271Y-111225927D01*
X130276048Y-111228469D01*
X130285149Y-111227681D01*
X130285151Y-111227681D01*
X130314971Y-111225098D01*
X130323513Y-111224729D01*
X131149373Y-111224729D01*
X131159035Y-111225202D01*
X131166431Y-111225927D01*
X131175208Y-111228469D01*
X131184309Y-111227681D01*
X131184311Y-111227681D01*
X131214131Y-111225098D01*
X131222673Y-111224729D01*
X131232895Y-111224729D01*
X131237373Y-111223895D01*
X131237384Y-111223894D01*
X131240744Y-111223268D01*
X131250326Y-111221963D01*
X131257128Y-111221374D01*
X131277444Y-111219615D01*
X131277446Y-111219614D01*
X131286550Y-111218826D01*
X131294761Y-111214812D01*
X131300415Y-111213244D01*
X131305874Y-111211137D01*
X131314860Y-111209464D01*
X131345827Y-111190376D01*
X131354296Y-111185711D01*
X131360456Y-111182700D01*
X131386956Y-111169746D01*
X131389646Y-111166846D01*
X131445803Y-111148273D01*
X131519815Y-111148273D01*
X131532502Y-111144151D01*
X131534930Y-111140809D01*
X131584430Y-111104845D01*
X131615022Y-111100000D01*
X132222584Y-111100000D01*
X132280775Y-111118907D01*
X132316739Y-111168407D01*
X132321584Y-111199000D01*
X132321584Y-111565510D01*
X132333217Y-111623993D01*
X132377532Y-111690314D01*
X132443853Y-111734629D01*
X132453416Y-111736531D01*
X132453418Y-111736532D01*
X132465245Y-111738884D01*
X132472501Y-111740327D01*
X132525884Y-111770223D01*
X132551501Y-111825787D01*
X132552187Y-111837425D01*
X132552187Y-111838791D01*
X132533280Y-111896982D01*
X132515519Y-111914435D01*
X132514371Y-111914970D01*
X132429463Y-111999878D01*
X132378715Y-112108707D01*
X132372187Y-112158293D01*
X132372188Y-112578094D01*
X132372611Y-112581304D01*
X132372611Y-112581311D01*
X132377120Y-112615565D01*
X132378715Y-112627681D01*
X132381918Y-112634549D01*
X132407103Y-112688558D01*
X132429463Y-112736510D01*
X132494045Y-112801092D01*
X132521822Y-112855609D01*
X132512251Y-112916041D01*
X132494044Y-112941100D01*
X132447806Y-112987338D01*
X132397058Y-113096167D01*
X132390530Y-113145753D01*
X132390531Y-113505554D01*
X132390954Y-113508764D01*
X132390954Y-113508771D01*
X132394749Y-113537598D01*
X132397058Y-113555141D01*
X132404421Y-113570930D01*
X132441292Y-113650000D01*
X132447806Y-113663970D01*
X132519486Y-113735650D01*
X132547263Y-113790167D01*
X132537692Y-113850599D01*
X132519486Y-113875658D01*
X132447806Y-113947338D01*
X132444146Y-113955186D01*
X132444145Y-113955188D01*
X132415149Y-114017371D01*
X132397058Y-114056167D01*
X132390530Y-114105753D01*
X132390531Y-114465554D01*
X132390954Y-114468764D01*
X132390954Y-114468771D01*
X132394569Y-114496233D01*
X132397058Y-114515141D01*
X132407729Y-114538025D01*
X132427349Y-114580099D01*
X132447806Y-114623970D01*
X132504314Y-114680478D01*
X132532091Y-114734995D01*
X132522520Y-114795427D01*
X132504375Y-114820424D01*
X132473956Y-114850897D01*
X132452270Y-114872621D01*
X132401392Y-114976706D01*
X132391500Y-115044514D01*
X132391500Y-115294738D01*
X132372593Y-115352929D01*
X132323093Y-115388893D01*
X132261907Y-115388893D01*
X132222496Y-115364742D01*
X132145220Y-115287466D01*
X132138283Y-115283931D01*
X132138281Y-115283930D01*
X132087109Y-115257857D01*
X132062050Y-115239651D01*
X131555501Y-114733102D01*
X131527724Y-114678585D01*
X131526505Y-114663098D01*
X131526505Y-114580100D01*
X131519978Y-114530513D01*
X131491186Y-114468768D01*
X131472891Y-114429534D01*
X131472890Y-114429532D01*
X131469230Y-114421684D01*
X131463108Y-114415562D01*
X131458136Y-114408461D01*
X131460835Y-114406571D01*
X131440036Y-114365750D01*
X131449607Y-114305318D01*
X131479000Y-114270629D01*
X131494692Y-114259039D01*
X131505047Y-114248684D01*
X131574859Y-114154167D01*
X131581706Y-114141234D01*
X131621094Y-114029073D01*
X131623662Y-114017371D01*
X131625788Y-113994886D01*
X131626006Y-113990250D01*
X131626006Y-113965680D01*
X131621884Y-113952995D01*
X131617763Y-113950000D01*
X130965006Y-113950000D01*
X130906815Y-113931093D01*
X130870851Y-113881593D01*
X130866006Y-113851000D01*
X130866006Y-113634320D01*
X131166006Y-113634320D01*
X131170128Y-113647005D01*
X131174249Y-113650000D01*
X131610325Y-113650000D01*
X131623010Y-113645878D01*
X131626005Y-113641757D01*
X131626005Y-113609753D01*
X131625786Y-113605110D01*
X131623661Y-113582626D01*
X131621096Y-113570930D01*
X131581706Y-113458766D01*
X131574859Y-113445833D01*
X131505047Y-113351316D01*
X131494690Y-113340959D01*
X131400173Y-113271147D01*
X131387240Y-113264300D01*
X131275079Y-113224912D01*
X131263377Y-113222344D01*
X131240892Y-113220218D01*
X131236256Y-113220000D01*
X131181686Y-113220000D01*
X131169001Y-113224122D01*
X131166006Y-113228243D01*
X131166006Y-113634320D01*
X130866006Y-113634320D01*
X130866006Y-113235681D01*
X130861884Y-113222996D01*
X130857763Y-113220001D01*
X130795759Y-113220001D01*
X130791116Y-113220220D01*
X130768632Y-113222345D01*
X130756936Y-113224910D01*
X130644772Y-113264300D01*
X130631839Y-113271147D01*
X130537322Y-113340959D01*
X130531563Y-113346718D01*
X130477046Y-113374495D01*
X130416614Y-113364924D01*
X130373349Y-113321659D01*
X130363778Y-113261227D01*
X130367404Y-113246122D01*
X130369534Y-113239565D01*
X130373072Y-113232622D01*
X130394157Y-113099496D01*
X130388300Y-113062518D01*
X130374291Y-112974065D01*
X130374291Y-112974064D01*
X130373072Y-112966370D01*
X130340493Y-112902430D01*
X130315417Y-112853215D01*
X130315416Y-112853213D01*
X130311881Y-112846276D01*
X130216573Y-112750968D01*
X130209636Y-112747433D01*
X130209634Y-112747432D01*
X130103419Y-112693313D01*
X130103418Y-112693313D01*
X130096479Y-112689777D01*
X130088785Y-112688558D01*
X130088784Y-112688558D01*
X129971049Y-112669911D01*
X129963353Y-112668692D01*
X129955657Y-112669911D01*
X129837922Y-112688558D01*
X129837921Y-112688558D01*
X129830227Y-112689777D01*
X129823288Y-112693313D01*
X129823287Y-112693313D01*
X129717072Y-112747432D01*
X129717070Y-112747433D01*
X129710133Y-112750968D01*
X129614825Y-112846276D01*
X129611290Y-112853213D01*
X129611289Y-112853215D01*
X129586213Y-112902430D01*
X129553634Y-112966370D01*
X129552415Y-112974064D01*
X129552415Y-112974065D01*
X129538406Y-113062518D01*
X129532549Y-113099496D01*
X129533768Y-113107192D01*
X129552413Y-113224910D01*
X129553634Y-113232622D01*
X129556048Y-113237359D01*
X129560506Y-113265508D01*
X129560506Y-113355023D01*
X129541599Y-113413214D01*
X129531510Y-113425027D01*
X129498510Y-113458027D01*
X129443993Y-113485804D01*
X129383561Y-113476233D01*
X129358502Y-113458027D01*
X129276410Y-113375935D01*
X129268562Y-113372275D01*
X129268560Y-113372274D01*
X129176048Y-113329135D01*
X129176047Y-113329135D01*
X129169179Y-113325932D01*
X129120322Y-113319500D01*
X128671690Y-113319500D01*
X128622833Y-113325932D01*
X128615965Y-113329135D01*
X128615964Y-113329135D01*
X128523452Y-113372274D01*
X128523450Y-113372275D01*
X128515602Y-113375935D01*
X128431941Y-113459596D01*
X128421335Y-113482340D01*
X128379609Y-113527087D01*
X128331612Y-113539500D01*
X127546426Y-113539500D01*
X127527112Y-113537598D01*
X127521562Y-113536494D01*
X127512000Y-113534592D01*
X127502438Y-113536494D01*
X127423824Y-113552131D01*
X127423822Y-113552132D01*
X127414259Y-113554034D01*
X127406149Y-113559453D01*
X127388973Y-113570930D01*
X127388750Y-113571079D01*
X127331399Y-113609399D01*
X127325981Y-113617508D01*
X127325980Y-113617509D01*
X127322839Y-113622210D01*
X127310527Y-113637213D01*
X125452213Y-115495527D01*
X125437210Y-115507839D01*
X125424399Y-115516399D01*
X125396009Y-115558889D01*
X125369034Y-115599259D01*
X125367132Y-115608822D01*
X125367131Y-115608824D01*
X125352790Y-115680924D01*
X125349592Y-115697000D01*
X125346380Y-115696361D01*
X125332587Y-115738812D01*
X125297438Y-115768831D01*
X125287868Y-115773707D01*
X125282907Y-115778269D01*
X125282904Y-115778271D01*
X125226457Y-115830177D01*
X125176844Y-115875799D01*
X125173284Y-115881541D01*
X125107277Y-115988000D01*
X125097365Y-116003986D01*
X125070606Y-116096093D01*
X125065806Y-116112613D01*
X125031415Y-116163218D01*
X124973847Y-116183944D01*
X124915091Y-116166874D01*
X124877590Y-116118528D01*
X124872653Y-116098431D01*
X124871121Y-116087250D01*
X124870206Y-116080568D01*
X124867529Y-116074382D01*
X124867528Y-116074378D01*
X124812986Y-115948339D01*
X124812984Y-115948335D01*
X124810305Y-115942145D01*
X124715386Y-115824930D01*
X124709887Y-115821022D01*
X124709882Y-115821017D01*
X124627151Y-115762223D01*
X124590671Y-115713103D01*
X124585500Y-115681526D01*
X124585500Y-115674977D01*
X124604407Y-115616786D01*
X124614496Y-115604973D01*
X124689065Y-115530404D01*
X124693353Y-115521210D01*
X124735865Y-115430042D01*
X124735865Y-115430041D01*
X124739068Y-115423173D01*
X124745500Y-115374316D01*
X124745500Y-114925684D01*
X124739068Y-114876827D01*
X124723721Y-114843915D01*
X124692726Y-114777446D01*
X124692724Y-114777443D01*
X124689065Y-114769596D01*
X124605404Y-114685935D01*
X124597556Y-114682275D01*
X124597554Y-114682274D01*
X124505042Y-114639135D01*
X124505041Y-114639135D01*
X124498173Y-114635932D01*
X124484425Y-114634122D01*
X124452529Y-114629923D01*
X124449316Y-114629500D01*
X124100684Y-114629500D01*
X124097471Y-114629923D01*
X124065576Y-114634122D01*
X124051827Y-114635932D01*
X124044959Y-114639135D01*
X124044958Y-114639135D01*
X123952446Y-114682274D01*
X123952444Y-114682275D01*
X123944596Y-114685935D01*
X123860935Y-114769596D01*
X123854723Y-114782919D01*
X123812995Y-114827664D01*
X123752933Y-114839338D01*
X123697481Y-114813479D01*
X123675278Y-114782920D01*
X123669065Y-114769596D01*
X123585404Y-114685935D01*
X123577556Y-114682275D01*
X123577554Y-114682274D01*
X123485042Y-114639135D01*
X123485041Y-114639135D01*
X123478173Y-114635932D01*
X123464425Y-114634122D01*
X123432529Y-114629923D01*
X123429316Y-114629500D01*
X123080684Y-114629500D01*
X123077471Y-114629923D01*
X123045576Y-114634122D01*
X123031827Y-114635932D01*
X123024959Y-114639135D01*
X123024958Y-114639135D01*
X122932446Y-114682274D01*
X122932444Y-114682275D01*
X122924596Y-114685935D01*
X122890027Y-114720504D01*
X122835510Y-114748281D01*
X122820023Y-114749500D01*
X122657973Y-114749500D01*
X122642486Y-114748281D01*
X122519512Y-114728804D01*
X122511816Y-114727585D01*
X122504120Y-114728804D01*
X122386385Y-114747451D01*
X122386384Y-114747451D01*
X122378690Y-114748670D01*
X122371751Y-114752206D01*
X122371750Y-114752206D01*
X122265535Y-114806325D01*
X122265533Y-114806326D01*
X122258596Y-114809861D01*
X122163288Y-114905169D01*
X122159753Y-114912106D01*
X122159752Y-114912108D01*
X122121590Y-114987005D01*
X122102097Y-115025263D01*
X122100878Y-115032957D01*
X122100878Y-115032958D01*
X122095521Y-115066781D01*
X122081012Y-115158389D01*
X122082231Y-115166085D01*
X122099334Y-115274068D01*
X122102097Y-115291515D01*
X122105633Y-115298454D01*
X122105633Y-115298455D01*
X122159368Y-115403915D01*
X122163288Y-115411609D01*
X122258596Y-115506917D01*
X122265533Y-115510452D01*
X122265535Y-115510453D01*
X122371750Y-115564572D01*
X122378690Y-115568108D01*
X122386384Y-115569327D01*
X122386385Y-115569327D01*
X122504120Y-115587974D01*
X122511816Y-115589193D01*
X122550014Y-115583143D01*
X122610445Y-115592714D01*
X122653709Y-115635979D01*
X122664500Y-115680924D01*
X122664500Y-115808163D01*
X122641788Y-115871253D01*
X122636844Y-115875799D01*
X122633287Y-115881536D01*
X122633286Y-115881537D01*
X122567277Y-115988000D01*
X122557365Y-116003986D01*
X122515285Y-116148825D01*
X122514500Y-116159515D01*
X122514500Y-117367785D01*
X122514958Y-117371128D01*
X122514958Y-117371129D01*
X122528878Y-117472749D01*
X122528879Y-117472753D01*
X122529794Y-117479432D01*
X122532471Y-117485618D01*
X122532472Y-117485622D01*
X122587014Y-117611661D01*
X122587016Y-117611665D01*
X122589695Y-117617855D01*
X122684614Y-117735070D01*
X122690113Y-117738978D01*
X122762049Y-117790100D01*
X122807558Y-117822442D01*
X122813903Y-117824726D01*
X122813906Y-117824728D01*
X122943120Y-117871248D01*
X122943123Y-117871249D01*
X122949468Y-117873533D01*
X122993414Y-117876760D01*
X123093158Y-117884086D01*
X123093161Y-117884086D01*
X123099891Y-117884580D01*
X123106506Y-117883246D01*
X123106508Y-117883246D01*
X123175228Y-117869389D01*
X123247743Y-117854767D01*
X123267368Y-117844768D01*
X123359593Y-117797777D01*
X123382132Y-117786293D01*
X123387095Y-117781730D01*
X123387097Y-117781728D01*
X123488186Y-117688771D01*
X123493156Y-117684201D01*
X123557454Y-117580499D01*
X123569077Y-117561753D01*
X123569078Y-117561751D01*
X123572635Y-117556014D01*
X123604195Y-117447386D01*
X123638585Y-117396782D01*
X123696153Y-117376056D01*
X123754909Y-117393126D01*
X123792410Y-117441472D01*
X123797347Y-117461569D01*
X123799794Y-117479432D01*
X123802471Y-117485618D01*
X123802472Y-117485622D01*
X123857014Y-117611661D01*
X123857016Y-117611665D01*
X123859695Y-117617855D01*
X123954614Y-117735070D01*
X123960113Y-117738978D01*
X124032049Y-117790100D01*
X124077558Y-117822442D01*
X124083903Y-117824726D01*
X124083906Y-117824728D01*
X124213120Y-117871248D01*
X124213123Y-117871249D01*
X124219468Y-117873533D01*
X124263414Y-117876760D01*
X124363158Y-117884086D01*
X124363161Y-117884086D01*
X124369891Y-117884580D01*
X124376506Y-117883246D01*
X124376508Y-117883246D01*
X124445228Y-117869389D01*
X124517743Y-117854767D01*
X124537368Y-117844768D01*
X124629593Y-117797777D01*
X124652132Y-117786293D01*
X124657095Y-117781730D01*
X124657097Y-117781728D01*
X124758186Y-117688771D01*
X124763156Y-117684201D01*
X124827454Y-117580499D01*
X124839077Y-117561753D01*
X124839078Y-117561751D01*
X124842635Y-117556014D01*
X124874195Y-117447386D01*
X124908585Y-117396782D01*
X124966153Y-117376056D01*
X125024909Y-117393126D01*
X125062410Y-117441472D01*
X125067347Y-117461569D01*
X125069794Y-117479432D01*
X125072471Y-117485618D01*
X125072472Y-117485622D01*
X125127014Y-117611661D01*
X125127016Y-117611665D01*
X125129695Y-117617855D01*
X125224614Y-117735070D01*
X125230113Y-117738978D01*
X125302049Y-117790100D01*
X125347558Y-117822442D01*
X125353903Y-117824726D01*
X125353906Y-117824728D01*
X125483120Y-117871248D01*
X125483123Y-117871249D01*
X125489468Y-117873533D01*
X125533414Y-117876760D01*
X125633158Y-117884086D01*
X125633161Y-117884086D01*
X125639891Y-117884580D01*
X125646506Y-117883246D01*
X125646508Y-117883246D01*
X125715228Y-117869389D01*
X125787743Y-117854767D01*
X125807368Y-117844768D01*
X125899593Y-117797777D01*
X125922132Y-117786293D01*
X125927095Y-117781730D01*
X125927097Y-117781728D01*
X126028186Y-117688771D01*
X126033156Y-117684201D01*
X126097454Y-117580499D01*
X126109077Y-117561753D01*
X126109078Y-117561751D01*
X126112635Y-117556014D01*
X126144195Y-117447386D01*
X126178585Y-117396782D01*
X126236153Y-117376056D01*
X126294909Y-117393126D01*
X126332410Y-117441472D01*
X126337347Y-117461569D01*
X126339794Y-117479432D01*
X126342471Y-117485618D01*
X126342472Y-117485622D01*
X126397014Y-117611661D01*
X126397016Y-117611665D01*
X126399695Y-117617855D01*
X126494614Y-117735070D01*
X126500111Y-117738977D01*
X126500118Y-117738983D01*
X126582849Y-117797777D01*
X126619329Y-117846897D01*
X126624500Y-117878474D01*
X126624500Y-118202574D01*
X126622598Y-118221888D01*
X126619592Y-118237000D01*
X126639034Y-118334741D01*
X126648737Y-118349262D01*
X126658585Y-118364000D01*
X126658584Y-118364000D01*
X126658587Y-118364003D01*
X126694399Y-118417601D01*
X126702505Y-118423017D01*
X126702506Y-118423018D01*
X126707210Y-118426161D01*
X126722213Y-118438473D01*
X127494235Y-119210496D01*
X127522012Y-119265013D01*
X127512441Y-119325445D01*
X127469176Y-119368710D01*
X127424231Y-119379500D01*
X124720926Y-119379500D01*
X124701612Y-119377598D01*
X124696062Y-119376494D01*
X124686500Y-119374592D01*
X124588759Y-119394034D01*
X124580653Y-119399451D01*
X124580652Y-119399451D01*
X124574524Y-119403546D01*
X124526725Y-119435484D01*
X124505899Y-119449399D01*
X124500481Y-119457508D01*
X124500480Y-119457509D01*
X124497339Y-119462210D01*
X124485027Y-119477213D01*
X123114990Y-120847250D01*
X123060473Y-120875027D01*
X123037736Y-120875980D01*
X123036843Y-120875914D01*
X123036839Y-120875914D01*
X123030109Y-120875420D01*
X123023494Y-120876754D01*
X123023492Y-120876754D01*
X122977773Y-120885973D01*
X122882257Y-120905233D01*
X122747868Y-120973707D01*
X122742905Y-120978270D01*
X122742903Y-120978272D01*
X122674036Y-121041599D01*
X122636844Y-121075799D01*
X122633284Y-121081541D01*
X122562483Y-121195732D01*
X122557365Y-121203986D01*
X122515285Y-121348825D01*
X122514500Y-121359515D01*
X122514500Y-122567785D01*
X122514958Y-122571128D01*
X122514958Y-122571129D01*
X122528878Y-122672749D01*
X122528879Y-122672753D01*
X122529794Y-122679432D01*
X122532471Y-122685618D01*
X122532472Y-122685622D01*
X122587014Y-122811661D01*
X122587016Y-122811665D01*
X122589695Y-122817855D01*
X122684614Y-122935070D01*
X122757225Y-122986672D01*
X122793704Y-123035792D01*
X122794345Y-123096974D01*
X122769879Y-123137373D01*
X122716472Y-123190780D01*
X122712937Y-123197717D01*
X122712936Y-123197719D01*
X122683418Y-123255652D01*
X122655281Y-123310874D01*
X122654062Y-123318568D01*
X122654062Y-123318569D01*
X122643607Y-123384579D01*
X122634196Y-123444000D01*
X122655281Y-123577126D01*
X122658819Y-123584070D01*
X122660560Y-123589428D01*
X122660560Y-123650613D01*
X122624596Y-123700113D01*
X122566405Y-123719020D01*
X119500445Y-123719020D01*
X119442254Y-123700113D01*
X119406290Y-123650613D01*
X119402226Y-123607612D01*
X119418823Y-123476228D01*
X119419171Y-123473474D01*
X119419583Y-123444000D01*
X119419313Y-123441244D01*
X119399952Y-123243780D01*
X119399951Y-123243776D01*
X119399480Y-123238970D01*
X119387027Y-123197722D01*
X119357371Y-123099500D01*
X119339935Y-123041749D01*
X119243218Y-122859849D01*
X119113011Y-122700200D01*
X119096790Y-122686781D01*
X118958002Y-122571965D01*
X118958000Y-122571964D01*
X118954275Y-122568882D01*
X118773055Y-122470897D01*
X118709855Y-122451333D01*
X118580875Y-122411407D01*
X118580871Y-122411406D01*
X118576254Y-122409977D01*
X118571446Y-122409472D01*
X118571443Y-122409471D01*
X118376185Y-122388949D01*
X118376183Y-122388949D01*
X118371369Y-122388443D01*
X118311354Y-122393905D01*
X118171022Y-122406675D01*
X118171017Y-122406676D01*
X118166203Y-122407114D01*
X117968572Y-122465280D01*
X117964288Y-122467519D01*
X117964287Y-122467520D01*
X117924654Y-122488240D01*
X117786002Y-122560726D01*
X117782231Y-122563758D01*
X117629220Y-122686781D01*
X117629217Y-122686783D01*
X117625447Y-122689815D01*
X117622333Y-122693526D01*
X117622332Y-122693527D01*
X117499561Y-122839840D01*
X117493024Y-122847630D01*
X117490689Y-122851878D01*
X117490688Y-122851879D01*
X117483955Y-122864126D01*
X117393776Y-123028162D01*
X117392313Y-123032775D01*
X117392311Y-123032779D01*
X117360546Y-123132917D01*
X117331484Y-123224532D01*
X117330944Y-123229344D01*
X117330944Y-123229345D01*
X117312759Y-123391473D01*
X117308520Y-123429262D01*
X117309526Y-123441244D01*
X117325166Y-123627488D01*
X117325759Y-123634553D01*
X117327092Y-123639201D01*
X117327092Y-123639202D01*
X117378409Y-123818164D01*
X117382544Y-123832586D01*
X117384759Y-123836896D01*
X117400829Y-123868164D01*
X117476712Y-124015818D01*
X117604677Y-124177270D01*
X117608357Y-124180402D01*
X117608359Y-124180404D01*
X117677124Y-124238927D01*
X117761564Y-124310791D01*
X117765787Y-124313151D01*
X117765791Y-124313154D01*
X117882548Y-124378407D01*
X117941398Y-124411297D01*
X117945996Y-124412791D01*
X118132724Y-124473463D01*
X118132726Y-124473464D01*
X118137329Y-124474959D01*
X118341894Y-124499351D01*
X118346716Y-124498980D01*
X118346719Y-124498980D01*
X118414541Y-124493761D01*
X118547300Y-124483546D01*
X118745725Y-124428145D01*
X118750038Y-124425966D01*
X118750044Y-124425964D01*
X118925289Y-124337441D01*
X118925291Y-124337440D01*
X118929610Y-124335258D01*
X118964943Y-124307653D01*
X119050247Y-124241007D01*
X119111197Y-124220020D01*
X121312711Y-124220020D01*
X121370902Y-124238927D01*
X121406866Y-124288427D01*
X121406866Y-124349613D01*
X121382715Y-124389024D01*
X120067236Y-125704504D01*
X120012719Y-125732281D01*
X119997232Y-125733500D01*
X119459276Y-125733500D01*
X119401085Y-125714593D01*
X119364501Y-125663114D01*
X119341336Y-125586388D01*
X119341335Y-125586385D01*
X119339935Y-125581749D01*
X119243218Y-125399849D01*
X119113011Y-125240200D01*
X118954275Y-125108882D01*
X118800433Y-125025700D01*
X118777309Y-125013197D01*
X118777308Y-125013197D01*
X118773055Y-125010897D01*
X118709855Y-124991333D01*
X118580875Y-124951407D01*
X118580871Y-124951406D01*
X118576254Y-124949977D01*
X118571446Y-124949472D01*
X118571443Y-124949471D01*
X118376185Y-124928949D01*
X118376183Y-124928949D01*
X118371369Y-124928443D01*
X118311354Y-124933905D01*
X118171022Y-124946675D01*
X118171017Y-124946676D01*
X118166203Y-124947114D01*
X117968572Y-125005280D01*
X117964288Y-125007519D01*
X117964287Y-125007520D01*
X117953428Y-125013197D01*
X117786002Y-125100726D01*
X117782231Y-125103758D01*
X117629220Y-125226781D01*
X117629217Y-125226783D01*
X117625447Y-125229815D01*
X117622333Y-125233526D01*
X117622332Y-125233527D01*
X117526649Y-125347558D01*
X117493024Y-125387630D01*
X117490689Y-125391878D01*
X117490688Y-125391879D01*
X117483955Y-125404126D01*
X117393776Y-125568162D01*
X117392313Y-125572775D01*
X117392311Y-125572779D01*
X117341715Y-125732281D01*
X117331484Y-125764532D01*
X117308520Y-125969262D01*
X117325759Y-126174553D01*
X117327092Y-126179201D01*
X117327092Y-126179202D01*
X117380109Y-126364093D01*
X117382544Y-126372586D01*
X117476712Y-126555818D01*
X117604677Y-126717270D01*
X117608357Y-126720402D01*
X117608359Y-126720404D01*
X117645885Y-126752341D01*
X117761564Y-126850791D01*
X117765787Y-126853151D01*
X117765791Y-126853154D01*
X117805342Y-126875258D01*
X117941398Y-126951297D01*
X117945996Y-126952791D01*
X118132724Y-127013463D01*
X118132726Y-127013464D01*
X118137329Y-127014959D01*
X118341894Y-127039351D01*
X118346716Y-127038980D01*
X118346719Y-127038980D01*
X118414541Y-127033761D01*
X118547300Y-127023546D01*
X118745725Y-126968145D01*
X118750038Y-126965966D01*
X118750044Y-126965964D01*
X118925289Y-126877441D01*
X118925291Y-126877440D01*
X118929610Y-126875258D01*
X118964943Y-126847653D01*
X119088135Y-126751406D01*
X119088139Y-126751402D01*
X119091951Y-126748424D01*
X119096013Y-126743719D01*
X119195287Y-126628707D01*
X119226564Y-126592472D01*
X119247387Y-126555818D01*
X119325930Y-126417556D01*
X119328323Y-126413344D01*
X119365279Y-126302251D01*
X119401588Y-126253003D01*
X119459218Y-126234500D01*
X119863363Y-126234500D01*
X119921554Y-126253407D01*
X119957518Y-126302907D01*
X119957518Y-126364093D01*
X119933367Y-126403504D01*
X118825149Y-127511722D01*
X118770632Y-127539499D01*
X118725871Y-127536291D01*
X118635960Y-127508459D01*
X118580875Y-127491407D01*
X118580871Y-127491406D01*
X118576254Y-127489977D01*
X118571446Y-127489472D01*
X118571443Y-127489471D01*
X118376185Y-127468949D01*
X118376183Y-127468949D01*
X118371369Y-127468443D01*
X118311354Y-127473905D01*
X118171022Y-127486675D01*
X118171017Y-127486676D01*
X118166203Y-127487114D01*
X117968572Y-127545280D01*
X117964288Y-127547519D01*
X117964287Y-127547520D01*
X117909392Y-127576219D01*
X117786002Y-127640726D01*
X117782231Y-127643758D01*
X117629220Y-127766781D01*
X117629217Y-127766783D01*
X117625447Y-127769815D01*
X117622333Y-127773526D01*
X117622332Y-127773527D01*
X117497422Y-127922389D01*
X117493024Y-127927630D01*
X117490689Y-127931878D01*
X117490688Y-127931879D01*
X117486017Y-127940375D01*
X117393776Y-128108162D01*
X117392313Y-128112775D01*
X117392311Y-128112779D01*
X117356709Y-128225011D01*
X117331484Y-128304532D01*
X117330944Y-128309344D01*
X117330944Y-128309345D01*
X117309369Y-128501696D01*
X117308520Y-128509262D01*
X117312000Y-128550699D01*
X117323289Y-128685135D01*
X117325759Y-128714553D01*
X117327092Y-128719201D01*
X117327092Y-128719202D01*
X117380104Y-128904075D01*
X117382544Y-128912586D01*
X117476712Y-129095818D01*
X117604677Y-129257270D01*
X117608357Y-129260402D01*
X117608359Y-129260404D01*
X117687020Y-129327349D01*
X117761564Y-129390791D01*
X117765787Y-129393151D01*
X117765791Y-129393154D01*
X117854356Y-129442651D01*
X117941398Y-129491297D01*
X117945996Y-129492791D01*
X118132724Y-129553463D01*
X118132726Y-129553464D01*
X118137329Y-129554959D01*
X118341894Y-129579351D01*
X118346716Y-129578980D01*
X118346719Y-129578980D01*
X118414541Y-129573761D01*
X118547300Y-129563546D01*
X118745725Y-129508145D01*
X118750038Y-129505966D01*
X118750044Y-129505964D01*
X118925289Y-129417441D01*
X118925291Y-129417440D01*
X118929610Y-129415258D01*
X118954743Y-129395622D01*
X119088135Y-129291406D01*
X119088139Y-129291402D01*
X119091951Y-129288424D01*
X119097065Y-129282500D01*
X119170807Y-129197068D01*
X119226564Y-129132472D01*
X119228957Y-129128260D01*
X119325934Y-128957550D01*
X119325935Y-128957547D01*
X119328323Y-128953344D01*
X119336982Y-128927316D01*
X119391824Y-128762454D01*
X119391824Y-128762452D01*
X119393351Y-128757863D01*
X119419171Y-128553474D01*
X119419583Y-128524000D01*
X119418436Y-128512304D01*
X119399952Y-128323780D01*
X119399951Y-128323776D01*
X119399480Y-128318970D01*
X119397571Y-128312645D01*
X119361193Y-128192157D01*
X119339935Y-128121749D01*
X119243218Y-127939849D01*
X119240158Y-127936098D01*
X119240156Y-127936094D01*
X119237911Y-127933342D01*
X119215783Y-127876298D01*
X119231412Y-127817142D01*
X119244625Y-127800766D01*
X119888224Y-127157167D01*
X119942741Y-127129390D01*
X120003173Y-127138961D01*
X120046438Y-127182226D01*
X120057228Y-127227171D01*
X120057228Y-128975504D01*
X120038321Y-129033695D01*
X120028232Y-129045508D01*
X118961398Y-130112342D01*
X118906881Y-130140119D01*
X118844307Y-130129423D01*
X118777309Y-130093197D01*
X118777308Y-130093197D01*
X118773055Y-130090897D01*
X118709020Y-130071075D01*
X118580875Y-130031407D01*
X118580871Y-130031406D01*
X118576254Y-130029977D01*
X118571446Y-130029472D01*
X118571443Y-130029471D01*
X118376185Y-130008949D01*
X118376183Y-130008949D01*
X118371369Y-130008443D01*
X118311354Y-130013905D01*
X118171022Y-130026675D01*
X118171017Y-130026676D01*
X118166203Y-130027114D01*
X117968572Y-130085280D01*
X117964288Y-130087519D01*
X117964287Y-130087520D01*
X117915633Y-130112956D01*
X117786002Y-130180726D01*
X117782231Y-130183758D01*
X117629220Y-130306781D01*
X117629217Y-130306783D01*
X117625447Y-130309815D01*
X117622333Y-130313526D01*
X117622332Y-130313527D01*
X117507628Y-130450226D01*
X117493024Y-130467630D01*
X117393776Y-130648162D01*
X117392313Y-130652775D01*
X117392311Y-130652779D01*
X117339868Y-130818101D01*
X117331484Y-130844532D01*
X117330944Y-130849344D01*
X117330944Y-130849345D01*
X117310240Y-131033930D01*
X117308520Y-131049262D01*
X117308925Y-131054082D01*
X117324809Y-131243236D01*
X117325759Y-131254553D01*
X117327092Y-131259201D01*
X117327092Y-131259202D01*
X117367009Y-131398408D01*
X117382544Y-131452586D01*
X117476712Y-131635818D01*
X117604677Y-131797270D01*
X117608357Y-131800402D01*
X117608359Y-131800404D01*
X117721017Y-131896283D01*
X117761564Y-131930791D01*
X117765787Y-131933151D01*
X117765791Y-131933154D01*
X117805342Y-131955258D01*
X117941398Y-132031297D01*
X117945996Y-132032791D01*
X118132724Y-132093463D01*
X118132726Y-132093464D01*
X118137329Y-132094959D01*
X118341894Y-132119351D01*
X118346716Y-132118980D01*
X118346719Y-132118980D01*
X118414541Y-132113761D01*
X118547300Y-132103546D01*
X118745725Y-132048145D01*
X118750038Y-132045966D01*
X118750044Y-132045964D01*
X118925289Y-131957441D01*
X118925291Y-131957440D01*
X118929610Y-131955258D01*
X118964943Y-131927653D01*
X119088135Y-131831406D01*
X119088139Y-131831402D01*
X119091951Y-131828424D01*
X119107866Y-131809987D01*
X119155708Y-131754560D01*
X119226564Y-131672472D01*
X119228957Y-131668260D01*
X119325934Y-131497550D01*
X119325935Y-131497547D01*
X119328323Y-131493344D01*
X119341882Y-131452586D01*
X119391824Y-131302454D01*
X119391824Y-131302452D01*
X119393351Y-131297863D01*
X119419171Y-131093474D01*
X119419583Y-131064000D01*
X119418194Y-131049830D01*
X119399952Y-130863780D01*
X119399951Y-130863776D01*
X119399480Y-130858970D01*
X119395390Y-130845421D01*
X119361193Y-130732157D01*
X119339935Y-130661749D01*
X119298156Y-130583174D01*
X119287532Y-130522921D01*
X119315565Y-130466695D01*
X120230496Y-129551764D01*
X120285013Y-129523987D01*
X120345445Y-129533558D01*
X120388710Y-129576823D01*
X120399500Y-129621768D01*
X120399500Y-131173232D01*
X120380593Y-131231423D01*
X120370504Y-131243236D01*
X118961398Y-132652342D01*
X118906881Y-132680119D01*
X118844307Y-132669423D01*
X118777309Y-132633197D01*
X118777308Y-132633197D01*
X118773055Y-132630897D01*
X118709855Y-132611333D01*
X118580875Y-132571407D01*
X118580871Y-132571406D01*
X118576254Y-132569977D01*
X118571446Y-132569472D01*
X118571443Y-132569471D01*
X118376185Y-132548949D01*
X118376183Y-132548949D01*
X118371369Y-132548443D01*
X118311354Y-132553905D01*
X118171022Y-132566675D01*
X118171017Y-132566676D01*
X118166203Y-132567114D01*
X117968572Y-132625280D01*
X117964288Y-132627519D01*
X117964287Y-132627520D01*
X117912955Y-132654356D01*
X117786002Y-132720726D01*
X117782231Y-132723758D01*
X117629220Y-132846781D01*
X117629217Y-132846783D01*
X117625447Y-132849815D01*
X117622333Y-132853526D01*
X117622332Y-132853527D01*
X117500046Y-132999262D01*
X117493024Y-133007630D01*
X117393776Y-133188162D01*
X117392313Y-133192775D01*
X117392311Y-133192779D01*
X117345601Y-133340029D01*
X117331484Y-133384532D01*
X117330944Y-133389344D01*
X117330944Y-133389345D01*
X117329865Y-133398970D01*
X117308520Y-133589262D01*
X117325759Y-133794553D01*
X117327092Y-133799201D01*
X117327092Y-133799202D01*
X117371698Y-133954760D01*
X117382544Y-133992586D01*
X117476712Y-134175818D01*
X117604677Y-134337270D01*
X117608357Y-134340402D01*
X117608359Y-134340404D01*
X117721017Y-134436283D01*
X117761564Y-134470791D01*
X117765787Y-134473151D01*
X117765791Y-134473154D01*
X117805342Y-134495258D01*
X117941398Y-134571297D01*
X117945996Y-134572791D01*
X118132724Y-134633463D01*
X118132726Y-134633464D01*
X118137329Y-134634959D01*
X118341894Y-134659351D01*
X118346716Y-134658980D01*
X118346719Y-134658980D01*
X118414541Y-134653761D01*
X118547300Y-134643546D01*
X118745725Y-134588145D01*
X118750038Y-134585966D01*
X118750044Y-134585964D01*
X118925289Y-134497441D01*
X118925291Y-134497440D01*
X118929610Y-134495258D01*
X118964943Y-134467653D01*
X119088135Y-134371406D01*
X119088139Y-134371402D01*
X119091951Y-134368424D01*
X119226564Y-134212472D01*
X119228957Y-134208260D01*
X119325934Y-134037550D01*
X119325935Y-134037547D01*
X119328323Y-134033344D01*
X119330417Y-134027052D01*
X119391824Y-133842454D01*
X119391824Y-133842452D01*
X119393351Y-133837863D01*
X119419171Y-133633474D01*
X119419583Y-133604000D01*
X119417667Y-133584454D01*
X119399952Y-133403780D01*
X119399951Y-133403776D01*
X119399480Y-133398970D01*
X119369367Y-133299230D01*
X119341333Y-133206380D01*
X119339935Y-133201749D01*
X119298156Y-133123174D01*
X119287532Y-133062921D01*
X119315565Y-133006695D01*
X120484496Y-131837764D01*
X120539013Y-131809987D01*
X120599445Y-131819558D01*
X120642710Y-131862823D01*
X120653500Y-131907768D01*
X120653500Y-133459232D01*
X120634593Y-133517423D01*
X120624504Y-133529236D01*
X118961398Y-135192342D01*
X118906881Y-135220119D01*
X118844307Y-135209423D01*
X118777309Y-135173197D01*
X118777308Y-135173197D01*
X118773055Y-135170897D01*
X118709855Y-135151333D01*
X118580875Y-135111407D01*
X118580871Y-135111406D01*
X118576254Y-135109977D01*
X118571446Y-135109472D01*
X118571443Y-135109471D01*
X118376185Y-135088949D01*
X118376183Y-135088949D01*
X118371369Y-135088443D01*
X118311354Y-135093905D01*
X118171022Y-135106675D01*
X118171017Y-135106676D01*
X118166203Y-135107114D01*
X117968572Y-135165280D01*
X117964288Y-135167519D01*
X117964287Y-135167520D01*
X117896528Y-135202944D01*
X117786002Y-135260726D01*
X117782231Y-135263758D01*
X117629220Y-135386781D01*
X117629217Y-135386783D01*
X117625447Y-135389815D01*
X117493024Y-135547630D01*
X117393776Y-135728162D01*
X117331484Y-135924532D01*
X117330944Y-135929344D01*
X117330944Y-135929345D01*
X117329865Y-135938970D01*
X117308520Y-136129262D01*
X117313799Y-136192127D01*
X117325196Y-136327846D01*
X117325759Y-136334553D01*
X117327092Y-136339201D01*
X117327092Y-136339202D01*
X117362587Y-136462986D01*
X117382544Y-136532586D01*
X117476712Y-136715818D01*
X117604677Y-136877270D01*
X117608357Y-136880402D01*
X117608359Y-136880404D01*
X117721017Y-136976283D01*
X117761564Y-137010791D01*
X117765787Y-137013151D01*
X117765791Y-137013154D01*
X117805342Y-137035258D01*
X117941398Y-137111297D01*
X117945996Y-137112791D01*
X118132724Y-137173463D01*
X118132726Y-137173464D01*
X118137329Y-137174959D01*
X118341894Y-137199351D01*
X118346716Y-137198980D01*
X118346719Y-137198980D01*
X118414541Y-137193761D01*
X118547300Y-137183546D01*
X118745725Y-137128145D01*
X118750038Y-137125966D01*
X118750044Y-137125964D01*
X118925289Y-137037441D01*
X118925291Y-137037440D01*
X118929610Y-137035258D01*
X118964943Y-137007653D01*
X119088135Y-136911406D01*
X119088139Y-136911402D01*
X119091951Y-136908424D01*
X119226564Y-136752472D01*
X119245231Y-136719613D01*
X119325934Y-136577550D01*
X119325935Y-136577547D01*
X119328323Y-136573344D01*
X119331204Y-136564685D01*
X119391824Y-136382454D01*
X119391826Y-136382446D01*
X119393351Y-136377863D01*
X119397733Y-136343180D01*
X119418823Y-136176228D01*
X119419171Y-136173474D01*
X119419583Y-136144000D01*
X119399480Y-135938970D01*
X119339935Y-135741749D01*
X119298156Y-135663174D01*
X119287532Y-135602921D01*
X119315565Y-135546695D01*
X120738496Y-134123764D01*
X120793013Y-134095987D01*
X120853445Y-134105558D01*
X120896710Y-134148823D01*
X120907500Y-134193768D01*
X120907500Y-135745231D01*
X120888593Y-135803422D01*
X120878504Y-135815235D01*
X118961398Y-137732342D01*
X118906881Y-137760119D01*
X118844307Y-137749423D01*
X118777309Y-137713197D01*
X118777308Y-137713197D01*
X118773055Y-137710897D01*
X118709855Y-137691333D01*
X118580875Y-137651407D01*
X118580871Y-137651406D01*
X118576254Y-137649977D01*
X118571446Y-137649472D01*
X118571443Y-137649471D01*
X118376185Y-137628949D01*
X118376183Y-137628949D01*
X118371369Y-137628443D01*
X118311354Y-137633905D01*
X118171022Y-137646675D01*
X118171017Y-137646676D01*
X118166203Y-137647114D01*
X117968572Y-137705280D01*
X117964288Y-137707519D01*
X117964287Y-137707520D01*
X117896528Y-137742944D01*
X117786002Y-137800726D01*
X117782231Y-137803758D01*
X117629220Y-137926781D01*
X117629217Y-137926783D01*
X117625447Y-137929815D01*
X117622333Y-137933526D01*
X117622332Y-137933527D01*
X117520807Y-138054520D01*
X117493024Y-138087630D01*
X117393776Y-138268162D01*
X117392313Y-138272775D01*
X117392311Y-138272779D01*
X117362258Y-138367519D01*
X117331484Y-138464532D01*
X117330944Y-138469344D01*
X117330944Y-138469345D01*
X117310297Y-138653422D01*
X117308520Y-138669262D01*
X117325759Y-138874553D01*
X117382544Y-139072586D01*
X117476712Y-139255818D01*
X117604677Y-139417270D01*
X117608357Y-139420402D01*
X117608359Y-139420404D01*
X117721017Y-139516283D01*
X117761564Y-139550791D01*
X117765787Y-139553151D01*
X117765791Y-139553154D01*
X117805342Y-139575258D01*
X117941398Y-139651297D01*
X117945996Y-139652791D01*
X118132724Y-139713463D01*
X118132726Y-139713464D01*
X118137329Y-139714959D01*
X118341894Y-139739351D01*
X118346716Y-139738980D01*
X118346719Y-139738980D01*
X118414541Y-139733761D01*
X118547300Y-139723546D01*
X118745725Y-139668145D01*
X118750038Y-139665966D01*
X118750044Y-139665964D01*
X118925289Y-139577441D01*
X118925291Y-139577440D01*
X118929610Y-139575258D01*
X118964943Y-139547653D01*
X119088135Y-139451406D01*
X119088139Y-139451402D01*
X119091951Y-139448424D01*
X119226564Y-139292472D01*
X119245231Y-139259613D01*
X119325934Y-139117550D01*
X119325935Y-139117547D01*
X119328323Y-139113344D01*
X119341882Y-139072586D01*
X119391824Y-138922454D01*
X119391824Y-138922452D01*
X119393351Y-138917863D01*
X119419171Y-138713474D01*
X119419583Y-138684000D01*
X119412178Y-138608477D01*
X119399952Y-138483780D01*
X119399951Y-138483776D01*
X119399480Y-138478970D01*
X119396438Y-138468892D01*
X119341333Y-138286380D01*
X119339935Y-138281749D01*
X119298156Y-138203174D01*
X119287532Y-138142921D01*
X119315565Y-138086695D01*
X120992496Y-136409765D01*
X121047013Y-136381988D01*
X121107445Y-136391559D01*
X121150710Y-136434824D01*
X121161500Y-136479769D01*
X121161500Y-138031232D01*
X121142593Y-138089423D01*
X121132504Y-138101236D01*
X118961398Y-140272342D01*
X118906881Y-140300119D01*
X118844307Y-140289423D01*
X118777309Y-140253197D01*
X118777308Y-140253197D01*
X118773055Y-140250897D01*
X118709855Y-140231333D01*
X118580875Y-140191407D01*
X118580871Y-140191406D01*
X118576254Y-140189977D01*
X118571446Y-140189472D01*
X118571443Y-140189471D01*
X118376185Y-140168949D01*
X118376183Y-140168949D01*
X118371369Y-140168443D01*
X118311354Y-140173905D01*
X118171022Y-140186675D01*
X118171017Y-140186676D01*
X118166203Y-140187114D01*
X117968572Y-140245280D01*
X117964288Y-140247519D01*
X117964287Y-140247520D01*
X117911934Y-140274890D01*
X117786002Y-140340726D01*
X117782231Y-140343758D01*
X117629220Y-140466781D01*
X117629217Y-140466783D01*
X117625447Y-140469815D01*
X117493024Y-140627630D01*
X117393776Y-140808162D01*
X117331484Y-141004532D01*
X117330944Y-141009344D01*
X117330944Y-141009345D01*
X117329865Y-141018970D01*
X117308520Y-141209262D01*
X117325759Y-141414553D01*
X117382544Y-141612586D01*
X117476712Y-141795818D01*
X117604677Y-141957270D01*
X117608357Y-141960402D01*
X117608359Y-141960404D01*
X117721017Y-142056283D01*
X117761564Y-142090791D01*
X117765787Y-142093151D01*
X117765791Y-142093154D01*
X117805342Y-142115258D01*
X117941398Y-142191297D01*
X117945996Y-142192791D01*
X118132724Y-142253463D01*
X118132726Y-142253464D01*
X118137329Y-142254959D01*
X118341894Y-142279351D01*
X118346716Y-142278980D01*
X118346719Y-142278980D01*
X118414541Y-142273761D01*
X118547300Y-142263546D01*
X118745725Y-142208145D01*
X118750038Y-142205966D01*
X118750044Y-142205964D01*
X118925289Y-142117441D01*
X118925291Y-142117440D01*
X118929610Y-142115258D01*
X118964943Y-142087653D01*
X119088135Y-141991406D01*
X119088139Y-141991402D01*
X119091951Y-141988424D01*
X119226564Y-141832472D01*
X119245231Y-141799613D01*
X119325934Y-141657550D01*
X119325935Y-141657547D01*
X119328323Y-141653344D01*
X119341882Y-141612586D01*
X119391824Y-141462454D01*
X119391824Y-141462452D01*
X119393351Y-141457863D01*
X119419171Y-141253474D01*
X119419583Y-141224000D01*
X119399480Y-141018970D01*
X119339935Y-140821749D01*
X119298156Y-140743174D01*
X119287532Y-140682921D01*
X119315565Y-140626695D01*
X121358842Y-138583418D01*
X121413359Y-138555641D01*
X121473791Y-138565212D01*
X121517056Y-138608477D01*
X121527846Y-138653422D01*
X121527846Y-140204886D01*
X121508939Y-140263077D01*
X121498850Y-140274890D01*
X118961398Y-142812342D01*
X118906881Y-142840119D01*
X118844307Y-142829423D01*
X118777309Y-142793197D01*
X118777308Y-142793197D01*
X118773055Y-142790897D01*
X118709855Y-142771333D01*
X118580875Y-142731407D01*
X118580871Y-142731406D01*
X118576254Y-142729977D01*
X118571446Y-142729472D01*
X118571443Y-142729471D01*
X118376185Y-142708949D01*
X118376183Y-142708949D01*
X118371369Y-142708443D01*
X118311354Y-142713905D01*
X118171022Y-142726675D01*
X118171017Y-142726676D01*
X118166203Y-142727114D01*
X117968572Y-142785280D01*
X117964288Y-142787519D01*
X117964287Y-142787520D01*
X117896528Y-142822944D01*
X117786002Y-142880726D01*
X117782231Y-142883758D01*
X117629220Y-143006781D01*
X117629217Y-143006783D01*
X117625447Y-143009815D01*
X117493024Y-143167630D01*
X117393776Y-143348162D01*
X117331484Y-143544532D01*
X117330944Y-143549344D01*
X117330944Y-143549345D01*
X117329865Y-143558970D01*
X117308520Y-143749262D01*
X117325759Y-143954553D01*
X117382544Y-144152586D01*
X117476712Y-144335818D01*
X117604677Y-144497270D01*
X117608357Y-144500402D01*
X117608359Y-144500404D01*
X117721017Y-144596283D01*
X117761564Y-144630791D01*
X117765787Y-144633151D01*
X117765791Y-144633154D01*
X117805342Y-144655258D01*
X117941398Y-144731297D01*
X117945996Y-144732791D01*
X118132724Y-144793463D01*
X118132726Y-144793464D01*
X118137329Y-144794959D01*
X118341894Y-144819351D01*
X118346716Y-144818980D01*
X118346719Y-144818980D01*
X118414541Y-144813761D01*
X118547300Y-144803546D01*
X118745725Y-144748145D01*
X118750038Y-144745966D01*
X118750044Y-144745964D01*
X118925289Y-144657441D01*
X118925291Y-144657440D01*
X118929610Y-144655258D01*
X118964943Y-144627653D01*
X119088135Y-144531406D01*
X119088139Y-144531402D01*
X119091951Y-144528424D01*
X119226564Y-144372472D01*
X119245231Y-144339613D01*
X119325934Y-144197550D01*
X119325935Y-144197547D01*
X119328323Y-144193344D01*
X119341882Y-144152586D01*
X119391824Y-144002454D01*
X119391824Y-144002452D01*
X119393351Y-143997863D01*
X119419171Y-143793474D01*
X119419583Y-143764000D01*
X119399480Y-143558970D01*
X119339935Y-143361749D01*
X119298156Y-143283174D01*
X119287532Y-143222921D01*
X119315565Y-143166695D01*
X121754496Y-140727764D01*
X121809013Y-140699987D01*
X121869445Y-140709558D01*
X121912710Y-140752823D01*
X121923500Y-140797768D01*
X121923500Y-142349231D01*
X121904593Y-142407422D01*
X121894504Y-142419235D01*
X118961398Y-145352342D01*
X118906881Y-145380119D01*
X118844307Y-145369423D01*
X118777309Y-145333197D01*
X118777308Y-145333197D01*
X118773055Y-145330897D01*
X118709855Y-145311333D01*
X118580875Y-145271407D01*
X118580871Y-145271406D01*
X118576254Y-145269977D01*
X118571446Y-145269472D01*
X118571443Y-145269471D01*
X118376185Y-145248949D01*
X118376183Y-145248949D01*
X118371369Y-145248443D01*
X118311354Y-145253905D01*
X118171022Y-145266675D01*
X118171017Y-145266676D01*
X118166203Y-145267114D01*
X117968572Y-145325280D01*
X117964288Y-145327519D01*
X117964287Y-145327520D01*
X117896528Y-145362944D01*
X117786002Y-145420726D01*
X117782231Y-145423758D01*
X117629220Y-145546781D01*
X117629217Y-145546783D01*
X117625447Y-145549815D01*
X117493024Y-145707630D01*
X117393776Y-145888162D01*
X117331484Y-146084532D01*
X117330944Y-146089344D01*
X117330944Y-146089345D01*
X117329865Y-146098970D01*
X117308520Y-146289262D01*
X117325759Y-146494553D01*
X117382544Y-146692586D01*
X117476712Y-146875818D01*
X117604677Y-147037270D01*
X117608357Y-147040402D01*
X117608359Y-147040404D01*
X117721017Y-147136283D01*
X117761564Y-147170791D01*
X117765787Y-147173151D01*
X117765791Y-147173154D01*
X117824434Y-147205928D01*
X117941398Y-147271297D01*
X117945996Y-147272791D01*
X118132724Y-147333463D01*
X118132726Y-147333464D01*
X118137329Y-147334959D01*
X118341894Y-147359351D01*
X118346716Y-147358980D01*
X118346719Y-147358980D01*
X118414541Y-147353761D01*
X118547300Y-147343546D01*
X118745725Y-147288145D01*
X118750038Y-147285966D01*
X118750044Y-147285964D01*
X118925289Y-147197441D01*
X118925291Y-147197440D01*
X118929610Y-147195258D01*
X118964943Y-147167653D01*
X119088135Y-147071406D01*
X119088139Y-147071402D01*
X119091951Y-147068424D01*
X119226564Y-146912472D01*
X119245231Y-146879613D01*
X119325934Y-146737550D01*
X119325935Y-146737547D01*
X119328323Y-146733344D01*
X119341882Y-146692586D01*
X119391824Y-146542454D01*
X119391824Y-146542452D01*
X119393351Y-146537863D01*
X119419171Y-146333474D01*
X119419583Y-146304000D01*
X119399480Y-146098970D01*
X119339935Y-145901749D01*
X119298156Y-145823174D01*
X119287532Y-145762921D01*
X119315565Y-145706695D01*
X122326790Y-142695471D01*
X122341793Y-142683159D01*
X122346491Y-142680020D01*
X122346492Y-142680019D01*
X122354601Y-142674601D01*
X122409966Y-142591740D01*
X122429409Y-142494000D01*
X122427507Y-142484438D01*
X122427507Y-142484432D01*
X122426403Y-142478884D01*
X122424500Y-142459569D01*
X122424500Y-138331639D01*
X128956000Y-138331639D01*
X128956346Y-138337485D01*
X128958234Y-138353353D01*
X128962128Y-138367519D01*
X129000770Y-138454514D01*
X129010946Y-138469321D01*
X129077108Y-138535367D01*
X129091931Y-138545517D01*
X129178980Y-138584000D01*
X129193185Y-138587873D01*
X129208580Y-138589668D01*
X129214292Y-138590000D01*
X130390320Y-138590000D01*
X130403005Y-138585878D01*
X130406000Y-138581757D01*
X130406000Y-138574320D01*
X130706000Y-138574320D01*
X130710122Y-138587005D01*
X130714243Y-138590000D01*
X131897639Y-138590000D01*
X131903485Y-138589654D01*
X131919353Y-138587766D01*
X131933519Y-138583872D01*
X132020514Y-138545230D01*
X132035321Y-138535054D01*
X132101367Y-138468892D01*
X132111517Y-138454069D01*
X132150000Y-138367020D01*
X132153873Y-138352815D01*
X132155668Y-138337420D01*
X132156000Y-138331708D01*
X132156000Y-138019139D01*
X134121000Y-138019139D01*
X134121346Y-138024985D01*
X134123234Y-138040853D01*
X134127128Y-138055019D01*
X134165770Y-138142014D01*
X134175946Y-138156821D01*
X134242108Y-138222867D01*
X134256931Y-138233017D01*
X134343980Y-138271500D01*
X134358185Y-138275373D01*
X134373580Y-138277168D01*
X134379292Y-138277500D01*
X135155320Y-138277500D01*
X135168005Y-138273378D01*
X135171000Y-138269257D01*
X135171000Y-138261820D01*
X135471000Y-138261820D01*
X135475122Y-138274505D01*
X135479243Y-138277500D01*
X136262639Y-138277500D01*
X136268485Y-138277154D01*
X136284353Y-138275266D01*
X136298519Y-138271372D01*
X136385514Y-138232730D01*
X136400321Y-138222554D01*
X136466367Y-138156392D01*
X136476517Y-138141569D01*
X136515000Y-138054520D01*
X136518873Y-138040315D01*
X136520668Y-138024920D01*
X136521000Y-138019208D01*
X136521000Y-137468180D01*
X136516878Y-137455495D01*
X136512757Y-137452500D01*
X135486680Y-137452500D01*
X135473995Y-137456622D01*
X135471000Y-137460743D01*
X135471000Y-138261820D01*
X135171000Y-138261820D01*
X135171000Y-137468180D01*
X135166878Y-137455495D01*
X135162757Y-137452500D01*
X134136680Y-137452500D01*
X134123995Y-137456622D01*
X134121000Y-137460743D01*
X134121000Y-138019139D01*
X132156000Y-138019139D01*
X132156000Y-137555680D01*
X132151878Y-137542995D01*
X132147757Y-137540000D01*
X130721680Y-137540000D01*
X130708995Y-137544122D01*
X130706000Y-137548243D01*
X130706000Y-138574320D01*
X130406000Y-138574320D01*
X130406000Y-137555680D01*
X130401878Y-137542995D01*
X130397757Y-137540000D01*
X128971680Y-137540000D01*
X128958995Y-137544122D01*
X128956000Y-137548243D01*
X128956000Y-138331639D01*
X122424500Y-138331639D01*
X122424500Y-138019139D01*
X124591000Y-138019139D01*
X124591346Y-138024985D01*
X124593234Y-138040853D01*
X124597128Y-138055019D01*
X124635770Y-138142014D01*
X124645946Y-138156821D01*
X124712108Y-138222867D01*
X124726931Y-138233017D01*
X124813980Y-138271500D01*
X124828185Y-138275373D01*
X124843580Y-138277168D01*
X124849292Y-138277500D01*
X125625320Y-138277500D01*
X125638005Y-138273378D01*
X125641000Y-138269257D01*
X125641000Y-138261820D01*
X125941000Y-138261820D01*
X125945122Y-138274505D01*
X125949243Y-138277500D01*
X126732639Y-138277500D01*
X126738485Y-138277154D01*
X126754353Y-138275266D01*
X126768519Y-138271372D01*
X126855514Y-138232730D01*
X126870321Y-138222554D01*
X126936367Y-138156392D01*
X126946517Y-138141569D01*
X126985000Y-138054520D01*
X126988873Y-138040315D01*
X126990668Y-138024920D01*
X126991000Y-138019208D01*
X126991000Y-137468180D01*
X126986878Y-137455495D01*
X126982757Y-137452500D01*
X125956680Y-137452500D01*
X125943995Y-137456622D01*
X125941000Y-137460743D01*
X125941000Y-138261820D01*
X125641000Y-138261820D01*
X125641000Y-137468180D01*
X125636878Y-137455495D01*
X125632757Y-137452500D01*
X124606680Y-137452500D01*
X124593995Y-137456622D01*
X124591000Y-137460743D01*
X124591000Y-138019139D01*
X122424500Y-138019139D01*
X122424500Y-137224320D01*
X128956000Y-137224320D01*
X128960122Y-137237005D01*
X128964243Y-137240000D01*
X130390320Y-137240000D01*
X130403005Y-137235878D01*
X130406000Y-137231757D01*
X130406000Y-137224320D01*
X130706000Y-137224320D01*
X130710122Y-137237005D01*
X130714243Y-137240000D01*
X132140320Y-137240000D01*
X132153005Y-137235878D01*
X132156000Y-137231757D01*
X132156000Y-137136820D01*
X134121000Y-137136820D01*
X134125122Y-137149505D01*
X134129243Y-137152500D01*
X135155320Y-137152500D01*
X135168005Y-137148378D01*
X135171000Y-137144257D01*
X135171000Y-137136820D01*
X135471000Y-137136820D01*
X135475122Y-137149505D01*
X135479243Y-137152500D01*
X136505320Y-137152500D01*
X136518005Y-137148378D01*
X136521000Y-137144257D01*
X136521000Y-136585861D01*
X136520654Y-136580015D01*
X136518766Y-136564147D01*
X136514872Y-136549981D01*
X136476230Y-136462986D01*
X136466054Y-136448179D01*
X136399892Y-136382133D01*
X136385069Y-136371983D01*
X136298020Y-136333500D01*
X136283815Y-136329627D01*
X136268420Y-136327832D01*
X136262708Y-136327500D01*
X135486680Y-136327500D01*
X135473995Y-136331622D01*
X135471000Y-136335743D01*
X135471000Y-137136820D01*
X135171000Y-137136820D01*
X135171000Y-136343180D01*
X135166878Y-136330495D01*
X135162757Y-136327500D01*
X134379361Y-136327500D01*
X134373515Y-136327846D01*
X134357647Y-136329734D01*
X134343481Y-136333628D01*
X134256486Y-136372270D01*
X134241679Y-136382446D01*
X134175633Y-136448608D01*
X134165483Y-136463431D01*
X134127000Y-136550480D01*
X134123127Y-136564685D01*
X134121332Y-136580080D01*
X134121000Y-136585792D01*
X134121000Y-137136820D01*
X132156000Y-137136820D01*
X132156000Y-136448361D01*
X132155654Y-136442515D01*
X132153766Y-136426647D01*
X132149872Y-136412481D01*
X132111230Y-136325486D01*
X132101054Y-136310679D01*
X132034892Y-136244633D01*
X132020069Y-136234483D01*
X131933020Y-136196000D01*
X131918815Y-136192127D01*
X131903420Y-136190332D01*
X131897708Y-136190000D01*
X130721680Y-136190000D01*
X130708995Y-136194122D01*
X130706000Y-136198243D01*
X130706000Y-137224320D01*
X130406000Y-137224320D01*
X130406000Y-136205680D01*
X130401878Y-136192995D01*
X130397757Y-136190000D01*
X129214361Y-136190000D01*
X129208515Y-136190346D01*
X129192647Y-136192234D01*
X129178481Y-136196128D01*
X129091486Y-136234770D01*
X129076679Y-136244946D01*
X129010633Y-136311108D01*
X129000483Y-136325931D01*
X128962000Y-136412980D01*
X128958127Y-136427185D01*
X128956332Y-136442580D01*
X128956000Y-136448292D01*
X128956000Y-137224320D01*
X122424500Y-137224320D01*
X122424500Y-137136820D01*
X124591000Y-137136820D01*
X124595122Y-137149505D01*
X124599243Y-137152500D01*
X125625320Y-137152500D01*
X125638005Y-137148378D01*
X125641000Y-137144257D01*
X125641000Y-137136820D01*
X125941000Y-137136820D01*
X125945122Y-137149505D01*
X125949243Y-137152500D01*
X126975320Y-137152500D01*
X126988005Y-137148378D01*
X126991000Y-137144257D01*
X126991000Y-136585861D01*
X126990654Y-136580015D01*
X126988766Y-136564147D01*
X126984872Y-136549981D01*
X126946230Y-136462986D01*
X126936054Y-136448179D01*
X126869892Y-136382133D01*
X126855069Y-136371983D01*
X126768020Y-136333500D01*
X126753815Y-136329627D01*
X126738420Y-136327832D01*
X126732708Y-136327500D01*
X125956680Y-136327500D01*
X125943995Y-136331622D01*
X125941000Y-136335743D01*
X125941000Y-137136820D01*
X125641000Y-137136820D01*
X125641000Y-136343180D01*
X125636878Y-136330495D01*
X125632757Y-136327500D01*
X124849361Y-136327500D01*
X124843515Y-136327846D01*
X124827647Y-136329734D01*
X124813481Y-136333628D01*
X124726486Y-136372270D01*
X124711679Y-136382446D01*
X124645633Y-136448608D01*
X124635483Y-136463431D01*
X124597000Y-136550480D01*
X124593127Y-136564685D01*
X124591332Y-136580080D01*
X124591000Y-136585792D01*
X124591000Y-137136820D01*
X122424500Y-137136820D01*
X122424500Y-135309748D01*
X129055500Y-135309748D01*
X129067133Y-135368231D01*
X129111448Y-135434552D01*
X129177769Y-135478867D01*
X129187332Y-135480769D01*
X129187334Y-135480770D01*
X129210005Y-135485279D01*
X129236252Y-135490500D01*
X131875748Y-135490500D01*
X131901995Y-135485279D01*
X131924666Y-135480770D01*
X131924668Y-135480769D01*
X131934231Y-135478867D01*
X132000552Y-135434552D01*
X132044867Y-135368231D01*
X132056500Y-135309748D01*
X132056500Y-133470252D01*
X132044867Y-133411769D01*
X132000552Y-133345448D01*
X131934231Y-133301133D01*
X131924668Y-133299231D01*
X131924666Y-133299230D01*
X131901995Y-133294721D01*
X131875748Y-133289500D01*
X131817500Y-133289500D01*
X131759309Y-133270593D01*
X131723345Y-133221093D01*
X131718500Y-133190500D01*
X131718500Y-132352734D01*
X131723346Y-132322141D01*
X131724183Y-132319567D01*
X131727719Y-132312626D01*
X131733212Y-132277948D01*
X131747585Y-132187196D01*
X131748804Y-132179500D01*
X131727719Y-132046374D01*
X131718834Y-132028936D01*
X131670064Y-131933219D01*
X131670063Y-131933217D01*
X131666528Y-131926280D01*
X131571220Y-131830972D01*
X131564283Y-131827437D01*
X131564281Y-131827436D01*
X131458066Y-131773317D01*
X131458065Y-131773317D01*
X131451126Y-131769781D01*
X131443432Y-131768562D01*
X131443431Y-131768562D01*
X131354978Y-131754553D01*
X131318000Y-131748696D01*
X131281022Y-131754553D01*
X131192569Y-131768562D01*
X131192568Y-131768562D01*
X131184874Y-131769781D01*
X131177935Y-131773317D01*
X131177934Y-131773317D01*
X131071719Y-131827436D01*
X131071717Y-131827437D01*
X131064780Y-131830972D01*
X131007004Y-131888748D01*
X130952487Y-131916525D01*
X130892055Y-131906954D01*
X130866996Y-131888748D01*
X130809220Y-131830972D01*
X130802283Y-131827437D01*
X130802281Y-131827436D01*
X130696066Y-131773317D01*
X130696065Y-131773317D01*
X130689126Y-131769781D01*
X130681432Y-131768562D01*
X130681431Y-131768562D01*
X130592978Y-131754553D01*
X130556000Y-131748696D01*
X130519022Y-131754553D01*
X130430569Y-131768562D01*
X130430568Y-131768562D01*
X130422874Y-131769781D01*
X130415935Y-131773317D01*
X130415934Y-131773317D01*
X130309719Y-131827436D01*
X130309717Y-131827437D01*
X130302780Y-131830972D01*
X130245004Y-131888748D01*
X130190487Y-131916525D01*
X130130055Y-131906954D01*
X130104996Y-131888748D01*
X130047220Y-131830972D01*
X130040283Y-131827437D01*
X130040281Y-131827436D01*
X129934066Y-131773317D01*
X129934065Y-131773317D01*
X129927126Y-131769781D01*
X129919432Y-131768562D01*
X129919431Y-131768562D01*
X129830978Y-131754553D01*
X129794000Y-131748696D01*
X129757022Y-131754553D01*
X129668569Y-131768562D01*
X129668568Y-131768562D01*
X129660874Y-131769781D01*
X129653935Y-131773317D01*
X129653934Y-131773317D01*
X129547719Y-131827436D01*
X129547717Y-131827437D01*
X129540780Y-131830972D01*
X129445472Y-131926280D01*
X129441937Y-131933217D01*
X129441936Y-131933219D01*
X129393166Y-132028936D01*
X129384281Y-132046374D01*
X129363196Y-132179500D01*
X129364415Y-132187196D01*
X129378789Y-132277948D01*
X129384281Y-132312626D01*
X129387817Y-132319567D01*
X129388654Y-132322141D01*
X129393500Y-132352734D01*
X129393500Y-133190500D01*
X129374593Y-133248691D01*
X129325093Y-133284655D01*
X129294500Y-133289500D01*
X129236252Y-133289500D01*
X129210005Y-133294721D01*
X129187334Y-133299230D01*
X129187332Y-133299231D01*
X129177769Y-133301133D01*
X129111448Y-133345448D01*
X129067133Y-133411769D01*
X129055500Y-133470252D01*
X129055500Y-135309748D01*
X122424500Y-135309748D01*
X122424500Y-129949856D01*
X123685839Y-129949856D01*
X123686057Y-129954492D01*
X123688150Y-129976630D01*
X123690718Y-129988332D01*
X123729608Y-130099074D01*
X123736455Y-130112007D01*
X123805374Y-130205315D01*
X123815731Y-130215672D01*
X123909039Y-130284591D01*
X123921972Y-130291438D01*
X124032714Y-130330328D01*
X124044416Y-130332896D01*
X124066554Y-130334989D01*
X124071190Y-130335207D01*
X124140159Y-130335207D01*
X124152844Y-130331085D01*
X124155839Y-130326964D01*
X124155839Y-129930887D01*
X124151717Y-129918202D01*
X124147596Y-129915207D01*
X123701519Y-129915207D01*
X123688834Y-129919329D01*
X123685839Y-129923450D01*
X123685839Y-129949856D01*
X122424500Y-129949856D01*
X122424500Y-128174844D01*
X122443407Y-128116653D01*
X122453496Y-128104840D01*
X123986351Y-126571985D01*
X124040868Y-126544208D01*
X124056355Y-126542989D01*
X128387743Y-126542989D01*
X128445934Y-126561896D01*
X128481898Y-126611396D01*
X128481898Y-126672582D01*
X128457747Y-126711993D01*
X127863746Y-127305994D01*
X127809229Y-127333771D01*
X127778257Y-127333771D01*
X127762000Y-127331196D01*
X127754304Y-127332415D01*
X127636569Y-127351062D01*
X127636568Y-127351062D01*
X127628874Y-127352281D01*
X127621935Y-127355817D01*
X127621934Y-127355817D01*
X127515719Y-127409936D01*
X127515717Y-127409937D01*
X127508780Y-127413472D01*
X127413472Y-127508780D01*
X127409937Y-127515717D01*
X127409936Y-127515719D01*
X127379110Y-127576219D01*
X127352281Y-127628874D01*
X127351062Y-127636568D01*
X127351062Y-127636569D01*
X127349788Y-127644615D01*
X127331196Y-127762000D01*
X127332415Y-127769696D01*
X127350723Y-127885287D01*
X127352281Y-127895126D01*
X127355817Y-127902065D01*
X127355817Y-127902066D01*
X127407726Y-128003942D01*
X127413472Y-128015220D01*
X127496674Y-128098422D01*
X127524451Y-128152939D01*
X127525670Y-128168426D01*
X127525670Y-128207497D01*
X127506763Y-128265688D01*
X127468511Y-128297220D01*
X127395766Y-128331142D01*
X127312105Y-128414803D01*
X127301499Y-128437547D01*
X127259773Y-128482294D01*
X127211776Y-128494707D01*
X127183787Y-128494707D01*
X127125596Y-128475800D01*
X127094064Y-128437547D01*
X127083458Y-128414803D01*
X126999797Y-128331142D01*
X126991949Y-128327482D01*
X126991947Y-128327481D01*
X126899435Y-128284342D01*
X126899434Y-128284342D01*
X126892566Y-128281139D01*
X126884644Y-128280096D01*
X126846922Y-128275130D01*
X126843709Y-128274707D01*
X126395077Y-128274707D01*
X126391864Y-128275130D01*
X126354143Y-128280096D01*
X126346220Y-128281139D01*
X126339352Y-128284342D01*
X126339351Y-128284342D01*
X126246839Y-128327481D01*
X126246837Y-128327482D01*
X126238989Y-128331142D01*
X126155328Y-128414803D01*
X126130727Y-128467559D01*
X126089001Y-128512304D01*
X126028940Y-128523979D01*
X125973487Y-128498121D01*
X125951281Y-128467557D01*
X125935564Y-128433852D01*
X125926681Y-128414803D01*
X125843020Y-128331142D01*
X125835169Y-128327481D01*
X125828077Y-128322515D01*
X125829251Y-128320838D01*
X125792835Y-128286886D01*
X125781155Y-128226826D01*
X125809414Y-128168877D01*
X125855119Y-128123172D01*
X125859924Y-128113743D01*
X125912774Y-128010018D01*
X125912774Y-128010017D01*
X125916310Y-128003078D01*
X125917804Y-127993649D01*
X125936176Y-127877648D01*
X125937395Y-127869952D01*
X125930104Y-127823919D01*
X125917529Y-127744521D01*
X125917529Y-127744520D01*
X125916310Y-127736826D01*
X125896053Y-127697069D01*
X125858655Y-127623671D01*
X125858654Y-127623669D01*
X125855119Y-127616732D01*
X125759811Y-127521424D01*
X125752874Y-127517889D01*
X125752872Y-127517888D01*
X125646657Y-127463769D01*
X125646656Y-127463769D01*
X125639717Y-127460233D01*
X125632023Y-127459014D01*
X125632022Y-127459014D01*
X125514287Y-127440367D01*
X125506591Y-127439148D01*
X125498895Y-127440367D01*
X125381160Y-127459014D01*
X125381159Y-127459014D01*
X125373465Y-127460233D01*
X125366526Y-127463769D01*
X125366525Y-127463769D01*
X125260310Y-127517888D01*
X125260308Y-127517889D01*
X125253371Y-127521424D01*
X125158063Y-127616732D01*
X125154528Y-127623669D01*
X125154527Y-127623671D01*
X125117129Y-127697069D01*
X125096872Y-127736826D01*
X125095653Y-127744520D01*
X125095653Y-127744521D01*
X125083078Y-127823919D01*
X125075787Y-127869952D01*
X125077006Y-127877648D01*
X125095379Y-127993649D01*
X125096872Y-128003078D01*
X125100408Y-128010017D01*
X125100408Y-128010018D01*
X125153259Y-128113743D01*
X125158063Y-128123172D01*
X125175798Y-128140907D01*
X125203575Y-128195424D01*
X125194004Y-128255856D01*
X125147634Y-128300635D01*
X125082212Y-128331142D01*
X124998551Y-128414803D01*
X124973950Y-128467559D01*
X124932224Y-128512304D01*
X124872163Y-128523979D01*
X124816710Y-128498121D01*
X124794504Y-128467557D01*
X124778787Y-128433852D01*
X124769904Y-128414803D01*
X124686243Y-128331142D01*
X124678395Y-128327482D01*
X124678393Y-128327481D01*
X124652216Y-128315275D01*
X124646576Y-128312645D01*
X124601828Y-128270917D01*
X124590153Y-128210856D01*
X124618411Y-128152917D01*
X124657585Y-128113743D01*
X124662122Y-128104840D01*
X124715240Y-128000589D01*
X124715240Y-128000588D01*
X124718776Y-127993649D01*
X124721244Y-127978070D01*
X124738642Y-127868219D01*
X124739861Y-127860523D01*
X124730466Y-127801206D01*
X124719995Y-127735092D01*
X124719995Y-127735091D01*
X124718776Y-127727397D01*
X124695866Y-127682434D01*
X124661121Y-127614242D01*
X124661120Y-127614240D01*
X124657585Y-127607303D01*
X124562277Y-127511995D01*
X124555340Y-127508460D01*
X124555338Y-127508459D01*
X124449123Y-127454340D01*
X124449122Y-127454340D01*
X124442183Y-127450804D01*
X124434489Y-127449585D01*
X124434488Y-127449585D01*
X124316753Y-127430938D01*
X124309057Y-127429719D01*
X124301361Y-127430938D01*
X124183626Y-127449585D01*
X124183625Y-127449585D01*
X124175931Y-127450804D01*
X124168992Y-127454340D01*
X124168991Y-127454340D01*
X124062776Y-127508459D01*
X124062774Y-127508460D01*
X124055837Y-127511995D01*
X123960529Y-127607303D01*
X123956994Y-127614240D01*
X123956993Y-127614242D01*
X123922248Y-127682434D01*
X123899338Y-127727397D01*
X123898119Y-127735091D01*
X123898119Y-127735092D01*
X123887648Y-127801206D01*
X123878253Y-127860523D01*
X123879472Y-127868219D01*
X123896871Y-127978070D01*
X123899338Y-127993649D01*
X123902874Y-128000588D01*
X123902874Y-128000589D01*
X123955993Y-128104840D01*
X123960529Y-128113743D01*
X123997656Y-128150870D01*
X124025433Y-128205387D01*
X124015862Y-128265819D01*
X123969493Y-128310597D01*
X123925435Y-128331142D01*
X123841774Y-128414803D01*
X123838114Y-128422651D01*
X123838113Y-128422653D01*
X123814162Y-128474017D01*
X123791771Y-128522034D01*
X123785339Y-128570891D01*
X123785339Y-128919523D01*
X123785762Y-128922736D01*
X123789792Y-128953344D01*
X123791771Y-128968380D01*
X123794974Y-128975248D01*
X123794974Y-128975249D01*
X123836931Y-129065225D01*
X123841774Y-129075611D01*
X123886937Y-129120774D01*
X123914714Y-129175291D01*
X123905143Y-129235723D01*
X123875751Y-129270411D01*
X123815731Y-129314742D01*
X123805374Y-129325099D01*
X123736455Y-129418407D01*
X123729608Y-129431340D01*
X123690718Y-129542082D01*
X123688150Y-129553784D01*
X123686057Y-129575922D01*
X123685839Y-129580558D01*
X123685839Y-129599527D01*
X123689961Y-129612212D01*
X123694082Y-129615207D01*
X124356839Y-129615207D01*
X124415030Y-129634114D01*
X124450994Y-129683614D01*
X124455839Y-129714207D01*
X124455839Y-130319527D01*
X124459961Y-130332212D01*
X124464082Y-130335207D01*
X124540488Y-130335207D01*
X124545124Y-130334989D01*
X124567262Y-130332896D01*
X124578964Y-130330328D01*
X124689706Y-130291438D01*
X124702639Y-130284591D01*
X124795947Y-130215672D01*
X124806304Y-130205315D01*
X124866259Y-130124142D01*
X124916040Y-130088568D01*
X124977223Y-130089049D01*
X125015896Y-130112956D01*
X125082212Y-130179272D01*
X125090059Y-130182931D01*
X125090062Y-130182933D01*
X125181643Y-130225638D01*
X125189443Y-130229275D01*
X125238300Y-130235707D01*
X125575793Y-130235707D01*
X125633984Y-130254614D01*
X125669948Y-130304114D01*
X125674793Y-130334707D01*
X125674793Y-130419875D01*
X125677889Y-130429402D01*
X125682248Y-130442817D01*
X125685874Y-130457923D01*
X125689647Y-130481746D01*
X125700598Y-130503239D01*
X125706541Y-130517585D01*
X125713997Y-130540532D01*
X125727489Y-130559101D01*
X125728176Y-130560047D01*
X125736291Y-130573288D01*
X125747243Y-130594784D01*
X125769806Y-130617347D01*
X125769809Y-130617351D01*
X125945500Y-130793042D01*
X125963706Y-130818101D01*
X125986981Y-130863780D01*
X125993315Y-130876212D01*
X126088623Y-130971520D01*
X126095560Y-130975055D01*
X126095582Y-130975066D01*
X126208717Y-131032711D01*
X126216411Y-131033930D01*
X126216412Y-131033930D01*
X126304865Y-131047939D01*
X126322233Y-131050690D01*
X126334147Y-131052577D01*
X126341843Y-131053796D01*
X126349539Y-131052577D01*
X126361454Y-131050690D01*
X126378821Y-131047939D01*
X126467274Y-131033930D01*
X126467275Y-131033930D01*
X126474969Y-131032711D01*
X126588104Y-130975066D01*
X126588126Y-130975055D01*
X126595063Y-130971520D01*
X126690371Y-130876212D01*
X126696706Y-130863780D01*
X126748026Y-130763058D01*
X126748026Y-130763057D01*
X126751562Y-130756118D01*
X126772647Y-130622992D01*
X126766341Y-130583177D01*
X126752781Y-130497561D01*
X126752781Y-130497560D01*
X126751562Y-130489866D01*
X126695405Y-130379652D01*
X126685834Y-130319220D01*
X126713611Y-130264704D01*
X126768128Y-130236926D01*
X126783615Y-130235707D01*
X126843709Y-130235707D01*
X126892566Y-130229275D01*
X126900366Y-130225638D01*
X126991947Y-130182933D01*
X126991950Y-130182931D01*
X126999797Y-130179272D01*
X127083458Y-130095611D01*
X127094899Y-130071075D01*
X127108058Y-130042857D01*
X127149787Y-129998109D01*
X127209848Y-129986435D01*
X127265301Y-130012294D01*
X127287503Y-130042853D01*
X127312105Y-130095611D01*
X127395766Y-130179272D01*
X127468511Y-130213194D01*
X127513258Y-130254921D01*
X127525670Y-130302917D01*
X127525670Y-130905062D01*
X127506763Y-130963253D01*
X127496674Y-130975066D01*
X126223736Y-132248004D01*
X126169219Y-132275781D01*
X126153732Y-132277000D01*
X124871252Y-132277000D01*
X124845005Y-132282221D01*
X124822334Y-132286730D01*
X124822332Y-132286731D01*
X124812769Y-132288633D01*
X124746448Y-132332948D01*
X124702133Y-132399269D01*
X124690500Y-132457752D01*
X124690500Y-133847248D01*
X124702133Y-133905731D01*
X124746448Y-133972052D01*
X124812769Y-134016367D01*
X124822332Y-134018269D01*
X124822334Y-134018270D01*
X124845005Y-134022779D01*
X124871252Y-134028000D01*
X126710748Y-134028000D01*
X126736995Y-134022779D01*
X126759666Y-134018270D01*
X126759668Y-134018269D01*
X126769231Y-134016367D01*
X126835552Y-133972052D01*
X126879867Y-133905731D01*
X126891500Y-133847248D01*
X126891500Y-132457752D01*
X126879867Y-132399269D01*
X126874740Y-132391597D01*
X126869966Y-132330926D01*
X126896226Y-132284034D01*
X127928957Y-131251303D01*
X127943960Y-131238991D01*
X127948661Y-131235850D01*
X127948662Y-131235849D01*
X127956771Y-131230431D01*
X128002307Y-131162281D01*
X128012136Y-131147571D01*
X128031578Y-131049830D01*
X128028572Y-131034718D01*
X128026670Y-131015404D01*
X128026670Y-130302917D01*
X128045577Y-130244726D01*
X128083829Y-130213194D01*
X128156574Y-130179272D01*
X128240235Y-130095611D01*
X128251676Y-130071075D01*
X128264835Y-130042857D01*
X128306564Y-129998109D01*
X128366625Y-129986435D01*
X128422078Y-130012294D01*
X128444280Y-130042853D01*
X128468882Y-130095611D01*
X128552543Y-130179272D01*
X128560390Y-130182931D01*
X128560393Y-130182933D01*
X128651974Y-130225638D01*
X128659774Y-130229275D01*
X128708631Y-130235707D01*
X129157263Y-130235707D01*
X129206120Y-130229275D01*
X129213920Y-130225638D01*
X129305501Y-130182933D01*
X129305504Y-130182931D01*
X129313351Y-130179272D01*
X129397012Y-130095611D01*
X129407618Y-130072867D01*
X129449344Y-130028120D01*
X129497341Y-130015707D01*
X129530678Y-130015707D01*
X129588869Y-130034614D01*
X129619545Y-130071075D01*
X129630352Y-130093087D01*
X129636143Y-130098868D01*
X129706554Y-130169157D01*
X129706557Y-130169159D01*
X129712345Y-130174937D01*
X129816430Y-130225815D01*
X129865953Y-130233040D01*
X129880693Y-130235190D01*
X129880695Y-130235190D01*
X129884238Y-130235707D01*
X130295210Y-130235707D01*
X130298793Y-130235179D01*
X130298800Y-130235179D01*
X130355995Y-130226759D01*
X130355997Y-130226758D01*
X130363608Y-130225638D01*
X130405002Y-130205315D01*
X130448908Y-130183758D01*
X130467604Y-130174579D01*
X130475105Y-130167065D01*
X130543674Y-130098377D01*
X130543676Y-130098374D01*
X130549454Y-130092586D01*
X130576920Y-130036397D01*
X130619462Y-129992421D01*
X130679727Y-129981849D01*
X130734696Y-130008718D01*
X130755586Y-130038032D01*
X130782436Y-130095611D01*
X130866097Y-130179272D01*
X130873944Y-130182931D01*
X130873947Y-130182933D01*
X130965528Y-130225638D01*
X130973328Y-130229275D01*
X131022185Y-130235707D01*
X131321733Y-130235707D01*
X131379924Y-130254614D01*
X131391737Y-130264703D01*
X131658321Y-130531287D01*
X131670633Y-130546290D01*
X131670999Y-130546837D01*
X131679193Y-130559101D01*
X131687302Y-130564519D01*
X131687304Y-130564521D01*
X131728176Y-130591830D01*
X131728178Y-130591831D01*
X131762053Y-130614466D01*
X131771616Y-130616368D01*
X131771618Y-130616369D01*
X131850232Y-130632006D01*
X131859794Y-130633908D01*
X131874906Y-130630902D01*
X131894220Y-130629000D01*
X135138732Y-130629000D01*
X135196923Y-130647907D01*
X135232887Y-130697407D01*
X135232887Y-130758593D01*
X135208736Y-130798004D01*
X135168213Y-130838527D01*
X135153210Y-130850839D01*
X135140399Y-130859399D01*
X135134981Y-130867508D01*
X135104945Y-130912461D01*
X135104942Y-130912463D01*
X135104943Y-130912464D01*
X135085034Y-130942259D01*
X135065592Y-131040000D01*
X135067494Y-131049562D01*
X135068598Y-131055112D01*
X135070500Y-131074426D01*
X135070500Y-132178000D01*
X135051593Y-132236191D01*
X135002093Y-132272155D01*
X134971500Y-132277000D01*
X134401252Y-132277000D01*
X134375005Y-132282221D01*
X134352334Y-132286730D01*
X134352332Y-132286731D01*
X134342769Y-132288633D01*
X134276448Y-132332948D01*
X134232133Y-132399269D01*
X134220500Y-132457752D01*
X134220500Y-133847248D01*
X134232133Y-133905731D01*
X134276448Y-133972052D01*
X134342769Y-134016367D01*
X134352332Y-134018269D01*
X134352334Y-134018270D01*
X134375005Y-134022779D01*
X134401252Y-134028000D01*
X136240748Y-134028000D01*
X136266995Y-134022779D01*
X136289666Y-134018270D01*
X136289668Y-134018269D01*
X136299231Y-134016367D01*
X136365552Y-133972052D01*
X136409867Y-133905731D01*
X136421500Y-133847248D01*
X136421500Y-132457752D01*
X136409867Y-132399269D01*
X136365552Y-132332948D01*
X136299231Y-132288633D01*
X136289668Y-132286731D01*
X136289666Y-132286730D01*
X136266995Y-132282221D01*
X136240748Y-132277000D01*
X135670500Y-132277000D01*
X135612309Y-132258093D01*
X135576345Y-132208593D01*
X135571500Y-132178000D01*
X135571500Y-131184768D01*
X135590407Y-131126577D01*
X135600496Y-131114764D01*
X136135287Y-130579973D01*
X136150290Y-130567661D01*
X136154991Y-130564520D01*
X136154992Y-130564519D01*
X136163101Y-130559101D01*
X136171296Y-130546837D01*
X136171663Y-130546287D01*
X136183976Y-130531284D01*
X136462765Y-130252496D01*
X136517281Y-130224719D01*
X136532768Y-130223500D01*
X136832316Y-130223500D01*
X136881173Y-130217068D01*
X136889483Y-130213193D01*
X136980554Y-130170726D01*
X136980556Y-130170725D01*
X136988404Y-130167065D01*
X137072065Y-130083404D01*
X137077815Y-130071075D01*
X137118865Y-129983042D01*
X137118865Y-129983041D01*
X137122068Y-129976173D01*
X137128500Y-129927316D01*
X137128500Y-129578684D01*
X137122068Y-129529827D01*
X137115948Y-129516703D01*
X137075726Y-129430446D01*
X137075725Y-129430444D01*
X137072065Y-129422596D01*
X136988404Y-129338935D01*
X136975081Y-129332723D01*
X136930336Y-129290995D01*
X136918662Y-129230933D01*
X136944521Y-129175481D01*
X136975080Y-129153278D01*
X136988404Y-129147065D01*
X137072065Y-129063404D01*
X137078184Y-129050283D01*
X137118865Y-128963042D01*
X137118865Y-128963041D01*
X137122068Y-128956173D01*
X137128500Y-128907316D01*
X137128500Y-128558684D01*
X137122068Y-128509827D01*
X137118865Y-128502958D01*
X137075726Y-128410446D01*
X137075725Y-128410444D01*
X137072065Y-128402596D01*
X136988404Y-128318935D01*
X136980553Y-128315274D01*
X136973462Y-128310309D01*
X136975226Y-128307790D01*
X136941203Y-128276062D01*
X136929530Y-128216000D01*
X136957788Y-128158064D01*
X136966995Y-128148857D01*
X136971562Y-128139895D01*
X137024650Y-128035703D01*
X137024650Y-128035702D01*
X137028186Y-128028763D01*
X137030651Y-128013204D01*
X137048052Y-127903333D01*
X137049271Y-127895637D01*
X137036839Y-127817142D01*
X137029405Y-127770206D01*
X137029405Y-127770205D01*
X137028186Y-127762511D01*
X137019020Y-127744521D01*
X136970531Y-127649356D01*
X136970530Y-127649354D01*
X136966995Y-127642417D01*
X136871687Y-127547109D01*
X136864750Y-127543574D01*
X136864748Y-127543573D01*
X136758533Y-127489454D01*
X136758532Y-127489454D01*
X136751593Y-127485918D01*
X136743899Y-127484699D01*
X136743898Y-127484699D01*
X136653843Y-127470436D01*
X136618467Y-127464833D01*
X136583091Y-127470436D01*
X136493036Y-127484699D01*
X136493035Y-127484699D01*
X136485341Y-127485918D01*
X136478402Y-127489454D01*
X136478401Y-127489454D01*
X136372186Y-127543573D01*
X136372184Y-127543574D01*
X136365247Y-127547109D01*
X136269939Y-127642417D01*
X136266404Y-127649354D01*
X136266403Y-127649356D01*
X136217914Y-127744521D01*
X136208748Y-127762511D01*
X136207529Y-127770205D01*
X136207529Y-127770206D01*
X136200095Y-127817142D01*
X136187663Y-127895637D01*
X136188882Y-127903333D01*
X136206284Y-128013204D01*
X136208748Y-128028763D01*
X136212284Y-128035702D01*
X136212284Y-128035703D01*
X136265373Y-128139895D01*
X136269939Y-128148857D01*
X136275445Y-128154363D01*
X136280028Y-128160671D01*
X136277971Y-128162166D01*
X136300266Y-128205924D01*
X136290695Y-128266356D01*
X136244323Y-128311135D01*
X136227596Y-128318935D01*
X136143935Y-128402596D01*
X136135458Y-128420775D01*
X136093731Y-128465521D01*
X136033670Y-128477196D01*
X135978217Y-128451338D01*
X135948554Y-128397824D01*
X135947954Y-128363447D01*
X135962482Y-128271720D01*
X135962482Y-128271719D01*
X135963701Y-128264023D01*
X135954994Y-128209051D01*
X135943835Y-128138592D01*
X135943834Y-128138590D01*
X135942616Y-128130897D01*
X135936681Y-128119249D01*
X135884961Y-128017742D01*
X135884960Y-128017740D01*
X135881425Y-128010803D01*
X135786117Y-127915495D01*
X135779180Y-127911960D01*
X135779178Y-127911959D01*
X135672963Y-127857840D01*
X135672962Y-127857840D01*
X135666023Y-127854304D01*
X135658329Y-127853085D01*
X135658328Y-127853085D01*
X135540593Y-127834438D01*
X135532897Y-127833219D01*
X135525201Y-127834438D01*
X135407466Y-127853085D01*
X135407465Y-127853085D01*
X135399771Y-127854304D01*
X135392832Y-127857840D01*
X135392831Y-127857840D01*
X135286616Y-127911959D01*
X135286614Y-127911960D01*
X135279677Y-127915495D01*
X135184369Y-128010803D01*
X135180834Y-128017740D01*
X135180833Y-128017742D01*
X135158147Y-128062267D01*
X135123178Y-128130897D01*
X135121753Y-128139895D01*
X135112182Y-128169352D01*
X135107574Y-128178396D01*
X135106355Y-128186094D01*
X135103801Y-128202219D01*
X135100176Y-128217320D01*
X135092720Y-128240267D01*
X135092720Y-128318023D01*
X135073813Y-128376214D01*
X135063724Y-128388027D01*
X135029155Y-128422596D01*
X135028283Y-128421724D01*
X134986442Y-128453253D01*
X134925266Y-128454321D01*
X134882506Y-128423593D01*
X134880982Y-128425120D01*
X134804780Y-128349050D01*
X134804777Y-128349048D01*
X134798989Y-128343270D01*
X134791638Y-128339677D01*
X134791637Y-128339676D01*
X134766688Y-128327481D01*
X134756776Y-128322636D01*
X134712799Y-128280096D01*
X134702226Y-128219831D01*
X134730247Y-128163689D01*
X134751193Y-128142743D01*
X134755732Y-128133836D01*
X134808848Y-128029589D01*
X134808848Y-128029588D01*
X134812384Y-128022649D01*
X134816703Y-127995383D01*
X134829355Y-127915495D01*
X134833469Y-127889523D01*
X134814509Y-127769815D01*
X134813603Y-127764092D01*
X134813603Y-127764091D01*
X134812384Y-127756397D01*
X134796729Y-127725672D01*
X134754729Y-127643242D01*
X134754728Y-127643240D01*
X134751193Y-127636303D01*
X134655885Y-127540995D01*
X134648948Y-127537460D01*
X134648946Y-127537459D01*
X134542731Y-127483340D01*
X134542730Y-127483340D01*
X134535791Y-127479804D01*
X134528097Y-127478585D01*
X134528096Y-127478585D01*
X134439643Y-127464576D01*
X134402665Y-127458719D01*
X134365687Y-127464576D01*
X134277234Y-127478585D01*
X134277233Y-127478585D01*
X134269539Y-127479804D01*
X134262600Y-127483340D01*
X134262599Y-127483340D01*
X134156384Y-127537459D01*
X134156382Y-127537460D01*
X134149445Y-127540995D01*
X134054137Y-127636303D01*
X134050602Y-127643240D01*
X134050601Y-127643242D01*
X134008601Y-127725672D01*
X133992946Y-127756397D01*
X133991727Y-127764091D01*
X133991727Y-127764092D01*
X133990821Y-127769815D01*
X133971861Y-127889523D01*
X133975975Y-127915495D01*
X133988628Y-127995383D01*
X133992946Y-128022649D01*
X133996482Y-128029588D01*
X133996482Y-128029589D01*
X134049599Y-128133836D01*
X134054137Y-128142743D01*
X134087573Y-128176179D01*
X134115350Y-128230696D01*
X134105779Y-128291128D01*
X134061203Y-128335048D01*
X134051079Y-128340019D01*
X134051075Y-128340022D01*
X134043730Y-128343628D01*
X133961880Y-128425621D01*
X133961491Y-128425233D01*
X133917212Y-128457997D01*
X133856028Y-128458531D01*
X133809618Y-128424874D01*
X133809372Y-128425120D01*
X133807818Y-128423568D01*
X133807815Y-128423566D01*
X133802067Y-128417828D01*
X133733170Y-128349050D01*
X133733167Y-128349048D01*
X133727379Y-128343270D01*
X133656024Y-128308391D01*
X133612048Y-128265850D01*
X133600500Y-128219448D01*
X133600500Y-128214756D01*
X133619407Y-128156565D01*
X133629496Y-128144752D01*
X133698528Y-128075720D01*
X133703679Y-128065612D01*
X133756183Y-127962566D01*
X133756183Y-127962565D01*
X133759719Y-127955626D01*
X133761541Y-127944126D01*
X133779585Y-127830196D01*
X133780804Y-127822500D01*
X133773328Y-127775300D01*
X133760938Y-127697069D01*
X133760938Y-127697068D01*
X133759719Y-127689374D01*
X133748837Y-127668017D01*
X133702064Y-127576219D01*
X133702063Y-127576217D01*
X133698528Y-127569280D01*
X133603220Y-127473972D01*
X133596283Y-127470437D01*
X133596281Y-127470436D01*
X133490066Y-127416317D01*
X133490065Y-127416317D01*
X133483126Y-127412781D01*
X133475432Y-127411562D01*
X133475431Y-127411562D01*
X133357696Y-127392915D01*
X133350000Y-127391696D01*
X133342304Y-127392915D01*
X133224569Y-127411562D01*
X133224568Y-127411562D01*
X133216874Y-127412781D01*
X133209935Y-127416317D01*
X133209934Y-127416317D01*
X133103719Y-127470436D01*
X133103717Y-127470437D01*
X133096780Y-127473972D01*
X133001472Y-127569280D01*
X132997937Y-127576217D01*
X132997936Y-127576219D01*
X132951163Y-127668017D01*
X132940281Y-127689374D01*
X132939062Y-127697068D01*
X132939062Y-127697069D01*
X132926672Y-127775300D01*
X132919196Y-127822500D01*
X132920415Y-127830196D01*
X132938460Y-127944126D01*
X132940281Y-127955626D01*
X132943817Y-127962565D01*
X132943817Y-127962566D01*
X132996322Y-128065612D01*
X133001472Y-128075720D01*
X133070504Y-128144752D01*
X133098281Y-128199269D01*
X133099500Y-128214756D01*
X133099500Y-128219406D01*
X133080593Y-128277597D01*
X133044132Y-128308272D01*
X132972120Y-128343628D01*
X132966339Y-128349419D01*
X132966338Y-128349420D01*
X132908728Y-128407130D01*
X132854236Y-128434955D01*
X132793795Y-128425436D01*
X132768660Y-128407191D01*
X132749496Y-128388027D01*
X132721719Y-128333510D01*
X132720500Y-128318023D01*
X132720500Y-128178853D01*
X132713043Y-128155900D01*
X132709420Y-128140807D01*
X132706865Y-128124673D01*
X132706864Y-128124670D01*
X132705646Y-128116980D01*
X132702111Y-128110043D01*
X132702110Y-128110039D01*
X132694695Y-128095488D01*
X132688748Y-128081130D01*
X132683706Y-128065612D01*
X132681297Y-128058197D01*
X132667114Y-128038676D01*
X132659002Y-128025437D01*
X132651586Y-128010881D01*
X132651584Y-128010879D01*
X132648050Y-128003942D01*
X132593212Y-127949104D01*
X132544213Y-127900104D01*
X132544186Y-127900073D01*
X132544175Y-127900050D01*
X132448867Y-127804742D01*
X132441930Y-127801207D01*
X132441928Y-127801206D01*
X132335713Y-127747087D01*
X132335712Y-127747087D01*
X132328773Y-127743551D01*
X132321079Y-127742332D01*
X132321078Y-127742332D01*
X132203343Y-127723685D01*
X132195647Y-127722466D01*
X132187951Y-127723685D01*
X132070216Y-127742332D01*
X132070215Y-127742332D01*
X132062521Y-127743551D01*
X132055582Y-127747087D01*
X132055581Y-127747087D01*
X131949366Y-127801206D01*
X131949364Y-127801207D01*
X131942427Y-127804742D01*
X131847119Y-127900050D01*
X131843584Y-127906987D01*
X131843583Y-127906989D01*
X131791087Y-128010018D01*
X131785928Y-128020144D01*
X131784709Y-128027838D01*
X131784709Y-128027839D01*
X131772202Y-128106804D01*
X131764843Y-128153270D01*
X131777532Y-128233382D01*
X131777577Y-128233669D01*
X131768006Y-128294101D01*
X131724741Y-128337366D01*
X131664309Y-128346937D01*
X131628052Y-128332289D01*
X131626905Y-128331142D01*
X131533420Y-128287549D01*
X131526543Y-128284342D01*
X131526542Y-128284342D01*
X131519674Y-128281139D01*
X131511752Y-128280096D01*
X131474030Y-128275130D01*
X131470817Y-128274707D01*
X131022185Y-128274707D01*
X131018972Y-128275130D01*
X130981251Y-128280096D01*
X130973328Y-128281139D01*
X130966460Y-128284342D01*
X130966459Y-128284342D01*
X130873947Y-128327481D01*
X130873945Y-128327482D01*
X130866097Y-128331142D01*
X130782436Y-128414803D01*
X130778776Y-128422651D01*
X130778775Y-128422653D01*
X130760172Y-128462547D01*
X130718443Y-128507295D01*
X130670448Y-128519707D01*
X130661044Y-128519707D01*
X130602853Y-128500800D01*
X130572177Y-128464338D01*
X130565795Y-128451338D01*
X130549096Y-128417327D01*
X130519745Y-128388027D01*
X130472894Y-128341257D01*
X130472891Y-128341255D01*
X130467103Y-128335477D01*
X130459481Y-128331751D01*
X130445449Y-128324892D01*
X130420347Y-128312622D01*
X130376372Y-128270082D01*
X130365799Y-128209817D01*
X130393820Y-128153676D01*
X130409100Y-128138396D01*
X130415223Y-128126380D01*
X130466755Y-128025242D01*
X130466755Y-128025241D01*
X130470291Y-128018302D01*
X130472566Y-128003942D01*
X130488701Y-127902066D01*
X130491376Y-127885176D01*
X130478007Y-127800766D01*
X130471510Y-127759745D01*
X130471510Y-127759744D01*
X130470291Y-127752050D01*
X130465961Y-127743551D01*
X130412636Y-127638895D01*
X130412635Y-127638893D01*
X130409100Y-127631956D01*
X130313792Y-127536648D01*
X130306855Y-127533113D01*
X130306853Y-127533112D01*
X130200638Y-127478993D01*
X130200637Y-127478993D01*
X130193698Y-127475457D01*
X130186004Y-127474238D01*
X130186003Y-127474238D01*
X130092185Y-127459379D01*
X130060572Y-127454372D01*
X130028959Y-127459379D01*
X129935141Y-127474238D01*
X129935140Y-127474238D01*
X129927446Y-127475457D01*
X129920507Y-127478993D01*
X129920506Y-127478993D01*
X129814291Y-127533112D01*
X129814289Y-127533113D01*
X129807352Y-127536648D01*
X129712044Y-127631956D01*
X129708509Y-127638893D01*
X129708508Y-127638895D01*
X129655183Y-127743551D01*
X129650853Y-127752050D01*
X129649634Y-127759744D01*
X129649634Y-127759745D01*
X129643137Y-127800766D01*
X129629768Y-127885176D01*
X129632443Y-127902066D01*
X129648579Y-128003942D01*
X129650853Y-128018302D01*
X129654389Y-128025241D01*
X129654389Y-128025242D01*
X129705922Y-128126380D01*
X129712044Y-128138396D01*
X129746530Y-128172882D01*
X129774307Y-128227399D01*
X129764736Y-128287831D01*
X129725292Y-128326696D01*
X129725843Y-128327465D01*
X129720974Y-128330951D01*
X129720162Y-128331751D01*
X129711844Y-128335835D01*
X129706063Y-128341626D01*
X129635774Y-128412037D01*
X129635772Y-128412040D01*
X129629994Y-128417828D01*
X129626275Y-128425436D01*
X129602528Y-128474017D01*
X129559986Y-128517993D01*
X129499721Y-128528565D01*
X129444752Y-128501696D01*
X129423861Y-128472381D01*
X129397012Y-128414803D01*
X129362443Y-128380234D01*
X129334666Y-128325717D01*
X129333447Y-128310230D01*
X129333447Y-128246796D01*
X129338292Y-128216205D01*
X129338922Y-128214265D01*
X129342458Y-128207326D01*
X129344082Y-128197077D01*
X129354915Y-128128678D01*
X129363543Y-128074200D01*
X129353378Y-128010018D01*
X129343677Y-127948769D01*
X129343677Y-127948768D01*
X129342458Y-127941074D01*
X129323228Y-127903333D01*
X129284803Y-127827919D01*
X129284802Y-127827917D01*
X129281267Y-127820980D01*
X129185959Y-127725672D01*
X129179022Y-127722137D01*
X129179020Y-127722136D01*
X129072805Y-127668017D01*
X129072804Y-127668017D01*
X129065865Y-127664481D01*
X129058171Y-127663262D01*
X129058170Y-127663262D01*
X128940435Y-127644615D01*
X128932739Y-127643396D01*
X128925043Y-127644615D01*
X128807308Y-127663262D01*
X128807307Y-127663262D01*
X128799613Y-127664481D01*
X128792674Y-127668017D01*
X128792673Y-127668017D01*
X128686458Y-127722136D01*
X128686456Y-127722137D01*
X128679519Y-127725672D01*
X128584211Y-127820980D01*
X128580676Y-127827917D01*
X128580675Y-127827919D01*
X128542250Y-127903333D01*
X128523020Y-127941074D01*
X128521801Y-127948768D01*
X128521801Y-127948769D01*
X128512100Y-128010018D01*
X128501935Y-128074200D01*
X128523020Y-128207326D01*
X128526558Y-128214270D01*
X128527602Y-128217483D01*
X128532447Y-128248075D01*
X128532447Y-128310230D01*
X128513540Y-128368421D01*
X128503451Y-128380234D01*
X128468882Y-128414803D01*
X128444281Y-128467559D01*
X128402555Y-128512304D01*
X128342494Y-128523979D01*
X128287041Y-128498121D01*
X128264835Y-128467557D01*
X128249118Y-128433852D01*
X128240235Y-128414803D01*
X128156574Y-128331142D01*
X128083829Y-128297220D01*
X128039082Y-128255493D01*
X128026670Y-128207497D01*
X128026670Y-128140086D01*
X128045577Y-128081895D01*
X128055666Y-128070082D01*
X128110528Y-128015220D01*
X128116275Y-128003942D01*
X128168183Y-127902066D01*
X128168183Y-127902065D01*
X128171719Y-127895126D01*
X128173278Y-127885287D01*
X128191585Y-127769696D01*
X128192804Y-127762000D01*
X128190229Y-127745745D01*
X128199799Y-127685315D01*
X128218006Y-127660254D01*
X129106764Y-126771496D01*
X129161281Y-126743719D01*
X129176768Y-126742500D01*
X140063232Y-126742500D01*
X140121423Y-126761407D01*
X140133236Y-126771496D01*
X142823926Y-129462186D01*
X142851703Y-129516703D01*
X142846159Y-129568153D01*
X142826524Y-129618513D01*
X142825745Y-129624430D01*
X142825744Y-129624434D01*
X142824470Y-129634114D01*
X142804394Y-129786611D01*
X142805049Y-129792544D01*
X142805049Y-129792548D01*
X142820322Y-129930887D01*
X142822999Y-129955135D01*
X142881266Y-130114356D01*
X142884591Y-130119305D01*
X142884592Y-130119306D01*
X142919145Y-130170726D01*
X142975830Y-130255083D01*
X143087374Y-130356580D01*
X143117687Y-130409725D01*
X143110973Y-130470541D01*
X143085824Y-130504404D01*
X142985604Y-130591831D01*
X142982173Y-130596713D01*
X142982172Y-130596714D01*
X142956032Y-130633908D01*
X142888113Y-130730547D01*
X142878143Y-130756118D01*
X142834714Y-130867508D01*
X142826524Y-130888513D01*
X142804394Y-131056611D01*
X142805049Y-131062544D01*
X142805049Y-131062548D01*
X142810814Y-131114764D01*
X142822999Y-131225135D01*
X142881266Y-131384356D01*
X142884591Y-131389305D01*
X142884592Y-131389306D01*
X142897689Y-131408796D01*
X142975830Y-131525083D01*
X143087374Y-131626580D01*
X143117687Y-131679725D01*
X143110973Y-131740541D01*
X143085824Y-131774404D01*
X142985604Y-131861831D01*
X142982173Y-131866713D01*
X142982172Y-131866714D01*
X142891544Y-131995665D01*
X142888113Y-132000547D01*
X142870246Y-132046374D01*
X142851080Y-132095532D01*
X142826524Y-132158513D01*
X142825745Y-132164428D01*
X142825745Y-132164429D01*
X142823761Y-132179500D01*
X142804394Y-132326611D01*
X142805049Y-132332544D01*
X142805049Y-132332548D01*
X142805989Y-132341058D01*
X142822999Y-132495135D01*
X142881266Y-132654356D01*
X142884591Y-132659305D01*
X142884592Y-132659306D01*
X142897689Y-132678796D01*
X142975830Y-132795083D01*
X143101233Y-132909191D01*
X143250235Y-132990092D01*
X143285189Y-132999262D01*
X143408464Y-133031603D01*
X143408468Y-133031604D01*
X143414233Y-133033116D01*
X143420194Y-133033210D01*
X143420197Y-133033210D01*
X143498996Y-133034447D01*
X143583760Y-133035779D01*
X143589575Y-133034447D01*
X143589577Y-133034447D01*
X143743206Y-132999262D01*
X143743209Y-132999261D01*
X143749029Y-132997928D01*
X143764610Y-132990092D01*
X143895165Y-132924429D01*
X143900498Y-132921747D01*
X143905035Y-132917872D01*
X143905038Y-132917870D01*
X144024888Y-132815508D01*
X144024891Y-132815505D01*
X144029423Y-132811634D01*
X144044875Y-132790130D01*
X144124877Y-132678796D01*
X144124878Y-132678794D01*
X144128361Y-132673947D01*
X144137047Y-132652342D01*
X144189377Y-132522167D01*
X144189378Y-132522165D01*
X144191601Y-132516634D01*
X144206944Y-132408829D01*
X144215034Y-132351985D01*
X144215034Y-132351979D01*
X144215490Y-132348778D01*
X144215645Y-132334000D01*
X144197880Y-132187196D01*
X144195993Y-132171602D01*
X144195992Y-132171599D01*
X144195276Y-132165680D01*
X144135345Y-132007077D01*
X144084584Y-131933219D01*
X144042692Y-131872267D01*
X144039312Y-131867349D01*
X143932554Y-131772230D01*
X143901684Y-131719404D01*
X143907761Y-131658521D01*
X143934117Y-131623034D01*
X144024884Y-131545512D01*
X144024890Y-131545506D01*
X144029423Y-131541634D01*
X144032904Y-131536790D01*
X144124877Y-131408796D01*
X144124878Y-131408794D01*
X144128361Y-131403947D01*
X144169162Y-131302454D01*
X144189377Y-131252167D01*
X144189378Y-131252165D01*
X144191601Y-131246634D01*
X144194661Y-131225135D01*
X144215034Y-131081985D01*
X144215034Y-131081979D01*
X144215490Y-131078778D01*
X144215645Y-131064000D01*
X144197307Y-130912461D01*
X144195993Y-130901602D01*
X144195992Y-130901599D01*
X144195276Y-130895680D01*
X144135345Y-130737077D01*
X144108081Y-130697407D01*
X144042692Y-130602267D01*
X144039312Y-130597349D01*
X143932554Y-130502230D01*
X143901684Y-130449404D01*
X143907761Y-130388521D01*
X143934117Y-130353034D01*
X144024884Y-130275512D01*
X144024890Y-130275506D01*
X144029423Y-130271634D01*
X144034403Y-130264704D01*
X144124877Y-130138796D01*
X144124878Y-130138794D01*
X144128361Y-130133947D01*
X144136800Y-130112956D01*
X144189377Y-129982167D01*
X144189378Y-129982165D01*
X144191601Y-129976634D01*
X144194661Y-129955135D01*
X144215034Y-129811985D01*
X144215034Y-129811979D01*
X144215490Y-129808778D01*
X144215645Y-129794000D01*
X144195276Y-129625680D01*
X144135345Y-129467077D01*
X144127538Y-129455717D01*
X144042692Y-129332267D01*
X144039312Y-129327349D01*
X143932554Y-129232230D01*
X143901684Y-129179404D01*
X143907761Y-129118521D01*
X143934117Y-129083034D01*
X144024884Y-129005512D01*
X144024890Y-129005506D01*
X144029423Y-129001634D01*
X144033682Y-128995707D01*
X144124877Y-128868796D01*
X144124878Y-128868794D01*
X144128361Y-128863947D01*
X144169162Y-128762454D01*
X144189377Y-128712167D01*
X144189378Y-128712165D01*
X144191601Y-128706634D01*
X144208240Y-128589721D01*
X144215034Y-128541985D01*
X144215034Y-128541979D01*
X144215490Y-128538778D01*
X144215645Y-128524000D01*
X144202037Y-128411546D01*
X144195993Y-128361602D01*
X144195992Y-128361599D01*
X144195276Y-128355680D01*
X144135345Y-128197077D01*
X144118395Y-128172414D01*
X144042692Y-128062267D01*
X144039312Y-128057349D01*
X144009623Y-128030897D01*
X143978753Y-127978070D01*
X143984830Y-127917187D01*
X144007208Y-127885287D01*
X144122705Y-127775300D01*
X144129778Y-127766871D01*
X144222972Y-127626602D01*
X144227999Y-127616821D01*
X144287806Y-127459379D01*
X144290539Y-127448733D01*
X144294644Y-127419528D01*
X144292328Y-127406392D01*
X144291202Y-127405305D01*
X144285548Y-127404000D01*
X142736507Y-127404000D01*
X142723822Y-127408122D01*
X142722248Y-127410288D01*
X142721825Y-127414181D01*
X142721991Y-127415873D01*
X142724278Y-127426635D01*
X142777436Y-127586433D01*
X142782050Y-127596420D01*
X142869291Y-127740472D01*
X142876002Y-127749186D01*
X142992990Y-127870330D01*
X143005731Y-127880871D01*
X143004026Y-127882932D01*
X143035714Y-127922389D01*
X143038669Y-127983503D01*
X143008227Y-128032096D01*
X142985604Y-128051831D01*
X142982173Y-128056713D01*
X142982172Y-128056714D01*
X142900857Y-128172414D01*
X142888113Y-128190547D01*
X142869592Y-128238051D01*
X142829835Y-128340022D01*
X142826524Y-128348513D01*
X142805362Y-128509262D01*
X142805292Y-128509793D01*
X142778951Y-128565018D01*
X142725181Y-128594213D01*
X142664519Y-128586227D01*
X142637135Y-128566875D01*
X141158704Y-127088444D01*
X142724511Y-127088444D01*
X142727010Y-127101545D01*
X142728421Y-127102870D01*
X142733476Y-127104000D01*
X144282557Y-127104000D01*
X144295242Y-127099878D01*
X144296598Y-127098012D01*
X144297058Y-127093487D01*
X144295673Y-127081145D01*
X144293234Y-127070408D01*
X144237851Y-126911371D01*
X144233099Y-126901452D01*
X144140922Y-126753938D01*
X144142238Y-126753116D01*
X144123342Y-126702321D01*
X144139790Y-126643388D01*
X144148770Y-126632416D01*
X144154552Y-126628552D01*
X144198867Y-126562231D01*
X144202695Y-126542989D01*
X144209552Y-126508512D01*
X144210500Y-126503748D01*
X144210500Y-125464252D01*
X144198867Y-125405769D01*
X144154552Y-125339448D01*
X144088231Y-125295133D01*
X144078668Y-125293231D01*
X144078666Y-125293230D01*
X144055995Y-125288721D01*
X144029748Y-125283500D01*
X142990252Y-125283500D01*
X142964005Y-125288721D01*
X142941334Y-125293230D01*
X142941332Y-125293231D01*
X142931769Y-125295133D01*
X142865448Y-125339448D01*
X142821133Y-125405769D01*
X142809500Y-125464252D01*
X142809500Y-126503748D01*
X142810448Y-126508512D01*
X142817306Y-126542989D01*
X142821133Y-126562231D01*
X142865448Y-126628552D01*
X142869643Y-126631355D01*
X142896071Y-126683224D01*
X142886500Y-126743656D01*
X142881506Y-126752341D01*
X142791890Y-126891396D01*
X142787005Y-126901237D01*
X142729403Y-127059497D01*
X142726817Y-127070189D01*
X142724511Y-127088444D01*
X141158704Y-127088444D01*
X140409473Y-126339213D01*
X140397161Y-126324210D01*
X140394018Y-126319506D01*
X140394017Y-126319505D01*
X140388601Y-126311399D01*
X140335539Y-126275945D01*
X140335537Y-126275942D01*
X140335536Y-126275943D01*
X140305741Y-126256034D01*
X140208000Y-126236592D01*
X140198438Y-126238494D01*
X140192888Y-126239598D01*
X140173574Y-126241500D01*
X130324454Y-126241500D01*
X130266263Y-126222593D01*
X130230299Y-126173093D01*
X130230299Y-126111907D01*
X130254450Y-126072496D01*
X131646699Y-124680247D01*
X136610001Y-124680247D01*
X136610220Y-124684890D01*
X136612345Y-124707374D01*
X136614910Y-124719070D01*
X136654300Y-124831234D01*
X136661147Y-124844167D01*
X136730959Y-124938684D01*
X136741316Y-124949041D01*
X136835833Y-125018853D01*
X136848766Y-125025700D01*
X136960927Y-125065088D01*
X136972629Y-125067656D01*
X136995114Y-125069782D01*
X136999750Y-125070000D01*
X137024320Y-125070000D01*
X137037005Y-125065878D01*
X137040000Y-125061757D01*
X137040000Y-124625680D01*
X137035878Y-124612995D01*
X137031757Y-124610000D01*
X136625681Y-124610000D01*
X136612996Y-124614122D01*
X136610001Y-124618243D01*
X136610001Y-124680247D01*
X131646699Y-124680247D01*
X133544787Y-122782159D01*
X133559790Y-122769847D01*
X133564494Y-122766704D01*
X133564495Y-122766703D01*
X133572601Y-122761287D01*
X133608055Y-122708225D01*
X133608058Y-122708223D01*
X133608057Y-122708222D01*
X133614047Y-122699257D01*
X133627966Y-122678427D01*
X133647408Y-122580686D01*
X133644402Y-122565574D01*
X133642500Y-122546260D01*
X133642500Y-122414556D01*
X133659184Y-122359555D01*
X133702240Y-122295117D01*
X133717500Y-122218401D01*
X133717500Y-122182419D01*
X133736407Y-122124228D01*
X133785907Y-122088264D01*
X133847093Y-122088264D01*
X133886504Y-122112415D01*
X133902957Y-122128868D01*
X133909894Y-122132403D01*
X133909896Y-122132404D01*
X134016111Y-122186523D01*
X134023051Y-122190059D01*
X134030745Y-122191278D01*
X134030746Y-122191278D01*
X134148481Y-122209925D01*
X134156177Y-122211144D01*
X134163873Y-122209925D01*
X134281608Y-122191278D01*
X134281609Y-122191278D01*
X134289303Y-122190059D01*
X134347129Y-122160595D01*
X134407561Y-122151024D01*
X134462078Y-122178801D01*
X134487580Y-122204303D01*
X134494517Y-122207838D01*
X134494519Y-122207839D01*
X134574810Y-122248749D01*
X134607674Y-122265494D01*
X134615368Y-122266713D01*
X134615369Y-122266713D01*
X134733104Y-122285360D01*
X134740800Y-122286579D01*
X134748496Y-122285360D01*
X134866231Y-122266713D01*
X134866232Y-122266713D01*
X134873926Y-122265494D01*
X134906790Y-122248749D01*
X134987081Y-122207839D01*
X134987083Y-122207838D01*
X134994020Y-122204303D01*
X135089328Y-122108995D01*
X135092976Y-122101837D01*
X135146983Y-121995841D01*
X135146983Y-121995840D01*
X135150519Y-121988901D01*
X135154177Y-121965809D01*
X135169146Y-121871297D01*
X135171604Y-121855775D01*
X135150519Y-121722649D01*
X135134227Y-121690674D01*
X135092864Y-121609494D01*
X135092863Y-121609492D01*
X135089328Y-121602555D01*
X135020296Y-121533523D01*
X134992519Y-121479006D01*
X134991300Y-121463519D01*
X134991300Y-121088390D01*
X134993203Y-121069075D01*
X134994307Y-121063527D01*
X134994307Y-121063521D01*
X134996209Y-121053959D01*
X134976766Y-120956219D01*
X134971349Y-120948112D01*
X134970629Y-120946373D01*
X134965829Y-120885376D01*
X134997798Y-120833207D01*
X135054326Y-120809793D01*
X135113821Y-120824077D01*
X135132097Y-120838484D01*
X136087346Y-121793733D01*
X136115123Y-121848250D01*
X136105552Y-121908682D01*
X136087406Y-121933680D01*
X136050785Y-121970365D01*
X136040635Y-121985188D01*
X136002152Y-122072237D01*
X135998279Y-122086442D01*
X135996484Y-122101837D01*
X135996152Y-122107549D01*
X135996152Y-122683577D01*
X136000274Y-122696262D01*
X136004395Y-122699257D01*
X136922152Y-122699257D01*
X136980343Y-122718164D01*
X137016307Y-122767664D01*
X137021152Y-122798257D01*
X137021152Y-122900257D01*
X137002245Y-122958448D01*
X136952745Y-122994412D01*
X136922152Y-122999257D01*
X136011832Y-122999257D01*
X135999147Y-123003379D01*
X135996152Y-123007500D01*
X135996152Y-123590896D01*
X135996498Y-123596742D01*
X135998386Y-123612610D01*
X136002280Y-123626776D01*
X136040922Y-123713771D01*
X136051098Y-123728578D01*
X136117260Y-123794624D01*
X136132083Y-123804774D01*
X136219132Y-123843257D01*
X136233337Y-123847130D01*
X136248732Y-123848925D01*
X136254444Y-123849257D01*
X136632300Y-123849257D01*
X136690491Y-123868164D01*
X136726455Y-123917664D01*
X136726455Y-123978850D01*
X136711933Y-124007075D01*
X136661147Y-124075833D01*
X136654300Y-124088766D01*
X136614912Y-124200927D01*
X136612344Y-124212629D01*
X136610218Y-124235114D01*
X136610000Y-124239750D01*
X136610000Y-124294320D01*
X136614122Y-124307005D01*
X136618243Y-124310000D01*
X137241000Y-124310000D01*
X137299191Y-124328907D01*
X137335155Y-124378407D01*
X137340000Y-124409000D01*
X137340000Y-125054319D01*
X137344122Y-125067004D01*
X137348243Y-125069999D01*
X137380247Y-125069999D01*
X137384890Y-125069780D01*
X137407374Y-125067655D01*
X137419070Y-125065090D01*
X137531234Y-125025700D01*
X137544167Y-125018853D01*
X137638684Y-124949041D01*
X137649039Y-124938686D01*
X137660629Y-124922994D01*
X137710409Y-124887419D01*
X137771593Y-124887899D01*
X137797299Y-124903790D01*
X137798461Y-124902130D01*
X137805561Y-124907101D01*
X137811684Y-124913224D01*
X137819532Y-124916884D01*
X137819534Y-124916885D01*
X137893567Y-124951407D01*
X137920513Y-124963972D01*
X137970099Y-124970500D01*
X138149972Y-124970500D01*
X138329900Y-124970499D01*
X138333110Y-124970076D01*
X138333117Y-124970076D01*
X138371975Y-124964961D01*
X138371976Y-124964961D01*
X138379487Y-124963972D01*
X138454594Y-124928949D01*
X138480466Y-124916885D01*
X138480468Y-124916884D01*
X138488316Y-124913224D01*
X138573224Y-124828316D01*
X138623972Y-124719487D01*
X138630500Y-124669901D01*
X138630499Y-124379020D01*
X138649328Y-124321069D01*
X138651753Y-124319449D01*
X138687852Y-124265423D01*
X138707118Y-124236588D01*
X138726561Y-124138848D01*
X138724659Y-124129286D01*
X138724659Y-124129280D01*
X138723555Y-124123732D01*
X138721652Y-124104417D01*
X138721652Y-123848757D01*
X138740559Y-123790566D01*
X138790059Y-123754602D01*
X138820652Y-123749757D01*
X139065900Y-123749757D01*
X139092147Y-123744536D01*
X139114818Y-123740027D01*
X139114820Y-123740026D01*
X139124383Y-123738124D01*
X139190704Y-123693809D01*
X139235019Y-123627488D01*
X139237979Y-123612610D01*
X139242590Y-123589428D01*
X139246652Y-123569005D01*
X139246652Y-122129509D01*
X139238448Y-122088264D01*
X139236922Y-122080591D01*
X139236921Y-122080589D01*
X139235019Y-122071026D01*
X139190704Y-122004705D01*
X139124383Y-121960390D01*
X139114820Y-121958488D01*
X139114818Y-121958487D01*
X139092147Y-121953978D01*
X139065900Y-121948757D01*
X138156973Y-121948757D01*
X138098782Y-121929850D01*
X138086969Y-121919761D01*
X137985469Y-121818261D01*
X137957692Y-121763744D01*
X137967263Y-121703312D01*
X138010528Y-121660047D01*
X138055473Y-121649257D01*
X138305472Y-121649257D01*
X138318157Y-121645135D01*
X138321152Y-121641014D01*
X138321152Y-121633577D01*
X138621152Y-121633577D01*
X138625274Y-121646262D01*
X138629395Y-121649257D01*
X139087791Y-121649257D01*
X139093637Y-121648911D01*
X139109505Y-121647023D01*
X139123671Y-121643129D01*
X139210666Y-121604487D01*
X139225473Y-121594311D01*
X139291519Y-121528149D01*
X139301669Y-121513326D01*
X139340152Y-121426277D01*
X139344025Y-121412072D01*
X139345820Y-121396677D01*
X139346152Y-121390965D01*
X139346152Y-120814937D01*
X139342030Y-120802252D01*
X139337909Y-120799257D01*
X138636832Y-120799257D01*
X138624147Y-120803379D01*
X138621152Y-120807500D01*
X138621152Y-121633577D01*
X138321152Y-121633577D01*
X138321152Y-120483577D01*
X138621152Y-120483577D01*
X138625274Y-120496262D01*
X138629395Y-120499257D01*
X139330472Y-120499257D01*
X139343157Y-120495135D01*
X139346152Y-120491014D01*
X139346152Y-119907618D01*
X139345806Y-119901772D01*
X139343918Y-119885904D01*
X139340024Y-119871738D01*
X139301382Y-119784743D01*
X139291206Y-119769936D01*
X139225044Y-119703890D01*
X139210221Y-119693740D01*
X139123172Y-119655257D01*
X139108967Y-119651384D01*
X139093572Y-119649589D01*
X139087860Y-119649257D01*
X138636832Y-119649257D01*
X138624147Y-119653379D01*
X138621152Y-119657500D01*
X138621152Y-120483577D01*
X138321152Y-120483577D01*
X138321152Y-119664937D01*
X138315825Y-119648543D01*
X138315824Y-119587357D01*
X138339975Y-119547945D01*
X138353399Y-119534521D01*
X138423211Y-119440004D01*
X138430058Y-119427071D01*
X138469446Y-119314910D01*
X138472014Y-119303208D01*
X138474140Y-119280723D01*
X138474358Y-119276087D01*
X138474358Y-119221517D01*
X138470236Y-119208832D01*
X138466115Y-119205837D01*
X137843358Y-119205837D01*
X137785167Y-119186930D01*
X137749203Y-119137430D01*
X137744358Y-119106837D01*
X137744358Y-118665680D01*
X137736845Y-118642557D01*
X137732000Y-118611965D01*
X137732000Y-118390157D01*
X138032000Y-118390157D01*
X138039513Y-118413280D01*
X138044358Y-118443872D01*
X138044358Y-118890157D01*
X138048480Y-118902842D01*
X138052601Y-118905837D01*
X138458677Y-118905837D01*
X138471362Y-118901715D01*
X138474357Y-118897594D01*
X138474357Y-118835590D01*
X138474138Y-118830947D01*
X138472013Y-118808463D01*
X138469448Y-118796767D01*
X138430058Y-118684603D01*
X138423213Y-118671674D01*
X138354298Y-118578372D01*
X138334934Y-118520331D01*
X138354298Y-118460735D01*
X138410853Y-118384167D01*
X138417700Y-118371234D01*
X138457088Y-118259073D01*
X138459656Y-118247371D01*
X138461782Y-118224886D01*
X138462000Y-118220250D01*
X138462000Y-118165680D01*
X138457878Y-118152995D01*
X138453757Y-118150000D01*
X138047680Y-118150000D01*
X138034995Y-118154122D01*
X138032000Y-118158243D01*
X138032000Y-118390157D01*
X137732000Y-118390157D01*
X137732000Y-117433079D01*
X137750907Y-117374888D01*
X137765778Y-117364084D01*
X137782000Y-117341757D01*
X137782000Y-116826914D01*
X137800907Y-116768723D01*
X137850407Y-116732759D01*
X137881000Y-116727914D01*
X137983000Y-116727914D01*
X138041191Y-116746821D01*
X138077155Y-116796321D01*
X138082000Y-116826914D01*
X138082000Y-117571921D01*
X138063093Y-117630112D01*
X138048222Y-117640916D01*
X138032000Y-117663243D01*
X138032000Y-117834320D01*
X138036122Y-117847005D01*
X138040243Y-117850000D01*
X138446319Y-117850000D01*
X138459004Y-117845878D01*
X138461999Y-117841757D01*
X138461999Y-117779753D01*
X138461780Y-117775110D01*
X138459655Y-117752626D01*
X138457090Y-117740930D01*
X138417700Y-117628766D01*
X138410855Y-117615837D01*
X138391825Y-117590073D01*
X138372461Y-117532032D01*
X138391824Y-117472437D01*
X138424671Y-117427965D01*
X138474452Y-117392390D01*
X138535635Y-117392870D01*
X138574309Y-117416778D01*
X138591596Y-117434065D01*
X138614340Y-117444671D01*
X138659087Y-117486397D01*
X138671500Y-117534394D01*
X138671500Y-118059574D01*
X138669598Y-118078888D01*
X138666592Y-118094000D01*
X138686034Y-118191741D01*
X138691451Y-118199848D01*
X138701396Y-118214732D01*
X138731024Y-118259073D01*
X138741399Y-118274601D01*
X138749508Y-118280019D01*
X138749509Y-118280020D01*
X138754210Y-118283161D01*
X138769213Y-118295473D01*
X138989994Y-118516254D01*
X139017771Y-118570771D01*
X139017771Y-118601743D01*
X139015196Y-118618000D01*
X139036281Y-118751126D01*
X139039817Y-118758065D01*
X139039817Y-118758066D01*
X139088203Y-118853028D01*
X139097472Y-118871220D01*
X139192780Y-118966528D01*
X139199717Y-118970063D01*
X139199719Y-118970064D01*
X139305934Y-119024183D01*
X139312874Y-119027719D01*
X139320568Y-119028938D01*
X139320569Y-119028938D01*
X139438304Y-119047585D01*
X139446000Y-119048804D01*
X139453696Y-119047585D01*
X139571431Y-119028938D01*
X139571432Y-119028938D01*
X139579126Y-119027719D01*
X139586066Y-119024183D01*
X139692281Y-118970064D01*
X139692283Y-118970063D01*
X139699220Y-118966528D01*
X139794528Y-118871220D01*
X139803798Y-118853028D01*
X139852183Y-118758066D01*
X139852183Y-118758065D01*
X139855719Y-118751126D01*
X139876804Y-118618000D01*
X139865295Y-118545337D01*
X139856938Y-118492569D01*
X139856938Y-118492568D01*
X139855719Y-118484874D01*
X139835578Y-118445345D01*
X139826007Y-118384913D01*
X139853784Y-118330396D01*
X139908301Y-118302619D01*
X139943151Y-118305362D01*
X139943374Y-118303951D01*
X140076500Y-118325036D01*
X140084196Y-118323817D01*
X140201931Y-118305170D01*
X140201932Y-118305170D01*
X140209626Y-118303951D01*
X140226964Y-118295117D01*
X140322781Y-118246296D01*
X140322783Y-118246295D01*
X140329720Y-118242760D01*
X140425028Y-118147452D01*
X140428868Y-118139917D01*
X140482683Y-118034298D01*
X140482683Y-118034297D01*
X140486219Y-118027358D01*
X140487506Y-118019236D01*
X140506085Y-117901928D01*
X140507304Y-117894232D01*
X140497404Y-117831724D01*
X140487438Y-117768801D01*
X140487438Y-117768800D01*
X140486219Y-117761106D01*
X140482683Y-117754166D01*
X140482681Y-117754160D01*
X140462802Y-117715146D01*
X140452011Y-117670201D01*
X140452011Y-117541797D01*
X140444554Y-117518844D01*
X140440931Y-117503751D01*
X140438377Y-117487622D01*
X140438376Y-117487618D01*
X140437157Y-117479924D01*
X140426207Y-117458434D01*
X140420263Y-117444085D01*
X140416687Y-117433079D01*
X140412808Y-117421140D01*
X140398628Y-117401623D01*
X140390508Y-117388372D01*
X140385199Y-117377951D01*
X140375631Y-117317518D01*
X140383686Y-117291172D01*
X140398698Y-117258978D01*
X140406068Y-117243173D01*
X140412500Y-117194316D01*
X140412500Y-116745684D01*
X140406068Y-116696827D01*
X140401790Y-116687653D01*
X140359726Y-116597446D01*
X140359724Y-116597443D01*
X140356065Y-116589596D01*
X140354898Y-116588429D01*
X140338162Y-116533683D01*
X140358084Y-116475831D01*
X140378329Y-116455780D01*
X140380692Y-116454034D01*
X140391037Y-116443689D01*
X140460853Y-116349167D01*
X140467700Y-116336234D01*
X140507088Y-116224073D01*
X140509656Y-116212371D01*
X140511782Y-116189886D01*
X140512000Y-116185250D01*
X140512000Y-116130680D01*
X140507878Y-116117995D01*
X140503757Y-116115000D01*
X139881000Y-116115000D01*
X139822809Y-116096093D01*
X139786845Y-116046593D01*
X139782000Y-116016000D01*
X139782000Y-115799320D01*
X140082000Y-115799320D01*
X140086122Y-115812005D01*
X140090243Y-115815000D01*
X140496319Y-115815000D01*
X140509004Y-115810878D01*
X140511999Y-115806757D01*
X140511999Y-115744753D01*
X140511780Y-115740110D01*
X140509655Y-115717626D01*
X140507090Y-115705930D01*
X140467700Y-115593766D01*
X140460853Y-115580833D01*
X140391041Y-115486316D01*
X140380684Y-115475959D01*
X140286167Y-115406147D01*
X140273234Y-115399300D01*
X140161073Y-115359912D01*
X140149371Y-115357344D01*
X140126886Y-115355218D01*
X140122250Y-115355000D01*
X140097680Y-115355000D01*
X140084995Y-115359122D01*
X140082000Y-115363243D01*
X140082000Y-115799320D01*
X139782000Y-115799320D01*
X139782000Y-115370681D01*
X139777878Y-115357996D01*
X139773757Y-115355001D01*
X139741753Y-115355001D01*
X139737110Y-115355220D01*
X139714626Y-115357345D01*
X139702930Y-115359910D01*
X139590766Y-115399300D01*
X139577833Y-115406147D01*
X139483316Y-115475959D01*
X139472961Y-115486314D01*
X139461371Y-115502006D01*
X139411591Y-115537581D01*
X139350407Y-115537101D01*
X139324701Y-115521210D01*
X139323539Y-115522870D01*
X139316438Y-115517898D01*
X139310316Y-115511776D01*
X139302468Y-115508116D01*
X139302466Y-115508115D01*
X139208356Y-115464231D01*
X139201487Y-115461028D01*
X139151901Y-115454500D01*
X138972028Y-115454500D01*
X138792100Y-115454501D01*
X138788890Y-115454924D01*
X138788883Y-115454924D01*
X138750025Y-115460039D01*
X138750024Y-115460039D01*
X138742513Y-115461028D01*
X138705501Y-115478287D01*
X138641534Y-115508115D01*
X138641532Y-115508116D01*
X138633684Y-115511776D01*
X138548776Y-115596684D01*
X138546622Y-115594530D01*
X138509396Y-115622584D01*
X138448220Y-115623653D01*
X138397530Y-115587796D01*
X138341041Y-115511316D01*
X138330684Y-115500959D01*
X138236167Y-115431147D01*
X138223234Y-115424300D01*
X138111073Y-115384912D01*
X138099371Y-115382344D01*
X138076886Y-115380218D01*
X138072250Y-115380000D01*
X138047680Y-115380000D01*
X138034995Y-115384122D01*
X138032000Y-115388243D01*
X138032000Y-116127914D01*
X138013093Y-116186105D01*
X137963593Y-116222069D01*
X137933000Y-116226914D01*
X137831000Y-116226914D01*
X137772809Y-116208007D01*
X137736845Y-116158507D01*
X137732000Y-116127914D01*
X137732000Y-115395681D01*
X137727878Y-115382996D01*
X137723757Y-115380001D01*
X137691753Y-115380001D01*
X137687110Y-115380220D01*
X137664626Y-115382345D01*
X137652930Y-115384910D01*
X137540766Y-115424300D01*
X137527833Y-115431147D01*
X137433316Y-115500959D01*
X137422961Y-115511314D01*
X137411371Y-115527006D01*
X137361591Y-115562581D01*
X137300407Y-115562101D01*
X137274701Y-115546210D01*
X137273539Y-115547870D01*
X137266438Y-115542898D01*
X137260316Y-115536776D01*
X137252468Y-115533116D01*
X137252466Y-115533115D01*
X137158356Y-115489231D01*
X137151487Y-115486028D01*
X137101901Y-115479500D01*
X136922028Y-115479500D01*
X136742100Y-115479501D01*
X136738890Y-115479924D01*
X136738883Y-115479924D01*
X136700025Y-115485039D01*
X136700024Y-115485039D01*
X136692513Y-115486028D01*
X136643208Y-115509020D01*
X136591534Y-115533115D01*
X136591532Y-115533116D01*
X136583684Y-115536776D01*
X136559956Y-115560504D01*
X136505439Y-115588281D01*
X136489952Y-115589500D01*
X135056372Y-115589500D01*
X135033425Y-115596956D01*
X135018324Y-115600581D01*
X135002196Y-115603135D01*
X135002194Y-115603136D01*
X134994501Y-115604354D01*
X134973008Y-115615305D01*
X134958662Y-115621248D01*
X134935715Y-115628704D01*
X134919871Y-115640216D01*
X134916200Y-115642883D01*
X134902959Y-115650998D01*
X134881463Y-115661950D01*
X134858900Y-115684513D01*
X134858896Y-115684516D01*
X134030408Y-116513004D01*
X133975891Y-116540781D01*
X133960404Y-116542000D01*
X133798274Y-116542000D01*
X133740083Y-116523093D01*
X133706810Y-116480886D01*
X133704142Y-116474444D01*
X133702240Y-116464883D01*
X133694997Y-116454042D01*
X133649531Y-116385998D01*
X133644112Y-116377888D01*
X133635959Y-116372440D01*
X133628535Y-116367480D01*
X133557117Y-116319760D01*
X133480401Y-116304500D01*
X133392055Y-116304500D01*
X133303600Y-116304501D01*
X133300636Y-116305091D01*
X133241442Y-116292105D01*
X133200799Y-116246370D01*
X133192500Y-116206693D01*
X133192500Y-115792519D01*
X133211407Y-115734328D01*
X133233273Y-115712616D01*
X133239880Y-115709372D01*
X133243313Y-115705933D01*
X133299952Y-115687968D01*
X133358009Y-115707284D01*
X133378888Y-115728145D01*
X133385095Y-115736548D01*
X133395452Y-115746905D01*
X133491784Y-115818057D01*
X133504717Y-115824904D01*
X133619005Y-115865039D01*
X133630708Y-115867607D01*
X133653713Y-115869782D01*
X133658349Y-115870000D01*
X133691320Y-115870000D01*
X133704005Y-115865878D01*
X133707000Y-115861757D01*
X133707000Y-115854320D01*
X134007000Y-115854320D01*
X134011122Y-115867005D01*
X134015243Y-115870000D01*
X134055651Y-115870000D01*
X134060287Y-115869782D01*
X134083292Y-115867607D01*
X134094995Y-115865039D01*
X134209283Y-115824904D01*
X134222216Y-115818057D01*
X134318548Y-115746905D01*
X134328905Y-115736548D01*
X134400057Y-115640216D01*
X134406904Y-115627283D01*
X134447039Y-115512995D01*
X134449607Y-115501292D01*
X134451782Y-115478287D01*
X134452000Y-115473651D01*
X134452000Y-115415680D01*
X134447878Y-115402995D01*
X134443757Y-115400000D01*
X134022680Y-115400000D01*
X134009995Y-115404122D01*
X134007000Y-115408243D01*
X134007000Y-115854320D01*
X133707000Y-115854320D01*
X133707000Y-115084320D01*
X134007000Y-115084320D01*
X134011122Y-115097005D01*
X134015243Y-115100000D01*
X134436320Y-115100000D01*
X134449005Y-115095878D01*
X134452000Y-115091757D01*
X134452000Y-115026349D01*
X134451782Y-115021713D01*
X134449607Y-114998708D01*
X134447039Y-114987005D01*
X134406904Y-114872717D01*
X134400057Y-114859784D01*
X134328905Y-114763452D01*
X134318548Y-114753095D01*
X134222216Y-114681943D01*
X134209283Y-114675096D01*
X134094995Y-114634961D01*
X134083292Y-114632393D01*
X134060287Y-114630218D01*
X134055651Y-114630000D01*
X134022680Y-114630000D01*
X134009995Y-114634122D01*
X134007000Y-114638243D01*
X134007000Y-115084320D01*
X133707000Y-115084320D01*
X133707000Y-114645680D01*
X133702878Y-114632995D01*
X133698757Y-114630000D01*
X133658349Y-114630000D01*
X133653713Y-114630218D01*
X133630708Y-114632393D01*
X133619006Y-114634961D01*
X133518217Y-114670355D01*
X133457049Y-114671796D01*
X133406715Y-114637008D01*
X133386442Y-114579279D01*
X133395690Y-114535110D01*
X133405002Y-114515141D01*
X133411530Y-114465555D01*
X133411529Y-114105754D01*
X133406757Y-114069496D01*
X133405991Y-114063679D01*
X133405991Y-114063678D01*
X133405002Y-114056167D01*
X133354254Y-113947338D01*
X133282574Y-113875658D01*
X133254797Y-113821141D01*
X133264368Y-113760709D01*
X133282574Y-113735650D01*
X133354254Y-113663970D01*
X133360769Y-113650000D01*
X133401799Y-113562010D01*
X133401799Y-113562009D01*
X133405002Y-113555141D01*
X133411530Y-113505555D01*
X133411529Y-113145754D01*
X133405002Y-113096167D01*
X133400910Y-113087391D01*
X133400667Y-113085415D01*
X133399681Y-113082031D01*
X133400232Y-113081870D01*
X133393457Y-113026663D01*
X133423123Y-112973151D01*
X133478577Y-112947295D01*
X133523440Y-112952150D01*
X133583617Y-112973283D01*
X133595316Y-112975850D01*
X133617801Y-112977976D01*
X133622437Y-112978194D01*
X133647007Y-112978194D01*
X133659692Y-112974072D01*
X133662687Y-112969951D01*
X133662687Y-112962513D01*
X133962687Y-112962513D01*
X133966809Y-112975198D01*
X133970930Y-112978193D01*
X134002934Y-112978193D01*
X134007577Y-112977974D01*
X134030061Y-112975849D01*
X134041757Y-112973284D01*
X134153921Y-112933894D01*
X134166854Y-112927047D01*
X134261371Y-112857235D01*
X134271728Y-112846878D01*
X134341540Y-112752361D01*
X134348387Y-112739428D01*
X134387775Y-112627267D01*
X134390343Y-112615565D01*
X134392469Y-112593080D01*
X134392687Y-112588444D01*
X134392687Y-112533874D01*
X134388565Y-112521189D01*
X134384444Y-112518194D01*
X133978367Y-112518194D01*
X133965682Y-112522316D01*
X133962687Y-112526437D01*
X133962687Y-112962513D01*
X133662687Y-112962513D01*
X133662687Y-112202514D01*
X133962687Y-112202514D01*
X133966809Y-112215199D01*
X133970930Y-112218194D01*
X134377006Y-112218194D01*
X134389691Y-112214072D01*
X134392686Y-112209951D01*
X134392686Y-112147947D01*
X134392467Y-112143304D01*
X134390342Y-112120820D01*
X134387777Y-112109124D01*
X134348387Y-111996960D01*
X134341540Y-111984027D01*
X134271728Y-111889510D01*
X134261371Y-111879153D01*
X134166854Y-111809341D01*
X134153921Y-111802494D01*
X134041760Y-111763106D01*
X134030058Y-111760538D01*
X134007573Y-111758412D01*
X134002937Y-111758194D01*
X133978367Y-111758194D01*
X133965682Y-111762316D01*
X133962687Y-111766437D01*
X133962687Y-112202514D01*
X133662687Y-112202514D01*
X133662687Y-111773875D01*
X133658565Y-111761190D01*
X133654444Y-111758195D01*
X133622440Y-111758195D01*
X133617797Y-111758414D01*
X133595313Y-111760539D01*
X133583617Y-111763104D01*
X133469575Y-111803153D01*
X133408407Y-111804594D01*
X133358073Y-111769806D01*
X133337800Y-111712077D01*
X133354458Y-111654743D01*
X133354892Y-111654093D01*
X133375005Y-111623993D01*
X133386638Y-111565510D01*
X133386638Y-111199000D01*
X133405545Y-111140809D01*
X133455045Y-111104845D01*
X133485638Y-111100000D01*
X145442961Y-111100000D01*
X145501152Y-111118907D01*
X145537116Y-111168407D01*
X145541961Y-111199037D01*
X145533372Y-132815508D01*
X145526345Y-150501039D01*
X145507415Y-150559223D01*
X145457900Y-150595167D01*
X145427345Y-150600000D01*
X116899000Y-150600000D01*
X116840809Y-150581093D01*
X116804845Y-150531593D01*
X116800000Y-150501000D01*
X116800000Y-148829262D01*
X117308520Y-148829262D01*
X117325759Y-149034553D01*
X117382544Y-149232586D01*
X117476712Y-149415818D01*
X117604677Y-149577270D01*
X117608357Y-149580402D01*
X117608359Y-149580404D01*
X117721017Y-149676283D01*
X117761564Y-149710791D01*
X117765787Y-149713151D01*
X117765791Y-149713154D01*
X117805342Y-149735258D01*
X117941398Y-149811297D01*
X117945996Y-149812791D01*
X118132724Y-149873463D01*
X118132726Y-149873464D01*
X118137329Y-149874959D01*
X118341894Y-149899351D01*
X118346716Y-149898980D01*
X118346719Y-149898980D01*
X118414541Y-149893761D01*
X118547300Y-149883546D01*
X118745725Y-149828145D01*
X118750038Y-149825966D01*
X118750044Y-149825964D01*
X118925289Y-149737441D01*
X118925291Y-149737440D01*
X118929610Y-149735258D01*
X118964943Y-149707653D01*
X119088135Y-149611406D01*
X119088139Y-149611402D01*
X119091951Y-149608424D01*
X119226564Y-149452472D01*
X119236260Y-149435404D01*
X119325934Y-149277550D01*
X119325935Y-149277547D01*
X119328323Y-149273344D01*
X119331355Y-149264231D01*
X119391824Y-149082454D01*
X119391824Y-149082452D01*
X119393351Y-149077863D01*
X119419171Y-148873474D01*
X119419583Y-148844000D01*
X119417667Y-148824454D01*
X119399952Y-148643780D01*
X119399951Y-148643776D01*
X119399480Y-148638970D01*
X119390708Y-148609914D01*
X119356135Y-148495405D01*
X138811898Y-148495405D01*
X138812995Y-148512145D01*
X138814408Y-148521064D01*
X138864200Y-148717121D01*
X138867220Y-148725649D01*
X138951904Y-148909341D01*
X138956422Y-148917167D01*
X139073171Y-149082363D01*
X139079035Y-149089229D01*
X139223931Y-149230381D01*
X139230954Y-149236068D01*
X139399138Y-149348446D01*
X139407093Y-149352764D01*
X139592929Y-149432606D01*
X139601540Y-149435404D01*
X139793830Y-149478914D01*
X139801167Y-149476840D01*
X139803787Y-149473514D01*
X139804000Y-149472317D01*
X139804000Y-149460679D01*
X140104000Y-149460679D01*
X140108122Y-149473364D01*
X140109292Y-149474215D01*
X140115272Y-149474725D01*
X140219115Y-149459668D01*
X140227914Y-149457556D01*
X140419450Y-149392538D01*
X140427714Y-149388858D01*
X140604194Y-149290026D01*
X140611652Y-149284900D01*
X140706822Y-149205748D01*
X141443500Y-149205748D01*
X141455133Y-149264231D01*
X141499448Y-149330552D01*
X141565769Y-149374867D01*
X141575332Y-149376769D01*
X141575334Y-149376770D01*
X141598005Y-149381279D01*
X141624252Y-149386500D01*
X143363748Y-149386500D01*
X143389995Y-149381279D01*
X143412666Y-149376770D01*
X143412668Y-149376769D01*
X143422231Y-149374867D01*
X143488552Y-149330552D01*
X143532867Y-149264231D01*
X143544500Y-149205748D01*
X143544500Y-147466252D01*
X143532867Y-147407769D01*
X143488552Y-147341448D01*
X143422231Y-147297133D01*
X143412668Y-147295231D01*
X143412666Y-147295230D01*
X143389995Y-147290721D01*
X143363748Y-147285500D01*
X141624252Y-147285500D01*
X141598005Y-147290721D01*
X141575334Y-147295230D01*
X141575332Y-147295231D01*
X141565769Y-147297133D01*
X141499448Y-147341448D01*
X141455133Y-147407769D01*
X141443500Y-147466252D01*
X141443500Y-149205748D01*
X140706822Y-149205748D01*
X140767157Y-149155568D01*
X140773568Y-149149157D01*
X140902900Y-148993652D01*
X140908026Y-148986194D01*
X141006858Y-148809714D01*
X141010538Y-148801450D01*
X141075556Y-148609914D01*
X141077668Y-148601115D01*
X141092109Y-148501518D01*
X141089850Y-148488372D01*
X141088815Y-148487363D01*
X141082968Y-148486000D01*
X140119680Y-148486000D01*
X140106995Y-148490122D01*
X140104000Y-148494243D01*
X140104000Y-149460679D01*
X139804000Y-149460679D01*
X139804000Y-148501680D01*
X139799878Y-148488995D01*
X139795757Y-148486000D01*
X138826962Y-148486000D01*
X138814277Y-148490122D01*
X138812202Y-148492978D01*
X138811898Y-148495405D01*
X119356135Y-148495405D01*
X119354540Y-148490122D01*
X119339935Y-148441749D01*
X119243218Y-148259849D01*
X119170288Y-148170428D01*
X138815487Y-148170428D01*
X138818090Y-148183511D01*
X138819663Y-148184965D01*
X138824378Y-148186000D01*
X139788320Y-148186000D01*
X139801005Y-148181878D01*
X139804000Y-148177757D01*
X139804000Y-148170320D01*
X140104000Y-148170320D01*
X140108122Y-148183005D01*
X140112243Y-148186000D01*
X141079464Y-148186000D01*
X141092149Y-148181878D01*
X141093818Y-148179582D01*
X141094222Y-148175966D01*
X141090003Y-148130048D01*
X141088356Y-148121164D01*
X141033449Y-147926481D01*
X141030208Y-147918037D01*
X140940745Y-147736624D01*
X140936020Y-147728914D01*
X140814994Y-147566840D01*
X140808945Y-147560122D01*
X140660405Y-147422814D01*
X140653240Y-147417315D01*
X140482163Y-147309374D01*
X140474110Y-147305271D01*
X140286229Y-147230314D01*
X140277571Y-147227749D01*
X140119379Y-147196283D01*
X140106132Y-147197851D01*
X140106100Y-147197881D01*
X140104000Y-147205928D01*
X140104000Y-148170320D01*
X139804000Y-148170320D01*
X139804000Y-147210517D01*
X139799878Y-147197832D01*
X139799274Y-147197393D01*
X139792127Y-147196877D01*
X139659559Y-147219657D01*
X139650823Y-147221998D01*
X139461050Y-147292009D01*
X139452887Y-147295902D01*
X139279047Y-147399326D01*
X139271745Y-147404631D01*
X139119657Y-147538010D01*
X139113434Y-147544568D01*
X138988209Y-147703415D01*
X138983284Y-147710998D01*
X138889097Y-147890018D01*
X138885643Y-147898358D01*
X138825658Y-148091538D01*
X138823777Y-148100389D01*
X138815487Y-148170428D01*
X119170288Y-148170428D01*
X119113011Y-148100200D01*
X119104945Y-148093527D01*
X118958002Y-147971965D01*
X118958000Y-147971964D01*
X118954275Y-147968882D01*
X118773055Y-147870897D01*
X118709855Y-147851333D01*
X118580875Y-147811407D01*
X118580871Y-147811406D01*
X118576254Y-147809977D01*
X118571446Y-147809472D01*
X118571443Y-147809471D01*
X118376185Y-147788949D01*
X118376183Y-147788949D01*
X118371369Y-147788443D01*
X118311354Y-147793905D01*
X118171022Y-147806675D01*
X118171017Y-147806676D01*
X118166203Y-147807114D01*
X117968572Y-147865280D01*
X117964288Y-147867519D01*
X117964287Y-147867520D01*
X117953428Y-147873197D01*
X117786002Y-147960726D01*
X117782231Y-147963758D01*
X117629220Y-148086781D01*
X117629217Y-148086783D01*
X117625447Y-148089815D01*
X117622333Y-148093526D01*
X117622332Y-148093527D01*
X117548197Y-148181878D01*
X117493024Y-148247630D01*
X117490689Y-148251878D01*
X117490688Y-148251879D01*
X117483955Y-148264126D01*
X117393776Y-148428162D01*
X117392313Y-148432775D01*
X117392311Y-148432779D01*
X117374121Y-148490122D01*
X117331484Y-148624532D01*
X117330944Y-148629344D01*
X117330944Y-148629345D01*
X117310713Y-148809714D01*
X117308520Y-148829262D01*
X116800000Y-148829262D01*
X116800000Y-120889262D01*
X117308520Y-120889262D01*
X117309526Y-120901244D01*
X117323620Y-121069075D01*
X117325759Y-121094553D01*
X117327092Y-121099201D01*
X117327092Y-121099202D01*
X117361272Y-121218400D01*
X117382544Y-121292586D01*
X117476712Y-121475818D01*
X117604677Y-121637270D01*
X117608357Y-121640402D01*
X117608359Y-121640404D01*
X117668066Y-121691218D01*
X117761564Y-121770791D01*
X117765787Y-121773151D01*
X117765791Y-121773154D01*
X117859778Y-121825681D01*
X117941398Y-121871297D01*
X117945996Y-121872791D01*
X118132724Y-121933463D01*
X118132726Y-121933464D01*
X118137329Y-121934959D01*
X118341894Y-121959351D01*
X118346716Y-121958980D01*
X118346719Y-121958980D01*
X118414541Y-121953761D01*
X118547300Y-121943546D01*
X118745725Y-121888145D01*
X118750038Y-121885966D01*
X118750044Y-121885964D01*
X118925289Y-121797441D01*
X118925291Y-121797440D01*
X118929610Y-121795258D01*
X118933427Y-121792276D01*
X119088135Y-121671406D01*
X119088139Y-121671402D01*
X119091951Y-121668424D01*
X119108496Y-121649257D01*
X119213920Y-121527120D01*
X119226564Y-121512472D01*
X119229532Y-121507247D01*
X119325934Y-121337550D01*
X119325935Y-121337547D01*
X119328323Y-121333344D01*
X119335220Y-121312613D01*
X119391824Y-121142454D01*
X119391824Y-121142452D01*
X119393351Y-121137863D01*
X119395665Y-121119551D01*
X119417541Y-120946373D01*
X119419171Y-120933474D01*
X119419224Y-120929725D01*
X119419544Y-120906776D01*
X119419583Y-120904000D01*
X119418630Y-120894276D01*
X119399952Y-120703780D01*
X119399951Y-120703776D01*
X119399480Y-120698970D01*
X119387026Y-120657719D01*
X119351967Y-120541600D01*
X119339935Y-120501749D01*
X119243218Y-120319849D01*
X119113011Y-120160200D01*
X118979203Y-120049504D01*
X118958002Y-120031965D01*
X118958000Y-120031964D01*
X118954275Y-120028882D01*
X118773055Y-119930897D01*
X118709855Y-119911333D01*
X118580875Y-119871407D01*
X118580871Y-119871406D01*
X118576254Y-119869977D01*
X118571446Y-119869472D01*
X118571443Y-119869471D01*
X118376185Y-119848949D01*
X118376183Y-119848949D01*
X118371369Y-119848443D01*
X118311354Y-119853905D01*
X118171022Y-119866675D01*
X118171017Y-119866676D01*
X118166203Y-119867114D01*
X117968572Y-119925280D01*
X117964288Y-119927519D01*
X117964287Y-119927520D01*
X117953428Y-119933197D01*
X117786002Y-120020726D01*
X117782231Y-120023758D01*
X117629220Y-120146781D01*
X117629217Y-120146783D01*
X117625447Y-120149815D01*
X117622333Y-120153526D01*
X117622332Y-120153527D01*
X117503524Y-120295117D01*
X117493024Y-120307630D01*
X117490689Y-120311878D01*
X117490688Y-120311879D01*
X117483955Y-120324126D01*
X117393776Y-120488162D01*
X117392313Y-120492775D01*
X117392311Y-120492779D01*
X117373546Y-120551936D01*
X117331484Y-120684532D01*
X117330944Y-120689344D01*
X117330944Y-120689345D01*
X117309470Y-120880795D01*
X117308520Y-120889262D01*
X116800000Y-120889262D01*
X116800000Y-118349262D01*
X117308520Y-118349262D01*
X117315432Y-118431579D01*
X117322060Y-118510499D01*
X117325759Y-118554553D01*
X117327092Y-118559201D01*
X117327092Y-118559202D01*
X117372742Y-118718401D01*
X117382544Y-118752586D01*
X117384759Y-118756896D01*
X117385360Y-118758066D01*
X117476712Y-118935818D01*
X117604677Y-119097270D01*
X117608357Y-119100402D01*
X117608359Y-119100404D01*
X117651865Y-119137430D01*
X117761564Y-119230791D01*
X117765787Y-119233151D01*
X117765791Y-119233154D01*
X117866940Y-119289684D01*
X117941398Y-119331297D01*
X117945996Y-119332791D01*
X118132724Y-119393463D01*
X118132726Y-119393464D01*
X118137329Y-119394959D01*
X118341894Y-119419351D01*
X118346716Y-119418980D01*
X118346719Y-119418980D01*
X118414541Y-119413761D01*
X118547300Y-119403546D01*
X118745725Y-119348145D01*
X118750038Y-119345966D01*
X118750044Y-119345964D01*
X118925289Y-119257441D01*
X118925291Y-119257440D01*
X118929610Y-119255258D01*
X118976785Y-119218401D01*
X119088135Y-119131406D01*
X119088139Y-119131402D01*
X119091951Y-119128424D01*
X119110585Y-119106837D01*
X119151313Y-119059651D01*
X119226564Y-118972472D01*
X119245231Y-118939613D01*
X119325934Y-118797550D01*
X119325935Y-118797547D01*
X119328323Y-118793344D01*
X119340059Y-118758066D01*
X119391824Y-118602454D01*
X119391824Y-118602452D01*
X119393351Y-118597863D01*
X119396774Y-118570771D01*
X119418823Y-118396228D01*
X119419171Y-118393474D01*
X119419218Y-118390157D01*
X119419482Y-118371234D01*
X119419583Y-118364000D01*
X119413815Y-118305170D01*
X119399952Y-118163780D01*
X119399951Y-118163776D01*
X119399480Y-118158970D01*
X119398017Y-118154122D01*
X119341333Y-117966380D01*
X119339935Y-117961749D01*
X119243218Y-117779849D01*
X119113011Y-117620200D01*
X119027655Y-117549587D01*
X118958002Y-117491965D01*
X118958000Y-117491964D01*
X118954275Y-117488882D01*
X118817328Y-117414835D01*
X118777309Y-117393197D01*
X118777308Y-117393197D01*
X118773055Y-117390897D01*
X118682340Y-117362816D01*
X118580875Y-117331407D01*
X118580871Y-117331406D01*
X118576254Y-117329977D01*
X118571446Y-117329472D01*
X118571443Y-117329471D01*
X118376185Y-117308949D01*
X118376183Y-117308949D01*
X118371369Y-117308443D01*
X118311354Y-117313905D01*
X118171022Y-117326675D01*
X118171017Y-117326676D01*
X118166203Y-117327114D01*
X117968572Y-117385280D01*
X117964288Y-117387519D01*
X117964287Y-117387520D01*
X117954972Y-117392390D01*
X117786002Y-117480726D01*
X117782231Y-117483758D01*
X117629220Y-117606781D01*
X117629217Y-117606783D01*
X117625447Y-117609815D01*
X117622333Y-117613526D01*
X117622332Y-117613527D01*
X117502263Y-117756620D01*
X117493024Y-117767630D01*
X117490689Y-117771878D01*
X117490688Y-117771879D01*
X117485274Y-117781728D01*
X117393776Y-117948162D01*
X117392313Y-117952775D01*
X117392311Y-117952779D01*
X117366452Y-118034298D01*
X117331484Y-118144532D01*
X117330944Y-118149344D01*
X117330944Y-118149345D01*
X117309240Y-118342847D01*
X117308520Y-118349262D01*
X116800000Y-118349262D01*
X116800000Y-115809262D01*
X117308520Y-115809262D01*
X117313602Y-115869782D01*
X117324872Y-116003986D01*
X117325759Y-116014553D01*
X117327092Y-116019201D01*
X117327092Y-116019202D01*
X117378907Y-116199901D01*
X117382544Y-116212586D01*
X117476712Y-116395818D01*
X117604677Y-116557270D01*
X117608357Y-116560402D01*
X117608359Y-116560404D01*
X117652012Y-116597555D01*
X117761564Y-116690791D01*
X117765787Y-116693151D01*
X117765791Y-116693154D01*
X117854034Y-116742471D01*
X117941398Y-116791297D01*
X117945996Y-116792791D01*
X118132724Y-116853463D01*
X118132726Y-116853464D01*
X118137329Y-116854959D01*
X118341894Y-116879351D01*
X118346716Y-116878980D01*
X118346719Y-116878980D01*
X118414541Y-116873761D01*
X118547300Y-116863546D01*
X118745725Y-116808145D01*
X118750038Y-116805966D01*
X118750044Y-116805964D01*
X118925289Y-116717441D01*
X118925291Y-116717440D01*
X118929610Y-116715258D01*
X119016127Y-116647664D01*
X119088135Y-116591406D01*
X119088139Y-116591402D01*
X119091951Y-116588424D01*
X119097438Y-116582068D01*
X119157051Y-116513004D01*
X119226564Y-116432472D01*
X119232256Y-116422453D01*
X119325934Y-116257550D01*
X119325935Y-116257547D01*
X119328323Y-116253344D01*
X119331775Y-116242969D01*
X119391824Y-116062454D01*
X119391824Y-116062452D01*
X119393351Y-116057863D01*
X119398640Y-116016000D01*
X119418823Y-115856228D01*
X119419171Y-115853474D01*
X119419215Y-115850368D01*
X119419544Y-115826776D01*
X119419583Y-115824000D01*
X119419020Y-115818254D01*
X119399952Y-115623780D01*
X119399951Y-115623776D01*
X119399480Y-115618970D01*
X119396151Y-115607942D01*
X119359342Y-115486028D01*
X119339935Y-115421749D01*
X119243218Y-115239849D01*
X119113011Y-115080200D01*
X119065589Y-115040969D01*
X118958002Y-114951965D01*
X118958000Y-114951964D01*
X118954275Y-114948882D01*
X118773055Y-114850897D01*
X118674613Y-114820424D01*
X118580875Y-114791407D01*
X118580871Y-114791406D01*
X118576254Y-114789977D01*
X118571446Y-114789472D01*
X118571443Y-114789471D01*
X118376185Y-114768949D01*
X118376183Y-114768949D01*
X118371369Y-114768443D01*
X118311354Y-114773905D01*
X118171022Y-114786675D01*
X118171017Y-114786676D01*
X118166203Y-114787114D01*
X117968572Y-114845280D01*
X117964288Y-114847519D01*
X117964287Y-114847520D01*
X117927351Y-114866830D01*
X117786002Y-114940726D01*
X117782231Y-114943758D01*
X117629220Y-115066781D01*
X117629217Y-115066783D01*
X117625447Y-115069815D01*
X117622333Y-115073526D01*
X117622332Y-115073527D01*
X117534773Y-115177876D01*
X117493024Y-115227630D01*
X117490689Y-115231878D01*
X117490688Y-115231879D01*
X117484438Y-115243248D01*
X117393776Y-115408162D01*
X117392313Y-115412775D01*
X117392311Y-115412779D01*
X117354999Y-115530404D01*
X117331484Y-115604532D01*
X117330944Y-115609344D01*
X117330944Y-115609345D01*
X117312600Y-115772891D01*
X117308520Y-115809262D01*
X116800000Y-115809262D01*
X116800000Y-114153748D01*
X117313500Y-114153748D01*
X117314448Y-114158512D01*
X117322291Y-114197942D01*
X117325133Y-114212231D01*
X117369448Y-114278552D01*
X117435769Y-114322867D01*
X117445332Y-114324769D01*
X117445334Y-114324770D01*
X117468005Y-114329279D01*
X117494252Y-114334500D01*
X119233748Y-114334500D01*
X119259995Y-114329279D01*
X119282666Y-114324770D01*
X119282668Y-114324769D01*
X119292231Y-114322867D01*
X119358552Y-114278552D01*
X119402867Y-114212231D01*
X119405710Y-114197942D01*
X119413552Y-114158512D01*
X119414500Y-114153748D01*
X119414500Y-112414252D01*
X119402867Y-112355769D01*
X119358552Y-112289448D01*
X119292231Y-112245133D01*
X119282668Y-112243231D01*
X119282666Y-112243230D01*
X119259995Y-112238721D01*
X119233748Y-112233500D01*
X117494252Y-112233500D01*
X117468005Y-112238721D01*
X117445334Y-112243230D01*
X117445332Y-112243231D01*
X117435769Y-112245133D01*
X117369448Y-112289448D01*
X117325133Y-112355769D01*
X117313500Y-112414252D01*
X117313500Y-114153748D01*
X116800000Y-114153748D01*
X116800000Y-111618712D01*
X129974465Y-111618712D01*
X129974811Y-111624558D01*
X129976699Y-111640426D01*
X129980593Y-111654592D01*
X130019235Y-111741587D01*
X130029411Y-111756394D01*
X130095573Y-111822440D01*
X130110396Y-111832590D01*
X130197445Y-111871073D01*
X130211650Y-111874946D01*
X130227045Y-111876741D01*
X130232757Y-111877073D01*
X130589300Y-111877073D01*
X130601985Y-111872951D01*
X130604980Y-111868830D01*
X130604980Y-111861393D01*
X130904980Y-111861393D01*
X130909102Y-111874078D01*
X130913223Y-111877073D01*
X131277134Y-111877073D01*
X131282980Y-111876727D01*
X131298848Y-111874839D01*
X131313014Y-111870945D01*
X131400009Y-111832303D01*
X131414816Y-111822127D01*
X131480862Y-111755965D01*
X131491012Y-111741142D01*
X131529495Y-111654093D01*
X131533368Y-111639888D01*
X131535163Y-111624493D01*
X131535495Y-111618781D01*
X131535495Y-111463953D01*
X131531373Y-111451268D01*
X131527252Y-111448273D01*
X130920660Y-111448273D01*
X130907975Y-111452395D01*
X130904980Y-111456516D01*
X130904980Y-111861393D01*
X130604980Y-111861393D01*
X130604980Y-111463953D01*
X130600858Y-111451268D01*
X130596737Y-111448273D01*
X129990145Y-111448273D01*
X129977460Y-111452395D01*
X129974465Y-111456516D01*
X129974465Y-111618712D01*
X116800000Y-111618712D01*
X116800000Y-111199000D01*
X116818907Y-111140809D01*
X116868407Y-111104845D01*
X116899000Y-111100000D01*
X129891947Y-111100000D01*
X129950138Y-111118907D01*
G37*
%TD.AperFunction*%
%TA.AperFunction,Conductor*%
G36*
X128434094Y-119899407D02*
G01*
X128470058Y-119948907D01*
X128470058Y-120010093D01*
X128445907Y-120049504D01*
X127502401Y-120993011D01*
X127447884Y-121020788D01*
X127387452Y-121011217D01*
X127360230Y-120990778D01*
X127347798Y-120977539D01*
X127230853Y-120880795D01*
X127220420Y-120874173D01*
X127083092Y-120809552D01*
X127071338Y-120805733D01*
X127040402Y-120799831D01*
X127027170Y-120801503D01*
X127026983Y-120801677D01*
X127025000Y-120809402D01*
X127025000Y-122031000D01*
X127006093Y-122089191D01*
X126956593Y-122125155D01*
X126926000Y-122130000D01*
X126824000Y-122130000D01*
X126765809Y-122111093D01*
X126729845Y-122061593D01*
X126725000Y-122031000D01*
X126725000Y-120810968D01*
X126721479Y-120800133D01*
X126710089Y-120800133D01*
X126601967Y-120835264D01*
X126590787Y-120840524D01*
X126462637Y-120921851D01*
X126453118Y-120929725D01*
X126349226Y-121040360D01*
X126341958Y-121050364D01*
X126270681Y-121180016D01*
X126226079Y-121221900D01*
X126165376Y-121229568D01*
X126111759Y-121200092D01*
X126093070Y-121171641D01*
X126082988Y-121148343D01*
X126082985Y-121148338D01*
X126080305Y-121142145D01*
X125985386Y-121024930D01*
X125918701Y-120977539D01*
X125867940Y-120941465D01*
X125867939Y-120941464D01*
X125862442Y-120937558D01*
X125856097Y-120935274D01*
X125856094Y-120935272D01*
X125726880Y-120888752D01*
X125726877Y-120888751D01*
X125720532Y-120886467D01*
X125676586Y-120883240D01*
X125576842Y-120875914D01*
X125576839Y-120875914D01*
X125570109Y-120875420D01*
X125563494Y-120876754D01*
X125563492Y-120876754D01*
X125532788Y-120882945D01*
X125502856Y-120888981D01*
X125442077Y-120881949D01*
X125397038Y-120840534D01*
X125385507Y-120807420D01*
X125380938Y-120778569D01*
X125380938Y-120778568D01*
X125379719Y-120770874D01*
X125318528Y-120650780D01*
X125223220Y-120555472D01*
X125216283Y-120551937D01*
X125216281Y-120551936D01*
X125110066Y-120497817D01*
X125110065Y-120497817D01*
X125103126Y-120494281D01*
X125095432Y-120493062D01*
X125095431Y-120493062D01*
X124977696Y-120474415D01*
X124970000Y-120473196D01*
X124962304Y-120474415D01*
X124844569Y-120493062D01*
X124844568Y-120493062D01*
X124836874Y-120494281D01*
X124829935Y-120497817D01*
X124829934Y-120497817D01*
X124723719Y-120551936D01*
X124723717Y-120551937D01*
X124716780Y-120555472D01*
X124621472Y-120650780D01*
X124560281Y-120770874D01*
X124555312Y-120802252D01*
X124555163Y-120803190D01*
X124527387Y-120857706D01*
X124472871Y-120885485D01*
X124450135Y-120886438D01*
X124300109Y-120875420D01*
X124293494Y-120876754D01*
X124293492Y-120876754D01*
X124247773Y-120885973D01*
X124152257Y-120905233D01*
X124017868Y-120973707D01*
X124012905Y-120978270D01*
X124012903Y-120978272D01*
X123944036Y-121041599D01*
X123906844Y-121075799D01*
X123903284Y-121081541D01*
X123832483Y-121195732D01*
X123827365Y-121203986D01*
X123802978Y-121287928D01*
X123795806Y-121312613D01*
X123761415Y-121363218D01*
X123703847Y-121383944D01*
X123645091Y-121366874D01*
X123607590Y-121318528D01*
X123602653Y-121298431D01*
X123601121Y-121287250D01*
X123600206Y-121280568D01*
X123597529Y-121274381D01*
X123597527Y-121274375D01*
X123563495Y-121195732D01*
X123557737Y-121134818D01*
X123584349Y-121086411D01*
X124761264Y-119909496D01*
X124815781Y-119881719D01*
X124831268Y-119880500D01*
X128375903Y-119880500D01*
X128434094Y-119899407D01*
G37*
%TD.AperFunction*%
%TD*%
M02*
