%TF.GenerationSoftware,KiCad,Pcbnew,(6.0.0)*%
%TF.CreationDate,2022-02-12T21:43:18+08:00*%
%TF.ProjectId,esp8266,65737038-3236-4362-9e6b-696361645f70,rev?*%
%TF.SameCoordinates,Original*%
%TF.FileFunction,Soldermask,Bot*%
%TF.FilePolarity,Negative*%
%FSLAX46Y46*%
G04 Gerber Fmt 4.6, Leading zero omitted, Abs format (unit mm)*
G04 Created by KiCad (PCBNEW (6.0.0)) date 2022-02-12 21:43:18*
%MOMM*%
%LPD*%
G01*
G04 APERTURE LIST*
%ADD10C,0.120000*%
%ADD11R,1.700000X1.700000*%
%ADD12O,1.700000X1.700000*%
%ADD13R,1.000000X1.000000*%
%ADD14O,1.000000X1.000000*%
G04 APERTURE END LIST*
D10*
%TO.C,E1*%
X144841166Y-110976055D02*
X129841166Y-110976055D01*
X129841166Y-110976055D02*
X129841166Y-105776055D01*
X129841166Y-105776055D02*
X144841166Y-105776055D01*
X144841166Y-105776055D02*
X144841166Y-110976055D01*
G36*
X144841166Y-110976055D02*
G01*
X129841166Y-110976055D01*
X129841166Y-105776055D01*
X144841166Y-105776055D01*
X144841166Y-110976055D01*
G37*
X144841166Y-110976055D02*
X129841166Y-110976055D01*
X129841166Y-105776055D01*
X144841166Y-105776055D01*
X144841166Y-110976055D01*
%TD*%
D11*
%TO.C,J4*%
X118364000Y-113284000D03*
D12*
X118364000Y-115824000D03*
X118364000Y-118364000D03*
X118364000Y-120904000D03*
X118364000Y-123444000D03*
X118364000Y-125984000D03*
X118364000Y-128524000D03*
X118364000Y-131064000D03*
X118364000Y-133604000D03*
X118364000Y-136144000D03*
X118364000Y-138684000D03*
X118364000Y-141224000D03*
X118364000Y-143764000D03*
X118364000Y-146304000D03*
X118364000Y-148844000D03*
%TD*%
D13*
%TO.C,J2*%
X143510000Y-125984000D03*
D14*
X143510000Y-127254000D03*
X143510000Y-128524000D03*
X143510000Y-129794000D03*
X143510000Y-131064000D03*
X143510000Y-132334000D03*
%TD*%
D11*
%TO.C,J1*%
X142494000Y-148336000D03*
D12*
X139954000Y-148336000D03*
%TD*%
M02*
