M48
; DRILL file {KiCad (6.0.0)} date Sat Feb 12 21:43:20 2022
; FORMAT={-:-/ absolute / metric / decimal}
; #@! TF.CreationDate,2022-02-12T21:43:20+08:00
; #@! TF.GenerationSoftware,Kicad,Pcbnew,(6.0.0)
; #@! TF.FileFunction,Plated,1,4,PTH
FMAT,2
METRIC
; #@! TA.AperFunction,Plated,PTH,ViaDrill
T1C0.200
; #@! TA.AperFunction,Plated,PTH,ComponentDrill
T2C0.650
; #@! TA.AperFunction,Plated,PTH,ComponentDrill
T3C1.000
%
G90
G05
T1
X122.512Y-115.158
X123.065Y-123.444
X123.937Y-123.473
X124.309Y-127.861
X124.97Y-120.904
X125.507Y-127.87
X126.342Y-130.623
X126.492Y-120.396
X127.116Y-123.306
X127.254Y-120.396
X127.554Y-118.276
X127.762Y-127.762
X128.016Y-117.602
X128.016Y-122.936
X128.244Y-118.504
X128.933Y-128.074
X129.301Y-121.824
X129.54Y-116.078
X129.794Y-132.179
X129.963Y-113.099
X130.061Y-127.885
X130.392Y-115.988
X130.442Y-118.18
X130.442Y-118.78
X130.442Y-119.38
X130.442Y-119.98
X130.442Y-120.58
X130.556Y-132.179
X130.81Y-115.57
X131.042Y-118.18
X131.042Y-118.78
X131.042Y-119.38
X131.042Y-119.98
X131.042Y-120.58
X131.318Y-132.179
X131.642Y-118.18
X131.642Y-118.78
X131.642Y-119.38
X131.642Y-119.98
X131.642Y-120.58
X131.892Y-115.636
X132.196Y-128.153
X132.242Y-118.18
X132.242Y-118.78
X132.242Y-119.38
X132.242Y-119.98
X132.242Y-120.58
X132.842Y-118.18
X132.842Y-118.78
X132.842Y-119.38
X132.842Y-119.98
X132.842Y-120.58
X133.35Y-127.822
X134.156Y-121.78
X134.159Y-116.951
X134.403Y-127.89
X134.741Y-121.856
X135.533Y-128.264
X136.098Y-118.824
X136.618Y-127.896
X137.882Y-115.072
X139.446Y-118.618
X140.076Y-117.894
T2
X143.51Y-125.984
X143.51Y-127.254
X143.51Y-128.524
X143.51Y-129.794
X143.51Y-131.064
X143.51Y-132.334
T3
X118.364Y-113.284
X118.364Y-115.824
X118.364Y-118.364
X118.364Y-120.904
X118.364Y-123.444
X118.364Y-125.984
X118.364Y-128.524
X118.364Y-131.064
X118.364Y-133.604
X118.364Y-136.144
X118.364Y-138.684
X118.364Y-141.224
X118.364Y-143.764
X118.364Y-146.304
X118.364Y-148.844
X139.954Y-148.336
X142.494Y-148.336
T0
M30
